<?xml version="1.0" encoding="utf-8"?>
<!-- Generator: Adobe Illustrator 24.0.1, SVG Export Plug-In . SVG Version: 6.00 Build 0)  -->
<svg version="1.1" id="レイヤー_1" xmlns="http://www.w3.org/2000/svg" xmlns:xlink="http://www.w3.org/1999/xlink" x="0px"
	 y="0px" viewBox="0 0 522.3 174.9" style="enable-background:new 0 0 522.3 174.9;" xml:space="preserve">
<style type="text/css">
	.st0{fill:url(#SVGID_1_);}
	.st1{opacity:0.28;clip-path:url(#SVGID_3_);}
	.st2{fill:#FFFFFF;}
	.st3{fill:#040000;}
	.st4{fill:#133C36;}
	.st5{enable-background:new    ;}
	.st6{fill:#FFE501;}
	.st7{fill:#E60000;}
	.st8{fill:none;stroke:#FFFFFF;stroke-width:2;stroke-miterlimit:10;}
	.st9{fill:#E60012;}
</style>
<g id="レイヤー_2_1_">
	
		<linearGradient id="SVGID_1_" gradientUnits="userSpaceOnUse" x1="261.15" y1="-2370.0828" x2="261.15" y2="-2195.1829" gradientTransform="matrix(1 0 0 -1 0 -2195.1829)">
		<stop  offset="0" style="stop-color:#FFEC00"/>
		<stop  offset="0.9879" style="stop-color:#FFCE52"/>
	</linearGradient>
	<rect y="0" class="st0" width="522.3" height="174.9"/>
	<g>
		<g>
			<g>
				<g>
					<g>
						<g>
							<defs>
								<rect id="SVGID_2_" y="0" width="522.3" height="174.9"/>
							</defs>
							<clipPath id="SVGID_3_">
								<use xlink:href="#SVGID_2_"  style="overflow:visible;"/>
							</clipPath>
							<g class="st1">
								<polygon class="st2" points="-25.3,138.7 -58.1,138.7 -5.9,36.2 27,36.2 								"/>
								<polygon class="st2" points="29.2,138.7 -3.6,138.7 48.6,36.2 81.4,36.2 								"/>
								<polygon class="st2" points="83.7,138.7 50.9,138.7 103.1,36.2 135.9,36.2 								"/>
								<polygon class="st2" points="138.2,138.7 105.3,138.7 157.6,36.2 190.4,36.2 								"/>
								<polygon class="st2" points="192.7,138.7 159.8,138.7 212.1,36.2 244.9,36.2 								"/>
								<polygon class="st2" points="247.2,138.7 214.3,138.7 266.6,36.2 299.4,36.2 								"/>
								<polygon class="st2" points="301.7,138.7 268.8,138.7 321,36.2 353.9,36.2 								"/>
								<polygon class="st2" points="356.2,138.7 323.3,138.7 375.5,36.2 408.4,36.2 								"/>
								<polygon class="st2" points="410.7,138.7 377.8,138.7 430,36.2 462.9,36.2 								"/>
								<polygon class="st2" points="465.2,138.7 432.3,138.7 484.5,36.2 517.4,36.2 								"/>
								<polygon class="st2" points="519.6,138.7 486.8,138.7 539,36.2 571.9,36.2 								"/>
							</g>
						</g>
					</g>
				</g>
			</g>
		</g>
	</g>
</g>
<g>
	<path class="st3" d="M455.5-1.7L445.8,8h10.6l16.2-16h-10.7l-6.3,6.2L455.5-1.7L455.5-1.7z M506.3-1.7L496.5,8H507l16.2-16h-10.7
		l-6.3,6.2L506.3-1.7L506.3-1.7z M487.3-8L471,8h10.7L498-8H487.3z M436.5-8L420.3,8H431l16.2-16H436.5z M151.2-1.7L141.4,8H152
		l16.2-16h-10.7l-6.3,6.2V-1.7z M132.2-8L116,8h10.7l16.2-16H132.2z M201.9-1.7L192.1,8h10.6l16.2-16h-10.7l-6.3,6.2L201.9-1.7
		L201.9-1.7z M182.9-8L166.7,8h10.7l16.2-16H182.9z M100.5-1.7L90.6,8h10.6l16.2-16h-10.7l-6.3,6.2v0.1
		C100.4-1.7,100.5-1.7,100.5-1.7z M49.7-1.7L39.9,8h10.6L66.7-8H56l-6.3,6.2V-1.7z M81.5-8L65.2,8h10.7L92.2-8H81.5z M335.1-8
		L318.9,8h10.7l16.2-16H335.1z M354.1-1.7L344.4,8H355l16.2-16h-10.7l-6.3,6.2L354.1-1.7L354.1-1.7z M404.8-1.7L395,8h10.6l16.2-16
		h-10.7l-6.3,6.2L404.8-1.7L404.8-1.7z M385.8-8L369.6,8h10.7l16.2-16H385.8z M233.6-8L217.4,8h10.7l16.2-16H233.6z M252.6-1.7
		L242.8,8h10.6l16.2-16h-10.7l-6.3,6.2L252.6-1.7L252.6-1.7z M303.4-1.7L293.6,8h10.6l16.2-16h-10.7l-6.3,6.2L303.4-1.7L303.4-1.7z
		 M284.4-8L268.2,8H279l16.2-16H284.4z M-1-1.8V8h0.8L16-8H5.3L-1-1.8z M30.7-8L14.5,8h10.7L41.4-8H30.7z"/>
</g>
<g>
	<path class="st4" d="M116.4,110.3H54.7c-4.7,0-8.9-2.4-11.2-6.5c-2.3-4-2.3-8.9,0-12.9l30.9-53.5c2.3-4,6.6-6.5,11.2-6.5
		s8.9,2.4,11.2,6.5l30.9,53.5c2.3,4,2.3,8.9,0,12.9C125.4,108,121.1,110.3,116.4,110.3z"/>
	<g>
		<g>
			<g class="st5">
				<path d="M172.2,35.5c0.3,1.2,0.9,1.7,2.6,1.7c1.5,0,2.3-0.5,2.3-1.5c0-0.3-0.1-0.8-0.5-0.9c-0.3-0.3-0.5-0.3-2-0.7
					c-1.6-0.3-2-0.5-2.8-0.8c-1.1-0.5-1.6-1.5-1.6-2.6c0-0.7,0.3-1.2,0.7-1.7c0.8-0.9,2-1.6,3.8-1.6c1.6,0,2.8,0.3,3.5,1.1
					c0.5,0.5,0.8,0.9,0.9,1.9l-2.6,0.3c-0.3-0.9-0.9-1.6-2-1.6s-2,0.5-2,1.2c0,0.3,0.3,0.7,0.7,0.9c0.3,0.3,0.8,0.3,1.9,0.5
					c1.9,0.3,2.7,0.7,3.4,1.1c0.8,0.5,1.1,1.2,1.1,2.4c0,0.8-0.3,1.6-0.9,2.2c-0.9,0.8-2.2,1.2-3.9,1.2c-1.9,0-3.5-0.7-4.2-1.6
					c-0.3-0.5-0.5-0.9-0.8-1.6L172.2,35.5z"/>
				<path d="M188.6,37.8c-0.8,0.8-1.2,0.9-2,1.1c-0.5,0.1-1.1,0.3-1.7,0.3c-2.3,0-3.6-1.1-3.6-3.2c0-1.2,0.9-2.6,2.2-3
					c1.2-0.4,2.7-0.8,5.4-0.8v-0.9c0-1.1-0.8-1.6-2.2-1.6c-0.8,0-1.6,0.3-2,0.5c-0.3,0.3-0.5,0.5-0.8,1.2l-2.4-0.3
					c0.3-1.1,0.8-1.6,1.6-2.2c0.9-0.7,2-0.9,3.6-0.9c1.7,0,2.8,0.3,3.8,1.1c0.7,0.7,0.9,1.2,0.9,2.7v5.1c0,0.9,0,1.6,0.1,2.4h-2.6
					L188.6,37.8L188.6,37.8z M188.6,33.7c-3.6,0.1-5.1,0.8-5.1,2.2c0,0.9,0.7,1.5,1.7,1.5c0.9,0,2-0.3,2.7-0.9
					c0.5-0.5,0.7-0.9,0.7-1.6L188.6,33.7L188.6,33.7z"/>
				<path d="M196.1,23.9c-0.1,0.8-0.1,1.5-0.1,2.6v6.2l2.8-2.8c0.9-0.9,1.1-1.2,1.6-1.6h3.5c-1.1,0.9-1.1,0.9-1.9,1.7l-2.7,2.6
					l3.2,4.4c1.2,1.7,1.2,1.7,1.7,2.2h-3.5c-0.3-0.7-0.5-0.9-1.2-2.2l-2-3l-1.6,1.6v1.2c0,1.2,0,1.6,0.1,2.4h-2.8
					c0.1-0.8,0.1-1.5,0.1-2.4V26.7c0-1.1,0-1.7-0.1-2.6L196.1,23.9L196.1,23.9z"/>
				<path d="M216,28c-0.1,0.8-0.1,1.5-0.1,2.4v5.9c0,0.9,0,1.6,0.1,2.4h-2.6v-0.9c0-0.3,0-0.3,0-0.8c-0.9,1.6-2,2-3.9,2
					c-0.9,0-1.6-0.1-2.3-0.5c-0.9-0.7-1.6-1.7-1.6-3.4v-4.7c0-0.9,0-1.7-0.1-2.4h2.8c-0.1,0.9-0.1,1.6-0.1,2.4v4.2
					c0,1.1,0.3,1.7,0.9,2.2c0.3,0.1,0.7,0.3,0.9,0.3c1.5,0,2.4-0.9,3.4-2.8v-3.8c0-0.9,0-1.6-0.1-2.4C213.4,28,216,28,216,28z"/>
				<path d="M221,34.3c0.1,0.9,0.1,1.2,0.5,1.6c0.5,0.8,1.6,1.1,2.8,1.1c1.9,0,3-0.9,3-2.3c0-0.8-0.3-1.5-0.9-1.7
					c-0.5-0.3-0.7-0.3-3.4-0.9c-1.5-0.3-2.2-0.7-2.8-1.1c-0.9-0.8-1.6-1.7-1.6-3c0-2.7,2.2-4.3,5.4-4.3c2.2,0,3.8,0.7,4.7,1.9
					c0.5,0.7,0.8,1.1,0.9,2.2l-2.7,0.3c-0.1-0.7-0.3-0.9-0.5-1.5c-0.5-0.7-1.2-0.9-2.4-0.9c-1.6,0-2.8,0.9-2.8,2
					c0,0.8,0.3,1.5,1.2,1.7c0.3,0.1,0.5,0.3,2.7,0.7c1.6,0.3,2.4,0.7,3,1.1c1.1,0.8,1.6,1.9,1.6,3.4s-0.3,2.4-1.1,3.2
					c-0.9,0.9-2.6,1.5-4.6,1.5c-1.6,0-3-0.3-3.9-0.9c-0.8-0.5-1.2-1.2-1.6-2.2c-0.1-0.3-0.3-0.8-0.3-1.6L221,34.3z"/>
				<path d="M242.7,38.9c-0.1-0.7-0.3-1.5-0.5-2l-0.8-1.9h-6l-0.8,2c-0.3,0.9-0.3,1.1-0.5,2h-3.2c0.3-0.5,0.7-1.5,0.9-2.3l4.2-10.9
					c0.3-0.9,0.5-1.5,0.7-1.9h3.4c0.1,0.5,0.3,0.8,0.7,1.9l4.2,10.9c0.5,1.2,0.8,1.7,0.9,2.3h-3v-0.1H242.7z M239,27.2
					c-0.1-0.3-0.1-0.3-0.3-0.9c-0.3,0.9-0.3,0.9-0.3,0.9l-2,5.5h4.7L239,27.2z"/>
				<path d="M258.7,36.5c1.1,1.6,1.5,1.7,1.9,2.4h-3.5c-0.3-0.5-0.8-1.5-1.1-2l-3.8-5.4l-2,2v2.8c0,1.1,0,1.6,0.1,2.4h-2.7
					c0.1-0.9,0.1-1.5,0.1-2.4V26.1c0-0.9,0-1.6-0.1-2.4h2.8c-0.1,0.7-0.1,1.5-0.1,2.4v4.4l4.7-5.1c0.8-0.8,1.1-1.2,1.6-1.9h3.5
					c-0.5,0.5-1.1,1.1-2,2l-4.2,4.2L258.7,36.5z"/>
				<path d="M275.3,23.9c-0.1,0.8-0.1,1.5-0.1,2.6v6.7c0,3.9-2.3,6-6.5,6c-2.2,0-3.8-0.7-5-1.7c-0.9-0.9-1.5-2.4-1.5-4.3v-6.7
					c0-1.1,0-1.9-0.1-2.7h2.8c-0.1,0.7-0.1,1.5-0.1,2.7v6.7c0,2.6,1.2,3.9,3.9,3.9c2.6,0,3.8-1.5,3.8-3.9v-6.7c0-1.2,0-1.9-0.1-2.7
					L275.3,23.9L275.3,23.9z"/>
			</g>
			<g class="st5">
				<path d="M186.8,72.5c-0.1,7.4-0.5,14.1-1.1,18.8c-0.8,6.2-2,9.8-4.7,14.2c-1.1-1.6-2.6-3.2-4.2-4.6c0,2.2,0.1,3,0.3,5h-6.5
					c0.3-2.4,0.3-3.9,0.3-6.9V82.9c0-2.2,0-4.2,0.1-7.5c-1.1,2.4-2.3,4.2-3.9,6.2c-1.1-3.8-1.1-3.8-2.6-7c3.2-3.5,5.6-7.8,7.9-12.9
					c1.6-3.6,2.6-6.9,2.8-9.5l6.2,1.6c-0.3,0.9-0.7,1.7-0.9,3c-1.1,3.8-1.9,5.8-3.6,9.3v33.4c1.6-2.6,2.2-4.3,2.8-7.8
					c0.9-4.4,1.2-10.1,1.2-19.2c0-2.2,0-3.9-0.3-5.8c1.9,0.3,3.2,0.3,6,0.3h25.8c3.2,0,4.6,0,6.3-0.3v5.9c-1.6-0.1-3.5-0.3-5.5-0.3
					L186.8,72.5L186.8,72.5z M189.4,56.2c0-1.7,0-2.6-0.3-3.5h6.3c-0.1,0.9-0.3,1.9-0.3,3.5v1.3h7.9v-1.2c0-1.7,0-2.6-0.3-3.5h6.3
					c-0.1,0.9-0.3,1.9-0.3,3.5v1.2h3.6c2.4,0,4.7-0.1,5.8-0.3v5.9c-1.6-0.1-3-0.3-5.8-0.3h-3.6v0.7c0,1.5,0,2,0.1,2.8h-6.3
					c0.1-0.9,0.1-1.7,0.1-2.8V63h-7.9v0.5c0,1.5,0,2,0.1,2.8h-6.3c0.1-0.9,0.1-1.7,0.1-2.8v-0.7h-2.4c-3,0-4.2,0-5.6,0.3v-5.6
					c1.6,0.1,3.5,0.3,5.6,0.3h2.4v-1.3C188.8,56.2,189.4,56.2,189.4,56.2z M193.5,96.2v3.5c0,3.8,0,5,0.3,6.2h-6.2
					c0.3-1.6,0.3-3.2,0.3-6.2V81.4c0-3.2,0-4.3-0.3-6.3c1.7,0.1,2.8,0.1,6,0.1h17.5c2.8,0,3.9,0,5.5-0.3c-0.1,1.2-0.3,3-0.3,6.2
					v19.6c0,3.8-1.2,4.7-6.6,4.7c-0.5,0-0.5,0-2.6,0c-0.3-2.3-0.5-3.2-1.1-5.1c1.2,0.1,2.6,0.3,3.5,0.3s1.2-0.3,1.2-1.2V96h-6.1v2.7
					c0,3.4,0,5,0.3,6.3h-5.8c0.3-1.7,0.3-3.4,0.3-6.3V96h-6L193.5,96.2L193.5,96.2z M199.7,80.3h-6.2v3.2h6.2V80.3z M199.7,88.1
					h-6.2v3.2h6.2V88.1z M211.3,83.4v-3.2H205v3.2H211.3z M211.3,91.3v-3.2H205v3.2H211.3z"/>
				<path d="M237.6,55.8c0-1.1,0-2-0.3-3.2h6.5c-0.1,1.1-0.3,2-0.3,3.2v0.5h12.8v-0.5c0-1.1,0-2-0.3-3.2h6.5
					c-0.1,1.1-0.3,1.9-0.3,3.2v0.5h7c2.8,0,5-0.1,6.7-0.3v5.6c-1.7-0.3-3.5-0.3-6.7-0.3h-7c0,0.9,0,1.6,0.3,2.4h-6.3
					c0-0.8,0.1-1.6,0.1-2.4h-12.8c0,0.9,0,1.6,0.1,2.4h-6.3c0.1-0.9,0.1-1.6,0.1-2.4h-6.5c-3.2,0-5,0-6.7,0.3V56
					c1.9,0.3,3.8,0.3,6.7,0.3h6.5L237.6,55.8L237.6,55.8z M262.5,73.2c-2.6,2.2-6.9,5.4-8.6,6.7c4.7-0.1,8.2-0.3,10.5-0.5
					c-1.2-0.9-1.7-1.5-3.5-2.7l4.4-3.2c4.7,3.5,7.5,6,11.6,9.9l-4.4,3.9c-1.6-2-2.3-2.7-3.5-3.9c-12.9,0.9-19.4,1.1-40.2,1.9
					c-1.5,0-2.4,0.1-3.5,0.3l-0.9-5.8c1.9,0.3,5.4,0.3,14,0.3c0.3,0,0.3,0,3,0c-2.2-0.9-7.5-3.5-10.5-4.6l3.8-3.9
					c2.8,1.2,3.5,1.6,5.4,2.4c1.5-0.9,2.2-1.6,3.8-3.2h-11.7c-3,0-5,0-6.7,0.3v-5.6c1.6,0.3,3.6,0.3,6.7,0.3h14.9
					c0-1.5,0-2.2-0.1-3.2h6.2c-0.1,1.1-0.1,1.6-0.1,3.2H269c2.8,0,5.2-0.1,6.7-0.3v5.6c-1.5-0.1-3.6-0.3-6.7-0.3h-10.5L262.5,73.2z
					 M229.8,91.7c0-2.2,0-3.8-0.1-5.4c1.6,0.1,2.8,0.1,5.6,0.1h30c3,0,4.2,0,5.6-0.3c-0.1,1.6-0.1,2.7-0.1,5.6v8.6
					c0,2,0.1,3.8,0.3,5.6h-6.3v-2.2h-29v2.2h-6.3c0.1-2,0.3-3.8,0.3-5.6v-8.7h0V91.7z M235.7,92.9h11.6v-2.4h-11.6V92.9z
					 M235.7,99.4h11.6v-2.6h-11.6V99.4z M250.7,70.6c-1.9,1.9-4.2,3.8-6,5.4c1.6,0.9,2,1.1,3.5,1.9c3.5-2.4,6.9-5.1,8.7-7.1
					L250.7,70.6L250.7,70.6z M252.8,92.9h12v-2.4h-12V92.9z M252.8,99.4h12v-2.6h-12V99.4z"/>
				<path d="M326.1,60.4c-0.7,0.1-0.7,0.1-4.7,1.6c-3.4,0.9-5.1,1.6-9.7,2.4c0,7.8,0,7.8-0.1,9.8h12.2c3.9,0,5,0,7-0.3v7
					c-2.2-0.3-3.2-0.3-7-0.3H311c-0.7,5.4-1.9,9.3-3.8,12.5c-2,3.4-5.4,6.6-9.3,9.1c-1.6,0.9-2.7,1.6-5.4,2.8
					c-1.6-2.8-2.6-4.2-5.1-6c4.2-1.6,6.3-2.7,8.9-4.7c3.5-2.8,5.6-6,6.6-9.8c0.3-0.9,0.3-1.9,0.7-3.8h-14.2c-3.6,0-4.7,0-7,0.3v-7.1
					c2.2,0.3,3.2,0.3,7,0.3H304c0.1-2.4,0.1-4.7,0.1-8.7c-4.7,0.7-6.5,0.9-16,1.2c-0.7-2.6-0.9-3.5-2.2-6.2c1.7,0.1,2.7,0.1,3.5,0.1
					c7.8,0,17.6-1.2,24.7-3.4c3.4-0.9,5.1-1.6,7-2.7L326.1,60.4z"/>
				<path d="M362.1,96.2h11.8c2.7,0,3.8,0,5.4-0.3v6.5c-1.6-0.1-2.8-0.3-5.4-0.3h-29.6c-2.6,0-3.8,0-5.4,0.3v-6.5
					c1.6,0.3,2.7,0.3,5.4,0.3h11.3V77.6h-7.8c-2.2,0-3.4,0-5.4,0.3v-6.6c1.6,0.3,2.8,0.3,5.2,0.3h22.6c2.4,0,3.6-0.1,5.4-0.3v6.5
					c-1.6-0.1-2.4-0.3-5.2-0.3h-8.2L362.1,96.2L362.1,96.2z"/>
				<path d="M395.3,68.1c2.4,4.4,3.5,7.3,5.6,13.7l-6.5,2c-1.6-5.8-2.7-8.9-5.2-14L395.3,68.1z M428.3,68.7
					c-0.3,0.9-0.5,1.1-0.8,2.8c-1.6,7.9-4.3,14.2-7.9,19.1c-4.3,5.8-9,9.5-17.6,14c-1.6-2.6-2.2-3.5-4.6-5.6
					c4.2-1.6,6.3-2.8,9.8-5.4c6.7-5,10.6-10.8,13-20c0.8-2.8,0.9-4.7,0.9-6.6L428.3,68.7z M407.5,65.9c3,5.6,4.2,8.2,5.5,13.3
					l-6.3,2c-1.1-4.4-2.8-8.9-5.2-13.6L407.5,65.9z"/>
				<path d="M480.7,64.4c-0.7,0.9-0.8,1.5-1.5,3.5c-2.7,8.7-6.7,16.5-11.8,22.3c-5.4,6-11.7,10.5-20.6,14.6c-1.6-2.8-2.4-3.8-5-6
					c5.6-2.4,9-4.2,12.6-6.9c8.2-6,13.7-14.1,16.8-24.3l-17.3,0.3c-3.5,5.5-7.9,10.5-13.4,14.6c-1.7-2.4-2.6-3.2-5.5-5
					c6.6-4.4,10.8-9.1,14.9-16.8c1.7-3.4,2.7-5.5,2.8-7.5l7.9,1.6c-0.3,0.5-0.3,0.5-0.9,1.7c-0.1,0.3-0.1,0.3-0.8,1.6
					c-0.1,0.3-0.1,0.3-0.8,1.6c-0.3,0.8-0.3,0.8-0.9,1.9c0.8,0,1.6-0.1,2.8-0.1l12.6-0.1c2.3,0,2.8-0.1,4.2-0.7L480.7,64.4z"/>
			</g>
		</g>
		<g>
			<path class="st6" d="M76.7,37.6L45.8,91.1c-3.9,6.9,0.9,15.3,8.9,15.3h61.7c7.8,0,12.8-8.5,8.9-15.3L94.5,37.6
				C90.4,30.6,80.6,30.6,76.7,37.6z"/>
			<path class="st7" d="M116.2,108.8H54.5c-4.7,0-8.9-2.4-11.2-6.5c-2.3-4-2.3-8.9,0-12.9l30.9-53.5c2.3-4,6.6-6.5,11.2-6.5
				s8.9,2.4,11.2,6.5l30.9,53.5c2.3,4,2.3,8.9,0,12.9S120.9,108.8,116.2,108.8z M79.1,38.8L48.2,92.3c-1.3,2.3-1.3,5.1,0,7.3
				c1.3,2.3,3.8,3.8,6.5,3.8h61.7c2.7,0,5.1-1.3,6.5-3.8c1.3-2.3,1.3-5.1,0-7.3L92,38.8c-1.3-2.3-3.8-3.8-6.5-3.8
				S80.5,36.5,79.1,38.8L79.1,38.8z"/>
		</g>
		<g class="st5">
			<path class="st7" d="M86.9,79.2v1.5c0,2.3,0,2.7,0.1,3.4h-4.3c0.1-0.9,0.1-1.7,0.1-3.4v-9.1c-0.4,4.2-0.4,4.2-0.8,6
				c-0.4,2.8-0.9,4.3-2,6.5c-0.9-1.3-1.5-2.2-2.4-3.2c0,1.3,0,2,0.3,3.4h-4.7c0.1-1.6,0.3-2,0.3-3.5v-7.5c0-0.7,0-1.3,0.1-3.4
				c-0.4,0.8-0.9,1.5-1.5,2c-0.4-2.4-0.8-3.4-1.6-5.5c1.5-1.6,2.6-3.5,3.5-5.9c0.8-1.9,1.2-3.5,1.5-5l4.6,1.1
				C80,57,80,57.1,79.8,57.5c0.9,0.1,1.7,0.1,2.8,0.1H83v-0.4c0-0.8,0-1.1-0.1-1.6h4.7c-0.1,0.4-0.1,0.9-0.1,1.5v0.4h3v-0.4
				c0-0.8,0-1.1-0.1-1.6H95c-0.1,0.4-0.1,0.9-0.1,1.5v0.4h0.9c1.5,0,2.7-0.1,3.2-0.3v4.2c-1.1-0.1-1.5-0.1-3.2-0.1h-0.9v1.6H96
				c1.7,0,2.4,0,3.5-0.1v4.2c-0.9-0.1-1.6-0.1-2.8-0.1H83.3v0.7c0.8,0.1,1.6,0.1,3,0.1H96c1.3,0,2,0,2.8-0.1
				c-0.1,0.7-0.1,1.5-0.1,3.1v10.2c0,2.4-0.7,2.8-5,2.8c-0.3-1.5-0.3-2.2-0.8-3.4c0.4,0,0.8,0.1,1.1,0.1c0.4,0,0.5-0.1,0.5-0.5v-0.5
				h-1.9v1.1c0,1.9,0,2.7,0.1,3.5h-4c0.1-0.9,0.1-1.7,0.1-3.5v-1.1L86.9,79.2L86.9,79.2z M77.9,78.3c0.4-1.1,0.5-1.9,0.8-3
				c0.3-1.7,0.4-5.2,0.4-8.7c0-1.7,0-2.6-0.1-3.8c1.2,0.1,1.6,0.1,3.4,0.1h0.9v-1.4h-0.4c-1.7,0-2.3,0-3.2,0.1v-3.2
				c-0.5,1.9-0.9,2.7-1.7,4.4C77.9,62.8,77.9,78.3,77.9,78.3z M88.8,71h-1.9v1.2h1.9V71z M88.8,75.1h-1.9v1.3h1.9V75.1z M90.7,63
				v-1.5h-3V63H90.7z M94.6,72.2V71h-1.9v1.2H94.6z M94.6,76.3v-1.2h-1.9v1.2H94.6z"/>
		</g>
		<g class="st5">
			<path class="st7" d="M83.7,47.4c0,0.4,0.1,0.7,0.3,0.9c0.3,0.4,0.9,0.7,1.6,0.7c0.9,0,1.6-0.4,1.6-1.2c0-0.4-0.3-0.8-0.5-0.9
				c-0.3-0.1-0.7-0.3-2-0.5c-1.2-0.3-1.6-0.4-2.2-0.8c-0.9-0.5-1.3-1.5-1.3-2.6c0-2.2,1.6-3.4,4.3-3.4c1.6,0,3,0.5,3.8,1.6
				c0.3,0.4,0.4,0.9,0.7,1.6l-3,0.3c-0.1-0.9-0.7-1.2-1.6-1.2c-0.8,0-1.5,0.4-1.5,1.1c0,0.3,0.3,0.7,0.7,0.9
				c0.3,0.1,0.3,0.1,1.9,0.4c0.9,0.3,1.6,0.4,2.3,0.8c0.9,0.5,1.5,1.6,1.5,2.8c0,0.9-0.3,1.9-0.9,2.4c-0.8,0.8-2,1.1-3.5,1.1
				c-1.1,0-2.3-0.3-3-0.7c-0.7-0.3-1.1-0.9-1.5-1.6c-0.1-0.3-0.3-0.7-0.3-1.2L83.7,47.4z"/>
		</g>
		<polygon points="62.2,98.4 85.4,120.3 131.9,50.1 81.1,103.7 67.3,92.3 		"/>
	</g>
</g>
<g>
	<path class="st3" d="M455.5,173.2l-9.8,9.7h10.6l16.2-16h-10.7l-6.3,6.2L455.5,173.2L455.5,173.2z M506.3,173.2l-9.8,9.7H507
		l16.2-16h-10.7l-6.3,6.2L506.3,173.2L506.3,173.2z M487.3,166.9l-16.3,16h10.7l16.3-16H487.3z M436.5,166.9l-16.2,16H431l16.2-16
		H436.5z M151.2,173.2l-9.8,9.7H152l16.2-16h-10.7l-6.3,6.2V173.2z M132.2,166.9l-16.2,16h10.7l16.2-16H132.2z M201.9,173.2
		l-9.8,9.7h10.6l16.2-16h-10.7l-6.3,6.2V173.2z M182.9,166.9l-16.2,16h10.7l16.2-16H182.9z M100.5,173.2l-9.9,9.7h10.6l16.2-16
		h-10.7l-6.3,6.2v0.1C100.4,173.2,100.5,173.2,100.5,173.2z M49.7,173.2l-9.8,9.7h10.6l16.2-16H56l-6.3,6.2V173.2z M81.5,166.9
		l-16.3,16h10.7l16.3-16H81.5z M335.1,166.9l-16.2,16h10.7l16.2-16H335.1z M354.1,173.2l-9.8,9.7H355l16.2-16h-10.7l-6.3,6.2
		L354.1,173.2L354.1,173.2z M404.8,173.2l-9.8,9.7h10.6l16.2-16h-10.7l-6.3,6.2L404.8,173.2L404.8,173.2z M385.8,166.9l-16.2,16
		h10.7l16.2-16H385.8z M233.6,166.9l-16.2,16h10.7l16.2-16H233.6z M252.6,173.2l-9.8,9.7h10.6l16.2-16h-10.7l-6.3,6.2L252.6,173.2
		L252.6,173.2z M303.4,173.2l-9.8,9.7h10.6l16.2-16h-10.7l-6.3,6.2L303.4,173.2L303.4,173.2z M284.4,166.9l-16.2,16h10.7l16.2-16
		H284.4z M-1,173.1v9.8h0.8l16.2-16H5.3L-1,173.1z M30.7,166.9l-16.2,16h10.7l16.2-16H30.7z"/>
</g>
<line class="st8" x1="0" y1="174.9" x2="522.2" y2="174.9"/>
<rect x="-11.9" y="125.9" class="st9" width="546" height="31"/>
<g>
	<path class="st2" d="M111.8,142.9c1.1-1.2,1.1-1.2,2.3-2.7l5.3-6.2c1.2-1.3,1.6-2,2.3-2.9h5c-0.1,1.4-0.2,2.4-0.2,4.1v7.9h0.7
		c0.8,0,1.6-0.1,2.4-0.2v4.5c-0.7-0.1-1.6-0.1-2.4-0.1h-0.7v1.2c0,1.4,0,2.1,0.2,3h-5c0.1-0.8,0.2-1.9,0.2-3.1v-1.2H115
		c-1.6,0-2.3,0-3.2,0.1V142.9z M122,140.3c0-1.1,0-2.4,0.1-3.5c-0.5,0.7-0.9,1.2-1.5,2l-3.6,4.4h4.9V140.3z"/>
	<path class="st2" d="M133.8,149.6c-0.8-0.8-1.4-1.7-1.8-2.7c-0.6-1.7-1-3.6-1-5.6c0-2.6,0.6-5.2,1.5-6.8c1.5-2.5,4-3.9,7.1-3.9
		c2.4,0,4.5,0.8,5.9,2.3c0.8,0.8,1.4,1.7,1.8,2.7c0.6,1.7,1,3.6,1,5.6c0,2.6-0.6,5.3-1.5,6.8c-1.5,2.4-4,3.8-7.1,3.8
		C137.3,151.9,135.3,151.1,133.8,149.6z M136,141.1c0,4.4,1.2,6.6,3.7,6.6c2.4,0,3.6-2.2,3.6-6.6c0-4.2-1.3-6.4-3.6-6.4
		C137.4,134.8,136,137.1,136,141.1z"/>
	<path class="st2" d="M149.6,142.9c1.1-1.2,1.1-1.2,2.3-2.7l5.3-6.2c1.2-1.3,1.6-2,2.3-2.9h5c-0.1,1.4-0.2,2.4-0.2,4.1v7.9h0.7
		c0.8,0,1.6-0.1,2.4-0.2v4.5c-0.7-0.1-1.6-0.1-2.4-0.1h-0.7v1.2c0,1.4,0,2.1,0.2,3h-5c0.1-0.8,0.2-1.9,0.2-3.1v-1.2h-6.9
		c-1.6,0-2.3,0-3.2,0.1V142.9z M159.8,140.3c0-1.1,0-2.4,0.1-3.5c-0.5,0.7-0.9,1.2-1.5,2l-3.6,4.4h4.9V140.3z"/>
	<path class="st2" d="M185.9,151.4c0.1-1.1,0.2-2.2,0.2-3.6v-13.2c0-1.3,0-2.4-0.2-3.6c1.1,0,2,0.1,3.6,0.1h5.4
		c4.8,0,7.5,2.3,7.5,6.6c0,4.4-2.8,6.9-7.5,6.9h-3.9v3.1c0,1.4,0.1,2.6,0.2,3.7H185.9z M194.6,140.4c1.7,0,2.7-1,2.7-2.6
		c0-1.7-1-2.6-2.7-2.6h-3.6v5.2H194.6z"/>
	<path class="st2" d="M214.1,141.2c0-1.2-0.7-1.7-2.3-1.7c-1.6,0-2.4,0.5-2.8,1.7l-4.7-0.8c0.5-1.4,1-2.2,2.1-3
		c1.3-0.9,3.1-1.4,5.5-1.4c1.8,0,3.6,0.3,4.5,0.9c1.6,0.9,2.3,2.2,2.3,4.4v6.6c0,1.5,0,2.4,0.2,3.5h-4.7v-1.1
		c-1.4,1.1-2.7,1.5-4.7,1.5c-1.9,0-3.3-0.4-4.2-1.3c-0.9-0.8-1.3-2-1.3-3.3c0-1.5,0.6-2.8,1.8-3.6c1.2-0.9,2.9-1.4,5.1-1.6
		c1-0.1,1.7-0.1,3.4-0.2V141.2z M214.1,144.9c-2.2,0-3.2,0.2-4.2,0.5c-0.9,0.3-1.4,0.9-1.4,1.6c0,0.9,0.7,1.4,2,1.4
		c1,0,2.1-0.4,2.8-0.9c0.6-0.5,0.9-1.1,0.9-1.9V144.9z"/>
	<path class="st2" d="M224.7,151c0.9,1.1,2.1,1.7,3.7,1.7c1.3,0,2.4-0.4,3-1.1c0.5-0.6,0.7-1.3,0.8-2.6c-1.2,1.1-2.6,1.6-4.5,1.6
		c-4.3,0-6.9-2.8-6.9-7.2c0-4.4,2.8-7.2,6.9-7.2c1.8,0,3.1,0.4,4.5,1.4c0-0.2,0-0.3,0-0.5v-0.5h4.8c-0.1,1.1-0.2,2-0.2,3.4v8.6
		c0,2.9-0.8,4.9-2.5,6.1c-1.3,0.9-3.4,1.4-5.8,1.4c-3.3,0-5.5-0.8-7.2-2.7L224.7,151z M228.6,147.1c2,0,3.4-1.5,3.4-3.7
		s-1.4-3.7-3.4-3.7c-2,0-3.2,1.5-3.2,3.8C225.4,145.6,226.7,147.1,228.6,147.1z"/>
	<path class="st2" d="M243.4,145.3c0.2,2,1.4,3,3.3,3c1,0,1.8-0.3,2.5-0.9c0.4-0.3,0.5-0.6,0.7-1.2l4.3,1.2
		c-0.6,1.3-0.9,1.8-1.6,2.5c-1.4,1.4-3.4,2.1-5.8,2.1c-2.4,0-4.3-0.7-5.7-2.1c-1.4-1.5-2.2-3.5-2.2-6c0-4.8,3.1-8,7.8-8
		c3.8,0,6.5,2.1,7.3,5.7c0.2,0.8,0.3,1.8,0.4,3.2c0,0.1,0,0.2,0,0.5H243.4z M249.8,142c-0.3-1.6-1.4-2.4-3.1-2.4
		c-1.7,0-2.8,0.8-3.2,2.4H249.8z"/>
	<path class="st2" d="M276.4,141.1c0.7,1.1,1.2,1.8,1.8,2.9c-0.1-1.1-0.1-2.2-0.1-3.6v-5.6c0-1.6,0-2.6-0.2-3.7h5.2
		c-0.1,1.1-0.2,2.1-0.2,3.7v13c0,1.5,0.1,2.6,0.2,3.6h-5.4c-0.4-0.9-1-1.8-1.8-3.1l-4.5-6.8c-0.7-1-1.1-1.7-1.8-3
		c0.1,1.1,0.2,2.4,0.2,3.6v5.5c0,1.7,0,2.8,0.2,3.8h-5.2c0.1-1,0.2-2,0.2-3.8v-12.9c0-1.4,0-2.5-0.2-3.6h5.3
		c0.2,0.7,0.8,1.6,1.7,3.1L276.4,141.1z"/>
	<path class="st2" d="M285.3,143.9c0-4.9,3.1-8,8.1-8c4.9,0,8.1,3.1,8.1,7.9c0,4.9-3.2,8.1-8.1,8.1
		C288.4,152,285.3,148.9,285.3,143.9z M289.9,143.9c0,2.7,1.3,4.4,3.4,4.4c2.1,0,3.4-1.6,3.4-4.3c0-2.7-1.2-4.4-3.3-4.4
		C291.2,139.6,289.9,141.2,289.9,143.9z"/>
	<path class="st2" d="M305.3,136c0-1.2,0-2.2-0.2-3.4h5c-0.1,1-0.2,2.2-0.2,3.4v0.5h0.9c1.1,0,1.6,0,2.4-0.1v4.1
		c-0.7-0.1-1.4-0.1-2.2-0.1h-1v6.3c0,0.7,0.1,1,0.4,1.2c0.3,0.2,0.7,0.3,1.1,0.3c0.6,0,1.1-0.1,1.7-0.4l0.4,3.7
		c-1.1,0.3-2.1,0.5-3.4,0.5c-1.7,0-2.8-0.3-3.6-0.9c-0.9-0.7-1.3-1.5-1.3-3.2v-7.5h-0.9c-0.8,0-1.4,0-2.1,0.1v-4.1
		c0.7,0.1,1.3,0.1,2.2,0.1h0.9V136z"/>
	<path class="st2" d="M328.5,147.2c0,2.3,0,3.2,0.2,4.3h-5.3c0.2-1.1,0.2-2.1,0.2-4.2v-12.7c0-1.6,0-2.4-0.2-3.6
		c1,0,1.7,0.1,3.6,0.1h7.1c2.2,0,3,0,4.1-0.2v4.6c-1.1-0.1-2-0.2-4.1-0.2h-5.6v4h4.6c1.9,0,2.8,0,3.9-0.2v4.5
		c-1.1-0.1-2.1-0.2-3.9-0.2h-4.6V147.2z"/>
	<path class="st2" d="M339.4,143.9c0-4.9,3.1-8,8.1-8s8.1,3.1,8.1,7.9c0,4.9-3.2,8.1-8.1,8.1C342.6,152,339.4,148.9,339.4,143.9z
		 M344.1,143.9c0,2.7,1.3,4.4,3.4,4.4s3.4-1.6,3.4-4.3c0-2.7-1.2-4.4-3.3-4.4C345.4,139.6,344.1,141.2,344.1,143.9z"/>
	<path class="st2" d="M372.9,136.5c-0.1,1.1-0.2,2.2-0.2,3.7v7.6c0,1.7,0,2.7,0.2,3.7h-4.9v-1.1c0-0.1,0-0.5,0-0.7
		c-1.6,1.5-3,2.1-5.1,2.1c-1.6,0-3-0.5-3.9-1.4c-1-1-1.4-2.2-1.4-4.1v-6.1c0-1.4-0.1-2.6-0.2-3.7h5.1c-0.1,1.2-0.2,2.2-0.2,3.7v5
		c0,1,0.1,1.4,0.4,1.8c0.3,0.4,0.9,0.7,1.6,0.7c1.3,0,2.7-1,3.7-2.5v-5c0-1.4,0-2.4-0.2-3.7H372.9z"/>
	<path class="st2" d="M375.5,151.4c0.1-1.1,0.2-2.2,0.2-3.7v-7.5c0-1.7,0-2.7-0.2-3.7h4.9v1c0,0.1,0,0.5,0,0.7c1.5-1.5,3-2.1,5-2.1
		c1.7,0,3,0.5,3.9,1.4c1,1,1.4,2.2,1.4,4.1v6.1c0,1.4,0.1,2.6,0.2,3.7h-5.1c0.1-1.2,0.2-2.2,0.2-3.7v-5c0-1-0.1-1.4-0.4-1.8
		c-0.3-0.4-0.9-0.7-1.6-0.7c-1.4,0-2.6,0.9-3.6,2.6v4.9c0,1.4,0,2.4,0.2,3.7H375.5z"/>
	<path class="st2" d="M404.9,150.6c0-0.1,0-0.3,0-0.5c-1.6,1.3-2.9,1.8-4.9,1.8c-4.5,0-7.1-3-7.1-7.9c0-2.5,0.7-4.6,2.1-6
		c1.2-1.2,3-1.9,5-1.9c2,0,3.4,0.5,5,1.8c0-0.4,0-0.6,0-0.9v-2c0-1.7,0-2.8-0.2-3.8h5c-0.1,1-0.2,2.2-0.2,3.8v12.7
		c0,1.6,0,2.6,0.2,3.8h-4.8V150.6z M397.6,144c0,1.4,0.4,2.5,1.1,3.2c0.6,0.6,1.5,0.9,2.4,0.9c2.2,0,3.8-1.8,3.8-4.2
		c0-2.4-1.6-4.1-3.8-4.1C398.9,139.8,397.6,141.4,397.6,144z"/>
</g>
</svg>
