<?xml version="1.0" encoding="utf-8"?>
<!-- Generator: Adobe Illustrator 24.0.1, SVG Export Plug-In . SVG Version: 6.00 Build 0)  -->
<svg version="1.1" id="レイヤー_1" xmlns="http://www.w3.org/2000/svg" xmlns:xlink="http://www.w3.org/1999/xlink" x="0px"
	 y="0px" viewBox="0 0 522.3 208.8" style="enable-background:new 0 0 522.3 208.8;" xml:space="preserve">
<style type="text/css">
	.st0{fill:url(#SVGID_1_);}
	.st1{opacity:0.28;clip-path:url(#SVGID_3_);}
	.st2{fill:#FFFFFF;}
	.st3{fill:#040000;}
	.st4{fill:#133C36;}
	.st5{enable-background:new    ;}
	.st6{fill:#FFE501;}
	.st7{fill:#E60000;}
	.st8{fill:#1E1D1D;}
	.st9{fill:none;stroke:#FFFFFF;stroke-width:2;stroke-miterlimit:10;}
	.st10{fill:#481D1A;}
	.st11{fill:#FEE9DB;}
	.st12{fill:none;}
	.st13{fill:#4CC2FF;}
	.st14{fill:none;stroke:#FFFFFF;stroke-width:1.1361;stroke-miterlimit:10;}
</style>
<g id="レイヤー_2_1_">
	
		<linearGradient id="SVGID_1_" gradientUnits="userSpaceOnUse" x1="261.15" y1="-2972.186" x2="261.15" y2="-2763.3862" gradientTransform="matrix(1 0 0 -1 0 -2763.3862)">
		<stop  offset="0" style="stop-color:#FFEC00"/>
		<stop  offset="0.9879" style="stop-color:#FFCE52"/>
	</linearGradient>
	<rect y="0" class="st0" width="522.3" height="208.8"/>
	<g>
		<g>
			<g>
				<g>
					<g>
						<g>
							<defs>
								<rect id="SVGID_2_" y="0" width="522.3" height="208.8"/>
							</defs>
							<clipPath id="SVGID_3_">
								<use xlink:href="#SVGID_2_"  style="overflow:visible;"/>
							</clipPath>
							<g class="st1">
								<polygon class="st2" points="-25.3,165.6 -58.1,165.6 -5.9,43.2 27,43.2 								"/>
								<polygon class="st2" points="29.2,165.6 -3.6,165.6 48.6,43.2 81.4,43.2 								"/>
								<polygon class="st2" points="83.7,165.6 50.9,165.6 103.1,43.2 135.9,43.2 								"/>
								<polygon class="st2" points="138.2,165.6 105.3,165.6 157.6,43.2 190.4,43.2 								"/>
								<polygon class="st2" points="192.7,165.6 159.8,165.6 212.1,43.2 244.9,43.2 								"/>
								<polygon class="st2" points="247.2,165.6 214.3,165.6 266.6,43.2 299.4,43.2 								"/>
								<polygon class="st2" points="301.7,165.6 268.8,165.6 321,43.2 353.9,43.2 								"/>
								<polygon class="st2" points="356.2,165.6 323.3,165.6 375.5,43.2 408.4,43.2 								"/>
								<polygon class="st2" points="410.7,165.6 377.8,165.6 430,43.2 462.9,43.2 								"/>
								<polygon class="st2" points="465.2,165.6 432.3,165.6 484.5,43.2 517.4,43.2 								"/>
								<polygon class="st2" points="519.6,165.6 486.8,165.6 539,43.2 571.9,43.2 								"/>
							</g>
						</g>
					</g>
				</g>
			</g>
		</g>
	</g>
</g>
<g>
	<path class="st3" d="M455.5-0.7L445.8,9h10.6l16.2-16h-10.7l-6.3,6.2L455.5-0.7L455.5-0.7z M506.3-0.7L496.5,9H507l16.2-16h-10.7
		l-6.3,6.2L506.3-0.7L506.3-0.7z M487.3-7L471,9h10.7L498-7H487.3z M436.5-7L420.3,9H431l16.2-16H436.5z M151.2-0.7L141.4,9H152
		l16.2-16h-10.7l-6.3,6.2V-0.7z M132.2-7L116,9h10.7l16.2-16H132.2z M201.9-0.7L192.1,9h10.6l16.2-16h-10.7l-6.3,6.2L201.9-0.7
		L201.9-0.7z M182.9-7L166.7,9h10.7l16.2-16H182.9z M100.5-0.7L90.6,9h10.6l16.2-16h-10.7l-6.3,6.2v0.1
		C100.4-0.7,100.5-0.7,100.5-0.7z M49.7-0.7L39.9,9h10.6L66.7-7H56l-6.3,6.2V-0.7z M81.5-7L65.2,9h10.7L92.2-7H81.5z M335.1-7
		L318.9,9h10.7l16.2-16H335.1z M354.1-0.7L344.4,9H355l16.2-16h-10.7l-6.3,6.2L354.1-0.7L354.1-0.7z M404.8-0.7L395,9h10.6l16.2-16
		h-10.7l-6.3,6.2L404.8-0.7L404.8-0.7z M385.8-7L369.6,9h10.7l16.2-16H385.8z M233.6-7L217.4,9h10.7l16.2-16H233.6z M252.6-0.7
		L242.8,9h10.6l16.2-16h-10.7l-6.3,6.2L252.6-0.7L252.6-0.7z M303.4-0.7L293.6,9h10.6l16.2-16h-10.7l-6.3,6.2L303.4-0.7L303.4-0.7z
		 M284.4-7L268.2,9h10.7l16.2-16H284.4z M-1-0.8V9h0.8L16-7H5.3L-1-0.8z M30.7-7L14.5,9h10.7L41.4-7H30.7z"/>
</g>
<g>
	<path class="st4" d="M75.1,104H29.2c-3.5,0-6.6-1.8-8.3-4.8s-1.7-6.6,0-9.6l23-39.8c1.7-3,4.9-4.8,8.3-4.8s6.6,1.8,8.3,4.8l23,39.8
		c1.7,3,1.7,6.6,0,9.6C81.8,102.3,78.6,104,75.1,104z"/>
	<g>
		<g>
			<g class="st5">
				<path d="M105.3,48.4c0.2,0.9,0.7,1.3,1.9,1.3c1.1,0,1.7-0.4,1.7-1.1c0-0.2-0.1-0.6-0.4-0.7c-0.2-0.2-0.4-0.2-1.5-0.5
					c-1.2-0.2-1.5-0.4-2.1-0.6c-0.8-0.4-1.2-1.1-1.2-1.9c0-0.5,0.2-0.9,0.5-1.3c0.6-0.7,1.5-1.2,2.8-1.2c1.2,0,2.1,0.2,2.6,0.8
					c0.4,0.4,0.6,0.7,0.7,1.4l-1.9,0.2c-0.2-0.7-0.7-1.2-1.5-1.2s-1.5,0.4-1.5,0.9c0,0.2,0.2,0.5,0.5,0.7c0.2,0.2,0.6,0.2,1.4,0.4
					c1.4,0.2,2,0.5,2.5,0.8c0.6,0.4,0.8,0.9,0.8,1.8c0,0.6-0.2,1.2-0.7,1.6c-0.7,0.6-1.6,0.9-2.9,0.9c-1.4,0-2.6-0.5-3.1-1.2
					c-0.2-0.4-0.4-0.7-0.6-1.2L105.3,48.4z"/>
				<path d="M117.5,50.1c-0.6,0.6-0.9,0.7-1.5,0.8c-0.4,0.1-0.8,0.2-1.3,0.2c-1.7,0-2.7-0.8-2.7-2.4c0-0.9,0.7-1.9,1.6-2.2
					s2-0.6,4-0.6v-0.7c0-0.8-0.6-1.2-1.6-1.2c-0.6,0-1.2,0.2-1.5,0.4c-0.2,0.2-0.4,0.4-0.6,0.9l-1.8-0.2c0.2-0.8,0.6-1.2,1.2-1.6
					c0.7-0.5,1.5-0.7,2.7-0.7c1.3,0,2.1,0.2,2.8,0.8c0.5,0.5,0.7,0.9,0.7,2v3.8c0,0.7,0,1.2,0.1,1.8h-1.9L117.5,50.1L117.5,50.1z
					 M117.5,47c-2.7,0.1-3.8,0.6-3.8,1.6c0,0.7,0.5,1.1,1.3,1.1c0.7,0,1.5-0.2,2-0.7c0.4-0.4,0.5-0.7,0.5-1.2V47z"/>
				<path d="M123.1,39.7c-0.1,0.6-0.1,1.1-0.1,1.9v4.6l2.1-2.1c0.7-0.7,0.8-0.9,1.2-1.2h2.6c-0.8,0.7-0.8,0.7-1.4,1.3l-2,1.9
					l2.4,3.3c0.9,1.3,0.9,1.3,1.3,1.6h-2.6c-0.2-0.5-0.4-0.7-0.9-1.6l-1.5-2.2l-1.2,1.2v0.9c0,0.9,0,1.2,0.1,1.8H121
					c0.1-0.6,0.1-1.1,0.1-1.8v-7.5c0-0.8,0-1.3-0.1-1.9L123.1,39.7L123.1,39.7z"/>
				<path d="M137.9,42.8c-0.1,0.6-0.1,1.1-0.1,1.8V49c0,0.7,0,1.2,0.1,1.8H136v-0.7c0-0.2,0-0.2,0-0.6c-0.7,1.2-1.5,1.5-2.9,1.5
					c-0.7,0-1.2-0.1-1.7-0.4c-0.7-0.5-1.2-1.3-1.2-2.5v-3.5c0-0.7,0-1.3-0.1-1.8h2.1c-0.1,0.7-0.1,1.2-0.1,1.8v3.1
					c0,0.8,0.2,1.3,0.7,1.6c0.2,0.1,0.5,0.2,0.7,0.2c1.1,0,1.8-0.7,2.5-2.1v-2.8c0-0.7,0-1.2-0.1-1.8
					C136,42.8,137.9,42.8,137.9,42.8z"/>
				<path d="M141.6,47.5c0.1,0.7,0.1,0.9,0.4,1.2c0.4,0.6,1.2,0.8,2.1,0.8c1.4,0,2.2-0.7,2.2-1.7c0-0.6-0.2-1.1-0.7-1.3
					c-0.4-0.2-0.5-0.2-2.5-0.7c-1.1-0.2-1.6-0.5-2.1-0.8c-0.7-0.6-1.2-1.3-1.2-2.2c0-2,1.6-3.2,4-3.2c1.6,0,2.8,0.5,3.5,1.4
					c0.4,0.5,0.6,0.8,0.7,1.6l-2,0.2c-0.1-0.5-0.2-0.7-0.4-1.1c-0.4-0.5-0.9-0.7-1.8-0.7c-1.2,0-2.1,0.7-2.1,1.5
					c0,0.6,0.2,1.1,0.9,1.3c0.2,0.1,0.4,0.2,2,0.5c1.2,0.2,1.8,0.5,2.2,0.8c0.8,0.6,1.2,1.4,1.2,2.5s-0.2,1.8-0.8,2.4
					c-0.7,0.7-1.9,1.1-3.4,1.1c-1.2,0-2.2-0.2-2.9-0.7c-0.6-0.4-0.9-0.9-1.2-1.6c-0.1-0.2-0.2-0.6-0.2-1.2L141.6,47.5z"/>
				<path d="M157.8,50.9c-0.1-0.5-0.2-1.1-0.4-1.5l-0.6-1.4h-4.5l-0.6,1.5c-0.2,0.7-0.2,0.8-0.4,1.5h-2.4c0.2-0.4,0.5-1.1,0.7-1.7
					l3.1-8.1c0.2-0.7,0.4-1.1,0.5-1.4h2.5c0.1,0.4,0.2,0.6,0.5,1.4l3.1,8.1c0.4,0.9,0.6,1.3,0.7,1.7L157.8,50.9L157.8,50.9z
					 M155,42.2c-0.1-0.2-0.1-0.2-0.2-0.7c-0.2,0.7-0.2,0.7-0.2,0.7l-1.5,4.1h3.5L155,42.2z"/>
				<path d="M169.7,49.1c0.8,1.2,1.1,1.3,1.4,1.8h-2.6c-0.2-0.4-0.6-1.1-0.8-1.5l-2.8-4l-1.5,1.5V49c0,0.8,0,1.2,0.1,1.8h-2.1
					c0.1-0.7,0.1-1.1,0.1-1.8v-7.6c0-0.7,0-1.2-0.1-1.8h2.1c-0.1,0.5-0.1,1.1-0.1,1.8v3.3l3.5-3.8c0.6-0.6,0.8-0.9,1.2-1.4h2.6
					c-0.4,0.4-0.8,0.8-1.5,1.5l-3.1,3.1L169.7,49.1z"/>
				<path d="M182,39.7c-0.1,0.6-0.1,1.1-0.1,1.9v5c0,2.9-1.7,4.5-4.8,4.5c-1.6,0-2.8-0.5-3.7-1.3c-0.7-0.7-1.1-1.8-1.1-3.2v-5
					c0-0.8,0-1.4-0.1-2h2.1c-0.1,0.5-0.1,1.1-0.1,2v5c0,1.9,0.9,2.9,2.9,2.9c1.9,0,2.8-1.1,2.8-2.9v-5c0-0.9,0-1.4-0.1-2L182,39.7
					L182,39.7z"/>
			</g>
			<g class="st5">
				<path d="M116.2,75.9c-0.1,5.5-0.4,10.5-0.8,14c-0.6,4.6-1.5,7.3-3.5,10.6c-0.8-1.2-1.9-2.4-3.1-3.4c0,1.6,0.1,2.2,0.2,3.7h-4.9
					c0.2-1.8,0.2-2.9,0.2-5.1v-12c0-1.6,0-3.1,0.1-5.6c-0.8,1.8-1.7,3.1-2.9,4.6c-0.8-2.8-0.8-2.8-1.9-5.2c2.4-2.6,4.2-5.8,5.9-9.6
					c1.2-2.7,1.9-5.1,2.1-7.1l4.6,1.2c-0.2,0.7-0.5,1.3-0.7,2.2c-0.8,2.8-1.4,4.3-2.7,6.9V96c1.2-1.9,1.6-3.2,2.1-5.8
					c0.7-3.3,0.9-7.5,0.9-14.3c0-1.6,0-2.9-0.2-4.3c1.4,0.2,2.4,0.2,4.5,0.2h19.2c2.4,0,3.4,0,4.7-0.2V76c-1.2-0.1-2.6-0.2-4.1-0.2
					L116.2,75.9L116.2,75.9z M118.1,63.8c0-1.3,0-1.9-0.2-2.6h4.7c-0.1,0.7-0.2,1.4-0.2,2.6v0.9h5.9v-0.9c0-1.3,0-1.9-0.2-2.6h4.7
					c-0.1,0.7-0.2,1.4-0.2,2.6v0.9h2.7c1.8,0,3.5-0.1,4.3-0.2v4.4c-1.2-0.1-2.2-0.2-4.3-0.2h-2.7v0.5c0,1.1,0,1.5,0.1,2.1H128
					c0.1-0.7,0.1-1.3,0.1-2.1v-0.4h-5.9v0.4c0,1.1,0,1.5,0.1,2.1h-4.7c0.1-0.7,0.1-1.3,0.1-2.1v-0.5h-1.8c-2.2,0-3.1,0-4.2,0.2v-4.2
					c1.2,0.1,2.6,0.2,4.2,0.2h1.8V64C117.7,63.8,118.1,63.8,118.1,63.8z M121.2,93.5v2.6c0,2.8,0,3.7,0.2,4.6h-4.6
					c0.2-1.2,0.2-2.4,0.2-4.6V82.5c0-2.4,0-3.2-0.2-4.7c1.3,0.1,2.1,0.1,4.5,0.1h13c2.1,0,2.9,0,4.1-0.2c-0.1,0.9-0.2,2.2-0.2,4.6
					v14.6c0,2.8-0.9,3.5-4.9,3.5c-0.4,0-0.4,0-1.9,0c-0.2-1.7-0.4-2.4-0.8-3.8c0.9,0.1,1.9,0.2,2.6,0.2c0.7,0,0.9-0.2,0.9-0.9v-2.5
					h-4.7v2c0,2.5,0,3.7,0.2,4.7h-4.3c0.2-1.3,0.2-2.5,0.2-4.7v-2H121L121.2,93.5L121.2,93.5z M125.8,81.7h-4.6v2.4h4.6V81.7z
					 M125.8,87.5h-4.6v2.4h4.6V87.5z M134.4,84v-2.4h-4.7V84H134.4z M134.4,89.9v-2.4h-4.7v2.4H134.4z"/>
				<path d="M154,63.5c0-0.8,0-1.5-0.2-2.4h4.8c-0.1,0.8-0.2,1.5-0.2,2.4v0.4h9.5v-0.4c0-0.8,0-1.5-0.2-2.4h4.8
					c-0.1,0.8-0.2,1.4-0.2,2.4v0.4h5.2c2.1,0,3.7-0.1,5-0.2v4.2c-1.3-0.2-2.6-0.2-5-0.2h-5.2c0,0.7,0,1.2,0.2,1.8h-4.7
					c0-0.6,0.1-1.2,0.1-1.8h-9.5c0,0.7,0,1.2,0.1,1.8h-4.7c0.1-0.7,0.1-1.2,0.1-1.8h-4.8c-2.4,0-3.7,0-5,0.2v-4.2
					c1.4,0.2,2.8,0.2,5,0.2h4.8L154,63.5L154,63.5z M172.5,76.4c-1.9,1.6-5.1,4-6.4,5c3.5-0.1,6.1-0.2,7.8-0.4
					c-0.9-0.7-1.3-1.1-2.6-2l3.3-2.4c3.5,2.6,5.6,4.5,8.6,7.4l-3.3,2.9c-1.2-1.5-1.7-2-2.6-2.9c-9.6,0.7-14.4,0.8-29.9,1.4
					c-1.1,0-1.8,0.1-2.6,0.2l-0.7-4.3c1.4,0.2,4,0.2,10.4,0.2c0.2,0,0.2,0,2.2,0c-1.6-0.7-5.6-2.6-7.8-3.4l2.8-2.9
					c2.1,0.9,2.6,1.2,4,1.8c1.1-0.7,1.6-1.2,2.8-2.4h-8.7c-2.2,0-3.7,0-5,0.2v-4.2c1.2,0.2,2.7,0.2,5,0.2h11.1c0-1.1,0-1.6-0.1-2.4
					h4.6c-0.1,0.8-0.1,1.2-0.1,2.4h11.8c2.1,0,3.9-0.1,5-0.2v4.2c-1.1-0.1-2.7-0.2-5-0.2h-7.8L172.5,76.4z M148.2,90.2
					c0-1.6,0-2.8-0.1-4c1.2,0.1,2.1,0.1,4.2,0.1h22.3c2.2,0,3.1,0,4.2-0.2c-0.1,1.2-0.1,2-0.1,4.2v6.4c0,1.5,0.1,2.8,0.2,4.2h-4.7
					v-1.6h-21.6v1.6h-4.7c0.1-1.5,0.2-2.8,0.2-4.2v-6.5H148.2z M152.6,91.1h8.6v-1.8h-8.6V91.1z M152.6,95.9h8.6V94h-8.6V95.9z
					 M163.7,74.5c-1.4,1.4-3.1,2.8-4.5,4c1.2,0.7,1.5,0.8,2.6,1.4c2.6-1.8,5.1-3.8,6.5-5.3L163.7,74.5L163.7,74.5z M165.3,91.1h8.9
					v-1.8h-8.9V91.1z M165.3,95.9h8.9V94h-8.9V95.9z"/>
				<path d="M219.8,66.9c-0.5,0.1-0.5,0.1-3.5,1.2c-2.5,0.7-3.8,1.2-7.2,1.8c0,5.8,0,5.8-0.1,7.3h9.1c2.9,0,3.7,0,5.2-0.2v5.2
					c-1.6-0.2-2.4-0.2-5.2-0.2h-9.5c-0.5,4-1.4,6.9-2.8,9.3c-1.5,2.5-4,4.9-6.9,6.8c-1.2,0.7-2,1.2-4,2.1c-1.2-2.1-1.9-3.1-3.8-4.5
					c3.1-1.2,4.7-2,6.6-3.5c2.6-2.1,4.2-4.5,4.9-7.3c0.2-0.7,0.2-1.4,0.5-2.8h-10.6c-2.7,0-3.5,0-5.2,0.2V77
					c1.6,0.2,2.4,0.2,5.2,0.2h10.9c0.1-1.8,0.1-3.5,0.1-6.5c-3.5,0.5-4.8,0.7-11.9,0.9c-0.5-1.9-0.7-2.6-1.6-4.6
					c1.3,0.1,2,0.1,2.6,0.1c5.8,0,13.1-0.9,18.4-2.5c2.5-0.7,3.8-1.2,5.2-2L219.8,66.9z"/>
				<path d="M246.6,93.5h8.8c2,0,2.8,0,4-0.2v4.8c-1.2-0.1-2.1-0.2-4-0.2h-22c-1.9,0-2.8,0-4,0.2v-4.8c1.2,0.2,2,0.2,4,0.2h8.4V79.7
					H236c-1.6,0-2.5,0-4,0.2V75c1.2,0.2,2.1,0.2,3.9,0.2h16.8c1.8,0,2.7-0.1,4-0.2v4.8c-1.2-0.1-1.8-0.2-3.9-0.2h-6.1L246.6,93.5
					L246.6,93.5z"/>
				<path d="M271.3,72.6c1.8,3.3,2.6,5.4,4.2,10.2l-4.8,1.5c-1.2-4.3-2-6.6-3.9-10.4L271.3,72.6z M295.9,73.1
					c-0.2,0.7-0.4,0.8-0.6,2.1c-1.2,5.9-3.2,10.6-5.9,14.2c-3.2,4.3-6.7,7.1-13.1,10.4c-1.2-1.9-1.6-2.6-3.4-4.2
					c3.1-1.2,4.7-2.1,7.3-4c5-3.7,7.9-8,9.7-14.9c0.6-2.1,0.7-3.5,0.7-4.9L295.9,73.1z M280.4,71c2.2,4.2,3.1,6.1,4.1,9.9l-4.7,1.5
					c-0.8-3.3-2.1-6.6-3.9-10.1L280.4,71z"/>
				<path d="M334.9,69.9c-0.5,0.7-0.6,1.1-1.1,2.6c-2,6.5-5,12.3-8.8,16.6c-4,4.5-8.7,7.8-15.3,10.9c-1.2-2.1-1.8-2.8-3.7-4.5
					c4.2-1.8,6.7-3.1,9.4-5.1c6.1-4.5,10.2-10.5,12.5-18.1L315,72.5c-2.6,4.1-5.9,7.8-10,10.9c-1.3-1.8-1.9-2.4-4.1-3.7
					c4.9-3.3,8-6.8,11.1-12.5c1.3-2.5,2-4.1,2.1-5.6l5.9,1.2c-0.2,0.4-0.2,0.4-0.7,1.3c-0.1,0.2-0.1,0.2-0.6,1.2
					c-0.1,0.2-0.1,0.2-0.6,1.2c-0.2,0.6-0.2,0.6-0.7,1.4c0.6,0,1.2-0.1,2.1-0.1l9.4-0.1c1.7,0,2.1-0.1,3.1-0.5L334.9,69.9z"/>
			</g>
		</g>
		<g>
			<path class="st6" d="M45.6,49.9l-23,39.8c-2.9,5.1,0.7,11.4,6.6,11.4h45.9c5.8,0,9.5-6.3,6.6-11.4L58.8,49.9
				C55.8,44.7,48.5,44.7,45.6,49.9z"/>
			<path class="st7" d="M75,102.9H29.1c-3.5,0-6.6-1.8-8.3-4.8s-1.7-6.6,0-9.6l23-39.8c1.7-3,4.9-4.8,8.3-4.8s6.6,1.8,8.3,4.8
				l23,39.8c1.7,3,1.7,6.6,0,9.6S78.5,102.9,75,102.9z M47.4,50.8l-23,39.8c-1,1.7-1,3.8,0,5.4c1,1.7,2.8,2.8,4.8,2.8h45.9
				c2,0,3.8-1,4.8-2.8c1-1.7,1-3.8,0-5.4l-23-39.8c-1-1.7-2.8-2.8-4.8-2.8S48.4,49.1,47.4,50.8L47.4,50.8z"/>
		</g>
		<g class="st5">
			<path class="st7" d="M53.2,80.9V82c0,1.7,0,2,0.1,2.5h-3.2c0.1-0.7,0.1-1.3,0.1-2.5v-6.8c-0.3,3.1-0.3,3.1-0.6,4.5
				c-0.3,2.1-0.7,3.2-1.5,4.8c-0.7-1-1.1-1.6-1.8-2.4c0,1,0,1.5,0.2,2.5H43c0.1-1.2,0.2-1.5,0.2-2.6v-5.6c0-0.5,0-1,0.1-2.5
				c-0.3,0.6-0.7,1.1-1.1,1.5c-0.3-1.8-0.6-2.5-1.2-4.1c1.1-1.2,1.9-2.6,2.6-4.4c0.6-1.4,0.9-2.6,1.1-3.7l3.4,0.8
				c-0.1,0.3-0.1,0.4-0.2,0.7c0.7,0.1,1.3,0.1,2.1,0.1h0.3v-0.3c0-0.6,0-0.8-0.1-1.2h3.5c-0.1,0.3-0.1,0.7-0.1,1.1v0.3h2.2v-0.3
				c0-0.6,0-0.8-0.1-1.2h3.4C59,63.5,59,63.9,59,64.3v0.3h0.7c1.1,0,2-0.1,2.4-0.2v3.1c-0.8-0.1-1.1-0.1-2.4-0.1H59v1.2h0.8
				c1.3,0,1.8,0,2.6-0.1v3.1c-0.7-0.1-1.2-0.1-2.1-0.1h-9.8v0.7c0.6,0.1,1.2,0.1,2.2,0.1h7.2c1,0,1.5,0,2.1-0.1
				c-0.1,0.5-0.1,1.1-0.1,2.3v7.6c0,1.8-0.5,2.1-3.7,2.1c-0.2-1.1-0.2-1.6-0.6-2.5c0.3,0,0.6,0.1,0.8,0.1c0.3,0,0.4-0.1,0.4-0.4V81
				h-1.4v0.8c0,1.4,0,2,0.1,2.6h-3c0.1-0.7,0.1-1.3,0.1-2.6V81L53.2,80.9L53.2,80.9z M46.5,80.2c0.3-0.8,0.4-1.4,0.6-2.2
				c0.2-1.3,0.3-3.9,0.3-6.5c0-1.3,0-1.9-0.1-2.8c0.9,0.1,1.2,0.1,2.5,0.1h0.7v-1.1h-0.3c-1.3,0-1.7,0-2.4,0.1v-2.4
				c-0.4,1.4-0.7,2-1.3,3.3V80.2z M54.6,74.8h-1.4v0.9h1.4V74.8z M54.6,77.8h-1.4v1h1.4V77.8z M56,68.8v-1.1h-2.2v1.1H56z
				 M58.9,75.7v-0.9h-1.4v0.9H58.9z M58.9,78.7v-0.9h-1.4v0.9H58.9z"/>
		</g>
		<g class="st5">
			<path class="st7" d="M50.8,57.2c0,0.3,0.1,0.5,0.2,0.7c0.2,0.3,0.7,0.5,1.2,0.5c0.7,0,1.2-0.3,1.2-0.9c0-0.3-0.2-0.6-0.4-0.7
				c-0.2-0.1-0.5-0.2-1.5-0.4c-0.9-0.2-1.2-0.3-1.6-0.6c-0.7-0.4-1-1.1-1-1.9c0-1.6,1.2-2.5,3.2-2.5c1.2,0,2.2,0.4,2.8,1.2
				c0.2,0.3,0.3,0.7,0.5,1.2L53.2,54c-0.1-0.7-0.5-0.9-1.2-0.9c-0.6,0-1.1,0.3-1.1,0.8c0,0.2,0.2,0.5,0.5,0.7
				c0.2,0.1,0.2,0.1,1.4,0.3c0.7,0.2,1.2,0.3,1.7,0.6c0.7,0.4,1.1,1.2,1.1,2.1c0,0.7-0.2,1.4-0.7,1.8c-0.6,0.6-1.5,0.8-2.6,0.8
				c-0.8,0-1.7-0.2-2.2-0.5c-0.5-0.2-0.8-0.7-1.1-1.2c-0.1-0.2-0.2-0.5-0.2-0.9L50.8,57.2z"/>
		</g>
		<polygon points="34.8,95.2 52.1,111.5 86.7,59.2 48.9,99.1 38.6,90.6 		"/>
		<g>
			<path class="st8" d="M148.5,126.2c0,0.3,0.2,0.4,1.5,0.4c1.2,0,1.6-0.1,1.7-0.6c0.2-0.5,0.2-1.3,0.2-2.7c1,0.4,1.4,0.6,2.3,0.8
				c-0.2,2.9-0.5,3.9-1.3,4.4c-0.5,0.3-1.6,0.4-3.4,0.4c-2.7,0-3.4-0.3-3.5-1.6c-0.9,0.6-1.3,0.9-2.4,1.5c-0.5-0.9-0.9-1.4-1.7-2.1
				c1.6-0.7,2.8-1.4,4-2.3v-5c0-0.7,0-1.1-0.1-1.7h2.6c-0.1,0.6-0.1,1.1-0.1,1.7v3.1c1.4-1.4,2.6-3.2,3.5-5c0.5-1,0.7-1.7,0.9-2.3
				l2.6,1c-0.2,0.5-0.2,0.5-0.7,1.4c-0.6,1.2-0.9,1.7-1.5,2.7l1.8-0.8c0.9,2,1.6,3.6,2.3,6.3l-2.3,1.2c-0.6-2.6-1.2-4.4-2.1-6.3
				c-1.4,2.1-2.6,3.5-4.5,5.2v0.3L148.5,126.2L148.5,126.2z M145.5,119.2c-0.2,2.8-0.6,4.3-1.2,6l-2.2-1.1c0.7-1.7,1-3.1,1.2-5.5
				L145.5,119.2z M147,113.9c2,0.7,3.1,1.2,4.5,2.1l-1.4,2.1c-1.1-0.8-2.5-1.5-4.6-2.3L147,113.9z"/>
			<path class="st8" d="M160.1,123.3c-0.7,0-1.3,0-1.7,0.1v-2.1c0.6,0.1,1.2,0.1,1.7,0.1h11.2c0.7,0,1.2,0,1.7-0.1v2.1
				c-0.5,0-1.1-0.1-1.7-0.1h-4.5c-0.1,0.2-0.2,0.2-0.2,0.5h4.2c0.7,0,1.2,0,1.5-0.1c-0.1,0.3-0.1,0.7-0.1,1.2v2.2
				c0,1.4-0.4,1.8-1.8,1.8c-0.2,0-0.2,0-1.2-0.1c-0.1-1.1-0.2-1.5-0.4-2.1c0.3,0.1,0.7,0.1,0.8,0.1c0.2,0,0.3-0.1,0.3-0.2v-1.1h-1.4
				v1.8c0,0.7,0,1.1,0.1,1.5h-2.3c0.1-0.4,0.1-0.8,0.1-1.5v-1.8h-1.2v1.8c0,0.7,0,1.1,0.1,1.5H163c0.1-0.4,0.1-0.8,0.1-1.5v-1.8
				h-1.3v2c0,0.7,0,1.1,0.1,1.5h-2.5c0.1-0.6,0.1-1.1,0.1-1.7V125c0-0.4,0-0.9-0.1-1.3c0.4,0,0.7,0.1,1.7,0.1h3
				c0.2-0.2,0.2-0.2,0.2-0.5L160.1,123.3L160.1,123.3L160.1,123.3z M161.1,116.1c-0.7,0-1.3,0-1.7,0.1v-2c0.5,0.1,1.2,0.1,2,0.1h8.6
				c0.8,0,1.6,0,2-0.1v1.9c-0.5,0-1.1-0.1-1.7-0.1h-3.5v0.4h3.9c1.2,0,1.7,0,2.2-0.1c-0.1,0.4-0.1,0.7-0.1,1.4v1.2
				c0,0.7,0,0.9,0.1,1.4h-2.3v-2.2h-3.8v1.3c0,0.7,0,1.1,0.1,1.5h-2.6c0.1-0.5,0.1-0.8,0.1-1.5v-1.3h-3.6v2.2h-2.3
				c0.1-0.4,0.1-0.7,0.1-1.4v-1.2c0-0.7,0-1-0.1-1.4c0.5,0,0.9,0.1,2.2,0.1h3.7V116L161.1,116.1L161.1,116.1z M161.1,118.5
				c0.2,0,0.3,0,0.7,0h1.3c0.4,0,0.5,0,0.7,0v1.1c-0.2,0-0.3,0-0.7,0h-1.3c-0.3,0-0.5,0-0.7,0V118.5z M161.1,119.9
				c0.2,0,0.2,0,0.7,0h1.3c0.4,0,0.6,0,0.7,0v1.1c-0.2,0-0.3,0-0.7,0h-1.3c-0.3,0-0.5,0-0.7,0V119.9z M167.3,118.5
				c0.2,0,0.2,0,0.7,0h1.6c0.4,0,0.5,0,0.7,0v1.1c-0.2,0-0.3,0-0.7,0H168c-0.3,0-0.4,0-0.7,0V118.5z M167.3,119.9c0.2,0,0.2,0,0.7,0
				h1.6c0.4,0,0.5,0,0.7,0v1.1c-0.2,0-0.3,0-0.7,0H168c-0.3,0-0.4,0-0.7,0V119.9z"/>
			<path class="st8" d="M174.4,129c0.1-0.5,0.1-0.9,0.1-1.8v-4.4c0-0.6,0-1-0.1-1.5c0.5,0.1,0.9,0.1,1.7,0.1h4c0.4,0,0.7,0,1.1-0.1
				c0,0.3,0,0.5,0,1.2v4.8c0,0.6,0,1,0.1,1.3h-2.5v-0.4H177v0.7L174.4,129L174.4,129z M176.5,115.9c0-0.6,0-1-0.1-1.5
				c0.4,0.1,1,0.1,1.8,0.1h6.8c0.9,0,1.4,0,1.8-0.1c-0.1,0.4-0.1,0.8-0.1,1.5v3.2c0,0.7,0,1.2,0.1,1.6c-0.4,0-0.7-0.1-1.7-0.1H178
				c-0.8,0-1.2,0-1.7,0.1c0-0.4,0.1-0.9,0.1-1.6L176.5,115.9L176.5,115.9z M178.8,123.6h-1.9v2.5h1.9V123.6z M178.9,116.8v1.7h5.5
				v-1.7H178.9z M187.3,121.4c0.7,0,1.2,0,1.5-0.1c-0.1,0.5-0.1,0.8-0.1,1.5v4.4c0,0.9,0,1.3,0.1,1.8h-2.5v-0.7h-2v0.7h-2.4
				c0-0.4,0.1-0.7,0.1-1.3v-5c0-0.7,0-0.9,0-1.2c0.3,0,0.7,0.1,1.1,0.1L187.3,121.4L187.3,121.4z M184.3,126.1h2.1v-2.5h-2.1V126.1z
				"/>
			<path class="st8" d="M203.7,114.8l-5.7,15.5h-2.9l5.8-15.5C200.9,114.8,203.7,114.8,203.7,114.8z"/>
			<path class="st8" d="M217.7,116.9c-1.2-0.6-2.3-1-3.7-1.5l1.7-1.7c1.7,0.5,2.9,1,4.5,1.7l-1.2,1.4h2.8c1,0,1.6,0,2.2-0.1v2.5
				c-0.7-0.1-1.2-0.1-2.2-0.1h-3.3v2.2h2.8c0.7,0,1.2,0,1.9-0.1v2.4c-0.6-0.1-1-0.1-1.8-0.1h-2.9v2.6h3.6c1,0,1.7,0,2.5-0.1v2.5
				c-0.8-0.1-1.4-0.1-2.4-0.1h-9.6c-1.2,0-1.8,0-2.6,0.1V126c0.7,0.1,1.4,0.1,2.5,0.1h3.5v-2.6h-2.5c-0.9,0-1.4,0-2.1,0.1v-2.4
				c0.6,0.1,0.9,0.1,1.8,0.1h2.7v-2.1h-3.1c-1.3,0-1.7,0-2.2,0.1v-2.5c0.7,0.1,1.2,0.1,2.1,0.1C212.7,116.9,217.7,116.9,217.7,116.9
				z"/>
			<path class="st8" d="M240,124.6c-1.1,0.8-1.7,1.3-2.4,1.8c0.9,0.2,1.8,0.4,3.3,0.4c-0.5,0.9-0.7,1.4-1.1,2.4
				c-2.7-0.4-4.4-1-5.9-2.2v1.1c-2.1,0.4-3.6,0.7-6.4,1.1c-0.3,0.1-0.6,0.1-0.8,0.2l-0.3-2.6c0.2,0,0.2,0,0.4,0
				c0.1,0,0.9-0.1,1.5-0.1v-6.9c0-0.2,0-0.2,0-0.2c-0.6,0.3-0.9,0.4-1.7,0.7c-0.2-1-0.4-1.5-1-2.5c1.2-0.3,2.5-0.8,3.6-1.6
				c1.2-0.7,2-1.3,2.7-2.2h2.6c0.8,0.9,1.7,1.7,2.9,2.3c1.2,0.7,2.4,1.2,3.6,1.4c-0.5,0.9-0.7,1.5-1,2.5c-0.7-0.2-1.2-0.5-1.7-0.7v4
				c0,0.2,0,0.2,0,0.2L240,124.6z M230.5,120.4h5.4v-0.6h-5.4V120.4L230.5,120.4z M230.5,122.6h5.4V122h-5.4V122.6L230.5,122.6z
				 M230.5,124.4v2c0.1,0,0.1,0,0.2,0c0.7-0.1,1.7-0.2,2.1-0.2c-0.6-0.6-0.7-0.7-1.3-1.7L230.5,124.4L230.5,124.4z M232,117.5
				c0-0.2,0-0.3,0-0.5c-0.5,0.4-0.9,0.7-1.4,1h1.4V117.5z M234.1,116.9c-0.3-0.3-0.6-0.5-1-0.9c-0.4,0.4-0.6,0.6-0.9,0.9H234.1z
				 M235.8,118.1c-0.7-0.5-1-0.7-1.4-1.1c0,0.2,0,0.3,0,0.6v0.5H235.8z M234.3,124.4c0.2,0.3,0.6,0.7,1,0.9c0.5-0.2,1-0.6,1.3-0.9
				H234.3z"/>
			<path class="st8" d="M255.4,114.8l-5.7,15.5h-2.9l5.8-15.5H255.4z"/>
			<path class="st8" d="M269.4,116.9c-1.2-0.6-2.3-1-3.7-1.5l1.7-1.7c1.7,0.5,2.9,1,4.5,1.7l-1.2,1.4h2.8c1,0,1.6,0,2.2-0.1v2.5
				c-0.7-0.1-1.2-0.1-2.2-0.1h-3.3v2.2h2.8c0.7,0,1.2,0,1.9-0.1v2.4c-0.6-0.1-1-0.1-1.8-0.1h-2.9v2.6h3.6c1,0,1.7,0,2.5-0.1v2.5
				c-0.8-0.1-1.4-0.1-2.4-0.1h-9.6c-1.2,0-1.8,0-2.6,0.1V126c0.7,0.1,1.4,0.1,2.5,0.1h3.5v-2.6h-2.5c-0.9,0-1.4,0-2.1,0.1v-2.4
				c0.6,0.1,0.9,0.1,1.8,0.1h2.7v-2.1h-3.1c-1.3,0-1.7,0-2.2,0.1v-2.5c0.7,0.1,1.2,0.1,2.1,0.1C264.4,116.9,269.4,116.9,269.4,116.9
				z"/>
			<path class="st8" d="M279.6,124.6c-0.8,0-1.4,0-2,0.1v-2.3c0.5,0.1,1.1,0.1,2,0.1h0.3c-0.4-0.7-0.8-1.3-1.2-1.8l1.6-0.6
				c-0.2,0-0.3,0-0.5,0s-0.4,0-0.7,0c-0.2-0.7-0.5-1.2-1-2.1c1.8,0.1,2.6,0.1,3.7,0.1c1.7,0,3.5-0.1,5-0.2c1.4-0.1,2.1-0.2,3.4-0.5
				l1.6,1.9c-1,0.2-1.4,0.2-2.2,0.3l1.5,0.6c-0.8,1.2-1.2,1.7-1.7,2.2h0.8c0.9,0,1.5,0,2-0.1v2.3c-0.5-0.1-1.2-0.1-2-0.1h-2.5
				c1.2,1,2.7,1.6,4.7,2c-0.6,0.7-0.8,1.3-1.3,2.3c-1.2-0.3-2.1-0.7-3.1-1.4c-0.8-0.6-1.3-1-2.1-1.7c0,0.2,0,0.2,0,0.4s0,0.4,0,0.6
				v0.7c0,0.7,0,1.1,0.2,1.7h-2.7c0.1-0.6,0.2-1,0.2-1.7v-0.7c0-0.2,0-0.5,0-1c-1.2,1.4-2.6,2.4-4.9,3.1c-0.6-1.1-0.7-1.4-1.4-2.1
				c2-0.4,3.4-1.1,4.5-2.1L279.6,124.6L279.6,124.6L279.6,124.6z M280.9,114.7c0-0.2,0-0.5-0.1-0.7h2.5c0,0.3-0.1,0.5-0.1,0.7v0.2h3
				v-0.2c0-0.2,0-0.3-0.1-0.7h2.5c0,0.2-0.1,0.5-0.1,0.7v0.2h1.7c0.8,0,1.3,0,1.9-0.1v2.3c-0.5-0.1-1.1-0.1-1.9-0.1h-1.6
				c0,0.2,0,0.4,0.1,0.7h-2.5c0-0.2,0-0.4,0.1-0.7h-3c0,0.2,0,0.3,0.1,0.7h-2.5c0-0.2,0.1-0.4,0.1-0.7h-1.5c-0.8,0-1.4,0-1.9,0.1
				v-2.3c0.6,0.1,1.1,0.1,1.9,0.1h1.5v-0.2H280.9z M283.6,122.5c0-0.3,0-0.5-0.1-0.7h0.6c-0.3-0.7-0.4-0.7-0.8-1.3l1.2-0.4
				c-0.9,0.1-1.7,0.1-3.4,0.1c0.3,0.4,0.7,0.9,1.2,1.6l-1.9,0.8L283.6,122.5L283.6,122.5z M288.8,122.5l-1.7-0.7
				c0.6-0.7,1-1.2,1.4-2c-0.6,0.1-1.6,0.1-3.1,0.2c0.4,0.5,0.6,0.7,0.8,1.2l-1.8,0.6h1.7c-0.1,0.3-0.1,0.5-0.1,0.7L288.8,122.5
				L288.8,122.5L288.8,122.5z"/>
		</g>
	</g>
</g>
<rect x="-6" y="145.1" width="534.1" height="41.3"/>
<g>
	<path class="st3" d="M455.5,207.1l-9.8,9.7h10.6l16.2-16h-10.7l-6.3,6.2L455.5,207.1L455.5,207.1z M506.3,207.1l-9.8,9.7H507
		l16.2-16h-10.7l-6.3,6.2L506.3,207.1L506.3,207.1z M487.3,200.8l-16.3,16h10.7l16.3-16H487.3z M436.5,200.8l-16.2,16H431l16.2-16
		H436.5z M151.2,207.1l-9.8,9.7H152l16.2-16h-10.7l-6.3,6.2V207.1z M132.2,200.8l-16.2,16h10.7l16.2-16H132.2z M201.9,207.1
		l-9.8,9.7h10.6l16.2-16h-10.7l-6.3,6.2V207.1z M182.9,200.8l-16.2,16h10.7l16.2-16H182.9z M100.5,207.1l-9.9,9.7h10.6l16.2-16
		h-10.7l-6.3,6.2v0.1C100.4,207.1,100.5,207.1,100.5,207.1z M49.7,207.1l-9.8,9.7h10.6l16.2-16H56l-6.3,6.2V207.1z M81.5,200.8
		l-16.3,16h10.7l16.3-16H81.5z M335.1,200.8l-16.2,16h10.7l16.2-16H335.1z M354.1,207.1l-9.8,9.7H355l16.2-16h-10.7l-6.3,6.2
		L354.1,207.1L354.1,207.1z M404.8,207.1l-9.8,9.7h10.6l16.2-16h-10.7l-6.3,6.2L404.8,207.1L404.8,207.1z M385.8,200.8l-16.2,16
		h10.7l16.2-16H385.8z M233.6,200.8l-16.2,16h10.7l16.2-16H233.6z M252.6,207.1l-9.8,9.7h10.6l16.2-16h-10.7l-6.3,6.2L252.6,207.1
		L252.6,207.1z M303.4,207.1l-9.8,9.7h10.6l16.2-16h-10.7l-6.3,6.2L303.4,207.1L303.4,207.1z M284.4,200.8l-16.2,16h10.7l16.2-16
		H284.4z M-1,207v9.8h0.8l16.2-16H5.3L-1,207z M30.7,200.8l-16.2,16h10.7l16.2-16H30.7z"/>
</g>
<line class="st9" x1="0" y1="208.8" x2="522.2" y2="208.8"/>
<g>
	<path class="st2" d="M446.4,162.5c0.7-2,1.4-4,1.8-6.1c0.5-2.4,0-5.7,0.8-7.9c1.1-3.4,5.1-6.6,8.7-9.2c-3.2,0.6-6.5,0.9-9.4,0.3
		c-3.5-0.7-3.9-4-6-6.9c-4.7-6.3-11.5-10.8-18.7-13.8c-3.5-1.4-7.3-3-11.1-2.6c-20.7,2.2-33.5,21.5-39.7,39.6
		c-2,5.9-4.3,12.7-2.4,19c2.9,9.4,12.5,15.6,20.9,19.5c6.6,3.1,15.3,6.6,22.6,4.2c10-3.2,18.2-12,24.1-20.3
		C441.3,173.5,444.3,168.2,446.4,162.5z"/>
	<path class="st10" d="M450.7,158.8c0.6-2.4,0.9-4.8,1.1-7.2c0.1-2.8,0.8-3.5,2.8-5.5c2.9-2.9,6.1-5.5,9.3-8.1
		c0.6-0.5-1.8-1.8-2.6-1.4c-4.2,0.9-9,2-13.4,1.7c-7.7-14.3-27.1-26.7-43.6-22.2c-18.9,5.1-30.2,24.5-35.5,42
		c-1.9,6.4-3.3,12.8-0.2,19.1c3.8,7.8,11.8,13.3,19.3,17.1c6.6,3.4,14.1,6.3,21.5,6.8c8,0.6,15.4-4.7,21-9.8
		C439.8,182.7,447.7,171.1,450.7,158.8z M370.3,175c-1.9-6.2,0.3-13,2.4-19c6.2-18.1,19.1-37.5,39.7-39.6c3.8-0.4,7.6,1.2,11.1,2.6
		c7.2,2.9,14,7.4,18.7,13.8c2.1,2.8,2.4,6.1,6,6.9c2.9,0.6,6.2,0.3,9.4-0.3c-3.5,2.6-7.5,5.8-8.7,9.2c-0.7,2.2-0.2,5.5-0.8,7.9
		c-0.5,2.1-1.1,4.1-1.8,6.1c-2.1,5.7-5,11-8.5,15.9c-5.9,8.3-14.1,17.1-24.1,20.3c-7.3,2.4-16-1.1-22.6-4.2
		C382.8,190.6,373.1,184.4,370.3,175z"/>
</g>
<g>
	<g>
		<path class="st11" d="M519.1,130.8c-0.2-1.5-0.7-1.8-1.8-3.1c-0.3-0.4,0.4-0.7,0.6-0.8c1.6-0.5,0.8,0.3,1.2-0.8
			c0.2-0.6,0-1.8,0-2.5c0-3.2,0-6.3,0-9.5c0-16.9,0-33.8,0-50.7c-9.6-1.7-19.2-4.8-28.2-8.6c-0.8,2.6-1.5,5.1-2.3,7.7
			c-0.2,0.7-1.9,0.7-2.4,0.7c-4.2-0.2-8.2-1.9-11.3-4.7c-1,2.7-2.1,5.3-3.3,7.9c-0.3,0.8-2.1,0.8-2.8,0.7c-3.2-0.8-5.7-2.1-8-4.2
			c-1.2,1.4-2.3,3-3.3,4.7c-5.9,16.9-8.6,38.6,0.4,54.1c11.1,19.1,33.9,14.8,51.7,9c0.5-0.2,2.2-0.6,2.5,0.2
			c0.8,2.1,1.6,4.2,2.3,6.4c0.2,0.3,0.4,0.5,0.6,0.8c0.8-1.8,2.2-3.2,4.2-3.7C519.3,133.1,519.3,131.9,519.1,130.8z M499.7,113.3
			c-1.9,0.7-3.8,1.5-5.7,2.2c-1.6,0.6-3.1,1.2-4.7,1.8c-0.5-1.6-0.9-3.2-1.4-4.8l-3.4-12.3c3.4-1,6.8-2.1,10-3.7
			c0.8,2.2,1.7,4.4,2.5,6.5c1.2,3,2,7,3.7,9.7c0,0.1,0.1,0.1,0.1,0.1C500.5,113.1,500,113.2,499.7,113.3z"/>
		<path class="st11" d="M521.7,136c-4.1-3.4-4.5,6.4-4.4,8.3c0.2,2.3,1.4,5.8,3.8,5.4c0.3,0,0.5,0,0.7,0h0.1c0.1,0,1.1-2.2,1.2-2.6
			c0.4-1.3,0.5-2.7,0.5-4.1C523.7,140.8,523.5,137.4,521.7,136z"/>
		<path class="st11" d="M517.2,173c0.1,1.6,0.5,3.1,0.9,4.6c0,0.1,0.1,0.3,0.1,0.4c0,0,0,0,0,0.1c0.4,0.9,1,1.8,1.2,2.6l0,0
			c0.2,0.2,0.4,0.5,0.8,0.7c1.9-0.5,2.5-4.5,2.7-6.2c0-0.1,0-0.2,0-0.3c0.1-2,0-4.9-1.4-6.5C519.1,165.2,517,171,517.2,173z"/>
	</g>
	<path class="st12" d="M484.4,100.3c1.2,4.1,2.4,8.2,3.6,12.2l-3.4-12.3C484.5,100.3,484.4,100.3,484.4,100.3z"/>
	<path class="st2" d="M497,103.1c-0.8-2.2-1.7-4.4-2.5-6.5c-3.2,1.5-6.6,2.7-10,3.7l3.4,12.3c0.5,1.6,0.9,3.2,1.4,4.8
		c1.6-0.6,3.1-1.2,4.7-1.8c1.9-0.7,3.8-1.5,5.7-2.2c0.3-0.1,0.7-0.2,1.1-0.4l-0.1-0.1C499,110.1,498.2,106.1,497,103.1z"/>
	<g>
		<path class="st10" d="M475.8,119.8c-0.1-0.3-1.3-0.1-1.2,0.2c0.3,0.6,0.7,1.4,0.8,2.1c0,0.3-0.1,0.6-0.3,0.9
			c-0.1,0.2-0.2,0.3-0.3,0.5c-0.1-0.1-0.2-0.2-0.2-0.2c-0.1-0.2-0.2-0.4-0.3-0.6c-0.7-1.5-1.1-3.3-1.4-4.9c-0.1-0.3-1.2-0.1-1.2,0.2
			c0.2,0.9,0.3,1.7,0.6,2.5c0.3,1.1,0.6,2.5,1.4,3.3c0.7,0.7,1.8,0.4,2.3-0.4c0.2-0.4,0.6-1,0.6-1.4
			C476.6,121.3,476.1,120.4,475.8,119.8z"/>
		<path class="st10" d="M466.8,116c0.4,0.8,0.9,1.8,1.1,2.7c0.1,0.4-0.1,0.7-0.4,1.2c-0.1,0.2-0.3,0.4-0.4,0.7
			c-0.1-0.1-0.2-0.2-0.3-0.3c-0.2-0.2-0.3-0.5-0.4-0.8c-0.9-2-1.4-4.2-1.8-6.3c-0.1-0.4-1.6-0.2-1.5,0.2c0.2,1.1,0.4,2.2,0.7,3.3
			c0.4,1.4,0.8,3.2,1.8,4.3c0.9,0.9,2.4,0.5,3-0.5c0.3-0.5,0.8-1.3,0.8-1.8c0-0.9-0.8-2.1-1.1-2.9
			C468.1,115.3,466.7,115.7,466.8,116z"/>
	</g>
	<g>
		<path class="st10" d="M504.1,112.7c-2.3-6-4.6-11.9-6.9-17.9c-0.3-0.8-2.3-0.3-2.8,0c-3.9,2.2-8.3,3.6-12.6,4.9
			c-1.8,0.5-0.8,1.2,0.3,1.1c1.7,5.7,3.3,11.4,5,17.1c0,0.1,0.1,0.1,0.1,0.2c-0.3,0.1-0.6,0.2-0.9,0.3c-1.9,0.8,0.9,1.1,1.8,0.8
			c5.1-2,10.1-3.9,15.2-5.9C503.6,113.3,504.2,113,504.1,112.7z M499.7,113.3c-1.9,0.7-3.8,1.5-5.7,2.2c-1.6,0.6-3.1,1.2-4.7,1.8
			c-0.5-1.6-0.9-3.2-1.4-4.8c-1.2-4.1-2.4-8.2-3.6-12.2c0.1,0,0.1,0,0.2,0c3.4-1,6.8-2.1,10-3.7c0.8,2.2,1.7,4.4,2.5,6.5
			c1.2,3,2,7,3.7,9.7c0,0.1,0.1,0.1,0.1,0.1C500.5,113.1,500,113.2,499.7,113.3z"/>
		<path class="st10" d="M494.8,75.1c-0.8,0-2.1,0.4-2.7,1c-0.6,0.7-1.1,1.1-1.2,2.2s0.5,2.2,1,3c0.5,0.7,2.1,0.9,2.9,1
			c0.8,0,1.8-0.3,2.4-1s0.6-1.3,0.6-2.3c0.1-1.1-0.2-1.8-0.7-2.6C496.6,75.7,495.6,75.2,494.8,75.1z"/>
		<path class="st10" d="M480.2,94.2c-1.9-0.4-4.1-1.3-5.1-3.1c1.7-0.4,4.1-1,4.3-2.4c0.1-0.7-0.4-1.6-0.4-2.4c0-1.1,0-2.2,0.1-3.3
			c0-0.6-2.7-0.5-2.7,0.4c-0.1,1.5-0.3,3.2,0,4.7c0.2,0.9,0.4,1.1-0.6,1.6c-0.8,0.4-1.8,0.6-2.7,0.8c-0.2,0-1.1,0.3-0.9,0.6
			c1,2.5,3.8,3.6,6.2,4.1C479,95.3,481.6,94.4,480.2,94.2z"/>
		<path class="st10" d="M485.1,70.7c0.6,0.6,2.2,0.2,2.8-0.1c3.4-1.8,6.8-3.6,10.1-5.3c1.5-0.8-1.7-0.9-2.4-0.5
			c-2.7,1.4-5.5,2.9-8.2,4.3c-0.7-0.8-1.4-1.6-2.2-2.3c-0.6-0.7-3.7,0.2-3.1,0.8C483.1,68.6,484.1,69.7,485.1,70.7z"/>
		<path class="st10" d="M466.4,71.7c0,1.3,0,2.7,0.1,4c-1.8,0.2-3.5,0.3-5.3,0.5c-0.4,0-1.6,0.3-1.5,0.8c0.1,0.6,1.4,0.4,1.7,0.4
			c2.3-0.2,4.6-0.4,6.9-0.6c0.4,0,1.6-0.3,1.5-0.8c0-1.6,0-3.1-0.1-4.7C469.7,70.5,466.4,70.8,466.4,71.7z"/>
		<path class="st10" d="M466.6,83.9c-1.8-0.3-3.6,0.1-4.4,1.9s0.1,4.5,2.1,5.1l0,0l0,0l0,0l0,0c2,0.2,3.6-0.7,4.1-2.6
			C469,86.4,468.8,84.3,466.6,83.9z"/>
	</g>
	<path class="st12" d="M518.3,177.9c-0.1-0.1-0.1-0.3-0.1-0.4C518.2,177.7,518.2,177.8,518.3,177.9z"/>
	<path class="st12" d="M523,174.8c0,0.1,0,0.2,0,0.3C522.9,175,522.9,174.9,523,174.8z"/>
	<path class="st12" d="M519.5,180.6c-0.2-0.8-0.8-1.8-1.2-2.6C518.6,178.9,519.3,179.8,519.5,180.6z"/>
	<path d="M518.3,178L518.3,178L518.3,178z"/>
	<path class="st12" d="M514.1,141.4c-0.1-0.1-0.1-0.1-0.2-0.2c-1.1-1.4-2.3-2.7-3.4-4.1c-0.6,1.3-1,2.5-1,3.9c0,0.3,0,0.6,0,1
		c0,0.3,0.1,0.7,0.1,1c0.1,0.7,0.3,1.4,0.5,2.1c0.8,2.3,1.8,4.5,2.9,6.6c0.8-1,1.6-1.9,2.6-2.7c-1-1.3-1.5-3-1.6-5.1
		C514,143,514.1,142.2,514.1,141.4z"/>
	<path class="st12" d="M523,174.8c0-0.8,0.1-1.7,0-2.6c0,1,0,1.9,0,2.9C522.9,174.9,522.9,174.8,523,174.8z"/>
	<path class="st12" d="M519.1,166.3c0-4.4,0-8.8,0-13.2c0-0.8,0-1.5,0-2.3c-0.7-0.1-1.3-0.3-1.8-0.6c-1.2,1.3-2.2,2.7-3,3.7
		c-0.4,0.5-2.7,1.2-3.1,0.4c-1.6-2.8-3.1-5.8-4.2-8.9c0-0.1,0-0.2-0.1-0.2c-2.5,2.6-4.4,5.9-4.4,9.4c0,5.1,3.8,9.8,7.2,13.3
		c1.3,1.3,2.6,2.5,4.1,3.6c0.1-0.8,0.3-1.6,0.8-2.3C515.5,167.7,517.3,166.8,519.1,166.3z"/>
	<path class="st12" d="M459.4,61c0.2-0.2,0.5-0.3,0.8-0.4c0.8-0.3,1.8-0.3,2.3,0.1c2,2,3.9,3.4,6.4,4.4c1.4-3.1,2.7-6.2,3.7-9.4
		c0.2-0.8,2.8-1.1,3.3-0.5c2.4,3.1,5.9,5.5,9.7,6.3c0.8-2.8,1.7-5.6,2.5-8.4c0.3-0.9,2.5-0.8,3.1-0.6c8.9,3.9,18.3,7.2,27.9,9.1
		c0-3.8,0-7.6,0-11.4c0-0.1,0-0.1,0-0.2c0-0.5,0-1,0.1-1.5c0.1-1.7,0.4-3.7-0.1-5.1c-0.8-2.6-7.8-3.6-10.6-4.1
		c-15.3-1.8-32.2-1.5-43.9,10c-6.8,6.6-15.2,15.9-13.4,25.6c0.6-2.4,1.6-4.8,2.9-7C455.5,65.3,457.4,62.9,459.4,61z"/>
	<path class="st12" d="M519.2,134.3c0-1.2,0.1-2.4-0.1-3.5c-0.2-1.5-0.7-1.8-1.8-3.1c-0.3-0.4,0.4-0.7,0.6-0.8
		c1.6-0.5,0.8,0.3,1.2-0.8c0.2-0.6,0-1.8,0-2.5c0-3.2,0-6.3,0-9.5c0-16.9,0-33.8,0-50.7c-9.6-1.7-19.2-4.8-28.2-8.6
		c-0.8,2.6-1.5,5.1-2.3,7.7c-0.2,0.7-1.9,0.7-2.4,0.7c-4.2-0.2-8.2-1.9-11.3-4.7c-1,2.7-2.1,5.3-3.3,7.9c-0.3,0.8-2.1,0.8-2.8,0.7
		c-3.2-0.8-5.7-2.1-8-4.2c-1.2,1.4-2.3,3-3.3,4.7c-5.9,16.9-8.6,38.6,0.4,54.1c11.1,19.1,33.9,14.8,51.7,9c0.5-0.2,2.2-0.6,2.5,0.2
		c0.8,2.1,1.6,4.2,2.3,6.4c0.2,0.3,0.4,0.5,0.6,0.8C515.8,136.2,517.1,134.8,519.2,134.3z"/>
	<path class="st12" d="M522.3,169.5c-0.2-0.5-0.4-0.9-0.7-1.2c-0.7-0.8-1.3-1-1.9-0.8c-0.2,0.1-0.4,0.2-0.6,0.4
		c-1.2,1.1-2,3.9-1.9,5.1c0,0.4,0.1,0.7,0.1,1.1c0.1,0.9,0.3,1.9,0.6,2.8c0.1,0.3,0.1,0.5,0.2,0.8c0,0.1,0.1,0.3,0.1,0.4
		c0,0,0,0,0,0.1c0.4,0.9,1,1.8,1.2,2.6l0,0c0.1,0.1,0.2,0.2,0.2,0.3c0.2,0.2,0.3,0.3,0.5,0.4c1.9-0.5,2.5-4.5,2.7-6.2l0,0
		c0-0.1,0-0.2,0-0.3c0-0.8,0.1-1.7,0-2.6C522.8,171.2,522.7,170.3,522.3,169.5z"/>
	<path class="st12" d="M519.1,153.1c0-0.8,0-1.5,0-2.3c-0.7-0.1-1.3-0.3-1.8-0.6c-1.2,1.3-2.2,2.7-3,3.7c-0.4,0.5-2.7,1.2-3.1,0.4
		c-1.6-2.8-3.1-5.8-4.2-8.9c0-0.1,0-0.2-0.1-0.2c-2.5,2.6-4.4,5.9-4.4,9.4c0,5.1,3.8,9.8,7.2,13.3c1.3,1.3,2.6,2.5,4.1,3.6
		c0.1-0.8,0.3-1.6,0.8-2.3c1-1.6,2.8-2.5,4.6-2.9C519.1,161.9,519.1,157.5,519.1,153.1z"/>
	<path class="st12" d="M522.3,169.5c-0.2-0.5-0.4-0.9-0.7-1.2c-0.7-0.8-1.3-1-1.9-0.8c-0.2,0.1-0.4,0.2-0.6,0.4
		c-1.2,1.1-2,3.9-1.9,5.1c0,0.4,0.1,0.7,0.1,1.1c0.1,0.9,0.3,1.9,0.6,2.8c0.1,0.3,0.1,0.5,0.2,0.8c0,0.1,0.1,0.3,0.1,0.4
		c0,0,0,0,0,0.1c0.4,0.9,1,1.8,1.2,2.6l0,0c0.1,0.1,0.2,0.2,0.2,0.3c0.2,0.2,0.3,0.3,0.5,0.4c1.9-0.5,2.5-4.5,2.7-6.2l0,0
		c0-0.1,0-0.2,0-0.3c0-0.8,0.1-1.7,0-2.6C522.8,171.2,522.7,170.3,522.3,169.5z"/>
	<path class="st12" d="M509.7,142.9c0.1,0.7,0.3,1.4,0.5,2.1c0.8,2.3,1.8,4.5,2.9,6.6c0.8-1,1.6-1.9,2.6-2.7c-0.8-1-1.3-2.3-1.5-3.9
		c-0.1-0.4-0.1-0.8-0.1-1.2c0-0.8,0-1.7,0.1-2.5c-0.1-0.1-0.1-0.1-0.2-0.2c-0.9-1.1-1.8-2.2-2.8-3.3c-0.2-0.3-0.4-0.5-0.6-0.8
		c-0.6,1.3-1,2.5-1,3.9c0,0.3,0,0.6,0,1C509.6,142.2,509.6,142.6,509.7,142.9z"/>
	<path class="st12" d="M519.1,153.1c0-0.8,0-1.5,0-2.3c-0.7-0.1-1.3-0.3-1.8-0.6c-1.2,1.3-2.2,2.7-3,3.7c-0.4,0.5-2.7,1.2-3.1,0.4
		c-1.6-2.8-3.1-5.8-4.2-8.9c0-0.1,0-0.2-0.1-0.2c-2.5,2.6-4.4,5.9-4.4,9.4c0,5.1,3.8,9.8,7.2,13.3c1.3,1.3,2.6,2.5,4.1,3.6
		c0.1-0.8,0.3-1.6,0.8-2.3c1-1.6,2.8-2.5,4.6-2.9C519.1,161.9,519.1,157.5,519.1,153.1z"/>
	<path class="st12" d="M512,130.9c0.8,2.1,1.6,4.2,2.3,6.4c0.2,0.3,0.4,0.5,0.6,0.8c0.8-1.8,2.2-3.2,4.2-3.7c0-1.2,0.1-2.4-0.1-3.5
		c-0.2-1.5-0.7-1.8-1.8-3.1c-0.3-0.4,0.4-0.7,0.6-0.8c1.6-0.5,0.8,0.3,1.2-0.8c0.2-0.6,0-1.8,0-2.5c0-3.2,0-6.3,0-9.5
		c0-16.9,0-33.8,0-50.7c-9.6-1.7-19.2-4.8-28.2-8.6c-0.8,2.6-1.5,5.1-2.3,7.7c-0.2,0.7-1.9,0.7-2.4,0.7c-4.2-0.2-8.2-1.9-11.3-4.7
		c-1,2.7-2.1,5.3-3.3,7.9c-0.3,0.8-2.1,0.8-2.8,0.7c-3.2-0.8-5.7-2.1-8-4.2c-1.2,1.4-2.3,3-3.3,4.7c-5.9,16.9-8.6,38.6,0.4,54.1
		c11.1,19.1,33.9,14.8,51.7,9C510.1,130.5,511.7,130.1,512,130.9z"/>
	<path class="st12" d="M517.3,150.3L517.3,150.3L517.3,150.3z"/>
	<path class="st12" d="M511.2,137.8c-0.2-0.3-0.4-0.5-0.6-0.8c1.1,1.4,2.3,2.7,3.4,4.1C513,140.1,512.1,139,511.2,137.8z"/>
	<path class="st12" d="M511.7,169.9C511.6,169.9,511.6,169.9,511.7,169.9C511.6,169.9,511.6,169.9,511.7,169.9z"/>
	<path class="st12" d="M513.1,151.7c0.8-1,1.6-1.9,2.6-2.7l0,0C514.7,149.8,513.9,150.7,513.1,151.7z"/>
	<path class="st12" d="M457.8,62.7c0.5-0.6,1.1-1.1,1.6-1.6c0.2-0.2,0.5-0.3,0.8-0.4c0.8-0.3,1.8-0.3,2.3,0.1c2,2,3.9,3.4,6.4,4.4
		c1.4-3.1,2.7-6.2,3.7-9.4c0.2-0.8,2.8-1.1,3.3-0.5c2.4,3.1,5.9,5.5,9.7,6.3c0.8-2.8,1.7-5.6,2.5-8.4c0.3-0.9,2.5-0.8,3.1-0.6
		c8.9,3.9,18.3,7.2,27.9,9.1c0-3.8,0-7.6,0-11.4c0-0.1,0-0.1,0-0.2c0-0.2,0-0.4,0-0.6c0-0.3,0-0.6,0.1-1c0.1-1.7,0.4-3.7-0.1-5.1
		c-0.8-2.6-7.8-3.6-10.6-4.1c-15.3-1.8-32.2-1.5-43.9,10c-6.8,6.6-15.2,15.9-13.4,25.6c0.6-2.4,1.6-4.8,2.9-7
		C455.1,66,456.4,64.2,457.8,62.7z"/>
	<path class="st12" d="M514.3,154c0.2-0.2,0.4-0.5,0.6-0.7C514.6,153.5,514.4,153.8,514.3,154z"/>
	<g>
		<path class="st13" d="M517.3,150.3L517.3,150.3c-0.9,1-1.7,2.1-2.4,3c-0.2,0.3-0.4,0.5-0.6,0.7c-0.4,0.5-2.7,1.2-3.1,0.4
			c-1.6-2.8-3.1-5.8-4.2-8.9c0-0.1,0-0.2-0.1-0.2c-2.5,2.6-4.4,5.9-4.4,9.4c0,5.1,3.8,9.8,7.2,13.3c0.6,0.7,1.3,1.3,1.9,1.9l0,0
			c0.7,0.6,1.4,1.2,2.1,1.7c0.1-0.8,0.3-1.6,0.8-2.3c1-1.6,2.8-2.5,4.6-2.9c0-4.4,0-8.8,0-13.2c0-0.8,0-1.5,0-2.3
			C518.4,150.7,517.8,150.6,517.3,150.3z"/>
		<path class="st13" d="M509.7,142.9c0.1,0.7,0.3,1.4,0.5,2.1c0.8,2.3,1.8,4.5,2.9,6.6c0.8-1,1.6-1.9,2.6-2.7
			c-0.8-1-1.3-2.3-1.5-3.9c-0.1-0.4-0.1-0.8-0.1-1.2c0-0.8,0-1.7,0.1-2.5c-0.1-0.1-0.1-0.1-0.2-0.2c-1.1-1.4-2.3-2.7-3.4-4.1
			c-0.6,1.3-1,2.5-1,3.9c0,0.3,0,0.6,0,1C509.6,142.2,509.6,142.6,509.7,142.9z"/>
	</g>
	<path d="M511.6,169.9c-0.7-0.6-1.3-1.2-1.9-1.9C510.3,168.6,510.9,169.3,511.6,169.9z"/>
	<path d="M514.8,153.3c0.7-0.9,1.5-2,2.4-3C516.4,151.3,515.5,152.3,514.8,153.3z"/>
	<path class="st12" d="M519.1,153.1c0-0.8,0-1.5,0-2.3c-0.7-0.1-1.3-0.3-1.8-0.6l0,0c-0.9,1-1.7,2.1-2.4,3c-0.2,0.3-0.4,0.5-0.6,0.7
		c-0.4,0.5-2.7,1.2-3.1,0.4c-1.6-2.8-3.1-5.8-4.2-8.9c0-0.1,0-0.2-0.1-0.2c-2.5,2.6-4.4,5.9-4.4,9.4c0,5.1,3.8,9.8,7.2,13.3
		c0.6,0.7,1.3,1.3,1.9,1.9l0,0c0.6,0.5,1.2,1.1,1.9,1.6c0.1,0.1,0.1,0.1,0.2,0.1c0.1-0.8,0.3-1.6,0.8-2.3c1-1.6,2.8-2.5,4.6-2.9
		C519.1,161.9,519.1,157.5,519.1,153.1z"/>
	<path class="st12" d="M509.7,142.9c0.1,0.7,0.3,1.4,0.5,2.1c0.8,2.3,1.8,4.5,2.9,6.6c0.8-1,1.6-1.9,2.6-2.7c-0.8-1-1.3-2.3-1.5-3.9
		c-0.1-0.4-0.1-0.8-0.1-1.2c0-0.8,0-1.7,0.1-2.5c-0.1-0.1-0.1-0.1-0.2-0.2c-0.9-1.1-1.8-2.2-2.8-3.3c-0.2-0.3-0.4-0.5-0.6-0.8
		c-0.6,1.3-1,2.5-1,3.9c0,0.3,0,0.6,0,1C509.6,142.2,509.6,142.6,509.7,142.9z"/>
	<path class="st12" d="M512,130.9c0.8,2.1,1.6,4.2,2.3,6.4c0.2,0.3,0.4,0.5,0.6,0.8c0.8-1.8,2.2-3.2,4.2-3.7c0-1.2,0.1-2.4-0.1-3.5
		c-0.2-1.5-0.7-1.8-1.8-3.1c-0.3-0.4,0.4-0.7,0.6-0.8c1.6-0.5,0.8,0.3,1.2-0.8c0.2-0.6,0-1.8,0-2.5c0-3.2,0-6.3,0-9.5
		c0-16.9,0-33.8,0-50.7c-9.6-1.7-19.2-4.8-28.2-8.6c-0.8,2.6-1.5,5.1-2.3,7.7c-0.2,0.7-1.9,0.7-2.4,0.7c-4.2-0.2-8.2-1.9-11.3-4.7
		c-1,2.7-2.1,5.3-3.3,7.9c-0.3,0.8-2.1,0.8-2.8,0.7c-3.2-0.8-5.7-2.1-8-4.2c-1.2,1.4-2.3,3-3.3,4.7c-5.9,16.9-8.6,38.6,0.4,54.1
		c11.1,19.1,33.9,14.8,51.7,9C510.1,130.5,511.7,130.1,512,130.9z"/>
	<path class="st12" d="M523.2,147c0.4-1.3,0.5-2.7,0.5-4.1c0-1.5-0.1-3.5-0.8-5.1c-0.2-0.4-0.4-0.8-0.6-1.1
		c-0.2-0.3-0.4-0.5-0.6-0.7c-0.4-0.3-0.7-0.5-1-0.6c-0.4-0.1-0.7-0.1-1,0c-0.2,0.1-0.4,0.2-0.6,0.4c-1,0.9-1.5,3.2-1.7,5.2
		c0,0.1,0,0.3,0,0.4c0,0.5-0.1,0.9-0.1,1.3l0,0c0,0.1,0,0.2,0,0.3c0,0.4,0,0.8,0,1.1c0,0.1,0,0.1,0,0.2c0,0.3,0.1,0.7,0.1,1.1
		c0.1,0.7,0.3,1.3,0.6,2c0.2,0.5,0.5,1,0.9,1.4c0.1,0.1,0.1,0.1,0.2,0.2c0.2,0.2,0.4,0.3,0.6,0.5c0.4,0.2,0.9,0.4,1.4,0.3
		c0.3,0,0.5,0,0.7,0h0.1c0,0,0.2-0.2,0.3-0.6c0.2-0.4,0.4-0.9,0.6-1.4C523.1,147.4,523.2,147.1,523.2,147z"/>
	<path class="st12" d="M522.3,169.5c-0.2-0.5-0.4-0.9-0.7-1.2c-0.7-0.8-1.3-1-1.9-0.8c-0.2,0.1-0.4,0.2-0.6,0.4
		c-1.2,1.1-2,3.9-1.9,5.1c0,0.4,0.1,0.7,0.1,1.1l0,0c0.1,0.9,0.3,1.9,0.6,2.8c0.1,0.3,0.1,0.5,0.2,0.8c0,0.1,0.1,0.3,0.1,0.4
		c0,0,0,0,0,0.1c0.4,0.9,1,1.8,1.2,2.6l0,0c0.1,0.1,0.2,0.2,0.2,0.3c0.2,0.2,0.3,0.3,0.5,0.4c1.9-0.5,2.5-4.5,2.7-6.2l0,0
		c0-0.1,0-0.2,0-0.3c0-0.8,0.1-1.7,0-2.6C522.8,171.2,522.7,170.3,522.3,169.5z"/>
	<path class="st10" d="M457.8,62.7c0.5-0.6,1.1-1.1,1.6-1.6c0.2-0.2,0.5-0.3,0.8-0.4c0.8-0.3,1.8-0.3,2.3,0.1c2,2,3.9,3.4,6.4,4.4
		c1.4-3.1,2.7-6.2,3.7-9.4c0.2-0.8,2.8-1.1,3.3-0.5c2.4,3.1,5.9,5.5,9.7,6.3c0.8-2.8,1.7-5.6,2.5-8.4c0.3-0.9,2.5-0.8,3.1-0.6
		c8.9,3.9,18.3,7.2,27.9,9.1c0-3.8,0-7.6,0-11.4c0-0.1,0-0.1,0-0.2c0-0.2,0-0.4,0-0.6c0-0.3,0-0.6,0.1-1c0.1-1.7,0.4-3.7-0.1-5.1
		c-0.8-2.6-7.8-3.6-10.6-4.1c-15.3-1.8-32.2-1.5-43.9,10c-6.8,6.6-15.2,15.9-13.4,25.6c0.6-2.4,1.6-4.8,2.9-7
		C455.1,66,456.4,64.2,457.8,62.7z"/>
	<path class="st10" d="M526.9,143.6c0.2-3.2-0.4-8.4-4-9.3c0-32.4,0-64.7,0-97.1c0-8.1,0-16.2,0-24.3c0-0.8-3.2-0.5-3.2,0.5
		c0,9.2,0,18.4,0,27.6c-3-1.3-6-2.2-9.3-2.7h-0.1c-0.1,0-0.2,0-0.3,0c-15.9-1.9-33.9-1.5-46.8,9.4c-9.4,8-21.3,21.5-12.9,34.1
		c0.1,0.1,0.2,0.2,0.4,0.2c0,0.1,0,0.1,0,0.2c-3.4,18.3-2.4,46.8,19.5,53.4c12.5,3.7,26.7,0.6,38.9-3.2c0.2,0.7,0.5,1.3,0.7,2
		c-0.4,0.1-0.8,0.4-1,0.6c-2,2.8-2.9,5.3-2.5,8.3c-3.6,2.8-6.7,6.7-7,11.2c-0.4,5.1,3.2,9.9,6.4,13.6c2.4,2.7,5.1,4.9,8.1,6.8
		c0.1,0.9,0.4,1.8,0.6,2.6c0.7,2.6,2.5,6.2,5.3,5.8c0,0.3,0,0.5,0,0.8c0,8.1,0,16.2,0,24.3c0,0.8,3.2,0.5,3.2-0.5c0-8.7,0-17.3,0-26
		c2.5-1.7,3.5-4.9,3.5-8.2c0-3.1-0.8-6.3-3.5-7.2c0-5.2,0-10.5,0-15.7C525.6,149.6,526.7,146.8,526.9,143.6z M464.5,49.4
		c11.7-11.4,28.6-11.8,43.9-10c2.8,0.4,9.8,1.4,10.6,4.1c0.4,1.4,0.2,3.4,0.1,5.1c0,0.3,0,0.7-0.1,1c0,0.2,0,0.4,0,0.6
		c0,0.1,0,0.1,0,0.2c0,3.8,0,7.6,0,11.4c-9.6-1.9-19-5.2-27.9-9.1c-0.6-0.3-2.8-0.3-3.1,0.6c-0.8,2.8-1.7,5.6-2.5,8.4
		c-3.9-0.8-7.3-3.2-9.7-6.3c-0.5-0.6-3-0.3-3.3,0.5c-1,3.2-2.3,6.3-3.7,9.4c-2.4-1-4.4-2.4-6.4-4.4c-0.4-0.4-1.5-0.4-2.3-0.1
		c-0.3,0.1-0.6,0.3-0.8,0.4c-0.6,0.5-1.1,1.1-1.6,1.6c-1.4,1.5-2.7,3.4-3.8,5.3c-1.2,2.2-2.2,4.6-2.9,7
		C449.2,65.3,457.7,56,464.5,49.4z M509.5,130.7c-17.8,5.8-40.6,10.1-51.7-9c-9-15.5-6.3-37.2-0.4-54.1c1-1.7,2.1-3.3,3.3-4.7
		c2.4,2,4.8,3.4,8,4.2c0.7,0.2,2.4,0.1,2.8-0.7c1.2-2.6,2.3-5.2,3.3-7.9c3.1,2.8,7.1,4.5,11.3,4.7c0.5,0,2.2,0,2.4-0.7
		c0.8-2.6,1.5-5.1,2.3-7.7c9.1,3.8,18.6,6.9,28.2,8.6c0,16.9,0,33.8,0,50.7c0,3.2,0,6.3,0,9.5c0,0.7,0.2,1.9,0,2.5
		c-0.4,1.1,0.5,0.3-1.2,0.8c-0.2,0.1-1,0.4-0.6,0.8c1.1,1.3,1.6,1.6,1.8,3.1c0.2,1.1,0.1,2.3,0.1,3.5c-2.1,0.5-3.4,1.9-4.2,3.7
		c-0.2-0.3-0.4-0.5-0.6-0.8c-0.8-2.1-1.6-4.2-2.3-6.4C511.7,130.1,510.1,130.5,509.5,130.7z M510.6,137.1c0.2,0.3,0.4,0.5,0.6,0.8
		c0.9,1.1,1.8,2.2,2.8,3.3c0.1,0.1,0.1,0.1,0.2,0.2c-0.1,0.8-0.1,1.6-0.1,2.5c0,0.4,0.1,0.8,0.1,1.2c0.2,1.6,0.7,2.9,1.5,3.9
		c-0.9,0.8-1.8,1.7-2.6,2.7c-1.1-2.1-2.1-4.3-2.9-6.6c-0.3-0.7-0.4-1.5-0.5-2.1c-0.1-0.3-0.1-0.7-0.1-1s0-0.6,0-1
		C509.6,139.6,510,138.3,510.6,137.1z M514.5,169.3c-0.4,0.7-0.7,1.5-0.8,2.3c-0.1,0-0.1-0.1-0.2-0.1c-0.6-0.5-1.3-1-1.9-1.6l0,0
		c-0.7-0.6-1.3-1.2-1.9-1.9c-3.3-3.5-7.2-8.2-7.2-13.3c0-3.5,1.9-6.8,4.4-9.4c0,0.1,0,0.1,0.1,0.2c1.1,3.1,2.6,6.1,4.2,8.9
		c0.4,0.8,2.7,0.1,3.1-0.4c0.2-0.2,0.4-0.5,0.6-0.7c0.7-0.9,1.5-2,2.4-3l0,0c0.5,0.3,1.2,0.5,1.8,0.6c0,0.8,0,1.5,0,2.3
		c0,4.4,0,8.8,0,13.2C517.3,166.8,515.5,167.7,514.5,169.3z M523,174.8c0,0.1,0,0.2,0,0.3l0,0c-0.2,1.7-0.8,5.8-2.7,6.2
		c-0.2-0.1-0.4-0.3-0.5-0.4c-0.1-0.1-0.2-0.2-0.2-0.3l0,0c-0.2-0.8-0.8-1.8-1.2-2.6c0,0,0,0,0-0.1c-0.1-0.1-0.1-0.3-0.1-0.4
		c-0.1-0.3-0.1-0.5-0.2-0.8c-0.3-0.9-0.5-1.8-0.6-2.8l0,0c-0.1-0.4-0.1-0.7-0.1-1.1c-0.1-1.3,0.7-4.1,1.9-5.1
		c0.2-0.2,0.4-0.3,0.6-0.4c0.6-0.2,1.2,0,1.9,0.8c0.3,0.4,0.5,0.8,0.7,1.2c0.3,0.8,0.5,1.7,0.6,2.7C523,173.1,523,174,523,174.8z
		 M522.3,149c-0.2,0.3-0.3,0.6-0.3,0.6h-0.1c-0.2,0-0.4,0-0.7,0c-0.5,0.1-1,0-1.4-0.3c-0.2-0.1-0.4-0.3-0.6-0.5
		c-0.1-0.1-0.1-0.1-0.2-0.2c-0.3-0.4-0.6-0.9-0.9-1.4c-0.3-0.6-0.5-1.3-0.6-2c-0.1-0.4-0.1-0.7-0.1-1.1c0,0,0-0.1,0-0.2
		c0-0.3,0-0.6,0-1.1c0-0.1,0-0.2,0-0.3l0,0c0-0.4,0-0.9,0.1-1.3c0-0.1,0-0.3,0-0.4c0.2-2,0.7-4.3,1.7-5.2c0.2-0.2,0.4-0.3,0.6-0.4
		c0.3-0.1,0.6-0.1,1,0c0.3,0.1,0.6,0.3,1,0.6c0.2,0.2,0.4,0.4,0.6,0.7c0.2,0.3,0.4,0.7,0.6,1.1c0.7,1.6,0.8,3.7,0.8,5.1
		c0,1.4-0.1,2.8-0.5,4.1c0,0.1-0.1,0.4-0.3,0.7C522.7,148.1,522.5,148.6,522.3,149z"/>
</g>
<g>
	<path d="M375.8,155.7c-0.1-0.5-0.1-1-0.1-1.5c-0.2,0.5-0.4,0.9-0.6,1.3c-0.1,0.1-0.2,0.2-0.4,0.2c-0.1,0-0.2,0-0.3-0.1
		c-0.1-0.1-0.2-0.2-0.2-0.3s0-0.2,0.1-0.3c0.9-1.4,1.5-3.2,1.7-4.9c0-0.2,0.2-0.3,0.3-0.4c0,0,0.1,0,0.2,0c0.2,0,0.4,0.1,0.4,0.3
		v0.1c-0.1,0.8-0.3,1.6-0.6,2.4l0.9,7.9c0,0.2-0.1,0.4-0.4,0.4s-0.5-0.1-0.5-0.3L375.8,155.7z M382.2,157.3c0.9,0.9,2.1,1.4,3.7,1.5
		c0.2,0,0.4,0.2,0.4,0.4c0,0,0,0.1,0,0.2c0,0.3-0.2,0.4-0.4,0.4c0,0-0.1,0-0.2,0c-1.6-0.2-3.1-0.9-4.1-2c-0.1,0.3-0.2,0.6-0.4,0.8
		c-0.7,1-1.7,1.6-2.8,2.1c-0.1,0-0.1,0-0.2,0c-0.2,0-0.4-0.1-0.5-0.3c0-0.1,0-0.1,0-0.2c0-0.2,0.1-0.4,0.3-0.4c1.1-0.4,2-1,2.5-1.7
		c0.1-0.2,0.2-0.4,0.3-0.6l-2.9,0.3c-0.2,0-0.3-0.1-0.3-0.3s0.1-0.4,0.2-0.4l3.2-0.4c0-0.3,0-0.6,0-0.9l-2.6,0.3
		c-0.2,0-0.3-0.1-0.3-0.3s0.1-0.4,0.3-0.4l2.7-0.3c0-0.3,0-0.5-0.1-0.8l-3.1,0.4c-0.2,0-0.3-0.1-0.3-0.3s0.1-0.4,0.3-0.4l1.9-0.2
		c-0.2-0.4-0.4-0.9-0.7-1.2l-1.4,0.2c-0.2,0-0.3-0.1-0.4-0.3c0-0.2,0.1-0.4,0.3-0.4l2.5-0.3l-0.2-1.9c0-0.2,0.1-0.3,0.3-0.3
		c0.2,0,0.4,0,0.5,0.2l0.2,1.9l0.9-0.1l-0.2-1.9c0-0.2,0.1-0.3,0.3-0.3c0.3,0,0.4,0,0.5,0.2l0.2,1.9l2.6-0.3c0.2,0,0.4,0.1,0.4,0.4
		c0,0.2-0.1,0.4-0.3,0.4l-1.6,0.2c-0.2,0.5-0.3,0.9-0.5,1.4l2-0.2c0.2,0,0.3,0.1,0.3,0.3s-0.1,0.4-0.3,0.4l-3.3,0.4
		c0,0.3,0.1,0.5,0.1,0.8l2.9-0.3c0.2,0,0.3,0.1,0.3,0.3s-0.1,0.4-0.2,0.4l-3,0.3c0,0.3,0,0.6,0,0.9l3.7-0.4c0.2,0,0.3,0.1,0.3,0.3
		s-0.1,0.4-0.3,0.4L382.2,157.3z M377.9,149.8c0.1,0,0.3,0,0.4,0.1c0.3,0.3,0.6,0.7,0.8,1c0,0.1,0.1,0.1,0.1,0.2
		c0,0.1-0.1,0.3-0.2,0.3s-0.1,0.1-0.2,0.1s-0.3,0-0.3-0.2c-0.2-0.3-0.5-0.7-0.8-0.9c-0.1-0.1-0.1-0.1-0.1-0.2c0-0.1,0-0.2,0.2-0.3
		C377.7,149.9,377.8,149.8,377.9,149.8z M382,153.5c0.2-0.4,0.4-0.9,0.5-1.4l-2.7,0.3c0.3,0.4,0.5,0.8,0.7,1.2L382,153.5z
		 M384.4,149.5c0,0,0,0.1,0,0.2c-0.1,0.4-0.4,0.8-0.7,1.2c-0.1,0.1-0.2,0.2-0.3,0.2c-0.1,0-0.2,0-0.2,0c-0.1,0-0.2-0.1-0.2-0.3
		c0-0.1,0-0.2,0.1-0.3c0.2-0.3,0.5-0.7,0.6-1.1c0.1-0.2,0.2-0.2,0.3-0.3c0.1,0,0.1,0,0.2,0C384.3,149.2,384.4,149.3,384.4,149.5z"/>
	<path d="M391.7,154.9c-0.3,1.3-0.6,1.9-0.9,2.3c-0.3,0.4-0.8,0.6-1.3,0.7c-1.2,0.1-2.4-0.9-2.6-2.9c-0.3-3,1.5-5.4,4.7-5.7
		c2.8-0.3,4.9,1.3,5.2,3.9c0.2,1.7-0.4,3-1.5,4c-0.6,0.5-1.5,0.9-2.4,1.1h-0.1c-0.2,0-0.5-0.1-0.5-0.4v-0.1c0-0.2,0.1-0.4,0.4-0.5
		c0.9-0.2,1.7-0.6,2.3-1.1c0.7-0.6,1.1-1.7,1-2.9c-0.2-2-1.7-3.3-3.8-3.2C392.1,151.9,392,153.6,391.7,154.9z M387.9,154.8
		c0.2,1.4,0.9,2.1,1.5,2c0.3,0,0.5-0.2,0.8-0.4c0.2-0.3,0.4-0.8,0.6-1.7c0.2-1.2,0.3-2.8,0.2-4.5
		C388.8,150.7,387.6,152.5,387.9,154.8z"/>
	<path d="M407.7,150.8c0.3,0,0.5,0.2,0.5,0.4c0,0.3-0.1,0.5-0.4,0.5l-3.7,0.4c0,0.2,0,0.4,0,0.6c0.1,2.4-1.2,4-3.3,4.9
		c-0.1,0-0.2,0.1-0.3,0.1c-0.2,0-0.3,0-0.4-0.2c0-0.1-0.1-0.1-0.1-0.2c0-0.2,0.1-0.4,0.3-0.5c1.7-0.8,2.8-1.9,2.7-4.1
		c0-0.1,0-0.2,0-0.3l-4.6,0.5c-0.3,0-0.5-0.2-0.5-0.4s0.1-0.5,0.4-0.5l4.6-0.5c-0.1-0.7-0.1-1.5-0.2-2.1c-1.3,0.3-2.8,0.6-3.8,0.8
		c-0.3,0-0.5-0.1-0.5-0.4l0,0c0-0.2,0.1-0.5,0.4-0.5c1.1-0.1,2.7-0.5,3.9-0.8c1.1-0.3,2.4-0.8,3.3-1.2c0.1,0,0.2-0.1,0.2-0.1
		c0.2,0,0.3,0.1,0.5,0.2c0,0.1,0.1,0.2,0.1,0.2c0,0.2-0.1,0.4-0.3,0.5c-0.7,0.4-1.8,0.8-2.8,1.1c0.1,0.8,0.2,1.6,0.2,2.3
		L407.7,150.8z"/>
	<path d="M416.1,149.6c0-0.3-0.1-0.4-0.5-0.4l-5.1,0.6c-0.2,0-0.4-0.2-0.4-0.4s0.1-0.5,0.3-0.5l5.5-0.6c0.7-0.1,1.1,0.2,1.2,1l0.6,5
		c0.1,0.7-0.2,1.1-0.9,1.2l-5.6,0.6c-0.2,0-0.4-0.2-0.4-0.4c0-0.3,0.1-0.5,0.3-0.5l5.2-0.6c0.3,0,0.4-0.1,0.4-0.5l-0.2-1.9l-5.3,0.6
		c-0.2,0-0.4-0.2-0.4-0.4s0.1-0.5,0.3-0.5l5.3-0.6L416.1,149.6z"/>
	<path d="M426.8,145.5c0.9-0.1,1.4,0.3,1.5,1.3l0.6,5.2c0.1,1-0.3,1.5-1.2,1.6l-6.8,0.8c-0.3,0-0.5-0.1-0.5-0.5
		c0-0.3,0.1-0.5,0.4-0.6l6.4-0.7c0.5-0.1,0.6-0.2,0.5-0.6l-0.6-4.9c0-0.4-0.2-0.5-0.6-0.5l-6.3,0.7c-0.3,0-0.5-0.1-0.5-0.4
		c0-0.3,0.1-0.5,0.4-0.6L426.8,145.5z"/>
	<path d="M435.2,148.4c0.7-0.1,1.3-0.2,1.8-0.3h0.1c0.3,0,0.4,0.1,0.5,0.4c0,0,0,0,0,0.1c0,0.2-0.1,0.4-0.4,0.5
		c-0.6,0.1-1.2,0.2-1.9,0.3c-0.4,0-0.8,0.1-1.1,0.1c0,0.6,0,1.1,0,1.6c0.1,0.6,0.3,1,0.7,1.2c0.5,0.3,1.1,0.4,2,0.3
		c1.8-0.2,2.7-1.1,2.6-2.3c-0.1-0.7-0.4-1.3-0.9-1.8c-0.1-0.1-0.1-0.2-0.1-0.3s0.1-0.3,0.2-0.4c0.1-0.1,0.2-0.1,0.3-0.1
		c0.1,0,0.3,0,0.4,0.2c0.7,0.6,1.1,1.5,1.2,2.3c0.2,1.9-1.1,3.2-3.4,3.4c-1.1,0.1-2,0-2.6-0.4s-1-1-1.1-2c-0.1-0.4-0.1-0.9-0.1-1.6
		c-0.7,0-1.4,0-2,0c-0.2,0-0.4-0.2-0.4-0.4v-0.1c0-0.3,0.2-0.4,0.4-0.4h0.1c0.6,0,1.3,0,2,0c0-0.7,0.1-1.4,0.1-2c-0.8,0-1.5,0-2.1,0
		c-0.2,0-0.4-0.2-0.4-0.4v-0.1c0-0.2,0.1-0.4,0.4-0.4h0.1c0.6,0,1.3,0,2.2,0c0-0.5,0.1-1.1,0.1-1.7c0-0.3,0.2-0.4,0.4-0.4h0.1
		c0.3,0,0.4,0.2,0.4,0.4v0.1c-0.1,0.5-0.1,1-0.1,1.5c0.2,0,0.3,0,0.5-0.1c0.7-0.1,1.4-0.2,2.1-0.3l0,0c0.2,0,0.4,0.1,0.5,0.4l0,0
		c0,0.3-0.1,0.5-0.3,0.5c-0.7,0.1-1.4,0.3-2,0.3c-0.3,0-0.6,0.1-0.9,0.1c-0.1,0.7-0.1,1.4-0.1,2
		C434.5,148.4,434.9,148.4,435.2,148.4z"/>
	<path d="M386.3,164.5c0.2,0,0.4,0.2,0.4,0.4s-0.1,0.4-0.3,0.5l-7.7,0.9l0.2,1.6c0,0.3,0.2,0.4,0.8,0.4c0.6,0,1.6-0.1,2.3-0.2
		c1.1-0.1,2.5-0.3,3.7-0.6c0,0,0,0,0.1,0c0.2,0,0.4,0.1,0.5,0.3c0,0,0,0,0,0.1c0,0.2-0.1,0.4-0.3,0.5c-1.3,0.3-2.7,0.5-4,0.6
		c-1.2,0.1-2,0.2-2.7,0.2c-0.9,0-1.2-0.3-1.2-0.9l-0.2-1.9l-1.4,0.2c-0.2,0-0.4-0.1-0.4-0.4c0-0.2,0.1-0.4,0.3-0.5l4.5-0.5l-0.1-1
		c0-0.2,0.1-0.4,0.4-0.4s0.5,0.1,0.5,0.3l0.1,1L386.3,164.5z M378.6,171v0.1c-0.1,1.1-0.5,2.3-0.9,3c-0.1,0.2-0.3,0.3-0.4,0.3
		s-0.2,0-0.3-0.1c-0.1-0.1-0.2-0.2-0.2-0.3s0-0.2,0.1-0.3c0.4-0.7,0.7-1.7,0.9-2.7c0-0.2,0.2-0.3,0.4-0.3h0.1
		C378.5,170.7,378.6,170.8,378.6,171z M379.5,170.6c0-0.2,0.1-0.4,0.4-0.4s0.5,0.1,0.5,0.3l0.3,2.8c0,0.4,0.2,0.5,1.7,0.3
		c1.3-0.2,1.7-0.3,1.8-0.5c0.1-0.2,0.2-0.5,0.1-1c0-0.2,0.1-0.4,0.3-0.4h0.1c0.3,0,0.4,0.1,0.5,0.3l0,0c0,0.6-0.1,1.1-0.2,1.5
		c-0.2,0.5-0.8,0.7-2.2,0.9c-0.2,0-0.3,0-0.5,0.1c-0.9,0.1-1.6,0.1-2,0c-0.3-0.1-0.5-0.3-0.5-0.8L379.5,170.6z M381.7,169.7
		c0.1,0,0.3,0,0.4,0.1c0.5,0.4,1.1,1,1.5,1.4c0.1,0.1,0.1,0.2,0.1,0.3c0,0.2-0.1,0.3-0.2,0.4c-0.1,0.1-0.2,0.1-0.3,0.1
		c-0.1,0-0.3,0-0.4-0.1c-0.4-0.5-1-1-1.5-1.5c-0.1,0-0.1-0.1-0.1-0.2c0-0.1,0-0.3,0.2-0.4C381.5,169.7,381.6,169.7,381.7,169.7z
		 M385.2,169.8c0.1,0,0.3,0,0.4,0.1c0.6,0.7,1.6,1.9,2,2.6c0,0.1,0.1,0.1,0.1,0.2c0,0.2-0.1,0.4-0.2,0.5c-0.1,0-0.2,0.1-0.2,0.1
		c-0.2,0-0.3,0-0.4-0.2c-0.4-0.7-1.2-1.8-1.9-2.5c-0.1-0.1-0.1-0.1-0.1-0.2c0-0.1,0-0.3,0.2-0.3C385,169.8,385.1,169.8,385.2,169.8z
		"/>
	<path d="M391.1,166.1c0,0.2,0,0.4,0.1,0.6c0,0.2,0,0.3,0,0.5c0.1-0.2,0.2-0.4,0.3-0.5c0.3-0.4,0.6-0.8,0.9-1.1
		c0.9-0.9,1.7-1.4,2.6-1.5c1.1-0.1,1.8,0.5,2,1.5c0.1,0.6,0.1,1.1,0,2c-0.1,1.4-0.1,2.2-0.1,2.6c0.1,0.6,0.3,0.8,0.7,0.7
		c0.5-0.1,0.8-0.4,1-1.4c0-0.2,0.2-0.4,0.4-0.4c0.1,0,0.1,0,0.2,0c0.2,0,0.3,0.2,0.4,0.4c0,0.1,0,0.1,0,0.2
		c-0.3,1.5-0.9,2.1-1.9,2.2c-0.9,0.1-1.6-0.3-1.8-1.5c-0.1-0.6-0.1-1.4,0-2.7c0.1-0.9,0.1-1.5,0-1.9c-0.1-0.6-0.4-0.9-1-0.8
		c-0.7,0.1-1.3,0.5-2.2,1.5c-0.4,0.4-0.9,1.1-1.4,1.8c0,0.5,0.1,0.9,0.1,1.4c0.1,1.1,0.3,2.2,0.4,3.4c0,0.3-0.1,0.4-0.4,0.5l0,0
		c-0.2,0-0.5-0.1-0.5-0.4c-0.1-0.7-0.2-1.4-0.2-2c0-0.3-0.1-0.5-0.1-0.7c0-0.3-0.1-0.7-0.1-1.1c-0.1,0.3-0.2,0.4-0.3,0.6
		c-0.3,0.5-0.6,1.1-0.9,1.5c-0.1,0.2-0.2,0.2-0.4,0.3c-0.1,0-0.2,0-0.3-0.1c-0.1-0.1-0.2-0.2-0.2-0.3s0-0.3,0.1-0.4
		c0.5-0.9,1.2-1.9,1.8-2.8c-0.1-0.6-0.1-1.2-0.2-1.9c-0.5,0.1-1.1,0.2-1.7,0.4l0,0c-0.2,0-0.4-0.1-0.5-0.3c0,0,0,0,0-0.1
		c0-0.3,0.1-0.5,0.3-0.5c0.6-0.1,1.2-0.2,1.8-0.4c-0.1-0.6-0.1-1.2-0.1-1.8c0-0.3,0.1-0.5,0.4-0.5l0,0c0.3,0,0.5,0.1,0.5,0.4l0,0
		c0,0.6,0.1,1.1,0.1,1.7l0,0c0.3,0,0.5,0.1,0.5,0.3c0,0.1,0,0.3-0.1,0.4L391.1,166.1z"/>
	<path d="M401.4,170c-0.1,0.2-0.2,0.3-0.4,0.4c-0.1,0-0.2,0-0.3-0.1c-0.2-0.1-0.3-0.2-0.3-0.4c0-0.1,0-0.2,0.1-0.4
		c0.7-1.5,1.3-3.3,1.6-4.9c-0.4,0.1-0.9,0.1-1.4,0.2c-0.1,0-0.3,0-0.5,0.1c-0.3,0-0.4-0.1-0.5-0.4s0.1-0.5,0.4-0.5
		c0.2,0,0.3,0,0.5-0.1c0.5-0.1,1-0.1,1.6-0.2c0.1-0.6,0.2-1.2,0.2-1.8c0-0.3,0.2-0.4,0.4-0.4h0.1c0.3,0,0.4,0.1,0.5,0.4
		c0,0,0,0.1,0,0.2c-0.1,0.5-0.1,1-0.2,1.6c0.6-0.1,1.1-0.2,1.6-0.4h0.1c0.2,0,0.4,0.1,0.5,0.3c0,0,0,0,0,0.1c0,0.2-0.1,0.4-0.4,0.5
		c-0.6,0.2-1.3,0.3-2,0.5C402.7,166.4,402.1,168.4,401.4,170z M410.5,169.3c0.1,0.1,0.2,0.2,0.2,0.4c0,0.1,0,0.2-0.1,0.3
		s-0.2,0.2-0.3,0.2c-0.1,0-0.3,0-0.4-0.1c-0.5-0.4-1.2-0.8-1.7-1.1c0,0.1,0.1,0.3,0.1,0.4c0.1,1.3-0.7,2-2.3,2.2
		c-1.5,0.2-2.6-0.5-2.7-1.6s0.8-2.1,2.3-2.3c0.5-0.1,1,0,1.5,0c-0.1-0.7-0.3-1.6-0.4-2.4c0-0.3,0.1-0.5,0.4-0.5s0.5,0.1,0.5,0.4
		c0.1,1,0.3,1.9,0.5,2.7C408.9,168.3,409.8,168.7,410.5,169.3z M405.7,168.6c-1,0.1-1.5,0.6-1.4,1.3s0.7,1,1.7,0.8
		c1-0.1,1.5-0.6,1.4-1.4c0-0.2,0-0.4-0.1-0.6C406.7,168.6,406.2,168.5,405.7,168.6z M409.6,163.7c0.2,0.1,0.3,0.3,0.3,0.4
		c0,0.1,0,0.2,0,0.3c-0.1,0.2-0.2,0.3-0.4,0.3c-0.1,0-0.2,0-0.3-0.1c-0.8-0.4-1.7-0.8-2.6-1c-0.2,0-0.2-0.2-0.3-0.3
		c0-0.1,0-0.2,0-0.3c0.1-0.2,0.2-0.3,0.4-0.3c0.1,0,0.1,0,0.2,0C407.9,162.9,408.9,163.3,409.6,163.7z"/>
	<path d="M412,161.5c0.4,0,0.5,0.1,0.5,0.4c0.1,0.5,0.1,1,0.2,1.5c0.1,0.8,0.2,1.5,0.3,2c0.3,1.4,0.6,2.3,1,3
		c0.2,0.3,0.5,0.5,0.8,0.5s0.5-0.2,0.6-0.4c0.2-0.4,0.4-1,0.4-1.9c0-0.3,0.1-0.4,0.4-0.5h0.1c0.3,0,0.5,0.1,0.5,0.4v0.1
		c0,1.1-0.3,2-0.6,2.5c-0.3,0.5-0.8,0.8-1.2,0.9c-0.5,0.1-1.1-0.1-1.5-0.7c-0.6-0.7-1.1-2-1.4-3.7c-0.2-0.9-0.4-2.3-0.5-3.6
		C411.5,161.7,411.7,161.5,412,161.5z M418.7,161.3c0.2,0,0.3,0,0.4,0.2c1.3,1.4,2.4,3.7,2.8,5.7v0.1c0,0.3-0.1,0.5-0.4,0.6h-0.1
		c-0.3,0-0.5-0.1-0.5-0.4c-0.4-2-1.4-4-2.6-5.4c-0.1-0.1-0.1-0.2-0.1-0.3c0-0.2,0.1-0.3,0.2-0.4
		C418.5,161.3,418.6,161.3,418.7,161.3z"/>
	<path d="M428.8,160.4c-0.6,0.2-1.1,0.3-1.5,0.4c-1.7,0.3-3.3,0.7-4.8,1c0,0,0,0-0.1,0c-0.3,0-0.5-0.1-0.6-0.4l0,0
		c0-0.3,0.1-0.5,0.4-0.6c2.9-0.6,6-1.1,8.9-1.6l0,0c0.3,0,0.5,0.1,0.6,0.4l0,0c0,0.2-0.1,0.5-0.4,0.6c-0.2,0-0.4,0.1-0.7,0.2
		c-2.5,0.7-4.1,2.6-3.9,4.6c0.1,1.2,0.9,1.8,1.8,2.1c0.7,0.2,1.5,0.3,2.3,0.2c0.3,0,0.5,0.2,0.6,0.4c0,0,0,0,0,0.1
		c0,0.3-0.2,0.6-0.5,0.6c-1,0.1-2,0-2.7-0.2c-1.3-0.5-2.2-1.4-2.4-3C425.5,163.3,426.6,161.5,428.8,160.4L428.8,160.4z M430,162
		c0.1,0,0.2,0,0.3,0.1c0.4,0.3,0.9,0.8,1.2,1.2c0,0.1,0.1,0.1,0.1,0.3s-0.1,0.4-0.4,0.4c-0.1,0-0.2,0-0.3-0.2
		c-0.3-0.4-0.7-0.9-1.1-1.2c-0.1-0.1-0.1-0.2-0.2-0.3C429.7,162.2,429.8,162,430,162z M431.2,161.1c0.1,0,0.2,0,0.3,0.1
		c0.3,0.3,0.9,0.8,1.1,1.2c0,0.1,0.1,0.2,0.1,0.3s-0.1,0.4-0.3,0.4c-0.1,0-0.2,0-0.3-0.2c-0.3-0.4-0.7-0.9-1-1.2
		c-0.1-0.1-0.2-0.1-0.2-0.3C430.9,161.3,431,161.1,431.2,161.1z"/>
	<path d="M436.5,160.8c0,0.2,0,0.5,0.1,0.6c0,0.2,0,0.3,0,0.6c0.1-0.2,0.2-0.3,0.2-0.4c1.4-1.7,2.4-2.4,3.6-2.5
		c1.7-0.2,2.9,1,3.2,3.5c0.1,0.7,0.1,1.4,0,1.9c0.5,0.3,1,0.6,1.3,1c0.1,0.1,0.2,0.2,0.2,0.3s0,0.3-0.1,0.4
		c-0.1,0.1-0.2,0.2-0.3,0.2c-0.1,0-0.3,0-0.4-0.1c-0.3-0.3-0.6-0.5-0.9-0.8c-0.4,1.1-1.2,1.7-2.4,1.8c-1.3,0.1-2.3-0.5-2.4-1.5
		s0.7-1.9,2-2.1c0.7-0.1,1.4,0.1,2.1,0.4c0-0.4,0-0.9-0.1-1.4c-0.2-1.8-1-2.8-2.2-2.6c-1,0.1-2,0.7-3.8,3.1c0.2,1.5,0.4,3,0.6,4.6
		c0,0.3-0.2,0.5-0.4,0.5c-0.2,0-0.5-0.1-0.5-0.4c0-0.3-0.1-0.6-0.1-0.9c-0.1-0.8-0.2-1.5-0.2-2.1c0-0.2,0-0.5,0-0.8
		c-0.1,0.2-0.2,0.4-0.3,0.6c-0.3,0.5-0.6,1.1-0.9,1.5c-0.1,0.1-0.2,0.2-0.3,0.2c-0.1,0-0.2,0-0.4-0.1c-0.1-0.1-0.2-0.2-0.2-0.3
		s0-0.3,0.1-0.4c0.4-0.7,1.1-1.7,1.8-2.7c-0.1-0.7-0.1-1.3-0.2-2c-0.5,0.1-1.2,0.2-1.7,0.3l0,0c-0.2,0-0.4-0.1-0.5-0.4l0,0
		c0-0.3,0.1-0.5,0.3-0.5c0.6-0.1,1.2-0.3,1.8-0.4c0-0.6-0.1-1.2-0.1-1.8c0-0.3,0.1-0.5,0.4-0.5l0,0c0.3,0,0.5,0.1,0.5,0.4l0,0
		c0,0.6,0.1,1.1,0.1,1.7c0.3,0,0.4,0.1,0.5,0.3c0,0.1,0,0.3-0.1,0.4L436.5,160.8z M440.7,164.6c-0.8,0.1-1.2,0.6-1.1,1.1
		s0.6,0.8,1.3,0.8c0.8-0.1,1.5-0.5,1.7-1.5C442,164.6,441.4,164.5,440.7,164.6z"/>
</g>
<path class="st7" d="M413.2,95.8c0,3.4-2.7,6.2-6.2,6.2h-47.3c-3.4,0-6.2-2.7-6.2-6.2V48.2c0-3.4,2.7-6.2,6.2-6.2H407
	c3.4,0,6.2,2.7,6.2,6.2V95.8z"/>
<path class="st14" d="M409.5,93c0,3-2.5,5.5-5.5,5.5h-41.6c-3,0-5.5-2.5-5.5-5.5V51c0-3,2.5-5.5,5.5-5.5h42.1c3,0,5.5,2.5,5.5,5.5
	L409.5,93L409.5,93z"/>
<g>
	<g>
		<path class="st2" d="M373.4,73.1h-5.3V66H361v-5.3h7.1v-7h5.3v7.1h7.1v5.3h-7.1V73.1z"/>
	</g>
	<g>
		<path class="st2" d="M398.1,81.4c0,0.5,0,0.7,0,0.9c0,1.8,0.2,2.3,0.9,2.3c0.7,0,1.8-0.7,2.7-1.8l2.3,4.1c-1.1,1.1-1.8,1.6-3,2.3
			c-1.4,0.5-2.7,0.9-3.9,0.9c-1.4,0-2.3-0.2-3.2-0.9c-0.5-0.5-0.9-0.9-1.1-2.1c-1.4,1.1-1.8,1.8-3,2.3c-1.4,0.7-2.7,0.9-4.3,0.9
			c-5.7,0-8.9-3.2-8.9-8.9c0-8.2,5.5-14.2,13-14.2c2.5,0,4.3,0.7,5.5,1.8c0.7,0.7,0.9,1.4,1.4,3.4l0.7-1.4c0.5-0.9,0.9-2.1,1.1-3
			h6.9c-0.5,0.9-0.9,1.8-2.3,4.1L398.1,81.4z M391.9,76.6c0-2.7-0.9-3.9-2.7-3.9s-3.7,1.1-4.8,3.4c-0.7,1.4-1.1,3.2-1.1,5
			c0,2.5,1.1,3.9,3.7,3.9c0.9,0,1.8-0.2,2.7-0.9c0.5-0.5,0.9-0.7,1.4-1.4c0.5-0.5,1.1-1.4,1.1-1.4C391.9,79.8,391.9,77.7,391.9,76.6
			z"/>
	</g>
</g>
<g>
	<path class="st2" d="M14.9,176.5v0.7c0,1,0,1.2,0.1,1.5H13c0.1-0.4,0.1-0.8,0.1-1.5v-4c-0.2,1.8-0.2,1.8-0.3,2.6
		c-0.2,1.2-0.4,1.9-0.9,2.8c-0.4-0.6-0.6-0.9-1.1-1.4c0,0.6,0,0.9,0.1,1.5H8.8c0.1-0.7,0.1-0.9,0.1-1.5v-3.3c0-0.3,0-0.6,0-1.5
		c-0.2,0.3-0.4,0.6-0.6,0.9c-0.2-1.1-0.3-1.5-0.7-2.5c0.6-0.7,1.1-1.5,1.6-2.6c0.3-0.8,0.6-1.6,0.6-2.2l2,0.5
		c-0.1,0.2-0.1,0.2-0.1,0.5c0.4,0,0.8,0,1.3,0h0.2v-0.2c0-0.3,0-0.5-0.1-0.7h2c0,0.2,0,0.4,0,0.7v0.2h1.3v-0.2c0-0.4,0-0.5,0-0.7h2
		c0,0.2,0,0.4,0,0.7v0.2h0.4c0.6,0,1.2,0,1.4-0.1v1.8c-0.5,0-0.6,0-1.4,0h-0.4v0.6h0.5c0.8,0,1.1,0,1.5-0.1v1.8
		c-0.4,0-0.7-0.1-1.2-0.1h-5.9v0.4c0.3,0,0.7,0,1.3,0h4.3c0.6,0,0.9,0,1.2-0.1c0,0.3-0.1,0.7-0.1,1.4v4.5c0,1.1-0.3,1.3-2.2,1.3
		c-0.1-0.7-0.1-0.9-0.3-1.5c0.2,0,0.3,0,0.5,0c0.2,0,0.2,0,0.2-0.3v-0.4h-0.8v0.5c0,0.8,0,1.2,0.1,1.5h-1.8c0.1-0.4,0.1-0.8,0.1-1.5
		v-0.5H14.9z M10.8,176.1c0.2-0.5,0.3-0.8,0.3-1.3c0.1-0.8,0.2-2.3,0.2-3.9c0-0.8,0-1.1-0.1-1.6c0.5,0,0.7,0.1,1.5,0.1h0.4v-0.6H13
		c-0.8,0-1,0-1.4,0v-1.4c-0.3,0.8-0.4,1.2-0.8,2V176.1z M15.7,172.9h-0.8v0.5h0.8V172.9z M15.7,174.7h-0.8v0.6h0.8V174.7z
		 M16.5,169.3v-0.6h-1.3v0.6H16.5z M18.2,173.5v-0.5h-0.8v0.5H18.2z M18.2,175.2v-0.6h-0.8v0.6H18.2z"/>
	<path class="st2" d="M24.3,166.7c0-0.3,0-0.4,0-0.6h2c0,0.2,0,0.4,0,0.6h2.6c0-0.2,0-0.4,0-0.6h2.1c0,0.2,0,0.4,0,0.6h1.3
		c0.7,0,1.2,0,1.6-0.1v1.7c-0.5-0.1-0.9-0.1-1.6-0.1h-1.3c0,0.2,0,0.2,0,0.4h-1.9c0-0.1,0-0.3,0-0.4h-2.8c0,0.2,0,0.3,0,0.4h-1.9
		c0-0.1,0-0.2,0-0.4h-1.2c-0.8,0-1.1,0-1.6,0.1v-1.7c0.5,0.1,0.9,0.1,1.6,0.1H24.3z M30.6,171.1c-0.8,0.7-1.4,1.1-1.6,1.2
		c0.3,0,0.5,0,0.6,0c0.5,0,0.5,0,0.9,0c-0.2-0.2-0.3-0.2-0.5-0.4l1.5-1c1,0.8,1.7,1.5,2.5,2.4l-1.3,1.1c0,0.3,0,0.5,0,1.1v2
		c0,0.5,0,0.9,0.1,1.4h-2v-0.5h-6.1v0.5h-2c0-0.4,0.1-0.9,0.1-1.4v-2c0-0.5,0-0.9,0-1.3c0.5,0,0.6,0,1.4,0h7.3c0.5,0,0.7,0,1,0
		c-0.2-0.3-0.3-0.3-0.4-0.6c-3.8,0.2-3.8,0.2-9.1,0.4c-0.4,0-0.6,0-0.9,0.1l-0.2-1.8c0.5,0.1,1,0.1,2.9,0.1
		c-0.6-0.3-0.9-0.5-1.7-0.8l1.2-1h-0.7c-0.7,0-1.2,0-1.6,0.1v-1.7c0.4,0,0.9,0.1,1.6,0.1h3.3c0-0.2,0-0.3,0-0.5h2c0,0.1,0,0.3,0,0.5
		h3.4c0.6,0,1.2,0,1.6-0.1v1.7c-0.3,0-0.9-0.1-1.6-0.1h-2.5L30.6,171.1z M24.1,170.5c0.5,0.2,0.7,0.3,1,0.5c0.2-0.2,0.3-0.3,0.6-0.5
		H24.1z M24.6,175.7h2.1v-0.4h-2.1V175.7z M24.6,177.1h2.1v-0.4h-2.1V177.1z M27.9,170.5c-0.4,0.4-0.8,0.8-1.4,1.3
		c0.3,0.2,0.3,0.2,0.4,0.3c0.5-0.4,1.4-1.1,1.8-1.5H27.9z M28.5,175.7h2.1v-0.4h-2.1V175.7z M28.5,177.1h2.1v-0.4h-2.1V177.1z"/>
	<path class="st2" d="M38.9,177.3c0,0.7,0,1,0.1,1.4h-2.2c0.1-0.5,0.1-1,0.1-1.7v-2.3c-0.4,0.3-0.6,0.4-1.2,0.8
		c-0.2,0.1-0.3,0.2-0.4,0.3l-0.8-2.1c0.5-0.2,1.4-0.6,2.4-1.3v-1.6l-1.3,0.7c-0.3-1.3-0.5-1.8-1.1-3l1.6-0.8
		c0.4,0.9,0.5,1.1,0.8,1.8v-2c0-0.7,0-1-0.1-1.4h2.2c-0.1,0.5-0.1,0.7-0.1,1.4v9.2c1.7-1.2,2.5-2.9,2.8-5.5h-1c-0.6,0-1.1,0-1.5,0.1
		v-2c0.4,0.1,0.9,0.1,1.5,0.1h1.1c0-0.8,0-1.5,0-2.1c0-0.7,0-0.9-0.1-1.3H44c0,0.3,0,0.3-0.1,1l1.5-0.8c0.7,0.8,1,1.3,1.5,2.3
		l-1.5,0.8h0.2c0.7,0,1.1,0,1.5-0.1v2c-0.5-0.1-0.9-0.1-1.5-0.1h-1.5c0.2,1.2,0.7,2.4,1.3,3.4c0.5,0.9,1.1,1.5,2,2
		c-0.5,0.6-0.9,1.1-1.3,2c-0.9-0.7-1.4-1.3-2-2.2c-0.5-0.8-0.8-1.4-1-2.3c-0.6,1.9-1.5,3.2-3,4.4c-0.4-0.7-0.8-1.1-1.2-1.6V177.3z
		 M45.2,169.5c-0.4-0.9-0.6-1.3-1.3-2.3c0,0.2,0,0.2,0,1c0,0,0,0.3,0,0.6c0,0.1,0,0.3,0,0.6H45.2z"/>
	<path class="st2" d="M49.1,169.4c1.1,0.6,1.6,0.9,2.5,1.6l-1.2,1.7c-1-0.8-1.5-1.2-2.5-1.8L49.1,169.4z M55.4,172.4
		c0,0.1,0,0.1,0,0.3c-0.1,1.6-0.4,2.9-1.1,3.9c-0.5,0.8-1.3,1.4-2.6,2.1c-0.4-0.7-0.7-1.1-1.2-1.7c-0.3,0.6-0.3,0.8-0.8,1.6
		l-1.8-1.5c0.3-0.3,0.5-0.7,0.8-1.4c0.4-0.8,0.6-1.4,0.9-2.7l1.7,1.2c-0.4,1.4-0.6,1.9-0.9,2.7c0.8-0.4,1.4-0.8,1.8-1.3
		c0.7-0.8,0.9-1.6,1-3.2h-0.2c-0.4,0-0.7,0-1.1,0.1c0-0.5,0-0.5,0-1.2v-3.4c0-0.6,0-0.7,0-1.2c0.4,0,0.6,0.1,1.3,0.1h5.3
		c0.7,0,1,0,1.4-0.1c0,0.3-0.1,0.6-0.1,1.3v3.4c0,0.7,0,0.9,0.1,1.2c-0.4,0-0.7-0.1-1.2-0.1H58v4.1c0,0.2,0.1,0.2,0.3,0.2
		c0.3,0,0.3,0,0.4-0.2c0.1-0.1,0.1-1,0.1-2.4c0.6,0.4,1.1,0.5,1.9,0.7c-0.1,1.9-0.1,2.6-0.3,3c-0.1,0.3-0.4,0.5-0.7,0.6
		c-0.3,0.1-0.7,0.1-1.4,0.1c-1.8,0-2.2-0.2-2.2-1.2v-5H55.4z M49.6,166.1c1,0.6,1.5,0.9,2.5,1.7l-1.3,1.6c-0.9-0.8-1.5-1.3-2.4-1.9
		L49.6,166.1z M54.2,170.5h3.7v-1.9h-3.7V170.5z"/>
	<path class="st2" d="M67.5,174.8c-0.8,1.7-1.7,2.5-2.9,2.5c-1.8,0-3-1.7-3-4.2c0-1.6,0.5-3,1.5-4.1c1.2-1.3,2.9-2,4.8-2
		c1.8,0,3.4,0.6,4.4,1.6c0.9,0.9,1.3,2.2,1.3,3.7c0,1.7-0.7,3.3-1.8,4.3c-0.9,0.8-2,1.2-3.8,1.5c-0.3-1-0.6-1.4-1.1-2.2
		c1.3-0.1,2.1-0.3,2.8-0.7c1-0.5,1.6-1.7,1.6-3.1c0-1.1-0.4-2-1.2-2.6c-0.3-0.3-0.6-0.4-1.1-0.5C68.7,171.5,68.2,173.2,67.5,174.8z
		 M65.2,169.9c-0.9,0.7-1.5,2-1.5,3.2c0,0.9,0.4,1.7,0.8,1.7c0.3,0,0.7-0.5,1.1-1.5c0.5-1.2,0.9-2.8,1-4.1
		C66.1,169.3,65.7,169.5,65.2,169.9z"/>
	<path class="st2" d="M80.4,171.4c-1.2,0-2,0-2.9,0.1c0.1-1,0.1-2.1,0.1-2.9V163c0-1.2,0-2-0.1-2.9c0.8,0.1,1.3,0.1,2.9,0.1h5.4
		v-1.1h-6.6c-1.4,0-2.5,0.1-3.8,0.2v-4c1.2,0.1,2.3,0.2,3.8,0.2h16.9c1.4,0,2.5-0.1,3.7-0.2v4c-1.3-0.1-2.5-0.2-3.7-0.2h-6.3v1.1
		h5.2c1.7,0,2.1,0,2.9-0.1c-0.1,1-0.1,1.9-0.1,2.9v5.6c0,1,0,1.8,0.1,2.8c-0.8-0.1-1.7-0.1-2.9-0.1h-5.7c-0.3,1.4-0.7,2.3-1.4,3.3
		c2.4,0.8,5,1.2,8.3,1.2c1.3,0,2.2,0,4.1-0.2c-0.8,1.8-1,2.5-1.3,4.1c-0.4,0-0.7,0-0.9,0c-5.5,0-9.5-0.7-13-2.4
		c-2.4,1.6-4.5,2.3-8.4,2.7c-0.4-1.4-0.9-2.4-1.6-3.8c3-0.1,4.6-0.4,6.4-1.3c-0.8-0.7-1.2-1.1-1.9-1.9c0,0-0.1-0.1-0.5-0.5l2.9-1.4
		H80.4z M81.5,163.3v1.1h4.2l0-1.1H81.5z M81.5,167.2v1.2h4.1c0-0.6,0-0.6,0.1-1.2H81.5z M82.8,171.4c0.5,0.6,0.9,1,1.6,1.5
		c0.4-0.6,0.5-0.9,0.7-1.5H82.8z M89.7,167.2c0,0.8,0,0.8-0.1,1.2h4.1v-1.2H89.7z M89.7,164.4h4v-1.1h-4V164.4z"/>
	<path class="st2" d="M110.8,167.5h1.2c1.4,0,2,0,2.7-0.1v3.9c-0.8-0.1-1.4-0.1-2.6-0.1c0.6,0.6,1.2,1.1,2.1,1.7
		c-0.8,1.4-1.2,2.4-1.6,3.6c-0.9-0.8-1.2-1.2-1.8-2c0,1,0.1,1.4,0.1,1.8v1.6c0,1,0,1.6,0.1,2.2h-4.2c0.1-0.6,0.1-1.1,0.1-2v-1.3
		c0-0.4,0-0.8,0.1-1.5c-1.2,1.7-2,2.5-3.8,3.9c-0.4-1.5-0.8-2.6-1.6-4c0.8-0.4,1.6-1,2.7-2.1c0.6-0.5,1-1,1.6-1.8h-1.2
		c-1.3,0-1.9,0-2.7,0.1v-3.9c0.8,0.1,1.3,0.1,2.8,0.1h2.2v-1.2h-2.2c-1.2,0-1.9,0-2.7,0.1v-4c0.7,0.1,1.2,0.1,2.5,0.1
		c-0.1-0.8-0.3-1.5-0.6-2.2c-0.6,0-0.8,0-1.4,0.1v-3.9c0.7,0.1,1.4,0.1,2.8,0.1h1.5c0-1,0-1.2-0.1-1.9h4.5c-0.1,0.6-0.1,0.9-0.1,1.9
		h1.1c1.4,0,2,0,2.7-0.1v3.9c-0.5-0.1-0.6-0.1-1.1-0.1c-0.1,0.5-0.5,1.8-0.6,2.2c0.8,0,1.2-0.1,1.8-0.1v4c-0.8-0.1-1.5-0.1-2.7-0.1
		h-1.3V167.5z M109.3,162.6c0.3-0.8,0.4-1.4,0.6-2.2h-2.2c0.3,0.8,0.4,1.1,0.6,2.2H109.3z M124.7,162.7c1.1,0,1.9-0.1,2.4-0.2v4.1
		c-0.6-0.1-1-0.1-2-0.1h-0.3v9.9c0,1.9,0,2.6,0.2,3.6h-4.3c0.1-1,0.2-1.8,0.2-3.6v-9.9h-1.5c-0.1,3.7-0.3,5.4-0.7,7.7
		c-0.5,2.4-1.2,4-2.5,6c-1.6-1.2-2.2-1.6-3.8-2.4c1.2-1.6,1.9-2.9,2.4-4.8c0.5-1.8,0.7-5.6,0.7-13.1c0-1.2-0.1-2.2-0.2-3.1
		c2.6-0.2,4.5-0.6,6.8-1.3c1-0.3,1.7-0.6,2.1-0.9l3,3.7c-0.5,0.1-0.5,0.1-1,0.3c-1.6,0.5-3.7,1-6.8,1.4v2.6H124.7z"/>
	<path class="st2" d="M139.6,166.8l-4.8,13h-2.4l4.8-13H139.6z"/>
	<path class="st2" d="M148.4,168.1c0-0.3,0-0.4,0-0.6c-0.2,0.7-0.4,1.1-0.7,1.7v8c0,0.6,0,0.9,0.1,1.5h-2.1c0.1-0.6,0.1-0.9,0.1-1.5
		v-3.5c0-0.1,0-0.8,0-1.4c-0.1,0.1-0.1,0.2-0.2,0.3c-0.2,0.3-0.3,0.4-0.5,0.6c-0.2-1-0.3-1.5-0.7-2.4c0.8-0.8,1.3-1.7,1.8-3.1
		c0.3-0.7,0.4-1.3,0.5-1.8l1.7,0.6v0c0.5,0.1,1,0.1,1.8,0.1h4.9c1.1,0,1.4,0,1.9-0.1c0,0.5-0.1,0.9-0.1,1.8v8.4c0,1,0,1.4,0.1,1.9
		h-1.9v-0.5h-4.7v0.5h-1.9c0.1-0.5,0.1-0.9,0.1-1.7V168.1z M150.2,176.3h4.7v-7.9h-4.7V176.3z M153.7,171.7c0.3,0,0.5,0,0.7,0
		c0,0.2,0,0.3,0,0.8v2.6c0,0.5,0,0.6,0,0.8c0,0-0.1,0-0.1,0c-0.1,0-0.3,0-0.7,0h-2.3c-0.3,0-0.5,0-0.7,0c0-0.2,0-0.3,0-0.8v-2.6
		c0-0.5,0-0.6,0-0.8c0.3,0,0.4,0,0.7,0h0.3v-0.6h-0.6c-0.2,0-0.4,0-0.6,0v-1.8c0.2,0,0.3,0.1,0.6,0.1h0.6v-0.1c0-0.2,0-0.4-0.1-0.6
		h1.9c0,0.2-0.1,0.3-0.1,0.6v0.1h0.6c0.3,0,0.4,0,0.6-0.1v1.8c-0.2,0-0.3,0-0.6,0h-0.6v0.6H153.7z M152.1,174.3h0.8v-1h-0.8V174.3z"
		/>
	<path class="st2" d="M165.4,166.4c-0.1,0.2-0.1,0.6-0.1,1.1c0,1.4,0.2,3,0.5,3.9c0.5,1.4,1.4,2.7,2.5,3.7c0.7,0.7,1.3,1,2.3,1.5
		c-0.6,0.7-0.9,1.1-1.4,2.1c-1.5-0.9-2.4-1.7-3.3-2.8c-0.8-1-1.3-1.9-1.8-3.3c-0.6,1.8-1.1,2.8-2.2,3.8c-0.8,0.9-1.7,1.6-2.9,2.2
		c-0.4-0.9-0.6-1.2-1.4-2c2-1,3.1-2,3.9-3.4c0.8-1.5,1.3-3.5,1.3-5.9c0-0.4,0-0.7-0.1-1H165.4z"/>
	<path class="st2" d="M179.2,175.3c-0.4-1.4-0.8-2.4-1.4-3.4c-0.1,0.1-0.1,0.1-0.2,0.2c-0.3-0.3-0.4-0.5-0.6-0.7v5.1
		c0,0.4,0,0.8,0,1.3H175v-0.7h-1.2v1.2h-2c0.1-0.4,0.1-1,0.1-1.8v-7.1c0-0.8,0-1.1-0.1-1.5c0.4,0,0.5,0,1.1,0h0.3
		c0.3-0.7,0.4-1.1,0.6-1.9l2.1,0.3c-0.4,0.9-0.4,0.9-0.7,1.6h0.6c0.5,0,0.8,0,1.1,0c0,0.1,0,0.1,0,0.4c0,0,0,0.3,0,0.7v0.7
		c0.5-0.7,1.1-1.8,1.4-2.8c0.1-0.3,0.2-0.6,0.2-0.9l2.1,0.3c-0.1,0.1-0.2,0.4-0.2,0.7c-0.1,0.4-0.1,0.5-0.3,0.8h2.5
		c0.6,0,0.9,0,1.1-0.1c-0.1,0.4-0.1,0.5-0.1,0.9c0,0.5,0,0.8-0.1,4.2c0,1.5-0.2,3.1-0.3,3.9c-0.2,1-0.5,1.4-1,1.6
		c-0.4,0.2-1.1,0.3-2,0.3c-0.3,0-0.5,0-1,0c-0.1-0.8-0.2-1.3-0.5-2.1c0.8,0.1,1.2,0.1,1.6,0.1c0.6,0,0.8-0.1,1-0.5
		c0.2-0.7,0.3-2.5,0.4-6.4h-2.4c-0.5,0.9-0.9,1.5-1.4,2l1.7-0.7c0.7,1.1,1.1,2.1,1.6,3.3L179.2,175.3z M173.8,171.6h1.3v-1.8h-1.3
		V171.6z M173.8,175.3h1.3v-2h-1.3V175.3z"/>
	<path class="st2" d="M188.7,166.9c-0.5,1.5-0.9,4-1,6.5l1,0.3c-0.3,1.2-0.5,2.4-0.5,3.7c0,0.3,0,0.4,0,0.7l-2.3,0.1
		c0-0.3,0-0.4-0.1-0.7c-0.3-1.8-0.3-3-0.3-4.2c0-1.5,0.2-3.2,0.5-5.1c0.2-0.9,0.2-1,0.2-1.4L188.7,166.9z M192.4,172.7
		c-0.6,0.8-0.9,1.4-0.9,1.8c0,0.6,0.6,0.9,1.7,0.9c1.2,0,2.3-0.2,3.3-0.5l0.1,2.4c-0.3,0-0.3,0-1.1,0.2c-0.7,0.1-1.6,0.2-2.3,0.2
		c-1.2,0-2.1-0.2-2.8-0.6c-0.7-0.4-1.2-1.3-1.2-2.1c0-0.7,0.2-1.4,0.6-2.1c0.2-0.3,0.3-0.4,0.6-1L192.4,172.7z M189.8,167.9
		c0.6,0.1,1.3,0.2,2.4,0.2c1.8,0,3.1-0.1,4-0.3l0.1,2.3c-0.1,0-0.3,0-1,0.1c-0.9,0.1-1.9,0.1-2.8,0.1c-0.8,0-1.5,0-2.3-0.1
		c-0.1,0-0.2,0-0.4,0L189.8,167.9z"/>
	<path class="st2" d="M203.1,176.4c0,0.3,0.2,0.3,1.3,0.3c1.1,0,1.3-0.1,1.5-0.5c0.1-0.4,0.2-1.1,0.2-2.3c0.8,0.4,1.2,0.5,2,0.7
		c-0.2,2.4-0.4,3.2-1.1,3.6c-0.4,0.3-1.3,0.4-2.8,0.4c-2.3,0-2.8-0.3-3-1.3c-0.7,0.5-1.1,0.7-2,1.3c-0.4-0.8-0.7-1.2-1.4-1.8
		c1.3-0.6,2.4-1.2,3.4-1.9v-4.2c0-0.6,0-0.9-0.1-1.5h2.2c0,0.5-0.1,0.9-0.1,1.4v2.5c1.1-1.2,2.2-2.7,3-4.3c0.4-0.8,0.7-1.5,0.8-2
		l2.1,0.8c-0.2,0.4-0.2,0.4-0.6,1.2c-0.5,1-0.8,1.5-1.3,2.3l1.6-0.7c0.8,1.7,1.3,3.1,1.9,5.2l-2,1c-0.5-2.1-1-3.7-1.7-5.2
		c-1.2,1.8-2.2,3-3.8,4.3V176.4z M200.6,170.5c-0.2,2.3-0.5,3.6-1.1,5.1l-1.8-0.9c0.5-1.3,0.8-2.6,1-4.6L200.6,170.5z M202.1,166
		c1.7,0.6,2.6,1,3.8,1.7l-1.2,1.8c-0.9-0.7-2.1-1.2-3.9-2L202.1,166z"/>
	<path class="st2" d="M215.4,173c0.1-0.2,0.2-0.3,0.3-0.5h-1.8c-0.7,0-1.1,0-1.6,0.1c0-0.4,0.1-0.8,0.1-1.4v-0.8
		c0-0.7,0-1.1-0.1-1.5c0.4,0,0.9,0.1,1.5,0.1h1.4v-0.5h-2.1c-0.6,0-1.1,0-1.6,0.1v-1.9c0.5,0.1,1,0.1,1.8,0.1h8.5
		c0.8,0,1.4,0,1.8-0.1v1.9c-0.5,0-1-0.1-1.6-0.1h-2.2v0.5h1.4c0.7,0,1.1,0,1.6-0.1c0,0.4-0.1,0.7-0.1,1.5v0.8c0,0.7,0,1.1,0,1.5
		c-0.3,0-0.8-0.1-1.5-0.1h-3.4c-0.1,0.1-0.1,0.3-0.2,0.3c0,0.1,0,0.1-0.1,0.2h4.4c0.8,0,1.2,0,1.6-0.1v1.8c-0.5-0.1-0.9-0.1-1.6-0.1
		h-0.9c-0.3,0.6-0.5,1-0.9,1.5c1.3,0.4,1.8,0.6,3.1,1.1l-1.2,1.7c-1.6-0.8-2.1-0.9-3.5-1.4c-1.6,0.8-3.3,1.2-6.2,1.3
		c-0.2-0.7-0.4-1.1-0.8-1.8c0.5,0,0.7,0,0.9,0c1.4,0,2.5-0.1,3.4-0.4c-1.4-0.4-1.8-0.4-3-0.7c0.6-0.6,0.8-0.8,1.2-1.2h-1
		c-0.7,0-1.1,0-1.6,0.1v-1.8c0.4,0.1,0.8,0.1,1.6,0.1H215.4z M214.3,170.2v0.9h0.9v-0.9H214.3z M216.4,174.6
		c-0.1,0.1-0.2,0.2-0.3,0.4c1.6,0.3,1.6,0.3,2,0.5c0.3-0.3,0.5-0.5,0.7-0.9H216.4z M217.1,168.8h0.9v-0.5h-0.9V168.8z M217.1,171.1
		h0.9v-0.9h-0.9V171.1z M219.9,171.1h0.9v-0.9h-0.9V171.1z"/>
	<path class="st2" d="M230.2,166.5c-0.1,0.2-0.1,0.2-0.3,1.1c-0.1,0.3-0.1,0.4-0.2,0.7c0.9-0.1,1.4-0.2,1.9-0.3l0,2.2
		c-0.3,0-0.3,0-1,0.1c-0.4,0-1.1,0.1-1.4,0.1c-0.5,1.6-0.8,2.5-1.5,3.9c-0.3,0.6-0.4,0.9-0.9,1.9c-0.2,0.3-0.2,0.3-0.3,0.5l-2.2-1.2
		c0.9-1.3,1.9-3.2,2.5-5.1c-0.3,0-0.3,0-0.7,0c-0.3,0-0.3,0-0.6,0c-0.1,0-0.1,0-0.5,0v-2.1c0.5,0.1,1.1,0.1,2,0.1c0.1,0,0.2,0,0.5,0
		c0-0.1,0-0.1,0.1-0.6s0.2-1.1,0.2-1.6L230.2,166.5z M236,177.7c-0.5-0.6-1-1-1.7-1.5c0,0.6-0.2,1-0.6,1.4c-0.5,0.5-1.5,0.8-2.5,0.8
		s-2-0.3-2.5-0.9c-0.4-0.5-0.7-1-0.7-1.7c0-1.6,1.3-2.6,3.2-2.6c0.3,0,0.5,0,0.9,0.1c0-0.5-0.1-0.8-0.1-1.1c0-0.5,0-1,0.1-1.6
		l2.2,0.1c-0.1,0.5-0.1,0.9-0.1,1.5c0,0.5,0,0.9,0.1,1.6c0.8,0.4,1.4,0.7,2.1,1.2c0,0,0.3,0.2,0.7,0.5L236,177.7z M231.2,175.2
		c-0.6,0-1,0.3-1,0.7c0,0.4,0.4,0.6,0.9,0.6c0.7,0,1-0.3,1-0.9c0-0.1,0-0.3,0-0.3C231.8,175.3,231.5,175.2,231.2,175.2z
		 M236.1,171.5c-1.3-0.8-2.6-1.4-4.2-1.9l1.1-1.8c1.7,0.6,2.8,1.1,4,1.8L236.1,171.5z"/>
	<path class="st2" d="M249.9,168.4c-0.2,0.2-0.2,0.3-0.4,0.7c-0.9,2-2,3.4-3.7,4.4c-0.5-0.6-0.9-1-1.5-1.5c-0.1,1.4-0.3,2.4-0.8,3.2
		c-0.5,0.9-1.2,1.6-2.1,2.3c-0.5,0.4-1,0.6-1.9,1c-0.5-1.1-0.7-1.4-1.5-2.2c1.5-0.5,2.4-1.1,3.1-1.9c0.6-0.8,0.9-1.8,0.9-3.6
		c0-0.4,0-0.6-0.1-0.9h2.5c0,0.3-0.1,0.4-0.1,1.2c0,0,0,0.3,0,0.5c0.1-0.1,0.1-0.1,0.3-0.2c1-0.5,1.8-1.3,2.2-2.3h-6.4
		c-1,0-1.5,0-2.1,0.1V167c0.6,0.1,1.1,0.1,2.2,0.1h7c0.7,0,0.8,0,1.1-0.1L249.9,168.4z"/>
	<path class="st2" d="M261.5,167.9c-0.3,0.3-0.3,0.3-0.5,0.5c-1.1,1.1-2,1.9-3.1,2.7v5.1c0,1.1,0,1.4,0.1,2.2h-2.6
		c0.1-0.7,0.1-1,0.1-2.2v-3.7c-1.4,0.8-2.5,1.3-4.4,2c-0.4-0.9-0.6-1.3-1.3-2.2c2.9-0.8,4.9-1.8,7.1-3.5c1.1-0.9,2-1.8,2.4-2.4
		L261.5,167.9z"/>
	<path class="st2" d="M269.7,172.5c-0.1,1.6-0.4,2.4-1,3.4c-0.7,1.2-1.7,2-3.6,2.7c-0.5-1-0.8-1.4-1.6-2.1c2.4-0.7,3.5-1.9,3.6-4
		h-2.7c-1.1,0-1.5,0-2,0.1v-2.2c0.6,0.1,0.9,0.1,2.1,0.1h7.4c1.2,0,1.5,0,2.1-0.1v2.2c-0.8-0.1-0.9-0.1-2.1-0.1H269.7z M263.8,166.8
		c0.6,0.1,0.9,0.1,2.1,0.1h4.7c1.2,0,1.6,0,2.1-0.1v2.3c-0.5-0.1-0.7-0.1-2.1-0.1h-4.8c-1.2,0-1.5,0-2,0.1V166.8z"/>
	<path class="st2" d="M281.2,167c-0.1,0.3-0.2,0.4-0.3,1c-1,3.5-1.6,5.2-2.5,7.4c1.7-0.1,3.3-0.3,4.6-0.5c-0.5-1.1-1.1-2.3-1.7-3.2
		l2.1-0.8c1.4,2.1,2.3,4,3.2,6.4l-2.3,1.2c-0.2-0.6-0.2-0.7-0.5-1.5c-1.9,0.3-3.3,0.5-5.3,0.7l-3.1,0.3c-0.3,0-0.4,0.1-0.7,0.1
		l-0.3-2.5c0.3,0,0.4,0,0.4,0c0.1,0,0.2,0,0.3,0l0.4,0c0.2,0,0.2,0,0.3,0c0.9-2.2,1.6-4.2,2.2-6.6c0.4-1.3,0.5-1.8,0.5-2.4
		L281.2,167z"/>
	<path class="st2" d="M293.3,174.8c-0.8,1.7-1.7,2.5-2.9,2.5c-1.8,0-3-1.7-3-4.2c0-1.6,0.5-3,1.5-4.1c1.2-1.3,2.9-2,4.8-2
		c1.8,0,3.4,0.6,4.4,1.6c0.9,0.9,1.3,2.2,1.3,3.7c0,1.7-0.7,3.3-1.8,4.3c-0.9,0.8-2,1.2-3.8,1.5c-0.3-1-0.6-1.4-1.1-2.2
		c1.3-0.1,2.1-0.3,2.8-0.7c1-0.5,1.6-1.7,1.6-3.1c0-1.1-0.4-2-1.2-2.6c-0.3-0.3-0.6-0.4-1.1-0.5C294.5,171.5,294,173.2,293.3,174.8z
		 M291,169.9c-0.9,0.7-1.5,2-1.5,3.2c0,0.9,0.4,1.7,0.8,1.7c0.3,0,0.7-0.5,1.1-1.5c0.5-1.2,0.9-2.8,1-4.1
		C291.9,169.3,291.5,169.5,291,169.9z"/>
	<path class="st2" d="M301,164.6c0.8,0.1,1.2,0.1,2.2,0.1h2.7c0.9,0,1.4,0,2.1-0.1c-0.1,0.8-0.1,1.4-0.1,3v5.9
		c0.5,0.8,1,1.3,1.8,1.6c1,0.4,2.4,0.5,5.8,0.5c4.8,0,8.3-0.1,10.9-0.4c-0.6,1.7-0.8,2.5-1,4.1c-2.4,0.1-4,0.1-5.7,0.1
		c-7,0-8.6-0.1-10.2-0.6c-1.4-0.4-2.4-1-3.5-2.2c-1.4,1.3-2.1,1.9-3.8,3.1l-1.7-4.3c0.8-0.3,2.1-1.1,3.5-2.1v-5h-1.2
		c-0.6,0-1,0-1.7,0.1V164.6z M303.8,154.9c2.2,2,3.2,3,4.9,5l-3.2,3.1c-1.7-2.3-2.8-3.5-4.8-5.3L303.8,154.9z M313.6,157
		c0.6-0.9,0.9-1.6,1.3-2.5l4.4,0.5c-0.5,0.8-0.8,1.3-1.2,2h4.2c0.9,0,1.4,0,2-0.1c-0.1,0.6-0.1,1.2-0.1,1.9v4.1c0,1,0,1.7,0.1,2.2
		c-0.8-0.1-1.1-0.1-1.7-0.1h-9.2v1.1h9.7c0.9,0,1.3,0,1.8-0.1c-0.1,0.6-0.1,1.2-0.1,2v4.7c0,0.7,0,1.4,0.1,1.9
		c-0.6-0.1-1.1-0.1-1.8-0.1h-12c-0.7,0-1.3,0-1.8,0.1c0.1-0.6,0.1-1.2,0.1-1.9v-13.9c0-0.7-0.1-1.3-0.1-1.9c0.7,0.1,1.3,0.1,2.1,0.1
		H313.6z M313.4,161.8h6.8v-1.4h-6.8V161.8z M313.4,171.1h7.5v-1.5h-7.5V171.1z"/>
	<path class="st2" d="M337.6,159.1c1.5,0,2.3,0,3.2-0.1c-0.1,0.9-0.1,1.3-0.1,2.7c-0.1,16.1-0.6,17.8-4.9,17.8c-0.6,0-1.3,0-2.2-0.1
		c-0.1-1.6-0.2-2.4-0.7-4c0.9,0.2,1.6,0.3,2,0.3c0.8,0,1-0.2,1.2-1.9c0.4-2.5,0.5-5,0.5-10.8h-1.4c-0.3,4.5-0.7,7-1.6,10
		c-0.8,2.6-1.8,4.7-3.5,7.2c-1-1.8-1.8-2.8-3-4c1.3-1.7,2.2-3.5,2.9-5.4c0.7-2,1-4.2,1.3-7.8h-0.9c-1.2,0-1.7,0-2.6,0.1v-4.1
		c0.7,0.1,1.5,0.1,2.9,0.1h0.7c0-0.7,0-1,0-1.4c0-1.3-0.1-2-0.1-2.8h4.3c-0.1,0.7-0.1,1.1-0.1,2.7c0,0.6,0,0.9-0.1,1.5H337.6z
		 M345.6,179.5h-4.1c0.1-0.8,0.2-1.8,0.2-3.1v-16.5c0-1.2,0-1.9-0.1-2.8c0.8,0.1,1.4,0.1,2.5,0.1h5.6c1.2,0,1.8,0,2.5-0.1
		c-0.1,0.9-0.1,1.6-0.1,2.8v16.3c0,1.6,0,2.5,0.2,3.3H348v-1.9h-2.4V179.5z M345.6,173.8h2.4V161h-2.4V173.8z"/>
</g>
</svg>
