<?xml version="1.0" encoding="utf-8"?>
<!-- Generator: Adobe Illustrator 24.0.1, SVG Export Plug-In . SVG Version: 6.00 Build 0)  -->
<svg version="1.1" id="レイヤー_1" xmlns="http://www.w3.org/2000/svg" xmlns:xlink="http://www.w3.org/1999/xlink" x="0px"
	 y="0px" viewBox="0 0 522.3 208.8" style="enable-background:new 0 0 522.3 208.8;" xml:space="preserve">
<style type="text/css">
	.st0{fill:url(#SVGID_1_);}
	.st1{opacity:0.28;clip-path:url(#SVGID_3_);}
	.st2{fill:#FFFFFF;}
	.st3{fill:#040000;}
	.st4{fill:#133C36;}
	.st5{enable-background:new    ;}
	.st6{fill:#FFE501;}
	.st7{fill:#E60000;}
	.st8{fill:#1E1D1D;}
	.st9{fill:none;stroke:#FFFFFF;stroke-width:2;stroke-miterlimit:10;}
	.st10{fill:#481D1A;}
	.st11{fill:#FEE9DB;}
	.st12{fill:none;}
	.st13{fill:#4CC2FF;}
	.st14{fill:none;stroke:#FFFFFF;stroke-width:1.1361;stroke-miterlimit:10;}
</style>
<g id="レイヤー_2_1_">
	
		<linearGradient id="SVGID_1_" gradientUnits="userSpaceOnUse" x1="261.15" y1="3182.0759" x2="261.15" y2="2973.2759" gradientTransform="matrix(1 0 0 1 0 -2973.2759)">
		<stop  offset="0" style="stop-color:#FFEC00"/>
		<stop  offset="0.9879" style="stop-color:#FFCE52"/>
	</linearGradient>
	<rect y="0" class="st0" width="522.3" height="208.8"/>
	<g>
		<g>
			<g>
				<g>
					<g>
						<defs>
							<rect id="SVGID_2_" y="0" width="522.3" height="208.8"/>
						</defs>
						<clipPath id="SVGID_3_">
							<use xlink:href="#SVGID_2_"  style="overflow:visible;"/>
						</clipPath>
						<g class="st1">
							<polygon class="st2" points="-25.3,165.6 -58.1,165.6 -5.9,43.2 27,43.2 							"/>
							<polygon class="st2" points="29.2,165.6 -3.6,165.6 48.6,43.2 81.4,43.2 							"/>
							<polygon class="st2" points="83.7,165.6 50.9,165.6 103.1,43.2 135.9,43.2 							"/>
							<polygon class="st2" points="138.2,165.6 105.3,165.6 157.6,43.2 190.4,43.2 							"/>
							<polygon class="st2" points="192.7,165.6 159.8,165.6 212.1,43.2 244.9,43.2 							"/>
							<polygon class="st2" points="247.2,165.6 214.3,165.6 266.6,43.2 299.4,43.2 							"/>
							<polygon class="st2" points="301.7,165.6 268.8,165.6 321,43.2 353.9,43.2 							"/>
							<polygon class="st2" points="356.2,165.6 323.3,165.6 375.5,43.2 408.4,43.2 							"/>
							<polygon class="st2" points="410.7,165.6 377.8,165.6 430,43.2 462.9,43.2 							"/>
							<polygon class="st2" points="465.2,165.6 432.3,165.6 484.5,43.2 517.4,43.2 							"/>
							<polygon class="st2" points="519.6,165.6 486.8,165.6 539,43.2 571.9,43.2 							"/>
						</g>
					</g>
				</g>
			</g>
		</g>
	</g>
</g>
<g>
	<path class="st3" d="M455.5-0.7L445.8,9h10.6l16.2-16h-10.7l-6.3,6.2L455.5-0.7L455.5-0.7z M506.3-0.7L496.5,9H507l16.2-16h-10.7
		l-6.3,6.2L506.3-0.7L506.3-0.7z M487.3-7L471,9h10.7L498-7H487.3z M436.5-7L420.3,9H431l16.2-16H436.5z M151.2-0.7L141.4,9H152
		l16.2-16h-10.7l-6.3,6.2V-0.7z M132.2-7L116,9h10.7l16.2-16H132.2z M201.9-0.7L192.1,9h10.6l16.2-16h-10.7l-6.3,6.2L201.9-0.7
		L201.9-0.7z M182.9-7L166.7,9h10.7l16.2-16H182.9z M100.5-0.7L90.6,9h10.6l16.2-16h-10.7l-6.3,6.2v0.1
		C100.4-0.7,100.5-0.7,100.5-0.7z M49.7-0.7L39.9,9h10.6L66.7-7H56l-6.3,6.2V-0.7z M81.5-7L65.2,9h10.7L92.2-7H81.5z M335.1-7
		L318.9,9h10.7l16.2-16H335.1z M354.1-0.7L344.4,9H355l16.2-16h-10.7l-6.3,6.2L354.1-0.7L354.1-0.7z M404.8-0.7L395,9h10.6l16.2-16
		h-10.7l-6.3,6.2L404.8-0.7L404.8-0.7z M385.8-7L369.6,9h10.7l16.2-16H385.8z M233.6-7L217.4,9h10.7l16.2-16H233.6z M252.6-0.7
		L242.8,9h10.6l16.2-16h-10.7l-6.3,6.2L252.6-0.7L252.6-0.7z M303.4-0.7L293.6,9h10.6l16.2-16h-10.7l-6.3,6.2L303.4-0.7L303.4-0.7z
		 M284.4-7L268.2,9h10.7l16.2-16H284.4z M-1-0.8V9h0.8L16-7H5.3L-1-0.8z M30.7-7L14.5,9h10.7L41.4-7H30.7z"/>
</g>
<g>
	<path class="st4" d="M75.1,104H29.2c-3.5,0-6.6-1.8-8.3-4.8s-1.7-6.6,0-9.6l23-39.8c1.7-3,4.9-4.8,8.3-4.8s6.6,1.8,8.3,4.8l23,39.8
		c1.7,3,1.7,6.6,0,9.6C81.8,102.3,78.6,104,75.1,104z"/>
	<g>
		<g>
			<g class="st5">
				<path d="M105.3,48.4c0.2,0.9,0.7,1.3,1.9,1.3c1.1,0,1.7-0.4,1.7-1.1c0-0.2-0.1-0.6-0.4-0.7c-0.2-0.2-0.4-0.2-1.5-0.5
					c-1.2-0.2-1.5-0.4-2.1-0.6c-0.8-0.4-1.2-1.1-1.2-1.9c0-0.5,0.2-0.9,0.5-1.3c0.6-0.7,1.5-1.2,2.8-1.2c1.2,0,2.1,0.2,2.6,0.8
					c0.4,0.4,0.6,0.7,0.7,1.4l-1.9,0.2c-0.2-0.7-0.7-1.2-1.5-1.2s-1.5,0.4-1.5,0.9c0,0.2,0.2,0.5,0.5,0.7c0.2,0.2,0.6,0.2,1.4,0.4
					c1.4,0.2,2,0.5,2.5,0.8c0.6,0.4,0.8,0.9,0.8,1.8c0,0.6-0.2,1.2-0.7,1.6c-0.7,0.6-1.6,0.9-2.9,0.9c-1.4,0-2.6-0.5-3.1-1.2
					c-0.2-0.4-0.4-0.7-0.6-1.2L105.3,48.4z"/>
				<path d="M117.5,50.1c-0.6,0.6-0.9,0.7-1.5,0.8c-0.4,0.1-0.8,0.2-1.3,0.2c-1.7,0-2.7-0.8-2.7-2.4c0-0.9,0.7-1.9,1.6-2.2
					c0.9-0.3,2-0.6,4-0.6v-0.7c0-0.8-0.6-1.2-1.6-1.2c-0.6,0-1.2,0.2-1.5,0.4c-0.2,0.2-0.4,0.4-0.6,0.9l-1.8-0.2
					c0.2-0.8,0.6-1.2,1.2-1.6c0.7-0.5,1.5-0.7,2.7-0.7c1.3,0,2.1,0.2,2.8,0.8c0.5,0.5,0.7,0.9,0.7,2v3.8c0,0.7,0,1.2,0.1,1.8h-1.9
					L117.5,50.1L117.5,50.1z M117.5,47c-2.7,0.1-3.8,0.6-3.8,1.6c0,0.7,0.5,1.1,1.3,1.1c0.7,0,1.5-0.2,2-0.7
					c0.4-0.4,0.5-0.7,0.5-1.2V47z"/>
				<path d="M123.1,39.7c-0.1,0.6-0.1,1.1-0.1,1.9v4.6l2.1-2.1c0.7-0.7,0.8-0.9,1.2-1.2h2.6c-0.8,0.7-0.8,0.7-1.4,1.3l-2,1.9
					l2.4,3.3c0.9,1.3,0.9,1.3,1.3,1.6h-2.6c-0.2-0.5-0.4-0.7-0.9-1.6l-1.5-2.2l-1.2,1.2v0.9c0,0.9,0,1.2,0.1,1.8H121
					c0.1-0.6,0.1-1.1,0.1-1.8v-7.5c0-0.8,0-1.3-0.1-1.9L123.1,39.7L123.1,39.7z"/>
				<path d="M137.9,42.8c-0.1,0.6-0.1,1.1-0.1,1.8V49c0,0.7,0,1.2,0.1,1.8H136v-0.7c0-0.2,0-0.2,0-0.6c-0.7,1.2-1.5,1.5-2.9,1.5
					c-0.7,0-1.2-0.1-1.7-0.4c-0.7-0.5-1.2-1.3-1.2-2.5v-3.5c0-0.7,0-1.3-0.1-1.8h2.1c-0.1,0.7-0.1,1.2-0.1,1.8v3.1
					c0,0.8,0.2,1.3,0.7,1.6c0.2,0.1,0.5,0.2,0.7,0.2c1.1,0,1.8-0.7,2.5-2.1v-2.8c0-0.7,0-1.2-0.1-1.8
					C136,42.8,137.9,42.8,137.9,42.8z"/>
				<path d="M141.6,47.5c0.1,0.7,0.1,0.9,0.4,1.2c0.4,0.6,1.2,0.8,2.1,0.8c1.4,0,2.2-0.7,2.2-1.7c0-0.6-0.2-1.1-0.7-1.3
					c-0.4-0.2-0.5-0.2-2.5-0.7c-1.1-0.2-1.6-0.5-2.1-0.8c-0.7-0.6-1.2-1.3-1.2-2.2c0-2,1.6-3.2,4-3.2c1.6,0,2.8,0.5,3.5,1.4
					c0.4,0.5,0.6,0.8,0.7,1.6l-2,0.2c-0.1-0.5-0.2-0.7-0.4-1.1c-0.4-0.5-0.9-0.7-1.8-0.7c-1.2,0-2.1,0.7-2.1,1.5
					c0,0.6,0.2,1.1,0.9,1.3c0.2,0.1,0.4,0.2,2,0.5c1.2,0.2,1.8,0.5,2.2,0.8c0.8,0.6,1.2,1.4,1.2,2.5s-0.2,1.8-0.8,2.4
					c-0.7,0.7-1.9,1.1-3.4,1.1c-1.2,0-2.2-0.2-2.9-0.7c-0.6-0.4-0.9-0.9-1.2-1.6c-0.1-0.2-0.2-0.6-0.2-1.2L141.6,47.5z"/>
				<path d="M157.8,50.9c-0.1-0.5-0.2-1.1-0.4-1.5l-0.6-1.4h-4.5l-0.6,1.5c-0.2,0.7-0.2,0.8-0.4,1.5h-2.4c0.2-0.4,0.5-1.1,0.7-1.7
					l3.1-8.1c0.2-0.7,0.4-1.1,0.5-1.4h2.5c0.1,0.4,0.2,0.6,0.5,1.4l3.1,8.1c0.4,0.9,0.6,1.3,0.7,1.7L157.8,50.9L157.8,50.9z
					 M155,42.2c-0.1-0.2-0.1-0.2-0.2-0.7c-0.2,0.7-0.2,0.7-0.2,0.7l-1.5,4.1h3.5L155,42.2z"/>
				<path d="M169.7,49.1c0.8,1.2,1.1,1.3,1.4,1.8h-2.6c-0.2-0.4-0.6-1.1-0.8-1.5l-2.8-4l-1.5,1.5V49c0,0.8,0,1.2,0.1,1.8h-2.1
					c0.1-0.7,0.1-1.1,0.1-1.8v-7.6c0-0.7,0-1.2-0.1-1.8h2.1c-0.1,0.5-0.1,1.1-0.1,1.8v3.3l3.5-3.8c0.6-0.6,0.8-0.9,1.2-1.4h2.6
					c-0.4,0.4-0.8,0.8-1.5,1.5l-3.1,3.1L169.7,49.1z"/>
				<path d="M182,39.7c-0.1,0.6-0.1,1.1-0.1,1.9v5c0,2.9-1.7,4.5-4.8,4.5c-1.6,0-2.8-0.5-3.7-1.3c-0.7-0.7-1.1-1.8-1.1-3.2v-5
					c0-0.8,0-1.4-0.1-2h2.1c-0.1,0.5-0.1,1.1-0.1,2v5c0,1.9,0.9,2.9,2.9,2.9c1.9,0,2.8-1.1,2.8-2.9v-5c0-0.9,0-1.4-0.1-2L182,39.7
					L182,39.7z"/>
			</g>
			<g class="st5">
				<path d="M116.2,75.9c-0.1,5.5-0.4,10.5-0.8,14c-0.6,4.6-1.5,7.3-3.5,10.6c-0.8-1.2-1.9-2.4-3.1-3.4c0,1.6,0.1,2.2,0.2,3.7h-4.9
					c0.2-1.8,0.2-2.9,0.2-5.1v-12c0-1.6,0-3.1,0.1-5.6c-0.8,1.8-1.7,3.1-2.9,4.6c-0.8-2.8-0.8-2.8-1.9-5.2c2.4-2.6,4.2-5.8,5.9-9.6
					c1.2-2.7,1.9-5.1,2.1-7.1l4.6,1.2c-0.2,0.7-0.5,1.3-0.7,2.2c-0.8,2.8-1.4,4.3-2.7,6.9V96c1.2-1.9,1.6-3.2,2.1-5.8
					c0.7-3.3,0.9-7.5,0.9-14.3c0-1.6,0-2.9-0.2-4.3c1.4,0.2,2.4,0.2,4.5,0.2h19.2c2.4,0,3.4,0,4.7-0.2V76c-1.2-0.1-2.6-0.2-4.1-0.2
					L116.2,75.9L116.2,75.9z M118.1,63.8c0-1.3,0-1.9-0.2-2.6h4.7c-0.1,0.7-0.2,1.4-0.2,2.6v0.9h5.9v-0.9c0-1.3,0-1.9-0.2-2.6h4.7
					c-0.1,0.7-0.2,1.4-0.2,2.6v0.9h2.7c1.8,0,3.5-0.1,4.3-0.2v4.4c-1.2-0.1-2.2-0.2-4.3-0.2h-2.7v0.5c0,1.1,0,1.5,0.1,2.1H128
					c0.1-0.7,0.1-1.3,0.1-2.1v-0.4h-5.9v0.4c0,1.1,0,1.5,0.1,2.1h-4.7c0.1-0.7,0.1-1.3,0.1-2.1v-0.5h-1.8c-2.2,0-3.1,0-4.2,0.2v-4.2
					c1.2,0.1,2.6,0.2,4.2,0.2h1.8V64C117.7,63.8,118.1,63.8,118.1,63.8z M121.2,93.5v2.6c0,2.8,0,3.7,0.2,4.6h-4.6
					c0.2-1.2,0.2-2.4,0.2-4.6V82.5c0-2.4,0-3.2-0.2-4.7c1.3,0.1,2.1,0.1,4.5,0.1h13c2.1,0,2.9,0,4.1-0.2c-0.1,0.9-0.2,2.2-0.2,4.6
					v14.6c0,2.8-0.9,3.5-4.9,3.5c-0.4,0-0.4,0-1.9,0c-0.2-1.7-0.4-2.4-0.8-3.8c0.9,0.1,1.9,0.2,2.6,0.2c0.7,0,0.9-0.2,0.9-0.9v-2.5
					h-4.7v2c0,2.5,0,3.7,0.2,4.7h-4.3c0.2-1.3,0.2-2.5,0.2-4.7v-2H121L121.2,93.5L121.2,93.5z M125.8,81.7h-4.6v2.4h4.6V81.7z
					 M125.8,87.5h-4.6v2.4h4.6V87.5z M134.4,84v-2.4h-4.7V84H134.4z M134.4,89.9v-2.4h-4.7v2.4H134.4z"/>
				<path d="M154,63.5c0-0.8,0-1.5-0.2-2.4h4.8c-0.1,0.8-0.2,1.5-0.2,2.4v0.4h9.5v-0.4c0-0.8,0-1.5-0.2-2.4h4.8
					c-0.1,0.8-0.2,1.4-0.2,2.4v0.4h5.2c2.1,0,3.7-0.1,5-0.2v4.2c-1.3-0.2-2.6-0.2-5-0.2h-5.2c0,0.7,0,1.2,0.2,1.8h-4.7
					c0-0.6,0.1-1.2,0.1-1.8h-9.5c0,0.7,0,1.2,0.1,1.8h-4.7c0.1-0.7,0.1-1.2,0.1-1.8h-4.8c-2.4,0-3.7,0-5,0.2v-4.2
					c1.4,0.2,2.8,0.2,5,0.2h4.8L154,63.5L154,63.5z M172.5,76.4c-1.9,1.6-5.1,4-6.4,5c3.5-0.1,6.1-0.2,7.8-0.4
					c-0.9-0.7-1.3-1.1-2.6-2l3.3-2.4c3.5,2.6,5.6,4.5,8.6,7.4l-3.3,2.9c-1.2-1.5-1.7-2-2.6-2.9c-9.6,0.7-14.4,0.8-29.9,1.4
					c-1.1,0-1.8,0.1-2.6,0.2l-0.7-4.3c1.4,0.2,4,0.2,10.4,0.2c0.2,0,0.2,0,2.2,0c-1.6-0.7-5.6-2.6-7.8-3.4l2.8-2.9
					c2.1,0.9,2.6,1.2,4,1.8c1.1-0.7,1.6-1.2,2.8-2.4h-8.7c-2.2,0-3.7,0-5,0.2v-4.2c1.2,0.2,2.7,0.2,5,0.2h11.1c0-1.1,0-1.6-0.1-2.4
					h4.6c-0.1,0.8-0.1,1.2-0.1,2.4h11.8c2.1,0,3.9-0.1,5-0.2v4.2c-1.1-0.1-2.7-0.2-5-0.2h-7.8L172.5,76.4z M148.2,90.2
					c0-1.6,0-2.8-0.1-4c1.2,0.1,2.1,0.1,4.2,0.1h22.3c2.2,0,3.1,0,4.2-0.2c-0.1,1.2-0.1,2-0.1,4.2v6.4c0,1.5,0.1,2.8,0.2,4.2h-4.7
					v-1.6h-21.6v1.6h-4.7c0.1-1.5,0.2-2.8,0.2-4.2v-6.5H148.2z M152.6,91.1h8.6v-1.8h-8.6V91.1z M152.6,95.9h8.6V94h-8.6V95.9z
					 M163.7,74.5c-1.4,1.4-3.1,2.8-4.5,4c1.2,0.7,1.5,0.8,2.6,1.4c2.6-1.8,5.1-3.8,6.5-5.3L163.7,74.5L163.7,74.5z M165.3,91.1h8.9
					v-1.8h-8.9V91.1z M165.3,95.9h8.9V94h-8.9V95.9z"/>
				<path d="M219.8,66.9c-0.5,0.1-0.5,0.1-3.5,1.2c-2.5,0.7-3.8,1.2-7.2,1.8c0,5.8,0,5.8-0.1,7.3h9.1c2.9,0,3.7,0,5.2-0.2v5.2
					c-1.6-0.2-2.4-0.2-5.2-0.2h-9.5c-0.5,4-1.4,6.9-2.8,9.3c-1.5,2.5-4,4.9-6.9,6.8c-1.2,0.7-2,1.2-4,2.1c-1.2-2.1-1.9-3.1-3.8-4.5
					c3.1-1.2,4.7-2,6.6-3.5c2.6-2.1,4.2-4.5,4.9-7.3c0.2-0.7,0.2-1.4,0.5-2.8h-10.6c-2.7,0-3.5,0-5.2,0.2V77
					c1.6,0.2,2.4,0.2,5.2,0.2h10.9c0.1-1.8,0.1-3.5,0.1-6.5c-3.5,0.5-4.8,0.7-11.9,0.9c-0.5-1.9-0.7-2.6-1.6-4.6
					c1.3,0.1,2,0.1,2.6,0.1c5.8,0,13.1-0.9,18.4-2.5c2.5-0.7,3.8-1.2,5.2-2L219.8,66.9z"/>
				<path d="M246.6,93.5h8.8c2,0,2.8,0,4-0.2v4.8c-1.2-0.1-2.1-0.2-4-0.2h-22c-1.9,0-2.8,0-4,0.2v-4.8c1.2,0.2,2,0.2,4,0.2h8.4V79.7
					H236c-1.6,0-2.5,0-4,0.2V75c1.2,0.2,2.1,0.2,3.9,0.2h16.8c1.8,0,2.7-0.1,4-0.2v4.8c-1.2-0.1-1.8-0.2-3.9-0.2h-6.1L246.6,93.5
					L246.6,93.5z"/>
				<path d="M271.3,72.6c1.8,3.3,2.6,5.4,4.2,10.2l-4.8,1.5c-1.2-4.3-2-6.6-3.9-10.4L271.3,72.6z M295.9,73.1
					c-0.2,0.7-0.4,0.8-0.6,2.1c-1.2,5.9-3.2,10.6-5.9,14.2c-3.2,4.3-6.7,7.1-13.1,10.4c-1.2-1.9-1.6-2.6-3.4-4.2
					c3.1-1.2,4.7-2.1,7.3-4c5-3.7,7.9-8,9.7-14.9c0.6-2.1,0.7-3.5,0.7-4.9L295.9,73.1z M280.4,71c2.2,4.2,3.1,6.1,4.1,9.9l-4.7,1.5
					c-0.8-3.3-2.1-6.6-3.9-10.1L280.4,71z"/>
				<path d="M334.9,69.9c-0.5,0.7-0.6,1.1-1.1,2.6c-2,6.5-5,12.3-8.8,16.6c-4,4.5-8.7,7.8-15.3,10.9c-1.2-2.1-1.8-2.8-3.7-4.5
					c4.2-1.8,6.7-3.1,9.4-5.1c6.1-4.5,10.2-10.5,12.5-18.1L315,72.5c-2.6,4.1-5.9,7.8-10,10.9c-1.3-1.8-1.9-2.4-4.1-3.7
					c4.9-3.3,8-6.8,11.1-12.5c1.3-2.5,2-4.1,2.1-5.6l5.9,1.2c-0.2,0.4-0.2,0.4-0.7,1.3c-0.1,0.2-0.1,0.2-0.6,1.2
					c-0.1,0.2-0.1,0.2-0.6,1.2c-0.2,0.6-0.2,0.6-0.7,1.4c0.6,0,1.2-0.1,2.1-0.1l9.4-0.1c1.7,0,2.1-0.1,3.1-0.5L334.9,69.9z"/>
			</g>
		</g>
		<g>
			<path class="st6" d="M45.6,49.9l-23,39.8c-2.9,5.1,0.7,11.4,6.6,11.4h45.9c5.8,0,9.5-6.3,6.6-11.4L58.8,49.9
				C55.8,44.7,48.5,44.7,45.6,49.9z"/>
			<path class="st7" d="M75,102.9H29.1c-3.5,0-6.6-1.8-8.3-4.8s-1.7-6.6,0-9.6l23-39.8c1.7-3,4.9-4.8,8.3-4.8s6.6,1.8,8.3,4.8
				l23,39.8c1.7,3,1.7,6.6,0,9.6C81.7,101.1,78.5,102.9,75,102.9z M47.4,50.8l-23,39.8c-1,1.7-1,3.8,0,5.4c1,1.7,2.8,2.8,4.8,2.8
				h45.9c2,0,3.8-1,4.8-2.8c1-1.7,1-3.8,0-5.4l-23-39.8c-1-1.7-2.8-2.8-4.8-2.8S48.4,49.1,47.4,50.8L47.4,50.8z"/>
		</g>
		<g class="st5">
			<path class="st7" d="M53.2,80.9V82c0,1.7,0,2,0.1,2.5h-3.2c0.1-0.7,0.1-1.3,0.1-2.5v-6.8c-0.3,3.1-0.3,3.1-0.6,4.5
				c-0.3,2.1-0.7,3.2-1.5,4.8c-0.7-1-1.1-1.6-1.8-2.4c0,1,0,1.5,0.2,2.5H43c0.1-1.2,0.2-1.5,0.2-2.6v-5.6c0-0.5,0-1,0.1-2.5
				c-0.3,0.6-0.7,1.1-1.1,1.5c-0.3-1.8-0.6-2.5-1.2-4.1c1.1-1.2,1.9-2.6,2.6-4.4c0.6-1.4,0.9-2.6,1.1-3.7l3.4,0.8
				c-0.1,0.3-0.1,0.4-0.2,0.7c0.7,0.1,1.3,0.1,2.1,0.1h0.3v-0.3c0-0.6,0-0.8-0.1-1.2h3.5c-0.1,0.3-0.1,0.7-0.1,1.1v0.3h2.2v-0.3
				c0-0.6,0-0.8-0.1-1.2h3.4C59,63.5,59,63.9,59,64.3v0.3h0.7c1.1,0,2-0.1,2.4-0.2v3.1c-0.8-0.1-1.1-0.1-2.4-0.1H59v1.2h0.8
				c1.3,0,1.8,0,2.6-0.1v3.1c-0.7-0.1-1.2-0.1-2.1-0.1h-9.8v0.7c0.6,0.1,1.2,0.1,2.2,0.1h7.2c1,0,1.5,0,2.1-0.1
				c-0.1,0.5-0.1,1.1-0.1,2.3v7.6c0,1.8-0.5,2.1-3.7,2.1c-0.2-1.1-0.2-1.6-0.6-2.5c0.3,0,0.6,0.1,0.8,0.1c0.3,0,0.4-0.1,0.4-0.4V81
				h-1.4v0.8c0,1.4,0,2,0.1,2.6h-3c0.1-0.7,0.1-1.3,0.1-2.6V81L53.2,80.9L53.2,80.9z M46.5,80.2c0.3-0.8,0.4-1.4,0.6-2.2
				c0.2-1.3,0.3-3.9,0.3-6.5c0-1.3,0-1.9-0.1-2.8c0.9,0.1,1.2,0.1,2.5,0.1h0.7v-1.1h-0.3c-1.3,0-1.7,0-2.4,0.1v-2.4
				c-0.4,1.4-0.7,2-1.3,3.3C46.5,68.7,46.5,80.2,46.5,80.2z M54.6,74.8h-1.4v0.9h1.4V74.8z M54.6,77.8h-1.4v1h1.4V77.8z M56,68.8
				v-1.1h-2.2v1.1H56z M58.9,75.7v-0.9h-1.4v0.9H58.9z M58.9,78.7v-0.9h-1.4v0.9H58.9z"/>
		</g>
		<g class="st5">
			<path class="st7" d="M50.8,57.2c0,0.3,0.1,0.5,0.2,0.7c0.2,0.3,0.7,0.5,1.2,0.5c0.7,0,1.2-0.3,1.2-0.9c0-0.3-0.2-0.6-0.4-0.7
				c-0.2-0.1-0.5-0.2-1.5-0.4c-0.9-0.2-1.2-0.3-1.6-0.6c-0.7-0.4-1-1.1-1-1.9c0-1.6,1.2-2.5,3.2-2.5c1.2,0,2.2,0.4,2.8,1.2
				c0.2,0.3,0.3,0.7,0.5,1.2L53.2,54c-0.1-0.7-0.5-0.9-1.2-0.9c-0.6,0-1.1,0.3-1.1,0.8c0,0.2,0.2,0.5,0.5,0.7
				c0.2,0.1,0.2,0.1,1.4,0.3c0.7,0.2,1.2,0.3,1.7,0.6c0.7,0.4,1.1,1.2,1.1,2.1c0,0.7-0.2,1.4-0.7,1.8c-0.6,0.6-1.5,0.8-2.6,0.8
				c-0.8,0-1.7-0.2-2.2-0.5c-0.5-0.2-0.8-0.7-1.1-1.2c-0.1-0.2-0.2-0.5-0.2-0.9L50.8,57.2z"/>
		</g>
		<polygon points="34.8,95.2 52.1,111.5 86.7,59.2 48.9,99.1 38.6,90.6 		"/>
		<g>
			<path class="st8" d="M148.5,126.2c0,0.3,0.2,0.4,1.5,0.4c1.2,0,1.6-0.1,1.7-0.6c0.2-0.5,0.2-1.3,0.2-2.7c1,0.4,1.4,0.6,2.3,0.8
				c-0.2,2.9-0.5,3.9-1.3,4.4c-0.5,0.3-1.6,0.4-3.4,0.4c-2.7,0-3.4-0.3-3.5-1.6c-0.9,0.6-1.3,0.9-2.4,1.5c-0.5-0.9-0.9-1.4-1.7-2.1
				c1.6-0.7,2.8-1.4,4-2.3v-5c0-0.7,0-1.1-0.1-1.7h2.6c-0.1,0.6-0.1,1.1-0.1,1.7v3.1c1.4-1.4,2.6-3.2,3.5-5c0.5-1,0.7-1.7,0.9-2.3
				l2.6,1c-0.2,0.5-0.2,0.5-0.7,1.4c-0.6,1.2-0.9,1.7-1.5,2.7l1.8-0.8c0.9,2,1.6,3.6,2.3,6.3l-2.3,1.2c-0.6-2.6-1.2-4.4-2.1-6.3
				c-1.4,2.1-2.6,3.5-4.5,5.2v0.3H148.5z M145.5,119.2c-0.2,2.8-0.6,4.3-1.2,6l-2.2-1.1c0.7-1.7,1-3.1,1.2-5.5L145.5,119.2z
				 M147,113.9c2,0.7,3.1,1.2,4.5,2.1l-1.4,2.1c-1.1-0.8-2.5-1.5-4.6-2.3L147,113.9z"/>
			<path class="st8" d="M160.1,123.3c-0.7,0-1.3,0-1.7,0.1v-2.1c0.6,0.1,1.2,0.1,1.7,0.1h11.2c0.7,0,1.2,0,1.7-0.1v2.1
				c-0.5,0-1.1-0.1-1.7-0.1h-4.5c-0.1,0.2-0.2,0.2-0.2,0.5h4.2c0.7,0,1.2,0,1.5-0.1c-0.1,0.3-0.1,0.7-0.1,1.2v2.2
				c0,1.4-0.4,1.8-1.8,1.8c-0.2,0-0.2,0-1.2-0.1c-0.1-1.1-0.2-1.5-0.4-2.1c0.3,0.1,0.7,0.1,0.8,0.1c0.2,0,0.3-0.1,0.3-0.2v-1.1h-1.4
				v1.8c0,0.7,0,1.1,0.1,1.5h-2.3c0.1-0.4,0.1-0.8,0.1-1.5v-1.8h-1.2v1.8c0,0.7,0,1.1,0.1,1.5H163c0.1-0.4,0.1-0.8,0.1-1.5v-1.8
				h-1.3v2c0,0.7,0,1.1,0.1,1.5h-2.5c0.1-0.6,0.1-1.1,0.1-1.7V125c0-0.4,0-0.9-0.1-1.3c0.4,0,0.7,0.1,1.7,0.1h3
				c0.2-0.2,0.2-0.2,0.2-0.5L160.1,123.3L160.1,123.3L160.1,123.3z M161.1,116.1c-0.7,0-1.3,0-1.7,0.1v-2c0.5,0.1,1.2,0.1,2,0.1h8.6
				c0.8,0,1.6,0,2-0.1v1.9c-0.5,0-1.1-0.1-1.7-0.1h-3.5v0.4h3.9c1.2,0,1.7,0,2.2-0.1c-0.1,0.4-0.1,0.7-0.1,1.4v1.2
				c0,0.7,0,0.9,0.1,1.4h-2.3v-2.2h-3.8v1.3c0,0.7,0,1.1,0.1,1.5h-2.6c0.1-0.5,0.1-0.8,0.1-1.5v-1.3h-3.6v2.2h-2.3
				c0.1-0.4,0.1-0.7,0.1-1.4v-1.2c0-0.7,0-1-0.1-1.4c0.5,0,0.9,0.1,2.2,0.1h3.7V116L161.1,116.1L161.1,116.1z M161.1,118.5
				c0.2,0,0.3,0,0.7,0h1.3c0.4,0,0.5,0,0.7,0v1.1c-0.2,0-0.3,0-0.7,0h-1.3c-0.3,0-0.5,0-0.7,0V118.5z M161.1,119.9
				c0.2,0,0.2,0,0.7,0h1.3c0.4,0,0.6,0,0.7,0v1.1c-0.2,0-0.3,0-0.7,0h-1.3c-0.3,0-0.5,0-0.7,0V119.9z M167.3,118.5
				c0.2,0,0.2,0,0.7,0h1.6c0.4,0,0.5,0,0.7,0v1.1c-0.2,0-0.3,0-0.7,0H168c-0.3,0-0.4,0-0.7,0V118.5z M167.3,119.9c0.2,0,0.2,0,0.7,0
				h1.6c0.4,0,0.5,0,0.7,0v1.1c-0.2,0-0.3,0-0.7,0H168c-0.3,0-0.4,0-0.7,0V119.9z"/>
			<path class="st8" d="M174.4,129c0.1-0.5,0.1-0.9,0.1-1.8v-4.4c0-0.6,0-1-0.1-1.5c0.5,0.1,0.9,0.1,1.7,0.1h4c0.4,0,0.7,0,1.1-0.1
				c0,0.3,0,0.5,0,1.2v4.8c0,0.6,0,1,0.1,1.3h-2.5v-0.4H177v0.7L174.4,129L174.4,129z M176.5,115.9c0-0.6,0-1-0.1-1.5
				c0.4,0.1,1,0.1,1.8,0.1h6.8c0.9,0,1.4,0,1.8-0.1c-0.1,0.4-0.1,0.8-0.1,1.5v3.2c0,0.7,0,1.2,0.1,1.6c-0.4,0-0.7-0.1-1.7-0.1H178
				c-0.8,0-1.2,0-1.7,0.1c0-0.4,0.1-0.9,0.1-1.6L176.5,115.9L176.5,115.9z M178.8,123.6h-1.9v2.5h1.9V123.6z M178.9,116.8v1.7h5.5
				v-1.7H178.9z M187.3,121.4c0.7,0,1.2,0,1.5-0.1c-0.1,0.5-0.1,0.8-0.1,1.5v4.4c0,0.9,0,1.3,0.1,1.8h-2.5v-0.7h-2v0.7h-2.4
				c0-0.4,0.1-0.7,0.1-1.3v-5c0-0.7,0-0.9,0-1.2c0.3,0,0.7,0.1,1.1,0.1L187.3,121.4L187.3,121.4z M184.3,126.1h2.1v-2.5h-2.1V126.1z
				"/>
			<path class="st8" d="M203.7,114.8l-5.7,15.5h-2.9l5.8-15.5C200.9,114.8,203.7,114.8,203.7,114.8z"/>
			<path class="st8" d="M217.7,116.9c-1.2-0.6-2.3-1-3.7-1.5l1.7-1.7c1.7,0.5,2.9,1,4.5,1.7l-1.2,1.4h2.8c1,0,1.6,0,2.2-0.1v2.5
				c-0.7-0.1-1.2-0.1-2.2-0.1h-3.3v2.2h2.8c0.7,0,1.2,0,1.9-0.1v2.4c-0.6-0.1-1-0.1-1.8-0.1h-2.9v2.6h3.6c1,0,1.7,0,2.5-0.1v2.5
				c-0.8-0.1-1.4-0.1-2.4-0.1h-9.6c-1.2,0-1.8,0-2.6,0.1V126c0.7,0.1,1.4,0.1,2.5,0.1h3.5v-2.6h-2.5c-0.9,0-1.4,0-2.1,0.1v-2.4
				c0.6,0.1,0.9,0.1,1.8,0.1h2.7v-2.1h-3.1c-1.3,0-1.7,0-2.2,0.1v-2.5c0.7,0.1,1.2,0.1,2.1,0.1H217.7z"/>
			<path class="st8" d="M240,124.6c-1.1,0.8-1.7,1.3-2.4,1.8c0.9,0.2,1.8,0.4,3.3,0.4c-0.5,0.9-0.7,1.4-1.1,2.4
				c-2.7-0.4-4.4-1-5.9-2.2v1.1c-2.1,0.4-3.6,0.7-6.4,1.1c-0.3,0.1-0.6,0.1-0.8,0.2l-0.3-2.6c0.2,0,0.2,0,0.4,0
				c0.1,0,0.9-0.1,1.5-0.1v-6.9c0-0.2,0-0.2,0-0.2c-0.6,0.3-0.9,0.4-1.7,0.7c-0.2-1-0.4-1.5-1-2.5c1.2-0.3,2.5-0.8,3.6-1.6
				c1.2-0.7,2-1.3,2.7-2.2h2.6c0.8,0.9,1.7,1.7,2.9,2.3c1.2,0.7,2.4,1.2,3.6,1.4c-0.5,0.9-0.7,1.5-1,2.5c-0.7-0.2-1.2-0.5-1.7-0.7v4
				c0,0.2,0,0.2,0,0.2L240,124.6z M230.5,120.4h5.4v-0.6h-5.4L230.5,120.4L230.5,120.4z M230.5,122.6h5.4V122h-5.4L230.5,122.6
				L230.5,122.6z M230.5,124.4v2c0.1,0,0.1,0,0.2,0c0.7-0.1,1.7-0.2,2.1-0.2c-0.6-0.6-0.7-0.7-1.3-1.7L230.5,124.4L230.5,124.4z
				 M232,117.5c0-0.2,0-0.3,0-0.5c-0.5,0.4-0.9,0.7-1.4,1h1.4V117.5z M234.1,116.9c-0.3-0.3-0.6-0.5-1-0.9c-0.4,0.4-0.6,0.6-0.9,0.9
				H234.1z M235.8,118.1c-0.7-0.5-1-0.7-1.4-1.1c0,0.2,0,0.3,0,0.6v0.5H235.8z M234.3,124.4c0.2,0.3,0.6,0.7,1,0.9
				c0.5-0.2,1-0.6,1.3-0.9H234.3z"/>
			<path class="st8" d="M255.4,114.8l-5.7,15.5h-2.9l5.8-15.5C252.6,114.8,255.4,114.8,255.4,114.8z"/>
			<path class="st8" d="M269.4,116.9c-1.2-0.6-2.3-1-3.7-1.5l1.7-1.7c1.7,0.5,2.9,1,4.5,1.7l-1.2,1.4h2.8c1,0,1.6,0,2.2-0.1v2.5
				c-0.7-0.1-1.2-0.1-2.2-0.1h-3.3v2.2h2.8c0.7,0,1.2,0,1.9-0.1v2.4c-0.6-0.1-1-0.1-1.8-0.1h-2.9v2.6h3.6c1,0,1.7,0,2.5-0.1v2.5
				c-0.8-0.1-1.4-0.1-2.4-0.1h-9.6c-1.2,0-1.8,0-2.6,0.1V126c0.7,0.1,1.4,0.1,2.5,0.1h3.5v-2.6h-2.5c-0.9,0-1.4,0-2.1,0.1v-2.4
				c0.6,0.1,0.9,0.1,1.8,0.1h2.7v-2.1h-3.1c-1.3,0-1.7,0-2.2,0.1v-2.5c0.7,0.1,1.2,0.1,2.1,0.1H269.4z"/>
			<path class="st8" d="M279.6,124.6c-0.8,0-1.4,0-2,0.1v-2.3c0.5,0.1,1.1,0.1,2,0.1h0.3c-0.4-0.7-0.8-1.3-1.2-1.8l1.6-0.6
				c-0.2,0-0.3,0-0.5,0s-0.4,0-0.7,0c-0.2-0.7-0.5-1.2-1-2.1c1.8,0.1,2.6,0.1,3.7,0.1c1.7,0,3.5-0.1,5-0.2c1.4-0.1,2.1-0.2,3.4-0.5
				l1.6,1.9c-1,0.2-1.4,0.2-2.2,0.3l1.5,0.6c-0.8,1.2-1.2,1.7-1.7,2.2h0.8c0.9,0,1.5,0,2-0.1v2.3c-0.5-0.1-1.2-0.1-2-0.1h-2.5
				c1.2,1,2.7,1.6,4.7,2c-0.6,0.7-0.8,1.3-1.3,2.3c-1.2-0.3-2.1-0.7-3.1-1.4c-0.8-0.6-1.3-1-2.1-1.7c0,0.2,0,0.2,0,0.4s0,0.4,0,0.6
				v0.7c0,0.7,0,1.1,0.2,1.7h-2.7c0.1-0.6,0.2-1,0.2-1.7v-0.7c0-0.2,0-0.5,0-1c-1.2,1.4-2.6,2.4-4.9,3.1c-0.6-1.1-0.7-1.4-1.4-2.1
				c2-0.4,3.4-1.1,4.5-2.1H279.6L279.6,124.6L279.6,124.6z M280.9,114.7c0-0.2,0-0.5-0.1-0.7h2.5c0,0.3-0.1,0.5-0.1,0.7v0.2h3v-0.2
				c0-0.2,0-0.3-0.1-0.7h2.5c0,0.2-0.1,0.5-0.1,0.7v0.2h1.7c0.8,0,1.3,0,1.9-0.1v2.3c-0.5-0.1-1.1-0.1-1.9-0.1h-1.6
				c0,0.2,0,0.4,0.1,0.7h-2.5c0-0.2,0-0.4,0.1-0.7h-3c0,0.2,0,0.3,0.1,0.7h-2.5c0-0.2,0.1-0.4,0.1-0.7h-1.5c-0.8,0-1.4,0-1.9,0.1
				v-2.3c0.6,0.1,1.1,0.1,1.9,0.1h1.5v-0.2H280.9z M283.6,122.5c0-0.3,0-0.5-0.1-0.7h0.6c-0.3-0.7-0.4-0.7-0.8-1.3l1.2-0.4
				c-0.9,0.1-1.7,0.1-3.4,0.1c0.3,0.4,0.7,0.9,1.2,1.6l-1.9,0.8L283.6,122.5L283.6,122.5z M288.8,122.5l-1.7-0.7
				c0.6-0.7,1-1.2,1.4-2c-0.6,0.1-1.6,0.1-3.1,0.2c0.4,0.5,0.6,0.7,0.8,1.2l-1.8,0.6h1.7c-0.1,0.3-0.1,0.5-0.1,0.7L288.8,122.5
				L288.8,122.5L288.8,122.5z"/>
		</g>
	</g>
</g>
<rect x="-6" y="145.1" width="534.1" height="41.3"/>
<g>
	<path class="st3" d="M455.5,207.1l-9.8,9.7h10.6l16.2-16h-10.7l-6.3,6.2L455.5,207.1L455.5,207.1z M506.3,207.1l-9.8,9.7H507
		l16.2-16h-10.7l-6.3,6.2L506.3,207.1L506.3,207.1z M487.3,200.8l-16.3,16h10.7l16.3-16H487.3z M436.5,200.8l-16.2,16H431l16.2-16
		H436.5z M151.2,207.1l-9.8,9.7H152l16.2-16h-10.7l-6.3,6.2V207.1z M132.2,200.8l-16.2,16h10.7l16.2-16H132.2z M201.9,207.1
		l-9.8,9.7h10.6l16.2-16h-10.7l-6.3,6.2V207.1z M182.9,200.8l-16.2,16h10.7l16.2-16H182.9z M100.5,207.1l-9.9,9.7h10.6l16.2-16
		h-10.7l-6.3,6.2v0.1C100.4,207.1,100.5,207.1,100.5,207.1z M49.7,207.1l-9.8,9.7h10.6l16.2-16H56l-6.3,6.2V207.1z M81.5,200.8
		l-16.3,16h10.7l16.3-16H81.5z M335.1,200.8l-16.2,16h10.7l16.2-16H335.1z M354.1,207.1l-9.8,9.7H355l16.2-16h-10.7l-6.3,6.2
		L354.1,207.1L354.1,207.1z M404.8,207.1l-9.8,9.7h10.6l16.2-16h-10.7l-6.3,6.2L404.8,207.1L404.8,207.1z M385.8,200.8l-16.2,16
		h10.7l16.2-16H385.8z M233.6,200.8l-16.2,16h10.7l16.2-16H233.6z M252.6,207.1l-9.8,9.7h10.6l16.2-16h-10.7l-6.3,6.2L252.6,207.1
		L252.6,207.1z M303.4,207.1l-9.8,9.7h10.6l16.2-16h-10.7l-6.3,6.2L303.4,207.1L303.4,207.1z M284.4,200.8l-16.2,16h10.7l16.2-16
		H284.4z M-1,207v9.8h0.8l16.2-16H5.3L-1,207z M30.7,200.8l-16.2,16h10.7l16.2-16H30.7z"/>
</g>
<line class="st9" x1="0" y1="208.8" x2="522.2" y2="208.8"/>
<g>
	<path class="st2" d="M443.2,162.9c0.7-2,1.4-4,1.8-6.1c0.5-2.4,0-5.7,0.8-7.9c1.1-3.4,5.1-6.6,8.7-9.2c-3.2,0.6-6.5,0.9-9.4,0.3
		c-3.5-0.7-3.9-4-6-6.9c-4.7-6.3-11.5-10.8-18.7-13.8c-3.5-1.4-7.3-3-11.1-2.6c-20.7,2.2-33.5,21.5-39.7,39.6
		c-2,5.9-4.3,12.7-2.4,19c2.9,9.4,12.5,15.6,20.9,19.5c6.6,3.1,15.3,6.6,22.6,4.2c10-3.2,18.2-12,24.1-20.3
		C438.1,173.9,441.1,168.6,443.2,162.9z"/>
	<path class="st10" d="M447.5,159.2c0.6-2.4,0.9-4.8,1.1-7.2c0.1-2.8,0.8-3.5,2.8-5.5c2.9-2.9,6.1-5.5,9.3-8.1
		c0.6-0.5-1.8-1.8-2.6-1.4c-4.2,0.9-9,2-13.4,1.7c-7.7-14.3-27.1-26.7-43.6-22.2c-18.9,5.1-30.2,24.5-35.5,42
		c-1.9,6.4-3.3,12.8-0.2,19.1c3.8,7.8,11.8,13.3,19.3,17.1c6.6,3.4,14.1,6.3,21.5,6.8c8,0.6,15.4-4.7,21-9.8
		C436.6,183.1,444.5,171.5,447.5,159.2z M367.1,175.4c-1.9-6.2,0.3-13,2.4-19c6.2-18.1,19.1-37.5,39.7-39.6
		c3.8-0.4,7.6,1.2,11.1,2.6c7.2,2.9,14,7.4,18.7,13.8c2.1,2.8,2.4,6.1,6,6.9c2.9,0.6,6.2,0.3,9.4-0.3c-3.5,2.6-7.5,5.8-8.7,9.2
		c-0.7,2.2-0.2,5.5-0.8,7.9c-0.5,2.1-1.1,4.1-1.8,6.1c-2.1,5.7-5,11-8.5,15.9c-5.9,8.3-14.1,17.1-24.1,20.3
		c-7.3,2.4-16-1.1-22.6-4.2C379.6,191,369.9,184.8,367.1,175.4z"/>
</g>
<g>
	<g>
		<path class="st11" d="M519.1,130.8c-0.2-1.5-0.7-1.8-1.8-3.1c-0.3-0.4,0.4-0.7,0.6-0.8c1.6-0.5,0.8,0.3,1.2-0.8
			c0.2-0.6,0-1.8,0-2.5c0-3.2,0-6.3,0-9.5c0-16.9,0-33.8,0-50.7c-9.6-1.7-19.2-4.8-28.2-8.6c-0.8,2.6-1.5,5.1-2.3,7.7
			c-0.2,0.7-1.9,0.7-2.4,0.7c-4.2-0.2-8.2-1.9-11.3-4.7c-1,2.7-2.1,5.3-3.3,7.9c-0.3,0.8-2.1,0.8-2.8,0.7c-3.2-0.8-5.7-2.1-8-4.2
			c-1.2,1.4-2.3,3-3.3,4.7c-5.9,16.9-8.6,38.6,0.4,54.1c11.1,19.1,33.9,14.8,51.7,9c0.5-0.2,2.2-0.6,2.5,0.2
			c0.8,2.1,1.6,4.2,2.3,6.4c0.2,0.3,0.4,0.5,0.6,0.8c0.8-1.8,2.2-3.2,4.2-3.7C519.3,133.1,519.3,131.9,519.1,130.8z M499.7,113.3
			c-1.9,0.7-3.8,1.5-5.7,2.2c-1.6,0.6-3.1,1.2-4.7,1.8c-0.5-1.6-0.9-3.2-1.4-4.8l-3.4-12.3c3.4-1,6.8-2.1,10-3.7
			c0.8,2.2,1.7,4.4,2.5,6.5c1.2,3,2,7,3.7,9.7c0,0.1,0.1,0.1,0.1,0.1C500.5,113.1,500,113.2,499.7,113.3z"/>
		<path class="st11" d="M521.7,136c-4.1-3.4-4.5,6.4-4.4,8.3c0.2,2.3,1.4,5.8,3.8,5.4c0.3,0,0.5,0,0.7,0c0,0,0.1,0,0.1,0
			c0.1,0,1.1-2.2,1.2-2.6c0.4-1.3,0.5-2.7,0.5-4.1C523.7,140.8,523.5,137.4,521.7,136z"/>
		<path class="st11" d="M517.2,173c0.1,1.6,0.5,3.1,0.9,4.6c0,0.1,0.1,0.3,0.1,0.4c0,0,0,0,0,0.1c0.4,0.9,1,1.8,1.2,2.6c0,0,0,0,0,0
			c0.2,0.2,0.4,0.5,0.8,0.7c1.9-0.5,2.5-4.5,2.7-6.2c0-0.1,0-0.2,0-0.3c0.1-2,0-4.9-1.4-6.5C519.1,165.2,517,171,517.2,173z"/>
	</g>
	<path class="st12" d="M484.4,100.3c1.2,4.1,2.4,8.2,3.6,12.2l-3.4-12.3C484.5,100.3,484.4,100.3,484.4,100.3z"/>
	<path class="st2" d="M497,103.1c-0.8-2.2-1.7-4.4-2.5-6.5c-3.2,1.5-6.6,2.7-10,3.7l3.4,12.3c0.5,1.6,0.9,3.2,1.4,4.8
		c1.6-0.6,3.1-1.2,4.7-1.8c1.9-0.7,3.8-1.5,5.7-2.2c0.3-0.1,0.7-0.2,1.1-0.4c0,0-0.1-0.1-0.1-0.1C499,110.1,498.2,106.1,497,103.1z"
		/>
	<g>
		<path class="st10" d="M475.8,119.8c-0.1-0.3-1.3-0.1-1.2,0.2c0.3,0.6,0.7,1.4,0.8,2.1c0,0.3-0.1,0.6-0.3,0.9
			c-0.1,0.2-0.2,0.3-0.3,0.5c-0.1-0.1-0.2-0.2-0.2-0.2c-0.1-0.2-0.2-0.4-0.3-0.6c-0.7-1.5-1.1-3.3-1.4-4.9c-0.1-0.3-1.2-0.1-1.2,0.2
			c0.2,0.9,0.3,1.7,0.6,2.5c0.3,1.1,0.6,2.5,1.4,3.3c0.7,0.7,1.8,0.4,2.3-0.4c0.2-0.4,0.6-1,0.6-1.4
			C476.6,121.3,476.1,120.4,475.8,119.8z"/>
		<path class="st10" d="M466.8,116c0.4,0.8,0.9,1.8,1.1,2.7c0.1,0.4-0.1,0.7-0.4,1.2c-0.1,0.2-0.3,0.4-0.4,0.7
			c-0.1-0.1-0.2-0.2-0.3-0.3c-0.2-0.2-0.3-0.5-0.4-0.8c-0.9-2-1.4-4.2-1.8-6.3c-0.1-0.4-1.6-0.2-1.5,0.2c0.2,1.1,0.4,2.2,0.7,3.3
			c0.4,1.4,0.8,3.2,1.8,4.3c0.9,0.9,2.4,0.5,3-0.5c0.3-0.5,0.8-1.3,0.8-1.8c0-0.9-0.8-2.1-1.1-2.9
			C468.1,115.3,466.7,115.7,466.8,116z"/>
	</g>
	<g>
		<path class="st10" d="M504.1,112.7c-2.3-6-4.6-11.9-6.9-17.9c-0.3-0.8-2.3-0.3-2.8,0c-3.9,2.2-8.3,3.6-12.6,4.9
			c-1.8,0.5-0.8,1.2,0.3,1.1c1.7,5.7,3.3,11.4,5,17.1c0,0.1,0.1,0.1,0.1,0.2c-0.3,0.1-0.6,0.2-0.9,0.3c-1.9,0.8,0.9,1.1,1.8,0.8
			c5.1-2,10.1-3.9,15.2-5.9C503.6,113.3,504.2,113,504.1,112.7z M499.7,113.3c-1.9,0.7-3.8,1.5-5.7,2.2c-1.6,0.6-3.1,1.2-4.7,1.8
			c-0.5-1.6-0.9-3.2-1.4-4.8c-1.2-4.1-2.4-8.2-3.6-12.2c0.1,0,0.1,0,0.2,0c3.4-1,6.8-2.1,10-3.7c0.8,2.2,1.7,4.4,2.5,6.5
			c1.2,3,2,7,3.7,9.7c0,0.1,0.1,0.1,0.1,0.1C500.5,113.1,500,113.2,499.7,113.3z"/>
		<path class="st10" d="M494.8,75.1c-0.8,0-2.1,0.4-2.7,1c-0.6,0.7-1.1,1.1-1.2,2.2c-0.1,1.1,0.5,2.2,1,3c0.5,0.7,2.1,0.9,2.9,1
			c0.8,0,1.8-0.3,2.4-1c0.6-0.7,0.6-1.3,0.6-2.3c0.1-1.1-0.2-1.8-0.7-2.6C496.6,75.7,495.6,75.2,494.8,75.1z"/>
		<path class="st10" d="M480.2,94.2c-1.9-0.4-4.1-1.3-5.1-3.1c1.7-0.4,4.1-1,4.3-2.4c0.1-0.7-0.4-1.6-0.4-2.4c0-1.1,0-2.2,0.1-3.3
			c0-0.6-2.7-0.5-2.7,0.4c-0.1,1.5-0.3,3.2,0,4.7c0.2,0.9,0.4,1.1-0.6,1.6c-0.8,0.4-1.8,0.6-2.7,0.8c-0.2,0-1.1,0.3-0.9,0.6
			c1,2.5,3.8,3.6,6.2,4.1C479,95.3,481.6,94.4,480.2,94.2z"/>
		<path class="st10" d="M485.1,70.7c0.6,0.6,2.2,0.2,2.8-0.1c3.4-1.8,6.8-3.6,10.1-5.3c1.5-0.8-1.7-0.9-2.4-0.5
			c-2.7,1.4-5.5,2.9-8.2,4.3c-0.7-0.8-1.4-1.6-2.2-2.3c-0.6-0.7-3.7,0.2-3.1,0.8C483.1,68.6,484.1,69.7,485.1,70.7z"/>
		<path class="st10" d="M466.4,71.7c0,1.3,0,2.7,0.1,4c-1.8,0.2-3.5,0.3-5.3,0.5c-0.4,0-1.6,0.3-1.5,0.8c0.1,0.6,1.4,0.4,1.7,0.4
			c2.3-0.2,4.6-0.4,6.9-0.6c0.4,0,1.6-0.3,1.5-0.8c0-1.6,0-3.1-0.1-4.7C469.7,70.5,466.4,70.8,466.4,71.7z"/>
		<path class="st10" d="M466.6,83.9c-1.8-0.3-3.6,0.1-4.4,1.9c-0.8,1.8,0.1,4.5,2.1,5.1c0,0,0,0,0,0c0,0,0,0,0,0c0,0,0,0,0,0
			c0,0,0,0,0,0c2,0.2,3.6-0.7,4.1-2.6C469,86.4,468.8,84.3,466.6,83.9z"/>
	</g>
	<path class="st12" d="M518.3,177.9c-0.1-0.1-0.1-0.3-0.1-0.4C518.2,177.7,518.2,177.8,518.3,177.9z"/>
	<path class="st12" d="M523,174.8c0,0.1,0,0.2,0,0.3C522.9,175,522.9,174.9,523,174.8z"/>
	<path class="st12" d="M519.5,180.6c-0.2-0.8-0.8-1.8-1.2-2.6C518.6,178.9,519.3,179.8,519.5,180.6z"/>
	<path d="M518.3,178C518.3,178,518.3,178,518.3,178C518.3,178,518.3,178,518.3,178z"/>
	<path class="st12" d="M514.1,141.4c-0.1-0.1-0.1-0.1-0.2-0.2c-1.1-1.4-2.3-2.7-3.4-4.1c-0.6,1.3-1,2.5-1,3.9c0,0.3,0,0.6,0,1
		c0,0.3,0.1,0.7,0.1,1c0.1,0.7,0.3,1.4,0.5,2.1c0.8,2.3,1.8,4.5,2.9,6.6c0.8-1,1.6-1.9,2.6-2.7c-1-1.3-1.5-3-1.6-5.1
		C514,143,514.1,142.2,514.1,141.4z"/>
	<path class="st12" d="M523,174.8c0-0.8,0.1-1.7,0-2.6c0,1,0,1.9,0,2.9C522.9,174.9,522.9,174.8,523,174.8z"/>
	<path class="st12" d="M519.1,166.3c0-4.4,0-8.8,0-13.2c0-0.8,0-1.5,0-2.3c-0.7-0.1-1.3-0.3-1.8-0.6c-1.2,1.3-2.2,2.7-3,3.7
		c-0.4,0.5-2.7,1.2-3.1,0.4c-1.6-2.8-3.1-5.8-4.2-8.9c0-0.1,0-0.2-0.1-0.2c-2.5,2.6-4.4,5.9-4.4,9.4c0,5.1,3.8,9.8,7.2,13.3
		c1.3,1.3,2.6,2.5,4.1,3.6c0.1-0.8,0.3-1.6,0.8-2.3C515.5,167.7,517.3,166.8,519.1,166.3z"/>
	<path class="st12" d="M459.4,61c0.2-0.2,0.5-0.3,0.8-0.4c0.8-0.3,1.8-0.3,2.3,0.1c2,2,3.9,3.4,6.4,4.4c1.4-3.1,2.7-6.2,3.7-9.4
		c0.2-0.8,2.8-1.1,3.3-0.5c2.4,3.1,5.9,5.5,9.7,6.3c0.8-2.8,1.7-5.6,2.5-8.4c0.3-0.9,2.5-0.8,3.1-0.6c8.9,3.9,18.3,7.2,27.9,9.1
		c0-3.8,0-7.6,0-11.4c0-0.1,0-0.1,0-0.2c0-0.5,0-1,0.1-1.5c0.1-1.7,0.4-3.7-0.1-5.1c-0.8-2.6-7.8-3.6-10.6-4.1
		c-15.3-1.8-32.2-1.5-43.9,10c-6.8,6.6-15.2,15.9-13.4,25.6c0.6-2.4,1.6-4.8,2.9-7C455.5,65.3,457.4,62.9,459.4,61z"/>
	<path class="st12" d="M519.2,134.3c0-1.2,0.1-2.4-0.1-3.5c-0.2-1.5-0.7-1.8-1.8-3.1c-0.3-0.4,0.4-0.7,0.6-0.8
		c1.6-0.5,0.8,0.3,1.2-0.8c0.2-0.6,0-1.8,0-2.5c0-3.2,0-6.3,0-9.5c0-16.9,0-33.8,0-50.7c-9.6-1.7-19.2-4.8-28.2-8.6
		c-0.8,2.6-1.5,5.1-2.3,7.7c-0.2,0.7-1.9,0.7-2.4,0.7c-4.2-0.2-8.2-1.9-11.3-4.7c-1,2.7-2.1,5.3-3.3,7.9c-0.3,0.8-2.1,0.8-2.8,0.7
		c-3.2-0.8-5.7-2.1-8-4.2c-1.2,1.4-2.3,3-3.3,4.7c-5.9,16.9-8.6,38.6,0.4,54.1c11.1,19.1,33.9,14.8,51.7,9c0.5-0.2,2.2-0.6,2.5,0.2
		c0.8,2.1,1.6,4.2,2.3,6.4c0.2,0.3,0.4,0.5,0.6,0.8C515.8,136.2,517.1,134.8,519.2,134.3z"/>
	<path class="st12" d="M522.3,169.5c-0.2-0.5-0.4-0.9-0.7-1.2c-0.7-0.8-1.3-1-1.9-0.8c-0.2,0.1-0.4,0.2-0.6,0.4
		c-1.2,1.1-2,3.9-1.9,5.1c0,0.4,0.1,0.7,0.1,1.1c0.1,0.9,0.3,1.9,0.6,2.8c0.1,0.3,0.1,0.5,0.2,0.8c0,0.1,0.1,0.3,0.1,0.4
		c0,0,0,0,0,0.1c0.4,0.9,1,1.8,1.2,2.6c0,0,0,0,0,0c0.1,0.1,0.2,0.2,0.2,0.3c0.2,0.2,0.3,0.3,0.5,0.4c1.9-0.5,2.5-4.5,2.7-6.2
		c0,0,0,0,0,0c0-0.1,0-0.2,0-0.3c0-0.8,0.1-1.7,0-2.6C522.8,171.2,522.7,170.3,522.3,169.5z"/>
	<path class="st12" d="M519.1,153.1c0-0.8,0-1.5,0-2.3c-0.7-0.1-1.3-0.3-1.8-0.6c-1.2,1.3-2.2,2.7-3,3.7c-0.4,0.5-2.7,1.2-3.1,0.4
		c-1.6-2.8-3.1-5.8-4.2-8.9c0-0.1,0-0.2-0.1-0.2c-2.5,2.6-4.4,5.9-4.4,9.4c0,5.1,3.8,9.8,7.2,13.3c1.3,1.3,2.6,2.5,4.1,3.6
		c0.1-0.8,0.3-1.6,0.8-2.3c1-1.6,2.8-2.5,4.6-2.9C519.1,161.9,519.1,157.5,519.1,153.1z"/>
	<path class="st12" d="M522.3,169.5c-0.2-0.5-0.4-0.9-0.7-1.2c-0.7-0.8-1.3-1-1.9-0.8c-0.2,0.1-0.4,0.2-0.6,0.4
		c-1.2,1.1-2,3.9-1.9,5.1c0,0.4,0.1,0.7,0.1,1.1c0.1,0.9,0.3,1.9,0.6,2.8c0.1,0.3,0.1,0.5,0.2,0.8c0,0.1,0.1,0.3,0.1,0.4
		c0,0,0,0,0,0.1c0.4,0.9,1,1.8,1.2,2.6c0,0,0,0,0,0c0.1,0.1,0.2,0.2,0.2,0.3c0.2,0.2,0.3,0.3,0.5,0.4c1.9-0.5,2.5-4.5,2.7-6.2
		c0,0,0,0,0,0c0-0.1,0-0.2,0-0.3c0-0.8,0.1-1.7,0-2.6C522.8,171.2,522.7,170.3,522.3,169.5z"/>
	<path class="st12" d="M509.7,142.9c0.1,0.7,0.3,1.4,0.5,2.1c0.8,2.3,1.8,4.5,2.9,6.6c0.8-1,1.6-1.9,2.6-2.7c-0.8-1-1.3-2.3-1.5-3.9
		c-0.1-0.4-0.1-0.8-0.1-1.2c0-0.8,0-1.7,0.1-2.5c-0.1-0.1-0.1-0.1-0.2-0.2c-0.9-1.1-1.8-2.2-2.8-3.3c-0.2-0.3-0.4-0.5-0.6-0.8
		c-0.6,1.3-1,2.5-1,3.9c0,0.3,0,0.6,0,1C509.6,142.2,509.6,142.6,509.7,142.9z"/>
	<path class="st12" d="M519.1,153.1c0-0.8,0-1.5,0-2.3c-0.7-0.1-1.3-0.3-1.8-0.6c-1.2,1.3-2.2,2.7-3,3.7c-0.4,0.5-2.7,1.2-3.1,0.4
		c-1.6-2.8-3.1-5.8-4.2-8.9c0-0.1,0-0.2-0.1-0.2c-2.5,2.6-4.4,5.9-4.4,9.4c0,5.1,3.8,9.8,7.2,13.3c1.3,1.3,2.6,2.5,4.1,3.6
		c0.1-0.8,0.3-1.6,0.8-2.3c1-1.6,2.8-2.5,4.6-2.9C519.1,161.9,519.1,157.5,519.1,153.1z"/>
	<path class="st12" d="M512,130.9c0.8,2.1,1.6,4.2,2.3,6.4c0.2,0.3,0.4,0.5,0.6,0.8c0.8-1.8,2.2-3.2,4.2-3.7c0-1.2,0.1-2.4-0.1-3.5
		c-0.2-1.5-0.7-1.8-1.8-3.1c-0.3-0.4,0.4-0.7,0.6-0.8c1.6-0.5,0.8,0.3,1.2-0.8c0.2-0.6,0-1.8,0-2.5c0-3.2,0-6.3,0-9.5
		c0-16.9,0-33.8,0-50.7c-9.6-1.7-19.2-4.8-28.2-8.6c-0.8,2.6-1.5,5.1-2.3,7.7c-0.2,0.7-1.9,0.7-2.4,0.7c-4.2-0.2-8.2-1.9-11.3-4.7
		c-1,2.7-2.1,5.3-3.3,7.9c-0.3,0.8-2.1,0.8-2.8,0.7c-3.2-0.8-5.7-2.1-8-4.2c-1.2,1.4-2.3,3-3.3,4.7c-5.9,16.9-8.6,38.6,0.4,54.1
		c11.1,19.1,33.9,14.8,51.7,9C510.1,130.5,511.7,130.1,512,130.9z"/>
	<polygon class="st12" points="517.3,150.3 517.3,150.3 517.3,150.3 	"/>
	<path class="st12" d="M511.2,137.8c-0.2-0.3-0.4-0.5-0.6-0.8c1.1,1.4,2.3,2.7,3.4,4.1C513,140.1,512.1,139,511.2,137.8z"/>
	<path class="st12" d="M511.7,169.9C511.6,169.9,511.6,169.9,511.7,169.9C511.6,169.9,511.6,169.9,511.7,169.9z"/>
	<path class="st12" d="M513.1,151.7c0.8-1,1.6-1.9,2.6-2.7l0,0C514.7,149.8,513.9,150.7,513.1,151.7z"/>
	<path class="st12" d="M457.8,62.7c0.5-0.6,1.1-1.1,1.6-1.6c0.2-0.2,0.5-0.3,0.8-0.4c0.8-0.3,1.8-0.3,2.3,0.1c2,2,3.9,3.4,6.4,4.4
		c1.4-3.1,2.7-6.2,3.7-9.4c0.2-0.8,2.8-1.1,3.3-0.5c2.4,3.1,5.9,5.5,9.7,6.3c0.8-2.8,1.7-5.6,2.5-8.4c0.3-0.9,2.5-0.8,3.1-0.6
		c8.9,3.9,18.3,7.2,27.9,9.1c0-3.8,0-7.6,0-11.4c0-0.1,0-0.1,0-0.2c0-0.2,0-0.4,0-0.6c0-0.3,0-0.6,0.1-1c0.1-1.7,0.4-3.7-0.1-5.1
		c-0.8-2.6-7.8-3.6-10.6-4.1c-15.3-1.8-32.2-1.5-43.9,10c-6.8,6.6-15.2,15.9-13.4,25.6c0.6-2.4,1.6-4.8,2.9-7
		C455.1,66,456.4,64.2,457.8,62.7z"/>
	<path class="st12" d="M514.3,154c0.2-0.2,0.4-0.5,0.6-0.7C514.6,153.5,514.4,153.8,514.3,154z"/>
	<g>
		<path class="st13" d="M517.3,150.3C517.3,150.3,517.3,150.3,517.3,150.3c-0.9,1-1.7,2.1-2.4,3c-0.2,0.3-0.4,0.5-0.6,0.7
			c-0.4,0.5-2.7,1.2-3.1,0.4c-1.6-2.8-3.1-5.8-4.2-8.9c0-0.1,0-0.2-0.1-0.2c-2.5,2.6-4.4,5.9-4.4,9.4c0,5.1,3.8,9.8,7.2,13.3
			c0.6,0.7,1.3,1.3,1.9,1.9c0,0,0,0,0,0c0.7,0.6,1.4,1.2,2.1,1.7c0.1-0.8,0.3-1.6,0.8-2.3c1-1.6,2.8-2.5,4.6-2.9c0-4.4,0-8.8,0-13.2
			c0-0.8,0-1.5,0-2.3C518.4,150.7,517.8,150.6,517.3,150.3z"/>
		<path class="st13" d="M509.7,142.9c0.1,0.7,0.3,1.4,0.5,2.1c0.8,2.3,1.8,4.5,2.9,6.6c0.8-1,1.6-1.9,2.6-2.7
			c-0.8-1-1.3-2.3-1.5-3.9c-0.1-0.4-0.1-0.8-0.1-1.2c0-0.8,0-1.7,0.1-2.5c-0.1-0.1-0.1-0.1-0.2-0.2c-1.1-1.4-2.3-2.7-3.4-4.1
			c-0.6,1.3-1,2.5-1,3.9c0,0.3,0,0.6,0,1C509.6,142.2,509.6,142.6,509.7,142.9z"/>
	</g>
	<path d="M511.6,169.9c-0.7-0.6-1.3-1.2-1.9-1.9C510.3,168.6,510.9,169.3,511.6,169.9z"/>
	<path d="M514.8,153.3c0.7-0.9,1.5-2,2.4-3C516.4,151.3,515.5,152.3,514.8,153.3z"/>
	<path class="st12" d="M519.1,153.1c0-0.8,0-1.5,0-2.3c-0.7-0.1-1.3-0.3-1.8-0.6c0,0,0,0,0,0c-0.9,1-1.7,2.1-2.4,3
		c-0.2,0.3-0.4,0.5-0.6,0.7c-0.4,0.5-2.7,1.2-3.1,0.4c-1.6-2.8-3.1-5.8-4.2-8.9c0-0.1,0-0.2-0.1-0.2c-2.5,2.6-4.4,5.9-4.4,9.4
		c0,5.1,3.8,9.8,7.2,13.3c0.6,0.7,1.3,1.3,1.9,1.9c0,0,0,0,0,0c0.6,0.5,1.2,1.1,1.9,1.6c0.1,0.1,0.1,0.1,0.2,0.1
		c0.1-0.8,0.3-1.6,0.8-2.3c1-1.6,2.8-2.5,4.6-2.9C519.1,161.9,519.1,157.5,519.1,153.1z"/>
	<path class="st12" d="M509.7,142.9c0.1,0.7,0.3,1.4,0.5,2.1c0.8,2.3,1.8,4.5,2.9,6.6c0.8-1,1.6-1.9,2.6-2.7c-0.8-1-1.3-2.3-1.5-3.9
		c-0.1-0.4-0.1-0.8-0.1-1.2c0-0.8,0-1.7,0.1-2.5c-0.1-0.1-0.1-0.1-0.2-0.2c-0.9-1.1-1.8-2.2-2.8-3.3c-0.2-0.3-0.4-0.5-0.6-0.8
		c-0.6,1.3-1,2.5-1,3.9c0,0.3,0,0.6,0,1C509.6,142.2,509.6,142.6,509.7,142.9z"/>
	<path class="st12" d="M512,130.9c0.8,2.1,1.6,4.2,2.3,6.4c0.2,0.3,0.4,0.5,0.6,0.8c0.8-1.8,2.2-3.2,4.2-3.7c0-1.2,0.1-2.4-0.1-3.5
		c-0.2-1.5-0.7-1.8-1.8-3.1c-0.3-0.4,0.4-0.7,0.6-0.8c1.6-0.5,0.8,0.3,1.2-0.8c0.2-0.6,0-1.8,0-2.5c0-3.2,0-6.3,0-9.5
		c0-16.9,0-33.8,0-50.7c-9.6-1.7-19.2-4.8-28.2-8.6c-0.8,2.6-1.5,5.1-2.3,7.7c-0.2,0.7-1.9,0.7-2.4,0.7c-4.2-0.2-8.2-1.9-11.3-4.7
		c-1,2.7-2.1,5.3-3.3,7.9c-0.3,0.8-2.1,0.8-2.8,0.7c-3.2-0.8-5.7-2.1-8-4.2c-1.2,1.4-2.3,3-3.3,4.7c-5.9,16.9-8.6,38.6,0.4,54.1
		c11.1,19.1,33.9,14.8,51.7,9C510.1,130.5,511.7,130.1,512,130.9z"/>
	<path class="st12" d="M523.2,147c0.4-1.3,0.5-2.7,0.5-4.1c0-1.5-0.1-3.5-0.8-5.1c-0.2-0.4-0.4-0.8-0.6-1.1
		c-0.2-0.3-0.4-0.5-0.6-0.7c-0.4-0.3-0.7-0.5-1-0.6c-0.4-0.1-0.7-0.1-1,0c-0.2,0.1-0.4,0.2-0.6,0.4c-1,0.9-1.5,3.2-1.7,5.2
		c0,0.1,0,0.3,0,0.4c0,0.5-0.1,0.9-0.1,1.3c0,0,0,0,0,0c0,0.1,0,0.2,0,0.3c0,0.4,0,0.8,0,1.1c0,0.1,0,0.1,0,0.2
		c0,0.3,0.1,0.7,0.1,1.1c0.1,0.7,0.3,1.3,0.6,2c0.2,0.5,0.5,1,0.9,1.4c0.1,0.1,0.1,0.1,0.2,0.2c0.2,0.2,0.4,0.3,0.6,0.5
		c0.4,0.2,0.9,0.4,1.4,0.3c0.3,0,0.5,0,0.7,0c0,0,0.1,0,0.1,0c0,0,0.2-0.2,0.3-0.6c0.2-0.4,0.4-0.9,0.6-1.4
		C523.1,147.4,523.2,147.1,523.2,147z"/>
	<path class="st12" d="M522.3,169.5c-0.2-0.5-0.4-0.9-0.7-1.2c-0.7-0.8-1.3-1-1.9-0.8c-0.2,0.1-0.4,0.2-0.6,0.4
		c-1.2,1.1-2,3.9-1.9,5.1c0,0.4,0.1,0.7,0.1,1.1v0c0.1,0.9,0.3,1.9,0.6,2.8c0.1,0.3,0.1,0.5,0.2,0.8c0,0.1,0.1,0.3,0.1,0.4
		c0,0,0,0,0,0.1c0.4,0.9,1,1.8,1.2,2.6c0,0,0,0,0,0c0.1,0.1,0.2,0.2,0.2,0.3c0.2,0.2,0.3,0.3,0.5,0.4c1.9-0.5,2.5-4.5,2.7-6.2
		c0,0,0,0,0,0c0-0.1,0-0.2,0-0.3c0-0.8,0.1-1.7,0-2.6C522.8,171.2,522.7,170.3,522.3,169.5z"/>
	<path class="st10" d="M457.8,62.7c0.5-0.6,1.1-1.1,1.6-1.6c0.2-0.2,0.5-0.3,0.8-0.4c0.8-0.3,1.8-0.3,2.3,0.1c2,2,3.9,3.4,6.4,4.4
		c1.4-3.1,2.7-6.2,3.7-9.4c0.2-0.8,2.8-1.1,3.3-0.5c2.4,3.1,5.9,5.5,9.7,6.3c0.8-2.8,1.7-5.6,2.5-8.4c0.3-0.9,2.5-0.8,3.1-0.6
		c8.9,3.9,18.3,7.2,27.9,9.1c0-3.8,0-7.6,0-11.4c0-0.1,0-0.1,0-0.2c0-0.2,0-0.4,0-0.6c0-0.3,0-0.6,0.1-1c0.1-1.7,0.4-3.7-0.1-5.1
		c-0.8-2.6-7.8-3.6-10.6-4.1c-15.3-1.8-32.2-1.5-43.9,10c-6.8,6.6-15.2,15.9-13.4,25.6c0.6-2.4,1.6-4.8,2.9-7
		C455.1,66,456.4,64.2,457.8,62.7z"/>
	<path class="st10" d="M526.9,143.6c0.2-3.2-0.4-8.4-4-9.3c0-32.4,0-64.7,0-97.1c0-8.1,0-16.2,0-24.3c0-0.8-3.2-0.5-3.2,0.5
		c0,9.2,0,18.4,0,27.6c-3-1.3-6-2.2-9.3-2.7c0,0-0.1,0-0.1,0c-0.1,0-0.2,0-0.3,0c-15.9-1.9-33.9-1.5-46.8,9.4
		c-9.4,8-21.3,21.5-12.9,34.1c0.1,0.1,0.2,0.2,0.4,0.2c0,0.1,0,0.1,0,0.2c-3.4,18.3-2.4,46.8,19.5,53.4c12.5,3.7,26.7,0.6,38.9-3.2
		c0.2,0.7,0.5,1.3,0.7,2c-0.4,0.1-0.8,0.4-1,0.6c-2,2.8-2.9,5.3-2.5,8.3c-3.6,2.8-6.7,6.7-7,11.2c-0.4,5.1,3.2,9.9,6.4,13.6
		c2.4,2.7,5.1,4.9,8.1,6.8c0.1,0.9,0.4,1.8,0.6,2.6c0.7,2.6,2.5,6.2,5.3,5.8c0,0.3,0,0.5,0,0.8c0,8.1,0,16.2,0,24.3
		c0,0.8,3.2,0.5,3.2-0.5c0-8.7,0-17.3,0-26c2.5-1.7,3.5-4.9,3.5-8.2c0-3.1-0.8-6.3-3.5-7.2c0-5.2,0-10.5,0-15.7
		C525.6,149.6,526.7,146.8,526.9,143.6z M464.5,49.4c11.7-11.4,28.6-11.8,43.9-10c2.8,0.4,9.8,1.4,10.6,4.1c0.4,1.4,0.2,3.4,0.1,5.1
		c0,0.3,0,0.7-0.1,1c0,0.2,0,0.4,0,0.6c0,0.1,0,0.1,0,0.2c0,3.8,0,7.6,0,11.4c-9.6-1.9-19-5.2-27.9-9.1c-0.6-0.3-2.8-0.3-3.1,0.6
		c-0.8,2.8-1.7,5.6-2.5,8.4c-3.9-0.8-7.3-3.2-9.7-6.3c-0.5-0.6-3-0.3-3.3,0.5c-1,3.2-2.3,6.3-3.7,9.4c-2.4-1-4.4-2.4-6.4-4.4
		c-0.4-0.4-1.5-0.4-2.3-0.1c-0.3,0.1-0.6,0.3-0.8,0.4c-0.6,0.5-1.1,1.1-1.6,1.6c-1.4,1.5-2.7,3.4-3.8,5.3c-1.2,2.2-2.2,4.6-2.9,7
		C449.2,65.3,457.7,56,464.5,49.4z M509.5,130.7c-17.8,5.8-40.6,10.1-51.7-9c-9-15.5-6.3-37.2-0.4-54.1c1-1.7,2.1-3.3,3.3-4.7
		c2.4,2,4.8,3.4,8,4.2c0.7,0.2,2.4,0.1,2.8-0.7c1.2-2.6,2.3-5.2,3.3-7.9c3.1,2.8,7.1,4.5,11.3,4.7c0.5,0,2.2,0,2.4-0.7
		c0.8-2.6,1.5-5.1,2.3-7.7c9.1,3.8,18.6,6.9,28.2,8.6c0,16.9,0,33.8,0,50.7c0,3.2,0,6.3,0,9.5c0,0.7,0.2,1.9,0,2.5
		c-0.4,1.1,0.5,0.3-1.2,0.8c-0.2,0.1-1,0.4-0.6,0.8c1.1,1.3,1.6,1.6,1.8,3.1c0.2,1.1,0.1,2.3,0.1,3.5c-2.1,0.5-3.4,1.9-4.2,3.7
		c-0.2-0.3-0.4-0.5-0.6-0.8c-0.8-2.1-1.6-4.2-2.3-6.4C511.7,130.1,510.1,130.5,509.5,130.7z M510.6,137.1c0.2,0.3,0.4,0.5,0.6,0.8
		c0.9,1.1,1.8,2.2,2.8,3.3c0.1,0.1,0.1,0.1,0.2,0.2c-0.1,0.8-0.1,1.6-0.1,2.5c0,0.4,0.1,0.8,0.1,1.2c0.2,1.6,0.7,2.9,1.5,3.9
		c-0.9,0.8-1.8,1.7-2.6,2.7c-1.1-2.1-2.1-4.3-2.9-6.6c-0.3-0.7-0.4-1.5-0.5-2.1c-0.1-0.3-0.1-0.7-0.1-1c0-0.3,0-0.6,0-1
		C509.6,139.6,510,138.3,510.6,137.1z M514.5,169.3c-0.4,0.7-0.7,1.5-0.8,2.3c-0.1,0-0.1-0.1-0.2-0.1c-0.6-0.5-1.3-1-1.9-1.6
		c0,0,0,0,0,0c-0.7-0.6-1.3-1.2-1.9-1.9c-3.3-3.5-7.2-8.2-7.2-13.3c0-3.5,1.9-6.8,4.4-9.4c0,0.1,0,0.1,0.1,0.2
		c1.1,3.1,2.6,6.1,4.2,8.9c0.4,0.8,2.7,0.1,3.1-0.4c0.2-0.2,0.4-0.5,0.6-0.7c0.7-0.9,1.5-2,2.4-3c0,0,0,0,0,0
		c0.5,0.3,1.2,0.5,1.8,0.6c0,0.8,0,1.5,0,2.3c0,4.4,0,8.8,0,13.2C517.3,166.8,515.5,167.7,514.5,169.3z M523,174.8
		c0,0.1,0,0.2,0,0.3c0,0,0,0,0,0c-0.2,1.7-0.8,5.8-2.7,6.2c-0.2-0.1-0.4-0.3-0.5-0.4c-0.1-0.1-0.2-0.2-0.2-0.3c0,0,0,0,0,0
		c-0.2-0.8-0.8-1.8-1.2-2.6c0,0,0,0,0-0.1c-0.1-0.1-0.1-0.3-0.1-0.4c-0.1-0.3-0.1-0.5-0.2-0.8c-0.3-0.9-0.5-1.8-0.6-2.8v0
		c-0.1-0.4-0.1-0.7-0.1-1.1c-0.1-1.3,0.7-4.1,1.9-5.1c0.2-0.2,0.4-0.3,0.6-0.4c0.6-0.2,1.2,0,1.9,0.8c0.3,0.4,0.5,0.8,0.7,1.2
		c0.3,0.8,0.5,1.7,0.6,2.7C523,173.1,523,174,523,174.8z M522.3,149c-0.2,0.3-0.3,0.6-0.3,0.6c0,0-0.1,0-0.1,0c-0.2,0-0.4,0-0.7,0
		c-0.5,0.1-1,0-1.4-0.3c-0.2-0.1-0.4-0.3-0.6-0.5c-0.1-0.1-0.1-0.1-0.2-0.2c-0.3-0.4-0.6-0.9-0.9-1.4c-0.3-0.6-0.5-1.3-0.6-2
		c-0.1-0.4-0.1-0.7-0.1-1.1c0,0,0-0.1,0-0.2c0-0.3,0-0.6,0-1.1c0-0.1,0-0.2,0-0.3c0,0,0,0,0,0c0-0.4,0-0.9,0.1-1.3
		c0-0.1,0-0.3,0-0.4c0.2-2,0.7-4.3,1.7-5.2c0.2-0.2,0.4-0.3,0.6-0.4c0.3-0.1,0.6-0.1,1,0c0.3,0.1,0.6,0.3,1,0.6
		c0.2,0.2,0.4,0.4,0.6,0.7c0.2,0.3,0.4,0.7,0.6,1.1c0.7,1.6,0.8,3.7,0.8,5.1c0,1.4-0.1,2.8-0.5,4.1c0,0.1-0.1,0.4-0.3,0.7
		C522.7,148.1,522.5,148.6,522.3,149z"/>
</g>
<g>
	<path d="M372.6,156.1c-0.1-0.5-0.1-1-0.1-1.5c-0.2,0.5-0.4,0.9-0.6,1.3c-0.1,0.1-0.2,0.2-0.4,0.2c-0.1,0-0.2,0-0.3-0.1
		c-0.1-0.1-0.2-0.2-0.2-0.3c0-0.1,0-0.2,0.1-0.3c0.9-1.4,1.5-3.2,1.7-4.9c0-0.2,0.2-0.3,0.3-0.4c0,0,0.1,0,0.2,0
		c0.2,0,0.4,0.1,0.4,0.3c0,0,0,0.1,0,0.1c-0.1,0.8-0.3,1.6-0.6,2.4l0.9,7.9c0,0.2-0.1,0.4-0.4,0.4c-0.3,0-0.5-0.1-0.5-0.3
		L372.6,156.1z M379,157.7c0.9,0.9,2.1,1.4,3.7,1.5c0.2,0,0.4,0.2,0.4,0.4c0,0,0,0.1,0,0.2c0,0.3-0.2,0.4-0.4,0.4c0,0-0.1,0-0.2,0
		c-1.6-0.2-3.1-0.9-4.1-2c-0.1,0.3-0.2,0.6-0.4,0.8c-0.7,1-1.7,1.6-2.8,2.1c-0.1,0-0.1,0-0.2,0c-0.2,0-0.4-0.1-0.5-0.3
		c0-0.1,0-0.1,0-0.2c0-0.2,0.1-0.4,0.3-0.4c1.1-0.4,2-1,2.5-1.7c0.1-0.2,0.2-0.4,0.3-0.6l-2.9,0.3c-0.2,0-0.3-0.1-0.3-0.3
		c0-0.2,0.1-0.4,0.2-0.4l3.2-0.4c0-0.3,0-0.6,0-0.9l-2.6,0.3c-0.2,0-0.3-0.1-0.3-0.3c0-0.2,0.1-0.4,0.3-0.4l2.7-0.3
		c0-0.3,0-0.5-0.1-0.8l-3.1,0.4c-0.2,0-0.3-0.1-0.3-0.3c0-0.2,0.1-0.4,0.3-0.4l1.9-0.2c-0.2-0.4-0.4-0.9-0.7-1.2l-1.4,0.2
		c-0.2,0-0.3-0.1-0.4-0.3c0-0.2,0.1-0.4,0.3-0.4l2.5-0.3l-0.2-1.9c0-0.2,0.1-0.3,0.3-0.3c0.2,0,0.4,0,0.5,0.2l0.2,1.9l0.9-0.1
		l-0.2-1.9c0-0.2,0.1-0.3,0.3-0.3c0.3,0,0.4,0,0.5,0.2l0.2,1.9l2.6-0.3c0.2,0,0.4,0.1,0.4,0.4c0,0.2-0.1,0.4-0.3,0.4l-1.6,0.2
		c-0.2,0.5-0.3,0.9-0.5,1.4l2-0.2c0.2,0,0.3,0.1,0.3,0.3c0,0.2-0.1,0.4-0.3,0.4l-3.3,0.4c0,0.3,0.1,0.5,0.1,0.8l2.9-0.3
		c0.2,0,0.3,0.1,0.3,0.3c0,0.2-0.1,0.4-0.2,0.4l-3,0.3c0,0.3,0,0.6,0,0.9l3.7-0.4c0.2,0,0.3,0.1,0.3,0.3c0,0.2-0.1,0.4-0.3,0.4
		L379,157.7z M374.7,150.2c0.1,0,0.3,0,0.4,0.1c0.3,0.3,0.6,0.7,0.8,1c0,0.1,0.1,0.1,0.1,0.2c0,0.1-0.1,0.3-0.2,0.3
		c-0.1,0-0.1,0.1-0.2,0.1c-0.1,0-0.3,0-0.3-0.2c-0.2-0.3-0.5-0.7-0.8-0.9c-0.1-0.1-0.1-0.1-0.1-0.2c0-0.1,0-0.2,0.2-0.3
		C374.5,150.3,374.6,150.2,374.7,150.2z M378.8,153.9c0.2-0.4,0.4-0.9,0.5-1.4l-2.7,0.3c0.3,0.4,0.5,0.8,0.7,1.2L378.8,153.9z
		 M381.2,149.9c0,0,0,0.1,0,0.2c-0.1,0.4-0.4,0.8-0.7,1.2c-0.1,0.1-0.2,0.2-0.3,0.2c-0.1,0-0.2,0-0.2,0c-0.1,0-0.2-0.1-0.2-0.3
		c0-0.1,0-0.2,0.1-0.3c0.2-0.3,0.5-0.7,0.6-1.1c0.1-0.2,0.2-0.2,0.3-0.3c0.1,0,0.1,0,0.2,0C381.1,149.6,381.2,149.7,381.2,149.9z"/>
	<path d="M388.5,155.3c-0.3,1.3-0.6,1.9-0.9,2.3c-0.3,0.4-0.8,0.6-1.3,0.7c-1.2,0.1-2.4-0.9-2.6-2.9c-0.3-3,1.5-5.4,4.7-5.7
		c2.8-0.3,4.9,1.3,5.2,3.9c0.2,1.7-0.4,3-1.5,4c-0.6,0.5-1.5,0.9-2.4,1.1c0,0-0.1,0-0.1,0c-0.2,0-0.5-0.1-0.5-0.4c0,0,0-0.1,0-0.1
		c0-0.2,0.1-0.4,0.4-0.5c0.9-0.2,1.7-0.6,2.3-1.1c0.7-0.6,1.1-1.7,1-2.9c-0.2-2-1.7-3.3-3.8-3.2C388.9,152.3,388.8,154,388.5,155.3z
		 M384.7,155.2c0.2,1.4,0.9,2.1,1.5,2c0.3,0,0.5-0.2,0.8-0.4c0.2-0.3,0.4-0.8,0.6-1.7c0.2-1.2,0.3-2.8,0.2-4.5
		C385.6,151.1,384.4,152.9,384.7,155.2z"/>
	<path d="M404.5,151.2c0.3,0,0.5,0.2,0.5,0.4c0,0.3-0.1,0.5-0.4,0.5l-3.7,0.4c0,0.2,0,0.4,0,0.6c0.1,2.4-1.2,4-3.3,4.9
		c-0.1,0-0.2,0.1-0.3,0.1c-0.2,0-0.3,0-0.4-0.2c0-0.1-0.1-0.1-0.1-0.2c0-0.2,0.1-0.4,0.3-0.5c1.7-0.8,2.8-1.9,2.7-4.1
		c0-0.1,0-0.2,0-0.3l-4.6,0.5c-0.3,0-0.5-0.2-0.5-0.4c0-0.2,0.1-0.5,0.4-0.5l4.6-0.5c-0.1-0.7-0.1-1.5-0.2-2.1
		c-1.3,0.3-2.8,0.6-3.8,0.8c-0.3,0-0.5-0.1-0.5-0.4c0,0,0,0,0,0c0-0.2,0.1-0.5,0.4-0.5c1.1-0.1,2.7-0.5,3.9-0.8
		c1.1-0.3,2.4-0.8,3.3-1.2c0.1,0,0.2-0.1,0.2-0.1c0.2,0,0.3,0.1,0.5,0.2c0,0.1,0.1,0.2,0.1,0.2c0,0.2-0.1,0.4-0.3,0.5
		c-0.7,0.4-1.8,0.8-2.8,1.1c0.1,0.8,0.2,1.6,0.2,2.3L404.5,151.2z"/>
	<path d="M412.9,150c0-0.3-0.1-0.4-0.5-0.4l-5.1,0.6c-0.2,0-0.4-0.2-0.4-0.4c0-0.2,0.1-0.5,0.3-0.5l5.5-0.6c0.7-0.1,1.1,0.2,1.2,1
		l0.6,5c0.1,0.7-0.2,1.1-0.9,1.2l-5.6,0.6c-0.2,0-0.4-0.2-0.4-0.4c0-0.3,0.1-0.5,0.3-0.5l5.2-0.6c0.3,0,0.4-0.1,0.4-0.5l-0.2-1.9
		l-5.3,0.6c-0.2,0-0.4-0.2-0.4-0.4c0-0.2,0.1-0.5,0.3-0.5l5.3-0.6L412.9,150z"/>
	<path d="M423.6,145.9c0.9-0.1,1.4,0.3,1.5,1.3l0.6,5.2c0.1,1-0.3,1.5-1.2,1.6l-6.8,0.8c-0.3,0-0.5-0.1-0.5-0.5
		c0-0.3,0.1-0.5,0.4-0.6l6.4-0.7c0.5-0.1,0.6-0.2,0.5-0.6l-0.6-4.9c0-0.4-0.2-0.5-0.6-0.5l-6.3,0.7c-0.3,0-0.5-0.1-0.5-0.4
		c0-0.3,0.1-0.5,0.4-0.6L423.6,145.9z"/>
	<path d="M432,148.8c0.7-0.1,1.3-0.2,1.8-0.3c0,0,0.1,0,0.1,0c0.3,0,0.4,0.1,0.5,0.4c0,0,0,0,0,0.1c0,0.2-0.1,0.4-0.4,0.5
		c-0.6,0.1-1.2,0.2-1.9,0.3c-0.4,0-0.8,0.1-1.1,0.1c0,0.6,0,1.1,0,1.6c0.1,0.6,0.3,1,0.7,1.2c0.5,0.3,1.1,0.4,2,0.3
		c1.8-0.2,2.7-1.1,2.6-2.3c-0.1-0.7-0.4-1.3-0.9-1.8c-0.1-0.1-0.1-0.2-0.1-0.3c0-0.1,0.1-0.3,0.2-0.4c0.1-0.1,0.2-0.1,0.3-0.1
		c0.1,0,0.3,0,0.4,0.2c0.7,0.6,1.1,1.5,1.2,2.3c0.2,1.9-1.1,3.2-3.4,3.4c-1.1,0.1-2,0-2.6-0.4c-0.6-0.4-1-1-1.1-2
		c-0.1-0.4-0.1-0.9-0.1-1.6c-0.7,0-1.4,0-2,0c-0.2,0-0.4-0.2-0.4-0.4c0,0,0-0.1,0-0.1c0-0.3,0.2-0.4,0.4-0.4c0,0,0.1,0,0.1,0
		c0.6,0,1.3,0,2,0c0-0.7,0.1-1.4,0.1-2c-0.8,0-1.5,0-2.1,0c-0.2,0-0.4-0.2-0.4-0.4c0,0,0-0.1,0-0.1c0-0.2,0.1-0.4,0.4-0.4
		c0,0,0.1,0,0.1,0c0.6,0,1.3,0,2.2,0c0-0.5,0.1-1.1,0.1-1.7c0-0.3,0.2-0.4,0.4-0.4c0,0,0.1,0,0.1,0c0.3,0,0.4,0.2,0.4,0.4
		c0,0,0,0.1,0,0.1c-0.1,0.5-0.1,1-0.1,1.5c0.2,0,0.3,0,0.5-0.1c0.7-0.1,1.4-0.2,2.1-0.3c0,0,0,0,0,0c0.2,0,0.4,0.1,0.5,0.4
		c0,0,0,0,0,0c0,0.3-0.1,0.5-0.3,0.5c-0.7,0.1-1.4,0.3-2,0.3c-0.3,0-0.6,0.1-0.9,0.1c-0.1,0.7-0.1,1.4-0.1,2
		C431.3,148.8,431.7,148.8,432,148.8z"/>
	<path d="M383.1,164.9c0.2,0,0.4,0.2,0.4,0.4c0,0.2-0.1,0.4-0.3,0.5l-7.7,0.9l0.2,1.6c0,0.3,0.2,0.4,0.8,0.4c0.6,0,1.6-0.1,2.3-0.2
		c1.1-0.1,2.5-0.3,3.7-0.6c0,0,0,0,0.1,0c0.2,0,0.4,0.1,0.5,0.3c0,0,0,0,0,0.1c0,0.2-0.1,0.4-0.3,0.5c-1.3,0.3-2.7,0.5-4,0.6
		c-1.2,0.1-2,0.2-2.7,0.2c-0.9,0-1.2-0.3-1.2-0.9l-0.2-1.9l-1.4,0.2c-0.2,0-0.4-0.1-0.4-0.4c0-0.2,0.1-0.4,0.3-0.5l4.5-0.5l-0.1-1
		c0-0.2,0.1-0.4,0.4-0.4c0.3,0,0.5,0.1,0.5,0.3l0.1,1L383.1,164.9z M375.4,171.4c0,0,0,0.1,0,0.1c-0.1,1.1-0.5,2.3-0.9,3
		c-0.1,0.2-0.3,0.3-0.4,0.3c-0.1,0-0.2,0-0.3-0.1c-0.1-0.1-0.2-0.2-0.2-0.3c0-0.1,0-0.2,0.1-0.3c0.4-0.7,0.7-1.7,0.9-2.7
		c0-0.2,0.2-0.3,0.4-0.3c0,0,0.1,0,0.1,0C375.3,171.1,375.4,171.2,375.4,171.4z M376.3,171c0-0.2,0.1-0.4,0.4-0.4
		c0.3,0,0.5,0.1,0.5,0.3l0.3,2.8c0,0.4,0.2,0.5,1.7,0.3c1.3-0.2,1.7-0.3,1.8-0.5c0.1-0.2,0.2-0.5,0.1-1c0-0.2,0.1-0.4,0.3-0.4
		c0,0,0.1,0,0.1,0c0.3,0,0.4,0.1,0.5,0.3c0,0,0,0,0,0c0,0.6-0.1,1.1-0.2,1.5c-0.2,0.5-0.8,0.7-2.2,0.9c-0.2,0-0.3,0-0.5,0.1
		c-0.9,0.1-1.6,0.1-2,0c-0.3-0.1-0.5-0.3-0.5-0.8L376.3,171z M378.5,170.1c0.1,0,0.3,0,0.4,0.1c0.5,0.4,1.1,1,1.5,1.4
		c0.1,0.1,0.1,0.2,0.1,0.3c0,0.2-0.1,0.3-0.2,0.4c-0.1,0.1-0.2,0.1-0.3,0.1c-0.1,0-0.3,0-0.4-0.1c-0.4-0.5-1-1-1.5-1.5
		c-0.1,0-0.1-0.1-0.1-0.2c0-0.1,0-0.3,0.2-0.4C378.3,170.1,378.4,170.1,378.5,170.1z M382,170.2c0.1,0,0.3,0,0.4,0.1
		c0.6,0.7,1.6,1.9,2,2.6c0,0.1,0.1,0.1,0.1,0.2c0,0.2-0.1,0.4-0.2,0.5c-0.1,0-0.2,0.1-0.2,0.1c-0.2,0-0.3,0-0.4-0.2
		c-0.4-0.7-1.2-1.8-1.9-2.5c-0.1-0.1-0.1-0.1-0.1-0.2c0-0.1,0-0.3,0.2-0.3C381.8,170.2,381.9,170.2,382,170.2z"/>
	<path d="M387.9,166.5c0,0.2,0,0.4,0.1,0.6c0,0.2,0,0.3,0,0.5c0.1-0.2,0.2-0.4,0.3-0.5c0.3-0.4,0.6-0.8,0.9-1.1
		c0.9-0.9,1.7-1.4,2.6-1.5c1.1-0.1,1.8,0.5,2,1.5c0.1,0.6,0.1,1.1,0,2c-0.1,1.4-0.1,2.2-0.1,2.6c0.1,0.6,0.3,0.8,0.7,0.7
		c0.5-0.1,0.8-0.4,1-1.4c0-0.2,0.2-0.4,0.4-0.4c0.1,0,0.1,0,0.2,0c0.2,0,0.3,0.2,0.4,0.4c0,0.1,0,0.1,0,0.2
		c-0.3,1.5-0.9,2.1-1.9,2.2c-0.9,0.1-1.6-0.3-1.8-1.5c-0.1-0.6-0.1-1.4,0-2.7c0.1-0.9,0.1-1.5,0-1.9c-0.1-0.6-0.4-0.9-1-0.8
		c-0.7,0.1-1.3,0.5-2.2,1.5c-0.4,0.4-0.9,1.1-1.4,1.8c0,0.5,0.1,0.9,0.1,1.4c0.1,1.1,0.3,2.2,0.4,3.4c0,0.3-0.1,0.4-0.4,0.5
		c0,0,0,0,0,0c-0.2,0-0.5-0.1-0.5-0.4c-0.1-0.7-0.2-1.4-0.2-2c0-0.3-0.1-0.5-0.1-0.7c0-0.3-0.1-0.7-0.1-1.1
		c-0.1,0.3-0.2,0.4-0.3,0.6c-0.3,0.5-0.6,1.1-0.9,1.5c-0.1,0.2-0.2,0.2-0.4,0.3c-0.1,0-0.2,0-0.3-0.1c-0.1-0.1-0.2-0.2-0.2-0.3
		c0-0.1,0-0.3,0.1-0.4c0.5-0.9,1.2-1.9,1.8-2.8c-0.1-0.6-0.1-1.2-0.2-1.9c-0.5,0.1-1.1,0.2-1.7,0.4c0,0,0,0,0,0
		c-0.2,0-0.4-0.1-0.5-0.3c0,0,0,0,0-0.1c0-0.3,0.1-0.5,0.3-0.5c0.6-0.1,1.2-0.2,1.8-0.4c-0.1-0.6-0.1-1.2-0.1-1.8
		c0-0.3,0.1-0.5,0.4-0.5c0,0,0,0,0,0c0.3,0,0.5,0.1,0.5,0.4c0,0,0,0,0,0c0,0.6,0.1,1.1,0.1,1.7c0,0,0,0,0,0c0.3,0,0.5,0.1,0.5,0.3
		c0,0.1,0,0.3-0.1,0.4L387.9,166.5z"/>
	<path d="M398.2,170.4c-0.1,0.2-0.2,0.3-0.4,0.4c-0.1,0-0.2,0-0.3-0.1c-0.2-0.1-0.3-0.2-0.3-0.4c0-0.1,0-0.2,0.1-0.4
		c0.7-1.5,1.3-3.3,1.6-4.9c-0.4,0.1-0.9,0.1-1.4,0.2c-0.1,0-0.3,0-0.5,0.1c-0.3,0-0.4-0.1-0.5-0.4s0.1-0.5,0.4-0.5
		c0.2,0,0.3,0,0.5-0.1c0.5-0.1,1-0.1,1.6-0.2c0.1-0.6,0.2-1.2,0.2-1.8c0-0.3,0.2-0.4,0.4-0.4c0,0,0.1,0,0.1,0c0.3,0,0.4,0.1,0.5,0.4
		c0,0,0,0.1,0,0.2c-0.1,0.5-0.1,1-0.2,1.6c0.6-0.1,1.1-0.2,1.6-0.4c0,0,0.1,0,0.1,0c0.2,0,0.4,0.1,0.5,0.3c0,0,0,0,0,0.1
		c0,0.2-0.1,0.4-0.4,0.5c-0.6,0.2-1.3,0.3-2,0.5C399.5,166.8,398.9,168.8,398.2,170.4z M407.3,169.7c0.1,0.1,0.2,0.2,0.2,0.4
		c0,0.1,0,0.2-0.1,0.3c-0.1,0.1-0.2,0.2-0.3,0.2c-0.1,0-0.3,0-0.4-0.1c-0.5-0.4-1.2-0.8-1.7-1.1c0,0.1,0.1,0.3,0.1,0.4
		c0.1,1.3-0.7,2-2.3,2.2c-1.5,0.2-2.6-0.5-2.7-1.6c-0.1-1.1,0.8-2.1,2.3-2.3c0.5-0.1,1,0,1.5,0c-0.1-0.7-0.3-1.6-0.4-2.4
		c0-0.3,0.1-0.5,0.4-0.5c0.3,0,0.5,0.1,0.5,0.4c0.1,1,0.3,1.9,0.5,2.7C405.7,168.7,406.6,169.1,407.3,169.7z M402.5,169
		c-1,0.1-1.5,0.6-1.4,1.3s0.7,1,1.7,0.8c1-0.1,1.5-0.6,1.4-1.4c0-0.2,0-0.4-0.1-0.6C403.5,169,403,168.9,402.5,169z M406.4,164.1
		c0.2,0.1,0.3,0.3,0.3,0.4c0,0.1,0,0.2,0,0.3c-0.1,0.2-0.2,0.3-0.4,0.3c-0.1,0-0.2,0-0.3-0.1c-0.8-0.4-1.7-0.8-2.6-1
		c-0.2,0-0.2-0.2-0.3-0.3c0-0.1,0-0.2,0-0.3c0.1-0.2,0.2-0.3,0.4-0.3c0.1,0,0.1,0,0.2,0C404.7,163.3,405.7,163.7,406.4,164.1z"/>
	<path d="M408.8,161.9c0.4,0,0.5,0.1,0.5,0.4c0.1,0.5,0.1,1,0.2,1.5c0.1,0.8,0.2,1.5,0.3,2c0.3,1.4,0.6,2.3,1,3
		c0.2,0.3,0.5,0.5,0.8,0.5c0.3,0,0.5-0.2,0.6-0.4c0.2-0.4,0.4-1,0.4-1.9c0-0.3,0.1-0.4,0.4-0.5c0,0,0.1,0,0.1,0
		c0.3,0,0.5,0.1,0.5,0.4c0,0,0,0.1,0,0.1c0,1.1-0.3,2-0.6,2.5c-0.3,0.5-0.8,0.8-1.2,0.9c-0.5,0.1-1.1-0.1-1.5-0.7
		c-0.6-0.7-1.1-2-1.4-3.7c-0.2-0.9-0.4-2.3-0.5-3.6C408.3,162.1,408.5,161.9,408.8,161.9z M415.5,161.7c0.2,0,0.3,0,0.4,0.2
		c1.3,1.4,2.4,3.7,2.8,5.7c0,0,0,0.1,0,0.1c0,0.3-0.1,0.5-0.4,0.6c0,0-0.1,0-0.1,0c-0.3,0-0.5-0.1-0.5-0.4c-0.4-2-1.4-4-2.6-5.4
		c-0.1-0.1-0.1-0.2-0.1-0.3c0-0.2,0.1-0.3,0.2-0.4C415.3,161.7,415.4,161.7,415.5,161.7z"/>
	<path d="M425.6,160.8c-0.6,0.2-1.1,0.3-1.5,0.4c-1.7,0.3-3.3,0.7-4.8,1c0,0,0,0-0.1,0c-0.3,0-0.5-0.1-0.6-0.4l0,0
		c0-0.3,0.1-0.5,0.4-0.6c2.9-0.6,6-1.1,8.9-1.6l0,0c0.3,0,0.5,0.1,0.6,0.4l0,0c0,0.2-0.1,0.5-0.4,0.6c-0.2,0-0.4,0.1-0.7,0.2
		c-2.5,0.7-4.1,2.6-3.9,4.6c0.1,1.2,0.9,1.8,1.8,2.1c0.7,0.2,1.5,0.3,2.3,0.2c0.3,0,0.5,0.2,0.6,0.4c0,0,0,0,0,0.1
		c0,0.3-0.2,0.6-0.5,0.6c-1,0.1-2,0-2.7-0.2c-1.3-0.5-2.2-1.4-2.4-3C422.3,163.7,423.4,161.9,425.6,160.8L425.6,160.8z M426.8,162.4
		c0.1,0,0.2,0,0.3,0.1c0.4,0.3,0.9,0.8,1.2,1.2c0,0.1,0.1,0.1,0.1,0.3c0,0.2-0.1,0.4-0.4,0.4c-0.1,0-0.2,0-0.3-0.2
		c-0.3-0.4-0.7-0.9-1.1-1.2c-0.1-0.1-0.1-0.2-0.2-0.3C426.5,162.6,426.6,162.4,426.8,162.4z M428,161.5c0.1,0,0.2,0,0.3,0.1
		c0.3,0.3,0.9,0.8,1.1,1.2c0,0.1,0.1,0.2,0.1,0.3c0,0.1-0.1,0.4-0.3,0.4c-0.1,0-0.2,0-0.3-0.2c-0.3-0.4-0.7-0.9-1-1.2
		c-0.1-0.1-0.2-0.1-0.2-0.3C427.7,161.7,427.8,161.5,428,161.5z"/>
	<path d="M433.3,161.2c0,0.2,0,0.5,0.1,0.6c0,0.2,0,0.3,0,0.6c0.1-0.2,0.2-0.3,0.2-0.4c1.4-1.7,2.4-2.4,3.6-2.5
		c1.7-0.2,2.9,1,3.2,3.5c0.1,0.7,0.1,1.4,0,1.9c0.5,0.3,1,0.6,1.3,1c0.1,0.1,0.2,0.2,0.2,0.3c0,0.1,0,0.3-0.1,0.4
		c-0.1,0.1-0.2,0.2-0.3,0.2c-0.1,0-0.3,0-0.4-0.1c-0.3-0.3-0.6-0.5-0.9-0.8c-0.4,1.1-1.2,1.7-2.4,1.8c-1.3,0.1-2.3-0.5-2.4-1.5
		c-0.1-1,0.7-1.9,2-2.1c0.7-0.1,1.4,0.1,2.1,0.4c0-0.4,0-0.9-0.1-1.4c-0.2-1.8-1-2.8-2.2-2.6c-1,0.1-2,0.7-3.8,3.1
		c0.2,1.5,0.4,3,0.6,4.6c0,0.3-0.2,0.5-0.4,0.5c-0.2,0-0.5-0.1-0.5-0.4c0-0.3-0.1-0.6-0.1-0.9c-0.1-0.8-0.2-1.5-0.2-2.1
		c0-0.2,0-0.5,0-0.8c-0.1,0.2-0.2,0.4-0.3,0.6c-0.3,0.5-0.6,1.1-0.9,1.5c-0.1,0.1-0.2,0.2-0.3,0.2c-0.1,0-0.2,0-0.4-0.1
		c-0.1-0.1-0.2-0.2-0.2-0.3c0-0.1,0-0.3,0.1-0.4c0.4-0.7,1.1-1.7,1.8-2.7c-0.1-0.7-0.1-1.3-0.2-2c-0.5,0.1-1.2,0.2-1.7,0.3
		c0,0,0,0,0,0c-0.2,0-0.4-0.1-0.5-0.4c0,0,0,0,0,0c0-0.3,0.1-0.5,0.3-0.5c0.6-0.1,1.2-0.3,1.8-0.4c0-0.6-0.1-1.2-0.1-1.8
		c0-0.3,0.1-0.5,0.4-0.5c0,0,0,0,0,0c0.3,0,0.5,0.1,0.5,0.4c0,0,0,0,0,0c0,0.6,0.1,1.1,0.1,1.7c0.3,0,0.4,0.1,0.5,0.3
		c0,0.1,0,0.3-0.1,0.4L433.3,161.2z M437.5,165c-0.8,0.1-1.2,0.6-1.1,1.1c0.1,0.5,0.6,0.8,1.3,0.8c0.8-0.1,1.5-0.5,1.7-1.5
		C438.8,165,438.2,164.9,437.5,165z"/>
</g>
<path class="st7" d="M417.5,108.1c0,3.4-2.7,6.2-6.2,6.2h-47.3c-3.4,0-6.2-2.7-6.2-6.2V60.5c0-3.4,2.7-6.2,6.2-6.2h47.3
	c3.4,0,6.2,2.7,6.2,6.2C417.5,60.5,417.5,108.1,417.5,108.1z"/>
<path class="st14" d="M413.8,105.3c0,3-2.5,5.5-5.5,5.5h-41.6c-3,0-5.5-2.5-5.5-5.5V63.3c0-3,2.5-5.5,5.5-5.5h42.1
	c3,0,5.5,2.5,5.5,5.5L413.8,105.3L413.8,105.3z"/>
<g>
	<g>
		<path class="st2" d="M377.7,85.4h-5.3v-7.1h-7.1v-5.3h7.1V66h5.3v7.1h7.1v5.3h-7.1V85.4z"/>
	</g>
	<g>
		<path class="st2" d="M402.4,93.7c0,0.5,0,0.7,0,0.9c0,1.8,0.2,2.3,0.9,2.3c0.7,0,1.8-0.7,2.7-1.8l2.3,4.1c-1.1,1.1-1.8,1.6-3,2.3
			c-1.4,0.5-2.7,0.9-3.9,0.9c-1.4,0-2.3-0.2-3.2-0.9c-0.5-0.5-0.9-0.9-1.1-2.1c-1.4,1.1-1.8,1.8-3,2.3c-1.4,0.7-2.7,0.9-4.3,0.9
			c-5.7,0-8.9-3.2-8.9-8.9c0-8.2,5.5-14.2,13-14.2c2.5,0,4.3,0.7,5.5,1.8c0.7,0.7,0.9,1.4,1.4,3.4l0.7-1.4c0.5-0.9,0.9-2.1,1.1-3
			h6.9c-0.5,0.9-0.9,1.8-2.3,4.1L402.4,93.7z M396.2,88.9c0-2.7-0.9-3.9-2.7-3.9s-3.7,1.1-4.8,3.4c-0.7,1.4-1.1,3.2-1.1,5
			c0,2.5,1.1,3.9,3.7,3.9c0.9,0,1.8-0.2,2.7-0.9c0.5-0.5,0.9-0.7,1.4-1.4c0.5-0.5,1.1-1.4,1.1-1.4C396.2,92.1,396.2,90,396.2,88.9z"
			/>
	</g>
</g>
<g>
	<path class="st2" d="M22.4,160.3c0-0.5,0-0.6,0-1c-0.4,1-0.7,1.7-1.1,2.7v12.6c0,0.9,0,1.4,0.1,2.4h-3.3c0.1-0.9,0.1-1.5,0.1-2.4
		v-5.5c0-0.2,0-1.3,0-2.1c-0.1,0.2-0.2,0.3-0.3,0.4c-0.4,0.5-0.4,0.6-0.8,1c-0.3-1.5-0.5-2.4-1-3.8c1.2-1.2,2.1-2.7,2.8-4.8
		c0.4-1.2,0.6-2,0.7-2.8l2.7,0.9v0c0.8,0.1,1.5,0.1,2.8,0.1h7.7c1.7,0,2.3,0,3-0.1c-0.1,0.7-0.1,1.4-0.1,2.9v13.2c0,1.6,0,2.2,0.1,3
		h-3v-0.8h-7.5v0.8h-3c0.1-0.7,0.1-1.5,0.1-2.7V160.3z M25.3,173.2h7.5v-12.4h-7.5V173.2z M30.9,166c0.4,0,0.8,0,1.2,0
		c0,0.3,0,0.5,0,1.2v4.1c0,0.8,0,1,0,1.2c0,0-0.1,0-0.1,0c-0.1,0-0.4,0-1,0h-3.7c-0.4,0-0.7,0-1.2,0c0-0.3,0-0.5,0-1.2v-4.1
		c0-0.7,0-0.9,0-1.2c0.4,0,0.7,0,1.2,0h0.4v-1h-1c-0.3,0-0.6,0-0.9,0.1v-2.9c0.3,0.1,0.5,0.1,0.9,0.1h0.9v-0.2c0-0.4,0-0.6-0.1-0.9
		h2.9c-0.1,0.3-0.1,0.5-0.1,0.9v0.2h0.9c0.4,0,0.7,0,1-0.1v2.9c-0.3,0-0.5-0.1-0.9-0.1h-1v1H30.9z M28.4,170h1.3v-1.5h-1.3V170z"/>
	<path class="st2" d="M49.3,157.6c-0.1,0.4-0.1,0.9-0.1,1.7c0,2.3,0.3,4.7,0.9,6.2c0.7,2.2,2.1,4.2,3.9,5.9c1.2,1,2.1,1.6,3.7,2.4
		c-1,1.1-1.4,1.8-2.1,3.3c-2.3-1.4-3.8-2.7-5.1-4.3c-1.3-1.5-2.1-3-2.8-5.2c-0.9,2.8-1.8,4.3-3.4,6c-1.3,1.4-2.7,2.4-4.5,3.5
		c-0.7-1.4-1-1.9-2.1-3.1c3.1-1.6,4.9-3.1,6.1-5.4c1.3-2.3,2-5.5,2-9.3c0-0.7,0-1.1-0.1-1.6H49.3z"/>
	<path class="st2" d="M70.9,171.7c-0.6-2.2-1.3-3.7-2.2-5.3c-0.1,0.1-0.2,0.2-0.3,0.4c-0.5-0.5-0.6-0.7-1-1.1v8c0,0.7,0,1.3,0.1,2
		h-3v-1.2h-2v1.9h-3.2c0.1-0.7,0.1-1.6,0.1-2.9v-11.2c0-1.3,0-1.7-0.1-2.3c0.6,0.1,0.7,0.1,1.8,0.1h0.5c0.4-1.1,0.7-1.8,0.9-2.9
		l3.3,0.4c-0.6,1.5-0.6,1.5-1.1,2.5h0.9c0.7,0,1.3,0,1.8-0.1c0,0.2,0,0.2-0.1,0.7c0,0,0,0.5,0,1.1v1.2c0.8-1.2,1.7-2.9,2.2-4.3
		c0.2-0.5,0.3-1,0.4-1.5l3.3,0.5c-0.1,0.2-0.3,0.6-0.4,1c-0.2,0.6-0.2,0.7-0.4,1.2h3.9c0.9,0,1.3,0,1.8-0.1
		c-0.1,0.6-0.1,0.9-0.1,1.4c0,0.8,0,1.3-0.1,6.6c-0.1,2.4-0.3,4.9-0.5,6.1c-0.3,1.6-0.7,2.2-1.6,2.6c-0.6,0.3-1.8,0.4-3.1,0.4
		c-0.4,0-0.9,0-1.6,0c-0.1-1.3-0.3-2-0.8-3.3c1.2,0.1,1.8,0.2,2.4,0.2c1,0,1.3-0.2,1.5-0.8c0.4-1.1,0.5-4,0.6-10H71
		c-0.7,1.3-1.4,2.3-2.2,3.2l2.7-1.2c1,1.8,1.7,3.2,2.5,5.2L70.9,171.7z M62.4,165.8h2V163h-2V165.8z M62.4,171.7h2v-3.1h-2V171.7z"
		/>
	<path class="st2" d="M85.8,158.4c-0.8,2.4-1.4,6.3-1.6,10.1l1.6,0.5c-0.5,1.9-0.8,3.8-0.8,5.9c0,0.4,0,0.6,0.1,1l-3.6,0.2
		c0-0.4,0-0.6-0.1-1.1c-0.4-2.8-0.5-4.6-0.5-6.6c0-2.4,0.3-5.1,0.8-8.1c0.3-1.5,0.3-1.6,0.3-2.2L85.8,158.4z M91.6,167.6
		c-1,1.2-1.4,2.1-1.4,2.9c0,1,0.9,1.5,2.7,1.5c1.9,0,3.6-0.3,5.2-0.9l0.2,3.7c-0.5,0.1-0.5,0.1-1.8,0.3c-1.1,0.2-2.4,0.3-3.6,0.3
		c-2,0-3.3-0.3-4.3-0.9c-1.2-0.7-1.9-2-1.9-3.3c0-1,0.4-2.2,1-3.3c0.3-0.5,0.4-0.7,1-1.5L91.6,167.6z M87.5,160
		c1,0.2,2.1,0.3,3.7,0.3c2.8,0,4.9-0.2,6.3-0.5l0.1,3.6c-0.2,0-0.4,0-1.6,0.1c-1.4,0.1-3,0.2-4.4,0.2c-1.3,0-2.3,0-3.6-0.2
		c-0.2,0-0.3,0-0.6,0L87.5,160z"/>
	<path class="st2" d="M108.4,173.3c0,0.4,0.3,0.5,2,0.5c1.7,0,2.1-0.1,2.3-0.8c0.2-0.7,0.3-1.7,0.3-3.6c1.3,0.6,1.9,0.8,3.1,1.1
		c-0.3,3.8-0.7,5.1-1.8,5.7c-0.7,0.4-2.1,0.6-4.5,0.6c-3.5,0-4.4-0.4-4.6-2.1c-1.2,0.8-1.7,1.2-3.2,2c-0.7-1.2-1.2-1.9-2.1-2.8
		c2.1-0.9,3.7-1.9,5.3-3v-6.6c0-0.9,0-1.4-0.1-2.3h3.4c-0.1,0.7-0.1,1.4-0.1,2.2v4c1.8-1.8,3.5-4.3,4.7-6.7c0.7-1.3,1-2.3,1.2-3.1
		l3.3,1.3c-0.3,0.6-0.3,0.6-0.9,1.8c-0.8,1.6-1.2,2.3-2,3.6l2.4-1.1c1.2,2.6,2.1,4.8,3,8.2l-3.1,1.6c-0.8-3.4-1.5-5.8-2.7-8.2
		c-1.9,2.9-3.4,4.7-6,6.8V173.3z M104.5,164.1c-0.4,3.7-0.8,5.7-1.7,8l-2.9-1.4c0.9-2.1,1.3-4.1,1.6-7.3L104.5,164.1z M106.9,157.1
		c2.6,1,4.1,1.6,6,2.7l-1.9,2.9c-1.4-1-3.2-2-6.1-3.1L106.9,157.1z"/>
	<path class="st2" d="M127.7,167.9c0.2-0.3,0.3-0.4,0.5-0.8h-2.8c-1.1,0-1.7,0-2.4,0.1c0.1-0.7,0.1-1.2,0.1-2.2v-1.3
		c0-1.1,0-1.7-0.1-2.3c0.7,0.1,1.3,0.1,2.4,0.1h2.2v-0.8h-3.3c-1,0-1.8,0-2.5,0.1v-2.9c0.7,0.1,1.6,0.1,2.8,0.1h13.4
		c1.3,0,2.2,0,2.8-0.1v2.9c-0.8-0.1-1.5-0.1-2.5-0.1h-3.4v0.8h2.2c1.1,0,1.8,0,2.4-0.1c-0.1,0.6-0.1,1.2-0.1,2.3v1.2
		c0,1.2,0,1.7,0.1,2.3c-0.5-0.1-1.2-0.1-2.4-0.1h-5.4c-0.1,0.2-0.2,0.4-0.3,0.5c-0.1,0.1-0.1,0.1-0.2,0.3h6.9c1.3,0,1.9,0,2.5-0.1
		v2.9c-0.7-0.1-1.4-0.1-2.5-0.1h-1.4c-0.5,1-0.8,1.6-1.5,2.3c2,0.6,2.8,0.9,4.8,1.7l-1.9,2.6c-2.6-1.2-3.3-1.5-5.5-2.3
		c-2.5,1.3-5.2,1.9-9.7,2.1c-0.3-1.2-0.6-1.8-1.2-2.8c0.7,0,1.2,0,1.4,0c2.2,0,3.9-0.2,5.4-0.6c-2.2-0.6-2.8-0.7-4.7-1.1
		c0.9-0.9,1.3-1.3,1.8-1.9h-1.6c-1.1,0-1.8,0-2.5,0.1v-2.9c0.7,0.1,1.3,0.1,2.5,0.1H127.7z M126,163.5v1.4h1.4v-1.4H126z
		 M129.3,170.6c-0.2,0.2-0.3,0.3-0.5,0.6c2.5,0.5,2.5,0.5,3.2,0.8c0.5-0.5,0.8-0.8,1.1-1.4H129.3z M130.4,161.4h1.4v-0.8h-1.4V161.4
		z M130.4,165h1.4v-1.4h-1.4V165z M134.8,165h1.4v-1.4h-1.4V165z"/>
	<path class="st2" d="M151,157.8c-0.1,0.4-0.1,0.4-0.4,1.7c-0.1,0.5-0.1,0.7-0.3,1.2c1.3-0.1,2.2-0.3,2.9-0.5l0.1,3.4
		c-0.5,0-0.5,0-1.6,0.2c-0.6,0.1-1.7,0.2-2.2,0.2c-0.8,2.5-1.3,3.9-2.3,6.1c-0.4,1-0.6,1.3-1.4,3c-0.3,0.5-0.3,0.5-0.4,0.8l-3.4-1.9
		c1.5-2,2.9-5,3.9-7.9c-0.4,0-0.4,0-1.2,0c-0.5,0-0.5,0-1,0c-0.1,0-0.2,0-0.8,0v-3.4c0.8,0.1,1.8,0.2,3.1,0.2c0.2,0,0.3,0,0.8,0
		c0-0.2,0-0.2,0.2-0.9c0.2-0.7,0.3-1.7,0.3-2.5L151,157.8z M160.1,175.5c-0.8-0.9-1.6-1.6-2.7-2.3c-0.1,1-0.3,1.6-0.9,2.2
		c-0.8,0.8-2.3,1.3-4,1.3s-3.1-0.5-4-1.4c-0.7-0.7-1-1.6-1-2.6c0-2.4,2-4.1,5-4.1c0.4,0,0.8,0,1.5,0.1c-0.1-0.8-0.1-1.2-0.1-1.7
		c0-0.9,0-1.5,0.1-2.5l3.5,0.1c-0.2,0.7-0.2,1.4-0.2,2.4c0,0.8,0,1.4,0.2,2.4c1.3,0.6,2.3,1.1,3.2,1.9c0.1,0,0.4,0.3,1,0.8
		L160.1,175.5z M152.5,171.5c-1,0-1.6,0.4-1.6,1.1c0,0.6,0.6,1,1.5,1c1,0,1.6-0.5,1.6-1.3c0-0.1,0-0.4,0-0.5
		C153.4,171.6,153,171.5,152.5,171.5z M160.3,165.6c-2-1.2-4-2.2-6.5-3l1.7-2.9c2.6,0.9,4.4,1.7,6.3,2.8L160.3,165.6z"/>
	<path class="st2" d="M173.9,173.6v1.1c0,1.5,0,1.9,0.1,2.3h-3c0.1-0.6,0.1-1.3,0.1-2.3v-6.3c-0.3,2.9-0.3,2.9-0.5,4.1
		c-0.3,1.9-0.7,3-1.4,4.5c-0.6-0.9-1-1.5-1.7-2.2c0,0.9,0,1.4,0.1,2.3h-3.3c0.1-1.1,0.1-1.4,0.1-2.4v-5.2c0-0.5,0-0.9,0-2.3
		c-0.3,0.5-0.7,1-1,1.4c-0.3-1.7-0.5-2.4-1-3.9c1-1.1,1.8-2.4,2.5-4.1c0.5-1.3,0.9-2.5,1-3.4l3.2,0.7c-0.1,0.3-0.1,0.4-0.2,0.7
		c0.6,0,1.2,0.1,2,0.1h0.3v-0.3c0-0.5,0-0.7-0.1-1h3.2c0,0.3-0.1,0.6-0.1,1v0.3h2.1v-0.3c0-0.6,0-0.8-0.1-1h3.2c0,0.3-0.1,0.6-0.1,1
		v0.3h0.6c1,0,1.9,0,2.2-0.1v2.9c-0.8-0.1-1-0.1-2.2-0.1h-0.6v1h0.7c1.2,0,1.7,0,2.4-0.1v2.9c-0.6-0.1-1.2-0.1-2-0.1h-9.3v0.6
		c0.5,0,1.1,0.1,2.1,0.1h6.7c0.9,0,1.4,0,2-0.1c-0.1,0.5-0.1,1.1-0.1,2.2v7.1c0,1.7-0.5,2-3.4,2c-0.1-1-0.2-1.4-0.5-2.3
		c0.3,0,0.5,0,0.7,0c0.3,0,0.4-0.1,0.4-0.4v-0.6h-1.3v0.8c0,1.3,0,1.8,0.1,2.4h-2.8c0.1-0.7,0.1-1.3,0.1-2.4v-0.8H173.9z
		 M167.6,172.9c0.3-0.8,0.4-1.3,0.5-2.1c0.2-1.3,0.3-3.6,0.3-6.1c0-1.2,0-1.8-0.1-2.6c0.8,0.1,1.2,0.1,2.3,0.1h0.7v-1H171
		c-1.2,0-1.6,0-2.2,0.1v-2.2c-0.4,1.3-0.6,1.8-1.2,3.1V172.9z M175.2,167.9h-1.3v0.9h1.3V167.9z M175.2,170.6h-1.3v0.9h1.3V170.6z
		 M176.5,162.3v-1h-2.1v1H176.5z M179.1,168.7v-0.9h-1.3v0.9H179.1z M179.1,171.5v-0.9h-1.3v0.9H179.1z"/>
	<path class="st2" d="M188.7,158.2c0-0.4,0-0.6-0.1-1h3.2c0,0.4-0.1,0.6-0.1,1h4.1c0-0.4,0-0.7-0.1-1h3.2c-0.1,0.4-0.1,0.6-0.1,1
		h2.1c1.1,0,1.8,0,2.5-0.1v2.6c-0.7-0.1-1.3-0.1-2.5-0.1h-2.1c0,0.3,0,0.3,0.1,0.7h-3c0-0.2,0-0.4,0-0.7h-4.5c0,0.4,0,0.4,0.1,0.7
		h-3c0-0.2,0-0.3,0.1-0.7h-1.8c-1.2,0-1.8,0-2.5,0.1V158c0.7,0.1,1.5,0.1,2.5,0.1H188.7z M198.6,165c-1.3,1-2.1,1.7-2.5,2
		c0.4,0,0.7,0,0.9,0c0.8,0,0.8,0,1.5-0.1c-0.3-0.3-0.4-0.4-0.8-0.7l2.3-1.5c1.6,1.3,2.6,2.3,3.9,3.8l-2.1,1.7c0,0.4,0,0.8,0,1.7v3.1
		c0,0.8,0,1.4,0.1,2.1h-3.2v-0.7h-9.6v0.7H186c0.1-0.7,0.1-1.4,0.1-2.1v-3.2c0-0.7,0-1.4-0.1-2c0.8,0,0.9,0,2.2,0h11.4
		c0.8,0,1.1,0,1.5,0c-0.3-0.4-0.4-0.5-0.7-0.9c-5.9,0.4-5.9,0.4-14.4,0.7c-0.7,0-1,0.1-1.4,0.1l-0.3-2.8c0.7,0.1,1.6,0.1,4.6,0.1
		c-0.9-0.5-1.5-0.8-2.6-1.3l1.9-1.6h-1.1c-1.2,0-1.9,0-2.6,0.1v-2.6c0.7,0.1,1.5,0.1,2.6,0.1h5.1c0-0.4,0-0.5-0.1-0.7h3.1
		c0,0.2,0,0.4,0,0.7h5.4c1,0,1.9,0,2.6-0.1v2.6c-0.5-0.1-1.4-0.1-2.6-0.1h-3.9L198.6,165z M188.5,164.1c0.8,0.4,1.1,0.5,1.6,0.8
		c0.4-0.3,0.5-0.4,0.9-0.8H188.5z M189.2,172.2h3.3v-0.6h-3.3V172.2z M189.2,174.4h3.3v-0.6h-3.3V174.4z M194.4,164.1
		c-0.6,0.6-1.3,1.2-2.2,2c0.4,0.3,0.4,0.3,0.7,0.4c0.8-0.6,2.1-1.7,2.9-2.4H194.4z M195.4,172.2h3.3v-0.6h-3.3V172.2z M195.4,174.4
		h3.3v-0.6h-3.3V174.4z"/>
	<path class="st2" d="M223.9,160.8c-0.3,0.3-0.4,0.4-0.7,1.1c-1.3,3.1-3.1,5.3-5.9,7c-0.7-0.9-1.4-1.6-2.4-2.3
		c-0.1,2.2-0.5,3.7-1.2,5.1c-0.7,1.3-1.8,2.5-3.3,3.5c-0.9,0.6-1.6,1-3,1.6c-0.8-1.7-1.2-2.2-2.4-3.4c2.3-0.7,3.8-1.7,4.8-2.9
		c1-1.3,1.4-2.8,1.4-5.6c0-0.7,0-1-0.1-1.4h3.9c-0.1,0.4-0.1,0.6-0.1,1.8c0,0,0,0.5,0,0.7c0.1-0.1,0.1-0.1,0.5-0.3
		c1.5-0.8,2.8-2,3.5-3.6h-10c-1.6,0-2.3,0-3.3,0.1v-3.7c1,0.1,1.7,0.2,3.4,0.2h11c1.2,0,1.3,0,1.8-0.2L223.9,160.8z"/>
	<path class="st2" d="M242.1,159.9c-0.5,0.4-0.5,0.4-0.8,0.8c-1.7,1.7-3.1,3-4.9,4.2v8.1c0,1.7,0,2.3,0.1,3.4h-4.1
		c0.1-1.1,0.1-1.6,0.1-3.4v-5.8c-2.2,1.3-3.9,2-6.9,3.1c-0.6-1.4-1-2.1-2-3.4c4.6-1.3,7.8-2.9,11.1-5.5c1.8-1.4,3.2-2.8,3.8-3.8
		L242.1,159.9z"/>
	<path class="st2" d="M254.9,167.2c-0.2,2.5-0.6,3.8-1.5,5.4c-1.2,1.9-2.7,3.1-5.6,4.3c-0.8-1.5-1.2-2.1-2.5-3.3
		c3.8-1.1,5.5-3,5.7-6.4h-4.3c-1.7,0-2.3,0-3.2,0.1v-3.5c0.9,0.1,1.5,0.2,3.2,0.2h11.7c1.9,0,2.4,0,3.3-0.1v3.5
		c-1.2-0.1-1.4-0.1-3.3-0.1H254.9z M245.7,158.3c0.9,0.1,1.4,0.2,3.3,0.2h7.3c2,0,2.4,0,3.4-0.2v3.5c-0.8-0.1-1.2-0.1-3.3-0.1h-7.5
		c-1.8,0-2.4,0-3.2,0.1V158.3z"/>
	<path class="st2" d="M273,158.6c-0.2,0.4-0.3,0.6-0.5,1.6c-1.6,5.4-2.5,8.1-3.9,11.6c2.7-0.2,5.2-0.5,7.2-0.8
		c-0.8-1.8-1.7-3.6-2.6-5l3.3-1.3c2.1,3.3,3.6,6.2,5,10l-3.6,1.8c-0.3-1-0.3-1.2-0.8-2.4c-3,0.5-5.1,0.8-8.4,1.2l-4.8,0.5
		c-0.5,0.1-0.7,0.1-1.2,0.2l-0.5-3.9c0.4,0,0.6,0,0.7,0c0.1,0,0.3,0,0.5,0l0.7,0c0.3,0,0.3,0,0.5,0c1.4-3.4,2.4-6.6,3.5-10.4
		c0.6-2,0.7-2.8,0.8-3.8L273,158.6z"/>
	<path class="st2" d="M283.4,159.4c0.9,0.2,2.2,0.3,4.3,0.3c0.1,0,0.3,0,0.6,0c0.4-1,0.6-1.6,0.7-2.3l3.8,0.3
		c-0.2,0.3-0.2,0.3-0.4,1c-0.3,0.6-0.4,0.9-0.4,1c0.2,0,0.2,0,1.3-0.1c2.1-0.1,4.2-0.4,5.3-0.7l0.1,3.3c-0.7,0.1-1.3,0.1-1.9,0.2
		c-1.5,0.1-4.1,0.3-6.3,0.4c-0.4,0.6-0.5,0.9-1,1.6c0.9-0.4,1.8-0.6,2.7-0.6c1.7,0,2.8,0.7,3.2,2c0.4-0.1,0.4-0.1,1.5-0.5
		c0.1,0,0.6-0.2,1.3-0.4c1.2-0.4,1.3-0.4,1.7-0.6l1.3,3.3c-1.1,0.1-3.3,0.7-5.4,1.4c0,0.6,0,0.6,0,1.5c0,0.9,0,1.3,0.1,1.8l-3.4,0.1
		c0.1-0.3,0.1-1,0.1-2.2l-0.2,0.1c-1,0.5-1.1,0.5-1.5,0.9c-0.4,0.3-0.5,0.7-0.5,1.1c0,0.8,0.8,1.1,2.8,1.1c2.5,0,4.9-0.4,6.7-1
		l0.2,3.8c-0.6,0-0.6,0-1.9,0.2c-1.7,0.2-3.4,0.3-5.1,0.3c-2.4,0-3.9-0.3-5-1c-1-0.6-1.7-1.7-1.7-3c0-1,0.3-1.8,1-2.6
		c0.8-0.9,1.7-1.6,3-2.2c0.5-0.3,0.7-0.3,1.6-0.7c-0.2-0.4-0.4-0.5-0.8-0.5c-1.1,0-2.5,0.7-4,2c-0.9,0.8-1.4,1.4-2,2.1l-2.7-2.6
		c0.7-0.5,1.6-1.4,2.2-2.2c0.5-0.6,1.3-1.8,1.6-2.3c0.3-0.5,0.3-0.5,0.4-0.7c-0.3,0-0.5,0-0.7,0c-0.9,0-0.9,0-1.8,0
		c-0.3,0-0.4,0-0.7,0c0,0-0.2,0-0.3,0L283.4,159.4z"/>
	<path class="st2" d="M322.1,161c-0.1,0.1-0.1,0.2-0.4,0.5c-0.3,0.4-0.9,1.1-1.5,1.7c0.8,0.4,1.5,0.7,2.5,1
		c-0.6,1.1-0.9,1.8-1.3,3.1c-0.9-0.4-1.2-0.5-1.8-0.8c0,0.3,0,0.5,0,0.9v3c0,0.8,0,1.1,0.1,1.6c-0.1,0-0.6,0-1.4,0h-2.8l2.4,0.6
		c-0.1,0.3-0.1,0.3-0.3,0.5c-0.1,0.1-0.2,0.3-0.3,0.5c0,0.1,0,0.1-0.1,0.2h2.9c1,0,1.4,0,2.1-0.1v3.1c-0.7-0.1-1.2-0.1-2.3-0.1
		h-14.7c-1.1,0-1.6,0-2.3,0.1v-3.1c0.6,0.1,1,0.1,2.1,0.1h2.8c-0.2-0.4-0.3-0.7-0.7-1.2l2.4-0.5h-2.7c-1.2,0-1.2,0-1.4,0
		c0-0.6,0.1-0.9,0.1-1.6v-3c0-0.4,0-0.5,0-0.8c-0.6,0.3-0.9,0.4-1.7,0.8c-0.4-1.1-0.8-1.9-1.4-2.9c1-0.3,1.9-0.7,3.1-1.3
		c-1.1-1.1-1.6-1.6-2.6-2.4l2.3-1.8c0.6,0.5,0.8,0.6,1.3,1v-2.5c0.6,0.1,0.9,0.1,2,0.1h3.9c1,0,1.3,0,1.7-0.1
		c0.3,0.9,0.4,1.1,1.1,1.9c0.7-0.7,1-1.3,1.4-1.8l2.5,1.4c-0.1,0.1-0.2,0.2-0.4,0.5c-0.4,0.6-0.9,1.1-1.5,1.7
		c0.3,0.3,0.4,0.3,0.8,0.6c0.7-0.7,1.3-1.4,1.7-2.2L322.1,161z M309.1,164.3c-1.1,0.8-1.7,1.2-2.6,1.7c0.2,0,0.3,0,0.5,0h11
		c0.3,0,0.4,0,0.7,0c-0.8-0.5-1.5-0.9-2.6-1.7v1c-0.3-0.1-0.5-0.1-1.2-0.1h-4.9c-0.4,0-0.7,0-1,0.1V164.3z M307.5,160.2
		c-0.3,0-0.5,0-0.9,0c0.6,0.6,0.9,0.8,1.3,1.3c0.6-0.5,0.9-0.7,1.3-1.3H307.5z M308.5,169.5h7.9v-1h-7.9V169.5z M314,173.7
		c0.2-0.4,0.6-1.4,0.7-1.7h-4.5c0.3,0.5,0.5,1.2,0.7,1.7H314z M314.4,162.9c-0.8-0.7-1.1-1-1.8-2c-0.7,0.9-1,1.3-1.8,2H314.4z"/>
	<path class="st2" d="M340,157.8c0.8,0,1.4,0,1.9-0.1c-0.1,0.4-0.1,0.6-0.1,1.6c0,1.3-0.1,3.4-0.2,4.5c0.9,0,1.3,0,1.8-0.1v2.8
		c-0.7-0.1-1.4-0.1-2.1-0.1h-2.2c0.3,1.1,0.4,1.4,0.6,2c0.8-0.7,1.2-1.2,1.7-2l2.1,1.8c-0.8,0.9-1.6,1.7-2.5,2.4
		c0.7,1,1.5,1.7,2.7,2.5c-0.7,1-1,1.5-1.7,3c-1.6-1.4-2.4-2.5-3.3-4.5c0,0.3,0.1,0.9,0.1,1.7v1.3c0,1.7-0.7,2.2-2.8,2.2
		c-0.4,0-0.9,0-1.7-0.1c-0.1-1.2-0.2-1.7-0.5-2.5c-0.6,0.5-0.7,0.5-1.4,1l-0.9-2.2l0,2.1c-1.6,0.5-3.6,0.9-6.7,1.3
		c-0.1,0-0.3,0.1-0.7,0.2l-0.4-3.2c0.9,0,1.4-0.1,3-0.3v-5.3h-0.8c-0.9,0-1.6,0-2.1,0.1v-2.9c0.5,0.1,1.2,0.1,2.1,0.1h0.7v-0.9h-0.1
		c-0.4,0-0.7,0-1.1,0.1v-1c-0.4,0.4-0.6,0.5-1.1,0.9c-0.4-1.4-0.6-1.9-1.2-3c1.7-1.1,2.8-2.4,3.5-4.1h3.1c0.5,1,1.1,1.7,2.5,2.9
		v-2.6c0.6,0.1,1.2,0.1,2.2,0.1H340z M324.6,173.1c-0.2-1.4-0.4-2.2-0.8-3.9l2-0.7c0.4,1.3,0.6,2.1,0.9,3.9L324.6,173.1z
		 M329.9,162.1c-0.6-0.7-0.9-1.1-1.5-2c-0.5,0.8-0.8,1.2-1.4,2H329.9z M338.5,163.8c0-0.5,0-0.5,0-0.7h-3.7c-1,0-1.5,0-2,0.1v-2.4
		c0.5,0.1,0.9,0.1,2,0.1h3.8l0-0.6h-4.3c-0.8,0-1.5,0-1.9,0.1l0.3,0.2c-0.9,1.3-1.1,1.7-1.6,2.5v1.5c-0.4,0-0.5,0-1.1,0h-0.5v0.9
		h0.8c0.5,0,0.9,0,1.3-0.1v-1.6c0.6,0.1,1.2,0.1,2.1,0.1H338.5z M333.8,166.5c-0.9,0-1.4,0-2,0.1v1.6c-0.4-0.1-0.8-0.1-1.4-0.1h-0.7
		v4.9c0.8-0.1,1-0.2,1.9-0.4c1.3-0.6,2.3-1.2,3.6-2.2l0.9,2.1v-6H333.8z M329.7,171.7c0.4-1.2,0.6-1.9,0.8-3.2l1.8,0.7
		c-0.3,1.2-0.5,2.1-1,3.1L329.7,171.7z M334,166.6c0.9,1,1.4,1.7,1.9,2.7l-2.2,1.5c-0.8-1.5-1.2-2.1-1.9-3L334,166.6z M336.1,172.6
		c-0.7,0.7-0.9,0.8-1.7,1.5c0.5,0.1,0.7,0.1,1,0.1c0.6,0,0.7-0.1,0.7-0.5V172.6z"/>
</g>
</svg>
