<?xml version="1.0" encoding="utf-8"?>
<!-- Generator: Adobe Illustrator 24.0.1, SVG Export Plug-In . SVG Version: 6.00 Build 0)  -->
<svg version="1.1" id="レイヤー_1" xmlns="http://www.w3.org/2000/svg" xmlns:xlink="http://www.w3.org/1999/xlink" x="0px"
	 y="0px" viewBox="0 0 553 265.4" style="enable-background:new 0 0 553 265.4;" xml:space="preserve">
<style type="text/css">
	.st0{fill:#FEFCEE;}
	.st1{fill:#BABABA;}
	.st2{fill:#FFFFFF;}
	.st3{fill:none;stroke:#6B1319;stroke-width:0.3593;stroke-miterlimit:10;}
	.st4{fill:#F4F4F5;}
	.st5{fill:#F9F5D2;}
	.st6{enable-background:new    ;}
	.st7{fill:#040000;}
	.st8{fill:#E6E6E5;}
	.st9{fill:#CFE7F2;}
	.st10{fill:#3794C4;}
	.st11{fill:#727171;}
	.st12{fill:#F7F9FA;}
	.st13{fill:#48A6CE;}
	.st14{fill:url(#SVGID_8_);}
	.st15{fill:none;stroke:#221714;stroke-width:0.1875;}
	.st16{fill:url(#SVGID_9_);}
	.st17{fill:url(#SVGID_10_);}
	.st18{fill:url(#SVGID_11_);}
	.st19{fill:url(#SVGID_12_);}
	.st20{fill:url(#SVGID_13_);}
	.st21{fill:url(#SVGID_14_);}
	.st22{fill:url(#SVGID_15_);}
	.st23{fill:url(#SVGID_16_);}
	.st24{fill:url(#SVGID_17_);}
	.st25{fill:url(#SVGID_18_);}
	.st26{fill:url(#SVGID_19_);}
	.st27{fill:url(#SVGID_20_);}
	.st28{fill:url(#SVGID_21_);}
	.st29{fill:url(#SVGID_22_);}
	.st30{fill:url(#SVGID_23_);}
	.st31{fill:url(#SVGID_24_);}
	.st32{fill:#F0EFEE;}
	.st33{fill:url(#SVGID_25_);}
	.st34{fill:url(#SVGID_26_);}
	.st35{fill:url(#SVGID_27_);}
	.st36{fill:url(#SVGID_28_);}
	.st37{fill:url(#SVGID_29_);}
	.st38{fill:url(#SVGID_30_);}
	.st39{fill:url(#SVGID_31_);}
	.st40{fill:url(#SVGID_32_);}
	.st41{fill:url(#SVGID_33_);}
	.st42{fill:url(#SVGID_34_);}
	.st43{fill:url(#SVGID_35_);}
	.st44{fill:url(#SVGID_36_);}
	.st45{fill:url(#SVGID_37_);}
	.st46{fill:url(#SVGID_38_);}
	.st47{fill:url(#SVGID_39_);}
	.st48{fill:url(#SVGID_41_);}
	.st49{fill:url(#SVGID_42_);}
	.st50{fill:url(#SVGID_43_);}
	.st51{fill:url(#SVGID_44_);}
	.st52{fill:url(#SVGID_45_);}
	.st53{fill:url(#SVGID_46_);}
	.st54{fill:url(#SVGID_47_);}
	.st55{fill:url(#SVGID_48_);}
	.st56{fill:url(#SVGID_49_);}
	.st57{fill:url(#SVGID_50_);}
	.st58{fill:url(#SVGID_51_);}
	.st59{fill:url(#SVGID_52_);}
	.st60{fill:url(#SVGID_53_);}
	.st61{fill:url(#SVGID_54_);}
	.st62{fill:url(#SVGID_55_);}
	.st63{fill:url(#SVGID_56_);}
	.st64{fill:url(#SVGID_57_);}
	.st65{fill:url(#SVGID_58_);}
	.st66{fill:url(#SVGID_59_);}
	.st67{fill:#3E3A39;}
	.st68{fill:#C6BA9A;}
	.st69{fill:#D6CCB5;}
	.st70{fill:#B5B5B6;}
	.st71{fill:#F0EFEF;}
	.st72{fill:#595857;}
	.st73{fill:#DCDDDD;}
	.st74{fill:#CCAC69;}
	.st75{fill:#C9CACA;}
	.st76{fill:#9FA0A0;}
	.st77{fill:#8A8A8A;}
	.st78{opacity:0.75;}
	.st79{fill:#B81C25;}
	.st80{fill:#DE551A;}
	.st81{fill:#E99413;}
	.st82{fill:#F7F9F9;}
	.st83{fill:#E83514;}
	.st84{fill:url(#SVGID_60_);}
	.st85{fill:url(#SVGID_61_);}
	.st86{fill:url(#SVGID_62_);}
	.st87{fill:url(#SVGID_63_);}
	.st88{fill:url(#SVGID_64_);}
	.st89{fill:url(#SVGID_65_);}
	.st90{stroke:#000000;stroke-width:3.0472;stroke-linecap:round;stroke-linejoin:round;stroke-miterlimit:10;}
	.st91{fill:url(#SVGID_66_);stroke:#000000;stroke-width:1.0157;stroke-linecap:round;stroke-linejoin:round;}
	.st92{fill:url(#SVGID_67_);stroke:#000000;stroke-width:1.0157;stroke-linecap:round;stroke-linejoin:round;}
	.st93{fill:url(#SVGID_68_);stroke:#000000;stroke-width:1.0157;stroke-linecap:round;stroke-linejoin:round;}
	.st94{opacity:0.4;fill:#FFFFFF;enable-background:new    ;}
	.st95{fill:none;}
	.st96{fill:#FFFEEE;}
	.st97{fill:none;stroke:#F7EFB8;stroke-width:0.5079;}
	.st98{fill:none;stroke:#F7EFB8;stroke-width:0.2539;stroke-miterlimit:10;}
	.st99{fill:none;stroke:#000000;stroke-width:0.2437;stroke-miterlimit:10;}
	.st100{fill:none;stroke:#000000;stroke-width:1.0157;stroke-linecap:round;stroke-linejoin:round;}
	.st101{fill-rule:evenodd;clip-rule:evenodd;}
	.st102{fill:none;stroke:#000000;stroke-width:0.5079;stroke-miterlimit:10;}
	.st103{fill-rule:evenodd;clip-rule:evenodd;fill:url(#SVGID_69_);}
	.st104{opacity:0.9;fill:#E60012;enable-background:new    ;}
	.st105{fill:#DCDBDA;}
	.st106{opacity:0.9;fill:#FFFFFF;enable-background:new    ;}
	.st107{opacity:0.3;fill:#FFFFFF;enable-background:new    ;}
	.st108{fill:#7E7977;}
	.st109{fill:#EEEAD0;}
	.st110{fill:#DDD9C2;}
	.st111{fill:#D3A243;}
	.st112{fill:none;stroke:#E5E3DA;stroke-width:0.5079;stroke-linecap:round;stroke-linejoin:round;}
	.st113{fill:#CDA774;}
	.st114{fill:#DDB887;}
	.st115{fill:#F3EBDF;}
	.st116{fill:#F8F0E4;}
	.st117{fill:#ECECEC;}
	.st118{fill:url(#SVGID_70_);}
	.st119{fill:url(#SVGID_71_);}
	.st120{fill:#E60012;}
	.st121{fill:#E5D32D;stroke:#A38A77;stroke-width:0.2737;stroke-miterlimit:10;}
	.st122{fill:#E3D172;stroke:#C79F62;stroke-width:0.2737;stroke-miterlimit:10;}
	.st123{fill:#E3D172;}
	.st124{fill:#EEEEEF;stroke:#C8C9CA;stroke-width:0.2052;stroke-miterlimit:10;}
	.st125{fill:#804F21;}
	.st126{fill:none;stroke:#A38A77;stroke-width:0.2737;stroke-miterlimit:10;}
	.st127{fill:none;stroke:#E5D32D;stroke-width:0.5473;stroke-miterlimit:10;}
	.st128{fill:#DBDCDC;stroke:#C4C7C4;stroke-width:0.2737;stroke-miterlimit:10;}
	.st129{fill:#EEEEEF;}
	.st130{fill:#E8E8DC;}
	.st131{fill:#E62C0F;}
	.st132{fill:#F7B52C;stroke:#DB9F09;stroke-width:0.2737;stroke-miterlimit:10;}
	.st133{fill:#44AF35;stroke:#448A3E;stroke-width:0.2737;stroke-miterlimit:10;}
	.st134{fill:#734C22;}
	.st135{fill:none;stroke:#FFFFFF;stroke-width:1.3684;}
	.st136{fill:#946134;}
	.st137{fill:#231815;}
	.st138{fill:#C79F62;stroke:#946134;stroke-width:4.194518e-02;}
	.st139{fill:none;stroke:#946134;stroke-width:4.194518e-02;}
	.st140{fill:#40210F;stroke:#946134;stroke-width:4.194518e-02;}
	.st141{fill:#FFFFFF;stroke:#6A3906;stroke-width:4.194518e-02;}
	.st142{fill:url(#SVGID_72_);}
	.st143{fill:url(#SVGID_73_);}
	.st144{fill:url(#SVGID_74_);}
	.st145{fill:none;stroke:#F0D958;stroke-width:1.0893;stroke-linecap:round;stroke-linejoin:round;stroke-miterlimit:10;}
	.st146{fill:none;stroke:#DD5F1A;stroke-width:1.6341;stroke-linecap:round;stroke-linejoin:round;stroke-miterlimit:10;}
	.st147{fill:#006934;}
	.st148{fill:#DBDCDC;}
	.st149{fill:#BEC2BF;stroke:#B2B4B1;stroke-width:0.2127;stroke-linecap:round;stroke-linejoin:round;}
	.st150{fill:none;stroke:#F0D958;stroke-width:0.8506;stroke-linecap:round;stroke-linejoin:round;stroke-miterlimit:10;}
	.st151{fill:none;stroke:#DD5F1A;stroke-width:1.2759;stroke-linecap:round;stroke-linejoin:round;stroke-miterlimit:10;}
	.st152{fill:none;stroke:#E60012;stroke-width:0.1532;stroke-miterlimit:10;}
	.st153{fill:none;stroke:#E60012;stroke-width:0.1532;stroke-miterlimit:10;stroke-dasharray:0.7747,0.7747;}
	.st154{fill:none;stroke:#000000;stroke-width:0.1532;stroke-miterlimit:10;}
	.st155{fill:none;stroke:#000000;stroke-width:1.0962;stroke-miterlimit:10;}
	.st156{fill:#C9A063;stroke:#000000;stroke-width:1.494;stroke-miterlimit:10;}
	.st157{fill:#008ABD;}
	.st158{fill:#5CB9D3;}
	.st159{fill:#BFC0C0;}
	.st160{fill:#FBF8EA;}
	.st161{fill:none;stroke:#000000;stroke-width:0.6647;}
	.st162{fill:#036EB8;}
	.st163{fill:#EA5514;}
	.st164{clip-path:url(#SVGID_76_);}
	.st165{fill:url(#SVGID_77_);}
	.st166{fill:url(#SVGID_78_);}
	.st167{fill:url(#SVGID_79_);}
	.st168{fill:url(#SVGID_80_);}
	.st169{fill:url(#SVGID_81_);}
	.st170{fill:url(#SVGID_82_);}
	.st171{fill:url(#SVGID_83_);}
	.st172{fill:url(#SVGID_84_);}
	.st173{fill:url(#SVGID_85_);}
	.st174{fill:url(#SVGID_86_);}
	.st175{fill:url(#SVGID_87_);}
	.st176{fill:url(#SVGID_88_);}
	.st177{fill:url(#SVGID_89_);}
	.st178{fill:url(#SVGID_90_);}
	.st179{fill:url(#SVGID_91_);}
	.st180{fill:url(#SVGID_92_);}
	.st181{fill:url(#SVGID_93_);}
	.st182{fill:url(#SVGID_94_);}
	.st183{fill:url(#SVGID_95_);}
	.st184{fill:url(#SVGID_96_);}
	.st185{fill:url(#SVGID_97_);}
	.st186{fill:url(#SVGID_98_);}
	.st187{fill:url(#SVGID_99_);}
	.st188{fill:url(#SVGID_100_);}
	.st189{fill:url(#SVGID_101_);}
	.st190{fill:url(#SVGID_102_);}
	.st191{fill:url(#SVGID_103_);}
	.st192{fill:url(#SVGID_104_);}
	.st193{fill:url(#SVGID_105_);}
	.st194{fill:url(#SVGID_106_);}
	.st195{fill:url(#SVGID_107_);}
	.st196{fill:url(#SVGID_108_);}
	.st197{fill:url(#SVGID_109_);}
	.st198{fill:url(#SVGID_110_);}
	.st199{fill:url(#SVGID_111_);}
	.st200{clip-path:url(#SVGID_113_);}
	.st201{fill:#B28247;}
	.st202{fill:#FFF100;}
	.st203{fill:#8FC31F;}
	.st204{fill:#EAE5E3;}
	.st205{fill:#BEB1AA;}
	.st206{clip-path:url(#SVGID_115_);}
	.st207{fill:url(#SVGID_116_);}
	.st208{fill:url(#SVGID_117_);}
	.st209{fill:url(#SVGID_118_);}
	.st210{fill:url(#SVGID_119_);}
	.st211{fill:url(#SVGID_120_);}
	.st212{fill:url(#SVGID_121_);}
	.st213{fill:url(#SVGID_122_);}
	.st214{fill:url(#SVGID_123_);}
	.st215{fill:url(#SVGID_124_);}
	.st216{fill:url(#SVGID_125_);}
	.st217{fill:url(#SVGID_126_);}
	.st218{fill:url(#SVGID_127_);}
	.st219{fill:url(#SVGID_128_);}
	.st220{fill:url(#SVGID_129_);}
	.st221{fill:url(#SVGID_130_);}
	.st222{fill:url(#SVGID_131_);}
	.st223{fill:#FFF9E8;}
	.st224{opacity:0.5;fill:url(#);enable-background:new    ;}
	.st225{clip-path:url(#SVGID_136_);}
	.st226{clip-path:url(#SVGID_137_);}
	.st227{fill:#FCE1B9;}
	.st228{fill:#DFCD8C;}
	.st229{fill:#EADDB0;}
	.st230{fill:#6C1317;}
	.st231{fill:#5C070C;}
	.st232{fill:#8A4000;}
	.st233{fill:#9C0109;}
	.st234{fill:#8A0001;}
	.st235{fill:url(#SVGID_138_);}
	.st236{clip-path:url(#SVGID_143_);}
	.st237{clip-path:url(#SVGID_144_);}
	.st238{fill:#9C0109;stroke:#FFFFFF;stroke-width:0.8745;stroke-miterlimit:10;}
	.st239{fill:url(#SVGID_145_);}
	.st240{fill:#CF1126;}
	.st241{fill:#F4F3F1;}
	.st242{fill:#C30D23;}
	.st243{fill:#CCCCCC;}
	.st244{clip-path:url(#SVGID_147_);}
	.st245{fill:#C8C9CA;}
	.st246{clip-path:url(#SVGID_149_);}
	.st247{fill:#803220;}
	.st248{fill:#EEAA3D;}
	.st249{fill:#E29223;}
	.st250{fill:#944024;}
	.st251{fill:#B15022;}
	.st252{fill:#D18215;}
	.st253{fill:#FAED00;}
	.st254{fill:#1EAA39;}
	.st255{fill:#169530;}
	.st256{fill:none;stroke:#FFFFFF;stroke-miterlimit:10;}
	.st257{clip-path:url(#SVGID_151_);}
	.st258{clip-path:url(#SVGID_153_);}
	.st259{fill:#FCD006;}
	.st260{fill:#604C3F;}
	.st261{fill:#C79F62;}
	.st262{fill:#FDEABE;}
	.st263{fill:#E95504;}
	.st264{fill:#C11920;}
	.st265{fill:url(#SVGID_154_);}
	.st266{fill:url(#SVGID_155_);}
	.st267{fill:#5D8AA2;}
	.st268{fill:#267EAF;}
	.st269{fill:none;stroke:#D9B556;stroke-width:0.6193;stroke-miterlimit:10;}
	.st270{fill:#D9B556;}
	.st271{fill:#0E2F8F;}
	.st272{fill:url(#SVGID_156_);}
	.st273{fill:url(#SVGID_157_);}
	.st274{fill:url(#SVGID_158_);}
	.st275{fill:#755F43;}
	.st276{fill:#CD6829;}
	.st277{fill:#E08030;}
	.st278{fill:#F7F8F8;}
	.st279{fill:#E9E5E2;}
	.st280{fill:#9E9E9F;}
	.st281{fill:url(#SVGID_159_);}
	.st282{clip-path:url(#SVGID_161_);fill:#FBD6A0;}
	.st283{fill:#D1A26C;}
	.st284{fill:#FDEBD1;}
	.st285{fill:url(#SVGID_162_);}
	.st286{fill:#888888;}
	.st287{fill:#B4B4B5;}
	.st288{fill:#E6BE98;}
	.st289{fill:#BAE2F8;}
	.st290{fill:#182987;}
	.st291{fill:#3071B7;}
	.st292{clip-path:url(#SVGID_164_);fill:#F7B52C;}
	.st293{fill:#F7F9F9;stroke:#727171;stroke-width:0.1726;stroke-miterlimit:10;}
	.st294{fill:#C39717;}
	.st295{fill:#CC172C;}
	.st296{fill:#E73828;}
	.st297{fill:#F7B52C;}
	.st298{clip-path:url(#SVGID_166_);}
	.st299{fill:#D2A143;}
	.st300{fill:#B48626;}
	.st301{fill:#9C751E;}
	.st302{fill:#8DC21F;}
	.st303{fill:#00913A;}
	.st304{fill:#E95513;}
	.st305{clip-path:url(#SVGID_168_);}
	.st306{fill:#BDA661;}
	.st307{fill:#C9B168;}
	.st308{fill:url(#SVGID_169_);}
	.st309{fill:url(#SVGID_170_);}
	.st310{fill:url(#SVGID_171_);}
	.st311{fill:url(#SVGID_172_);}
	.st312{fill:url(#SVGID_173_);}
	.st313{fill:url(#SVGID_174_);}
	.st314{fill:url(#SVGID_175_);}
	.st315{fill:url(#SVGID_176_);}
	.st316{fill:url(#SVGID_177_);}
	.st317{fill:url(#SVGID_178_);}
	.st318{fill:url(#SVGID_179_);}
	.st319{fill:url(#SVGID_180_);}
	.st320{fill:url(#SVGID_181_);}
	.st321{fill:url(#SVGID_182_);}
	.st322{fill:url(#SVGID_183_);}
	.st323{fill:url(#SVGID_184_);}
	.st324{fill:url(#SVGID_185_);}
	.st325{fill:url(#SVGID_186_);}
	.st326{fill:url(#SVGID_187_);}
	.st327{fill:url(#SVGID_188_);}
	.st328{fill:url(#SVGID_189_);}
	.st329{fill:url(#SVGID_190_);}
	.st330{fill:url(#SVGID_191_);}
	.st331{fill:url(#SVGID_192_);}
	.st332{fill:url(#SVGID_193_);}
	.st333{fill:url(#SVGID_194_);}
	.st334{fill:url(#SVGID_195_);}
	.st335{fill:url(#SVGID_196_);}
	.st336{fill:url(#SVGID_197_);}
	.st337{fill:url(#SVGID_198_);}
	.st338{fill:url(#SVGID_199_);}
	.st339{fill:url(#SVGID_200_);}
	.st340{fill:url(#SVGID_201_);}
	.st341{fill:url(#SVGID_202_);}
	.st342{fill:url(#SVGID_203_);}
	.st343{fill:url(#SVGID_204_);}
	.st344{fill:url(#SVGID_205_);}
	.st345{fill:url(#SVGID_206_);}
	.st346{fill:url(#SVGID_207_);}
	.st347{fill:url(#SVGID_208_);}
	.st348{fill:url(#SVGID_209_);}
	.st349{fill:url(#SVGID_210_);}
	.st350{fill:url(#SVGID_211_);}
	.st351{fill:url(#SVGID_212_);}
	.st352{fill:url(#SVGID_213_);}
	.st353{fill:url(#SVGID_214_);}
	.st354{fill:url(#SVGID_215_);}
	.st355{fill:url(#SVGID_216_);}
	.st356{fill:url(#SVGID_217_);}
	.st357{fill:url(#SVGID_218_);}
	.st358{fill:url(#SVGID_219_);}
	.st359{fill:url(#SVGID_220_);}
	.st360{fill:url(#SVGID_221_);}
	.st361{fill:url(#SVGID_222_);}
	.st362{fill:url(#SVGID_223_);}
	.st363{fill:url(#SVGID_224_);}
	.st364{fill:url(#SVGID_225_);}
	.st365{fill:url(#SVGID_226_);stroke:#000000;stroke-width:1.0157;stroke-linecap:round;stroke-linejoin:round;}
	.st366{fill:url(#SVGID_227_);stroke:#000000;stroke-width:1.0157;stroke-linecap:round;stroke-linejoin:round;}
	.st367{fill:url(#SVGID_228_);stroke:#000000;stroke-width:1.0157;stroke-linecap:round;stroke-linejoin:round;}
	.st368{fill-rule:evenodd;clip-rule:evenodd;fill:url(#SVGID_229_);}
	.st369{fill:url(#SVGID_230_);}
	.st370{fill:url(#SVGID_231_);}
	.st371{fill:url(#SVGID_232_);}
	.st372{fill:url(#SVGID_233_);}
	.st373{fill:url(#SVGID_234_);}
	.st374{clip-path:url(#SVGID_236_);}
	.st375{fill:url(#SVGID_237_);}
	.st376{fill:url(#SVGID_238_);}
	.st377{fill:url(#SVGID_239_);}
	.st378{fill:url(#SVGID_240_);}
	.st379{fill:url(#SVGID_241_);}
	.st380{fill:url(#SVGID_242_);}
	.st381{fill:url(#SVGID_243_);}
	.st382{fill:url(#SVGID_244_);}
	.st383{fill:url(#SVGID_245_);}
	.st384{fill:url(#SVGID_246_);}
	.st385{fill:url(#SVGID_247_);}
	.st386{fill:url(#SVGID_248_);}
	.st387{fill:url(#SVGID_249_);}
	.st388{fill:url(#SVGID_250_);}
	.st389{fill:url(#SVGID_251_);}
	.st390{fill:url(#SVGID_252_);}
	.st391{fill:url(#SVGID_253_);}
	.st392{fill:url(#SVGID_254_);}
	.st393{fill:url(#SVGID_255_);}
	.st394{fill:url(#SVGID_256_);}
	.st395{fill:url(#SVGID_257_);}
	.st396{fill:url(#SVGID_258_);}
	.st397{fill:url(#SVGID_259_);}
	.st398{fill:url(#SVGID_260_);}
	.st399{fill:url(#SVGID_261_);}
	.st400{fill:url(#SVGID_262_);}
	.st401{fill:url(#SVGID_263_);}
	.st402{fill:url(#SVGID_264_);}
	.st403{fill:url(#SVGID_265_);}
	.st404{fill:url(#SVGID_266_);}
	.st405{fill:url(#SVGID_267_);}
	.st406{fill:url(#SVGID_268_);}
	.st407{fill:url(#SVGID_269_);}
	.st408{fill:url(#SVGID_270_);}
	.st409{fill:url(#SVGID_271_);}
	.st410{clip-path:url(#SVGID_273_);}
	.st411{clip-path:url(#SVGID_275_);}
	.st412{fill:url(#SVGID_276_);}
	.st413{fill:url(#SVGID_277_);}
	.st414{fill:url(#SVGID_278_);}
	.st415{fill:url(#SVGID_279_);}
	.st416{fill:url(#SVGID_280_);}
	.st417{fill:url(#SVGID_281_);}
	.st418{fill:url(#SVGID_282_);}
	.st419{fill:url(#SVGID_283_);}
	.st420{fill:url(#SVGID_284_);}
	.st421{fill:url(#SVGID_285_);}
	.st422{fill:url(#SVGID_286_);}
	.st423{fill:url(#SVGID_287_);}
	.st424{fill:url(#SVGID_288_);}
	.st425{fill:url(#SVGID_289_);}
	.st426{fill:url(#SVGID_290_);}
	.st427{fill:url(#SVGID_291_);}
	.st428{clip-path:url(#SVGID_296_);}
	.st429{clip-path:url(#SVGID_297_);}
	.st430{fill:url(#SVGID_298_);}
	.st431{clip-path:url(#SVGID_303_);}
	.st432{clip-path:url(#SVGID_304_);}
	.st433{fill:url(#SVGID_305_);}
	.st434{clip-path:url(#SVGID_307_);}
	.st435{clip-path:url(#SVGID_309_);}
	.st436{clip-path:url(#SVGID_311_);}
	.st437{clip-path:url(#SVGID_313_);}
	.st438{fill:url(#SVGID_314_);}
	.st439{fill:url(#SVGID_315_);}
	.st440{fill:url(#SVGID_316_);}
	.st441{fill:url(#SVGID_317_);}
	.st442{fill:url(#SVGID_318_);}
	.st443{fill:url(#SVGID_319_);}
	.st444{clip-path:url(#SVGID_321_);fill:#FBD6A0;}
	.st445{fill:url(#SVGID_322_);}
	.st446{clip-path:url(#SVGID_324_);fill:#F7B52C;}
	.st447{clip-path:url(#SVGID_326_);}
	.st448{clip-path:url(#SVGID_328_);}
</style>
<g>
	<rect y="0" class="st0" width="553" height="265.4"/>
</g>
<g>
	<path class="st1" d="M178.5,228.1H57.8c-7.4,0-13.4-6-13.4-13.4V53.1c0-7.4,6-13.4,13.4-13.4h120.7c7.4,0,13.4,6,13.4,13.4v161.6
		C191.9,222.1,185.9,228.1,178.5,228.1z"/>
	<path class="st2" d="M175.5,225.9H54.8c-7.4,0-13.4-6-13.4-13.4V50.9c0-7.4,6-13.4,13.4-13.4h120.7c7.4,0,13.4,6,13.4,13.4v161.6
		C188.9,219.9,182.9,225.9,175.5,225.9z"/>
	<path class="st3" d="M41.4,212.4V50.9c0-7.4,6-13.4,13.4-13.4h120.7"/>
</g>
<g>
	<rect x="258.4" y="89.8" class="st4" width="249.1" height="97.7"/>
	<rect x="255.6" y="88.1" class="st5" width="249.1" height="97.7"/>
	<polyline class="st3" points="504.7,89.3 504.7,185.8 257.5,185.8 	"/>
</g>
<g class="st6">
	<path class="st7" d="M266.1,39.8c1,0.1,1.5,0.1,3.1,0.1c2.3,0,6.5-0.2,8.3-0.3c1.4-0.1,1.9-0.2,2.6-0.5l2.3,3
		c-0.6,0.4-0.6,0.4-2.8,2.3c-1.9,1.6-3,2.5-5.1,4c1.4-0.2,4.3-0.4,6.8-0.6c3.4-0.2,4.1-0.3,4.6-0.4l0.2,4.4c-0.5,0-0.6,0-1.1,0
		c-3.4,0-5.4,0.3-7.4,1.2c-1.9,0.8-3,2.1-3,3.3c0,1.3,1.4,2,4.2,2c1.2,0,2.2-0.1,3.3-0.3l0.2,4.7c-0.3,0-0.3,0-0.6,0
		c-0.3,0-0.3,0-1.6,0.1c-0.5,0-0.9,0-1.3,0c-2.7,0-4.5-0.3-6.1-1.1c-1.9-0.9-3-2.6-3-4.6c0-1.9,0.9-3.5,2.8-4.7
		c-0.8,0.2-1.8,0.3-4.3,0.6c-3.2,0.4-4.3,0.5-5.5,0.8l-0.4-4.5c0.3,0,0.5,0,0.6,0c0.8,0,2.6-0.1,4.9-0.4c2.1-1.4,3.7-2.6,6.7-5.3
		c-1.4,0.2-1.6,0.2-2.2,0.2c-0.3,0-0.3,0-2,0.1c-0.4,0-0.4,0-2.1,0.1c-1,0.1-1.1,0.1-1.8,0.2L266.1,39.8z"/>
	<path class="st7" d="M300,55.6c-1.5,3.4-3.3,4.9-5.7,4.9c-3.5,0-6-3.4-6-8.2c0-3.1,1.1-5.9,3-8.1c2.3-2.5,5.7-3.9,9.6-3.9
		c3.5,0,6.7,1.2,8.6,3.3c1.7,1.8,2.6,4.4,2.6,7.4c0,3.4-1.3,6.6-3.5,8.6c-1.8,1.6-3.9,2.5-7.6,3c-0.6-1.9-1.1-2.9-2.2-4.3
		c2.5-0.2,4.1-0.6,5.6-1.4c2-1.1,3.2-3.3,3.2-6.1c0-2.3-0.8-4.1-2.3-5.2c-0.7-0.5-1.3-0.8-2.2-0.9C302.4,49.1,301.5,52.5,300,55.6z
		 M295.5,45.9c-1.7,1.5-2.9,3.9-2.9,6.3c0,1.9,0.7,3.4,1.6,3.4c0.7,0,1.3-0.9,2.1-2.9c0.9-2.4,1.7-5.5,2-8.1
		C297.3,44.7,296.4,45.1,295.5,45.9z"/>
	<path class="st7" d="M316.8,53.5c0-0.2,0-0.4,0-0.9c0-0.6,0-1.1,0.1-1.7c-0.5,0.7-1.1,1.4-1.6,2.1c-0.4-1.8-0.8-2.9-1.6-4.8
		c2.4-2.2,4.8-6.9,5.2-10.1l4.1,1.2c-1.2,3.5-1.3,3.8-2.2,5.5v15.3c0,1.1,0.1,2.2,0.2,3.3h-4.3c0.1-1,0.2-1.8,0.2-3.3V53.5z
		 M328.4,45.2v-3.8c0-1.2,0-1.9-0.2-2.9h4.2c-0.1,1-0.2,1.5-0.2,2.7v2.8l3.6-1.1c1.1-0.3,1.6-0.5,2.2-0.8c0,0.6-0.1,0.8-0.1,1.7
		c0,4.5-0.2,7.9-0.5,9.2c-0.3,1.6-1.3,2.3-3.5,2.3c-0.2,0-0.5,0-1-0.1c-0.2-1.5-0.3-2.2-0.8-3.5v2.2c0,1.2,0,1.8,0.1,2.8h-4.2
		c0.1-0.9,0.1-1.5,0.1-2.9v-5l-1.6,0.5v8.6c0,0.4,0.1,0.5,0.5,0.6c0.6,0.2,1.1,0.2,2.8,0.2c2.8,0,3.6-0.1,4.1-0.5
		c0.4-0.3,0.5-0.8,0.6-2.8c1.5,0.5,2.4,0.7,4.1,1c-0.2,2.9-0.6,4.4-1.4,5.1c-1,0.8-3,1.1-7.8,1.1c-5.4,0-6.7-0.6-6.7-2.9v-9.2
		c-0.7,0.2-1,0.3-1.6,0.6l-0.1-4.2c0.5-0.1,0.8-0.1,1.6-0.3v-2.5c0-1.4,0-2-0.1-2.9h4.2c-0.1,0.8-0.1,1.3-0.1,2.8v1.6L328.4,45.2z
		 M332.3,51.7c0.4,0.1,0.8,0.1,1.1,0.1c0.7,0,0.9-1,0.9-4.4l-1.9,0.6V51.7z"/>
	<path class="st7" d="M350.4,50.8c0,2.3-1.8,4.1-4,4.1c-2.3,0-4.1-1.8-4.1-4c0-2.2,1.8-4,4.1-4C348.6,46.8,350.4,48.6,350.4,50.8z"
		/>
	<path class="st7" d="M356.9,45.9c3,1.2,5,2.2,7.4,3.7l-2.2,4.2c-2.3-1.7-4.6-3-7.6-4.1L356.9,45.9z M355.3,57.4
		c2.3-0.1,5.6-0.7,8.2-1.7c3.1-1.2,5.5-3,7.4-5.7c1.3-1.8,2-3.3,2.9-5.8c1.6,1.7,2.4,2.4,3.9,3.3c-1.3,3.2-2.4,5-4.1,6.9
		c-2.7,3.1-6,5.1-10.2,6.5c-1.6,0.5-2.7,0.8-4.8,1.2c-0.8,0.1-1.3,0.3-1.9,0.4L355.3,57.4z M358.9,39.4c3.1,1.1,5.4,2.2,7.6,3.5
		l-2.4,4.1c-2.7-1.8-4.9-2.9-7.6-3.8L358.9,39.4z"/>
	<path class="st7" d="M386.2,39.7c-0.1,1.2-0.1,1.7-0.1,3.5v5.3c0,1.9,0,2.7,0.1,3.8h-5.1c0.1-1,0.2-1.9,0.2-3.9v-5.2
		c0-1.6,0-2.3-0.2-3.5H386.2z M398.5,39.7c-0.1,1.5-0.1,1.9-0.1,3.6v3.1c0,3.6-0.2,6.2-0.6,7.7c-0.8,2.9-2.6,5.1-5.5,6.7
		c-1.5,0.9-2.9,1.4-5.5,2.2c-0.6-1.8-1.3-2.9-2.7-4.5c2.5-0.5,3.9-0.9,5.2-1.6c2.3-1.2,3.5-2.8,3.9-5.1c0.2-1,0.3-3.3,0.3-5.6v-2.8
		c0-1.9,0-2.5-0.2-3.6H398.5z"/>
	<path class="st7" d="M426,42.8c-0.4,0.4-0.5,0.6-0.8,1.4c-1.7,4-4,6.6-7.4,8.8c-0.9-1.2-1.8-2-3-2.9c-0.2,2.8-0.6,4.7-1.5,6.4
		c-0.9,1.7-2.3,3.2-4.1,4.5c-1.1,0.7-2,1.2-3.7,2c-1.1-2.1-1.5-2.7-3-4.3c2.9-0.9,4.8-2.1,6.1-3.7c1.3-1.6,1.7-3.5,1.7-7
		c0-0.8,0-1.2-0.2-1.8h5c-0.1,0.5-0.1,0.8-0.1,2.3c0,0,0,0.7,0,0.9c0.2-0.1,0.2-0.1,0.6-0.3c1.9-1,3.5-2.6,4.4-4.5h-12.6
		c-2,0-2.9,0.1-4.2,0.2v-4.6c1.2,0.2,2.1,0.2,4.3,0.2h13.9c1.5,0,1.7,0,2.3-0.3L426,42.8z"/>
	<path class="st7" d="M435.3,40c-0.1,0.9-0.1,0.9-0.3,6.1c-0.2,5.5-0.7,8.5-2,11.4c-0.9,2-1.9,3.4-3.7,5.3c-1.4-1.8-2.1-2.5-3.8-3.7
		c1.5-1.4,2.3-2.5,3.2-4.2c1.2-2.6,1.7-5.9,1.7-12.7c0-1.2,0-1.7-0.1-2.4L435.3,40z M442.8,39.6c-0.2,1.1-0.2,1.5-0.2,3.1l-0.1,13.9
		c1.4-0.9,2.3-1.7,3.2-2.9c1-1.4,1.6-2.7,2.1-4.5c1.3,1.6,2,2.3,3.5,3.5c-1.2,3-2.6,5-4.6,6.7c-1.6,1.4-2.9,2-5.6,3
		c-0.7,0.3-1,0.3-1.3,0.6l-2.3-2.4c0.2-0.7,0.3-1.1,0.3-2.2l0.1-15.7v-1c0-0.8,0-1.4-0.1-2.1H442.8z"/>
	<path class="st7" d="M463.4,39.1c-0.2,0.5-0.2,0.5-0.5,2.1c-0.1,0.6-0.2,0.9-0.3,1.5c1.7-0.2,2.8-0.4,3.7-0.6l0.1,4.3
		c-0.6,0.1-0.6,0.1-2,0.2c-0.7,0.1-2.2,0.2-2.8,0.3c-1,3.1-1.6,5-2.9,7.7c-0.6,1.2-0.8,1.7-1.8,3.8c-0.3,0.7-0.3,0.7-0.5,1l-4.3-2.4
		c1.9-2.5,3.7-6.3,4.9-10c-0.5,0-0.5,0-1.5,0c-0.6,0-0.6,0-1.2,0c-0.1,0-0.2,0-1,0v-4.2c1,0.2,2.2,0.3,3.9,0.3c0.3,0,0.4,0,1,0
		c0-0.2,0-0.2,0.2-1.1s0.4-2.2,0.4-3.2L463.4,39.1z M474.8,61.4c-1-1.1-2-2-3.4-2.9c-0.1,1.2-0.4,2-1.1,2.8c-1,1-2.9,1.6-5,1.6
		s-3.9-0.6-5-1.7c-0.9-0.9-1.3-2-1.3-3.3c0-3.1,2.6-5.2,6.2-5.2c0.6,0,1,0,1.9,0.2c-0.1-1-0.1-1.5-0.1-2.1c0-1.1,0.1-1.9,0.2-3.1
		l4.4,0.2c-0.2,0.9-0.3,1.7-0.3,3c0,1,0.1,1.7,0.2,3.1c1.6,0.7,2.9,1.4,4.1,2.4c0.1,0.1,0.5,0.4,1.3,1L474.8,61.4z M465.3,56.4
		c-1.2,0-2,0.5-2,1.4c0,0.8,0.7,1.3,1.9,1.3c1.3,0,2-0.6,2-1.7c0-0.2,0-0.6-0.1-0.6C466.4,56.5,466,56.4,465.3,56.4z M475.1,49
		c-2.5-1.6-5.1-2.8-8.2-3.8l2.2-3.7c3.3,1.2,5.5,2.1,8,3.6L475.1,49z"/>
	<path class="st7" d="M488.3,38.9c0,1.4,0.8,5.4,1.5,7.8c0.7-0.2,1.1-0.4,1.7-0.6c0.3-0.1,1.6-0.5,3.9-1.2c1.6-0.5,1.6-0.5,2-0.7
		l1.5,4.7c-2.6,0.4-6.3,1.4-9.5,2.5c-3.4,1.2-5.1,2.6-5.1,4.2c0,1.6,1.6,2.3,5.3,2.3c2.4,0,5.3-0.3,7.8-0.8c0.4-0.1,0.7-0.2,1.4-0.4
		l0.3,5c-0.6,0-1,0.1-2.3,0.2c-2.9,0.3-4.7,0.5-6.7,0.5c-3.8,0-6.5-0.6-8.2-1.7c-1.5-1-2.4-2.9-2.4-5c0-2.1,1-4.1,2.7-5.5
		c0.9-0.7,1.7-1.2,3.3-2c-0.6-2.2-0.8-3.3-1.6-7c-0.3-1.3-0.3-1.4-0.4-1.7L488.3,38.9z M495.4,38.8c0.9,1.2,1.6,2.6,2.3,4.3
		l-2.6,0.9c-0.7-1.9-1.4-3.1-2.3-4.4L495.4,38.8z M499.1,37.7c1,1.4,1.6,2.4,2.2,4l-2.5,0.9c-0.7-1.8-1.4-3-2.2-4.2L499.1,37.7z"/>
</g>
<g class="st6">
	<path class="st7" d="M309,106v13.3c0,2.1-0.9,2.3-3.7,2.3c-0.1-0.6-0.3-1.5-0.6-2.1c0.5,0,1,0.1,1.4,0.1c0.7,0,0.8,0,0.8-0.4v-3.2
		H304c-0.3,2-1,4.1-2.3,5.6c-0.3-0.3-1.2-0.9-1.7-1.1c0.5-0.5,0.8-1,1.1-1.6h-2.7v2.7h-2v-2.7h-3.2V117h3.2v-0.9H294v-6.4h2.5v-0.9
		h-3V107h3v-1.8l2.5,0.1c0,0.2-0.1,0.3-0.5,0.3v1.3h3v1.8h-3v0.9h2.5v6.4h-2.5v0.9h3v1c0.7-2,0.8-4.2,0.8-6V106H309z M295.8,111.3
		v0.9h3.2v-0.9H295.8z M295.8,113.7v0.9h3.2v-0.9H295.8z M304.3,112c0,0.7,0,1.4-0.1,2.1h2.7V112H304.3z M306.9,107.9h-2.6v2.3h2.6
		V107.9z"/>
	<path class="st7" d="M323.8,116.2c0.2-0.2,0.5-0.4,0.7-0.5l1.7,1.5c-0.1,0.1-0.2,0.1-0.3,0.1c-0.1,0-0.1,0-0.2,0
		c-0.7,0.5-1.8,1.1-2.8,1.6c1.1,0.5,2.5,0.8,4,1c-0.4,0.4-1,1.3-1.3,1.8c-3.8-0.6-6.3-2.2-7.9-4.9h-1.8v2.5c1.1-0.1,2.4-0.2,3.6-0.2
		v1.7c-2.5,0.3-5.1,0.5-6.7,0.7c0,0.2-0.2,0.3-0.3,0.3l-0.6-2.1l2.1-0.1v-8.5c-0.7,0.4-1.4,0.8-2.1,1.1c-0.3-0.5-0.8-1.3-1.2-1.7
		c2.9-1.2,5.8-3.4,7.2-5.3l2.8,0.1c0,0.2-0.2,0.3-0.4,0.3c1.7,1.9,4.7,3.7,7.2,4.6c-0.5,0.5-1,1.3-1.3,1.9c-0.7-0.3-1.4-0.7-2.1-1.1
		V116.2z M319.8,110.4h3.1c-1.6-1-3.2-2.2-4.1-3.4c-0.9,1.1-2.4,2.3-4,3.4h2.9v-1.8l2.6,0.1c0,0.2-0.1,0.3-0.5,0.3V110.4z
		 M315.9,112v0.8h5.7V112H315.9z M315.9,114.3v0.9h5.7v-0.9H315.9z M319.9,116.8c0.4,0.4,0.8,0.8,1.3,1.1c0.6-0.3,1.2-0.7,1.8-1.1
		H319.9z"/>
	<path class="st7" d="M339.4,108.7c0.1,0,0.2,0,0.3,0c1.4,0,3.9,0.9,3.9,3.8c0,2.5-1.8,3.9-4.2,3.9c-0.9,0-2.1-0.3-3.3-1.2
		c0.2-0.5,0.4-1.3,0.5-1.8c0.9,0.7,1.9,1,2.6,1c1.2,0,2-0.7,2-1.9c0-0.7-0.4-1.7-2.2-1.7c-1.2,0-3,0.5-4.8,1.2
		c0.9,3.1,2,6.6,2.5,8.9l-2.4,0.5c-0.4-2.3-1.4-5.9-2.2-8.6c-1,0.4-2.4,0.9-3.3,1.2c0,0.2-0.1,0.3-0.3,0.4l-0.8-2.3
		c1-0.3,2.6-0.8,3.9-1.3c-0.5-1.5-0.9-3-1.3-4.2l2.8-0.5c0,0.2-0.1,0.3-0.4,0.5c0.2,0.9,0.6,2.1,1,3.5c1.6-0.5,2.9-1,4.1-1.1
		c-0.8-0.7-1.9-1.6-2.7-2l1.4-1.3c1.2,0.5,2.8,1.7,3.5,2.5L339.4,108.7z"/>
	<path class="st7" d="M359.6,105.9l1.3,0.5c0,0.1-0.1,0.2-0.2,0.3c-0.5,1.8-1.4,3.3-2.6,4.5c1,0.6,2.1,1.1,3.4,1.4
		c-0.4,0.4-1,1.2-1.3,1.7c-1.4-0.4-2.6-1-3.6-1.8c-1.1,0.8-2.3,1.4-3.6,1.8c-0.2-0.4-0.6-1-0.9-1.5v3h-2.5v1h2.9v1.8h-2.9v2.8h-1.9
		v-2.8h-2.9V117h2.9v-1h-2.4v-6.4h2.4v-0.9h-2.8v-1.8h2.8v-1.7l2.3,0.1c0,0.2-0.1,0.2-0.4,0.3v1.2h2.7v1.8h-2.7v0.9h2.5v3.1
		c1.1-0.3,2.2-0.8,3.2-1.5c-0.7-0.9-1.3-1.9-1.8-3l1.4-0.4h-2.1V106h6.5L359.6,105.9z M346.8,111.1v1h1.1v-1H346.8z M346.8,113.5v1
		h1.1v-1H346.8z M350.5,112.1v-1h-1.1v1H350.5z M350.5,114.5v-1h-1.1v1H350.5z M357.7,117.2v2.2h3.5v1.8h-9.1v-1.8h3.6v-2.2H353
		v-1.8h2.7v-1.9l2.5,0.1c0,0.2-0.1,0.3-0.5,0.3v1.5h2.7v1.8H357.7z M355.2,107.8c0.3,0.8,0.8,1.5,1.4,2.2c0.6-0.6,1.1-1.4,1.5-2.2
		H355.2z"/>
	<path class="st7" d="M366.1,107.7c-0.1,0.2-0.2,0.3-0.5,0.3c-0.3,1.4-0.5,3.2-0.5,4.8c0,3.8,1.1,5.2,2.1,5.2c0.6,0,1.3-1.7,1.7-3.2
		c0.4,0.4,1.3,1.1,1.8,1.4c-0.8,2.9-2,4.2-3.6,4.2c-2.7,0-4-3.4-4.2-6.2c0-0.6-0.1-1.3-0.1-2c0-1.6,0.1-3.3,0.3-5L366.1,107.7z
		 M375.8,116.1c-0.5-3.1-2-5-4.1-6.3l1.4-1.6c2.5,1.3,4.5,3.7,5,7.1L375.8,116.1z"/>
	<path class="st7" d="M389,109.9c-0.9,0.3-1.9,0.5-3,0.6c0,0.8,0,1.7,0,2.4c1.2-0.3,2.4-0.6,3.3-0.6c2.9,0,5,1.4,5,4.2
		c0,2.5-1.4,4.4-4.4,4.4c-1.2,0-2.3-0.5-3.3-1.5c0.4-0.5,0.8-1.1,1.1-1.7c0.6,0.8,1.4,1.2,2.2,1.2c1.4,0,2.2-1,2.2-2.3
		c0-1.4-1-2.4-2.9-2.4c-0.9,0-2.1,0.2-3.3,0.6v3.4c0,1.6-1,3-3.2,3c-1.5,0-3.2-0.9-3.2-3c0-1.2,0.8-2.4,2.1-3.4
		c0.6-0.5,1.4-0.9,2.2-1.2v-3c-1.1,0.1-2.4,0.1-3.8,0.1l0-2.1c1.4,0,2.7,0,3.9-0.1v-3l2.8,0.1c0,0.2-0.2,0.4-0.5,0.4
		c-0.1,0.7-0.1,1.5-0.1,2.3c1-0.1,1.9-0.3,2.7-0.6L389,109.9z M383.9,115.6c-1,0.6-2.3,1.4-2.3,2.6c0,0.7,0.4,1.2,1.2,1.2
		c0.7,0,1.2-0.4,1.2-1.2C383.9,117.7,383.9,116.7,383.9,115.6z M393.7,111.6c-0.9-0.9-2.5-1.8-3.9-2.3l1.1-1.8
		c1.5,0.5,3.1,1.4,4.1,2.3L393.7,111.6z"/>
	<path class="st7" d="M407.7,108.7c0.1,0,0.2,0,0.3,0c1.4,0,3.9,0.9,3.9,3.8c0,2.5-1.8,3.9-4.2,3.9c-0.9,0-2.1-0.3-3.3-1.2
		c0.2-0.5,0.4-1.3,0.5-1.8c0.9,0.7,1.9,1,2.6,1c1.2,0,2-0.7,2-1.9c0-0.7-0.4-1.7-2.2-1.7c-1.2,0-3,0.5-4.8,1.2
		c0.9,3.1,2,6.6,2.5,8.9l-2.4,0.5c-0.4-2.3-1.4-5.9-2.2-8.6c-1,0.4-2.4,0.9-3.3,1.2c0,0.2-0.1,0.3-0.3,0.4l-0.8-2.3
		c1-0.3,2.6-0.8,3.9-1.3c-0.5-1.5-0.9-3-1.3-4.2l2.8-0.5c0,0.2-0.1,0.3-0.4,0.5c0.2,0.9,0.6,2.1,1,3.5c1.6-0.5,2.9-1,4.1-1.1
		c-0.8-0.7-2-1.6-2.7-2l1.4-1.3c1.2,0.5,2.8,1.7,3.5,2.5L407.7,108.7z"/>
	<path class="st7" d="M413.2,109.9c0.5-0.1,1.1-0.2,2-0.5c3-0.9,5.6-1.6,7.7-1.6c3,0,5.7,1.4,5.7,5.3c0,4.4-4,6.3-10.3,6.8
		c-0.1-0.5-0.5-1.6-0.9-2.1c5.6-0.5,8.8-1.9,8.8-4.6c0-2.2-1.6-3.2-3.5-3.2c-1.7,0-4.2,0.6-6.9,1.5c-0.4,0.2-0.9,0.3-1.3,0.5
		c0,0.2-0.2,0.4-0.3,0.5L413.2,109.9z"/>
	<path class="st7" d="M434.5,106.6c0,0.2-0.2,0.3-0.5,0.3c-0.7,3.1-0.9,6.2-0.9,7.7c0,1,0,1.9,0.1,2.5c0.2-0.5,0.9-2,1.1-2.5l1,1.6
		c-0.6,1.2-1.2,2.2-1.4,3c-0.1,0.3-0.1,0.6-0.1,0.8c0,0.2,0,0.4,0.1,0.6l-2.2,0.3c-0.6-1.7-0.8-3.9-0.8-6.2c0-2.4,0.4-5.6,0.8-8.5
		L434.5,106.6z M444.9,119.6c-0.6,0-1.3,0.1-2,0.1c-1.1,0-2.2-0.1-3-0.2c-2.4-0.3-3.4-1.6-3.4-3.1c0-1.3,0.6-2.3,1.5-3.5l2.1,0.7
		c-0.8,0.8-1.3,1.6-1.3,2.4c0,1.3,1.6,1.4,3.6,1.4c0.8,0,1.7,0,2.5-0.1L444.9,119.6z M437,108.3c2-0.1,5.3-0.3,7.4-0.6l0.2,2.2
		c-2.1,0.3-5.4,0.6-7.5,0.6L437,108.3z"/>
	<path class="st7" d="M456,115.4c-1,0.1-2.4,0.2-3.7,0.2c0,0.4-0.1,0.7-0.1,1c0,2,1.3,2.4,2.8,2.4c0.7,0,1.5-0.1,2.2-0.3
		c0.8-0.2,1.2-0.8,1.2-1.7c0-0.8-0.4-1.8-1.3-2.9c0.6-0.2,1.5-0.5,2-0.7c1,1.5,1.5,2.8,1.5,4c0,3.6-4.6,3.6-5.7,3.6
		c-3.4,0-4.9-1.2-4.9-4.5c0-0.5,0-0.7,0.1-1c-1.3-0.1-3.6-0.3-3.6-2.3c0-0.8,0.4-1.6,1.4-2.4l1.7,0.7c-0.7,0.4-1.1,0.9-1.1,1.3
		c0,0.6,1,0.7,1.8,0.7c0.1-1,0.2-2,0.3-3.1c-1.1-0.1-2.4-0.4-3.4-0.8l0.5-2c0.9,0.4,2,0.7,3.2,0.8c0.1-1,0.2-2,0.3-2.9l2.9,0.3
		c0,0.2-0.3,0.4-0.6,0.4c-0.1,0.6-0.3,1.4-0.4,2.3c0.3,0,0.7,0,1.2,0c0.6,0,1.4,0,1.9-0.1l-0.1,2c-0.5,0-1,0.1-1.6,0.1
		c-0.6,0-1.2,0-1.7,0c-0.1,1-0.2,2.1-0.3,3c1.2,0,2.4-0.1,3.5-0.3L456,115.4z"/>
	<path class="st7" d="M466.7,119.2c0,1.3-1.1,2.4-2.4,2.4s-2.4-1.1-2.4-2.4s1.1-2.4,2.4-2.4C465.6,116.8,466.7,117.9,466.7,119.2z
		 M465.9,119.2c0-0.9-0.7-1.7-1.7-1.7c-0.9,0-1.6,0.7-1.6,1.7c0,0.9,0.7,1.6,1.6,1.6C465.2,120.8,465.9,120.1,465.9,119.2z"/>
	<path class="st7" d="M328.7,140.4c-1,0.1-2.4,0.2-3.7,0.2c0,0.4-0.1,0.7-0.1,1c0,2,1.3,2.4,2.8,2.4c0.7,0,1.5-0.1,2.2-0.3
		c0.8-0.2,1.2-0.8,1.2-1.7c0-0.8-0.4-1.8-1.3-2.9c0.6-0.2,1.5-0.5,2-0.7c1,1.5,1.5,2.8,1.5,4c0,3.6-4.6,3.6-5.7,3.6
		c-3.4,0-4.9-1.2-4.9-4.5c0-0.5,0-0.7,0.1-1c-1.3-0.1-3.6-0.3-3.6-2.3c0-0.8,0.4-1.6,1.4-2.4l1.7,0.7c-0.7,0.4-1.1,0.9-1.1,1.3
		c0,0.6,1,0.7,1.8,0.7c0.1-1,0.2-2,0.3-3.1c-1.1-0.1-2.4-0.4-3.4-0.8l0.5-2c0.9,0.4,2,0.7,3.2,0.8c0.1-1,0.2-2,0.3-2.9l2.9,0.3
		c0,0.2-0.3,0.4-0.6,0.4c-0.1,0.6-0.3,1.4-0.4,2.3c0.3,0,0.7,0,1.2,0c0.6,0,1.4,0,1.9-0.1l-0.1,2c-0.5,0-1,0.1-1.6,0.1
		c-0.6,0-1.2,0-1.7,0c-0.1,1-0.2,2.1-0.3,3c1.2,0,2.4-0.1,3.5-0.3L328.7,140.4z"/>
	<path class="st7" d="M339.1,131.1c0,0.2-0.2,0.3-0.5,0.4c-0.2,2.3-0.3,6.4-0.3,8.9c0,2.2,1.1,3.3,3,3.3c1.7,0,3.6-0.9,5.6-2.9
		c0.3,0.5,0.9,1.6,1.3,2c-2.2,2.2-4.5,3.2-6.9,3.2c-3.9,0-5.4-2.1-5.4-5.5c0-2.3,0.1-7.4,0.2-9.5L339.1,131.1z"/>
	<path class="st7" d="M358.1,140.4c-1,0.1-2.4,0.2-3.7,0.2c0,0.4-0.1,0.7-0.1,1c0,2,1.3,2.4,2.8,2.4c0.7,0,1.5-0.1,2.2-0.3
		c0.8-0.2,1.2-0.8,1.2-1.7c0-0.8-0.4-1.8-1.3-2.9c0.6-0.2,1.5-0.5,2-0.7c1,1.5,1.5,2.8,1.5,4c0,3.6-4.6,3.6-5.7,3.6
		c-3.4,0-4.9-1.2-4.9-4.5c0-0.5,0-0.7,0.1-1c-1.3-0.1-3.6-0.3-3.6-2.3c0-0.8,0.4-1.6,1.4-2.4l1.7,0.7c-0.7,0.4-1.1,0.9-1.1,1.3
		c0,0.6,1,0.7,1.8,0.7c0.1-1,0.2-2,0.3-3.1c-1.1-0.1-2.4-0.4-3.4-0.8l0.5-2c0.9,0.4,2,0.7,3.2,0.8c0.1-1,0.2-2,0.3-2.9l2.9,0.3
		c0,0.2-0.3,0.4-0.6,0.4c-0.1,0.6-0.3,1.4-0.4,2.3c0.3,0,0.7,0,1.2,0c0.6,0,1.4,0,1.9-0.1l-0.1,2c-0.5,0-1,0.1-1.6,0.1
		c-0.6,0-1.2,0-1.7,0c-0.1,1-0.2,2.1-0.3,3c1.2,0,2.4-0.1,3.5-0.3L358.1,140.4z"/>
	<path class="st7" d="M373.5,134.3c-0.1,0.2-0.3,0.3-0.5,0.3c-0.7,6-2.5,9.4-5.4,9.4c-1.9,0-3.3-1.6-3.3-4.6c0-4.5,3.6-7.7,8-7.7
		c4.9,0,7.5,2.9,7.5,6.7c0,4.1-2.1,6.2-6.5,7.3c-0.3-0.5-0.8-1.3-1.4-1.8c4-0.8,5.6-2.7,5.6-5.4c0-2.8-2-4.7-5.2-4.7
		c-0.3,0-0.6,0-0.9,0.1L373.5,134.3z M370.7,134c-2.6,0.6-4.3,2.9-4.3,5.4c0,1.5,0.4,2.5,1.2,2.5C369.3,141.9,370.4,138.1,370.7,134
		z"/>
	<path class="st7" d="M387,131.3v12h-3.5v1.5h-1.9v-13.5H387z M385.1,133.1h-1.6v3.2h1.6V133.1z M383.5,141.4h1.6v-3.3h-1.6V141.4z
		 M393.4,135.5h4v1.9h-10.1v-1.9h4v-1.6h-3.4v-1.8h3.4v-1.9l2.5,0.1c0,0.2-0.2,0.3-0.5,0.3v1.4h3.5v1.8h-3.5V135.5z M396.1,137.5
		c0,0.2-0.1,0.3-0.5,0.3v1h1.8v1.8h-1.8v3.8c0,1.8-0.6,2.2-3.8,2.2c-0.1-0.6-0.4-1.4-0.7-2c0.5,0,1,0,1.5,0c0.9,0,1,0,1-0.3v-3.8
		h-6.2v-1.8h6.2v-1.4L396.1,137.5z M390.1,144.9c-0.3-0.8-1.2-2.1-2-3l1.7-1c0.8,0.9,1.7,2,2.1,2.9L390.1,144.9z"/>
	<path class="st7" d="M403,131.6c0,0.2-0.2,0.3-0.5,0.3c-0.7,3.1-0.9,6.2-0.9,7.7c0,1,0,1.9,0.1,2.5c0.2-0.5,0.9-2,1.1-2.5l1,1.6
		c-0.6,1.2-1.2,2.2-1.4,3c-0.1,0.3-0.1,0.6-0.1,0.8c0,0.2,0,0.4,0.1,0.6l-2.2,0.3c-0.6-1.7-0.8-3.9-0.8-6.2c0-2.4,0.4-5.6,0.8-8.5
		L403,131.6z M413.4,144.6c-0.6,0-1.3,0.1-2,0.1c-1.1,0-2.2-0.1-3-0.2c-2.4-0.3-3.4-1.6-3.4-3.1c0-1.3,0.6-2.3,1.5-3.5l2.1,0.7
		c-0.8,0.8-1.3,1.6-1.3,2.4c0,1.3,1.6,1.4,3.6,1.4c0.8,0,1.7,0,2.5-0.1L413.4,144.6z M405.5,133.3c2-0.1,5.3-0.3,7.4-0.6l0.2,2.2
		c-2.1,0.3-5.4,0.6-7.5,0.6L405.5,133.3z"/>
	<path class="st7" d="M427.5,145c-1.4,0.2-3.4,0.3-5.2,0.3c-1.5,0-2.9-0.1-3.6-0.2c-2.2-0.5-3.2-2-3.2-3.6c0-1.4,0.7-2.7,1.6-3.7
		l1.9,0.8c-0.8,0.8-1.3,1.7-1.3,2.4c0,2.1,2.5,2.1,4.3,2.1c1.7,0,3.8-0.2,5.4-0.5L427.5,145z M419,135.9c0.6-0.5,1.5-1.1,2.2-1.5v0
		c-0.9,0.1-3.4,0.2-4.8,0.2c0-0.5,0-1.6-0.1-2.1c0.3,0,0.7,0,1.2,0c1.8,0,4.3-0.1,5.5-0.1c1-0.1,2.3-0.2,3.4-0.4l0.2,2.3
		c-2.5,0.4-4.6,1.9-5.7,2.7L419,135.9z"/>
	<path class="st7" d="M431,131.4c0.6,0,1.3,0,2.2,0c1.6,0,5.5-0.3,6.7-0.7l0.5,2c-0.2,0-0.5,0.2-0.7,0.3c-1.5,1-3.7,2.6-5.5,3.8
		c2.8-0.6,6.5-0.9,9.2-1l0,2.1c-1.1-0.1-2.8,0.1-3.6,0.3c-1.5,0.5-4.2,2.4-4.2,4.1c0,0.6,0.3,1,0.8,1.2c0.8,0.3,2.6,0.5,3.9,0.5
		l-0.7,2.2c-2-0.1-4-0.5-5.1-1.3c-0.7-0.5-1.3-1.4-1.3-2.5c0-1.5,1.3-3,3.2-4.3c-2.5,0.4-5,0.9-7.5,1.6l-0.3-2.1
		c1-0.2,1.7-0.4,2.3-0.8c1-0.6,4.2-2.9,5.3-3.8c-1.2,0.2-4,0.4-4.6,0.4c-0.1,0.1-0.4,0.3-0.6,0.3L431,131.4z"/>
	<path class="st7" d="M282.6,161.5c2.7-0.7,6-1.5,7.4-1.5c2.4,0,4.4,1.2,4.4,4.3c0,3.4-2.5,5.6-7.3,7.1c-0.3-0.5-1-1.4-1.5-1.9
		c4.1-1,6.4-2.9,6.4-5c0-1.4-0.7-2.3-2.1-2.3c-1.5,0-3.8,0.6-6.1,1.4c0,0.2-0.2,0.4-0.4,0.4L282.6,161.5z M285.4,155.6
		c2.4,0.1,5.1,0.6,6.9,1.1l-0.6,2.2c-1.8-0.6-4.7-1.1-6.9-1.3L285.4,155.6z"/>
	<path class="st7" d="M296.8,158.9c1.2,0,2.5-0.1,3.1-0.2c0-0.3,0.1-3,0.1-3.1l2.8,0.2c0,0.2-0.2,0.3-0.5,0.4
		c-0.1,0.7-0.2,1.6-0.2,2.2l0.7,0.3c-0.3,0.6-0.7,1.5-1,2.2c1.8-1.7,3.6-2.5,4.8-2.5c1.8,0,2.8,1.2,2.8,3.3c0,0.2,0,0.4,0,0.6
		c-0.2,2.6-0.3,3.2-0.3,4.5c0,0.9,0.1,1.3,0.6,1.3c0.5,0,1.5-0.6,2.2-1.2c0,0.6,0.1,2,0.2,2.4c-0.9,0.6-1.9,1-2.8,1
		c-1.9,0-2.5-1-2.5-3.3c0-0.2,0-1.7,0.3-4.5c0-0.2,0-0.4,0-0.5c0-1.1-0.4-1.5-1-1.5c-1,0-2.7,1-4.4,2.8c0,3.4,0,6.7,0,7.6h-2.2
		l0-5.7c-0.5,0.9-1.6,2.2-2.7,3.2l-1-2.1c1.2-1,3-3,3.8-4.5c0-0.4,0-0.8,0-1.2c-0.7,0.1-1.9,0.3-3,0.3L296.8,158.9z"/>
	<path class="st7" d="M317.5,156.1c0,0.2-0.2,0.3-0.5,0.4c-0.2,2.3-0.3,6.4-0.3,8.9c0,2.2,1.1,3.3,3,3.3c1.7,0,3.6-0.9,5.6-2.9
		c0.3,0.5,0.9,1.6,1.3,2c-2.2,2.2-4.5,3.2-6.9,3.2c-3.9,0-5.4-2.1-5.4-5.5c0-2.3,0.1-7.4,0.2-9.5L317.5,156.1z"/>
	<path class="st7" d="M330.9,157.7c-0.1,0.2-0.2,0.3-0.5,0.3c-0.3,1.4-0.5,3.2-0.5,4.8c0,3.8,1.1,5.2,2.1,5.2c0.6,0,1.3-1.7,1.7-3.2
		c0.4,0.4,1.3,1.1,1.8,1.4c-0.8,2.9-2,4.2-3.6,4.2c-2.7,0-4-3.4-4.2-6.2c0-0.6-0.1-1.3-0.1-2c0-1.6,0.1-3.3,0.3-5L330.9,157.7z
		 M340.6,166.1c-0.5-3.1-2-5-4.1-6.3l1.4-1.6c2.5,1.3,4.5,3.7,5,7.1L340.6,166.1z"/>
	<path class="st7" d="M351.4,156.1c0,0.2-0.3,0.3-0.6,0.4c-0.2,0.9-0.4,2.4-0.6,3.4c0.5-0.1,1.1-0.1,1.4-0.1c2.9,0,3.8,2,3.8,4.7v0
		c-0.1,3.8-1.1,6.6-3.8,6.6c-0.7,0-1.7-0.3-3.1-1.4c0.3-0.5,0.6-1.3,0.7-1.9c1.2,0.8,1.9,1,2.3,1c0.7,0,1.1-0.6,1.4-1.6
		c0.2-0.8,0.4-2.2,0.4-2.9c0-1.7-0.5-2.6-1.8-2.6c-0.4,0-1,0-1.7,0.1c-0.8,3.2-1.7,6.3-3.2,9.1l-2-1c1.4-2.6,2.3-5,3-7.9
		c-0.6,0.1-1.9,0.3-2.6,0.4l-0.2-2.2l3.2-0.4c0.2-1.3,0.5-2.7,0.6-4.2L351.4,156.1z M358.2,164.7c-0.4-2.3-2-4.5-3.4-5.8l1.7-1.2
		c1.8,1.3,3.6,3.9,4,6.1L358.2,164.7z"/>
	<path class="st7" d="M371,165.4c-1,0.1-2.4,0.2-3.7,0.2c0,0.4-0.1,0.7-0.1,1c0,2,1.3,2.4,2.8,2.4c0.7,0,1.5-0.1,2.2-0.3
		c0.8-0.2,1.2-0.8,1.2-1.7c0-0.8-0.4-1.8-1.3-2.9c0.6-0.2,1.5-0.5,2-0.7c1,1.5,1.5,2.8,1.5,4c0,3.6-4.6,3.6-5.7,3.6
		c-3.4,0-4.9-1.2-4.9-4.5c0-0.5,0-0.7,0.1-1c-1.3-0.1-3.6-0.3-3.6-2.3c0-0.8,0.4-1.6,1.4-2.4l1.7,0.7c-0.7,0.4-1.1,0.9-1.1,1.3
		c0,0.6,1,0.7,1.8,0.7c0.1-1,0.2-2,0.3-3.1c-1.1-0.1-2.4-0.4-3.4-0.8l0.5-2c0.9,0.4,2,0.7,3.2,0.8c0.1-1,0.2-2,0.3-2.9l2.9,0.3
		c0,0.2-0.3,0.4-0.6,0.4c-0.1,0.6-0.3,1.4-0.4,2.3c0.3,0,0.7,0,1.2,0c0.6,0,1.4,0,1.9-0.1l-0.1,2c-0.5,0-1,0.1-1.6,0.1
		c-0.6,0-1.2,0-1.7,0c-0.1,1-0.2,2.1-0.3,3c1.2,0,2.4-0.1,3.5-0.3L371,165.4z"/>
	<path class="st7" d="M381.4,156.1c0,0.2-0.2,0.3-0.5,0.4c-0.2,2.3-0.3,6.4-0.3,8.9c0,2.2,1.1,3.3,3,3.3c1.7,0,3.6-0.9,5.6-2.9
		c0.3,0.5,0.9,1.6,1.3,2c-2.2,2.2-4.5,3.2-6.9,3.2c-3.9,0-5.4-2.1-5.4-5.5c0-2.3,0.1-7.4,0.2-9.5L381.4,156.1z"/>
	<path class="st7" d="M391.7,158.9c1.2,0,2.5-0.1,3.1-0.2c0-0.3,0.1-3,0.1-3.1l2.8,0.2c0,0.2-0.2,0.3-0.5,0.4
		c-0.1,0.7-0.2,1.6-0.2,2.2l0.7,0.3c-0.3,0.6-0.7,1.5-1,2.2c1.8-1.7,3.6-2.5,4.8-2.5c1.8,0,2.8,1.2,2.8,3.3c0,0.2,0,0.4,0,0.6
		c-0.2,2.6-0.3,3.2-0.3,4.5c0,0.9,0.1,1.3,0.6,1.3c0.5,0,1.5-0.6,2.2-1.2c0,0.6,0.1,2,0.2,2.4c-0.9,0.6-1.9,1-2.8,1
		c-1.9,0-2.5-1-2.5-3.3c0-0.2,0-1.7,0.3-4.5c0-0.2,0-0.4,0-0.5c0-1.1-0.4-1.5-1-1.5c-1,0-2.7,1-4.4,2.8c0,3.4,0,6.7,0,7.6h-2.2
		l0-5.7c-0.5,0.9-1.6,2.2-2.7,3.2l-1-2.1c1.2-1,3-3,3.8-4.5c0-0.4,0-0.8,0-1.2c-0.7,0.1-1.9,0.3-3,0.3L391.7,158.9z"/>
	<path class="st7" d="M408.3,157.7c1.1,0.1,2.7,0.1,4,0.1c0.6,0,1.1,0,1.7,0c0-0.7,0-1.6,0-2.1l2.7,0.1c0,0.2-0.2,0.3-0.5,0.4v1.6
		c1.8-0.1,3.6-0.2,5.3-0.6l0.2,2c-1.6,0.3-3.4,0.4-5.5,0.5c0,0.8,0,1.6,0,2.4c1.6-0.1,3.3-0.3,4.4-0.6l0.2,1.9
		c-1.1,0.2-2.9,0.4-4.5,0.5c0,0.9,0.1,1.6,0.1,2.3c1.6,0.5,3.2,1.4,4.7,2.5l-1.3,1.9c-1.1-1-2.2-1.7-3.3-2.2v0.5
		c0,1.4-1.2,2.4-3.6,2.4c-2.3,0-3.9-1.1-3.9-2.8c0-1.8,1.9-2.8,4-2.8c0.4,0,0.9,0,1.3,0.1c0-0.5,0-1.1-0.1-1.7c-0.5,0-1,0-1.4,0
		c-2.4,0-3.8-0.4-3.8-1.7c0-0.7,0.5-1.4,1.8-2.2l1.5,0.8c-0.6,0.3-1.1,0.6-1.1,0.9c0,0.3,0.2,0.4,2,0.4c0.3,0,0.6,0,0.9,0l-0.1-2.5
		c-0.5,0-1.1,0-1.7,0c-1.2,0-3,0-4,0V157.7z M414.3,167.4c-0.5-0.1-1.1-0.2-1.5-0.2c-1.1,0-1.9,0.5-1.9,1.1c0,0.7,0.9,1.1,2,1.1
		c1,0,1.5-0.4,1.5-1.3L414.3,167.4z"/>
	<path class="st7" d="M438.7,161.4c-0.9,0.1-2.2,0.2-3.5,0.4c0,1.4,0,2.7-0.2,3.5c-0.3,1.1-1.1,1.8-2.4,1.8c-0.4,0-1.4-0.1-2.5-0.7
		c0.1-0.4,0.2-1.2,0.2-1.8c0.8,0.4,1.5,0.6,1.8,0.6c0.4,0,0.7-0.3,0.8-0.6c0.1-0.5,0.1-1.5,0.1-2.5c-1.6,0.3-3.3,0.5-4.5,0.8
		c0,1.6,0.1,3.1,0.1,3.9c0.1,1.6,0.8,2.1,2.5,2.2c0.3,0,0.6,0,1,0c1.3,0,3.3-0.1,4.6-0.3l0.1,2c-1.4,0.2-3,0.2-4.4,0.2
		c-2.9,0-5.5-0.2-5.8-4c-0.1-0.8-0.1-2.2-0.2-3.6c-1,0.2-2.4,0.5-3.1,0.6l-0.3-2.1c0.8-0.1,2.2-0.3,3.4-0.6c0-1.5,0-3.2,0-4.3
		l2.8,0.2c0,0.2-0.2,0.3-0.5,0.4c-0.1,0.9,0,2.2-0.1,3.3c1.3-0.2,2.9-0.5,4.5-0.7c-0.1-1.4-0.1-3.1-0.2-4.3l2.7,0.1
		c0,0.2-0.1,0.3-0.4,0.4c0.1,1,0.1,2.3,0.1,3.5c1.2-0.2,2.5-0.4,3.4-0.5L438.7,161.4z"/>
	<path class="st7" d="M439.3,170.2c1.1-3.2,3.3-9.5,3.8-11.2c0.4-1,0.9-2.7,1-3.2l3,0.7c-0.1,0.3-0.3,0.4-0.7,0.4
		c-0.7,1.6-2.1,5.3-2.7,7c1-0.9,2.2-1.4,3.2-1.4c1.4,0,2.3,1,2.3,2.6c0,0.3-0.1,1.9-0.1,2.2c0,1,0.4,1.4,1.1,1.4
		c1.3,0,2.3-1.5,3.1-4.4c0.6,0.5,1.4,0.9,2,1.2c-1.1,3.4-2.7,5.4-5.2,5.4c-2.1,0-3.4-1.1-3.4-3c0-0.3,0.1-1.9,0.1-2.2
		c0-0.8-0.2-1.2-0.7-1.2c-1.6,0-3.3,2.4-3.8,3.9c-0.2,0.7-0.5,1.6-0.8,2.4L439.3,170.2z"/>
	<path class="st7" d="M456.2,158.7c1.2,0,2.2,0,3.3-0.1c0-0.4,0.1-2.5,0.1-2.9l2.7,0.2c0,0.2-0.2,0.3-0.5,0.4
		c-0.1,0.7-0.1,1.4-0.2,2.1l1,0.4c-0.4,0.6-0.8,1.5-1.2,2.4c0,0.1,0,0.2,0,0.3c1.7-1.4,3.6-2.3,5.3-2.3c2.8,0,4.1,1.7,4.1,5.2
		c0,1-0.1,2-0.3,2.8c0.5,0.4,0.9,0.9,1.3,1.3l-1.3,1.9c-0.2-0.3-0.6-0.8-1-1.2c-0.8,1-1.8,1.6-3.3,1.6c-1.8,0-3-1.1-3-2.7
		c0-1.6,1.3-2.7,3-2.7c0.8,0,1.6,0.2,2.4,0.6c0.1-0.5,0.2-1,0.2-1.7c0-2-0.7-3.2-2.2-3.2c-1.4,0-3.5,1-5,2.5c0,3.8,0,6.8,0,7.6h-2.1
		v-5.8c-0.4,0.8-1.4,2.2-2.4,3.2l-1.2-2c1.3-1.2,2.8-3.1,3.6-5c0-0.4,0-0.7,0-1.1c-0.6,0.1-1.6,0.2-3.2,0.2V158.7z M467.9,167.9
		c-0.5-0.5-1.2-0.7-1.8-0.7c-0.8,0-1.3,0.4-1.3,0.9c0,0.6,0.6,1,1.3,1C467,169.1,467.6,168.5,467.9,167.9z"/>
	<path class="st7" d="M477.5,169.2c0,1.3-1.1,2.4-2.4,2.4c-1.3,0-2.4-1.1-2.4-2.4s1.1-2.4,2.4-2.4
		C476.4,166.8,477.5,167.9,477.5,169.2z M476.7,169.2c0-0.9-0.7-1.7-1.7-1.7c-0.9,0-1.6,0.7-1.6,1.7c0,0.9,0.7,1.6,1.6,1.6
		C476,170.8,476.7,170.1,476.7,169.2z"/>
</g>
<g class="st6">
	<path class="st7" d="M316.7,200.8v1.1h-4.6v-1.1H316.7z M316.3,205.6v3.6h-2.5v0.5h-1.2v-4H316.3z M312.7,203.5v-1.1h3.6v1.1H312.7
		z M312.7,205.1v-1h3.6v1H312.7z M316.3,199.2v1.1h-3.5v-1.1H316.3z M315.1,206.7h-1.2v1.3h1.2V206.7z M323.1,205.9v1.3h-2.6v2.7
		h-1.4v-2.7h-2.6v-1.3h2.6v-1.2h-2v-1.3h2v-1.1h-2.2V201h1.1c-0.1-0.5-0.4-1.2-0.7-1.7l1.1-0.4c0.4,0.6,0.7,1.4,0.8,1.9l-0.6,0.2
		h2.2l-0.5-0.2c0.3-0.6,0.7-1.4,0.8-2l1.5,0.5c0,0.1-0.2,0.1-0.3,0.1c-0.2,0.5-0.5,1.1-0.8,1.6h1.3v1.3h-2.4v1.1h2.1v1.3h-2.1v1.2
		H323.1z"/>
	<path class="st7" d="M328.6,199.8h5.6v9.8h-1.3v-0.5h-3.1v0.6h-1.2v-1.8c-0.3,0.1-0.7,0.2-1.1,0.4c-0.1-0.6-0.4-1.6-0.7-2.3l1-0.3
		c0.3,0.7,0.6,1.5,0.7,2.1v-2.6l-0.9,0.4c0-0.2-0.1-0.3-0.2-0.5l-0.8,0v4.8h-1.2V206c0,0.1-0.1,0.1-0.3,0.1c-0.1,1-0.3,2.1-0.7,2.8
		c-0.2-0.2-0.7-0.4-1-0.5c0.3-0.6,0.5-1.7,0.6-2.7l1.3,0.3v-0.9c-0.5,0-1,0.1-1.4,0.1c0,0.1-0.1,0.2-0.2,0.2l-0.3-1.4h0.9
		c0.2-0.2,0.4-0.5,0.6-0.7c-0.3-0.5-0.9-1.1-1.4-1.6l0.7-1l0.3,0.2c0.3-0.7,0.7-1.4,0.9-2.1l1.4,0.6c0,0.1-0.2,0.1-0.3,0.1
		c-0.3,0.7-0.8,1.5-1.2,2.1c0.2,0.2,0.3,0.3,0.4,0.5c0.4-0.7,0.8-1.4,1.1-2l1.3,0.6c-0.1,0.1-0.2,0.1-0.3,0.1c-0.5,0.9-1.3,2-2.1,3
		l1.3,0c-0.1-0.3-0.3-0.6-0.5-0.9l1-0.5c0.4,0.6,0.7,1.3,1,1.9V199.8z M330.7,201.1h-0.9v2.7h0.9V201.1z M329.8,205.1v2.8h0.9v-2.8
		H329.8z M332.9,203.8v-2.7h-1v2.7H332.9z M331.9,207.9h1v-2.8h-1V207.9z"/>
	<path class="st7" d="M336.2,209.1c-0.3-0.9-0.5-2.8-0.5-4.4c0-1.7,0.3-3.4,0.6-5.3l1.8,0.3c0,0.1-0.2,0.2-0.3,0.2
		c-0.7,2.5-0.7,4.3-0.7,5.6c0,0.4,0,0.8,0,1c0.2-0.5,0.5-1.4,0.7-1.8l0.8,1c-0.3,0.6-0.7,1.6-1,2.2c-0.1,0.2-0.1,0.4-0.1,0.6
		c0,0.2,0,0.3,0.1,0.5L336.2,209.1z M339.3,202c0.8,0,1.7,0,2.6,0c0-0.9-0.1-1.7-0.1-2.6l1.8,0.1c0,0.1-0.1,0.2-0.3,0.3l0,2.1
		c0.8-0.1,1.5-0.2,2-0.4l0.1,1.4c-0.5,0.2-1.2,0.3-2.1,0.3c0,1,0.1,2.1,0.1,2.9c0.8,0.3,1.6,0.8,2.2,1.3l-0.8,1.4
		c-0.4-0.4-0.8-0.8-1.4-1.1c-0.2,1.5-1.2,1.7-2.2,1.7c-1.4,0-2.3-0.8-2.3-1.9c0-1.2,1.1-1.9,2.3-1.9c0.2,0,0.5,0,0.7,0.1
		c0-0.6-0.1-1.5-0.1-2.4c-0.3,0-0.7,0-1,0h-1.6L339.3,202z M342.2,206.9c-0.2-0.1-0.5-0.1-0.8-0.1c-0.6,0-1.1,0.2-1.1,0.7
		c0,0.4,0.5,0.7,1.1,0.7c0.6,0,0.9-0.3,0.8-0.9C342.2,207.2,342.2,207,342.2,206.9z"/>
	<path class="st7" d="M347.4,205.7V200l1.8,0.1c0,0.1-0.1,0.2-0.3,0.2v5.4H347.4z M354.3,199.5c0,0.1-0.1,0.2-0.3,0.2v3.6
		c0,2.5-0.8,4.8-4.1,6.1c-0.2-0.3-0.8-0.8-1.1-1.1c3.1-1.2,3.7-3.1,3.7-5v-4L354.3,199.5z"/>
	<path class="st7" d="M356.4,200c1.2,0.4,2.6,1,3.4,1.5l-0.8,1.3c-0.8-0.6-2.2-1.2-3.3-1.6L356.4,200z M356,207.8
		c3.9-1.2,6.6-3.5,8-6.7c0.4,0.3,0.9,0.6,1.4,0.9c-1.4,3.2-4.2,5.6-8.1,7c0,0.1-0.1,0.3-0.2,0.3L356,207.8z"/>
	<path class="st7" d="M374.6,201.6c0,0.1-0.2,0.2-0.3,0.2c-1.3,3.8-3.1,6.1-6.3,7.7c-0.2-0.3-0.7-0.8-1.1-1.1c2.9-1.4,4.6-3.4,5.5-6
		H369c-0.6,0.9-1.5,1.9-2.5,2.7c-0.3-0.3-0.8-0.7-1.2-1c1.5-1.2,2.9-3,3.6-4.9l1.8,0.4c0,0.1-0.2,0.2-0.4,0.2
		c-0.2,0.4-0.4,0.8-0.6,1.2h3.3l0.2-0.1L374.6,201.6z"/>
	<path class="st7" d="M380,205.3c0,0.1-0.1,0.2-0.3,0.2c-0.3,1.7-0.8,3.3-3.5,4.3c-0.2-0.4-0.5-0.9-0.8-1.2c2.4-0.7,2.8-1.9,3-3.4
		L380,205.3z M382.8,207.9c0,0.4,0.1,0.4,0.4,0.4h1c0.3,0,0.4-0.2,0.5-1.6c0.3,0.2,0.9,0.5,1.3,0.6c-0.1,1.9-0.5,2.4-1.6,2.4H383
		c-1.3,0-1.6-0.4-1.6-1.8V205h-5.9v-1.4h4.5v-1.9h-2c-0.3,0.6-0.6,1.2-0.9,1.6c-0.3-0.2-0.9-0.5-1.2-0.6c0.8-1,1.3-2.5,1.6-3.7
		l1.6,0.4c0,0.1-0.1,0.2-0.3,0.2c-0.1,0.3-0.2,0.6-0.3,0.9h1.5v-1.6l1.7,0.1c0,0.1-0.1,0.2-0.3,0.2v1.3h3.6v1.3h-3.6v1.9h4.5v1.4
		h-3.1V207.9z"/>
	<path class="st7" d="M393.1,201.6c0,0.1-0.2,0.2-0.3,0.2c-0.5,4-1.6,6.3-3.6,6.3c-1.3,0-2.2-1.1-2.2-3c0-3,2.4-5.2,5.3-5.2
		c3.3,0,5,2,5,4.5c0,2.7-1.4,4.1-4.3,4.9c-0.2-0.3-0.5-0.8-0.9-1.2c2.6-0.5,3.7-1.8,3.7-3.6c0-1.9-1.3-3.1-3.4-3.1
		c-0.2,0-0.4,0-0.6,0L393.1,201.6z M391.3,201.4c-1.8,0.4-2.9,1.9-2.9,3.6c0,1,0.3,1.7,0.8,1.7C390.3,206.6,391.1,204.1,391.3,201.4
		z"/>
	<path class="st7" d="M408,200.3c0,0.1-0.1,0.1-0.2,0.2c-0.5,1.3-1.5,2.8-2.5,3.8c-0.3-0.2-0.9-0.6-1.3-0.8c0.7-0.6,1.4-1.6,1.7-2.3
		h-7.5v-1.4h8.4l0.2-0.1L408,200.3z M403.5,202.6c0,0.1-0.1,0.2-0.3,0.2c-0.3,2.5-1.3,5.2-3.6,6.6c-0.3-0.3-0.9-0.7-1.3-0.9
		c2.2-1.2,3.1-3.5,3.3-6.1L403.5,202.6z"/>
	<path class="st7" d="M418.6,201.3c0,0.1-0.1,0.2-0.2,0.2c-1,1.5-2.7,3.2-4.3,4.4c0.7,0.5,1.6,1.3,2.1,1.9l-1.3,1.1
		c-1.3-1.5-3.3-3.2-5.1-4.2l1-1c0.7,0.4,1.5,0.9,2.2,1.4c1.2-0.9,2.4-2.1,3.1-3.1h-7.5v-1.4h8.7l0.2-0.1L418.6,201.3z"/>
	<path class="st7" d="M421.8,204.4c-0.3-0.9-1.1-2.3-1.9-3.3l1.3-0.6c0.7,0.8,1.6,2.3,2,3.2L421.8,204.4z M428.8,201.2
		c0,0.1-0.1,0.2-0.3,0.2c-1.2,4-3.3,6.5-6.5,7.8c-0.2-0.3-0.7-0.8-1-1.1c3.1-1.2,5-3.5,6.1-7.5L428.8,201.2z M425.5,198.8
		c0.5,0.4,1,1.2,1.3,1.6l-0.7,0.5c-0.3-0.4-0.9-1.3-1.3-1.7L425.5,198.8z M427.8,198.6c0.5,0.5,1,1.1,1.3,1.6l-0.7,0.5
		c-0.3-0.5-0.9-1.2-1.3-1.6L427.8,198.6z"/>
	<path class="st7" d="M430.8,200c1.2,0.4,2.6,1,3.4,1.5l-0.8,1.3c-0.8-0.6-2.2-1.2-3.3-1.6L430.8,200z M430.4,207.8
		c3.9-1.2,6.6-3.5,8-6.7c0.4,0.3,0.9,0.6,1.4,0.9c-1.4,3.2-4.2,5.6-8.1,7c0,0.1-0.1,0.3-0.2,0.3L430.4,207.8z"/>
	<path class="st7" d="M446.6,201.6c0,0.1-0.2,0.2-0.3,0.2c-0.5,4-1.6,6.3-3.6,6.3c-1.3,0-2.2-1.1-2.2-3c0-3,2.4-5.2,5.3-5.2
		c3.3,0,5,2,5,4.5c0,2.7-1.4,4.1-4.3,4.9c-0.2-0.3-0.5-0.8-0.9-1.2c2.6-0.5,3.7-1.8,3.7-3.6c0-1.9-1.3-3.1-3.4-3.1
		c-0.2,0-0.4,0-0.6,0L446.6,201.6z M444.8,201.4c-1.8,0.4-2.9,1.9-2.9,3.6c0,1,0.3,1.7,0.8,1.7C443.9,206.6,444.6,204.1,444.8,201.4
		z"/>
	<path class="st7" d="M318.9,213.9v1.3h-2.2l0.3,0.1c0,0.1-0.1,0.1-0.3,0.2c-0.1,0.3-0.3,0.6-0.5,0.9h2.2v6c0,1.3-0.6,1.5-2.6,1.5
		c-0.1-0.3-0.2-0.7-0.3-1.1h-2.8v0.7h-1.2v-3.7h4.6v2.8h0.8c0.2,0,0.3-0.1,0.3-0.2v-3.1c-0.2,0.1-0.4,0.1-0.6,0.1h-1
		c-1.1,0-1.3-0.3-1.3-1.3v-0.5H313c-0.1,1.1-0.5,1.9-2.3,2.3c-0.1-0.2-0.3-0.5-0.5-0.8v4.8H309v-7.5h2.1c-0.1-0.3-0.3-0.7-0.4-1
		l0.4-0.1h-2.7v-1.3h4.5v-1.1l1.7,0.1c0,0.1-0.1,0.2-0.3,0.2v0.8H318.9z M310.3,217.5v1.3c1.1-0.2,1.5-0.6,1.6-1.3H310.3z
		 M312.1,215.2c0.2,0.4,0.4,0.8,0.4,1.1h2.1c0.2-0.3,0.3-0.7,0.4-1.1H312.1z M314.7,221.6v-0.9h-2.1v0.9H314.7z M316.2,218.2
		c0.2,0,0.2,0,0.3-0.3c0.1,0.1,0.3,0.2,0.5,0.2v-0.7h-1.7v0.5c0,0.2,0,0.3,0.3,0.3H316.2z"/>
	<path class="st7" d="M320.2,223.7v-5.1h4.5v5.1h-1.4v-0.4h-1.8v0.4H320.2z M323.3,219.9h-1.8v2h1.8V219.9z M328.3,213.2v4.5h-6.2
		v-4.5H328.3z M326.9,216.3v-1.8h-3.4v1.8H326.9z M325.7,218.6h4.6v5h-1.4v-0.3H327v0.4h-1.3V218.6z M327,221.9h1.9v-2H327V221.9z"
		/>
	<path class="st7" d="M331.2,218.8c0.8-0.9,2.4-2.7,3.2-3.5c0.4-0.4,0.8-0.6,1.2-0.6c0.4,0,0.8,0.2,1.2,0.6c1.4,1.2,3.8,3.9,5.4,5.8
		l-1.2,1.2c-1.4-2-3.9-4.8-4.8-5.7c-0.2-0.2-0.4-0.3-0.5-0.3c-0.1,0-0.3,0.1-0.5,0.4c-0.4,0.5-1.8,2.2-2.5,3c0,0.1,0,0.3-0.2,0.4
		L331.2,218.8z M340,213c0.7,0,1.3,0.6,1.3,1.3c0,0.7-0.6,1.3-1.3,1.3c-0.7,0-1.3-0.6-1.3-1.3C338.7,213.5,339.3,213,340,213z
		 M340.8,214.3c0-0.5-0.4-0.8-0.8-0.8c-0.5,0-0.8,0.4-0.8,0.8s0.4,0.8,0.8,0.8C340.4,215.1,340.8,214.7,340.8,214.3z"/>
	<path class="st7" d="M343,217.3h9.7v1.5h-9.2c-0.1,0.1-0.2,0.2-0.4,0.2L343,217.3z"/>
	<path class="st7" d="M354.5,216.4c1,0.3,2.2,0.7,3,1.1l-0.6,1.3c-0.8-0.4-2-0.9-3-1.1L354.5,216.4z M354.8,221.8
		c3.5-1.1,6.2-3,7.7-6.4c0.3,0.3,1,0.8,1.3,1c-1.6,3.3-4.4,5.5-7.7,6.6c0,0.1,0,0.2-0.2,0.3L354.8,221.8z M355.9,213.5
		c1,0.3,2.2,0.7,3,1.1l-0.7,1.2c-0.8-0.5-1.9-0.9-2.9-1.2L355.9,213.5z M361.1,213.2c0.5,0.4,1.1,1.1,1.4,1.6l-0.7,0.5
		c-0.3-0.5-0.9-1.3-1.3-1.6L361.1,213.2z M362.9,212.5c0.5,0.4,1.1,1.1,1.4,1.6l-0.7,0.5c-0.3-0.5-0.9-1.2-1.3-1.6L362.9,212.5z"/>
	<path class="st7" d="M364.5,214.2c0.4,0,0.9,0,1.2,0c1.3-0.1,6.4-0.4,8.3-0.5l0,1.6c-1,0-1.6,0.1-2.5,0.7c-1.3,0.8-2.9,2.5-2.9,3.8
		c0,1.3,1.2,2.1,3.7,2.4l-0.7,1.5c-3.3-0.4-4.6-1.8-4.6-3.8c0-1.4,1.3-3.3,3-4.5c-1.4,0.1-4.1,0.3-5.2,0.5c0,0.1-0.2,0.2-0.3,0.2
		L364.5,214.2z M372.3,217c0.5,0.4,1.1,1.1,1.4,1.6l-0.7,0.5c-0.3-0.5-1-1.2-1.4-1.6L372.3,217z M373.7,215.9c0.5,0.4,1.1,1,1.4,1.6
		l-0.7,0.5c-0.3-0.4-0.9-1.2-1.4-1.6L373.7,215.9z"/>
	<path class="st7" d="M383.9,222.6c-0.9,0.2-2.3,0.2-3.5,0.2c-1,0-1.9-0.1-2.4-0.2c-1.5-0.3-2.1-1.3-2.1-2.4c0-0.9,0.5-1.8,1.1-2.4
		l1.3,0.6c-0.5,0.5-0.8,1.1-0.8,1.6c0,1.4,1.7,1.4,2.8,1.4c1.1,0,2.5-0.1,3.6-0.3L383.9,222.6z M378.2,216.6c0.4-0.3,1-0.8,1.5-1v0
		c-0.6,0.1-2.2,0.1-3.2,0.1c0-0.4,0-1.1,0-1.4c0.2,0,0.5,0,0.8,0c2.1,0,4.2,0,5.9-0.3l0.1,1.5c-1.7,0.3-3.1,1.3-3.8,1.8L378.2,216.6
		z M383.6,218.6c-0.3-0.4-1-1.2-1.4-1.5l0.6-0.5c0.5,0.4,1.1,1,1.5,1.5L383.6,218.6z M384.9,217.4c-0.3-0.4-1-1.1-1.4-1.5l0.6-0.5
		c0.5,0.4,1.1,1,1.5,1.5L384.9,217.4z"/>
	<path class="st7" d="M396.9,222.1v1.2h-4.4v0.5h-1.3v-4.4c-0.2,0.2-0.4,0.3-0.6,0.5c-0.1-0.3-0.3-0.7-0.5-1.1v3.7H388v1h-1.1v-3.2
		c-0.1,0.2-0.3,0.5-0.5,0.7c-0.1-0.3-0.5-1-0.7-1.3c0.8-1.1,1.2-2.9,1.5-4.9H386v-1.3h4.3v0.7h2.4c0.1-0.4,0.2-0.9,0.3-1.4l1.6,0.3
		c0,0.1-0.1,0.2-0.3,0.2c-0.1,0.3-0.1,0.6-0.2,0.9h2.7v2.3h-1.2v-0.2c0,0-0.1,0-0.1,0c-0.1,0.2-0.2,0.5-0.3,0.8h1.6v1.2h-1.8v0.7
		h1.5v1h-1.5v0.7h1.5v1h-1.5v0.7H396.9z M388.9,221.2v-2.9H388v2.9H388.9z M390.1,217.1v1.4c0.9-0.7,1.7-1.8,2.2-3.2h-0.8v1.1h-1.2
		v-1.6h-1.7c-0.1,0.8-0.3,1.6-0.5,2.4H390.1z M393.5,218.7v-0.7h-1v0.7H393.5z M393.5,220.5v-0.7h-1v0.7H393.5z M392.5,221.5v0.7h1
		v-0.7H392.5z M395.5,215.3h-1.8c-0.2,0.6-0.5,1.1-0.7,1.7h0.8c0.2-0.4,0.3-0.9,0.5-1.3l1.3,0.4V215.3z"/>
	<path class="st7" d="M401.7,214.7v1.1h-4.2v-1.1H401.7z M401.4,219.6v2.8c0.4-0.6,0.7-1.5,0.8-2.4l1.1,0.3c-0.1,1-0.3,2.1-0.9,2.8
		l-1-0.6v0.6h-2.3v0.5H398v-4H401.4z M401.4,216.3v1.1H398v-1.1H401.4z M398,219v-1h3.4v1H398z M401.4,213.1v1.1h-3.3v-1.1H401.4z
		 M400.3,222v-1.3h-1.1v1.3H400.3z M408.1,213.6c-0.2,4.7-0.3,4.7-2.7,4.6c0-0.4-0.2-0.9-0.3-1.2l0.2,0c-0.2-0.1-0.5-0.3-0.7-0.4
		c-0.4,0.8-1,1.5-2,2c-0.2-0.3-0.5-0.8-0.8-1c0.8-0.4,1.3-1,1.7-1.6c-0.4-0.2-0.9-0.4-1.3-0.5l0.7-1c0.3,0.1,0.7,0.2,1.1,0.4
		c0.1-0.2,0.1-0.4,0.2-0.7h-1.8v-1.2h4.8l0.3,0l0.7,0.1L408.1,213.6z M404.8,222c0,0.3,0,0.3,0.2,0.3h0.5c0.2,0,0.2-0.1,0.3-1.1
		c0.2,0.2,0.8,0.4,1.1,0.5c-0.1,1.5-0.5,1.8-1.2,1.8h-0.8c-1,0-1.3-0.4-1.3-1.5v-2.4l1.6,0.1c0,0.1-0.1,0.2-0.3,0.2V222z
		 M405.6,220.2c-0.4-0.5-1.2-1.2-2-1.6l0.9-0.8c0.7,0.4,1.6,1.1,2,1.6L405.6,220.2z M405.5,217.1c0.3,0,0.5,0,0.6,0
		c0.1,0,0.2,0,0.3-0.1c0.2-0.2,0.3-0.9,0.3-2.6h-1.5c-0.1,0.4-0.2,0.8-0.3,1.2c0.4,0.2,0.8,0.4,1.1,0.6L405.5,217.1z M407.4,223.2
		c-0.1-0.8-0.6-2-1.2-2.9l1.1-0.5c0.6,0.9,1.1,2.1,1.3,2.9L407.4,223.2z"/>
	<path class="st7" d="M415.1,223.6c-1-1.2-2.7-2.8-4.5-4.1c-0.7-0.5-0.9-0.9-0.9-1.4c0-0.4,0.1-0.7,0.5-1.1c1.2-1.1,3.2-3.1,4.1-4.1
		l1.7,1.1c-0.1,0.1-0.2,0.2-0.5,0.1c-1.1,1-2.7,2.4-3.7,3.3c-0.3,0.3-0.5,0.5-0.5,0.7c0,0.2,0.3,0.4,0.7,0.7c1.4,1,3,2.4,4.4,3.8
		L415.1,223.6z"/>
	<path class="st7" d="M424.3,215.8c-0.9,0.3-2,0.5-3.2,0.6c-0.5,2.4-1.2,5.1-2,7l-1.5-0.5c0.9-1.8,1.6-4,2-6.4c-0.2,0-1,0-1.2,0
		c-0.2,0-0.5,0-0.7,0l0-1.4c0.4,0,1,0,1.5,0c0.2,0,0.4,0,0.6,0c0.1-0.7,0.2-1.5,0.2-2.1l1.9,0.2c0,0.1-0.2,0.2-0.3,0.3
		c-0.1,0.4-0.2,1-0.2,1.6c0.9-0.1,1.9-0.3,2.7-0.6L424.3,215.8z M427.4,223.2c-0.4,0-0.8,0-1.2,0c-0.9,0-1.9-0.1-2.4-0.2
		c-1-0.2-1.5-1-1.5-1.8c0-0.6,0.3-1.2,0.7-1.7l1.2,0.5c-0.4,0.4-0.5,0.7-0.5,1c0,0.6,0.6,0.8,2.2,0.8c0.5,0,1.1,0,1.5-0.1
		L427.4,223.2z M423,217.4c1.2-0.4,2.8-0.6,4.1-0.6v1.4c-1.3,0-2.7,0.1-3.8,0.4L423,217.4z M425,213.3c0.5,0.4,1.2,1,1.5,1.5
		l-0.7,0.6c-0.3-0.4-1-1.2-1.4-1.5L425,213.3z M426.6,212.6c0.5,0.4,1.2,1,1.5,1.5l-0.7,0.6c-0.3-0.4-1-1.1-1.4-1.5L426.6,212.6z"/>
	<path class="st7" d="M438,215.9c-0.9,0.2-2.3,0.4-3.5,0.5c0.4,1.3,1,2,2,2.5l-1,1.2c-0.4-0.4-1.1-0.8-2.5-0.8l-0.4-1.2
		c0.4,0,0.9,0,1.2,0.1c-0.3-0.4-0.5-1-0.8-1.8c-0.5,0-0.9,0-1.5,0c-0.7,0-2.1,0-2.9,0l0-1.4c0.7,0,1.5,0,2.9,0c0.4,0,0.8,0,1.2,0
		c-0.1-0.6-0.2-1.4-0.3-2.1l2,0c0,0.1-0.1,0.3-0.3,0.3c0,0.6,0.1,1.1,0.2,1.7c1.2-0.1,2.7-0.3,3.6-0.6L438,215.9z M435.8,223.3
		c-0.6,0-1.3,0-2.1,0c-2.8,0-4.2-1.1-4.2-2.5c0-0.7,0.3-1.3,1-2l1.1,0.8c-0.5,0.4-0.6,0.7-0.6,1.1c0,0.9,1.1,1.2,2.8,1.2
		c0.9,0,1.6,0,2.2-0.1L435.8,223.3z"/>
	<path class="st7" d="M441.2,214.4c0,0.1-0.2,0.2-0.3,0.2c-0.2,0.9-0.3,2.1-0.3,3.2c0,2.6,0.7,3.5,1.4,3.5c0.4,0,0.9-1.2,1.1-2.1
		c0.3,0.3,0.8,0.7,1.2,0.9c-0.6,1.9-1.3,2.8-2.4,2.8c-1.8,0-2.7-2.2-2.8-4.1c0-0.4,0-0.9,0-1.3c0-1.1,0.1-2.2,0.2-3.3L441.2,214.4z
		 M447.7,220c-0.3-2.1-1.3-3.3-2.7-4.2l0.9-1.1c1.6,0.9,3,2.5,3.4,4.8L447.7,220z"/>
	<path class="st7" d="M452.9,222.1c0,0.9-0.7,1.6-1.6,1.6c-0.9,0-1.6-0.7-1.6-1.6c0-0.9,0.7-1.6,1.6-1.6
		C452.2,220.5,452.9,221.2,452.9,222.1z M452.3,222.1c0-0.6-0.5-1.1-1.1-1.1c-0.6,0-1.1,0.5-1.1,1.1c0,0.6,0.5,1.1,1.1,1.1
		C451.9,223.2,452.3,222.7,452.3,222.1z"/>
</g>
<g>
	<g>
		<path class="st162" d="M122.7,134.7V77.6h-63v57.1c7.9-5.3,19.1-8.6,31.5-8.6C103.6,126,114.8,129.3,122.7,134.7z"/>
		<g>
			<path class="st2" d="M122.7,134.7c-7.9-5.3-19.1-8.6-31.5-8.6s-23.6,3.3-31.5,8.6V163h63V134.7z"/>
			<rect x="59.7" y="163" class="st163" width="63" height="6.4"/>
		</g>
		<g>
			<g>
				<defs>
					<path id="SVGID_75_" d="M122.7,134.7c-7.9-5.3-19.1-8.6-31.5-8.6s-23.6,3.3-31.5,8.6V163h63V134.7z"/>
				</defs>
				<clipPath id="SVGID_8_">
					<use xlink:href="#SVGID_75_"  style="overflow:visible;"/>
				</clipPath>
				<g style="clip-path:url(#SVGID_8_);">
					<g>
						<g>
							
								<linearGradient id="SVGID_9_" gradientUnits="userSpaceOnUse" x1="111.3707" y1="-1351.9225" x2="112.4541" y2="-1345.7782" gradientTransform="matrix(1 0 0 -1 0 -1201.9386)">
								<stop  offset="0" style="stop-color:#FDD676"/>
								<stop  offset="1" style="stop-color:#F8B62D"/>
							</linearGradient>
							<path class="st16" d="M106.2,145.5c1.2-0.1,2.2,0.4,3.3-0.1c1.4-0.7,1.9-1.8,3.8-1.4c1.3,0.2,4.8,1.9,4.5,3.4
								c-0.4,1.2-1.9,1.8-2.1,3.1c-0.1,0.7-5.3-1.3-5.9-1.4C108,148.6,106.1,148,106.2,145.5z"/>
							
								<linearGradient id="SVGID_10_" gradientUnits="userSpaceOnUse" x1="85.0713" y1="-1347.974" x2="95.5383" y2="-1347.974" gradientTransform="matrix(1 0 0 -1 0 -1201.9386)">
								<stop  offset="0" style="stop-color:#FDD676"/>
								<stop  offset="1" style="stop-color:#F8B62D"/>
							</linearGradient>
							<path class="st17" d="M86.8,143.4c-0.8,0.6-1.8,2.2-1.8,3.2c2.5,0.4,8.4,4.8,10.3,1.2c0.7-1.4-1.1-3.7-2.2-4.2
								C91.7,142.8,88.3,142.5,86.8,143.4z"/>
							
								<linearGradient id="SVGID_11_" gradientUnits="userSpaceOnUse" x1="78.9875" y1="-1350.0989" x2="89.4547" y2="-1350.0989" gradientTransform="matrix(1 0 0 -1 0 -1201.9386)">
								<stop  offset="0" style="stop-color:#FDD676"/>
								<stop  offset="1" style="stop-color:#F8B62D"/>
							</linearGradient>
							<path class="st18" d="M80.8,145.5c-0.8,0.6-1.8,2.2-1.8,3.2c2.5,0.4,8.4,4.8,10.3,1.2c0.7-1.4-1.1-3.7-2.2-4.2
								C85.5,145,82.1,144.6,80.8,145.5z"/>
							
								<linearGradient id="SVGID_12_" gradientUnits="userSpaceOnUse" x1="116.9654" y1="-1359.7404" x2="116.9654" y2="-1353.3098" gradientTransform="matrix(1 0 0 -1 0 -1201.9386)">
								<stop  offset="0" style="stop-color:#FDD676"/>
								<stop  offset="1" style="stop-color:#F8B62D"/>
							</linearGradient>
							<path class="st19" d="M113.5,152c-0.8,0.6-1.8,2.2-1.8,3.2c2.5,0.4,8.4,4.8,10.3,1.2c0.7-1.4-1.1-3.7-2.2-4.2
								C118.4,151.3,114.9,151,113.5,152z"/>
							
								<linearGradient id="SVGID_13_" gradientUnits="userSpaceOnUse" x1="79.9828" y1="-1356.215" x2="89.8821" y2="-1356.215" gradientTransform="matrix(1 0 0 -1 0 -1201.9386)">
								<stop  offset="0" style="stop-color:#FDD676"/>
								<stop  offset="1" style="stop-color:#F8B62D"/>
							</linearGradient>
							<path class="st20" d="M80.9,151.2c2.2-2.1,5.2,2.5,6.7,0.2c1.1,1.2,2.8,2.7,1.9,4.5c-0.5,0.8-1.7,1.5-2.5,1.8
								c-0.9,0.2-2.8,0.4-3.8-0.1c-0.6-0.4-1.1-1.1-1.7-1.4c-0.6-0.5-1.1-0.5-1.5-1.2C79.6,153.8,80.1,152,80.9,151.2z"/>
							
								<linearGradient id="SVGID_14_" gradientUnits="userSpaceOnUse" x1="68.5643" y1="-1351.248" x2="78.6721" y2="-1351.248" gradientTransform="matrix(1 0 0 -1 0 -1201.9386)">
								<stop  offset="0" style="stop-color:#FDD676"/>
								<stop  offset="1" style="stop-color:#F8B62D"/>
							</linearGradient>
							<path class="st21" d="M69.8,146c1.4-0.8,5.4,1.2,5.8-0.6c1.8,0.9,3.8,2.7,3,4.6c-0.1,0.2-0.6,0.6-0.8,0.9
								c-0.1,0.2,0.1,0.6,0,0.7c-0.2,0.5-0.6,0.9-1.1,1.2C73.1,154.6,65.6,148.6,69.8,146z"/>
							
								<linearGradient id="SVGID_15_" gradientUnits="userSpaceOnUse" x1="59.7327" y1="-1348.8625" x2="70.1029" y2="-1348.8625" gradientTransform="matrix(1 0 0 -1 0 -1201.9386)">
								<stop  offset="0" style="stop-color:#FDD676"/>
								<stop  offset="1" style="stop-color:#F8B62D"/>
							</linearGradient>
							<path class="st22" d="M70.1,146c0,0.4-0.4,1.2-0.5,1.7c-0.1,0.6-0.1,1.3-0.6,1.8c-0.8,0.8-3,0.5-4,0.7
								c-1.2,0.2-2.6,1.8-3.9,1.1c-0.8-0.5-1.4-2.4-1.2-3.2c0.4-1.3,2-1.2,3-2.2c0.9-0.9,1.3-1.9,2.5-2.6c1.2-0.7,2-1.1,3.2-0.4
								C69.4,143.4,70.2,144.8,70.1,146z"/>
							
								<linearGradient id="SVGID_16_" gradientUnits="userSpaceOnUse" x1="88.6376" y1="-1352.2859" x2="99.0069" y2="-1352.2859" gradientTransform="matrix(1 0 0 -1 0 -1201.9386)">
								<stop  offset="0" style="stop-color:#FDD676"/>
								<stop  offset="1" style="stop-color:#F8B62D"/>
							</linearGradient>
							<path class="st23" d="M99,149.4c0,0.4-0.4,1.2-0.5,1.7c-0.1,0.6-0.1,1.3-0.6,1.8c-0.8,0.8-3,0.5-4,0.7
								c-1.2,0.2-2.6,1.8-3.9,1.1c-0.8-0.5-1.4-2.4-1.2-3.2c0.4-1.3,2-1.2,3-2.2c0.9-0.9,1.3-1.9,2.5-2.6c1.2-0.7,2-1.1,3.2-0.4
								C98.3,146.8,99.1,148.3,99,149.4z"/>
							
								<linearGradient id="SVGID_17_" gradientUnits="userSpaceOnUse" x1="64.888" y1="-1358.3969" x2="64.888" y2="-1351.6941" gradientTransform="matrix(1 0 0 -1 0 -1201.9386)">
								<stop  offset="0" style="stop-color:#FDD676"/>
								<stop  offset="1" style="stop-color:#F8B62D"/>
							</linearGradient>
							<path class="st24" d="M59.1,151.5c1.2-0.1,2.2,0.4,3.3-0.1c1.4-0.7,1.9-1.8,3.8-1.4c1.3,0.2,4.8,1.9,4.5,3.4
								c-0.4,1.2-1.9,1.8-2.1,3.1c-0.1,0.7-5.3-1.3-5.9-1.4C60.8,154.5,58.9,153.9,59.1,151.5z"/>
							
								<linearGradient id="SVGID_18_" gradientUnits="userSpaceOnUse" x1="64.9645" y1="-1360.3798" x2="74.9397" y2="-1360.3798" gradientTransform="matrix(1 0 0 -1 0 -1201.9386)">
								<stop  offset="0" style="stop-color:#FDD676"/>
								<stop  offset="1" style="stop-color:#F8B62D"/>
							</linearGradient>
							<path class="st25" d="M67.2,156.4c0.4,0,0.9,0.1,1.3,0c0.6-0.1,0.9-0.8,1.4-1.1c1.1-0.6,1.4-0.6,2.2,0.2
								c0.7,0.7,2.5,2.8,2.7,3.9c0.6,3-4,2.6-5.7,2.2c-1.2-0.2-3-0.5-3.8-1.4C64.3,158.8,65.6,156.6,67.2,156.4z"/>
							
								<linearGradient id="SVGID_19_" gradientUnits="userSpaceOnUse" x1="108.8511" y1="-1357.1926" x2="118.8262" y2="-1357.1926" gradientTransform="matrix(1 0 0 -1 0 -1201.9386)">
								<stop  offset="0" style="stop-color:#FDD676"/>
								<stop  offset="1" style="stop-color:#F8B62D"/>
							</linearGradient>
							<path class="st26" d="M111.2,153.2c0.4,0,0.9,0.1,1.3,0c0.6-0.1,0.9-0.8,1.4-1.1c1.1-0.6,1.4-0.6,2.2,0.2
								c0.7,0.7,2.5,2.8,2.7,3.9c0.6,3-4,2.6-5.7,2.2c-1.2-0.2-3-0.5-3.8-1.4C108.1,155.7,109.5,153.5,111.2,153.2z"/>
							
								<linearGradient id="SVGID_20_" gradientUnits="userSpaceOnUse" x1="100.2156" y1="-1352.3528" x2="110.1916" y2="-1352.3528" gradientTransform="matrix(1 0 0 -1 0 -1201.9386)">
								<stop  offset="0" style="stop-color:#FDD676"/>
								<stop  offset="1" style="stop-color:#F8B62D"/>
							</linearGradient>
							<path class="st27" d="M102.4,148.4c0.4,0,0.9,0.1,1.3,0c0.6-0.1,0.9-0.8,1.4-1.1c1.1-0.6,1.4-0.6,2.2,0.2
								c0.7,0.7,2.5,2.8,2.7,3.9c0.6,3-4,2.6-5.7,2.2c-1.2-0.2-3-0.5-3.8-1.4C99.5,150.7,100.9,148.6,102.4,148.4z"/>
							
								<linearGradient id="SVGID_21_" gradientUnits="userSpaceOnUse" x1="71.4497" y1="-1357.2826" x2="81.4778" y2="-1357.2826" gradientTransform="matrix(1 0 0 -1 0 -1201.9386)">
								<stop  offset="0" style="stop-color:#FDD676"/>
								<stop  offset="1" style="stop-color:#F8B62D"/>
							</linearGradient>
							<path class="st28" d="M77.5,152.2c-0.7-0.1-1.9-0.2-2.5,0c-1.1,0.4-0.9,1.3-1.7,2.1c-0.5,0.7-2.2,1.3-1.9,2.6
								c0.4,1.1,2.2,0.9,3.2,1.1c1.3,0.1,2.6,0.8,3.9,0.7c0.9,0,1.8-0.2,2.1-0.9c0.7-1.1,0.9-3.2,0.2-4.4
								C80.3,152.4,78.8,152.3,77.5,152.2z"/>
							
								<linearGradient id="SVGID_22_" gradientUnits="userSpaceOnUse" x1="93.8307" y1="-1357.1531" x2="105.0141" y2="-1357.1531" gradientTransform="matrix(1 0 0 -1 0 -1201.9386)">
								<stop  offset="0" style="stop-color:#FDD676"/>
								<stop  offset="1" style="stop-color:#F8B62D"/>
							</linearGradient>
							<path class="st29" d="M97,152.5c-1.1,0.2-3.8,2.1-3.1,3.7c0.2,0.6,1.9,1.2,2.6,1.4c1.2,0.5,2.7,0.4,4,0.5
								c0.9,0.1,3.4,0.5,4.1-0.1c1.1-0.8-0.2-1.4-0.7-2.2c-0.8-1.3,0-2.6-1.8-3.2C100.7,151.9,98.5,152.2,97,152.5z"/>
							
								<linearGradient id="SVGID_23_" gradientUnits="userSpaceOnUse" x1="80.967" y1="-1361.8988" x2="92.1501" y2="-1361.8988" gradientTransform="matrix(1 0 0 -1 0 -1201.9386)">
								<stop  offset="0" style="stop-color:#FDD676"/>
								<stop  offset="1" style="stop-color:#F8B62D"/>
							</linearGradient>
							<path class="st30" d="M84.1,157.2c-1.1,0.2-3.8,2.1-3.1,3.7c0.2,0.6,1.9,1.2,2.6,1.4c1.2,0.5,2.7,0.4,4,0.5
								c0.9,0.1,3.4,0.5,4.1-0.1c1.1-0.8-0.2-1.4-0.7-2.2c-0.8-1.3,0-2.6-1.8-3.2C87.9,156.8,85.7,156.9,84.1,157.2z"/>
							
								<linearGradient id="SVGID_24_" gradientUnits="userSpaceOnUse" x1="101.8622" y1="-1359.9814" x2="113.4205" y2="-1359.9814" gradientTransform="matrix(1 0 0 -1 0 -1201.9386)">
								<stop  offset="0" style="stop-color:#FDD676"/>
								<stop  offset="1" style="stop-color:#F8B62D"/>
							</linearGradient>
							<path class="st31" d="M101.8,156.3c1.2-0.1,2.2,0.4,3.3-0.1c1.4-0.7,1.9-1.8,3.8-1.4c1.3,0.2,4.8,1.9,4.5,3.4
								c-0.4,1.2-1.9,1.8-2.1,3.1c-0.1,0.7-5.3-1.3-5.9-1.4C103.6,159.4,101.7,158.8,101.8,156.3z"/>
							
								<linearGradient id="SVGID_25_" gradientUnits="userSpaceOnUse" x1="91.2582" y1="-1361.1619" x2="102.815" y2="-1361.1619" gradientTransform="matrix(1 0 0 -1 0 -1201.9386)">
								<stop  offset="0" style="stop-color:#FDD676"/>
								<stop  offset="1" style="stop-color:#F8B62D"/>
							</linearGradient>
							<path class="st33" d="M91.2,157.5c1.2-0.1,2.2,0.4,3.3-0.1c1.4-0.7,1.9-1.8,3.8-1.4c1.3,0.2,4.8,1.9,4.5,3.4
								c-0.4,1.2-1.9,1.8-2.1,3.1c-0.1,0.7-5.3-1.3-5.9-1.4C93,160.5,91.1,160,91.2,157.5z"/>
						</g>
					</g>
					<g>
						<g>
							
								<linearGradient id="SVGID_26_" gradientUnits="userSpaceOnUse" x1="112.3222" y1="-1338.1891" x2="113.4052" y2="-1332.0464" gradientTransform="matrix(1 0 0 -1 0 -1201.9386)">
								<stop  offset="0" style="stop-color:#FDD676"/>
								<stop  offset="1" style="stop-color:#F8B62D"/>
							</linearGradient>
							<path class="st34" d="M107.1,131.9c1.2-0.1,2.2,0.4,3.3-0.1c1.4-0.7,1.9-1.8,3.8-1.4c1.3,0.2,4.8,1.9,4.5,3.4
								c-0.4,1.2-1.9,1.8-2.1,3.1c-0.1,0.7-5.3-1.3-5.9-1.4C108.8,134.9,107,134.3,107.1,131.9z"/>
							
								<linearGradient id="SVGID_27_" gradientUnits="userSpaceOnUse" x1="86.6813" y1="-1334.0448" x2="97.1508" y2="-1334.0448" gradientTransform="matrix(1 0 0 -1 0 -1201.9386)">
								<stop  offset="0" style="stop-color:#FDD676"/>
								<stop  offset="1" style="stop-color:#F8B62D"/>
							</linearGradient>
							<path class="st35" d="M88.5,129.5c-0.8,0.6-1.8,2.2-1.8,3.2c2.5,0.4,8.4,4.8,10.3,1.2c0.7-1.4-1.1-3.7-2.2-4.2
								C93.2,128.9,89.8,128.6,88.5,129.5z"/>
							
								<linearGradient id="SVGID_28_" gradientUnits="userSpaceOnUse" x1="117.6737" y1="-1345.0592" x2="117.6737" y2="-1338.6279" gradientTransform="matrix(1 0 0 -1 0 -1201.9386)">
								<stop  offset="0" style="stop-color:#FDD676"/>
								<stop  offset="1" style="stop-color:#F8B62D"/>
							</linearGradient>
							<path class="st36" d="M114.2,137.3c-0.8,0.6-1.8,2.2-1.8,3.2c2.5,0.4,8.4,4.8,10.3,1.2c0.7-1.4-1.1-3.7-2.2-4.2
								C119,136.7,115.6,136.3,114.2,137.3z"/>
							
								<linearGradient id="SVGID_29_" gradientUnits="userSpaceOnUse" x1="80.6135" y1="-1336.5015" x2="90.5092" y2="-1336.5015" gradientTransform="matrix(1 0 0 -1 0 -1201.9386)">
								<stop  offset="0" style="stop-color:#FDD676"/>
								<stop  offset="1" style="stop-color:#F8B62D"/>
							</linearGradient>
							<path class="st37" d="M81.6,131.5c2.2-2.1,5.2,2.5,6.7,0.2c1.1,1.2,2.8,2.7,1.9,4.5c-0.5,0.8-1.7,1.5-2.5,1.8
								c-1.1,0.2-2.8,0.4-3.8-0.1c-0.6-0.4-1.1-1.1-1.7-1.4c-0.6-0.4-1.2-0.5-1.5-1.2C80.3,134.1,80.7,132.3,81.6,131.5z"/>
							
								<linearGradient id="SVGID_30_" gradientUnits="userSpaceOnUse" x1="79.7422" y1="-1330.1271" x2="89.6415" y2="-1330.1271" gradientTransform="matrix(1 0 0 -1 0 -1201.9386)">
								<stop  offset="0" style="stop-color:#FDD676"/>
								<stop  offset="1" style="stop-color:#F8B62D"/>
							</linearGradient>
							<path class="st38" d="M80.7,125.1c2.2-2.1,5.2,2.5,6.7,0.2c1.1,1.2,2.8,2.7,1.9,4.5c-0.5,0.8-1.7,1.5-2.5,1.8
								c-1.1,0.2-2.8,0.4-3.8-0.1c-0.6-0.4-1.1-1.1-1.7-1.4c-0.6-0.4-1.1-0.5-1.5-1.2C79.4,127.7,79.9,126,80.7,125.1z"/>
							
								<linearGradient id="SVGID_31_" gradientUnits="userSpaceOnUse" x1="72.9815" y1="-1334.8187" x2="83.0892" y2="-1334.8187" gradientTransform="matrix(1 0 0 -1 0 -1201.9386)">
								<stop  offset="0" style="stop-color:#FDD676"/>
								<stop  offset="1" style="stop-color:#F8B62D"/>
							</linearGradient>
							<path class="st39" d="M74.2,129.5c1.4-0.8,5.4,1.2,5.8-0.5c1.8,0.9,3.8,2.7,3,4.6c-0.1,0.2-0.6,0.6-0.8,0.9
								c-0.1,0.2,0.1,0.6,0,0.7c-0.2,0.5-0.6,0.9-1.1,1.2C77.6,138.1,70,132,74.2,129.5z"/>
							
								<linearGradient id="SVGID_32_" gradientUnits="userSpaceOnUse" x1="64.8532" y1="-1340.4813" x2="75.2215" y2="-1340.4813" gradientTransform="matrix(1 0 0 -1 0 -1201.9386)">
								<stop  offset="0" style="stop-color:#FDD676"/>
								<stop  offset="1" style="stop-color:#F8B62D"/>
							</linearGradient>
							<path class="st40" d="M75.2,137.6c0,0.4-0.4,1.2-0.5,1.7c-0.1,0.6-0.1,1.3-0.6,1.8c-0.8,0.8-3,0.5-4,0.7
								c-1.2,0.2-2.6,1.8-3.9,1.1c-0.8-0.5-1.4-2.4-1.2-3.2c0.4-1.3,2-1.2,3-2.2c0.9-0.9,1.3-1.9,2.5-2.6c1.2-0.7,2-1.1,3.2-0.4
								C74.4,135.2,75.4,136.5,75.2,137.6z"/>
							
								<linearGradient id="SVGID_33_" gradientUnits="userSpaceOnUse" x1="60.4003" y1="-1334.9332" x2="70.7688" y2="-1334.9332" gradientTransform="matrix(1 0 0 -1 0 -1201.9386)">
								<stop  offset="0" style="stop-color:#FDD676"/>
								<stop  offset="1" style="stop-color:#F8B62D"/>
							</linearGradient>
							<path class="st41" d="M70.8,132.1c0,0.4-0.4,1.2-0.5,1.7c-0.1,0.6-0.1,1.3-0.6,1.8c-0.8,0.8-3,0.5-4,0.7
								c-1.2,0.2-2.6,1.8-3.9,1.1c-0.8-0.5-1.4-2.4-1.2-3.2c0.4-1.3,2-1.2,3-2.2c0.9-0.9,1.3-1.9,2.5-2.6c1.2-0.7,2-1.1,3.2-0.4
								C70.1,129.5,70.9,130.8,70.8,132.1z"/>
							
								<linearGradient id="SVGID_34_" gradientUnits="userSpaceOnUse" x1="91.1805" y1="-1338.1205" x2="101.548" y2="-1338.1205" gradientTransform="matrix(1 0 0 -1 0 -1201.9386)">
								<stop  offset="0" style="stop-color:#FDD676"/>
								<stop  offset="1" style="stop-color:#F8B62D"/>
							</linearGradient>
							<path class="st42" d="M101.5,135.3c0,0.4-0.4,1.2-0.5,1.7c-0.1,0.6-0.1,1.3-0.6,1.8c-0.8,0.8-3,0.5-4,0.7
								c-1.2,0.2-2.6,1.8-3.9,1.1c-0.8-0.4-1.4-2.4-1.2-3.2c0.4-1.3,2-1.2,3-2.2c0.9-0.9,1.3-1.9,2.5-2.6c1.2-0.7,2-1.1,3.2-0.4
								C100.8,132.7,101.7,134,101.5,135.3z"/>
							
								<linearGradient id="SVGID_35_" gradientUnits="userSpaceOnUse" x1="65.4855" y1="-1349.0409" x2="65.4855" y2="-1342.3362" gradientTransform="matrix(1 0 0 -1 0 -1201.9386)">
								<stop  offset="0" style="stop-color:#FDD676"/>
								<stop  offset="1" style="stop-color:#F8B62D"/>
							</linearGradient>
							<path class="st43" d="M59.7,142.1c1.2-0.1,2.2,0.4,3.3-0.1c1.4-0.7,1.9-1.8,3.8-1.4c1.3,0.2,4.8,1.9,4.5,3.4
								c-0.4,1.2-1.9,1.8-2.1,3.1c-0.1,0.7-5.3-1.3-5.9-1.4C61.3,145.1,59.6,144.6,59.7,142.1z"/>
							
								<linearGradient id="SVGID_36_" gradientUnits="userSpaceOnUse" x1="73.1291" y1="-1342.0829" x2="83.105" y2="-1342.0829" gradientTransform="matrix(1 0 0 -1 0 -1201.9386)">
								<stop  offset="0" style="stop-color:#FDD676"/>
								<stop  offset="1" style="stop-color:#F8B62D"/>
							</linearGradient>
							<path class="st44" d="M75.4,138.1c0.4,0,0.9,0.1,1.3,0c0.6-0.1,0.9-0.8,1.4-1.1c1.1-0.6,1.4-0.6,2.2,0.2
								c0.7,0.7,2.5,2.8,2.7,3.9c0.6,3-4,2.6-5.7,2.2c-1.2-0.2-3-0.5-3.8-1.4C72.4,140.6,73.7,138.3,75.4,138.1z"/>
							
								<linearGradient id="SVGID_37_" gradientUnits="userSpaceOnUse" x1="100.6483" y1="-1338.4764" x2="110.6253" y2="-1338.4764" gradientTransform="matrix(1 0 0 -1 0 -1201.9386)">
								<stop  offset="0" style="stop-color:#FDD676"/>
								<stop  offset="1" style="stop-color:#F8B62D"/>
							</linearGradient>
							<path class="st45" d="M102.9,134.6c0.4,0,0.9,0.1,1.3,0c0.6-0.1,0.9-0.8,1.4-1.1c1.1-0.6,1.4-0.6,2.2,0.1
								c0.7,0.7,2.5,2.8,2.7,3.9c0.6,3-4,2.6-5.7,2.2c-1.2-0.2-3-0.5-3.8-1.4C99.9,137,101.2,134.8,102.9,134.6z"/>
							
								<linearGradient id="SVGID_38_" gradientUnits="userSpaceOnUse" x1="78.2121" y1="-1345.4781" x2="88.2382" y2="-1345.4781" gradientTransform="matrix(1 0 0 -1 0 -1201.9386)">
								<stop  offset="0" style="stop-color:#FDD676"/>
								<stop  offset="1" style="stop-color:#F8B62D"/>
							</linearGradient>
							<path class="st46" d="M84.4,140.4c-0.7-0.1-1.9-0.2-2.5,0c-1.2,0.4-1.1,1.3-1.7,2.1c-0.5,0.7-2.2,1.3-1.9,2.6
								c0.4,1.1,2.2,0.9,3.2,1.1c1.3,0.1,2.6,0.8,3.9,0.7c0.9,0,1.8-0.2,2.1-0.9c0.7-1.1,0.9-3.2,0.2-4.4
								C87.1,140.5,85.5,140.5,84.4,140.4z"/>
							
								<linearGradient id="SVGID_39_" gradientUnits="userSpaceOnUse" x1="95.2085" y1="-1331.5808" x2="106.3922" y2="-1331.5808" gradientTransform="matrix(1 0 0 -1 0 -1201.9386)">
								<stop  offset="0" style="stop-color:#FDD676"/>
								<stop  offset="1" style="stop-color:#F8B62D"/>
							</linearGradient>
							<path class="st47" d="M98.4,126.9c-1.1,0.2-3.8,2.1-3.1,3.7c0.2,0.6,1.9,1.2,2.6,1.4c1.2,0.5,2.7,0.4,4,0.5
								c0.9,0.1,3.4,0.5,4.1-0.1c1.1-0.8-0.2-1.4-0.7-2.2c-0.8-1.3,0-2.6-1.8-3.2C102.1,126.4,99.8,126.7,98.4,126.9z"/>
							
								<linearGradient id="SVGID_41_" gradientUnits="userSpaceOnUse" x1="84.2121" y1="-1341.6202" x2="95.396" y2="-1341.6202" gradientTransform="matrix(1 0 0 -1 0 -1201.9386)">
								<stop  offset="0" style="stop-color:#FDD676"/>
								<stop  offset="1" style="stop-color:#F8B62D"/>
							</linearGradient>
							<path class="st48" d="M87.4,136.9c-1.1,0.2-3.8,2.1-3.1,3.7c0.2,0.6,1.9,1.2,2.6,1.4c1.2,0.4,2.7,0.4,4,0.5
								c0.9,0.1,3.4,0.6,4.1-0.1c1.1-0.8-0.2-1.4-0.7-2.2c-0.8-1.3,0-2.6-1.8-3.2C91.1,136.5,88.8,136.6,87.4,136.9z"/>
							
								<linearGradient id="SVGID_42_" gradientUnits="userSpaceOnUse" x1="104.6388" y1="-1345.1078" x2="116.1968" y2="-1345.1078" gradientTransform="matrix(1 0 0 -1 0 -1201.9386)">
								<stop  offset="0" style="stop-color:#FDD676"/>
								<stop  offset="1" style="stop-color:#F8B62D"/>
							</linearGradient>
							<path class="st49" d="M104.7,141.4c1.2-0.1,2.2,0.4,3.3-0.1c1.4-0.7,1.9-1.8,3.8-1.4c1.3,0.2,4.8,1.9,4.5,3.4
								c-0.4,1.2-1.9,1.8-2.1,3.1c-0.1,0.7-5.3-1.3-5.9-1.4C106.3,144.4,104.5,143.9,104.7,141.4z"/>
							
								<linearGradient id="SVGID_43_" gradientUnits="userSpaceOnUse" x1="114.2424" y1="-1350.1837" x2="125.8006" y2="-1350.1837" gradientTransform="matrix(1 0 0 -1 0 -1201.9386)">
								<stop  offset="0" style="stop-color:#FDD676"/>
								<stop  offset="1" style="stop-color:#F8B62D"/>
							</linearGradient>
							<path class="st50" d="M114.2,146.5c1.2-0.1,2.2,0.4,3.3-0.1c1.4-0.7,1.9-1.8,3.8-1.4c1.3,0.2,4.8,1.9,4.5,3.4
								c-0.4,1.2-1.9,1.8-2.1,3.1c-0.1,0.7-5.3-1.3-5.9-1.4C115.9,149.6,114.1,149,114.2,146.5z"/>
							
								<linearGradient id="SVGID_44_" gradientUnits="userSpaceOnUse" x1="94.9815" y1="-1346.0521" x2="106.5398" y2="-1346.0521" gradientTransform="matrix(1 0 0 -1 0 -1201.9386)">
								<stop  offset="0" style="stop-color:#FDD676"/>
								<stop  offset="1" style="stop-color:#F8B62D"/>
							</linearGradient>
							<path class="st51" d="M95,142.4c1.2-0.1,2.2,0.4,3.3-0.1c1.4-0.7,1.9-1.8,3.8-1.4c1.3,0.2,4.8,1.9,4.5,3.4
								c-0.4,1.2-1.9,1.8-2.1,3.1c-0.1,0.7-5.3-1.3-5.9-1.4C96.6,145.4,94.9,144.8,95,142.4z"/>
						</g>
					</g>
				</g>
			</g>
		</g>
		<g>
			<g>
				<path id="SVGID_40_" class="st163" d="M122.7,134.7V77.6h-63v57.1c7.9-5.3,19.1-8.6,31.5-8.6C103.6,126,114.8,129.3,122.7,134.7
					z"/>
			</g>
			<g>
				<defs>
					<path id="SVGID_112_" d="M122.7,134.7V77.6h-63v57.1c7.9-5.3,19.1-8.6,31.5-8.6C103.6,126,114.8,129.3,122.7,134.7z"/>
				</defs>
				<clipPath id="SVGID_45_">
					<use xlink:href="#SVGID_112_"  style="overflow:visible;"/>
				</clipPath>
				<g style="clip-path:url(#SVGID_45_);">
					<path class="st201" d="M66.2,99.5c-0.1,0-0.4,0-0.4-0.1s-1.3-2.5-2-5.8c-0.9-4.4-0.7-8.1,0.9-10.9c0.1-0.1,0.2-0.2,0.5-0.1
						c0.1,0.1,0.2,0.2,0.1,0.5c-3.8,6.3,1.1,15.9,1.1,16.1C66.4,99.2,66.4,99.4,66.2,99.5L66.2,99.5z"/>
					<path class="st201" d="M66.1,99.9c-0.1,0-0.4,0-0.4-0.2c0-0.1-0.8-2.7-1.2-6c-0.4-4.5,0.6-8.1,2.6-10.6c0.1-0.1,0.4-0.1,0.5,0
						c0.1,0.1,0.1,0.4,0,0.5c-4.6,5.7-1.3,15.9-1.3,16.1C66.3,99.6,66.2,99.9,66.1,99.9L66.1,99.9z"/>
					<path class="st201" d="M65.8,101.2L65.8,101.2c-0.2,0-0.4-0.1-0.4-0.2s-0.4-2.8,0-6.1c0.5-4.5,2-7.9,4.5-9.9
						c0.1-0.1,0.4-0.1,0.5,0c0.1,0.1,0.1,0.4,0,0.5c-5.7,4.7-4.2,15.5-4.2,15.6C66.1,100.9,65.9,101.2,65.8,101.2z"/>
					<path class="st202" d="M69.7,148.6c0,0-12.3-37.9-4.4-51.3c0,0,16.1,9.1,25.9,44.5L69.7,148.6z"/>
					<path class="st203" d="M82.8,145.9c0,0-20.5-21.6-25.5-41c0,0,5.8,38.1,13.8,46.7L82.8,145.9z"/>
					<path class="st203" d="M78.1,147.3c0,0,5-29.4-1.8-48.2c0,0,16.5,34.8,14.6,46.5L78.1,147.3z"/>
					<path class="st201" d="M69.4,114c-3,0.8-4.8,0.5-5,0.5c-0.1,0-0.2-0.2-0.2-0.4c0-0.1,0.2-0.2,0.4-0.2c0.1,0,4.8,1.1,10.6-3.8
						c0.1-0.1,0.4-0.1,0.5,0c0.1,0.1,0.1,0.4,0,0.5C73.3,112.5,71.1,113.4,69.4,114z"/>
					<path class="st201" d="M68.1,110c-2,0.6-3.5,0.6-4.4,0.5c-0.1,0-0.4-0.1-0.2-0.4c0-0.1,0.1-0.4,0.4-0.2c1.3,0.1,5,0.1,9.3-3.2
						c0.1-0.1,0.4-0.1,0.5,0.1c0.1,0.1,0.1,0.4-0.1,0.5C71.5,108.7,69.6,109.5,68.1,110z"/>
					<path class="st201" d="M70.4,117.8c-3,0.9-4.8,0.5-5,0.5c-0.1,0-0.2-0.2-0.2-0.4s0.2-0.2,0.4-0.2s4.8,0.9,10.6-3.8
						c0.1-0.1,0.4-0.1,0.5,0c0.1,0.1,0.1,0.4,0,0.5C74.3,116.2,72.2,117.2,70.4,117.8z"/>
					<path class="st201" d="M71.6,121.5c-3,0.8-4.8,0.5-5,0.5c-0.1,0-0.2-0.2-0.2-0.4s0.2-0.2,0.4-0.2c0.1,0,4.8,1.1,10.6-3.8
						c0.1-0.1,0.4-0.1,0.5,0c0.1,0.1,0.1,0.4,0,0.5C75.5,119.9,73.4,120.9,71.6,121.5z"/>
					<path class="st201" d="M72.7,125.2c-3,0.9-4.8,0.5-5,0.5s-0.2-0.2-0.2-0.4c0-0.1,0.2-0.2,0.4-0.2c0.1,0,4.8,1.1,10.6-3.8
						c0.1-0.1,0.4-0.1,0.5,0c0.1,0.1,0.1,0.4,0,0.5C76.6,123.6,74.4,124.7,72.7,125.2z"/>
					<path class="st201" d="M72.7,116.7c-0.1,0-0.4,0-0.4-0.2l-1.1-3.4c0-0.1,0-0.4,0.2-0.4c0.1,0,0.4,0,0.4,0.2l1.1,3.4
						C72.9,116.5,72.8,116.6,72.7,116.7z"/>
					<path class="st201" d="M70.8,121.6c-0.1,0-0.4,0-0.4-0.2l-1.1-3.3c0-0.1,0-0.4,0.2-0.4c0.1,0,0.4,0,0.4,0.2l1.1,3.3
						C71,121.3,70.9,121.6,70.8,121.6z"/>
					<path class="st201" d="M74.8,124.2c-0.1,0-0.4,0-0.4-0.2l-0.9-3.2c0-0.1,0-0.4,0.2-0.4c0.1,0,0.4,0,0.4,0.2l0.9,3.2
						C75,123.9,74.9,124.1,74.8,124.2z"/>
					<path class="st201" d="M67.1,118.3c-0.1,0-0.4,0-0.4-0.2l-1.1-3.5c0-0.1,0-0.4,0.2-0.4c0.1,0,0.4,0,0.4,0.2l1.1,3.5
						C67.4,118,67.2,118.2,67.1,118.3z"/>
					<path class="st201" d="M68.9,113.8c-0.1,0-0.4,0-0.4-0.2l-1.1-3.5c0-0.1,0-0.4,0.2-0.4c0.1,0,0.4,0,0.4,0.2l1.1,3.5
						C69.1,113.6,69,113.7,68.9,113.8z"/>
				</g>
			</g>
		</g>
		<g>
			<g>
				<path d="M80,91.4c1.8-0.2,4.2-0.6,5.8-0.6c0.4,0,0.5,0,0.5,0.8c0,1.4-0.1,4.6-0.1,6.6c-2.2,0-4.5,0.1-6.5,0.2h-0.9l0.1,5.4
					l0.9-0.1c2.4-0.1,6.6-0.4,9.3-0.4H90l0.1-2.1c0.1-3.4,0.4-8.1,0.4-11.1c0-4.6-3-5.1-4.1-5.1c-2.8,0-5.4,0.4-6.8,0.6l-0.8,0.1
					l0.2,5.4L80,91.4z"/>
				<path d="M100.4,96.2h0.9v-5.5h-0.9c-2.7,0-6.5,0.1-8.7,0.4l-0.8,0.2v5.5l1.1-0.1C93.9,96.3,97.8,96.2,100.4,96.2z"/>
				<path d="M101.8,101l2.5,4.7l0.9-1.1c2.2-2.7,5.8-6.7,8.4-9.3l0.5-0.5l-2.1-4.8l-1.1,0.9c-2.5,2.5-6,6.5-8.7,9.6L101.8,101z"/>
				<path d="M105.5,93l0.9,1.2l2.1-5.1l-0.4-0.5c-1.2-1.4-3.1-3.1-4.5-4l-0.9-0.7l-1.8,5l0.6,0.5C102.8,90.3,104.5,91.8,105.5,93z"
					/>
				<path d="M115.9,105.4c-0.5,0-1.1,0-1.7,0.1l0.1-0.2l-3.9-1.5l-0.4,0.9c-0.7,2.1-1.9,5.2-2.7,7.8v-1.8h-0.9
					c-2.7,0-6.5,0.1-8.7,0.4l-0.9,0v1.2l-1.9-3.8l-0.8,1.8c-2.4,5.3-4.1,7.6-4.8,8c-0.1-0.2-0.1-0.6-0.1-1.4c0-3.1,0.1-7.1,0.4-11
					v-0.9l-4.1-0.4v0.9c0,1.1-0.1,2.4-0.1,3.9c-0.1-3.1-1.7-4.6-4.5-4.6c-2.5,0-5.3,0.4-7.1,0.7l-0.8,0.2l0.4,5.7l1.1-0.1
					c2-0.4,4.6-0.7,6.3-0.7c0.2,0,0.5,0,0.5,0l0,0c0,1.9-2.5,7-5,10.2l-0.5,0.6l3.2,3.9l0.7-0.9c2.1-2.8,5.3-8.9,5.8-13.3
					c-0.1,2.1-0.1,4.4-0.1,6.1c0,1.8,0,7,3.9,7c2.4,0,5-3,7.8-8.9v1.4l1.1-0.1c2.1-0.2,6-0.4,8.6-0.4h0.9v-0.6l2.8,1.7l0.4-1.1
					c0.5-1.4,1.1-3.3,1.8-5.1c0.9-0.1,2-0.4,2.7-0.4c0.1,0,0.2,0,0.2,0v0.1c0,1.5-2.4,6.8-5,10.7l-0.5,0.7l3.4,3.1l0.6-0.9
					c1.9-2.7,5.7-9.9,5.7-14.4C119.7,107.2,118.2,105.4,115.9,105.4z"/>
			</g>
			<path class="st2" d="M89.2,102.6c-2.7,0-7.1,0.1-9.4,0.4v-3.5c2.5-0.1,5-0.2,7.3-0.2c0-1.8,0.1-5.8,0.1-7.4
				c0-1.3-0.6-1.8-1.4-1.8c-1.7,0-4.4,0.4-5.9,0.6L79.8,87c1.9-0.4,4.2-0.6,6.6-0.6c2.1,0,3.2,1.4,3.2,4.1
				C89.6,93.6,89.3,99,89.2,102.6z"/>
			<path class="st2" d="M91.8,95.7v-3.7c2.4-0.2,6.1-0.4,8.7-0.4v3.7C97.9,95.3,93.9,95.4,91.8,95.7z"/>
			<path class="st2" d="M106.3,92.4c-1.1-1.3-2.8-3-4.1-3.9l1.2-3.2c1.3,0.9,3.1,2.5,4.2,3.9L106.3,92.4z M104.5,104l-1.5-2.8
				c2.5-2.8,6.1-7,8.6-9.6l1.3,3C110.5,97.2,106.8,101.3,104.5,104z"/>
			<path class="st2" d="M78.7,123.8l-2-2.5c2.5-3.2,5.1-8.5,5.1-10.7c0-0.7-0.4-1.1-1.4-1.1c-1.8,0-4.6,0.5-6.4,0.7l-0.2-3.8
				c1.7-0.4,4.6-0.7,7-0.7c2.1,0,3.7,0.8,3.7,4.1C84.4,114.4,80.7,121,78.7,123.8z"/>
			<path class="st2" d="M89,123.2c-2.1,0-3-2.2-3-6c0-3.3,0.1-8.1,0.2-11.5l2.2,0.2c-0.2,3.3-0.4,7.7-0.4,11.1
				c0,1.8,0.4,2.5,0.9,2.5c1.3,0,3.7-3.8,5.8-8.6l1.5,3.1C94.8,117.5,91.6,123.2,89,123.2z"/>
			<path class="st2" d="M97.7,115.7V112c2.4-0.2,6.1-0.4,8.7-0.4v3.5C103.8,115.2,99.9,115.3,97.7,115.7z"/>
			<path class="st2" d="M113.2,123.8l-2-1.9c2.1-3.2,5.1-9.1,5.1-11.2c0-0.7-0.2-1.1-1.2-1.1c-0.9,0-2.6,0.2-3.4,0.5
				c-0.7,2-1.4,4-1.9,5.7l-2-1.2c0.9-2.7,2.4-7.1,3.3-9.6l2.2,0.8c-0.1,0.2-0.2,0.5-0.4,0.8c0.8-0.1,2.1-0.2,3.1-0.2
				c2,0,2.8,1.5,2.8,3.7C118.7,114.4,114.8,121.3,113.2,123.8z"/>
		</g>
	</g>
	<g>
		<path class="st204" d="M144.6,161.1c0,4-7.8,26.9-31.4,26.9c-23.4,0-31.4-22.9-31.4-26.9s13.9-6.8,31.3-6.8
			C130.4,154.3,144.6,157.1,144.6,161.1z"/>
		<g>
			<path class="st205" d="M113.2,167.6c16.1,0,29.4-2.8,31.2-6.4c-1.8-3.7-15.1-6.4-31.2-6.4s-29.4,2.8-31.2,6.4
				C83.8,164.8,97.1,167.6,113.2,167.6z"/>
		</g>
		<g>
			<g>
				<defs>
					<path id="SVGID_114_" d="M113.2,154.8c-16.1,0-29.4,2.8-31.2,6.4c1.8,3.7,15.1,6.4,31.2,6.4s29.4-2.8,31.2-6.4"/>
				</defs>
				<clipPath id="SVGID_46_">
					<use xlink:href="#SVGID_114_"  style="overflow:visible;"/>
				</clipPath>
				<g style="clip-path:url(#SVGID_46_);">
					<path class="st2" d="M142.9,166.1c0,3.7-12.7,6.5-28.6,6.5c-15.7,0-28.6-3-28.6-6.5c0-3.7,12.7-6.5,28.6-6.5
						S142.9,162.5,142.9,166.1z"/>
					<g>
						
							<linearGradient id="SVGID_47_" gradientUnits="userSpaceOnUse" x1="125.3367" y1="-1365.2067" x2="126.1552" y2="-1360.5645" gradientTransform="matrix(1 0 0 -1 0 -1201.9386)">
							<stop  offset="0" style="stop-color:#FDD676"/>
							<stop  offset="1" style="stop-color:#F8B62D"/>
						</linearGradient>
						<path class="st54" d="M121.4,160c0.8-0.1,1.7,0.2,2.5-0.1c1.1-0.5,1.4-1.4,2.8-1.1c0.9,0.2,3.7,1.4,3.4,2.6
							c-0.2,0.9-1.4,1.4-1.7,2.4c-0.1,0.6-4-0.9-4.4-1.1C122.7,162.2,121.3,161.8,121.4,160z"/>
						
							<linearGradient id="SVGID_48_" gradientUnits="userSpaceOnUse" x1="106.8345" y1="-1362.7305" x2="114.7467" y2="-1362.7305" gradientTransform="matrix(1 0 0 -1 0 -1201.9386)">
							<stop  offset="0" style="stop-color:#FDD676"/>
							<stop  offset="1" style="stop-color:#F8B62D"/>
						</linearGradient>
						<path class="st55" d="M108.2,158.9c-0.6,0.5-1.3,1.7-1.3,2.4c1.9,0.2,6.4,3.7,7.8,0.8c0.6-1.1-0.8-2.8-1.8-3.2
							C111.7,158.4,109.3,158.1,108.2,158.9z"/>
						
							<linearGradient id="SVGID_49_" gradientUnits="userSpaceOnUse" x1="130.7063" y1="-1368.8024" x2="130.7063" y2="-1363.9437" gradientTransform="matrix(1 0 0 -1 0 -1201.9386)">
							<stop  offset="0" style="stop-color:#FDD676"/>
							<stop  offset="1" style="stop-color:#F8B62D"/>
						</linearGradient>
						<path class="st56" d="M128,162.4c-0.6,0.5-1.3,1.7-1.3,2.4c1.9,0.2,6.4,3.7,7.8,0.8c0.6-1.1-0.8-2.8-1.8-3.2
							C131.6,162,129,161.7,128,162.4z"/>
						
							<linearGradient id="SVGID_50_" gradientUnits="userSpaceOnUse" x1="103.8711" y1="-1364.9326" x2="111.3511" y2="-1364.9326" gradientTransform="matrix(1 0 0 -1 0 -1201.9386)">
							<stop  offset="0" style="stop-color:#FDD676"/>
							<stop  offset="1" style="stop-color:#F8B62D"/>
						</linearGradient>
						<path class="st57" d="M104.7,160.7c1.8-1.7,4,1.9,5.1,0.2c0.8,0.9,2.1,2,1.4,3.4c-0.4,0.7-1.2,1.2-1.9,1.3
							c-0.7,0.2-2.1,0.2-2.8-0.1c-0.5-0.2-0.8-0.8-1.2-1.1c-0.5-0.4-0.8-0.4-1.2-0.9C103.6,162.7,104,161.4,104.7,160.7z"/>
						
							<linearGradient id="SVGID_51_" gradientUnits="userSpaceOnUse" x1="97.7215" y1="-1363.8516" x2="105.3593" y2="-1363.8516" gradientTransform="matrix(1 0 0 -1 0 -1201.9386)">
							<stop  offset="0" style="stop-color:#FDD676"/>
							<stop  offset="1" style="stop-color:#F8B62D"/>
						</linearGradient>
						<path class="st58" d="M98.6,159.4c1.1-0.7,4.1,0.9,4.4-0.4c1.3,0.7,2.8,2.1,2.2,3.4c-0.1,0.2-0.5,0.5-0.6,0.7
							c-0.1,0.1,0.1,0.4,0,0.6c-0.1,0.4-0.5,0.7-0.8,0.8C101.2,166,95.5,161.4,98.6,159.4z"/>
						
							<linearGradient id="SVGID_52_" gradientUnits="userSpaceOnUse" x1="88.7472" y1="-1364.1174" x2="96.5825" y2="-1364.1174" gradientTransform="matrix(1 0 0 -1 0 -1201.9386)">
							<stop  offset="0" style="stop-color:#FDD676"/>
							<stop  offset="1" style="stop-color:#F8B62D"/>
						</linearGradient>
						<path class="st59" d="M96.5,161.5c0,0.2-0.4,0.8-0.4,1.2c-0.1,0.5,0,0.9-0.5,1.3c-0.7,0.6-2.2,0.4-3.1,0.5
							c-0.8,0.4-1.9,1.5-3,0.9c-0.6-0.4-1.1-1.8-0.9-2.5c0.2-1.1,1.5-0.9,2.2-1.7c0.7-0.7,0.9-1.4,1.9-1.9c0.9-0.5,1.5-0.8,2.4-0.2
							C96,159.6,96.6,160.5,96.5,161.5z"/>
						
							<linearGradient id="SVGID_53_" gradientUnits="userSpaceOnUse" x1="111.4759" y1="-1364.4668" x2="119.3094" y2="-1364.4668" gradientTransform="matrix(1 0 0 -1 0 -1201.9386)">
							<stop  offset="0" style="stop-color:#FDD676"/>
							<stop  offset="1" style="stop-color:#F8B62D"/>
						</linearGradient>
						<path class="st60" d="M119.3,162c0,0.2-0.4,0.8-0.4,1.2c-0.1,0.5,0,0.9-0.5,1.3c-0.7,0.6-2.2,0.4-3.1,0.5
							c-0.9,0.1-1.9,1.4-3,0.8c-0.6-0.4-1.1-1.8-0.9-2.5c0.2-1.1,1.5-0.9,2.2-1.7s0.9-1.4,1.9-1.9c0.9-0.5,1.5-0.8,2.4-0.2
							C118.7,160.1,119.4,161,119.3,162z"/>
						
							<linearGradient id="SVGID_54_" gradientUnits="userSpaceOnUse" x1="92.748" y1="-1369.3822" x2="92.748" y2="-1364.3179" gradientTransform="matrix(1 0 0 -1 0 -1201.9386)">
							<stop  offset="0" style="stop-color:#FDD676"/>
							<stop  offset="1" style="stop-color:#F8B62D"/>
						</linearGradient>
						<path class="st61" d="M88.4,163.6c0.8-0.1,1.7,0.2,2.5-0.1c1.1-0.5,1.4-1.4,2.8-1.1c0.9,0.2,3.7,1.4,3.4,2.6
							c-0.2,0.9-1.4,1.4-1.7,2.4c-0.1,0.6-4-0.9-4.4-1.1C89.7,166,88.3,165.5,88.4,163.6z"/>
						
							<linearGradient id="SVGID_55_" gradientUnits="userSpaceOnUse" x1="95.3562" y1="-1367.2361" x2="102.8964" y2="-1367.2361" gradientTransform="matrix(1 0 0 -1 0 -1201.9386)">
							<stop  offset="0" style="stop-color:#FDD676"/>
							<stop  offset="1" style="stop-color:#F8B62D"/>
						</linearGradient>
						<path class="st62" d="M97.1,163.8c0.4,0,0.7,0.1,0.9,0c0.4-0.1,0.7-0.6,1.1-0.8c0.8-0.5,1.1-0.5,1.7,0.1c0.5,0.6,1.9,2.1,2,3
							c0.5,2.2-3.1,1.9-4.4,1.7c-0.8-0.1-2.2-0.4-2.8-1.1C94.9,165.6,95.8,164,97.1,163.8z"/>
						
							<linearGradient id="SVGID_56_" gradientUnits="userSpaceOnUse" x1="117.745" y1="-1363.8129" x2="125.2836" y2="-1363.8129" gradientTransform="matrix(1 0 0 -1 0 -1201.9386)">
							<stop  offset="0" style="stop-color:#FDD676"/>
							<stop  offset="1" style="stop-color:#F8B62D"/>
						</linearGradient>
						<path class="st63" d="M119.4,160.4c0.4,0,0.7,0.1,0.9,0c0.4-0.1,0.7-0.6,1.1-0.8c0.8-0.5,1.1-0.5,1.7,0.1c0.5,0.6,1.9,2.1,2,3
							c0.5,2.2-3.1,1.9-4.4,1.7c-0.8-0.1-2.2-0.4-2.8-1.1C117.2,162.2,118.2,160.5,119.4,160.4z"/>
						
							<linearGradient id="SVGID_57_" gradientUnits="userSpaceOnUse" x1="100.7897" y1="-1367.1156" x2="108.3672" y2="-1367.1156" gradientTransform="matrix(1 0 0 -1 0 -1201.9386)">
							<stop  offset="0" style="stop-color:#FDD676"/>
							<stop  offset="1" style="stop-color:#F8B62D"/>
						</linearGradient>
						<path class="st64" d="M105.4,162.8c-0.6,0-1.4-0.1-1.9,0c-0.8,0.2-0.7,0.9-1.2,1.5c-0.4,0.5-1.8,1.1-1.4,1.9
							c0.2,0.8,1.7,0.7,2.5,0.8c0.9,0.1,2,0.6,3,0.6c0.7,0,1.3-0.2,1.7-0.7c0.6-0.8,0.7-2.4,0.2-3.3
							C107.5,162.9,106.3,162.9,105.4,162.8z"/>
						
							<linearGradient id="SVGID_58_" gradientUnits="userSpaceOnUse" x1="113.4491" y1="-1366.4976" x2="121.9014" y2="-1366.4976" gradientTransform="matrix(1 0 0 -1 0 -1201.9386)">
							<stop  offset="0" style="stop-color:#FDD676"/>
							<stop  offset="1" style="stop-color:#F8B62D"/>
						</linearGradient>
						<path class="st65" d="M115.9,162.5c-0.8,0.1-2.8,1.7-2.4,2.7c0.2,0.4,1.4,0.9,1.9,1.1c0.9,0.4,2,0.2,3,0.4
							c0.7,0.1,2.6,0.4,3.2-0.1c0.8-0.7-0.2-1.1-0.6-1.7c-0.6-0.9,0-2-1.3-2.4C118.6,162.1,116.9,162.3,115.9,162.5z"/>
						
							<linearGradient id="SVGID_59_" gradientUnits="userSpaceOnUse" x1="107.096" y1="-1368.2927" x2="115.5438" y2="-1368.2927" gradientTransform="matrix(1 0 0 -1 0 -1201.9386)">
							<stop  offset="0" style="stop-color:#FDD676"/>
							<stop  offset="1" style="stop-color:#F8B62D"/>
						</linearGradient>
						<path class="st66" d="M109.5,164.3c-0.8,0.1-2.8,1.7-2.4,2.7c0.2,0.4,1.4,0.9,1.9,1.1c0.9,0.4,2,0.2,3,0.4
							c0.7,0.1,2.6,0.4,3.2-0.1c0.8-0.7-0.2-1.1-0.6-1.7c-0.6-0.9,0-2-1.3-2.4C112.3,164,110.6,164.1,109.5,164.3z"/>
						
							<linearGradient id="SVGID_60_" gradientUnits="userSpaceOnUse" x1="120.758" y1="-1368.7639" x2="129.4938" y2="-1368.7639" gradientTransform="matrix(1 0 0 -1 0 -1201.9386)">
							<stop  offset="0" style="stop-color:#FDD676"/>
							<stop  offset="1" style="stop-color:#F8B62D"/>
						</linearGradient>
						<path class="st84" d="M120.7,165.5c0.8-0.1,1.7,0.2,2.5-0.1c1.1-0.5,1.4-1.4,2.8-1.1c0.9,0.2,3.7,1.4,3.4,2.6
							c-0.2,0.9-1.4,1.4-1.7,2.4c-0.1,0.6-4-0.9-4.4-1.1C122,167.9,120.6,167.4,120.7,165.5z"/>
						
							<linearGradient id="SVGID_61_" gradientUnits="userSpaceOnUse" x1="113.4532" y1="-1369.5902" x2="122.1872" y2="-1369.5902" gradientTransform="matrix(1 0 0 -1 0 -1201.9386)">
							<stop  offset="0" style="stop-color:#FDD676"/>
							<stop  offset="1" style="stop-color:#F8B62D"/>
						</linearGradient>
						<path class="st85" d="M113.4,166.3c0.8-0.1,1.7,0.2,2.5-0.1c1.1-0.5,1.4-1.4,2.8-1.1c0.9,0.2,3.7,1.4,3.4,2.6
							c-0.2,0.9-1.4,1.4-1.7,2.4c-0.1,0.6-4-0.9-4.4-1.1C114.7,168.6,113.4,168.2,113.4,166.3z"/>
					</g>
				</g>
			</g>
		</g>
		<g>
			<path class="st204" d="M173.5,145.5h0.1c0.1-5-2.8-5.5-3.5-5.7C170.3,140.9,171.1,143.5,173.5,145.5z"/>
			
				<linearGradient id="SVGID_62_" gradientUnits="userSpaceOnUse" x1="154.0087" y1="-1357.8441" x2="150.857" y2="-1351.9167" gradientTransform="matrix(1 0 0 -1 0 -1201.9386)">
				<stop  offset="0" style="stop-color:#898989"/>
				<stop  offset="0.4662" style="stop-color:#FFFFFF"/>
				<stop  offset="1" style="stop-color:#898989"/>
			</linearGradient>
			<path class="st86" d="M170.1,139.8C170.1,139.8,169.9,139.8,170.1,139.8l-34.7,20.3c0,0-1.9,0.2-2.6,0.4
				c-0.7,0.1-0.7,1.2-0.7,1.2l2.2,3.7l1.3-0.2l1.3-1.3l36.6-18.2C171.1,143.5,170.3,140.9,170.1,139.8z"/>
		</g>
		<path class="st95" d="M113.2,154.8c-16.1,0-29.4,2.8-31.2,6.4c1.8,3.7,15.1,6.4,31.2,6.4s29.4-2.8,31.2-6.4"/>
	</g>
</g>
</svg>
