<?xml version="1.0" encoding="utf-8"?>
<!-- Generator: Adobe Illustrator 24.0.1, SVG Export Plug-In . SVG Version: 6.00 Build 0)  -->
<svg version="1.1" id="レイヤー_1" xmlns="http://www.w3.org/2000/svg" xmlns:xlink="http://www.w3.org/1999/xlink" x="0px"
	 y="0px" viewBox="0 0 553 265.4" style="enable-background:new 0 0 553 265.4;" xml:space="preserve">
<style type="text/css">
	.st0{fill:#FEFCEE;}
	.st1{fill:#BABABA;}
	.st2{fill:#FFFFFF;}
	.st3{fill:none;stroke:#6B1319;stroke-width:0.3593;stroke-miterlimit:10;}
	.st4{fill:#F4F4F5;}
	.st5{fill:#F9F5D2;}
	.st6{enable-background:new    ;}
	.st7{fill:#040000;}
	.st8{fill:#E6E6E5;}
	.st9{fill:#CFE7F2;}
	.st10{fill:#3794C4;}
	.st11{fill:#727171;}
	.st12{fill:#F7F9FA;}
	.st13{fill:#48A6CE;}
	.st14{fill:url(#SVGID_8_);}
	.st15{fill:none;stroke:#221714;stroke-width:0.1875;}
	.st16{fill:url(#SVGID_9_);}
	.st17{fill:url(#SVGID_10_);}
	.st18{fill:url(#SVGID_11_);}
	.st19{fill:url(#SVGID_12_);}
	.st20{fill:url(#SVGID_13_);}
	.st21{fill:url(#SVGID_14_);}
	.st22{fill:url(#SVGID_15_);}
	.st23{fill:url(#SVGID_16_);}
	.st24{fill:url(#SVGID_17_);}
	.st25{fill:url(#SVGID_18_);}
	.st26{fill:url(#SVGID_19_);}
	.st27{fill:url(#SVGID_20_);}
	.st28{fill:url(#SVGID_21_);}
	.st29{fill:url(#SVGID_22_);}
	.st30{fill:url(#SVGID_23_);}
	.st31{fill:url(#SVGID_24_);}
	.st32{fill:#F0EFEE;}
	.st33{fill:url(#SVGID_25_);}
	.st34{fill:url(#SVGID_26_);}
	.st35{fill:url(#SVGID_27_);}
	.st36{fill:url(#SVGID_28_);}
	.st37{fill:url(#SVGID_29_);}
	.st38{fill:url(#SVGID_30_);}
	.st39{fill:url(#SVGID_31_);}
	.st40{fill:url(#SVGID_32_);}
	.st41{fill:url(#SVGID_33_);}
	.st42{fill:url(#SVGID_34_);}
	.st43{fill:url(#SVGID_35_);}
	.st44{fill:url(#SVGID_36_);}
	.st45{fill:url(#SVGID_37_);}
	.st46{fill:url(#SVGID_38_);}
	.st47{fill:url(#SVGID_39_);}
	.st48{fill:url(#SVGID_41_);}
	.st49{fill:url(#SVGID_42_);}
	.st50{fill:url(#SVGID_43_);}
	.st51{fill:url(#SVGID_44_);}
	.st52{fill:url(#SVGID_45_);}
	.st53{fill:url(#SVGID_46_);}
	.st54{fill:url(#SVGID_47_);}
	.st55{fill:url(#SVGID_48_);}
	.st56{fill:url(#SVGID_49_);}
	.st57{fill:url(#SVGID_50_);}
	.st58{fill:url(#SVGID_51_);}
	.st59{fill:url(#SVGID_52_);}
	.st60{fill:url(#SVGID_53_);}
	.st61{fill:url(#SVGID_54_);}
	.st62{fill:url(#SVGID_55_);}
	.st63{fill:url(#SVGID_56_);}
	.st64{fill:url(#SVGID_57_);}
	.st65{fill:url(#SVGID_58_);}
	.st66{fill:url(#SVGID_59_);}
	.st67{fill:#3E3A39;}
	.st68{fill:#C6BA9A;}
	.st69{fill:#D6CCB5;}
	.st70{fill:#B5B5B6;}
	.st71{fill:#F0EFEF;}
	.st72{fill:#595857;}
	.st73{fill:#DCDDDD;}
	.st74{fill:#CCAC69;}
	.st75{fill:#C9CACA;}
	.st76{fill:#9FA0A0;}
	.st77{fill:#8A8A8A;}
	.st78{opacity:0.75;}
	.st79{fill:#B81C25;}
	.st80{fill:#DE551A;}
	.st81{fill:#E99413;}
	.st82{fill:#F7F9F9;}
	.st83{fill:#E83514;}
	.st84{fill:url(#SVGID_60_);}
	.st85{fill:url(#SVGID_61_);}
	.st86{fill:url(#SVGID_62_);}
	.st87{fill:url(#SVGID_63_);}
	.st88{fill:url(#SVGID_64_);}
	.st89{fill:url(#SVGID_65_);}
	.st90{stroke:#000000;stroke-width:3.0472;stroke-linecap:round;stroke-linejoin:round;stroke-miterlimit:10;}
	.st91{fill:url(#SVGID_66_);stroke:#000000;stroke-width:1.0157;stroke-linecap:round;stroke-linejoin:round;}
	.st92{fill:url(#SVGID_67_);stroke:#000000;stroke-width:1.0157;stroke-linecap:round;stroke-linejoin:round;}
	.st93{fill:url(#SVGID_68_);stroke:#000000;stroke-width:1.0157;stroke-linecap:round;stroke-linejoin:round;}
	.st94{opacity:0.4;fill:#FFFFFF;enable-background:new    ;}
	.st95{fill:none;}
	.st96{fill:#FFFEEE;}
	.st97{fill:none;stroke:#F7EFB8;stroke-width:0.5079;}
	.st98{fill:none;stroke:#F7EFB8;stroke-width:0.2539;stroke-miterlimit:10;}
	.st99{fill:none;stroke:#000000;stroke-width:0.2437;stroke-miterlimit:10;}
	.st100{fill:none;stroke:#000000;stroke-width:1.0157;stroke-linecap:round;stroke-linejoin:round;}
	.st101{fill-rule:evenodd;clip-rule:evenodd;}
	.st102{fill:none;stroke:#000000;stroke-width:0.5079;stroke-miterlimit:10;}
	.st103{fill-rule:evenodd;clip-rule:evenodd;fill:url(#SVGID_69_);}
	.st104{opacity:0.9;fill:#E60012;enable-background:new    ;}
	.st105{fill:#DCDBDA;}
	.st106{opacity:0.9;fill:#FFFFFF;enable-background:new    ;}
	.st107{opacity:0.3;fill:#FFFFFF;enable-background:new    ;}
	.st108{fill:#7E7977;}
	.st109{fill:#EEEAD0;}
	.st110{fill:#DDD9C2;}
	.st111{fill:#D3A243;}
	.st112{fill:none;stroke:#E5E3DA;stroke-width:0.5079;stroke-linecap:round;stroke-linejoin:round;}
	.st113{fill:#CDA774;}
	.st114{fill:#DDB887;}
	.st115{fill:#F3EBDF;}
	.st116{fill:#F8F0E4;}
	.st117{fill:#ECECEC;}
	.st118{fill:url(#SVGID_70_);}
	.st119{fill:url(#SVGID_71_);}
	.st120{fill:#E60012;}
	.st121{fill:#E5D32D;stroke:#A38A77;stroke-width:0.2737;stroke-miterlimit:10;}
	.st122{fill:#E3D172;stroke:#C79F62;stroke-width:0.2737;stroke-miterlimit:10;}
	.st123{fill:#E3D172;}
	.st124{fill:#EEEEEF;stroke:#C8C9CA;stroke-width:0.2052;stroke-miterlimit:10;}
	.st125{fill:#804F21;}
	.st126{fill:none;stroke:#A38A77;stroke-width:0.2737;stroke-miterlimit:10;}
	.st127{fill:none;stroke:#E5D32D;stroke-width:0.5473;stroke-miterlimit:10;}
	.st128{fill:#DBDCDC;stroke:#C4C7C4;stroke-width:0.2737;stroke-miterlimit:10;}
	.st129{fill:#EEEEEF;}
	.st130{fill:#E8E8DC;}
	.st131{fill:#E62C0F;}
	.st132{fill:#F7B52C;stroke:#DB9F09;stroke-width:0.2737;stroke-miterlimit:10;}
	.st133{fill:#44AF35;stroke:#448A3E;stroke-width:0.2737;stroke-miterlimit:10;}
	.st134{fill:#734C22;}
	.st135{fill:none;stroke:#FFFFFF;stroke-width:1.3684;}
	.st136{fill:#946134;}
	.st137{fill:#231815;}
	.st138{fill:#C79F62;stroke:#946134;stroke-width:4.194518e-02;}
	.st139{fill:none;stroke:#946134;stroke-width:4.194518e-02;}
	.st140{fill:#40210F;stroke:#946134;stroke-width:4.194518e-02;}
	.st141{fill:#FFFFFF;stroke:#6A3906;stroke-width:4.194518e-02;}
	.st142{fill:url(#SVGID_72_);}
	.st143{fill:url(#SVGID_73_);}
	.st144{fill:url(#SVGID_74_);}
	.st145{fill:none;stroke:#F0D958;stroke-width:1.0893;stroke-linecap:round;stroke-linejoin:round;stroke-miterlimit:10;}
	.st146{fill:none;stroke:#DD5F1A;stroke-width:1.6341;stroke-linecap:round;stroke-linejoin:round;stroke-miterlimit:10;}
	.st147{fill:#006934;}
	.st148{fill:#DBDCDC;}
	.st149{fill:#BEC2BF;stroke:#B2B4B1;stroke-width:0.2127;stroke-linecap:round;stroke-linejoin:round;}
	.st150{fill:none;stroke:#F0D958;stroke-width:0.8506;stroke-linecap:round;stroke-linejoin:round;stroke-miterlimit:10;}
	.st151{fill:none;stroke:#DD5F1A;stroke-width:1.2759;stroke-linecap:round;stroke-linejoin:round;stroke-miterlimit:10;}
	.st152{fill:none;stroke:#E60012;stroke-width:0.1532;stroke-miterlimit:10;}
	.st153{fill:none;stroke:#E60012;stroke-width:0.1532;stroke-miterlimit:10;stroke-dasharray:0.7747,0.7747;}
	.st154{fill:none;stroke:#000000;stroke-width:0.1532;stroke-miterlimit:10;}
	.st155{fill:none;stroke:#000000;stroke-width:1.0962;stroke-miterlimit:10;}
	.st156{fill:#C9A063;stroke:#000000;stroke-width:1.494;stroke-miterlimit:10;}
	.st157{fill:#008ABD;}
	.st158{fill:#5CB9D3;}
	.st159{fill:#BFC0C0;}
	.st160{fill:#FBF8EA;}
	.st161{fill:none;stroke:#000000;stroke-width:0.6647;}
	.st162{fill:#036EB8;}
	.st163{fill:#EA5514;}
	.st164{clip-path:url(#SVGID_76_);}
	.st165{fill:url(#SVGID_77_);}
	.st166{fill:url(#SVGID_78_);}
	.st167{fill:url(#SVGID_79_);}
	.st168{fill:url(#SVGID_80_);}
	.st169{fill:url(#SVGID_81_);}
	.st170{fill:url(#SVGID_82_);}
	.st171{fill:url(#SVGID_83_);}
	.st172{fill:url(#SVGID_84_);}
	.st173{fill:url(#SVGID_85_);}
	.st174{fill:url(#SVGID_86_);}
	.st175{fill:url(#SVGID_87_);}
	.st176{fill:url(#SVGID_88_);}
	.st177{fill:url(#SVGID_89_);}
	.st178{fill:url(#SVGID_90_);}
	.st179{fill:url(#SVGID_91_);}
	.st180{fill:url(#SVGID_92_);}
	.st181{fill:url(#SVGID_93_);}
	.st182{fill:url(#SVGID_94_);}
	.st183{fill:url(#SVGID_95_);}
	.st184{fill:url(#SVGID_96_);}
	.st185{fill:url(#SVGID_97_);}
	.st186{fill:url(#SVGID_98_);}
	.st187{fill:url(#SVGID_99_);}
	.st188{fill:url(#SVGID_100_);}
	.st189{fill:url(#SVGID_101_);}
	.st190{fill:url(#SVGID_102_);}
	.st191{fill:url(#SVGID_103_);}
	.st192{fill:url(#SVGID_104_);}
	.st193{fill:url(#SVGID_105_);}
	.st194{fill:url(#SVGID_106_);}
	.st195{fill:url(#SVGID_107_);}
	.st196{fill:url(#SVGID_108_);}
	.st197{fill:url(#SVGID_109_);}
	.st198{fill:url(#SVGID_110_);}
	.st199{fill:url(#SVGID_111_);}
	.st200{clip-path:url(#SVGID_113_);}
	.st201{fill:#B28247;}
	.st202{fill:#FFF100;}
	.st203{fill:#8FC31F;}
	.st204{fill:#EAE5E3;}
	.st205{fill:#BEB1AA;}
	.st206{clip-path:url(#SVGID_115_);}
	.st207{fill:url(#SVGID_116_);}
	.st208{fill:url(#SVGID_117_);}
	.st209{fill:url(#SVGID_118_);}
	.st210{fill:url(#SVGID_119_);}
	.st211{fill:url(#SVGID_120_);}
	.st212{fill:url(#SVGID_121_);}
	.st213{fill:url(#SVGID_122_);}
	.st214{fill:url(#SVGID_123_);}
	.st215{fill:url(#SVGID_124_);}
	.st216{fill:url(#SVGID_125_);}
	.st217{fill:url(#SVGID_126_);}
	.st218{fill:url(#SVGID_127_);}
	.st219{fill:url(#SVGID_128_);}
	.st220{fill:url(#SVGID_129_);}
	.st221{fill:url(#SVGID_130_);}
	.st222{fill:url(#SVGID_131_);}
	.st223{fill:#FFF9E8;}
	.st224{opacity:0.5;fill:url(#);enable-background:new    ;}
	.st225{clip-path:url(#SVGID_136_);}
	.st226{clip-path:url(#SVGID_137_);}
	.st227{fill:#FCE1B9;}
	.st228{fill:#DFCD8C;}
	.st229{fill:#EADDB0;}
	.st230{fill:#6C1317;}
	.st231{fill:#5C070C;}
	.st232{fill:#8A4000;}
	.st233{fill:#9C0109;}
	.st234{fill:#8A0001;}
	.st235{fill:url(#SVGID_138_);}
	.st236{clip-path:url(#SVGID_143_);}
	.st237{clip-path:url(#SVGID_144_);}
	.st238{fill:#9C0109;stroke:#FFFFFF;stroke-width:0.8745;stroke-miterlimit:10;}
	.st239{fill:url(#SVGID_145_);}
	.st240{fill:#CF1126;}
	.st241{fill:#F4F3F1;}
	.st242{fill:#C30D23;}
	.st243{fill:#CCCCCC;}
	.st244{clip-path:url(#SVGID_147_);}
	.st245{fill:#C8C9CA;}
	.st246{clip-path:url(#SVGID_149_);}
	.st247{fill:#803220;}
	.st248{fill:#EEAA3D;}
	.st249{fill:#E29223;}
	.st250{fill:#944024;}
	.st251{fill:#B15022;}
	.st252{fill:#D18215;}
	.st253{fill:#FAED00;}
	.st254{fill:#1EAA39;}
	.st255{fill:#169530;}
	.st256{fill:none;stroke:#FFFFFF;stroke-miterlimit:10;}
	.st257{clip-path:url(#SVGID_151_);}
	.st258{clip-path:url(#SVGID_153_);}
	.st259{fill:#FCD006;}
	.st260{fill:#604C3F;}
	.st261{fill:#C79F62;}
	.st262{fill:#FDEABE;}
	.st263{fill:#E95504;}
	.st264{fill:#C11920;}
	.st265{fill:url(#SVGID_154_);}
	.st266{fill:url(#SVGID_155_);}
	.st267{fill:#5D8AA2;}
	.st268{fill:#267EAF;}
	.st269{fill:none;stroke:#D9B556;stroke-width:0.6193;stroke-miterlimit:10;}
	.st270{fill:#D9B556;}
	.st271{fill:#0E2F8F;}
	.st272{fill:url(#SVGID_156_);}
	.st273{fill:url(#SVGID_157_);}
	.st274{fill:url(#SVGID_158_);}
	.st275{fill:#755F43;}
	.st276{fill:#CD6829;}
	.st277{fill:#E08030;}
	.st278{fill:#F7F8F8;}
	.st279{fill:#E9E5E2;}
	.st280{fill:#9E9E9F;}
	.st281{fill:url(#SVGID_159_);}
	.st282{clip-path:url(#SVGID_161_);fill:#FBD6A0;}
	.st283{fill:#D1A26C;}
	.st284{fill:#FDEBD1;}
	.st285{fill:url(#SVGID_162_);}
	.st286{fill:#888888;}
	.st287{fill:#B4B4B5;}
	.st288{fill:#E6BE98;}
	.st289{fill:#BAE2F8;}
	.st290{fill:#182987;}
	.st291{fill:#3071B7;}
	.st292{clip-path:url(#SVGID_164_);fill:#F7B52C;}
	.st293{fill:#F7F9F9;stroke:#727171;stroke-width:0.1726;stroke-miterlimit:10;}
	.st294{fill:#C39717;}
	.st295{fill:#CC172C;}
	.st296{fill:#E73828;}
	.st297{fill:#F7B52C;}
	.st298{clip-path:url(#SVGID_166_);}
	.st299{fill:#D2A143;}
	.st300{fill:#B48626;}
	.st301{fill:#9C751E;}
	.st302{fill:#8DC21F;}
	.st303{fill:#00913A;}
	.st304{fill:#E95513;}
	.st305{clip-path:url(#SVGID_168_);}
	.st306{fill:#BDA661;}
	.st307{fill:#C9B168;}
	.st308{fill:url(#SVGID_169_);}
	.st309{fill:url(#SVGID_170_);}
	.st310{fill:url(#SVGID_171_);}
	.st311{fill:url(#SVGID_172_);}
	.st312{fill:url(#SVGID_173_);}
	.st313{fill:url(#SVGID_174_);}
	.st314{fill:url(#SVGID_175_);}
	.st315{fill:url(#SVGID_176_);}
	.st316{fill:url(#SVGID_177_);}
	.st317{fill:url(#SVGID_178_);}
	.st318{fill:url(#SVGID_179_);}
	.st319{fill:url(#SVGID_180_);}
	.st320{fill:url(#SVGID_181_);}
	.st321{fill:url(#SVGID_182_);}
	.st322{fill:url(#SVGID_183_);}
	.st323{fill:url(#SVGID_184_);}
	.st324{fill:url(#SVGID_185_);}
	.st325{fill:url(#SVGID_186_);}
	.st326{fill:url(#SVGID_187_);}
	.st327{fill:url(#SVGID_188_);}
	.st328{fill:url(#SVGID_189_);}
	.st329{fill:url(#SVGID_190_);}
	.st330{fill:url(#SVGID_191_);}
	.st331{fill:url(#SVGID_192_);}
	.st332{fill:url(#SVGID_193_);}
	.st333{fill:url(#SVGID_194_);}
	.st334{fill:url(#SVGID_195_);}
	.st335{fill:url(#SVGID_196_);}
	.st336{fill:url(#SVGID_197_);}
	.st337{fill:url(#SVGID_198_);}
	.st338{fill:url(#SVGID_199_);}
	.st339{fill:url(#SVGID_200_);}
	.st340{fill:url(#SVGID_201_);}
	.st341{fill:url(#SVGID_202_);}
	.st342{fill:url(#SVGID_203_);}
	.st343{fill:url(#SVGID_204_);}
	.st344{fill:url(#SVGID_205_);}
	.st345{fill:url(#SVGID_206_);}
	.st346{fill:url(#SVGID_207_);}
	.st347{fill:url(#SVGID_208_);}
	.st348{fill:url(#SVGID_209_);}
	.st349{fill:url(#SVGID_210_);}
	.st350{fill:url(#SVGID_211_);}
	.st351{fill:url(#SVGID_212_);}
	.st352{fill:url(#SVGID_213_);}
	.st353{fill:url(#SVGID_214_);}
	.st354{fill:url(#SVGID_215_);}
	.st355{fill:url(#SVGID_216_);}
	.st356{fill:url(#SVGID_217_);}
	.st357{fill:url(#SVGID_218_);}
	.st358{fill:url(#SVGID_219_);}
	.st359{fill:url(#SVGID_220_);}
	.st360{fill:url(#SVGID_221_);}
	.st361{fill:url(#SVGID_222_);}
	.st362{fill:url(#SVGID_223_);}
	.st363{fill:url(#SVGID_224_);}
	.st364{fill:url(#SVGID_225_);}
	.st365{fill:url(#SVGID_226_);stroke:#000000;stroke-width:1.0157;stroke-linecap:round;stroke-linejoin:round;}
	.st366{fill:url(#SVGID_227_);stroke:#000000;stroke-width:1.0157;stroke-linecap:round;stroke-linejoin:round;}
	.st367{fill:url(#SVGID_228_);stroke:#000000;stroke-width:1.0157;stroke-linecap:round;stroke-linejoin:round;}
	.st368{fill-rule:evenodd;clip-rule:evenodd;fill:url(#SVGID_229_);}
	.st369{fill:url(#SVGID_230_);}
	.st370{fill:url(#SVGID_231_);}
	.st371{fill:url(#SVGID_232_);}
	.st372{fill:url(#SVGID_233_);}
	.st373{fill:url(#SVGID_234_);}
	.st374{clip-path:url(#SVGID_236_);}
	.st375{fill:url(#SVGID_237_);}
	.st376{fill:url(#SVGID_238_);}
	.st377{fill:url(#SVGID_239_);}
	.st378{fill:url(#SVGID_240_);}
	.st379{fill:url(#SVGID_241_);}
	.st380{fill:url(#SVGID_242_);}
	.st381{fill:url(#SVGID_243_);}
	.st382{fill:url(#SVGID_244_);}
	.st383{fill:url(#SVGID_245_);}
	.st384{fill:url(#SVGID_246_);}
	.st385{fill:url(#SVGID_247_);}
	.st386{fill:url(#SVGID_248_);}
	.st387{fill:url(#SVGID_249_);}
	.st388{fill:url(#SVGID_250_);}
	.st389{fill:url(#SVGID_251_);}
	.st390{fill:url(#SVGID_252_);}
	.st391{fill:url(#SVGID_253_);}
	.st392{fill:url(#SVGID_254_);}
	.st393{fill:url(#SVGID_255_);}
	.st394{fill:url(#SVGID_256_);}
	.st395{fill:url(#SVGID_257_);}
	.st396{fill:url(#SVGID_258_);}
	.st397{fill:url(#SVGID_259_);}
	.st398{fill:url(#SVGID_260_);}
	.st399{fill:url(#SVGID_261_);}
	.st400{fill:url(#SVGID_262_);}
	.st401{fill:url(#SVGID_263_);}
	.st402{fill:url(#SVGID_264_);}
	.st403{fill:url(#SVGID_265_);}
	.st404{fill:url(#SVGID_266_);}
	.st405{fill:url(#SVGID_267_);}
	.st406{fill:url(#SVGID_268_);}
	.st407{fill:url(#SVGID_269_);}
	.st408{fill:url(#SVGID_270_);}
	.st409{fill:url(#SVGID_271_);}
	.st410{clip-path:url(#SVGID_273_);}
	.st411{clip-path:url(#SVGID_275_);}
	.st412{fill:url(#SVGID_276_);}
	.st413{fill:url(#SVGID_277_);}
	.st414{fill:url(#SVGID_278_);}
	.st415{fill:url(#SVGID_279_);}
	.st416{fill:url(#SVGID_280_);}
	.st417{fill:url(#SVGID_281_);}
	.st418{fill:url(#SVGID_282_);}
	.st419{fill:url(#SVGID_283_);}
	.st420{fill:url(#SVGID_284_);}
	.st421{fill:url(#SVGID_285_);}
	.st422{fill:url(#SVGID_286_);}
	.st423{fill:url(#SVGID_287_);}
	.st424{fill:url(#SVGID_288_);}
	.st425{fill:url(#SVGID_289_);}
	.st426{fill:url(#SVGID_290_);}
	.st427{fill:url(#SVGID_291_);}
	.st428{clip-path:url(#SVGID_296_);}
	.st429{clip-path:url(#SVGID_297_);}
	.st430{fill:url(#SVGID_298_);}
	.st431{clip-path:url(#SVGID_303_);}
	.st432{clip-path:url(#SVGID_304_);}
	.st433{fill:url(#SVGID_305_);}
	.st434{clip-path:url(#SVGID_307_);}
	.st435{clip-path:url(#SVGID_309_);}
	.st436{clip-path:url(#SVGID_311_);}
	.st437{clip-path:url(#SVGID_313_);}
	.st438{fill:url(#SVGID_314_);}
	.st439{fill:url(#SVGID_315_);}
	.st440{fill:url(#SVGID_316_);}
	.st441{fill:url(#SVGID_317_);}
	.st442{fill:url(#SVGID_318_);}
	.st443{fill:url(#SVGID_319_);}
	.st444{clip-path:url(#SVGID_321_);fill:#FBD6A0;}
	.st445{fill:url(#SVGID_322_);}
	.st446{clip-path:url(#SVGID_324_);fill:#F7B52C;}
	.st447{clip-path:url(#SVGID_326_);}
	.st448{clip-path:url(#SVGID_328_);}
</style>
<g>
	<rect y="0" class="st0" width="553" height="265.4"/>
</g>
<g>
	<path class="st1" d="M178.5,228.1H57.8c-7.4,0-13.4-6-13.4-13.4V53.1c0-7.4,6-13.4,13.4-13.4h120.7c7.4,0,13.4,6,13.4,13.4v161.6
		C191.9,222.1,185.9,228.1,178.5,228.1z"/>
	<path class="st2" d="M175.5,225.9H54.8c-7.4,0-13.4-6-13.4-13.4V50.9c0-7.4,6-13.4,13.4-13.4h120.7c7.4,0,13.4,6,13.4,13.4v161.6
		C188.9,219.9,182.9,225.9,175.5,225.9z"/>
	<path class="st3" d="M41.4,212.4V50.9c0-7.4,6-13.4,13.4-13.4h120.7"/>
</g>
<g>
	<rect x="258.4" y="89.8" class="st4" width="249.1" height="97.7"/>
	<rect x="255.6" y="88.1" class="st5" width="249.1" height="97.7"/>
	<polyline class="st3" points="504.7,89.3 504.7,185.8 257.5,185.8 	"/>
</g>
<g class="st6">
	<path class="st7" d="M330.5,41.7c-0.1,0.2-0.1,0.3-0.1,0.4c0,0.1-0.1,0.3-0.1,0.7l-0.1,0.5l-0.1,0.6c-1.1,8.1-3.1,13.6-6.6,17.9
		c-1.2-1.2-2.9-2.4-4.3-3.2c3.6-3.7,6.1-10.9,6.2-17.9L330.5,41.7z M338.3,40.8C338.3,40.8,338.3,40.9,338.3,40.8
		c0,1.1,0.5,4.1,1,5.9c1.3,5.1,3,8.6,5.8,11.9c-1.7,1.1-2.9,2-4.2,3.3c-3.5-4.6-5.8-10.7-6.8-18.2c0-0.3-0.1-0.5-0.1-0.5l-0.2-1
		l0-0.3c0,0-0.1-0.2-0.1-0.3L338.3,40.8z M345.2,42.8c0,1.6-1.3,3-3,3c-1.6,0-3-1.4-3-3c0-1.7,1.3-3,3-3
		C343.9,39.8,345.2,41.1,345.2,42.8z M340.8,42.8c0,0.8,0.7,1.5,1.5,1.5c0.8,0,1.5-0.7,1.5-1.5c0-0.8-0.7-1.5-1.5-1.5
		C341.5,41.3,340.8,42,340.8,42.8z"/>
	<path class="st7" d="M351,45c1,2,1.9,4.1,2.6,6.7l-4.1,1.2c-0.7-2.8-1.2-4.4-2.4-6.9L351,45z M366.4,45.5c-0.2,0.5-0.2,0.6-0.4,1.6
		c-0.8,3.7-1.8,6.4-3.3,8.6c-1.4,2.1-3.3,3.9-5.6,5.4c-0.9,0.6-1.6,1-3.2,1.8c-0.9-1.6-1.4-2.3-2.9-3.7c5.3-2.1,8.2-4.7,9.8-9.1
		c0.7-1.9,1.1-4,1.2-5.6L366.4,45.5z M356.8,43.9c1.4,2.7,1.9,3.9,2.6,6.5l-4.1,1.2c-0.5-2.2-1.2-4.2-2.4-6.6L356.8,43.9z"/>
	<path class="st7" d="M382.3,39.4c-0.1,0.2-0.2,0.3-0.3,0.7c-0.1,0.1-0.1,0.2-0.2,0.4c-0.1,0.3-0.2,0.4-0.2,0.6
		c-0.3,0.8-0.3,0.8-0.5,1.1l6.6-0.1c1,0,1.3-0.1,2-0.3l2.2,2.2c-0.3,0.5-0.4,0.7-0.8,1.9c-1.4,4.4-3.2,7.8-5.5,10.5
		c-2.4,2.8-5.4,4.8-9.7,6.8c-0.9-1.7-1.7-2.7-3.2-4c3.8-1.4,6.5-3.1,8.8-5.4c2-2,3.4-4.5,4.4-7.5l-7,0.1c-1.7,2.7-3.5,4.7-6,6.6
		c-1.4-1.5-2-2.1-3.8-3.2c3.2-2.3,5.3-4.7,7-8.1c0.7-1.4,1-2.3,1.1-3.2L382.3,39.4z"/>
	<path class="st7" d="M402.2,52.1c-1.6,1.2-2.4,2.3-2.4,3.3c0,1.4,1.7,2,5.7,2c3.1,0,6.9-0.5,8.7-1.2l0.3,5.1c-0.5,0-0.7,0-1.1,0.1
		c-0.2,0-0.4,0.1-0.8,0.1l-0.7,0.1c-2.2,0.3-4.4,0.4-6.6,0.4c-3,0-5.1-0.3-6.7-1c-2.4-1-3.5-2.6-3.5-4.8c0-2.4,1.2-4.3,3.8-6.4
		L402.2,52.1z M396.8,40.1c1.7,0.5,5,0.7,8.8,0.7c3.4,0,6-0.2,7.4-0.5l0.1,4.1c-1.7,0.8-5.5,3.2-7.4,4.7l-3.3-2.2
		c0.6-0.4,0.9-0.6,1.3-0.8l0.9-0.5c0.2-0.1,0.4-0.2,0.4-0.2l0.3-0.1c0.1,0,0.2-0.1,0.3-0.2c-0.9,0.1-1.3,0.1-2.2,0.1
		c-2,0-3.3-0.1-6-0.3c-0.5-0.1-0.6-0.1-0.9-0.1L396.8,40.1z M411.6,46.8c1.1,1.2,1.9,2.4,2.6,3.8l-2.4,1.3c-0.9-1.7-1.5-2.6-2.6-3.9
		L411.6,46.8z M415,45.1c1,1.1,1.7,2.1,2.6,3.7l-2.4,1.3c-0.9-1.7-1.6-2.7-2.6-3.8L415,45.1z"/>
	<path class="st7" d="M427.1,62.4c-0.2-0.7-0.3-0.9-0.5-1.5c-2.1,0.7-3.2,1-6.1,1.7c-0.4,0.1-0.7,0.2-1.3,0.4l-0.8-4
		c0.5,0,0.7,0,1.5-0.1V47.7c0-0.3,0-0.5,0-0.9c-0.3,0.2-0.5,0.3-0.8,0.6c-0.3-2-0.5-2.7-1-4.2c2.2-1.2,4-2.9,4.9-4.6h4
		c0.7,1.4,2.1,2.8,3.7,3.8v-0.7c0-1.2,0-1.4-0.1-2.5c1,0.1,1.8,0.2,3,0.2h6.6c1.3,0,2.3-0.1,3.3-0.2v4.1c-1-0.1-1.9-0.1-3.1-0.1
		h-5.7v2.2h4.1c1.5,0,2.3,0,3-0.1l1.5,1.5c-0.2,0.4-0.2,0.7-0.5,1.9c-0.6,3.3-1.3,5.6-2.5,7.9c1.2,1.2,2.2,1.9,3.8,2.8
		c-0.9,1.5-1.3,2.3-1.9,4.1c-1.7-1.2-2.8-2.1-4-3.6c-1.2,1.5-2,2.4-3.7,3.8c-0.7-1.4-1-2-1.8-3c-0.5,1.3-0.7,1.8-1.4,3
		c-0.8-1.1-1.2-1.6-2-2.3L427.1,62.4z M423.4,44.6c0-0.3,0-0.5-0.1-0.8c-0.6,0.7-1,1-1.7,1.6h1.7V44.6z M426.2,43.6
		c-0.5-0.6-0.7-0.8-1.3-1.6c-0.5,0.7-0.7,1-1.3,1.6H426.2z M425.8,49.2v-1h-2.2v1H425.8z M423.7,52.6h2.2v-1h-2.2V52.6z M423.7,55.4
		v2.8c0.9-0.2,0.9-0.2,1.8-0.4c-0.2-0.4-0.3-0.7-0.6-1.3l2.9-1.1H423.7z M427.4,45.5c0.4,0,0.6,0,0.9,0c-0.6-0.4-1.2-1-1.8-1.6
		c-0.1,0.4-0.1,0.5-0.1,0.8v0.8H427.4z M429.5,53.5c0,1.1,0,1.4,0.1,2c-0.7,0-0.7,0-1.5-0.1c0.7,1.4,0.9,1.9,1.2,2.7
		c0.9-2.5,1.3-6.3,1.3-11.6c0-0.4,0-1.6-0.1-3.4c-0.7,0.8-1.1,1.4-1.7,2.4c0.3,0,0.6-0.1,0.7-0.1c-0.1,0.6-0.1,1-0.1,2V53.5z
		 M432.9,59.5c1.1-0.9,1.9-1.7,2.8-2.8c-0.7-1.3-1.2-2.4-1.6-3.9C433.8,55.6,433.5,57.5,432.9,59.5z M436.2,49.1
		c0.3,1.5,0.7,2.8,1.4,4.2c0.6-1.4,0.8-2.4,1.1-4.2H436.2z"/>
</g>
<g class="st6">
	<path class="st7" d="M331.2,114.3v2.1h-7v2.8c0,2-0.8,2.5-5,2.5c-0.1-0.6-0.5-1.5-0.9-2.1c0.8,0,1.7,0.1,2.4,0.1
		c1.2,0,1.4,0,1.4-0.5v-2.8h-6.9v-2.1h6.9v-1.9h-5.7v-2h5.7v-2c-1.7,0.2-3.6,0.3-5.2,0.4c-0.1-0.5-0.3-1.4-0.5-1.8
		c4.2-0.2,8.9-0.7,11.8-1.6l1.6,1.8c-0.1,0.1-0.1,0.1-0.5,0.1c-1.3,0.3-2.9,0.6-4.6,0.9c-0.1,0-0.2,0.1-0.3,0.1v2.2h5.9v2h-5.9v1.9
		H331.2z"/>
	<path class="st7" d="M347.1,105.9l1.3,0.5c0,0.1-0.1,0.2-0.2,0.3c-0.5,1.8-1.4,3.3-2.6,4.5c1,0.6,2.1,1.1,3.4,1.4
		c-0.4,0.4-1,1.2-1.3,1.7c-1.4-0.4-2.6-1-3.6-1.8c-1.1,0.8-2.3,1.4-3.6,1.8c-0.2-0.4-0.6-1-0.9-1.5v3h-2.5v1h2.9v1.8h-2.9v2.8h-1.9
		v-2.8h-2.9V117h2.9v-1h-2.4v-6.4h2.4v-0.9h-2.8v-1.8h2.8v-1.7l2.3,0.1c0,0.2-0.1,0.2-0.4,0.3v1.2h2.7v1.8h-2.7v0.9h2.5v3.1
		c1.1-0.3,2.2-0.8,3.2-1.5c-0.7-0.9-1.3-1.9-1.8-3l1.4-0.4h-2.1V106h6.5L347.1,105.9z M334.4,111.1v1h1.1v-1H334.4z M334.4,113.5v1
		h1.1v-1H334.4z M338,112.1v-1h-1.1v1H338z M338,114.5v-1h-1.1v1H338z M345.3,117.2v2.2h3.5v1.8h-9.1v-1.8h3.6v-2.2h-2.7v-1.8h2.7
		v-1.9l2.5,0.1c0,0.2-0.1,0.3-0.5,0.3v1.5h2.7v1.8H345.3z M342.7,107.8c0.3,0.8,0.8,1.5,1.4,2.2c0.6-0.6,1.1-1.4,1.5-2.2H342.7z"/>
	<path class="st7" d="M354.3,106.6c0,0.2-0.2,0.3-0.5,0.3c-0.7,3.1-0.9,6.2-0.9,7.7c0,1,0,1.9,0.1,2.5c0.2-0.5,0.9-2,1.1-2.5l1,1.6
		c-0.6,1.2-1.2,2.2-1.4,3c-0.1,0.3-0.1,0.6-0.1,0.8c0,0.2,0,0.4,0.1,0.6l-2.2,0.3c-0.6-1.7-0.8-3.9-0.8-6.2c0-2.4,0.4-5.6,0.8-8.5
		L354.3,106.6z M364.7,119.6c-0.6,0-1.3,0.1-2,0.1c-1.1,0-2.2-0.1-3-0.2c-2.4-0.3-3.4-1.6-3.4-3.1c0-1.3,0.6-2.3,1.5-3.5l2.1,0.7
		c-0.8,0.8-1.3,1.6-1.3,2.4c0,1.3,1.6,1.4,3.6,1.4c0.8,0,1.7,0,2.5-0.1L364.7,119.6z M356.8,108.3c2-0.1,5.3-0.3,7.4-0.6l0.2,2.2
		c-2.1,0.3-5.4,0.6-7.5,0.6L356.8,108.3z"/>
	<path class="st7" d="M366.2,113.2c0.6-1,0.8-2.8,0.8-4.3c0.6,0.1,1,0.1,1.5,0.2c0,1.7-0.2,3.6-0.8,4.8L366.2,113.2z M370.9,112.1
		c0,1-0.1,2-0.2,2.9c0.7,0.7,2.2,2.6,2.6,3.1l-1.4,1.4c-0.4-0.6-1-1.6-1.7-2.4c-0.5,1.6-1.3,3.2-2.6,4.5c-0.3-0.5-1-1.2-1.4-1.5
		c2.5-2.4,2.8-5.8,2.8-8.9v-6c0.9,0.1,1.6,0.1,2.4,0.1c0,0.2-0.2,0.3-0.5,0.3v5.4c0.4-0.9,0.8-2,1-2.9l2,0.9
		c-0.1,0.1-0.2,0.2-0.5,0.2c-0.4,1-1.1,2.4-1.7,3.3L370.9,112.1z M378.8,110.4v2.2c0,1.7,0.8,5.3,4.1,7.2c-0.4,0.5-1,1.3-1.3,1.8
		c-2.4-1.4-3.6-4.3-3.8-5.7h0c-0.3,1.5-1.5,4.3-4.1,5.7c-0.2-0.5-0.8-1.4-1.2-1.8c3.4-1.9,4.3-5.6,4.3-7.3v-2.2h-0.6
		c-0.4,1.4-1,2.6-1.7,3.6c-0.4-0.3-1.2-0.9-1.7-1.1c1.2-1.6,2-4.6,2.4-7.6l2.4,0.5c0,0.1-0.2,0.2-0.4,0.2c-0.1,0.8-0.3,1.7-0.5,2.5
		h4.7l1.3,0.1c-0.3,1.9-0.7,3.8-1.4,5.6l-1.7-0.7c0.2-0.8,0.5-1.9,0.6-3H378.8z"/>
	<path class="st7" d="M398.2,112.1c-1.2,0.4-3,0.7-4.8,0.9c0.5,0.8,1.5,1.7,2.6,2.2l-1.2,1.7c-0.9-0.5-1.3-0.7-2.7-0.7
		c-0.3,0-0.6,0-1,0.1l-0.5-1.6c0.2,0,0.5,0,0.8,0s0.6,0,0.8,0c-0.3-0.3-0.7-0.8-0.9-1.4c-1.3,0.1-2.6,0.1-3.7,0.1
		c-0.9,0-2.1,0-3.2,0l0-1.8c0.7,0,1.5,0,2.3,0c1.3,0,2.7,0,4-0.1c-0.1-0.4-0.3-1.1-0.5-1.7c-0.6,0.1-1.3,0.1-2,0.1c-1,0-1.9,0-2.8,0
		l0-1.8c0.9,0.1,1.8,0.1,2.6,0.1c0.5,0,1.2,0,1.7-0.1c-0.1-0.7-0.3-1.7-0.4-2.5l2.8,0.1c0,0.2-0.2,0.4-0.5,0.4
		c0.1,0.6,0.1,1.3,0.2,1.8c1.4-0.1,3.2-0.5,4.4-0.9l0.4,1.9c-1.4,0.4-2.9,0.7-4.4,0.8c0.2,0.6,0.3,1.3,0.5,1.7
		c1.8-0.2,3.7-0.6,5.2-1.1L398.2,112.1z M395.1,120.9c-0.7,0.1-1.5,0.1-2.8,0.1c-0.4,0-0.8,0-1.3,0c-3,0-5.1-1.1-5.1-3.1
		c0-1.1,0.9-2.2,1.9-2.8l1.4,1.3c-0.7,0.4-1.1,0.9-1.1,1.3c0,1.2,2,1.3,3.2,1.3c1.2,0,2.8-0.1,3.8-0.2L395.1,120.9z"/>
	<path class="st7" d="M399.6,118.9h15.9v2.1h-15.9V118.9z M415,108.3v2.1h-14.8v-2.1h6.2v-3.1l2.7,0.1c0,0.2-0.2,0.3-0.5,0.3v2.6
		H415z M404.4,111c0.7,2.2,1.3,4.9,1.4,6.8c-0.1,0-0.1,0-2.2,0.5c-0.1-1.8-0.6-4.6-1.2-6.8L404.4,111z M413.4,111.5
		c-0.1,0.2-0.3,0.3-0.6,0.3c-0.5,2.2-1.4,5-2.2,6.8l-1.9-0.6c0.7-1.9,1.5-4.9,1.8-7.1L413.4,111.5z"/>
	<path class="st7" d="M416.8,107.3c0.5,0,1.3,0,1.8-0.1c2-0.1,9.5-0.6,12.5-0.7l0,2.4c-1.5-0.1-2.4,0.1-3.8,1.1
		c-1.9,1.3-4.3,3.7-4.3,5.7c0,2,1.8,3.1,5.6,3.5l-1.1,2.2c-4.9-0.6-6.9-2.7-6.9-5.7c0-2.1,2-4.9,4.6-6.7c-2,0.1-6.2,0.5-7.8,0.7
		c0,0.1-0.3,0.3-0.4,0.3L416.8,107.3z"/>
	<path class="st7" d="M441.7,109.3c-0.1,0.2-0.3,0.3-0.5,0.3c-0.7,6-2.5,9.4-5.4,9.4c-1.9,0-3.3-1.6-3.3-4.6c0-4.5,3.6-7.7,8-7.7
		c4.9,0,7.5,2.9,7.5,6.7c0,4.1-2.1,6.2-6.5,7.3c-0.3-0.5-0.8-1.3-1.4-1.8c4-0.8,5.6-2.7,5.6-5.4c0-2.8-2-4.7-5.2-4.7
		c-0.3,0-0.6,0-0.9,0.1L441.7,109.3z M438.9,109c-2.6,0.6-4.3,2.9-4.3,5.4c0,1.5,0.4,2.5,1.2,2.5C437.5,116.9,438.6,113.1,438.9,109
		z"/>
	<path class="st7" d="M291.5,141.5h-3.6v1.5h-2V132h5.6V141.5z M289.5,133.9h-1.6v5.7h1.6V133.9z M301.5,139.4h-3.1
		c0.9,1.8,2.2,3.6,3.6,4.6c-0.5,0.4-1.1,1.1-1.5,1.6c-1.1-1-2.2-2.6-3-4.3v5.3h-2.1v-4.9c-1.2,1.7-2.6,3.2-4.3,4.2
		c-0.3-0.5-1-1.3-1.4-1.7c2-1,3.9-2.8,5-4.8h-2.9v-2h3.6v-2.3h-3.3v-2h3.3v-2.8l2.6,0.1c0,0.2-0.1,0.3-0.5,0.3v2.3h3.5v2h-3.5v2.3
		h3.9V139.4z"/>
	<path class="st7" d="M310.1,131.1c0,0.2-0.3,0.3-0.6,0.4c-0.2,0.9-0.4,2.4-0.6,3.4c0.5-0.1,1.1-0.1,1.4-0.1c2.9,0,3.8,2,3.8,4.7v0
		c-0.1,3.8-1.1,6.6-3.8,6.6c-0.7,0-1.7-0.3-3.1-1.4c0.3-0.5,0.6-1.3,0.7-1.9c1.2,0.8,1.9,1,2.3,1c0.7,0,1.1-0.6,1.4-1.6
		c0.2-0.8,0.4-2.2,0.4-2.9c0-1.7-0.5-2.6-1.8-2.6c-0.4,0-1,0-1.7,0.1c-0.8,3.2-1.7,6.3-3.2,9.1l-2-1c1.4-2.6,2.3-5,3-7.9
		c-0.6,0.1-1.9,0.3-2.6,0.4l-0.2-2.2l3.2-0.4c0.2-1.3,0.5-2.7,0.6-4.2L310.1,131.1z M314.5,133.6c-0.4-0.7-1.3-1.9-2-2.4l1-0.7
		c0.8,0.6,1.7,1.7,2.1,2.4L314.5,133.6z M316.8,140.6c-0.4-2.2-1.5-4.5-2.9-5.7l1.8-1.1c1.6,1.5,2.9,3.8,3.3,6.1L316.8,140.6z
		 M317.2,132.9c-0.4-0.7-1.3-1.9-2-2.4l1-0.7c0.8,0.6,1.7,1.7,2.1,2.4L317.2,132.9z"/>
	<path class="st7" d="M336.2,142h-5.1c1.5,1.1,3.6,2.1,5.5,2.6c-0.5,0.4-1.1,1.2-1.4,1.8c-2.1-0.7-4.2-2-5.8-3.4v3.7h-2.1v-3.7
		c-1.6,1.5-3.7,2.9-5.8,3.6c-0.3-0.5-1-1.3-1.4-1.7c2-0.6,4-1.6,5.5-2.8h-5v-1.8h6.7V139h-2.3v-7.1h2c0.2-0.6,0.3-1.2,0.4-1.7
		l2.5,0.5c-0.1,0.1-0.2,0.2-0.5,0.2c-0.1,0.3-0.2,0.7-0.4,1h2.8v1.8c0.8-0.7,1.9-1.8,2.5-2.7l2,1.3c-0.1,0.1-0.2,0.1-0.3,0.1
		c-0.1,0-0.1,0-0.2,0c-0.7,0.8-1.8,1.8-2.6,2.5l-1.4-1v2.2l0.8-0.9c1.3,0.7,3.1,1.7,4,2.4l-1.3,1.6c-0.8-0.7-2.3-1.7-3.5-2.4v2.1
		h-1.9c0,0.2-0.2,0.3-0.5,0.3v0.9h6.8V142z M320.2,137.6c1.1-0.5,2.6-1.3,4.1-2.1l0.6,1.7c-1.2,0.7-2.5,1.5-3.3,2
		c0,0.2-0.1,0.3-0.2,0.4L320.2,137.6z M321.9,131.3c1,0.7,2.2,1.8,2.8,2.6l-1.5,1.3c-0.5-0.8-1.7-2-2.7-2.8L321.9,131.3z
		 M329.7,134.7v-1.2h-2.9v1.2H329.7z M326.9,136.2v1.2h2.9v-1.2H326.9z"/>
	<path class="st7" d="M342.1,131.1c0,0.2-0.2,0.3-0.5,0.4c-0.2,2.3-0.3,6.4-0.3,8.9c0,2.2,1.1,3.3,3,3.3c1.7,0,3.6-0.9,5.6-2.9
		c0.3,0.5,0.9,1.6,1.3,2c-2.2,2.2-4.5,3.2-6.9,3.2c-3.9,0-5.4-2.1-5.4-5.5c0-2.3,0.1-7.4,0.2-9.5L342.1,131.1z"/>
	<path class="st7" d="M364.2,131.3c-0.1,0.2-0.2,0.3-0.4,0.3c-0.2,1.1-0.5,2.2-0.7,3.2c2.5,0.7,4.2,2.7,4.2,5.6
		c0,3.1-2.1,5.1-6.4,5.8c-0.3-0.6-0.7-1.4-1-1.9c3.3-0.5,5.2-1.6,5.2-3.9c0-1.7-1-3-2.5-3.6c-0.8,2.2-1.7,3.9-2.7,5.2
		c0.2,0.2,0.4,0.4,0.6,0.6l-1.5,1.5c-0.2-0.2-0.4-0.4-0.6-0.6c-1.1,0.9-2.3,1.4-3.4,1.4c-1.8,0-2.9-1.5-2.9-3.5c0-2.4,1.2-4.3,3-5.5
		c-0.3-1.3-0.6-2.7-0.8-4.1l2.6-0.1c0,0.2-0.1,0.3-0.4,0.4c0.1,1,0.3,2,0.5,2.9c0.3-0.1,1.6-0.7,3.7-0.7c0.1,0,0.3,0,0.4,0
		c0.2-1.1,0.5-2.4,0.6-3.7L364.2,131.3z M357.1,141.9c-0.6-1.1-1.2-2.4-1.6-3.9c-1.4,1.2-1.5,2.7-1.5,3.2c0,0.9,0.4,1.6,1.1,1.6
		C355.8,142.8,356.5,142.4,357.1,141.9z M358.5,140.2c0.7-1,1.3-2.2,1.8-3.9c-0.1,0-0.3,0-0.4,0c-0.9,0-1.9,0.2-2.7,0.6
		C357.5,138.1,357.9,139.2,358.5,140.2z"/>
	<path class="st7" d="M374.3,137.5c1-0.4,2.3-0.6,3.3-0.6c2.6,0,4.5,1.6,4.5,4.4c0,3.1-2.7,4.9-6.5,4.9c-2.2,0-3.8-1-3.8-2.8
		c0-1.4,1.4-2.6,3.1-2.6c1.8,0,3.2,1.2,3.5,2.8c0.9-0.4,1.4-1.2,1.4-2.3c0-1.5-1.2-2.5-3-2.5c-2.4,0-4.6,1-5.8,2.2
		c-0.4,0.4-1.1,1.1-1.6,1.6l-1.5-1.5c1.2-1.2,5.6-5.4,8-7.6c-0.9,0.1-3.9,0.3-5.3,0.4c-0.1,0.1-0.3,0.2-0.4,0.3l-0.2-2.5
		c2.2,0,7.1-0.2,8.3-0.4l0.3-0.1l1.4,1.8c-0.1,0.1-0.3,0.2-0.5,0.2C378.5,133.7,375.7,136.2,374.3,137.5L374.3,137.5z M375.2,144.2
		c0.3,0,0.8-0.1,1.1-0.1c-0.1-0.9-0.9-1.6-1.6-1.6c-0.6,0-1.1,0.3-1.1,0.8C373.5,144.2,374.6,144.2,375.2,144.2z"/>
	<path class="st7" d="M390.1,133.8c-0.1,0.2-0.2,0.3-0.5,0.3c-0.6,4.1-2,8.4-4,11.1c-0.6-0.4-1.4-0.9-2.1-1.1
		c2-2.5,3.3-6.5,3.8-10.8L390.1,133.8z M397.3,145.1c-0.8-2.8-2.6-7.6-4.3-11l2.1-1c1.7,3.2,3.6,7.9,4.5,11L397.3,145.1z
		 M398.1,130.1c1,0,1.9,0.8,1.9,1.9c0,1-0.8,1.9-1.9,1.9c-1,0-1.9-0.9-1.9-1.9C396.2,130.9,397.1,130.1,398.1,130.1z M399.3,132
		c0-0.7-0.6-1.3-1.2-1.3c-0.7,0-1.2,0.6-1.2,1.3c0,0.7,0.6,1.2,1.2,1.2C398.8,133.2,399.3,132.6,399.3,132z"/>
	<path class="st7" d="M403.3,135.4c0.5,1,1,2.6,1.2,3.7l-1.7,0.5c-0.2-1.1-0.7-2.6-1.2-3.7L403.3,135.4z M413.4,135.8
		c-0.1,0.1-0.2,0.2-0.4,0.2c-1.4,5.1-4.1,8.2-8.1,9.8c-0.2-0.3-0.8-1-1.2-1.4c3.7-1.4,6.3-4.2,7.5-9.3L413.4,135.8z M407.5,134.6
		c0.4,1.1,0.7,2.7,0.8,3.8l-1.8,0.4c-0.1-1.1-0.5-2.7-0.9-3.8L407.5,134.6z"/>
	<path class="st7" d="M428.1,134.3c-0.1,0.1-0.2,0.2-0.4,0.3c-2,5.7-4.7,9.1-9.4,11.5c-0.4-0.5-1-1.2-1.6-1.7c4.4-2,6.9-5.1,8.2-9
		h-5.1c-0.9,1.3-2.3,2.9-3.7,4c-0.4-0.4-1.2-1.1-1.8-1.4c2.3-1.7,4.4-4.5,5.5-7.4l2.8,0.6c-0.1,0.2-0.3,0.3-0.6,0.3
		c-0.3,0.6-0.6,1.2-0.9,1.8h5l0.3-0.2L428.1,134.3z"/>
	<path class="st7" d="M441.6,145c-1.4,0.2-3.4,0.3-5.2,0.3c-1.5,0-2.9-0.1-3.6-0.2c-2.2-0.5-3.2-2-3.2-3.6c0-1.4,0.7-2.7,1.6-3.7
		l1.9,0.8c-0.8,0.8-1.3,1.7-1.3,2.4c0,2.1,2.5,2.1,4.3,2.1c1.7,0,3.8-0.2,5.4-0.5L441.6,145z M433.1,135.9c0.6-0.5,1.5-1.1,2.2-1.5
		v0c-0.9,0.1-3.4,0.2-4.8,0.2c0-0.5,0-1.7-0.1-2.1c0.3,0,0.7,0,1.2,0c3.2,0,6.3-0.1,8.9-0.5l0.2,2.2c-2.5,0.4-4.6,1.9-5.7,2.7
		L433.1,135.9z M441.3,138.9c-0.4-0.6-1.5-1.7-2.1-2.3l0.9-0.8c0.7,0.6,1.7,1.5,2.2,2.2L441.3,138.9z M443.2,137.1
		c-0.4-0.6-1.4-1.7-2.1-2.2l0.9-0.8c0.8,0.6,1.7,1.5,2.2,2.2L443.2,137.1z"/>
	<path class="st7" d="M459.7,135.5l1.2,0.5c0,0.1-0.1,0.2-0.2,0.3c-0.4,2.5-1.2,4.7-2.2,6.5c0.8,0.9,1.7,1.7,2.8,2.2
		c-0.5,0.4-1.1,1.1-1.4,1.7c-1-0.6-1.8-1.3-2.6-2.2c-0.7,0.9-1.5,1.6-2.4,2.1c-0.2-0.5-0.9-1.2-1.3-1.6c-0.2,0.5-0.5,1.1-0.8,1.5
		c-0.3-0.3-0.9-0.7-1.3-1l-1.1,0.5c-0.1-0.3-0.2-0.6-0.3-1c-1.7,0.4-3.3,0.8-4.4,1c0,0.2-0.1,0.3-0.3,0.3l-0.8-2.1
		c0.4-0.1,0.8-0.1,1.2-0.2v-8.2l-0.1,0.1c-0.3-0.4-1-1-1.4-1.3c1.6-1.3,2.8-3,3.4-4.4l2.3,0.4c0,0.1-0.1,0.2-0.3,0.2
		c1,0.7,2.3,1.8,2.9,2.5l-1.3,1.4c-0.5-0.7-1.6-1.6-2.6-2.4c-0.6,0.9-1.2,1.8-2.1,2.7h1.3v-1.4l2.2,0.1c0,0.2-0.1,0.3-0.4,0.3v1h2.1
		v6h-4.2v2.7l1.8-0.3c-0.2-0.5-0.4-1-0.6-1.4l1.7-0.6c0.5,0.9,1,2,1.3,2.9c1-2.2,1.1-5,1.1-7.2v-6h8.1v1.9h-6.1v2.6h4.5L459.7,135.5
		z M450.1,136.4h-2.3v0.8h2.3V136.4z M447.7,139.5h2.3v-0.9h-2.3V139.5z M454.8,139.8c-0.1,1.7-0.4,3.6-1.1,5.2
		c0.9-0.5,1.8-1.3,2.5-2.1C455.7,141.9,455.2,140.9,454.8,139.8L454.8,139.8z M454.9,137.5l0,0.6l1.1-0.3c0.3,1.2,0.7,2.3,1.3,3.3
		c0.5-1,1-2.2,1.3-3.6H454.9z"/>
	<path class="st7" d="M463.4,145.6c-0.5-1.3-0.7-4.3-0.7-6.7c0-2.5,0.4-5.2,0.9-7.9l2.7,0.5c0,0.2-0.3,0.3-0.5,0.3
		c-1.1,3.8-1.1,6.5-1.1,8.5c0,0.6,0,1.1,0.1,1.4c0.2-0.7,0.8-2.1,1.1-2.8l1.1,1.4c-0.5,0.9-1.1,2.3-1.4,3.3
		c-0.1,0.3-0.2,0.6-0.2,0.9c0,0.2,0,0.5,0.1,0.7L463.4,145.6z M468,134.9c1.3,0.1,2.6,0,3.8-0.1c-0.1-1.4-0.1-2.5-0.1-3.8l2.8,0.1
		c0,0.2-0.2,0.3-0.4,0.4l0,3.2c1.2-0.1,2.2-0.3,3-0.6l0.2,2.1c-0.8,0.2-1.9,0.4-3.1,0.5c0.1,1.6,0.1,3.2,0.2,4.3
		c1.2,0.5,2.4,1.2,3.2,2l-1.1,2.1c-0.6-0.6-1.3-1.2-2-1.7c-0.2,2.2-1.8,2.6-3.3,2.6c-2.1,0-3.4-1.2-3.4-2.8c0-1.8,1.7-2.8,3.5-2.8
		c0.3,0,0.7,0,1,0.1c-0.1-0.9-0.1-2.3-0.2-3.6c-0.5,0-1.1,0.1-1.5,0.1H468L468,134.9z M472.3,142.3c-0.3-0.1-0.8-0.2-1.2-0.2
		c-0.9,0-1.7,0.3-1.7,1c0,0.7,0.7,1,1.6,1c0.9,0,1.3-0.5,1.3-1.3C472.3,142.7,472.3,142.5,472.3,142.3z"/>
	<path class="st7" d="M310.1,160v1.8h-9.5v2.1c0,2.3-0.3,5.6-1.8,7.8c-0.3-0.3-1-1-1.5-1.3v1.2h-2v-8.6c-0.4,0.6-0.8,1.2-1.2,1.7
		c-0.2-0.5-0.6-1.7-0.9-2.2c1.3-1.6,2.6-4.5,3.4-7.3l2.3,0.7c-0.1,0.2-0.2,0.2-0.5,0.2c-0.4,1.1-0.8,2.2-1.3,3.2l0.5,0.2
		c0,0.2-0.2,0.3-0.5,0.3v10.4c1.2-1.9,1.3-4.5,1.3-6.4V160H310.1z M298.6,156.6h2.5v-1.3l2.4,0.1c0,0.2-0.1,0.3-0.5,0.3v0.8h2.6
		v-1.3l2.4,0.1c0,0.2-0.1,0.3-0.5,0.3v0.8h2.4v1.8h-2.4v1.2h-1.9v-1.2h-2.6v1.2h-1.9v-1.2h-2.5V156.6z M309.7,162.9v7.1
		c0,1.4-0.6,1.7-2.6,1.7c-0.1-0.4-0.3-1.1-0.5-1.5c0.5,0,0.9,0,1.1,0c0.2,0,0.2-0.1,0.2-0.2v-0.9h-1.6v2.5h-1.7v-2.5H303v2.6h-1.8
		v-8.8H309.7z M304.6,164.4H303v1h1.5V164.4z M303,167.7h1.5v-1H303V167.7z M307.8,164.4h-1.6v1h1.6V164.4z M306.2,167.7h1.6v-1
		h-1.6V167.7z"/>
	<path class="st7" d="M322.9,161.9c-0.1,0.1-0.3,0.2-0.5,0.1c-0.7,0.5-1.6,1-2.5,1.6c1.2,0,2.4,0,3.6,0c-0.4-0.3-0.8-0.6-1.2-0.8
		l1.6-0.9c1.3,0.8,2.9,2,3.7,2.9l-1.6,1c-0.2-0.2-0.5-0.5-0.7-0.8c-4.8,0.2-9.8,0.3-13.1,0.4c0,0.2-0.2,0.3-0.3,0.3l-0.7-2
		c1.2,0,2.8,0,4.6,0c-0.8-0.4-1.6-0.8-2.4-1.1c0.5-0.4,0.9-0.8,1.3-1.1c0.3,0.1,0.6,0.2,0.9,0.4c0.3-0.2,0.6-0.5,0.8-0.7h-4.7v-1.7
		h6.6v-1l2.5,0.1c0,0.2-0.1,0.3-0.5,0.3v0.5h6.7v1.7h-5.7L322.9,161.9z M315.2,158.8v-0.7h-3.7v-1.7h3.7v-1.2l2.5,0.1
		c0,0.2-0.1,0.3-0.5,0.3v0.8h4v-1.2l2.5,0.1c0,0.2-0.1,0.3-0.5,0.3v0.8h3.8v1.7h-3.8v0.7h-2v-0.7h-4v0.7H315.2z M313.2,171.7v-5.8
		h12.2v5.8h-2.1v-0.5h-8.1v0.5H313.2z M318.3,167.2h-3.2v0.7h3.2V167.2z M315.2,169.8h3.2v-0.8h-3.2V169.8z M318.9,161.1l0.2,0.1
		c-0.1,0.1-0.2,0.2-0.5,0.1c-0.4,0.3-1,0.7-1.6,1.1c0.4,0.2,0.7,0.4,1,0.6c1-0.6,2.1-1.3,2.8-2H318.9z M323.3,167.9v-0.7h-3.1v0.7
		H323.3z M320.2,169.8h3.1v-0.8h-3.1V169.8z"/>
	<path class="st7" d="M333.1,156.6c0,0.2-0.2,0.3-0.5,0.3c-0.7,3.1-0.9,6.2-0.9,7.7c0,1,0,1.9,0.1,2.5c0.2-0.5,0.9-2,1.1-2.5l1,1.6
		c-0.6,1.2-1.2,2.2-1.4,3c-0.1,0.3-0.1,0.6-0.1,0.8c0,0.2,0,0.4,0.1,0.6l-2.2,0.3c-0.6-1.7-0.8-3.9-0.8-6.2c0-2.4,0.4-5.6,0.8-8.5
		L333.1,156.6z M343.5,169.6c-0.6,0-1.3,0.1-2,0.1c-1.1,0-2.2-0.1-3-0.2c-2.4-0.3-3.4-1.6-3.4-3.1c0-1.3,0.6-2.3,1.5-3.5l2.1,0.7
		c-0.8,0.8-1.3,1.6-1.3,2.4c0,1.3,1.6,1.4,3.6,1.4c0.8,0,1.7,0,2.5-0.1L343.5,169.6z M335.5,158.3c2-0.1,5.3-0.3,7.4-0.6l0.2,2.2
		c-2.1,0.3-5.4,0.6-7.5,0.6L335.5,158.3z"/>
	<path class="st7" d="M354.9,160.1c-0.1,0.1-0.2,0.2-0.4,0.2v1.8c0,2.2,1.5,5.8,6.9,7.5c-0.5,0.5-1.1,1.5-1.5,2
		c-4.1-1.4-6.2-4.5-6.7-6.2c-0.5,1.6-2.6,4.7-6.7,6.2c-0.3-0.5-1-1.4-1.4-1.9c5.3-1.6,6.9-5.4,6.9-7.6v-2h-2.5
		c-0.7,1.6-1.6,3-2.5,4.1c-0.5-0.4-1.3-1-1.9-1.3c1.6-1.7,3-4.8,3.7-7.9l2.7,0.7c-0.1,0.1-0.2,0.2-0.5,0.2c-0.2,0.7-0.4,1.4-0.7,2.1
		h8.9l0.4,0l1.5,0.2c-0.1,0.6-1,3.8-2.5,6.3l-1.9-0.8c0.5-0.9,1-2.2,1.4-3.6H354.9z"/>
	<path class="st7" d="M369.8,156.1c0,0.2-0.3,0.3-0.6,0.4c-0.2,0.9-0.4,2.4-0.6,3.4c0.5-0.1,1.1-0.1,1.4-0.1c2.9,0,3.8,2,3.8,4.7v0
		c-0.1,3.8-1.1,6.6-3.8,6.6c-0.7,0-1.7-0.3-3.1-1.4c0.3-0.5,0.6-1.3,0.7-1.9c1.2,0.8,1.9,1,2.3,1c0.7,0,1.1-0.6,1.4-1.6
		c0.2-0.8,0.4-2.2,0.4-2.9c0-1.7-0.5-2.6-1.8-2.6c-0.4,0-1,0-1.7,0.1c-0.8,3.2-1.7,6.3-3.2,9.1l-2-1c1.4-2.6,2.3-5,3-7.9
		c-0.6,0.1-1.9,0.3-2.6,0.4l-0.2-2.2l3.2-0.4c0.2-1.3,0.5-2.7,0.6-4.2L369.8,156.1z M376.6,164.7c-0.4-2.3-2-4.5-3.4-5.8l1.7-1.2
		c1.8,1.3,3.6,3.9,4,6.1L376.6,164.7z"/>
	<path class="st7" d="M395.6,161.4c-0.9,0.1-2.2,0.2-3.5,0.4c0,1.4,0,2.7-0.2,3.5c-0.3,1.1-1.1,1.8-2.4,1.8c-0.4,0-1.4-0.1-2.5-0.7
		c0.1-0.4,0.2-1.2,0.2-1.8c0.7,0.4,1.5,0.6,1.8,0.6c0.4,0,0.7-0.3,0.8-0.6c0.1-0.5,0.1-1.5,0.1-2.5c-1.6,0.3-3.3,0.5-4.5,0.8
		c0,1.6,0.1,3.1,0.1,3.9c0.1,1.6,0.8,2.1,2.5,2.2c0.3,0,0.6,0,1,0c1.3,0,3.3-0.1,4.6-0.3l0.1,2c-1.4,0.2-3,0.2-4.4,0.2
		c-2.9,0-5.5-0.2-5.8-4c-0.1-0.8-0.1-2.2-0.2-3.6c-1,0.2-2.4,0.5-3.1,0.6l-0.3-2.1c0.8-0.1,2.2-0.3,3.4-0.6c0-1.5,0-3.2,0-4.3
		l2.8,0.2c0,0.2-0.2,0.3-0.5,0.4c-0.1,0.9,0,2.2-0.1,3.3c1.3-0.2,2.9-0.5,4.5-0.7c-0.1-1.4-0.1-3.1-0.2-4.3l2.7,0.1
		c0,0.2-0.1,0.3-0.4,0.4c0.1,1,0.1,2.3,0.1,3.5c1.2-0.2,2.5-0.4,3.4-0.5L395.6,161.4z"/>
	<path class="st7" d="M397,157.7c1.1,0.1,2.7,0.1,4,0.1c0.6,0,1.1,0,1.7,0c0-0.7,0-1.6,0-2.1l2.7,0.1c0,0.2-0.2,0.3-0.5,0.4v1.6
		c1.8-0.1,3.6-0.2,5.3-0.6l0.2,2c-1.6,0.3-3.4,0.4-5.5,0.5c0,0.8,0,1.6,0,2.4c1.6-0.1,3.3-0.3,4.4-0.6l0.2,1.9
		c-1.1,0.2-2.9,0.4-4.5,0.5c0,0.9,0.1,1.6,0.1,2.3c1.6,0.5,3.2,1.4,4.7,2.5l-1.3,1.9c-1.1-1-2.2-1.7-3.3-2.2v0.5
		c0,1.4-1.2,2.4-3.6,2.4c-2.3,0-3.9-1.1-3.9-2.8c0-1.8,1.9-2.8,4-2.8c0.4,0,0.9,0,1.3,0.1c0-0.5,0-1.1-0.1-1.7c-0.5,0-1,0-1.4,0
		c-2.4,0-3.8-0.4-3.8-1.7c0-0.7,0.5-1.4,1.8-2.2l1.5,0.8c-0.6,0.3-1.1,0.6-1.1,0.9c0,0.3,0.2,0.4,2,0.4c0.3,0,0.6,0,0.9,0l-0.1-2.5
		c-0.5,0-1.1,0-1.7,0c-1.2,0-3,0-4,0V157.7z M403.1,167.4c-0.5-0.1-1.1-0.2-1.5-0.2c-1.1,0-1.9,0.5-1.9,1.1c0,0.7,0.9,1.1,2,1.1
		c1,0,1.5-0.4,1.5-1.3L403.1,167.4z"/>
	<path class="st7" d="M427.5,161.4c-0.9,0.1-2.2,0.2-3.5,0.4c0,1.4,0,2.7-0.2,3.5c-0.3,1.1-1.1,1.8-2.4,1.8c-0.4,0-1.4-0.1-2.5-0.7
		c0.1-0.4,0.2-1.2,0.2-1.8c0.7,0.4,1.5,0.6,1.8,0.6c0.4,0,0.7-0.3,0.8-0.6c0.1-0.5,0.1-1.5,0.1-2.5c-1.6,0.3-3.3,0.5-4.5,0.8
		c0,1.6,0.1,3.1,0.1,3.9c0.1,1.6,0.8,2.1,2.5,2.2c0.3,0,0.6,0,1,0c1.3,0,3.3-0.1,4.6-0.3l0.1,2c-1.4,0.2-3,0.2-4.4,0.2
		c-2.9,0-5.5-0.2-5.8-4c-0.1-0.8-0.1-2.2-0.2-3.6c-1,0.2-2.4,0.5-3.1,0.6l-0.3-2.1c0.8-0.1,2.2-0.3,3.4-0.6c0-1.5,0-3.2,0-4.3
		l2.8,0.2c0,0.2-0.2,0.3-0.5,0.4c-0.1,0.9,0,2.2-0.1,3.3c1.3-0.2,2.9-0.5,4.5-0.7c-0.1-1.4-0.1-3.1-0.2-4.3l2.7,0.1
		c0,0.2-0.1,0.3-0.4,0.4c0.1,1,0.1,2.3,0.1,3.5c1.2-0.2,2.5-0.4,3.4-0.5L427.5,161.4z"/>
	<path class="st7" d="M428,170.2c1.1-3.2,3.3-9.5,3.8-11.2c0.4-1,0.9-2.7,1-3.2l3,0.7c-0.1,0.3-0.3,0.4-0.7,0.4
		c-0.7,1.6-2.1,5.3-2.7,7c1-0.9,2.2-1.4,3.2-1.4c1.4,0,2.3,1,2.3,2.6c0,0.3-0.1,1.9-0.1,2.2c0,1,0.4,1.4,1.1,1.4
		c1.3,0,2.3-1.5,3.1-4.4c0.6,0.5,1.4,0.9,2,1.2c-1.1,3.4-2.7,5.4-5.2,5.4c-2.1,0-3.4-1.1-3.4-3c0-0.3,0.1-1.9,0.1-2.2
		c0-0.8-0.2-1.2-0.7-1.2c-1.6,0-3.3,2.4-3.8,3.9c-0.2,0.7-0.5,1.6-0.8,2.4L428,170.2z"/>
	<path class="st7" d="M445,158.7c1.2,0,2.2,0,3.3-0.1c0-0.4,0.1-2.5,0.1-2.9l2.7,0.2c0,0.2-0.2,0.3-0.5,0.4
		c-0.1,0.7-0.1,1.4-0.2,2.1l1,0.4c-0.4,0.6-0.8,1.5-1.2,2.4c0,0.1,0,0.2,0,0.3c1.7-1.4,3.6-2.3,5.3-2.3c2.8,0,4.1,1.7,4.1,5.2
		c0,1-0.1,2-0.3,2.8c0.5,0.4,0.9,0.9,1.3,1.3l-1.3,1.9c-0.2-0.3-0.6-0.8-1-1.2c-0.8,1-1.8,1.6-3.3,1.6c-1.8,0-3-1.1-3-2.7
		c0-1.6,1.3-2.7,3-2.7c0.8,0,1.6,0.2,2.4,0.6c0.1-0.5,0.2-1,0.2-1.7c0-2-0.7-3.2-2.2-3.2c-1.4,0-3.5,1-5,2.5c0,3.8,0,6.8,0,7.6h-2.1
		v-5.8c-0.4,0.8-1.4,2.2-2.4,3.2l-1.2-2c1.3-1.2,2.8-3.1,3.6-5c0-0.4,0-0.7,0-1.1c-0.6,0.1-1.6,0.2-3.2,0.2V158.7z M456.7,167.9
		c-0.5-0.5-1.2-0.7-1.8-0.7c-0.8,0-1.3,0.4-1.3,0.9c0,0.6,0.6,1,1.3,1C455.8,169.1,456.4,168.5,456.7,167.9z"/>
	<path class="st7" d="M466.2,169.2c0,1.3-1.1,2.4-2.4,2.4s-2.4-1.1-2.4-2.4s1.1-2.4,2.4-2.4C465.2,166.8,466.2,167.9,466.2,169.2z
		 M465.4,169.2c0-0.9-0.7-1.7-1.7-1.7c-0.9,0-1.6,0.7-1.6,1.7c0,0.9,0.7,1.6,1.6,1.6C464.7,170.8,465.4,170.1,465.4,169.2z"/>
</g>
<g class="st6">
	<path class="st7" d="M316.7,200.8v1.1h-4.6v-1.1H316.7z M316.3,205.6v3.6h-2.5v0.5h-1.2v-4H316.3z M312.7,203.5v-1.1h3.6v1.1H312.7
		z M312.7,205.1v-1h3.6v1H312.7z M316.3,199.2v1.1h-3.5v-1.1H316.3z M315.1,206.7h-1.2v1.3h1.2V206.7z M323.1,205.9v1.3h-2.6v2.7
		h-1.4v-2.7h-2.6v-1.3h2.6v-1.2h-2v-1.3h2v-1.1h-2.2V201h1.1c-0.1-0.5-0.4-1.2-0.7-1.7l1.1-0.4c0.4,0.6,0.7,1.4,0.8,1.9l-0.6,0.2
		h2.2l-0.5-0.2c0.3-0.6,0.7-1.4,0.8-2l1.5,0.5c0,0.1-0.2,0.1-0.3,0.1c-0.2,0.5-0.5,1.1-0.8,1.6h1.3v1.3h-2.4v1.1h2.1v1.3h-2.1v1.2
		H323.1z"/>
	<path class="st7" d="M328.6,199.8h5.6v9.8h-1.3v-0.5h-3.1v0.6h-1.2v-1.8c-0.3,0.1-0.7,0.2-1.1,0.4c-0.1-0.6-0.4-1.6-0.7-2.3l1-0.3
		c0.3,0.7,0.6,1.5,0.7,2.1v-2.6l-0.9,0.4c0-0.2-0.1-0.3-0.2-0.5l-0.8,0v4.8h-1.2V206c0,0.1-0.1,0.1-0.3,0.1c-0.1,1-0.3,2.1-0.7,2.8
		c-0.2-0.2-0.7-0.4-1-0.5c0.3-0.6,0.5-1.7,0.6-2.7l1.3,0.3v-0.9c-0.5,0-1,0.1-1.4,0.1c0,0.1-0.1,0.2-0.2,0.2l-0.3-1.4h0.9
		c0.2-0.2,0.4-0.5,0.6-0.7c-0.3-0.5-0.9-1.1-1.4-1.6l0.7-1l0.3,0.2c0.3-0.7,0.7-1.4,0.9-2.1l1.4,0.6c0,0.1-0.2,0.1-0.3,0.1
		c-0.3,0.7-0.8,1.5-1.2,2.1c0.2,0.2,0.3,0.3,0.4,0.5c0.4-0.7,0.8-1.4,1.1-2l1.3,0.6c-0.1,0.1-0.2,0.1-0.3,0.1c-0.5,0.9-1.3,2-2.1,3
		l1.3,0c-0.1-0.3-0.3-0.6-0.5-0.9l1-0.5c0.4,0.6,0.7,1.3,1,1.9V199.8z M330.7,201.1h-0.9v2.7h0.9V201.1z M329.8,205.1v2.8h0.9v-2.8
		H329.8z M332.9,203.8v-2.7h-1v2.7H332.9z M331.9,207.9h1v-2.8h-1V207.9z"/>
	<path class="st7" d="M336.2,209.1c-0.3-0.9-0.5-2.8-0.5-4.4c0-1.7,0.3-3.4,0.6-5.3l1.8,0.3c0,0.1-0.2,0.2-0.3,0.2
		c-0.7,2.5-0.7,4.3-0.7,5.6c0,0.4,0,0.8,0,1c0.2-0.5,0.5-1.4,0.7-1.8l0.8,1c-0.3,0.6-0.7,1.6-1,2.2c-0.1,0.2-0.1,0.4-0.1,0.6
		c0,0.2,0,0.3,0.1,0.5L336.2,209.1z M339.3,202c0.8,0,1.7,0,2.6,0c0-0.9-0.1-1.7-0.1-2.6l1.8,0.1c0,0.1-0.1,0.2-0.3,0.3l0,2.1
		c0.8-0.1,1.5-0.2,2-0.4l0.1,1.4c-0.5,0.2-1.2,0.3-2.1,0.3c0,1,0.1,2.1,0.1,2.9c0.8,0.3,1.6,0.8,2.2,1.3l-0.8,1.4
		c-0.4-0.4-0.8-0.8-1.4-1.1c-0.2,1.5-1.2,1.7-2.2,1.7c-1.4,0-2.3-0.8-2.3-1.9c0-1.2,1.1-1.9,2.3-1.9c0.2,0,0.5,0,0.7,0.1
		c0-0.6-0.1-1.5-0.1-2.4c-0.3,0-0.7,0-1,0h-1.6L339.3,202z M342.2,206.9c-0.2-0.1-0.5-0.1-0.8-0.1c-0.6,0-1.1,0.2-1.1,0.7
		c0,0.4,0.5,0.7,1.1,0.7c0.6,0,0.9-0.3,0.8-0.9C342.2,207.2,342.2,207,342.2,206.9z"/>
	<path class="st7" d="M347.4,205.7V200l1.8,0.1c0,0.1-0.1,0.2-0.3,0.2v5.4H347.4z M354.3,199.5c0,0.1-0.1,0.2-0.3,0.2v3.6
		c0,2.5-0.8,4.8-4.1,6.1c-0.2-0.3-0.8-0.8-1.1-1.1c3.1-1.2,3.7-3.1,3.7-5v-4L354.3,199.5z"/>
	<path class="st7" d="M356.4,200c1.2,0.4,2.6,1,3.4,1.5l-0.8,1.3c-0.8-0.6-2.2-1.2-3.3-1.6L356.4,200z M356,207.8
		c3.9-1.2,6.6-3.5,8-6.7c0.4,0.3,0.9,0.6,1.4,0.9c-1.4,3.2-4.2,5.6-8.1,7c0,0.1-0.1,0.3-0.2,0.3L356,207.8z"/>
	<path class="st7" d="M374.6,201.6c0,0.1-0.2,0.2-0.3,0.2c-1.3,3.8-3.1,6.1-6.3,7.7c-0.2-0.3-0.7-0.8-1.1-1.1c2.9-1.4,4.6-3.4,5.5-6
		H369c-0.6,0.9-1.5,1.9-2.5,2.7c-0.3-0.3-0.8-0.7-1.2-1c1.5-1.2,2.9-3,3.6-4.9l1.8,0.4c0,0.1-0.2,0.2-0.4,0.2
		c-0.2,0.4-0.4,0.8-0.6,1.2h3.3l0.2-0.1L374.6,201.6z"/>
	<path class="st7" d="M380,205.3c0,0.1-0.1,0.2-0.3,0.2c-0.3,1.7-0.8,3.3-3.5,4.3c-0.2-0.4-0.5-0.9-0.8-1.2c2.4-0.7,2.8-1.9,3-3.4
		L380,205.3z M382.8,207.9c0,0.4,0.1,0.4,0.4,0.4h1c0.3,0,0.4-0.2,0.5-1.6c0.3,0.2,0.9,0.5,1.3,0.6c-0.1,1.9-0.5,2.4-1.6,2.4H383
		c-1.3,0-1.6-0.4-1.6-1.8V205h-5.9v-1.4h4.5v-1.9h-2c-0.3,0.6-0.6,1.2-0.9,1.6c-0.3-0.2-0.9-0.5-1.2-0.6c0.8-1,1.3-2.5,1.6-3.7
		l1.6,0.4c0,0.1-0.1,0.2-0.3,0.2c-0.1,0.3-0.2,0.6-0.3,0.9h1.5v-1.6l1.7,0.1c0,0.1-0.1,0.2-0.3,0.2v1.3h3.6v1.3h-3.6v1.9h4.5v1.4
		h-3.1V207.9z"/>
	<path class="st7" d="M393.1,201.6c0,0.1-0.2,0.2-0.3,0.2c-0.5,4-1.6,6.3-3.6,6.3c-1.3,0-2.2-1.1-2.2-3c0-3,2.4-5.2,5.3-5.2
		c3.3,0,5,2,5,4.5c0,2.7-1.4,4.1-4.3,4.9c-0.2-0.3-0.5-0.8-0.9-1.2c2.6-0.5,3.7-1.8,3.7-3.6c0-1.9-1.3-3.1-3.4-3.1
		c-0.2,0-0.4,0-0.6,0L393.1,201.6z M391.3,201.4c-1.8,0.4-2.9,1.9-2.9,3.6c0,1,0.3,1.7,0.8,1.7C390.3,206.6,391.1,204.1,391.3,201.4
		z"/>
	<path class="st7" d="M408,200.3c0,0.1-0.1,0.1-0.2,0.2c-0.5,1.3-1.5,2.8-2.5,3.8c-0.3-0.2-0.9-0.6-1.3-0.8c0.7-0.6,1.4-1.6,1.7-2.3
		h-7.5v-1.4h8.4l0.2-0.1L408,200.3z M403.5,202.6c0,0.1-0.1,0.2-0.3,0.2c-0.3,2.5-1.3,5.2-3.6,6.6c-0.3-0.3-0.9-0.7-1.3-0.9
		c2.2-1.2,3.1-3.5,3.3-6.1L403.5,202.6z"/>
	<path class="st7" d="M418.6,201.3c0,0.1-0.1,0.2-0.2,0.2c-1,1.5-2.7,3.2-4.3,4.4c0.7,0.5,1.6,1.3,2.1,1.9l-1.3,1.1
		c-1.3-1.5-3.3-3.2-5.1-4.2l1-1c0.7,0.4,1.5,0.9,2.2,1.4c1.2-0.9,2.4-2.1,3.1-3.1h-7.5v-1.4h8.7l0.2-0.1L418.6,201.3z"/>
	<path class="st7" d="M421.8,204.4c-0.3-0.9-1.1-2.3-1.9-3.3l1.3-0.6c0.7,0.8,1.6,2.3,2,3.2L421.8,204.4z M428.8,201.2
		c0,0.1-0.1,0.2-0.3,0.2c-1.2,4-3.3,6.5-6.5,7.8c-0.2-0.3-0.7-0.8-1-1.1c3.1-1.2,5-3.5,6.1-7.5L428.8,201.2z M425.5,198.8
		c0.5,0.4,1,1.2,1.3,1.6l-0.7,0.5c-0.3-0.4-0.9-1.3-1.3-1.7L425.5,198.8z M427.8,198.6c0.5,0.5,1,1.1,1.3,1.6l-0.7,0.5
		c-0.3-0.5-0.9-1.2-1.3-1.6L427.8,198.6z"/>
	<path class="st7" d="M430.8,200c1.2,0.4,2.6,1,3.4,1.5l-0.8,1.3c-0.8-0.6-2.2-1.2-3.3-1.6L430.8,200z M430.4,207.8
		c3.9-1.2,6.6-3.5,8-6.7c0.4,0.3,0.9,0.6,1.4,0.9c-1.4,3.2-4.2,5.6-8.1,7c0,0.1-0.1,0.3-0.2,0.3L430.4,207.8z"/>
	<path class="st7" d="M446.6,201.6c0,0.1-0.2,0.2-0.3,0.2c-0.5,4-1.6,6.3-3.6,6.3c-1.3,0-2.2-1.1-2.2-3c0-3,2.4-5.2,5.3-5.2
		c3.3,0,5,2,5,4.5c0,2.7-1.4,4.1-4.3,4.9c-0.2-0.3-0.5-0.8-0.9-1.2c2.6-0.5,3.7-1.8,3.7-3.6c0-1.9-1.3-3.1-3.4-3.1
		c-0.2,0-0.4,0-0.6,0L446.6,201.6z M444.8,201.4c-1.8,0.4-2.9,1.9-2.9,3.6c0,1,0.3,1.7,0.8,1.7C443.9,206.6,444.6,204.1,444.8,201.4
		z"/>
	<path class="st7" d="M318.9,213.9v1.3h-2.2l0.3,0.1c0,0.1-0.1,0.1-0.3,0.2c-0.1,0.3-0.3,0.6-0.5,0.9h2.2v6c0,1.3-0.6,1.5-2.6,1.5
		c-0.1-0.3-0.2-0.7-0.3-1.1h-2.8v0.7h-1.2v-3.7h4.6v2.8h0.8c0.2,0,0.3-0.1,0.3-0.2v-3.1c-0.2,0.1-0.4,0.1-0.6,0.1h-1
		c-1.1,0-1.3-0.3-1.3-1.3v-0.5H313c-0.1,1.1-0.5,1.9-2.3,2.3c-0.1-0.2-0.3-0.5-0.5-0.8v4.8H309v-7.5h2.1c-0.1-0.3-0.3-0.7-0.4-1
		l0.4-0.1h-2.7v-1.3h4.5v-1.1l1.7,0.1c0,0.1-0.1,0.2-0.3,0.2v0.8H318.9z M310.3,217.5v1.3c1.1-0.2,1.5-0.6,1.6-1.3H310.3z
		 M312.1,215.2c0.2,0.4,0.4,0.8,0.4,1.1h2.1c0.2-0.3,0.3-0.7,0.4-1.1H312.1z M314.7,221.6v-0.9h-2.1v0.9H314.7z M316.2,218.2
		c0.2,0,0.2,0,0.3-0.3c0.1,0.1,0.3,0.2,0.5,0.2v-0.7h-1.7v0.5c0,0.2,0,0.3,0.3,0.3H316.2z"/>
	<path class="st7" d="M320.2,223.7v-5.1h4.5v5.1h-1.4v-0.4h-1.8v0.4H320.2z M323.3,219.9h-1.8v2h1.8V219.9z M328.3,213.2v4.5h-6.2
		v-4.5H328.3z M326.9,216.3v-1.8h-3.4v1.8H326.9z M325.7,218.6h4.6v5h-1.4v-0.3H327v0.4h-1.3V218.6z M327,221.9h1.9v-2H327V221.9z"
		/>
	<path class="st7" d="M331.2,218.8c0.8-0.9,2.4-2.7,3.2-3.5c0.4-0.4,0.8-0.6,1.2-0.6c0.4,0,0.8,0.2,1.2,0.6c1.4,1.2,3.8,3.9,5.4,5.8
		l-1.2,1.2c-1.4-2-3.9-4.8-4.8-5.7c-0.2-0.2-0.4-0.3-0.5-0.3c-0.1,0-0.3,0.1-0.5,0.4c-0.4,0.5-1.8,2.2-2.5,3c0,0.1,0,0.3-0.2,0.4
		L331.2,218.8z M340,213c0.7,0,1.3,0.6,1.3,1.3c0,0.7-0.6,1.3-1.3,1.3s-1.3-0.6-1.3-1.3C338.7,213.5,339.3,213,340,213z
		 M340.8,214.3c0-0.5-0.4-0.8-0.8-0.8c-0.5,0-0.8,0.4-0.8,0.8s0.4,0.8,0.8,0.8C340.4,215.1,340.8,214.7,340.8,214.3z"/>
	<path class="st7" d="M343,217.3h9.7v1.5h-9.2c-0.1,0.1-0.2,0.2-0.4,0.2L343,217.3z"/>
	<path class="st7" d="M354.5,216.4c1,0.3,2.2,0.7,3,1.1l-0.6,1.3c-0.8-0.4-2-0.9-3-1.1L354.5,216.4z M354.8,221.8
		c3.5-1.1,6.2-3,7.7-6.4c0.3,0.3,1,0.8,1.3,1c-1.6,3.3-4.4,5.5-7.7,6.6c0,0.1,0,0.2-0.2,0.3L354.8,221.8z M355.9,213.5
		c1,0.3,2.2,0.7,3,1.1l-0.7,1.2c-0.8-0.5-1.9-0.9-2.9-1.2L355.9,213.5z M361.1,213.2c0.5,0.4,1.1,1.1,1.4,1.6l-0.7,0.5
		c-0.3-0.5-0.9-1.3-1.3-1.6L361.1,213.2z M362.9,212.5c0.5,0.4,1.1,1.1,1.4,1.6l-0.7,0.5c-0.3-0.5-0.9-1.2-1.3-1.6L362.9,212.5z"/>
	<path class="st7" d="M364.5,214.2c0.4,0,0.9,0,1.2,0c1.3-0.1,6.4-0.4,8.3-0.5l0,1.6c-1,0-1.6,0.1-2.5,0.7c-1.3,0.8-2.9,2.5-2.9,3.8
		c0,1.3,1.2,2.1,3.7,2.4l-0.7,1.5c-3.3-0.4-4.6-1.8-4.6-3.8c0-1.4,1.3-3.3,3-4.5c-1.4,0.1-4.1,0.3-5.2,0.5c0,0.1-0.2,0.2-0.3,0.2
		L364.5,214.2z M372.3,217c0.5,0.4,1.1,1.1,1.4,1.6l-0.7,0.5c-0.3-0.5-1-1.2-1.4-1.6L372.3,217z M373.7,215.9c0.5,0.4,1.1,1,1.4,1.6
		l-0.7,0.5c-0.3-0.4-0.9-1.2-1.4-1.6L373.7,215.9z"/>
	<path class="st7" d="M383.9,222.6c-0.9,0.2-2.3,0.2-3.5,0.2c-1,0-1.9-0.1-2.4-0.2c-1.5-0.3-2.1-1.3-2.1-2.4c0-0.9,0.5-1.8,1.1-2.4
		l1.3,0.6c-0.5,0.5-0.8,1.1-0.8,1.6c0,1.4,1.7,1.4,2.8,1.4c1.2,0,2.5-0.1,3.6-0.3L383.9,222.6z M378.2,216.6c0.4-0.3,1-0.8,1.5-1v0
		c-0.6,0.1-2.2,0.1-3.2,0.1c0-0.4,0-1.1,0-1.4c0.2,0,0.5,0,0.8,0c2.1,0,4.2,0,5.9-0.3l0.1,1.5c-1.7,0.3-3.1,1.3-3.8,1.8L378.2,216.6
		z M383.6,218.6c-0.3-0.4-1-1.2-1.4-1.5l0.6-0.5c0.5,0.4,1.1,1,1.5,1.5L383.6,218.6z M384.9,217.4c-0.3-0.4-1-1.1-1.4-1.5l0.6-0.5
		c0.5,0.4,1.1,1,1.5,1.5L384.9,217.4z"/>
	<path class="st7" d="M396.9,222.1v1.2h-4.4v0.5h-1.3v-4.4c-0.2,0.2-0.4,0.3-0.6,0.5c-0.1-0.3-0.3-0.7-0.5-1.1v3.7H388v1h-1.1v-3.2
		c-0.1,0.2-0.3,0.5-0.5,0.7c-0.1-0.3-0.5-1-0.7-1.3c0.8-1.1,1.2-2.9,1.5-4.9H386v-1.3h4.3v0.7h2.4c0.1-0.4,0.2-0.9,0.3-1.4l1.6,0.3
		c0,0.1-0.1,0.2-0.3,0.2c-0.1,0.3-0.1,0.6-0.2,0.9h2.7v2.3h-1.2v-0.2c0,0-0.1,0-0.1,0c-0.1,0.2-0.2,0.5-0.3,0.8h1.6v1.2h-1.8v0.7
		h1.5v1h-1.5v0.7h1.5v1h-1.5v0.7H396.9z M388.9,221.2v-2.9H388v2.9H388.9z M390.1,217.1v1.4c0.9-0.7,1.7-1.8,2.2-3.2h-0.8v1.1h-1.2
		v-1.6h-1.7c-0.1,0.8-0.3,1.6-0.5,2.4H390.1z M393.5,218.7v-0.7h-1v0.7H393.5z M393.5,220.5v-0.7h-1v0.7H393.5z M392.5,221.5v0.7h1
		v-0.7H392.5z M395.5,215.3h-1.8c-0.2,0.6-0.5,1.1-0.7,1.7h0.8c0.2-0.4,0.3-0.9,0.5-1.3l1.3,0.4V215.3z"/>
	<path class="st7" d="M401.7,214.7v1.1h-4.2v-1.1H401.7z M401.4,219.6v2.8c0.4-0.6,0.7-1.5,0.8-2.4l1.1,0.3c-0.1,1-0.3,2.1-0.9,2.8
		l-1-0.6v0.6h-2.3v0.5H398v-4H401.4z M401.4,216.3v1.1H398v-1.1H401.4z M398,219v-1h3.4v1H398z M401.4,213.1v1.1h-3.3v-1.1H401.4z
		 M400.3,222v-1.3h-1.1v1.3H400.3z M408.1,213.6c-0.2,4.7-0.3,4.7-2.7,4.6c0-0.4-0.2-0.9-0.3-1.2l0.2,0c-0.2-0.1-0.5-0.3-0.7-0.4
		c-0.4,0.8-1,1.5-2,2c-0.2-0.3-0.5-0.8-0.8-1c0.8-0.4,1.3-1,1.7-1.6c-0.4-0.2-0.9-0.4-1.3-0.5l0.7-1c0.3,0.1,0.7,0.2,1.1,0.4
		c0.1-0.2,0.1-0.4,0.2-0.7h-1.8v-1.2h4.8l0.3,0l0.7,0.1L408.1,213.6z M404.8,222c0,0.3,0,0.3,0.2,0.3h0.5c0.2,0,0.2-0.1,0.3-1.1
		c0.2,0.2,0.8,0.4,1.1,0.5c-0.1,1.5-0.5,1.8-1.2,1.8h-0.8c-1,0-1.3-0.4-1.3-1.5v-2.4l1.6,0.1c0,0.1-0.1,0.2-0.3,0.2V222z
		 M405.6,220.2c-0.4-0.5-1.2-1.2-2-1.6l0.9-0.8c0.7,0.4,1.6,1.1,2,1.6L405.6,220.2z M405.5,217.1c0.3,0,0.5,0,0.6,0
		c0.1,0,0.2,0,0.3-0.1c0.2-0.2,0.3-0.9,0.3-2.6h-1.5c-0.1,0.4-0.2,0.8-0.3,1.2c0.4,0.2,0.8,0.4,1.1,0.6L405.5,217.1z M407.4,223.2
		c-0.1-0.8-0.6-2-1.2-2.9l1.1-0.5c0.6,0.9,1.1,2.1,1.3,2.9L407.4,223.2z"/>
	<path class="st7" d="M415.1,223.6c-1-1.2-2.7-2.8-4.5-4.1c-0.7-0.5-0.9-0.9-0.9-1.4c0-0.4,0.1-0.7,0.5-1.1c1.2-1.1,3.2-3.1,4.1-4.1
		l1.7,1.1c-0.1,0.1-0.2,0.2-0.5,0.1c-1.1,1-2.7,2.4-3.7,3.3c-0.3,0.3-0.5,0.5-0.5,0.7c0,0.2,0.3,0.4,0.7,0.7c1.4,1,3,2.4,4.4,3.8
		L415.1,223.6z"/>
	<path class="st7" d="M424.3,215.8c-0.9,0.3-2,0.5-3.2,0.6c-0.5,2.4-1.2,5.1-2,7l-1.5-0.5c0.9-1.8,1.6-4,2-6.4c-0.2,0-1,0-1.2,0
		c-0.2,0-0.5,0-0.7,0l0-1.4c0.4,0,1,0,1.5,0c0.2,0,0.4,0,0.6,0c0.1-0.7,0.2-1.5,0.2-2.1l1.9,0.2c0,0.1-0.2,0.2-0.3,0.3
		c-0.1,0.4-0.2,1-0.2,1.6c0.9-0.1,1.9-0.3,2.7-0.6L424.3,215.8z M427.4,223.2c-0.4,0-0.8,0-1.2,0c-0.9,0-1.9-0.1-2.4-0.2
		c-1-0.2-1.5-1-1.5-1.8c0-0.6,0.3-1.2,0.7-1.7l1.2,0.5c-0.4,0.4-0.5,0.7-0.5,1c0,0.6,0.6,0.8,2.2,0.8c0.5,0,1.1,0,1.5-0.1
		L427.4,223.2z M423,217.4c1.2-0.4,2.8-0.6,4.1-0.6v1.4c-1.3,0-2.7,0.1-3.8,0.4L423,217.4z M425,213.3c0.5,0.4,1.2,1,1.5,1.5
		l-0.7,0.6c-0.3-0.4-1-1.2-1.4-1.5L425,213.3z M426.6,212.6c0.5,0.4,1.2,1,1.5,1.5l-0.7,0.6c-0.3-0.4-1-1.1-1.4-1.5L426.6,212.6z"/>
	<path class="st7" d="M438,215.9c-0.9,0.2-2.3,0.4-3.5,0.5c0.4,1.3,1,2,2,2.5l-1,1.2c-0.4-0.4-1.1-0.8-2.5-0.8l-0.4-1.2
		c0.4,0,0.9,0,1.2,0.1c-0.3-0.4-0.5-1-0.8-1.8c-0.5,0-0.9,0-1.5,0c-0.7,0-2.1,0-2.9,0l0-1.4c0.7,0,1.5,0,2.9,0c0.4,0,0.8,0,1.2,0
		c-0.1-0.6-0.2-1.4-0.3-2.1l2,0c0,0.1-0.1,0.3-0.3,0.3c0,0.6,0.1,1.1,0.2,1.7c1.2-0.1,2.7-0.3,3.6-0.6L438,215.9z M435.8,223.3
		c-0.6,0-1.3,0-2.1,0c-2.8,0-4.2-1.1-4.2-2.5c0-0.7,0.3-1.3,1-2l1.1,0.8c-0.5,0.4-0.6,0.7-0.6,1.1c0,0.9,1.1,1.2,2.8,1.2
		c0.9,0,1.6,0,2.2-0.1L435.8,223.3z"/>
	<path class="st7" d="M441.2,214.4c0,0.1-0.2,0.2-0.3,0.2c-0.2,0.9-0.3,2.1-0.3,3.2c0,2.6,0.7,3.5,1.4,3.5c0.4,0,0.9-1.2,1.1-2.1
		c0.3,0.3,0.8,0.7,1.2,0.9c-0.6,1.9-1.3,2.8-2.4,2.8c-1.8,0-2.7-2.2-2.8-4.1c0-0.4,0-0.9,0-1.3c0-1.1,0.1-2.2,0.2-3.3L441.2,214.4z
		 M447.7,220c-0.3-2.1-1.3-3.3-2.7-4.2l0.9-1.1c1.6,0.9,3,2.5,3.4,4.8L447.7,220z"/>
	<path class="st7" d="M452.9,222.1c0,0.9-0.7,1.6-1.6,1.6c-0.9,0-1.6-0.7-1.6-1.6c0-0.9,0.7-1.6,1.6-1.6
		C452.2,220.5,452.9,221.2,452.9,222.1z M452.3,222.1c0-0.6-0.5-1.1-1.1-1.1c-0.6,0-1.1,0.5-1.1,1.1c0,0.6,0.5,1.1,1.1,1.1
		C451.9,223.2,452.3,222.7,452.3,222.1z"/>
</g>
<g>
	<g>
		<path class="st120" d="M67.8,67.8h54c4.8,0,8.9,3.9,8.9,8.9v56.8H59V76.6C59,71.7,62.9,67.8,67.8,67.8z"/>
		<g>
			<path class="st2" d="M121.9,158.8H67.8c-4.8,0-8.8-3.9-8.8-8.8v-16.7h71.7V150C130.7,154.8,126.7,158.8,121.9,158.8z"/>
			<g>
				<g>
					<line class="st152" x1="59" y1="133.3" x2="59.2" y2="133.7"/>
					<line class="st153" x1="59.8" y1="134.2" x2="81.1" y2="158.2"/>
					<line class="st152" x1="81.5" y1="158.5" x2="81.7" y2="158.8"/>
				</g>
			</g>
			<line class="st154" x1="59" y1="133.3" x2="130.7" y2="133.3"/>
		</g>
		<path class="st155" d="M121.8,158.8h-54c-4.8,0-8.9-3.9-8.9-8.9V76.6c0-4.8,3.9-8.9,8.9-8.9h54c4.8,0,8.9,3.9,8.9,8.9v73.3
			C130.7,154.8,126.7,158.8,121.8,158.8z"/>
		<polygon class="st120" points="67.9,148.9 60.7,150.9 66,156.1 		"/>
		<circle class="st156" cx="94.8" cy="99.4" r="29.3"/>
		<g>
			<g>
				<path d="M77.1,140.1c0,0.1,0,0.1,0,0.1s0,0.1,0,0.2v0.2v0.2c-0.3,2.7-1.1,4.7-2.3,6.1c-0.4-0.4-1-0.9-1.5-1.1
					c1.2-1.2,2.1-3.7,2.2-6.1L77.1,140.1z M79.7,139.8L79.7,139.8c0,0.3,0.2,1.4,0.3,2c0.4,1.8,1,3,2,4.2c-0.5,0.3-1,0.7-1.4,1.1
					c-1.2-1.6-2-3.7-2.3-6.2c0-0.1,0-0.1,0-0.2l-0.1-0.3v-0.1c0,0,0,0,0-0.1L79.7,139.8z M82.1,140.5c0,0.5-0.4,1-1,1
					c-0.5,0-1-0.4-1-1s0.4-1,1-1C81.7,139.5,82.1,139.9,82.1,140.5z M80.6,140.5c0,0.2,0.2,0.5,0.5,0.5s0.5-0.2,0.5-0.5
					c0-0.3-0.2-0.5-0.5-0.5C80.8,140,80.6,140.3,80.6,140.5z"/>
				<path d="M84.1,141.2c0.3,0.7,0.7,1.4,0.9,2.3l-1.4,0.4c-0.2-1-0.4-1.5-0.8-2.4L84.1,141.2z M89.5,141.5
					c-0.1,0.1-0.1,0.2-0.1,0.5c-0.2,1.3-0.7,2.2-1.1,3c-0.4,0.8-1.1,1.3-1.9,1.9c-0.3,0.2-0.5,0.3-1.1,0.7c-0.3-0.5-0.4-0.8-1-1.3
					c1.9-0.7,2.9-1.6,3.4-3.2c0.2-0.7,0.4-1.4,0.4-2L89.5,141.5z M86.2,140.9c0.4,1,0.7,1.3,0.9,2.2l-1.4,0.4
					c-0.2-0.8-0.4-1.4-0.8-2.3L86.2,140.9z"/>
				<path d="M94.9,139.4c0,0.1-0.1,0.1-0.1,0.2c0,0,0,0.1-0.1,0.1c0,0.1-0.1,0.1-0.1,0.2c-0.1,0.2-0.1,0.2-0.2,0.4h2.3
					c0.3,0,0.4,0,0.7-0.1l0.8,0.8c-0.1,0.2-0.1,0.2-0.2,0.7c-0.4,1.5-1.1,2.7-1.9,3.6c-0.9,1-1.9,1.6-3.4,2.3
					c-0.3-0.5-0.5-1-1.1-1.4c1.3-0.4,2.2-1.1,3.1-1.9c0.7-0.7,1.2-1.5,1.5-2.6h-2.4c-0.5,1-1.2,1.6-2.1,2.3
					c-0.4-0.5-0.7-0.8-1.3-1.1c1.1-0.8,1.9-1.6,2.4-2.7c0.2-0.4,0.3-0.8,0.4-1.1L94.9,139.4z"/>
				<path d="M101.7,143.8c-0.5,0.4-0.8,0.8-0.8,1.1c0,0.4,0.5,0.7,2,0.7c1.1,0,2.4-0.2,3-0.4l0.1,1.8c-0.2,0-0.2,0-0.3,0
					c-0.1,0-0.1,0-0.3,0h-0.2c-0.8,0.1-1.5,0.1-2.3,0.1c-1,0-1.8-0.1-2.3-0.3c-0.8-0.3-1.2-0.9-1.2-1.6s0.4-1.4,1.3-2.2L101.7,143.8
					z M99.9,139.6c0.5,0.1,1.8,0.2,3.1,0.2c1.2,0,2.1-0.1,2.5-0.2v1.4c-0.5,0.3-1.9,1.1-2.5,1.6l-1.1-0.8c0.2-0.1,0.3-0.2,0.4-0.3
					l0.3-0.2c0.1,0,0.1-0.1,0.1-0.1h0.1c0,0,0.1,0,0.1-0.1c-0.3,0-0.4,0-0.8,0c-0.7,0-1.1,0-2.1-0.1c-0.2,0-0.2,0-0.3,0L99.9,139.6z
					 M105,141.9c0.3,0.4,0.7,0.8,0.9,1.3l-0.9,0.4c-0.3-0.5-0.5-0.9-0.9-1.3L105,141.9z M106.1,141.4c0.3,0.3,0.5,0.7,0.9,1.3
					l-0.8,0.4c-0.3-0.5-0.5-1-0.9-1.3L106.1,141.4z"/>
				<path d="M110,139.4c-0.1,0.2-0.2,0.4-0.2,0.9c-0.3,1.2-0.4,2.3-0.4,3.5l0.7,0.2c-0.3,1-0.3,1.8-0.3,3c0,0,0,0.1,0,0.3l-1.5,0.1
					c0-0.1,0-0.1-0.1-0.8c-0.1-1.3-0.2-1.8-0.2-2.7c0-1.3,0.1-2.1,0.3-3.7c0.1-0.4,0.1-0.7,0.1-0.8l0,0L110,139.4z M110.3,140.9
					c0.3,0.1,1,0.1,1.8,0.1c0.2,0,0.3,0,0.7,0c0-0.5,0-0.5,0-1.2c0-0.2,0-0.3,0-0.5h1.5c0,0.3-0.1,0.7-0.1,1.6
					c0.5-0.1,1.1-0.2,1.4-0.3l0.1,1.4c-0.1,0-0.1,0-0.3,0c-0.3,0.1-0.7,0.1-1.1,0.2c0,0.7,0,0.9,0.1,2c0.7,0.3,1,0.4,1.4,0.9
					c0,0,0.1,0.1,0.2,0.1l-0.5,1.5c-0.2-0.2-0.5-0.5-1.1-0.9v0.1c0,0.8-0.8,1.3-2,1.3c-1.3,0-2.1-0.7-2.1-1.6c0-0.5,0.2-1,0.7-1.3
					c0.3-0.2,0.9-0.3,1.4-0.3c0.2,0,0.3,0,0.5,0c0-0.2,0-0.3,0-0.8c0-0.3,0-0.4,0-0.8c-0.2,0-0.3,0-0.5,0s-0.8,0-1.5,0
					c-0.1,0-0.2,0-0.2,0h-0.1L110.3,140.9z M112.7,145.3c-0.2-0.1-0.3-0.1-0.5-0.1c-0.4,0-0.7,0.1-0.7,0.4c0,0.2,0.2,0.4,0.5,0.4
					c0.4,0,0.7-0.1,0.7-0.5V145.3z"/>
				<path d="M120.7,139.5c-0.2,0.3-0.3,0.7-1.4,3.4c0.3-0.2,0.8-0.4,1.1-0.4c0.5,0,1.1,0.3,1.2,0.9c0.1,0.3,0.1,0.4,0.1,1.5
					c0,0.7,0.1,0.9,0.4,0.9s0.7-0.2,0.9-0.8c0.2-0.4,0.3-1.1,0.3-1.6c0.5,0.4,0.8,0.7,1.4,0.9c-0.2,1-0.4,1.5-0.8,2.1
					c-0.4,0.7-1.2,1-2.1,1c-0.5,0-1-0.1-1.3-0.4c-0.3-0.3-0.4-0.7-0.4-1.3c0-0.1,0-0.2,0-0.7c0-0.1,0-0.1,0-0.1
					c0-0.4-0.1-0.5-0.3-0.5c-0.4,0-0.9,0.4-1.2,1.2c-0.2,0.5-0.5,1.5-0.7,2.1l-1.6-0.5c0.1-0.3,0.2-0.3,0.8-2c0.1-0.2,0.4-1.1,1-2.7
					c0.8-2.1,0.9-2.6,1-3.1L120.7,139.5z"/>
			</g>
		</g>
		<g>
			<g>
				<g>
					<path class="st157" d="M106.3,119.2c0,0,0,1.1,0,2c0,1.3-5.2,3-11.6,3c-6.4,0-11.6-1.5-11.6-3c0-1.3,0-2,0-2H106.3z"/>
				</g>
				<path class="st158" d="M118.4,99.5c0,4.2-2.5,22.6-23.7,22.6c-21,0-23.7-18.4-23.7-22.6"/>
				<g>
					<path class="st2" d="M98.5,99.5h-7.3c-0.1,1.8-0.1,3.6-0.1,5.6c0,6.8,0.5,12.8,1.3,16.9c0.8,0.1,1.6,0.1,2.5,0.1
						c0.9,0,1.6,0,2.5-0.1c0.8-4.1,1.3-10.2,1.3-16.9C98.6,103.1,98.6,101.2,98.5,99.5z"/>
					<path class="st2" d="M108.3,101.6c-0.3,6.1-2.1,14.7-4.9,19.3c1.9-0.5,3.5-1.3,4.9-2.3c2.6-3.4,5.5-8.9,7.9-17.9L108.3,101.6z"
						/>
					<path class="st2" d="M72.8,100.7c2.2,8.3,4.8,13.6,7.2,17c1.5,1.1,3.3,2.1,5.4,2.9c-2.7-4.6-4.5-13-4.7-19L72.8,100.7z"/>
				</g>
				<ellipse class="st159" cx="94.8" cy="99.5" rx="23.7" ry="7.6"/>
			</g>
			<path class="st160" d="M116.2,99.6c-0.2-1.4-0.7-2.7-1.1-4.1c-3.7-9.2-13.9-13.7-20.4-15.6c-5.4-1.4-14.7,7.2-19.1,15
				c-1.5,2.7-2.5,5.5-2.5,7.5c3.6,2.7,11.9,4.6,21.7,4.6s18.2-1.9,21.8-4.6C116.5,101.6,116.4,100.7,116.2,99.6z"/>
			<path class="st160" d="M80.5,89.1c0.5,1,0.5,2,0,2.2c-0.5,0.3-1.3-0.2-1.9-1.2c-0.5-1-0.5-2,0-2.2C79.2,87.5,79.9,88.1,80.5,89.1
				z"/>
			<path class="st160" d="M85.3,83.4c0.5,1,0.5,2,0,2.2c-0.5,0.3-1.3-0.2-1.9-1.2c-0.5-1-0.5-2,0-2.2C84,81.9,84.8,82.5,85.3,83.4z"
				/>
			<path class="st160" d="M92.6,80.3c0.5,1,0.5,2,0,2.2c-0.5,0.3-1.3-0.2-1.9-1.2c-0.5-1-0.5-2,0-2.2C91.2,78.8,92.1,79.3,92.6,80.3
				z"/>
			<path class="st160" d="M77.4,94.2c-0.4,1-1.2,1.6-1.8,1.4c-0.5-0.2-0.7-1.2-0.2-2.2s1.2-1.6,1.8-1.4
				C77.7,92.1,77.8,93.1,77.4,94.2z"/>
			<path class="st160" d="M83,87.2c-0.4,1-1.2,1.6-1.8,1.4c-0.5-0.2-0.7-1.2-0.2-2.2c0.4-1,1.2-1.6,1.8-1.4S83.4,86.2,83,87.2z"/>
			<path class="st2" d="M90.3,93.2c-0.4,1-1.2,1.6-1.8,1.4c-0.5-0.2-0.7-1.2-0.2-2.2c0.4-1,1.2-1.6,1.8-1.4
				C90.7,91.3,90.8,92.2,90.3,93.2z"/>
			<path class="st2" d="M85.2,90c-0.4,1-1.2,1.6-1.8,1.4s-0.7-1.2-0.2-2.2s1.2-1.6,1.8-1.4C85.5,88.1,85.6,89.1,85.2,90z"/>
			<path class="st2" d="M83.2,99.6c0.4,1,0.4,2-0.1,2.2c-0.5,0.2-1.3-0.3-1.8-1.3s-0.4-2,0.1-2.2C82,97.9,82.8,98.6,83.2,99.6z"/>
			<path class="st2" d="M104.8,97.4c0,1.1-0.4,2-1,2s-1.1-0.9-1.1-2c0-1.1,0.4-2,1-2S104.8,96.3,104.8,97.4z"/>
			<path class="st2" d="M100.1,87.9c0,1.1-0.4,2-1,2c-0.5,0-1.1-0.9-1.1-2c0-1.1,0.4-2,1-2C99.7,85.9,100.1,86.8,100.1,87.9z"/>
			<path class="st160" d="M87.2,83.9c-0.2,1.1-0.9,1.8-1.5,1.6c-0.5-0.1-0.8-1.1-0.5-2.2c0.2-1.1,0.9-1.8,1.5-1.6
				C87.2,81.9,87.4,82.8,87.2,83.9z"/>
			<path class="st160" d="M114,92.5c-0.2,1.1-0.9,1.8-1.5,1.6c-0.5-0.1-0.8-1.1-0.5-2.2c0.2-1.1,0.9-1.8,1.5-1.6
				C114.1,90.4,114.3,91.4,114,92.5z"/>
			<path class="st160" d="M108.9,85.8c0.1,1.1-0.2,2-0.8,2.1c-0.5,0.1-1.2-0.8-1.3-1.8c-0.1-1.1,0.2-2,0.8-2.1
				S108.6,84.7,108.9,85.8z"/>
			<path class="st160" d="M110.3,87.3c0.8,0.8,1.1,1.8,0.7,2.1c-0.4,0.4-1.3,0.1-2.1-0.7c-0.8-0.8-1.1-1.8-0.7-2.1
				C108.6,86.3,109.5,86.5,110.3,87.3z"/>
			<path class="st160" d="M97.9,80.1c0.8,0.8,1.1,1.8,0.7,2.1c-0.4,0.4-1.3,0.1-2.1-0.7c-0.8-0.8-1.1-1.8-0.7-2.1
				C96.3,79,97.1,79.3,97.9,80.1z"/>
			<path class="st160" d="M105.6,84c0.4,1,0.4,2-0.1,2.2s-1.3-0.3-1.9-1.3c-0.4-1-0.4-2,0.1-2.2C104.4,82.4,105.1,83,105.6,84z"/>
			<path class="st160" d="M102,81.4c0.4,1,0.4,2-0.1,2.2c-0.5,0.2-1.3-0.3-1.9-1.3c-0.4-1-0.4-2,0.1-2.2
				C100.6,79.9,101.4,80.4,102,81.4z"/>
		</g>
		<path class="st161" d="M118.4,99.5c0,4.2-10.6,7.6-23.7,7.6S71,103.6,71,99.5"/>
	</g>
	<g>
		<path class="st120" d="M111.5,106.9h54c4.8,0,8.9,3.9,8.9,8.9v56.8h-71.7v-56.9C102.7,110.9,106.7,106.9,111.5,106.9z"/>
		<g>
			<path class="st2" d="M165.6,197.9h-54.2c-4.8,0-8.8-3.9-8.8-8.8v-16.7h71.7v16.7C174.4,194,170.5,197.9,165.6,197.9z"/>
			<g>
				<g>
					<line class="st152" x1="102.7" y1="172.5" x2="102.9" y2="172.8"/>
					<line class="st153" x1="103.5" y1="173.4" x2="124.9" y2="197.4"/>
					<line class="st152" x1="125.2" y1="197.6" x2="125.4" y2="197.9"/>
				</g>
			</g>
			<line class="st154" x1="102.7" y1="172.5" x2="174.4" y2="172.5"/>
		</g>
		<path class="st155" d="M165.6,197.9h-54.2c-4.8,0-8.9-3.9-8.9-8.9v-73.3c0-4.8,3.9-8.9,8.9-8.9h54c4.8,0,8.9,3.9,8.9,8.9V189
			C174.4,194,170.5,197.9,165.6,197.9z"/>
		<polygon class="st120" points="111.7,188 104.5,190 109.7,195.3 		"/>
		<circle class="st156" cx="138.6" cy="138.5" r="29.3"/>
		<g>
			<g>
				<path d="M120.8,179.3c0,0.1,0,0.1,0,0.1s0,0.1,0,0.2v0.2v0.2c-0.3,2.7-1.1,4.7-2.3,6.1c-0.4-0.4-1-0.9-1.5-1.1
					c1.2-1.2,2.1-3.7,2.2-6.1L120.8,179.3z M123.6,178.9L123.6,178.9c0,0.3,0.2,1.4,0.3,2c0.4,1.8,1,3,2,4.2c-0.5,0.3-1,0.7-1.4,1.1
					c-1.2-1.6-2-3.7-2.3-6.2c0-0.1,0-0.1,0-0.2l-0.1-0.3v-0.1c0,0,0,0,0-0.1L123.6,178.9z M125.9,179.6c0,0.5-0.4,1-1,1
					c-0.5,0-1-0.4-1-1s0.4-1,1-1C125.4,178.6,125.9,179.1,125.9,179.6z M124.3,179.6c0,0.2,0.2,0.5,0.5,0.5c0.3,0,0.5-0.2,0.5-0.5
					s-0.2-0.5-0.5-0.5C124.7,179.2,124.3,179.4,124.3,179.6z"/>
				<path d="M127.9,180.4c0.3,0.7,0.7,1.4,0.9,2.3l-1.4,0.4c-0.2-1-0.4-1.5-0.8-2.4L127.9,180.4z M133.2,180.6
					c-0.1,0.1-0.1,0.2-0.1,0.5c-0.2,1.3-0.7,2.2-1.1,3s-1.1,1.3-1.9,1.9c-0.3,0.2-0.5,0.3-1.1,0.7c-0.3-0.5-0.4-0.8-1-1.3
					c1.9-0.7,2.9-1.6,3.4-3.2c0.2-0.7,0.4-1.4,0.4-2L133.2,180.6z M129.9,180c0.4,1,0.7,1.3,0.9,2.2l-1.4,0.4
					c-0.2-0.8-0.4-1.4-0.8-2.3L129.9,180z"/>
				<path d="M138.7,178.5c0,0.1-0.1,0.1-0.1,0.2c0,0,0,0.1-0.1,0.1c0,0.1-0.1,0.1-0.1,0.2c-0.1,0.2-0.1,0.2-0.2,0.4h2.3
					c0.3,0,0.4,0,0.7-0.1l0.8,0.8c-0.1,0.2-0.1,0.2-0.2,0.7c-0.4,1.5-1.1,2.7-1.9,3.6c-0.9,1-1.9,1.6-3.4,2.3
					c-0.3-0.5-0.5-1-1.1-1.4c1.3-0.4,2.2-1.1,3.1-1.9c0.7-0.7,1.2-1.5,1.5-2.6h-2.4c-0.5,1-1.2,1.6-2.1,2.3
					c-0.4-0.5-0.7-0.8-1.3-1.1c1.1-0.8,1.9-1.6,2.4-2.7c0.2-0.4,0.3-0.8,0.4-1.1L138.7,178.5z"/>
				<path d="M145.6,182.9c-0.5,0.4-0.8,0.8-0.8,1.1c0,0.4,0.5,0.7,2,0.7c1.1,0,2.4-0.2,3-0.4l0.1,1.8c-0.2,0-0.2,0-0.3,0
					s-0.1,0-0.3,0H149c-0.8,0.1-1.5,0.1-2.3,0.1c-1,0-1.8-0.1-2.3-0.3c-0.8-0.3-1.2-0.9-1.2-1.6s0.4-1.4,1.3-2.2L145.6,182.9z
					 M143.7,178.7c0.5,0.1,1.8,0.2,3.1,0.2c1.2,0,2.1-0.1,2.5-0.2v1.4c-0.5,0.3-1.9,1.1-2.5,1.6l-1.1-0.8c0.2-0.1,0.3-0.2,0.4-0.3
					l0.3-0.2c0.1,0,0.1-0.1,0.1-0.1h0.1c0,0,0.1,0,0.1-0.1c-0.3,0-0.4,0-0.8,0c-0.7,0-1.1,0-2.1-0.1c-0.2,0-0.2,0-0.3,0L143.7,178.7
					z M148.8,181c0.3,0.4,0.7,0.8,0.9,1.3l-0.9,0.4c-0.3-0.5-0.5-0.9-0.9-1.3L148.8,181z M150,180.5c0.3,0.3,0.5,0.7,0.9,1.3
					l-0.8,0.4c-0.3-0.5-0.5-1-0.9-1.3L150,180.5z"/>
				<path d="M153.7,178.5c-0.1,0.2-0.2,0.4-0.2,0.9c-0.3,1.2-0.4,2.3-0.4,3.5l0.7,0.2c-0.3,0.9-0.3,1.6-0.3,2.7c0,0,0,0.1,0,0.3
					l-1.5,0.1c0-0.1,0-0.1-0.1-0.8c-0.1-1.3-0.2-1.8-0.2-2.7c0-1.3,0.1-2.1,0.3-3.7c0.1-0.4,0.1-0.7,0.1-0.8l0,0L153.7,178.5z
					 M154,180c0.3,0.1,1,0.1,1.8,0.1c0.2,0,0.3,0,0.7,0c0-0.5,0-0.5,0-1.2c0-0.2,0-0.3,0-0.5h1.5c0,0.3-0.1,0.7-0.1,1.6
					c0.5-0.1,1.1-0.2,1.4-0.3l0.1,1.4c-0.1,0-0.1,0-0.3,0c-0.3,0.1-0.7,0.1-1.1,0.2c0,0.7,0,0.9,0.1,2c0.7,0.3,1,0.4,1.4,0.9
					c0,0,0.1,0.1,0.2,0.1l-0.5,1.5c-0.2-0.2-0.5-0.5-1.1-0.9v0.1c0,0.8-0.8,1.3-2,1.3c-1.3,0-2.1-0.7-2.1-1.6c0-0.5,0.2-1,0.7-1.3
					c0.3-0.2,0.9-0.3,1.4-0.3c0.2,0,0.3,0,0.5,0c0-0.2,0-0.3,0-0.8c0-0.3,0-0.4,0-0.8c-0.2,0-0.3,0-0.5,0s-0.8,0-1.5,0
					c-0.1,0-0.2,0-0.2,0h-0.1L154,180z M156.6,184.4c-0.2-0.1-0.3-0.1-0.5-0.1c-0.4,0-0.7,0.1-0.7,0.4c0,0.2,0.2,0.4,0.5,0.4
					c0.4,0,0.7-0.1,0.7-0.5V184.4z"/>
				<path d="M164.4,178.6c-0.2,0.3-0.3,0.7-1.4,3.4c0.3-0.2,0.8-0.4,1.1-0.4c0.5,0,1.1,0.3,1.2,0.9c0.1,0.3,0.1,0.4,0.1,1.5
					c0,0.7,0.1,0.9,0.4,0.9c0.3,0,0.7-0.2,0.9-0.8c0.2-0.4,0.3-1.1,0.3-1.6c0.5,0.4,0.8,0.7,1.4,0.9c-0.2,1-0.4,1.5-0.8,2.1
					c-0.4,0.7-1.2,1-2.1,1c-0.5,0-1-0.1-1.3-0.4c-0.3-0.3-0.4-0.7-0.4-1.3c0-0.1,0-0.2,0-0.7c0-0.1,0-0.1,0-0.1
					c0-0.4-0.1-0.5-0.3-0.5c-0.4,0-0.9,0.4-1.2,1.2c-0.2,0.5-0.5,1.5-0.7,2.1l-1.6-0.5c0.1-0.3,0.2-0.3,0.8-2c0.1-0.2,0.4-1.1,1-2.7
					c0.8-2.1,0.9-2.6,1-3.1L164.4,178.6z"/>
			</g>
		</g>
		<g>
			<g>
				<g>
					<path class="st157" d="M150.2,158.3c0,0,0,1.1,0,2c0,1.3-5.2,3-11.6,3c-6.4,0-11.6-1.5-11.6-3c0-1.3,0-2,0-2H150.2z"/>
				</g>
				<path class="st158" d="M162.3,138.6c0,4.2-2.5,22.6-23.7,22.6c-21,0-23.7-18.4-23.7-22.6"/>
				<g>
					<path class="st2" d="M142.3,138.6H135c-0.1,1.8-0.1,3.6-0.1,5.6c0,6.8,0.5,12.8,1.3,16.9c0.8,0.1,1.6,0.1,2.5,0.1
						c0.9,0,1.6,0,2.5-0.1c0.8-4.1,1.3-10.2,1.3-16.9C142.4,142.2,142.3,140.4,142.3,138.6z"/>
					<path class="st2" d="M152.1,140.7c-0.3,6.1-2.1,14.7-4.9,19.3c1.9-0.5,3.5-1.3,4.9-2.3c2.6-3.4,5.5-8.9,7.9-17.9L152.1,140.7z"
						/>
					<path class="st2" d="M116.7,139.8c2.2,8.3,4.8,13.6,7.2,17c1.5,1.1,3.3,2.1,5.4,2.9c-2.7-4.6-4.5-13-4.7-19L116.7,139.8z"/>
				</g>
				<ellipse class="st159" cx="138.6" cy="138.6" rx="23.7" ry="7.6"/>
			</g>
			<path class="st160" d="M160.1,138.7c-0.2-1.4-0.7-2.7-1.1-4.1c-3.7-9.2-13.8-13.8-20.4-15.6c-5.3-1.4-14.6,7.2-19.1,15
				c-1.5,2.7-2.5,5.5-2.5,7.5c3.6,2.7,11.9,4.6,21.7,4.6s18.2-1.9,21.8-4.6C160.3,140.7,160.2,139.8,160.1,138.7z"/>
			<path class="st160" d="M124.2,128.2c0.5,1,0.5,2,0,2.2c-0.5,0.3-1.3-0.2-1.9-1.2c-0.5-1-0.5-2,0-2.2
				C122.9,126.7,123.8,127.2,124.2,128.2z"/>
			<path class="st160" d="M129,122.5c0.5,1,0.5,2,0,2.2c-0.5,0.3-1.3-0.2-1.9-1.2c-0.5-1-0.5-2,0-2.2
				C127.7,121.1,128.6,121.6,129,122.5z"/>
			<path class="st160" d="M136.4,119.4c0.5,1,0.5,2,0,2.2c-0.5,0.3-1.3-0.2-1.9-1.2c-0.5-1-0.5-2,0-2.2
				C135.1,117.9,135.8,118.4,136.4,119.4z"/>
			<path class="st160" d="M121.3,133.3c-0.4,1-1.2,1.6-1.8,1.4c-0.5-0.2-0.7-1.2-0.2-2.2c0.4-1,1.2-1.6,1.8-1.4
				C121.5,131.3,121.6,132.3,121.3,133.3z"/>
			<path class="st160" d="M126.8,126.3c-0.4,1-1.2,1.6-1.8,1.4c-0.5-0.2-0.7-1.2-0.2-2.2c0.4-1,1.2-1.6,1.8-1.4
				C127.2,124.4,127.2,125.3,126.8,126.3z"/>
			<path class="st2" d="M134.1,132.4c-0.4,1-1.2,1.6-1.8,1.4s-0.7-1.2-0.2-2.2c0.4-1,1.2-1.6,1.8-1.4
				C134.4,130.4,134.5,131.4,134.1,132.4z"/>
			<path class="st2" d="M128.9,129.2c-0.4,1-1.2,1.6-1.8,1.4c-0.5-0.2-0.7-1.2-0.2-2.2c0.4-1,1.2-1.6,1.8-1.4
				C129.3,127.2,129.4,128.2,128.9,129.2z"/>
			<path class="st2" d="M127.1,138.7c0.4,1,0.4,2-0.1,2.2s-1.3-0.3-1.8-1.3c-0.4-1-0.4-2,0.1-2.2
				C125.7,137.1,126.5,137.7,127.1,138.7z"/>
			<path class="st2" d="M148.7,136.5c0,1.1-0.4,2-1,2s-1.1-0.9-1.1-2c0-1.1,0.4-2,1-2S148.5,135.4,148.7,136.5z"/>
			<path class="st2" d="M143.9,127c0,1.1-0.4,2-1,2s-1.1-0.9-1.1-2c0-1.1,0.4-2,1-2C143.4,125,143.8,125.9,143.9,127z"/>
			<path class="st160" d="M130.9,123c-0.2,1.1-0.9,1.8-1.5,1.6c-0.5-0.1-0.8-1.1-0.5-2.2s0.9-1.8,1.5-1.6
				C130.9,121.1,131.1,121.9,130.9,123z"/>
			<path class="st160" d="M157.9,131.6c-0.2,1.1-0.9,1.8-1.5,1.6c-0.5-0.1-0.8-1.1-0.5-2.2c0.2-1.1,0.9-1.8,1.5-1.6
				C157.9,129.5,158.1,130.5,157.9,131.6z"/>
			<path class="st160" d="M152.6,124.9c0.1,1.1-0.2,2-0.8,2.1c-0.5,0.1-1.2-0.8-1.3-1.8c-0.1-1.1,0.2-2,0.8-2.1
				C151.8,122.9,152.4,123.8,152.6,124.9z"/>
			<path class="st160" d="M154.1,126.4c0.8,0.8,1.1,1.8,0.7,2.1c-0.4,0.4-1.3,0.1-2.1-0.7c-0.8-0.8-1.1-1.8-0.7-2.1
				C152.4,125.5,153.4,125.7,154.1,126.4z"/>
			<path class="st160" d="M141.6,119.2c0.8,0.8,1.1,1.8,0.7,2.1c-0.4,0.4-1.3,0.1-2.1-0.7s-1.1-1.8-0.7-2.1
				C140,118.1,140.9,118.4,141.6,119.2z"/>
			<path class="st160" d="M149.4,123c0.4,1,0.4,2-0.1,2.2c-0.5,0.2-1.3-0.3-1.9-1.3c-0.4-1-0.4-2,0.1-2.2
				C148.1,121.5,148.9,122.2,149.4,123z"/>
			<path class="st160" d="M145.7,120.5c0.4,1,0.4,2-0.1,2.2s-1.3-0.3-1.9-1.3c-0.4-1-0.4-2,0.1-2.2
				C144.4,119,145.3,119.5,145.7,120.5z"/>
		</g>
		<path class="st161" d="M162.3,138.6c0,4.2-10.6,7.6-23.7,7.6s-23.7-3.4-23.7-7.6"/>
	</g>
</g>
</svg>
