<?xml version="1.0" encoding="utf-8"?>
<!-- Generator: Adobe Illustrator 24.0.1, SVG Export Plug-In . SVG Version: 6.00 Build 0)  -->
<svg version="1.1" id="レイヤー_1" xmlns="http://www.w3.org/2000/svg" xmlns:xlink="http://www.w3.org/1999/xlink" x="0px"
	 y="0px" viewBox="0 0 553 265.4" style="enable-background:new 0 0 553 265.4;" xml:space="preserve">
<style type="text/css">
	.st0{fill:#FEFCEE;}
	.st1{fill:#BABABA;}
	.st2{fill:#FFFFFF;}
	.st3{fill:none;stroke:#6B1319;stroke-width:0.3593;stroke-miterlimit:10;}
	.st4{fill:#F4F4F5;}
	.st5{fill:#F9F5D2;}
	.st6{enable-background:new    ;}
	.st7{fill:#040000;}
	.st8{fill:#E6E6E5;}
	.st9{fill:#CFE7F2;}
	.st10{fill:#3794C4;}
	.st11{fill:#727171;}
	.st12{fill:#F7F9FA;}
	.st13{fill:#48A6CE;}
	.st14{fill:url(#SVGID_8_);}
	.st15{fill:none;stroke:#221714;stroke-width:0.1875;}
	.st16{fill:url(#SVGID_9_);}
	.st17{fill:url(#SVGID_10_);}
	.st18{fill:url(#SVGID_11_);}
	.st19{fill:url(#SVGID_12_);}
	.st20{fill:url(#SVGID_13_);}
	.st21{fill:url(#SVGID_14_);}
	.st22{fill:url(#SVGID_15_);}
	.st23{fill:url(#SVGID_16_);}
	.st24{fill:url(#SVGID_17_);}
	.st25{fill:url(#SVGID_18_);}
	.st26{fill:url(#SVGID_19_);}
	.st27{fill:url(#SVGID_20_);}
	.st28{fill:url(#SVGID_21_);}
	.st29{fill:url(#SVGID_22_);}
	.st30{fill:url(#SVGID_23_);}
	.st31{fill:url(#SVGID_24_);}
	.st32{fill:#F0EFEE;}
	.st33{fill:url(#SVGID_25_);}
	.st34{fill:url(#SVGID_26_);}
	.st35{fill:url(#SVGID_27_);}
	.st36{fill:url(#SVGID_28_);}
	.st37{fill:url(#SVGID_29_);}
	.st38{fill:url(#SVGID_30_);}
	.st39{fill:url(#SVGID_31_);}
	.st40{fill:url(#SVGID_32_);}
	.st41{fill:url(#SVGID_33_);}
	.st42{fill:url(#SVGID_34_);}
	.st43{fill:url(#SVGID_35_);}
	.st44{fill:url(#SVGID_36_);}
	.st45{fill:url(#SVGID_37_);}
	.st46{fill:url(#SVGID_38_);}
	.st47{fill:url(#SVGID_39_);}
	.st48{fill:url(#SVGID_41_);}
	.st49{fill:url(#SVGID_42_);}
	.st50{fill:url(#SVGID_43_);}
	.st51{fill:url(#SVGID_44_);}
	.st52{fill:url(#SVGID_45_);}
	.st53{fill:url(#SVGID_46_);}
	.st54{fill:url(#SVGID_47_);}
	.st55{fill:url(#SVGID_48_);}
	.st56{fill:url(#SVGID_49_);}
	.st57{fill:url(#SVGID_50_);}
	.st58{fill:url(#SVGID_51_);}
	.st59{fill:url(#SVGID_52_);}
	.st60{fill:url(#SVGID_53_);}
	.st61{fill:url(#SVGID_54_);}
	.st62{fill:url(#SVGID_55_);}
	.st63{fill:url(#SVGID_56_);}
	.st64{fill:url(#SVGID_57_);}
	.st65{fill:url(#SVGID_58_);}
	.st66{fill:url(#SVGID_59_);}
	.st67{fill:#3E3A39;}
	.st68{fill:#C6BA9A;}
	.st69{fill:#D6CCB5;}
	.st70{fill:#B5B5B6;}
	.st71{fill:#F0EFEF;}
	.st72{fill:#595857;}
	.st73{fill:#DCDDDD;}
	.st74{fill:#CCAC69;}
	.st75{fill:#C9CACA;}
	.st76{fill:#9FA0A0;}
	.st77{fill:#8A8A8A;}
	.st78{opacity:0.75;}
	.st79{fill:#B81C25;}
	.st80{fill:#DE551A;}
	.st81{fill:#E99413;}
	.st82{fill:#F7F9F9;}
	.st83{fill:#E83514;}
	.st84{fill:url(#SVGID_60_);}
	.st85{fill:url(#SVGID_61_);}
	.st86{fill:url(#SVGID_62_);}
	.st87{fill:url(#SVGID_63_);}
	.st88{fill:url(#SVGID_64_);}
	.st89{fill:url(#SVGID_65_);}
	.st90{stroke:#000000;stroke-width:3.0472;stroke-linecap:round;stroke-linejoin:round;stroke-miterlimit:10;}
	.st91{fill:url(#SVGID_66_);stroke:#000000;stroke-width:1.0157;stroke-linecap:round;stroke-linejoin:round;}
	.st92{fill:url(#SVGID_67_);stroke:#000000;stroke-width:1.0157;stroke-linecap:round;stroke-linejoin:round;}
	.st93{fill:url(#SVGID_68_);stroke:#000000;stroke-width:1.0157;stroke-linecap:round;stroke-linejoin:round;}
	.st94{opacity:0.4;fill:#FFFFFF;enable-background:new    ;}
	.st95{fill:none;}
	.st96{fill:#FFFEEE;}
	.st97{fill:none;stroke:#F7EFB8;stroke-width:0.5079;}
	.st98{fill:none;stroke:#F7EFB8;stroke-width:0.2539;stroke-miterlimit:10;}
	.st99{fill:none;stroke:#000000;stroke-width:0.2437;stroke-miterlimit:10;}
	.st100{fill:none;stroke:#000000;stroke-width:1.0157;stroke-linecap:round;stroke-linejoin:round;}
	.st101{fill-rule:evenodd;clip-rule:evenodd;}
	.st102{fill:none;stroke:#000000;stroke-width:0.5079;stroke-miterlimit:10;}
	.st103{fill-rule:evenodd;clip-rule:evenodd;fill:url(#SVGID_69_);}
	.st104{opacity:0.9;fill:#E60012;enable-background:new    ;}
	.st105{fill:#DCDBDA;}
	.st106{opacity:0.9;fill:#FFFFFF;enable-background:new    ;}
	.st107{opacity:0.3;fill:#FFFFFF;enable-background:new    ;}
	.st108{fill:#7E7977;}
	.st109{fill:#EEEAD0;}
	.st110{fill:#DDD9C2;}
	.st111{fill:#D3A243;}
	.st112{fill:none;stroke:#E5E3DA;stroke-width:0.5079;stroke-linecap:round;stroke-linejoin:round;}
	.st113{fill:#CDA774;}
	.st114{fill:#DDB887;}
	.st115{fill:#F3EBDF;}
	.st116{fill:#F8F0E4;}
	.st117{fill:#ECECEC;}
	.st118{fill:url(#SVGID_70_);}
	.st119{fill:url(#SVGID_71_);}
	.st120{fill:#E60012;}
	.st121{fill:#E5D32D;stroke:#A38A77;stroke-width:0.2737;stroke-miterlimit:10;}
	.st122{fill:#E3D172;stroke:#C79F62;stroke-width:0.2737;stroke-miterlimit:10;}
	.st123{fill:#E3D172;}
	.st124{fill:#EEEEEF;stroke:#C8C9CA;stroke-width:0.2052;stroke-miterlimit:10;}
	.st125{fill:#804F21;}
	.st126{fill:none;stroke:#A38A77;stroke-width:0.2737;stroke-miterlimit:10;}
	.st127{fill:none;stroke:#E5D32D;stroke-width:0.5473;stroke-miterlimit:10;}
	.st128{fill:#DBDCDC;stroke:#C4C7C4;stroke-width:0.2737;stroke-miterlimit:10;}
	.st129{fill:#EEEEEF;}
	.st130{fill:#E8E8DC;}
	.st131{fill:#E62C0F;}
	.st132{fill:#F7B52C;stroke:#DB9F09;stroke-width:0.2737;stroke-miterlimit:10;}
	.st133{fill:#44AF35;stroke:#448A3E;stroke-width:0.2737;stroke-miterlimit:10;}
	.st134{fill:#734C22;}
	.st135{fill:none;stroke:#FFFFFF;stroke-width:1.3684;}
	.st136{fill:#946134;}
	.st137{fill:#231815;}
	.st138{fill:#C79F62;stroke:#946134;stroke-width:4.194518e-02;}
	.st139{fill:none;stroke:#946134;stroke-width:4.194518e-02;}
	.st140{fill:#40210F;stroke:#946134;stroke-width:4.194518e-02;}
	.st141{fill:#FFFFFF;stroke:#6A3906;stroke-width:4.194518e-02;}
	.st142{fill:url(#SVGID_72_);}
	.st143{fill:url(#SVGID_73_);}
	.st144{fill:url(#SVGID_74_);}
	.st145{fill:none;stroke:#F0D958;stroke-width:1.0893;stroke-linecap:round;stroke-linejoin:round;stroke-miterlimit:10;}
	.st146{fill:none;stroke:#DD5F1A;stroke-width:1.6341;stroke-linecap:round;stroke-linejoin:round;stroke-miterlimit:10;}
	.st147{fill:#006934;}
	.st148{fill:#DBDCDC;}
	.st149{fill:#BEC2BF;stroke:#B2B4B1;stroke-width:0.2127;stroke-linecap:round;stroke-linejoin:round;}
	.st150{fill:none;stroke:#F0D958;stroke-width:0.8506;stroke-linecap:round;stroke-linejoin:round;stroke-miterlimit:10;}
	.st151{fill:none;stroke:#DD5F1A;stroke-width:1.2759;stroke-linecap:round;stroke-linejoin:round;stroke-miterlimit:10;}
	.st152{fill:none;stroke:#E60012;stroke-width:0.1532;stroke-miterlimit:10;}
	.st153{fill:none;stroke:#E60012;stroke-width:0.1532;stroke-miterlimit:10;stroke-dasharray:0.7747,0.7747;}
	.st154{fill:none;stroke:#000000;stroke-width:0.1532;stroke-miterlimit:10;}
	.st155{fill:none;stroke:#000000;stroke-width:1.0962;stroke-miterlimit:10;}
	.st156{fill:#C9A063;stroke:#000000;stroke-width:1.494;stroke-miterlimit:10;}
	.st157{fill:#008ABD;}
	.st158{fill:#5CB9D3;}
	.st159{fill:#BFC0C0;}
	.st160{fill:#FBF8EA;}
	.st161{fill:none;stroke:#000000;stroke-width:0.6647;}
	.st162{fill:#036EB8;}
	.st163{fill:#EA5514;}
	.st164{clip-path:url(#SVGID_76_);}
	.st165{fill:url(#SVGID_77_);}
	.st166{fill:url(#SVGID_78_);}
	.st167{fill:url(#SVGID_79_);}
	.st168{fill:url(#SVGID_80_);}
	.st169{fill:url(#SVGID_81_);}
	.st170{fill:url(#SVGID_82_);}
	.st171{fill:url(#SVGID_83_);}
	.st172{fill:url(#SVGID_84_);}
	.st173{fill:url(#SVGID_85_);}
	.st174{fill:url(#SVGID_86_);}
	.st175{fill:url(#SVGID_87_);}
	.st176{fill:url(#SVGID_88_);}
	.st177{fill:url(#SVGID_89_);}
	.st178{fill:url(#SVGID_90_);}
	.st179{fill:url(#SVGID_91_);}
	.st180{fill:url(#SVGID_92_);}
	.st181{fill:url(#SVGID_93_);}
	.st182{fill:url(#SVGID_94_);}
	.st183{fill:url(#SVGID_95_);}
	.st184{fill:url(#SVGID_96_);}
	.st185{fill:url(#SVGID_97_);}
	.st186{fill:url(#SVGID_98_);}
	.st187{fill:url(#SVGID_99_);}
	.st188{fill:url(#SVGID_100_);}
	.st189{fill:url(#SVGID_101_);}
	.st190{fill:url(#SVGID_102_);}
	.st191{fill:url(#SVGID_103_);}
	.st192{fill:url(#SVGID_104_);}
	.st193{fill:url(#SVGID_105_);}
	.st194{fill:url(#SVGID_106_);}
	.st195{fill:url(#SVGID_107_);}
	.st196{fill:url(#SVGID_108_);}
	.st197{fill:url(#SVGID_109_);}
	.st198{fill:url(#SVGID_110_);}
	.st199{fill:url(#SVGID_111_);}
	.st200{clip-path:url(#SVGID_113_);}
	.st201{fill:#B28247;}
	.st202{fill:#FFF100;}
	.st203{fill:#8FC31F;}
	.st204{fill:#EAE5E3;}
	.st205{fill:#BEB1AA;}
	.st206{clip-path:url(#SVGID_115_);}
	.st207{fill:url(#SVGID_116_);}
	.st208{fill:url(#SVGID_117_);}
	.st209{fill:url(#SVGID_118_);}
	.st210{fill:url(#SVGID_119_);}
	.st211{fill:url(#SVGID_120_);}
	.st212{fill:url(#SVGID_121_);}
	.st213{fill:url(#SVGID_122_);}
	.st214{fill:url(#SVGID_123_);}
	.st215{fill:url(#SVGID_124_);}
	.st216{fill:url(#SVGID_125_);}
	.st217{fill:url(#SVGID_126_);}
	.st218{fill:url(#SVGID_127_);}
	.st219{fill:url(#SVGID_128_);}
	.st220{fill:url(#SVGID_129_);}
	.st221{fill:url(#SVGID_130_);}
	.st222{fill:url(#SVGID_131_);}
	.st223{fill:#FFF9E8;}
	.st224{opacity:0.5;fill:url(#);enable-background:new    ;}
	.st225{clip-path:url(#SVGID_136_);}
	.st226{clip-path:url(#SVGID_137_);}
	.st227{fill:#FCE1B9;}
	.st228{fill:#DFCD8C;}
	.st229{fill:#EADDB0;}
	.st230{fill:#6C1317;}
	.st231{fill:#5C070C;}
	.st232{fill:#8A4000;}
	.st233{fill:#9C0109;}
	.st234{fill:#8A0001;}
	.st235{fill:url(#SVGID_138_);}
	.st236{clip-path:url(#SVGID_143_);}
	.st237{clip-path:url(#SVGID_144_);}
	.st238{fill:#9C0109;stroke:#FFFFFF;stroke-width:0.8745;stroke-miterlimit:10;}
	.st239{fill:url(#SVGID_145_);}
	.st240{fill:#CF1126;}
	.st241{fill:#F4F3F1;}
	.st242{fill:#C30D23;}
	.st243{fill:#CCCCCC;}
	.st244{clip-path:url(#SVGID_147_);}
	.st245{fill:#C8C9CA;}
	.st246{clip-path:url(#SVGID_149_);}
	.st247{fill:#803220;}
	.st248{fill:#EEAA3D;}
	.st249{fill:#E29223;}
	.st250{fill:#944024;}
	.st251{fill:#B15022;}
	.st252{fill:#D18215;}
	.st253{fill:#FAED00;}
	.st254{fill:#1EAA39;}
	.st255{fill:#169530;}
	.st256{fill:none;stroke:#FFFFFF;stroke-miterlimit:10;}
	.st257{clip-path:url(#SVGID_151_);}
	.st258{clip-path:url(#SVGID_153_);}
	.st259{fill:#FCD006;}
	.st260{fill:#604C3F;}
	.st261{fill:#C79F62;}
	.st262{fill:#FDEABE;}
	.st263{fill:#E95504;}
	.st264{fill:#C11920;}
	.st265{fill:url(#SVGID_154_);}
	.st266{fill:url(#SVGID_155_);}
	.st267{fill:#5D8AA2;}
	.st268{fill:#267EAF;}
	.st269{fill:none;stroke:#D9B556;stroke-width:0.6193;stroke-miterlimit:10;}
	.st270{fill:#D9B556;}
	.st271{fill:#0E2F8F;}
	.st272{fill:url(#SVGID_156_);}
	.st273{fill:url(#SVGID_157_);}
	.st274{fill:url(#SVGID_158_);}
	.st275{fill:#755F43;}
	.st276{fill:#CD6829;}
	.st277{fill:#E08030;}
	.st278{fill:#F7F8F8;}
	.st279{fill:#E9E5E2;}
	.st280{fill:#9E9E9F;}
	.st281{fill:url(#SVGID_159_);}
	.st282{clip-path:url(#SVGID_161_);fill:#FBD6A0;}
	.st283{fill:#D1A26C;}
	.st284{fill:#FDEBD1;}
	.st285{fill:url(#SVGID_162_);}
	.st286{fill:#888888;}
	.st287{fill:#B4B4B5;}
	.st288{fill:#E6BE98;}
	.st289{fill:#BAE2F8;}
	.st290{fill:#182987;}
	.st291{fill:#3071B7;}
	.st292{clip-path:url(#SVGID_164_);fill:#F7B52C;}
	.st293{fill:#F7F9F9;stroke:#727171;stroke-width:0.1726;stroke-miterlimit:10;}
	.st294{fill:#C39717;}
	.st295{fill:#CC172C;}
	.st296{fill:#E73828;}
	.st297{fill:#F7B52C;}
	.st298{clip-path:url(#SVGID_166_);}
	.st299{fill:#D2A143;}
	.st300{fill:#B48626;}
	.st301{fill:#9C751E;}
	.st302{fill:#8DC21F;}
	.st303{fill:#00913A;}
	.st304{fill:#E95513;}
	.st305{clip-path:url(#SVGID_168_);}
	.st306{fill:#BDA661;}
	.st307{fill:#C9B168;}
	.st308{fill:url(#SVGID_169_);}
	.st309{fill:url(#SVGID_170_);}
	.st310{fill:url(#SVGID_171_);}
	.st311{fill:url(#SVGID_172_);}
	.st312{fill:url(#SVGID_173_);}
	.st313{fill:url(#SVGID_174_);}
	.st314{fill:url(#SVGID_175_);}
	.st315{fill:url(#SVGID_176_);}
	.st316{fill:url(#SVGID_177_);}
	.st317{fill:url(#SVGID_178_);}
	.st318{fill:url(#SVGID_179_);}
	.st319{fill:url(#SVGID_180_);}
	.st320{fill:url(#SVGID_181_);}
	.st321{fill:url(#SVGID_182_);}
	.st322{fill:url(#SVGID_183_);}
	.st323{fill:url(#SVGID_184_);}
	.st324{fill:url(#SVGID_185_);}
	.st325{fill:url(#SVGID_186_);}
	.st326{fill:url(#SVGID_187_);}
	.st327{fill:url(#SVGID_188_);}
	.st328{fill:url(#SVGID_189_);}
	.st329{fill:url(#SVGID_190_);}
	.st330{fill:url(#SVGID_191_);}
	.st331{fill:url(#SVGID_192_);}
	.st332{fill:url(#SVGID_193_);}
	.st333{fill:url(#SVGID_194_);}
	.st334{fill:url(#SVGID_195_);}
	.st335{fill:url(#SVGID_196_);}
	.st336{fill:url(#SVGID_197_);}
	.st337{fill:url(#SVGID_198_);}
	.st338{fill:url(#SVGID_199_);}
	.st339{fill:url(#SVGID_200_);}
	.st340{fill:url(#SVGID_201_);}
	.st341{fill:url(#SVGID_202_);}
	.st342{fill:url(#SVGID_203_);}
	.st343{fill:url(#SVGID_204_);}
	.st344{fill:url(#SVGID_205_);}
	.st345{fill:url(#SVGID_206_);}
	.st346{fill:url(#SVGID_207_);}
	.st347{fill:url(#SVGID_208_);}
	.st348{fill:url(#SVGID_209_);}
	.st349{fill:url(#SVGID_210_);}
	.st350{fill:url(#SVGID_211_);}
	.st351{fill:url(#SVGID_212_);}
	.st352{fill:url(#SVGID_213_);}
	.st353{fill:url(#SVGID_214_);}
	.st354{fill:url(#SVGID_215_);}
	.st355{fill:url(#SVGID_216_);}
	.st356{fill:url(#SVGID_217_);}
	.st357{fill:url(#SVGID_218_);}
	.st358{fill:url(#SVGID_219_);}
	.st359{fill:url(#SVGID_220_);}
	.st360{fill:url(#SVGID_221_);}
	.st361{fill:url(#SVGID_222_);}
	.st362{fill:url(#SVGID_223_);}
	.st363{fill:url(#SVGID_224_);}
	.st364{fill:url(#SVGID_225_);}
	.st365{fill:url(#SVGID_226_);stroke:#000000;stroke-width:1.0157;stroke-linecap:round;stroke-linejoin:round;}
	.st366{fill:url(#SVGID_227_);stroke:#000000;stroke-width:1.0157;stroke-linecap:round;stroke-linejoin:round;}
	.st367{fill:url(#SVGID_228_);stroke:#000000;stroke-width:1.0157;stroke-linecap:round;stroke-linejoin:round;}
	.st368{fill-rule:evenodd;clip-rule:evenodd;fill:url(#SVGID_229_);}
	.st369{fill:url(#SVGID_230_);}
	.st370{fill:url(#SVGID_231_);}
	.st371{fill:url(#SVGID_232_);}
	.st372{fill:url(#SVGID_233_);}
	.st373{fill:url(#SVGID_234_);}
	.st374{clip-path:url(#SVGID_236_);}
	.st375{fill:url(#SVGID_237_);}
	.st376{fill:url(#SVGID_238_);}
	.st377{fill:url(#SVGID_239_);}
	.st378{fill:url(#SVGID_240_);}
	.st379{fill:url(#SVGID_241_);}
	.st380{fill:url(#SVGID_242_);}
	.st381{fill:url(#SVGID_243_);}
	.st382{fill:url(#SVGID_244_);}
	.st383{fill:url(#SVGID_245_);}
	.st384{fill:url(#SVGID_246_);}
	.st385{fill:url(#SVGID_247_);}
	.st386{fill:url(#SVGID_248_);}
	.st387{fill:url(#SVGID_249_);}
	.st388{fill:url(#SVGID_250_);}
	.st389{fill:url(#SVGID_251_);}
	.st390{fill:url(#SVGID_252_);}
	.st391{fill:url(#SVGID_253_);}
	.st392{fill:url(#SVGID_254_);}
	.st393{fill:url(#SVGID_255_);}
	.st394{fill:url(#SVGID_256_);}
	.st395{fill:url(#SVGID_257_);}
	.st396{fill:url(#SVGID_258_);}
	.st397{fill:url(#SVGID_259_);}
	.st398{fill:url(#SVGID_260_);}
	.st399{fill:url(#SVGID_261_);}
	.st400{fill:url(#SVGID_262_);}
	.st401{fill:url(#SVGID_263_);}
	.st402{fill:url(#SVGID_264_);}
	.st403{fill:url(#SVGID_265_);}
	.st404{fill:url(#SVGID_266_);}
	.st405{fill:url(#SVGID_267_);}
	.st406{fill:url(#SVGID_268_);}
	.st407{fill:url(#SVGID_269_);}
	.st408{fill:url(#SVGID_270_);}
	.st409{fill:url(#SVGID_271_);}
	.st410{clip-path:url(#SVGID_273_);}
	.st411{clip-path:url(#SVGID_275_);}
	.st412{fill:url(#SVGID_276_);}
	.st413{fill:url(#SVGID_277_);}
	.st414{fill:url(#SVGID_278_);}
	.st415{fill:url(#SVGID_279_);}
	.st416{fill:url(#SVGID_280_);}
	.st417{fill:url(#SVGID_281_);}
	.st418{fill:url(#SVGID_282_);}
	.st419{fill:url(#SVGID_283_);}
	.st420{fill:url(#SVGID_284_);}
	.st421{fill:url(#SVGID_285_);}
	.st422{fill:url(#SVGID_286_);}
	.st423{fill:url(#SVGID_287_);}
	.st424{fill:url(#SVGID_288_);}
	.st425{fill:url(#SVGID_289_);}
	.st426{fill:url(#SVGID_290_);}
	.st427{fill:url(#SVGID_291_);}
	.st428{clip-path:url(#SVGID_296_);}
	.st429{clip-path:url(#SVGID_297_);}
	.st430{fill:url(#SVGID_298_);}
	.st431{clip-path:url(#SVGID_303_);}
	.st432{clip-path:url(#SVGID_304_);}
	.st433{fill:url(#SVGID_305_);}
	.st434{clip-path:url(#SVGID_307_);}
	.st435{clip-path:url(#SVGID_309_);}
	.st436{clip-path:url(#SVGID_311_);}
	.st437{clip-path:url(#SVGID_313_);}
	.st438{fill:url(#SVGID_314_);}
	.st439{fill:url(#SVGID_315_);}
	.st440{fill:url(#SVGID_316_);}
	.st441{fill:url(#SVGID_317_);}
	.st442{fill:url(#SVGID_318_);}
	.st443{fill:url(#SVGID_319_);}
	.st444{clip-path:url(#SVGID_321_);fill:#FBD6A0;}
	.st445{fill:url(#SVGID_322_);}
	.st446{clip-path:url(#SVGID_324_);fill:#F7B52C;}
	.st447{clip-path:url(#SVGID_326_);}
	.st448{clip-path:url(#SVGID_328_);}
</style>
<g>
	<rect y="0" class="st0" width="553" height="265.4"/>
</g>
<g>
	<path class="st1" d="M178.5,228.1H57.8c-7.4,0-13.4-6-13.4-13.4V53.1c0-7.4,6-13.4,13.4-13.4h120.7c7.4,0,13.4,6,13.4,13.4v161.6
		C191.9,222.1,185.9,228.1,178.5,228.1z"/>
	<path class="st2" d="M175.5,225.9H54.8c-7.4,0-13.4-6-13.4-13.4V50.9c0-7.4,6-13.4,13.4-13.4h120.7c7.4,0,13.4,6,13.4,13.4v161.6
		C188.9,219.9,182.9,225.9,175.5,225.9z"/>
	<path class="st3" d="M41.4,212.4V50.9c0-7.4,6-13.4,13.4-13.4h120.7"/>
</g>
<g>
	<g>
		<path class="st8" d="M116.5,99.3c0,2.6,0,4,0,4l0,0v0.1c0,0.1,0,0.2,0.1,0.3c0-1.5,0-2.8,0-4.1C116.7,99.5,116.5,99.4,116.5,99.3z
			"/>
		<path class="st8" d="M116.5,128.1c0,2.6,0,4,0,4l0,0v0.1c0,0.1,0,0.2,0.1,0.3c0-1.3,0-2.8,0-4.1
			C116.5,128.4,116.5,128.3,116.5,128.1z"/>
		<path class="st9" d="M142.2,137.8c-13.7-0.1-24.9-2.1-25.9-4.4c-0.1,12.1-0.2,24.5-0.2,33.5c0.7,0.2,1.3,0.8,1.3,1.6
			c0,0.7-0.6,1.3-1.3,1.6c0,6.3-0.1,10.2-0.1,10.2l0,0v0.1c0,2.2,11.4,4.1,25.6,4.2c14.1,0.1,25.6-1.6,25.6-3.9v-0.1l0,0
			c0,0,0-4,0.1-10.4c-0.6-0.3-1-0.8-1-1.5c0-0.6,0.3-1.1,1-1.5c0.1-8.9,0.2-21,0.3-33C165.3,136.3,154.8,137.8,142.2,137.8z"/>
		<path class="st9" d="M142.5,104.6c12.6,0.1,23.1-2.6,25.5-3.2c0-1.3,0-2.6,0-3.7c-0.6-0.2-1-0.8-1-1.5s0.3-1.1,1-1.5
			c0-2.1,0-3.4,0-3.9c-0.1-5.2-16.8-20.4-16.8-20.4l-16.8-0.1c0,0-16.6,13.6-17.5,20.1c0,0,0,1.5,0,3.7c0.8,0.2,1.3,0.8,1.3,1.6
			c0,0.7-0.6,1.3-1.3,1.6c0,0.8,0,1.8,0,2.8C117.9,102.7,128.9,104.6,142.5,104.6z"/>
		<path class="st10" d="M142.5,108.7c-13.6,0-24.6-1.9-25.9-4.2c0,6.9-0.1,15.7-0.2,24.7c1,2.4,12.1,4.4,25.9,4.4
			c12.6,0.1,23-2.6,25.5-3.2c0.1-9.2,0.1-18.1,0.2-25.1C165.7,107.3,155.1,108.9,142.5,108.7z"/>
		<path class="st8" d="M167.9,105.3c0.3-0.2,0.5-0.6,0.5-0.8v-0.1l0,0v-2.9c0,0-0.1,0-0.5,0.1C167.9,102.7,167.9,103.9,167.9,105.3z
			"/>
		<path class="st10" d="M142.4,108.7c12.6,0.1,23.1-1.5,25.5-3.5c0-1.3,0-2.7,0-3.7c-2.3,0.6-12.9,3.2-25.5,3.2
			c-13.4-0.1-24.5-2.1-25.7-4.4c0,1.3,0,2.7,0,4.1C117.9,106.8,128.9,108.7,142.4,108.7z"/>
		<path class="st11" d="M142.4,108.7c12.6,0.1,23.1-1.5,25.5-3.5c0-1.3,0-2.7,0-3.7c-2.3,0.6-12.9,3.2-25.5,3.2
			c-13.4-0.1-24.5-2.1-25.7-4.4c0,1.3,0,2.7,0,4.1C117.9,106.8,128.9,108.7,142.4,108.7z"/>
		<path class="st8" d="M168.2,133.4L168.2,133.4L168.2,133.4v-3.1c0,0-0.1,0.1-0.5,0.1c0,1.3,0,2.6,0,3.9
			C167.9,133.9,168.2,133.6,168.2,133.4z"/>
		<path class="st10" d="M116.5,129.1c0,1.3,0,2.8,0,4.1c1,2.4,12.1,4.4,25.9,4.4c12.5,0.1,23-1.5,25.5-3.5c0-1.3,0-2.6,0-3.9
			c-2.3,0.6-12.9,3.2-25.5,3.2C128.6,133.4,117.4,131.5,116.5,129.1z"/>
		<path class="st11" d="M116.5,129.1c0,1.3,0,2.8,0,4.1c1,2.4,12.1,4.4,25.9,4.4c12.5,0.1,23-1.5,25.5-3.5c0-1.3,0-2.6,0-3.9
			c-2.3,0.6-12.9,3.2-25.5,3.2C128.6,133.4,117.4,131.5,116.5,129.1z"/>
		<path class="st12" d="M167,96.2c0-0.6,0.3-1.1,1-1.5c0-0.2,0-0.6,0-0.8c-4.2,1-14.1,2.7-25.6,2.7c-11.5-0.1-21.3-1.2-25.6-2.8
			c0,0.1,0,0.3,0,0.5c0.8,0.2,1.3,0.8,1.3,1.6c0,0.7-0.6,1.3-1.3,1.6c0,0.1,0,0.1,0,0.2c4.2,1.6,14.1,2.8,25.6,2.8
			c11.5,0.1,21.3-1,25.6-2.4c0-0.1,0-0.2,0-0.3C167.4,97.5,167,96.9,167,96.2z"/>
		<path class="st12" d="M166.5,168.7c0-0.6,0.3-1.1,1-1.5c0-0.2,0-0.6,0-0.8c-4.2,1-14.1,2.7-25.6,2.7c-11.5-0.1-21.3-1.2-25.6-2.8
			c0,0.1,0,0.3,0,0.5c0.8,0.2,1.3,0.8,1.3,1.6s-0.6,1.3-1.3,1.6c0,0.1,0,0.1,0,0.2c4.2,1.6,14.1,2.8,25.6,2.8
			c11.5,0.1,21.3-1,25.6-2.4c0-0.1,0-0.2,0-0.3C166.9,169.8,166.5,169.3,166.5,168.7z"/>
		<g>
			<path class="st12" d="M133,115.5c-0.8,3.2-1.7,6.2-2.4,9.4c-0.7-0.1-1.3-0.1-2.1-0.2c-0.2-1.3-0.6-2.8-0.8-4.1
				c-0.2-1-0.3-2.1-0.5-3.2l0,0c-0.1,1.1-0.3,1.9-0.6,2.9c-0.3,1.3-0.7,2.7-1,3.9c-0.7-0.1-1.3-0.1-2.1-0.2
				c-0.7-3.2-1.5-6.6-2.2-9.8c0.7,0.1,1.3,0.2,2.1,0.3c0.2,1.5,0.5,2.8,0.7,4.2c0.2,1.2,0.3,2.4,0.5,3.4l0,0
				c0.1-1.1,0.3-2.1,0.7-3.2c0.3-1.3,0.6-2.7,1-4c0.6,0.1,1.3,0.1,1.9,0.2c0.2,1.5,0.6,2.8,0.8,4.2c0.2,1.1,0.3,2.2,0.5,3.4l0,0
				c0.1-1.1,0.3-2.2,0.6-3.2c0.2-1.3,0.6-2.7,0.8-4C131.7,115.5,132.5,115.5,133,115.5z"/>
			<path class="st12" d="M141.5,125.3c-0.7,0-1.3,0-2.1,0c-0.2-0.8-0.5-1.7-0.7-2.6c-0.8,0-1.8-0.1-2.7-0.1
				c-0.2,0.8-0.5,1.7-0.7,2.4c-0.6,0-1.3-0.1-1.9-0.1c1-3.2,1.9-6.2,2.9-9.4c0.8,0,1.6,0.1,2.4,0.1
				C139.8,119,140.7,122.2,141.5,125.3z M138.5,121.5c-0.2-0.7-0.3-1.5-0.6-2.2c-0.1-0.6-0.3-1.3-0.5-1.9l0,0
				c-0.1,0.6-0.3,1.3-0.5,1.9c-0.2,0.7-0.3,1.5-0.6,2.2C137.2,121.3,137.9,121.3,138.5,121.5z"/>
			<path class="st12" d="M149,117.4c-0.8,0-1.7,0-2.6,0.1c0,2.7,0,5.3,0,8c-0.6,0-1.3,0-1.9,0c0-2.7,0-5.3,0-8c-0.8,0-1.7,0-2.6,0
				c0-0.5,0-1.1,0-1.6c2.3,0,4.6,0,6.9-0.1C149,116.4,149,116.9,149,117.4z"/>
			<path class="st12" d="M155.8,124.9c-1.9,0.1-3.7,0.2-5.7,0.3c0-3.2,0-6.3,0.1-9.6c1.8-0.1,3.6-0.2,5.5-0.3c0,0.5,0,1,0,1.6
				c-1.2,0.1-2.3,0.1-3.5,0.2c0,0.7,0,1.6,0,2.3c1.1-0.1,2.2-0.1,3.2-0.2c0,0.5,0,1,0,1.5c-1.1,0.1-2.2,0.1-3.2,0.2
				c0,0.8,0,1.8,0,2.7c1.2-0.1,2.4-0.1,3.7-0.2C155.8,123.9,155.8,124.4,155.8,124.9z"/>
			<path class="st12" d="M162.1,119.8c0.7,0.1,1.1,0.7,1.3,1.7c0.2,1.1,0.5,2.2,0.7,2.6c-0.6,0.1-1.3,0.2-1.9,0.2
				c-0.1-0.2-0.3-1.1-0.6-2.2c-0.2-1.2-0.6-1.6-1.6-1.5c-0.2,0-0.5,0-0.6,0.1c0,1.3,0,2.6,0,3.9c-0.6,0.1-1.3,0.1-1.9,0.2
				c0-3.2,0-6.3,0.1-9.5c0.7-0.1,1.6-0.3,2.6-0.5c1.3-0.1,3.9-0.3,3.9,2.2C163.9,118.4,163,119.3,162.1,119.8L162.1,119.8z
				 M160.1,119.3c1.1-0.1,1.8-0.8,1.8-1.7c0-1.2-1-1.3-1.7-1.2c-0.5,0-0.7,0.1-0.8,0.1c0,1,0,1.9,0,2.9
				C159.6,119.3,159.8,119.3,160.1,119.3z"/>
		</g>
		<path class="st10" d="M153.4,72.3c0,0-4.2,2.3-10.9,2.2c-6.6,0-10.9-2.3-10.9-2.3l0.1-11.3l22,0.1L153.4,72.3z"/>
		<path class="st13" d="M153.5,61.1c0,1.3-5,2.4-10.9,2.3c-6.1,0-10.9-1.2-10.9-2.6c0-1.3,5-2.4,10.9-2.3
			C148.7,58.7,153.5,59.7,153.5,61.1z"/>
		<g>
			<g>
				<path class="st15" d="M132.5,63.1c0,2.4,0,4.8,0,7.4"/>
			</g>
			<g>
				<path class="st15" d="M133.6,63.4c0,2.4,0,4.8,0,7.4"/>
			</g>
			<g>
				<path class="st15" d="M134.9,63.8c0,2.4,0,4.8,0,7.4"/>
			</g>
			<g>
				<path class="st15" d="M136.1,64c0,2.4,0,4.8,0,7.4"/>
			</g>
			<g>
				<path class="st15" d="M137.3,64.2c0,2.4,0,4.8,0,7.4"/>
			</g>
			<g>
				<path class="st15" d="M138.5,64.5c0,2.4,0,4.8,0,7.4"/>
			</g>
			<g>
				<path class="st15" d="M139.8,64.6c0,2.4,0,4.8,0,7.4"/>
			</g>
			<g>
				<path class="st15" d="M141.1,64.7c0,2.4,0,4.8,0,7.4"/>
			</g>
			<g>
				<path class="st15" d="M142.4,64.7c0,2.4,0,4.8,0,7.4"/>
			</g>
			<g>
				<path class="st15" d="M143.6,64.7c0,2.4,0,4.8,0,7.4"/>
			</g>
			<g>
				<path class="st15" d="M144.9,64.6c0,2.4,0,4.8,0,7.4"/>
			</g>
			<g>
				<path class="st15" d="M146.1,64.5c0,2.4,0,4.8,0,7.4"/>
			</g>
			<g>
				<path class="st15" d="M147.5,64.4c0,2.4,0,4.8,0,7.4"/>
			</g>
			<g>
				<path class="st15" d="M148.7,64.1c0,2.4,0,4.8,0,7.4"/>
			</g>
			<g>
				<path class="st15" d="M149.9,63.9c0,2.4,0,4.8,0,7.4"/>
			</g>
			<g>
				<path class="st15" d="M151.1,63.6c0,2.4,0,4.8,0,7.4"/>
			</g>
			<g>
				<path class="st15" d="M152.4,63.1c0,2.4,0,4.8,0,7.4"/>
			</g>
		</g>
		<path class="st32" d="M138,59.2c0-0.1,0-0.2,0-0.5c-3.7,0.3-6.5,1.2-6.5,2.2c0,1.2,4.2,2.3,9.7,2.4C139.3,62.4,138,61,138,59.2z"
			/>
	</g>
	<g>
		<path class="st8" d="M65.4,99.2c0,2.6,0,4,0,4l0,0v0.1c0,0.1,0,0.2,0.1,0.3c0-1.5,0-2.8,0-4.1C65.4,99.4,65.4,99.3,65.4,99.2z"/>
		<path class="st8" d="M65.1,128.1c0,2.6,0,4,0,4l0,0v0.1c0,0.1,0,0.2,0.1,0.3c0-1.3,0-2.8,0-4.1C65.3,128.3,65.1,128.1,65.1,128.1z
			"/>
		<path class="st9" d="M91.1,137.6c-13.7-0.1-24.9-2.1-25.9-4.4c-0.1,12.1-0.2,24.5-0.2,33.5c0.7,0.2,1.3,0.8,1.3,1.6
			s-0.6,1.3-1.3,1.6c0,6.3-0.1,10.2-0.1,10.2l0,0v0.1c0,2.2,11.4,4.1,25.6,4.2c14.1,0.1,25.6-1.6,25.6-3.9v-0.1l0,0
			c0,0,0-4,0.1-10.4c-0.6-0.3-1-0.8-1-1.5c0-0.6,0.3-1.1,1-1.5c0.1-8.9,0.2-21,0.3-33C114.1,136.3,103.6,137.8,91.1,137.6z"/>
		<path class="st9" d="M91.3,104.6c12.6,0.1,23.1-2.6,25.5-3.2c0-1.3,0-2.6,0-3.7c-0.6-0.2-1-0.8-1-1.5s0.3-1.1,1-1.5
			c0-2.1,0-3.4,0-3.9c-0.1-5.1-16.7-20.2-16.7-20.2l-16.8-0.1c0,0-16.6,13.6-17.5,20.1c0,0,0,1.5,0,3.7c0.8,0.2,1.3,0.8,1.3,1.6
			c0,0.7-0.6,1.3-1.3,1.6c0,0.8,0,1.8,0,2.8C66.7,102.5,77.7,104.5,91.3,104.6z"/>
		<path class="st10" d="M91.3,108.7c-13.4-0.1-24.6-1.9-25.7-4.4c0,6.9-0.1,15.7-0.2,24.7c1,2.4,12.1,4.4,25.9,4.4
			c12.6,0.1,23-2.6,25.5-3.2c0.1-9.2,0.1-18.1,0.2-25.1C114.4,107.3,103.9,108.7,91.3,108.7z"/>
		<path class="st8" d="M116.7,105.3c0.3-0.2,0.5-0.6,0.5-0.8v-0.1l0,0v-2.9c0,0-0.1,0-0.5,0.1C116.7,102.5,116.7,103.9,116.7,105.3z
			"/>
		<path class="st10" d="M91.3,108.7c12.6,0.1,23.1-1.5,25.5-3.5c0-1.3,0-2.7,0-3.7c-2.3,0.6-12.9,3.2-25.5,3.2
			c-13.4-0.1-24.6-1.9-25.7-4.4c0,1.3,0,2.7,0,4.1C66.6,106.7,77.7,108.7,91.3,108.7z"/>
		<path class="st11" d="M91.3,108.7c12.6,0.1,23.1-1.5,25.5-3.5c0-1.3,0-2.7,0-3.7c-2.3,0.6-12.9,3.2-25.5,3.2
			c-13.4-0.1-24.6-1.9-25.7-4.4c0,1.3,0,2.7,0,4.1C66.6,106.7,77.7,108.7,91.3,108.7z"/>
		<path class="st8" d="M117,133.2L117,133.2L117,133.2v-3c0,0-0.1,0.1-0.5,0.1c0,1.3,0,2.6,0,3.9C116.8,133.9,117,133.6,117,133.2z"
			/>
		<path class="st10" d="M65.3,129.1c0,1.3,0,2.8,0,4.1c1,2.4,12.1,4.4,25.9,4.4c12.5,0.1,23-1.5,25.5-3.5c0-1.3,0-2.6,0-3.9
			c-2.3,0.6-12.9,3.2-25.5,3.2C77.4,133.4,66.2,131.5,65.3,129.1z"/>
		<path class="st11" d="M65.3,129.1c0,1.3,0,2.8,0,4.1c1,2.4,12.1,4.4,25.9,4.4c12.5,0.1,23-1.5,25.5-3.5c0-1.3,0-2.6,0-3.9
			c-2.3,0.6-12.9,3.2-25.5,3.2C77.4,133.4,66.2,131.5,65.3,129.1z"/>
		<path class="st12" d="M115.7,96.2c0-0.6,0.3-1.1,1-1.5c0-0.2,0-0.6,0-0.8c-4.2,1-14.1,2.7-25.6,2.7c-11.5-0.1-21.3-1.2-25.6-2.8
			c0,0.1,0,0.3,0,0.5c0.8,0.2,1.3,0.8,1.3,1.6c0,0.7-0.6,1.3-1.3,1.6c0,0.1,0,0.1,0,0.2c4.2,1.6,14.1,2.8,25.6,2.8
			c11.5,0.1,21.3-1,25.6-2.4c0-0.1,0-0.2,0-0.3C116.2,97.4,115.7,96.9,115.7,96.2z"/>
		<path class="st12" d="M115.2,168.5c0-0.6,0.3-1.1,1-1.5c0-0.2,0-0.6,0-0.8c-4.2,1-14.1,2.7-25.6,2.7c-11.5-0.1-21.3-1.2-25.6-2.8
			c0,0.1,0,0.3,0,0.5c0.8,0.2,1.3,0.8,1.3,1.6c0,0.7-0.6,1.3-1.3,1.6c0,0.1,0,0.1,0,0.2c4.2,1.6,14.1,2.8,25.6,2.8
			c11.5,0.1,21.3-1,25.6-2.4c0-0.1,0-0.2,0-0.3C115.6,169.6,115.2,169.1,115.2,168.5z"/>
		<g>
			<path class="st12" d="M81.9,115.5c-0.8,3.2-1.7,6.2-2.4,9.4c-0.7-0.1-1.3-0.1-2.1-0.2c-0.2-1.3-0.6-2.8-0.8-4.1
				c-0.2-1-0.3-2.1-0.5-3.2l0,0c-0.1,1.1-0.3,1.9-0.6,2.9c-0.3,1.3-0.7,2.7-1,3.9c-0.7-0.1-1.3-0.1-2.1-0.2
				c-0.7-3.2-1.5-6.6-2.2-9.8c0.7,0.1,1.3,0.2,2.1,0.3c0.2,1.5,0.5,2.8,0.7,4.2c0.2,1.2,0.3,2.4,0.5,3.4l0,0
				c0.1-1.1,0.3-2.1,0.7-3.2c0.3-1.3,0.6-2.7,1-4c0.6,0.1,1.3,0.1,1.9,0.2c0.2,1.5,0.6,2.8,0.8,4.2c0.2,1.1,0.3,2.2,0.5,3.4l0,0
				c0.1-1.1,0.3-2.2,0.6-3.2c0.2-1.3,0.6-2.7,0.8-4C80.6,115.3,81.1,115.5,81.9,115.5z"/>
			<path class="st12" d="M90.3,125.3c-0.7,0-1.3,0-2.1,0c-0.2-0.8-0.5-1.7-0.7-2.6c-0.8,0-1.8-0.1-2.7-0.1c-0.2,0.8-0.5,1.7-0.7,2.4
				c-0.6,0-1.3-0.1-1.9-0.1c1-3.2,1.9-6.2,2.9-9.4c0.8,0,1.6,0.1,2.4,0.1C88.5,118.9,89.4,122.2,90.3,125.3z M87.4,121.3
				c-0.2-0.7-0.3-1.5-0.6-2.2c-0.1-0.6-0.3-1.3-0.5-1.9l0,0c-0.1,0.6-0.3,1.3-0.5,1.9c-0.2,0.7-0.3,1.5-0.6,2.2
				C85.9,121.3,86.6,121.3,87.4,121.3z"/>
			<path class="st12" d="M97.9,117.4c-0.8,0-1.7,0-2.6,0.1c0,2.7,0,5.3,0,8c-0.6,0-1.3,0-1.9,0c0-2.7,0-5.3,0-8c-0.8,0-1.7,0-2.6,0
				c0-0.5,0-1.1,0-1.6c2.3,0,4.6,0,6.9-0.1C97.9,116.3,97.9,116.8,97.9,117.4z"/>
			<path class="st12" d="M104.7,124.9c-1.9,0.1-3.7,0.2-5.7,0.3c0-3.2,0-6.3,0.1-9.6c1.8-0.1,3.6-0.2,5.5-0.3c0,0.5,0,1,0,1.6
				c-1.2,0.1-2.3,0.1-3.5,0.2c0,0.7,0,1.6,0,2.3c1.1-0.1,2.2-0.1,3.2-0.2c0,0.5,0,1,0,1.5c-1.1,0.1-2.2,0.1-3.2,0.2
				c0,0.8,0,1.8,0,2.7c1.2-0.1,2.4-0.1,3.7-0.2C104.7,123.7,104.7,124.4,104.7,124.9z"/>
			<path class="st12" d="M110.8,119.7c0.7,0.1,1.1,0.7,1.3,1.7c0.2,1.1,0.5,2.2,0.7,2.6c-0.6,0.1-1.3,0.2-1.9,0.2
				c-0.1-0.2-0.3-1.1-0.6-2.2c-0.2-1.2-0.6-1.6-1.6-1.5c-0.2,0-0.5,0-0.6,0.1c0,1.3,0,2.6,0,3.9c-0.6,0.1-1.3,0.1-1.9,0.2
				c0-3.2,0-6.3,0.1-9.5c0.7-0.1,1.6-0.3,2.6-0.5c1.3-0.1,3.9-0.3,3.9,2.2C112.6,118.2,111.8,119.2,110.8,119.7L110.8,119.7z
				 M108.9,119.2c1.1-0.1,1.8-0.8,1.8-1.7c0-1.2-1-1.3-1.7-1.2c-0.5,0-0.7,0.1-0.8,0.1c0,1,0,1.9,0,2.9
				C108.3,119.3,108.7,119.3,108.9,119.2z"/>
		</g>
		<path class="st10" d="M102.3,72.3c0,0-4.2,2.3-10.9,2.2c-6.6,0-10.9-2.3-10.9-2.3l0.1-11.3l22,0.1L102.3,72.3z"/>
		<path class="st13" d="M102.4,61.1c0,1.3-5,2.4-10.9,2.3c-6.1,0-10.9-1.2-10.9-2.6c0-1.3,5-2.4,10.9-2.3
			C97.4,58.6,102.4,59.7,102.4,61.1z"/>
		<g>
			<g>
				<path class="st15" d="M81.1,62.9c0,2.4,0,4.8,0,7.4"/>
			</g>
			<g>
				<path class="st15" d="M82.4,63.4c0,2.4,0,4.8,0,7.4"/>
			</g>
			<g>
				<path class="st15" d="M83.5,63.6c0,2.4,0,4.8,0,7.4"/>
			</g>
			<g>
				<path class="st15" d="M84.9,64c0,2.4,0,4.8,0,7.4"/>
			</g>
			<g>
				<path class="st15" d="M86.1,64.2c0,2.4,0,4.8,0,7.4"/>
			</g>
			<g>
				<path class="st15" d="M87.4,64.4c0,2.4,0,4.8,0,7.4"/>
			</g>
			<g>
				<path class="st15" d="M88.7,64.6c0,2.4,0,4.8,0,7.4"/>
			</g>
			<g>
				<path class="st15" d="M89.8,64.6c0,2.4,0,4.8,0,7.4"/>
			</g>
			<g>
				<path class="st15" d="M91.3,64.7c0,2.4,0,4.8,0,7.4"/>
			</g>
			<g>
				<path class="st15" d="M92.4,64.6c0,2.4,0,4.8,0,7.4"/>
			</g>
			<g>
				<path class="st15" d="M93.7,64.6c0,2.4,0,4.8,0,7.4"/>
			</g>
			<g>
				<path class="st15" d="M95,64.5c0,2.4,0,4.8,0,7.4"/>
			</g>
			<g>
				<path class="st15" d="M96.2,64.2c0,2.4,0,4.8,0,7.4"/>
			</g>
			<g>
				<path class="st15" d="M97.6,64.1c0,2.4,0,4.8,0,7.4"/>
			</g>
			<g>
				<path class="st15" d="M98.7,63.8c0,2.4,0,4.8,0,7.4"/>
			</g>
			<g>
				<path class="st15" d="M100,63.6c0,2.4,0,4.8,0,7.4"/>
			</g>
			<g>
				<path class="st15" d="M101.1,63.1c0,2.4,0,4.8,0,7.4"/>
			</g>
		</g>
		<path class="st32" d="M86.9,59.2c0-0.1,0-0.2,0-0.5c-3.7,0.3-6.5,1.2-6.5,2.2c0,1.2,4.2,2.3,9.7,2.4
			C88.2,62.3,86.9,60.8,86.9,59.2z"/>
	</g>
	<g>
		<path class="st8" d="M94.2,121.9c0,2.6,0,4,0,4l0,0v0.1c0,0.1,0,0.2,0.1,0.3c0-1.5,0-2.8,0-4.1C94.2,122.2,94.2,122.1,94.2,121.9z
			"/>
		<path class="st8" d="M94,150.9c0,2.6,0,4,0,4l0,0v0.1c0,0.1,0,0.2,0.1,0.3c0-1.3,0-2.8,0-4.1C94.2,151,94,150.9,94,150.9z"/>
		<path class="st9" d="M119.9,160.4c-13.7-0.1-24.9-2.1-25.9-4.4c-0.1,12.1-0.2,24.5-0.2,33.5c0.7,0.2,1.3,0.8,1.3,1.6
			c0,0.7-0.6,1.3-1.3,1.6c0,6.3-0.1,10.2-0.1,10.2l0,0v0.1c0,2.2,11.4,4.1,25.6,4.2c14.1,0.1,25.6-1.6,25.6-3.9v-0.1l0,0
			c0,0,0-4,0.1-10.4c-0.6-0.3-1-0.8-1-1.5c0-0.6,0.3-1.1,1-1.5c0.1-8.9,0.2-21,0.3-33C143,159,132.5,160.6,119.9,160.4z"/>
		<path class="st9" d="M120.1,127.4c12.6,0.1,23.1-2.6,25.5-3.2c0-1.3,0-2.6,0-3.7c-0.6-0.2-1-0.8-1-1.5s0.3-1.1,1-1.5
			c0-2.1,0-3.4,0-3.9c-0.1-5.2-16.8-20.4-16.8-20.4h-16.7c0,0-16.6,13.6-17.5,20.1c0,0,0,1.5,0,3.7c0.8,0.2,1.3,0.8,1.3,1.6
			c0,0.7-0.6,1.3-1.3,1.6c0,0.8,0,1.8,0,2.8C95.6,125.3,106.6,127.3,120.1,127.4z"/>
		<path class="st10" d="M120.1,131.5c-13.4-0.1-24.6-1.9-25.7-4.4c0,6.9-0.1,15.7-0.2,24.7c1,2.4,12.1,4.4,25.9,4.4
			c12.6,0.1,23-2.6,25.5-3.2c0.1-9.2,0.1-18.1,0.2-25.1C143.2,130,132.7,131.5,120.1,131.5z"/>
		<path class="st8" d="M145.6,128.1c0.3-0.2,0.5-0.6,0.5-0.8v-0.1l0,0v-3c0,0-0.1,0-0.5,0.1C145.6,125.3,145.6,126.6,145.6,128.1z"
			/>
		<path class="st10" d="M120.1,131.5c12.6,0.1,23.1-1.5,25.5-3.5c0-1.3,0-2.7,0-3.7c-2.3,0.6-12.9,3.2-25.5,3.2
			c-13.4-0.1-24.6-1.9-25.7-4.4c0,1.3,0,2.7,0,4.1C95.5,129.5,106.6,131.5,120.1,131.5z"/>
		<path class="st11" d="M120.1,131.5c12.6,0.1,23.1-1.5,25.5-3.5c0-1.3,0-2.7,0-3.7c-2.3,0.6-12.9,3.2-25.5,3.2
			c-13.4-0.1-24.6-1.9-25.7-4.4c0,1.3,0,2.7,0,4.1C95.5,129.5,106.6,131.5,120.1,131.5z"/>
		<path class="st8" d="M145.8,156L145.8,156L145.8,156v-3c0,0-0.1,0-0.5,0.1c0,1.3,0,2.6,0,3.9C145.6,156.7,145.8,156.2,145.8,156z"
			/>
		<path class="st10" d="M94.2,151.9c0,1.3,0,2.8,0,4.1c1,2.4,12.1,4.4,25.9,4.4c12.5,0.1,23-1.5,25.5-3.5c0-1.3,0-2.6,0-3.9
			c-2.3,0.6-12.9,3.2-25.5,3.2C106.3,156.2,95.1,154.2,94.2,151.9z"/>
		<path class="st11" d="M94.2,151.9c0,1.3,0,2.8,0,4.1c1,2.4,12.1,4.4,25.9,4.4c12.5,0.1,23-1.5,25.5-3.5c0-1.3,0-2.6,0-3.9
			c-2.3,0.6-12.9,3.2-25.5,3.2C106.3,156.2,95.1,154.2,94.2,151.9z"/>
		<path class="st12" d="M144.6,119c0-0.6,0.3-1.1,1-1.5c0-0.2,0-0.6,0-0.8c-4.2,1-14.1,2.7-25.6,2.7c-11.5-0.1-21.3-1.2-25.6-2.8
			c0,0.1,0,0.3,0,0.5c0.8,0.2,1.3,0.8,1.3,1.6c0,0.7-0.6,1.3-1.3,1.6c0,0.1,0,0.1,0,0.2c4.2,1.6,14.1,2.8,25.6,2.8
			c11.5,0.1,21.3-1,25.6-2.4c0-0.1,0-0.2,0-0.3C145.1,120.2,144.6,119.7,144.6,119z"/>
		<path class="st12" d="M144.1,191.3c0-0.6,0.3-1.1,1-1.5c0-0.2,0-0.6,0-0.8c-4.2,1-14.1,2.7-25.6,2.7c-11.5-0.1-21.3-1.2-25.6-2.8
			c0,0.1,0,0.3,0,0.5c0.8,0.2,1.3,0.8,1.3,1.6s-0.6,1.3-1.3,1.6c0,0.1,0,0.1,0,0.2c4.2,1.6,14.1,2.8,25.6,2.8
			c11.5,0.1,21.3-1,25.6-2.4c0-0.1,0-0.2,0-0.3C144.6,192.4,144.1,191.9,144.1,191.3z"/>
		<g>
			<path class="st12" d="M110.7,138.2c-0.8,3.2-1.7,6.2-2.4,9.4c-0.7-0.1-1.3-0.1-2.1-0.2c-0.2-1.3-0.6-2.8-0.8-4.1
				c-0.2-1-0.3-2.1-0.5-3.2l0,0c-0.1,1.1-0.3,1.9-0.6,2.9c-0.3,1.3-0.7,2.7-1,3.9c-0.7-0.1-1.3-0.1-2.1-0.2
				c-0.7-3.2-1.5-6.6-2.2-9.8c0.7,0.1,1.3,0.2,2.1,0.3c0.2,1.5,0.5,2.8,0.7,4.2c0.2,1.2,0.3,2.4,0.5,3.4l0,0
				c0.1-1.1,0.3-2.1,0.7-3.2c0.3-1.3,0.6-2.7,1-4c0.6,0.1,1.3,0.1,1.9,0.2c0.2,1.5,0.6,2.8,0.8,4.2c0.2,1.1,0.3,2.2,0.5,3.4l0,0
				c0.1-1.1,0.3-2.2,0.6-3.2c0.2-1.3,0.6-2.7,0.8-4C109.4,138.1,110,138.2,110.7,138.2z"/>
			<path class="st12" d="M119.2,148.1c-0.7,0-1.3,0-2.1,0c-0.2-0.8-0.5-1.7-0.7-2.6c-0.8,0-1.8-0.1-2.7-0.1
				c-0.2,0.8-0.5,1.7-0.7,2.4c-0.6,0-1.3-0.1-1.9-0.1c1-3.2,1.9-6.2,2.9-9.4c0.8,0,1.6,0.1,2.4,0.1
				C117.4,141.7,118.4,144.9,119.2,148.1z M116.2,144.1c-0.2-0.7-0.3-1.5-0.6-2.2c-0.1-0.6-0.3-1.3-0.5-1.9l0,0
				c-0.1,0.6-0.3,1.3-0.5,1.9c-0.2,0.7-0.3,1.5-0.6,2.2C114.7,144.1,115.5,144.1,116.2,144.1z"/>
			<path class="st12" d="M126.7,140.2c-0.8,0-1.7,0-2.6,0.1c0,2.7,0,5.3,0,8c-0.6,0-1.3,0-1.9,0c0-2.7,0-5.3,0-8c-0.8,0-1.7,0-2.6,0
				c0-0.5,0-1.1,0-1.6c2.3,0,4.6,0,6.9-0.1C126.7,139.1,126.7,139.6,126.7,140.2z"/>
			<path class="st12" d="M133.5,147.7c-1.9,0.1-3.7,0.2-5.7,0.3c0-3.2,0-6.3,0.1-9.6c1.8-0.1,3.6-0.2,5.5-0.3c0,0.5,0,1,0,1.6
				c-1.2,0.1-2.3,0.1-3.5,0.2c0,0.7,0,1.6,0,2.3c1.1-0.1,2.2-0.1,3.2-0.2c0,0.5,0,1,0,1.5c-1.1,0.1-2.2,0.1-3.2,0.2
				c0,0.8,0,1.8,0,2.7c1.2-0.1,2.4-0.1,3.7-0.2C133.5,146.5,133.5,147.2,133.5,147.7z"/>
			<path class="st12" d="M139.8,142.5c0.7,0.1,1.1,0.7,1.3,1.7c0.2,1.1,0.5,2.2,0.7,2.6c-0.6,0.1-1.3,0.2-1.9,0.2
				c-0.1-0.2-0.3-1.1-0.6-2.2c-0.2-1.2-0.6-1.6-1.6-1.5c-0.2,0-0.5,0-0.6,0.1c0,1.3,0,2.6,0,3.9c-0.6,0.1-1.3,0.1-1.9,0.2
				c0-3.2,0-6.3,0.1-9.5c0.7-0.1,1.6-0.3,2.6-0.5c1.3-0.1,3.9-0.3,3.9,2.2C141.5,141,140.7,142,139.8,142.5L139.8,142.5z M137.8,142
				c1.1-0.1,1.8-0.8,1.8-1.7c0-1.2-1-1.3-1.7-1.2c-0.5,0-0.7,0.1-0.8,0.1c0,1,0,1.9,0,2.9C137.3,142.1,137.5,142,137.8,142z"/>
		</g>
		<path class="st10" d="M131.1,95.1c0,0-4.2,2.3-10.9,2.2c-6.6,0-10.9-2.3-10.9-2.3l0.1-11.3l22,0.1L131.1,95.1z"/>
		<path class="st13" d="M131.2,83.9c0,1.3-5,2.4-10.9,2.3c-6.1,0-10.9-1.2-10.9-2.6c0-1.3,5-2.4,10.9-2.3S131.2,82.5,131.2,83.9z"/>
		<g>
			<g>
				<path class="st15" d="M110.2,85.7c0,2.4,0,4.8,0,7.4"/>
			</g>
			<g>
				<path class="st15" d="M111.2,86.1c0,2.4,0,4.8,0,7.4"/>
			</g>
			<g>
				<path class="st15" d="M112.4,86.4c0,2.4,0,4.8,0,7.4"/>
			</g>
			<g>
				<path class="st15" d="M113.8,86.8c0,2.4,0,4.8,0,7.4"/>
			</g>
			<g>
				<path class="st15" d="M115,87c0,2.4,0,4.8,0,7.4"/>
			</g>
			<g>
				<path class="st15" d="M116.2,87.2c0,2.4,0,4.8,0,7.4"/>
			</g>
			<g>
				<path class="st15" d="M117.5,87.3c0,2.4,0,4.8,0,7.4"/>
			</g>
			<g>
				<path class="st15" d="M118.8,87.4c0,2.4,0,4.8,0,7.4"/>
			</g>
			<g>
				<path class="st15" d="M120.1,87.4c0,2.4,0,4.8,0,7.4"/>
			</g>
			<g>
				<path class="st15" d="M121.3,87.4c0,2.4,0,4.8,0,7.4"/>
			</g>
			<g>
				<path class="st15" d="M122.6,87.4c0,2.4,0,4.8,0,7.4"/>
			</g>
			<g>
				<path class="st15" d="M123.8,87.3c0,2.4,0,4.8,0,7.4"/>
			</g>
			<g>
				<path class="st15" d="M125.1,87c0,2.4,0,4.8,0,7.4"/>
			</g>
			<g>
				<path class="st15" d="M126.4,86.8c0,2.4,0,4.8,0,7.4"/>
			</g>
			<g>
				<path class="st15" d="M127.6,86.5c0,2.4,0,4.8,0,7.4"/>
			</g>
			<g>
				<path class="st15" d="M128.8,86.2c0,2.4,0,4.8,0,7.4"/>
			</g>
			<g>
				<path class="st15" d="M130.1,85.9c0,2.4,0,4.8,0,7.4"/>
			</g>
		</g>
		<path class="st32" d="M115.7,82c0-0.1,0-0.2,0-0.5c-3.7,0.3-6.5,1.2-6.5,2.2c0,1.2,4.2,2.3,9.7,2.4C117,85.1,115.7,83.6,115.7,82z
			"/>
	</g>
</g>
<g class="st6">
	<path class="st7" d="M297.4,44.9c-0.2,0.5-0.3,0.8-0.4,1.3c-0.9,3.3-1.5,5.1-2.5,7.2c-1.1-0.8-1.8-1.3-3.1-1.9
		c0.6,4.6,2.3,7.5,6,9.9c-1.2,1.3-1.7,2.1-2.6,3.8c-1.6-1.3-2.4-2.1-3.2-3.3c-0.9-1.3-1.5-2.4-2-4.2c-0.5,1.9-1.1,3.1-2.2,4.7
		c-0.8,1.1-1.4,1.8-2.5,2.7c-0.5-0.9-0.7-1.3-1.2-2l-2.3,1c-0.2-0.7-0.3-0.9-0.4-1.4c-2.5,0.8-2.8,0.8-6.3,1.7
		c-0.6,0.1-0.9,0.2-1.4,0.4l-0.9-4.1c0.6,0,0.9,0,1.5-0.1V49.3c0-0.2,0-0.4,0-0.9c-0.3,0.2-0.4,0.3-0.9,0.5
		c-0.3-1.9-0.5-2.8-1.1-4.2c2.4-1.1,4.4-3,5.1-4.6h3.7c0.8,1.5,2.4,2.9,4.2,3.8c-0.9,1.2-1.3,2-1.9,3c0.2,0,0.3,0,0.6,0
		c-0.1,0.5-0.1,0.5-0.1,1.2c1.2-1.7,2.2-3.9,2.7-6c0.2-1,0.3-1.7,0.4-2.3l4.2,0.7c-0.2,0.5-0.3,1-0.8,2.5h3.5c1.1,0,1.6,0,2.1-0.1
		L297.4,44.9z M277.2,46.2c0-0.3,0-0.4,0-0.7c-0.6,0.6-0.9,1-1.6,1.5h1.6V46.2z M280.1,45.1c-0.6-0.6-0.8-0.9-1.3-1.6
		c-0.5,0.7-0.6,0.9-1.3,1.6H280.1z M282.4,56.9c0.7,1.4,1,1.9,1.5,3.2c2.4-2.5,3.3-5.4,3.4-10.5c-0.6,1.1-1,1.5-1.7,2.4
		c-0.9-1.2-1.3-1.7-2.1-2.4v4.7c0,1.2,0,1.9,0.1,2.6c-0.8-0.1-1-0.1-2-0.1h-3.9v3.1c0.7-0.1,0.8-0.2,2.1-0.5
		c-0.2-0.5-0.3-0.7-0.6-1.3L282.4,56.9z M279.8,50.7v-1h-2.2v1H279.8z M277.6,54.1h2.2v-1h-2.2V54.1z M281.4,47c0.5,0,0.6,0,0.9,0
		c-0.7-0.5-1.2-1-1.9-1.6c-0.1,0.3-0.1,0.5-0.1,0.8V47H281.4z M291.3,47.7c-0.1,0.5-0.1,0.9-0.1,1.4c0,0.7,0,1.2,0.1,2
		c0.7-1.2,1.2-2.6,1.6-4.4h-4.3c-0.2,0.4-0.2,0.4-0.4,1H291.3z"/>
	<path class="st7" d="M309.5,56.7c-0.3,0.8-0.4,1.2-0.7,2.2c-0.8-0.8-1.3-1.5-2-2.6c0.1,1.1,0.1,1.2,0.1,2.1v3.8
		c0,1.2,0,1.9,0.1,2.6h-4.2c0.1-0.8,0.2-1.5,0.2-2.7v-2.4c0-1,0-1.5,0.1-2.2c-1.1,2.3-1.6,3.1-2.8,4.3c-0.5-1.6-1-2.7-1.7-4
		c1.6-1.5,3-3.5,3.9-5.8h-1c-1.2,0-1.8,0-2.5,0.1v-3.9c0.6,0.1,1.2,0.1,2.5,0.1h1.5v-6.3c0-1.1,0-1.7-0.1-2.4h4.1
		c-0.1,0.6-0.1,1.2-0.1,2.3V46c0.5-1.3,1-2.9,1.4-4.9l2.8,1.3c-0.7,2.5-1.2,4.1-2.1,5.7l-2-1.2v1.5h1.2c1.1,0,1.5,0,2.1-0.1v2
		l2.1-2.3c2,1.4,3.1,2.3,4.5,3.8l-2.4,3c-1.7-1.7-2.7-2.6-4.2-3.8v1.3c-0.7-0.1-1.1-0.1-2.2-0.1h-0.9c0.8,1.1,1.7,2,3.1,3
		c-0.3,0.6-0.3,0.8-0.5,1.2c0.6,0,1.6-0.2,2.4-0.3l5.1-1.1v-9.4l-2.1,2.5c-1.7-1.7-2.3-2.3-4.5-3.9l2.5-2.8c2,1.4,2.9,2.1,4.1,3.2
		v-1.4c0-1.7,0-2.4-0.2-3.3h4.4c-0.1,0.9-0.2,1.6-0.2,3.3v10.9c0.8-0.2,1.3-0.3,2.1-0.6l0.3,4.1c-0.6,0.1-1.3,0.2-2.4,0.4v3.3
		c0,1.7,0,2.4,0.2,3.4H317c0.1-1,0.2-1.6,0.2-3.4v-2.5l-4.7,1c-1.5,0.3-2,0.4-2.6,0.6L309.5,56.7z M301.4,41.1
		c0.8,2.4,1.1,3.6,1.5,5.7l-2.7,1.4c-0.4-2.4-0.7-3.8-1.4-5.6L301.4,41.1z"/>
	<path class="st7" d="M335.5,47.8c-0.2,0.6-0.3,0.8-0.6,1.9c-0.9,3.3-1.7,5.5-3.1,7.8c-1.2,2-2.4,3.4-4.3,5.1
		c-0.9-1.4-1.8-2.4-3-3.5c1.6-1.3,2.7-2.4,3.8-3.9c1.2-1.7,1.9-3.2,2.5-5.5h-2.5c-1.1,0-2,0.1-2.8,0.2v-4.2c0.8,0.1,1.5,0.2,3.1,0.2
		h2.7c1.1,0,1.7,0,2.2-0.1L335.5,47.8z M349.2,46.2c-0.1,0.2-0.1,0.2-0.5,0.5c-0.1,0.2-0.1,0.2-1.1,1.2c-1,1.2-2.7,2.9-4.4,4.4
		c0.7,1,1.5,1.8,2.4,2.8c1.5,1.5,2.7,2.3,4.6,3.3c-1.2,1.5-1.7,2.3-2.7,4.3c-2.2-1.5-3.6-2.8-5-4.7c-1.2-1.5-2-3-2.9-4.8
		c0,1.2,0,1.3,0,1.6c0.1,1.1,0.1,1.1,0.1,1.7v4.8c0,2.6-0.9,3.3-4.2,3.3c-1,0-2.2-0.1-3.3-0.1c-0.2-1.7-0.4-2.5-1-4.1
		c1.6,0.2,2.5,0.3,3.4,0.3c0.8,0,0.9-0.1,0.9-0.6v-17c0-1.2-0.1-2-0.2-2.9h4.6c-0.1,0.8-0.2,1.6-0.2,2.9v1.9
		c0.4,1.6,0.7,2.5,1.4,3.9c2-1.9,3.4-3.5,4.3-5.3L349.2,46.2z"/>
	<path class="st7" d="M358.5,64.8c-1.6-2.8-2.1-3.7-2.5-4.9c-0.9-2.2-1.4-5-1.4-7.6c0-2.2,0.3-4.6,1-6.6c0.6-1.9,1.3-3.3,2.9-6h4.9
		c-2,3.2-2.8,4.7-3.4,7c-0.5,1.8-0.7,3.7-0.7,5.6c0,2.6,0.5,5.3,1.4,7.5c0.6,1.4,1.2,2.5,2.8,5.1H358.5z"/>
	<path class="st7" d="M369.1,63.1c-2.4,0-3,0-4,0.1c0.1-1.3,0.2-2.1,0.6-3.1c0.7-2.2,2-4.2,3.8-5.9c1-0.9,2-1.7,4.7-3.5
		c2.3-1.5,2.8-2.2,2.8-3.4c0-1.3-1.1-2.1-2.8-2.1c-1.3,0-2.2,0.4-2.8,1.3c-0.4,0.6-0.5,1.1-0.7,2.2l-5.6-0.6
		c0.4-2.3,0.9-3.5,1.9-4.7c1.5-1.8,3.9-2.7,7-2.7c3.6,0,6.3,1.2,7.6,3.3c0.6,0.9,0.9,2,0.9,3.1c0,1.9-0.8,3.6-2.4,4.9
		c-0.9,0.8-1.1,1-3.8,2.8c-2.3,1.6-3.3,2.5-3.9,3.7h6.2c2,0,3.2-0.1,4.2-0.2v5c-1.5-0.1-2.6-0.2-4.5-0.2H369.1z"/>
	<path class="st7" d="M392.4,41.1c-0.1,1.2-0.1,1.7-0.1,3.5V50c0,1.9,0,2.7,0.1,3.8h-5.1c0.1-1,0.2-1.9,0.2-3.9v-5.2
		c0-1.6,0-2.3-0.2-3.5H392.4z M404.7,41.1c-0.1,1.5-0.1,1.9-0.1,3.6v3.1c0,3.6-0.2,6.2-0.6,7.7c-0.8,2.9-2.6,5.1-5.5,6.7
		c-1.5,0.9-2.9,1.4-5.5,2.2c-0.6-1.8-1.3-2.9-2.7-4.5c2.5-0.5,3.9-0.9,5.2-1.6c2.3-1.2,3.5-2.8,3.9-5.1c0.2-1,0.3-3.3,0.3-5.6v-2.8
		c0-1.9,0-2.5-0.2-3.6H404.7z"/>
	<path class="st7" d="M413.1,46.4c1,2,1.9,4.1,2.6,6.7l-4.1,1.2c-0.7-2.8-1.2-4.4-2.4-6.9L413.1,46.4z M428.5,46.9
		c-0.2,0.5-0.2,0.6-0.4,1.6c-0.8,3.7-1.8,6.4-3.3,8.6c-1.4,2.1-3.3,3.9-5.6,5.4c-0.9,0.6-1.6,1-3.2,1.8c-0.9-1.6-1.4-2.3-2.9-3.7
		c5.3-2.1,8.2-4.7,9.8-9.1c0.7-1.9,1.1-4,1.2-5.6L428.5,46.9z M419,45.3c1.4,2.7,1.9,3.9,2.6,6.5l-4.1,1.2c-0.5-2.2-1.2-4.2-2.4-6.6
		L419,45.3z"/>
	<path class="st7" d="M434.8,63.9c0.1-1.2,0.2-2,0.2-4V44.4c0-2.1,0-2.4-0.2-3.8h5.1c-0.1,0.8-0.1,2.1-0.1,3.9v3.6
		c4.5,1.5,7.9,3,12,5.5l-2.5,4.5c-2.6-1.8-5.7-3.5-8.3-4.6c-0.9-0.4-0.9-0.4-1.2-0.5v6.9c0,1.8,0.1,3.1,0.2,4H434.8z"/>
	<path class="st7" d="M462.5,41.4c-0.1,0.9-0.1,0.9-0.3,6.1c-0.2,5.5-0.7,8.5-2,11.4c-0.9,2-1.9,3.4-3.7,5.3
		c-1.4-1.8-2.1-2.5-3.8-3.7c1.5-1.4,2.3-2.5,3.2-4.2c1.2-2.6,1.7-5.9,1.7-12.7c0-1.2,0-1.7-0.1-2.4L462.5,41.4z M470,41
		c-0.2,1.1-0.2,1.5-0.2,3.1l-0.1,13.9c1.4-0.9,2.3-1.7,3.2-2.9c1-1.4,1.6-2.7,2.1-4.5c1.3,1.6,2,2.3,3.5,3.5c-1.2,3-2.6,5-4.6,6.7
		c-1.6,1.4-2.9,2-5.6,3c-0.7,0.3-1,0.3-1.3,0.6l-2.3-2.4c0.2-0.7,0.3-1.1,0.3-2.2l0.1-15.7v-1c0-0.8,0-1.4-0.1-2.1H470z"/>
	<path class="st7" d="M479.1,64.8c2.2-3.4,2.9-4.8,3.5-7.1c0.5-1.7,0.7-3.7,0.7-5.7c0-2.5-0.6-5.3-1.5-7.6c-0.6-1.4-1.2-2.5-2.7-4.8
		h4.9c1.8,3,2.5,4.5,3.1,6.7c0.6,2,0.8,3.8,0.8,5.9c0,2.7-0.5,5.5-1.4,7.7c-0.5,1.2-1,2.1-2.5,4.9H479.1z"/>
</g>
<g>
	<rect x="258.4" y="89.8" class="st4" width="249.1" height="97.7"/>
	<rect x="255.6" y="88.1" class="st5" width="249.1" height="97.7"/>
	<polyline class="st3" points="504.7,89.3 504.7,185.8 257.5,185.8 	"/>
</g>
<g class="st6">
	<path class="st7" d="M335.7,116.7l1.5,1.2c-0.1,0.1-0.3,0.1-0.5,0.1c-0.7,0.5-1.8,1.1-2.9,1.7c1.1,0.7,2.5,1.2,4.1,1.5
		c-0.5,0.5-1,1.3-1.3,1.9c-4-0.9-6.3-3-7.8-6.3h-2v3.7c1.2-0.2,2.5-0.3,3.7-0.5l0.1,1.7c-2.6,0.5-5.3,0.9-7.1,1.1
		c0,0.2-0.2,0.3-0.3,0.3l-0.8-2.1l2.2-0.2v-4h-2.9v-1.9h2.9v-7.7h11.1v1.7h-9v0.9h8.5v1.6h-8.5v0.9h8.5v1.6h-8.5v0.9h10.8v1.9H335.7
		z M331,116.7c0.4,0.7,0.8,1.3,1.4,1.8c0.9-0.5,1.9-1.2,2.7-1.8H331z"/>
	<path class="st7" d="M343.3,119.8c-0.1,0.1-0.2,0.2-0.4,0.2c-0.6,1.1-1.5,2.3-2.5,3.1c-0.4-0.3-1.1-0.9-1.5-1.2
		c0.9-0.7,1.7-1.8,2.2-2.9L343.3,119.8z M347.7,117v1.8h-8.8V117h1.6v-6.5h-1.4v-1.8h1.4v-1.9l2.3,0.1c0,0.2-0.1,0.2-0.4,0.3v1.4
		h2.2v-1.9l2.3,0.1c0,0.2-0.1,0.3-0.4,0.3v1.4h1.2v1.8h-1.2v6.5H347.7z M344.5,110.5h-2.2v1h2.2V110.5z M342.3,113.2v1.1h2.2v-1.1
		H342.3z M342.3,115.9v1.2h2.2v-1.2H342.3z M354.8,107.4v13.4c0,1.9-0.7,2.3-3.6,2.3c-0.1-0.5-0.3-1.5-0.6-2c0.5,0,0.9,0,1.3,0
		c0.8,0,0.9,0,0.9-0.4v-3.5H350c-0.2,2.1-0.8,4.3-2,5.9c-0.3-0.3-1-0.9-1.5-1.1l-0.8,0.5c-0.4-0.7-1.2-1.8-1.9-2.7l1.6-0.9
		c0.5,0.6,1.2,1.3,1.6,2c1.1-2.1,1.2-4.9,1.2-7.1v-6.4H354.8z M350.2,113.8c0,0.5,0,1,0,1.5h2.6v-2.1h-2.6V113.8z M352.8,109.3h-2.6
		v2.1h2.6V109.3z"/>
	<path class="st7" d="M362.3,107.5c-0.1,0.1-0.2,0.2-0.5,0.2c-0.4,1.1-0.9,2.2-1.5,3.3l0.6,0.2c0,0.2-0.2,0.3-0.5,0.3v11.6h-2v-8.9
		c-0.5,0.7-1,1.4-1.5,2c-0.2-0.5-0.7-1.6-1-2.1c1.5-1.6,3.1-4.5,4-7.3L362.3,107.5z M372.5,117h-3.5c1,1.5,2.5,3,4,3.8
		c-0.5,0.4-1.1,1.1-1.5,1.7c-1.3-0.9-2.6-2.4-3.6-3.9v4.5h-2.1v-4.4c-1.1,1.5-2.4,2.9-3.8,3.8c-0.3-0.5-1-1.3-1.4-1.7
		c1.6-0.8,3.1-2.2,4.2-3.8h-3.6v-1.9h4.6v-1.5h-3.4v-6.1h9.2v6.1H368v1.5h4.5V117z M364.5,109.2v2.5h5.2v-2.5H364.5z"/>
	<path class="st7" d="M389.7,110.9h-9.3c-0.6,1.2-1.2,2.4-2,3.6l0.3,0.1c0,0.2-0.2,0.3-0.5,0.3v8.2h-2.1v-6c-0.5,0.5-1,0.9-1.6,1.3
		c-0.2-0.6-0.7-1.5-1-2c1.9-1.3,3.4-3.2,4.5-5.4h-3.9v-2h4.8c0.3-0.8,0.5-1.5,0.7-2.3l2.6,0.7c-0.1,0.2-0.3,0.3-0.5,0.2
		c-0.1,0.5-0.3,0.9-0.5,1.4h8.5V110.9z M390,116.7v2h-4.1v2.2c0,1.9-0.7,2.2-4.1,2.2c-0.1-0.6-0.3-1.4-0.6-2c0.6,0,1.2,0.1,1.6,0.1
		c0.8,0,0.9,0,0.9-0.3v-2.1h-4.5v-2h4.5v-1.4l0.6,0c0.4-0.3,0.8-0.7,1.2-1.1h-4.9v-1.9h6.8l0.3-0.1l1.6,1c-0.1,0.1-0.2,0.2-0.4,0.2
		c-0.8,0.9-2,2-3.1,2.8v0.5H390z"/>
	<path class="st7" d="M407.2,107.8v2.1h-2v10.5c0,2.4-1,2.6-5.1,2.6c-0.1-0.6-0.5-1.6-0.9-2.2c0.7,0.1,1.6,0.1,2.2,0.1
		c1.4,0,1.5,0,1.5-0.5v-10.5h-11.6v-2.1H407.2z M400.5,118.7H395v1.3h-2v-8.1h7.5V118.7z M398.4,113.9H395v2.8h3.4V113.9z"/>
	<path class="st7" d="M413.6,107.2c-0.1,0.1-0.2,0.2-0.5,0.2c-0.3,0.9-0.8,1.9-1.2,2.9c0.8,0,1.7-0.1,2.5-0.1
		c-0.3-0.5-0.6-1-0.9-1.5l1.8-0.7c0.9,1.2,1.8,2.9,2.2,4l-1.9,0.8c-0.1-0.3-0.2-0.6-0.3-0.9c-2.2,0.2-4.5,0.3-6,0.4
		c0,0.2-0.2,0.2-0.3,0.3l-0.6-2.3c0.4,0,0.9,0,1.4,0c0.5-1.2,1.1-2.6,1.4-3.8L413.6,107.2z M416.2,113.2v7.7c0,1.7-0.7,2.1-3.2,2.1
		c-0.1-0.6-0.4-1.4-0.7-1.9c0.4,0,0.7,0,1,0c0.7,0,0.7,0,0.7-0.3V120h-2.6v3.1h-1.9v-9.8H416.2z M414.1,115h-2.6v0.9h2.6V115z
		 M411.5,118.5h2.6v-1h-2.6V118.5z M422.3,112.6c0.6,0,0.7-0.3,0.8-1.8c0.4,0.3,1.3,0.6,1.8,0.8c-0.2,2.3-0.8,2.9-2.4,2.9h-2.4
		c-2.1,0-2.6-0.6-2.6-2.5v-5.3l2.6,0.1c0,0.2-0.2,0.3-0.5,0.3v2c1.2-0.5,2.3-1,3.2-1.5l1.4,1.6c-0.1,0.1-0.2,0.1-0.4,0.1
		c-1.1,0.5-2.6,1.1-4.2,1.5v1c0,0.6,0.1,0.7,0.8,0.7H422.3z M419.6,120.4c0,0.6,0.1,0.7,0.8,0.7h2c0.6,0,0.7-0.3,0.8-2.1
		c0.4,0.3,1.3,0.6,1.8,0.8c-0.2,2.5-0.8,3.2-2.5,3.2h-2.5c-2.1,0-2.6-0.6-2.6-2.5v-5.5l2.5,0.1c0,0.2-0.1,0.3-0.5,0.3v1.9
		c1.3-0.5,2.5-1.1,3.3-1.6l1.5,1.6c-0.1,0.1-0.2,0.1-0.4,0.1c-1.1,0.6-2.8,1.2-4.3,1.7V120.4z"/>
	<path class="st7" d="M433.1,107.2c-0.1,0.2-0.2,0.3-0.5,0.4c-0.1,0.6-0.3,1.5-0.4,2c1.2-0.1,3-0.4,4.3-0.8l0.3,2.1
		c-1.5,0.3-3.2,0.6-4.9,0.7c-0.8,3.2-1.8,5.8-3.4,8.3l-2.2-0.8c1.4-2.2,2.6-4.8,3.2-7.5h-3v-2h1.9c0.5,0,1,0,1.4,0
		c0.2-0.8,0.3-1.8,0.4-2.7L433.1,107.2z M437.6,114.8c0,1,0.1,2,0.2,3c0.9,0.4,2.5,1.1,3.4,1.8l-1,2c-0.6-0.5-1.7-1.1-2.3-1.5
		c0,0.3-0.1,0.5-0.1,0.7c-0.4,1.1-1.3,2-3.4,2c-1.6,0-3.5-0.8-3.5-2.8c0-1.8,1.8-2.8,3.5-2.8c0.4,0,0.9,0.1,1.4,0.1
		c-0.1-0.8-0.1-1.7-0.1-2.3L437.6,114.8z M435.7,119.2c-0.5-0.2-1.1-0.3-1.5-0.3c-0.9,0-1.6,0.4-1.6,1c0,0.6,0.6,1,1.6,1
		c0.8,0,1.5-0.4,1.5-1.3V119.2z M440.9,113.5c-1.9,0-4.1,0.3-6.1,0.7l-0.3-1.9c2-0.5,4.3-0.9,6.2-0.9L440.9,113.5z"/>
	<path class="st7" d="M313.1,136.6v1.7c0,1.7,0.7,5.8,3.8,8c-0.4,0.5-1,1.3-1.3,1.9c-2.2-1.6-3.3-4.7-3.5-6.2h0
		c-0.3,1.5-1.5,4.5-4,6.2c-0.2-0.5-0.8-1.3-1.2-1.7l-0.5,0.3c-0.1-0.2-0.2-0.4-0.3-0.7c-1.7,0.5-3.5,1-4.7,1.3
		c0,0.2-0.1,0.3-0.2,0.3l-0.9-2.1l1.3-0.2v-7.7l0,0c-0.3-0.4-1-1-1.4-1.3c1.6-1.3,2.8-3.1,3.4-4.5l2.3,0.4c0,0.1-0.2,0.2-0.4,0.3
		c1.1,0.7,2.4,1.8,3.1,2.6l-1.5,1.3c-0.5-0.7-1.6-1.6-2.5-2.4c-0.2,0.4-0.5,0.8-0.8,1.2l2.1,0.1c0,0.2-0.1,0.2-0.4,0.3v1h2.1v2.3
		c1.1-1.6,1.7-4.4,2-7.1l2.5,0.5c-0.1,0.2-0.2,0.3-0.4,0.3c-0.1,0.8-0.2,1.6-0.4,2.3h4.3l1.3,0c0,0.1-0.3,3.3-1.2,5.5l-1.5-0.8
		c0.2-0.7,0.4-1.8,0.5-2.8H313.1z M303.7,136.4V135c-0.3,0.5-0.7,0.9-1.1,1.4H303.7z M305.2,144.4c-0.2-0.4-0.5-0.7-0.7-1.1l1.5-0.8
		c0.7,0.9,1.5,2.1,1.8,3c2.6-2.3,3.1-5.7,3.1-7.3v-1.7h-0.4c-0.4,1.4-0.9,2.6-1.5,3.5c-0.3-0.3-1.1-0.8-1.5-1v3.4h-4.1v2.4
		L305.2,144.4z M305.7,138.7v-0.8h-2.2v0.8H305.7z M303.5,140.1v0.8h2.2v-0.8H303.5z"/>
	<path class="st7" d="M322.8,139.9c0.6,0.5,2.3,2.1,2.7,2.5l-1.2,1.7c-0.3-0.5-0.9-1.3-1.5-2v6h-2v-5.5c-0.6,1.4-1.4,2.6-2.1,3.5
		c-0.2-0.6-0.7-1.5-1-2.1c1-1,2.1-2.8,2.7-4.4H318v-2h2.8v-6l2.5,0.1c0,0.2-0.1,0.3-0.5,0.3v5.5h2.5v2h-2.5V139.9z M319.5,132.7
		c0.5,1.2,0.9,2.8,1,3.9l-1.7,0.5c-0.1-1-0.5-2.7-0.9-3.9L319.5,132.7z M326.1,133.3c-0.1,0.1-0.2,0.2-0.5,0.2
		c-0.3,1.1-0.9,2.6-1.4,3.6c-0.5-0.2-1-0.4-1.4-0.5c0.4-1.1,0.9-2.7,1.2-3.9L326.1,133.3z M334.3,143.2l-2.2,0.4v4.4H330v-4
		l-4.4,0.8l-0.3-2l4.7-0.9v-10.3l2.5,0.1c0,0.2-0.1,0.3-0.5,0.3v9.5l1.9-0.3L334.3,143.2z M327,137.3c0.9,0.8,2.1,1.9,2.6,2.7
		c-1.5,1.1-1.5,1.2-1.6,1.2c-0.5-0.8-1.6-2-2.5-2.8L327,137.3z M327.6,132.9c0.9,0.7,1.8,1.8,2.3,2.6l-1.6,1.1
		c-0.4-0.8-1.4-1.9-2.2-2.7L327.6,132.9z"/>
	<path class="st7" d="M340.7,135.9l1.4,0.6c0,0.1-0.1,0.3-0.2,0.3c-0.8,4.4-2.7,7.9-5.2,9.8c-0.4-0.5-1.2-1.3-1.7-1.7
		c2.1-1.4,3.6-3.8,4.4-6.9h-3.8V136h4.7L340.7,135.9z M344.6,134.7c0.3,1.2,0.7,2.4,1.2,3.5c1.3-1.1,2.6-2.6,3.5-3.9l2.2,1.6
		c-0.1,0.1-0.3,0.2-0.6,0.1c-1,1.2-2.8,2.8-4.2,3.9c1.2,2.1,2.9,3.8,5.1,4.8c-0.5,0.4-1.3,1.3-1.6,2c-2.5-1.4-4.3-3.8-5.6-6.6v5.2
		c0,2.2-0.8,2.7-4.5,2.7c-0.1-0.7-0.5-1.7-0.8-2.3c0.7,0,1.4,0,1.9,0c1.1,0,1.2,0,1.2-0.4v-13.7l2.7,0.1c0,0.2-0.1,0.3-0.5,0.3
		V134.7z"/>
	<path class="st7" d="M367.6,139.9c-0.1,0-0.1,0-0.1,0c-0.1,0-0.2,0-0.2-0.1c-1.3,0.4-3,0.9-4.3,1.4c0,0.3,0,0.7,0,1.2s0,0.9,0,1.4
		l-2.2,0.2c0.1-0.6,0.1-1.4,0.1-1.9c-1.4,0.7-2.3,1.6-2.3,2.2c0,0.8,1,1.1,2.9,1.1c1.5,0,3.2-0.1,4.3-0.2l0,2
		c-0.9,0.1-2.4,0.1-4.4,0.1c-3.4,0-5-0.7-5-2.9c0-1.4,1.8-3,4.3-4.2c-0.1-0.5-0.3-1-0.8-1c-1.1,0-2.4,0.6-3.8,2.2
		c-0.4,0.5-1.1,1.2-1.8,1.9l-1.5-1.5c0.7-0.6,1.6-1.4,2.1-2c0.8-0.9,1.6-2.4,2-3.6l-0.7,0c-0.4,0-2.3,0-2.7,0v-2
		c1,0.1,2.2,0.1,3,0.1l0.9,0c0.2-0.7,0.3-1.4,0.4-2.3l2.7,0.3c0,0.2-0.2,0.3-0.4,0.3c-0.1,0.6-0.2,1.1-0.4,1.6c1.4,0,3.4-0.3,5.3-1
		l0.3,2.1c-1.7,0.5-4.1,0.7-6.2,0.9c-0.3,0.9-0.6,1.7-0.9,2h0c0.6-0.5,1.5-0.9,2.4-0.9c1,0,1.9,0.7,2.2,2c1.3-0.6,3-1.2,4.2-1.7
		L367.6,139.9z"/>
	<path class="st7" d="M383.4,133.9c-0.1,0.1-0.2,0.2-0.3,0.3c-0.8,1.9-2.2,4.2-3.7,5.6c-0.5-0.4-1.4-0.9-2-1.2
		c1.1-0.9,2.1-2.4,2.6-3.4h-11.3v-2.1h12.5l0.2-0.2L383.4,133.9z M376.7,137.2c0,0.2-0.2,0.3-0.5,0.4c-0.4,3.8-1.9,7.7-5.4,9.9
		c-0.5-0.4-1.3-1.1-1.9-1.4c3.3-1.8,4.7-5.2,4.9-9.1L376.7,137.2z"/>
	<path class="st7" d="M399.4,135.3c-0.1,0.1-0.2,0.2-0.4,0.3c-1.4,2.2-4.1,4.8-6.4,6.5c1,0.8,2.3,2,3.1,2.8l-1.9,1.7
		c-1.9-2.2-5-4.8-7.6-6.3l1.5-1.6c1,0.6,2.2,1.3,3.2,2.1c1.8-1.4,3.6-3.2,4.7-4.6h-11.2v-2.1h13l0.3-0.2L399.4,135.3z"/>
	<path class="st7" d="M404.1,139.9c-0.5-1.3-1.7-3.5-2.8-4.9l1.9-0.9c1.1,1.2,2.4,3.4,2.9,4.8L404.1,139.9z M414.7,135.2
		c-0.1,0.2-0.2,0.3-0.5,0.3c-1.8,6-4.9,9.8-9.7,11.8c-0.3-0.5-1-1.3-1.5-1.7c4.6-1.8,7.5-5.2,9.1-11.2L414.7,135.2z M409.6,131.5
		c0.7,0.6,1.5,1.8,2,2.5l-1.1,0.8c-0.4-0.7-1.3-1.9-1.9-2.5L409.6,131.5z M413.1,131.2c0.7,0.7,1.6,1.7,2,2.4l-1.1,0.7
		c-0.4-0.7-1.3-1.9-1.9-2.5L413.1,131.2z"/>
	<path class="st7" d="M417.6,133.3c1.7,0.5,3.8,1.5,5.1,2.3l-1.1,2c-1.3-0.8-3.3-1.8-5-2.4L417.6,133.3z M417,145.1
		c5.9-1.8,9.9-5.2,11.9-10c0.6,0.5,1.4,0.9,2,1.3c-2.2,4.8-6.3,8.5-12.1,10.5c0,0.2-0.1,0.4-0.3,0.5L417,145.1z"/>
	<path class="st7" d="M439.2,132.5c0,0.2-0.3,0.3-0.6,0.4c-0.2,0.9-0.4,2.4-0.6,3.4c0.5-0.1,1.1-0.1,1.4-0.1c2.9,0,3.8,2,3.8,4.7v0
		c-0.1,3.8-1.1,6.6-3.8,6.6c-0.7,0-1.7-0.3-3.1-1.4c0.3-0.5,0.6-1.3,0.7-1.9c1.2,0.8,1.9,1,2.3,1c0.7,0,1.1-0.6,1.4-1.6
		c0.2-0.8,0.4-2.2,0.4-2.9c0-1.7-0.5-2.6-1.8-2.6c-0.4,0-1,0-1.7,0.1c-0.8,3.2-1.7,6.3-3.2,9.1l-2-1c1.4-2.6,2.3-5,3-7.9
		c-0.6,0.1-1.9,0.3-2.6,0.4l-0.2-2.2l3.2-0.4c0.2-1.3,0.5-2.7,0.6-4.2L439.2,132.5z M445.9,141.1c-0.4-2.3-2-4.5-3.4-5.8l1.7-1.2
		c1.8,1.3,3.6,3.9,4,6.1L445.9,141.1z"/>
	<path class="st7" d="M453.3,135.6c-0.1,0.2-0.2,0.3-0.5,0.3c-0.2,2.4-0.4,3.8-0.7,4.3h0c1.5-1.1,4-1.8,5.7-1.8c2.5,0,4.5,1.4,4.4,4
		c0,3.3-2.5,4.9-9.5,5.2c-0.2-0.5-0.5-1.4-0.8-2c5.8-0.2,7.9-1.1,7.9-3.2c0-1.2-0.9-2.1-2.4-2.1c-2.2,0-4.8,1-5.9,2.6l-2-0.9
		c0.4-0.3,1-3.7,1-6.8L453.3,135.6z M453,131.9c2.1,0.2,4.9,0.7,6.7,1.4l-0.7,2.1c-1.7-0.7-4.7-1.3-6.6-1.5L453,131.9z"/>
	<path class="st7" d="M313.1,169.7c0.9,0,2.8-0.2,3.8-0.3c0,0.7,0.1,1.5,0.1,2.2c-1,0.1-2.9,0.2-3.7,0.2h-3.9c-3,0-4.4-1.3-4.4-4
		v-10.1l2.8,0.1c0,0.2-0.2,0.3-0.5,0.4v5.2c2.2-0.7,5.5-2.1,7.6-3.2l1.5,2.1c-0.1,0-0.2,0.1-0.3,0.1c-0.1,0-0.2,0-0.3-0.1
		c-1.7,0.8-5.5,2.3-8.5,3.2v2.4c0,1.4,0.6,1.9,2.2,1.9H313.1z M316.9,156.6c1,0,1.9,0.9,1.9,1.9c0,1-0.8,1.9-1.9,1.9
		c-1,0-1.9-0.9-1.9-1.9C315,157.4,315.9,156.6,316.9,156.6z M318.1,158.5c0-0.7-0.5-1.2-1.2-1.2c-0.7,0-1.2,0.6-1.2,1.2
		c0,0.7,0.5,1.2,1.2,1.2C317.6,159.8,318.1,159.2,318.1,158.5z"/>
	<path class="st7" d="M321.3,161.8c0.5,1,1,2.6,1.2,3.7l-1.7,0.5c-0.2-1.1-0.7-2.6-1.2-3.7L321.3,161.8z M331.4,162.2
		c-0.1,0.1-0.2,0.2-0.4,0.2c-1.4,5.1-4.1,8.2-8.1,9.8c-0.2-0.3-0.8-1-1.2-1.4c3.7-1.4,6.3-4.2,7.5-9.3L331.4,162.2z M325.4,161
		c0.4,1.1,0.7,2.7,0.8,3.8l-1.8,0.4c-0.1-1.1-0.5-2.7-0.9-3.8L325.4,161z"/>
	<path class="st7" d="M346.1,160.8c-0.1,0.1-0.2,0.2-0.4,0.3c-2,5.7-4.7,9.1-9.4,11.5c-0.4-0.5-1-1.2-1.6-1.7c4.4-2,6.9-5.1,8.2-9
		h-5.1c-0.9,1.3-2.3,2.9-3.7,4c-0.4-0.4-1.2-1.1-1.8-1.4c2.3-1.7,4.4-4.5,5.5-7.4l2.8,0.6c-0.1,0.2-0.3,0.3-0.6,0.3
		c-0.3,0.6-0.6,1.2-0.9,1.8h5l0.3-0.2L346.1,160.8z"/>
	<path class="st7" d="M361.7,158.9c-0.1,0.1-0.2,0.2-0.3,0.3c-0.8,1.9-2.2,4.2-3.7,5.6c-0.5-0.4-1.4-0.9-2-1.2
		c1.1-0.9,2.1-2.4,2.6-3.4H347v-2.1h12.5l0.2-0.2L361.7,158.9z M355,162.2c0,0.2-0.2,0.3-0.5,0.4c-0.4,3.8-1.9,7.7-5.4,9.9
		c-0.5-0.4-1.3-1.1-1.9-1.4c3.3-1.8,4.7-5.2,4.9-9.1L355,162.2z"/>
	<path class="st7" d="M364.5,161.8c0.5,1,1,2.6,1.2,3.7l-1.7,0.5c-0.2-1.1-0.7-2.6-1.2-3.7L364.5,161.8z M374.6,162.2
		c-0.1,0.1-0.2,0.2-0.4,0.2c-1.4,5.1-4.1,8.2-8.1,9.8c-0.2-0.3-0.8-1-1.2-1.4c3.7-1.4,6.3-4.2,7.5-9.3L374.6,162.2z M368.6,161
		c0.4,1.1,0.7,2.7,0.8,3.8l-1.8,0.4c-0.1-1.1-0.5-2.7-0.9-3.8L368.6,161z"/>
	<path class="st7" d="M376.5,159.2h10.9l0.2-0.1l1.9,1.4c-0.1,0.1-0.2,0.2-0.3,0.2c-1.5,6.5-4.5,9.7-9.8,11.8
		c-0.3-0.6-1-1.4-1.4-1.8c4.7-1.8,7.7-4.8,8.6-9.3h-10V159.2z M389.8,156.3c1,0,1.9,0.8,1.9,1.9c0,1-0.8,1.9-1.9,1.9
		c-1,0-1.9-0.9-1.9-1.9C387.9,157.1,388.8,156.3,389.8,156.3z M391,158.1c0-0.7-0.5-1.2-1.2-1.2c-0.7,0-1.2,0.5-1.2,1.2
		c0,0.7,0.6,1.2,1.2,1.2C390.5,159.4,391,158.8,391,158.1z"/>
	<path class="st7" d="M396.6,157.5c0,0.2-0.2,0.3-0.5,0.4c-0.2,2.3-0.3,6.4-0.3,8.9c0,2.2,1.1,3.3,3,3.3c1.7,0,3.6-0.9,5.6-2.9
		c0.3,0.5,0.9,1.6,1.3,2c-2.2,2.2-4.5,3.2-6.9,3.2c-3.9,0-5.4-2.1-5.4-5.5c0-2.3,0.1-7.4,0.2-9.5L396.6,157.5z"/>
	<path class="st7" d="M406.6,159.1c1.1,0.1,2.7,0.1,4,0.1c0.6,0,1.1,0,1.7,0c0-0.7,0-1.6,0-2.1l2.7,0.1c0,0.2-0.2,0.3-0.5,0.4v1.6
		c1.8-0.1,3.6-0.2,5.3-0.6l0.2,2c-1.6,0.3-3.4,0.4-5.5,0.5c0,0.8,0,1.6,0,2.4c1.6-0.1,3.3-0.3,4.4-0.6l0.2,1.9
		c-1.1,0.2-2.9,0.4-4.5,0.5c0,0.9,0.1,1.6,0.1,2.3c1.6,0.5,3.2,1.4,4.7,2.5l-1.3,1.9c-1.1-1-2.2-1.7-3.3-2.2v0.5
		c0,1.4-1.2,2.4-3.6,2.4c-2.3,0-3.9-1.1-3.9-2.8c0-1.8,1.9-2.8,4-2.8c0.4,0,0.9,0,1.3,0.1c0-0.5,0-1.1-0.1-1.7c-0.5,0-1,0-1.4,0
		c-2.4,0-3.8-0.4-3.8-1.7c0-0.7,0.5-1.4,1.8-2.2l1.5,0.8c-0.6,0.3-1.1,0.6-1.1,0.9c0,0.3,0.2,0.4,2,0.4c0.3,0,0.6,0,0.9,0l-0.1-2.5
		c-0.5,0-1.1,0-1.7,0c-1.2,0-3,0-4,0V159.1z M412.6,168.8c-0.5-0.1-1.1-0.2-1.5-0.2c-1.1,0-1.9,0.5-1.9,1.1c0,0.7,0.9,1.1,2,1.1
		c1,0,1.5-0.4,1.5-1.3L412.6,168.8z"/>
	<path class="st7" d="M426,157.5c0,0.2-0.2,0.3-0.5,0.4c-0.2,2.3-0.3,6.4-0.3,8.9c0,2.2,1.1,3.3,3,3.3c1.7,0,3.6-0.9,5.6-2.9
		c0.3,0.5,0.9,1.6,1.3,2c-2.2,2.2-4.5,3.2-6.9,3.2c-3.9,0-5.4-2.1-5.4-5.5c0-2.3,0.1-7.4,0.2-9.5L426,157.5z"/>
	<path class="st7" d="M446.1,161.2c-1.3,0.4-3.1,0.7-4.8,0.9c-0.7,3.7-1.8,7.6-3,10.5l-2.3-0.8c1.4-2.8,2.4-6.1,3-9.6
		c-0.3,0-1.5,0-1.8,0c-0.4,0-0.7,0-1,0l0-2.1c0.6,0,1.5,0,2.3,0c0.3,0,0.6,0,0.9,0c0.1-1,0.3-2.2,0.3-3.2l2.8,0.2
		c0,0.2-0.2,0.4-0.5,0.4c-0.1,0.6-0.2,1.6-0.3,2.4c1.4-0.2,2.8-0.4,4-0.9L446.1,161.2z M450.8,172.3c-0.5,0-1.2,0.1-1.8,0.1
		c-1.3,0-2.8-0.1-3.7-0.3c-1.6-0.4-2.3-1.4-2.3-2.6c0-0.8,0.4-1.8,1.1-2.6l1.9,0.7c-0.5,0.6-0.8,1.1-0.8,1.5c0,1,0.9,1.2,3.6,1.2
		c0.7,0,1.4,0,2.1-0.1L450.8,172.3z M444.2,163.5c1.7-0.6,4.2-0.9,6.2-0.9v2.1c-1.9-0.1-4,0.2-5.7,0.6L444.2,163.5z"/>
	<path class="st7" d="M457,170.6c0,1.3-1.1,2.4-2.4,2.4c-1.3,0-2.4-1.1-2.4-2.4s1.1-2.4,2.4-2.4C455.9,168.2,457,169.3,457,170.6z
		 M456.2,170.6c0-0.9-0.7-1.7-1.7-1.7c-0.9,0-1.6,0.7-1.6,1.7c0,0.9,0.7,1.6,1.6,1.6C455.5,172.3,456.2,171.5,456.2,170.6z"/>
</g>
<g class="st6">
	<path class="st7" d="M316.7,202.2v1.1h-4.6v-1.1H316.7z M316.3,207v3.6h-2.5v0.5h-1.2v-4H316.3z M312.7,204.9v-1.1h3.6v1.1H312.7z
		 M312.7,206.5v-1h3.6v1H312.7z M316.2,200.6v1.1h-3.5v-1.1H316.2z M315.1,208.2h-1.2v1.3h1.2V208.2z M323.1,207.3v1.3h-2.6v2.7
		h-1.4v-2.7h-2.6v-1.3h2.6v-1.2h-2v-1.3h2v-1.1h-2.2v-1.3h1.1c-0.1-0.5-0.4-1.2-0.7-1.7l1.1-0.4c0.4,0.6,0.7,1.4,0.8,1.9l-0.6,0.2
		h2.2l-0.5-0.2c0.3-0.6,0.7-1.4,0.8-2l1.5,0.5c0,0.1-0.2,0.1-0.3,0.1c-0.2,0.5-0.5,1.1-0.8,1.6h1.3v1.3h-2.4v1.1h2.1v1.3h-2.1v1.2
		H323.1z"/>
	<path class="st7" d="M328.6,201.2h5.6v9.8h-1.3v-0.5h-3.1v0.6h-1.2v-1.8c-0.3,0.1-0.7,0.2-1.1,0.4c-0.1-0.6-0.4-1.6-0.7-2.3l1-0.3
		c0.3,0.7,0.6,1.5,0.7,2.1v-2.6l-0.9,0.4c0-0.2-0.1-0.3-0.2-0.5l-0.8,0v4.8h-1.2v-3.8c0,0.1-0.1,0.1-0.3,0.1c-0.1,1-0.3,2.1-0.7,2.8
		c-0.2-0.2-0.7-0.4-1-0.5c0.3-0.6,0.5-1.7,0.6-2.7l1.3,0.3v-0.9c-0.5,0-1,0.1-1.4,0.1c0,0.1-0.1,0.2-0.2,0.2l-0.3-1.4h0.9
		c0.2-0.2,0.4-0.5,0.6-0.7c-0.3-0.5-0.9-1.1-1.4-1.6l0.7-1l0.3,0.2c0.3-0.7,0.7-1.4,0.9-2.1l1.4,0.6c0,0.1-0.2,0.1-0.3,0.1
		c-0.3,0.6-0.8,1.5-1.2,2.1c0.2,0.2,0.3,0.3,0.4,0.5c0.4-0.7,0.8-1.4,1.1-2l1.3,0.6c-0.1,0.1-0.2,0.1-0.3,0.1c-0.5,0.9-1.3,2-2.1,3
		l1.3,0c-0.1-0.3-0.3-0.6-0.5-0.9l1-0.5c0.4,0.6,0.7,1.3,1,1.9V201.2z M330.7,202.5h-0.9v2.7h0.9V202.5z M329.8,206.5v2.8h0.9v-2.8
		H329.8z M332.9,205.2v-2.7h-1v2.7H332.9z M331.9,209.3h1v-2.8h-1V209.3z"/>
	<path class="st7" d="M336.2,210.6c-0.3-0.9-0.5-2.8-0.5-4.4c0-1.7,0.3-3.4,0.6-5.3l1.8,0.3c0,0.1-0.2,0.2-0.3,0.2
		c-0.7,2.5-0.7,4.3-0.7,5.6c0,0.4,0,0.8,0,1c0.2-0.5,0.5-1.4,0.7-1.8l0.8,1c-0.3,0.6-0.7,1.6-1,2.2c-0.1,0.2-0.1,0.4-0.1,0.6
		c0,0.2,0,0.3,0.1,0.5L336.2,210.6z M339.3,203.4c0.8,0,1.7,0,2.6,0c0-0.9-0.1-1.7-0.1-2.6l1.8,0.1c0,0.1-0.1,0.2-0.3,0.3l0,2.1
		c0.8-0.1,1.5-0.2,2-0.4l0.1,1.4c-0.5,0.2-1.2,0.3-2.1,0.3c0,1,0.1,2.1,0.1,2.9c0.8,0.3,1.6,0.8,2.2,1.3l-0.8,1.4
		c-0.4-0.4-0.8-0.8-1.4-1.1c-0.2,1.5-1.2,1.7-2.2,1.7c-1.4,0-2.3-0.8-2.3-1.9c0-1.2,1.1-1.9,2.3-1.9c0.2,0,0.5,0,0.7,0.1
		c0-0.6-0.1-1.5-0.1-2.4c-0.3,0-0.7,0-1,0h-1.6L339.3,203.4z M342.2,208.3c-0.2-0.1-0.5-0.1-0.8-0.1c-0.6,0-1.1,0.2-1.1,0.7
		c0,0.4,0.5,0.7,1.1,0.7c0.6,0,0.9-0.3,0.8-0.9C342.2,208.6,342.2,208.5,342.2,208.3z"/>
	<path class="st7" d="M347.4,207.1v-5.7l1.8,0.1c0,0.1-0.1,0.2-0.3,0.2v5.4H347.4z M354.2,200.9c0,0.1-0.1,0.2-0.3,0.2v3.6
		c0,2.5-0.8,4.7-4.1,6.1c-0.2-0.3-0.8-0.8-1.1-1.1c3.1-1.2,3.7-3.1,3.7-5v-4L354.2,200.9z"/>
	<path class="st7" d="M356.4,201.4c1.2,0.4,2.6,1,3.4,1.5l-0.8,1.3c-0.8-0.6-2.2-1.2-3.3-1.6L356.4,201.4z M356,209.2
		c3.9-1.2,6.6-3.5,8-6.7c0.4,0.3,0.9,0.6,1.4,0.9c-1.4,3.2-4.2,5.6-8.1,7c0,0.1-0.1,0.3-0.2,0.3L356,209.2z"/>
	<path class="st7" d="M374.6,203c0,0.1-0.2,0.2-0.3,0.2c-1.3,3.8-3.1,6.1-6.3,7.7c-0.2-0.3-0.7-0.8-1.1-1.1c2.9-1.4,4.6-3.4,5.5-6
		H369c-0.6,0.9-1.5,1.9-2.5,2.7c-0.3-0.3-0.8-0.7-1.2-1c1.5-1.1,2.9-3,3.6-4.9l1.8,0.4c0,0.1-0.2,0.2-0.4,0.2
		c-0.2,0.4-0.4,0.8-0.6,1.2h3.3l0.2-0.1L374.6,203z"/>
	<path class="st7" d="M380,206.8c0,0.1-0.1,0.2-0.3,0.2c-0.3,1.7-0.8,3.3-3.5,4.3c-0.2-0.4-0.5-0.9-0.8-1.2c2.4-0.7,2.8-1.9,3-3.4
		L380,206.8z M382.8,209.3c0,0.4,0.1,0.4,0.4,0.4h1c0.3,0,0.4-0.2,0.5-1.6c0.3,0.2,0.9,0.5,1.3,0.6c-0.1,1.9-0.5,2.4-1.6,2.4H383
		c-1.3,0-1.6-0.4-1.6-1.8v-2.8h-5.9v-1.4h4.5v-1.9h-2c-0.3,0.6-0.6,1.2-0.9,1.6c-0.3-0.2-0.9-0.5-1.2-0.6c0.8-1,1.3-2.5,1.6-3.7
		l1.6,0.4c0,0.1-0.1,0.2-0.3,0.2c-0.1,0.3-0.2,0.6-0.3,0.9h1.5v-1.6l1.7,0.1c0,0.1-0.1,0.2-0.3,0.2v1.3h3.6v1.3h-3.6v1.9h4.5v1.4
		h-3.1V209.3z"/>
	<path class="st7" d="M393.1,203c0,0.1-0.2,0.2-0.3,0.2c-0.5,4-1.6,6.3-3.6,6.3c-1.3,0-2.2-1.1-2.2-3c0-3,2.4-5.2,5.3-5.2
		c3.3,0,5,2,5,4.5c0,2.7-1.4,4.1-4.3,4.9c-0.2-0.3-0.5-0.8-0.9-1.2c2.6-0.5,3.7-1.8,3.7-3.6c0-1.9-1.3-3.1-3.4-3.1
		c-0.2,0-0.4,0-0.6,0L393.1,203z M391.3,202.8c-1.8,0.4-2.9,1.9-2.9,3.6c0,1,0.3,1.7,0.8,1.7C390.3,208,391.1,205.5,391.3,202.8z"/>
	<path class="st7" d="M407.9,201.8c0,0.1-0.1,0.1-0.2,0.2c-0.5,1.3-1.5,2.8-2.5,3.8c-0.3-0.2-0.9-0.6-1.3-0.8
		c0.7-0.6,1.4-1.6,1.7-2.3h-7.5v-1.4h8.4l0.2-0.1L407.9,201.8z M403.5,204c0,0.1-0.1,0.2-0.3,0.2c-0.3,2.5-1.3,5.2-3.6,6.6
		c-0.3-0.3-0.9-0.7-1.3-0.9c2.2-1.2,3.1-3.5,3.3-6.1L403.5,204z"/>
	<path class="st7" d="M418.6,202.7c0,0.1-0.1,0.2-0.2,0.2c-1,1.5-2.7,3.2-4.3,4.4c0.7,0.5,1.6,1.3,2.1,1.9l-1.3,1.1
		c-1.3-1.5-3.3-3.2-5.1-4.2l1-1c0.7,0.4,1.5,0.9,2.2,1.4c1.2-0.9,2.4-2.1,3.1-3.1h-7.5V202h8.7l0.2-0.1L418.6,202.7z"/>
	<path class="st7" d="M421.8,205.8c-0.3-0.9-1.1-2.3-1.9-3.3l1.3-0.6c0.7,0.8,1.6,2.3,2,3.2L421.8,205.8z M428.8,202.6
		c0,0.1-0.1,0.2-0.3,0.2c-1.2,4-3.3,6.5-6.5,7.8c-0.2-0.3-0.7-0.8-1-1.1c3.1-1.2,5-3.5,6.1-7.5L428.8,202.6z M425.4,200.2
		c0.5,0.4,1,1.2,1.3,1.6l-0.7,0.5c-0.3-0.4-0.9-1.3-1.3-1.7L425.4,200.2z M427.8,200c0.5,0.5,1,1.1,1.3,1.6l-0.7,0.5
		c-0.3-0.5-0.9-1.2-1.3-1.6L427.8,200z"/>
	<path class="st7" d="M430.8,201.4c1.2,0.4,2.6,1,3.4,1.5l-0.8,1.3c-0.8-0.6-2.2-1.2-3.3-1.6L430.8,201.4z M430.4,209.2
		c3.9-1.2,6.6-3.5,8-6.7c0.4,0.3,0.9,0.6,1.4,0.9c-1.4,3.2-4.2,5.6-8.1,7c0,0.1-0.1,0.3-0.2,0.3L430.4,209.2z"/>
	<path class="st7" d="M446.6,203c0,0.1-0.2,0.2-0.3,0.2c-0.5,4-1.6,6.3-3.6,6.3c-1.3,0-2.2-1.1-2.2-3c0-3,2.4-5.2,5.3-5.2
		c3.3,0,5,2,5,4.5c0,2.7-1.4,4.1-4.3,4.9c-0.2-0.3-0.5-0.8-0.9-1.2c2.6-0.5,3.7-1.8,3.7-3.6c0-1.9-1.3-3.1-3.4-3.1
		c-0.2,0-0.4,0-0.6,0L446.6,203z M444.8,202.8c-1.8,0.4-2.9,1.9-2.9,3.6c0,1,0.3,1.7,0.8,1.7C443.8,208,444.6,205.5,444.8,202.8z"/>
	<path class="st7" d="M318.9,215.3v1.3h-2.2l0.3,0.1c0,0.1-0.1,0.1-0.3,0.2c-0.1,0.3-0.3,0.6-0.5,0.9h2.2v6c0,1.3-0.6,1.5-2.6,1.5
		c-0.1-0.3-0.2-0.7-0.3-1.1h-2.8v0.7h-1.2V221h4.6v2.8h0.8c0.2,0,0.3-0.1,0.3-0.2v-3.1c-0.2,0.1-0.4,0.1-0.6,0.1h-1
		c-1.1,0-1.3-0.3-1.3-1.3v-0.5H313c-0.1,1.1-0.5,1.9-2.3,2.3c-0.1-0.2-0.3-0.5-0.5-0.8v4.7h-1.3v-7.5h2.1c-0.1-0.3-0.3-0.7-0.4-1
		l0.4-0.1h-2.7v-1.3h4.5v-1.1l1.7,0.1c0,0.1-0.1,0.2-0.3,0.2v0.8H318.9z M310.3,218.9v1.3c1.1-0.2,1.5-0.6,1.6-1.3H310.3z
		 M312.1,216.6c0.2,0.4,0.4,0.8,0.4,1.1h2.1c0.2-0.3,0.3-0.7,0.4-1.1H312.1z M314.7,223v-0.9h-2.1v0.9H314.7z M316.2,219.6
		c0.2,0,0.2,0,0.3-0.3c0.1,0.1,0.3,0.2,0.5,0.2v-0.7h-1.7v0.5c0,0.2,0,0.3,0.3,0.3H316.2z"/>
	<path class="st7" d="M320.2,225.1V220h4.5v5.1h-1.4v-0.4h-1.8v0.4H320.2z M323.3,221.3h-1.8v2h1.8V221.3z M328.3,214.6v4.5h-6.2
		v-4.5H328.3z M326.9,217.7v-1.8h-3.4v1.8H326.9z M325.7,220h4.6v5h-1.4v-0.3H327v0.4h-1.3V220z M327,223.4h1.9v-2H327V223.4z"/>
	<path class="st7" d="M331.2,220.2c0.8-0.9,2.4-2.7,3.2-3.5c0.4-0.4,0.8-0.6,1.2-0.6c0.4,0,0.8,0.2,1.2,0.6c1.4,1.2,3.8,3.9,5.4,5.8
		l-1.2,1.2c-1.4-2-3.9-4.8-4.8-5.7c-0.2-0.2-0.4-0.3-0.5-0.3c-0.1,0-0.3,0.1-0.5,0.4c-0.4,0.5-1.8,2.2-2.5,3c0,0.1,0,0.3-0.2,0.4
		L331.2,220.2z M340,214.4c0.7,0,1.3,0.6,1.3,1.3c0,0.7-0.6,1.3-1.3,1.3c-0.7,0-1.3-0.6-1.3-1.3C338.7,215,339.3,214.4,340,214.4z
		 M340.8,215.7c0-0.5-0.4-0.8-0.8-0.8s-0.8,0.4-0.8,0.8s0.4,0.8,0.8,0.8C340.4,216.5,340.8,216.1,340.8,215.7z"/>
	<path class="st7" d="M343,218.8h9.7v1.5h-9.2c-0.1,0.1-0.2,0.2-0.4,0.2L343,218.8z"/>
	<path class="st7" d="M354.5,217.8c1,0.3,2.2,0.7,3,1.1l-0.6,1.3c-0.8-0.4-2-0.9-3-1.1L354.5,217.8z M354.8,223.2
		c3.5-1.1,6.2-3,7.7-6.4c0.3,0.3,1,0.8,1.3,1c-1.6,3.3-4.4,5.5-7.7,6.6c0,0.1,0,0.2-0.2,0.3L354.8,223.2z M355.9,215
		c1,0.3,2.2,0.7,3,1.1l-0.7,1.2c-0.8-0.5-1.9-0.9-2.9-1.2L355.9,215z M361.1,214.6c0.5,0.4,1.1,1.1,1.4,1.6l-0.7,0.5
		c-0.3-0.5-0.9-1.3-1.3-1.6L361.1,214.6z M362.9,213.9c0.5,0.4,1.1,1.1,1.4,1.6l-0.7,0.5c-0.3-0.5-0.9-1.2-1.3-1.6L362.9,213.9z"/>
	<path class="st7" d="M364.5,215.6c0.4,0,0.9,0,1.2,0c1.3-0.1,6.4-0.4,8.3-0.5l0,1.6c-1,0-1.6,0.1-2.5,0.7c-1.3,0.8-2.9,2.5-2.9,3.8
		c0,1.3,1.2,2.1,3.7,2.4l-0.7,1.5c-3.3-0.4-4.6-1.8-4.6-3.8c0-1.4,1.3-3.3,3-4.5c-1.4,0.1-4.1,0.3-5.2,0.5c0,0.1-0.2,0.2-0.3,0.2
		L364.5,215.6z M372.3,218.4c0.5,0.4,1.1,1.1,1.4,1.6l-0.7,0.5c-0.3-0.5-1-1.2-1.4-1.6L372.3,218.4z M373.7,217.3
		c0.5,0.4,1.1,1,1.4,1.6l-0.7,0.5c-0.3-0.4-0.9-1.2-1.4-1.6L373.7,217.3z"/>
	<path class="st7" d="M383.9,224.1c-0.9,0.2-2.3,0.2-3.5,0.2c-1,0-1.9-0.1-2.4-0.2c-1.5-0.3-2.1-1.3-2.1-2.4c0-0.9,0.5-1.8,1.1-2.4
		l1.3,0.6c-0.5,0.5-0.8,1.1-0.8,1.6c0,1.4,1.7,1.4,2.8,1.4c1.1,0,2.5-0.1,3.6-0.3L383.9,224.1z M378.2,218c0.4-0.3,1-0.8,1.5-1v0
		c-0.6,0.1-2.2,0.1-3.2,0.1c0-0.4,0-1.1,0-1.4c0.2,0,0.5,0,0.8,0c2.1,0,4.2,0,5.9-0.3l0.1,1.5c-1.7,0.3-3.1,1.3-3.8,1.8L378.2,218z
		 M383.6,220c-0.3-0.4-1-1.2-1.4-1.5l0.6-0.5c0.5,0.4,1.1,1,1.5,1.5L383.6,220z M384.9,218.8c-0.3-0.4-1-1.1-1.4-1.5l0.6-0.5
		c0.5,0.4,1.1,1,1.5,1.5L384.9,218.8z"/>
	<path class="st7" d="M396.8,223.6v1.1h-4.4v0.5h-1.3v-4.4c-0.2,0.2-0.4,0.3-0.6,0.5c-0.1-0.3-0.3-0.7-0.5-1.1v3.7H388v1h-1.1v-3.2
		c-0.1,0.2-0.3,0.5-0.5,0.7c-0.1-0.3-0.5-1-0.7-1.3c0.8-1.1,1.2-2.9,1.5-4.9H386v-1.3h4.3v0.7h2.4c0.1-0.4,0.2-0.9,0.3-1.4l1.6,0.3
		c0,0.1-0.1,0.2-0.3,0.2c-0.1,0.3-0.1,0.6-0.2,0.9h2.7v2.3h-1.2v-0.2c0,0-0.1,0-0.1,0c-0.1,0.2-0.2,0.5-0.3,0.8h1.6v1.2h-1.8v0.7
		h1.5v1h-1.5v0.7h1.5v1h-1.5v0.7H396.8z M388.9,222.6v-2.9H388v2.9H388.9z M390.1,218.5v1.4c0.9-0.7,1.7-1.8,2.2-3.2h-0.8v1.1h-1.2
		v-1.6h-1.7c-0.1,0.8-0.3,1.6-0.5,2.4H390.1z M393.5,220.2v-0.7h-1v0.7H393.5z M393.5,221.9v-0.7h-1v0.7H393.5z M392.5,222.9v0.7h1
		v-0.7H392.5z M395.5,216.7h-1.8c-0.2,0.6-0.5,1.1-0.7,1.7h0.8c0.2-0.4,0.3-0.9,0.5-1.3l1.3,0.4V216.7z"/>
	<path class="st7" d="M401.7,216.1v1.1h-4.2v-1.1H401.7z M401.4,221v2.8c0.4-0.6,0.7-1.5,0.8-2.4l1.1,0.3c-0.1,1-0.3,2.1-0.9,2.8
		l-1-0.6v0.6h-2.3v0.5H398v-4H401.4z M401.4,217.8v1.1H398v-1.1H401.4z M398,220.4v-1h3.4v1H398z M401.4,214.6v1.1H398v-1.1H401.4z
		 M400.3,223.4v-1.3h-1.1v1.3H400.3z M408.1,215c-0.2,4.7-0.3,4.7-2.7,4.6c0-0.4-0.2-0.9-0.3-1.2l0.2,0c-0.2-0.1-0.5-0.3-0.7-0.4
		c-0.4,0.8-1,1.5-2,2c-0.2-0.3-0.5-0.8-0.8-1c0.8-0.4,1.3-1,1.7-1.6c-0.4-0.2-0.9-0.4-1.3-0.5l0.7-1c0.3,0.1,0.7,0.2,1.1,0.4
		c0.1-0.2,0.1-0.4,0.2-0.7h-1.8v-1.2h4.8l0.3,0l0.7,0.1L408.1,215z M404.8,223.4c0,0.3,0,0.3,0.2,0.3h0.5c0.2,0,0.2-0.1,0.3-1.1
		c0.2,0.2,0.8,0.4,1.1,0.5c-0.1,1.5-0.5,1.8-1.2,1.8h-0.8c-1,0-1.3-0.4-1.3-1.5V221l1.6,0.1c0,0.1-0.1,0.2-0.3,0.2V223.4z
		 M405.6,221.6c-0.4-0.5-1.2-1.2-2-1.6l0.9-0.8c0.7,0.4,1.6,1.1,2,1.6L405.6,221.6z M405.5,218.5c0.3,0,0.5,0,0.6,0
		c0.1,0,0.2,0,0.3-0.1c0.2-0.2,0.3-0.9,0.3-2.6h-1.5c-0.1,0.4-0.2,0.8-0.3,1.2c0.4,0.2,0.8,0.4,1.1,0.6L405.5,218.5z M407.4,224.6
		c-0.1-0.8-0.6-2-1.2-2.9l1.1-0.5c0.6,0.9,1.1,2.1,1.3,2.9L407.4,224.6z"/>
	<path class="st7" d="M415.1,225.1c-1-1.2-2.7-2.8-4.5-4.1c-0.7-0.5-0.9-0.9-0.9-1.4c0-0.4,0.1-0.7,0.5-1.1c1.2-1.1,3.2-3.1,4.1-4.1
		l1.7,1.1c-0.1,0.1-0.2,0.2-0.5,0.1c-1.1,1-2.7,2.4-3.7,3.3c-0.3,0.3-0.5,0.5-0.5,0.7c0,0.2,0.3,0.4,0.7,0.7c1.4,1,3,2.4,4.4,3.8
		L415.1,225.1z"/>
	<path class="st7" d="M424.3,217.3c-0.9,0.3-2,0.5-3.2,0.6c-0.5,2.4-1.2,5.1-2,7l-1.5-0.5c0.9-1.8,1.6-4,2-6.4c-0.2,0-1,0-1.2,0
		c-0.2,0-0.5,0-0.7,0l0-1.4c0.4,0,1,0,1.5,0c0.2,0,0.4,0,0.6,0c0.1-0.7,0.2-1.5,0.2-2.1l1.9,0.2c0,0.1-0.2,0.2-0.3,0.3
		c-0.1,0.4-0.2,1-0.2,1.6c0.9-0.1,1.9-0.3,2.7-0.6L424.3,217.3z M427.4,224.6c-0.4,0-0.8,0-1.2,0c-0.9,0-1.9-0.1-2.4-0.2
		c-1-0.2-1.5-1-1.5-1.8c0-0.6,0.3-1.2,0.7-1.7l1.2,0.5c-0.4,0.4-0.5,0.7-0.5,1c0,0.6,0.6,0.8,2.2,0.8c0.5,0,1.1,0,1.5-0.1
		L427.4,224.6z M422.9,218.8c1.2-0.4,2.8-0.6,4.1-0.6v1.4c-1.3,0-2.7,0.1-3.8,0.4L422.9,218.8z M425,214.7c0.5,0.4,1.2,1,1.5,1.5
		l-0.7,0.6c-0.3-0.4-1-1.2-1.4-1.5L425,214.7z M426.6,214c0.5,0.4,1.2,1,1.5,1.5l-0.7,0.6c-0.3-0.4-1-1.1-1.4-1.5L426.6,214z"/>
	<path class="st7" d="M438,217.3c-0.9,0.2-2.3,0.4-3.5,0.5c0.4,1.3,1,2,2,2.5l-1,1.2c-0.4-0.4-1.1-0.8-2.5-0.8l-0.4-1.2
		c0.4,0,0.9,0,1.2,0.1c-0.3-0.4-0.5-1-0.8-1.8c-0.5,0-0.9,0-1.5,0c-0.7,0-2.1,0-2.9,0l0-1.4c0.7,0,1.5,0,2.9,0c0.4,0,0.8,0,1.2,0
		c-0.1-0.6-0.2-1.4-0.3-2.1l2,0c0,0.1-0.1,0.3-0.3,0.3c0,0.6,0.1,1.1,0.2,1.7c1.2-0.1,2.7-0.3,3.6-0.6L438,217.3z M435.8,224.7
		c-0.6,0-1.3,0-2.1,0c-2.8,0-4.2-1.1-4.2-2.5c0-0.7,0.3-1.3,1-2l1.1,0.8c-0.5,0.4-0.6,0.7-0.6,1.1c0,0.9,1.1,1.2,2.8,1.2
		c0.9,0,1.6,0,2.2-0.1L435.8,224.7z"/>
	<path class="st7" d="M441.2,215.8c0,0.1-0.2,0.2-0.3,0.2c-0.2,0.9-0.3,2.1-0.3,3.2c0,2.6,0.7,3.5,1.4,3.5c0.4,0,0.9-1.2,1.1-2.1
		c0.3,0.3,0.8,0.7,1.2,0.9c-0.6,1.9-1.3,2.8-2.4,2.8c-1.8,0-2.7-2.2-2.8-4.1c0-0.4,0-0.9,0-1.3c0-1.1,0.1-2.2,0.2-3.3L441.2,215.8z
		 M447.7,221.4c-0.3-2.1-1.3-3.3-2.7-4.2l0.9-1.1c1.6,0.9,3,2.5,3.4,4.8L447.7,221.4z"/>
	<path class="st7" d="M452.9,223.5c0,0.9-0.7,1.6-1.6,1.6c-0.9,0-1.6-0.7-1.6-1.6c0-0.9,0.7-1.6,1.6-1.6
		C452.1,221.9,452.9,222.6,452.9,223.5z M452.3,223.5c0-0.6-0.5-1.1-1.1-1.1c-0.6,0-1.1,0.5-1.1,1.1c0,0.6,0.5,1.1,1.1,1.1
		C451.9,224.6,452.3,224.1,452.3,223.5z"/>
</g>
</svg>
