<?xml version="1.0" encoding="utf-8"?>
<!-- Generator: Adobe Illustrator 24.0.1, SVG Export Plug-In . SVG Version: 6.00 Build 0)  -->
<svg version="1.1" id="レイヤー_1" xmlns="http://www.w3.org/2000/svg" xmlns:xlink="http://www.w3.org/1999/xlink" x="0px"
	 y="0px" viewBox="0 0 553 265.4" style="enable-background:new 0 0 553 265.4;" xml:space="preserve">
<style type="text/css">
	.st0{fill:#FEFCEE;}
	.st1{fill:#BABABA;}
	.st2{fill:#FFFFFF;}
	.st3{fill:none;stroke:#6B1319;stroke-width:0.3593;stroke-miterlimit:10;}
	.st4{fill:#F4F4F5;}
	.st5{fill:#F9F5D2;}
	.st6{enable-background:new    ;}
	.st7{fill:#040000;}
	.st8{fill:#E6E6E5;}
	.st9{fill:#CFE7F2;}
	.st10{fill:#3794C4;}
	.st11{fill:#727171;}
	.st12{fill:#F7F9FA;}
	.st13{fill:#48A6CE;}
	.st14{fill:url(#SVGID_8_);}
	.st15{fill:none;stroke:#221714;stroke-width:0.1875;}
	.st16{fill:url(#SVGID_9_);}
	.st17{fill:url(#SVGID_10_);}
	.st18{fill:url(#SVGID_11_);}
	.st19{fill:url(#SVGID_12_);}
	.st20{fill:url(#SVGID_13_);}
	.st21{fill:url(#SVGID_14_);}
	.st22{fill:url(#SVGID_15_);}
	.st23{fill:url(#SVGID_16_);}
	.st24{fill:url(#SVGID_17_);}
	.st25{fill:url(#SVGID_18_);}
	.st26{fill:url(#SVGID_19_);}
	.st27{fill:url(#SVGID_20_);}
	.st28{fill:url(#SVGID_21_);}
	.st29{fill:url(#SVGID_22_);}
	.st30{fill:url(#SVGID_23_);}
	.st31{fill:url(#SVGID_24_);}
	.st32{fill:#F0EFEE;}
	.st33{fill:url(#SVGID_25_);}
	.st34{fill:url(#SVGID_26_);}
	.st35{fill:url(#SVGID_27_);}
	.st36{fill:url(#SVGID_28_);}
	.st37{fill:url(#SVGID_29_);}
	.st38{fill:url(#SVGID_30_);}
	.st39{fill:url(#SVGID_31_);}
	.st40{fill:url(#SVGID_32_);}
	.st41{fill:url(#SVGID_33_);}
	.st42{fill:url(#SVGID_34_);}
	.st43{fill:url(#SVGID_35_);}
	.st44{fill:url(#SVGID_36_);}
	.st45{fill:url(#SVGID_37_);}
	.st46{fill:url(#SVGID_38_);}
	.st47{fill:url(#SVGID_39_);}
	.st48{fill:url(#SVGID_41_);}
	.st49{fill:url(#SVGID_42_);}
	.st50{fill:url(#SVGID_43_);}
	.st51{fill:url(#SVGID_44_);}
	.st52{fill:url(#SVGID_45_);}
	.st53{fill:url(#SVGID_46_);}
	.st54{fill:url(#SVGID_47_);}
	.st55{fill:url(#SVGID_48_);}
	.st56{fill:url(#SVGID_49_);}
	.st57{fill:url(#SVGID_50_);}
	.st58{fill:url(#SVGID_51_);}
	.st59{fill:url(#SVGID_52_);}
	.st60{fill:url(#SVGID_53_);}
	.st61{fill:url(#SVGID_54_);}
	.st62{fill:url(#SVGID_55_);}
	.st63{fill:url(#SVGID_56_);}
	.st64{fill:url(#SVGID_57_);}
	.st65{fill:url(#SVGID_58_);}
	.st66{fill:url(#SVGID_59_);}
	.st67{fill:#3E3A39;}
	.st68{fill:#C6BA9A;}
	.st69{fill:#D6CCB5;}
	.st70{fill:#B5B5B6;}
	.st71{fill:#F0EFEF;}
	.st72{fill:#595857;}
	.st73{fill:#DCDDDD;}
	.st74{fill:#CCAC69;}
	.st75{fill:#C9CACA;}
	.st76{fill:#9FA0A0;}
	.st77{fill:#8A8A8A;}
	.st78{opacity:0.75;}
	.st79{fill:#B81C25;}
	.st80{fill:#DE551A;}
	.st81{fill:#E99413;}
	.st82{fill:#F7F9F9;}
	.st83{fill:#E83514;}
	.st84{fill:url(#SVGID_60_);}
	.st85{fill:url(#SVGID_61_);}
	.st86{fill:url(#SVGID_62_);}
	.st87{fill:url(#SVGID_63_);}
	.st88{fill:url(#SVGID_64_);}
	.st89{fill:url(#SVGID_65_);}
	.st90{stroke:#000000;stroke-width:3.0472;stroke-linecap:round;stroke-linejoin:round;stroke-miterlimit:10;}
	.st91{fill:url(#SVGID_66_);stroke:#000000;stroke-width:1.0157;stroke-linecap:round;stroke-linejoin:round;}
	.st92{fill:url(#SVGID_67_);stroke:#000000;stroke-width:1.0157;stroke-linecap:round;stroke-linejoin:round;}
	.st93{fill:url(#SVGID_68_);stroke:#000000;stroke-width:1.0157;stroke-linecap:round;stroke-linejoin:round;}
	.st94{opacity:0.4;fill:#FFFFFF;enable-background:new    ;}
	.st95{fill:none;}
	.st96{fill:#FFFEEE;}
	.st97{fill:none;stroke:#F7EFB8;stroke-width:0.5079;}
	.st98{fill:none;stroke:#F7EFB8;stroke-width:0.2539;stroke-miterlimit:10;}
	.st99{fill:none;stroke:#000000;stroke-width:0.2437;stroke-miterlimit:10;}
	.st100{fill:none;stroke:#000000;stroke-width:1.0157;stroke-linecap:round;stroke-linejoin:round;}
	.st101{fill-rule:evenodd;clip-rule:evenodd;}
	.st102{fill:none;stroke:#000000;stroke-width:0.5079;stroke-miterlimit:10;}
	.st103{fill-rule:evenodd;clip-rule:evenodd;fill:url(#SVGID_69_);}
	.st104{opacity:0.9;fill:#E60012;enable-background:new    ;}
	.st105{fill:#DCDBDA;}
	.st106{opacity:0.9;fill:#FFFFFF;enable-background:new    ;}
	.st107{opacity:0.3;fill:#FFFFFF;enable-background:new    ;}
	.st108{fill:#7E7977;}
	.st109{fill:#EEEAD0;}
	.st110{fill:#DDD9C2;}
	.st111{fill:#D3A243;}
	.st112{fill:none;stroke:#E5E3DA;stroke-width:0.5079;stroke-linecap:round;stroke-linejoin:round;}
	.st113{fill:#CDA774;}
	.st114{fill:#DDB887;}
	.st115{fill:#F3EBDF;}
	.st116{fill:#F8F0E4;}
	.st117{fill:#ECECEC;}
	.st118{fill:url(#SVGID_70_);}
	.st119{fill:url(#SVGID_71_);}
	.st120{fill:#E60012;}
	.st121{fill:#E5D32D;stroke:#A38A77;stroke-width:0.2737;stroke-miterlimit:10;}
	.st122{fill:#E3D172;stroke:#C79F62;stroke-width:0.2737;stroke-miterlimit:10;}
	.st123{fill:#E3D172;}
	.st124{fill:#EEEEEF;stroke:#C8C9CA;stroke-width:0.2052;stroke-miterlimit:10;}
	.st125{fill:#804F21;}
	.st126{fill:none;stroke:#A38A77;stroke-width:0.2737;stroke-miterlimit:10;}
	.st127{fill:none;stroke:#E5D32D;stroke-width:0.5473;stroke-miterlimit:10;}
	.st128{fill:#DBDCDC;stroke:#C4C7C4;stroke-width:0.2737;stroke-miterlimit:10;}
	.st129{fill:#EEEEEF;}
	.st130{fill:#E8E8DC;}
	.st131{fill:#E62C0F;}
	.st132{fill:#F7B52C;stroke:#DB9F09;stroke-width:0.2737;stroke-miterlimit:10;}
	.st133{fill:#44AF35;stroke:#448A3E;stroke-width:0.2737;stroke-miterlimit:10;}
	.st134{fill:#734C22;}
	.st135{fill:none;stroke:#FFFFFF;stroke-width:1.3684;}
	.st136{fill:#946134;}
	.st137{fill:#231815;}
	.st138{fill:#C79F62;stroke:#946134;stroke-width:4.194518e-02;}
	.st139{fill:none;stroke:#946134;stroke-width:4.194518e-02;}
	.st140{fill:#40210F;stroke:#946134;stroke-width:4.194518e-02;}
	.st141{fill:#FFFFFF;stroke:#6A3906;stroke-width:4.194518e-02;}
	.st142{fill:url(#SVGID_72_);}
	.st143{fill:url(#SVGID_73_);}
	.st144{fill:url(#SVGID_74_);}
	.st145{fill:none;stroke:#F0D958;stroke-width:1.0893;stroke-linecap:round;stroke-linejoin:round;stroke-miterlimit:10;}
	.st146{fill:none;stroke:#DD5F1A;stroke-width:1.6341;stroke-linecap:round;stroke-linejoin:round;stroke-miterlimit:10;}
	.st147{fill:#006934;}
	.st148{fill:#DBDCDC;}
	.st149{fill:#BEC2BF;stroke:#B2B4B1;stroke-width:0.2127;stroke-linecap:round;stroke-linejoin:round;}
	.st150{fill:none;stroke:#F0D958;stroke-width:0.8506;stroke-linecap:round;stroke-linejoin:round;stroke-miterlimit:10;}
	.st151{fill:none;stroke:#DD5F1A;stroke-width:1.2759;stroke-linecap:round;stroke-linejoin:round;stroke-miterlimit:10;}
	.st152{fill:none;stroke:#E60012;stroke-width:0.1532;stroke-miterlimit:10;}
	.st153{fill:none;stroke:#E60012;stroke-width:0.1532;stroke-miterlimit:10;stroke-dasharray:0.7747,0.7747;}
	.st154{fill:none;stroke:#000000;stroke-width:0.1532;stroke-miterlimit:10;}
	.st155{fill:none;stroke:#000000;stroke-width:1.0962;stroke-miterlimit:10;}
	.st156{fill:#C9A063;stroke:#000000;stroke-width:1.494;stroke-miterlimit:10;}
	.st157{fill:#008ABD;}
	.st158{fill:#5CB9D3;}
	.st159{fill:#BFC0C0;}
	.st160{fill:#FBF8EA;}
	.st161{fill:none;stroke:#000000;stroke-width:0.6647;}
	.st162{fill:#036EB8;}
	.st163{fill:#EA5514;}
	.st164{clip-path:url(#SVGID_76_);}
	.st165{fill:url(#SVGID_77_);}
	.st166{fill:url(#SVGID_78_);}
	.st167{fill:url(#SVGID_79_);}
	.st168{fill:url(#SVGID_80_);}
	.st169{fill:url(#SVGID_81_);}
	.st170{fill:url(#SVGID_82_);}
	.st171{fill:url(#SVGID_83_);}
	.st172{fill:url(#SVGID_84_);}
	.st173{fill:url(#SVGID_85_);}
	.st174{fill:url(#SVGID_86_);}
	.st175{fill:url(#SVGID_87_);}
	.st176{fill:url(#SVGID_88_);}
	.st177{fill:url(#SVGID_89_);}
	.st178{fill:url(#SVGID_90_);}
	.st179{fill:url(#SVGID_91_);}
	.st180{fill:url(#SVGID_92_);}
	.st181{fill:url(#SVGID_93_);}
	.st182{fill:url(#SVGID_94_);}
	.st183{fill:url(#SVGID_95_);}
	.st184{fill:url(#SVGID_96_);}
	.st185{fill:url(#SVGID_97_);}
	.st186{fill:url(#SVGID_98_);}
	.st187{fill:url(#SVGID_99_);}
	.st188{fill:url(#SVGID_100_);}
	.st189{fill:url(#SVGID_101_);}
	.st190{fill:url(#SVGID_102_);}
	.st191{fill:url(#SVGID_103_);}
	.st192{fill:url(#SVGID_104_);}
	.st193{fill:url(#SVGID_105_);}
	.st194{fill:url(#SVGID_106_);}
	.st195{fill:url(#SVGID_107_);}
	.st196{fill:url(#SVGID_108_);}
	.st197{fill:url(#SVGID_109_);}
	.st198{fill:url(#SVGID_110_);}
	.st199{fill:url(#SVGID_111_);}
	.st200{clip-path:url(#SVGID_113_);}
	.st201{fill:#B28247;}
	.st202{fill:#FFF100;}
	.st203{fill:#8FC31F;}
	.st204{fill:#EAE5E3;}
	.st205{fill:#BEB1AA;}
	.st206{clip-path:url(#SVGID_115_);}
	.st207{fill:url(#SVGID_116_);}
	.st208{fill:url(#SVGID_117_);}
	.st209{fill:url(#SVGID_118_);}
	.st210{fill:url(#SVGID_119_);}
	.st211{fill:url(#SVGID_120_);}
	.st212{fill:url(#SVGID_121_);}
	.st213{fill:url(#SVGID_122_);}
	.st214{fill:url(#SVGID_123_);}
	.st215{fill:url(#SVGID_124_);}
	.st216{fill:url(#SVGID_125_);}
	.st217{fill:url(#SVGID_126_);}
	.st218{fill:url(#SVGID_127_);}
	.st219{fill:url(#SVGID_128_);}
	.st220{fill:url(#SVGID_129_);}
	.st221{fill:url(#SVGID_130_);}
	.st222{fill:url(#SVGID_131_);}
	.st223{fill:#FFF9E8;}
	.st224{opacity:0.5;fill:url(#);enable-background:new    ;}
	.st225{clip-path:url(#SVGID_136_);}
	.st226{clip-path:url(#SVGID_137_);}
	.st227{fill:#FCE1B9;}
	.st228{fill:#DFCD8C;}
	.st229{fill:#EADDB0;}
	.st230{fill:#6C1317;}
	.st231{fill:#5C070C;}
	.st232{fill:#8A4000;}
	.st233{fill:#9C0109;}
	.st234{fill:#8A0001;}
	.st235{fill:url(#SVGID_138_);}
	.st236{clip-path:url(#SVGID_143_);}
	.st237{clip-path:url(#SVGID_144_);}
	.st238{fill:#9C0109;stroke:#FFFFFF;stroke-width:0.8745;stroke-miterlimit:10;}
	.st239{fill:url(#SVGID_145_);}
	.st240{fill:#CF1126;}
	.st241{fill:#F4F3F1;}
	.st242{fill:#C30D23;}
	.st243{fill:#CCCCCC;}
	.st244{clip-path:url(#SVGID_147_);}
	.st245{fill:#C8C9CA;}
	.st246{clip-path:url(#SVGID_149_);}
	.st247{fill:#803220;}
	.st248{fill:#EEAA3D;}
	.st249{fill:#E29223;}
	.st250{fill:#944024;}
	.st251{fill:#B15022;}
	.st252{fill:#D18215;}
	.st253{fill:#FAED00;}
	.st254{fill:#1EAA39;}
	.st255{fill:#169530;}
	.st256{fill:none;stroke:#FFFFFF;stroke-miterlimit:10;}
	.st257{clip-path:url(#SVGID_151_);}
	.st258{clip-path:url(#SVGID_153_);}
	.st259{fill:#FCD006;}
	.st260{fill:#604C3F;}
	.st261{fill:#C79F62;}
	.st262{fill:#FDEABE;}
	.st263{fill:#E95504;}
	.st264{fill:#C11920;}
	.st265{fill:url(#SVGID_154_);}
	.st266{fill:url(#SVGID_155_);}
	.st267{fill:#5D8AA2;}
	.st268{fill:#267EAF;}
	.st269{fill:none;stroke:#D9B556;stroke-width:0.6193;stroke-miterlimit:10;}
	.st270{fill:#D9B556;}
	.st271{fill:#0E2F8F;}
	.st272{fill:url(#SVGID_156_);}
	.st273{fill:url(#SVGID_157_);}
	.st274{fill:url(#SVGID_158_);}
	.st275{fill:#755F43;}
	.st276{fill:#CD6829;}
	.st277{fill:#E08030;}
	.st278{fill:#F7F8F8;}
	.st279{fill:#E9E5E2;}
	.st280{fill:#9E9E9F;}
	.st281{fill:url(#SVGID_159_);}
	.st282{clip-path:url(#SVGID_161_);fill:#FBD6A0;}
	.st283{fill:#D1A26C;}
	.st284{fill:#FDEBD1;}
	.st285{fill:url(#SVGID_162_);}
	.st286{fill:#888888;}
	.st287{fill:#B4B4B5;}
	.st288{fill:#E6BE98;}
	.st289{fill:#BAE2F8;}
	.st290{fill:#182987;}
	.st291{fill:#3071B7;}
	.st292{clip-path:url(#SVGID_164_);fill:#F7B52C;}
	.st293{fill:#F7F9F9;stroke:#727171;stroke-width:0.1726;stroke-miterlimit:10;}
	.st294{fill:#C39717;}
	.st295{fill:#CC172C;}
	.st296{fill:#E73828;}
	.st297{fill:#F7B52C;}
	.st298{clip-path:url(#SVGID_166_);}
	.st299{fill:#D2A143;}
	.st300{fill:#B48626;}
	.st301{fill:#9C751E;}
	.st302{fill:#8DC21F;}
	.st303{fill:#00913A;}
	.st304{fill:#E95513;}
	.st305{clip-path:url(#SVGID_168_);}
	.st306{fill:#BDA661;}
	.st307{fill:#C9B168;}
	.st308{fill:url(#SVGID_169_);}
	.st309{fill:url(#SVGID_170_);}
	.st310{fill:url(#SVGID_171_);}
	.st311{fill:url(#SVGID_172_);}
	.st312{fill:url(#SVGID_173_);}
	.st313{fill:url(#SVGID_174_);}
	.st314{fill:url(#SVGID_175_);}
	.st315{fill:url(#SVGID_176_);}
	.st316{fill:url(#SVGID_177_);}
	.st317{fill:url(#SVGID_178_);}
	.st318{fill:url(#SVGID_179_);}
	.st319{fill:url(#SVGID_180_);}
	.st320{fill:url(#SVGID_181_);}
	.st321{fill:url(#SVGID_182_);}
	.st322{fill:url(#SVGID_183_);}
	.st323{fill:url(#SVGID_184_);}
	.st324{fill:url(#SVGID_185_);}
	.st325{fill:url(#SVGID_186_);}
	.st326{fill:url(#SVGID_187_);}
	.st327{fill:url(#SVGID_188_);}
	.st328{fill:url(#SVGID_189_);}
	.st329{fill:url(#SVGID_190_);}
	.st330{fill:url(#SVGID_191_);}
	.st331{fill:url(#SVGID_192_);}
	.st332{fill:url(#SVGID_193_);}
	.st333{fill:url(#SVGID_194_);}
	.st334{fill:url(#SVGID_195_);}
	.st335{fill:url(#SVGID_196_);}
	.st336{fill:url(#SVGID_197_);}
	.st337{fill:url(#SVGID_198_);}
	.st338{fill:url(#SVGID_199_);}
	.st339{fill:url(#SVGID_200_);}
	.st340{fill:url(#SVGID_201_);}
	.st341{fill:url(#SVGID_202_);}
	.st342{fill:url(#SVGID_203_);}
	.st343{fill:url(#SVGID_204_);}
	.st344{fill:url(#SVGID_205_);}
	.st345{fill:url(#SVGID_206_);}
	.st346{fill:url(#SVGID_207_);}
	.st347{fill:url(#SVGID_208_);}
	.st348{fill:url(#SVGID_209_);}
	.st349{fill:url(#SVGID_210_);}
	.st350{fill:url(#SVGID_211_);}
	.st351{fill:url(#SVGID_212_);}
	.st352{fill:url(#SVGID_213_);}
	.st353{fill:url(#SVGID_214_);}
	.st354{fill:url(#SVGID_215_);}
	.st355{fill:url(#SVGID_216_);}
	.st356{fill:url(#SVGID_217_);}
	.st357{fill:url(#SVGID_218_);}
	.st358{fill:url(#SVGID_219_);}
	.st359{fill:url(#SVGID_220_);}
	.st360{fill:url(#SVGID_221_);}
	.st361{fill:url(#SVGID_222_);}
	.st362{fill:url(#SVGID_223_);}
	.st363{fill:url(#SVGID_224_);}
	.st364{fill:url(#SVGID_225_);}
	.st365{fill:url(#SVGID_226_);stroke:#000000;stroke-width:1.0157;stroke-linecap:round;stroke-linejoin:round;}
	.st366{fill:url(#SVGID_227_);stroke:#000000;stroke-width:1.0157;stroke-linecap:round;stroke-linejoin:round;}
	.st367{fill:url(#SVGID_228_);stroke:#000000;stroke-width:1.0157;stroke-linecap:round;stroke-linejoin:round;}
	.st368{fill-rule:evenodd;clip-rule:evenodd;fill:url(#SVGID_229_);}
	.st369{fill:url(#SVGID_230_);}
	.st370{fill:url(#SVGID_231_);}
	.st371{fill:url(#SVGID_232_);}
	.st372{fill:url(#SVGID_233_);}
	.st373{fill:url(#SVGID_234_);}
	.st374{clip-path:url(#SVGID_236_);}
	.st375{fill:url(#SVGID_237_);}
	.st376{fill:url(#SVGID_238_);}
	.st377{fill:url(#SVGID_239_);}
	.st378{fill:url(#SVGID_240_);}
	.st379{fill:url(#SVGID_241_);}
	.st380{fill:url(#SVGID_242_);}
	.st381{fill:url(#SVGID_243_);}
	.st382{fill:url(#SVGID_244_);}
	.st383{fill:url(#SVGID_245_);}
	.st384{fill:url(#SVGID_246_);}
	.st385{fill:url(#SVGID_247_);}
	.st386{fill:url(#SVGID_248_);}
	.st387{fill:url(#SVGID_249_);}
	.st388{fill:url(#SVGID_250_);}
	.st389{fill:url(#SVGID_251_);}
	.st390{fill:url(#SVGID_252_);}
	.st391{fill:url(#SVGID_253_);}
	.st392{fill:url(#SVGID_254_);}
	.st393{fill:url(#SVGID_255_);}
	.st394{fill:url(#SVGID_256_);}
	.st395{fill:url(#SVGID_257_);}
	.st396{fill:url(#SVGID_258_);}
	.st397{fill:url(#SVGID_259_);}
	.st398{fill:url(#SVGID_260_);}
	.st399{fill:url(#SVGID_261_);}
	.st400{fill:url(#SVGID_262_);}
	.st401{fill:url(#SVGID_263_);}
	.st402{fill:url(#SVGID_264_);}
	.st403{fill:url(#SVGID_265_);}
	.st404{fill:url(#SVGID_266_);}
	.st405{fill:url(#SVGID_267_);}
	.st406{fill:url(#SVGID_268_);}
	.st407{fill:url(#SVGID_269_);}
	.st408{fill:url(#SVGID_270_);}
	.st409{fill:url(#SVGID_271_);}
	.st410{clip-path:url(#SVGID_273_);}
	.st411{clip-path:url(#SVGID_275_);}
	.st412{fill:url(#SVGID_276_);}
	.st413{fill:url(#SVGID_277_);}
	.st414{fill:url(#SVGID_278_);}
	.st415{fill:url(#SVGID_279_);}
	.st416{fill:url(#SVGID_280_);}
	.st417{fill:url(#SVGID_281_);}
	.st418{fill:url(#SVGID_282_);}
	.st419{fill:url(#SVGID_283_);}
	.st420{fill:url(#SVGID_284_);}
	.st421{fill:url(#SVGID_285_);}
	.st422{fill:url(#SVGID_286_);}
	.st423{fill:url(#SVGID_287_);}
	.st424{fill:url(#SVGID_288_);}
	.st425{fill:url(#SVGID_289_);}
	.st426{fill:url(#SVGID_290_);}
	.st427{fill:url(#SVGID_291_);}
	.st428{clip-path:url(#SVGID_296_);}
	.st429{clip-path:url(#SVGID_297_);}
	.st430{fill:url(#SVGID_298_);}
	.st431{clip-path:url(#SVGID_303_);}
	.st432{clip-path:url(#SVGID_304_);}
	.st433{fill:url(#SVGID_305_);}
	.st434{clip-path:url(#SVGID_307_);}
	.st435{clip-path:url(#SVGID_309_);}
	.st436{clip-path:url(#SVGID_311_);}
	.st437{clip-path:url(#SVGID_313_);}
	.st438{fill:url(#SVGID_314_);}
	.st439{fill:url(#SVGID_315_);}
	.st440{fill:url(#SVGID_316_);}
	.st441{fill:url(#SVGID_317_);}
	.st442{fill:url(#SVGID_318_);}
	.st443{fill:url(#SVGID_319_);}
	.st444{clip-path:url(#SVGID_321_);fill:#FBD6A0;}
	.st445{fill:url(#SVGID_322_);}
	.st446{clip-path:url(#SVGID_324_);fill:#F7B52C;}
	.st447{clip-path:url(#SVGID_326_);}
	.st448{clip-path:url(#SVGID_328_);}
</style>
<g>
	<rect y="0" class="st0" width="553" height="265.4"/>
</g>
<g>
	<path class="st1" d="M178.5,228.1H57.8c-7.4,0-13.4-6-13.4-13.4V53.1c0-7.4,6-13.4,13.4-13.4h120.7c7.4,0,13.4,6,13.4,13.4v161.6
		C191.9,222.1,185.9,228.1,178.5,228.1z"/>
	<path class="st2" d="M175.5,225.9H54.8c-7.4,0-13.4-6-13.4-13.4V50.9c0-7.4,6-13.4,13.4-13.4h120.7c7.4,0,13.4,6,13.4,13.4v161.6
		C188.9,219.9,182.9,225.9,175.5,225.9z"/>
	<path class="st3" d="M41.4,212.4V50.9c0-7.4,6-13.4,13.4-13.4h120.7"/>
</g>
<g>
	<rect x="258.4" y="89.8" class="st4" width="249.1" height="97.7"/>
	<rect x="255.6" y="88.1" class="st5" width="249.1" height="97.7"/>
	<polyline class="st3" points="504.7,89.3 504.7,185.8 257.5,185.8 	"/>
</g>
<g class="st6">
	<path class="st7" d="M303.9,45.1c0.1-1,0.1-2.6,0.1-3.4c0-0.6,0-0.8-0.1-1.3l5,0.1c-0.1,0.6-0.1,0.7-0.3,3.2c0,0.7,0,0.7-0.1,1.4
		h5.8c0.9,0,1.2-0.1,1.8-0.3l2.1,1.8c-0.3,0.5-0.3,0.7-0.4,2c-0.2,5.7-0.6,10.1-1.1,11.8c-0.8,2.5-2,3.3-5,3.3c-1,0-1.4,0-3.5-0.2
		c-0.1-2.1-0.3-3-0.9-4.7c1.3,0.3,2.6,0.5,3.4,0.5c1.3,0,1.6-0.4,1.9-2.7c0.3-1.8,0.5-5.1,0.5-7.4h-5.1c-0.2,1.7-0.2,1.7-0.4,2.6
		c-1.2,5.3-3.7,8.8-9.1,12.3c-1.2-1.9-2-2.8-3.4-4c3.5-1.9,5.6-3.7,6.9-6.4c0.7-1.4,1-2.3,1.3-4.5h-3.3c-1.8,0-2.3,0-3.6,0.2l0-4.5
		c1.3,0.2,1.8,0.2,3.7,0.2H303.9z"/>
	<path class="st7" d="M326.2,44.1c0-1.4-0.1-2.4-0.2-3.3h5.1c-0.2,0.9-0.2,1.6-0.2,3.2v2.1l9.2-1c1.1-0.1,1.3-0.2,1.9-0.4l2.6,2.4
		c-0.4,0.5-0.4,0.5-0.9,1.5c-0.8,1.6-1.8,3.4-2.9,4.7c-1,1.3-2,2.2-3.8,3.6c-1.3-1.4-2.2-2.1-3.7-3c1.1-0.6,1.9-1.2,2.8-2
		c0.8-0.8,1.3-1.4,1.9-2.4l-7.3,0.8v5.7c0,1.9,0.1,2.4,0.4,2.6c0.3,0.3,1.2,0.4,2.8,0.4c3.2,0,6.2-0.4,8.5-1.1l0.2,5
		c-0.2,0-0.3,0-0.4,0c-0.7,0-0.7,0.1-1.2,0.1c-2.5,0.2-5.5,0.4-7.1,0.4c-2.3,0-4.1-0.2-5.1-0.5c-1.2-0.4-2.1-1.3-2.5-2.5
		c-0.3-0.9-0.3-1.3-0.3-3.8v-5.8l-1.6,0.2c-2.1,0.2-2.5,0.3-3.5,0.6l-0.5-4.6c0.5,0,0.8,0.1,1,0.1c0.4,0,1.6-0.1,2.5-0.2l2.1-0.2
		V44.1z"/>
	<path class="st7" d="M351,46.4c1,2,1.9,4.1,2.6,6.7l-4.1,1.2c-0.7-2.8-1.2-4.4-2.4-6.9L351,46.4z M366.4,46.9
		c-0.2,0.5-0.2,0.6-0.4,1.6c-0.8,3.7-1.8,6.4-3.3,8.6c-1.4,2.1-3.3,3.9-5.6,5.4c-0.9,0.6-1.6,1-3.2,1.8c-0.9-1.6-1.4-2.3-2.9-3.7
		c5.3-2.1,8.2-4.7,9.8-9.1c0.7-1.9,1.1-4,1.2-5.6L366.4,46.9z M356.8,45.3c1.4,2.7,1.9,3.9,2.6,6.5l-4.1,1.2
		c-0.5-2.2-1.2-4.2-2.4-6.6L356.8,45.3z"/>
	<path class="st7" d="M372.7,63.9c0.1-1.2,0.2-2,0.2-4V44.4c0-2.1,0-2.4-0.2-3.8h5.1c-0.1,0.8-0.1,2.1-0.1,3.9v3.6
		c4.5,1.5,7.9,3,12,5.5l-2.5,4.5c-2.6-1.8-5.7-3.5-8.3-4.6c-0.9-0.4-0.9-0.4-1.2-0.5v6.9c0,1.8,0.1,3.1,0.2,4H372.7z"/>
	<path class="st7" d="M400.3,51.2c-0.1,0.4-0.3,1.3-0.5,2.5c-1,3.7-2.1,6.4-3.8,8.9c-1.7-1.1-2.9-1.6-4.4-2.2
		c2.1-2.6,3.8-6.9,4.1-10.3L400.3,51.2z M401.9,43.6c0-1.4,0-1.9-0.2-2.9h5c-0.1,0.6-0.1,1.5-0.1,3v1h5c2.2,0,3.1-0.1,4.2-0.2v4.5
		c-1-0.1-1.7-0.1-4.1-0.1h-5.1v11.7c0,2.3,0,3.1,0.2,3.9h-5.1c0.2-1.2,0.2-1.8,0.2-4V48.8H397c-2.5,0-3,0-4,0.1v-4.5
		c1.1,0.2,1.9,0.2,4,0.2h4.9V43.6z M412.6,50.1c0.8,3.8,2.4,7.4,4.3,10.1c-2.2,1.1-2.5,1.3-4.4,2.5c-1.8-3.2-2.8-5.9-3.9-10.2
		c-0.2-0.8-0.2-0.9-0.4-1.3L412.6,50.1z M411.7,40c0.9,1.2,1.6,2.4,2,3.7l-2.6,0.8c-0.5-1.3-1.2-2.7-2-3.8L411.7,40z M415.5,39.1
		c1,1.3,1.5,2.3,2,3.7l-2.5,0.8c-0.6-1.4-1.1-2.5-2-3.8L415.5,39.1z"/>
	<path class="st7" d="M422.1,41.8c3.3,2,5.1,3.2,7.3,5.2l-3.1,4.1c-2.3-2.4-4.6-4.2-7.2-5.6L422.1,41.8z M419.3,58.3
		c2.7-0.2,5.5-0.9,8-1.9c3.3-1.4,5.7-3.4,7.8-6.5c1.1-1.7,1.8-3.2,2.6-5.2c1.3,1.6,1.9,2.1,3.9,3.5c-2.4,5.2-4.9,8.3-8.6,10.7
		c-2.9,1.9-5.4,2.8-10.3,4c-1,0.2-1.2,0.3-1.9,0.5L419.3,58.3z"/>
	<path class="st7" d="M442.7,53.4c0.9-0.5,2.6-2.5,6-6.7c1-1.2,1.6-1.9,2.2-2.2c0.6-0.3,1.3-0.5,2-0.5c1.6,0,2.3,0.5,4.5,3
		c3.5,3.9,5,5.4,8.1,8.3c1.5,1.3,2,1.8,2.9,2.4l-2.4,5.1c-3.9-3.6-6.2-6.1-12-12.7c-0.4-0.5-0.7-0.6-1-0.6c-0.4,0-0.4,0-1.4,1.4
		c-1.5,2-2.9,3.8-4.8,6c-0.3,0.3-0.5,0.7-1,1.2L442.7,53.4z M461.7,43.7c1,1.2,1.9,2.4,2.6,3.8l-2.5,1.2c-0.9-1.7-1.6-2.6-2.6-3.9
		L461.7,43.7z M465.2,42.1c1,1.1,1.7,2.1,2.6,3.7l-2.4,1.2c-0.9-1.7-1.7-2.7-2.6-3.8L465.2,42.1z"/>
</g>
<g class="st6">
	<path class="st7" d="M287.1,110.9L287.1,110.9l-2.9,1.3l-0.7-2.1l4-1.9h2.3v13.3h-2.7V110.9z"/>
	<path class="st7" d="M313.1,117.3v2h-6v3.7h-2.2v-3.7H297v-2h2.8v-4.6h5.1v-2.1h-3.8c-0.8,1.3-1.7,2.4-2.6,3.3
		c-0.4-0.4-1.2-1.1-1.7-1.4c1.5-1.3,3-3.7,3.7-5.9l2.5,0.8c-0.1,0.1-0.2,0.2-0.5,0.2c-0.1,0.3-0.3,0.7-0.5,1h9.9v2h-5v2.1h4.6v2
		h-4.6v2.6H313.1z M301.9,117.3h3v-2.6h-3V117.3z"/>
	<path class="st7" d="M318.8,108c0,0.2-0.2,0.3-0.5,0.3c-0.7,3.1-0.9,6.2-0.9,7.7c0,1,0,1.9,0.1,2.5c0.2-0.5,0.9-2,1.1-2.5l1,1.6
		c-0.6,1.2-1.2,2.2-1.4,3c-0.1,0.3-0.1,0.6-0.1,0.8c0,0.2,0,0.4,0.1,0.6l-2.2,0.3c-0.6-1.7-0.8-3.9-0.8-6.2c0-2.4,0.4-5.6,0.8-8.5
		L318.8,108z M329.2,121c-0.6,0-1.3,0.1-2,0.1c-1.1,0-2.2-0.1-3-0.2c-2.4-0.3-3.4-1.6-3.4-3.1c0-1.3,0.6-2.3,1.5-3.5l2.1,0.7
		c-0.8,0.8-1.3,1.6-1.3,2.4c0,1.3,1.6,1.4,3.6,1.4c0.8,0,1.7,0,2.5-0.1L329.2,121z M321.3,109.8c2-0.1,5.3-0.3,7.4-0.6l0.2,2.2
		c-2.1,0.3-5.4,0.6-7.5,0.6L321.3,109.8z"/>
	<path class="st7" d="M334.3,114.6v-1.4c-0.8,0.8-1.7,1.5-2.6,2c-0.2-0.5-0.7-1.1-1.1-1.5c1.1-0.5,2.3-1.3,3.1-2.2h-3v-1.7h1.5
		c-0.2-0.6-0.6-1.4-1-2l1.5-0.7c0.5,0.7,1,1.6,1.2,2.2l-1,0.5h1.4v-3.1l2.4,0.1c0,0.2-0.2,0.3-0.5,0.3v2.7h1.4l-1.1-0.5
		c0.4-0.6,1-1.5,1.3-2.2l2,0.8c-0.1,0.1-0.3,0.2-0.5,0.2c-0.3,0.5-0.9,1.3-1.4,1.8h1.6v1.7h-3.3v0.2c0.7,0.3,2.3,1.3,2.8,1.5
		l-1.1,1.4c-0.3-0.3-1-0.9-1.6-1.4v1.4H334.3z M347.2,111.8h-1c-0.4,2.6-0.9,4.8-1.9,6.6c0.8,1.3,1.8,2.3,3.1,2.9
		c-0.5,0.4-1.1,1.3-1.4,1.8c-1.2-0.7-2.2-1.7-3-2.8c-1,1.2-2.2,2.1-3.8,2.8c-0.1-0.3-0.4-0.9-0.7-1.3l-0.7,0.7
		c-0.5-0.4-1.1-0.8-1.7-1.1c-1,0.8-2.4,1.3-4.3,1.7c-0.1-0.6-0.5-1.3-0.9-1.7c1.4-0.2,2.4-0.5,3.2-0.9c-0.3-0.2-0.7-0.3-1-0.4
		l-0.2,0.3l-1.8-0.6c0.3-0.6,0.7-1.2,1.1-2h-1.5V116h2.4c0.2-0.5,0.5-1,0.7-1.4l2.2,0.5c-0.1,0.2-0.3,0.3-0.5,0.2
		c-0.1,0.2-0.2,0.5-0.3,0.7h4.3v1.7h-1.3c-0.2,0.8-0.5,1.6-0.9,2.2c0.6,0.3,1.2,0.6,1.6,1c1.2-0.6,2.1-1.5,2.9-2.6
		c-0.5-1-0.8-2.1-1.1-3.3c-0.2,0.4-0.5,0.8-0.7,1.1c-0.3-0.4-1.1-1.1-1.5-1.4c1.3-1.7,2.1-4.9,2.6-8l2.5,0.5
		c-0.1,0.2-0.2,0.3-0.5,0.3c-0.1,0.8-0.3,1.7-0.5,2.5h4.6V111.8z M334.4,117.7l-0.4,0.7c0.5,0.2,1.1,0.4,1.6,0.6
		c0.2-0.4,0.5-0.8,0.6-1.4H334.4z M342,111.8L342,111.8c0.2,1.5,0.6,2.9,1,4.1c0.4-1.2,0.7-2.6,0.9-4.1H342z"/>
	<path class="st7" d="M349,107.6h14.8v15.3h-2.2v-1.1h-10.4v1.1H349V107.6z M351.2,119.7h10.4v-10h-10.4V119.7z M353,111.7h6.7v6
		H353V111.7z M357.8,115.9v-2.6h-2.9v2.6H357.8z"/>
	<path class="st7" d="M366.8,117.7c1.2,1,2.9,2.7,3.8,3.7l-1.8,1.6c-0.8-1-2.5-2.9-3.6-3.9L366.8,117.7z"/>
	<path class="st7" d="M385.9,116.6c-0.1,1-0.4,2-0.8,2.9c1.5,0.8,3.5,1.4,5.9,1.6c-0.5,0.5-1,1.4-1.3,2c-2.3-0.3-4.2-0.9-5.8-1.9
		c-0.8,0.8-2,1.5-3.5,2c-0.3-0.5-0.9-1.3-1.3-1.7c1.5-0.3,2.5-0.9,3.2-1.5c-0.7-0.7-1.4-1.5-1.9-2.5l1.9-0.6c0.3,0.6,0.7,1,1.2,1.5
		c0.2-0.5,0.4-1.1,0.4-1.7h-3.9v-5.1h4v-1.2h-4.4v-1.9c-0.4,0.9-0.8,1.8-1.2,2.7l0.6,0.2c0,0.2-0.2,0.3-0.5,0.3v11.6h-2v-8.9
		c-0.5,0.7-1,1.4-1.5,2c-0.2-0.5-0.7-1.6-1-2.1c1.5-1.6,3.1-4.5,4-7.3l2.3,0.8c-0.1,0.1-0.2,0.2-0.5,0.2c-0.1,0.2-0.2,0.4-0.3,0.6
		h4.4v-1.6l2.5,0.1c0,0.2-0.1,0.3-0.5,0.3v1.1h4.7v1.9H386v1.2h4.2v5.1H385.9z M383.9,114.9v-1.7h-2.1v1.7H383.9z M386,113.2v1.7
		h2.2v-1.7H386z"/>
	<path class="st7" d="M391.8,112.9c2.7-0.7,6-1.5,7.4-1.5c2.4,0,4.4,1.2,4.4,4.3c0,3.4-2.5,5.6-7.3,7.1c-0.3-0.5-1-1.4-1.5-1.9
		c4.1-1,6.4-2.9,6.4-5c0-1.4-0.7-2.3-2.1-2.3c-1.5,0-3.8,0.6-6.1,1.4c0,0.2-0.2,0.4-0.4,0.4L391.8,112.9z M394.7,107
		c2.4,0.1,5.1,0.6,6.9,1.1l-0.6,2.2c-1.8-0.6-4.7-1.1-6.9-1.3L394.7,107z"/>
	<path class="st7" d="M417.5,113.6c-0.1,0-0.1,0-0.2,0c-0.1,0-0.3,0-0.4-0.1c-5.2,1.4-9.1,3.3-9.1,5.2c0,1.3,1.4,1.8,3.8,1.8
		c1.6,0,4.3-0.1,6.2-0.5l0.2,2.2c-2,0.3-5.3,0.3-6.3,0.3c-3.4,0-6.1-0.8-6.1-3.8c0-1.8,1.6-3.4,4.2-4.8c-0.6-1.3-0.8-3.2-0.8-6.9
		l3.1,0.2c0,0.3-0.2,0.4-0.6,0.5c0,0.5,0,1,0,1.4c0,1.7,0.1,3,0.4,3.8c1.5-0.7,3.2-1.3,4.9-1.9L417.5,113.6z"/>
	<path class="st7" d="M423.1,109.1c-0.1,0.2-0.2,0.3-0.5,0.3c-0.3,1.4-0.5,3.2-0.5,4.8c0,3.8,1.1,5.2,2.1,5.2c0.6,0,1.3-1.7,1.7-3.2
		c0.4,0.4,1.3,1.1,1.8,1.4c-0.8,2.9-2,4.2-3.6,4.2c-2.7,0-4-3.4-4.2-6.2c0-0.6-0.1-1.3-0.1-2c0-1.6,0.1-3.3,0.3-5L423.1,109.1z
		 M432.8,117.5c-0.5-3.1-2-5-4.1-6.3l1.4-1.6c2.5,1.3,4.5,3.7,5,7.1L432.8,117.5z"/>
	<path class="st7" d="M436.4,112.9c2.7-0.7,6-1.5,7.4-1.5c2.4,0,4.4,1.2,4.4,4.3c0,3.4-2.5,5.6-7.3,7.1c-0.3-0.5-1-1.4-1.5-1.9
		c4.1-1,6.4-2.9,6.4-5c0-1.4-0.7-2.3-2.1-2.3c-1.5,0-3.8,0.6-6.1,1.4c0,0.2-0.2,0.4-0.4,0.4L436.4,112.9z M439.3,107
		c2.4,0.1,5.1,0.6,6.9,1.1l-0.6,2.2c-1.8-0.6-4.7-1.1-6.9-1.3L439.3,107z"/>
	<path class="st7" d="M466,111.4h-8.5c-0.1,0.7-0.1,1.5-0.2,2.3h5.2l0.5-0.1l1.2,0.2c0,0.2-0.1,0.4-0.1,0.6
		c-0.3,4.9-0.7,6.9-1.4,7.7c-0.6,0.7-1.3,0.9-3.1,0.9c-0.6,0-1.2,0-1.8-0.1c0-0.6-0.3-1.5-0.7-2.1c1.2,0.1,2.5,0.1,3,0.1
		c0.4,0,0.6,0,0.9-0.2c0.5-0.4,0.8-1.9,1-5.1h-4.9c-0.6,2.9-2,5.7-5.6,7.5c-0.3-0.6-0.9-1.3-1.5-1.8c4.7-2.2,5.2-6.2,5.3-10h-5v-2
		h6.7v-2.9l2.6,0.1c0,0.2-0.2,0.3-0.5,0.3v2.4h6.9V111.4z"/>
	<path class="st7" d="M474.6,107.5c0,0.2-0.3,0.3-0.6,0.4c-0.2,0.9-0.4,2.4-0.6,3.4c0.5-0.1,1.1-0.1,1.4-0.1c2.9,0,3.8,2,3.8,4.7v0
		c-0.1,3.8-1.1,6.6-3.8,6.6c-0.7,0-1.7-0.3-3.1-1.4c0.3-0.5,0.6-1.3,0.7-1.9c1.2,0.8,1.9,1,2.3,1c0.7,0,1.1-0.6,1.4-1.6
		c0.2-0.8,0.4-2.2,0.4-2.9c0-1.7-0.5-2.6-1.8-2.6c-0.4,0-1,0-1.7,0.1c-0.8,3.2-1.7,6.3-3.2,9.1l-2-1c1.4-2.6,2.3-5,3-7.9
		c-0.6,0.1-1.9,0.3-2.6,0.4l-0.2-2.2l3.2-0.4c0.2-1.3,0.5-2.7,0.6-4.2L474.6,107.5z M479,110.1c-0.4-0.7-1.3-1.9-2-2.4l1-0.7
		c0.8,0.6,1.7,1.7,2.1,2.4L479,110.1z M481.3,117c-0.4-2.2-1.6-4.5-2.9-5.7l1.8-1.1c1.6,1.5,2.9,3.8,3.3,6.1L481.3,117z
		 M481.8,109.4c-0.4-0.7-1.3-1.9-2-2.4l1-0.7c0.8,0.6,1.7,1.7,2.1,2.4L481.8,109.4z"/>
	<path class="st7" d="M310.3,139.3l0.4-0.1c1.4,0.7,1.4,0.7,1.4,0.7c0,0.1-0.2,0.2-0.3,0.2c-2.1,5-7.2,7-13.2,7.9
		c-0.2-0.6-0.6-1.4-0.9-1.9c2.5-0.3,4.8-0.8,6.8-1.6c-0.6-0.5-1.3-1-1.9-1.4l1.5-1.1c0.7,0.4,1.6,1,2.3,1.5c1.1-0.7,1.9-1.5,2.6-2.5
		h-4.2c-1.4,1-3.1,1.9-5.2,2.6c-0.3-0.5-0.9-1.3-1.3-1.6c3.2-1,5.5-2.4,7-3.9h0c-2.3,1.4-5.1,2.4-7.9,3c-0.2-0.5-0.6-1.3-1-1.8
		c2.1-0.3,4.1-0.9,6-1.8c-0.5-0.4-1.1-0.7-1.7-1l1.4-1.1c0.7,0.3,1.5,0.8,2.1,1.2c0.9-0.6,1.7-1.2,2.4-2h-4.2
		c-1.2,0.9-2.7,1.7-4.4,2.4c-0.3-0.5-0.9-1.2-1.4-1.5c3-1,5.2-2.5,6.4-3.9l2.5,0.5c-0.1,0.2-0.2,0.3-0.5,0.3
		c-0.2,0.2-0.4,0.4-0.6,0.6h3.6l0.3-0.1l1.5,0.8c-0.1,0.1-0.2,0.2-0.3,0.2c-0.8,1.5-2.1,2.8-3.6,3.8l2.3,0.5
		c-0.1,0.2-0.2,0.3-0.5,0.3c-0.3,0.3-0.6,0.6-0.9,0.9H310.3z"/>
	<path class="st7" d="M317.3,134.1c-0.1,0.2-0.2,0.3-0.5,0.3c-0.3,1.4-0.5,3.2-0.5,4.8c0,3.8,1.1,5.2,2.1,5.2c0.6,0,1.3-1.7,1.7-3.2
		c0.4,0.4,1.3,1.1,1.8,1.4c-0.8,2.9-2,4.2-3.6,4.2c-2.7,0-4-3.4-4.2-6.2c0-0.6-0.1-1.3-0.1-2c0-1.6,0.1-3.3,0.3-5L317.3,134.1z
		 M327.1,142.5c-0.5-3.1-2-5-4.1-6.3l1.4-1.6c2.5,1.3,4.5,3.7,5,7.1L327.1,142.5z"/>
	<path class="st7" d="M337.9,132.5c0,0.2-0.3,0.3-0.6,0.4c-0.2,0.9-0.4,2.4-0.6,3.4c0.5-0.1,1.1-0.1,1.4-0.1c2.9,0,3.8,2,3.8,4.7v0
		c-0.1,3.8-1.1,6.6-3.8,6.6c-0.7,0-1.7-0.3-3.1-1.4c0.3-0.5,0.6-1.3,0.7-1.9c1.2,0.8,1.9,1,2.3,1c0.7,0,1.1-0.6,1.4-1.6
		c0.2-0.8,0.4-2.2,0.4-2.9c0-1.7-0.5-2.6-1.8-2.6c-0.4,0-1,0-1.7,0.1c-0.8,3.2-1.7,6.3-3.2,9.1l-2-1c1.4-2.6,2.3-5,3-7.9
		c-0.6,0.1-1.9,0.3-2.6,0.4l-0.2-2.2l3.2-0.4c0.2-1.3,0.5-2.7,0.6-4.2L337.9,132.5z M344.6,141.1c-0.4-2.3-2-4.5-3.4-5.8l1.7-1.2
		c1.8,1.3,3.6,3.9,4,6.1L344.6,141.1z"/>
	<path class="st7" d="M357.5,141.8c-1,0.1-2.4,0.2-3.7,0.2c0,0.4-0.1,0.7-0.1,1c0,2,1.3,2.4,2.8,2.4c0.7,0,1.5-0.1,2.2-0.3
		c0.8-0.2,1.2-0.8,1.2-1.7c0-0.8-0.4-1.8-1.3-2.9c0.6-0.2,1.5-0.5,2-0.7c1,1.5,1.5,2.8,1.5,4c0,3.6-4.6,3.6-5.7,3.6
		c-3.4,0-4.9-1.2-4.9-4.5c0-0.5,0-0.7,0.1-1c-1.3-0.1-3.6-0.3-3.6-2.3c0-0.8,0.4-1.6,1.4-2.4l1.7,0.7c-0.7,0.4-1.1,0.9-1.1,1.3
		c0,0.6,1,0.7,1.8,0.7c0.1-1,0.2-2,0.3-3.1c-1.1-0.1-2.4-0.4-3.4-0.8l0.5-2c0.9,0.4,2,0.7,3.2,0.8c0.1-1,0.2-2,0.3-2.9l2.9,0.3
		c0,0.2-0.3,0.4-0.6,0.4c-0.1,0.6-0.3,1.4-0.4,2.3c0.3,0,0.7,0,1.2,0c0.6,0,1.4,0,1.9-0.1l-0.1,2c-0.5,0-1,0.1-1.6,0.1
		c-0.6,0-1.2,0-1.7,0c-0.1,1-0.2,2.1-0.3,3c1.2,0,2.4-0.1,3.5-0.3L357.5,141.8z"/>
	<path class="st7" d="M367.8,132.5c0,0.2-0.2,0.3-0.5,0.4c-0.2,2.3-0.3,6.4-0.3,8.9c0,2.2,1.1,3.3,3,3.3c1.7,0,3.6-0.9,5.6-2.9
		c0.3,0.5,0.9,1.6,1.3,2c-2.2,2.2-4.5,3.2-6.9,3.2c-3.9,0-5.4-2.1-5.4-5.5c0-2.3,0.1-7.4,0.2-9.5L367.8,132.5z"/>
	<path class="st7" d="M378.1,135.3c1.2,0,2.5-0.1,3.1-0.2c0-0.3,0.1-3,0.1-3.1l2.8,0.2c0,0.2-0.2,0.3-0.5,0.4
		c-0.1,0.7-0.2,1.6-0.2,2.2l0.7,0.3c-0.3,0.6-0.7,1.5-1,2.2c1.8-1.7,3.6-2.5,4.8-2.5c1.8,0,2.8,1.2,2.8,3.3c0,0.2,0,0.4,0,0.6
		c-0.2,2.6-0.3,3.2-0.3,4.5c0,0.9,0.1,1.3,0.6,1.3c0.5,0,1.5-0.6,2.2-1.2c0,0.6,0.1,2,0.2,2.4c-0.9,0.6-1.9,1-2.8,1
		c-1.9,0-2.5-1-2.5-3.3c0-0.2,0-1.7,0.3-4.5c0-0.2,0-0.4,0-0.5c0-1.1-0.4-1.5-1-1.5c-1,0-2.7,1-4.4,2.8c0,3.4,0,6.7,0,7.6H381l0-5.7
		c-0.5,0.9-1.6,2.2-2.7,3.2l-1-2.1c1.2-1,3-3,3.8-4.5c0-0.4,0-0.8,0-1.2c-0.7,0.1-1.9,0.3-3,0.3L378.1,135.3z"/>
	<path class="st7" d="M394.7,134.1c1.1,0.1,2.7,0.1,4,0.1c0.6,0,1.1,0,1.7,0c0-0.7,0-1.6,0-2.1l2.7,0.1c0,0.2-0.2,0.3-0.5,0.4v1.6
		c1.8-0.1,3.6-0.2,5.3-0.6l0.2,2c-1.6,0.3-3.4,0.4-5.5,0.5c0,0.8,0,1.6,0,2.4c1.6-0.1,3.3-0.3,4.4-0.6l0.2,1.9
		c-1.1,0.2-2.9,0.4-4.5,0.5c0,0.9,0.1,1.6,0.1,2.3c1.6,0.5,3.2,1.4,4.7,2.5l-1.3,1.9c-1.1-1-2.2-1.7-3.3-2.2v0.5
		c0,1.4-1.2,2.4-3.6,2.4c-2.3,0-3.9-1.1-3.9-2.8c0-1.8,1.9-2.8,4-2.8c0.4,0,0.9,0,1.3,0.1c0-0.5,0-1.1-0.1-1.7c-0.5,0-1,0-1.4,0
		c-2.4,0-3.8-0.4-3.8-1.7c0-0.7,0.5-1.4,1.8-2.2l1.5,0.8c-0.6,0.3-1.1,0.6-1.1,0.9c0,0.3,0.2,0.4,2,0.4c0.3,0,0.6,0,0.9,0l-0.1-2.5
		c-0.5,0-1.1,0-1.7,0c-1.2,0-3,0-4,0V134.1z M400.7,143.8c-0.5-0.1-1.1-0.2-1.5-0.2c-1.1,0-1.9,0.5-1.9,1.1c0,0.7,0.9,1.1,2,1.1
		c1,0,1.5-0.4,1.5-1.3L400.7,143.8z"/>
	<path class="st7" d="M425.1,137.8c-0.9,0.1-2.2,0.2-3.5,0.4c0,1.4,0,2.7-0.2,3.5c-0.3,1.1-1.1,1.8-2.4,1.8c-0.4,0-1.4-0.1-2.5-0.7
		c0.1-0.4,0.2-1.2,0.2-1.8c0.7,0.4,1.5,0.6,1.8,0.6c0.4,0,0.7-0.3,0.8-0.6c0.1-0.5,0.1-1.5,0.1-2.5c-1.6,0.3-3.3,0.5-4.5,0.8
		c0,1.6,0.1,3.1,0.1,3.9c0.1,1.6,0.8,2.1,2.5,2.2c0.3,0,0.6,0,1,0c1.3,0,3.3-0.1,4.6-0.3l0.1,2c-1.4,0.2-3,0.2-4.4,0.2
		c-2.9,0-5.5-0.2-5.8-4c-0.1-0.8-0.1-2.2-0.2-3.6c-1,0.2-2.4,0.5-3.1,0.6l-0.3-2.1c0.8-0.1,2.2-0.3,3.4-0.6c0-1.5,0-3.2,0-4.3
		l2.8,0.2c0,0.2-0.2,0.3-0.5,0.4c-0.1,0.9,0,2.2-0.1,3.3c1.3-0.2,2.9-0.5,4.5-0.7c-0.1-1.4-0.1-3.1-0.2-4.3l2.7,0.1
		c0,0.2-0.1,0.3-0.4,0.4c0.1,1,0.1,2.3,0.1,3.5c1.2-0.2,2.5-0.4,3.4-0.5L425.1,137.8z"/>
	<path class="st7" d="M425.7,146.6c1.1-3.2,3.3-9.5,3.8-11.2c0.4-1,0.9-2.7,1-3.2l3,0.7c-0.1,0.3-0.3,0.4-0.7,0.4
		c-0.7,1.6-2.1,5.3-2.7,7c1-0.9,2.2-1.4,3.2-1.4c1.4,0,2.3,1,2.3,2.6c0,0.3-0.1,1.9-0.1,2.2c0,1,0.4,1.4,1.1,1.4
		c1.3,0,2.3-1.5,3.1-4.4c0.6,0.5,1.4,0.9,2,1.2c-1.1,3.4-2.7,5.4-5.2,5.4c-2.1,0-3.4-1.1-3.4-3c0-0.3,0.1-1.9,0.1-2.2
		c0-0.8-0.2-1.2-0.7-1.2c-1.6,0-3.3,2.4-3.8,3.9c-0.2,0.7-0.5,1.6-0.8,2.4L425.7,146.6z"/>
	<path class="st7" d="M442.6,135.1c1.2,0,2.2,0,3.3-0.1c0-0.4,0.1-2.5,0.1-2.9l2.7,0.2c0,0.2-0.2,0.3-0.5,0.4
		c-0.1,0.7-0.1,1.4-0.2,2.1l1,0.4c-0.4,0.6-0.8,1.5-1.2,2.4c0,0.1,0,0.2,0,0.3c1.7-1.4,3.6-2.3,5.3-2.3c2.8,0,4.1,1.7,4.1,5.2
		c0,1-0.1,2-0.3,2.8c0.5,0.4,0.9,0.9,1.3,1.3l-1.3,1.9c-0.2-0.3-0.6-0.8-1-1.2c-0.8,1-1.8,1.6-3.3,1.6c-1.8,0-3-1.1-3-2.7
		c0-1.6,1.3-2.7,3-2.7c0.8,0,1.6,0.2,2.4,0.6c0.1-0.5,0.2-1,0.2-1.7c0-2-0.7-3.2-2.2-3.2c-1.4,0-3.5,1-5,2.5c0,3.8,0,6.8,0,7.6h-2.1
		v-5.8c-0.4,0.8-1.4,2.2-2.4,3.2l-1.2-2c1.3-1.2,2.8-3.1,3.6-5c0-0.4,0-0.7,0-1.1c-0.6,0.1-1.6,0.2-3.2,0.2V135.1z M454.3,144.3
		c-0.5-0.5-1.2-0.7-1.8-0.7c-0.8,0-1.3,0.4-1.3,0.9c0,0.6,0.6,1,1.3,1C453.5,145.5,454.1,144.9,454.3,144.3z"/>
	<path class="st7" d="M463.9,145.6c0,1.3-1.1,2.4-2.4,2.4s-2.4-1.1-2.4-2.4s1.1-2.4,2.4-2.4C462.8,143.2,463.9,144.3,463.9,145.6z
		 M463.1,145.6c0-0.9-0.7-1.7-1.7-1.7c-0.9,0-1.6,0.7-1.6,1.7c0,0.9,0.7,1.6,1.6,1.6C462.4,147.3,463.1,146.5,463.1,145.6z"/>
</g>
<g class="st6">
	<path class="st7" d="M316.7,202.2v1.1h-4.6v-1.1H316.7z M316.3,207v3.6h-2.5v0.5h-1.2v-4H316.3z M312.7,204.9v-1.1h3.6v1.1H312.7z
		 M312.7,206.5v-1h3.6v1H312.7z M316.3,200.6v1.1h-3.5v-1.1H316.3z M315.1,208.2h-1.2v1.3h1.2V208.2z M323.1,207.3v1.3h-2.6v2.7
		h-1.4v-2.7h-2.6v-1.3h2.6v-1.2h-2v-1.3h2v-1.1h-2.2v-1.3h1.1c-0.1-0.5-0.4-1.2-0.7-1.7l1.1-0.4c0.4,0.6,0.7,1.4,0.8,1.9l-0.6,0.2
		h2.2l-0.5-0.2c0.3-0.6,0.7-1.4,0.8-2l1.5,0.5c0,0.1-0.2,0.1-0.3,0.1c-0.2,0.5-0.5,1.1-0.8,1.6h1.3v1.3h-2.4v1.1h2.1v1.3h-2.1v1.2
		H323.1z"/>
	<path class="st7" d="M328.6,201.2h5.6v9.8h-1.3v-0.5h-3.1v0.6h-1.2v-1.8c-0.3,0.1-0.7,0.2-1.1,0.4c-0.1-0.6-0.4-1.6-0.7-2.3l1-0.3
		c0.3,0.7,0.6,1.5,0.7,2.1v-2.6l-0.9,0.4c0-0.2-0.1-0.3-0.2-0.5l-0.8,0v4.8h-1.2v-3.8c0,0.1-0.1,0.1-0.3,0.1c-0.1,1-0.3,2.1-0.7,2.8
		c-0.2-0.2-0.7-0.4-1-0.5c0.3-0.6,0.5-1.7,0.6-2.7l1.3,0.3v-0.9c-0.5,0-1,0.1-1.4,0.1c0,0.1-0.1,0.2-0.2,0.2l-0.3-1.4h0.9
		c0.2-0.2,0.4-0.5,0.6-0.7c-0.3-0.5-0.9-1.1-1.4-1.6l0.7-1l0.3,0.2c0.3-0.7,0.7-1.4,0.9-2.1l1.4,0.6c0,0.1-0.2,0.1-0.3,0.1
		c-0.3,0.6-0.8,1.5-1.2,2.1c0.2,0.2,0.3,0.3,0.4,0.5c0.4-0.7,0.8-1.4,1.1-2l1.3,0.6c-0.1,0.1-0.2,0.1-0.3,0.1c-0.5,0.9-1.3,2-2.1,3
		l1.3,0c-0.1-0.3-0.3-0.6-0.5-0.9l1-0.5c0.4,0.6,0.7,1.3,1,1.9V201.2z M330.7,202.5h-0.9v2.7h0.9V202.5z M329.8,206.5v2.8h0.9v-2.8
		H329.8z M332.9,205.2v-2.7h-1v2.7H332.9z M331.9,209.3h1v-2.8h-1V209.3z"/>
	<path class="st7" d="M336.2,210.6c-0.3-0.9-0.5-2.8-0.5-4.4c0-1.7,0.3-3.4,0.6-5.3l1.8,0.3c0,0.1-0.2,0.2-0.3,0.2
		c-0.7,2.5-0.7,4.3-0.7,5.6c0,0.4,0,0.8,0,1c0.2-0.5,0.5-1.4,0.7-1.8l0.8,1c-0.3,0.6-0.7,1.6-1,2.2c-0.1,0.2-0.1,0.4-0.1,0.6
		c0,0.2,0,0.3,0.1,0.5L336.2,210.6z M339.3,203.4c0.8,0,1.7,0,2.6,0c0-0.9-0.1-1.7-0.1-2.6l1.8,0.1c0,0.1-0.1,0.2-0.3,0.3l0,2.1
		c0.8-0.1,1.5-0.2,2-0.4l0.1,1.4c-0.5,0.2-1.2,0.3-2.1,0.3c0,1,0.1,2.1,0.1,2.9c0.8,0.3,1.6,0.8,2.2,1.3l-0.8,1.4
		c-0.4-0.4-0.8-0.8-1.4-1.1c-0.2,1.5-1.2,1.7-2.2,1.7c-1.4,0-2.3-0.8-2.3-1.9c0-1.2,1.1-1.9,2.3-1.9c0.2,0,0.5,0,0.7,0.1
		c0-0.6-0.1-1.5-0.1-2.4c-0.3,0-0.7,0-1,0h-1.6L339.3,203.4z M342.2,208.3c-0.2-0.1-0.5-0.1-0.8-0.1c-0.6,0-1.1,0.2-1.1,0.7
		c0,0.4,0.5,0.7,1.1,0.7c0.6,0,0.9-0.3,0.8-0.9C342.2,208.6,342.2,208.5,342.2,208.3z"/>
	<path class="st7" d="M347.4,207.1v-5.7l1.8,0.1c0,0.1-0.1,0.2-0.3,0.2v5.4H347.4z M354.3,200.9c0,0.1-0.1,0.2-0.3,0.2v3.6
		c0,2.5-0.8,4.7-4.1,6.1c-0.2-0.3-0.8-0.8-1.1-1.1c3.1-1.2,3.7-3.1,3.7-5v-4L354.3,200.9z"/>
	<path class="st7" d="M356.4,201.4c1.2,0.4,2.6,1,3.4,1.5l-0.8,1.3c-0.8-0.6-2.2-1.2-3.3-1.6L356.4,201.4z M356,209.2
		c3.9-1.2,6.6-3.5,8-6.7c0.4,0.3,0.9,0.6,1.4,0.9c-1.4,3.2-4.2,5.6-8.1,7c0,0.1-0.1,0.3-0.2,0.3L356,209.2z"/>
	<path class="st7" d="M374.6,203c0,0.1-0.2,0.2-0.3,0.2c-1.3,3.8-3.1,6.1-6.3,7.7c-0.2-0.3-0.7-0.8-1.1-1.1c2.9-1.4,4.6-3.4,5.5-6
		H369c-0.6,0.9-1.5,1.9-2.5,2.7c-0.3-0.3-0.8-0.7-1.2-1c1.5-1.1,2.9-3,3.6-4.9l1.8,0.4c0,0.1-0.2,0.2-0.4,0.2
		c-0.2,0.4-0.4,0.8-0.6,1.2h3.3l0.2-0.1L374.6,203z"/>
	<path class="st7" d="M380,206.8c0,0.1-0.1,0.2-0.3,0.2c-0.3,1.7-0.8,3.3-3.5,4.3c-0.2-0.4-0.5-0.9-0.8-1.2c2.4-0.7,2.8-1.9,3-3.4
		L380,206.8z M382.8,209.3c0,0.4,0.1,0.4,0.4,0.4h1c0.3,0,0.4-0.2,0.5-1.6c0.3,0.2,0.9,0.5,1.3,0.6c-0.1,1.9-0.5,2.4-1.6,2.4H383
		c-1.3,0-1.6-0.4-1.6-1.8v-2.8h-5.9v-1.4h4.5v-1.9h-2c-0.3,0.6-0.6,1.2-0.9,1.6c-0.3-0.2-0.9-0.5-1.2-0.6c0.8-1,1.3-2.5,1.6-3.7
		l1.6,0.4c0,0.1-0.1,0.2-0.3,0.2c-0.1,0.3-0.2,0.6-0.3,0.9h1.5v-1.6l1.7,0.1c0,0.1-0.1,0.2-0.3,0.2v1.3h3.6v1.3h-3.6v1.9h4.5v1.4
		h-3.1V209.3z"/>
	<path class="st7" d="M393.1,203c0,0.1-0.2,0.2-0.3,0.2c-0.5,4-1.6,6.3-3.6,6.3c-1.3,0-2.2-1.1-2.2-3c0-3,2.4-5.2,5.3-5.2
		c3.3,0,5,2,5,4.5c0,2.7-1.4,4.1-4.3,4.9c-0.2-0.3-0.5-0.8-0.9-1.2c2.6-0.5,3.7-1.8,3.7-3.6c0-1.9-1.3-3.1-3.4-3.1
		c-0.2,0-0.4,0-0.6,0L393.1,203z M391.3,202.8c-1.8,0.4-2.9,1.9-2.9,3.6c0,1,0.3,1.7,0.8,1.7C390.3,208,391.1,205.5,391.3,202.8z"/>
	<path class="st7" d="M408,201.8c0,0.1-0.1,0.1-0.2,0.2c-0.5,1.3-1.5,2.8-2.5,3.8c-0.3-0.2-0.9-0.6-1.3-0.8c0.7-0.6,1.4-1.6,1.7-2.3
		h-7.5v-1.4h8.4l0.2-0.1L408,201.8z M403.5,204c0,0.1-0.1,0.2-0.3,0.2c-0.3,2.5-1.3,5.2-3.6,6.6c-0.3-0.3-0.9-0.7-1.3-0.9
		c2.2-1.2,3.1-3.5,3.3-6.1L403.5,204z"/>
	<path class="st7" d="M418.6,202.7c0,0.1-0.1,0.2-0.2,0.2c-1,1.5-2.7,3.2-4.3,4.4c0.7,0.5,1.6,1.3,2.1,1.9l-1.3,1.1
		c-1.3-1.5-3.3-3.2-5.1-4.2l1-1c0.7,0.4,1.5,0.9,2.2,1.4c1.2-0.9,2.4-2.1,3.1-3.1h-7.5V202h8.7l0.2-0.1L418.6,202.7z"/>
	<path class="st7" d="M421.8,205.8c-0.3-0.9-1.1-2.3-1.9-3.3l1.3-0.6c0.7,0.8,1.6,2.3,2,3.2L421.8,205.8z M428.8,202.6
		c0,0.1-0.1,0.2-0.3,0.2c-1.2,4-3.3,6.5-6.5,7.8c-0.2-0.3-0.7-0.8-1-1.1c3.1-1.2,5-3.5,6.1-7.5L428.8,202.6z M425.5,200.2
		c0.5,0.4,1,1.2,1.3,1.6l-0.7,0.5c-0.3-0.4-0.9-1.3-1.3-1.7L425.5,200.2z M427.8,200c0.5,0.5,1,1.1,1.3,1.6l-0.7,0.5
		c-0.3-0.5-0.9-1.2-1.3-1.6L427.8,200z"/>
	<path class="st7" d="M430.8,201.4c1.2,0.4,2.6,1,3.4,1.5l-0.8,1.3c-0.8-0.6-2.2-1.2-3.3-1.6L430.8,201.4z M430.4,209.2
		c3.9-1.2,6.6-3.5,8-6.7c0.4,0.3,0.9,0.6,1.4,0.9c-1.4,3.2-4.2,5.6-8.1,7c0,0.1-0.1,0.3-0.2,0.3L430.4,209.2z"/>
	<path class="st7" d="M446.6,203c0,0.1-0.2,0.2-0.3,0.2c-0.5,4-1.6,6.3-3.6,6.3c-1.3,0-2.2-1.1-2.2-3c0-3,2.4-5.2,5.3-5.2
		c3.3,0,5,2,5,4.5c0,2.7-1.4,4.1-4.3,4.9c-0.2-0.3-0.5-0.8-0.9-1.2c2.6-0.5,3.7-1.8,3.7-3.6c0-1.9-1.3-3.1-3.4-3.1
		c-0.2,0-0.4,0-0.6,0L446.6,203z M444.8,202.8c-1.8,0.4-2.9,1.9-2.9,3.6c0,1,0.3,1.7,0.8,1.7C443.9,208,444.6,205.5,444.8,202.8z"/>
	<path class="st7" d="M318.9,215.3v1.3h-2.2l0.3,0.1c0,0.1-0.1,0.1-0.3,0.2c-0.1,0.3-0.3,0.6-0.5,0.9h2.2v6c0,1.3-0.6,1.5-2.6,1.5
		c-0.1-0.3-0.2-0.7-0.3-1.1h-2.8v0.7h-1.2V221h4.6v2.8h0.8c0.2,0,0.3-0.1,0.3-0.2v-3.1c-0.2,0.1-0.4,0.1-0.6,0.1h-1
		c-1.1,0-1.3-0.3-1.3-1.3v-0.5H313c-0.1,1.1-0.5,1.9-2.3,2.3c-0.1-0.2-0.3-0.5-0.5-0.8v4.7H309v-7.5h2.1c-0.1-0.3-0.3-0.7-0.4-1
		l0.4-0.1h-2.7v-1.3h4.5v-1.1l1.7,0.1c0,0.1-0.1,0.2-0.3,0.2v0.8H318.9z M310.3,218.9v1.3c1.1-0.2,1.5-0.6,1.6-1.3H310.3z
		 M312.1,216.6c0.2,0.4,0.4,0.8,0.4,1.1h2.1c0.2-0.3,0.3-0.7,0.4-1.1H312.1z M314.7,223v-0.9h-2.1v0.9H314.7z M316.2,219.6
		c0.2,0,0.2,0,0.3-0.3c0.1,0.1,0.3,0.2,0.5,0.2v-0.7h-1.7v0.5c0,0.2,0,0.3,0.3,0.3H316.2z"/>
	<path class="st7" d="M320.2,225.1V220h4.5v5.1h-1.4v-0.4h-1.8v0.4H320.2z M323.3,221.3h-1.8v2h1.8V221.3z M328.3,214.6v4.5h-6.2
		v-4.5H328.3z M326.9,217.7v-1.8h-3.4v1.8H326.9z M325.7,220h4.6v5h-1.4v-0.3H327v0.4h-1.3V220z M327,223.4h1.9v-2H327V223.4z"/>
	<path class="st7" d="M331.2,220.2c0.8-0.9,2.4-2.7,3.2-3.5c0.4-0.4,0.8-0.6,1.2-0.6c0.4,0,0.8,0.2,1.2,0.6c1.4,1.2,3.8,3.9,5.4,5.8
		l-1.2,1.2c-1.4-2-3.9-4.8-4.8-5.7c-0.2-0.2-0.4-0.3-0.5-0.3c-0.1,0-0.3,0.1-0.5,0.4c-0.4,0.5-1.8,2.2-2.5,3c0,0.1,0,0.3-0.2,0.4
		L331.2,220.2z M340,214.4c0.7,0,1.3,0.6,1.3,1.3c0,0.7-0.6,1.3-1.3,1.3c-0.7,0-1.3-0.6-1.3-1.3C338.7,215,339.3,214.4,340,214.4z
		 M340.8,215.7c0-0.5-0.4-0.8-0.8-0.8c-0.5,0-0.8,0.4-0.8,0.8s0.4,0.8,0.8,0.8C340.4,216.5,340.8,216.1,340.8,215.7z"/>
	<path class="st7" d="M343,218.8h9.7v1.5h-9.2c-0.1,0.1-0.2,0.2-0.4,0.2L343,218.8z"/>
	<path class="st7" d="M354.5,217.8c1,0.3,2.2,0.7,3,1.1l-0.6,1.3c-0.8-0.4-2-0.9-3-1.1L354.5,217.8z M354.8,223.2
		c3.5-1.1,6.2-3,7.7-6.4c0.3,0.3,1,0.8,1.3,1c-1.6,3.3-4.4,5.5-7.7,6.6c0,0.1,0,0.2-0.2,0.3L354.8,223.2z M355.9,215
		c1,0.3,2.2,0.7,3,1.1l-0.7,1.2c-0.8-0.5-1.9-0.9-2.9-1.2L355.9,215z M361.1,214.6c0.5,0.4,1.1,1.1,1.4,1.6l-0.7,0.5
		c-0.3-0.5-0.9-1.3-1.3-1.6L361.1,214.6z M362.9,213.9c0.5,0.4,1.1,1.1,1.4,1.6l-0.7,0.5c-0.3-0.5-0.9-1.2-1.3-1.6L362.9,213.9z"/>
	<path class="st7" d="M364.5,215.6c0.4,0,0.9,0,1.2,0c1.3-0.1,6.4-0.4,8.3-0.5l0,1.6c-1,0-1.6,0.1-2.5,0.7c-1.3,0.8-2.9,2.5-2.9,3.8
		c0,1.3,1.2,2.1,3.7,2.4l-0.7,1.5c-3.3-0.4-4.6-1.8-4.6-3.8c0-1.4,1.3-3.3,3-4.5c-1.4,0.1-4.1,0.3-5.2,0.5c0,0.1-0.2,0.2-0.3,0.2
		L364.5,215.6z M372.3,218.4c0.5,0.4,1.1,1.1,1.4,1.6l-0.7,0.5c-0.3-0.5-1-1.2-1.4-1.6L372.3,218.4z M373.7,217.3
		c0.5,0.4,1.1,1,1.4,1.6l-0.7,0.5c-0.3-0.4-0.9-1.2-1.4-1.6L373.7,217.3z"/>
	<path class="st7" d="M383.9,224.1c-0.9,0.2-2.3,0.2-3.5,0.2c-1,0-1.9-0.1-2.4-0.2c-1.5-0.3-2.1-1.3-2.1-2.4c0-0.9,0.5-1.8,1.1-2.4
		l1.3,0.6c-0.5,0.5-0.8,1.1-0.8,1.6c0,1.4,1.7,1.4,2.8,1.4c1.1,0,2.5-0.1,3.6-0.3L383.9,224.1z M378.2,218c0.4-0.3,1-0.8,1.5-1v0
		c-0.6,0.1-2.2,0.1-3.2,0.1c0-0.4,0-1.1,0-1.4c0.2,0,0.5,0,0.8,0c2.1,0,4.2,0,5.9-0.3l0.1,1.5c-1.7,0.3-3.1,1.3-3.8,1.8L378.2,218z
		 M383.6,220c-0.3-0.4-1-1.2-1.4-1.5l0.6-0.5c0.5,0.4,1.1,1,1.5,1.5L383.6,220z M384.9,218.8c-0.3-0.4-1-1.1-1.4-1.5l0.6-0.5
		c0.5,0.4,1.1,1,1.5,1.5L384.9,218.8z"/>
	<path class="st7" d="M396.9,223.6v1.1h-4.4v0.5h-1.3v-4.4c-0.2,0.2-0.4,0.3-0.6,0.5c-0.1-0.3-0.3-0.7-0.5-1.1v3.7H388v1h-1.1v-3.2
		c-0.1,0.2-0.3,0.5-0.5,0.7c-0.1-0.3-0.5-1-0.7-1.3c0.8-1.1,1.2-2.9,1.5-4.9H386v-1.3h4.3v0.7h2.4c0.1-0.4,0.2-0.9,0.3-1.4l1.6,0.3
		c0,0.1-0.1,0.2-0.3,0.2c-0.1,0.3-0.1,0.6-0.2,0.9h2.7v2.3h-1.2v-0.2c0,0-0.1,0-0.1,0c-0.1,0.2-0.2,0.5-0.3,0.8h1.6v1.2h-1.8v0.7
		h1.5v1h-1.5v0.7h1.5v1h-1.5v0.7H396.9z M388.9,222.6v-2.9H388v2.9H388.9z M390.1,218.5v1.4c0.9-0.7,1.7-1.8,2.2-3.2h-0.8v1.1h-1.2
		v-1.6h-1.7c-0.1,0.8-0.3,1.6-0.5,2.4H390.1z M393.5,220.2v-0.7h-1v0.7H393.5z M393.5,221.9v-0.7h-1v0.7H393.5z M392.5,222.9v0.7h1
		v-0.7H392.5z M395.5,216.7h-1.8c-0.2,0.6-0.5,1.1-0.7,1.7h0.8c0.2-0.4,0.3-0.9,0.5-1.3l1.3,0.4V216.7z"/>
	<path class="st7" d="M401.7,216.1v1.1h-4.2v-1.1H401.7z M401.4,221v2.8c0.4-0.6,0.7-1.5,0.8-2.4l1.1,0.3c-0.1,1-0.3,2.1-0.9,2.8
		l-1-0.6v0.6h-2.3v0.5H398v-4H401.4z M401.4,217.8v1.1H398v-1.1H401.4z M398,220.4v-1h3.4v1H398z M401.4,214.6v1.1h-3.3v-1.1H401.4z
		 M400.3,223.4v-1.3h-1.1v1.3H400.3z M408.1,215c-0.2,4.7-0.3,4.7-2.7,4.6c0-0.4-0.2-0.9-0.3-1.2l0.2,0c-0.2-0.1-0.5-0.3-0.7-0.4
		c-0.4,0.8-1,1.5-2,2c-0.2-0.3-0.5-0.8-0.8-1c0.8-0.4,1.3-1,1.7-1.6c-0.4-0.2-0.9-0.4-1.3-0.5l0.7-1c0.3,0.1,0.7,0.2,1.1,0.4
		c0.1-0.2,0.1-0.4,0.2-0.7h-1.8v-1.2h4.8l0.3,0l0.7,0.1L408.1,215z M404.8,223.4c0,0.3,0,0.3,0.2,0.3h0.5c0.2,0,0.2-0.1,0.3-1.1
		c0.2,0.2,0.8,0.4,1.1,0.5c-0.1,1.5-0.5,1.8-1.2,1.8h-0.8c-1,0-1.3-0.4-1.3-1.5V221l1.6,0.1c0,0.1-0.1,0.2-0.3,0.2V223.4z
		 M405.6,221.6c-0.4-0.5-1.2-1.2-2-1.6l0.9-0.8c0.7,0.4,1.6,1.1,2,1.6L405.6,221.6z M405.5,218.5c0.3,0,0.5,0,0.6,0
		c0.1,0,0.2,0,0.3-0.1c0.2-0.2,0.3-0.9,0.3-2.6h-1.5c-0.1,0.4-0.2,0.8-0.3,1.2c0.4,0.2,0.8,0.4,1.1,0.6L405.5,218.5z M407.4,224.6
		c-0.1-0.8-0.6-2-1.2-2.9l1.1-0.5c0.6,0.9,1.1,2.1,1.3,2.9L407.4,224.6z"/>
	<path class="st7" d="M415.1,225.1c-1-1.2-2.7-2.8-4.5-4.1c-0.7-0.5-0.9-0.9-0.9-1.4c0-0.4,0.1-0.7,0.5-1.1c1.2-1.1,3.2-3.1,4.1-4.1
		l1.7,1.1c-0.1,0.1-0.2,0.2-0.5,0.1c-1.1,1-2.7,2.4-3.7,3.3c-0.3,0.3-0.5,0.5-0.5,0.7c0,0.2,0.3,0.4,0.7,0.7c1.4,1,3,2.4,4.4,3.8
		L415.1,225.1z"/>
	<path class="st7" d="M424.3,217.3c-0.9,0.3-2,0.5-3.2,0.6c-0.5,2.4-1.2,5.1-2,7l-1.5-0.5c0.9-1.8,1.6-4,2-6.4c-0.2,0-1,0-1.2,0
		c-0.2,0-0.5,0-0.7,0l0-1.4c0.4,0,1,0,1.5,0c0.2,0,0.4,0,0.6,0c0.1-0.7,0.2-1.5,0.2-2.1l1.9,0.2c0,0.1-0.2,0.2-0.3,0.3
		c-0.1,0.4-0.2,1-0.2,1.6c0.9-0.1,1.9-0.3,2.7-0.6L424.3,217.3z M427.4,224.6c-0.4,0-0.8,0-1.2,0c-0.9,0-1.9-0.1-2.4-0.2
		c-1-0.2-1.5-1-1.5-1.8c0-0.6,0.3-1.2,0.7-1.7l1.2,0.5c-0.4,0.4-0.5,0.7-0.5,1c0,0.6,0.6,0.8,2.2,0.8c0.5,0,1.1,0,1.5-0.1
		L427.4,224.6z M423,218.8c1.2-0.4,2.8-0.6,4.1-0.6v1.4c-1.3,0-2.7,0.1-3.8,0.4L423,218.8z M425,214.7c0.5,0.4,1.2,1,1.5,1.5
		l-0.7,0.6c-0.3-0.4-1-1.2-1.4-1.5L425,214.7z M426.6,214c0.5,0.4,1.2,1,1.5,1.5l-0.7,0.6c-0.3-0.4-1-1.1-1.4-1.5L426.6,214z"/>
	<path class="st7" d="M438,217.3c-0.9,0.2-2.3,0.4-3.5,0.5c0.4,1.3,1,2,2,2.5l-1,1.2c-0.4-0.4-1.1-0.8-2.5-0.8l-0.4-1.2
		c0.4,0,0.9,0,1.2,0.1c-0.3-0.4-0.5-1-0.8-1.8c-0.5,0-0.9,0-1.5,0c-0.7,0-2.1,0-2.9,0l0-1.4c0.7,0,1.5,0,2.9,0c0.4,0,0.8,0,1.2,0
		c-0.1-0.6-0.2-1.4-0.3-2.1l2,0c0,0.1-0.1,0.3-0.3,0.3c0,0.6,0.1,1.1,0.2,1.7c1.2-0.1,2.7-0.3,3.6-0.6L438,217.3z M435.8,224.7
		c-0.6,0-1.3,0-2.1,0c-2.8,0-4.2-1.1-4.2-2.5c0-0.7,0.3-1.3,1-2l1.1,0.8c-0.5,0.4-0.6,0.7-0.6,1.1c0,0.9,1.1,1.2,2.8,1.2
		c0.9,0,1.6,0,2.2-0.1L435.8,224.7z"/>
	<path class="st7" d="M441.2,215.8c0,0.1-0.2,0.2-0.3,0.2c-0.2,0.9-0.3,2.1-0.3,3.2c0,2.6,0.7,3.5,1.4,3.5c0.4,0,0.9-1.2,1.1-2.1
		c0.3,0.3,0.8,0.7,1.2,0.9c-0.6,1.9-1.3,2.8-2.4,2.8c-1.8,0-2.7-2.2-2.8-4.1c0-0.4,0-0.9,0-1.3c0-1.1,0.1-2.2,0.2-3.3L441.2,215.8z
		 M447.7,221.4c-0.3-2.1-1.3-3.3-2.7-4.2l0.9-1.1c1.6,0.9,3,2.5,3.4,4.8L447.7,221.4z"/>
	<path class="st7" d="M452.9,223.5c0,0.9-0.7,1.6-1.6,1.6c-0.9,0-1.6-0.7-1.6-1.6c0-0.9,0.7-1.6,1.6-1.6
		C452.2,221.9,452.9,222.6,452.9,223.5z M452.3,223.5c0-0.6-0.5-1.1-1.1-1.1c-0.6,0-1.1,0.5-1.1,1.1c0,0.6,0.5,1.1,1.1,1.1
		C451.9,224.6,452.3,224.1,452.3,223.5z"/>
</g>
<g>
	<g>
		<g>
			<path class="st71" d="M113.7,82c0-1.8-9.4-3.3-20.8-3.3S72,80.2,72,82c0,0.2,0.2,0.3,0.3,0.5H72v97.2c0,0,0,0.5,0,0.8
				c0,2.3,9.4,4.1,20.8,4.1s20.8-1.8,20.8-4.1c0-0.3,0-0.8,0-0.8V82.4h-0.3C113.6,82.3,113.7,82.1,113.7,82z"/>
			<path class="st76" d="M113.7,179.4L113.7,179.4c0,0.2,0,0.6,0,0.9c0,2.3-9.4,4.1-20.8,4.1S72,182.5,72,180.3c0-0.3,0-0.8,0-0.8
				v-0.2c-0.6,0.8-0.9,1.2-0.9,1.7c0,2.3,9.5,5,21.7,5c12.1,0,21.7-2.7,21.7-5C114.6,180.6,114.2,180,113.7,179.4z"/>
			<path class="st76" d="M113.7,82c0,1.8-9.4,4.4-20.8,4.4S72,84,72,82s9.4-3.3,20.8-3.3C104.3,78.5,113.7,80,113.7,82z"/>
			<path class="st83" d="M92.9,86.1C85,86.1,77.9,85,72,83.4v33.4v21.1c5.7,1.7,13,3,20.8,3s14.9-1.4,20.8-3v-21.1V83.5
				C107.8,85.2,100.7,86.1,92.9,86.1z"/>
			<g>
				<path class="st70" d="M113.1,81.2L113.1,81.2c-0.2,0.2,0.2,0.5,0.2,0.6c0.2,2.3-9.1,4.1-20.4,4.1c-11.5,0-20.5-1.8-20.4-4.1
					c0-0.3,0.2-0.6,0.2-0.6v-0.2c-0.6,0.6-1.2,1.2-1.2,1.5c-0.2,2.4,9.4,5.1,21.4,5.1s21.6-2.9,21.4-5
					C114.2,82.3,113.7,82,113.1,81.2z"/>
				<g>
					<g>
						
							<linearGradient id="SVGID_8_" gradientUnits="userSpaceOnUse" x1="73.6319" y1="185.3274" x2="112.0718" y2="185.3274" gradientTransform="matrix(1 0 0 -1 0 265.8898)">
							<stop  offset="5.618000e-03" style="stop-color:#CACBCC"/>
							<stop  offset="0.2921" style="stop-color:#AAABAD"/>
							<stop  offset="0.6517" style="stop-color:#CECED0"/>
							<stop  offset="0.8652" style="stop-color:#AEAFB1"/>
							<stop  offset="1" style="stop-color:#B5B5B6"/>
							<stop  offset="1" style="stop-color:#D2D4D7"/>
						</linearGradient>
						<path class="st14" d="M111.1,79.9c-2-1.8-8.2-3.6-18.3-3.6s-16.3,0.9-18.3,3.6c0,0-1.1,0.9-1.1,1.4c0,2,8.6,3.6,19.2,3.6
							s19.3-1.7,19.3-3.6C112,80.8,111.1,79.9,111.1,79.9z"/>
						
							<linearGradient id="SVGID_9_" gradientUnits="userSpaceOnUse" x1="76.5662" y1="189.4792" x2="109.0759" y2="189.4792" gradientTransform="matrix(1 0 0 -1 0 265.8898)">
							<stop  offset="5.618000e-03" style="stop-color:#D1D1D2"/>
							<stop  offset="0.3596" style="stop-color:#9FA0A0"/>
							<stop  offset="0.5488" style="stop-color:#ACACAD"/>
							<stop  offset="0.6517" style="stop-color:#B5B5B6"/>
							<stop  offset="0.8652" style="stop-color:#B7B8B8"/>
							<stop  offset="1" style="stop-color:#B5B5B6"/>
							<stop  offset="1" style="stop-color:#DCDDDD"/>
						</linearGradient>
						<path class="st16" d="M109.2,79.1L109.2,79.1c0-0.2-3.5-5.9-3.5-5.9c-0.6-1.7-5.7-3-12.8-3s-11.6,1.1-12.8,3
							c0,0-3.5,5.7-3.5,5.9l0,0l0,0c0,0,0,0,0,0.2c0,1.8,7.2,3.3,16.3,3.3C101.8,82.4,109.2,80.9,109.2,79.1L109.2,79.1L109.2,79.1z
							"/>
						<path class="st11" d="M103,72.3c0,0.8-4.4,2-10.1,1.8c-5.6,0-10.1-1.1-10.1-1.8c0-0.9,4.4-0.2,10.1-0.2
							C98.5,72.2,103,71.6,103,72.3z"/>
					</g>
					<path class="st70" d="M103.1,70.5c0-0.9-4.5-1.5-10.3-1.5c-5.7,0-10.3,0.8-10.3,1.5c0,0.2,0,0.8,0,0.9c0,0.9,4.5,1.5,10.3,1.5
						c5.7,0,10.3-0.8,10.3-1.5C103.1,71.1,103.1,70.7,103.1,70.5z"/>
					<g>
						<path class="st83" d="M101,69.6c0-0.2-0.2-0.2-0.3-0.3v-10c0-0.5-3.5-0.9-7.9-0.9c-4.4,0-7.9,0.5-7.9,0.9v10
							c-0.2,0.2-0.3,0.2-0.3,0.3c0,0,0,0.3,0,0.5c0,0.5,3.6,0.9,8.2,0.9c4.5,0,8.2-0.5,8.2-0.9C101,69.9,101,69.6,101,69.6z"/>
						<g>
							<g>
								<path class="st73" d="M93,70.5c-0.2,0-0.3,0-0.5,0c0-3.2,0-6.3,0-9.5c0.2,0,0.3,0,0.5,0C93,64.3,93,67.5,93,70.5z"/>
								<path class="st73" d="M92,70.5c-0.2,0-0.3,0-0.5,0c0-3.2,0-6.3,0-9.5c0.2,0,0.3,0,0.5,0C92,64.2,92,67.4,92,70.5z"/>
								<path class="st73" d="M90.9,70.4c-0.2,0-0.3,0-0.5,0c0-3.2,0-6.3,0-9.5c0.2,0,0.3,0,0.5,0C90.9,64.2,90.9,67.2,90.9,70.4z"
									/>
								<path class="st73" d="M89.7,70.4c-0.2,0-0.3,0-0.5,0c0-3.2,0-6.3,0-9.5c0.2,0,0.3,0,0.5,0C89.7,64,89.7,67.2,89.7,70.4z"/>
								<path class="st73" d="M88.6,70.2c-0.2,0-0.3,0-0.5,0c0-3.2,0-6.3,0-9.5c0.2,0,0.3,0,0.5,0C88.6,63.9,88.6,67.1,88.6,70.2z"
									/>
								<path class="st73" d="M87.6,70.1c-0.2,0-0.3,0-0.5,0c0-3.2,0-6.3,0-9.5c0.2,0,0.3,0,0.5,0C87.6,63.7,87.6,66.9,87.6,70.1z"
									/>
								<path class="st73" d="M86.4,69.9c-0.2,0-0.3,0-0.5,0c0-3.2,0-6.3,0-9.5c0.2,0,0.3,0,0.5,0C86.4,63.6,86.4,66.7,86.4,69.9z"
									/>
							</g>
							<g>
								<path class="st73" d="M93.8,70.5c0.2,0,0.3,0,0.5,0c0-3.2,0-6.3,0-9.5c-0.2,0-0.3,0-0.5,0C93.8,64.3,93.8,67.4,93.8,70.5z"
									/>
								<path class="st73" d="M94.8,70.5c0.2,0,0.3,0,0.5,0c0-3.2,0-6.3,0-9.5c-0.2,0-0.3,0-0.5,0C94.8,64.2,94.8,67.4,94.8,70.5z"
									/>
								<path class="st73" d="M95.9,70.4c0.2,0,0.3,0,0.5,0c0-3.2,0-6.3,0-9.5c-0.2,0-0.3,0-0.5,0C95.9,64,95.9,67.2,95.9,70.4z"/>
								<path class="st73" d="M97.1,70.4c0.2,0,0.3,0,0.5,0c0-3.2,0-6.3,0-9.5c-0.2,0-0.3,0-0.5,0C97.1,64,97.1,67.2,97.1,70.4z"/>
								<path class="st73" d="M98.2,70.2c0.2,0,0.3,0,0.5,0c0-3.2,0-6.3,0-9.5c-0.2,0-0.3,0-0.5,0C98.2,63.9,98.2,67.1,98.2,70.2z"
									/>
								<path class="st73" d="M99.2,70.1c0.2,0,0.3,0,0.5,0c0-3.2,0-6.3,0-9.5c-0.2,0-0.3,0-0.5,0C99.2,63.7,99.2,66.9,99.2,70.1z"
									/>
							</g>
						</g>
						<path class="st2" d="M100.7,59.5c0,0.5-3.5,0.9-7.9,0.9c-4.4,0-7.9-0.5-7.9-0.9c0-0.5,3.5-0.9,7.9-0.9
							C97.2,58.6,100.7,58.9,100.7,59.5z"/>
					</g>
					<path class="st73" d="M92.9,71.9c-5.6,0-10-0.6-10.3-1.5l0,0c0,0.2,0,0.8,0,0.9c0,0.9,4.5,1.5,10.3,1.5
						c5.7,0,10.3-0.8,10.3-1.5c0-0.2,0-0.8,0-0.9l0,0C102.8,71.3,98.3,71.9,92.9,71.9z"/>
				</g>
			</g>
			<g>
				<path class="st71" d="M85.8,110.7c-0.9,0-1.8-0.2-2.7-0.2c-0.3-1.8-0.9-3-1.8-3.6c-0.9-0.6-1.8-0.6-2.6,0.3
					c-1.5,1.7-2.1,4.5-1.7,8.8c0.2,1.8,0.6,3.2,1.2,4.1c0.6,1.1,1.2,1.5,2,1.5c0.6,0,1.2-0.3,1.8-1.2c0.6-0.8,1.1-2,1.2-3.5
					c-0.9,0-1.8-0.2-2.9-0.2c0-1.1,0-2.3,0-3.3c2,0.2,3.8,0.3,5.7,0.3c0,3.9,0,7.9,0,11.8c-0.8,0-1.7,0-2.4-0.2c0-0.8,0-1.4,0-2.1
					c-0.5,0.9-1.2,1.5-2.1,2c-1.1,0.3-2,0.3-3-0.3c-1.4-0.8-2.4-2.1-3.2-4.2c-0.8-2-1.2-4.4-1.2-6.9c0-2.7,0.3-5,1.2-6.9
					c0.8-2,1.8-3.2,3.2-3.6c1.2-0.5,2.4-0.5,3.5,0.3c1.4,0.8,2.3,2,3,3.6C85.3,108,85.6,109.3,85.8,110.7z"/>
				<path class="st71" d="M88.3,125.5c1.5-7.4,2.9-14.6,4.4-22c1.1,0,2.3,0,3.3,0c1.4,7.4,2.9,14.6,4.2,21.9c-1.1,0-2.1,0.2-3.2,0.2
					c-0.3-1.5-0.5-3.2-0.8-4.7c-1.4,0-2.6,0-3.9,0c-0.3,1.5-0.6,3.2-0.8,4.7C90.5,125.5,89.4,125.5,88.3,125.5z M93,117.5
					c0.9,0,1.8,0,2.7,0c-0.5-2.7-0.9-5.3-1.4-8C93.9,112,93.5,114.8,93,117.5z"/>
				<path class="st71" d="M101,117.9c0.9,0,1.8-0.2,2.9-0.2c0.2,1.2,0.3,2,0.6,2.6c0.3,0.5,0.8,0.8,1.4,0.9c0.6,0.3,1.2,0.2,1.8-0.3
					c0.8-0.5,1.1-1.2,1.2-2.3c0-1.4-0.5-2.3-1.5-2.7c-1.1-0.5-2.1-0.8-3.2-1.2c-1.4-0.5-2.1-1.5-2.6-3c-0.8-2.3-0.5-4.5,0.8-6.6
					c0.9-1.7,2.1-2.6,3.5-2.9c1.4-0.3,2.4,0.2,3.5,1.2c1.2,1.1,1.8,2.9,2,5.4c-0.9,0.2-1.8,0.2-2.7,0.3c-0.2-1.8-0.8-2.9-1.8-3.2
					c-0.6-0.2-1.2,0-1.8,0.5c-0.8,0.6-0.9,1.5-0.8,2.6c0,0.8,0.3,1.2,0.5,1.5c0.5,0.2,0.9,0.5,1.5,0.6c0.9,0.5,1.8,0.8,2.7,1.2
					c1.5,0.6,2.4,2.1,2.4,4.5c0.2,2.9-0.5,5.1-1.8,6.5c-1.5,1.5-3.2,2-5.3,1.4C102.4,124.3,101.3,121.9,101,117.9z"/>
			</g>
		</g>
		<path class="st71" d="M105.3,183.6c5.1-0.8,8.6-2,8.6-3.3c0-0.3,0-0.6,0-0.6v-0.2v-0.2V83.8c-1.2,1.1-4.4,2.3-8.6,3V183.6z"/>
	</g>
	<g>
		<g>
			<path class="st71" d="M157.6,82c0-1.8-9.4-3.3-20.8-3.3S116,80.2,116,82c0,0.2,0.2,0.3,0.3,0.5H116v97.2c0,0,0,0.5,0,0.8
				c0,2.3,9.4,4.1,20.8,4.1c11.5,0,20.8-1.8,20.8-4.1c0-0.3,0-0.8,0-0.8V82.4h-0.3C157.6,82.3,157.6,82.1,157.6,82z"/>
			<path class="st76" d="M157.6,179.4L157.6,179.4c0,0.2,0,0.6,0,0.9c0,2.3-9.4,4.1-20.8,4.1s-20.8-1.8-20.8-4.1c0-0.3,0-0.8,0-0.8
				v-0.2c-0.6,0.8-0.9,1.2-0.9,1.7c0,2.3,9.5,5,21.7,5c12.1,0,21.7-2.7,21.7-5C158.5,180.6,158.2,180,157.6,179.4z"/>
			<path class="st76" d="M157.6,82c0,1.8-9.4,4.4-20.8,4.4S116,84,116,82s9.4-3.3,20.8-3.3C148.4,78.5,157.6,80,157.6,82z"/>
			<path class="st83" d="M136.8,86.1c-7.9,0-14.9-1.1-20.8-2.7v33.4v21.1c5.7,1.7,13,3,20.8,3c7.9,0,14.9-1.4,20.8-3v-21.1V83.5
				C151.9,85.2,144.7,86.1,136.8,86.1z"/>
			<g>
				<path class="st70" d="M157.2,81.2L157.2,81.2c-0.2,0.2,0.2,0.5,0.2,0.6c0.2,2.3-9.1,4.1-20.4,4.1c-11.5,0-20.5-1.8-20.4-4.1
					c0-0.3,0.2-0.6,0.2-0.6v-0.2c-0.6,0.6-1.2,1.2-1.2,1.5c-0.2,2.3,9.2,5,21.4,5c12.1,0,21.6-2.9,21.4-5
					C158.2,82.3,157.8,82,157.2,81.2z"/>
				<g>
					<g>
						
							<linearGradient id="SVGID_10_" gradientUnits="userSpaceOnUse" x1="117.6548" y1="185.3274" x2="156.0569" y2="185.3274" gradientTransform="matrix(1 0 0 -1 0 265.8898)">
							<stop  offset="5.618000e-03" style="stop-color:#CACBCC"/>
							<stop  offset="0.2921" style="stop-color:#AAABAD"/>
							<stop  offset="0.6517" style="stop-color:#CECED0"/>
							<stop  offset="0.8652" style="stop-color:#AEAFB1"/>
							<stop  offset="1" style="stop-color:#B5B5B6"/>
							<stop  offset="1" style="stop-color:#D2D4D7"/>
						</linearGradient>
						<path class="st17" d="M155.1,79.9c-2-1.8-8.2-3.6-18.3-3.6s-16.3,0.9-18.3,3.6c0,0-1.1,0.9-1.1,1.4c0,2,8.6,3.6,19.2,3.6
							c10.6,0,19.2-1.7,19.2-3.6C156.1,80.8,155.1,79.9,155.1,79.9z"/>
						
							<linearGradient id="SVGID_11_" gradientUnits="userSpaceOnUse" x1="120.6204" y1="189.4792" x2="153.1294" y2="189.4792" gradientTransform="matrix(1 0 0 -1 0 265.8898)">
							<stop  offset="5.618000e-03" style="stop-color:#D1D1D2"/>
							<stop  offset="0.3596" style="stop-color:#9FA0A0"/>
							<stop  offset="0.5488" style="stop-color:#ACACAD"/>
							<stop  offset="0.6517" style="stop-color:#B5B5B6"/>
							<stop  offset="0.8652" style="stop-color:#B7B8B8"/>
							<stop  offset="1" style="stop-color:#B5B5B6"/>
							<stop  offset="1" style="stop-color:#DCDDDD"/>
						</linearGradient>
						<path class="st18" d="M153.1,79.1L153.1,79.1c0-0.2-3.5-5.9-3.5-5.9c-0.6-1.7-5.7-3-12.8-3s-11.6,1.1-12.8,3
							c0,0-3.5,5.7-3.5,5.9l0,0l0,0c0,0,0,0,0,0.2c0,1.8,7.2,3.3,16.3,3.3C145.9,82.4,153.1,80.9,153.1,79.1L153.1,79.1L153.1,79.1z
							"/>
						<path class="st11" d="M146.9,72.3c0,0.8-4.4,2-10.1,1.8c-5.6,0-10.1-1.1-10.1-1.8c0-0.9,4.4-0.2,10.1-0.2
							C142.5,72.2,146.9,71.6,146.9,72.3z"/>
					</g>
					<path class="st70" d="M147.2,70.5c0-0.9-4.5-1.5-10.3-1.5s-10.3,0.8-10.3,1.5c0,0.2,0,0.8,0,0.9c0,0.9,4.5,1.5,10.3,1.5
						s10.3-0.8,10.3-1.5C147.2,71.1,147.2,70.7,147.2,70.5z"/>
					<g>
						<path class="st83" d="M145.1,69.6c0-0.2-0.2-0.2-0.3-0.3v-10c0-0.5-3.5-0.9-7.9-0.9c-4.4,0-7.9,0.5-7.9,0.9v10
							c-0.3,0.2-0.5,0.2-0.5,0.3c0,0,0,0.3,0,0.5c0,0.5,3.6,0.9,8.2,0.9c4.5,0,8.2-0.5,8.2-0.9C145.1,69.9,145.1,69.6,145.1,69.6z"
							/>
						<g>
							<g>
								<path class="st73" d="M137.1,70.5c-0.2,0-0.3,0-0.5,0c0-3.2,0-6.3,0-9.5c0.2,0,0.3,0,0.5,0
									C137.1,64.3,137.1,67.5,137.1,70.5z"/>
								<path class="st73" d="M136.1,70.5c-0.2,0-0.3,0-0.5,0c0-3.2,0-6.3,0-9.5c0.2,0,0.3,0,0.5,0
									C136.1,64.2,136.1,67.4,136.1,70.5z"/>
								<path class="st73" d="M134.8,70.4c-0.2,0-0.3,0-0.5,0c0-3.2,0-6.3,0-9.5c0.2,0,0.3,0,0.5,0
									C134.8,64.2,134.8,67.2,134.8,70.4z"/>
								<path class="st73" d="M133.8,70.4c-0.2,0-0.3,0-0.5,0c0-3.2,0-6.3,0-9.5c0.2,0,0.3,0,0.5,0C133.8,64,133.8,67.2,133.8,70.4z
									"/>
								<path class="st73" d="M132.7,70.2c-0.2,0-0.3,0-0.5,0c0-3.2,0-6.3,0-9.5c0.2,0,0.3,0,0.5,0
									C132.7,63.9,132.7,67.1,132.7,70.2z"/>
								<path class="st73" d="M131.5,70.1c-0.2,0-0.3,0-0.5,0c0-3.2,0-6.3,0-9.5c0.2,0,0.3,0,0.5,0
									C131.5,63.7,131.5,66.9,131.5,70.1z"/>
								<path class="st73" d="M130.5,69.9c-0.2,0-0.3,0-0.5,0c0-3.2,0-6.3,0-9.5c0.2,0,0.3,0,0.5,0
									C130.5,63.6,130.5,66.7,130.5,69.9z"/>
							</g>
							<g>
								<path class="st73" d="M137.7,70.5c0.2,0,0.3,0,0.5,0c0-3.2,0-6.3,0-9.5c-0.2,0-0.3,0-0.5,0
									C137.7,64.3,137.7,67.4,137.7,70.5z"/>
								<path class="st73" d="M138.9,70.5c0.2,0,0.3,0,0.5,0c0-3.2,0-6.3,0-9.5c-0.2,0-0.3,0-0.5,0
									C138.9,64.2,138.9,67.4,138.9,70.5z"/>
								<path class="st73" d="M140,70.4c0.2,0,0.3,0,0.5,0c0-3.2,0-6.3,0-9.5c-0.2,0-0.3,0-0.5,0C140,64,140,67.2,140,70.4z"/>
								<path class="st73" d="M141,70.4c0.2,0,0.3,0,0.5,0c0-3.2,0-6.3,0-9.5c-0.2,0-0.3,0-0.5,0C141,64,141,67.2,141,70.4z"/>
								<path class="st73" d="M142.2,70.2c0.2,0,0.3,0,0.5,0c0-3.2,0-6.3,0-9.5c-0.2,0-0.3,0-0.5,0
									C142.2,63.9,142.2,67.1,142.2,70.2z"/>
								<path class="st73" d="M143.3,70.1c0.2,0,0.3,0,0.5,0c0-3.2,0-6.3,0-9.5c-0.2,0-0.3,0-0.5,0
									C143.3,63.7,143.3,66.9,143.3,70.1z"/>
							</g>
						</g>
						<path class="st2" d="M144.8,59.5c0,0.5-3.5,0.9-7.9,0.9c-4.4,0-7.9-0.5-7.9-0.9c0-0.5,3.5-0.9,7.9-0.9
							C141.2,58.6,144.8,58.9,144.8,59.5z"/>
					</g>
					<path class="st73" d="M136.8,71.9c-5.6,0-10-0.6-10.3-1.5l0,0c0,0.2,0,0.8,0,0.9c0,0.9,4.5,1.5,10.3,1.5
						c5.7,0,10.3-0.8,10.3-1.5c0-0.2,0-0.8,0-0.9l0,0C146.9,71.3,142.4,71.9,136.8,71.9z"/>
				</g>
			</g>
			<g>
				<path class="st71" d="M129.7,110.7c-0.9,0-1.8-0.2-2.7-0.2c-0.3-1.8-0.9-3-1.8-3.6s-1.8-0.6-2.6,0.3c-1.5,1.7-2.1,4.5-1.7,8.8
					c0.2,1.8,0.6,3.2,1.2,4.1c0.6,1.1,1.2,1.5,2,1.5c0.6,0,1.2-0.3,1.8-1.2c0.6-0.8,1.1-2,1.2-3.5c-0.9,0-1.8-0.2-2.9-0.2
					c0-1.1,0-2.3,0-3.3c2,0.2,3.8,0.3,5.7,0.3c0,3.9,0,7.9,0,11.8c-0.8,0-1.7,0-2.4-0.2c0-0.8,0-1.4,0-2.1c-0.5,0.9-1.2,1.5-2.1,2
					c-1.1,0.3-2,0.3-3-0.3c-1.4-0.8-2.4-2.1-3.2-4.2c-0.8-2-1.2-4.4-1.2-6.9c0-2.7,0.5-5,1.2-6.9c0.8-2,1.8-3.2,3.2-3.6
					c1.2-0.5,2.4-0.5,3.5,0.3c1.4,0.8,2.3,2,3,3.6C129.4,108,129.7,109.3,129.7,110.7z"/>
				<path class="st71" d="M132.3,125.5c1.5-7.4,2.9-14.6,4.4-22c1.1,0,2.3,0,3.3,0c1.4,7.4,2.9,14.6,4.2,21.9
					c-1.1,0-2.1,0.2-3.2,0.2c-0.3-1.5-0.5-3.2-0.8-4.7c-1.4,0-2.6,0-3.9,0c-0.3,1.5-0.6,3.2-0.8,4.7
					C134.5,125.5,133.5,125.5,132.3,125.5z M137,117.5c0.9,0,1.8,0,2.7,0c-0.5-2.7-0.9-5.3-1.4-8C137.9,112,137.4,114.8,137,117.5z"
					/>
				<path class="st71" d="M145.1,117.9c0.9,0,1.8-0.2,2.9-0.2c0.2,1.2,0.3,2,0.6,2.6c0.3,0.5,0.8,0.8,1.4,0.9
					c0.6,0.3,1.2,0.2,1.8-0.3c0.8-0.5,1.1-1.2,1.2-2.3c0-1.4-0.5-2.3-1.5-2.7s-2.1-0.8-3.2-1.2c-1.4-0.5-2.1-1.5-2.6-3
					c-0.8-2.3-0.5-4.5,0.8-6.6c0.9-1.7,2.1-2.6,3.5-2.9c1.4-0.3,2.4,0.2,3.5,1.2c1.2,1.1,1.8,2.9,2,5.4c-0.9,0.2-1.8,0.2-2.7,0.3
					c-0.2-1.8-0.8-2.9-1.8-3.2c-0.6-0.2-1.2,0-1.8,0.5c-0.8,0.6-0.9,1.5-0.8,2.6c0,0.8,0.3,1.2,0.5,1.5c0.5,0.2,0.9,0.5,1.5,0.6
					c0.9,0.5,1.8,0.8,2.7,1.2c1.5,0.6,2.4,2.1,2.4,4.5c0.2,2.9-0.5,5.1-1.8,6.5c-1.5,1.5-3.2,2-5.3,1.4
					C146.5,124.3,145.3,121.9,145.1,117.9z"/>
			</g>
		</g>
		<path class="st71" d="M149.2,183.6c5.1-0.8,8.6-2,8.6-3.3c0-0.3,0-0.6,0-0.6v-0.2v-0.2V83.8c-1.2,1.1-4.4,2.3-8.6,3V183.6z"/>
	</g>
	<g>
		<g>
			<path class="st71" d="M137.1,103.1c0-1.8-9.4-3.3-20.8-3.3s-20.8,1.5-20.8,3.3c0,0.2,0.2,0.3,0.3,0.5h-0.3v97.2c0,0,0,0.5,0,0.8
				c0,2.3,9.4,4.1,20.8,4.1s20.8-1.8,20.8-4.1c0-0.3,0-0.8,0-0.8v-97.2h-0.3C137,103.4,137.1,103.3,137.1,103.1z"/>
			<path class="st76" d="M137.1,200.5L137.1,200.5c0,0.2,0,0.6,0,0.9c0,2.3-9.4,4.1-20.8,4.1s-20.8-1.8-20.8-4.1c0-0.3,0-0.8,0-0.8
				v-0.2c-0.6,0.8-0.9,1.2-0.9,1.7c0,2.3,9.5,5,21.7,5c12.1,0,21.7-2.7,21.7-5C138,201.7,137.7,201.3,137.1,200.5z"/>
			<path class="st76" d="M137.1,103.1c0,1.8-9.4,4.4-20.8,4.4c-11.5-0.2-20.8-2.6-20.8-4.4c0-1.8,9.4-3.3,20.8-3.3
				C127.7,99.7,137.1,101.2,137.1,103.1z"/>
			<path class="st83" d="M116.3,107.2c-7.9,0-14.9-1.1-20.8-2.7v33.4V159c5.7,1.7,13,3,20.8,3s14.9-1.4,20.8-3v-21.1v-33.2
				C131.4,106.3,124.1,107.2,116.3,107.2z"/>
			<g>
				<path class="st70" d="M136.7,102.4L136.7,102.4c-0.2,0.2,0.2,0.5,0.2,0.6c0.2,2.3-9.1,4.1-20.4,4.1c-11.5,0-20.5-1.8-20.4-4.1
					c0-0.3,0.2-0.6,0.2-0.6v-0.2c-0.6,0.6-1.2,1.2-1.2,1.5c-0.2,2.3,9.2,5,21.4,5c12.1,0,21.6-2.9,21.4-5
					C137.7,103.4,137.3,103.1,136.7,102.4z"/>
				<g>
					<g>
						
							<linearGradient id="SVGID_12_" gradientUnits="userSpaceOnUse" x1="97.0739" y1="164.1908" x2="135.5132" y2="164.1908" gradientTransform="matrix(1 0 0 -1 0 265.8898)">
							<stop  offset="5.618000e-03" style="stop-color:#CACBCC"/>
							<stop  offset="0.2921" style="stop-color:#AAABAD"/>
							<stop  offset="0.6517" style="stop-color:#CECED0"/>
							<stop  offset="0.8652" style="stop-color:#AEAFB1"/>
							<stop  offset="1" style="stop-color:#B5B5B6"/>
							<stop  offset="1" style="stop-color:#D2D4D7"/>
						</linearGradient>
						<path class="st19" d="M134.5,101c-2-1.8-8.2-3.6-18.3-3.6S100,98.3,98,101c0,0-1.1,0.9-1.1,1.4c0,2,8.6,3.6,19.2,3.6
							s19.2-1.7,19.2-3.6C135.4,101.9,134.5,101,134.5,101z"/>
						
							<linearGradient id="SVGID_13_" gradientUnits="userSpaceOnUse" x1="100.0397" y1="168.4181" x2="132.5491" y2="168.4181" gradientTransform="matrix(1 0 0 -1 0 265.8898)">
							<stop  offset="5.618000e-03" style="stop-color:#D1D1D2"/>
							<stop  offset="0.3596" style="stop-color:#9FA0A0"/>
							<stop  offset="0.5488" style="stop-color:#ACACAD"/>
							<stop  offset="0.6517" style="stop-color:#B5B5B6"/>
							<stop  offset="0.8652" style="stop-color:#B7B8B8"/>
							<stop  offset="1" style="stop-color:#B5B5B6"/>
							<stop  offset="1" style="stop-color:#DCDDDD"/>
						</linearGradient>
						<path class="st20" d="M132.6,100.3L132.6,100.3c0-0.2-3.5-5.9-3.5-5.9c-0.6-1.7-5.7-3-12.8-3c-7.1,0-11.6,1.1-12.8,3
							c0,0-3.5,5.7-3.5,5.9l0,0l0,0l0,0c0,1.8,7.2,3.3,16.3,3.3S132.6,102.1,132.6,100.3L132.6,100.3L132.6,100.3z"/>
						<path class="st11" d="M126.4,93.5c0,0.8-4.4,2-10.1,1.8c-5.6,0-10.1-1.1-10.1-1.8c0-0.9,4.4-0.2,10.1-0.2
							C121.9,93.3,126.4,92.7,126.4,93.5z"/>
					</g>
					<path class="st70" d="M126.5,91.7c0-0.9-4.5-1.5-10.3-1.5c-5.7,0-10.3,0.8-10.3,1.5c0,0.2,0,0.8,0,0.9c0,0.9,4.5,1.5,10.3,1.5
						c5.7,0,10.3-0.8,10.3-1.5C126.5,92.4,126.5,91.8,126.5,91.7z"/>
					<g>
						<path class="st83" d="M124.6,90.8c0-0.2-0.2-0.2-0.3-0.3v-10c0-0.5-3.5-0.9-7.9-0.9c-4.4,0-7.9,0.5-7.9,0.9v10
							c-0.2,0.2-0.3,0.2-0.3,0.3c0,0,0,0.3,0,0.5c0,0.5,3.6,0.9,8.2,0.9c4.5,0,8.2-0.5,8.2-0.9C124.6,91.1,124.6,90.8,124.6,90.8z"
							/>
						<g>
							<g>
								<path class="st73" d="M116.6,91.8c-0.2,0-0.3,0-0.5,0c0-3.2,0-6.3,0-9.5c0.2,0,0.3,0,0.5,0
									C116.6,85.5,116.6,88.6,116.6,91.8z"/>
								<path class="st73" d="M115.4,91.7c-0.2,0-0.3,0-0.5,0c0-3.2,0-6.3,0-9.5c0.2,0,0.3,0,0.5,0
									C115.4,85.3,115.4,88.5,115.4,91.7z"/>
								<path class="st73" d="M114.3,91.7c-0.2,0-0.3,0-0.5,0c0-3.2,0-6.3,0-9.5c0.2,0,0.3,0,0.5,0
									C114.3,85.3,114.3,88.5,114.3,91.7z"/>
								<path class="st73" d="M113.3,91.5c-0.2,0-0.3,0-0.5,0c0-3.2,0-6.3,0-9.5c0.2,0,0.3,0,0.5,0
									C113.3,85.2,113.3,88.3,113.3,91.5z"/>
								<path class="st73" d="M112,91.4c-0.2,0-0.3,0-0.5,0c0-3.2,0-6.3,0-9.5c0.2,0,0.3,0,0.5,0C112,85,112,88.2,112,91.4z"/>
								<path class="st73" d="M111,91.2c-0.2,0-0.3,0-0.5,0c0-3.2,0-6.3,0-9.5c0.2,0,0.3,0,0.5,0C111,84.9,111,88,111,91.2z"/>
								<path class="st73" d="M109.9,91.1c-0.2,0-0.3,0-0.5,0c0-3.2,0-6.3,0-9.5c0.2,0,0.3,0,0.5,0C109.9,84.9,109.9,88,109.9,91.1z
									"/>
							</g>
							<g>
								<path class="st73" d="M117.2,91.8c0.2,0,0.3,0,0.5,0c0-3.2,0-6.3,0-9.5c-0.2,0-0.3,0-0.5,0
									C117.2,85.5,117.2,88.6,117.2,91.8z"/>
								<path class="st73" d="M118.2,91.7c0.2,0,0.3,0,0.5,0c0-3.2,0-6.3,0-9.5c-0.2,0-0.3,0-0.5,0
									C118.2,85.3,118.2,88.5,118.2,91.7z"/>
								<path class="st73" d="M119.4,91.5c0.2,0,0.3,0,0.5,0c0-3.2,0-6.3,0-9.5c-0.2,0-0.3,0-0.5,0
									C119.4,85.2,119.4,88.3,119.4,91.5z"/>
								<path class="st73" d="M120.5,91.5c0.2,0,0.3,0,0.5,0c0-3.2,0-6.3,0-9.5c-0.2,0-0.3,0-0.5,0
									C120.5,85.2,120.5,88.3,120.5,91.5z"/>
								<path class="st73" d="M121.6,91.4c0.2,0,0.3,0,0.5,0c0-3.2,0-6.3,0-9.5c-0.2,0-0.3,0-0.5,0C121.6,85,121.6,88.2,121.6,91.4z
									"/>
								<path class="st73" d="M122.8,91.2c0.2,0,0.3,0,0.5,0c0-3.2,0-6.3,0-9.5c-0.2,0-0.3,0-0.5,0C122.8,84.9,122.8,88,122.8,91.2z
									"/>
							</g>
						</g>
						<path class="st2" d="M124.1,80.6c0,0.5-3.5,0.9-7.9,0.9c-4.4,0-7.9-0.5-7.9-0.9s3.5-0.9,7.9-0.9S124.1,80,124.1,80.6z"/>
					</g>
					<path class="st73" d="M116.3,93c-5.6,0-10-0.6-10.3-1.5l0,0c0,0.2,0,0.8,0,0.9c0,0.9,4.5,1.5,10.3,1.5s10.3-0.8,10.3-1.5
						c0-0.2,0-0.8,0-0.9l0,0C126.2,92.4,121.9,93,116.3,93z"/>
				</g>
			</g>
			<g>
				<path class="st71" d="M109.2,131.8c-0.9,0-1.8-0.2-2.7-0.2c-0.3-1.8-0.9-3-1.8-3.6c-0.9-0.6-1.8-0.6-2.6,0.3
					c-1.5,1.7-2.1,4.5-1.7,8.8c0.2,1.8,0.6,3.2,1.2,4.1c0.6,1.1,1.2,1.5,2,1.5c0.6,0,1.2-0.3,1.8-1.2c0.6-0.8,1.1-2,1.2-3.5
					c-0.9,0-1.8-0.2-2.9-0.2c0-1.1,0-2.3,0-3.3c2,0.2,3.8,0.3,5.7,0.3c0,3.9,0,7.9,0,11.8c-0.8,0-1.7,0-2.4-0.2c0-0.8,0-1.4,0-2.1
					c-0.5,0.9-1.2,1.5-2.1,2c-1.1,0.3-2,0.3-3-0.3c-1.4-0.8-2.4-2.3-3.2-4.2c-0.8-2-1.2-4.4-1.2-6.9c0-2.7,0.5-5,1.2-6.9
					c0.8-2,1.8-3.2,3.2-3.6c1.2-0.5,2.4-0.5,3.5,0.3c1.4,0.8,2.3,2,3,3.6C108.7,129.3,109,130.5,109.2,131.8z"/>
				<path class="st71" d="M111.7,146.6c1.5-7.4,2.9-14.6,4.4-22c1.1,0,2.3,0,3.3,0c1.4,7.4,2.9,14.6,4.2,21.9
					c-1.1,0.2-2.1,0.2-3.2,0.2c-0.3-1.5-0.5-3.2-0.8-4.7c-1.4,0-2.6,0-3.9,0c-0.3,1.5-0.6,3.2-0.8,4.7
					C113.9,146.6,112.8,146.6,111.7,146.6z M116.4,138.6c0.9,0,1.8,0,2.7,0c-0.5-2.7-0.9-5.3-1.4-8
					C117.3,133.3,116.9,135.9,116.4,138.6z"/>
				<path class="st71" d="M124.6,139.1c0.9,0,1.8-0.2,2.9-0.2c0.2,1.2,0.3,2,0.6,2.6c0.3,0.5,0.8,0.8,1.4,0.9
					c0.6,0.3,1.2,0.2,1.8-0.3c0.8-0.5,1.1-1.2,1.2-2.3c0-1.4-0.5-2.3-1.5-2.7c-1.1-0.5-2.1-0.8-3.2-1.2c-1.4-0.5-2.1-1.5-2.6-3
					c-0.8-2.3-0.5-4.5,0.8-6.6c0.9-1.7,2.1-2.6,3.5-2.9c1.4-0.3,2.4,0.2,3.5,1.2c1.2,1.1,1.8,2.9,2,5.4c-0.9,0.2-1.8,0.2-2.7,0.3
					c-0.2-1.8-0.8-2.9-1.8-3.2c-0.6-0.2-1.2,0-1.8,0.5c-0.8,0.6-0.9,1.5-0.8,2.7c0,0.8,0.3,1.2,0.5,1.5c0.5,0.2,0.9,0.5,1.5,0.6
					c0.9,0.5,1.8,0.8,2.7,1.2c1.5,0.6,2.4,2.1,2.4,4.5c0.2,2.9-0.5,5.1-1.8,6.5c-1.5,1.5-3.2,2-5.3,1.4
					C125.9,145.4,124.7,143.1,124.6,139.1z"/>
			</g>
		</g>
		<path class="st71" d="M128.7,204.7c5.1-0.8,8.6-2,8.6-3.3c0-0.3,0-0.6,0-0.6v-0.2v-0.2v-95.6c-1.2,1.1-4.4,2.3-8.6,3V204.7z"/>
	</g>
</g>
</svg>
