<?xml version="1.0" encoding="utf-8"?>
<!-- Generator: Adobe Illustrator 24.0.1, SVG Export Plug-In . SVG Version: 6.00 Build 0)  -->
<svg version="1.1" id="レイヤー_1" xmlns="http://www.w3.org/2000/svg" xmlns:xlink="http://www.w3.org/1999/xlink" x="0px"
	 y="0px" viewBox="0 0 553 265.4" style="enable-background:new 0 0 553 265.4;" xml:space="preserve">
<style type="text/css">
	.st0{fill:none;}
	.st1{fill:#FEFCEE;}
	.st2{fill:#BABABA;}
	.st3{fill:#FFFFFF;}
	.st4{fill:none;stroke:#6B1319;stroke-width:0.3593;stroke-miterlimit:10;}
	.st5{fill:#F4F4F5;}
	.st6{fill:#F9F5D2;}
	.st7{enable-background:new    ;}
	.st8{fill:#040000;}
	.st9{fill:#E6E6E5;}
	.st10{fill:#CFE7F2;}
	.st11{fill:#3794C4;}
	.st12{fill:#727171;}
	.st13{fill:#F7F9FA;}
	.st14{fill:#48A6CE;}
	.st15{fill:url(#SVGID_10_);}
	.st16{fill:none;stroke:#221714;stroke-width:0.1875;}
	.st17{fill:url(#SVGID_11_);}
	.st18{fill:url(#SVGID_12_);}
	.st19{fill:url(#SVGID_13_);}
	.st20{fill:url(#SVGID_14_);}
	.st21{fill:url(#SVGID_15_);}
	.st22{fill:url(#SVGID_16_);}
	.st23{fill:url(#SVGID_17_);}
	.st24{fill:url(#SVGID_18_);}
	.st25{fill:url(#SVGID_19_);}
	.st26{fill:url(#SVGID_20_);}
	.st27{fill:url(#SVGID_21_);}
	.st28{fill:url(#SVGID_22_);}
	.st29{fill:url(#SVGID_23_);}
	.st30{fill:url(#SVGID_24_);}
	.st31{fill:url(#SVGID_25_);}
	.st32{fill:url(#SVGID_26_);}
	.st33{fill:#F0EFEE;}
	.st34{fill:url(#SVGID_27_);}
	.st35{fill:url(#SVGID_28_);}
	.st36{fill:url(#SVGID_29_);}
	.st37{fill:url(#SVGID_30_);}
	.st38{fill:url(#SVGID_31_);}
	.st39{fill:url(#SVGID_32_);}
	.st40{fill:url(#SVGID_33_);}
	.st41{fill:url(#SVGID_34_);}
	.st42{fill:url(#SVGID_35_);}
	.st43{fill:url(#SVGID_36_);}
	.st44{fill:url(#SVGID_37_);}
	.st45{fill:url(#SVGID_38_);}
	.st46{fill:url(#SVGID_39_);}
	.st47{fill:url(#SVGID_41_);}
	.st48{fill:url(#SVGID_42_);}
	.st49{fill:url(#SVGID_43_);}
	.st50{fill:url(#SVGID_44_);}
	.st51{fill:url(#SVGID_45_);}
	.st52{fill:url(#SVGID_46_);}
	.st53{fill:url(#SVGID_47_);}
	.st54{fill:url(#SVGID_48_);}
	.st55{fill:url(#SVGID_49_);}
	.st56{fill:url(#SVGID_50_);}
	.st57{fill:url(#SVGID_51_);}
	.st58{fill:url(#SVGID_52_);}
	.st59{fill:url(#SVGID_53_);}
	.st60{fill:url(#SVGID_54_);}
	.st61{fill:url(#SVGID_55_);}
	.st62{fill:url(#SVGID_56_);}
	.st63{fill:url(#SVGID_57_);}
	.st64{fill:url(#SVGID_58_);}
	.st65{fill:url(#SVGID_59_);}
	.st66{fill:url(#SVGID_60_);}
	.st67{fill:url(#SVGID_61_);}
	.st68{fill:#3E3A39;}
	.st69{fill:#C6BA9A;}
	.st70{fill:#D6CCB5;}
	.st71{fill:#B5B5B6;}
	.st72{fill:#F0EFEF;}
	.st73{fill:#595857;}
	.st74{fill:#DCDDDD;}
	.st75{fill:#CCAC69;}
	.st76{fill:#C9CACA;}
	.st77{fill:#9FA0A0;}
	.st78{fill:#8A8A8A;}
	.st79{opacity:0.75;}
	.st80{fill:#B81C25;}
	.st81{fill:#DE551A;}
	.st82{fill:#E99413;}
	.st83{fill:#F7F9F9;}
	.st84{fill:#E83514;}
	.st85{fill:url(#SVGID_62_);}
	.st86{fill:url(#SVGID_63_);}
	.st87{fill:url(#SVGID_64_);}
	.st88{fill:url(#SVGID_65_);}
	.st89{fill:url(#SVGID_66_);}
	.st90{fill:url(#SVGID_67_);}
	.st91{stroke:#000000;stroke-width:3.0472;stroke-linecap:round;stroke-linejoin:round;stroke-miterlimit:10;}
	.st92{fill:url(#SVGID_68_);stroke:#000000;stroke-width:1.0157;stroke-linecap:round;stroke-linejoin:round;}
	.st93{fill:url(#SVGID_69_);stroke:#000000;stroke-width:1.0157;stroke-linecap:round;stroke-linejoin:round;}
	.st94{fill:url(#SVGID_70_);stroke:#000000;stroke-width:1.0157;stroke-linecap:round;stroke-linejoin:round;}
	.st95{opacity:0.4;fill:#FFFFFF;enable-background:new    ;}
	.st96{fill:#FFFEEE;}
	.st97{fill:none;stroke:#F7EFB8;stroke-width:0.5079;}
	.st98{fill:none;stroke:#F7EFB8;stroke-width:0.2539;stroke-miterlimit:10;}
	.st99{fill:none;stroke:#000000;stroke-width:0.2437;stroke-miterlimit:10;}
	.st100{fill:none;stroke:#000000;stroke-width:1.0157;stroke-linecap:round;stroke-linejoin:round;}
	.st101{fill-rule:evenodd;clip-rule:evenodd;}
	.st102{fill:none;stroke:#000000;stroke-width:0.5079;stroke-miterlimit:10;}
	.st103{fill-rule:evenodd;clip-rule:evenodd;fill:url(#SVGID_71_);}
	.st104{opacity:0.9;fill:#E60012;enable-background:new    ;}
	.st105{fill:#DCDBDA;}
	.st106{opacity:0.9;fill:#FFFFFF;enable-background:new    ;}
	.st107{opacity:0.3;fill:#FFFFFF;enable-background:new    ;}
	.st108{fill:#7E7977;}
	.st109{fill:#EEEAD0;}
	.st110{fill:#DDD9C2;}
	.st111{fill:#D3A243;}
	.st112{fill:none;stroke:#E5E3DA;stroke-width:0.5079;stroke-linecap:round;stroke-linejoin:round;}
	.st113{fill:#CDA774;}
	.st114{fill:#DDB887;}
	.st115{fill:#F3EBDF;}
	.st116{fill:#F8F0E4;}
	.st117{fill:#ECECEC;}
	.st118{fill:url(#SVGID_72_);}
	.st119{fill:url(#SVGID_73_);}
	.st120{fill:#E60012;}
	.st121{fill:#E5D32D;stroke:#A38A77;stroke-width:0.2737;stroke-miterlimit:10;}
	.st122{fill:#E3D172;stroke:#C79F62;stroke-width:0.2737;stroke-miterlimit:10;}
	.st123{fill:#E3D172;}
	.st124{fill:#EEEEEF;stroke:#C8C9CA;stroke-width:0.2052;stroke-miterlimit:10;}
	.st125{fill:#804F21;}
	.st126{fill:none;stroke:#A38A77;stroke-width:0.2737;stroke-miterlimit:10;}
	.st127{fill:none;stroke:#E5D32D;stroke-width:0.5473;stroke-miterlimit:10;}
	.st128{fill:#DBDCDC;stroke:#C4C7C4;stroke-width:0.2737;stroke-miterlimit:10;}
	.st129{fill:#EEEEEF;}
	.st130{fill:#E8E8DC;}
	.st131{fill:#E62C0F;}
	.st132{fill:#F7B52C;stroke:#DB9F09;stroke-width:0.2737;stroke-miterlimit:10;}
	.st133{fill:#44AF35;stroke:#448A3E;stroke-width:0.2737;stroke-miterlimit:10;}
	.st134{fill:#734C22;}
	.st135{fill:none;stroke:#FFFFFF;stroke-width:1.3684;}
	.st136{fill:#946134;}
	.st137{fill:#231815;}
	.st138{fill:#C79F62;stroke:#946134;stroke-width:4.194518e-02;}
	.st139{fill:none;stroke:#946134;stroke-width:4.194518e-02;}
	.st140{fill:#40210F;stroke:#946134;stroke-width:4.194518e-02;}
	.st141{fill:#FFFFFF;stroke:#6A3906;stroke-width:4.194518e-02;}
	.st142{fill:url(#SVGID_74_);}
	.st143{fill:url(#SVGID_76_);}
	.st144{fill:url(#SVGID_77_);}
	.st145{fill:none;stroke:#F0D958;stroke-width:1.0893;stroke-linecap:round;stroke-linejoin:round;stroke-miterlimit:10;}
	.st146{fill:none;stroke:#DD5F1A;stroke-width:1.6341;stroke-linecap:round;stroke-linejoin:round;stroke-miterlimit:10;}
	.st147{fill:#006934;}
	.st148{fill:#DBDCDC;}
	.st149{fill:#BEC2BF;stroke:#B2B4B1;stroke-width:0.2127;stroke-linecap:round;stroke-linejoin:round;}
	.st150{fill:none;stroke:#F0D958;stroke-width:0.8506;stroke-linecap:round;stroke-linejoin:round;stroke-miterlimit:10;}
	.st151{fill:none;stroke:#DD5F1A;stroke-width:1.2759;stroke-linecap:round;stroke-linejoin:round;stroke-miterlimit:10;}
	.st152{fill:none;stroke:#E60012;stroke-width:0.1532;stroke-miterlimit:10;}
	.st153{fill:none;stroke:#E60012;stroke-width:0.1532;stroke-miterlimit:10;stroke-dasharray:0.7747,0.7747;}
	.st154{fill:none;stroke:#000000;stroke-width:0.1532;stroke-miterlimit:10;}
	.st155{fill:none;stroke:#000000;stroke-width:1.0962;stroke-miterlimit:10;}
	.st156{fill:#C9A063;stroke:#000000;stroke-width:1.494;stroke-miterlimit:10;}
	.st157{fill:#008ABD;}
	.st158{fill:#5CB9D3;}
	.st159{fill:#BFC0C0;}
	.st160{fill:#FBF8EA;}
	.st161{fill:none;stroke:#000000;stroke-width:0.6647;}
	.st162{fill:#036EB8;}
	.st163{fill:#EA5514;}
	.st164{clip-path:url(#SVGID_78_);}
	.st165{fill:url(#SVGID_79_);}
	.st166{fill:url(#SVGID_80_);}
	.st167{fill:url(#SVGID_81_);}
	.st168{fill:url(#SVGID_82_);}
	.st169{fill:url(#SVGID_83_);}
	.st170{fill:url(#SVGID_84_);}
	.st171{fill:url(#SVGID_85_);}
	.st172{fill:url(#SVGID_86_);}
	.st173{fill:url(#SVGID_87_);}
	.st174{fill:url(#SVGID_88_);}
	.st175{fill:url(#SVGID_89_);}
	.st176{fill:url(#SVGID_90_);}
	.st177{fill:url(#SVGID_91_);}
	.st178{fill:url(#SVGID_92_);}
	.st179{fill:url(#SVGID_93_);}
	.st180{fill:url(#SVGID_94_);}
	.st181{fill:url(#SVGID_95_);}
	.st182{fill:url(#SVGID_96_);}
	.st183{fill:url(#SVGID_97_);}
	.st184{fill:url(#SVGID_98_);}
	.st185{fill:url(#SVGID_99_);}
	.st186{fill:url(#SVGID_100_);}
	.st187{fill:url(#SVGID_101_);}
	.st188{fill:url(#SVGID_102_);}
	.st189{fill:url(#SVGID_103_);}
	.st190{fill:url(#SVGID_104_);}
	.st191{fill:url(#SVGID_105_);}
	.st192{fill:url(#SVGID_106_);}
	.st193{fill:url(#SVGID_107_);}
	.st194{fill:url(#SVGID_108_);}
	.st195{fill:url(#SVGID_109_);}
	.st196{fill:url(#SVGID_110_);}
	.st197{fill:url(#SVGID_111_);}
	.st198{fill:url(#SVGID_113_);}
	.st199{fill:url(#SVGID_115_);}
	.st200{clip-path:url(#SVGID_116_);}
	.st201{fill:#B28247;}
	.st202{fill:#FFF100;}
	.st203{fill:#8FC31F;}
	.st204{fill:#EAE5E3;}
	.st205{fill:#BEB1AA;}
	.st206{clip-path:url(#SVGID_117_);}
	.st207{fill:url(#SVGID_118_);}
	.st208{fill:url(#SVGID_119_);}
	.st209{fill:url(#SVGID_120_);}
	.st210{fill:url(#SVGID_121_);}
	.st211{fill:url(#SVGID_122_);}
	.st212{fill:url(#SVGID_123_);}
	.st213{fill:url(#SVGID_124_);}
	.st214{fill:url(#SVGID_125_);}
	.st215{fill:url(#SVGID_126_);}
	.st216{fill:url(#SVGID_127_);}
	.st217{fill:url(#SVGID_128_);}
	.st218{fill:url(#SVGID_129_);}
	.st219{fill:url(#SVGID_130_);}
	.st220{fill:url(#SVGID_131_);}
	.st221{fill:url(#SVGID_133_);}
	.st222{fill:url(#SVGID_136_);}
	.st223{fill:#FFF9E8;}
	.st224{opacity:0.5;fill:url(#SVGID_137_);enable-background:new    ;}
	.st225{clip-path:url(#SVGID_140_);}
	.st226{clip-path:url(#SVGID_143_);}
	.st227{fill:#FCE1B9;}
	.st228{fill:#DFCD8C;}
	.st229{fill:#EADDB0;}
	.st230{fill:#6C1317;}
	.st231{fill:#5C070C;}
	.st232{fill:#8A4000;}
	.st233{fill:#9C0109;}
	.st234{fill:#8A0001;}
	.st235{fill:url(#SVGID_144_);}
	.st236{opacity:0.5;fill:url(#SVGID_145_);enable-background:new    ;}
	.st237{clip-path:url(#SVGID_149_);}
	.st238{clip-path:url(#SVGID_151_);}
	.st239{fill:#9C0109;stroke:#FFFFFF;stroke-width:0.8745;stroke-miterlimit:10;}
	.st240{fill:url(#SVGID_153_);}
	.st241{fill:#CF1126;}
	.st242{fill:#F4F3F1;}
	.st243{fill:#C30D23;}
	.st244{fill:#CCCCCC;}
	.st245{clip-path:url(#SVGID_154_);}
	.st246{fill:#C8C9CA;}
	.st247{clip-path:url(#SVGID_155_);}
	.st248{fill:#803220;}
	.st249{fill:#EEAA3D;}
	.st250{fill:#E29223;}
	.st251{fill:#944024;}
	.st252{fill:#B15022;}
	.st253{fill:#D18215;}
	.st254{fill:#FAED00;}
	.st255{fill:#1EAA39;}
	.st256{fill:#169530;}
	.st257{fill:none;stroke:#FFFFFF;stroke-miterlimit:10;}
	.st258{clip-path:url(#SVGID_156_);}
	.st259{clip-path:url(#SVGID_157_);}
	.st260{fill:#FCD006;}
	.st261{fill:#604C3F;}
	.st262{fill:#C79F62;}
	.st263{fill:#FDEABE;}
	.st264{fill:#E95504;}
	.st265{fill:#C11920;}
	.st266{fill:url(#SVGID_158_);}
	.st267{fill:url(#SVGID_159_);}
	.st268{fill:#5D8AA2;}
	.st269{fill:#267EAF;}
	.st270{fill:none;stroke:#D9B556;stroke-width:0.6193;stroke-miterlimit:10;}
	.st271{fill:#D9B556;}
	.st272{fill:#0E2F8F;}
	.st273{fill:url(#SVGID_161_);}
	.st274{fill:url(#SVGID_162_);}
	.st275{fill:url(#SVGID_164_);}
	.st276{fill:#755F43;}
	.st277{fill:#CD6829;}
	.st278{fill:#E08030;}
	.st279{fill:#F7F8F8;}
	.st280{fill:#E9E5E2;}
	.st281{fill:#9E9E9F;}
	.st282{fill:url(#SVGID_166_);}
	.st283{clip-path:url(#SVGID_168_);fill:#FBD6A0;}
	.st284{fill:#D1A26C;}
	.st285{fill:#FDEBD1;}
	.st286{fill:url(#SVGID_169_);}
	.st287{fill:#888888;}
	.st288{fill:#B4B4B5;}
	.st289{fill:#E6BE98;}
	.st290{fill:#BAE2F8;}
	.st291{fill:#182987;}
	.st292{fill:#3071B7;}
	.st293{clip-path:url(#SVGID_170_);fill:#F7B52C;}
	.st294{fill:#F7F9F9;stroke:#727171;stroke-width:0.1726;stroke-miterlimit:10;}
	.st295{fill:#C39717;}
	.st296{fill:#CC172C;}
	.st297{fill:#E73828;}
	.st298{fill:#F7B52C;}
	.st299{clip-path:url(#SVGID_171_);}
	.st300{fill:#D2A143;}
	.st301{fill:#B48626;}
	.st302{fill:#9C751E;}
	.st303{fill:#8DC21F;}
	.st304{fill:#00913A;}
	.st305{fill:#E95513;}
	.st306{clip-path:url(#SVGID_172_);}
	.st307{fill:#BDA661;}
	.st308{fill:#C9B168;}
	.st309{fill:url(#SVGID_173_);}
	.st310{fill:url(#SVGID_174_);}
	.st311{fill:url(#SVGID_175_);}
	.st312{fill:url(#SVGID_176_);}
	.st313{fill:url(#SVGID_177_);}
	.st314{fill:url(#SVGID_178_);}
	.st315{fill:url(#SVGID_179_);}
	.st316{fill:url(#SVGID_180_);}
	.st317{fill:url(#SVGID_181_);}
	.st318{fill:url(#SVGID_182_);}
	.st319{fill:url(#SVGID_183_);}
	.st320{fill:url(#SVGID_184_);}
	.st321{fill:url(#SVGID_185_);}
	.st322{fill:url(#SVGID_186_);}
	.st323{fill:url(#SVGID_187_);}
	.st324{fill:url(#SVGID_188_);}
	.st325{fill:url(#SVGID_189_);}
	.st326{fill:url(#SVGID_190_);}
	.st327{fill:url(#SVGID_191_);}
	.st328{fill:url(#SVGID_192_);}
	.st329{fill:url(#SVGID_193_);}
	.st330{fill:url(#SVGID_194_);}
	.st331{fill:url(#SVGID_195_);}
	.st332{fill:url(#SVGID_196_);}
	.st333{fill:url(#SVGID_197_);}
	.st334{fill:url(#SVGID_198_);}
	.st335{fill:url(#SVGID_199_);}
	.st336{fill:url(#SVGID_200_);}
	.st337{fill:url(#SVGID_201_);}
	.st338{fill:url(#SVGID_202_);}
	.st339{fill:url(#SVGID_203_);}
	.st340{fill:url(#SVGID_204_);}
	.st341{fill:url(#SVGID_205_);}
	.st342{fill:url(#SVGID_206_);}
	.st343{fill:url(#SVGID_207_);}
	.st344{fill:url(#SVGID_208_);}
	.st345{fill:url(#SVGID_209_);}
	.st346{fill:url(#SVGID_210_);}
	.st347{fill:url(#SVGID_211_);}
	.st348{fill:url(#SVGID_212_);}
	.st349{fill:url(#SVGID_213_);}
	.st350{fill:url(#SVGID_214_);}
	.st351{fill:url(#SVGID_215_);}
	.st352{fill:url(#SVGID_216_);}
	.st353{fill:url(#SVGID_217_);}
	.st354{fill:url(#SVGID_218_);}
	.st355{fill:url(#SVGID_219_);}
	.st356{fill:url(#SVGID_220_);}
	.st357{fill:url(#SVGID_221_);}
	.st358{fill:url(#SVGID_222_);}
	.st359{fill:url(#SVGID_223_);}
	.st360{fill:url(#SVGID_224_);}
	.st361{fill:url(#SVGID_225_);}
	.st362{fill:url(#SVGID_226_);}
	.st363{fill:url(#SVGID_227_);}
	.st364{fill:url(#SVGID_228_);}
	.st365{fill:url(#SVGID_229_);}
	.st366{fill:url(#SVGID_230_);stroke:#000000;stroke-width:1.0157;stroke-linecap:round;stroke-linejoin:round;}
	.st367{fill:url(#SVGID_231_);stroke:#000000;stroke-width:1.0157;stroke-linecap:round;stroke-linejoin:round;}
	.st368{fill:url(#SVGID_232_);stroke:#000000;stroke-width:1.0157;stroke-linecap:round;stroke-linejoin:round;}
	.st369{fill-rule:evenodd;clip-rule:evenodd;fill:url(#SVGID_233_);}
	.st370{fill:url(#SVGID_234_);}
	.st371{fill:url(#SVGID_236_);}
	.st372{fill:url(#SVGID_237_);}
	.st373{fill:url(#SVGID_238_);}
	.st374{fill:url(#SVGID_239_);}
	.st375{clip-path:url(#SVGID_240_);}
	.st376{fill:url(#SVGID_241_);}
	.st377{fill:url(#SVGID_242_);}
	.st378{fill:url(#SVGID_243_);}
	.st379{fill:url(#SVGID_244_);}
	.st380{fill:url(#SVGID_245_);}
	.st381{fill:url(#SVGID_246_);}
	.st382{fill:url(#SVGID_247_);}
	.st383{fill:url(#SVGID_248_);}
	.st384{fill:url(#SVGID_249_);}
	.st385{fill:url(#SVGID_250_);}
	.st386{fill:url(#SVGID_251_);}
	.st387{fill:url(#SVGID_252_);}
	.st388{fill:url(#SVGID_253_);}
	.st389{fill:url(#SVGID_254_);}
	.st390{fill:url(#SVGID_255_);}
	.st391{fill:url(#SVGID_256_);}
	.st392{fill:url(#SVGID_257_);}
	.st393{fill:url(#SVGID_258_);}
	.st394{fill:url(#SVGID_259_);}
	.st395{fill:url(#SVGID_260_);}
	.st396{fill:url(#SVGID_261_);}
	.st397{fill:url(#SVGID_262_);}
	.st398{fill:url(#SVGID_263_);}
	.st399{fill:url(#SVGID_264_);}
	.st400{fill:url(#SVGID_265_);}
	.st401{fill:url(#SVGID_266_);}
	.st402{fill:url(#SVGID_267_);}
	.st403{fill:url(#SVGID_268_);}
	.st404{fill:url(#SVGID_269_);}
	.st405{fill:url(#SVGID_270_);}
	.st406{fill:url(#SVGID_271_);}
	.st407{fill:url(#SVGID_273_);}
	.st408{fill:url(#SVGID_275_);}
	.st409{fill:url(#SVGID_276_);}
	.st410{fill:url(#SVGID_277_);}
	.st411{clip-path:url(#SVGID_278_);}
	.st412{clip-path:url(#SVGID_279_);}
	.st413{fill:url(#SVGID_280_);}
	.st414{fill:url(#SVGID_281_);}
	.st415{fill:url(#SVGID_282_);}
	.st416{fill:url(#SVGID_283_);}
	.st417{fill:url(#SVGID_284_);}
	.st418{fill:url(#SVGID_285_);}
	.st419{fill:url(#SVGID_286_);}
	.st420{fill:url(#SVGID_287_);}
	.st421{fill:url(#SVGID_288_);}
	.st422{fill:url(#SVGID_289_);}
	.st423{fill:url(#SVGID_290_);}
	.st424{fill:url(#SVGID_291_);}
	.st425{fill:url(#SVGID_293_);}
	.st426{fill:url(#SVGID_296_);}
	.st427{fill:url(#SVGID_297_);}
	.st428{fill:url(#SVGID_298_);}
	.st429{opacity:0.5;fill:url(#SVGID_300_);enable-background:new    ;}
	.st430{clip-path:url(#SVGID_304_);}
	.st431{clip-path:url(#SVGID_305_);}
	.st432{fill:url(#SVGID_307_);}
	.st433{opacity:0.5;fill:url(#SVGID_309_);enable-background:new    ;}
	.st434{clip-path:url(#SVGID_313_);}
	.st435{clip-path:url(#SVGID_314_);}
	.st436{fill:url(#SVGID_315_);}
	.st437{clip-path:url(#SVGID_316_);}
	.st438{clip-path:url(#SVGID_317_);}
	.st439{clip-path:url(#SVGID_318_);}
	.st440{clip-path:url(#SVGID_319_);}
	.st441{fill:url(#SVGID_321_);}
	.st442{fill:url(#SVGID_322_);}
	.st443{fill:url(#SVGID_324_);}
	.st444{fill:url(#SVGID_326_);}
	.st445{fill:url(#SVGID_328_);}
	.st446{fill:url(#SVGID_329_);}
	.st447{clip-path:url(#SVGID_330_);fill:#FBD6A0;}
	.st448{fill:url(#SVGID_331_);}
	.st449{clip-path:url(#SVGID_332_);fill:#F7B52C;}
	.st450{clip-path:url(#SVGID_333_);}
	.st451{clip-path:url(#SVGID_334_);}
</style>
<pattern  x="-634.4" y="-824.3" width="141.7" height="141.7" patternUnits="userSpaceOnUse" id="SVGID_8_" viewBox="0 -141.7 141.7 141.7" style="overflow:visible;">
	<g>
		<rect y="-141.7" class="st0" width="141.7" height="141.7"/>
	</g>
</pattern>
<pattern  x="-634.4" y="-824.3" width="141.7" height="141.7" patternUnits="userSpaceOnUse" id="SVGID_9_" viewBox="0 -141.7 141.7 141.7" style="overflow:visible;">
	<g>
		<rect y="-141.7" class="st0" width="141.7" height="141.7"/>
	</g>
</pattern>
<g>
	<rect y="0" class="st1" width="553" height="265.4"/>
</g>
<g>
	<path class="st2" d="M178.5,228.1H57.8c-7.4,0-13.4-6-13.4-13.4V53.1c0-7.4,6-13.4,13.4-13.4h120.7c7.4,0,13.4,6,13.4,13.4v161.6
		C191.9,222.1,185.9,228.1,178.5,228.1z"/>
	<path class="st3" d="M175.5,225.9H54.8c-7.4,0-13.4-6-13.4-13.4V50.9c0-7.4,6-13.4,13.4-13.4h120.7c7.4,0,13.4,6,13.4,13.4v161.6
		C188.9,219.9,182.9,225.9,175.5,225.9z"/>
	<path class="st4" d="M41.4,212.4V50.9c0-7.4,6-13.4,13.4-13.4h120.7"/>
</g>
<g>
	<rect x="258.4" y="89.8" class="st5" width="249.1" height="97.7"/>
	<rect x="255.6" y="88.1" class="st6" width="249.1" height="97.7"/>
	<polyline class="st4" points="504.7,89.3 504.7,185.8 257.5,185.8 	"/>
</g>
<g class="st7">
	<path class="st8" d="M299.5,38.9c-0.1,1-0.2,1.7-0.2,3.3l-0.2,14c5.3-1.2,9.3-4.2,11.7-9c1.2,1.7,2,2.6,3.6,3.8
		c-3.8,5.9-8.7,9-16.5,10.4c-1,0.2-1.1,0.2-1.6,0.5l-2.4-2.8c0.3-0.6,0.3-0.8,0.3-2.2l0.1-14.7c0-0.1,0-0.3,0-0.4
		c0-1.2-0.1-2.1-0.2-2.9L299.5,38.9z"/>
	<path class="st8" d="M319.6,61.6c0.1-1.2,0.2-2,0.2-4V42.2c0-2.1,0-2.4-0.2-3.8h5.1c-0.1,0.8-0.1,2.1-0.1,3.9v3.6
		c4.5,1.5,7.9,3,12,5.5l-2.5,4.5c-2.6-1.8-5.7-3.5-8.3-4.6c-0.9-0.4-0.9-0.4-1.2-0.5v6.9c0,1.8,0.1,3.1,0.2,4H319.6z"/>
	<path class="st8" d="M347.3,39.2c-0.1,0.9-0.1,0.9-0.3,6.1c-0.2,5.5-0.7,8.5-2,11.4c-0.9,2-1.9,3.4-3.7,5.3
		c-1.3-1.8-2.1-2.5-3.8-3.7c1.5-1.4,2.3-2.5,3.2-4.2c1.2-2.6,1.7-5.9,1.7-12.7c0-1.2,0-1.7-0.1-2.4L347.3,39.2z M354.8,38.8
		c-0.2,1.1-0.2,1.5-0.2,3.1l-0.1,13.9c1.4-0.9,2.3-1.7,3.2-2.9c1-1.4,1.6-2.7,2.1-4.5c1.3,1.6,2,2.3,3.5,3.5c-1.2,3-2.6,5-4.6,6.7
		c-1.6,1.4-2.9,2-5.6,3c-0.7,0.3-1,0.3-1.3,0.6l-2.3-2.4c0.2-0.7,0.3-1.1,0.3-2.2l0.1-15.7v-1c0-0.8,0-1.4-0.1-2.1H354.8z"/>
	<path class="st8" d="M367.7,61.6c0.1-1.2,0.2-2,0.2-4V42.2c0-2.1,0-2.4-0.2-3.8h5.1c-0.1,0.8-0.1,2.1-0.1,3.9v3.6
		c4.5,1.5,7.9,3,12,5.5l-2.5,4.5c-2.6-1.8-5.7-3.5-8.3-4.6c-0.9-0.4-0.9-0.4-1.2-0.5v6.9c0,1.8,0.1,3.1,0.2,4H367.7z"/>
	<path class="st8" d="M410.6,55c-1.7,1.4-2.8,2.2-4,3c1.5,0.4,3,0.6,5.5,0.7c-0.8,1.5-1.2,2.3-1.7,4c-4.6-0.7-7.3-1.7-9.9-3.7v1.8
		c-3.5,0.7-6,1.1-10.6,1.8c-0.6,0.1-0.9,0.2-1.4,0.2l-0.6-4.2c0.3,0,0.4,0,0.7,0c0.2,0,1.5-0.1,2.4-0.2V47c0-0.2,0-0.2,0-0.3
		c-1,0.5-1.6,0.7-2.8,1.3c-0.5-1.7-0.7-2.5-1.6-4.1c2.1-0.6,4.1-1.4,6-2.6c2-1.2,3.3-2.2,4.5-3.7h4.4c1.3,1.6,2.7,2.7,4.7,3.8
		c2,1.1,3.9,1.9,6,2.3c-0.8,1.5-1.2,2.5-1.6,4.2c-1.1-0.4-2.1-0.8-2.9-1.3v6.6c0,0.2,0,0.2,0,0.3L410.6,55z M394.9,48.2h8.9v-0.9
		h-8.9V48.2z M394.9,51.8h8.9v-0.9h-8.9V51.8z M394.9,54.7v3.3c0.1,0,0.1,0,0.3-0.1c1.1-0.1,2.7-0.3,3.6-0.5
		c-0.9-0.9-1.2-1.2-2.2-2.8H394.9z M397.4,43.5c0-0.4,0-0.5-0.1-0.8c-0.8,0.7-1.5,1.2-2.3,1.7h2.3V43.5z M400.9,42.3
		c-0.6-0.5-0.9-0.8-1.6-1.6c-0.7,0.7-0.9,1-1.6,1.6H400.9z M403.6,44.3c-1.2-0.8-1.7-1.2-2.4-1.7c0,0.3,0,0.5,0,0.9v0.8H403.6z
		 M401.2,54.7c0.4,0.5,1,1.1,1.7,1.6c0.8-0.5,1.6-1,2.2-1.6H401.2z"/>
	<path class="st8" d="M414.1,62.4c0.1-0.9,0.2-1.6,0.2-3v-7.2c0-0.9,0-1.7-0.1-2.5c0.8,0.1,1.6,0.1,2.7,0.1h6.6c0.7,0,1.3,0,1.8-0.1
		c-0.1,0.5-0.1,0.8-0.1,2.1v8c0,1,0,1.6,0.1,2.2h-4v-0.7h-3.1v1.1H414.1z M417.5,40.7c0-1,0-1.7-0.1-2.4c0.7,0.1,1.6,0.1,3,0.1h11.3
		c1.5,0,2.3,0,3-0.1c-0.1,0.7-0.1,1.4-0.1,2.4V46c0,1.2,0,1.9,0.1,2.6c-0.7-0.1-1.2-0.1-2.7-0.1h-12c-1.4,0-2,0-2.7,0.1
		c0.1-0.7,0.1-1.5,0.1-2.6V40.7z M421.3,53.5h-3.1v4.1h3.1V53.5z M421.5,42.1v2.7h9.1v-2.7H421.5z M435.4,49.8c1.2,0,1.9,0,2.5-0.1
		c-0.1,0.8-0.1,1.4-0.1,2.5v7.2c0,1.5,0,2.2,0.2,3h-4.2v-1.1h-3.3v1.1h-3.9c0.1-0.6,0.1-1.2,0.1-2.2v-8.4c0-1.2,0-1.5-0.1-2.1
		c0.6,0.1,1.1,0.1,1.8,0.1H435.4z M430.4,57.6h3.4v-4.1h-3.4V57.6z"/>
	<path class="st8" d="M440.2,50c0.8,0.1,1.6,0.2,2.6,0.2h5.2c1,0,1.7-0.1,2.6-0.2v5c-0.9-0.1-1.6-0.2-2.6-0.2h-5.2
		c-1,0-1.7,0.1-2.6,0.2V50z"/>
	<path class="st8" d="M456.9,60.9c-2.4,0-3,0-4,0.1c0.1-1.3,0.2-2.1,0.6-3.1c0.7-2.2,2-4.2,3.8-5.9c1-0.9,2-1.7,4.7-3.5
		c2.3-1.5,2.8-2.2,2.8-3.4c0-1.3-1.1-2.1-2.8-2.1c-1.3,0-2.2,0.4-2.8,1.3c-0.4,0.6-0.5,1.1-0.7,2.2l-5.6-0.6
		c0.4-2.3,0.9-3.5,1.9-4.7c1.5-1.8,3.9-2.7,7-2.7c3.6,0,6.3,1.2,7.6,3.3c0.6,0.9,0.9,2,0.9,3.1c0,1.9-0.8,3.6-2.4,4.9
		c-0.9,0.8-1.1,1-3.8,2.8c-2.3,1.6-3.3,2.5-3.9,3.7h6.2c2,0,3.2-0.1,4.2-0.2v5c-1.5-0.1-2.6-0.2-4.5-0.2H456.9z"/>
</g>
<g class="st7">
	<path class="st8" d="M299.5,107.9c-0.1,0.2-0.2,0.3-0.5,0.3c-0.6,4.1-2,8.4-4,11.1c-0.6-0.4-1.4-0.9-2.1-1.1
		c2-2.5,3.3-6.5,3.8-10.8L299.5,107.9z M306.8,119.2c-0.8-2.8-2.6-7.6-4.3-11l2.1-1c1.7,3.2,3.6,7.9,4.5,11L306.8,119.2z
		 M307.5,104.2c1,0,1.9,0.8,1.9,1.9c0,1-0.8,1.9-1.9,1.9s-1.9-0.9-1.9-1.9C305.7,105,306.5,104.2,307.5,104.2z M308.8,106.1
		c0-0.7-0.6-1.3-1.2-1.3s-1.2,0.6-1.2,1.3c0,0.7,0.6,1.2,1.2,1.2C308.3,107.4,308.8,106.8,308.8,106.1z"/>
	<path class="st8" d="M322.6,106.9c-0.1,0.1-0.2,0.2-0.3,0.3c-1,2.2-1.9,3.9-3.3,5.8c1.7,1.4,4.3,3.7,5.8,5.4l-1.9,1.7
		c-1.4-1.6-3.8-4.1-5.3-5.3c-1.6,1.8-3.9,4-6.2,5.3c-0.3-0.5-1.1-1.3-1.6-1.7c4.3-2.4,7.9-6.5,9.4-10.2h-7.9v-2.1h9.1l0.4-0.1
		L322.6,106.9z"/>
	<path class="st8" d="M338.9,108c0,0.1-0.1,0.2-0.3,0.3c-0.7,2-1.5,4-2.4,5.4c0.6,0.4,1.4,0.9,1.9,1.2l-1.3,2.1
		c-0.5-0.4-1.4-1-2-1.4c-1.5,2-3.5,3.5-5.9,4.7c-0.3-0.5-1.2-1.3-1.7-1.7c2.2-1,4.2-2.4,5.7-4.2c-0.9-0.6-2-1.1-2.9-1.5l1.2-1.7
		c1,0.3,2,0.8,3,1.3c0.7-1.1,1.2-2.2,1.6-3.4h-4.8c-1.1,1.7-2.4,3.3-3.7,4.4c-0.4-0.4-1.3-1-1.8-1.4c2.5-1.8,4.3-4.6,5.3-7.5
		l2.8,0.6c-0.1,0.2-0.3,0.3-0.6,0.3c-0.2,0.5-0.5,1.1-0.8,1.6h4.6l0.4-0.1L338.9,108z"/>
	<path class="st8" d="M347,113l1.3,0.6c-0.1,0.1-0.1,0.2-0.2,0.3c-0.4,1.4-1.1,2.7-1.9,3.7c1.4,0.7,3.1,0.9,5,0.9c1,0,4.7,0,6-0.1
		c-0.3,0.5-0.6,1.4-0.7,2h-5.3c-2.6,0-4.7-0.3-6.3-1.4c-0.9,0.8-1.9,1.4-3.1,1.9c-0.2-0.5-0.9-1.3-1.2-1.7c1.1-0.4,2-0.9,2.9-1.6
		c-0.3-0.4-0.6-0.9-0.9-1.5c-0.3,0.3-0.5,0.6-0.8,0.8c-0.3-0.4-0.9-1.2-1.2-1.5c0.9-0.8,1.8-2.2,2.4-3.6h-2.2v-1.7h3v-0.7h-2.4V108
		h2.4v-0.7H341v-1.6h2.7v-1.3l2.4,0.1c0,0.2-0.1,0.3-0.5,0.3v0.9h2.5v1.6h-2.5v0.7h2.2v1.5h-2.2v0.7h2.7v1.7h-3.2l0.2,0.1
		c-0.1,0.1-0.2,0.2-0.4,0.2c-0.1,0.3-0.2,0.6-0.4,0.9h2.1L347,113z M343.7,114.7c0.3,0.7,0.6,1.3,1,1.7c0.4-0.5,0.7-1.1,1-1.7H343.7
		z M348.9,108.4h2.6c0.1-0.6,0.2-1.2,0.2-1.8h-3.3V105h8.6v1.6h-3.5c-0.1,0.6-0.3,1.3-0.5,1.8h3.4v9.4H355v-0.5h-4.5v0.5h-1.5V108.4
		z M350.5,109.9v6h0.7v-6H350.5z M353.1,111v-1.1h-0.8v1.1H353.1z M353.1,113.5v-1.2h-0.8v1.2H353.1z M352.3,114.8v1.1h0.8v-1.1
		H352.3z M355,115.9v-6h-0.7v6H355z"/>
	<path class="st8" d="M373.1,112.6c-0.1,0-0.1,0-0.1,0c-0.1,0-0.2,0-0.2-0.1c-1.3,0.4-3,0.9-4.3,1.4c0,0.3,0,0.7,0,1.2s0,0.9,0,1.4
		l-2.2,0.2c0.1-0.6,0.1-1.4,0.1-1.9c-1.4,0.7-2.3,1.6-2.3,2.2c0,0.8,1,1.1,2.9,1.1c1.5,0,3.2-0.1,4.3-0.2l0,2
		c-0.9,0.1-2.4,0.1-4.4,0.1c-3.4,0-5-0.7-5-2.9c0-1.4,1.8-3,4.3-4.2c-0.1-0.5-0.3-1-0.8-1c-1.1,0-2.4,0.6-3.8,2.2
		c-0.4,0.5-1.1,1.2-1.8,1.9l-1.5-1.5c0.7-0.6,1.6-1.4,2.1-2c0.8-0.9,1.6-2.4,2-3.6l-0.7,0c-0.4,0-2.3,0-2.7,0v-2
		c1,0.1,2.2,0.1,3,0.1l0.9,0c0.2-0.7,0.3-1.4,0.4-2.3l2.7,0.3c0,0.2-0.2,0.3-0.4,0.3c-0.1,0.6-0.2,1.1-0.4,1.6c1.4,0,3.4-0.3,5.3-1
		l0.3,2.1c-1.7,0.5-4.1,0.7-6.2,0.9c-0.3,0.9-0.6,1.7-0.9,2h0c0.6-0.5,1.5-0.9,2.4-0.9c1,0,1.9,0.7,2.2,2c1.3-0.6,3-1.2,4.2-1.7
		L373.1,112.6z"/>
	<path class="st8" d="M390.5,109.2v1.8h-9.5v2.1c0,2.3-0.3,5.6-1.8,7.8c-0.3-0.3-1-1-1.5-1.3v1.2h-2v-8.6c-0.4,0.6-0.8,1.2-1.2,1.7
		c-0.2-0.5-0.6-1.7-0.9-2.2c1.3-1.6,2.6-4.5,3.4-7.3l2.3,0.7c-0.1,0.2-0.2,0.2-0.5,0.2c-0.4,1.1-0.8,2.2-1.3,3.2l0.5,0.2
		c0,0.2-0.2,0.3-0.5,0.3v10.4c1.2-1.9,1.3-4.5,1.3-6.4v-3.8H390.5z M379.1,105.8h2.5v-1.3l2.4,0.1c0,0.2-0.1,0.3-0.5,0.3v0.8h2.6
		v-1.3l2.4,0.1c0,0.2-0.1,0.3-0.5,0.3v0.8h2.4v1.8h-2.4v1.2h-2v-1.2h-2.6v1.2h-1.9v-1.2h-2.5V105.8z M390.1,112v7.1
		c0,1.4-0.6,1.7-2.6,1.7c-0.1-0.4-0.3-1.1-0.5-1.5c0.5,0,0.9,0,1.1,0c0.2,0,0.2-0.1,0.2-0.2v-0.9h-1.6v2.5H385v-2.5h-1.5v2.6h-1.8
		V112H390.1z M385,113.6h-1.5v1h1.5V113.6z M383.4,116.9h1.5v-1h-1.5V116.9z M388.3,113.6h-1.6v1h1.6V113.6z M386.7,116.9h1.6v-1
		h-1.6V116.9z"/>
	<path class="st8" d="M403.4,111.1c-0.1,0.1-0.3,0.2-0.5,0.1c-0.7,0.5-1.6,1-2.5,1.6c1.2,0,2.4,0,3.6,0c-0.4-0.3-0.8-0.6-1.2-0.8
		l1.6-0.9c1.3,0.8,2.9,2,3.7,2.9l-1.6,1c-0.2-0.2-0.5-0.5-0.7-0.8c-4.8,0.2-9.8,0.3-13.1,0.4c0,0.2-0.2,0.3-0.3,0.3l-0.7-2
		c1.2,0,2.8,0,4.6,0c-0.8-0.4-1.6-0.8-2.4-1.1c0.5-0.4,0.9-0.8,1.3-1.1c0.3,0.1,0.6,0.2,0.9,0.4c0.3-0.2,0.6-0.5,0.8-0.7h-4.7v-1.7
		h6.6v-1l2.5,0.1c0,0.2-0.1,0.3-0.5,0.3v0.5h6.7v1.7h-5.7L403.4,111.1z M395.6,108v-0.7H392v-1.7h3.7v-1.2l2.5,0.1
		c0,0.2-0.1,0.3-0.5,0.3v0.8h4v-1.2l2.5,0.1c0,0.2-0.1,0.3-0.5,0.3v0.8h3.8v1.7h-3.8v0.7h-2v-0.7h-4v0.7H395.6z M393.7,120.8V115
		h12.2v5.8h-2.1v-0.5h-8.1v0.5H393.7z M398.8,116.3h-3.2v0.7h3.2V116.3z M395.6,119h3.2v-0.8h-3.2V119z M399.3,110.2l0.2,0.1
		c-0.1,0.1-0.2,0.2-0.5,0.1c-0.4,0.3-1,0.7-1.6,1.1c0.4,0.2,0.7,0.4,1,0.6c1-0.6,2.1-1.3,2.8-2H399.3z M403.7,117.1v-0.7h-3.1v0.7
		H403.7z M400.7,119h3.1v-0.8h-3.1V119z"/>
	<path class="st8" d="M409.2,107.2c1.1,0,2.6-0.1,4-0.1c0.8,0,2.1-0.1,3.3-0.1c0-0.3,0-1.7-0.1-2.5l2.9,0.1c0,0.1-0.2,0.3-0.5,0.4
		c0,0.4,0,1.2,0,1.9c2.3-0.1,4.6-0.1,5.5-0.1v2.1c-0.5,0-1.2,0-1.9,0c-1,0-2.3,0-3.6,0.1l0.1,3.1c0.2,0.7,0.3,1.5,0.3,2
		c0,0.8-0.1,1.7-0.4,2.3c-0.7,1.8-2.3,3.5-4.9,4.5c-0.4-0.5-1.1-1.3-1.6-1.7c1.9-0.6,3.3-1.5,3.9-2.6h0c-0.2,0.2-0.6,0.3-1,0.3
		c-1.5,0-3.1-1.2-3.1-3.2c0-2,1.6-3.4,3.4-3.4c0.4,0,0.8,0.1,1.1,0.3c0-0.2,0-1.1-0.1-1.5c-1.3,0-7,0.2-7.3,0.2L409.2,107.2z
		 M416.9,113.5c0-0.4,0-1.6-1.3-1.6c-0.8,0-1.5,0.6-1.5,1.6c0,0.9,0.7,1.5,1.4,1.5C416.4,115,416.9,114.4,416.9,113.5z"/>
	<path class="st8" d="M431,111.7c1-0.4,2.3-0.6,3.3-0.6c2.6,0,4.5,1.6,4.5,4.4c0,3.1-2.7,4.9-6.5,4.9c-2.2,0-3.8-1-3.8-2.8
		c0-1.4,1.4-2.6,3.1-2.6c1.8,0,3.2,1.2,3.5,2.8c0.9-0.4,1.4-1.2,1.4-2.3c0-1.5-1.2-2.5-3-2.5c-2.4,0-4.6,1-5.8,2.2
		c-0.4,0.4-1.1,1.1-1.6,1.6l-1.5-1.5c1.2-1.2,5.6-5.4,8-7.6c-0.9,0.1-3.9,0.3-5.3,0.4c-0.1,0.1-0.3,0.2-0.4,0.3l-0.2-2.5
		c2.2,0,7.1-0.2,8.3-0.4l0.3-0.1l1.4,1.8c-0.1,0.1-0.3,0.2-0.5,0.2C435.2,107.9,432.4,110.4,431,111.7L431,111.7z M431.9,118.4
		c0.3,0,0.8-0.1,1.1-0.1c-0.1-0.9-0.9-1.6-1.6-1.6c-0.6,0-1.1,0.3-1.1,0.8C430.3,118.3,431.4,118.4,431.9,118.4z"/>
	<path class="st8" d="M447.3,104.9c-0.1,0.2-0.2,0.3-0.5,0.4c-0.1,0.6-0.3,1.5-0.4,2c1.2-0.1,3-0.4,4.3-0.8l0.3,2.1
		c-1.5,0.3-3.2,0.6-4.9,0.7c-0.8,3.2-1.8,5.8-3.4,8.3l-2.2-0.8c1.4-2.2,2.6-4.8,3.2-7.5h-3v-2h1.9c0.5,0,1,0,1.4,0
		c0.2-0.8,0.3-1.8,0.4-2.7L447.3,104.9z M451.8,112.5c0,1,0.1,2,0.2,3c0.9,0.4,2.5,1.1,3.4,1.8l-1,2c-0.6-0.5-1.7-1.1-2.3-1.5
		c0,0.3-0.1,0.5-0.1,0.7c-0.4,1.1-1.3,2-3.4,2c-1.6,0-3.5-0.8-3.5-2.8c0-1.8,1.8-2.8,3.5-2.8c0.4,0,0.9,0.1,1.4,0.1
		c-0.1-0.8-0.1-1.7-0.1-2.3L451.8,112.5z M449.9,116.9c-0.5-0.2-1.1-0.3-1.5-0.3c-0.9,0-1.6,0.4-1.6,1c0,0.6,0.6,1,1.6,1
		c0.8,0,1.5-0.4,1.5-1.3V116.9z M455.1,111.3c-1.9,0-4.1,0.3-6.1,0.7l-0.3-1.9c2-0.5,4.3-0.9,6.2-0.9L455.1,111.3z"/>
	<path class="st8" d="M460.9,108.4c-0.1,0.2-0.2,0.3-0.5,0.3c-0.2,2.4-0.4,3.8-0.7,4.3h0c1.5-1.1,4-1.8,5.7-1.8c2.5,0,4.5,1.4,4.4,4
		c0,3.3-2.5,4.9-9.5,5.2c-0.2-0.5-0.5-1.4-0.8-2c5.8-0.2,7.9-1.1,7.9-3.2c0-1.2-0.9-2.1-2.4-2.1c-2.2,0-4.8,1-5.9,2.6l-2-0.9
		c0.4-0.3,1-3.7,1-6.8L460.9,108.4z M460.5,104.7c2.1,0.2,4.9,0.7,6.7,1.4l-0.7,2.1c-1.7-0.7-4.7-1.3-6.6-1.5L460.5,104.7z"/>
	<path class="st8" d="M289.3,132.8c0.1,0,0.2,0,0.3,0c1.4,0,3.9,0.9,3.9,3.8c0,2.5-1.8,3.9-4.2,3.9c-0.9,0-2.1-0.3-3.3-1.2
		c0.2-0.5,0.4-1.3,0.5-1.8c0.9,0.7,1.9,1,2.6,1c1.2,0,2-0.7,2-1.9c0-0.7-0.4-1.7-2.2-1.7c-1.2,0-3,0.5-4.8,1.2
		c0.9,3.1,2,6.6,2.5,8.9l-2.4,0.5c-0.4-2.3-1.4-5.9-2.2-8.6c-1,0.4-2.4,0.9-3.3,1.2c0,0.2-0.1,0.3-0.3,0.4l-0.8-2.3
		c1-0.3,2.6-0.8,3.9-1.3c-0.5-1.5-0.9-3-1.3-4.2l2.8-0.5c0,0.2-0.1,0.3-0.4,0.5c0.2,0.9,0.6,2.1,1,3.5c1.6-0.5,2.9-1,4.1-1.1
		c-0.8-0.7-2-1.6-2.7-2l1.4-1.3c1.2,0.5,2.8,1.7,3.5,2.5L289.3,132.8z"/>
	<path class="st8" d="M294.5,136.1c0.4-0.1,1-0.2,1.7-0.4c2.9-0.8,5.2-1.1,6.2-1.1c2.4,0,4.7,1.3,4.7,4.2c0,4-3.6,5.4-8.7,5.8
		c-0.1-0.5-0.4-1.5-0.6-1.9c4.2-0.3,7.1-1.3,7.1-3.7c0-1.7-1.2-2.5-2.7-2.5h-0.1c-1.4,0-3.3,0.5-5.4,1.2c-0.3,0.1-0.8,0.3-1.1,0.4
		c-0.1,0.2-0.2,0.3-0.4,0.3L294.5,136.1z"/>
	<path class="st8" d="M310.2,144.8c-0.5-1.3-0.7-4.3-0.7-6.7c0-2.5,0.4-5.2,0.9-7.9l2.7,0.5c0,0.2-0.3,0.3-0.5,0.3
		c-1.1,3.7-1.1,6.5-1.1,8.5c0,0.6,0,1.1,0.1,1.4c0.3-0.7,0.8-2.1,1.1-2.8l1.1,1.4c-0.5,0.9-1.1,2.3-1.5,3.3
		c-0.1,0.3-0.2,0.6-0.2,0.9c0,0.2,0,0.5,0.1,0.8L310.2,144.8z M314.4,134.2c0.8,0,3,0,3.8,0c-0.1-1.4-0.1-2.7-0.1-4l2.8,0.1
		c0,0.2-0.1,0.3-0.4,0.4c0,0.6,0,0.8,0,3.3c1.2-0.2,2.2-0.4,3-0.6l0.2,2.1c-0.8,0.2-1.9,0.4-3.2,0.5c0.1,1.6,0.1,3,0.2,4.1
		c1.2,0.5,2.4,1.2,3.3,2l-1.1,2.1c-0.5-0.6-1.3-1.2-2-1.7c-0.2,2.2-1.8,2.6-3.3,2.6c-2.1,0-3.4-1.2-3.4-2.8c0-1.8,1.7-2.8,3.5-2.8
		c0.3,0,0.7,0,1,0.1c-0.1-0.9-0.1-2.2-0.2-3.4c-0.5,0-1.1,0-1.5,0h-2.4L314.4,134.2z M318.8,141.5c-0.3-0.1-0.8-0.2-1.2-0.2
		c-0.8,0-1.7,0.3-1.7,1c0,0.7,0.7,1,1.6,1c0.9,0,1.3-0.5,1.3-1.3C318.8,141.9,318.8,141.7,318.8,141.5z M323.4,129
		c1,0,1.9,0.8,1.9,1.9c0,1-0.8,1.9-1.9,1.9c-1,0-1.9-0.9-1.9-1.9C321.5,129.8,322.4,129,323.4,129z M324.6,130.9
		c0-0.7-0.6-1.2-1.2-1.2c-0.7,0-1.2,0.6-1.2,1.2c0,0.7,0.6,1.2,1.2,1.2C324.1,132.1,324.6,131.5,324.6,130.9z"/>
	<path class="st8" d="M327,139.7c-0.3-1.2-0.5-2.8-0.5-3.8c0-1.3,0.1-3.2,0.5-5.3l2.7,0.4c-0.1,0.2-0.3,0.3-0.4,0.3
		c-0.4,1.4-0.7,3.9-0.6,4.9c0.3-0.8,0.9-1.7,1.3-2.4c0.2,0.4,0.7,1.1,1,1.4c-1.1,1.7-1.9,2.9-1.9,3.7c0,0.1,0,0.3,0.1,0.4L327,139.7
		z M337,130.2c0,0.2-0.2,0.3-0.4,0.4c0.1,1.4,0.3,3.7,0.3,5.9c0,3.4-1.1,6.5-6.6,8.8c-0.3-0.5-1.1-1.3-1.6-1.7
		c4.8-1.8,5.8-4.7,5.8-7c0-2.4-0.2-4.9-0.4-6.5L337,130.2z"/>
	<path class="st8" d="M342.9,142.4c0,1.1,0.3,1.3,2.2,1.3h5.8c1.6,0,1.9-0.3,2.1-2.3c0.5,0.3,1.4,0.6,2,0.8c-0.4,2.7-1.1,3.5-4,3.5
		h-6c-3.3,0-4.3-0.7-4.3-3.2v-6.6c-0.3,0.2-0.5,0.4-0.8,0.6c-0.3-0.5-1-1.2-1.5-1.5c2.4-1.6,4.1-3.8,5.1-5.6l2.6,0.5
		c-0.1,0.2-0.2,0.3-0.5,0.3c-0.1,0.2-0.2,0.4-0.3,0.5h3.5l0.3-0.1l1.6,1c-0.1,0.1-0.2,0.2-0.4,0.2c-0.3,0.7-0.8,1.5-1.3,2.2h4.6v6.8
		h-2.2v-0.7h-8.6V142.4z M346.6,133.8c0.3-0.4,0.7-1,1-1.5H344c-0.4,0.5-0.8,1-1.2,1.5H346.6z M342.9,135.7v2.3h3.1v-2.3H342.9z
		 M351.5,138v-2.3h-3.4v2.3H351.5z"/>
	<path class="st8" d="M355.7,144.3c1.1-3.2,3.3-9.5,3.8-11.2c0.4-1,0.9-2.7,1-3.2l3,0.7c-0.1,0.3-0.3,0.4-0.7,0.4
		c-0.7,1.6-2.1,5.3-2.7,7c1-0.9,2.2-1.4,3.2-1.4c1.4,0,2.3,1,2.3,2.6c0,0.3-0.1,1.9-0.1,2.2c0,1,0.4,1.4,1.1,1.4
		c1.3,0,2.3-1.5,3.1-4.4c0.6,0.5,1.4,0.9,2,1.2c-1.1,3.4-2.7,5.4-5.2,5.4c-2.1,0-3.4-1.1-3.4-3c0-0.3,0.1-1.9,0.1-2.2
		c0-0.8-0.2-1.2-0.7-1.2c-1.6,0-3.3,2.4-3.8,3.9c-0.2,0.7-0.5,1.6-0.8,2.4L355.7,144.3z"/>
	<path class="st8" d="M379.5,129.9c-0.1,0.2-0.2,0.3-0.5,0.4c-0.1,0.6-0.3,1.5-0.4,2c1.2-0.1,3-0.4,4.3-0.8l0.3,2.1
		c-1.5,0.3-3.2,0.6-4.9,0.7c-0.8,3.2-1.8,5.8-3.4,8.3l-2.2-0.8c1.4-2.2,2.6-4.8,3.2-7.5h-3v-2h1.9c0.5,0,1,0,1.4,0
		c0.2-0.8,0.3-1.8,0.4-2.7L379.5,129.9z M384,137.5c0,1,0.1,2,0.2,3c0.9,0.4,2.5,1.1,3.4,1.8l-1,2c-0.6-0.5-1.7-1.1-2.4-1.5
		c0,0.3-0.1,0.5-0.1,0.7c-0.4,1.1-1.3,2-3.4,2c-1.6,0-3.5-0.8-3.5-2.8c0-1.8,1.8-2.8,3.5-2.8c0.4,0,0.9,0.1,1.4,0.1
		c-0.1-0.8-0.1-1.7-0.1-2.3L384,137.5z M382.1,141.9c-0.5-0.2-1.1-0.3-1.5-0.3c-0.9,0-1.6,0.4-1.6,1c0,0.6,0.6,1,1.6,1
		c0.8,0,1.5-0.4,1.5-1.3V141.9z M387.3,136.3c-1.9,0-4.1,0.3-6.1,0.7l-0.3-1.9c2-0.5,4.3-0.9,6.2-0.9L387.3,136.3z"/>
	<path class="st8" d="M395.2,140.7h-3.6v1.5h-2v-11.1h5.6V140.7z M393.2,133.1h-1.6v5.7h1.6V133.1z M405.2,138.5h-3.1
		c0.9,1.8,2.2,3.6,3.6,4.6c-0.5,0.4-1.1,1.1-1.5,1.6c-1.1-1-2.2-2.6-3-4.3v5.3h-2.1v-4.9c-1.2,1.7-2.6,3.2-4.3,4.2
		c-0.3-0.5-1-1.3-1.4-1.7c2-1,3.9-2.8,5-4.8h-2.9v-2h3.6v-2.3h-3.3v-2h3.3v-2.8l2.6,0.1c0,0.2-0.1,0.3-0.5,0.3v2.3h3.5v2h-3.5v2.3
		h3.9V138.5z"/>
	<path class="st8" d="M416,133.5c-0.1,0.2-0.3,0.3-0.5,0.3c-0.7,6-2.5,9.4-5.4,9.4c-1.9,0-3.3-1.6-3.3-4.6c0-4.5,3.6-7.7,8-7.7
		c4.9,0,7.5,2.9,7.5,6.7c0,4.1-2.1,6.2-6.5,7.3c-0.3-0.5-0.8-1.3-1.4-1.8c4-0.8,5.6-2.7,5.6-5.4c0-2.8-2-4.7-5.2-4.7
		c-0.3,0-0.6,0-0.9,0.1L416,133.5z M413.2,133.2c-2.6,0.6-4.3,2.9-4.3,5.4c0,1.5,0.4,2.5,1.2,2.5C411.8,141,412.9,137.2,413.2,133.2
		z"/>
	<path class="st8" d="M425.6,131.5c1.2,1.4,2.4,3.4,3,4.8l-2.2,1.1c-0.5-1.4-1.7-3.5-2.8-4.9L425.6,131.5z M437.6,132.1
		c-0.1,0.2-0.2,0.3-0.5,0.3c-1.8,6.4-5.1,10.2-10.1,12.5c-0.3-0.5-1.1-1.2-1.6-1.6c4.7-2,7.8-5.5,9.4-12.1L437.6,132.1z"/>
	<path class="st8" d="M439.3,136.2h14.5v2.2H440c-0.1,0.2-0.3,0.3-0.6,0.3L439.3,136.2z"/>
	<path class="st8" d="M467.6,131.9c-0.1,0.1-0.2,0.2-0.3,0.3c-1,2.2-1.9,3.9-3.3,5.8c1.7,1.4,4.3,3.7,5.8,5.4l-1.9,1.7
		c-1.4-1.6-3.8-4.1-5.3-5.3c-1.6,1.8-3.9,4-6.2,5.3c-0.3-0.5-1.1-1.3-1.6-1.7c4.3-2.4,7.9-6.5,9.4-10.2h-7.9v-2.1h9.1l0.4-0.1
		L467.6,131.9z"/>
	<path class="st8" d="M480.4,139.6c-1,0.1-2.4,0.2-3.7,0.2c0,0.4-0.1,0.7-0.1,1c0,2,1.3,2.4,2.8,2.4c0.7,0,1.5-0.1,2.2-0.3
		c0.8-0.2,1.2-0.8,1.2-1.7c0-0.8-0.4-1.8-1.3-2.9c0.6-0.2,1.5-0.5,2-0.7c1,1.5,1.5,2.8,1.5,4c0,3.6-4.6,3.6-5.7,3.6
		c-3.4,0-4.9-1.2-4.9-4.5c0-0.5,0-0.7,0.1-1c-1.3-0.1-3.6-0.3-3.6-2.3c0-0.8,0.4-1.6,1.4-2.4l1.7,0.7c-0.7,0.4-1.1,0.9-1.1,1.3
		c0,0.6,1,0.7,1.8,0.7c0.1-1,0.2-2,0.3-3.1c-1.1-0.1-2.4-0.4-3.4-0.8l0.5-2c0.9,0.4,2,0.7,3.2,0.8c0.1-1,0.2-2,0.3-2.9l2.9,0.3
		c0,0.2-0.3,0.4-0.6,0.4c-0.1,0.6-0.3,1.4-0.4,2.3c0.3,0,0.7,0,1.2,0c0.6,0,1.4,0,1.9-0.1l-0.1,2c-0.5,0-1,0.1-1.6,0.1
		c-0.6,0-1.2,0-1.7,0c-0.1,1-0.2,2.1-0.3,3c1.2,0,2.4-0.1,3.5-0.3L480.4,139.6z"/>
	<path class="st8" d="M304.7,159.2v1.8h-9.5v2.1c0,2.3-0.3,5.6-1.8,7.8c-0.3-0.3-1-1-1.5-1.3v1.2h-2v-8.6c-0.4,0.6-0.8,1.2-1.2,1.7
		c-0.2-0.5-0.6-1.7-0.9-2.2c1.3-1.6,2.6-4.5,3.4-7.3l2.3,0.7c-0.1,0.2-0.2,0.2-0.5,0.2c-0.4,1.1-0.8,2.2-1.3,3.2l0.5,0.2
		c0,0.2-0.2,0.3-0.5,0.3v10.4c1.2-1.9,1.3-4.5,1.3-6.4v-3.8H304.7z M293.2,155.8h2.5v-1.3l2.4,0.1c0,0.2-0.1,0.3-0.5,0.3v0.8h2.6
		v-1.3l2.4,0.1c0,0.2-0.1,0.3-0.5,0.3v0.8h2.4v1.8h-2.4v1.2h-1.9v-1.2h-2.6v1.2h-1.9v-1.2h-2.5V155.8z M304.3,162v7.1
		c0,1.4-0.6,1.7-2.6,1.7c-0.1-0.4-0.3-1.1-0.5-1.5c0.5,0,0.9,0,1.1,0c0.2,0,0.2-0.1,0.2-0.2v-0.9h-1.6v2.5h-1.7v-2.5h-1.5v2.6h-1.8
		V162H304.3z M299.2,163.6h-1.5v1h1.5V163.6z M297.6,166.9h1.5v-1h-1.5V166.9z M302.4,163.6h-1.6v1h1.6V163.6z M300.8,166.9h1.6v-1
		h-1.6V166.9z"/>
	<path class="st8" d="M317.5,161.1c-0.1,0.1-0.3,0.2-0.5,0.1c-0.7,0.5-1.6,1-2.5,1.6c1.2,0,2.4,0,3.6,0c-0.4-0.3-0.8-0.6-1.2-0.8
		l1.6-0.9c1.3,0.8,2.9,2,3.7,2.9l-1.6,1c-0.2-0.2-0.5-0.5-0.7-0.8c-4.8,0.2-9.8,0.3-13.1,0.4c0,0.2-0.2,0.3-0.3,0.3l-0.7-2
		c1.2,0,2.8,0,4.6,0c-0.8-0.4-1.6-0.8-2.4-1.1c0.5-0.4,0.9-0.8,1.3-1.1c0.3,0.1,0.6,0.2,0.9,0.4c0.3-0.2,0.6-0.5,0.8-0.7h-4.7v-1.7
		h6.6v-1l2.5,0.1c0,0.2-0.1,0.3-0.5,0.3v0.5h6.7v1.7h-5.7L317.5,161.1z M309.8,158v-0.7h-3.7v-1.7h3.7v-1.2l2.5,0.1
		c0,0.2-0.1,0.3-0.5,0.3v0.8h4v-1.2l2.5,0.1c0,0.2-0.1,0.3-0.5,0.3v0.8h3.8v1.7h-3.8v0.7h-2v-0.7h-4v0.7H309.8z M307.8,170.8V165
		H320v5.8h-2.1v-0.5h-8.1v0.5H307.8z M312.9,166.3h-3.2v0.7h3.2V166.3z M309.8,169h3.2v-0.8h-3.2V169z M313.5,160.2l0.2,0.1
		c-0.1,0.1-0.2,0.2-0.5,0.1c-0.4,0.3-1,0.7-1.6,1.1c0.4,0.2,0.7,0.4,1,0.6c1-0.6,2.1-1.3,2.8-2H313.5z M317.9,167.1v-0.7h-3.1v0.7
		H317.9z M314.8,169h3.1v-0.8h-3.1V169z"/>
	<path class="st8" d="M327.7,155.2c0,0.2-0.2,0.3-0.5,0.4c-0.2,2.3-0.3,6.4-0.3,8.9c0,2.2,1.1,3.3,3,3.3c1.7,0,3.6-0.9,5.6-2.9
		c0.3,0.5,0.9,1.6,1.3,2c-2.2,2.2-4.5,3.2-6.9,3.2c-3.9,0-5.4-2.1-5.4-5.5c0-2.3,0.1-7.4,0.2-9.5L327.7,155.2z"/>
	<path class="st8" d="M336.7,156.5c0.5,0,1.3,0,1.8-0.1c2-0.1,9.5-0.6,12.5-0.7l0,2.4c-1.5-0.1-2.4,0.1-3.8,1.1
		c-1.9,1.3-4.3,3.7-4.3,5.7c0,2,1.8,3.1,5.6,3.5l-1.1,2.2c-4.9-0.6-6.9-2.7-6.9-5.7c0-2.1,2-4.9,4.6-6.7c-2,0.1-6.2,0.5-7.8,0.7
		c0,0.1-0.3,0.3-0.4,0.3L336.7,156.5z"/>
	<path class="st8" d="M362,159.1c-0.9,0.3-1.9,0.5-3,0.6c0,0.8,0,1.7,0,2.4c1.2-0.3,2.4-0.6,3.3-0.6c2.9,0,5,1.4,5,4.2
		c0,2.5-1.4,4.4-4.4,4.4c-1.2,0-2.3-0.5-3.3-1.5c0.4-0.5,0.8-1.1,1.1-1.7c0.6,0.8,1.4,1.2,2.2,1.2c1.4,0,2.2-1,2.2-2.3
		c0-1.4-1-2.4-2.9-2.4c-0.9,0-2.1,0.2-3.3,0.6v3.4c0,1.6-1,3-3.2,3c-1.5,0-3.2-0.9-3.2-3c0-1.2,0.8-2.4,2.1-3.4
		c0.6-0.5,1.4-0.9,2.2-1.2v-3c-1.1,0.1-2.4,0.1-3.8,0.1l0-2.1c1.4,0,2.7,0,3.9-0.1v-3l2.8,0.1c0,0.2-0.2,0.4-0.5,0.4
		c-0.1,0.7-0.1,1.5-0.1,2.3c1-0.1,1.9-0.3,2.7-0.6L362,159.1z M356.8,164.8c-1,0.6-2.3,1.4-2.3,2.6c0,0.7,0.4,1.2,1.2,1.2
		c0.7,0,1.2-0.4,1.2-1.2C356.9,166.8,356.9,165.8,356.8,164.8z M366.6,160.8c-0.9-0.9-2.5-1.8-3.9-2.3l1.1-1.8
		c1.5,0.5,3.1,1.4,4.1,2.3L366.6,160.8z"/>
	<path class="st8" d="M383.8,161.3c-1.2,0.4-3,0.7-4.8,0.9c0.5,0.8,1.5,1.7,2.6,2.2l-1.2,1.7c-0.9-0.5-1.3-0.7-2.7-0.7
		c-0.3,0-0.6,0-1,0.1l-0.5-1.6c0.2,0,0.5,0,0.8,0s0.6,0,0.8,0c-0.3-0.3-0.7-0.8-0.9-1.4c-1.3,0.1-2.6,0.1-3.7,0.1
		c-0.9,0-2.1,0-3.2,0l0-1.8c0.7,0,1.5,0,2.3,0c1.3,0,2.7,0,4-0.1c-0.1-0.4-0.3-1.1-0.5-1.7c-0.6,0.1-1.3,0.1-2,0.1c-1,0-1.9,0-2.8,0
		l0-1.8c0.9,0.1,1.8,0.1,2.6,0.1c0.5,0,1.2,0,1.7-0.1c-0.1-0.7-0.3-1.7-0.4-2.5l2.8,0.1c0,0.2-0.2,0.4-0.5,0.4
		c0.1,0.6,0.1,1.3,0.2,1.8c1.4-0.1,3.2-0.5,4.4-0.9l0.4,1.9c-1.4,0.4-2.9,0.7-4.4,0.8c0.2,0.6,0.3,1.3,0.5,1.7
		c1.8-0.2,3.7-0.6,5.2-1.1L383.8,161.3z M380.7,170.1c-0.7,0.1-1.5,0.1-2.8,0.1c-0.4,0-0.8,0-1.3,0c-3,0-5.1-1.1-5.1-3.1
		c0-1.1,0.9-2.2,1.9-2.8l1.4,1.3c-0.7,0.4-1.1,0.9-1.1,1.3c0,1.2,2,1.3,3.2,1.3c1.2,0,2.8-0.1,3.8-0.2L380.7,170.1z"/>
	<path class="st8" d="M395.5,159c-1.3,0.4-3.1,0.7-4.8,0.9c-0.7,3.7-1.8,7.6-3,10.5l-2.3-0.8c1.4-2.8,2.4-6.1,3-9.6
		c-0.3,0-1.5,0-1.8,0c-0.4,0-0.7,0-1,0l0-2.1c0.6,0,1.5,0,2.3,0c0.3,0,0.6,0,0.9,0c0.1-1,0.3-2.2,0.3-3.2l2.8,0.2
		c0,0.2-0.2,0.4-0.5,0.4c-0.1,0.6-0.2,1.6-0.3,2.4c1.4-0.2,2.8-0.4,4-0.9L395.5,159z M400.1,170c-0.5,0-1.1,0.1-1.8,0.1
		c-1.3,0-2.8-0.1-3.7-0.3c-1.5-0.4-2.3-1.4-2.3-2.6c0-0.8,0.4-1.8,1.1-2.6l1.9,0.7c-0.5,0.6-0.8,1.1-0.8,1.5c0,1,0.9,1.2,3.6,1.2
		c0.7,0,1.4,0,2.1-0.1L400.1,170z M393.5,161.2c1.7-0.6,4.2-0.9,6.2-0.9v2.1c-1.9-0.1-4,0.2-5.7,0.6L393.5,161.2z"/>
	<path class="st8" d="M405.5,156.8c-0.1,0.2-0.2,0.3-0.5,0.3c-0.3,1.4-0.5,3.2-0.5,4.8c0,3.8,1.1,5.2,2.1,5.2c0.6,0,1.3-1.7,1.7-3.2
		c0.4,0.4,1.3,1.1,1.8,1.4c-0.8,2.9-2,4.2-3.6,4.2c-2.7,0-4-3.4-4.2-6.2c0-0.6-0.1-1.3-0.1-2c0-1.6,0.1-3.3,0.3-5L405.5,156.8z
		 M415.3,165.2c-0.5-3.1-2-5-4.1-6.3l1.4-1.6c2.5,1.3,4.5,3.7,5,7.1L415.3,165.2z"/>
	<path class="st8" d="M418.5,156.5c0.5,0,1.3,0,1.8-0.1c2-0.1,9.5-0.6,12.5-0.7l0,2.4c-1.5-0.1-2.4,0.1-3.8,1.1
		c-1.9,1.3-4.3,3.7-4.3,5.7c0,2,1.8,3.1,5.6,3.5l-1.1,2.2c-4.9-0.6-6.9-2.7-6.9-5.7c0-2.1,2-4.9,4.6-6.7c-2.2,0.2-6.2,0.5-7.8,0.7
		c0,0.1-0.3,0.3-0.4,0.3L418.5,156.5z M430.2,160.7c0.7,0.6,1.7,1.6,2.1,2.4l-1,0.8c-0.4-0.7-1.4-1.8-2.1-2.4L430.2,160.7z
		 M432.3,159.1c0.8,0.6,1.7,1.6,2.1,2.3l-1,0.8c-0.4-0.6-1.4-1.8-2.1-2.4L432.3,159.1z"/>
	<path class="st8" d="M435.2,157.2c1.1,0,2.6-0.1,4-0.1c0.8,0,2.1-0.1,3.3-0.1c0-0.3,0-1.7-0.1-2.5l2.9,0.1c0,0.1-0.2,0.3-0.5,0.4
		c0,0.4,0,1.2,0,1.9c2.3-0.1,4.6-0.1,5.5-0.1v2.1c-0.5,0-1.2,0-1.9,0c-1,0-2.3,0-3.6,0.1l0.1,3.1c0.2,0.7,0.3,1.5,0.3,2
		c0,0.8-0.1,1.7-0.4,2.3c-0.7,1.8-2.3,3.5-4.9,4.5c-0.4-0.5-1.1-1.3-1.6-1.7c1.9-0.6,3.3-1.5,3.9-2.6h0c-0.2,0.2-0.6,0.3-1,0.3
		c-1.5,0-3.1-1.2-3.1-3.2c0-2,1.6-3.4,3.4-3.4c0.4,0,0.8,0.1,1.1,0.3c0-0.2,0-1.1-0.1-1.5c-1.3,0-7,0.2-7.3,0.2L435.2,157.2z
		 M442.9,163.5c0-0.4,0-1.6-1.3-1.6c-0.8,0-1.5,0.6-1.5,1.6c0,0.9,0.7,1.5,1.4,1.5C442.4,165,442.9,164.4,442.9,163.5z"/>
	<path class="st8" d="M451.8,157.9c1.2,0,2.2,0,3.3-0.1c0-0.4,0.1-2.5,0.1-2.9l2.7,0.2c0,0.2-0.2,0.3-0.5,0.4
		c-0.1,0.7-0.1,1.4-0.2,2.1l1,0.4c-0.4,0.6-0.8,1.5-1.2,2.4c0,0.1,0,0.2,0,0.3c1.7-1.4,3.6-2.3,5.3-2.3c2.8,0,4.1,1.7,4.1,5.2
		c0,1-0.1,2-0.3,2.8c0.5,0.4,0.9,0.9,1.3,1.3l-1.3,1.9c-0.2-0.3-0.6-0.8-1-1.2c-0.8,1-1.8,1.6-3.3,1.6c-1.8,0-3-1.1-3-2.7
		c0-1.6,1.3-2.7,3-2.7c0.8,0,1.6,0.2,2.4,0.6c0.1-0.5,0.2-1,0.2-1.7c0-2-0.7-3.2-2.2-3.2c-1.4,0-3.5,1-5,2.5c0,3.8,0,6.8,0,7.6h-2.1
		v-5.8c-0.4,0.8-1.4,2.2-2.4,3.2l-1.2-2c1.3-1.2,2.8-3.1,3.6-5c0-0.4,0-0.7,0-1.1c-0.6,0.1-1.6,0.2-3.2,0.2V157.9z M463.5,167
		c-0.5-0.5-1.2-0.7-1.8-0.7c-0.8,0-1.3,0.4-1.3,0.9c0,0.6,0.6,1,1.3,1C462.6,168.3,463.2,167.7,463.5,167z"/>
	<path class="st8" d="M469.8,167.7c0-0.9,0.7-1.7,1.7-1.7s1.7,0.8,1.7,1.7c0,0.9-0.7,1.7-1.7,1.7
		C470.5,169.4,469.8,168.6,469.8,167.7z M470.5,164.8l-0.4-9h2.9l-0.4,9H470.5z"/>
</g>
<g class="st7">
	<path class="st8" d="M316.7,199.9v1.1h-4.6v-1.1H316.7z M316.3,204.8v3.6h-2.5v0.5h-1.2v-4H316.3z M312.7,202.6v-1.1h3.6v1.1H312.7
		z M312.7,204.2v-1h3.6v1H312.7z M316.3,198.4v1.1h-3.5v-1.1H316.3z M315.1,205.9h-1.2v1.3h1.2V205.9z M323.1,205v1.3h-2.6v2.7h-1.4
		v-2.7h-2.6V205h2.6v-1.2h-2v-1.3h2v-1.1h-2.2v-1.3h1.1c-0.1-0.5-0.4-1.2-0.7-1.7l1.1-0.4c0.4,0.6,0.7,1.4,0.8,1.9l-0.6,0.2h2.2
		l-0.5-0.2c0.3-0.6,0.7-1.4,0.8-2l1.5,0.5c0,0.1-0.2,0.1-0.3,0.1c-0.2,0.5-0.5,1.1-0.8,1.6h1.3v1.3h-2.4v1.1h2.1v1.3h-2.1v1.2H323.1
		z"/>
	<path class="st8" d="M328.6,199h5.6v9.8h-1.3v-0.5h-3.1v0.6h-1.2v-1.8c-0.3,0.1-0.7,0.2-1.1,0.4c-0.1-0.6-0.4-1.6-0.7-2.3l1-0.3
		c0.3,0.7,0.6,1.5,0.7,2.1v-2.6l-0.9,0.4c0-0.2-0.1-0.3-0.2-0.5l-0.8,0v4.8h-1.2v-3.8c0,0.1-0.1,0.1-0.3,0.1c-0.1,1-0.3,2.1-0.7,2.8
		c-0.2-0.2-0.7-0.4-1-0.5c0.3-0.6,0.5-1.7,0.6-2.7l1.3,0.3v-0.9c-0.5,0-1,0.1-1.4,0.1c0,0.1-0.1,0.2-0.2,0.2l-0.3-1.4h0.9
		c0.2-0.2,0.4-0.5,0.6-0.7c-0.3-0.5-0.9-1.1-1.4-1.6l0.7-1l0.3,0.2c0.3-0.7,0.7-1.4,0.9-2.1l1.4,0.6c0,0.1-0.2,0.1-0.3,0.1
		c-0.3,0.6-0.8,1.5-1.2,2.1c0.2,0.2,0.3,0.3,0.4,0.5c0.4-0.7,0.8-1.4,1.1-2l1.3,0.6c-0.1,0.1-0.2,0.1-0.3,0.1c-0.5,0.9-1.3,2-2.1,3
		l1.3,0c-0.1-0.3-0.3-0.6-0.5-0.9l1-0.5c0.4,0.6,0.7,1.3,1,1.9V199z M330.7,200.2h-0.9v2.7h0.9V200.2z M329.8,204.2v2.8h0.9v-2.8
		H329.8z M332.9,203v-2.7h-1v2.7H332.9z M331.9,207h1v-2.8h-1V207z"/>
	<path class="st8" d="M336.2,208.3c-0.3-0.9-0.5-2.8-0.5-4.4c0-1.7,0.3-3.4,0.6-5.3l1.8,0.3c0,0.1-0.2,0.2-0.3,0.2
		c-0.7,2.5-0.7,4.3-0.7,5.6c0,0.4,0,0.8,0,1c0.2-0.5,0.5-1.4,0.7-1.8l0.8,1c-0.3,0.6-0.7,1.6-1,2.2c-0.1,0.2-0.1,0.4-0.1,0.6
		c0,0.2,0,0.3,0.1,0.5L336.2,208.3z M339.3,201.1c0.8,0,1.7,0,2.6,0c0-0.9-0.1-1.7-0.1-2.6l1.8,0.1c0,0.1-0.1,0.2-0.3,0.3l0,2.1
		c0.8-0.1,1.5-0.2,2-0.4l0.1,1.4c-0.5,0.2-1.2,0.3-2.1,0.3c0,1,0.1,2.1,0.1,2.9c0.8,0.3,1.6,0.8,2.2,1.3l-0.8,1.4
		c-0.4-0.4-0.8-0.8-1.4-1.1c-0.2,1.5-1.2,1.7-2.2,1.7c-1.4,0-2.3-0.8-2.3-1.9c0-1.2,1.1-1.9,2.3-1.9c0.2,0,0.5,0,0.7,0.1
		c0-0.6-0.1-1.5-0.1-2.4c-0.3,0-0.7,0-1,0h-1.6L339.3,201.1z M342.2,206.1c-0.2-0.1-0.5-0.1-0.8-0.1c-0.6,0-1.1,0.2-1.1,0.7
		c0,0.4,0.5,0.7,1.1,0.7c0.6,0,0.9-0.3,0.8-0.9C342.2,206.3,342.2,206.2,342.2,206.1z"/>
	<path class="st8" d="M347.4,204.9v-5.7l1.8,0.1c0,0.1-0.1,0.2-0.3,0.2v5.4H347.4z M354.3,198.7c0,0.1-0.1,0.2-0.3,0.2v3.6
		c0,2.5-0.8,4.7-4.1,6.1c-0.2-0.3-0.8-0.8-1.1-1.1c3.1-1.2,3.7-3.1,3.7-5v-4L354.3,198.7z"/>
	<path class="st8" d="M356.4,199.1c1.2,0.4,2.6,1,3.4,1.5L359,202c-0.8-0.6-2.2-1.2-3.3-1.6L356.4,199.1z M356,207
		c3.9-1.2,6.6-3.5,8-6.7c0.4,0.3,0.9,0.6,1.4,0.9c-1.4,3.2-4.2,5.6-8.1,7c0,0.1-0.1,0.3-0.2,0.3L356,207z"/>
	<path class="st8" d="M374.6,200.8c0,0.1-0.2,0.2-0.3,0.2c-1.3,3.8-3.1,6.1-6.3,7.7c-0.2-0.3-0.7-0.8-1.1-1.1c2.9-1.4,4.6-3.4,5.5-6
		H369c-0.6,0.9-1.5,1.9-2.5,2.7c-0.3-0.3-0.8-0.7-1.2-1c1.5-1.1,2.9-3,3.6-4.9l1.8,0.4c0,0.1-0.2,0.2-0.4,0.2
		c-0.2,0.4-0.4,0.8-0.6,1.2h3.3l0.2-0.1L374.6,200.8z"/>
	<path class="st8" d="M380,204.5c0,0.1-0.1,0.2-0.3,0.2c-0.3,1.7-0.8,3.3-3.5,4.3c-0.2-0.4-0.5-0.9-0.8-1.2c2.4-0.7,2.8-1.9,3-3.4
		L380,204.5z M382.8,207c0,0.4,0.1,0.4,0.4,0.4h1c0.3,0,0.4-0.2,0.5-1.6c0.3,0.2,0.9,0.5,1.3,0.6c-0.1,1.9-0.5,2.4-1.6,2.4H383
		c-1.3,0-1.6-0.4-1.6-1.8v-2.8h-5.9v-1.4h4.5v-1.9h-2c-0.3,0.6-0.6,1.2-0.9,1.6c-0.3-0.2-0.9-0.5-1.2-0.6c0.8-1,1.3-2.5,1.6-3.7
		l1.6,0.4c0,0.1-0.1,0.2-0.3,0.2c-0.1,0.3-0.2,0.6-0.3,0.9h1.5V198l1.7,0.1c0,0.1-0.1,0.2-0.3,0.2v1.3h3.6v1.3h-3.6v1.9h4.5v1.4
		h-3.1V207z"/>
	<path class="st8" d="M393.1,200.8c0,0.1-0.2,0.2-0.3,0.2c-0.5,4-1.6,6.3-3.6,6.3c-1.3,0-2.2-1.1-2.2-3c0-3,2.4-5.2,5.3-5.2
		c3.3,0,5,2,5,4.5c0,2.7-1.4,4.1-4.3,4.9c-0.2-0.3-0.5-0.8-0.9-1.2c2.6-0.5,3.7-1.8,3.7-3.6c0-1.9-1.3-3.1-3.4-3.1
		c-0.2,0-0.4,0-0.6,0L393.1,200.8z M391.3,200.5c-1.8,0.4-2.9,1.9-2.9,3.6c0,1,0.3,1.7,0.8,1.7C390.3,205.8,391.1,203.3,391.3,200.5
		z"/>
	<path class="st8" d="M408,199.5c0,0.1-0.1,0.1-0.2,0.2c-0.5,1.3-1.5,2.8-2.5,3.8c-0.3-0.2-0.9-0.6-1.3-0.8c0.7-0.6,1.4-1.6,1.7-2.3
		h-7.5V199h8.4l0.2-0.1L408,199.5z M403.5,201.8c0,0.1-0.1,0.2-0.3,0.2c-0.3,2.5-1.3,5.2-3.6,6.6c-0.3-0.3-0.9-0.7-1.3-0.9
		c2.2-1.2,3.1-3.5,3.3-6.1L403.5,201.8z"/>
	<path class="st8" d="M418.6,200.5c0,0.1-0.1,0.2-0.2,0.2c-1,1.5-2.7,3.2-4.3,4.4c0.7,0.5,1.6,1.3,2.1,1.9l-1.3,1.1
		c-1.3-1.5-3.3-3.2-5.1-4.2l1-1c0.7,0.4,1.5,0.9,2.2,1.4c1.2-0.9,2.4-2.1,3.1-3.1h-7.5v-1.4h8.7l0.2-0.1L418.6,200.5z"/>
	<path class="st8" d="M421.8,203.5c-0.3-0.9-1.1-2.3-1.9-3.3l1.3-0.6c0.7,0.8,1.6,2.3,2,3.2L421.8,203.5z M428.8,200.4
		c0,0.1-0.1,0.2-0.3,0.2c-1.2,4-3.3,6.5-6.5,7.8c-0.2-0.3-0.7-0.8-1-1.1c3.1-1.2,5-3.5,6.1-7.5L428.8,200.4z M425.5,197.9
		c0.5,0.4,1,1.2,1.3,1.6l-0.7,0.5c-0.3-0.4-0.9-1.3-1.3-1.7L425.5,197.9z M427.8,197.7c0.5,0.5,1,1.1,1.3,1.6l-0.7,0.5
		c-0.3-0.5-0.9-1.2-1.3-1.6L427.8,197.7z"/>
	<path class="st8" d="M430.8,199.1c1.2,0.4,2.6,1,3.4,1.5l-0.8,1.3c-0.8-0.6-2.2-1.2-3.3-1.6L430.8,199.1z M430.4,207
		c3.9-1.2,6.6-3.5,8-6.7c0.4,0.3,0.9,0.6,1.4,0.9c-1.4,3.2-4.2,5.6-8.1,7c0,0.1-0.1,0.3-0.2,0.3L430.4,207z"/>
	<path class="st8" d="M446.6,200.8c0,0.1-0.2,0.2-0.3,0.2c-0.5,4-1.6,6.3-3.6,6.3c-1.3,0-2.2-1.1-2.2-3c0-3,2.4-5.2,5.3-5.2
		c3.3,0,5,2,5,4.5c0,2.7-1.4,4.1-4.3,4.9c-0.2-0.3-0.5-0.8-0.9-1.2c2.6-0.5,3.7-1.8,3.7-3.6c0-1.9-1.3-3.1-3.4-3.1
		c-0.2,0-0.4,0-0.6,0L446.6,200.8z M444.8,200.5c-1.8,0.4-2.9,1.9-2.9,3.6c0,1,0.3,1.7,0.8,1.7C443.9,205.8,444.6,203.3,444.8,200.5
		z"/>
	<path class="st8" d="M318.9,213.1v1.3h-2.2l0.3,0.1c0,0.1-0.1,0.1-0.3,0.2c-0.1,0.3-0.3,0.6-0.5,0.9h2.2v6c0,1.3-0.6,1.5-2.6,1.5
		c-0.1-0.3-0.2-0.7-0.3-1.1h-2.8v0.7h-1.2v-3.7h4.6v2.8h0.8c0.2,0,0.3-0.1,0.3-0.2v-3.1c-0.2,0.1-0.4,0.1-0.6,0.1h-1
		c-1.1,0-1.3-0.3-1.3-1.3v-0.5H313c-0.1,1.1-0.5,1.9-2.3,2.3c-0.1-0.2-0.3-0.5-0.5-0.8v4.7H309v-7.5h2.1c-0.1-0.3-0.3-0.7-0.4-1
		l0.4-0.1h-2.7v-1.3h4.5v-1.1l1.7,0.1c0,0.1-0.1,0.2-0.3,0.2v0.8H318.9z M310.3,216.6v1.3c1.1-0.2,1.5-0.6,1.6-1.3H310.3z
		 M312.1,214.3c0.2,0.4,0.4,0.8,0.4,1.1h2.1c0.2-0.3,0.3-0.7,0.4-1.1H312.1z M314.7,220.8v-0.9h-2.1v0.9H314.7z M316.2,217.4
		c0.2,0,0.2,0,0.3-0.3c0.1,0.1,0.3,0.2,0.5,0.2v-0.7h-1.7v0.5c0,0.2,0,0.3,0.3,0.3H316.2z"/>
	<path class="st8" d="M320.2,222.9v-5.1h4.5v5.1h-1.4v-0.4h-1.8v0.4H320.2z M323.3,219.1h-1.8v2h1.8V219.1z M328.3,212.3v4.5h-6.2
		v-4.5H328.3z M326.9,215.5v-1.8h-3.4v1.8H326.9z M325.7,217.8h4.6v5h-1.4v-0.3H327v0.4h-1.3V217.8z M327,221.1h1.9v-2H327V221.1z"
		/>
	<path class="st8" d="M331.2,217.9c0.8-0.9,2.4-2.7,3.2-3.5c0.4-0.4,0.8-0.6,1.2-0.6c0.4,0,0.8,0.2,1.2,0.6c1.4,1.2,3.8,3.9,5.4,5.8
		l-1.2,1.2c-1.4-2-3.9-4.8-4.8-5.7c-0.2-0.2-0.4-0.3-0.5-0.3c-0.1,0-0.3,0.1-0.5,0.4c-0.4,0.5-1.8,2.2-2.5,3c0,0.1,0,0.3-0.2,0.4
		L331.2,217.9z M340,212.2c0.7,0,1.3,0.6,1.3,1.3c0,0.7-0.6,1.3-1.3,1.3s-1.3-0.6-1.3-1.3C338.7,212.7,339.3,212.2,340,212.2z
		 M340.8,213.4c0-0.5-0.4-0.8-0.8-0.8c-0.5,0-0.8,0.4-0.8,0.8s0.4,0.8,0.8,0.8C340.4,214.2,340.8,213.8,340.8,213.4z"/>
	<path class="st8" d="M343,216.5h9.7v1.5h-9.2c-0.1,0.1-0.2,0.2-0.4,0.2L343,216.5z"/>
	<path class="st8" d="M354.5,215.6c1,0.3,2.2,0.7,3,1.1l-0.6,1.3c-0.8-0.4-2-0.9-3-1.1L354.5,215.6z M354.8,221
		c3.5-1.1,6.2-3,7.7-6.4c0.3,0.3,1,0.8,1.3,1c-1.6,3.3-4.4,5.5-7.7,6.6c0,0.1,0,0.2-0.2,0.3L354.8,221z M355.9,212.7
		c1,0.3,2.2,0.7,3,1.1l-0.7,1.2c-0.8-0.5-1.9-0.9-2.9-1.2L355.9,212.7z M361.1,212.3c0.5,0.4,1.1,1.1,1.4,1.6l-0.7,0.5
		c-0.3-0.5-0.9-1.3-1.3-1.6L361.1,212.3z M362.9,211.7c0.5,0.4,1.1,1.1,1.4,1.6l-0.7,0.5c-0.3-0.5-0.9-1.2-1.3-1.6L362.9,211.7z"/>
	<path class="st8" d="M364.5,213.4c0.4,0,0.9,0,1.2,0c1.3-0.1,6.4-0.4,8.3-0.5l0,1.6c-1,0-1.6,0.1-2.5,0.7c-1.3,0.8-2.9,2.5-2.9,3.8
		c0,1.3,1.2,2.1,3.7,2.4l-0.7,1.5c-3.3-0.4-4.6-1.8-4.6-3.8c0-1.4,1.3-3.3,3-4.5c-1.4,0.1-4.1,0.3-5.2,0.5c0,0.1-0.2,0.2-0.3,0.2
		L364.5,213.4z M372.3,216.1c0.5,0.4,1.1,1.1,1.4,1.6l-0.7,0.5c-0.3-0.5-1-1.2-1.4-1.6L372.3,216.1z M373.7,215.1
		c0.5,0.4,1.1,1,1.4,1.6l-0.7,0.5c-0.3-0.4-0.9-1.2-1.4-1.6L373.7,215.1z"/>
	<path class="st8" d="M383.9,221.8c-0.9,0.2-2.3,0.2-3.5,0.2c-1,0-1.9-0.1-2.4-0.2c-1.5-0.3-2.1-1.3-2.1-2.4c0-0.9,0.5-1.8,1.1-2.4
		l1.3,0.6c-0.5,0.5-0.8,1.1-0.8,1.6c0,1.4,1.7,1.4,2.8,1.4c1.2,0,2.5-0.1,3.6-0.3L383.9,221.8z M378.2,215.8c0.4-0.3,1-0.8,1.5-1v0
		c-0.6,0.1-2.2,0.1-3.2,0.1c0-0.4,0-1.1,0-1.4c0.2,0,0.5,0,0.8,0c2.1,0,4.2,0,5.9-0.3l0.1,1.5c-1.7,0.3-3.1,1.3-3.8,1.8L378.2,215.8
		z M383.6,217.7c-0.3-0.4-1-1.2-1.4-1.5l0.6-0.5c0.5,0.4,1.1,1,1.5,1.5L383.6,217.7z M384.9,216.5c-0.3-0.4-1-1.1-1.4-1.5l0.6-0.5
		c0.5,0.4,1.1,1,1.5,1.5L384.9,216.5z"/>
	<path class="st8" d="M396.9,221.3v1.1h-4.4v0.5h-1.3v-4.4c-0.2,0.2-0.4,0.3-0.6,0.5c-0.1-0.3-0.3-0.7-0.5-1.1v3.7H388v1h-1.1v-3.2
		c-0.1,0.2-0.3,0.5-0.5,0.7c-0.1-0.3-0.5-1-0.7-1.3c0.8-1.1,1.2-2.9,1.5-4.9H386v-1.3h4.3v0.7h2.4c0.1-0.4,0.2-0.9,0.3-1.4l1.6,0.3
		c0,0.1-0.1,0.2-0.3,0.2c-0.1,0.3-0.1,0.6-0.2,0.9h2.7v2.3h-1.2v-0.2c0,0-0.1,0-0.1,0c-0.1,0.2-0.2,0.5-0.3,0.8h1.6v1.2h-1.8v0.7
		h1.5v1h-1.5v0.7h1.5v1h-1.5v0.7H396.9z M388.9,220.4v-2.9H388v2.9H388.9z M390.1,216.2v1.4c0.9-0.7,1.7-1.8,2.2-3.2h-0.8v1.1h-1.2
		v-1.6h-1.7c-0.1,0.8-0.3,1.6-0.5,2.4H390.1z M393.5,217.9v-0.7h-1v0.7H393.5z M393.5,219.6v-0.7h-1v0.7H393.5z M392.5,220.6v0.7h1
		v-0.7H392.5z M395.5,214.4h-1.8c-0.2,0.6-0.5,1.1-0.7,1.7h0.8c0.2-0.4,0.3-0.9,0.5-1.3l1.3,0.4V214.4z"/>
	<path class="st8" d="M401.7,213.9v1.1h-4.2v-1.1H401.7z M401.4,218.7v2.8c0.4-0.6,0.7-1.5,0.8-2.4l1.1,0.3c-0.1,1-0.3,2.1-0.9,2.8
		l-1-0.6v0.6h-2.3v0.5H398v-4H401.4z M401.4,215.5v1.1H398v-1.1H401.4z M398,218.2v-1h3.4v1H398z M401.4,212.3v1.1h-3.3v-1.1H401.4z
		 M400.3,221.2v-1.3h-1.1v1.3H400.3z M408.1,212.8c-0.2,4.7-0.3,4.7-2.7,4.6c0-0.4-0.2-0.9-0.3-1.2l0.2,0c-0.2-0.1-0.5-0.3-0.7-0.4
		c-0.4,0.8-1,1.5-2,2c-0.2-0.3-0.5-0.8-0.8-1c0.8-0.4,1.3-1,1.7-1.6c-0.4-0.2-0.9-0.4-1.3-0.5l0.7-1c0.3,0.1,0.7,0.2,1.1,0.4
		c0.1-0.2,0.1-0.4,0.2-0.7h-1.8v-1.2h4.8l0.3,0l0.7,0.1L408.1,212.8z M404.8,221.2c0,0.3,0,0.3,0.2,0.3h0.5c0.2,0,0.2-0.1,0.3-1.1
		c0.2,0.2,0.8,0.4,1.1,0.5c-0.1,1.5-0.5,1.8-1.2,1.8h-0.8c-1,0-1.3-0.4-1.3-1.5v-2.4l1.6,0.1c0,0.1-0.1,0.2-0.3,0.2V221.2z
		 M405.6,219.4c-0.4-0.5-1.2-1.2-2-1.6l0.9-0.8c0.7,0.4,1.6,1.1,2,1.6L405.6,219.4z M405.5,216.2c0.3,0,0.5,0,0.6,0
		c0.1,0,0.2,0,0.3-0.1c0.2-0.2,0.3-0.9,0.3-2.6h-1.5c-0.1,0.4-0.2,0.8-0.3,1.2c0.4,0.2,0.8,0.4,1.1,0.6L405.5,216.2z M407.4,222.3
		c-0.1-0.8-0.6-2-1.2-2.9l1.1-0.5c0.6,0.9,1.1,2.1,1.3,2.9L407.4,222.3z"/>
	<path class="st8" d="M415.1,222.8c-1-1.2-2.7-2.8-4.5-4.1c-0.7-0.5-0.9-0.9-0.9-1.4c0-0.4,0.1-0.7,0.5-1.1c1.2-1.1,3.2-3.1,4.1-4.1
		l1.7,1.1c-0.1,0.1-0.2,0.2-0.5,0.1c-1.1,1-2.7,2.4-3.7,3.3c-0.3,0.3-0.5,0.5-0.5,0.7c0,0.2,0.3,0.4,0.7,0.7c1.4,1,3,2.4,4.4,3.8
		L415.1,222.8z"/>
	<path class="st8" d="M424.3,215c-0.9,0.3-2,0.5-3.2,0.6c-0.5,2.4-1.2,5.1-2,7l-1.5-0.5c0.9-1.8,1.6-4,2-6.4c-0.2,0-1,0-1.2,0
		c-0.2,0-0.5,0-0.7,0l0-1.4c0.4,0,1,0,1.5,0c0.2,0,0.4,0,0.6,0c0.1-0.7,0.2-1.5,0.2-2.1l1.9,0.2c0,0.1-0.2,0.2-0.3,0.3
		c-0.1,0.4-0.2,1-0.2,1.6c0.9-0.1,1.9-0.3,2.7-0.6L424.3,215z M427.4,222.4c-0.4,0-0.8,0-1.2,0c-0.9,0-1.9-0.1-2.4-0.2
		c-1-0.2-1.5-1-1.5-1.8c0-0.6,0.3-1.2,0.7-1.7l1.2,0.5c-0.4,0.4-0.5,0.7-0.5,1c0,0.6,0.6,0.8,2.2,0.8c0.5,0,1.1,0,1.5-0.1
		L427.4,222.4z M423,216.5c1.2-0.4,2.8-0.6,4.1-0.6v1.4c-1.3,0-2.7,0.1-3.8,0.4L423,216.5z M425,212.5c0.5,0.4,1.2,1,1.5,1.5
		l-0.7,0.6c-0.3-0.4-1-1.2-1.4-1.5L425,212.5z M426.6,211.8c0.5,0.4,1.2,1,1.5,1.5l-0.7,0.6c-0.3-0.4-1-1.1-1.4-1.5L426.6,211.8z"/>
	<path class="st8" d="M438,215.1c-0.9,0.2-2.3,0.4-3.5,0.5c0.4,1.3,1,2,2,2.5l-1,1.2c-0.4-0.4-1.1-0.8-2.5-0.8l-0.4-1.2
		c0.4,0,0.9,0,1.2,0.1c-0.3-0.4-0.5-1-0.8-1.8c-0.5,0-0.9,0-1.5,0c-0.7,0-2.1,0-2.9,0l0-1.4c0.7,0,1.5,0,2.9,0c0.4,0,0.8,0,1.2,0
		c-0.1-0.6-0.2-1.4-0.3-2.1l2,0c0,0.1-0.1,0.3-0.3,0.3c0,0.6,0.1,1.1,0.2,1.7c1.2-0.1,2.7-0.3,3.6-0.6L438,215.1z M435.8,222.4
		c-0.6,0-1.3,0-2.1,0c-2.8,0-4.2-1.1-4.2-2.5c0-0.7,0.3-1.3,1-2l1.1,0.8c-0.5,0.4-0.6,0.7-0.6,1.1c0,0.9,1.1,1.2,2.8,1.2
		c0.9,0,1.6,0,2.2-0.1L435.8,222.4z"/>
	<path class="st8" d="M441.2,213.6c0,0.1-0.2,0.2-0.3,0.2c-0.2,0.9-0.3,2.1-0.3,3.2c0,2.6,0.7,3.5,1.4,3.5c0.4,0,0.9-1.2,1.1-2.1
		c0.3,0.3,0.8,0.7,1.2,0.9c-0.6,1.9-1.3,2.8-2.4,2.8c-1.8,0-2.7-2.2-2.8-4.1c0-0.4,0-0.9,0-1.3c0-1.1,0.1-2.2,0.2-3.3L441.2,213.6z
		 M447.7,219.2c-0.3-2.1-1.3-3.3-2.7-4.2l0.9-1.1c1.6,0.9,3,2.5,3.4,4.8L447.7,219.2z"/>
	<path class="st8" d="M452.9,221.3c0,0.9-0.7,1.6-1.6,1.6c-0.9,0-1.6-0.7-1.6-1.6c0-0.9,0.7-1.6,1.6-1.6
		C452.2,219.6,452.9,220.4,452.9,221.3z M452.3,221.3c0-0.6-0.5-1.1-1.1-1.1c-0.6,0-1.1,0.5-1.1,1.1c0,0.6,0.5,1.1,1.1,1.1
		C451.9,222.4,452.3,221.8,452.3,221.3z"/>
</g>
<g>
	<g>
		<g>
			<rect x="64.9" y="77.2" class="st223" width="64.7" height="90.8"/>
			<pattern  id="SVGID_10_" xlink:href="#SVGID_8_" patternTransform="matrix(0.1262 0 0 -0.1262 -13426.1113 -224.4373)">
			</pattern>
			<rect x="64.9" y="77.2" style="opacity:0.5;fill:url(#SVGID_10_);enable-background:new    ;" width="64.7" height="90.9"/>
		</g>
		<g>
			<g>
				<defs>
					<rect id="SVGID_132_" x="64.9" y="111.5" width="64.7" height="56.4"/>
				</defs>
				<clipPath id="SVGID_11_">
					<use xlink:href="#SVGID_132_"  style="overflow:visible;"/>
				</clipPath>
			</g>
			<g>
				<defs>
					<rect id="SVGID_134_" x="64.9" y="111.5" width="64.7" height="56.4"/>
				</defs>
				<defs>
					<rect id="SVGID_135_" x="64.9" y="111.5" width="64.7" height="56.4"/>
				</defs>
				<clipPath id="SVGID_12_">
					<use xlink:href="#SVGID_134_"  style="overflow:visible;"/>
				</clipPath>
				<clipPath id="SVGID_13_" style="clip-path:url(#SVGID_12_);">
					<use xlink:href="#SVGID_135_"  style="overflow:visible;"/>
				</clipPath>
				<g style="clip-path:url(#SVGID_13_);">
					<path class="st227" d="M136.9,149c0,12.3-17.6,22.4-39.3,22.4s-39.3-10-39.3-22.4s17.6-22.4,39.3-22.4S136.9,136.6,136.9,149z"
						/>
					<path class="st3" d="M136.9,147.6c0,12.3-17.6,22.4-39.3,22.4s-39.3-10-39.3-22.4c0-12.3,17.6-22.4,39.3-22.4
						C119.3,125.3,136.9,135.2,136.9,147.6z"/>
					<path class="st227" d="M97.6,168.3c-10.2,0-19.8-2.3-26.9-6.3c-6.9-3.9-10.7-9-10.7-14.4c0-5.3,3.8-10.5,10.7-14.4
						c7.2-4.1,16.7-6.3,26.9-6.3s19.8,2.3,26.9,6.3c6.9,3.9,10.7,9,10.7,14.4c0,5.3-3.8,10.5-10.7,14.4
						C117.4,166,107.9,168.3,97.6,168.3z M97.6,127.4c-10.1,0-19.6,2.2-26.7,6.3c-6.7,3.8-10.4,8.7-10.4,13.9s3.7,10.1,10.4,14
						c7.1,4,16.6,6.3,26.7,6.3c10.1,0,19.6-2.2,26.7-6.3c6.7-3.8,10.4-8.8,10.4-14s-3.7-10.1-10.4-14
						C117.3,129.6,107.8,127.4,97.6,127.4z"/>
					<path class="st228" d="M98.7,126.1c1.6-0.4,3.3-0.4,4.9-0.3c1.3,0.1,1,0.3,2,0.9c0.5,0.3,0.9,0.3,1.5,0.6c1,0.3,1,0.8,1.7,1.6
						c1.7,1.8,5.3,0.3,6.9,2.7c0.3,0.6,0,1.4,0.3,1.8c0.3,0.5,0.3,0.2,0.9,0.5c0.9,0.7,1.5,1.2,2.3,2.2c1,1.1,2.4,1.3,3.1,2.8
						c0.9,1.7,1,3,1,4.8c0,1.5,0.3,2.4,0.8,3.7c0.4,1.3,1.6,3.1,1.1,4.5c-0.4,1.4-2.2,2.4-2.8,3.6c-0.5,1.2-0.3,1.9-1.7,2.5
						c-1.6,0.5-3.7,0.2-5.2,0.7c-1.6,0.5-0.4,2.1-1.5,3.1c-1.2,1.2-4.8,1.2-6.4,1.1c-1.5-0.1-2.7-0.9-4.3-0.7
						c-1.2,0.1-1.6,0.7-2.5,1.4c-1.1,0.8-2.5,1.4-3.9,1.5c-2.2,0.2-4.5-0.8-6.6-1.3c-2.5-0.6-5.2-0.8-7.6-2.2c-1.6-1-2.3-2-4.2-2.1
						c-1,0-1.7,0.2-2.6-0.5c-1.8-1.4-0.3-2.6-0.7-4.3c-1.7,0.1-3.8-1.9-4.4-3.3c-0.6-1.3-1.7-3.6-1.4-5c0.2-0.8,0.5-1,0.8-1.7
						c0.3-0.8,0.2-1.4,0.3-2.3c0.3-2.3,2.2-3.2,4-4c1.7-0.8,1-1.3,1.7-2.7c1.1-2.2,3.8-1.7,5.8-2c2.5-0.4,1.9-3.3,3.8-4.2
						c1.5-0.8,2.5,0.7,3.6-0.8c0.4-0.6,0.2-1,1-1.7c1-0.8,2.1-1.3,3.4-1.1c0.3,0,0.5,0.5,0.9,0.5c0.4,0,0.7-0.3,1-0.5
						C96.8,125.6,97.5,125.3,98.7,126.1z"/>
					<path class="st229" d="M79.4,149.7c-1,0-1.8-0.3-2.4-1.1c-0.5-0.7-1.2-2.2-0.9-3.1c0.1-0.3,0.3-0.3,0.6-0.3
						c0.3,0.1,0.3,0.3,0.3,0.6c-0.2,0.5,0.3,1.6,0.7,2.3c0.9,1.2,2.8,0.6,4.3,0.2h0.2c1.5-0.4,3-0.9,4.2-1.6c1-0.6,1.7-1.7,2.3-2.8
						c0.3-0.5,0.5-1,0.9-1.6c0.5-0.9,1-1.8,1.5-2.7c0.2-0.3,0.3-0.5,0.4-0.9c0.2-0.4,0.3-0.9,0.6-1.2c0.2-0.3,0.4-0.3,0.7-0.1
						c0.3,0.2,0.3,0.4,0.1,0.7c-0.2,0.3-0.3,0.6-0.5,1c-0.2,0.3-0.3,0.7-0.4,1c-0.5,0.9-1,1.7-1.5,2.7c-0.3,0.5-0.5,1-0.9,1.6
						c-0.6,1.1-1.3,2.4-2.6,3.1c-1.3,0.8-2.9,1.2-4.3,1.7l-0.2,0.1C81.5,149.3,80.4,149.7,79.4,149.7z"/>
					<path class="st229" d="M79.7,146.7c-0.7,0-1.2-0.2-1.7-0.5c-0.3-0.3-0.6-0.8-0.3-1.7c0.5-2.1,2.4-2.4,4.1-2.7
						c1.9-0.3,3.1-0.6,3.4-2c0.1-0.3,0.3-0.4,0.6-0.3s0.4,0.3,0.3,0.6c-0.4,2.2-2.4,2.5-4.2,2.8c-1.8,0.3-3.1,0.6-3.3,2
						c-0.1,0.3-0.1,0.6,0.1,0.8c0.2,0.2,1,0.5,3.8-0.3c1.3-0.3,2.4-1.1,3.2-1.8c0.2-0.2,0.3-0.3,0.5-0.4c0.5-0.3,1-0.8,1.4-1.2
						c0.1-0.2,0.2-0.4,0.3-0.6s0.2-0.3,0.3-0.5c0.1-0.3,0.4-0.3,0.6-0.2c0.3,0.1,0.3,0.4,0.2,0.6c-0.1,0.2-0.1,0.3-0.2,0.4
						c-0.1,0.3-0.2,0.5-0.4,0.8c-0.4,0.6-1,1-1.7,1.5c-0.2,0.1-0.3,0.3-0.5,0.3c-1,0.8-2.2,1.6-3.6,2
						C81.9,146.4,80.8,146.7,79.7,146.7z"/>
					<path class="st230" d="M89,126.8c-1.6-0.1-3.3,0-3.8,1.7c-0.3,1.3-0.3,2.3-1.2,3.4c-0.6,0.7-1.4,0.9-2.2,1.5
						c-0.5,0.4,0,1.6-0.3,2.4s-1.4,1.1-1.2,1.8c0.2,1,1.1,4.7,2.6,4.6c0.6,0,1.3,0.9,2,1.1c0.3,0.2,1-0.4,1.2-0.3
						c0.3,0.2-0.3,1-0.1,1.3c0.3,0.3,1,0.5,1.3,0.7c0.6,0.5,1.5,0.4,1.7,1.1c0.3,1,0,2.1,0.3,3.1c0.3,1.2,0.4,1,1.7,1.3
						c1.2,0.3,1.5,0.8,2.5,1.5c1.7,1,1.6-1.5,3.2-1.7c1-0.2,3.8,2.5,4.8,2.4c1.3-0.1,2.5-0.3,3.8-0.3c0.3,0,1.6,0.2,1.8,0
						c0.5-0.3,0.2-0.9,0.4-1.2c0.5-0.7,1.5-0.4,2.5-0.5c0.1-1.6-0.1-2.5,1-3.8c1.1-1.4,1-2,1-3.8c0-1.6,1-1.3,1.9-2.4
						c2.1-2.5-1.7-4.2-2.7-5.9c-0.5-1,0.1-2-0.5-3.1c-0.7-1-1.8-1.7-2.6-2.7c-1-1.2-1.7-2-3.3-2.5c-1-0.3-1.5-0.4-2.3-1
						c-0.9-0.6-0.9-0.8-2-0.9c-1.3-0.1-2.6,0.7-3.9,0.7c-1.2,0.1-2.4-0.6-3.7-0.3c-0.8,0.2-1.7,0.5-2.4,0.6
						C90.2,125.8,89.4,125.3,89,126.8z"/>
					<g>
						<path class="st231" d="M86.5,138.3c-0.4,0-0.9-0.1-1.1-0.4c-0.3-0.3-0.3-0.8-0.2-1.3c0.1-0.3,0.3-0.4,0.6-0.3s0.4,0.3,0.3,0.6
							s0,0.3,0,0.4c0,0,0.2,0.2,0.8,0.1c0.3,0,0.5,0.2,0.5,0.4c0,0.3-0.2,0.5-0.4,0.5C86.9,138.3,86.7,138.3,86.5,138.3z"/>
						<path class="st232" d="M91.4,137.3c-0.5,0-0.9-0.3-1.2-0.5c-0.2-0.1-0.3-0.2-0.4-0.3c-0.3-0.1-0.3-0.4-0.2-0.6
							c0.1-0.3,0.4-0.3,0.6-0.2c0.2,0.1,0.3,0.3,0.5,0.3c0.4,0.3,0.6,0.4,1,0.3c0.3-0.1,0.5,0,0.6,0.2c0.1,0.3,0,0.5-0.2,0.6
							C91.9,137.3,91.6,137.3,91.4,137.3z"/>
						<path class="st231" d="M94.8,139.3c-0.2,0-0.3,0-0.5-0.1c-0.3,0-0.4-0.3-0.4-0.5s0.3-0.4,0.5-0.4c0.7,0.1,1,0,1.1-0.6
							c0.1-0.3,0.3-0.4,0.6-0.3s0.3,0.3,0.3,0.6C96.2,138.9,95.7,139.3,94.8,139.3z"/>
						<path class="st231" d="M88,132.7c-0.2,0-0.3,0-0.5,0c-0.3,0-0.4-0.3-0.4-0.5s0.3-0.4,0.5-0.4c0.7,0.1,1,0,1.1-0.6
							c0.1-0.3,0.3-0.4,0.6-0.3s0.3,0.3,0.3,0.6C89.4,132.3,88.9,132.7,88,132.7z"/>
						<path class="st231" d="M92.7,144.3c-0.4,0-0.9-0.1-1.1-0.4c-0.3-0.3-0.3-0.8-0.3-1.3c0.1-0.3,0.3-0.4,0.6-0.3s0.4,0.3,0.3,0.6
							s0,0.3,0,0.4c0,0,0.2,0.2,0.8,0.1c0.3,0,0.5,0.2,0.5,0.4s-0.2,0.5-0.4,0.5C93.1,144.3,92.9,144.3,92.7,144.3z"/>
						<path class="st231" d="M97.8,143.1c-0.5,0-0.9-0.3-1.2-0.5c-0.2-0.1-0.3-0.2-0.4-0.3c-0.3-0.1-0.3-0.4-0.2-0.6
							c0.1-0.3,0.4-0.3,0.6-0.2c0.2,0.1,0.3,0.3,0.5,0.3c0.4,0.3,0.6,0.4,1,0.3c0.3-0.1,0.5,0,0.6,0.2c0.1,0.3,0,0.5-0.2,0.6
							C98.2,143,98.1,143.1,97.8,143.1z"/>
						<path class="st231" d="M93.4,149.2c-0.5,0-0.9-0.3-1.2-0.5c-0.2-0.1-0.3-0.2-0.4-0.3c-0.3-0.1-0.3-0.4-0.2-0.6
							c0.1-0.3,0.4-0.3,0.6-0.2c0.2,0.1,0.3,0.3,0.5,0.3c0.4,0.3,0.6,0.4,1,0.3c0.3-0.1,0.5,0,0.6,0.2c0.1,0.3,0,0.5-0.2,0.6
							C94,149.1,93.7,149.2,93.4,149.2z"/>
						<path class="st231" d="M100.6,147c-0.2,0-0.3,0-0.5,0c-0.2,0-0.3,0-0.5,0c-0.3,0-0.5-0.2-0.5-0.4c0-0.3,0.2-0.5,0.4-0.5
							c0.2,0,0.4,0,0.6,0c0.5,0.1,0.8,0.1,1-0.3c0.2-0.3,0.4-0.3,0.7-0.2c0.3,0.2,0.3,0.4,0.2,0.7C101.6,146.9,101,147,100.6,147z"
							/>
						<path class="st232" d="M101.3,143c-0.2,0-0.3,0-0.5-0.1c-0.3,0-0.4-0.3-0.4-0.5s0.3-0.4,0.5-0.4c0.7,0.1,1,0,1.1-0.6
							c0.1-0.3,0.3-0.4,0.6-0.3c0.3,0.1,0.4,0.3,0.3,0.6C102.8,142.6,102.2,143,101.3,143z"/>
					</g>
					<g>
						<path class="st231" d="M94.7,132c-0.4,0-0.9-0.1-1.1-0.4c-0.3-0.3-0.3-0.8-0.2-1.3c0.1-0.3,0.3-0.4,0.6-0.3
							c0.3,0.1,0.4,0.3,0.3,0.6s0,0.3,0,0.4c0,0,0.2,0.2,0.8,0.1c0.3,0,0.5,0.2,0.5,0.4s-0.2,0.5-0.4,0.5C95,132,94.8,132,94.7,132z
							"/>
						<path class="st231" d="M98.6,133.9c-0.5,0-0.9-0.3-1.2-0.5c-0.2-0.1-0.3-0.2-0.4-0.3c-0.3-0.1-0.3-0.4-0.2-0.6
							c0.1-0.3,0.4-0.3,0.6-0.2c0.2,0.1,0.3,0.3,0.5,0.3c0.4,0.3,0.6,0.4,1,0.3c0.3-0.1,0.5,0,0.6,0.2c0.1,0.3,0,0.5-0.2,0.6
							C99,133.8,98.9,133.9,98.6,133.9z"/>
						<path class="st231" d="M102.4,130.4c-0.2,0-0.3,0-0.5-0.1c-0.3,0-0.4-0.3-0.4-0.5c0-0.3,0.3-0.4,0.5-0.4c0.7,0.1,1,0,1.1-0.6
							c0.1-0.3,0.3-0.4,0.6-0.3s0.3,0.3,0.3,0.6C103.8,130,103.3,130.4,102.4,130.4z"/>
						<path class="st231" d="M101,138c-0.4,0-0.9-0.1-1.1-0.4c-0.3-0.3-0.3-0.8-0.2-1.3c0.1-0.3,0.3-0.4,0.6-0.3s0.4,0.3,0.3,0.6
							s0,0.3,0,0.4c0,0,0.2,0.2,0.8,0.1c0.3,0,0.5,0.2,0.5,0.4c0,0.3-0.2,0.5-0.4,0.5C101.3,138,101.1,138,101,138z"/>
						<path class="st232" d="M105.6,136.1c-0.5,0-0.9-0.3-1.2-0.5c-0.2-0.1-0.3-0.2-0.4-0.3c-0.3-0.1-0.3-0.4-0.2-0.6
							c0.1-0.3,0.4-0.3,0.6-0.2c0.2,0.1,0.3,0.3,0.5,0.3c0.4,0.3,0.6,0.4,1,0.3c0.3-0.1,0.5,0,0.6,0.2c0.1,0.3,0,0.5-0.2,0.6
							C106,136,105.9,136.1,105.6,136.1z"/>
						<path class="st231" d="M108.9,137.5c-0.2,0-0.3,0-0.5-0.1c-0.3,0-0.4-0.3-0.4-0.5c0-0.3,0.3-0.4,0.5-0.4c0.7,0.1,1,0,1.1-0.6
							c0.1-0.3,0.3-0.4,0.6-0.3c0.3,0.1,0.4,0.3,0.3,0.6C110.3,137.2,109.8,137.5,108.9,137.5z"/>
					</g>
					<path class="st3" d="M111.8,144.9c-0.9,0.1-0.9,1-1,1.5c-0.2,0.6-0.4,0.8-1,0.9c-0.4,0.1-0.4,0-0.7,0.4
						c-0.2,0.3-0.2,0.4-0.3,0.7c-0.5,0.5-1.7,1-2.1,0.3c0.3-0.1,1.2-0.6,1.4-0.9c0.3-0.4,0-0.9,0.5-1.1c0.2-0.1,0.4,0,0.6-0.1
						c0.3-0.1,0.6-0.3,0.9-0.6C110.4,145.5,110.7,144.9,111.8,144.9z"/>
					<g>
						<path class="st229" d="M109.4,157.5c-0.1,0-0.1,0-0.2,0c-0.3-0.1-0.4-0.3-0.3-0.6c0.3-0.8,0.9-1.1,1.6-1.5
							c0.4-0.3,1-0.5,1.1-0.9c0.6-1,0.7-2.4,0.8-3.8c0-0.4,0.1-0.8,0.1-1.2c0-0.3,0.3-0.4,0.5-0.4s0.4,0.3,0.4,0.5
							c0,0.3-0.1,0.7-0.1,1.1c-0.1,1.4-0.2,3.1-0.9,4.2c-0.3,0.6-1,0.9-1.5,1.2c-0.5,0.3-1,0.5-1.1,1
							C109.8,157.4,109.6,157.5,109.4,157.5z"/>
						<path class="st229" d="M79.2,154.4c-0.9,0-1.7-0.1-2.6-0.3c-1.4-0.5-3.1-1.5-3.4-3.7c0-0.2,0-0.3,0-0.3c0-0.3,0-0.4-0.2-0.6
							s-0.3-0.3-0.6-0.6c-0.3-0.3-0.7-0.5-1-0.9c-0.7-1.2,0.2-2.4,0.8-3.4l0.2-0.3c0.2-0.3,0.4-0.3,0.7-0.2c0.3,0.2,0.3,0.4,0.1,0.7
							L73,145c-0.7,1-1.1,1.7-0.8,2.4c0.2,0.3,0.4,0.4,0.7,0.6c0.3,0.3,0.7,0.4,0.9,0.9c0.3,0.4,0.3,0.8,0.3,1c0,0.1,0,0.2,0,0.3
							c0.2,1.3,1,2.2,2.8,2.9c1,0.4,2.3,0.3,3.4,0.3c0.3,0,0.8,0,1.1,0l0,0c0.2,0,0.4,0,0.6,0c0.7,0,1.8,0.1,2.1-0.3
							c0.2-0.2,0.4-0.3,0.7-0.1c0.2,0.2,0.3,0.4,0.1,0.7c-0.6,0.8-2,0.8-3,0.7c-0.2,0-0.4,0-0.6,0l0,0c-0.3,0-0.7,0-1.1,0
							C80.1,154.3,79.6,154.4,79.2,154.4z"/>
						<path class="st229" d="M74.9,142.6c-0.1,0-0.2,0-0.3-0.1c-0.3-0.2-0.3-0.4-0.2-0.7c0.3-0.3,0.6-0.5,1-0.7
							c0.2-0.1,0.3-0.2,0.4-0.3c0.3-0.3,0.5-0.7,0.8-1.1c0.1-0.3,0.3-0.5,0.3-0.7s0.3-0.3,0.3-0.5c0.3-0.3,0.4-0.5,0.4-0.8
							s0.3-0.4,0.5-0.4c0.3,0,0.4,0.3,0.4,0.5c-0.1,0.5-0.3,1-0.7,1.3c-0.1,0.2-0.3,0.3-0.3,0.4s-0.2,0.4-0.3,0.6
							c-0.3,0.5-0.5,1-1,1.5c-0.2,0.2-0.4,0.3-0.7,0.3c-0.2,0.1-0.4,0.2-0.4,0.3C75.2,142.6,75,142.6,74.9,142.6z"/>
						<path class="st229" d="M82.8,159.6c-0.4,0-0.9,0-1.3,0s-0.8,0-1.2,0c-0.3,0-0.5-0.2-0.5-0.5c0-0.3,0.2-0.5,0.5-0.5
							c0.4,0,0.8,0,1.2,0c1.1,0,2.4,0.1,3.4-0.2c1.4-0.3,2.7-1.7,3.8-2.8l0.7,0.7c-1,1.1-2.5,2.7-4.2,3.1
							C84.3,159.6,83.6,159.6,82.8,159.6z"/>
						<path class="st229" d="M92,162.3c-0.3,0-0.5-0.2-0.5-0.5c0-0.3,0.2-0.5,0.5-0.5c0.9,0,1.5-0.2,2-0.5c0.5-0.3,0.9-0.7,1.4-1.1
							c0.4-0.4,0.9-0.9,1.5-1.2c1.7-1,3.2-1.7,5.2-1.8c0.3,0,0.5,0.2,0.5,0.4s-0.2,0.5-0.4,0.5c-1.7,0.2-3.1,0.7-4.7,1.7
							c-0.4,0.3-0.9,0.7-1.3,1c-0.4,0.4-1,0.9-1.5,1.2C93.9,162.1,93.1,162.3,92,162.3L92,162.3z"/>
						<path class="st229" d="M117.3,154c-0.3,0-0.7-0.1-1-0.3c-0.3-0.2-0.3-0.4-0.2-0.7s0.4-0.3,0.7-0.2c1.2,0.7,2.8-1.2,3.5-2
							c1.1-1.3,0.7-2.7,0.3-4.4l-0.2-0.6c-0.3-0.9-0.1-1.7,0.1-2.4c0.1-0.6,0.3-1.2,0.1-1.8c-0.2-0.7-1.4-2.2-1.9-2.1
							c-0.3,0-0.5-0.2-0.5-0.4c0-0.3,0.2-0.5,0.4-0.5c1.3-0.2,2.8,1.9,3,2.8c0.3,0.8,0.1,1.6-0.1,2.3c-0.1,0.6-0.3,1.2-0.1,1.9
							l0.2,0.6c0.5,1.7,1,3.6-0.4,5.2C120.4,152.3,118.9,154,117.3,154z"/>
						<path class="st229" d="M116,138.1c-0.2,0-0.4-0.2-0.4-0.3c-0.1-0.4-0.1-0.9-0.1-1.2c0-0.5,0-1-0.2-1.3
							c-0.1-0.3-0.2-0.3-0.5-0.3c-0.2-0.1-0.3-0.1-0.4-0.2c-1-0.4-1.2-0.7-1.4-1.5c0-0.2-0.1-0.3-0.1-0.5c-0.1-0.3,0.1-0.5,0.3-0.6
							c0.3-0.1,0.5,0.1,0.6,0.3s0.1,0.4,0.2,0.6c0.1,0.4,0.1,0.4,0.8,0.8c0.2,0.1,0.3,0.1,0.3,0.2c0.3,0.1,0.8,0.3,1,0.9
							c0.3,0.5,0.3,1.2,0.3,1.7c0,0.3,0,0.7,0.1,1c0.1,0.3-0.1,0.5-0.3,0.6C116.1,138.1,116,138.1,116,138.1z"/>
						<path class="st229" d="M107.2,162.4c-0.8,0-1.5-0.2-1.8-0.7c-0.2-0.2-0.1-0.5,0.1-0.7c0.3-0.2,0.5-0.1,0.7,0.1
							c0.3,0.5,2.5,0.2,4.3-0.4c1-0.3,1.7-0.7,2.1-1c0.3-0.2,0.4-0.4,0.7-0.8c0.3-0.4,0.7-0.9,1.2-1.1c0.6-0.3,1.4-0.3,2.2-0.3
							c0.4,0,0.9,0,1.1-0.1c2.3-0.5,3.1-2.2,4.3-4.1l0.4-0.7c0.2-0.3,0.4-0.3,0.7-0.2c0.3,0.2,0.3,0.4,0.2,0.7l-0.5,0.7
							c-1,2-2.2,4-4.9,4.6c-0.4,0.1-0.9,0.1-1.4,0.1c-0.6,0-1.3,0-1.7,0.3c-0.3,0.2-0.6,0.5-1,1c-0.3,0.3-0.5,0.6-0.9,0.9
							c-0.5,0.4-1.3,0.8-2.4,1.2C110.5,161.7,108.6,162.4,107.2,162.4z"/>
					</g>
					<path class="st229" d="M116.4,154.4c-0.3,0-0.5,0-0.9-0.1c-2.2-0.3-2.5-1-2.5-3.1c0-0.3,0.2-0.4,0.5-0.4c0.3,0,0.4,0.3,0.4,0.5
						c-0.1,1.7,0,1.9,1.7,2.1c1.1,0.1,2,0,2.4-0.4c0.3-0.3,0.4-0.9,0.3-1.6c-0.2-1-0.9-1.5-1.7-2.1c-0.5-0.4-1.1-0.8-1.6-1.4
						c-1-1.6-1-3.3-1-4.8c0-0.3,0.2-0.5,0.4-0.5l0,0c0.3,0,0.4,0.2,0.5,0.4c0,1.4,0,2.9,1,4.1c0.3,0.5,0.9,0.9,1.4,1.2
						c0.9,0.6,1.8,1.3,2.1,2.7c0.2,1,0,1.8-0.5,2.4C118.4,154.1,117.5,154.4,116.4,154.4z"/>
					<path class="st229" d="M103.4,158.4c-0.4,0-1-0.1-1.4-0.3c-0.3-0.1-0.4-0.3-0.3-0.6s0.3-0.4,0.6-0.3c1.5,0.4,2.7,0,3.9-1.4
						c0.3-0.3,0.6-0.8,0.9-1.2c0.4-0.6,1-1.3,1.6-1.9c0.3-0.3,0.6-0.4,0.9-0.7c0.4-0.3,0.8-0.6,1-1c0.1-0.3,0.3-0.3,0.6-0.3
						s0.3,0.3,0.3,0.6c-0.3,0.6-0.8,1-1.3,1.3c-0.3,0.2-0.5,0.3-0.7,0.6c-0.5,0.5-1,1.1-1.5,1.8c-0.3,0.4-0.6,0.9-1,1.3
						C105.9,157.8,104.7,158.4,103.4,158.4z"/>
					<path class="st229" d="M102.4,162.6c-0.5,0-1,0-1.6-0.1c-2.1-0.3-3-1.8-3.8-3.2c-0.3-0.6-0.7-1.1-1.1-1.7
						c-1.7-2.1-6.2-5.9-8.7-6.2c-0.3,0-0.4-0.3-0.4-0.5s0.3-0.4,0.5-0.4c3,0.3,7.7,4.5,9.4,6.6c0.5,0.6,0.9,1.2,1.2,1.8
						c0.8,1.3,1.5,2.5,3.1,2.8c2.2,0.3,4.6-0.2,5.9-1.2c0.2-0.2,0.5-0.2,0.7,0.1c0.2,0.2,0.1,0.5-0.1,0.7
						C106.2,162,104.3,162.6,102.4,162.6z"/>
				</g>
			</g>
		</g>
		<polygon class="st233" points="129.6,106 64.6,111.9 64.6,87.2 129.6,81.3 		"/>
		<path class="st234" d="M118.2,85.1l11.5-1l-0.7,19.9l-24.3,2.9c0,0,13.6-12.1,14-15.5C119.1,88.1,118.2,85.1,118.2,85.1z"/>
		<g>
			<path class="st3" d="M77.9,93l0.3,2.7l-0.9,0.1l-0.4-5.2l0.9-0.1l0.2,1.7c1.2,0.2,2.4,0.3,3.5,0.5l0.1,0.9
				C80.1,93.3,78.9,93.1,77.9,93z"/>
			<path class="st3" d="M85,93.6c0.4,0.4,0.8,0.9,1,1.3L85,95c-0.7-1-1.7-2-2.4-2.8l1-0.1c0.3,0.3,0.5,0.6,0.9,1
				c0.9-0.5,1.4-1.2,1.6-2.2l-4.3,0.3l-0.1-0.9L87,90V90C87,91.9,86.3,93,85,93.6z"/>
			<path class="st3" d="M89.4,92l0.3,2.7l-0.9,0.1l-0.4-5.2l0.9-0.1l0.2,1.7c1.2,0.2,2.4,0.3,3.5,0.5l0.1,0.9
				C91.8,92.3,90.5,92.1,89.4,92z"/>
			<path class="st3" d="M95.4,90.3c-0.1,1.3-0.3,2.4-0.5,3.8L94,94.1c0.3-1.2,0.5-2.4,0.6-3.8l-0.9,0.1l-0.1-0.8l1-0.1
				c0-0.3,0-0.4,0-0.7l0.8-0.1c0,0.3,0,0.4-0.1,0.7l2.8-0.3l0.1,0.8L95.4,90.3z M97.5,94c-1.1,0.1-1.7-0.3-1.8-1
				c0-0.4,0.2-0.8,0.3-1l0.9-0.1c-0.2,0.2-0.4,0.6-0.4,1c0,0.3,0.3,0.4,1,0.3c0.5-0.1,1.1-0.2,1.6-0.3l0.1,0.8
				C98.7,93.8,98.2,93.9,97.5,94z M95.8,91.5l-0.1-0.7l3-0.3l0.1,0.7L95.8,91.5z"/>
			<path class="st3" d="M101.6,93.3c-0.1,0-0.2,0-0.3,0l-0.1-0.7c1.6-0.2,2.6-0.6,2.5-1.6c-0.1-0.5-0.4-0.9-1.4-0.8
				c-0.9,0.1-1.7,0.4-2.4,0.7l0-0.7c0.6-0.3,1.6-0.6,2.4-0.7c1.5-0.1,2.1,0.5,2.2,1.4C104.7,92.2,103.8,93.1,101.6,93.3z"/>
			<path class="st3" d="M106.5,92.9l-0.9,0.1c0.3-1,0.4-2.1,0.3-3.3l0.8-0.1C106.7,90.7,106.6,91.8,106.5,92.9z M108.3,89.9
				c0,0.1,0.3,0.3,0.4,0.4c0.3,0.3,0.8,0.6,0.8,1.2c0.1,0.9-0.5,1.5-1.5,1.6c-0.5,0.1-1-0.1-1.2-0.2l-0.1-0.9
				c0.3,0.2,0.7,0.3,1.1,0.3c0.5,0,0.8-0.3,0.8-0.8c0-0.3-0.3-0.6-0.7-1c-0.3-0.2-0.5-0.3-0.6-0.7c0-0.3,0.3-0.7,0.9-1.3l-2,0.2
				l-0.1-0.8l3.4-0.3l0.2,0.8C108.8,89.1,108.3,89.7,108.3,89.9z M110.5,92.5c-0.2-0.9-0.5-2.1-1.1-3.1l0.9-0.1c0.5,1,1,2.1,1.1,3.1
				L110.5,92.5z M110.5,88.8c-0.3,0-0.6-0.3-0.7-0.5c0-0.3,0.3-0.6,0.5-0.7c0.3,0,0.6,0.3,0.7,0.5C111.1,88.5,110.8,88.7,110.5,88.8
				z M110.4,87.9c-0.2,0-0.3,0.2-0.3,0.3c0,0.2,0.2,0.3,0.3,0.3c0.2,0,0.3-0.2,0.3-0.3C110.7,87.9,110.6,87.9,110.4,87.9z"/>
			<path class="st3" d="M113.4,92.6l-0.1-0.8c1.7-0.2,2.5-0.8,2.4-2.4c-0.1-0.6-0.3-1.5-1.1-1.4c-0.9,0.1-1.4,1.4-1.5,2.9l-0.7,0.1
				c-0.1-0.9-0.2-2.2-0.3-3.4l0.8-0.1c0,0.3,0,0.8,0,1.2c0.1-0.3,0.5-1.3,1.7-1.4c1.2-0.1,1.8,1,1.9,2.1
				C116.7,91.3,115.8,92.4,113.4,92.6z"/>
			<path class="st3" d="M73.8,100.8c-0.1,0-0.2,0-0.3,0l-0.1-1.2c2-0.2,4.4-0.3,6.3-0.3l0.1,1.2C77.7,100.5,75.8,100.6,73.8,100.8z
				 M73.7,106.3l-0.2-1.2c2.3-0.2,4.7-0.3,7-0.1l0.1,1.2C78.4,106,75.9,106.1,73.7,106.3z M73.9,103.4l-0.1-1.1
				c1.7-0.1,3.8-0.3,5.7-0.2l0.1,1.2C77.7,103.2,75.9,103.2,73.9,103.4z"/>
			<path class="st3" d="M81.6,102.6l-0.1-1.1l7.3-0.6L89,102L81.6,102.6z"/>
			<path class="st3" d="M92.3,101.4l0.3,3.9l-1.3,0.1l-0.7-7.6l1.2-0.1l0.2,2.4c1.7,0.2,3.5,0.4,5.1,0.7l0.1,1.2
				C95.6,101.8,93.9,101.6,92.3,101.4z"/>
			<path class="st3" d="M99.4,101c-0.4-1-1-2.3-1.6-3.4l1.3-0.1c0.6,1,1.1,2.2,1.6,3.4L99.4,101z M100,104.6l-0.1-1.1
				c2.6-0.9,4.2-2.6,4-6.5l1.3-0.1C105.4,101.5,103.4,103.8,100,104.6z"/>
			<path class="st3" d="M106.8,100.4l-0.1-1.1l7.3-0.6l0.1,1.1L106.8,100.4z"/>
			<path class="st3" d="M118.9,100.4c-1.1,1.5-2.6,2.4-4.1,3l-0.1-1.1c1.9-0.8,3.9-2.6,4.4-5.2l-4.4,0.3l-0.1-1.1l5.9-0.5
				c0,1.3-0.3,2.5-0.9,3.6c0.6,1.1,1.6,1.8,2.4,2.3l0.1,1.3C120.8,102.4,119.7,101.4,118.9,100.4z"/>
		</g>
		<path class="st233" d="M131.4,169.8H63.2V75.3h68.3L131.4,169.8L131.4,169.8z M66.7,166.2h61.1V78.9H66.7V166.2z"/>
		
			<linearGradient id="SVGID_14_" gradientUnits="userSpaceOnUse" x1="71.7341" y1="-2067.3264" x2="80.4635" y2="-2076.0557" gradientTransform="matrix(1 0 0 -1 0 -1913.4622)">
			<stop  offset="0" style="stop-color:#D2BA7F"/>
			<stop  offset="0.3908" style="stop-color:#A67F00"/>
			<stop  offset="0.4183" style="stop-color:#AD8714"/>
			<stop  offset="0.5692" style="stop-color:#CFA878"/>
			<stop  offset="0.8258" style="stop-color:#AD8714"/>
			<stop  offset="1" style="stop-color:#D2BA7F"/>
		</linearGradient>
		<path class="st20" d="M82.3,158.2c0-3.4-2.8-6.2-6.2-6.2c-3.4,0-6.2,2.8-6.2,6.2c0,3.4,2.8,6.2,6.2,6.2
			C79.5,164.4,82.3,161.7,82.3,158.2z"/>
		<g>
			<path class="st137" d="M73,159.5c0.3,0,0.4-0.2,0.5-0.3h0.3l-0.3,0.9h-2l0.1-0.3c1-0.8,1.2-1,1.5-1.3c0.2-0.2,0.3-0.4,0.3-0.8
				c0.1-0.3,0-0.7-0.4-0.7c-0.1,0-0.4,0-0.8,0.6l-0.2-0.1c0.3-0.5,0.8-0.8,1.2-0.8c0.6,0,0.9,0.4,0.8,1c-0.1,0.3-0.3,0.8-1,1.3
				c-0.5,0.4-0.6,0.4-0.8,0.6L73,159.5L73,159.5z"/>
			<path class="st137" d="M74.7,156.7h1.7l-0.2,0.5h-1.4l-0.2,0.7c0.1,0,0.2,0,0.4,0c0.2,0,1.4,0,1.2,1c-0.1,0.6-0.8,1.1-1.7,1.1
				c-0.4,0-0.9-0.2-0.8-0.4c0-0.2,0.2-0.3,0.3-0.3s0.3,0.2,0.3,0.3s0.1,0.3,0.3,0.3c0.4,0,0.9-0.3,1-0.8c0.1-0.7-0.5-0.7-0.9-0.7
				c-0.3,0-0.4,0-0.6,0.1L74.7,156.7z"/>
			<path class="st137" d="M78.1,156.6c0.5,0,1,0.4,0.9,1.7c-0.3,1.2-1,1.7-1.5,1.7c-0.5,0-1-0.5-0.9-1.7
				C76.9,157,77.7,156.6,78.1,156.6z M77.6,159.8c0.2,0,0.6,0,0.9-1.5c0.3-1.5-0.1-1.5-0.3-1.5s-0.6,0-0.9,1.5
				C77.1,159.8,77.4,159.8,77.6,159.8z"/>
			<path class="st137" d="M78.8,160.3c0.1-0.3,0.3-0.3,0.4-0.4c-0.1-0.1-0.2-0.2-0.1-0.2c0-0.2,0.3-0.3,0.3-0.3
				c-0.2-0.1-0.3-0.3-0.3-0.5c0.1-0.3,0.3-0.5,0.7-0.5c0.1,0,0.3,0,0.3,0.1c0.1-0.1,0.3-0.2,0.4-0.2c0.2,0,0.2,0.1,0.2,0.2
				c0,0.1-0.1,0.2-0.2,0.2s-0.1,0-0.1,0h-0.1c-0.1,0-0.1,0-0.1,0c0.1,0.1,0.1,0.2,0.1,0.3c-0.1,0.3-0.3,0.5-0.7,0.5
				c0,0-0.3,0.1-0.3,0.2s0.1,0.1,0.3,0.1c0.3,0,0.8,0,0.7,0.4c-0.1,0.3-0.5,0.6-1,0.6C79.1,160.7,78.8,160.6,78.8,160.3z
				 M79.2,160.3c0,0.2,0.1,0.3,0.3,0.3c0.3,0,0.5-0.2,0.6-0.4c0-0.2-0.2-0.3-0.3-0.3s-0.1,0-0.3,0C79.4,160,79.2,160.1,79.2,160.3z
				 M80.1,158.9c0-0.1,0.1-0.4-0.2-0.4c-0.2,0-0.3,0.1-0.3,0.3c0,0.1-0.1,0.4,0.2,0.4C79.9,159.2,80.1,159.1,80.1,158.9z"/>
		</g>
	</g>
	<g>
		<g>
			<rect x="101.7" y="97.6" class="st223" width="64.7" height="90.8"/>
			<pattern  id="SVGID_15_" xlink:href="#SVGID_9_" patternTransform="matrix(0.1262 0 0 -0.1262 -13384.0117 -247.7371)">
			</pattern>
			<rect x="101.7" y="97.6" style="opacity:0.5;fill:url(#SVGID_15_);enable-background:new    ;" width="64.7" height="90.9"/>
		</g>
		<g>
			<g>
				<defs>
					<rect id="SVGID_139_" x="101.7" y="132" width="64.7" height="56.4"/>
				</defs>
				<clipPath id="SVGID_16_">
					<use xlink:href="#SVGID_139_"  style="overflow:visible;"/>
				</clipPath>
			</g>
			<g>
				<defs>
					<rect id="SVGID_141_" x="101.7" y="132" width="64.7" height="56.4"/>
				</defs>
				<defs>
					<rect id="SVGID_142_" x="101.7" y="132" width="64.7" height="56.4"/>
				</defs>
				<clipPath id="SVGID_17_">
					<use xlink:href="#SVGID_141_"  style="overflow:visible;"/>
				</clipPath>
				<clipPath id="SVGID_18_" style="clip-path:url(#SVGID_17_);">
					<use xlink:href="#SVGID_142_"  style="overflow:visible;"/>
				</clipPath>
				<g style="clip-path:url(#SVGID_18_);">
					<path class="st227" d="M173.7,169.4c0,12.3-17.6,22.4-39.3,22.4s-39.3-10-39.3-22.4c0-12.4,17.6-22.4,39.3-22.4
						S173.7,157,173.7,169.4z"/>
					<path class="st3" d="M173.7,168c0,12.3-17.6,22.4-39.3,22.4s-39.3-10-39.3-22.4c0-12.3,17.6-22.4,39.3-22.4
						C156.1,145.7,173.7,155.7,173.7,168z"/>
					<path class="st227" d="M134.4,188.8c-10.2,0-19.8-2.3-26.9-6.3c-6.9-3.9-10.7-9-10.7-14.4c0-5.3,3.8-10.5,10.7-14.4
						c7.2-4.1,16.7-6.3,26.9-6.3c10.2,0,19.8,2.3,26.9,6.3c6.9,3.9,10.7,9,10.7,14.4c0,5.3-3.8,10.5-10.7,14.4
						C154.2,186.5,144.7,188.8,134.4,188.8z M134.4,147.8c-10.1,0-19.6,2.2-26.7,6.3c-6.7,3.8-10.4,8.8-10.4,14
						c0,5.2,3.7,10.1,10.4,14c7.1,4,16.6,6.3,26.7,6.3c10.1,0,19.6-2.2,26.7-6.3c6.7-3.8,10.4-8.8,10.4-14c0-5.2-3.7-10.1-10.4-14
						C154,150,144.6,147.8,134.4,147.8z"/>
					<path class="st228" d="M135.5,146.5c1.6-0.4,3.3-0.4,4.9-0.3c1.3,0.1,1,0.3,2,0.9c0.5,0.3,0.9,0.3,1.5,0.6c1,0.3,1,0.8,1.7,1.6
						c1.7,1.8,5.3,0.3,6.9,2.7c0.3,0.6,0,1.4,0.3,1.8c0.3,0.5,0.3,0.2,0.9,0.5c0.9,0.7,1.5,1.2,2.3,2.2c1,1.1,2.4,1.3,3.1,2.8
						c0.9,1.7,1,3,1,4.8c0,1.5,0.3,2.4,0.8,3.7c0.4,1.3,1.6,3.1,1.1,4.5c-0.4,1.4-2.2,2.4-2.8,3.6c-0.5,1.2-0.3,1.9-1.7,2.5
						c-1.6,0.5-3.7,0.2-5.2,0.7c-1.6,0.5-0.4,2.1-1.5,3.1c-1.2,1.2-4.8,1.2-6.4,1.1c-1.5-0.1-2.7-0.9-4.3-0.7
						c-1.2,0.1-1.6,0.7-2.5,1.4c-1.1,0.8-2.5,1.4-3.9,1.5c-2.2,0.2-4.5-0.8-6.6-1.3c-2.5-0.6-5.2-0.8-7.6-2.2c-1.6-1-2.3-2-4.2-2.1
						c-1,0-1.7,0.2-2.6-0.5c-1.8-1.4-0.3-2.6-0.7-4.3c-1.7,0.1-3.8-1.9-4.4-3.3c-0.6-1.3-1.7-3.6-1.4-5c0.2-0.8,0.5-1,0.8-1.7
						c0.3-0.8,0.2-1.4,0.3-2.3c0.3-2.3,2.2-3.2,4-4c1.7-0.8,1-1.3,1.7-2.7c1.1-2.2,3.8-1.7,5.8-2c2.5-0.4,1.9-3.3,3.8-4.2
						c1.5-0.8,2.5,0.7,3.6-0.8c0.4-0.6,0.2-1,1-1.7c1-0.8,2.1-1.3,3.4-1.1c0.3,0,0.5,0.5,0.9,0.5c0.4,0,0.7-0.3,1-0.5
						C133.5,146.1,134.4,145.7,135.5,146.5z"/>
					<path class="st229" d="M116.2,170.1c-1,0-1.8-0.3-2.4-1.1c-0.5-0.7-1.2-2.2-0.9-3.1c0.1-0.3,0.3-0.3,0.6-0.3
						c0.3,0.1,0.3,0.3,0.3,0.6c-0.2,0.5,0.3,1.6,0.7,2.3c0.9,1.2,2.8,0.6,4.3,0.2h0.2c1.5-0.4,3-0.9,4.2-1.6c1-0.6,1.7-1.7,2.3-2.8
						c0.3-0.5,0.5-1,0.9-1.6c0.5-0.9,1-1.8,1.5-2.7c0.2-0.3,0.3-0.5,0.4-0.9c0.2-0.4,0.3-0.9,0.6-1.2c0.2-0.3,0.4-0.3,0.7-0.1
						c0.3,0.2,0.3,0.4,0.1,0.7s-0.3,0.6-0.5,1c-0.2,0.3-0.3,0.7-0.4,1c-0.5,0.9-1,1.7-1.5,2.7c-0.3,0.5-0.5,1-0.9,1.6
						c-0.6,1.1-1.3,2.4-2.6,3.1c-1.3,0.8-2.9,1.2-4.3,1.7l-0.2,0.1C118.3,169.8,117.1,170.1,116.2,170.1z"/>
					<path class="st229" d="M116.5,167.2c-0.7,0-1.2-0.2-1.7-0.5c-0.3-0.3-0.6-0.8-0.3-1.7c0.5-2.1,2.4-2.4,4.1-2.7
						c1.9-0.3,3.1-0.6,3.4-2c0.1-0.3,0.3-0.4,0.6-0.3c0.3,0.1,0.4,0.3,0.3,0.6c-0.4,2.2-2.4,2.5-4.2,2.8c-1.8,0.3-3.1,0.6-3.3,2
						c-0.1,0.3-0.1,0.6,0.1,0.8c0.2,0.2,1,0.5,3.8-0.3c1.3-0.3,2.4-1.1,3.2-1.8c0.2-0.2,0.3-0.3,0.5-0.4c0.5-0.3,1-0.8,1.4-1.2
						c0.1-0.2,0.2-0.4,0.3-0.6c0.1-0.2,0.2-0.3,0.3-0.5c0.1-0.3,0.4-0.3,0.6-0.2c0.3,0.1,0.3,0.4,0.2,0.6c-0.1,0.2-0.1,0.3-0.2,0.4
						c-0.1,0.3-0.2,0.5-0.4,0.8c-0.4,0.6-1,1-1.7,1.5c-0.2,0.1-0.3,0.3-0.5,0.3c-1,0.8-2.2,1.6-3.6,2
						C118.7,166.8,117.5,167.2,116.5,167.2z"/>
					<path class="st230" d="M125.7,147.2c-1.6-0.1-3.3,0-3.8,1.7c-0.3,1.3-0.3,2.3-1.2,3.4c-0.6,0.7-1.4,0.9-2.2,1.5
						c-0.5,0.4,0,1.6-0.3,2.4c-0.3,0.8-1.4,1.1-1.2,1.8c0.2,1,1.1,4.7,2.6,4.6c0.6,0,1.3,0.9,2,1.1c0.3,0.2,1-0.4,1.2-0.3
						c0.3,0.2-0.3,1-0.1,1.3c0.3,0.3,1,0.5,1.3,0.7c0.6,0.5,1.5,0.4,1.7,1.1c0.3,1,0,2.1,0.3,3.1c0.3,1.2,0.4,1,1.7,1.3
						c1.2,0.3,1.5,0.8,2.5,1.5c1.7,1,1.6-1.5,3.2-1.7c1-0.2,3.8,2.5,4.8,2.4c1.3-0.1,2.5-0.3,3.8-0.3c0.3,0,1.6,0.2,1.8,0
						c0.5-0.3,0.2-0.9,0.4-1.2c0.5-0.7,1.5-0.4,2.5-0.5c0.1-1.6-0.1-2.5,1-3.8c1.1-1.4,1-2,1-3.8c0-1.6,1-1.3,1.9-2.4
						c2.1-2.5-1.7-4.2-2.7-5.9c-0.5-1,0.1-2-0.5-3.1c-0.7-1-1.8-1.7-2.6-2.7c-1-1.2-1.7-2-3.3-2.5c-1-0.3-1.5-0.4-2.3-1
						c-0.9-0.6-0.9-0.8-2-0.9c-1.3-0.1-2.6,0.7-3.9,0.7c-1.2,0.1-2.4-0.6-3.7-0.3c-0.8,0.2-1.7,0.5-2.4,0.6
						C127,146.2,126.2,145.7,125.7,147.2z"/>
					<g>
						<path class="st231" d="M123.3,158.8c-0.4,0-0.9-0.1-1.1-0.4c-0.3-0.3-0.3-0.8-0.2-1.3c0.1-0.3,0.3-0.4,0.6-0.3
							c0.3,0.1,0.4,0.3,0.3,0.6c-0.1,0.3,0,0.3,0,0.4c0,0,0.2,0.2,0.8,0.1c0.3,0,0.5,0.2,0.5,0.4s-0.2,0.5-0.4,0.5
							C123.7,158.8,123.5,158.8,123.3,158.8z"/>
						<path class="st232" d="M128.2,157.8c-0.5,0-0.9-0.3-1.2-0.5c-0.2-0.1-0.3-0.2-0.4-0.3c-0.3-0.1-0.3-0.4-0.2-0.6
							c0.1-0.3,0.4-0.3,0.6-0.2c0.2,0.1,0.3,0.3,0.5,0.3c0.4,0.3,0.6,0.4,1,0.3c0.3-0.1,0.5,0,0.6,0.2c0.1,0.3,0,0.5-0.2,0.6
							C128.7,157.7,128.4,157.8,128.2,157.8z"/>
						<path class="st231" d="M131.6,159.7c-0.2,0-0.3,0-0.5-0.1c-0.3,0-0.4-0.3-0.4-0.5s0.3-0.4,0.5-0.4c0.7,0.1,1,0,1.1-0.6
							c0.1-0.3,0.3-0.4,0.6-0.3c0.3,0.1,0.3,0.3,0.3,0.6C133,159.3,132.5,159.7,131.6,159.7z"/>
						<path class="st231" d="M124.8,153.1c-0.2,0-0.3,0-0.5,0c-0.3,0-0.4-0.3-0.4-0.5s0.3-0.4,0.5-0.4c0.7,0.1,1,0,1.1-0.6
							c0.1-0.3,0.3-0.4,0.6-0.3s0.3,0.3,0.3,0.6C126.2,152.7,125.7,153.1,124.8,153.1z"/>
						<path class="st231" d="M129.5,164.7c-0.4,0-0.9-0.1-1.1-0.4c-0.3-0.3-0.3-0.8-0.2-1.3c0.1-0.3,0.3-0.4,0.6-0.3
							s0.4,0.3,0.3,0.6s0,0.3,0,0.4c0,0,0.2,0.2,0.8,0.1c0.3,0,0.5,0.2,0.5,0.4c0,0.3-0.2,0.5-0.4,0.5
							C129.9,164.7,129.7,164.7,129.5,164.7z"/>
						<path class="st231" d="M134.6,163.5c-0.5,0-0.9-0.3-1.2-0.5c-0.2-0.1-0.3-0.2-0.4-0.3c-0.3-0.1-0.3-0.4-0.2-0.6
							c0.1-0.3,0.4-0.3,0.6-0.2c0.2,0.1,0.3,0.3,0.5,0.3c0.4,0.3,0.6,0.4,1,0.3c0.3-0.1,0.5,0,0.6,0.2c0.1,0.3,0,0.5-0.2,0.6
							C135.1,163.5,134.8,163.5,134.6,163.5z"/>
						<path class="st231" d="M130.2,169.5c-0.5,0-0.9-0.3-1.2-0.5c-0.2-0.1-0.3-0.2-0.4-0.3c-0.3-0.1-0.3-0.4-0.2-0.6
							c0.1-0.3,0.4-0.3,0.6-0.2c0.2,0.1,0.3,0.3,0.5,0.3c0.4,0.3,0.6,0.4,1,0.3c0.3-0.1,0.5,0,0.6,0.2c0.1,0.3,0,0.5-0.2,0.6
							C130.7,169.5,130.5,169.5,130.2,169.5z"/>
						<path class="st231" d="M137.4,167.4c-0.2,0-0.3,0-0.5,0s-0.3,0-0.5,0c-0.3,0-0.5-0.2-0.5-0.4c0-0.3,0.2-0.5,0.4-0.5
							c0.2,0,0.4,0,0.6,0c0.5,0.1,0.8,0.1,1-0.3c0.2-0.3,0.4-0.3,0.7-0.2c0.3,0.2,0.3,0.4,0.2,0.7
							C138.4,167.3,137.9,167.4,137.4,167.4z"/>
						<path class="st232" d="M138.1,163.4c-0.2,0-0.3,0-0.5-0.1c-0.3,0-0.4-0.3-0.4-0.5s0.3-0.4,0.5-0.4c0.7,0.1,1,0,1.1-0.6
							c0.1-0.3,0.3-0.4,0.6-0.3c0.3,0.1,0.4,0.3,0.3,0.6C139.5,163,139,163.4,138.1,163.4z"/>
					</g>
					<g>
						<path class="st231" d="M131.5,152.5c-0.4,0-0.9-0.1-1.1-0.4c-0.3-0.3-0.3-0.8-0.2-1.3c0.1-0.3,0.3-0.4,0.6-0.3
							s0.4,0.3,0.3,0.6s0,0.3,0,0.4c0,0,0.2,0.2,0.8,0.1c0.3,0,0.5,0.2,0.5,0.4c0,0.3-0.2,0.5-0.4,0.5
							C131.8,152.4,131.6,152.5,131.5,152.5z"/>
						<path class="st231" d="M135.4,154.4c-0.5,0-0.9-0.3-1.2-0.5c-0.2-0.1-0.3-0.2-0.4-0.3c-0.3-0.1-0.3-0.4-0.2-0.6
							c0.1-0.3,0.4-0.3,0.6-0.2c0.2,0.1,0.3,0.3,0.5,0.3c0.4,0.3,0.6,0.4,1,0.3c0.3-0.1,0.5,0,0.6,0.2c0.1,0.3,0,0.5-0.2,0.6
							C135.8,154.3,135.6,154.4,135.4,154.4z"/>
						<path class="st231" d="M139.3,150.9c-0.2,0-0.3,0-0.5-0.1c-0.3,0-0.4-0.3-0.4-0.5s0.3-0.4,0.5-0.4c0.7,0.1,1,0,1.1-0.6
							c0.1-0.3,0.3-0.4,0.6-0.3s0.3,0.3,0.3,0.6C140.7,150.5,140.1,150.9,139.3,150.9z"/>
						<path class="st231" d="M137.8,158.4c-0.4,0-0.9-0.1-1.1-0.4c-0.3-0.3-0.3-0.8-0.2-1.3c0.1-0.3,0.3-0.4,0.6-0.3
							c0.3,0.1,0.4,0.3,0.3,0.6s0,0.3,0,0.4c0,0,0.2,0.2,0.8,0.1c0.3,0,0.5,0.2,0.5,0.4s-0.2,0.5-0.4,0.5S137.9,158.4,137.8,158.4z"
							/>
						<path class="st232" d="M142.4,156.5c-0.5,0-0.9-0.3-1.2-0.5c-0.2-0.1-0.3-0.2-0.4-0.3c-0.3-0.1-0.3-0.4-0.2-0.6
							c0.1-0.3,0.4-0.3,0.6-0.2c0.2,0.1,0.3,0.3,0.5,0.3c0.4,0.3,0.6,0.4,1,0.3c0.3-0.1,0.5,0,0.6,0.2c0.1,0.3,0,0.5-0.2,0.6
							C142.8,156.5,142.6,156.5,142.4,156.5z"/>
						<path class="st231" d="M145.7,158c-0.2,0-0.3,0-0.5-0.1c-0.3,0-0.4-0.3-0.4-0.5s0.3-0.4,0.5-0.4c0.7,0.1,1,0,1.1-0.6
							c0.1-0.3,0.3-0.4,0.6-0.3c0.3,0.1,0.4,0.3,0.3,0.6C147.1,157.5,146.6,158,145.7,158z"/>
					</g>
					<path class="st3" d="M148.5,165.3c-0.9,0.1-0.9,1-1,1.5c-0.2,0.6-0.4,0.8-1,0.9c-0.4,0.1-0.4,0-0.7,0.4
						c-0.2,0.3-0.2,0.4-0.3,0.7c-0.5,0.5-1.7,1-2.1,0.3c0.3-0.1,1.2-0.6,1.4-0.9c0.3-0.4,0-0.9,0.5-1.1c0.2-0.1,0.4,0,0.6-0.1
						c0.3-0.1,0.6-0.3,0.9-0.6C147.1,165.9,147.4,165.2,148.5,165.3z"/>
					<g>
						<path class="st229" d="M146.3,177.9c-0.1,0-0.1,0-0.2,0c-0.3-0.1-0.4-0.3-0.3-0.6c0.3-0.8,0.9-1.1,1.6-1.5
							c0.4-0.3,1-0.5,1.1-0.9c0.6-1,0.7-2.4,0.8-3.8c0-0.4,0.1-0.8,0.1-1.2c0-0.3,0.3-0.4,0.5-0.4c0.3,0,0.4,0.3,0.4,0.5
							c0,0.3-0.1,0.7-0.1,1.1c-0.1,1.4-0.2,3.1-0.9,4.2c-0.3,0.6-1,0.9-1.5,1.2c-0.5,0.3-1,0.5-1.1,1
							C146.6,177.8,146.4,177.9,146.3,177.9z"/>
						<path class="st229" d="M116,174.8c-0.9,0-1.7-0.1-2.6-0.3c-1.4-0.5-3.1-1.5-3.4-3.7c0-0.2,0-0.3,0-0.3c0-0.3,0-0.4-0.2-0.6
							c-0.2-0.2-0.3-0.3-0.6-0.6c-0.3-0.3-0.7-0.5-1-0.9c-0.7-1.2,0.2-2.4,0.8-3.4l0.2-0.3c0.2-0.3,0.4-0.3,0.7-0.2
							c0.3,0.2,0.3,0.4,0.1,0.7l-0.2,0.3c-0.7,1-1.1,1.7-0.8,2.4c0.2,0.3,0.4,0.4,0.7,0.6c0.3,0.3,0.7,0.4,0.9,0.9
							c0.3,0.4,0.3,0.8,0.3,1c0,0.1,0,0.2,0,0.3c0.2,1.3,1,2.2,2.8,2.9c1,0.4,2.3,0.3,3.4,0.3c0.3,0,0.8,0,1.1,0l0,0
							c0.2,0,0.4,0,0.6,0c0.7,0,1.8,0.1,2.1-0.3c0.2-0.2,0.4-0.3,0.7-0.1c0.2,0.2,0.3,0.4,0.1,0.7c-0.6,0.8-2,0.8-3,0.7
							c-0.2,0-0.4,0-0.6,0l0,0c-0.3,0-0.7,0-1.1,0C116.8,174.8,116.4,174.8,116,174.8z"/>
						<path class="st229" d="M111.6,163.1c-0.1,0-0.2,0-0.3-0.1c-0.3-0.2-0.3-0.4-0.2-0.7c0.3-0.3,0.6-0.5,1-0.7
							c0.2-0.1,0.3-0.2,0.4-0.3c0.3-0.3,0.5-0.7,0.8-1.1c0.1-0.3,0.3-0.5,0.3-0.7c0.1-0.2,0.3-0.3,0.3-0.5c0.3-0.3,0.4-0.5,0.4-0.8
							c0-0.3,0.3-0.4,0.5-0.4c0.3,0,0.4,0.3,0.4,0.5c-0.1,0.5-0.3,1-0.7,1.3c-0.1,0.2-0.3,0.3-0.3,0.4c-0.1,0.2-0.2,0.4-0.3,0.6
							c-0.3,0.5-0.5,1-1,1.5c-0.2,0.2-0.4,0.3-0.7,0.3c-0.2,0.1-0.4,0.2-0.4,0.3C112,163,111.8,163.1,111.6,163.1z"/>
						<path class="st229" d="M119.5,180c-0.4,0-0.9,0-1.3,0c-0.4,0-0.8,0-1.2,0c-0.3,0-0.5-0.2-0.5-0.5c0-0.3,0.2-0.5,0.5-0.5
							c0.4,0,0.8,0,1.2,0c1.1,0,2.4,0.1,3.4-0.2c1.4-0.3,2.7-1.7,3.8-2.8l0.7,0.7c-1,1.1-2.5,2.7-4.2,3.1
							C121.2,180,120.4,180,119.5,180z"/>
						<path class="st229" d="M128.8,182.7c-0.3,0-0.5-0.2-0.5-0.5c0-0.3,0.2-0.5,0.5-0.5c0.9,0,1.5-0.2,2-0.5
							c0.5-0.3,0.9-0.7,1.4-1.1c0.4-0.4,0.9-0.9,1.5-1.2c1.7-1,3.2-1.7,5.2-1.8c0.3,0,0.5,0.2,0.5,0.4s-0.2,0.5-0.4,0.5
							c-1.7,0.2-3.1,0.7-4.7,1.7c-0.4,0.3-0.9,0.7-1.3,1c-0.4,0.4-1,0.9-1.5,1.2C130.6,182.5,129.8,182.7,128.8,182.7L128.8,182.7z"
							/>
						<path class="st229" d="M154.1,174.4c-0.3,0-0.7-0.1-1-0.3c-0.3-0.2-0.3-0.4-0.2-0.7c0.2-0.3,0.4-0.3,0.7-0.2
							c1.2,0.7,2.8-1.2,3.5-2c1.1-1.3,0.7-2.7,0.3-4.4l-0.2-0.6c-0.3-0.9-0.1-1.7,0.1-2.4c0.1-0.6,0.3-1.2,0.1-1.8
							c-0.2-0.7-1.4-2.2-1.9-2.1c-0.3,0-0.5-0.2-0.5-0.4s0.2-0.5,0.4-0.5c1.3-0.2,2.8,1.9,3,2.8c0.3,0.8,0.1,1.6-0.1,2.3
							c-0.1,0.6-0.3,1.2-0.1,1.9l0.2,0.6c0.5,1.7,1,3.6-0.4,5.2C157.1,172.7,155.7,174.4,154.1,174.4z"/>
						<path class="st229" d="M152.8,158.6c-0.2,0-0.4-0.2-0.4-0.3c-0.1-0.4-0.1-0.9-0.1-1.2c0-0.5,0-1-0.2-1.3
							c-0.1-0.3-0.2-0.3-0.5-0.3c-0.2-0.1-0.3-0.1-0.4-0.2c-1-0.4-1.2-0.7-1.4-1.5c0-0.2-0.1-0.3-0.1-0.5c-0.1-0.3,0.1-0.5,0.3-0.6
							c0.3-0.1,0.5,0.1,0.6,0.3c0.1,0.3,0.1,0.4,0.2,0.6c0.1,0.4,0.1,0.4,0.8,0.8c0.2,0.1,0.3,0.1,0.3,0.2c0.3,0.1,0.8,0.3,1,0.9
							c0.3,0.5,0.3,1.2,0.3,1.7c0,0.3,0,0.7,0.1,1c0.1,0.3-0.1,0.5-0.3,0.6C152.8,158.6,152.8,158.6,152.8,158.6z"/>
						<path class="st229" d="M144,182.8c-0.8,0-1.5-0.2-1.8-0.7c-0.2-0.2-0.1-0.5,0.1-0.7c0.3-0.2,0.5-0.1,0.7,0.1
							c0.3,0.5,2.5,0.2,4.3-0.4c1-0.3,1.7-0.7,2.1-1c0.3-0.2,0.4-0.4,0.7-0.8c0.3-0.4,0.7-0.9,1.2-1.1c0.6-0.3,1.4-0.3,2.2-0.3
							c0.4,0,0.9,0,1.1-0.1c2.3-0.5,3.1-2.2,4.3-4.1l0.4-0.7c0.2-0.3,0.4-0.3,0.7-0.2s0.3,0.4,0.2,0.7l-0.4,0.7c-1,2-2.2,4-4.9,4.6
							c-0.4,0.1-0.9,0.1-1.4,0.1c-0.6,0-1.3,0-1.7,0.3c-0.3,0.2-0.6,0.5-1,1c-0.3,0.3-0.5,0.6-0.9,0.9c-0.5,0.4-1.3,0.8-2.4,1.2
							C147.2,182.1,145.5,182.8,144,182.8z"/>
					</g>
					<path class="st229" d="M153.2,174.9c-0.3,0-0.5,0-0.9-0.1c-2.2-0.3-2.5-1-2.5-3.1c0-0.3,0.2-0.4,0.5-0.4c0.3,0,0.4,0.3,0.4,0.5
						c-0.1,1.7,0,1.9,1.7,2.1c1.1,0.1,2,0,2.4-0.4c0.3-0.3,0.4-0.9,0.3-1.6c-0.2-1-0.9-1.5-1.7-2.1c-0.5-0.4-1.1-0.8-1.6-1.4
						c-1.1-1.5-1.1-3.2-1.1-4.7c0-0.3,0.2-0.5,0.4-0.5l0,0c0.3,0,0.4,0.2,0.5,0.4c0,1.4,0,2.9,1,4.1c0.3,0.5,0.9,0.9,1.4,1.2
						c0.9,0.6,1.8,1.3,2.1,2.7c0.2,1,0,1.8-0.5,2.4C155.2,174.6,154.3,174.9,153.2,174.9z"/>
					<path class="st229" d="M140.2,178.9c-0.4,0-1-0.1-1.4-0.3c-0.3-0.1-0.4-0.3-0.3-0.6s0.3-0.4,0.6-0.3c1.5,0.4,2.7,0,3.9-1.4
						c0.3-0.3,0.6-0.8,0.9-1.2c0.4-0.6,1-1.3,1.6-1.9c0.3-0.3,0.6-0.4,0.9-0.7c0.4-0.3,0.8-0.6,1-1c0.1-0.3,0.3-0.3,0.6-0.3
						s0.3,0.3,0.3,0.6c-0.3,0.6-0.8,1-1.3,1.3c-0.3,0.2-0.5,0.3-0.7,0.6c-0.5,0.5-1,1.1-1.5,1.8c-0.3,0.4-0.6,0.9-1,1.3
						C142.7,178.3,141.5,178.9,140.2,178.9z"/>
					<path class="st229" d="M139.1,183c-0.5,0-1,0-1.6-0.1c-2.1-0.3-3-1.8-3.8-3.2c-0.3-0.6-0.7-1.1-1.1-1.7
						c-1.7-2.1-6.2-5.9-8.7-6.2c-0.3,0-0.4-0.3-0.4-0.5s0.3-0.4,0.5-0.4c3,0.3,7.7,4.5,9.4,6.6c0.5,0.6,0.9,1.2,1.2,1.8
						c0.8,1.3,1.5,2.5,3.1,2.8c2.2,0.3,4.6-0.2,5.9-1.2c0.2-0.2,0.5-0.2,0.7,0.1c0.2,0.2,0.1,0.5-0.1,0.7
						C143,182.5,141.1,183,139.1,183z"/>
				</g>
			</g>
		</g>
		<polygon class="st233" points="166.5,126.4 101.4,132.4 101.4,107.6 166.5,101.7 		"/>
		<path class="st234" d="M155,105.4l11.5-1l-0.6,19.9l-24.3,2.9c0,0,13.6-12.1,14-15.5C156,108.5,155,105.4,155,105.4z"/>
		<g>
			<path class="st3" d="M114.6,113.5l0.3,2.7l-0.9,0.1l-0.4-5.2l0.9-0.1l0.2,1.7c1.2,0.2,2.4,0.3,3.5,0.5l0.1,0.9
				C117,113.7,115.7,113.6,114.6,113.5z"/>
			<path class="st3" d="M121.9,114.1c0.4,0.4,0.8,0.9,1,1.3l-1,0.1c-0.7-1-1.7-2-2.4-2.8l1-0.1c0.3,0.3,0.5,0.6,0.9,1
				c0.9-0.5,1.4-1.2,1.6-2.2l-4.3,0.3l-0.1-0.8l5.3-0.4v0.1C123.9,112.3,123,113.5,121.9,114.1z"/>
			<path class="st3" d="M126.2,112.4l0.3,2.7l-0.9,0.1l-0.4-5.2l0.9-0.1l0.2,1.7c1.2,0.2,2.4,0.3,3.5,0.5l0.1,0.9
				C128.6,112.8,127.4,112.6,126.2,112.4z"/>
			<path class="st3" d="M132.2,110.8c-0.1,1.3-0.3,2.4-0.5,3.8l-0.9,0.1c0.3-1.2,0.5-2.4,0.6-3.8l-0.9,0.1l-0.1-0.8l1-0.1
				c0-0.3,0-0.4,0-0.7l0.8-0.1c0,0.3,0,0.4-0.1,0.7l2.8-0.3l0.1,0.8L132.2,110.8z M134.3,114.3c-1.1,0.1-1.7-0.3-1.8-1
				c0-0.4,0.2-0.8,0.3-1l0.9-0.1c-0.2,0.2-0.4,0.6-0.4,1c0,0.3,0.3,0.4,1,0.3c0.5-0.1,1.1-0.2,1.6-0.3l0.1,0.8
				C135.5,114.2,134.9,114.3,134.3,114.3z M132.6,112l-0.1-0.8l3-0.3l0.1,0.7L132.6,112z"/>
			<path class="st3" d="M138.4,113.7c-0.1,0-0.2,0-0.3,0L138,113c1.6-0.2,2.6-0.6,2.5-1.6c-0.1-0.5-0.4-0.9-1.4-0.8
				c-0.9,0.1-1.7,0.4-2.4,0.7l-0.1-0.8c0.6-0.3,1.6-0.6,2.4-0.7c1.5-0.1,2.1,0.5,2.2,1.4C141.5,112.6,140.6,113.6,138.4,113.7z"/>
			<path class="st3" d="M143.3,113.3l-0.9,0.1c0.3-1,0.4-2.1,0.3-3.3l0.8-0.1C143.5,111.2,143.5,112.2,143.3,113.3z M145.1,110.3
				c0,0.1,0.3,0.3,0.4,0.4c0.3,0.3,0.8,0.6,0.8,1.2c0.1,0.9-0.5,1.5-1.5,1.6c-0.5,0.1-1-0.1-1.2-0.2l-0.1-0.9
				c0.3,0.2,0.7,0.3,1.1,0.3c0.5,0,0.8-0.3,0.8-0.8c0-0.3-0.3-0.6-0.7-1c-0.3-0.2-0.5-0.3-0.6-0.7c0-0.3,0.3-0.7,0.9-1.3l-2,0.2
				l-0.1-0.8l3.4-0.3l0.1,0.7C145.6,109.5,145.1,110.2,145.1,110.3z M147.3,112.9c-0.2-0.9-0.5-2.1-1.1-3.1l0.9-0.1
				c0.5,1,1,2.1,1.1,3.1L147.3,112.9z M147.3,109.2c-0.3,0-0.6-0.3-0.7-0.5c0-0.3,0.3-0.6,0.5-0.7c0.3,0,0.6,0.3,0.7,0.5
				C147.8,108.8,147.7,109.2,147.3,109.2z M147.2,108.3c-0.2,0-0.3,0.2-0.3,0.3c0,0.2,0.2,0.3,0.3,0.3c0.2,0,0.3-0.2,0.3-0.3
				C147.5,108.4,147.4,108.3,147.2,108.3z"/>
			<path class="st3" d="M150.2,113l-0.1-0.8c1.7-0.2,2.5-0.8,2.4-2.4c-0.1-0.6-0.3-1.5-1.1-1.4c-0.9,0.1-1.4,1.4-1.5,2.9l-0.8,0.1
				c-0.1-0.9-0.2-2.2-0.3-3.4l0.8-0.1c0,0.3,0,0.8,0,1.2c0.1-0.3,0.5-1.3,1.7-1.4c1.2-0.1,1.8,1,1.9,2.1
				C153.5,111.7,152.6,112.9,150.2,113z"/>
			<path class="st3" d="M110.6,121.3c-0.1,0-0.2,0-0.3,0l-0.1-1.2c2-0.2,4.4-0.3,6.3-0.3l0.1,1.2C114.5,121,112.6,121.1,110.6,121.3
				z M110.4,126.8l-0.1-1.2c2.3-0.2,4.7-0.3,7-0.1l0.1,1.2C115.1,126.5,112.7,126.6,110.4,126.8z M110.7,123.9l-0.1-1.1
				c1.7-0.1,3.8-0.3,5.7-0.2l0.1,1.2C114.5,123.6,112.6,123.7,110.7,123.9z"/>
			<path class="st3" d="M118.4,123.1l-0.1-1.1l7.3-0.6l0.1,1.1L118.4,123.1z"/>
			<path class="st3" d="M129,121.9l0.3,3.9l-1.2,0.1l-0.7-7.6l1.2-0.1l0.2,2.4c1.7,0.2,3.5,0.4,5.1,0.7l0.3,1.2
				C132.4,122.3,130.7,122,129,121.9z"/>
			<path class="st3" d="M136.2,121.4c-0.4-1-1-2.3-1.6-3.4l1.3-0.1c0.6,1,1.1,2.2,1.6,3.4L136.2,121.4z M136.8,125.1l-0.1-1.1
				c2.6-0.9,4.2-2.6,4-6.5l1.3-0.1C142.2,121.9,140.2,124.1,136.8,125.1z"/>
			<path class="st3" d="M143.6,120.9l-0.1-1.1l7.3-0.6l0.1,1.1L143.6,120.9z"/>
			<path class="st3" d="M155.7,120.7c-1.1,1.5-2.6,2.4-4.1,3l-0.1-1.1c1.9-0.8,3.9-2.6,4.4-5.2l-4.4,0.3l-0.1-1.1l5.9-0.5
				c0,1.3-0.3,2.5-0.9,3.6c0.6,1.1,1.6,1.8,2.4,2.3l0.1,1.3C157.5,122.7,156.4,121.9,155.7,120.7z"/>
		</g>
		<path class="st239" d="M168.2,190.3H99.9V95.8h68.3V190.3z M103.5,186.7h61.1V99.4h-61.1V186.7z"/>
		
			<linearGradient id="SVGID_19_" gradientUnits="userSpaceOnUse" x1="108.5304" y1="-2087.7698" x2="117.2598" y2="-2096.499" gradientTransform="matrix(1 0 0 -1 0 -1913.4622)">
			<stop  offset="0" style="stop-color:#D2BA7F"/>
			<stop  offset="0.3908" style="stop-color:#A67F00"/>
			<stop  offset="0.4183" style="stop-color:#AD8714"/>
			<stop  offset="0.5692" style="stop-color:#CFA878"/>
			<stop  offset="0.8258" style="stop-color:#AD8714"/>
			<stop  offset="1" style="stop-color:#D2BA7F"/>
		</linearGradient>
		<path class="st25" d="M119.1,178.6c0-3.4-2.8-6.2-6.2-6.2s-6.2,2.8-6.2,6.2c0,3.4,2.8,6.2,6.2,6.2
			C116.3,184.8,119.1,182,119.1,178.6z"/>
		<g>
			<path class="st137" d="M109.8,179.8c0.3,0,0.4-0.2,0.5-0.3h0.3l-0.3,0.9h-2l0.1-0.3c1-0.8,1.2-1,1.5-1.3c0.2-0.2,0.3-0.4,0.3-0.8
				c0.1-0.3,0-0.7-0.4-0.7c-0.1,0-0.4,0-0.8,0.6l-0.2-0.1c0.3-0.5,0.8-0.8,1.2-0.8c0.6,0,0.9,0.4,0.8,1c-0.1,0.3-0.3,0.8-1,1.3
				c-0.5,0.4-0.6,0.4-0.8,0.6H109.8L109.8,179.8z"/>
			<path class="st137" d="M111.5,177h1.7l-0.2,0.5h-1.4l-0.2,0.7c0.1,0,0.2,0,0.4,0c0.2,0,1.4,0,1.2,1c-0.1,0.6-0.8,1.1-1.7,1.1
				c-0.4,0-0.9-0.2-0.8-0.4c0-0.2,0.2-0.3,0.3-0.3c0.2,0,0.3,0.2,0.3,0.3c0,0.1,0.1,0.3,0.3,0.3c0.4,0,0.9-0.3,1-0.8
				c0.1-0.7-0.5-0.7-0.9-0.7c-0.3,0-0.4,0-0.6,0.1L111.5,177z"/>
			<path class="st137" d="M114.9,177c0.5,0,1,0.4,0.9,1.7c-0.3,1.2-1,1.7-1.5,1.7s-1-0.5-0.9-1.7C113.7,177.5,114.4,177,114.9,177z
				 M114.4,180.3c0.2,0,0.6,0,0.9-1.5c0.3-1.5-0.1-1.5-0.3-1.5c-0.2,0-0.6,0-0.9,1.5C113.8,180.2,114.2,180.3,114.4,180.3z"/>
			<path class="st137" d="M115.6,180.7c0.1-0.3,0.3-0.3,0.4-0.4c-0.1-0.1-0.2-0.2-0.1-0.2c0-0.2,0.3-0.3,0.3-0.3
				c-0.2-0.1-0.3-0.3-0.3-0.5c0.1-0.3,0.3-0.5,0.7-0.5c0.1,0,0.3,0,0.3,0.1c0.1-0.1,0.3-0.2,0.4-0.2s0.2,0.1,0.2,0.2
				s-0.1,0.2-0.2,0.2s-0.1,0-0.1,0h-0.1c-0.1,0-0.1,0-0.1,0c0.1,0.1,0.1,0.2,0.1,0.3c-0.1,0.3-0.3,0.5-0.7,0.5c0,0-0.3,0.1-0.3,0.2
				s0.1,0.1,0.3,0.1c0.3,0,0.8,0,0.7,0.4c-0.1,0.3-0.5,0.6-1,0.6C115.8,181.2,115.6,181.1,115.6,180.7z M115.9,180.7
				c0,0.2,0.1,0.3,0.3,0.3c0.3,0,0.5-0.2,0.6-0.4c0-0.2-0.2-0.3-0.3-0.3c-0.1,0-0.1,0-0.3,0C116.2,180.4,116,180.5,115.9,180.7z
				 M116.9,179.3c0-0.1,0.1-0.4-0.2-0.4c-0.2,0-0.3,0.1-0.3,0.3c0,0.1-0.1,0.4,0.2,0.4C116.7,179.7,116.9,179.6,116.9,179.3z"/>
		</g>
	</g>
</g>
</svg>
