<?xml version="1.0" encoding="utf-8"?>
<!-- Generator: Adobe Illustrator 24.0.1, SVG Export Plug-In . SVG Version: 6.00 Build 0)  -->
<svg version="1.1" id="レイヤー_1" xmlns="http://www.w3.org/2000/svg" xmlns:xlink="http://www.w3.org/1999/xlink" x="0px"
	 y="0px" viewBox="0 0 553 265.4" style="enable-background:new 0 0 553 265.4;" xml:space="preserve">
<style type="text/css">
	.st0{fill:#FEFCEE;}
	.st1{fill:#BABABA;}
	.st2{fill:#FFFFFF;}
	.st3{fill:none;stroke:#6B1319;stroke-width:0.3593;stroke-miterlimit:10;}
	.st4{fill:#F4F4F5;}
	.st5{fill:#F9F5D2;}
	.st6{enable-background:new    ;}
	.st7{fill:#040000;}
	.st8{fill:#E6E6E5;}
	.st9{fill:#CFE7F2;}
	.st10{fill:#3794C4;}
	.st11{fill:#727171;}
	.st12{fill:#F7F9FA;}
	.st13{fill:#48A6CE;}
	.st14{fill:url(#SVGID_8_);}
	.st15{fill:none;stroke:#221714;stroke-width:0.1875;}
	.st16{fill:url(#SVGID_9_);}
	.st17{fill:url(#SVGID_10_);}
	.st18{fill:url(#SVGID_11_);}
	.st19{fill:url(#SVGID_12_);}
	.st20{fill:url(#SVGID_13_);}
	.st21{fill:url(#SVGID_14_);}
	.st22{fill:url(#SVGID_15_);}
	.st23{fill:url(#SVGID_16_);}
	.st24{fill:url(#SVGID_17_);}
	.st25{fill:url(#SVGID_18_);}
	.st26{fill:url(#SVGID_19_);}
	.st27{fill:url(#SVGID_20_);}
	.st28{fill:url(#SVGID_21_);}
	.st29{fill:url(#SVGID_22_);}
	.st30{fill:url(#SVGID_23_);}
	.st31{fill:url(#SVGID_24_);}
	.st32{fill:#F0EFEE;}
	.st33{fill:url(#SVGID_25_);}
	.st34{fill:url(#SVGID_26_);}
	.st35{fill:url(#SVGID_27_);}
	.st36{fill:url(#SVGID_28_);}
	.st37{fill:url(#SVGID_29_);}
	.st38{fill:url(#SVGID_30_);}
	.st39{fill:url(#SVGID_31_);}
	.st40{fill:url(#SVGID_32_);}
	.st41{fill:url(#SVGID_33_);}
	.st42{fill:url(#SVGID_34_);}
	.st43{fill:url(#SVGID_35_);}
	.st44{fill:url(#SVGID_36_);}
	.st45{fill:url(#SVGID_37_);}
	.st46{fill:url(#SVGID_38_);}
	.st47{fill:url(#SVGID_39_);}
	.st48{fill:url(#SVGID_41_);}
	.st49{fill:url(#SVGID_42_);}
	.st50{fill:url(#SVGID_43_);}
	.st51{fill:url(#SVGID_44_);}
	.st52{fill:url(#SVGID_45_);}
	.st53{fill:url(#SVGID_46_);}
	.st54{fill:url(#SVGID_47_);}
	.st55{fill:url(#SVGID_48_);}
	.st56{fill:url(#SVGID_49_);}
	.st57{fill:url(#SVGID_50_);}
	.st58{fill:url(#SVGID_51_);}
	.st59{fill:url(#SVGID_52_);}
	.st60{fill:url(#SVGID_53_);}
	.st61{fill:url(#SVGID_54_);}
	.st62{fill:url(#SVGID_55_);}
	.st63{fill:url(#SVGID_56_);}
	.st64{fill:url(#SVGID_57_);}
	.st65{fill:url(#SVGID_58_);}
	.st66{fill:url(#SVGID_59_);}
	.st67{fill:#3E3A39;}
	.st68{fill:#C6BA9A;}
	.st69{fill:#D6CCB5;}
	.st70{fill:#B5B5B6;}
	.st71{fill:#F0EFEF;}
	.st72{fill:#595857;}
	.st73{fill:#DCDDDD;}
	.st74{fill:#CCAC69;}
	.st75{fill:#C9CACA;}
	.st76{fill:#9FA0A0;}
	.st77{fill:#8A8A8A;}
	.st78{opacity:0.75;}
	.st79{fill:#B81C25;}
	.st80{fill:#DE551A;}
	.st81{fill:#E99413;}
	.st82{fill:#F7F9F9;}
	.st83{fill:#E83514;}
	.st84{fill:url(#SVGID_60_);}
	.st85{fill:url(#SVGID_61_);}
	.st86{fill:url(#SVGID_62_);}
	.st87{fill:url(#SVGID_63_);}
	.st88{fill:url(#SVGID_64_);}
	.st89{fill:url(#SVGID_65_);}
	.st90{stroke:#000000;stroke-width:3.0472;stroke-linecap:round;stroke-linejoin:round;stroke-miterlimit:10;}
	.st91{fill:url(#SVGID_66_);stroke:#000000;stroke-width:1.0157;stroke-linecap:round;stroke-linejoin:round;}
	.st92{fill:url(#SVGID_67_);stroke:#000000;stroke-width:1.0157;stroke-linecap:round;stroke-linejoin:round;}
	.st93{fill:url(#SVGID_68_);stroke:#000000;stroke-width:1.0157;stroke-linecap:round;stroke-linejoin:round;}
	.st94{opacity:0.4;fill:#FFFFFF;enable-background:new    ;}
	.st95{fill:none;}
	.st96{fill:#FFFEEE;}
	.st97{fill:none;stroke:#F7EFB8;stroke-width:0.5079;}
	.st98{fill:none;stroke:#F7EFB8;stroke-width:0.2539;stroke-miterlimit:10;}
	.st99{fill:none;stroke:#000000;stroke-width:0.2437;stroke-miterlimit:10;}
	.st100{fill:none;stroke:#000000;stroke-width:1.0157;stroke-linecap:round;stroke-linejoin:round;}
	.st101{fill-rule:evenodd;clip-rule:evenodd;}
	.st102{fill:none;stroke:#000000;stroke-width:0.5079;stroke-miterlimit:10;}
	.st103{fill-rule:evenodd;clip-rule:evenodd;fill:url(#SVGID_69_);}
	.st104{opacity:0.9;fill:#E60012;enable-background:new    ;}
	.st105{fill:#DCDBDA;}
	.st106{opacity:0.9;fill:#FFFFFF;enable-background:new    ;}
	.st107{opacity:0.3;fill:#FFFFFF;enable-background:new    ;}
	.st108{fill:#7E7977;}
	.st109{fill:#EEEAD0;}
	.st110{fill:#DDD9C2;}
	.st111{fill:#D3A243;}
	.st112{fill:none;stroke:#E5E3DA;stroke-width:0.5079;stroke-linecap:round;stroke-linejoin:round;}
	.st113{fill:#CDA774;}
	.st114{fill:#DDB887;}
	.st115{fill:#F3EBDF;}
	.st116{fill:#F8F0E4;}
	.st117{fill:#ECECEC;}
	.st118{fill:url(#SVGID_70_);}
	.st119{fill:url(#SVGID_71_);}
	.st120{fill:#E60012;}
	.st121{fill:#E5D32D;stroke:#A38A77;stroke-width:0.2737;stroke-miterlimit:10;}
	.st122{fill:#E3D172;stroke:#C79F62;stroke-width:0.2737;stroke-miterlimit:10;}
	.st123{fill:#E3D172;}
	.st124{fill:#EEEEEF;stroke:#C8C9CA;stroke-width:0.2052;stroke-miterlimit:10;}
	.st125{fill:#804F21;}
	.st126{fill:none;stroke:#A38A77;stroke-width:0.2737;stroke-miterlimit:10;}
	.st127{fill:none;stroke:#E5D32D;stroke-width:0.5473;stroke-miterlimit:10;}
	.st128{fill:#DBDCDC;stroke:#C4C7C4;stroke-width:0.2737;stroke-miterlimit:10;}
	.st129{fill:#EEEEEF;}
	.st130{fill:#E8E8DC;}
	.st131{fill:#E62C0F;}
	.st132{fill:#F7B52C;stroke:#DB9F09;stroke-width:0.2737;stroke-miterlimit:10;}
	.st133{fill:#44AF35;stroke:#448A3E;stroke-width:0.2737;stroke-miterlimit:10;}
	.st134{fill:#734C22;}
	.st135{fill:none;stroke:#FFFFFF;stroke-width:1.3684;}
	.st136{fill:#946134;}
	.st137{fill:#231815;}
	.st138{fill:#C79F62;stroke:#946134;stroke-width:4.194518e-02;}
	.st139{fill:none;stroke:#946134;stroke-width:4.194518e-02;}
	.st140{fill:#40210F;stroke:#946134;stroke-width:4.194518e-02;}
	.st141{fill:#FFFFFF;stroke:#6A3906;stroke-width:4.194518e-02;}
	.st142{fill:url(#SVGID_72_);}
	.st143{fill:url(#SVGID_73_);}
	.st144{fill:url(#SVGID_74_);}
	.st145{fill:none;stroke:#F0D958;stroke-width:1.0893;stroke-linecap:round;stroke-linejoin:round;stroke-miterlimit:10;}
	.st146{fill:none;stroke:#DD5F1A;stroke-width:1.6341;stroke-linecap:round;stroke-linejoin:round;stroke-miterlimit:10;}
	.st147{fill:#006934;}
	.st148{fill:#DBDCDC;}
	.st149{fill:#BEC2BF;stroke:#B2B4B1;stroke-width:0.2127;stroke-linecap:round;stroke-linejoin:round;}
	.st150{fill:none;stroke:#F0D958;stroke-width:0.8506;stroke-linecap:round;stroke-linejoin:round;stroke-miterlimit:10;}
	.st151{fill:none;stroke:#DD5F1A;stroke-width:1.2759;stroke-linecap:round;stroke-linejoin:round;stroke-miterlimit:10;}
	.st152{fill:none;stroke:#E60012;stroke-width:0.1532;stroke-miterlimit:10;}
	.st153{fill:none;stroke:#E60012;stroke-width:0.1532;stroke-miterlimit:10;stroke-dasharray:0.7747,0.7747;}
	.st154{fill:none;stroke:#000000;stroke-width:0.1532;stroke-miterlimit:10;}
	.st155{fill:none;stroke:#000000;stroke-width:1.0962;stroke-miterlimit:10;}
	.st156{fill:#C9A063;stroke:#000000;stroke-width:1.494;stroke-miterlimit:10;}
	.st157{fill:#008ABD;}
	.st158{fill:#5CB9D3;}
	.st159{fill:#BFC0C0;}
	.st160{fill:#FBF8EA;}
	.st161{fill:none;stroke:#000000;stroke-width:0.6647;}
	.st162{fill:#036EB8;}
	.st163{fill:#EA5514;}
	.st164{clip-path:url(#SVGID_76_);}
	.st165{fill:url(#SVGID_77_);}
	.st166{fill:url(#SVGID_78_);}
	.st167{fill:url(#SVGID_79_);}
	.st168{fill:url(#SVGID_80_);}
	.st169{fill:url(#SVGID_81_);}
	.st170{fill:url(#SVGID_82_);}
	.st171{fill:url(#SVGID_83_);}
	.st172{fill:url(#SVGID_84_);}
	.st173{fill:url(#SVGID_85_);}
	.st174{fill:url(#SVGID_86_);}
	.st175{fill:url(#SVGID_87_);}
	.st176{fill:url(#SVGID_88_);}
	.st177{fill:url(#SVGID_89_);}
	.st178{fill:url(#SVGID_90_);}
	.st179{fill:url(#SVGID_91_);}
	.st180{fill:url(#SVGID_92_);}
	.st181{fill:url(#SVGID_93_);}
	.st182{fill:url(#SVGID_94_);}
	.st183{fill:url(#SVGID_95_);}
	.st184{fill:url(#SVGID_96_);}
	.st185{fill:url(#SVGID_97_);}
	.st186{fill:url(#SVGID_98_);}
	.st187{fill:url(#SVGID_99_);}
	.st188{fill:url(#SVGID_100_);}
	.st189{fill:url(#SVGID_101_);}
	.st190{fill:url(#SVGID_102_);}
	.st191{fill:url(#SVGID_103_);}
	.st192{fill:url(#SVGID_104_);}
	.st193{fill:url(#SVGID_105_);}
	.st194{fill:url(#SVGID_106_);}
	.st195{fill:url(#SVGID_107_);}
	.st196{fill:url(#SVGID_108_);}
	.st197{fill:url(#SVGID_109_);}
	.st198{fill:url(#SVGID_110_);}
	.st199{fill:url(#SVGID_111_);}
	.st200{clip-path:url(#SVGID_113_);}
	.st201{fill:#B28247;}
	.st202{fill:#FFF100;}
	.st203{fill:#8FC31F;}
	.st204{fill:#EAE5E3;}
	.st205{fill:#BEB1AA;}
	.st206{clip-path:url(#SVGID_115_);}
	.st207{fill:url(#SVGID_116_);}
	.st208{fill:url(#SVGID_117_);}
	.st209{fill:url(#SVGID_118_);}
	.st210{fill:url(#SVGID_119_);}
	.st211{fill:url(#SVGID_120_);}
	.st212{fill:url(#SVGID_121_);}
	.st213{fill:url(#SVGID_122_);}
	.st214{fill:url(#SVGID_123_);}
	.st215{fill:url(#SVGID_124_);}
	.st216{fill:url(#SVGID_125_);}
	.st217{fill:url(#SVGID_126_);}
	.st218{fill:url(#SVGID_127_);}
	.st219{fill:url(#SVGID_128_);}
	.st220{fill:url(#SVGID_129_);}
	.st221{fill:url(#SVGID_130_);}
	.st222{fill:url(#SVGID_131_);}
	.st223{fill:#FFF9E8;}
	.st224{opacity:0.5;fill:url(#);enable-background:new    ;}
	.st225{clip-path:url(#SVGID_136_);}
	.st226{clip-path:url(#SVGID_137_);}
	.st227{fill:#FCE1B9;}
	.st228{fill:#DFCD8C;}
	.st229{fill:#EADDB0;}
	.st230{fill:#6C1317;}
	.st231{fill:#5C070C;}
	.st232{fill:#8A4000;}
	.st233{fill:#9C0109;}
	.st234{fill:#8A0001;}
	.st235{fill:url(#SVGID_138_);}
	.st236{clip-path:url(#SVGID_143_);}
	.st237{clip-path:url(#SVGID_144_);}
	.st238{fill:#9C0109;stroke:#FFFFFF;stroke-width:0.8745;stroke-miterlimit:10;}
	.st239{fill:url(#SVGID_145_);}
	.st240{fill:#CF1126;}
	.st241{fill:#F4F3F1;}
	.st242{fill:#C30D23;}
	.st243{fill:#CCCCCC;}
	.st244{clip-path:url(#SVGID_147_);}
	.st245{fill:#C8C9CA;}
	.st246{clip-path:url(#SVGID_149_);}
	.st247{fill:#803220;}
	.st248{fill:#EEAA3D;}
	.st249{fill:#E29223;}
	.st250{fill:#944024;}
	.st251{fill:#B15022;}
	.st252{fill:#D18215;}
	.st253{fill:#FAED00;}
	.st254{fill:#1EAA39;}
	.st255{fill:#169530;}
	.st256{fill:none;stroke:#FFFFFF;stroke-miterlimit:10;}
	.st257{clip-path:url(#SVGID_151_);}
	.st258{clip-path:url(#SVGID_153_);}
	.st259{fill:#FCD006;}
	.st260{fill:#604C3F;}
	.st261{fill:#C79F62;}
	.st262{fill:#FDEABE;}
	.st263{fill:#E95504;}
	.st264{fill:#C11920;}
	.st265{fill:url(#SVGID_154_);}
	.st266{fill:url(#SVGID_155_);}
	.st267{fill:#5D8AA2;}
	.st268{fill:#267EAF;}
	.st269{fill:none;stroke:#D9B556;stroke-width:0.6193;stroke-miterlimit:10;}
	.st270{fill:#D9B556;}
	.st271{fill:#0E2F8F;}
	.st272{fill:url(#SVGID_156_);}
	.st273{fill:url(#SVGID_157_);}
	.st274{fill:url(#SVGID_158_);}
	.st275{fill:#755F43;}
	.st276{fill:#CD6829;}
	.st277{fill:#E08030;}
	.st278{fill:#F7F8F8;}
	.st279{fill:#E9E5E2;}
	.st280{fill:#9E9E9F;}
	.st281{fill:url(#SVGID_159_);}
	.st282{clip-path:url(#SVGID_161_);fill:#FBD6A0;}
	.st283{fill:#D1A26C;}
	.st284{fill:#FDEBD1;}
	.st285{fill:url(#SVGID_162_);}
	.st286{fill:#888888;}
	.st287{fill:#B4B4B5;}
	.st288{fill:#E6BE98;}
	.st289{fill:#BAE2F8;}
	.st290{fill:#182987;}
	.st291{fill:#3071B7;}
	.st292{clip-path:url(#SVGID_164_);fill:#F7B52C;}
	.st293{fill:#F7F9F9;stroke:#727171;stroke-width:0.1726;stroke-miterlimit:10;}
	.st294{fill:#C39717;}
	.st295{fill:#CC172C;}
	.st296{fill:#E73828;}
	.st297{fill:#F7B52C;}
	.st298{clip-path:url(#SVGID_166_);}
	.st299{fill:#D2A143;}
	.st300{fill:#B48626;}
	.st301{fill:#9C751E;}
	.st302{fill:#8DC21F;}
	.st303{fill:#00913A;}
	.st304{fill:#E95513;}
	.st305{clip-path:url(#SVGID_168_);}
	.st306{fill:#BDA661;}
	.st307{fill:#C9B168;}
	.st308{fill:url(#SVGID_169_);}
	.st309{fill:url(#SVGID_170_);}
	.st310{fill:url(#SVGID_171_);}
	.st311{fill:url(#SVGID_172_);}
	.st312{fill:url(#SVGID_173_);}
	.st313{fill:url(#SVGID_174_);}
	.st314{fill:url(#SVGID_175_);}
	.st315{fill:url(#SVGID_176_);}
	.st316{fill:url(#SVGID_177_);}
	.st317{fill:url(#SVGID_178_);}
	.st318{fill:url(#SVGID_179_);}
	.st319{fill:url(#SVGID_180_);}
	.st320{fill:url(#SVGID_181_);}
	.st321{fill:url(#SVGID_182_);}
	.st322{fill:url(#SVGID_183_);}
	.st323{fill:url(#SVGID_184_);}
	.st324{fill:url(#SVGID_185_);}
	.st325{fill:url(#SVGID_186_);}
	.st326{fill:url(#SVGID_187_);}
	.st327{fill:url(#SVGID_188_);}
	.st328{fill:url(#SVGID_189_);}
	.st329{fill:url(#SVGID_190_);}
	.st330{fill:url(#SVGID_191_);}
	.st331{fill:url(#SVGID_192_);}
	.st332{fill:url(#SVGID_193_);}
	.st333{fill:url(#SVGID_194_);}
	.st334{fill:url(#SVGID_195_);}
	.st335{fill:url(#SVGID_196_);}
	.st336{fill:url(#SVGID_197_);}
	.st337{fill:url(#SVGID_198_);}
	.st338{fill:url(#SVGID_199_);}
	.st339{fill:url(#SVGID_200_);}
	.st340{fill:url(#SVGID_201_);}
	.st341{fill:url(#SVGID_202_);}
	.st342{fill:url(#SVGID_203_);}
	.st343{fill:url(#SVGID_204_);}
	.st344{fill:url(#SVGID_205_);}
	.st345{fill:url(#SVGID_206_);}
	.st346{fill:url(#SVGID_207_);}
	.st347{fill:url(#SVGID_208_);}
	.st348{fill:url(#SVGID_209_);}
	.st349{fill:url(#SVGID_210_);}
	.st350{fill:url(#SVGID_211_);}
	.st351{fill:url(#SVGID_212_);}
	.st352{fill:url(#SVGID_213_);}
	.st353{fill:url(#SVGID_214_);}
	.st354{fill:url(#SVGID_215_);}
	.st355{fill:url(#SVGID_216_);}
	.st356{fill:url(#SVGID_217_);}
	.st357{fill:url(#SVGID_218_);}
	.st358{fill:url(#SVGID_219_);}
	.st359{fill:url(#SVGID_220_);}
	.st360{fill:url(#SVGID_221_);}
	.st361{fill:url(#SVGID_222_);}
	.st362{fill:url(#SVGID_223_);}
	.st363{fill:url(#SVGID_224_);}
	.st364{fill:url(#SVGID_225_);}
	.st365{fill:url(#SVGID_226_);stroke:#000000;stroke-width:1.0157;stroke-linecap:round;stroke-linejoin:round;}
	.st366{fill:url(#SVGID_227_);stroke:#000000;stroke-width:1.0157;stroke-linecap:round;stroke-linejoin:round;}
	.st367{fill:url(#SVGID_228_);stroke:#000000;stroke-width:1.0157;stroke-linecap:round;stroke-linejoin:round;}
	.st368{fill-rule:evenodd;clip-rule:evenodd;fill:url(#SVGID_229_);}
	.st369{fill:url(#SVGID_230_);}
	.st370{fill:url(#SVGID_231_);}
	.st371{fill:url(#SVGID_232_);}
	.st372{fill:url(#SVGID_233_);}
	.st373{fill:url(#SVGID_234_);}
	.st374{clip-path:url(#SVGID_236_);}
	.st375{fill:url(#SVGID_237_);}
	.st376{fill:url(#SVGID_238_);}
	.st377{fill:url(#SVGID_239_);}
	.st378{fill:url(#SVGID_240_);}
	.st379{fill:url(#SVGID_241_);}
	.st380{fill:url(#SVGID_242_);}
	.st381{fill:url(#SVGID_243_);}
	.st382{fill:url(#SVGID_244_);}
	.st383{fill:url(#SVGID_245_);}
	.st384{fill:url(#SVGID_246_);}
	.st385{fill:url(#SVGID_247_);}
	.st386{fill:url(#SVGID_248_);}
	.st387{fill:url(#SVGID_249_);}
	.st388{fill:url(#SVGID_250_);}
	.st389{fill:url(#SVGID_251_);}
	.st390{fill:url(#SVGID_252_);}
	.st391{fill:url(#SVGID_253_);}
	.st392{fill:url(#SVGID_254_);}
	.st393{fill:url(#SVGID_255_);}
	.st394{fill:url(#SVGID_256_);}
	.st395{fill:url(#SVGID_257_);}
	.st396{fill:url(#SVGID_258_);}
	.st397{fill:url(#SVGID_259_);}
	.st398{fill:url(#SVGID_260_);}
	.st399{fill:url(#SVGID_261_);}
	.st400{fill:url(#SVGID_262_);}
	.st401{fill:url(#SVGID_263_);}
	.st402{fill:url(#SVGID_264_);}
	.st403{fill:url(#SVGID_265_);}
	.st404{fill:url(#SVGID_266_);}
	.st405{fill:url(#SVGID_267_);}
	.st406{fill:url(#SVGID_268_);}
	.st407{fill:url(#SVGID_269_);}
	.st408{fill:url(#SVGID_270_);}
	.st409{fill:url(#SVGID_271_);}
	.st410{clip-path:url(#SVGID_273_);}
	.st411{clip-path:url(#SVGID_275_);}
	.st412{fill:url(#SVGID_276_);}
	.st413{fill:url(#SVGID_277_);}
	.st414{fill:url(#SVGID_278_);}
	.st415{fill:url(#SVGID_279_);}
	.st416{fill:url(#SVGID_280_);}
	.st417{fill:url(#SVGID_281_);}
	.st418{fill:url(#SVGID_282_);}
	.st419{fill:url(#SVGID_283_);}
	.st420{fill:url(#SVGID_284_);}
	.st421{fill:url(#SVGID_285_);}
	.st422{fill:url(#SVGID_286_);}
	.st423{fill:url(#SVGID_287_);}
	.st424{fill:url(#SVGID_288_);}
	.st425{fill:url(#SVGID_289_);}
	.st426{fill:url(#SVGID_290_);}
	.st427{fill:url(#SVGID_291_);}
	.st428{clip-path:url(#SVGID_296_);}
	.st429{clip-path:url(#SVGID_297_);}
	.st430{fill:url(#SVGID_298_);}
	.st431{clip-path:url(#SVGID_303_);}
	.st432{clip-path:url(#SVGID_304_);}
	.st433{fill:url(#SVGID_305_);}
	.st434{clip-path:url(#SVGID_307_);}
	.st435{clip-path:url(#SVGID_309_);}
	.st436{clip-path:url(#SVGID_311_);}
	.st437{clip-path:url(#SVGID_313_);}
	.st438{fill:url(#SVGID_314_);}
	.st439{fill:url(#SVGID_315_);}
	.st440{fill:url(#SVGID_316_);}
	.st441{fill:url(#SVGID_317_);}
	.st442{fill:url(#SVGID_318_);}
	.st443{fill:url(#SVGID_319_);}
	.st444{clip-path:url(#SVGID_321_);fill:#FBD6A0;}
	.st445{fill:url(#SVGID_322_);}
	.st446{clip-path:url(#SVGID_324_);fill:#F7B52C;}
	.st447{clip-path:url(#SVGID_326_);}
	.st448{clip-path:url(#SVGID_328_);}
</style>
<g>
	<rect y="0" class="st0" width="553" height="265.4"/>
</g>
<g>
	<path class="st1" d="M178.5,228.1H57.8c-7.4,0-13.4-6-13.4-13.4V53.1c0-7.4,6-13.4,13.4-13.4h120.7c7.4,0,13.4,6,13.4,13.4v161.6
		C191.9,222.1,185.9,228.1,178.5,228.1z"/>
	<path class="st2" d="M175.5,225.9H54.8c-7.4,0-13.4-6-13.4-13.4V50.9c0-7.4,6-13.4,13.4-13.4h120.7c7.4,0,13.4,6,13.4,13.4v161.6
		C188.9,219.9,182.9,225.9,175.5,225.9z"/>
	<path class="st3" d="M41.4,212.4V50.9c0-7.4,6-13.4,13.4-13.4h120.7"/>
</g>
<g>
	<rect x="258.4" y="89.8" class="st4" width="249.1" height="97.7"/>
	<rect x="255.6" y="88.1" class="st5" width="249.1" height="97.7"/>
	<polyline class="st3" points="504.7,89.3 504.7,185.8 257.5,185.8 	"/>
</g>
<g class="st6">
	<path class="st7" d="M341,43.7c0.1-1,0.1-2.6,0.1-3.4c0-0.6,0-0.8-0.1-1.3l5,0.1c-0.1,0.6-0.1,0.7-0.3,3.2c0,0.7,0,0.7-0.1,1.4h5.8
		c0.9,0,1.2-0.1,1.8-0.3l2.1,1.8c-0.3,0.5-0.3,0.7-0.4,2c-0.2,5.7-0.6,10.1-1.1,11.8c-0.8,2.5-2,3.3-5,3.3c-1,0-1.4,0-3.5-0.2
		c-0.1-2.1-0.3-3-0.9-4.7c1.3,0.3,2.6,0.5,3.4,0.5c1.3,0,1.6-0.4,1.9-2.7c0.3-1.8,0.5-5.1,0.5-7.4h-5.1c-0.2,1.7-0.2,1.7-0.4,2.6
		c-1.2,5.3-3.7,8.8-9.1,12.3c-1.2-1.9-2-2.8-3.4-4c3.5-1.9,5.6-3.7,6.9-6.4c0.7-1.4,1-2.3,1.3-4.5h-3.3c-1.8,0-2.3,0-3.6,0.2l0-4.5
		c1.3,0.2,1.8,0.2,3.7,0.2H341z"/>
	<path class="st7" d="M362.6,45c1,2,1.9,4.1,2.6,6.7L361,53c-0.7-2.8-1.2-4.4-2.4-6.9L362.6,45z M378,45.5c-0.2,0.5-0.2,0.6-0.4,1.6
		c-0.8,3.7-1.8,6.4-3.3,8.6c-1.4,2.1-3.3,3.9-5.6,5.4c-0.9,0.6-1.6,1-3.2,1.8c-0.9-1.6-1.4-2.3-2.9-3.7c5.3-2.1,8.2-4.7,9.8-9.1
		c0.7-1.9,1.1-4,1.2-5.6L378,45.5z M368.4,43.9c1.4,2.7,1.9,3.9,2.6,6.5l-4.1,1.2c-0.5-2.2-1.2-4.2-2.4-6.6L368.4,43.9z"/>
	<path class="st7" d="M402.1,44.3l0,0.1c0,0.1-0.1,0.2-0.1,0.3l-0.2,0.7c-2.2,8.5-6.8,13.8-15.2,17.6c-0.9-1.8-1.6-2.8-3.3-4.4
		c7-2.2,11.8-6.9,13.3-13.1h-11.1c-2.8,0-3.4,0.1-4.4,0.2v-4.8c1,0.2,1.7,0.2,4.4,0.2h13.5c0.1-1.6,1.3-2.9,3-2.9c1.7,0,3,1.3,3,3
		c0,1.7-1.3,3-3,3L402.1,44.3z M400.6,41.2c0,0.8,0.7,1.5,1.5,1.5c0.8,0,1.5-0.7,1.5-1.5c0-0.8-0.7-1.5-1.5-1.5
		C401.3,39.7,400.6,40.4,400.6,41.2z"/>
	<path class="st7" d="M417.2,53.1c-0.2,0.4-0.3,0.6-0.5,1.3c-0.6,1.6-1.2,2.9-2.1,4c1.9,0.8,3.5,1.1,7.4,1.1c3.8,0,6.1-0.1,9.3-0.4
		c-0.5,1.4-0.7,2.3-1,3.9c-1.6,0.1-5,0.1-6.6,0.1c-4.7,0-6.2-0.1-8.3-0.6c-1.5-0.4-2.4-0.7-3.4-1.4c-1.3,1.1-2.5,1.7-4.4,2.6
		c-0.5-1.4-1-2.2-2-3.5c1.7-0.5,2.7-0.9,3.9-1.6c-0.3-0.4-0.4-0.6-0.8-1.3c-0.6,0.5-0.8,0.7-1.6,1.3c-0.4-1.5-0.8-2.3-1.6-3.5
		c1.6-1.1,2.7-2.5,3.4-4.2h-0.3c-1.1,0-1.7,0-2.4,0.1v-3.3c0.7,0.1,1.2,0.1,2.4,0.1h1.3v-0.9H409c-1.2,0-1.4,0-2.1,0.1v-3
		C407.6,44,408,44,409,44h0.8v-0.8h-0.9c-1.2,0-1.6,0-2.5,0.1v-3.3c0.8,0.1,1.2,0.1,2.5,0.1h0.9v-0.2c0-0.6-0.1-1.1-0.1-1.5h3.9
		c-0.1,0.4-0.1,0.8-0.1,1.5V40h0.8c1.1,0,1.5,0,2.1-0.1v3.3c-0.6-0.1-1.2-0.1-2-0.1h-1V44h1.1c0.8,0,1.2,0,1.7-0.1v3
		c-0.6-0.1-0.8-0.1-1.7-0.1h-1.1v0.9h1.8c0.6,0,1,0,1.4-0.1v3.3c-0.5-0.1-0.7-0.1-1.4-0.1h-2.9c-0.1,0.3-0.2,0.5-0.3,0.9h1.2
		c1,0,1.5,0,2.1-0.1L417.2,53.1z M410.7,54.6c0.4,0.9,0.6,1.2,1.1,1.8c0.5-0.6,0.7-0.9,1.1-1.8H410.7z M421.6,43.8
		c0.1-0.4,0.2-0.5,0.3-1.1h-2.9c-1,0-1.5,0-2.1,0.1v-3.6c0.7,0.1,1.4,0.1,3,0.1h7.7c1.6,0,2.4,0,3.1-0.1v3.7
		c-0.7-0.1-1.6-0.1-3.1-0.1h-2c-0.1,0.4-0.2,0.7-0.3,1.1h2.3c1.6,0,2.1,0,2.6-0.1c-0.1,0.7-0.1,1.1-0.1,2.2v10.2
		c0,1.3,0,1.7,0.1,2.3c-0.7-0.1-1.5-0.1-2.3-0.1h-8.9c-0.9,0-1.3,0-1.9,0.1c0.1-0.9,0.1-1.4,0.1-2.4v-9.9c0-1.3,0-1.8-0.1-2.4
		c0.5,0.1,0.8,0.1,2.1,0.1H421.6z M421,46.7h-0.8v8.8h0.8V46.7z M423.1,46.7V48h1.2v-1.4H423.1z M423.1,51.7h1.2v-1.4h-1.2V51.7z
		 M424.2,54h-1.2v1.5h1.2V54z M426.3,55.4h0.8v-8.8h-0.8V55.4z"/>
</g>
<g class="st6">
	<path class="st7" d="M302.8,109.9c-0.9,0.3-1.9,0.5-3,0.6c0,0.8,0,1.7,0,2.4c1.2-0.3,2.4-0.6,3.3-0.6c2.9,0,5,1.4,5,4.2
		c0,2.5-1.4,4.4-4.4,4.4c-1.2,0-2.3-0.5-3.3-1.5c0.4-0.5,0.8-1.1,1.1-1.7c0.6,0.8,1.4,1.2,2.2,1.2c1.4,0,2.2-1,2.2-2.3
		c0-1.4-1-2.4-2.9-2.4c-0.9,0-2.1,0.2-3.3,0.6v3.4c0,1.6-1,3-3.2,3c-1.5,0-3.2-0.9-3.2-3c0-1.2,0.8-2.4,2.1-3.4
		c0.6-0.5,1.4-0.9,2.2-1.2v-3c-1.1,0.1-2.4,0.1-3.8,0.1l0-2.1c1.4,0,2.7,0,3.9-0.1v-3l2.8,0.1c0,0.2-0.2,0.4-0.5,0.4
		c-0.1,0.7-0.1,1.5-0.1,2.3c1-0.1,1.9-0.3,2.7-0.6L302.8,109.9z M297.6,115.6c-1,0.6-2.3,1.4-2.3,2.6c0,0.7,0.4,1.2,1.2,1.2
		c0.7,0,1.2-0.4,1.2-1.2C297.7,117.7,297.7,116.7,297.6,115.6z M307.4,111.6c-0.9-0.9-2.5-1.8-3.9-2.3l1.1-1.8
		c1.5,0.5,3.1,1.4,4.1,2.3L307.4,111.6z"/>
	<path class="st7" d="M314,109.6c-0.6,0.9-1.2,1.7-1.8,2.4h11.3c0,4.2,0.2,7.6,1.2,7.6c0.3,0,0.3-0.9,0.4-2.4c0.4,0.5,0.9,1,1.4,1.3
		c-0.2,2.2-0.5,3.1-1.9,3.1c-2.6,0-3.1-3.4-3.2-7.9H312v-1.5l-0.2,0.2c-0.4-0.4-1.2-1-1.8-1.3c1.7-1.3,3-3.6,3.7-6.1l2.5,0.7
		c-0.1,0.1-0.2,0.2-0.5,0.2c-0.1,0.3-0.2,0.6-0.3,0.9h10.4v1.7h-11.2l-0.5,0.8h10.1v1.7H314V109.6z M313.5,114.4
		c0.9,0.5,1.9,1.1,2.9,1.7c0.6-0.7,1.1-1.5,1.5-2.3l2.3,0.9c-0.1,0.1-0.2,0.2-0.5,0.2c-0.5,0.8-1,1.6-1.7,2.3
		c1.1,0.8,2.1,1.6,2.8,2.3l-1.7,1.6c-0.6-0.7-1.6-1.5-2.6-2.3c-1.4,1.3-2.9,2.3-4.6,3.1c-0.3-0.4-1-1.2-1.4-1.5
		c1.6-0.6,3.1-1.6,4.4-2.7c-1-0.7-2-1.3-3-1.8L313.5,114.4z"/>
	<path class="st7" d="M332,106.6c0,0.2-0.2,0.3-0.5,0.3c-0.7,3.1-0.9,6.2-0.9,7.7c0,1,0,1.9,0.1,2.5c0.2-0.5,0.9-2,1.1-2.5l1,1.6
		c-0.6,1.2-1.2,2.2-1.4,3c-0.1,0.3-0.1,0.6-0.1,0.8c0,0.2,0,0.4,0.1,0.6l-2.2,0.3c-0.6-1.7-0.8-3.9-0.8-6.2c0-2.4,0.4-5.6,0.8-8.5
		L332,106.6z M342.5,119.6c-0.6,0-1.3,0.1-2,0.1c-1.1,0-2.2-0.1-3-0.2c-2.4-0.3-3.4-1.6-3.4-3.1c0-1.3,0.6-2.3,1.5-3.5l2.1,0.7
		c-0.8,0.8-1.3,1.6-1.3,2.4c0,1.3,1.6,1.4,3.6,1.4c0.8,0,1.7,0,2.5-0.1L342.5,119.6z M334.5,108.3c2-0.1,5.3-0.3,7.4-0.6l0.2,2.2
		c-2.1,0.3-5.4,0.6-7.5,0.6L334.5,108.3z"/>
	<path class="st7" d="M347.5,106.2h6.1c0,3.3,0.5,9.7,6.9,13.6c-0.5,0.4-1.3,1.3-1.7,1.8c-3.7-2.2-5.5-5.6-6.5-8.7
		c-1.3,3.9-3.4,7-6.5,8.8c-0.4-0.5-1.2-1.3-1.8-1.6c3.6-1.8,5.7-5.4,6.6-10l1.1,0.2c-0.1-0.7-0.2-1.3-0.2-1.9h-4V106.2z"/>
	<path class="st7" d="M362.6,115.6c-0.3-1.2-0.5-2.8-0.5-3.8c0-1.3,0.1-3.2,0.5-5.3l2.7,0.4c-0.1,0.2-0.3,0.3-0.4,0.3
		c-0.4,1.4-0.7,3.9-0.6,4.9c0.3-0.8,0.9-1.7,1.3-2.4c0.2,0.4,0.7,1.1,1,1.4c-1.1,1.7-1.9,2.9-1.9,3.7c0,0.1,0,0.3,0.1,0.4
		L362.6,115.6z M372.6,106.1c0,0.2-0.2,0.3-0.4,0.4c0.1,1.4,0.3,3.7,0.3,5.9c0,3.4-1.1,6.5-6.6,8.8c-0.3-0.5-1.1-1.3-1.6-1.7
		c4.8-1.8,5.8-4.7,5.8-7c0-2.4-0.2-4.9-0.4-6.5L372.6,106.1z"/>
	<path class="st7" d="M383.9,109.3c-0.1,0.2-0.3,0.3-0.5,0.3c-0.7,6-2.5,9.4-5.4,9.4c-1.9,0-3.3-1.6-3.3-4.6c0-4.5,3.6-7.7,8-7.7
		c4.9,0,7.5,2.9,7.5,6.7c0,4.1-2.1,6.2-6.5,7.3c-0.3-0.5-0.8-1.3-1.4-1.8c4-0.8,5.6-2.7,5.6-5.4c0-2.8-2-4.7-5.2-4.7
		c-0.3,0-0.6,0-0.9,0.1L383.9,109.3z M381.1,109c-2.6,0.6-4.3,2.9-4.3,5.4c0,1.5,0.4,2.5,1.2,2.5C379.7,116.9,380.8,113.1,381.1,109
		z"/>
	<path class="st7" d="M405.4,109.8c0,0.1-0.1,0.2-0.2,0.3c-0.2,5.3-0.8,8.4-1.4,9.5c-0.6,1-1.5,1.4-2.6,1.4c-0.8,0-1.9-0.1-3-0.3
		c0-0.6-0.1-1.6-0.2-2.2c1.1,0.2,2.3,0.4,2.8,0.4c0.5,0,0.9-0.1,1.2-0.7c0.4-0.8,0.8-3.4,1-6.7h-4.3c-0.8,3.6-2.2,7-5.4,9.6
		c-0.4-0.4-1.2-1-1.8-1.3c2.9-2.2,4.3-5.2,4.9-8.2H392v-2.1h4.6c0.2-1.2,0.2-2.2,0.3-3.5l2.9,0.2c0,0.2-0.2,0.3-0.5,0.4
		c-0.1,1.1-0.1,1.9-0.3,2.9h4.5l0.4-0.2L405.4,109.8z"/>
	<path class="st7" d="M409.4,110.4c0.5,1,1,2.6,1.2,3.7l-1.7,0.5c-0.2-1.1-0.7-2.6-1.2-3.7L409.4,110.4z M419.5,110.8
		c-0.1,0.1-0.2,0.2-0.4,0.2c-1.4,5.1-4.1,8.2-8.1,9.8c-0.2-0.3-0.8-1-1.2-1.4c3.7-1.4,6.3-4.2,7.5-9.3L419.5,110.8z M413.5,109.6
		c0.4,1.1,0.7,2.7,0.8,3.8l-1.8,0.4c-0.1-1.1-0.5-2.7-0.9-3.8L413.5,109.6z"/>
	<path class="st7" d="M421.4,107.8h10.9l0.2-0.1l1.9,1.4c-0.1,0.1-0.2,0.2-0.3,0.2c-1.5,6.5-4.5,9.7-9.8,11.8
		c-0.3-0.6-1-1.4-1.4-1.8c4.7-1.8,7.7-4.8,8.6-9.3h-10V107.8z M434.7,104.9c1,0,1.9,0.8,1.9,1.9c0,1-0.8,1.9-1.9,1.9
		c-1,0-1.9-0.9-1.9-1.9C432.9,105.7,433.7,104.9,434.7,104.9z M436,106.7c0-0.7-0.5-1.2-1.2-1.2c-0.7,0-1.2,0.5-1.2,1.2
		c0,0.7,0.6,1.2,1.2,1.2C435.4,108,436,107.4,436,106.7z"/>
	<path class="st7" d="M443.3,113.9l1.3,0.6c-0.1,0.1-0.1,0.2-0.2,0.3c-0.4,1.4-1.1,2.7-1.9,3.7c1.4,0.7,3.1,0.9,5,0.9
		c1,0,4.7,0,6-0.1c-0.3,0.5-0.6,1.4-0.7,2h-5.3c-2.6,0-4.7-0.3-6.3-1.4c-0.9,0.8-1.9,1.4-3.1,1.9c-0.2-0.5-0.9-1.3-1.2-1.7
		c1.1-0.4,2-0.9,2.9-1.6c-0.3-0.4-0.6-0.9-0.9-1.5c-0.3,0.3-0.5,0.6-0.8,0.8c-0.3-0.4-0.9-1.2-1.2-1.5c0.9-0.8,1.8-2.2,2.3-3.6H437
		v-1.7h3v-0.7h-2.4v-1.5h2.4v-0.7h-2.7v-1.6h2.7v-1.3l2.4,0.1c0,0.2-0.1,0.3-0.5,0.3v0.9h2.5v1.6H442v0.7h2.2v1.5H442v0.7h2.7v1.7
		h-3.2l0.2,0.1c-0.1,0.1-0.2,0.2-0.4,0.2c-0.1,0.3-0.2,0.6-0.4,0.9h2.1L443.3,113.9z M440,115.5c0.3,0.7,0.6,1.3,1,1.7
		c0.4-0.5,0.7-1.1,1-1.7H440z M445.2,109.3h2.6c0.1-0.6,0.2-1.2,0.2-1.8h-3.3v-1.6h8.6v1.6h-3.5c-0.1,0.6-0.3,1.3-0.5,1.8h3.4v9.4
		h-1.6v-0.5h-4.5v0.5h-1.5V109.3z M446.7,110.8v6h0.7v-6H446.7z M449.4,111.8v-1.1h-0.8v1.1H449.4z M449.4,114.3v-1.2h-0.8v1.2
		H449.4z M448.6,115.6v1.1h0.8v-1.1H448.6z M451.2,116.7v-6h-0.7v6H451.2z"/>
	<path class="st7" d="M455.7,120.6c-0.5-1.3-0.7-4.3-0.7-6.7c0-2.5,0.4-5.2,0.9-7.9l2.7,0.5c0,0.2-0.3,0.3-0.5,0.3
		c-1.1,3.8-1.1,6.5-1.1,8.5c0,0.6,0,1.1,0.1,1.4c0.2-0.7,0.8-2.1,1.1-2.8l1.1,1.4c-0.5,0.9-1.1,2.3-1.4,3.3
		c-0.1,0.3-0.2,0.6-0.2,0.9c0,0.2,0,0.5,0.1,0.7L455.7,120.6z M460.3,109.9c1.3,0.1,2.6,0,3.8-0.1c-0.1-1.4-0.1-2.5-0.1-3.8l2.8,0.1
		c0,0.2-0.2,0.3-0.4,0.4l0,3.2c1.2-0.1,2.2-0.3,3-0.6l0.2,2.1c-0.8,0.2-1.9,0.4-3.1,0.5c0.1,1.6,0.1,3.2,0.2,4.3
		c1.2,0.5,2.4,1.2,3.2,2l-1.1,2.1c-0.6-0.6-1.3-1.2-2-1.7c-0.2,2.2-1.8,2.6-3.3,2.6c-2.1,0-3.4-1.2-3.4-2.8c0-1.8,1.7-2.8,3.5-2.8
		c0.3,0,0.7,0,1,0.1c-0.1-0.9-0.1-2.3-0.2-3.6c-0.5,0-1.1,0.1-1.5,0.1h-2.4L460.3,109.9z M464.6,117.3c-0.3-0.1-0.8-0.2-1.2-0.2
		c-0.9,0-1.7,0.3-1.7,1c0,0.7,0.7,1,1.6,1c0.9,0,1.3-0.5,1.3-1.3C464.7,117.7,464.7,117.5,464.6,117.3z"/>
	<path class="st7" d="M355.1,135v1.8h-9.5v2.1c0,2.3-0.3,5.6-1.8,7.8c-0.3-0.3-1-1-1.5-1.3v1.2h-2v-8.6c-0.4,0.6-0.8,1.2-1.2,1.7
		c-0.2-0.5-0.6-1.7-0.9-2.2c1.3-1.6,2.6-4.5,3.4-7.3l2.3,0.7c-0.1,0.2-0.2,0.2-0.5,0.2c-0.4,1.1-0.8,2.2-1.3,3.2l0.5,0.2
		c0,0.2-0.2,0.3-0.5,0.3v10.4c1.2-1.9,1.3-4.5,1.3-6.4V135H355.1z M343.6,131.6h2.5v-1.3l2.4,0.1c0,0.2-0.1,0.3-0.5,0.3v0.8h2.6
		v-1.3l2.4,0.1c0,0.2-0.1,0.3-0.5,0.3v0.8h2.4v1.8h-2.4v1.2h-1.9v-1.2h-2.6v1.2h-1.9v-1.2h-2.5V131.6z M354.7,137.9v7.1
		c0,1.4-0.6,1.7-2.6,1.7c-0.1-0.4-0.3-1.1-0.5-1.5c0.5,0,0.9,0,1.1,0s0.2-0.1,0.2-0.2v-0.9h-1.6v2.5h-1.7v-2.5H348v2.6h-1.8v-8.8
		H354.7z M349.6,139.4H348v1h1.5V139.4z M348,142.7h1.5v-1H348V142.7z M352.8,139.4h-1.6v1h1.6V139.4z M351.2,142.7h1.6v-1h-1.6
		V142.7z"/>
	<path class="st7" d="M367.9,136.9c-0.1,0.1-0.3,0.2-0.5,0.1c-0.7,0.5-1.6,1-2.5,1.6c1.2,0,2.4,0,3.6,0c-0.4-0.3-0.8-0.6-1.2-0.8
		l1.6-0.9c1.3,0.8,2.9,2,3.7,2.9l-1.6,1c-0.2-0.2-0.5-0.5-0.7-0.8c-4.8,0.2-9.8,0.3-13.1,0.4c0,0.2-0.2,0.3-0.3,0.3l-0.7-2
		c1.2,0,2.8,0,4.6,0c-0.8-0.4-1.6-0.8-2.4-1.1c0.5-0.4,0.9-0.8,1.3-1.1c0.3,0.1,0.6,0.2,0.9,0.4c0.3-0.2,0.6-0.5,0.8-0.7h-4.7v-1.7
		h6.6v-1l2.5,0.1c0,0.2-0.1,0.3-0.5,0.3v0.5h6.7v1.7h-5.7L367.9,136.9z M360.2,133.8v-0.7h-3.7v-1.7h3.7v-1.2l2.5,0.1
		c0,0.2-0.1,0.3-0.5,0.3v0.8h4v-1.2l2.5,0.1c0,0.2-0.1,0.3-0.5,0.3v0.8h3.8v1.7h-3.8v0.7h-2v-0.7h-4v0.7H360.2z M358.2,146.7v-5.8
		h12.2v5.8h-2.1v-0.5h-8.1v0.5H358.2z M363.3,142.2h-3.2v0.7h3.2V142.2z M360.2,144.8h3.2v-0.8h-3.2V144.8z M363.9,136.1l0.2,0.1
		c-0.1,0.1-0.2,0.2-0.5,0.1c-0.4,0.3-1,0.7-1.6,1.1c0.4,0.2,0.7,0.4,1,0.6c1-0.6,2.1-1.3,2.8-2H363.9z M368.3,142.9v-0.7h-3.1v0.7
		H368.3z M365.2,144.8h3.1v-0.8h-3.1V144.8z"/>
	<path class="st7" d="M373.3,141.6c1-1.3,1.6-3.3,1.9-5.2l2,0.5c-0.3,2.1-0.9,4.3-1.9,5.6L373.3,141.6z M380.4,143.6
		c0,0.8,0.1,1,1,1h2.5c0.8,0,1-0.5,1.1-3c0.5,0.4,1.4,0.7,1.9,0.9c-0.2,3.1-0.8,4.1-2.9,4.1h-2.9c-2.2,0-2.8-0.6-2.8-2.8
		c-1.1,0.8-2.3,1.4-3.6,2c-0.3-0.5-0.9-1.3-1.4-1.7c1.8-0.8,3.4-1.8,4.9-2.9V135l2.6,0.1c0,0.2-0.1,0.3-0.5,0.3v3.9
		c2.6-2.5,4.6-5.4,5.9-8.2l2.4,1c-0.1,0.2-0.3,0.2-0.6,0.2c-1.7,3.4-4.3,6.9-7.7,9.7V143.6z M379.5,130.2c1.7,0.6,3.7,1.5,4.9,2.3
		l-1.4,1.9c-1.1-0.9-3.1-1.9-4.8-2.5L379.5,130.2z M388.2,142.7c-0.4-1.5-1.6-3.9-2.7-5.6l1.9-0.9c1.2,1.7,2.4,4,2.9,5.5
		L388.2,142.7z"/>
	<path class="st7" d="M400.1,144.1h7v1.9h-15.9v-1.9h6.8v-2.4h-5.2v-1.9h5.2v-2.1l-5.1,0.1c-0.1,0.2-0.2,0.2-0.3,0.3l-0.6-2.4
		c0.8,0,1.7,0,2.8,0c0.5-0.8,0.9-1.8,1.3-2.7h-4.2v-1.9h15.1v1.9h-4.5c1.6,1.2,3.7,2.9,4.7,4.2l-1.8,1.3c-0.2-0.3-0.6-0.7-1-1.1
		c-2.1,0.1-4.2,0.2-6.1,0.2v0l2.5,0.1c0,0.2-0.1,0.3-0.5,0.3v1.6h5.3v1.9h-5.3V144.1z M402.2,133h-3.3c-0.1,0.1-0.3,0.2-0.5,0.2
		c-0.3,0.7-0.8,1.7-1.3,2.5c1.6,0,3.4-0.1,5.1-0.1c-0.6-0.5-1.2-1-1.7-1.4L402.2,133z"/>
	<path class="st7" d="M417.9,134.3c-0.1,0.2-0.3,0.3-0.5,0.3c-0.7,6-2.5,9.4-5.4,9.4c-1.9,0-3.3-1.6-3.3-4.6c0-4.5,3.6-7.7,8-7.7
		c4.9,0,7.5,2.9,7.5,6.7c0,4.1-2.1,6.2-6.5,7.3c-0.3-0.5-0.8-1.3-1.4-1.8c4-0.8,5.6-2.7,5.6-5.4c0-2.8-2-4.7-5.2-4.7
		c-0.3,0-0.6,0-0.9,0.1L417.9,134.3z M415.1,134c-2.6,0.6-4.3,2.9-4.3,5.4c0,1.5,0.4,2.5,1.2,2.5C413.7,141.9,414.8,138.1,415.1,134
		z"/>
	<path class="st7" d="M338.3,157.4c-0.1,0.1-0.2,0.2-0.3,0.3c-0.8,1.9-2.2,4.2-3.7,5.6c-0.5-0.4-1.4-0.9-2-1.2
		c1.1-0.9,2.1-2.4,2.6-3.4h-11.3v-2.1h12.5l0.2-0.2L338.3,157.4z M331.6,160.8c0,0.2-0.2,0.3-0.5,0.4c-0.4,3.8-1.9,7.7-5.4,9.9
		c-0.5-0.4-1.3-1.1-1.9-1.4c3.3-1.8,4.7-5.2,4.9-9.1L331.6,160.8z"/>
	<path class="st7" d="M352,157.4c-0.1,0.1-0.3,0.2-0.6,0.2c-1.4,1.3-3,2.7-4.7,4c0.2,0.1,0.4,0.1,0.6,0.2c-0.1,0.2-0.2,0.3-0.5,0.3
		v9.1h-2.3v-8.2c-1.5,1-3.9,2.3-5.8,3.3c-0.3-0.5-0.9-1.3-1.3-1.7c4.5-2,9.8-5.6,12.4-8.7L352,157.4z"/>
	<path class="st7" d="M367,163.2l-5.5,0l0.3,0.1c-0.1,0.1-0.2,0.2-0.4,0.2c-0.5,2.9-1.6,5.7-5.2,7.5c-0.3-0.4-1.2-1.1-1.7-1.5
		c3.4-1.7,4.3-3.7,4.6-6.4H353v-2H367V163.2z M365.3,158.4h-10.7v-2h10.7V158.4z"/>
	<path class="st7" d="M380.9,170.8c-0.3-0.7-0.6-1.3-0.9-1.9c-3.8,0.4-8.6,0.8-11.2,0.9c-0.1,0.2-0.2,0.3-0.4,0.4l-0.7-2.6
		c0.5,0,1.1,0,1.8,0c1.1-3.2,2.5-8.2,3.3-11.5l2.8,0.7c-0.1,0.2-0.3,0.3-0.5,0.3c-0.9,2.9-2.2,7.1-3.3,10.4c2.1-0.1,5.4-0.3,7.2-0.5
		c-0.7-1.2-1.6-2.5-2.4-3.4l1.9-1c1.7,2,3.6,5.2,4.5,7.2L380.9,170.8z"/>
	<path class="st7" d="M383.3,157.3c0.5,0,1.3,0,1.8-0.1c2-0.1,9.5-0.6,12.5-0.7l0,2.4c-1.5-0.1-2.4,0.1-3.8,1.1
		c-1.9,1.3-4.3,3.7-4.3,5.7c0,2,1.8,3.1,5.6,3.5l-1.1,2.2c-4.9-0.6-6.9-2.7-6.9-5.7c0-2.1,1.9-4.9,4.6-6.7c-2.2,0.2-6.2,0.5-7.8,0.7
		c0,0.1-0.3,0.3-0.4,0.3L383.3,157.3z M394.9,161.5c0.7,0.6,1.7,1.6,2.1,2.4l-1,0.8c-0.4-0.7-1.4-1.8-2.1-2.4L394.9,161.5z
		 M397,159.9c0.8,0.6,1.7,1.6,2.1,2.3l-1,0.8c-0.4-0.6-1.4-1.8-2.1-2.4L397,159.9z"/>
	<path class="st7" d="M399.9,158c1.1,0,2.6-0.1,4-0.1c0.8,0,2.1-0.1,3.3-0.1c0-0.3,0-1.7-0.1-2.5l2.9,0.1c0,0.1-0.2,0.3-0.5,0.4
		c0,0.4,0,1.2,0,1.9c2.3-0.1,4.6-0.1,5.5-0.1v2.1c-0.5,0-1.2,0-1.9,0c-1,0-2.3,0-3.6,0.1l0.1,3.1c0.2,0.7,0.3,1.5,0.3,2
		c0,0.8-0.1,1.7-0.4,2.3c-0.7,1.8-2.3,3.5-4.9,4.5c-0.4-0.5-1.1-1.3-1.6-1.7c1.9-0.6,3.3-1.5,3.9-2.6h0c-0.2,0.2-0.6,0.3-1,0.3
		c-1.5,0-3.1-1.2-3.1-3.2c0-2,1.6-3.4,3.4-3.4c0.4,0,0.8,0.1,1.1,0.3c0-0.2,0-1.1-0.1-1.5c-1.3,0-7,0.2-7.3,0.2L399.9,158z
		 M407.6,164.3c0-0.4,0-1.6-1.3-1.6c-0.8,0-1.5,0.6-1.5,1.6c0,0.9,0.7,1.5,1.4,1.5C407.1,165.9,407.6,165.2,407.6,164.3z"/>
	<path class="st7" d="M416.5,158.7c1.2,0,2.2,0,3.3-0.1c0-0.4,0.1-2.5,0.1-2.9l2.7,0.2c0,0.2-0.2,0.3-0.5,0.4
		c-0.1,0.7-0.1,1.4-0.2,2.1l1,0.4c-0.4,0.6-0.8,1.5-1.2,2.4c0,0.1,0,0.2,0,0.3c1.7-1.4,3.6-2.3,5.3-2.3c2.8,0,4.1,1.7,4.1,5.2
		c0,1-0.1,2-0.3,2.8c0.5,0.4,0.9,0.9,1.3,1.3l-1.3,1.9c-0.2-0.3-0.6-0.8-1-1.2c-0.8,1-1.8,1.6-3.3,1.6c-1.8,0-3-1.1-3-2.7
		c0-1.6,1.3-2.7,3-2.7c0.8,0,1.6,0.2,2.4,0.6c0.1-0.5,0.2-1,0.2-1.7c0-2-0.7-3.2-2.2-3.2c-1.4,0-3.5,1-5,2.5c0,3.8,0,6.8,0,7.6h-2.1
		v-5.8c-0.4,0.8-1.4,2.2-2.4,3.2l-1.2-2c1.3-1.2,2.8-3.1,3.6-5c0-0.4,0-0.7,0-1.1c-0.6,0.1-1.6,0.2-3.2,0.2V158.7z M428.2,167.9
		c-0.5-0.5-1.2-0.7-1.8-0.7c-0.8,0-1.3,0.4-1.3,0.9c0,0.6,0.6,1,1.3,1C427.3,169.1,427.9,168.5,428.2,167.9z"/>
	<path class="st7" d="M434.5,168.6c0-0.9,0.7-1.7,1.7-1.7s1.7,0.8,1.7,1.7c0,0.9-0.7,1.7-1.7,1.7
		C435.2,170.2,434.5,169.5,434.5,168.6z M435.2,165.6l-0.4-9h2.9l-0.4,9H435.2z"/>
</g>
<g class="st6">
	<path class="st7" d="M316.7,200.8v1.1h-4.6v-1.1H316.7z M316.3,205.6v3.6h-2.5v0.5h-1.2v-4H316.3z M312.7,203.5v-1.1h3.6v1.1H312.7
		z M312.7,205.1v-1h3.6v1H312.7z M316.2,199.2v1.1h-3.5v-1.1H316.2z M315.1,206.7h-1.2v1.3h1.2V206.7z M323.1,205.9v1.3h-2.6v2.7
		h-1.4v-2.7h-2.6v-1.3h2.6v-1.2h-2v-1.3h2v-1.1h-2.2V201h1.1c-0.1-0.5-0.4-1.2-0.7-1.7l1.1-0.4c0.4,0.6,0.7,1.4,0.8,1.9l-0.6,0.2
		h2.2l-0.5-0.2c0.3-0.6,0.7-1.4,0.8-2l1.5,0.5c0,0.1-0.2,0.1-0.3,0.1c-0.2,0.5-0.5,1.1-0.8,1.6h1.3v1.3h-2.4v1.1h2.1v1.3h-2.1v1.2
		H323.1z"/>
	<path class="st7" d="M328.6,199.8h5.6v9.8h-1.3v-0.5h-3.1v0.6h-1.2v-1.8c-0.3,0.1-0.7,0.2-1.1,0.4c-0.1-0.6-0.4-1.6-0.7-2.3l1-0.3
		c0.3,0.7,0.6,1.5,0.7,2.1v-2.6l-0.9,0.4c0-0.2-0.1-0.3-0.2-0.5l-0.8,0v4.8h-1.2V206c0,0.1-0.1,0.1-0.3,0.1c-0.1,1-0.3,2.1-0.7,2.8
		c-0.2-0.2-0.7-0.4-1-0.5c0.3-0.6,0.5-1.7,0.6-2.7l1.3,0.3v-0.9c-0.5,0-1,0.1-1.4,0.1c0,0.1-0.1,0.2-0.2,0.2l-0.3-1.4h0.9
		c0.2-0.2,0.4-0.5,0.6-0.7c-0.3-0.5-0.9-1.1-1.4-1.6l0.7-1l0.3,0.2c0.3-0.7,0.7-1.4,0.9-2.1l1.4,0.6c0,0.1-0.2,0.1-0.3,0.1
		c-0.3,0.7-0.8,1.5-1.2,2.1c0.2,0.2,0.3,0.3,0.4,0.5c0.4-0.7,0.8-1.4,1.1-2l1.3,0.6c-0.1,0.1-0.2,0.1-0.3,0.1c-0.5,0.9-1.3,2-2.1,3
		l1.3,0c-0.1-0.3-0.3-0.6-0.5-0.9l1-0.5c0.4,0.6,0.7,1.3,1,1.9V199.8z M330.7,201.1h-0.9v2.7h0.9V201.1z M329.8,205.1v2.8h0.9v-2.8
		H329.8z M332.9,203.8v-2.7h-1v2.7H332.9z M331.9,207.9h1v-2.8h-1V207.9z"/>
	<path class="st7" d="M336.2,209.1c-0.3-0.9-0.5-2.8-0.5-4.4c0-1.7,0.3-3.4,0.6-5.3l1.8,0.3c0,0.1-0.2,0.2-0.3,0.2
		c-0.7,2.5-0.7,4.3-0.7,5.6c0,0.4,0,0.8,0,1c0.2-0.5,0.5-1.4,0.7-1.8l0.8,1c-0.3,0.6-0.7,1.6-1,2.2c-0.1,0.2-0.1,0.4-0.1,0.6
		c0,0.2,0,0.3,0.1,0.5L336.2,209.1z M339.3,202c0.8,0,1.7,0,2.6,0c0-0.9-0.1-1.7-0.1-2.6l1.8,0.1c0,0.1-0.1,0.2-0.3,0.3l0,2.1
		c0.8-0.1,1.5-0.2,2-0.4l0.1,1.4c-0.5,0.2-1.2,0.3-2.1,0.3c0,1,0.1,2.1,0.1,2.9c0.8,0.3,1.6,0.8,2.2,1.3l-0.8,1.4
		c-0.4-0.4-0.8-0.8-1.4-1.1c-0.2,1.5-1.2,1.7-2.2,1.7c-1.4,0-2.3-0.8-2.3-1.9c0-1.2,1.1-1.9,2.3-1.9c0.2,0,0.5,0,0.7,0.1
		c0-0.6-0.1-1.5-0.1-2.4c-0.3,0-0.7,0-1,0h-1.6L339.3,202z M342.2,206.9c-0.2-0.1-0.5-0.1-0.8-0.1c-0.6,0-1.1,0.2-1.1,0.7
		c0,0.4,0.5,0.7,1.1,0.7c0.6,0,0.9-0.3,0.8-0.9C342.2,207.2,342.2,207,342.2,206.9z"/>
	<path class="st7" d="M347.4,205.7V200l1.8,0.1c0,0.1-0.1,0.2-0.3,0.2v5.4H347.4z M354.2,199.5c0,0.1-0.1,0.2-0.3,0.2v3.6
		c0,2.5-0.8,4.8-4.1,6.1c-0.2-0.3-0.8-0.8-1.1-1.1c3.1-1.2,3.7-3.1,3.7-5v-4L354.2,199.5z"/>
	<path class="st7" d="M356.4,200c1.2,0.4,2.6,1,3.4,1.5l-0.8,1.3c-0.8-0.6-2.2-1.2-3.3-1.6L356.4,200z M356,207.8
		c3.9-1.2,6.6-3.5,8-6.7c0.4,0.3,0.9,0.6,1.4,0.9c-1.4,3.2-4.2,5.6-8.1,7c0,0.1-0.1,0.3-0.2,0.3L356,207.8z"/>
	<path class="st7" d="M374.6,201.6c0,0.1-0.2,0.2-0.3,0.2c-1.3,3.8-3.1,6.1-6.3,7.7c-0.2-0.3-0.7-0.8-1.1-1.1c2.9-1.4,4.6-3.4,5.5-6
		H369c-0.6,0.9-1.5,1.9-2.5,2.7c-0.3-0.3-0.8-0.7-1.2-1c1.5-1.2,2.9-3,3.6-4.9l1.8,0.4c0,0.1-0.2,0.2-0.4,0.2
		c-0.2,0.4-0.4,0.8-0.6,1.2h3.3l0.2-0.1L374.6,201.6z"/>
	<path class="st7" d="M380,205.3c0,0.1-0.1,0.2-0.3,0.2c-0.3,1.7-0.8,3.3-3.5,4.3c-0.2-0.4-0.5-0.9-0.8-1.2c2.4-0.7,2.8-1.9,3-3.4
		L380,205.3z M382.8,207.9c0,0.4,0.1,0.4,0.4,0.4h1c0.3,0,0.4-0.2,0.5-1.6c0.3,0.2,0.9,0.5,1.3,0.6c-0.1,1.9-0.5,2.4-1.6,2.4H383
		c-1.3,0-1.6-0.4-1.6-1.8V205h-5.9v-1.4h4.5v-1.9h-2c-0.3,0.6-0.6,1.2-0.9,1.6c-0.3-0.2-0.9-0.5-1.2-0.6c0.8-1,1.3-2.5,1.6-3.7
		l1.6,0.4c0,0.1-0.1,0.2-0.3,0.2c-0.1,0.3-0.2,0.6-0.3,0.9h1.5v-1.6l1.7,0.1c0,0.1-0.1,0.2-0.3,0.2v1.3h3.6v1.3h-3.6v1.9h4.5v1.4
		h-3.1V207.9z"/>
	<path class="st7" d="M393.1,201.6c0,0.1-0.2,0.2-0.3,0.2c-0.5,4-1.6,6.3-3.6,6.3c-1.3,0-2.2-1.1-2.2-3c0-3,2.4-5.2,5.3-5.2
		c3.3,0,5,2,5,4.5c0,2.7-1.4,4.1-4.3,4.9c-0.2-0.3-0.5-0.8-0.9-1.2c2.6-0.5,3.7-1.8,3.7-3.6c0-1.9-1.3-3.1-3.4-3.1
		c-0.2,0-0.4,0-0.6,0L393.1,201.6z M391.3,201.4c-1.8,0.4-2.9,1.9-2.9,3.6c0,1,0.3,1.7,0.8,1.7C390.3,206.6,391.1,204.1,391.3,201.4
		z"/>
	<path class="st7" d="M407.9,200.3c0,0.1-0.1,0.1-0.2,0.2c-0.5,1.3-1.5,2.8-2.5,3.8c-0.3-0.2-0.9-0.6-1.3-0.8
		c0.7-0.6,1.4-1.6,1.7-2.3h-7.5v-1.4h8.4l0.2-0.1L407.9,200.3z M403.5,202.6c0,0.1-0.1,0.2-0.3,0.2c-0.3,2.5-1.3,5.2-3.6,6.6
		c-0.3-0.3-0.9-0.7-1.3-0.9c2.2-1.2,3.1-3.5,3.3-6.1L403.5,202.6z"/>
	<path class="st7" d="M418.6,201.3c0,0.1-0.1,0.2-0.2,0.2c-1,1.5-2.7,3.2-4.3,4.4c0.7,0.5,1.6,1.3,2.1,1.9l-1.3,1.1
		c-1.3-1.5-3.3-3.2-5.1-4.2l1-1c0.7,0.4,1.5,0.9,2.2,1.4c1.2-0.9,2.4-2.1,3.1-3.1h-7.5v-1.4h8.7l0.2-0.1L418.6,201.3z"/>
	<path class="st7" d="M421.8,204.4c-0.3-0.9-1.1-2.3-1.9-3.3l1.3-0.6c0.7,0.8,1.6,2.3,2,3.2L421.8,204.4z M428.8,201.2
		c0,0.1-0.1,0.2-0.3,0.2c-1.2,4-3.3,6.5-6.5,7.8c-0.2-0.3-0.7-0.8-1-1.1c3.1-1.2,5-3.5,6.1-7.5L428.8,201.2z M425.4,198.8
		c0.5,0.4,1,1.2,1.3,1.6l-0.7,0.5c-0.3-0.4-0.9-1.3-1.3-1.7L425.4,198.8z M427.8,198.6c0.5,0.5,1,1.1,1.3,1.6l-0.7,0.5
		c-0.3-0.5-0.9-1.2-1.3-1.6L427.8,198.6z"/>
	<path class="st7" d="M430.8,200c1.2,0.4,2.6,1,3.4,1.5l-0.8,1.3c-0.8-0.6-2.2-1.2-3.3-1.6L430.8,200z M430.4,207.8
		c3.9-1.2,6.6-3.5,8-6.7c0.4,0.3,0.9,0.6,1.4,0.9c-1.4,3.2-4.2,5.6-8.1,7c0,0.1-0.1,0.3-0.2,0.3L430.4,207.8z"/>
	<path class="st7" d="M446.6,201.6c0,0.1-0.2,0.2-0.3,0.2c-0.5,4-1.6,6.3-3.6,6.3c-1.3,0-2.2-1.1-2.2-3c0-3,2.4-5.2,5.3-5.2
		c3.3,0,5,2,5,4.5c0,2.7-1.4,4.1-4.3,4.9c-0.2-0.3-0.5-0.8-0.9-1.2c2.6-0.5,3.7-1.8,3.7-3.6c0-1.9-1.3-3.1-3.4-3.1
		c-0.2,0-0.4,0-0.6,0L446.6,201.6z M444.8,201.4c-1.8,0.4-2.9,1.9-2.9,3.6c0,1,0.3,1.7,0.8,1.7C443.8,206.6,444.6,204.1,444.8,201.4
		z"/>
	<path class="st7" d="M318.9,213.9v1.3h-2.2l0.3,0.1c0,0.1-0.1,0.1-0.3,0.2c-0.1,0.3-0.3,0.6-0.5,0.9h2.2v6c0,1.3-0.6,1.5-2.6,1.5
		c-0.1-0.3-0.2-0.7-0.3-1.1h-2.8v0.7h-1.2v-3.7h4.6v2.8h0.8c0.2,0,0.3-0.1,0.3-0.2v-3.1c-0.2,0.1-0.4,0.1-0.6,0.1h-1
		c-1.1,0-1.3-0.3-1.3-1.3v-0.5H313c-0.1,1.1-0.5,1.9-2.3,2.3c-0.1-0.2-0.3-0.5-0.5-0.8v4.8h-1.3v-7.5h2.1c-0.1-0.3-0.3-0.7-0.4-1
		l0.4-0.1h-2.7v-1.3h4.5v-1.1l1.7,0.1c0,0.1-0.1,0.2-0.3,0.2v0.8H318.9z M310.3,217.5v1.3c1.1-0.2,1.5-0.6,1.6-1.3H310.3z
		 M312.1,215.2c0.2,0.4,0.4,0.8,0.4,1.1h2.1c0.2-0.3,0.3-0.7,0.4-1.1H312.1z M314.7,221.6v-0.9h-2.1v0.9H314.7z M316.2,218.2
		c0.2,0,0.2,0,0.3-0.3c0.1,0.1,0.3,0.2,0.5,0.2v-0.7h-1.7v0.5c0,0.2,0,0.3,0.3,0.3H316.2z"/>
	<path class="st7" d="M320.2,223.7v-5.1h4.5v5.1h-1.4v-0.4h-1.8v0.4H320.2z M323.3,219.9h-1.8v2h1.8V219.9z M328.3,213.2v4.5h-6.2
		v-4.5H328.3z M326.9,216.3v-1.8h-3.4v1.8H326.9z M325.7,218.6h4.6v5h-1.4v-0.3H327v0.4h-1.3V218.6z M327,221.9h1.9v-2H327V221.9z"
		/>
	<path class="st7" d="M331.2,218.8c0.8-0.9,2.4-2.7,3.2-3.5c0.4-0.4,0.8-0.6,1.2-0.6c0.4,0,0.8,0.2,1.2,0.6c1.4,1.2,3.8,3.9,5.4,5.8
		l-1.2,1.2c-1.4-2-3.9-4.8-4.8-5.7c-0.2-0.2-0.4-0.3-0.5-0.3c-0.1,0-0.3,0.1-0.5,0.4c-0.4,0.5-1.8,2.2-2.5,3c0,0.1,0,0.3-0.2,0.4
		L331.2,218.8z M340,213c0.7,0,1.3,0.6,1.3,1.3c0,0.7-0.6,1.3-1.3,1.3c-0.7,0-1.3-0.6-1.3-1.3C338.7,213.5,339.3,213,340,213z
		 M340.8,214.3c0-0.5-0.4-0.8-0.8-0.8s-0.8,0.4-0.8,0.8s0.4,0.8,0.8,0.8C340.4,215.1,340.8,214.7,340.8,214.3z"/>
	<path class="st7" d="M343,217.3h9.7v1.5h-9.2c-0.1,0.1-0.2,0.2-0.4,0.2L343,217.3z"/>
	<path class="st7" d="M354.5,216.4c1,0.3,2.2,0.7,3,1.1l-0.6,1.3c-0.8-0.4-2-0.9-3-1.1L354.5,216.4z M354.8,221.8
		c3.5-1.1,6.2-3,7.7-6.4c0.3,0.3,1,0.8,1.3,1c-1.6,3.3-4.4,5.5-7.7,6.6c0,0.1,0,0.2-0.2,0.3L354.8,221.8z M355.9,213.5
		c1,0.3,2.2,0.7,3,1.1l-0.7,1.2c-0.8-0.5-1.9-0.9-2.9-1.2L355.9,213.5z M361.1,213.2c0.5,0.4,1.1,1.1,1.4,1.6l-0.7,0.5
		c-0.3-0.5-0.9-1.3-1.3-1.6L361.1,213.2z M362.9,212.5c0.5,0.4,1.1,1.1,1.4,1.6l-0.7,0.5c-0.3-0.5-0.9-1.2-1.3-1.6L362.9,212.5z"/>
	<path class="st7" d="M364.5,214.2c0.4,0,0.9,0,1.2,0c1.3-0.1,6.4-0.4,8.3-0.5l0,1.6c-1,0-1.6,0.1-2.5,0.7c-1.3,0.8-2.9,2.5-2.9,3.8
		c0,1.3,1.2,2.1,3.7,2.4l-0.7,1.5c-3.3-0.4-4.6-1.8-4.6-3.8c0-1.4,1.3-3.3,3-4.5c-1.4,0.1-4.1,0.3-5.2,0.5c0,0.1-0.2,0.2-0.3,0.2
		L364.5,214.2z M372.3,217c0.5,0.4,1.1,1.1,1.4,1.6l-0.7,0.5c-0.3-0.5-1-1.2-1.4-1.6L372.3,217z M373.7,215.9c0.5,0.4,1.1,1,1.4,1.6
		l-0.7,0.5c-0.3-0.4-0.9-1.2-1.4-1.6L373.7,215.9z"/>
	<path class="st7" d="M383.9,222.6c-0.9,0.2-2.3,0.2-3.5,0.2c-1,0-1.9-0.1-2.4-0.2c-1.5-0.3-2.1-1.3-2.1-2.4c0-0.9,0.5-1.8,1.1-2.4
		l1.3,0.6c-0.5,0.5-0.8,1.1-0.8,1.6c0,1.4,1.7,1.4,2.8,1.4c1.1,0,2.5-0.1,3.6-0.3L383.9,222.6z M378.2,216.6c0.4-0.3,1-0.8,1.5-1v0
		c-0.6,0.1-2.2,0.1-3.2,0.1c0-0.4,0-1.1,0-1.4c0.2,0,0.5,0,0.8,0c2.1,0,4.2,0,5.9-0.3l0.1,1.5c-1.7,0.3-3.1,1.3-3.8,1.8L378.2,216.6
		z M383.6,218.6c-0.3-0.4-1-1.2-1.4-1.5l0.6-0.5c0.5,0.4,1.1,1,1.5,1.5L383.6,218.6z M384.9,217.4c-0.3-0.4-1-1.1-1.4-1.5l0.6-0.5
		c0.5,0.4,1.1,1,1.5,1.5L384.9,217.4z"/>
	<path class="st7" d="M396.8,222.1v1.2h-4.4v0.5h-1.3v-4.4c-0.2,0.2-0.4,0.3-0.6,0.5c-0.1-0.3-0.3-0.7-0.5-1.1v3.7H388v1h-1.1v-3.2
		c-0.1,0.2-0.3,0.5-0.5,0.7c-0.1-0.3-0.5-1-0.7-1.3c0.8-1.1,1.2-2.9,1.5-4.9H386v-1.3h4.3v0.7h2.4c0.1-0.4,0.2-0.9,0.3-1.4l1.6,0.3
		c0,0.1-0.1,0.2-0.3,0.2c-0.1,0.3-0.1,0.6-0.2,0.9h2.7v2.3h-1.2v-0.2c0,0-0.1,0-0.1,0c-0.1,0.2-0.2,0.5-0.3,0.8h1.6v1.2h-1.8v0.7
		h1.5v1h-1.5v0.7h1.5v1h-1.5v0.7H396.8z M388.9,221.2v-2.9H388v2.9H388.9z M390.1,217.1v1.4c0.9-0.7,1.7-1.8,2.2-3.2h-0.8v1.1h-1.2
		v-1.6h-1.7c-0.1,0.8-0.3,1.6-0.5,2.4H390.1z M393.5,218.7v-0.7h-1v0.7H393.5z M393.5,220.5v-0.7h-1v0.7H393.5z M392.5,221.5v0.7h1
		v-0.7H392.5z M395.5,215.3h-1.8c-0.2,0.6-0.5,1.1-0.7,1.7h0.8c0.2-0.4,0.3-0.9,0.5-1.3l1.3,0.4V215.3z"/>
	<path class="st7" d="M401.7,214.7v1.1h-4.2v-1.1H401.7z M401.4,219.6v2.8c0.4-0.6,0.7-1.5,0.8-2.4l1.1,0.3c-0.1,1-0.3,2.1-0.9,2.8
		l-1-0.6v0.6h-2.3v0.5H398v-4H401.4z M401.4,216.3v1.1H398v-1.1H401.4z M398,219v-1h3.4v1H398z M401.4,213.1v1.1H398v-1.1H401.4z
		 M400.3,222v-1.3h-1.1v1.3H400.3z M408.1,213.6c-0.2,4.7-0.3,4.7-2.7,4.6c0-0.4-0.2-0.9-0.3-1.2l0.2,0c-0.2-0.1-0.5-0.3-0.7-0.4
		c-0.4,0.8-1,1.5-2,2c-0.2-0.3-0.5-0.8-0.8-1c0.8-0.4,1.3-1,1.7-1.6c-0.4-0.2-0.9-0.4-1.3-0.5l0.7-1c0.3,0.1,0.7,0.2,1.1,0.4
		c0.1-0.2,0.1-0.4,0.2-0.7h-1.8v-1.2h4.8l0.3,0l0.7,0.1L408.1,213.6z M404.8,222c0,0.3,0,0.3,0.2,0.3h0.5c0.2,0,0.2-0.1,0.3-1.1
		c0.2,0.2,0.8,0.4,1.1,0.5c-0.1,1.5-0.5,1.8-1.2,1.8h-0.8c-1,0-1.3-0.4-1.3-1.5v-2.4l1.6,0.1c0,0.1-0.1,0.2-0.3,0.2V222z
		 M405.6,220.2c-0.4-0.5-1.2-1.2-2-1.6l0.9-0.8c0.7,0.4,1.6,1.1,2,1.6L405.6,220.2z M405.5,217.1c0.3,0,0.5,0,0.6,0
		c0.1,0,0.2,0,0.3-0.1c0.2-0.2,0.3-0.9,0.3-2.6h-1.5c-0.1,0.4-0.2,0.8-0.3,1.2c0.4,0.2,0.8,0.4,1.1,0.6L405.5,217.1z M407.4,223.2
		c-0.1-0.8-0.6-2-1.2-2.9l1.1-0.5c0.6,0.9,1.1,2.1,1.3,2.9L407.4,223.2z"/>
	<path class="st7" d="M415.1,223.6c-1-1.2-2.7-2.8-4.5-4.1c-0.7-0.5-0.9-0.9-0.9-1.4c0-0.4,0.1-0.7,0.5-1.1c1.2-1.1,3.2-3.1,4.1-4.1
		l1.7,1.1c-0.1,0.1-0.2,0.2-0.5,0.1c-1.1,1-2.7,2.4-3.7,3.3c-0.3,0.3-0.5,0.5-0.5,0.7c0,0.2,0.3,0.4,0.7,0.7c1.4,1,3,2.4,4.4,3.8
		L415.1,223.6z"/>
	<path class="st7" d="M424.3,215.8c-0.9,0.3-2,0.5-3.2,0.6c-0.5,2.4-1.2,5.1-2,7l-1.5-0.5c0.9-1.8,1.6-4,2-6.4c-0.2,0-1,0-1.2,0
		c-0.2,0-0.5,0-0.7,0l0-1.4c0.4,0,1,0,1.5,0c0.2,0,0.4,0,0.6,0c0.1-0.7,0.2-1.5,0.2-2.1l1.9,0.2c0,0.1-0.2,0.2-0.3,0.3
		c-0.1,0.4-0.2,1-0.2,1.6c0.9-0.1,1.9-0.3,2.7-0.6L424.3,215.8z M427.4,223.2c-0.4,0-0.8,0-1.2,0c-0.9,0-1.9-0.1-2.4-0.2
		c-1-0.2-1.5-1-1.5-1.8c0-0.6,0.3-1.2,0.7-1.7l1.2,0.5c-0.4,0.4-0.5,0.7-0.5,1c0,0.6,0.6,0.8,2.2,0.8c0.5,0,1.1,0,1.5-0.1
		L427.4,223.2z M422.9,217.4c1.2-0.4,2.8-0.6,4.1-0.6v1.4c-1.3,0-2.7,0.1-3.8,0.4L422.9,217.4z M425,213.3c0.5,0.4,1.2,1,1.5,1.5
		l-0.7,0.6c-0.3-0.4-1-1.2-1.4-1.5L425,213.3z M426.6,212.6c0.5,0.4,1.2,1,1.5,1.5l-0.7,0.6c-0.3-0.4-1-1.1-1.4-1.5L426.6,212.6z"/>
	<path class="st7" d="M438,215.9c-0.9,0.2-2.3,0.4-3.5,0.5c0.4,1.3,1,2,2,2.5l-1,1.2c-0.4-0.4-1.1-0.8-2.5-0.8l-0.4-1.2
		c0.4,0,0.9,0,1.2,0.1c-0.3-0.4-0.5-1-0.8-1.8c-0.5,0-0.9,0-1.5,0c-0.7,0-2.1,0-2.9,0l0-1.4c0.7,0,1.5,0,2.9,0c0.4,0,0.8,0,1.2,0
		c-0.1-0.6-0.2-1.4-0.3-2.1l2,0c0,0.1-0.1,0.3-0.3,0.3c0,0.6,0.1,1.1,0.2,1.7c1.2-0.1,2.7-0.3,3.6-0.6L438,215.9z M435.8,223.3
		c-0.6,0-1.3,0-2.1,0c-2.8,0-4.2-1.1-4.2-2.5c0-0.7,0.3-1.3,1-2l1.1,0.8c-0.5,0.4-0.6,0.7-0.6,1.1c0,0.9,1.1,1.2,2.8,1.2
		c0.9,0,1.6,0,2.2-0.1L435.8,223.3z"/>
	<path class="st7" d="M441.2,214.4c0,0.1-0.2,0.2-0.3,0.2c-0.2,0.9-0.3,2.1-0.3,3.2c0,2.6,0.7,3.5,1.4,3.5c0.4,0,0.9-1.2,1.1-2.1
		c0.3,0.3,0.8,0.7,1.2,0.9c-0.6,1.9-1.3,2.8-2.4,2.8c-1.8,0-2.7-2.2-2.8-4.1c0-0.4,0-0.9,0-1.3c0-1.1,0.1-2.2,0.2-3.3L441.2,214.4z
		 M447.7,220c-0.3-2.1-1.3-3.3-2.7-4.2l0.9-1.1c1.6,0.9,3,2.5,3.4,4.8L447.7,220z"/>
	<path class="st7" d="M452.9,222.1c0,0.9-0.7,1.6-1.6,1.6c-0.9,0-1.6-0.7-1.6-1.6c0-0.9,0.7-1.6,1.6-1.6
		C452.1,220.5,452.9,221.2,452.9,222.1z M452.3,222.1c0-0.6-0.5-1.1-1.1-1.1c-0.6,0-1.1,0.5-1.1,1.1c0,0.6,0.5,1.1,1.1,1.1
		C451.9,223.2,452.3,222.7,452.3,222.1z"/>
</g>
<g>
	<g>
		<path class="st293" d="M105.7,87.9H53.5l9.2,54.2l0,0c0.2,3.3,7.6,5.9,16.9,5.9s16.8-2.7,16.9-5.9l0,0L105.7,87.9z"/>
		<path class="st293" d="M106.4,88.1c0-5.4-12-9.6-26.8-9.6s-26.8,4.3-26.8,9.6c0,0.2,0,1.3,0,1.6c0,5.3,12,9.6,26.8,9.6
			s26.8-4.3,26.8-9.6C106.4,89.4,106.4,88.3,106.4,88.1z"/>
		<path class="st294" d="M79.6,139.2c-0.2,0-0.4,0-0.5,0v-1.9c0.4,0,0.8,0,1.1,0v1.9C80,139.2,79.8,139.2,79.6,139.2z M81.3,139.2
			l-0.1-1.9c0.4,0,0.8,0,1.1-0.1l0.1,1.9C82.1,139.2,81.7,139.2,81.3,139.2z M77.9,139.2c-0.4,0-0.8,0-1.2-0.1l0.1-1.9
			c0.4,0,0.7,0,1.1,0.1V139.2z M75.7,139.1c-0.4,0-0.8-0.1-1.2-0.1l0.2-1.9c0.4,0,0.7,0.1,1.1,0.1L75.7,139.1z M83.7,139.1l-0.2-1.9
			c0.4,0,0.7-0.1,1.1-0.1l0.2,1.9C84.5,139,84.1,139.1,83.7,139.1z M73.5,138.8c-0.4-0.1-0.8-0.1-1.2-0.2l0.2-1.9
			c0.4,0.1,0.7,0.1,1.1,0.2L73.5,138.8z M85.9,138.8l-0.2-1.9c0.4,0,0.7-0.1,1.1-0.2l0.2,1.9C86.7,138.8,86.3,138.8,85.9,138.8z
			 M71.1,138.6c-0.4-0.1-0.8-0.2-1.2-0.2l0.3-1.9c0.4,0.1,0.7,0.2,1.1,0.2L71.1,138.6z M88.1,138.6l-0.3-1.9
			c0.4-0.1,0.7-0.1,1.1-0.2l0.3,1.9C88.9,138.4,88.5,138.5,88.1,138.6z M68.9,138.2c-0.4-0.1-0.8-0.1-1.1-0.2l0.4-1.8
			c0.4,0.1,0.7,0.2,1.1,0.2L68.9,138.2z M90.4,138.2l-0.4-1.8c0.4-0.1,0.7-0.2,1.1-0.2l0.4,1.8C91.1,138.1,90.8,138.1,90.4,138.2z
			 M66.6,137.8c-0.4-0.1-0.8-0.2-1.1-0.3l0.5-1.8c0.3,0.1,0.7,0.2,1.1,0.3L66.6,137.8z M92.6,137.8l-0.5-1.8
			c0.4-0.1,0.7-0.2,1.1-0.3l0.5,1.8C93.4,137.5,93,137.7,92.6,137.8z M64.4,137.1c-0.4-0.2-0.8-0.2-1.1-0.4L64,135
			c0.3,0.2,0.7,0.2,1,0.4L64.4,137.1z M94.9,137.1l-0.6-1.8c0.4-0.2,0.7-0.2,1-0.4l0.7,1.7C95.6,136.8,95.3,137,94.9,137.1z"/>
		<path class="st294" d="M80.2,109.6v-3.7c0.4,0,0.7,0,1.1,0l0.1,3.7C80.9,109.6,80.5,109.6,80.2,109.6z M79.1,109.6
			c-0.4,0-0.8,0-1.1,0l0.1-3.7c0.4,0,0.7,0,1.1,0L79.1,109.6z M82.4,109.5l-0.1-3.7c0.4,0,0.7,0,1.1,0l0.2,3.7
			C83.2,109.5,82.8,109.5,82.4,109.5z M76.8,109.5c-0.4,0-0.8,0-1.1-0.1l0.2-3.7c0.4,0,0.7,0,1.1,0L76.8,109.5z M84.7,109.5
			l-0.2-3.7c0.4,0,0.7-0.1,1.1-0.1l0.2,3.7C85.5,109.5,85.1,109.5,84.7,109.5z M74.6,109.5c-0.4,0-0.8-0.1-1.1-0.1l0.2-3.7
			c0.4,0,0.7,0.1,1.1,0.1L74.6,109.5z M86.9,109.3l-0.3-3.7c0.4,0,0.7-0.1,1.1-0.1l0.3,3.7C87.6,109.3,87.3,109.3,86.9,109.3z
			 M72.4,109.3c-0.4,0-0.8-0.1-1.1-0.1l0.3-3.7c0.4,0,0.7,0.1,1.1,0.1L72.4,109.3z M70.2,109.2c-0.4,0-0.8-0.1-1.1-0.2l0.5-3.7
			c0.4,0.1,0.7,0.1,1.1,0.2L70.2,109.2z M89.1,109.2l-0.4-3.8c0.4,0,0.7-0.1,1.1-0.2l0.5,3.7C89.9,109.1,89.5,109.1,89.1,109.2z
			 M91.4,108.8l-0.5-3.7c0.4-0.1,0.7-0.1,1.1-0.2l0.5,3.7C92.1,108.8,91.8,108.8,91.4,108.8z M67.9,108.8c-0.4-0.1-0.8-0.1-1.1-0.2
			l0.5-3.7c0.3,0.1,0.7,0.1,1.1,0.2L67.9,108.8z M93.6,108.5l-0.6-3.7c0.4-0.1,0.7-0.2,1.1-0.2l0.6,3.7
			C94.3,108.4,94,108.5,93.6,108.5z M65.7,108.5c-0.4-0.1-0.8-0.2-1.1-0.2l0.6-3.7c0.3,0.1,0.7,0.2,1.1,0.2L65.7,108.5z M95.8,108.1
			l-0.7-3.7c0.4-0.1,0.7-0.2,1-0.2l0.8,3.7C96.6,108,96.2,108.1,95.8,108.1z M63.5,108.1c-0.4-0.1-0.8-0.2-1.1-0.2l0.8-3.7
			c0.3,0.1,0.7,0.2,1,0.2L63.5,108.1z M61.3,107.7c-0.4-0.1-0.8-0.2-1.1-0.2l0.9-3.7c0.3,0.1,0.7,0.2,1,0.2L61.3,107.7z M98.1,107.7
			l-0.9-3.7c0.3-0.1,0.7-0.2,1-0.2l0.9,3.7C98.8,107.5,98.4,107.6,98.1,107.7z M100.2,107.1l-1-3.6c0.3-0.1,0.7-0.2,1-0.3l1.1,3.6
			C101,106.9,100.6,107,100.2,107.1z M59.1,107.1c-0.4-0.1-0.8-0.2-1.1-0.3l1.1-3.6c0.3,0.1,0.7,0.2,1,0.3L59.1,107.1z"/>
		<path class="st295" d="M79.6,140.3c-6.8,0-13.5-1.2-17.6-3.2l0.1-0.2c4.1,2,10.6,3.2,17.5,3.2s13.4-1.2,17.5-3.2l0.1,0.2
			C93.1,139.2,86.6,140.3,79.6,140.3z"/>
		<path class="st295" d="M79.6,104.3c-8.5,0-16.6-1.2-22.8-3.3l0.1-0.2c6.1,2.1,14.3,3.2,22.7,3.2s16.5-1.2,22.7-3.2l0.1,0.2
			C96.2,103.1,88.1,104.3,79.6,104.3z"/>
		<path class="st293" d="M106.4,88c0,3.4-5.1,6.4-12.6,8.1c-4.1,0.9-9,4.8-14.3,4.8c-5.7,0-10.9-4.1-15.2-5.1
			c-6.9-1.7-11.5-4.7-11.5-7.9c0-5.3,12-9.6,26.8-9.6S106.4,82.6,106.4,88z"/>
		<path class="st295" d="M85,97.1c0,1.4-2.4,3-5.4,3c-3,0-5.4-1.7-5.4-3H85z"/>
		<g>
			<g>
				<path class="st295" d="M74.9,121.2c-0.4,0.2-1.2,0.4-2.1,0.4c-2.9,0-4.5-2-4.5-4.8c0-3.4,2.2-5.1,4.8-5.1c1,0,1.7,0.2,2,0.4
					l-0.4,1.5c-0.4-0.2-0.9-0.3-1.6-0.3c-1.6,0-2.9,1.1-2.9,3.4c0,2.2,1.1,3.4,2.9,3.4c0.5,0,1.2-0.1,1.6-0.3L74.9,121.2z"/>
				<path class="st295" d="M83,117.4c0,2.8-1.3,4.1-3.5,4.1c-2.2,0-3.4-1.3-3.4-4.1v-5.7H78v5.9c0,1.7,0.6,2.4,1.6,2.4
					c1,0,1.6-0.7,1.6-2.4v-5.9h1.9L83,117.4L83,117.4z"/>
				<path class="st295" d="M84.9,112c0.6-0.1,1.4-0.2,2.5-0.2c1.2,0,2.1,0.2,2.7,0.8c0.5,0.5,0.9,1.2,0.9,2.2c0,2.7-2.2,3.3-3.7,3.3
					c-0.2,0-0.5,0-0.7-0.1v3.6h-1.9L84.9,112L84.9,112z M86.8,116.3c0.2,0,0.4,0.1,0.6,0.1c1.2,0,1.9-0.6,1.9-1.7
					c0-1-0.6-1.6-1.7-1.6c-0.4,0-0.6,0-0.8,0.1C86.8,113.3,86.8,116.3,86.8,116.3z"/>
			</g>
			<g>
				<path class="st295" d="M70.3,128.6c0,0.1-0.1,0.2-0.2,0.2c-0.8,3-2,4.5-4.6,5.4c-0.2-0.3-0.5-0.9-0.8-1.2c2-0.5,3.4-2,3.7-3.4
					h-4.8v-1.4H69l0.2-0.1L70.3,128.6z M69.2,127h-4.8v-1.4h4.8V127z"/>
				<path class="st295" d="M71.7,128.8h6.9v1.5h-6.5c-0.1,0.1-0.2,0.2-0.3,0.2L71.7,128.8z"/>
				<path class="st295" d="M81.9,127.2c0.6,0.3,1.3,0.7,2,1.2c0.4-0.7,0.9-2,1.3-3.1l1.6,0.8c-0.1,0.1-0.2,0.2-0.3,0.2
					c-0.4,0.9-0.9,2.1-1.4,3c0.4,0.3,1,0.8,1.5,1.2l-0.9,1.5c-0.4-0.4-0.9-0.9-1.4-1.3c-0.9,1.3-2,2.7-3.1,3.5
					c-0.2-0.3-0.8-0.9-1.1-1.1c1.2-0.8,2.3-2,3.1-3.3c-0.6-0.5-1.3-0.9-2-1.2L81.9,127.2z"/>
				<path class="st295" d="M89.3,126c0.9,0.3,1.9,0.9,2.4,1.2l-0.7,1.4c-0.6-0.5-1.6-1-2.4-1.3L89.3,126z M88.8,132.5
					c2.7-1,4.7-2.9,5.6-5.6c0.4,0.4,0.9,0.6,1.2,0.9c-1,2.7-3,4.8-5.8,5.9c0,0.1-0.1,0.2-0.2,0.2L88.8,132.5z"/>
			</g>
		</g>
		<g>
			<g>
				<path class="st295" d="M76.3,85.5c-0.2,0.1-0.9,0.2-1.6,0.2c-2,0-3-0.9-2.7-2.3c0.3-1.5,1.8-2.2,3.4-2.2c0.6,0,1.1,0.1,1.2,0.2
					L76.4,82c-0.2-0.1-0.5-0.2-1-0.2c-1,0-2,0.5-2.1,1.5c-0.2,1,0.5,1.6,1.7,1.6c0.4,0,0.9-0.1,1.1-0.2L76.3,85.5z"/>
				<path class="st295" d="M82.1,83.7c0.1,1.3-0.9,2-2.4,2c-1.6,0-2.3-0.6-2.3-2l0.2-2.4h1.2l-0.1,2.5c0,0.8,0.4,1.2,1.1,1.2
					c0.7,0,1.1-0.3,1.1-1.2l-0.1-2.5H82L82.1,83.7z"/>
				<path class="st295" d="M83.1,81.4c0.4-0.1,0.9-0.1,1.6-0.1c0.8,0,1.4,0.1,1.8,0.3c0.4,0.2,0.7,0.5,0.8,0.9
					c0.2,1.2-1.2,1.4-2.2,1.4c-0.2,0-0.3,0-0.5,0l0.2,1.7h-1.3L83.1,81.4z M84.5,83.3c0.2,0,0.2,0,0.5,0c0.8,0,1.2-0.3,1.1-0.7
					C86,82.1,85.6,82,84.9,82c-0.2,0-0.4,0-0.5,0L84.5,83.3z"/>
			</g>
			<g>
				<path class="st295" d="M72.7,88.6c0,0.1-0.1,0.1-0.2,0.1c-0.9,1.8-2,2.7-4.2,3.3c-0.1-0.2-0.3-0.5-0.5-0.8c1.7-0.4,3-1.2,3.4-2
					h-3.7l0.2-0.8h4.1l0.2-0.1L72.7,88.6z M72.1,87.7h-3.6l0.2-0.7h3.5L72.1,87.7z"/>
				<path class="st295" d="M73.8,88.7H79v0.9h-5.2c-0.1,0.1-0.2,0.1-0.2,0.1L73.8,88.7z"/>
				<path class="st295" d="M81.5,87.9c0.5,0.2,1,0.4,1.6,0.6c0.2-0.4,0.6-1.1,0.9-1.7l1.2,0.4c0,0.1-0.1,0.1-0.2,0.1
					c-0.2,0.5-0.5,1.2-0.9,1.6c0.3,0.2,0.8,0.5,1.2,0.7l-0.5,0.9c-0.3-0.2-0.8-0.5-1.2-0.9c-0.6,0.8-1.4,1.6-2.3,2.2
					c-0.2-0.2-0.6-0.5-0.9-0.7c0.9-0.5,1.8-1.2,2.3-2c-0.5-0.2-1-0.5-1.6-0.7L81.5,87.9z"/>
				<path class="st295" d="M86.9,87.1c0.6,0.2,1.4,0.5,2,0.7l-0.5,0.8c-0.5-0.2-1.3-0.5-2-0.8L86.9,87.1z M87.2,91
					c2.1-0.6,3.4-1.8,3.7-3.3c0.3,0.2,0.7,0.4,1,0.5c-0.4,1.6-1.6,2.9-3.7,3.6c0,0.1,0,0.2-0.1,0.2L87.2,91z"/>
			</g>
		</g>
	</g>
	<g>
		<path class="st137" d="M111.7,180.5l6,5.9c0,0,0.5,0.8,2.3,0.9c1.9,0.1,42.3-0.6,42.3-0.6s2.3-0.2,3.7-2c1.4-1.7,4.2-6.3,4.2-6.3
			l-58.4,1.5"/>
		<g>
			<path class="st296" d="M178,147.8l-75.7,12.6c-0.5,4.7-0.9,8.9-1,11.6c0,0.5,0,0.9,0.1,1.3l77.7-13
				C178.8,156.2,178.4,151.6,178,147.8z"/>
			<path class="st137" d="M176.8,138.1c-1-5-8.8-5.9-8.8-5.9h-52.5c-8.9-0.1-10.3,6.6-10.3,6.6s-1.7,11.5-2.9,21.4l75.7-12.6
				C177.5,143.3,177.1,139.5,176.8,138.1z"/>
			<path class="st297" d="M179.2,160.3l-77.7,13c1,7,10.7,8.3,10.7,8.3s50.9-0.9,59.7-1.3c8.8-0.4,8.6-6.2,8.6-6.2
				S179.9,167.7,179.2,160.3z"/>
		</g>
		<g>
			<g>
				<defs>
					<path id="SVGID_165_" d="M176.8,138.1c-1-5-8.8-5.9-8.8-5.9h-52.5c-8.9-0.1-10.3,6.6-10.3,6.6s-1.7,11.5-2.9,21.4l75.7-12.6
						C177.5,143.3,177.1,139.5,176.8,138.1z"/>
				</defs>
				<clipPath id="SVGID_8_">
					<use xlink:href="#SVGID_165_"  style="overflow:visible;"/>
				</clipPath>
				<g style="clip-path:url(#SVGID_8_);">
					<path class="st299" d="M102.8,143.8c0.6,0,0.9-2,6.3-2.3c5.4-0.3,8.2-2.4,11.4-2.9c3.1-0.5,5-0.3,6.4-0.3
						c1.5,0,1.3-0.5,4.1-0.6c2.8-0.1,4.9-0.9,6.7-0.7c2,0.2,5.3,1.5,5.8,1.5s5.1,0.5,5.9,0.8c0.8,0.3,3.7,2.4,5.7,3.1
						c1.9,0.7,5.4,2.4,6.1,4.3c0.8,1.9,2.2,2.8,2.3,3.7c0.1,0.9-63.6,12.2-63.6,12.2l2.5-18.9"/>
					<path class="st300" d="M105.7,146c-0.3,0-0.6-0.3-0.7-0.6c0-0.4,0.3-0.7,0.6-0.7c1.4-0.1,2-0.9,2.8-2c0.3-0.4,0.5-0.7,0.8-1.1
						c1.2-1.4,2.6-1.4,4-1.3c0.6,0,1.1,0,1.7,0c1.1,0.1,2.3,0.1,3.2-0.3c0.6-0.3,1.2-0.8,1.8-1.3c0.4-0.3,0.8-0.6,1.2-0.9
						c0.3-0.2,0.7-0.1,0.9,0.2c0.2,0.3,0.1,0.7-0.2,0.9c-0.3,0.2-0.7,0.5-1.1,0.8c-0.7,0.5-1.3,1.1-2.1,1.4
						c-1.2,0.6-2.6,0.5-3.8,0.4c-0.6,0-1.2,0-1.7,0c-1.4,0-2.2,0-3,0.9c-0.3,0.3-0.5,0.7-0.7,1C108.7,144.6,107.8,145.9,105.7,146
						L105.7,146z"/>
					<path class="st300" d="M119.2,143.7c-0.1,0-0.2,0-0.3-0.1c-0.3-0.2-0.5-0.5-0.3-0.9c1.9-4.1,6.1-2.9,7.5-2.4l0.3,0.1
						c1,0.3,2,0.6,2.9,0.6c0.7,0,1.1-0.3,1.7-0.8c0.2-0.1,0.4-0.3,0.6-0.4c1.5-1.1,3.3-2.1,5.9-1.1c0.7,0.3,1.3,0.6,1.9,1
						c1,0.6,1.9,1.1,2.9,1.1c0.4,0,0.7,0.3,0.7,0.6c0,0.4-0.3,0.7-0.6,0.7c-1.4,0-2.6-0.6-3.6-1.3c-0.6-0.3-1.1-0.7-1.7-0.9
						c-1.7-0.7-2.9-0.4-4.7,0.9c-0.2,0.1-0.4,0.3-0.5,0.4c-0.7,0.5-1.3,1.1-2.5,1.1c-1.1,0-2.3-0.3-3.3-0.6l-0.3-0.1
						c-3.2-1-5-0.4-5.9,1.7C119.7,143.5,119.5,143.7,119.2,143.7z"/>
					<path class="st301" d="M126.2,147.9c-0.1,0-0.2,0-0.3-0.1c-0.3-0.2-0.5-0.5-0.3-0.9c1.4-3,4.2-2.9,6.5-2.8c2,0.1,3.9,0.1,5-1.3
						c0.4-0.5,0.6-1,0.8-1.6c0.4-0.9,0.8-1.9,1.8-2.6c1.6-1.1,3.5-1.5,5.3-1.2c0.4,0.1,0.6,0.4,0.5,0.8c-0.1,0.4-0.4,0.6-0.8,0.5
						c-1.5-0.3-3,0.1-4.4,1c-0.7,0.5-1,1.2-1.3,2c-0.2,0.6-0.5,1.3-1,1.9c-1.5,2-3.9,1.9-6,1.8c-2.4-0.1-4.4-0.1-5.4,2
						C126.7,147.8,126.4,147.9,126.2,147.9z"/>
					<path class="st300" d="M130.3,153.4c-0.1,0-0.2,0-0.2,0c-0.6-0.2-1.1-0.6-1.5-1c-0.6-0.5-1.1-0.9-1.8-1c-0.5-0.1-1,0-1.6,0.1
						c-0.9,0.2-1.8,0.4-2.9-0.2c-0.9-0.5-1.6-1.2-2.3-1.9c-0.9-0.9-1.8-1.8-3.1-2.1c-1.1-0.3-2.9-0.1-3.8,0.5
						c-0.4,0.3-0.6,0.6-0.6,1c0,0.4-0.4,0.6-0.7,0.6c-0.4,0-0.6-0.4-0.6-0.7c0.1-0.8,0.5-1.4,1.2-1.9c1.3-0.9,3.4-1,4.9-0.7
						c1.6,0.4,2.7,1.4,3.7,2.4c0.7,0.6,1.3,1.3,2,1.7c0.7,0.4,1.3,0.2,2,0.1c0.6-0.1,1.3-0.3,2.1-0.1c1,0.2,1.8,0.8,2.4,1.3
						c0.4,0.3,0.8,0.6,1.2,0.8c0.3,0.1,0.5,0.5,0.4,0.9C130.9,153.2,130.6,153.4,130.3,153.4z"/>
					<path class="st300" d="M112.9,154.9c-0.2,0-0.3-0.1-0.5-0.2c-0.3-0.3-0.2-0.7,0-0.9c2.5-2.4,5.3-2.1,7.9-1.8
						c0.9,0.1,1.9,0.2,2.8,0.2l0,0c1.4,0,2-0.5,3.1-1.5c0.2-0.2,0.5-0.4,0.8-0.7c0.1-0.1,0.3-0.2,0.4-0.4c1.1-1,2.2-1.9,4-2
						c1.4-0.1,3.7,0.3,5.1,1.2c0.3,0.2,0.4,0.6,0.2,0.9c-0.2,0.3-0.6,0.4-0.9,0.2c-1.1-0.7-3.1-1-4.3-1c-1.4,0.1-2.1,0.7-3.2,1.7
						c-0.1,0.1-0.3,0.2-0.4,0.4c-0.3,0.2-0.5,0.4-0.7,0.6c-1.1,1-2,1.9-4,1.9l0,0c-1,0-2-0.1-2.9-0.2c-2.6-0.3-4.9-0.6-6.9,1.4
						C113.2,154.8,113,154.9,112.9,154.9z"/>
					<path class="st300" d="M112.5,153.8c-1.4-0.2-2.9-0.4-3.7-1.1c-0.5-0.4-0.6-1-0.8-1.5c-0.1-0.2-0.1-0.5-0.2-0.6
						c-0.6-1.1-1.5-1.2-3.1-1.1c-0.2,0-0.4,0-0.6,0c-0.4,0-0.7-0.3-0.7-0.7s0.3-0.7,0.7-0.7l0,0c0.2,0,0.4,0,0.5,0
						c1.6,0,3.4,0,4.3,1.9c0.1,0.3,0.2,0.6,0.3,0.9c0.1,0.3,0.2,0.7,0.4,0.9c0.5,0.4,2.3,0.7,3,0.8L112.5,153.8z"/>
					<path class="st301" d="M114.1,150.3c-0.3,0-0.6-0.2-0.6-0.5c-0.1-0.4,0.2-0.7,0.5-0.8c0.4-0.1,0.8-0.9,1-1.5
						c0.2-0.4,0.4-0.8,0.6-1.2c1.2-1.5,2.5-1.8,4.1-1.6c0.2,0,0.5,0.1,0.7,0.1c0.4,0.1,0.7,0.1,1.1,0.1c0.5-0.1,1-0.4,1.5-0.8
						c0.6-0.4,1.2-0.8,1.9-0.9c0.4-0.1,0.7,0.2,0.8,0.5c0.1,0.4-0.2,0.7-0.5,0.8c-0.5,0.1-0.9,0.4-1.4,0.7c-0.6,0.4-1.3,0.8-2.1,1
						c-0.5,0.1-1,0-1.5-0.1c-0.2,0-0.4-0.1-0.6-0.1c-1.5-0.1-2.2,0.1-3,1.1c-0.2,0.2-0.3,0.5-0.5,0.9
						C115.6,149.1,115.1,150.1,114.1,150.3C114.2,150.3,114.2,150.3,114.1,150.3z"/>
					<path class="st300" d="M117.4,145.9c-1,0-1.9-0.5-2.7-1c-0.7-0.4-1.3-0.8-2-0.8s-1.2,0.3-1.8,0.6c-0.5,0.3-1.1,0.6-1.8,0.8
						c-0.4,0.1-0.7-0.2-0.8-0.5c-0.1-0.4,0.2-0.7,0.5-0.8c0.5-0.1,0.9-0.3,1.3-0.6c0.7-0.4,1.4-0.9,2.5-0.8c1,0.1,1.8,0.5,2.6,1
						c0.7,0.4,1.3,0.8,2,0.8l0,0c0.4,0,0.7,0.3,0.7,0.7C118,145.6,117.7,145.9,117.4,145.9L117.4,145.9z"/>
					<path class="st300" d="M150.9,148.5c-0.1,0-0.2,0-0.2,0c-0.9-0.3-1.8-0.9-2.7-1.4c-2.2-1.3-4.5-2.7-6.1-1.5
						c-0.5,0.3-0.9,0.7-1.3,1.1c-0.7,0.6-1.5,1.4-2.7,1.7c-0.4,0.1-0.7-0.1-0.8-0.5c-0.1-0.4,0.1-0.7,0.5-0.8c0.8-0.2,1.4-0.8,2-1.4
						c0.4-0.4,0.9-0.9,1.5-1.3c2.4-1.6,5.3,0.1,7.5,1.5c0.9,0.5,1.8,1.1,2.5,1.3c0.3,0.1,0.5,0.5,0.4,0.8S151.1,148.5,150.9,148.5z"
						/>
					<path class="st300" d="M146.2,143.1c-0.5,0-1,0-1.4-0.1c-0.2,0-0.5,0-0.7,0c-0.4,0-0.6-0.3-0.6-0.7s0.3-0.6,0.7-0.6
						c0.2,0,0.5,0,0.7,0c1.4,0.1,2.8,0.2,3.8-0.6c0.3-0.2,0.6-0.5,0.8-0.8c0.7-0.8,1.5-1.7,3.3-1c0.3,0.1,0.5,0.5,0.4,0.8
						c-0.1,0.3-0.5,0.5-0.8,0.4c-1-0.4-1.2-0.1-1.8,0.6c-0.3,0.3-0.6,0.7-1,1C148.5,142.9,147.4,143.1,146.2,143.1z"/>
					<path class="st300" d="M138.1,152.8c-0.1,0-0.1,0-0.2,0c-0.4-0.1-0.6-0.4-0.5-0.8c0.6-2.4,4.7-3.2,6.4-2.8
						c0.4,0.1,0.9,0.3,1.6,0.6c1.5,0.6,4.3,1.8,5.2,0.9c0.2-0.3,0.7-0.3,0.9-0.1c0.3,0.2,0.3,0.7,0.1,0.9c-1.5,1.7-4.6,0.3-6.6-0.5
						c-0.6-0.2-1.1-0.5-1.4-0.5c-1.5-0.4-4.6,0.5-4.9,1.8C138.7,152.6,138.4,152.8,138.1,152.8z"/>
					<path class="st301" d="M132,155c-0.1,0-0.1,0-0.2,0c-0.4,0-0.6-0.4-0.6-0.7c0-0.4,0.4-0.6,0.7-0.6c0.4,0,0.8-0.3,1.3-0.6
						c0.4-0.3,0.9-0.6,1.4-0.8c0.4-0.1,0.7-0.2,1-0.3c0.7-0.1,1-0.2,1.6-0.8c0.4-0.4,0.8-0.8,1.2-1.2c1.7-1.9,3.3-3.6,6.4-3.5
						c0.4,0,0.6,0.3,0.6,0.7c0,0.4-0.3,0.7-0.7,0.6c-2.6-0.1-3.9,1.3-5.5,3c-0.4,0.4-0.8,0.8-1.2,1.3c-0.9,0.9-1.5,1-2.3,1.2
						c-0.3,0.1-0.6,0.1-0.9,0.2c-0.3,0.1-0.6,0.3-1,0.6C133.4,154.6,132.8,155,132,155z"/>
					<path class="st301" d="M126.1,144.1c-0.2,0-0.3-0.1-0.5-0.2c-0.3-0.3-0.3-0.7,0-0.9c0.8-0.8,1.1-1.5,1.6-2.4
						c0.1-0.3,0.3-0.5,0.4-0.8c0.9-1.6,3.1-4.2,5.5-3.3c0.3,0.1,0.5,0.5,0.4,0.8c-0.1,0.3-0.5,0.5-0.8,0.4c-1.6-0.6-3.2,1.5-3.9,2.7
						c-0.2,0.3-0.3,0.6-0.4,0.8c-0.5,1-0.9,1.7-1.8,2.7C126.4,144.1,126.2,144.1,126.1,144.1z"/>
					<path class="st300" d="M133.4,143c-0.1,0-0.3,0-0.4-0.1c-0.3-0.2-0.3-0.6-0.1-0.9c0.1-0.1,0.2-0.3,0.3-0.5
						c1.3-1.8,3.8-5.2,6.2-5.4c0.8-0.1,1.6,0.2,2.2,0.8c0.3,0.3,0.3,0.7,0,0.9c-0.3,0.3-0.7,0.3-0.9,0c-0.4-0.4-0.8-0.5-1.2-0.5
						c-1.9,0.2-4.2,3.4-5.3,4.9c-0.1,0.2-0.2,0.3-0.3,0.5C133.8,142.9,133.6,143,133.4,143z"/>
					<path class="st301" d="M153,145.4c-0.1,0-0.1,0-0.2,0c-0.3-0.1-0.6-0.2-0.8-0.2c-1.2-0.3-2.4-0.7-3.5-1.8
						c-0.4-0.4-0.7-0.8-0.9-1.2c-0.7-1-1.2-1.6-2.6-1.8c-0.4,0-0.6-0.4-0.6-0.7c0-0.4,0.4-0.6,0.7-0.6c2,0.2,2.8,1.3,3.5,2.3
						c0.3,0.4,0.5,0.7,0.8,1.1c0.8,0.9,1.7,1.1,2.9,1.4c0.3,0.1,0.6,0.2,0.9,0.2c0.3,0.1,0.5,0.5,0.4,0.8S153.2,145.4,153,145.4z"/>
					<path class="st300" d="M129.9,147.4c-1.1,0-2.4-0.4-3.3-0.7c-0.7-0.3-1.4-0.7-2-1.1c-0.6-0.5-1.3-0.9-1.9-1
						c-0.6-0.1-1.3-0.1-2.1-0.1c-0.6,0-1.3,0.1-2,0c-0.4,0-0.6-0.4-0.6-0.7c0.1-0.4,0.4-0.6,0.7-0.6c0.5,0.1,1.1,0.1,1.7,0
						c0.8,0,1.6-0.1,2.4,0.1c0.9,0.2,1.7,0.7,2.4,1.2c0.6,0.4,1.1,0.8,1.7,1c0.9,0.3,2.2,0.7,3.1,0.6c0.4,0,0.7,0.2,0.7,0.6
						c0,0.4-0.2,0.7-0.6,0.7C130.1,147.4,130,147.4,129.9,147.4z"/>
					<path class="st301" d="M111,151.4c-1.7,0-2.4-1.5-3-2.7c-0.4-0.8-0.8-1.6-1.4-1.9c-0.3-0.1-0.5-0.5-0.3-0.9
						c0.1-0.3,0.5-0.5,0.9-0.3c1,0.5,1.5,1.5,2,2.5c0.6,1.3,1,2,2,2c0.4,0,0.7,0.2,0.7,0.6c0,0.4-0.2,0.7-0.6,0.7
						C111.1,151.4,111,151.4,111,151.4z"/>
					<path class="st302" d="M114.8,142.2c0.2,0,0.4,0.4,0.7,0.3c0.5-0.1,0.8-0.4,1.2-0.7c1.1-0.8,0.9-0.8,2.2-0.4
						c0.8,0.2,1.6,0.3,1.7,1.3c-1.3,0.4-2,0.5-3.2,1.2c-0.9,0.5-1.1,0.5-2.2,0.5c-0.7,0-2.2,0.6-2.4-0.3
						C112.6,143.4,114.1,142.2,114.8,142.2z"/>
					<path class="st302" d="M139.1,142.6c0.8-0.9,1.6,0,2.7,0.1c0.7,0.1,1.3-0.2,2-0.1c1.1,0.1,2.1,0.7,3.2,1.3
						c-0.4,0.5-0.8,1.7-1.2,2c-0.7,0.6-2.2,0.1-3.3,0c-0.9-0.1-2.8,0.1-3.4-0.6C138.6,144.7,138.6,143.1,139.1,142.6z"/>
					<path class="st302" d="M119.8,154c0.8-0.5,1.2-1.9,1.9-2.7c0.7-0.7,1-0.7,1.8-0.9c0.7-0.2,0.9,0.1,1.5-0.4
						c0.5-0.4,0.8-1.3,1-1.9c1,1,2,2.1,3.1,2.9c-1.1,0.7-1.9,2-3,2.6c-1.1,0.6-1.6,0-2.5,1c-0.8,0.9-0.6,1.4-1.7,0.5
						c-0.6-0.5-0.8-0.8-1.6-1L119.8,154z"/>
					<path class="st302" d="M106.2,153.8c0.5,0.3,1.4,0.2,2,0.4c0.6,0.2,0.7,0.4,1,0.7c0.3,0.3,0.2,0.5,0.6,0.7
						c0.3,0.2,1,0.1,1.3,0.1c-0.3,0.8-0.6,1.7-0.8,2.5c-0.7-0.5-1.6-0.5-2.2-1c-0.6-0.5-0.4-0.9-1.2-1.1c-0.7-0.2-1,0.1-0.8-0.8
						c0.1-0.5,0.3-0.7,0.2-1.2L106.2,153.8z"/>
					<path class="st302" d="M149.4,148.3c0.7-1.1,1.5-1.8,2.9-1.7c0.9,0,1.6,0.4,2.4,0.1s0.7-0.8,1.5-0.3c0.7,0.4,1.1,1.5,1.7,2
						c-1.1,0.1-2.1,0.7-2.9,1.3c-1.3,1-1.2,1.2-3,0.4C150.8,149.6,150.4,149,149.4,148.3"/>
					<rect x="128.1" y="144" class="st303" width="0.8" height="0.6"/>
					<rect x="124" y="147.8" class="st304" width="0.8" height="0.6"/>
					<rect x="112.9" y="145.6" class="st304" width="0.8" height="0.6"/>
					<rect x="124.8" y="140.3" class="st304" width="0.8" height="0.6"/>
					<rect x="132.7" y="145.3" class="st304" width="0.8" height="0.6"/>
					
						<rect x="137.7" y="141.3" transform="matrix(0.7619 -0.6477 0.6477 0.7619 -58.8275 123.1824)" class="st304" width="0.8" height="0.6"/>
					<polygon class="st304" points="140.2,148.3 139.6,148.8 139.2,148.4 139.8,147.9 					"/>
					
						<rect x="118.6" y="152.5" transform="matrix(0.9994 -3.385434e-02 3.385434e-02 0.9994 -5.1054 4.1156)" class="st304" width="0.8" height="0.6"/>
					
						<rect x="113.9" y="151.9" transform="matrix(0.9995 -3.187357e-02 3.187357e-02 0.9995 -4.794 3.7212)" class="st304" width="0.8" height="0.6"/>
					<rect x="121.2" y="146.2" class="st303" width="0.8" height="0.6"/>
					<polygon class="st303" points="118,149.4 117.2,149.7 117,149.2 117.8,148.9 					"/>
					<polygon class="st303" points="135.9,146.7 135.1,147 134.9,146.4 135.7,146.1 					"/>
					<polygon class="st303" points="123.5,141.3 122.8,141 123,140.5 123.7,140.8 					"/>
					<polygon class="st303" points="132,151.1 131.2,150.8 131.4,150.3 132.2,150.6 					"/>
					<polygon class="st303" points="135.8,142 135.2,142.6 134.8,142.2 135.4,141.7 					"/>
					
						<rect x="128.7" y="142.6" transform="matrix(0.6995 -0.7146 0.7146 0.6995 -63.2956 135.1945)" class="st303" width="0.8" height="0.6"/>
					
						<rect x="142.8" y="149.3" transform="matrix(7.498341e-02 -0.9972 0.9972 7.498341e-02 -16.8482 281.1465)" class="st303" width="0.6" height="0.8"/>
					
						<rect x="115.1" y="150.2" transform="matrix(7.654195e-02 -0.9971 0.9971 7.654195e-02 -43.504 254.1411)" class="st303" width="0.6" height="0.8"/>
					
						<rect x="110.8" y="144.9" transform="matrix(0.8811 -0.473 0.473 0.8811 -55.4515 69.8544)" class="st303" width="0.8" height="0.6"/>
					
						<rect x="110.4" y="153.3" transform="matrix(0.8818 -0.4717 0.4717 0.8818 -59.3694 70.4011)" class="st303" width="0.8" height="0.6"/>
					
						<rect x="117.5" y="153.1" transform="matrix(0.8829 -0.4695 0.4695 0.8829 -58.2398 73.3192)" class="st303" width="0.8" height="0.6"/>
					<path class="st302" d="M127.5,140.8c0.8-2.7,3.3-1.6,5.2-2.5c0,0.6,0.1,1.2,0.1,1.8c-0.9,0.1-1.5-0.1-2.1,0.4
						c-0.4,0.3-0.5,0.9-1,1.1C128.9,142,127.9,141.4,127.5,140.8"/>
				</g>
			</g>
		</g>
		<g>
			<path class="st2" d="M106.2,161.7c0.4-0.1,1.6,0.3,1.9,1.5c0,0.2,0.1,0.9,0.2,1s0.1,0.2,0.4,0.5c0.1,0.1,0.2,0.3,0.2,0.6
				c0,0.5-0.7,0.9-1.1,0.9c-0.6,0.1-1.7-0.3-1.7-1.7c0-0.3,0.1-1.6,0-1.7c0-0.1-0.2-0.3-0.3-0.4c0-0.1,0-0.1,0-0.2
				C105.7,161.9,106,161.7,106.2,161.7z M106.7,170c0-0.2,0.4-0.4,0.6-0.4c0.4-0.1,0.7-0.3,1.6-1.3c0.4-0.5,1.1-1.3,2.3-3.9
				c0.2-0.5,0.9-2.1,1-2.4c0-0.1-0.1-0.2-0.1-0.2c-0.3-0.2-0.7-0.5-0.6-1c0-0.4,0.4-0.7,0.7-0.7c0.7-0.1,2.2,0.5,2,2.1
				c0,0.5-0.6,3.7-2.4,6.3c-0.6,0.9-1.4,1.9-2.7,2.1C108.5,170.7,106.7,170.5,106.7,170z"/>
			<path class="st2" d="M115.3,163.7c0.1,0,0.4,0,0.5,0s1.1-0.3,1.3-0.3c1.2-0.4,1.5-0.5,2.5-0.7c1.2-0.3,2.3-0.5,2.6-0.6
				c0.8-0.1,2.6-0.4,2.5,1c0,0.5-0.4,1-1.2,1.1c-0.1,0-0.9,0.1-1,0.1c-0.5,0.1-1.1,0.1-1.4,0.2c-0.8,0.1-1.7,0.3-2.5,0.5
				c-1.1,0.2-1.1,0.2-1.3,0.3c-1.4,0.2-2.1-0.4-2.2-0.9C115,164,115.1,163.7,115.3,163.7z"/>
			<path class="st2" d="M133.1,166.4c-0.3,0-0.8-0.1-1.2-0.5c-0.9-1-1.1-1.1-1.6-1.5c-0.1,0-0.2-0.1-0.2-0.1s0,0-0.2,0.2
				c0,0.1-1.5,1.8-1.6,2c-0.3,0.4-0.8,0.9-1.5,1c-0.5,0.1-1.1,0-1.8-0.5c-0.1-0.1-0.3-0.2-0.3-0.4c0-0.1,0-0.1,0.4-0.3
				c0.5-0.3,1.3-1.3,1.9-1.9c0.3-0.4,1.8-2.1,2.1-2.5c1.5-1.7,2.2-2.3,2.9-2.8c0-0.1,0-0.2,0-0.2c0-0.1-0.1-0.3-0.3-0.3
				c-0.1,0-0.1,0-0.6,0.4c-1.2,0.9-2,1.5-3,1.7c-1.3,0.2-2-0.5-1.9-1c0-0.2,0.2-0.4,0.3-0.5h0.3c0.2,0,0.3-0.1,1.4-0.8
				c1.4-0.9,2.5-1.4,3.2-1.5c1.6-0.3,2.6,1.2,2.5,2.3c0,0.1-0.1,0.7-0.7,1.3c-0.6,0.6-1.2,1.1-1.6,1.6c-0.1,0.1-0.1,0.2-0.1,0.2
				c0,0.1,0,0.1,0.3,0.2c0.9,0.3,1.9,1,2.2,1.6c0.2,0.4,0.2,0.7,0.2,1C134.2,165.5,133.7,166.3,133.1,166.4z"/>
			<path class="st2" d="M141,156.1c-0.1-0.1-0.3-0.2-0.2-0.5c0-0.3,0.3-0.6,0.8-0.7c0.6-0.1,1.2,0.2,1.5,0.6c1.1-0.2,2.5,0,2.4,0.8
				c0,0.4-0.3,1-1.2,1.1c0.1,0.1,0.3,0.3,0.3,0.7c0.7,0.2,0.7,0.6,0.7,0.9c-0.1,0.8-0.5,0.9-0.9,0.9c-0.1,0.2-0.2,0.2-0.3,0.4
				c0.7,0,1,0.2,1,0.8c-0.1,0.8-0.7,0.9-1,1c0.3,0.3,0.3,0.4,0.4,0.5c0.4,0.4,0.6,0.6,0.5,1.3c0,0.4-0.1,0.7-0.3,0.9
				c-0.4,0.7-1.5,0.8-1.6,0.8c-0.3,0-1.1,0.1-1.5-0.1c-0.5-0.3-0.7-0.9-0.6-1.4c0-0.4,0.2-1,0.4-1.5c-0.2,0.1-0.9,0.2-1.1,0.3
				c0.4,0.2,0.4,0.5,0.4,0.8c0,0.2-0.1,1.3-0.7,1.9c-0.2,0.2-0.4,0.4-0.9,0.5c-0.3,0.1-0.5,0-0.6,0c-0.1,0.1-0.2,0.2-0.5,0.2
				c-0.9,0.1-0.9-0.6-0.9-1.3c0-0.3,0-0.7-0.1-0.9c-0.1,0.4-0.3,1.2-0.4,1.5c-0.2,0.5-0.6,1-1,1.1c-0.7,0.1-1.2-0.8-1.1-1.3
				c0-0.2,0-0.2,0.3-0.5c0-0.1,0.3-0.5,0.6-1.1c0.3-0.7,0.5-1.4,0.7-1.8c0,0-0.1,0.1-0.2,0.1c-0.4,0.1-1.1-0.3-0.9-2.2
				c0-0.2,0.1-1.2,0.4-1.7c0.1-0.2,0.2-0.3,0.5-0.4s0.5,0,0.5,0.6c0,0.3-0.1,0.4-0.1,0.7c-0.1,0.2-0.1,0.3-0.1,0.4
				c0,0,0,0.2,0.1,0.2s0.3-0.4,0.5-0.6c0.1-0.7,0.1-0.8,0.1-1.5c-0.1-0.1-0.4-0.4-0.4-0.9c0-0.2,0.1-0.8,0.8-0.9
				c0.2,0,0.9-0.1,1.2,0.9c0.2-0.2,0.4-0.3,0.5-0.3c0.3,0,0.7,0.2,0.9,0.7c0.1-0.1,0.6-0.4,0.7-0.5c0.3-0.2,0.4-0.3,0.6-0.3
				L141,156.1z M137.6,161.9c0.2,0.1,0.4,0.3,0.6,0.7c0.4,0.8,0.5,1.7,0.6,1.8c0.4-0.4,0.5-0.8,0.5-0.9c-0.2-0.2-0.2-0.3-0.2-0.5
				c-0.1,0-0.6-0.2-0.6-0.7c0-0.1,0-0.2,0.6-0.4c0.2-0.1,0.2-0.1,0.8-0.4c-0.1-0.2-0.2-0.5-0.2-0.6c-0.4,0.1-0.4,0.2-0.5,0.2
				s-0.1,0-0.2,0c-0.1,0.2-0.2,0.5-0.8,0.5c-0.3,0-0.4,0-0.6-0.2C137.6,161.6,137.6,161.6,137.6,161.9z M137.9,160.2
				C137.9,160.1,137.9,160.1,137.9,160.2c0.4-0.8,0.6-1.4,0.6-2.1c0-0.1,0-0.2,0-0.2c-0.1,0-0.3,0.4-0.3,0.5
				C138.1,158.6,137.9,159.9,137.9,160.2z M139.7,159.5c0-0.1,0-0.1,0-0.2c-0.1-0.1-0.2-0.1-0.2-0.2c0,0,0,0.1,0,0.2s0,0.2-0.1,0.4
				C139.6,159.6,139.6,159.6,139.7,159.5z M140.7,159C140.8,159,140.8,159,140.7,159c0-0.3,0-0.5,0-1c-0.4,0.1-0.8,0.3-1.1,0.3v0.2
				C139.9,158.4,140.4,158.4,140.7,159z M141,160.5c0,0.3,0,0.3,0,0.5c0.5-0.2,0.9-0.3,1.1-0.4c0.1-0.2,0.2-0.4,0.3-0.6
				C142.2,160.1,142,160.1,141,160.5z M142.9,157.4c0,0.3-0.1,0.5-0.1,0.8c0.1,0,0.2,0,0.4-0.1c0,0,0-0.1,0-0.2
				c-0.1-0.1-0.1-0.2-0.1-0.3c0-0.2,0.2-0.3,0.2-0.3C143,157.3,143,157.3,142.9,157.4z M143.1,162.4c0,0.2-0.1,0.5-0.1,0.6
				c-0.1,0.2-0.1,0.3-0.1,0.3c0,0.1,0,0.2,0.2,0.1c0.3,0,0.6-0.5,0.6-0.9c0-0.2,0-0.4,0-0.5c-0.3,0-0.4,0.1-0.6,0.1
				C143.1,162.2,143.1,162.2,143.1,162.4z"/>
			<path class="st2" d="M147.1,156.3l0.9-0.3l1-0.4c0,0,0,0,0-0.1c0,0,0-0.1-0.1-0.2c0-0.1-0.1-0.2-0.1-0.4c0-0.5,0.5-1.1,1.1-1.2
				c0.2,0,0.5,0,0.7,0.5c0,0.1,0.1,0.5,0.2,0.6c0.1,0,0.2,0,0.7-0.2c0.1,0,0.2,0,0.3-0.1c1.2-0.2,1.6,0.6,1.5,1
				c0,0.2-0.1,0.6-0.4,0.7c-0.2,0.1-1.3,0.2-1.3,0.4c0,0.1,0.2,0.2,0.2,0.2l0.2-0.1c0.3-0.1,0.6-0.1,0.7-0.2
				c1.1-0.2,1.5,0.6,1.4,1.1c0,0.1-0.1,0.7-0.7,0.9c-0.2,0-0.2,0.1-0.3,0.1c0,0.1,0,0.2,0.2,0.7c0.1,0.2,0.1,0.5,0.1,0.6
				c-0.1,0.7-0.6,1.3-1.1,1.3c-0.3,0-0.4,0-0.7-0.1c-1-0.3-2.5-0.2-3-0.1c-1,0.2-1.2,0.6-1.2,0.8c0,0.5,0.8,0.4,1.4,0.3
				c0.5-0.1,0.8-0.2,1.1-0.3c0.7-0.2,0.9-0.3,1.4-0.4c0.2,0,1.1-0.2,1.1,0.8c-0.1,1.3-1.8,1.5-2.6,1.6c-0.7,0.1-2.4,0.4-3.4-0.2
				c-0.7-0.4-0.7-1.1-0.7-1.5c0.1-1.9,2.5-2.2,3-2.3c0.5-0.1,1-0.1,1.3-0.1c0.1,0,0.7,0,0.7,0s0.2,0,0.2-0.1s-0.3-0.5-0.4-0.6
				c-0.3,0.1-0.4,0.1-1,0.3c-0.4,0.1-0.8,0.2-1.1,0.3c-0.3,0.1-0.9,0.1-1.4-0.1c-0.4-0.2-0.6-0.7-0.5-1.1c0-0.2,0.1-0.4,0.1-0.5
				c0,0,0.1-0.1,0.1-0.2s0-0.1-0.2-0.1c-0.4-0.2-0.7-0.8-0.7-1.1c0-0.2,0.1-0.5,0.5-0.6c0.1,0,0.2,0,0.2,0l0.3,0.1h0.3V156.3z
				 M148.4,157.6c-0.4,0.1-0.4,0.2-0.4,0.3c0,0.2,0.1,0.3,0.3,0.2c0.3,0,1.1-0.3,1.3-0.4c0,0,0,0,0-0.1l-0.2-0.3h-0.1L148.4,157.6z"
				/>
			<path class="st2" d="M164.8,155.5c0,0.2-0.1,0.5-0.4,0.7c-0.3,0.2-0.4,0.2-0.7,0.3c-0.5,0.1-1,0.2-2.2,0.8
				c-0.4,0.2-2.1,1.2-2.1,1.9c0,0.5,0.7,0.9,1.7,0.7c0.2,0,0.9-0.2,1-0.2c0.3-0.1,1.3-0.1,1.3,0.8c0,0.6-0.5,1.3-2,1.6
				c-2.1,0.3-3.9-0.4-3.8-2.3c0-0.4,0.1-0.6,0.2-0.8c-0.1,0-0.1,0-0.2,0.1c-0.2,0.1-0.4,0.2-0.5,0.2c-1,0.2-1.7-0.6-1.7-1
				c0,0,0-0.1,0.2-0.2c0.5-0.3,0.6-0.3,1.2-0.7c0.1-0.1,0.4-0.2,0.4-0.3l0,0c0-0.1-0.1-0.1-0.2-0.1s-1-0.4-0.9-1.7
				c0-0.6,0.5-1.3,1-1.4c0.4-0.1,0.6,0.3,0.6,0.4l0.1,0.7c0,0.1,0.1,0.1,0.1,0.1c0.1,0,0.4-0.3,0.5-0.4c1.1-1.1,1.7-1.7,2.4-2.2
				c0.3-0.2,0.8-0.5,1.2-0.5c1.2-0.2,2,0.8,1.9,1.4c0,0.2-0.1,0.5-0.5,0.9C164.5,154.4,164.8,155,164.8,155.5z M159.9,155.6
				c0.1-0.1,0.5-0.3,0.6-0.3c0,0,1.5-1.5,1.5-1.6c0,0-0.1-0.2-0.2-0.1c-0.2,0-0.4,0.2-0.9,0.8c-0.6,0.7-0.7,0.8-0.8,1
				C160,155.4,159.9,155.5,159.9,155.6L159.9,155.6z"/>
			<path class="st2" d="M171.6,152.6c0.1-0.4,0.1-0.5,0-0.6s-0.4-0.4-0.4-0.7c0-0.2,0.3-0.7,0.7-0.8c0.3-0.1,1.3,0,1.6,1
				c0.1,0.3,0.1,0.3,0.2,0.3c0.4,0,0.8,0,1.2,0.3c0.1,0.1,0.4,0.3,0.3,0.8c-0.1,0.9-0.6,1-1,1c-0.5,0.1-0.5,0.1-0.5,0.4
				c0,0.2,0,0.9,0,1.1s-0.1,1.1-0.1,1.3c0,0.1,0,0.1,0.2,0.2c0,0,1.3,0.7,1.2,1.6c0,0.5-0.4,1.2-1,1.3c-0.2,0-0.5-0.1-0.6-0.1
				c-0.2-0.1-0.4-0.4-0.5-0.4l0,0c-0.1,0-0.1,0.1-0.2,0.3c-0.5,0.8-1.5,1.1-1.9,1.2c-1.4,0.2-2-0.5-2.1-0.9
				c-0.1-0.4-0.1-0.4-0.2-0.7c0-0.2,0-0.3,0-0.4c0.1-1.3,1.6-2.1,2.8-2.3h0.2l0.1-0.2l0.1-1c0-0.1,0-0.1-0.1-0.1
				c0,0-0.4,0.2-0.5,0.2c-0.3,0.1-0.6,0.2-0.9,0.3c-0.3,0-0.4,0-1-0.1c-0.1,0-0.1,0-0.1,0c-0.2,0-0.3,0.2-0.4,0.5
				c-0.2,0.5-0.3,1.1-0.3,1.6c0,0.2,0,0.3,0,0.4v1.1l0.1,1c0,0.1,0,0.2,0,0.3c-0.1,0.7-0.7,0.9-0.9,0.9c-0.8,0.1-1.3-0.3-1.6-0.8
				c-0.2-0.5-0.4-1.4-0.3-2.5c0.1-0.7,0.2-1.5,0.6-2.8c0.2-0.5,0.2-0.8,0.3-1.2c0-0.3,0-0.4-0.1-1.2v-0.2c0-0.4,0.3-0.8,0.7-0.8
				c0.7-0.1,1.4,0.7,1.3,1.8c0,0.5-0.1,0.8-0.5,2c-0.4,1.1-0.5,1.9-0.6,2.4c0,0.2-0.1,0.9,0.2,0.8c0.1,0,0.1-0.1,0.1-0.1
				c0-0.3,0.1-1.3,0.4-2.3c0.2-0.7,0.6-1.9,1.3-2.2c0.1-0.1,0.6-0.2,0.7-0.2s0.2-0.1,0.5-0.3l0.7-0.5l0.5-0.3L171.6,152.6z
				 M170.8,158.4c0-0.1,0.1-0.2,0.1-0.3c0-0.1,0-0.1-0.1-0.1c-0.4-0.1-0.5-0.1-0.7,0c-0.1,0-0.4,0.1-0.4,0.3c0,0.4,0.3,0.7,0.7,0.6
				C170.6,158.9,170.7,158.6,170.8,158.4z M174.9,150.9c0-0.2-0.2-0.5-0.3-0.5c0,0-0.1,0-0.1,0.1c0,0,0,0.5,0,0.6s-0.1,0.3-0.1,0.4
				c-0.1,0.1-0.2,0.2-0.4,0.2c-0.3,0-0.3,0-0.3-0.1c-0.1-0.1-0.1-0.1-0.2-0.5c0-0.1-0.3-0.4-0.3-0.5c0-0.2,0.2-0.3,0.4-0.3
				c0.1,0,0.3,0,0.5,0.1c0.3-0.4,0.6-0.5,0.7-0.5c0.4-0.1,1,0.3,1,1c0,0.4-0.2,0.7-0.7,0.7c-0.2,0-0.3-0.1-0.3-0.3v-0.2L174.9,150.9
				z"/>
		</g>
		<path class="st300" d="M115.6,157.7c-0.3,0-0.6,0-0.9-0.1c-0.7-0.2-1.3-0.5-1.9-0.8c-0.7-0.4-1.3-0.7-2.1-0.7
			c-1.6-0.1-3.6,0.3-5.3,0.7l-0.5,0.1c-0.4,0.1-0.7-0.1-0.8-0.5c-0.1-0.4,0.1-0.7,0.5-0.8l0.5-0.1c1.8-0.4,3.8-0.8,5.6-0.7
			c1.1,0.1,1.9,0.5,2.6,0.9c0.5,0.3,1,0.5,1.6,0.7c1,0.2,2.1-0.2,3.1-0.6c0.3-0.1,0.6-0.2,0.8-0.3c0.2-0.1,0.3-0.1,0.4-0.2
			c0.4-0.2,1-0.5,1.8-0.1c0.3,0.1,0.5,0.5,0.3,0.9c-0.1,0.3-0.5,0.5-0.9,0.3c-0.2-0.1-0.3-0.1-0.7,0.1c-0.2,0.1-0.4,0.2-0.6,0.3
			c-0.3,0.1-0.5,0.2-0.8,0.3C117.7,157.3,116.7,157.7,115.6,157.7z"/>
		<g>
			<path class="st137" d="M149.1,169.5l1.3-0.6l0.3-0.1c0.1-0.3,0.4-1,0.4-1.4c0-0.1,0-0.2-0.4-0.5c-0.2-0.1-0.3-0.3-0.3-0.6
				c0-0.5,0.2-0.7,0.5-0.9c0.3-0.2,0.7-0.3,1-0.3c1.2-0.1,2.4,1,2.5,1.9c0,0.1,0,0.3,0,0.4l1.2-0.3c0.2,0,0.6-0.1,0.8-0.1
				c2.4-0.1,4,1.2,4,2.1c0,0.4-0.1,0.8-0.4,1c-0.4,0.3-0.4,0.4-0.9,0.4c-0.2,0-0.3,0-0.4,0l-0.9-0.2c-0.3-0.1-0.8-0.1-1.1-0.1
				c-0.6,0-1.1,0.2-1.6,0.4l1.3,0.7l1.5,0.9l0.3,0.2l0.8,0.6c0.4,0.3,1,0.8,1.3,1.5c0.1,0.2,0.2,0.6,0.2,0.9c0,0.5-0.2,0.9-0.5,1.2
				c0,0-0.1,0-0.1,0.1c-0.2,0.2-0.3,0.2-0.7,0.3c0,0-0.2,0-0.3,0c-0.6,0-1.3-0.4-1.6-0.7l-0.8-0.9l-0.9-1l-0.9-0.9
				c-0.6-0.7-1.3-1.1-1.6-1.2v0.1l-0.5,1.1v0.1c0.1,0,0.6,0.1,0.6,0.2c0.8,0.4,2.1,1.3,2.1,2.5c0,0.6-0.5,1-0.7,1.1
				c-0.1,0.1-0.2,0.1-0.7,0.2c-1,0.1-1.7-0.7-1.7-1.1c0-0.1,0-0.7,0-0.7c-0.1-0.3-0.2-0.4-0.3-0.5c-0.6,1.5-1.8,2.2-2.6,2.2
				c-0.6,0-1.4-0.4-1.4-0.4c-1-0.6-1.3-0.9-1.4-1.2c0-0.2,0.1-0.2,0.3-0.3c0.4-0.1,1.4-1,1.8-1.5c0.5-0.9,0.7-1.2,1-2
				c-0.1,0-0.6,0.1-0.7,0.1c-1.3,0.1-2.5-0.6-2.5-1.4c0-0.3,0.4-0.5,0.5-0.5s0.3,0,0.3,0L149.1,169.5z"/>
			<path class="st137" d="M163.6,168.8c-0.1,0-0.2,0.1-0.4,0.1c-0.8,0-1.6-0.3-1.6-0.8c0-0.3,0.4-0.4,0.5-0.4c0.3,0,0.4-0.1,1.5-0.5
				v-0.3c-0.1,0-0.4,0.1-0.5,0.1c-1,0.1-1.7-0.3-1.8-0.7c0-0.2,0.1-0.3,0.5-0.4c0.5-0.2,1.2-0.4,1.6-0.6c-0.2-0.1-0.5-0.2-0.5-0.5
				c0-0.6,1.1-0.7,1.3-0.7c0.7,0,1.4,0.1,1.9,0.6c0.1,0,0.5-0.1,1.1,0c0.7,0.1,0.8,0.3,0.9,0.4c0.1,0,0.1,0,0.2,0
				c0.2,0,0.4-0.1,0.5-0.1c2.3-0.7,2.9-0.9,3.7-1c1.8-0.1,3.1,0.7,3.1,1.5c0,0.4-0.3,0.7-0.7,0.7c-0.1,0-0.7-0.1-0.8-0.1
				c-0.2,0-0.5-0.1-1,0c-0.5,0-0.7,0.1-1,0.2c0.2,0.1,0.3,0.2,0.3,0.3c2-0.2,3,1.2,3.1,2.5c0,0.1,0,1.9,0,2.3c0,0.2,0.1,1.3,0.1,1.5
				c0.1,1-0.5,1.5-0.9,1.5c-0.2,0-0.3,0-0.8-0.3c-0.2-0.1-0.3-0.1-0.5-0.1c-0.3,0-1.4,0.3-1.6,0.3c-0.3,0.1-0.7,0.1-1,0.1
				c-0.8,0-1.2-0.3-1.4-0.4c-0.8-0.1-1.2-0.4-1.3-1.3c-0.1,0.4-0.2,0.8-0.5,1.4c1.5,0.5,3.2,0.6,4.9,0.5c0.2,0,2.1-0.1,2.3-0.2
				c0.5,0,1.2,0,1.2,0.8c0,0.5-0.3,1.7-2.7,1.8c-0.1,0-2.1,0.1-3.9-0.2c-1.2-0.2-2.2-0.5-3.2-1c-0.6,0.9-1.4,1.5-2.4,1.6
				c-0.7,0-1.9-0.2-2-1.4c0-0.1,0-0.7,0.2-1.5c-0.5-0.2-0.7-0.5-0.7-0.8s0-0.3,0.7-0.9c0.1-0.1,0.3-0.3,0.3-0.4s0-0.1-0.2-0.2
				s-0.3-0.3-0.3-0.5c0-0.4,0.4-0.8,0.9-0.8c0.2,0,0.2,0,0.8,0.2c0.2-0.2,0.2-0.3,0.6-0.8c-0.5,0.1-1.2,0.2-1.3,0.2
				c-0.9,0-1.7-0.5-1.7-0.8s0.2-0.3,0.5-0.4c0.1,0,1.2-0.4,1.8-0.5v0H163.6z M162.9,175c-0.1,0-0.2,0-0.2,0c0,0.4,0.1,0.8,0.4,0.8
				c0.2,0,0.3-0.1,1.2-1.1c-0.2-0.1-0.2-0.2-0.4-0.3C163.6,174.7,163.1,175,162.9,175z M165.5,173.1c0.7-1,0.9-1.3,0.8-1.5
				c0-0.2-0.2-0.5-0.5-0.5c-0.1,0-0.2,0.1-0.3,0.3c-0.2,0.4-0.4,0.7-0.6,1.2C165.1,172.7,165.4,173,165.5,173.1z M167.2,170.1
				c-0.1,0-0.3,0-0.5,0s-0.4,0.1-0.6,0.1c0.9,0.2,1.4,0.5,1.9,1.5c0-0.2,0-0.3,0-0.5c0-0.1,0.1-0.9,0.1-1
				C167.8,170.2,167.7,170.2,167.2,170.1z M169.7,167.5c-0.3-0.3-0.3-0.3-0.3-0.4s0.1-0.2,0.1-0.2c-0.5,0-1.3,0-1.8-0.5
				c-0.1,0-0.2,0-0.3,0c-0.1,0-0.5,0-0.6,0c-0.2,0-0.4,0-0.7,0v0.3c0.4,0,1.6,0.1,1.8,0.9c0.1-0.1,0.1-0.1,0.4-0.1
				c0.3,0,0.5,0.1,0.6,0.1L169.7,167.5z M166.4,168.6c0.5,0,1.3,0,1.7,0.3c0-0.1,0-0.1-0.1-0.3c-0.1-0.3-0.1-0.3-0.2-0.5
				c-0.1,0-0.2,0.1-0.3,0.1s-1,0-1.2,0L166.4,168.6z M169.6,169.2c0,0.1,0.1,0.2,0.1,0.5c0,0.2,0.1,2.3,0.1,2.6
				c0,0.4,0.1,0.5,0.1,0.7l0.3-0.1c0-0.1-0.1-1-0.1-1c0-0.3,0-1.7-0.1-2c0-0.1-0.1-0.5-0.1-0.7H169.6z M171,168.9
				c0.1,0.1,0.2,0.3,0.2,0.5l0.4-0.2c0-0.1-0.1-0.3-0.1-0.4v-0.1L171,168.9z M171.3,170.7v0.4l0.4-0.1v-0.4L171.3,170.7z
				 M171.4,172.2v0.4l0.4-0.1v-0.3H171.4z M173.4,172.3l-0.1-2c0-0.3-0.1-1.5-0.2-1.7c0-0.1-0.1-0.2-0.2-0.2s-0.2,0-0.3,0.1
				c0.3,0.5,0.3,0.6,0.4,2.3l0.1,1.5H173.4z"/>
		</g>
		<g>
			<g>
				<defs>
					<path id="SVGID_167_" d="M176.8,138.1c-1-5-8.8-5.9-8.8-5.9h-52.5c-8.9-0.1-10.3,6.6-10.3,6.6s-1.7,11.5-2.9,21.4l75.7-12.6
						C177.5,143.3,177.1,139.5,176.8,138.1z"/>
				</defs>
				<clipPath id="SVGID_9_">
					<use xlink:href="#SVGID_167_"  style="overflow:visible;"/>
				</clipPath>
				<g style="clip-path:url(#SVGID_9_);">
					<polyline class="st306" points="175,133.4 149.3,136.7 149.3,137.9 176.5,134.9 					"/>
					<polyline class="st307" points="175,133.9 149.3,137.2 149.3,138.3 176.5,135.4 					"/>
					<path class="st300" d="M167.9,152.1c-0.1,0-0.3,0-0.4-0.1l-0.2-0.2c-0.7-0.6-1.1-0.9-1.7-1.9c-0.3-0.5-0.4-1.1-0.5-1.6
						c-0.1-0.4-0.2-0.9-0.3-1.2c-0.3-0.5-0.6-0.6-1.1-0.8c-0.2-0.1-0.5-0.2-0.8-0.3c-1.5-0.7-1.8-1.4-2.2-2.4l-0.2-0.5
						c-0.5-1.2-0.7-1.6-1.8-2.2c-0.2-0.1-0.4-0.2-0.6-0.3c-0.8-0.3-1.5-0.6-2-1.5c-0.2-0.4-0.4-0.8-0.5-1.1
						c-0.2-0.7-0.4-1.1-1.1-1.4c-0.4-0.2-0.8-0.1-1.3-0.1c-0.3,0-0.7,0.1-1.2,0.1c-0.4,0-0.6-0.3-0.6-0.7s0.3-0.6,0.7-0.6
						c0.3,0,0.6,0,0.9,0c0.6-0.1,1.3-0.1,2,0.1c1.3,0.5,1.6,1.4,1.9,2.2c0.1,0.3,0.2,0.6,0.3,0.8c0.3,0.6,0.7,0.7,1.4,1
						c0.2,0.1,0.5,0.2,0.7,0.3c1.6,0.8,1.9,1.6,2.4,2.9l0.2,0.5c0.4,1,0.5,1.3,1.5,1.7c0.2,0.1,0.4,0.2,0.7,0.2
						c0.6,0.2,1.3,0.4,1.9,1.4c0.3,0.5,0.4,1,0.5,1.6c0.1,0.5,0.2,0.9,0.3,1.2c0.4,0.8,0.7,1,1.3,1.5l0.2,0.2
						c0.3,0.2,0.3,0.6,0.1,0.9C168.3,152,168.1,152.1,167.9,152.1z"/>
					<path class="st300" d="M161.3,153.1c-0.2,0-0.3-0.1-0.5-0.2c-0.4-0.4-0.4-1.2-0.3-2.1c0-0.4,0-0.9,0-1.2c0-0.3-0.1-0.5-0.3-0.8
						c-0.1-0.2-0.2-0.5-0.3-0.9c-0.2-1-0.1-1.9,0-2.8c0.1-0.5,0.1-1,0.1-1.5c0-0.2,0-0.3,0-0.4c0-0.7,0-0.8-0.4-1.3
						c-0.1-0.2-0.4-0.4-0.7-0.5c-0.4-0.2-0.9-0.5-1.1-1.1c-0.2-0.4-0.1-1-0.1-1.4c0-0.3,0-0.6,0-0.8c-0.3-1.1-1.1-2.2-1.8-2.9
						c-0.2-0.3-0.2-0.7,0.1-0.9c0.3-0.2,0.7-0.2,0.9,0.1c0.7,0.8,1.7,2.1,2,3.4c0.1,0.4,0.1,0.8,0,1.2c0,0.3,0,0.7,0,0.8
						c0.1,0.2,0.3,0.3,0.6,0.5c0.3,0.2,0.7,0.4,1,0.9c0.6,0.8,0.6,1.4,0.6,2.1c0,0.1,0,0.2,0,0.4c0,0.6-0.1,1.2-0.1,1.7
						c-0.1,0.8-0.2,1.6,0,2.3c0.1,0.2,0.1,0.4,0.2,0.7s0.3,0.7,0.4,1.1c0.1,0.4,0,0.9,0,1.4c0,0.4-0.1,1,0,1.2
						c0.2,0.3,0.2,0.6-0.1,0.9C161.6,153,161.4,153.1,161.3,153.1z"/>
					<path class="st301" d="M162.1,151.8c-0.4,0-0.7-0.3-0.7-0.7c0-1,0.1-2.2,0.2-3.4c0.1-1.5,0.3-3,0.2-4.4c0-1.2-0.5-2-0.9-2.9
						c-0.3-0.5-0.5-1-0.8-1.7c-0.1-0.4-0.3-0.8-0.4-1.2c-0.2-0.9-0.5-1.8-1.1-2.4c-0.2-0.3-0.2-0.7,0-0.9c0.3-0.2,0.7-0.2,0.9,0
						c0.8,0.9,1.1,2,1.4,3c0.1,0.4,0.2,0.8,0.3,1.1c0.2,0.5,0.4,1,0.7,1.5c0.5,1,1,2,1.1,3.5c0.1,1.4-0.1,3-0.2,4.5
						c-0.1,1.2-0.2,2.3-0.2,3.3C162.7,151.5,162.4,151.8,162.1,151.8z"/>
					<path class="st300" d="M163.9,151.8c-0.4,0-0.7-0.3-0.7-0.7c0-1,0.1-2.2,0.2-3.4c0.1-1.5,0.3-3,0.2-4.4c0-1.2-0.5-2-0.9-2.9
						c-0.3-0.5-0.5-1-0.8-1.7c-0.1-0.4-0.3-0.8-0.4-1.2c-0.2-0.9-0.5-1.8-1.1-2.4c-0.3-0.3-0.2-0.7,0-0.9c0.3-0.2,0.7-0.2,0.9,0
						c0.8,0.9,1.1,2,1.4,3c0.1,0.4,0.2,0.8,0.3,1.1c0.2,0.5,0.4,1,0.7,1.5c0.5,1,1,2,1.1,3.5c0,1.4-0.1,3-0.2,4.5
						c-0.1,1.2-0.2,2.3-0.2,3.3C164.5,151.5,164.2,151.8,163.9,151.8z"/>
					<path class="st300" d="M165.3,150.7c-0.3,0-0.6-0.3-0.7-0.6c0-0.3-0.1-0.9-0.2-1.4c-0.1-0.8-0.2-1.8-0.3-2.5
						c0-0.7,0.1-1.4,0.2-2.1c0.1-0.6,0.2-1.1,0.2-1.7c0-0.5-0.1-0.7-0.3-1c-0.1-0.2-0.3-0.5-0.4-1c-0.2-0.6-0.1-0.9-0.1-1.2
						c0-0.1,0-0.3,0-0.5c0-2.7,0-2.7-2.6-4l-0.5-0.2c-0.3-0.2-0.5-0.5-0.3-0.9c0.2-0.3,0.5-0.5,0.9-0.3l0.5,0.2
						c2.9,1.3,3.4,1.7,3.3,5.2c0,0.3,0,0.5-0.1,0.7c0,0.2-0.1,0.4,0,0.7s0.2,0.5,0.3,0.7c0.2,0.4,0.4,0.8,0.5,1.6
						c0,0.7-0.1,1.4-0.2,2c-0.1,0.6-0.2,1.1-0.2,1.7c0,0.7,0.2,1.6,0.3,2.4c0.1,0.6,0.1,1.1,0.2,1.5
						C166,150.4,165.7,150.7,165.3,150.7C165.4,150.7,165.3,150.7,165.3,150.7z"/>
					<path class="st301" d="M168.7,151.1c-0.3,0-0.6-0.3-0.7-0.6c0-0.3-0.1-0.9-0.2-1.4c-0.1-0.8-0.2-1.8-0.3-2.5
						c0-0.8,0.1-1.4,0.2-2.1c0.1-0.6,0.2-1.1,0.2-1.7c0-0.5-0.1-0.7-0.3-1c-0.1-0.2-0.3-0.5-0.4-1c-0.2-0.6-0.1-0.9-0.1-1.2
						c0-0.1,0-0.3,0-0.5c0-2.7,0-2.7-2.6-4l-0.5-0.2c-0.3-0.2-0.5-0.5-0.3-0.9c0.2-0.3,0.5-0.5,0.9-0.3l0.5,0.2
						c2.9,1.4,3.4,1.7,3.3,5.2c0,0.3,0,0.5-0.1,0.7c0,0.2-0.1,0.4,0,0.7c0.1,0.3,0.2,0.5,0.3,0.7c0.2,0.4,0.4,0.8,0.5,1.6
						c0,0.7-0.1,1.4-0.2,2s-0.2,1.1-0.2,1.7c0,0.7,0.2,1.6,0.3,2.4c0.1,0.6,0.1,1.1,0.2,1.5C169.3,150.8,169.1,151.1,168.7,151.1
						L168.7,151.1z"/>
					<path class="st300" d="M169,151.9c-0.4,0-0.7-0.3-0.7-0.7c0-0.6-0.1-1.3-0.2-1.9c-0.1-1-0.2-2-0.1-3c0-0.4,0.1-0.9,0.2-1.3
						c0.1-0.7,0.3-1.4,0.2-2.2c-0.2-1.9,0-2.3,0.6-3.7l0.2-0.4c0.6-1.3,0-2.2-1.2-3.6c-0.2-0.3-0.4-0.5-0.6-0.8
						c-0.2-0.3-0.2-0.7,0.1-0.9c0.3-0.2,0.7-0.2,0.9,0.1c0.2,0.3,0.4,0.5,0.6,0.8c1.1,1.4,2.3,2.9,1.3,5l-0.2,0.4
						c-0.6,1.3-0.6,1.4-0.5,3c0.1,0.9-0.1,1.8-0.2,2.5c-0.1,0.4-0.1,0.8-0.2,1.2c-0.1,0.9,0,1.8,0.1,2.7c0.1,0.7,0.2,1.4,0.2,2.1
						C169.6,151.6,169.3,151.9,169,151.9L169,151.9z"/>
					<path class="st301" d="M153.3,153.8c-0.3,0-0.6-0.3-0.7-0.6c-0.1-1-0.2-3.6,0.3-5.3c0.3-1.2,0.8-1.9,1.2-2.5
						c0.6-0.9,1-1.5,0.8-3c-0.1-1.2,0-1.7,0.3-2.6c0-0.1,0.1-0.3,0.2-0.5c0.3-1,0.3-2.1,0.4-3.2c0-0.3,0-0.7,0-1
						c0-0.4,0.3-0.6,0.7-0.6c0.4,0,0.6,0.3,0.6,0.7c0,0.3,0,0.7,0,1c0,1.2-0.1,2.4-0.4,3.5c-0.1,0.2-0.1,0.4-0.2,0.5
						c-0.3,0.8-0.3,1-0.2,2c0.2,1.9-0.4,2.9-1,3.9c-0.4,0.6-0.8,1.2-1,2.2c-0.4,1.5-0.3,4.1-0.2,4.8
						C154,153.4,153.7,153.7,153.3,153.8L153.3,153.8z"/>
					<path class="st300" d="M169.7,151.3L169.7,151.3c-0.4,0-0.7-0.3-0.7-0.7s0-0.6,0.1-0.8c0-0.4,0.1-0.6-0.1-1.3v-0.2
						c-0.2-0.8-0.4-2-0.8-2.7c-0.2-0.5-0.6-0.7-1.1-1.1c-0.5-0.3-1-0.7-1.3-1.2c-0.8-1.2-0.3-2.3,0.1-3.3c0.2-0.5,0.4-0.9,0.5-1.3
						c0.2-1.3-0.4-2.8-0.9-4.2l-0.1-0.4c-0.1-0.3,0-0.7,0.4-0.8c0.3-0.1,0.7,0,0.8,0.4l0.1,0.4c0.6,1.5,1.2,3.2,1,4.8
						c-0.1,0.6-0.3,1.2-0.6,1.7c-0.4,0.9-0.6,1.4-0.2,2c0.2,0.3,0.6,0.6,1,0.8c0.6,0.4,1.2,0.8,1.6,1.6c0.4,0.8,0.7,2.1,0.9,3v0.2
						c0.2,0.8,0.1,1.2,0.1,1.7c0,0.2,0,0.4-0.1,0.7C170.3,151,170,151.3,169.7,151.3z"/>
					<path class="st300" d="M155.8,152.3c-0.1,0-0.1,0-0.2,0c-0.4-0.1-0.6-0.4-0.5-0.8c0.3-1.3,0-2.3-0.3-3.4
						c-0.3-1.1-0.6-2.2-0.4-3.5c0-0.3,0.1-0.5,0.1-0.7c0.2-1,0.3-1.5-0.3-2.6c-0.7-1.5-1.7-3-2.6-4.2c-0.2-0.3-0.1-0.7,0.1-0.9
						c0.3-0.2,0.7-0.1,0.9,0.1c0.9,1.3,2,2.8,2.7,4.4c0.7,1.5,0.6,2.3,0.4,3.4c0,0.2-0.1,0.4-0.1,0.7c-0.2,1.1,0.1,2,0.4,3
						c0.3,1.2,0.7,2.5,0.3,4.1C156.4,152.1,156.1,152.3,155.8,152.3z"/>
				</g>
			</g>
		</g>
	</g>
</g>
</svg>
