<?xml version="1.0" encoding="utf-8"?>
<!-- Generator: Adobe Illustrator 24.0.1, SVG Export Plug-In . SVG Version: 6.00 Build 0)  -->
<svg version="1.1" id="レイヤー_1" xmlns="http://www.w3.org/2000/svg" xmlns:xlink="http://www.w3.org/1999/xlink" x="0px"
	 y="0px" viewBox="0 0 420 66.2" style="enable-background:new 0 0 420 66.2;" xml:space="preserve">
<style type="text/css">
	.st0{fill:#E60000;}
	.st1{fill:#FFFFFF;}
	.st2{fill:#E60012;}
	.st3{enable-background:new    ;}
</style>
<g>
	<g>
		<g>
			<path class="st0" d="M40.5,10.5c-0.4-0.8-1.2-1.2-2.1-1.2c-0.9,0-1.7,0.4-2.1,1.2L26.1,28.3c-0.4,0.8-0.4,1.7,0,2.4
				c0.4,0.8,1.2,1.2,2.1,1.2l20.4-0.1c0.9,0,1.7-0.4,2.1-1.2c0.4-0.8,0.4-1.7,0-2.4L40.5,10.5z"/>
			<path class="st1" d="M28.2,32.5c-1.1,0-2.1-0.6-2.6-1.5s-0.5-2.1,0-3l10.1-17.7c0.5-1,1.5-1.5,2.6-1.5l0,0c1.1,0,2.1,0.6,2.6,1.5
				l10.3,17.6c0.5,0.9,0.5,2.1,0,3c-0.5,1-1.5,1.5-2.6,1.5L28.2,32.5C28.3,32.5,28.2,32.5,28.2,32.5z M38.3,9.9L38.3,9.9
				c-0.7,0-1.3,0.3-1.6,0.9L26.6,28.6c-0.3,0.6-0.3,1.3,0,1.9c0.3,0.5,0.9,0.9,1.6,0.9l0,0l20.4-0.1c0.7,0,1.3-0.3,1.6-0.9
				s0.3-1.3,0-1.9L39.9,10.8C39.6,10.3,39,9.9,38.3,9.9z"/>
		</g>
		<path class="st0" d="M52.3,27.2L42,9.6c-0.8-1.3-2.2-2.2-3.7-2.1l0,0c-1.6,0-2.9,0.8-3.7,2.2L24.5,27.3c-0.8,1.3-0.8,2.9,0,4.3
			c0.8,1.3,2.2,2.2,3.7,2.1l20.4-0.1c1.6,0,2.9-0.8,3.7-2.2C53.1,30.2,53.1,28.6,52.3,27.2z M50.7,30.6c-0.4,0.8-1.2,1.2-2.1,1.2
			l-20.4,0.1c-0.9,0-1.7-0.4-2.1-1.2s-0.4-1.7,0-2.4l10.1-17.7c0.4-0.8,1.2-1.2,2.1-1.2s1.7,0.4,2.1,1.2l10.3,17.6
			C51.2,28.9,51.2,29.8,50.7,30.6z"/>
	</g>
	<g>
		<path class="st1" d="M37.4,29.3v-1.7h2v1.7H37.4z"/>
	</g>
</g>
<path class="st2" d="M381.4,61.8H88.9c-5.5,0-9.9-4.4-9.9-9.9l0,0c0-5.5,4.4-9.9,9.9-9.9h292.5c5.5,0,9.9,4.4,9.9,9.9l0,0
	C391.2,57.3,386.8,61.8,381.4,61.8z"/>
<g>
	<path class="st1" d="M33,21.3c0.5-0.6,0.5-0.6,1.2-1.3l2.6-3c0.6-0.7,0.8-1,1.1-1.4h2.5c-0.1,0.7-0.1,1.2-0.1,2v3.9h0.3
		c0.4,0,0.8,0,1.2-0.1v2.2c-0.4,0-0.8-0.1-1.2-0.1h-0.4V24c0,0.7,0,1,0.1,1.5h-2.5c0.1-0.4,0.1-0.9,0.1-1.5v-0.6h-3.4
		c-0.8,0-1.1,0-1.6,0v-2.1H33z M38,20.1c0-0.5,0-1.2,0.1-1.7c-0.2,0.3-0.4,0.6-0.7,1l-1.8,2.1H38V20.1z"/>
</g>
<g>
	<path d="M80.9,17.4c-0.2,0.4-0.4,0.8-0.5,1.3c1.1,0.4,1.8,0.7,2.5,1.4c1.4,1.2,2.1,2.8,2.1,4.7c0,3-1.7,5.5-4.7,6.8
		c-1.4,0.6-2.7,0.9-5.1,1.2c-0.4-1.4-0.8-2.4-1.4-3.3c-1.7,1.6-3.9,2.6-5.8,2.6c-3,0-4.9-2-4.9-5.1c0-2.1,0.9-4.2,2.5-5.8
		c1-1,1.9-1.6,3.5-2.3c0-0.9,0-1.1,0-2.2c-1.1,0-1.1,0-2.9-0.1c-0.4,0-0.8,0-1.2,0c-0.4,0-0.5,0-0.8,0l-0.1-4
		c1.5,0.3,2.7,0.4,4.7,0.4H69h0.4c0-0.3,0-0.3,0.1-1.1c0-0.3,0-0.5,0-0.8c0-0.5,0-0.7-0.1-1.1l4.3,0.2c-0.2,0.8-0.3,1.2-0.4,2.6
		c4.1-0.2,7.4-0.7,9.4-1.3l0.2,4.1c-0.4,0-0.5,0-1.1,0.1c-2.4,0.4-6.2,0.7-8.8,0.8c0,0.3,0,0.3,0,0.7c0,0.2,0,0.2,0,0.8
		c1.1-0.2,1.6-0.2,2.4-0.2c0.5,0,0.7,0,1.2,0.1c0.2-0.6,0.3-0.9,0.3-1.4L80.9,17.4z M67,26.6c0,0.9,0.4,1.5,1.1,1.5
		c0.5,0,0.9-0.2,1.4-0.5c-0.2-1.3-0.4-2.8-0.4-4.6C67.7,24,67,25.2,67,26.6z M73,24.9c1-1.2,1.9-2.7,2.4-3.9c-0.2,0-0.3,0-0.5,0
		c-0.7,0-1.3,0.1-2,0.3C72.9,23,72.9,23.7,73,24.9z M78.3,27.9c1.5-0.7,2.4-2,2.4-3.4c0-1.1-0.5-1.8-1.6-2.4
		c-1.2,2.7-2.5,4.7-4.4,6.6C76.3,28.5,77.3,28.3,78.3,27.9z"/>
	<path d="M97.6,10.3c-0.2,0.5-0.2,0.5-0.5,2c-0.1,0.6-0.2,0.8-0.3,1.4c1.6-0.2,2.7-0.4,3.5-0.6l0.1,4.1c-0.6,0.1-0.6,0.1-1.9,0.2
		c-0.7,0.1-2.1,0.2-2.7,0.3c-0.9,3-1.6,4.7-2.7,7.3c-0.5,1.2-0.8,1.6-1.7,3.6c-0.3,0.6-0.3,0.6-0.5,1l-4.1-2.2
		c1.8-2.4,3.5-6,4.7-9.5c-0.5,0-0.5,0-1.4,0c-0.6,0-0.6,0-1.2,0c-0.1,0-0.2,0-1,0v-4c1,0.2,2.1,0.3,3.7,0.3c0.3,0,0.4,0,0.9,0
		c0-0.2,0-0.2,0.2-1.1c0.2-0.9,0.4-2.1,0.4-3L97.6,10.3z M108.4,31.5c-0.9-1.1-1.9-1.9-3.2-2.7c-0.1,1.2-0.4,1.9-1.1,2.6
		c-1,1-2.7,1.6-4.8,1.6c-2,0-3.7-0.6-4.8-1.7c-0.8-0.9-1.3-1.9-1.3-3.1c0-2.9,2.4-5,5.9-5c0.5,0,0.9,0,1.8,0.2c-0.1-1-0.1-1.4-0.1-2
		c0-1,0.1-1.8,0.2-3l4.2,0.2c-0.2,0.9-0.3,1.6-0.3,2.8c0,0.9,0.1,1.7,0.2,2.9c1.5,0.7,2.7,1.4,3.9,2.2c0.1,0.1,0.5,0.4,1.2,1
		L108.4,31.5z M99.4,26.7c-1.2,0-1.9,0.5-1.9,1.3c0,0.7,0.7,1.2,1.8,1.2c1.3,0,1.9-0.6,1.9-1.6c0-0.2,0-0.5-0.1-0.6
		C100.4,26.8,100,26.7,99.4,26.7z M108.6,19.7c-2.4-1.5-4.8-2.6-7.8-3.6l2.1-3.5c3.2,1.1,5.2,2,7.6,3.4L108.6,19.7z"/>
	<path d="M125.7,16.9c2.4-0.3,3.5-0.4,6.7-0.4c0.2,0,0.7,0,1.2,0l0.1,4.3c-1.2-0.2-1.9-0.2-3.3-0.2c-2.8,0-4.6,0.2-7.1,0.6l-0.3-3.6
		c-1.2,0.1-1.5,0.2-2.3,0.2c-0.4,2.4-0.9,4.2-1.6,6.8c-0.6,2.2-0.8,2.8-1.9,6c-0.4,1.2-0.4,1.2-0.6,1.8l-4.6-1.7
		c1.7-3.2,3.3-8.2,4.2-12.9c-0.2,0-0.3,0-0.4,0c-0.8,0-1.3,0-2.4-0.1c0,0-0.1,0-0.3,0c-0.2,0-0.3,0-0.6,0l0.1-4.1
		c1,0.2,2.3,0.3,3.8,0.3c0.1,0,0.3,0,0.5,0c0.3-2,0.4-3,0.4-3.8c0-0.1,0-0.2,0-0.4l4.7,0.4c-0.2,0.5-0.2,0.8-0.3,1.5
		c0,0.2-0.2,0.9-0.4,2.2c1.7-0.2,2.7-0.3,4.1-0.7L125.7,16.9z M126.6,23.8c-1,1.1-1.4,2-1.4,2.7c0,1.2,1,1.7,3.1,1.7
		c2,0,4.4-0.4,5.9-1l0.3,4.4c-0.5,0.1-0.7,0.1-1.3,0.2c-2.4,0.3-3.4,0.4-4.9,0.4c-4.9,0-7.4-1.6-7.4-4.8c0-1.5,0.6-2.9,2-4.9
		L126.6,23.8z"/>
	<path d="M139.6,14.3c-1.2,0-1.9,0-2.8,0.1V11c0.8,0.1,1.5,0.2,2.9,0.2h6.5c0-0.6-0.1-0.9-0.2-1.5h4.1c-0.1,0.6-0.1,0.9-0.2,1.5h6.8
		c1.4,0,2,0,2.9-0.2v3.5c-0.8-0.1-1.6-0.1-2.8-0.1H150v0.8h5.2c1.5,0,2,0,2.7-0.1c-0.1,0.8-0.1,1.3-0.1,2.2v4.6c0,1,0,1.4,0.1,2.2
		c-0.7,0-1-0.1-2.2-0.1v0.8h1.2c1.4,0,2,0,2.9-0.2v3.5C158.9,28,158,28,157,28h-1.3v2.5c0,2.1-1.1,2.7-4.6,2.7c-0.4,0-1.1,0-1.9-0.1
		c-0.3-1.5-0.5-2.4-1.1-3.5c1.1,0.1,2,0.2,2.8,0.2s1-0.1,1-0.5v-1.4h-7.4c1.2,0.9,2.1,1.8,3.1,2.8l-3.1,2.4
		c-1.4-1.6-2.3-2.5-3.7-3.6l2.2-1.6h-3.4c-0.9,0-1.8,0-2.8,0.1v-3.5c0.8,0.1,1.5,0.2,2.9,0.2h12.2V24h-10.5c-1.4,0-1.9,0-2.6,0.1
		c0.1-0.8,0.1-1.3,0.1-2.2v-4.6c0-0.9,0-1.4-0.1-2.2c0.7,0.1,1.2,0.1,2.6,0.1h4.9v-0.8L139.6,14.3L139.6,14.3z M142.5,17.5v0.9h3.7
		v-0.9H142.5z M142.5,20.6v0.9h3.7v-0.9H142.5z M150,18.4h4v-0.9h-4V18.4z M150,21.6h4v-0.9h-4V21.6z"/>
	<path d="M175.6,29.3c0,1.7,0,2.4,0.1,3.2h-4c0.1-0.8,0.2-1.6,0.2-3.2v-3.5H167c-0.4,3.2-1,5.3-2.4,7.6c-1.4-1.5-2-2-3.4-2.9
		c1.9-3.2,2.3-6.1,2.3-16.8c0-1.5-0.1-2.5-0.1-3.4c0.9,0.1,1.6,0.1,3,0.1h14.7c1.6,0,2.3,0,3.1-0.1c-0.1,0.9-0.1,1.6-0.1,3.2V30
		c0,2.3-1,3.1-4,3.1c-0.9,0-1.8,0-2.7-0.1c-0.2-1.3-0.4-2.2-1-3.6c1.1,0.1,2.1,0.2,2.8,0.2c0.9,0,1.1-0.1,1.1-0.6v-3.1h-4.7
		L175.6,29.3L175.6,29.3z M167.3,19.9c0,1,0,1.3-0.1,2.4h4.6v-2.4H167.3z M171.8,14h-4.4v2.4h4.4V14z M180.3,16.4V14h-4.7v2.4H180.3
		z M175.6,22.3h4.7v-2.4h-4.7V22.3z"/>
	<path d="M198.2,26c-1.5,3.2-3.1,4.6-5.4,4.6c-3.4,0-5.7-3.2-5.7-7.8c0-2.9,1-5.6,2.9-7.7c2.2-2.4,5.4-3.7,9.1-3.7
		c3.4,0,6.3,1.1,8.2,3.1c1.6,1.7,2.5,4.2,2.5,7c0,3.3-1.2,6.2-3.3,8.1c-1.7,1.5-3.7,2.3-7.2,2.9c-0.6-1.8-1.1-2.7-2.1-4.1
		c2.4-0.2,3.9-0.6,5.3-1.3c1.9-1,3-3.1,3-5.8c0-2.1-0.8-3.8-2.2-5c-0.7-0.5-1.2-0.7-2.1-0.9C200.4,19.8,199.5,23,198.2,26z
		 M193.8,16.8c-1.7,1.4-2.7,3.7-2.7,6c0,1.8,0.7,3.2,1.6,3.2c0.6,0,1.3-0.9,2-2.8c0.9-2.3,1.6-5.2,1.9-7.7
		C195.5,15.6,194.7,16,193.8,16.8z"/>
	<path d="M211.7,18.9c0.7,0.1,1.1,0.1,2.1,0.1h2.5c0.8,0,1.3,0,1.9-0.1c-0.1,0.8-0.1,1.4-0.1,2.8v5.6c0.4,0.8,0.9,1.2,1.7,1.5
		c1,0.4,2.2,0.5,5.5,0.5c4.6,0,7.8-0.1,10.3-0.4c-0.6,1.6-0.8,2.4-0.9,3.9c-2.3,0.1-3.8,0.1-5.3,0.1c-6.6,0-8.1-0.1-9.6-0.5
		c-1.3-0.4-2.3-1-3.3-2.1c-1.3,1.2-2,1.8-3.6,2.9l-1.6-4.1c0.8-0.3,2-1,3.2-1.9v-4.7h-1.1c-0.6,0-0.9,0-1.6,0.1L211.7,18.9
		L211.7,18.9z M214.3,9.7c2.1,1.8,3,2.8,4.6,4.7l-3,2.9c-1.6-2.1-2.6-3.3-4.5-5L214.3,9.7z M223.6,11.7c0.5-0.8,0.8-1.5,1.2-2.3
		l4.1,0.5c-0.4,0.8-0.7,1.3-1.2,1.9h3.9c0.8,0,1.3,0,1.8-0.1c0,0.6-0.1,1.2-0.1,1.8v3.9c0,0.9,0,1.6,0.1,2.1c-0.7,0-1,0-1.6,0h-8.6
		v1h9.1c0.8,0,1.2,0,1.7-0.1c0,0.5-0.1,1.1-0.1,1.8v4.4c0,0.7,0,1.3,0.1,1.8c-0.5-0.1-1-0.1-1.7-0.1H221c-0.7,0-1.2,0-1.7,0.1
		c0.1-0.5,0.1-1.1,0.1-1.8V13.4c0-0.7,0-1.2-0.1-1.8c0.6,0.1,1.2,0.1,1.9,0.1H223.6z M223.3,16.2h6.4v-1.3h-6.4V16.2z M223.3,24.9h7
		v-1.4h-7V24.9z"/>
	<path d="M246.1,13.7c1.4,0,2.2,0,3-0.1c-0.1,0.8-0.1,1.2-0.1,2.5c-0.1,15.1-0.6,16.7-4.6,16.7c-0.6,0-1.2,0-2.1-0.1
		c-0.1-1.5-0.2-2.3-0.7-3.7c0.8,0.2,1.5,0.3,1.9,0.3c0.8,0,0.9-0.2,1.2-1.8c0.4-2.4,0.5-4.7,0.5-10.2h-1.3c-0.3,4.2-0.6,6.6-1.5,9.4
		c-0.8,2.5-1.7,4.4-3.3,6.7c-0.9-1.7-1.7-2.6-2.9-3.7c1.2-1.6,2.1-3.3,2.7-5.1c0.6-1.9,1-4,1.2-7.3h-0.9c-1.1,0-1.6,0-2.4,0.1v-3.9
		c0.7,0.1,1.4,0.1,2.8,0.1h0.7c0-0.7,0-1,0-1.4c0-1.3,0-1.9-0.1-2.6h4.1c-0.1,0.7-0.1,1-0.1,2.5c0,0.6,0,0.8,0,1.4h1.9V13.7z
		 M253.6,32.9h-3.9c0.1-0.8,0.2-1.7,0.2-2.9V14.4c0-1.2,0-1.8-0.1-2.6c0.8,0.1,1.3,0.1,2.4,0.1h5.3c1.1,0,1.7,0,2.4-0.1
		c-0.1,0.8-0.1,1.5-0.1,2.6v15.3c0,1.5,0,2.3,0.2,3.1h-3.9V31h-2.3v1.9H253.6z M253.6,27.5h2.3v-12h-2.3V27.5z"/>
	<path d="M284.5,13.9c-0.4,0.4-0.5,0.5-0.8,1.3c-1.6,3.8-3.8,6.3-7,8.3c-0.9-1.1-1.7-1.9-2.8-2.7c-0.2,2.6-0.6,4.5-1.5,6.1
		s-2.2,3-3.9,4.3c-1,0.7-1.9,1.2-3.5,1.9c-1-2-1.4-2.6-2.9-4.1c2.8-0.9,4.6-2,5.8-3.5c1.2-1.6,1.6-3.3,1.6-6.7c0-0.8,0-1.2-0.2-1.7
		h4.7c-0.1,0.5-0.1,0.7-0.1,2.2c0,0,0,0.6,0,0.9c0.2-0.1,0.2-0.1,0.6-0.3c1.8-0.9,3.3-2.4,4.2-4.3h-12c-1.9,0-2.8,0.1-4,0.2v-4.4
		c1.2,0.2,2,0.2,4.1,0.2H280c1.4,0,1.6,0,2.2-0.3L284.5,13.9z"/>
	<path d="M306.3,12.9c-0.6,0.5-0.6,0.5-1,0.9c-2,2-3.8,3.6-5.8,5.1v9.7c0,2.1,0,2.7,0.2,4.1h-4.9c0.1-1.3,0.2-1.9,0.2-4v-6.9
		c-2.6,1.5-4.6,2.4-8.2,3.7c-0.7-1.7-1.2-2.5-2.4-4.1c5.5-1.5,9.3-3.4,13.4-6.5c2.2-1.6,3.8-3.3,4.6-4.6L306.3,12.9z"/>
	<path d="M321.7,21.5c-0.2,2.9-0.7,4.6-1.8,6.5c-1.4,2.3-3.3,3.7-6.7,5.1c-0.9-1.8-1.4-2.5-2.9-4c4.6-1.4,6.6-3.6,6.8-7.6h-5.2
		c-2.1,0-2.8,0-3.8,0.1v-4.2c1.1,0.2,1.8,0.2,3.9,0.2h14c2.2,0,2.9,0,4-0.2v4.2c-1.5-0.1-1.7-0.1-3.9-0.1
		C326.1,21.5,321.7,21.5,321.7,21.5z M310.6,11c1.1,0.2,1.7,0.2,3.9,0.2h8.8c2.3,0,2.9,0,4-0.2v4.3c-1-0.1-1.4-0.1-3.9-0.1h-9
		c-2.2,0-2.9,0-3.8,0.1V11z"/>
	<path d="M343.3,11.2c-0.3,0.5-0.3,0.7-0.7,1.9c-2,6.5-3,9.7-4.7,13.9c3.3-0.2,6.2-0.6,8.6-1c-0.9-2.1-2.1-4.4-3.2-6l3.9-1.5
		c2.6,3.9,4.3,7.4,6,12l-4.3,2.2c-0.3-1.2-0.4-1.4-0.9-2.8c-3.6,0.6-6.2,1-10.1,1.4l-5.8,0.6c-0.6,0.1-0.8,0.1-1.4,0.2l-0.7-4.7
		c0.5,0,0.7,0,0.8,0c0.2,0,0.4,0,0.6,0h0.8c0.3,0,0.4,0,0.6,0c1.6-4.1,2.9-7.9,4.2-12.5c0.7-2.4,0.9-3.3,1-4.5L343.3,11.2z"/>
	<path d="M355.8,17.4c0.8,0.2,1.8,0.3,3.7,0.3c0.1,0,0.3,0,0.5,0c0.4-0.9,0.5-1.3,0.6-2l3.3,0.3c-0.1,0.3-0.2,0.3-0.4,0.8
		c-0.2,0.5-0.3,0.8-0.4,0.8c0.2,0,0.2,0,1.1-0.1c1.8-0.1,3.6-0.3,4.5-0.6l0.1,2.8c-0.6,0.1-1.1,0.1-1.6,0.2
		c-1.3,0.1-3.5,0.3-5.3,0.3c-0.3,0.5-0.4,0.8-0.9,1.3c0.8-0.4,1.5-0.5,2.3-0.5c1.5,0,2.4,0.6,2.7,1.7c0.3-0.1,0.3-0.1,1.2-0.4
		c0.1,0,0.5-0.2,1.1-0.4c1-0.3,1.1-0.4,1.4-0.5l1.1,2.8c-0.9,0.1-2.8,0.6-4.6,1.2c0,0.5,0,0.5,0,1.3s0,1.1,0.1,1.5l-2.9,0.1
		c0.1-0.3,0.1-0.8,0.1-1.9l-0.2,0.1c-0.8,0.4-0.9,0.5-1.3,0.8c-0.3,0.3-0.5,0.6-0.5,0.9c0,0.7,0.7,0.9,2.4,0.9
		c2.1,0,4.2-0.3,5.7-0.9l0.2,3.2c-0.5,0-0.5,0-1.6,0.2c-1.4,0.2-2.9,0.3-4.3,0.3c-2,0-3.3-0.3-4.3-0.8c-0.9-0.5-1.4-1.5-1.4-2.5
		c0-0.8,0.3-1.5,0.9-2.3c0.7-0.8,1.5-1.4,2.6-1.9c0.4-0.2,0.6-0.3,1.3-0.6c-0.2-0.3-0.4-0.4-0.7-0.4c-0.9,0-2.1,0.6-3.4,1.7
		c-0.7,0.7-1.2,1.2-1.7,1.8l-2.3-2.2c0.6-0.4,1.3-1.2,1.9-1.9c0.4-0.5,1.1-1.5,1.4-1.9s0.3-0.4,0.3-0.6c-0.2,0-0.4,0-0.6,0
		c-0.8,0-0.8,0-1.5,0c-0.3,0-0.4,0-0.6,0c0,0-0.1,0-0.3,0L355.8,17.4z"/>
	<path d="M388.7,18.8c-0.1,0.1-0.1,0.1-0.3,0.4c-0.3,0.4-0.8,0.9-1.3,1.4c0.7,0.4,1.3,0.6,2.1,0.9c-0.5,1-0.8,1.5-1.1,2.6
		c-0.7-0.3-1-0.4-1.5-0.7c0,0.3,0,0.4,0,0.8v2.6c0,0.6,0,1,0.1,1.4c-0.1,0-0.5,0-1.2,0h-2.4l2,0.5c-0.1,0.2-0.1,0.3-0.2,0.4
		s-0.1,0.3-0.2,0.4c0,0.1,0,0.1-0.1,0.1h2.4c0.9,0,1.2,0,1.7-0.1v2.6c-0.6-0.1-1-0.1-2-0.1h-12.5c-1,0-1.4,0-2,0.1v-2.6
		c0.5,0.1,0.9,0.1,1.8,0.1h2.3c-0.1-0.4-0.3-0.6-0.6-1.1l2-0.4h-2.3c-1,0-1,0-1.2,0c0-0.5,0.1-0.8,0.1-1.4v-2.6c0-0.3,0-0.4,0-0.7
		c-0.5,0.3-0.7,0.4-1.4,0.6c-0.3-0.9-0.6-1.6-1.2-2.5c0.8-0.3,1.6-0.6,2.6-1.1c-0.9-1-1.3-1.4-2.2-2.1l1.9-1.6
		c0.5,0.4,0.7,0.5,1.1,0.9v-2.1c0.5,0.1,0.8,0.1,1.7,0.1h3.4c0.8,0,1.1,0,1.5-0.1c0.3,0.8,0.4,0.9,0.9,1.6c0.6-0.6,0.9-1.1,1.2-1.6
		l2.1,1.2c-0.1,0.1-0.1,0.2-0.4,0.4c-0.4,0.5-0.8,0.9-1.3,1.5c0.3,0.2,0.4,0.3,0.7,0.5c0.6-0.6,1.1-1.2,1.5-1.8L388.7,18.8z
		 M377.7,21.6c-0.9,0.7-1.5,1.1-2.2,1.5c0.2,0,0.3,0,0.4,0h9.4c0.3,0,0.4,0,0.6,0c-0.7-0.4-1.3-0.8-2.2-1.5v0.9
		c-0.3-0.1-0.5-0.1-1-0.1h-4.2c-0.3,0-0.6,0-0.9,0.1v-0.9H377.7z M376.4,18c-0.3,0-0.5,0-0.7,0c0.5,0.5,0.7,0.7,1.1,1.1
		c0.5-0.4,0.7-0.6,1.1-1.1H376.4z M377.2,26h6.7v-0.8h-6.7V26z M381.8,29.6c0.2-0.3,0.5-1.2,0.6-1.5h-3.8c0.2,0.4,0.5,1,0.6,1.5
		H381.8z M382.2,20.3c-0.6-0.6-0.9-0.9-1.5-1.7c-0.6,0.8-0.9,1.1-1.5,1.7H382.2z"/>
	<path d="M404,16c0.7,0,1.2,0,1.6-0.1c-0.1,0.3-0.1,0.5-0.1,1.4c0,1.1-0.1,2.9-0.1,3.9c0.8,0,1.1,0,1.6-0.1v2.4
		c-0.6-0.1-1.2-0.1-1.7-0.1h-1.9c0.2,0.9,0.3,1.2,0.5,1.7c0.7-0.6,1-1,1.5-1.7L407,25c-0.7,0.8-1.4,1.5-2.1,2.1
		c0.6,0.8,1.3,1.4,2.3,2.1c-0.6,0.9-0.8,1.3-1.4,2.6c-1.4-1.2-2.1-2.1-2.8-3.8c0,0.3,0.1,0.8,0.1,1.4v1.1c0,1.4-0.6,1.9-2.4,1.9
		c-0.3,0-0.7,0-1.5-0.1c-0.1-1-0.2-1.5-0.4-2.1c-0.5,0.4-0.6,0.4-1.2,0.9l-0.8-1.8v1.8c-1.4,0.4-3.1,0.8-5.7,1.1
		c-0.1,0-0.3,0.1-0.6,0.1l-0.3-2.7c0.8,0,1.2-0.1,2.6-0.2v-4.5h-0.6c-0.8,0-1.4,0-1.8,0.1v-2.5c0.4,0.1,1.1,0.1,1.8,0.1h0.6v-0.7
		h-0.1c-0.3,0-0.6,0-0.9,0.1v-0.9c-0.4,0.3-0.5,0.4-0.9,0.8c-0.3-1.2-0.5-1.6-1-2.5c1.4-0.9,2.4-2,3-3.4h2.6c0.4,0.9,1,1.5,2.1,2.4
		v-2.2c0.5,0.1,1,0.1,1.9,0.1h4.5V16z M390.9,29.1c-0.1-1.2-0.3-1.9-0.7-3.3l1.7-0.6c0.4,1.1,0.5,1.8,0.8,3.3L390.9,29.1z
		 M395.4,19.7c-0.5-0.6-0.8-0.9-1.3-1.7c-0.4,0.7-0.6,1-1.2,1.7H395.4z M402.7,21.2c0-0.4,0-0.4,0-0.6h-3.1c-0.8,0-1.3,0-1.7,0.1v-2
		c0.4,0.1,0.8,0.1,1.7,0.1h3.2v-0.5h-3.6c-0.7,0-1.3,0-1.6,0.1l0.3,0.2c-0.7,1.1-0.9,1.4-1.3,2.1V22c-0.3,0-0.5,0-1,0h-0.4v0.7h0.6
		c0.5,0,0.8,0,1.1-0.1v-1.3c0.5,0.1,1,0.1,1.8,0.1h4V21.2z M398.7,23.4c-0.8,0-1.2,0-1.7,0.1v1.4c-0.4-0.1-0.7-0.1-1.2-0.1h-0.6V29
		c0.6-0.1,0.8-0.2,1.6-0.4c1.1-0.5,1.9-1.1,3.1-1.9l0.8,1.8v-5.1H398.7z M395.3,27.9c0.3-1,0.5-1.6,0.6-2.7l1.6,0.6
		c-0.2,1-0.5,1.8-0.8,2.7L395.3,27.9z M398.9,23.5c0.8,0.8,1.2,1.4,1.6,2.3l-1.9,1.3c-0.7-1.3-1-1.8-1.6-2.6L398.9,23.5z
		 M400.6,28.6c-0.6,0.6-0.7,0.7-1.4,1.3c0.4,0.1,0.6,0.1,0.8,0.1c0.5,0,0.6-0.1,0.6-0.5V28.6z"/>
</g>
<g class="st3">
	<path class="st1" d="M115.5,52.5c-0.7,0.5-1.1,1-1.1,1.5c0,0.6,0.8,0.9,2.6,0.9c1.4,0,3.1-0.2,3.9-0.6l0.1,2.3c-0.2,0-0.3,0-0.5,0
		c-0.1,0-0.2,0-0.4,0l-0.3,0c-1,0.1-2,0.2-3,0.2c-1.4,0-2.3-0.1-3-0.4c-1.1-0.4-1.6-1.2-1.6-2.2c0-1.1,0.5-1.9,1.7-2.9L115.5,52.5z
		 M113.1,47c0.8,0.2,2.2,0.3,4,0.3c1.6,0,2.7-0.1,3.3-0.2l0,1.8c-0.8,0.4-2.5,1.5-3.3,2.1l-1.5-1c0.3-0.2,0.4-0.3,0.6-0.4l0.4-0.2
		c0.1,0,0.2-0.1,0.2-0.1l0.1-0.1c0,0,0.1,0,0.1-0.1c-0.4,0-0.6,0-1,0c-0.9,0-1.5,0-2.7-0.1c-0.2,0-0.3,0-0.4,0L113.1,47z
		 M119.8,50.1c0.5,0.5,0.9,1.1,1.2,1.7l-1.1,0.6c-0.4-0.8-0.7-1.2-1.2-1.8L119.8,50.1z M121.3,49.3c0.4,0.5,0.8,0.9,1.2,1.7
		l-1.1,0.6c-0.4-0.8-0.7-1.2-1.2-1.7L121.3,49.3z"/>
	<path class="st1" d="M129,50.5c-0.2,0.1-0.2,0.2-0.6,0.4c0.6,0.7,0.8,1,1.1,1.7c0.3,0.9,0.5,1.9,0.5,2.8c0,0.9-0.2,1.5-0.6,1.8
		c-0.3,0.2-0.8,0.3-1.5,0.3c-0.2,0-0.7,0-1,0c-0.1-0.7-0.1-0.8-0.4-1.4c-0.9,0.5-1.6,0.8-2.5,1.2c-0.4-0.7-0.6-1-1-1.5
		c1.9-0.6,3.6-1.3,5-2.4c0-0.1-0.1-0.2-0.1-0.4c-1.1,0.7-2.5,1.4-3.9,1.9c-0.3-0.6-0.5-0.9-0.9-1.4c1.7-0.4,3.1-1,4.2-1.6
		c-0.1-0.1-0.1-0.2-0.3-0.3c-0.9,0.4-1.8,0.7-3,1.1c-0.2-0.5-0.4-0.9-0.8-1.4c1.2-0.2,1.4-0.2,2-0.4c0.6-0.2,1-0.3,1.3-0.5h-1
		c-0.5,0-0.8,0-1.2,0.1v-0.7h-1.2c0-0.3,0.1-0.5,0.1-0.9v-1.1c0-0.4,0-0.6,0-0.9c0.4,0,0.8,0,1.4,0h2.9V47c0-0.3,0-0.5,0-0.7h2
		c0,0.2,0,0.4,0,0.7v0.1h3.1c0.7,0,1.1,0,1.5,0c0,0.3,0,0.5,0,0.9V49c0,0.4,0,0.6,0,0.9h-1.2v0.7c-0.4,0-0.8-0.1-1.2-0.1H131
		c0.1,0.6,0.2,0.8,0.3,1.2c0.6-0.6,0.7-0.7,1.1-1.1l1.5,1.3c-0.1,0-0.1,0-0.2,0.1c0,0,0,0-0.6,0.4c-0.7,0.6-0.9,0.7-1.1,0.9
		c0.6,1,1.2,1.5,2.3,2.1c-0.6,0.6-0.8,0.9-1.2,1.7c-1.3-1-2-1.8-2.6-3.1c-0.5-1.1-0.8-2-1.2-3.5H129z M132.1,48.6h-7.2v0.5
		c0.3,0,0.3,0,0.6,0l5.9,0h0.6V48.6z M126.7,56c0.4,0,0.6,0.1,0.8,0.1c0.5,0,0.6-0.1,0.6-1c0,0,0-0.1,0-0.1
		C127.4,55.6,127.2,55.7,126.7,56z"/>
	<path class="st1" d="M142.4,52.8h-0.7c-0.3,0-0.5,0-0.8,0v-1.6c0.3,0,0.5,0,0.9,0h0.6v-0.6c-0.5,0-0.7,0.1-1.2,0.1
		c-0.1-0.6-0.2-0.9-0.5-1.5c0.2,0,0.4,0,0.5,0c1.5,0,3.1-0.2,3.8-0.6h-7.7c0,3.1,0,4-0.2,5.4l1.2-0.8c0.2,0.4,0.2,0.5,0.5,0.9
		c0.2-0.3,0.2-0.6,0.3-1.1h-0.8c-0.4,0-0.5,0-0.7,0v-1.4c0.5-0.4,0.7-0.7,1.1-1.2h-0.4c-0.3,0-0.4,0-0.6,0v-1.6c0.2,0,0.4,0,0.8,0
		h0.9c0.4,0,0.7,0,0.9,0l0.8,0.9c-0.1,0.2-0.1,0.2-0.4,0.6c-0.4,0.5-0.6,0.8-0.9,1.1h0.6c0.3,0,0.4,0,0.6,0c0,0.1,0,0.1,0,0.2
		c0,0.1,0,0.1,0,0.3c-0.1,1.5-0.3,2.3-0.7,3.1c0.7,0.4,1.5,0.5,3.4,0.5c0.9,0,1.7,0,2.8-0.1c-0.2,0.6-0.3,1.1-0.5,1.8
		c-0.7,0-1.2,0-1.5,0c-2.8,0-4-0.2-5.2-0.9c-0.5,0.5-0.9,0.8-1.7,1.2c-0.3-0.6-0.6-1-0.9-1.3c-0.2,0.5-0.3,0.7-0.6,1.3
		c-0.5-0.7-0.8-1-1.3-1.6c0.4-0.8,0.6-1.5,0.8-2.8c0.1-0.9,0.1-2,0.1-4.1c0-1.5,0-1.7,0-2.2c0.5,0,1,0.1,1.6,0.1h2.7v-0.1
		c0-0.3,0-0.4,0-0.6h2c0,0.2-0.1,0.3-0.1,0.6V47h2.9c0.5,0,1.1,0,1.5-0.1v1.7c-0.3,0-0.5,0-1,0l0.8,1.5c-0.1,0-0.1,0-0.3,0.1
		c-0.3,0.1-0.8,0.2-1.4,0.3v0.8h0.8c0.3,0,0.6,0,0.9,0v1.6c-0.3,0-0.5,0-0.9,0h-0.8v0.8h0.7c0.4,0,0.6,0,0.8,0v1.6
		c-0.3,0-0.4,0-0.8,0h-2.9c-0.3,0-0.5,0-0.8,0v-1.6c0,0,0.1,0,0.1,0c0.2,0,0.3,0,0.7,0h0.5V52.8z M137,54.2
		c-0.1,0.7-0.2,1.2-0.4,1.8c0.5-0.2,0.7-0.4,1.1-0.7C137.5,55,137.4,54.9,137,54.2z"/>
	<path class="st1" d="M146.8,47.7c0.2,0,0.4,0,0.5,0c0.3,0,0.7,0,2.1-0.1c1.7-0.1,2.9-0.2,5.2-0.3l1.2,0l0.5,0c0.4,0,0.5,0,0.5,0
		c0.1,0,0.1,0,0.3,0l0.1,2.2c-0.2,0-0.2,0-0.3,0c-0.8,0-1.9,0.3-2.7,0.8c-1.2,0.7-1.9,1.7-1.9,2.7c0,0.7,0.3,1.2,1,1.5
		c0.5,0.2,1.5,0.4,2.3,0.4c0.1,0,0.2,0,0.4,0l-0.3,2.3c-0.2,0-0.2,0-0.4-0.1c-1.4-0.1-2.3-0.3-3-0.7c-1.4-0.7-2.1-1.8-2.1-3.3
		c0-1,0.3-1.9,1-2.7c0.3-0.4,0.6-0.6,1.2-1l-0.6,0.1c-0.3,0-0.7,0.1-2.9,0.2c-1.1,0.1-1.2,0.1-1.7,0.2L146.8,47.7z M155.3,50.4
		c0.5,0.6,0.8,1.1,1.2,1.7l-1.2,0.5c-0.4-0.8-0.7-1.2-1.2-1.8L155.3,50.4z M157,49.7c0.4,0.5,0.8,0.9,1.2,1.7L157,52
		c-0.4-0.8-0.7-1.3-1.1-1.7L157,49.7z"/>
	<path class="st1" d="M163.1,55.4c0,0.3,0.2,0.3,1.1,0.3c0.9,0,1.2-0.1,1.3-0.5c0.1-0.4,0.2-1,0.2-2.1c0.7,0.3,1.1,0.5,1.8,0.6
		c-0.2,2.2-0.4,2.9-1,3.3c-0.4,0.2-1.2,0.3-2.6,0.3c-2,0-2.5-0.2-2.7-1.2c-0.7,0.5-1,0.7-1.8,1.1c-0.4-0.7-0.7-1.1-1.2-1.6
		c1.2-0.5,2.1-1.1,3-1.7v-3.8c0-0.5,0-0.8-0.1-1.3h2c0,0.4-0.1,0.8-0.1,1.2v2.3c1-1.1,2-2.4,2.7-3.8c0.4-0.8,0.6-1.3,0.7-1.8
		l1.9,0.7c-0.2,0.3-0.2,0.3-0.5,1.1c-0.5,0.9-0.7,1.3-1.1,2.1l1.4-0.6c0.7,1.5,1.2,2.7,1.7,4.7l-1.8,0.9c-0.4-1.9-0.9-3.3-1.5-4.7
		c-1.1,1.6-2,2.7-3.4,3.9V55.4z M160.9,50.2c-0.2,2.1-0.5,3.2-0.9,4.6l-1.7-0.8c0.5-1.2,0.8-2.4,0.9-4.2L160.9,50.2z M162.3,46.2
		c1.5,0.6,2.3,0.9,3.4,1.5l-1.1,1.6c-0.8-0.6-1.8-1.1-3.5-1.8L162.3,46.2z"/>
	<path class="st1" d="M174.1,52.4c0.1-0.2,0.1-0.2,0.3-0.5h-1.6c-0.6,0-1,0-1.4,0c0-0.4,0-0.7,0-1.3V50c0-0.6,0-0.9,0-1.3
		c0.4,0,0.8,0,1.4,0h1.2v-0.5h-1.9c-0.6,0-1,0-1.5,0.1v-1.7c0.4,0,0.9,0.1,1.6,0.1h7.7c0.7,0,1.3,0,1.6-0.1v1.7
		c-0.4,0-0.9-0.1-1.4-0.1h-1.9v0.5h1.2c0.6,0,1,0,1.4,0c0,0.3,0,0.7,0,1.3v0.7c0,0.7,0,1,0,1.3c-0.3,0-0.7,0-1.4,0h-3.1
		c-0.1,0.1-0.1,0.2-0.2,0.3c0,0.1,0,0.1-0.1,0.2h4c0.7,0,1.1,0,1.4-0.1V54c-0.4,0-0.8-0.1-1.4-0.1h-0.8c-0.3,0.6-0.5,0.9-0.8,1.3
		c1.2,0.3,1.6,0.5,2.8,1l-1.1,1.5c-1.5-0.7-1.9-0.9-3.1-1.3c-1.4,0.7-3,1.1-5.6,1.2c-0.2-0.7-0.3-1-0.7-1.6c0.4,0,0.7,0,0.8,0
		c1.3,0,2.3-0.1,3.1-0.3c-1.3-0.3-1.6-0.4-2.7-0.6c0.5-0.5,0.7-0.7,1-1.1h-0.9c-0.6,0-1,0-1.5,0.1v-1.6c0.4,0,0.7,0.1,1.5,0.1H174.1
		z M173.2,49.9v0.8h0.8v-0.8H173.2z M175,53.9c-0.1,0.1-0.2,0.2-0.3,0.3c1.4,0.3,1.4,0.3,1.8,0.4c0.3-0.3,0.5-0.5,0.6-0.8H175z
		 M175.7,48.7h0.8v-0.5h-0.8V48.7z M175.7,50.7h0.8v-0.8h-0.8V50.7z M178.2,50.7h0.8v-0.8h-0.8V50.7z"/>
	<path class="st1" d="M187.5,46.6c-0.1,0.2-0.1,0.2-0.2,1c-0.1,0.3-0.1,0.4-0.1,0.7c0.8-0.1,1.3-0.2,1.7-0.3l0,1.9
		c-0.3,0-0.3,0-0.9,0.1c-0.3,0-1,0.1-1.3,0.1c-0.4,1.4-0.7,2.2-1.3,3.5c-0.3,0.6-0.4,0.8-0.8,1.7c-0.2,0.3-0.2,0.3-0.2,0.5l-2-1.1
		c0.9-1.1,1.7-2.8,2.2-4.5c-0.2,0-0.2,0-0.7,0c-0.3,0-0.3,0-0.6,0c0,0-0.1,0-0.5,0v-1.9c0.5,0.1,1,0.1,1.8,0.1c0.1,0,0.2,0,0.4,0
		c0-0.1,0-0.1,0.1-0.5c0.1-0.4,0.2-1,0.2-1.4L187.5,46.6z M192.6,56.7c-0.4-0.5-0.9-0.9-1.5-1.3c0,0.6-0.2,0.9-0.5,1.2
		c-0.5,0.5-1.3,0.7-2.3,0.7s-1.8-0.3-2.3-0.8c-0.4-0.4-0.6-0.9-0.6-1.5c0-1.4,1.2-2.4,2.8-2.4c0.3,0,0.4,0,0.8,0.1c0-0.5,0-0.7,0-1
		c0-0.5,0-0.9,0.1-1.4l2,0.1c-0.1,0.4-0.1,0.8-0.1,1.4c0,0.4,0,0.8,0.1,1.4c0.7,0.3,1.3,0.6,1.8,1.1c0,0,0.2,0.2,0.6,0.5L192.6,56.7
		z M188.3,54.4c-0.6,0-0.9,0.2-0.9,0.6c0,0.3,0.3,0.6,0.9,0.6c0.6,0,0.9-0.3,0.9-0.8c0-0.1,0-0.3,0-0.3
		C188.8,54.5,188.6,54.4,188.3,54.4z M192.7,51.1c-1.1-0.7-2.3-1.2-3.7-1.7l1-1.7c1.5,0.5,2.5,1,3.6,1.6L192.7,51.1z"/>
	<path class="st1" d="M200.6,55.6v0.6c0,0.9,0,1.1,0.1,1.3h-1.7c0-0.4,0.1-0.7,0.1-1.3v-3.6c-0.2,1.6-0.2,1.6-0.3,2.4
		c-0.2,1.1-0.4,1.7-0.8,2.6c-0.3-0.5-0.6-0.8-1-1.3c0,0.5,0,0.8,0.1,1.3h-1.9c0.1-0.6,0.1-0.8,0.1-1.4v-3c0-0.3,0-0.5,0-1.3
		c-0.2,0.3-0.4,0.6-0.6,0.8c-0.2-1-0.3-1.3-0.6-2.2c0.6-0.6,1-1.3,1.4-2.3c0.3-0.7,0.5-1.4,0.6-2l1.8,0.4c0,0.2-0.1,0.2-0.1,0.4
		c0.3,0,0.7,0,1.2,0h0.2v-0.2c0-0.3,0-0.4,0-0.6h1.8c0,0.2,0,0.3,0,0.6V47h1.2v-0.2c0-0.3,0-0.5,0-0.6h1.8c0,0.2,0,0.3,0,0.6V47h0.4
		c0.6,0,1.1,0,1.3-0.1v1.7c-0.4,0-0.6,0-1.3,0h-0.4v0.6h0.4c0.7,0,1,0,1.3,0v1.6c-0.3,0-0.7,0-1.1,0h-5.3V51c0.3,0,0.6,0,1.2,0h3.8
		c0.5,0,0.8,0,1.1,0c0,0.3,0,0.6,0,1.3v4c0,1-0.3,1.1-2,1.2c-0.1-0.6-0.1-0.8-0.3-1.3c0.2,0,0.3,0,0.4,0c0.2,0,0.2,0,0.2-0.2v-0.4
		h-0.8v0.5c0,0.7,0,1,0,1.4h-1.6c0-0.4,0.1-0.7,0.1-1.4v-0.5H200.6z M196.9,55.2c0.2-0.5,0.2-0.7,0.3-1.2c0.1-0.7,0.2-2.1,0.2-3.5
		c0-0.7,0-1,0-1.5c0.5,0,0.7,0,1.3,0h0.4v-0.6h-0.2c-0.7,0-0.9,0-1.3,0v-1.3c-0.2,0.8-0.3,1.1-0.7,1.8V55.2z M201.3,52.3h-0.7v0.5
		h0.7V52.3z M201.3,53.9h-0.7v0.5h0.7V53.9z M202,49.1v-0.6h-1.2v0.6H202z M203.5,52.8v-0.5h-0.8v0.5H203.5z M203.5,54.4v-0.5h-0.8
		v0.5H203.5z"/>
	<path class="st1" d="M209,46.8c0-0.2,0-0.4,0-0.6h1.8c0,0.2,0,0.3,0,0.6h2.3c0-0.2,0-0.4,0-0.6h1.8c0,0.2,0,0.3,0,0.6h1.2
		c0.6,0,1,0,1.4-0.1v1.5c-0.4,0-0.8-0.1-1.4-0.1h-1.2c0,0.2,0,0.2,0,0.4h-1.7c0-0.1,0-0.2,0-0.4h-2.6c0,0.2,0,0.2,0,0.4H209
		c0-0.1,0-0.2,0-0.4h-1c-0.7,0-1,0-1.5,0.1v-1.5c0.4,0,0.9,0.1,1.5,0.1H209z M214.6,50.7c-0.7,0.6-1.2,1-1.4,1.1c0.2,0,0.4,0,0.5,0
		c0.4,0,0.4,0,0.9,0c-0.2-0.1-0.2-0.2-0.5-0.4l1.3-0.9c0.9,0.7,1.5,1.3,2.2,2.1l-1.2,1c0,0.3,0,0.5,0,1v1.8c0,0.4,0,0.8,0.1,1.2
		h-1.8v-0.4h-5.5v0.4h-1.8c0-0.4,0.1-0.8,0.1-1.2v-1.8c0-0.4,0-0.8,0-1.1c0.4,0,0.5,0,1.3,0h6.5c0.5,0,0.6,0,0.9,0
		c-0.2-0.2-0.2-0.3-0.4-0.5c-3.4,0.2-3.4,0.2-8.2,0.4c-0.4,0-0.6,0-0.8,0.1l-0.2-1.6c0.4,0.1,0.9,0.1,2.6,0.1
		c-0.5-0.3-0.9-0.4-1.5-0.7l1.1-0.9h-0.6c-0.7,0-1.1,0-1.5,0.1v-1.5c0.4,0,0.8,0.1,1.5,0.1h2.9c0-0.2,0-0.3,0-0.4h1.8
		c0,0.1,0,0.2,0,0.4h3.1c0.6,0,1.1,0,1.5-0.1v1.5c-0.3,0-0.8-0.1-1.5-0.1h-2.2L214.6,50.7z M208.8,50.2c0.4,0.2,0.6,0.3,0.9,0.5
		c0.2-0.2,0.3-0.3,0.5-0.5H208.8z M209.3,54.8h1.9v-0.3h-1.9V54.8z M209.3,56.1h1.9v-0.4h-1.9V56.1z M212.2,50.2
		c-0.3,0.3-0.7,0.7-1.3,1.1c0.3,0.1,0.3,0.1,0.4,0.2c0.5-0.3,1.2-0.9,1.6-1.4H212.2z M212.8,54.8h1.9v-0.3h-1.9V54.8z M212.8,56.1
		h1.9v-0.4h-1.9V56.1z"/>
	<path class="st1" d="M224.9,55.7c0,0.8,0,1.1,0.1,1.5h-1.9c0-0.4,0.1-0.7,0.1-1.5V54h-2.3c-0.2,1.5-0.5,2.5-1.1,3.6
		c-0.7-0.7-1-1-1.6-1.4c0.9-1.5,1.1-2.9,1.1-8c0-0.7,0-1.2-0.1-1.6c0.4,0,0.7,0,1.4,0h7c0.7,0,1.1,0,1.5,0c0,0.4-0.1,0.8-0.1,1.5V56
		c0,1.1-0.5,1.5-1.9,1.5c-0.4,0-0.8,0-1.3,0c-0.1-0.6-0.2-1-0.5-1.7c0.5,0,1,0.1,1.3,0.1c0.4,0,0.5,0,0.5-0.3V54h-2.2V55.7z
		 M221,51.2c0,0.5,0,0.6,0,1.2h2.2v-1.2H221z M223.2,48.4h-2.1v1.1h2.1V48.4z M227.2,49.5v-1.1h-2.2v1.1H227.2z M224.9,52.3h2.2
		v-1.2h-2.2V52.3z"/>
	<path class="st1" d="M241.1,48.3c-0.2,0.2-0.2,0.3-0.4,0.6c-0.8,1.8-1.8,3-3.3,4c-0.4-0.5-0.8-0.9-1.3-1.3
		c-0.1,1.2-0.3,2.1-0.7,2.9c-0.4,0.8-1,1.5-1.9,2c-0.5,0.3-0.9,0.6-1.7,0.9c-0.5-0.9-0.7-1.2-1.4-1.9c1.3-0.4,2.2-0.9,2.7-1.7
		c0.6-0.7,0.8-1.6,0.8-3.2c0-0.4,0-0.6-0.1-0.8h2.3c0,0.2,0,0.3-0.1,1c0,0,0,0.3,0,0.4c0.1,0,0.1,0,0.3-0.1c0.9-0.4,1.6-1.2,2-2
		h-5.7c-0.9,0-1.3,0-1.9,0.1v-2.1c0.6,0.1,1,0.1,1.9,0.1h6.3c0.7,0,0.8,0,1-0.1L241.1,48.3z"/>
	<path class="st1" d="M251.4,47.8c-0.3,0.2-0.3,0.2-0.5,0.4c-0.9,1-1.8,1.7-2.8,2.4v4.6c0,1,0,1.3,0.1,1.9H246
		c0.1-0.6,0.1-0.9,0.1-1.9V52c-1.2,0.7-2.2,1.2-3.9,1.8c-0.3-0.8-0.6-1.2-1.2-1.9c2.6-0.7,4.4-1.6,6.4-3.1c1-0.8,1.8-1.6,2.2-2.2
		L251.4,47.8z"/>
	<path class="st1" d="M258.8,51.9c-0.1,1.4-0.3,2.2-0.9,3.1c-0.7,1.1-1.6,1.8-3.2,2.4c-0.4-0.9-0.7-1.2-1.4-1.9
		c2.2-0.6,3.1-1.7,3.2-3.6h-2.5c-1,0-1.3,0-1.8,0.1v-2c0.5,0.1,0.9,0.1,1.8,0.1h6.7c1.1,0,1.4,0,1.9-0.1v2c-0.7-0.1-0.8-0.1-1.9-0.1
		H258.8z M253.5,46.9c0.5,0.1,0.8,0.1,1.9,0.1h4.2c1.1,0,1.4,0,1.9-0.1v2c-0.5,0-0.7-0.1-1.9-0.1h-4.3c-1,0-1.4,0-1.8,0.1V46.9z"/>
	<path class="st1" d="M269.1,47c-0.1,0.3-0.1,0.3-0.3,0.9c-0.9,3.1-1.5,4.6-2.2,6.6c1.6-0.1,3-0.3,4.1-0.5c-0.4-1-1-2.1-1.5-2.9
		l1.9-0.7c1.2,1.9,2.1,3.5,2.9,5.7l-2.1,1c-0.1-0.6-0.2-0.7-0.4-1.3c-1.7,0.3-2.9,0.5-4.8,0.7l-2.7,0.3c-0.3,0-0.4,0-0.7,0.1
		l-0.3-2.2c0.2,0,0.3,0,0.4,0c0.1,0,0.2,0,0.3,0l0.4,0c0.2,0,0.2,0,0.3,0c0.8-2,1.4-3.8,2-6c0.3-1.1,0.4-1.6,0.5-2.1L269.1,47z"/>
	<path class="st1" d="M275,47.5c0.5,0.1,1.2,0.2,2.5,0.2c0.1,0,0.2,0,0.3,0c0.2-0.6,0.3-0.9,0.4-1.3l2.2,0.2
		c-0.1,0.2-0.1,0.2-0.3,0.6c-0.2,0.3-0.2,0.5-0.2,0.6c0.1,0,0.1,0,0.7,0c1.2-0.1,2.4-0.2,3-0.4l0.1,1.9c-0.4,0-0.7,0.1-1.1,0.1
		c-0.9,0.1-2.4,0.2-3.6,0.2c-0.2,0.4-0.3,0.5-0.6,0.9c0.5-0.2,1-0.4,1.5-0.4c1,0,1.6,0.4,1.8,1.2c0.2-0.1,0.2-0.1,0.8-0.3
		c0,0,0.4-0.1,0.7-0.2c0.7-0.2,0.8-0.3,1-0.4l0.7,1.9c-0.6,0.1-1.9,0.4-3.1,0.8c0,0.3,0,0.3,0,0.9c0,0.5,0,0.7,0,1l-2,0.1
		c0-0.2,0-0.6,0.1-1.3l-0.1,0c-0.6,0.3-0.6,0.3-0.8,0.5c-0.2,0.2-0.3,0.4-0.3,0.6c0,0.5,0.4,0.6,1.6,0.6c1.4,0,2.8-0.2,3.8-0.6
		l0.1,2.2c-0.3,0-0.3,0-1.1,0.1c-1,0.1-2,0.2-2.9,0.2c-1.4,0-2.2-0.2-2.9-0.6c-0.6-0.3-0.9-1-0.9-1.7c0-0.6,0.2-1,0.6-1.5
		c0.4-0.5,1-0.9,1.7-1.3c0.3-0.1,0.4-0.2,0.9-0.4c-0.1-0.2-0.3-0.3-0.5-0.3c-0.6,0-1.4,0.4-2.3,1.2c-0.5,0.4-0.8,0.8-1.2,1.2
		l-1.5-1.5c0.4-0.3,0.9-0.8,1.3-1.2c0.3-0.3,0.7-1,0.9-1.3c0.2-0.3,0.2-0.3,0.2-0.4c-0.2,0-0.3,0-0.4,0c-0.5,0-0.5,0-1,0
		c-0.2,0-0.3,0-0.4,0c0,0-0.1,0-0.2,0L275,47.5z"/>
	<path class="st1" d="M295.5,47.4c-0.2,0.3-0.3,0.5-0.5,1.1c-0.5,1.2-1,2.2-1.6,3.2c1,0.9,1.4,1.2,2.6,2.5l-1.6,1.7
		c-0.7-0.9-1.3-1.6-2.3-2.5c-1.1,1.5-2.6,2.7-4.6,3.8c-0.4-0.7-0.8-1.2-1.5-1.8c1.5-0.7,2.3-1.2,3.2-2.1c0.5-0.4,0.9-0.9,1.3-1.3
		c-1.5-1.1-2.1-1.6-3.1-2.1l1.5-1.5c1.1,0.6,1.6,1,2.8,1.9c0.7-1.1,1.4-2.7,1.6-3.7L295.5,47.4z"/>
	<path class="st1" d="M298.8,52.5c-0.9,0-1.2,0-1.8,0.1v-2c0.6,0.1,0.8,0.1,1.8,0.1h1.8V49h-1c-1,0-1.1,0-1.8,0.1v-2
		c0.5,0.1,0.7,0.1,1.8,0.1h5.1c1.1,0,1.4,0,1.9-0.1v2c-0.6,0-0.9-0.1-1.9-0.1h-2.1v1.6h2.8c1.1,0,1.4,0,1.9-0.1v2
		c-0.6,0-0.9-0.1-1.8-0.1h-2.9V54c0,0.5,0,0.7,0.2,0.8c0.1,0.1,0.4,0.2,0.9,0.2c1.3,0,2.4-0.1,3.1-0.3l0,2.1c-0.1,0-0.1,0-0.2,0
		c-0.1,0-0.2,0-0.5,0c-0.8,0.1-1.9,0.1-2.5,0.1c-1.3,0-2-0.1-2.5-0.4c-0.5-0.3-0.7-0.9-0.7-1.9v-2.1H298.8z"/>
	<path class="st1" d="M308.6,47.7c0.2,0,0.4,0,0.5,0c0.3,0,0.7,0,2.1-0.1c1.7-0.1,2.9-0.2,5.2-0.3l1.2,0l0.5,0c0.4,0,0.5,0,0.5,0
		c0.1,0,0.1,0,0.3,0l0.1,2.2c-0.2,0-0.2,0-0.3,0c-0.8,0-1.9,0.3-2.7,0.8c-1.2,0.7-1.9,1.7-1.9,2.7c0,0.7,0.3,1.2,1,1.5
		c0.5,0.2,1.5,0.4,2.3,0.4c0.1,0,0.2,0,0.4,0l-0.3,2.3c-0.2,0-0.2,0-0.4-0.1c-1.4-0.1-2.3-0.3-3-0.7c-1.4-0.7-2.1-1.8-2.1-3.3
		c0-1,0.3-1.9,1-2.7c0.3-0.4,0.6-0.6,1.2-1l-0.6,0.1c-0.3,0-0.7,0.1-2.9,0.2c-1.1,0.1-1.2,0.1-1.7,0.2L308.6,47.7z M317.1,50.4
		c0.5,0.6,0.8,1.1,1.2,1.7l-1.2,0.5c-0.4-0.8-0.7-1.2-1.2-1.8L317.1,50.4z M318.7,49.7c0.4,0.5,0.8,0.9,1.2,1.7l-1.1,0.5
		c-0.4-0.8-0.7-1.3-1.1-1.7L318.7,49.7z"/>
	<path class="st1" d="M320.9,47.9c0.4,0,0.8,0.1,1.4,0.1c0.7,0,1.6,0,2.1-0.1c-0.3-0.7-0.4-1-0.5-1.2l2.1-0.3
		c0.1,0.4,0.1,0.7,0.4,1.2c1.2-0.2,2.6-0.4,3.2-0.7l0.2,1.8c-0.2,0-0.2,0-0.9,0.2c-0.7,0.1-0.7,0.2-1.9,0.3c0.1,0.2,0.2,0.5,0.3,0.6
		c1.7-0.3,2.2-0.4,2.8-0.6l0.2,1.8c-0.3,0-0.3,0-1.5,0.3c0,0-0.6,0.1-0.7,0.1c0.5,0.9,0.8,1.3,1.5,2.2l-1.8,0.9
		c-0.7-0.4-1.5-0.5-2.5-0.5c-1.3,0-2.1,0.3-2.1,0.8c0,0.4,0.6,0.7,1.9,0.7c1.4,0,2.9-0.3,3.8-0.7l0.3,2c-0.3,0-0.3,0-0.8,0.2
		c-1.1,0.3-2.2,0.4-3.4,0.4c-1.8,0-3-0.4-3.6-1.1c-0.3-0.4-0.4-0.9-0.4-1.3c0-0.8,0.6-1.6,1.4-2c0.7-0.3,1.5-0.4,2.6-0.4
		c0.6,0,1.1,0,1.7,0.1c-0.1-0.2-0.3-0.5-0.6-0.9c-1,0.1-2.4,0.2-4.1,0.3c-0.7,0-0.8,0-1,0.1l-0.1-1.8c0.3,0,0.6,0,1.2,0
		c1.2,0,2.3-0.1,3.3-0.2c0-0.1-0.1-0.3-0.3-0.6c-1.1,0.1-1.6,0.1-3.1,0.1c-0.5,0-0.6,0-0.9,0L320.9,47.9z"/>
	<path class="st1" d="M331.9,47.6c0.7,0.2,1.9,0.3,3.5,0.3c0.1,0,0.3,0,0.7,0c0-0.8,0-1-0.1-1.3h2.1c-0.1,0.3-0.1,0.4-0.1,1.2
		c1.6-0.1,2.7-0.2,3.4-0.4l0.1,1.8c-0.3,0-0.4,0-1.1,0.1c-0.8,0.1-1.5,0.2-2.4,0.2c0,0.3,0,0.3,0,0.8c1.4-0.1,2.3-0.2,3.1-0.4l0,1.8
		c-0.3,0-0.3,0-0.8,0.1c-0.5,0.1-1.7,0.1-2.4,0.2c0,0.6,0,0.6,0,1.1c0.6,0.2,1,0.3,1.6,0.6c0.6,0.3,0.8,0.4,1.6,1
		c0.2,0.1,0.3,0.2,0.5,0.3l-1.1,1.9c-0.4-0.4-0.4-0.4-0.8-0.8c-0.6-0.5-1.2-0.9-1.7-1.1c0,0.5-0.1,0.9-0.3,1.2
		c-0.4,0.6-1.3,0.9-2.6,0.9c-2,0-3.1-0.8-3.1-2.2c0-0.9,0.6-1.6,1.5-2c0.6-0.2,1.3-0.3,2.1-0.3c0.2,0,0.2,0,0.4,0c0-0.4,0-0.6,0-0.7
		c-0.3,0-0.7,0-0.9,0c-0.7,0-1.2,0-1.9,0c-0.5,0-0.6,0-0.9,0l0-1.8c0.5,0.1,1.7,0.2,3,0.2c0.3,0,0.4,0,0.8,0c0-0.1,0-0.1,0-0.2
		c0,0,0,0,0-0.3c0-0.2,0-0.2,0-0.3c-0.3,0-0.4,0-0.5,0c-0.6,0-0.9,0-2.2-0.1c-0.5,0-0.5,0-0.9,0c-0.2,0-0.3,0-0.3,0c0,0-0.1,0-0.2,0
		L331.9,47.6z M335.4,54.4c-0.7,0-1.2,0.2-1.2,0.6c0,0.3,0.3,0.5,0.9,0.5c0.7,0,1-0.2,1-0.8c0-0.1,0-0.2,0-0.2
		C335.8,54.5,335.7,54.4,335.4,54.4z"/>
	<path class="st1" d="M342.7,47.8c0.3,0,0.4,0,0.7,0c0.3,0,3.6-0.1,4.7-0.1c0-0.8,0-0.9-0.1-1.3h2.1c0,0.4-0.1,0.6-0.1,1.2
		c2,0,2.9,0,3.4-0.1l0,2c-0.5,0-0.8-0.1-2.2-0.1c-0.6,0-0.7,0-1.2,0V51c0,0.1,0,0.1,0,0.3c0.3,0.6,0.5,1.2,0.5,2
		c0,1.3-0.7,2.5-2,3.3c-0.6,0.4-1.3,0.6-2.4,1c-0.3-0.9-0.6-1.3-1.1-1.9c1.2-0.2,1.9-0.4,2.5-0.7c0.4-0.3,0.7-0.5,0.9-0.9
		c-0.5,0.4-0.9,0.6-1.6,0.6c-1.4,0-2.4-0.9-2.4-2.2c0-1.4,1.1-2.3,2.8-2.3c0.4,0,0.7,0,0.9,0.1c0-0.1,0-0.1,0-0.4c0-0.2,0-0.2,0-0.3
		c-2.5,0.1-4.4,0.2-5.4,0.3L342.7,47.8z M346.5,52.3c0,0.4,0.3,0.6,0.8,0.6c0.5,0,0.9-0.3,0.9-0.7c0-0.4-0.3-0.6-0.8-0.6
		C346.8,51.6,346.5,51.9,346.5,52.3z"/>
	<path class="st1" d="M357.8,55.3c0,1.3-1,2.3-2.3,2.3c-1.2,0-2.3-1-2.3-2.3c0-1.3,1-2.3,2.3-2.3S357.8,54,357.8,55.3z M354.5,55.3
		c0,0.6,0.5,1,1,1c0.6,0,1-0.5,1-1c0-0.6-0.5-1-1-1C354.9,54.2,354.5,54.7,354.5,55.3z"/>
</g>
</svg>
