<?xml version="1.0" encoding="utf-8"?>
<!-- Generator: Adobe Illustrator 24.0.1, SVG Export Plug-In . SVG Version: 6.00 Build 0)  -->
<svg version="1.1" id="レイヤー_1" xmlns="http://www.w3.org/2000/svg" xmlns:xlink="http://www.w3.org/1999/xlink" x="0px"
	 y="0px" viewBox="0 0 522.3 78" style="enable-background:new 0 0 522.3 78;" xml:space="preserve">
<style type="text/css">
	.st0{fill:url(#SVGID_1_);}
	.st1{opacity:0.28;clip-path:url(#SVGID_3_);}
	.st2{fill:#FFFFFF;}
	.st3{fill:#CF000E;}
	.st4{fill:#133C36;}
	.st5{fill:#FFE501;}
	.st6{fill:#E60000;}
	.st7{enable-background:new    ;}
	.st8{fill:#003705;}
	.st9{fill:#040000;}
	.st10{clip-path:url(#SVGID_5_);}
	.st11{fill:#231815;}
	.st12{fill:#FF908D;}
	.st13{fill:#FFEFDD;}
	.st14{fill:#A38A77;}
	.st15{fill:#450000;}
	.st16{fill:#72C7ED;}
	.st17{fill:none;stroke:#FFFFFF;stroke-width:1.9361;stroke-miterlimit:10;}
</style>
<g id="レイヤー_2_1_">
	
		<linearGradient id="SVGID_1_" gradientUnits="userSpaceOnUse" x1="261.15" y1="-3232.0103" x2="261.15" y2="-3154.3103" gradientTransform="matrix(1 0 0 -1 0 -3154.1104)">
		<stop  offset="0" style="stop-color:#FFEC00"/>
		<stop  offset="0.9879" style="stop-color:#FFCE52"/>
	</linearGradient>
	<rect y="0.2" class="st0" width="522.3" height="77.7"/>
	<g>
		<g>
			<g>
				<g>
					<g>
						<g>
							<g>
								<g>
									<g>
										<g>
											<defs>
												<rect id="SVGID_2_" y="0.2" width="522.3" height="77.7"/>
											</defs>
											<clipPath id="SVGID_3_">
												<use xlink:href="#SVGID_2_"  style="overflow:visible;"/>
											</clipPath>
											<g class="st1">
												<polygon class="st2" points="-25.3,68.3 -58.1,68.3 -5.9,7.6 27,7.6 												"/>
												<polygon class="st2" points="29.2,68.3 -3.6,68.3 48.6,7.6 81.4,7.6 												"/>
												<polygon class="st2" points="83.7,68.3 50.9,68.3 103.1,7.6 135.9,7.6 												"/>
												<polygon class="st2" points="138.2,68.3 105.3,68.3 157.6,7.6 190.4,7.6 												"/>
												<polygon class="st2" points="192.7,68.3 159.8,68.3 212.1,7.6 244.9,7.6 												"/>
												<polygon class="st2" points="247.2,68.3 214.3,68.3 266.6,7.6 299.4,7.6 												"/>
												<polygon class="st2" points="301.7,68.3 268.8,68.3 321,7.6 353.9,7.6 												"/>
												<polygon class="st2" points="356.2,68.3 323.3,68.3 375.5,7.6 408.4,7.6 												"/>
												<polygon class="st2" points="410.7,68.3 377.8,68.3 430,7.6 462.9,7.6 												"/>
												<polygon class="st2" points="465.2,68.3 432.3,68.3 484.5,7.6 517.4,7.6 												"/>
												<polygon class="st2" points="519.6,68.3 486.8,68.3 539,7.6 571.9,7.6 												"/>
											</g>
										</g>
									</g>
								</g>
							</g>
						</g>
					</g>
				</g>
			</g>
		</g>
	</g>
</g>
<rect x="170.5" y="52.1" class="st3" width="263.9" height="19.6"/>
<g>
	<path class="st4" d="M81.9,67.6H35.4c-3.5,0-6.7-1.8-8.4-4.8c-1.8-3-1.8-6.7,0-9.7l23.3-40.3c1.8-3,4.9-4.8,8.4-4.8
		s6.7,1.8,8.4,4.8l23.1,40.3c1.8,3,1.8,6.7,0,9.7C88.6,65.8,85.3,67.6,81.9,67.6z"/>
	<g>
		<path class="st5" d="M51.9,12.8L28.8,53.1c-2.9,5.2,0.6,11.5,6.7,11.5h46.4c5.8,0,9.6-6.3,6.7-11.5L65.4,12.8
			C62.3,7.6,54.9,7.6,51.9,12.8z"/>
		<path class="st6" d="M81.8,66.4H35.3c-3.5,0-6.7-1.8-8.4-4.8c-1.8-3-1.8-6.7,0-9.7l23.3-40.3c1.8-3,4.9-4.8,8.4-4.8
			s6.7,1.8,8.4,4.8l23.3,40.3c1.8,3,1.8,6.7,0,9.7C88.6,64.7,85.2,66.4,81.8,66.4z M53.8,13.8L30.6,54.1c-1,1.8-1,3.8,0,5.5
			c1,1.8,2.8,2.8,4.8,2.8h46.4c1.9,0,3.8-1,4.8-2.8s1-3.8,0-5.5L63.5,13.8c-1-1.8-2.8-2.8-4.8-2.8C56.6,11,54.8,12.1,53.8,13.8
			L53.8,13.8z"/>
	</g>
	<g class="st7">
		<path class="st6" d="M59.7,44.2v1.2c0,1.7,0,1.9,0.1,2.5h-3.3c0.1-0.6,0.1-1.3,0.1-2.5v-6.8c-0.3,3.1-0.3,3.1-0.6,4.5
			c-0.3,2.1-0.8,3.3-1.5,4.8c-0.6-1-1.1-1.6-1.8-2.4c0,1,0,1.5,0.2,2.5h-3.6c0.1-1.2,0.2-1.5,0.2-2.6v-5.6c0-0.5,0-1,0.1-2.5
			c-0.3,0.6-0.6,1.1-1.1,1.5c-0.3-1.8-0.6-2.5-1.2-4.2c1.1-1.2,1.9-2.6,2.7-4.4c0.6-1.4,0.9-2.7,1.1-3.8l3.4,0.8
			c-0.1,0.3-0.1,0.4-0.3,0.8c0.6,0.1,1.3,0.1,2.2,0.1h0.3v-0.3c0-0.6,0-0.8-0.1-1.2h3.5c0.1,0.3,0.1,0.8,0.1,1.2v0.3h2.3v-0.3
			c0-0.6,0-0.8-0.1-1.2h3.4c-0.1,0.3-0.1,0.6-0.1,1.1V28h0.6c1.1,0,1.9-0.1,2.4-0.2v3c-0.8-0.1-1.1-0.1-2.4-0.1h-0.6V32h0.8
			c1.3,0,1.8,0,2.6-0.1V35c-0.6-0.1-1.3-0.1-2.1-0.1H57v0.6c0.6,0.1,1.2,0.1,2.3,0.1h7.3c1,0,1.5,0,2.1-0.1
			c-0.1,0.5-0.1,1.1-0.1,2.3v7.7c0,1.8-0.5,2.2-3.8,2.2c-0.2-1.1-0.3-1.6-0.6-2.5c0.3,0,0.6,0.1,0.8,0.1c0.3,0,0.4-0.1,0.4-0.4v-0.7
			H64V45c0,1.4,0,1.9,0.1,2.6h-3c0.1-0.8,0.1-1.3,0.1-2.6v-0.8H59.7L59.7,44.2z M52.9,43.6c0.3-0.8,0.4-1.4,0.6-2.3
			c0.2-1.3,0.3-3.9,0.3-6.6c0-1.3,0-1.9-0.1-2.8C54.6,32,55,32,56.2,32H57v-1.2h-0.3c-1.3,0-1.7,0-2.4,0.1v-2.4
			c-0.4,1.4-0.6,1.9-1.3,3.3C52.9,31.8,52.9,43.6,52.9,43.6z M61.1,38h-1.4v0.9h1.4V38z M61.1,41.1h-1.4v1h1.4V41.1z M62.5,32v-1.1
			h-2.3V32H62.5z M65.4,38.9V38H64v0.9H65.4z M65.4,42v-0.9H64V42H65.4z"/>
	</g>
	<g class="st7">
		<path class="st6" d="M57.2,20.2c0,0.3,0.1,0.5,0.3,0.8c0.3,0.3,0.6,0.5,1.2,0.5c0.8,0,1.3-0.3,1.3-0.9c0-0.3-0.2-0.6-0.4-0.6
			c-0.3-0.1-0.5-0.2-1.5-0.4c-0.9-0.2-1.3-0.3-1.6-0.6c-0.6-0.4-1-1.1-1-1.9c0-1.6,1.3-2.5,3.3-2.5c1.3,0,2.3,0.4,2.8,1.2
			c0.3,0.3,0.3,0.6,0.5,1.2l-2.3,0.2c-0.1-0.6-0.5-0.9-1.3-0.9c-0.6,0-1.1,0.3-1.1,0.8c0,0.3,0.2,0.5,0.5,0.6
			c0.2,0.1,0.2,0.1,1.4,0.3c0.8,0.2,1.3,0.3,1.7,0.6c0.8,0.4,1.1,1.2,1.1,2.1c0,0.8-0.3,1.4-0.6,1.8c-0.6,0.6-1.5,0.8-2.7,0.8
			c-0.8,0-1.7-0.2-2.3-0.5c-0.5-0.3-0.8-0.8-1.1-1.3c-0.1-0.3-0.2-0.5-0.3-0.9L57.2,20.2z"/>
	</g>
	<polygon points="41.1,58.6 58.5,75.2 93.6,22.2 55.4,62.5 44.9,54 	"/>
</g>
<g>
	<path class="st8" d="M424.8,45.4h-90c-5.3,0-9.6-4.3-9.6-9.6l0,0c0-5.3,4.3-9.6,9.6-9.6h90c5.3,0,9.6,4.3,9.6,9.6l0,0
		C434.4,41.1,430.1,45.4,424.8,45.4z"/>
	<g>
		<g class="st7">
			<path d="M173.9,13.9c0.2,0.6,0.4,0.8,1.3,0.8c0.7,0,1.1-0.3,1.1-0.7c0-0.2-0.1-0.4-0.3-0.4c-0.2-0.1-0.3-0.1-0.9-0.3
				c-0.8-0.2-0.9-0.3-1.3-0.4c-0.5-0.3-0.8-0.7-0.8-1.3c0-0.3,0.1-0.6,0.3-0.8c0.4-0.4,0.9-0.8,1.8-0.8c0.8,0,1.3,0.2,1.7,0.5
				c0.3,0.3,0.4,0.4,0.4,0.9l-1.3,0.2c-0.1-0.4-0.4-0.8-0.9-0.8c-0.6,0-0.9,0.3-0.9,0.6c0,0.2,0.1,0.3,0.3,0.4
				c0.2,0.1,0.4,0.2,0.9,0.3c0.9,0.2,1.3,0.3,1.6,0.5c0.4,0.3,0.5,0.6,0.5,1.2c0,0.4-0.2,0.8-0.4,1c-0.4,0.4-1,0.6-1.9,0.6
				s-1.6-0.3-2-0.8c-0.2-0.3-0.3-0.4-0.4-0.8L173.9,13.9z"/>
			<path d="M181.6,15c-0.4,0.4-0.6,0.4-0.9,0.5c-0.3,0.1-0.5,0.1-0.8,0.1c-1.1,0-1.8-0.5-1.8-1.5c0-0.6,0.4-1.3,1-1.4
				c0.6-0.3,1.3-0.4,2.5-0.4v-0.4c0-0.5-0.4-0.8-1-0.8c-0.4,0-0.8,0.1-0.9,0.3c-0.2,0.1-0.3,0.3-0.4,0.6l-1.2-0.2
				c0.2-0.5,0.4-0.8,0.8-1c0.4-0.3,0.9-0.4,1.8-0.4s1.4,0.2,1.8,0.5c0.3,0.3,0.4,0.6,0.4,1.3v2.4c0,0.4,0,0.8,0.1,1.2h-1.3V15H181.6
				z M181.6,13c-1.8,0.1-2.4,0.4-2.4,1c0,0.4,0.3,0.7,0.8,0.7c0.4,0,0.9-0.2,1.3-0.4c0.3-0.3,0.3-0.4,0.3-0.8L181.6,13L181.6,13z"/>
			<path d="M185.2,8.3c-0.1,0.4-0.1,0.7-0.1,1.3v2.9l1.3-1.3c0.4-0.4,0.5-0.6,0.8-0.8h1.7c-0.5,0.4-0.5,0.4-0.9,0.8l-1.3,1.3
				l1.5,2.1c0.6,0.8,0.6,0.8,0.8,1h-1.6c-0.1-0.3-0.3-0.4-0.6-1l-0.9-1.4l-0.8,0.8v0.6c0,0.6,0,0.8,0.1,1.2H184
				c0.1-0.4,0.1-0.7,0.1-1.2V9.7c0-0.5,0-0.8-0.1-1.3L185.2,8.3L185.2,8.3z"/>
			<path d="M194.7,10.3c-0.1,0.4-0.1,0.7-0.1,1.2v2.8c0,0.4,0,0.8,0.1,1.2h-1.3v-0.4c0-0.1,0-0.2,0-0.4c-0.4,0.8-0.9,0.9-1.9,0.9
				c-0.4,0-0.8-0.1-1.1-0.3c-0.4-0.3-0.8-0.8-0.8-1.6v-2.3c0-0.4,0-0.8-0.1-1.2h1.3c-0.1,0.4-0.1,0.8-0.1,1.2v2c0,0.5,0.1,0.8,0.4,1
				c0.1,0.1,0.3,0.1,0.4,0.1c0.7,0,1.2-0.4,1.6-1.3v-1.8c0-0.4,0-0.8-0.1-1.2C193.4,10.3,194.7,10.3,194.7,10.3z"/>
			<path d="M197,13.3c0.1,0.4,0.1,0.6,0.3,0.8c0.3,0.4,0.8,0.5,1.3,0.5c0.9,0,1.4-0.4,1.4-1.1c0-0.4-0.2-0.7-0.4-0.8
				c-0.3-0.1-0.3-0.2-1.6-0.4c-0.7-0.2-1-0.3-1.4-0.5c-0.4-0.4-0.8-0.8-0.8-1.4c0-1.3,1-2.1,2.6-2.1c1,0,1.8,0.3,2.2,0.9
				c0.3,0.3,0.4,0.5,0.4,1l-1.3,0.2c-0.1-0.3-0.1-0.4-0.3-0.7c-0.3-0.3-0.6-0.4-1.2-0.4c-0.8,0-1.3,0.4-1.3,0.9
				c0,0.4,0.2,0.7,0.6,0.8c0.2,0.1,0.3,0.1,1.3,0.3c0.8,0.2,1.2,0.3,1.4,0.5c0.5,0.4,0.8,0.9,0.8,1.6c0,0.7-0.2,1.2-0.5,1.5
				c-0.4,0.4-1.3,0.7-2.1,0.7s-1.4-0.2-1.9-0.4c-0.4-0.3-0.6-0.6-0.8-1c-0.1-0.2-0.1-0.4-0.2-0.8L197,13.3z"/>
			<path d="M207.3,15.5c-0.1-0.3-0.2-0.7-0.3-0.9l-0.4-0.9h-2.9l-0.4,0.9c-0.2,0.4-0.2,0.5-0.3,0.9h-1.5c0.1-0.3,0.3-0.7,0.4-1.1
				l2-5.1c0.2-0.4,0.3-0.7,0.3-0.9h1.6c0.1,0.3,0.1,0.4,0.3,0.9l2,5.1c0.3,0.6,0.4,0.8,0.4,1.1H207.3z M205.5,9.9
				c-0.1-0.1-0.1-0.2-0.2-0.4c-0.1,0.4-0.1,0.4-0.2,0.4l-0.9,2.6h2.2L205.5,9.9z"/>
			<path d="M214.8,14.3c0.5,0.8,0.7,0.8,0.9,1.2H214c-0.1-0.3-0.4-0.7-0.5-0.9l-1.8-2.5l-0.9,0.9v1.3c0,0.5,0,0.8,0.1,1.2h-1.3
				c0.1-0.4,0.1-0.7,0.1-1.2V9.5c0-0.4,0-0.8-0.1-1.2h1.3c-0.1,0.3-0.1,0.7-0.1,1.2v2.1l2.3-2.4c0.4-0.4,0.5-0.6,0.8-0.9h1.7
				c-0.3,0.3-0.5,0.5-0.9,0.9l-1.9,2L214.8,14.3z"/>
			<path d="M222.7,8.3c-0.1,0.4-0.1,0.7-0.1,1.3v3.1c0,1.9-1.1,2.9-3,2.9c-1,0-1.8-0.3-2.4-0.8c-0.4-0.4-0.7-1.2-0.7-2.1V9.6
				c0-0.5,0-0.9-0.1-1.3h1.3c-0.1,0.3-0.1,0.7-0.1,1.3v3.1c0,1.3,0.6,1.9,1.9,1.9c1.3,0,1.8-0.7,1.8-1.9V9.6c0-0.6,0-0.9-0.1-1.3
				H222.7L222.7,8.3z"/>
		</g>
		<g class="st7">
			<path d="M180.9,31.4c-0.1,3.5-0.3,6.7-0.5,8.9c-0.4,2.9-0.9,4.6-2.2,6.8c-0.5-0.8-1.3-1.5-2-2.1c0,1,0.1,1.4,0.1,2.4h-3.1
				c0.1-1.2,0.2-1.9,0.2-3.3v-7.6c0-1,0-2,0.1-3.6c-0.5,1.2-1.1,2-1.9,2.9c-0.5-1.8-0.5-1.8-1.3-3.3c1.5-1.7,2.7-3.7,3.8-6.1
				c0.8-1.8,1.3-3.3,1.4-4.6l2.9,0.8c-0.1,0.4-0.3,0.8-0.4,1.4c-0.5,1.8-0.9,2.8-1.8,4.4v15.9c0.8-1.3,1-2.1,1.3-3.7
				c0.4-2.1,0.6-4.8,0.6-9.1c0-1,0-1.9-0.1-2.8c0.9,0.1,1.5,0.1,2.9,0.1h12.2c1.5,0,2.1,0,2.9-0.1v2.7c-0.8-0.1-1.6-0.1-2.6-0.1
				L180.9,31.4C180.9,31.3,180.9,31.4,180.9,31.4z M182,23.7c0-0.8,0-1.3-0.1-1.6h2.9c-0.1,0.4-0.1,0.9-0.1,1.6v0.6h3.8v-0.6
				c0-0.8,0-1.3-0.1-1.6h2.9c-0.1,0.4-0.1,0.9-0.1,1.6v0.6h1.8c1.2,0,2.2-0.1,2.8-0.2v2.8c-0.8-0.1-1.4-0.1-2.8-0.1h-1.8v0.3
				c0,0.7,0,0.9,0.1,1.3h-2.9c0.1-0.4,0.1-0.8,0.1-1.3v-0.3h-3.8v0.3c0,0.7,0,0.9,0.1,1.3h-2.9c0.1-0.4,0.1-0.8,0.1-1.3v-0.3h-1.2
				c-1.4,0-1.9,0-2.7,0.1v-2.7c0.8,0.1,1.7,0.1,2.7,0.1h1.2V23.7C181.8,23.7,182,23.7,182,23.7z M184,42.6v1.6c0,1.8,0,2.4,0.1,2.9
				h-2.9c0.1-0.8,0.2-1.5,0.2-2.9v-8.7c0-1.5,0-2.1-0.1-2.9c0.8,0.1,1.4,0.1,2.9,0.1h8.3c1.3,0,1.9,0,2.6-0.1
				c-0.1,0.6-0.1,1.4-0.1,2.9v9.3c0,1.8-0.6,2.2-3.1,2.2c-0.3,0-0.3,0-1.3,0c-0.1-1.1-0.3-1.5-0.5-2.4c0.6,0.1,1.3,0.1,1.6,0.1
				c0.4,0,0.6-0.1,0.6-0.6v-1.6h-2.9v1.3c0,1.6,0,2.4,0.1,2.9h-2.8c0.1-0.8,0.2-1.6,0.2-2.9v-1.3L184,42.6L184,42.6L184,42.6z
				 M186.9,35.1H184v1.5h2.9V35.1z M186.9,38.7H184v1.5h2.9V38.7z M192.4,36.6v-1.5h-2.9v1.5H192.4z M192.4,40.2v-1.5h-2.9v1.5
				H192.4z"/>
			<path d="M204.8,23.4c0-0.5,0-0.9-0.1-1.5h3c-0.1,0.5-0.1,0.9-0.1,1.5v0.3h6.1v-0.3c0-0.5,0-0.9-0.1-1.5h3
				c-0.1,0.5-0.1,0.9-0.1,1.5v0.3h3.3c1.4,0,2.4-0.1,3.1-0.2v2.7c-0.8-0.1-1.7-0.1-3.1-0.1h-3.3c0,0.4,0,0.8,0.1,1.2h-2.9
				c0-0.4,0.1-0.8,0.1-1.2h-6.1c0,0.4,0,0.8,0.1,1.2h-2.9c0.1-0.4,0.1-0.8,0.1-1.2h-3c-1.5,0-2.4,0-3.1,0.1v-2.7
				c0.9,0.1,1.8,0.2,3.1,0.2h3L204.8,23.4L204.8,23.4z M216.7,31.7c-1.3,1-3.3,2.6-4.1,3.1c2.2-0.1,3.9-0.2,5-0.3
				c-0.6-0.4-0.8-0.7-1.7-1.3l2.1-1.5c2.2,1.6,3.6,2.9,5.4,4.7l-2.1,1.9c-0.8-0.9-1.1-1.3-1.6-1.9c-6.1,0.4-9.2,0.5-19,0.9
				c-0.7,0-1.2,0.1-1.6,0.1l-0.4-2.8c0.9,0.1,2.5,0.2,6.6,0.2c0.1,0,0.1,0,1.4,0c-1-0.4-3.6-1.6-4.9-2.1l1.8-1.9
				c1.3,0.6,1.6,0.8,2.5,1.2c0.7-0.4,1-0.8,1.8-1.5h-5.6c-1.4,0-2.4,0-3.1,0.1v-2.7c0.8,0.1,1.8,0.2,3.1,0.2h7.1c0-0.7,0-1-0.1-1.5
				h2.9c-0.1,0.5-0.1,0.8-0.1,1.5h7.5c1.3,0,2.4-0.1,3.1-0.2v2.7c-0.7-0.1-1.8-0.1-3.1-0.1h-4.9L216.7,31.7z M201.2,40.4
				c0-1,0-1.8-0.1-2.6c0.8,0.1,1.3,0.1,2.7,0.1H218c1.4,0,1.9,0,2.7-0.1c-0.1,0.8-0.1,1.3-0.1,2.7v4.1c0,0.9,0.1,1.8,0.1,2.7h-3v-1
				H204v1h-3c0.1-0.9,0.1-1.8,0.1-2.7L201.2,40.4L201.2,40.4z M204,41h5.4v-1.2H204V41z M204,44.1h5.4v-1.3H204V44.1z M211,30.5
				c-0.9,0.9-1.9,1.8-2.9,2.5c0.8,0.4,0.9,0.5,1.6,0.9c1.7-1.2,3.3-2.4,4.1-3.4L211,30.5L211,30.5z M212.1,41h5.6v-1.2h-5.6V41z
				 M212.1,44.1h5.6v-1.3h-5.6V44.1z"/>
			<path d="M246.7,25.7c-0.3,0.1-0.3,0.1-2.3,0.8c-1.6,0.4-2.4,0.8-4.6,1.2c0,3.7,0,3.7-0.1,4.6h5.8c1.9,0,2.4,0,3.3-0.2v3.3
				c-1-0.1-1.5-0.1-3.3-0.1h-6c-0.3,2.5-0.9,4.4-1.8,5.9c-0.9,1.6-2.5,3.1-4.4,4.3c-0.8,0.4-1.3,0.8-2.5,1.4
				c-0.8-1.4-1.3-1.9-2.4-2.9c2-0.8,2.9-1.3,4.2-2.3c1.6-1.3,2.7-2.9,3.1-4.6c0.1-0.4,0.2-0.9,0.3-1.8h-6.8c-1.8,0-2.3,0-3.3,0.1
				v-3.3c1,0.2,1.5,0.2,3.3,0.2h6.9c0.1-1.2,0.1-2.2,0.1-4.1c-2.2,0.3-3,0.4-7.6,0.6c-0.3-1.3-0.4-1.6-1-2.9
				c0.8,0.1,1.3,0.1,1.7,0.1c3.7,0,8.3-0.6,11.7-1.6c1.6-0.4,2.4-0.8,3.3-1.3L246.7,25.7z"/>
			<path d="M263.8,42.6h5.6c1.3,0,1.8,0,2.5-0.2v3c-0.8-0.1-1.3-0.1-2.5-0.1h-14c-1.3,0-1.8,0-2.5,0.1v-3c0.8,0.1,1.3,0.2,2.5,0.2
				h5.4v-8.8H257c-1,0-1.6,0-2.5,0.2v-3.1c0.8,0.1,1.4,0.2,2.4,0.2h10.7c1.2,0,1.8-0.1,2.5-0.2v3c-0.8-0.1-1.2-0.1-2.4-0.1h-3.9
				L263.8,42.6L263.8,42.6z"/>
			<path d="M279.4,29.2c1.2,2.1,1.7,3.4,2.7,6.4l-3,0.9c-0.8-2.8-1.3-4.2-2.4-6.6L279.4,29.2z M295.1,29.6c-0.2,0.4-0.3,0.5-0.4,1.4
				c-0.8,3.8-2.1,6.8-3.8,9c-2.1,2.8-4.3,4.6-8.3,6.6c-0.8-1.3-1-1.6-2.1-2.7c1.9-0.8,2.9-1.3,4.6-2.5c3.1-2.4,5.1-5.1,6.2-9.4
				c0.4-1.3,0.4-2.3,0.4-3.1L295.1,29.6z M285.3,28.2c1.4,2.7,2,3.9,2.6,6.3l-2.9,0.9c-0.5-2.1-1.3-4.2-2.4-6.4L285.3,28.2z"/>
			<path d="M319.9,27.6c-0.3,0.4-0.4,0.7-0.7,1.6c-1.3,4.1-3.1,7.8-5.6,10.5c-2.5,2.9-5.5,5-9.7,6.9c-0.8-1.4-1.2-1.8-2.4-2.9
				c2.7-1.2,4.3-1.9,6-3.3c3.9-2.9,6.4-6.7,7.9-11.5l-8.2,0.1c-1.7,2.6-3.8,5-6.3,6.9c-0.8-1.2-1.3-1.5-2.6-2.4
				c3.1-2.1,5.1-4.3,7.1-7.9c0.8-1.6,1.3-2.6,1.4-3.6l3.8,0.8c-0.2,0.3-0.2,0.3-0.4,0.8c-0.1,0.1-0.1,0.1-0.4,0.8
				c-0.1,0.2-0.1,0.2-0.4,0.8c-0.2,0.4-0.2,0.4-0.4,0.9c0.4,0,0.8-0.1,1.3-0.1l6-0.1c1.1,0,1.4-0.1,2-0.3L319.9,27.6z"/>
		</g>
	</g>
	<g>
		<path class="st2" d="M335.8,38.1c0,0.3,0.2,0.3,0.9,0.3c0.8,0,1-0.1,1.1-0.4s0.2-0.8,0.2-1.8c0.6,0.3,0.9,0.4,1.4,0.5
			c-0.2,1.9-0.3,2.4-0.8,2.8c-0.3,0.3-1,0.3-2.1,0.3c-1.8,0-2.1-0.3-2.3-1c-0.6,0.4-0.8,0.6-1.5,0.9c-0.3-0.6-0.6-0.9-1.1-1.4
			c1-0.4,1.8-0.9,2.6-1.4v-3.2c0-0.4,0-0.7-0.1-1.1h1.7c-0.1,0.4-0.1,0.7-0.1,1.1v2.1c0.9-0.9,1.7-2.1,2.3-3.2
			c0.3-0.6,0.4-1.1,0.6-1.4l1.6,0.6c-0.2,0.3-0.2,0.3-0.4,0.9c-0.4,0.8-0.6,1.1-0.9,1.8l1.2-0.5c0.6,1.3,1,2.3,1.4,4l-1.4,0.8
			c-0.4-1.6-0.8-2.8-1.3-4c-0.9,1.4-1.7,2.3-2.9,3.3L335.8,38.1L335.8,38.1z M333.9,33.7c-0.2,1.8-0.4,2.8-0.8,3.8l-1.4-0.7
			c0.4-1.1,0.6-2,0.8-3.5L333.9,33.7z M334.8,30.4c1.3,0.4,1.9,0.8,2.9,1.3l-0.9,1.4c-0.7-0.5-1.6-0.9-2.9-1.4L334.8,30.4z"/>
		<path class="st2" d="M343.1,36.3c-0.4,0-0.8,0-1.1,0.1v-1.3c0.4,0.1,0.8,0.1,1.1,0.1h7.1c0.4,0,0.8,0,1.1-0.1v1.3
			c-0.3,0-0.7-0.1-1.1-0.1h-2.9c-0.1,0.1-0.1,0.2-0.2,0.3h2.7c0.4,0,0.8,0,0.9-0.1c-0.1,0.3-0.1,0.4-0.1,0.8v1.4
			c0,0.9-0.3,1.2-1.2,1.2c-0.1,0-0.1,0-0.8-0.1c-0.1-0.7-0.1-0.9-0.3-1.4c0.3,0.1,0.4,0.1,0.5,0.1c0.2,0,0.3-0.1,0.3-0.2v-0.7h-0.9
			v1.3c0,0.4,0,0.7,0.1,0.9h-1.4c0.1-0.3,0.1-0.5,0.1-0.9v-1.2h-0.8v1.2c0,0.4,0,0.7,0.1,0.9h-1.4c0.1-0.3,0.1-0.5,0.1-0.9v-1.2
			h-0.8V39c0,0.4,0,0.7,0.1,0.9h-1.6c0.1-0.4,0.1-0.7,0.1-1.1v-1.4c0-0.3,0-0.6-0.1-0.8c0.3,0,0.4,0.1,1.1,0.1h1.9
			c0.1-0.2,0.1-0.2,0.2-0.3L343.1,36.3L343.1,36.3L343.1,36.3z M343.8,31.7c-0.4,0-0.8,0-1.1,0.1v-1.3c0.3,0.1,0.8,0.1,1.3,0.1h5.4
			c0.5,0,1,0,1.3-0.1v1.3c-0.3,0-0.7-0.1-1.1-0.1h-2.2V32h2.4c0.8,0,1.1,0,1.4-0.1c-0.1,0.3-0.1,0.4-0.1,0.9v0.8
			c0,0.4,0,0.6,0.1,0.9h-1.4v-1.4h-2.4v0.8c0,0.4,0,0.7,0.1,0.9h-1.6c0.1-0.3,0.1-0.5,0.1-0.9v-0.8h-2.3v1.4H342
			c0.1-0.3,0.1-0.4,0.1-0.9v-0.8c0-0.4,0-0.6-0.1-0.9c0.3,0,0.6,0.1,1.4,0.1h2.4v-0.3H343.8L343.8,31.7z M343.8,33.2
			c0.1,0,0.3,0,0.4,0h0.8c0.3,0,0.3,0,0.4,0v0.7c-0.1,0-0.3,0-0.4,0h-0.8c-0.3,0-0.3,0-0.4,0V33.2z M343.8,34.2c0.1,0,0.2,0,0.4,0
			h0.8c0.3,0,0.4,0,0.4,0v0.7c-0.1,0-0.3,0-0.4,0h-0.8c-0.3,0-0.3,0-0.4,0V34.2z M347.7,33.2c0.1,0,0.2,0,0.4,0h1c0.3,0,0.3,0,0.4,0
			v0.7c-0.1,0-0.3,0-0.4,0h-1c-0.3,0-0.3,0-0.4,0V33.2z M347.7,34.2c0.1,0,0.2,0,0.4,0h1c0.3,0,0.3,0,0.4,0v0.7c-0.1,0-0.3,0-0.4,0
			h-1c-0.3,0-0.3,0-0.4,0V34.2z"/>
		<path class="st2" d="M352.3,39.9c0.1-0.3,0.1-0.6,0.1-1.2v-2.8c0-0.4,0-0.6-0.1-0.9c0.3,0.1,0.6,0.1,1.1,0.1h2.5
			c0.3,0,0.4,0,0.7-0.1c0,0.3,0,0.3,0,0.8v3c0,0.4,0,0.6,0.1,0.8h-1.5v-0.3H354v0.4L352.3,39.9L352.3,39.9z M353.6,31.6
			c0-0.4,0-0.6-0.1-0.9c0.3,0.1,0.6,0.1,1.2,0.1h4.3c0.6,0,0.9,0,1.2-0.1c-0.1,0.3-0.1,0.5-0.1,0.9v2.1c0,0.4,0,0.8,0.1,1
			c-0.3,0-0.4-0.1-1.1-0.1h-4.6c-0.5,0-0.8,0-1.1,0.1c0-0.3,0.1-0.6,0.1-1L353.6,31.6L353.6,31.6z M355.1,36.4h-1.3V38h1.3V36.4z
			 M355.1,32.1v1.1h3.5v-1.1H355.1z M360.5,35.1c0.4,0,0.8,0,0.9-0.1c-0.1,0.3-0.1,0.5-0.1,0.9v2.8c0,0.6,0,0.8,0.1,1.2h-1.6v-0.4
			h-1.3V40h-1.4c0-0.3,0.1-0.4,0.1-0.8V36c0-0.4,0-0.6,0-0.8c0.3,0,0.4,0.1,0.7,0.1L360.5,35.1L360.5,35.1z M358.5,38.1h1.3v-1.6
			h-1.3V38.1z"/>
		<path class="st2" d="M370.9,30.9l-3.6,9.8h-1.9l3.7-9.9C369.1,30.9,370.9,30.9,370.9,30.9z"/>
		<path class="st2" d="M379.8,32.2c-0.8-0.4-1.4-0.6-2.4-0.9l1.1-1.1c1.1,0.3,1.9,0.6,2.9,1.1l-0.8,0.9h1.8c0.6,0,1,0,1.4-0.1v1.6
			c-0.4-0.1-0.8-0.1-1.4-0.1h-2.1V35h1.8c0.4,0,0.8,0,1.3-0.1v1.5c-0.4-0.1-0.6-0.1-1.2-0.1h-1.9V38h2.3c0.6,0,1.1,0,1.6-0.1v1.6
			c-0.5-0.1-0.9-0.1-1.5-0.1h-6.1c-0.8,0-1.2,0-1.6,0.1v-1.6c0.4,0.1,0.9,0.1,1.6,0.1h2.2v-1.6h-1.6c-0.6,0-0.9,0-1.3,0.1V35
			c0.4,0.1,0.6,0.1,1.2,0.1h1.8v-1.4h-2c-0.8,0-1.1,0-1.4,0.1v-1.6c0.4,0.1,0.8,0.1,1.4,0.1L379.8,32.2L379.8,32.2z"/>
		<path class="st2" d="M394,37.1c-0.7,0.5-1.1,0.8-1.5,1.2c0.6,0.2,1.2,0.3,2.1,0.3c-0.3,0.6-0.4,0.9-0.7,1.5
			c-1.8-0.3-2.8-0.6-3.8-1.4v0.7c-1.4,0.3-2.3,0.4-4.1,0.7c-0.3,0.1-0.4,0.1-0.5,0.1l-0.3-1.6c0.1,0,0.2,0,0.3,0
			c0.1,0,0.6-0.1,0.9-0.1v-4.4c0-0.1,0-0.1,0-0.1c-0.4,0.3-0.6,0.3-1.1,0.4c-0.2-0.6-0.3-0.9-0.6-1.6c0.8-0.3,1.6-0.5,2.3-1
			c0.8-0.4,1.3-0.8,1.8-1.4h1.7c0.5,0.6,1.1,1.1,1.9,1.4c0.8,0.4,1.5,0.8,2.3,0.9c-0.3,0.6-0.4,0.9-0.6,1.6
			c-0.4-0.2-0.8-0.3-1.1-0.4v2.5c0,0.1,0,0.1,0,0.1L394,37.1z M387.9,34.5h3.4v-0.4h-3.4V34.5z M387.9,35.9h3.4v-0.4h-3.4V35.9z
			 M387.9,37v1.3c0.1,0,0.1,0,0.1,0c0.4-0.1,1.1-0.2,1.4-0.2c-0.4-0.4-0.4-0.4-0.8-1.1H387.9L387.9,37z M388.9,32.6
			c0-0.2,0-0.3,0-0.3c-0.3,0.3-0.6,0.4-0.9,0.6h0.9V32.6z M390.2,32.2c-0.3-0.3-0.4-0.3-0.6-0.6c-0.3,0.3-0.4,0.4-0.6,0.6H390.2z
			 M391.3,33c-0.4-0.3-0.6-0.4-0.9-0.7c0,0.1,0,0.3,0,0.4V33H391.3L391.3,33z M390.3,37c0.2,0.3,0.4,0.4,0.6,0.6
			c0.3-0.2,0.6-0.4,0.8-0.6H390.3z"/>
		<path class="st2" d="M403.8,30.9l-3.6,9.8h-1.9l3.7-9.9L403.8,30.9L403.8,30.9z"/>
		<path class="st2" d="M412.7,32.2c-0.8-0.4-1.4-0.6-2.4-0.9l1.1-1.1c1.1,0.3,1.9,0.6,2.9,1.1l-0.8,0.9h1.8c0.6,0,1,0,1.4-0.1v1.6
			c-0.4-0.1-0.8-0.1-1.4-0.1h-2.1V35h1.8c0.4,0,0.8,0,1.3-0.1v1.5c-0.4-0.1-0.6-0.1-1.2-0.1h-1.9V38h2.3c0.6,0,1.1,0,1.6-0.1v1.6
			c-0.5-0.1-0.9-0.1-1.5-0.1h-6.1c-0.8,0-1.2,0-1.6,0.1v-1.6c0.4,0.1,0.9,0.1,1.6,0.1h2.2v-1.6H410c-0.6,0-0.9,0-1.3,0.1V35
			c0.4,0.1,0.6,0.1,1.2,0.1h1.8v-1.4h-2c-0.8,0-1.1,0-1.4,0.1v-1.6c0.4,0.1,0.8,0.1,1.4,0.1L412.7,32.2L412.7,32.2z"/>
		<path class="st2" d="M419.2,37.1c-0.5,0-0.9,0-1.3,0.1v-1.4c0.3,0.1,0.7,0.1,1.3,0.1h0.3c-0.3-0.4-0.5-0.8-0.8-1.2l1-0.4
			c-0.2,0-0.3,0-0.3,0c-0.1,0-0.3,0-0.4,0c-0.2-0.4-0.3-0.8-0.6-1.3c1.2,0.1,1.7,0.1,2.4,0.1c1.1,0,2.3-0.1,3.1-0.1
			c0.9-0.1,1.4-0.2,2.1-0.3l1,1.3c-0.6,0.1-0.9,0.2-1.4,0.3l0.9,0.4c-0.5,0.8-0.8,1.1-1.1,1.4h0.5c0.6,0,0.9,0,1.3-0.1v1.4
			c-0.3-0.1-0.8-0.1-1.3-0.1h-1.6c0.8,0.6,1.8,1,2.9,1.3c-0.4,0.4-0.5,0.8-0.8,1.4c-0.8-0.3-1.3-0.4-1.9-0.9
			c-0.5-0.4-0.8-0.6-1.3-1.1c0,0.1,0,0.1,0,0.3c0,0.1,0,0.3,0,0.4v0.4c0,0.4,0,0.7,0.1,1.1h-1.8c0.1-0.4,0.1-0.6,0.1-1.1v-0.4
			c0-0.2,0-0.3,0-0.6c-0.8,0.9-1.7,1.5-3.1,1.9c-0.4-0.7-0.4-0.9-0.9-1.4c1.3-0.3,2.1-0.7,2.9-1.3L419.2,37.1L419.2,37.1L419.2,37.1
			z M420,30.9c0-0.2,0-0.3-0.1-0.4h1.6c0,0.3-0.1,0.3-0.1,0.4V31h1.9v-0.1c0-0.2,0-0.3-0.1-0.4h1.6c0,0.2-0.1,0.3-0.1,0.4V31h1.1
			c0.5,0,0.8,0,1.3-0.1v1.4c-0.3-0.1-0.7-0.1-1.3-0.1h-1c0,0.2,0,0.3,0.1,0.4h-1.6c0-0.2,0-0.3,0.1-0.4h-1.9c0,0.2,0,0.3,0.1,0.4
			H420c0-0.2,0.1-0.3,0.1-0.4h-0.9c-0.5,0-0.9,0-1.3,0.1v-1.4c0.4,0.1,0.7,0.1,1.3,0.1h0.9v-0.1H420z M421.7,35.8
			c0-0.3,0-0.3-0.1-0.4h0.4c-0.3-0.4-0.3-0.4-0.5-0.8l0.8-0.3c-0.6,0.1-1.1,0.1-2.1,0.1c0.3,0.3,0.4,0.6,0.8,1l-1.3,0.5L421.7,35.8
			L421.7,35.8z M425,35.8l-1.1-0.4c0.4-0.4,0.6-0.8,0.9-1.3c-0.4,0.1-1,0.1-1.9,0.1c0.3,0.3,0.4,0.4,0.5,0.8l-1.2,0.4h1.1
			c-0.1,0.3-0.1,0.3-0.1,0.4H425L425,35.8L425,35.8z"/>
	</g>
</g>
<g>
	<path class="st9" d="M455.5-5l-9.7,9.1h10.6l16.2-15h-10.7l-6.3,5.8L455.5-5L455.5-5z M506.3-5l-9.8,9.1H507l16.2-15h-10.7L506.3-5
		L506.3-5L506.3-5z M487.3-10.9L471,4.1h10.7l16.3-15H487.3z M436.5-10.9l-16.2,15H431l16.2-15H436.5z M151.2-5l-9.8,9.1H152
		l16.2-15h-10.7L151.2-5L151.2-5z M132.2-10.9L116,4.1h10.7l16.2-15H132.2z M201.9-5l-9.8,9.1h10.6l16.2-15h-10.7L201.9-5L201.9-5
		L201.9-5z M182.9-10.9l-16.2,15h10.7l16.2-15H182.9z M100.5-5l-9.9,9.1h10.6l16.2-15h-10.7l-6.3,5.8V-5C100.4-5,100.5-5,100.5-5z
		 M49.7-5l-9.8,9.1h10.6l16.2-15H56L49.7-5L49.7-5z M81.5-10.9l-16.3,15h10.7l16.3-15H81.5z M335.1-10.9l-16.2,15h10.7l16.2-15
		H335.1z M354.1-5l-9.7,9.1H355l16.2-15h-10.7l-6.3,5.8L354.1-5L354.1-5z M404.8-5L395,4.1h10.6l16.2-15h-10.7L404.8-5L404.8-5
		L404.8-5z M385.8-10.9l-16.2,15h10.7l16.2-15H385.8z M233.6-10.9l-16.2,15h10.7l16.2-15H233.6z M252.6-5l-9.8,9.1h10.6l16.2-15
		h-10.7L252.6-5L252.6-5L252.6-5z M303.4-5l-9.8,9.1h10.6l16.2-15h-10.7L303.4-5L303.4-5L303.4-5z M284.4-10.9l-16.2,15H279l16.2-15
		H284.4z M-1-5.1v9.2h0.8l16.2-15H5.3L-1-5.1z M30.7-10.9l-16.2,15h10.7l16.2-15H30.7z"/>
</g>
<g class="st7">
	<path class="st2" d="M228.3,65.5v0.7c0,1,0,1.2,0.1,1.5h-2c0.1-0.4,0.1-0.8,0.1-1.5V62c-0.2,1.9-0.2,1.9-0.3,2.7
		c-0.2,1.2-0.5,2-0.9,2.9c-0.4-0.6-0.6-1-1.1-1.5c0,0.6,0,0.9,0.1,1.5h-2.2c0.1-0.7,0.1-0.9,0.1-1.6v-3.4c0-0.3,0-0.6,0-1.5
		c-0.2,0.4-0.4,0.6-0.6,0.9c-0.2-1.1-0.3-1.5-0.7-2.6c0.7-0.7,1.2-1.5,1.6-2.7c0.3-0.8,0.6-1.6,0.7-2.3l2.1,0.5
		c-0.1,0.2-0.1,0.2-0.2,0.5c0.4,0,0.8,0,1.3,0h0.2v-0.2c0-0.4,0-0.5-0.1-0.7h2.1c0,0.2,0,0.4,0,0.7v0.2h1.4v-0.2c0-0.4,0-0.5,0-0.7
		h2.1c0,0.2,0,0.4,0,0.7v0.2h0.4c0.6,0,1.2,0,1.5-0.1v1.9c-0.5,0-0.6,0-1.5,0h-0.4V58h0.5c0.8,0,1.1,0,1.5-0.1v1.9
		c-0.4,0-0.8-0.1-1.3-0.1h-6.1v0.4c0.4,0,0.7,0,1.4,0h4.4c0.6,0,0.9,0,1.3-0.1c0,0.3-0.1,0.7-0.1,1.4V66c0,1.1-0.3,1.3-2.3,1.3
		c-0.1-0.7-0.2-1-0.3-1.5c0.2,0,0.3,0,0.5,0c0.2,0,0.2,0,0.2-0.3v-0.4h-0.9V66c0,0.8,0,1.2,0.1,1.6h-1.8c0.1-0.5,0.1-0.8,0.1-1.6
		v-0.5H228.3z M224.2,65c0.2-0.5,0.3-0.9,0.3-1.4c0.1-0.8,0.2-2.4,0.2-4c0-0.8,0-1.2-0.1-1.7c0.6,0,0.8,0.1,1.5,0.1h0.4v-0.7h-0.2
		c-0.8,0-1,0-1.4,0v-1.5c-0.3,0.9-0.4,1.2-0.8,2V65H224.2z M229.2,61.7h-0.8v0.6h0.8V61.7z M229.2,63.5h-0.8v0.6h0.8V63.5z M230,58
		v-0.7h-1.4V58H230z M231.8,62.3v-0.6h-0.9v0.6H231.8z M231.8,64.1v-0.6h-0.9v0.6H231.8z"/>
	<path class="st2" d="M238,55.3c0-0.3,0-0.4,0-0.7h2.1c0,0.2,0,0.4,0,0.7h2.7c0-0.2,0-0.4,0-0.7h2.1c0,0.2,0,0.4,0,0.7h1.4
		c0.7,0,1.2,0,1.7-0.1V57c-0.5-0.1-0.9-0.1-1.7-0.1h-1.4c0,0.2,0,0.2,0,0.4h-2c0-0.1,0-0.3,0-0.4h-3c0,0.2,0,0.3,0,0.4h-2
		c0-0.2,0-0.2,0-0.4h-1.2c-0.8,0-1.2,0-1.7,0.1v-1.7c0.5,0.1,1,0.1,1.7,0.1L238,55.3L238,55.3z M244.5,59.8
		c-0.9,0.7-1.4,1.1-1.6,1.3c0.3,0,0.5,0,0.6,0c0.5,0,0.5,0,1,0c-0.2-0.2-0.3-0.2-0.5-0.4l1.5-1c1,0.8,1.7,1.5,2.6,2.5l-1.4,1.1
		c0,0.3,0,0.5,0,1.1v2c0,0.5,0,0.9,0.1,1.4h-2.1v-0.5h-6.3v0.5h-2.1c0-0.4,0.1-0.9,0.1-1.4v-2.1c0-0.5,0-0.9,0-1.3
		c0.5,0,0.6,0,1.5,0h7.5c0.6,0,0.7,0,1,0c-0.2-0.3-0.3-0.4-0.5-0.6c-3.9,0.2-3.9,0.2-9.4,0.5c-0.5,0-0.7,0-0.9,0.1l-0.2-1.8
		c0.5,0.1,1,0.1,3,0.1c-0.6-0.3-1-0.5-1.7-0.8l1.3-1.1h-0.7c-0.8,0-1.2,0-1.7,0.1v-1.7c0.5,0,1,0.1,1.7,0.1h3.4c0-0.2,0-0.3,0-0.5
		h2.1c0,0.1,0,0.3,0,0.5h3.5c0.6,0,1.3,0,1.7-0.1v1.7c-0.4,0-0.9-0.1-1.7-0.1h-2.6L244.5,59.8z M237.9,59.2c0.5,0.2,0.7,0.4,1,0.5
		c0.2-0.2,0.3-0.3,0.6-0.5H237.9z M238.3,64.6h2.2v-0.4h-2.2V64.6z M238.3,66h2.2v-0.4h-2.2V66z M241.7,59.2
		c-0.4,0.4-0.9,0.8-1.5,1.3c0.3,0.2,0.3,0.2,0.5,0.3c0.6-0.4,1.4-1.1,1.9-1.6H241.7z M242.4,64.6h2.2v-0.4h-2.2V64.6z M242.4,66h2.2
		v-0.4h-2.2V66z"/>
	<path class="st2" d="M261.1,57c-0.2,0.2-0.2,0.3-0.4,0.7c-0.9,2.1-2.1,3.5-3.8,4.6c-0.5-0.6-0.9-1.1-1.5-1.5
		c-0.1,1.4-0.3,2.4-0.8,3.4c-0.5,0.9-1.2,1.7-2.2,2.3c-0.6,0.4-1,0.6-1.9,1.1c-0.6-1.1-0.8-1.4-1.6-2.2c1.5-0.5,2.5-1.1,3.2-1.9
		c0.7-0.9,0.9-1.8,0.9-3.7c0-0.4,0-0.6-0.1-1h2.6c0,0.3-0.1,0.4-0.1,1.2c0,0,0,0.3,0,0.5c0.1-0.1,0.1-0.1,0.3-0.2
		c1-0.5,1.8-1.3,2.3-2.3h-6.6c-1,0-1.5,0-2.2,0.1v-2.4c0.6,0.1,1.1,0.1,2.2,0.1h7.2c0.8,0,0.9,0,1.2-0.2L261.1,57z"/>
	<path class="st2" d="M273.1,56.5c-0.3,0.3-0.3,0.3-0.5,0.5c-1.1,1.1-2.1,2-3.2,2.8v5.3c0,1.1,0,1.5,0.1,2.2h-2.7
		c0.1-0.7,0.1-1,0.1-2.2v-3.8c-1.4,0.8-2.5,1.3-4.5,2c-0.4-0.9-0.6-1.4-1.3-2.2c3-0.8,5.1-1.9,7.3-3.6c1.2-0.9,2.1-1.8,2.5-2.5
		L273.1,56.5z"/>
	<path class="st2" d="M281.5,61.2c-0.1,1.6-0.4,2.5-1,3.6c-0.8,1.2-1.8,2-3.7,2.8c-0.5-1-0.8-1.4-1.6-2.2c2.5-0.7,3.6-2,3.7-4.2
		h-2.8c-1.1,0-1.5,0-2.1,0.1V59c0.6,0.1,1,0.1,2.1,0.1h7.7c1.2,0,1.6,0,2.2-0.1v2.3c-0.8-0.1-0.9-0.1-2.2-0.1H281.5z M275.4,55.5
		c0.6,0.1,0.9,0.1,2.1,0.1h4.8c1.3,0,1.6,0,2.2-0.1v2.3c-0.5-0.1-0.8-0.1-2.2-0.1h-4.9c-1.2,0-1.6,0-2.1,0.1v-2.3H275.4z"/>
	<path class="st2" d="M293.4,55.6c-0.1,0.3-0.2,0.4-0.4,1c-1.1,3.6-1.7,5.3-2.6,7.6c1.8-0.1,3.4-0.3,4.7-0.5
		c-0.5-1.2-1.1-2.4-1.7-3.3l2.2-0.8c1.4,2.1,2.4,4.1,3.3,6.6l-2.4,1.2c-0.2-0.6-0.2-0.8-0.5-1.5c-2,0.3-3.4,0.5-5.5,0.8l-3.2,0.3
		c-0.3,0-0.4,0.1-0.8,0.1l-0.4-2.6c0.3,0,0.4,0,0.4,0c0.1,0,0.2,0,0.3,0h0.4c0.2,0,0.2,0,0.3,0c0.9-2.2,1.6-4.4,2.3-6.9
		c0.4-1.3,0.5-1.8,0.5-2.5L293.4,55.6z"/>
	<path class="st2" d="M300.2,56.2c0.6,0.1,1.4,0.2,2.9,0.2c0.1,0,0.2,0,0.4,0c0.3-0.7,0.4-1,0.4-1.5l2.5,0.2
		c-0.1,0.2-0.1,0.2-0.3,0.6c-0.2,0.4-0.3,0.6-0.3,0.6c0.1,0,0.1,0,0.8-0.1c1.4-0.1,2.8-0.2,3.5-0.4l0.1,2.2c-0.4,0-0.8,0.1-1.2,0.1
		c-1,0.1-2.7,0.2-4.1,0.2c-0.2,0.4-0.3,0.6-0.7,1c0.6-0.3,1.2-0.4,1.8-0.4c1.1,0,1.8,0.4,2.1,1.3c0.2-0.1,0.2-0.1,1-0.3
		c0,0,0.4-0.1,0.9-0.3c0.8-0.3,0.9-0.3,1.1-0.4l0.8,2.2c-0.7,0.1-2.2,0.5-3.5,0.9c0,0.4,0,0.4,0,1s0,0.8,0.1,1.2l-2.2,0.1
		c0-0.2,0.1-0.6,0.1-1.5l-0.1,0.1c-0.6,0.3-0.7,0.4-1,0.6c-0.2,0.2-0.4,0.5-0.4,0.7c0,0.5,0.5,0.7,1.8,0.7c1.7,0,3.2-0.2,4.4-0.7
		l0.2,2.5c-0.4,0-0.4,0-1.2,0.1c-1.1,0.1-2.2,0.2-3.3,0.2c-1.6,0-2.5-0.2-3.3-0.6c-0.7-0.4-1.1-1.1-1.1-2c0-0.6,0.2-1.2,0.7-1.7
		c0.5-0.6,1.1-1,2-1.5c0.3-0.2,0.5-0.2,1-0.5c-0.1-0.2-0.3-0.3-0.6-0.3c-0.7,0-1.7,0.5-2.6,1.3c-0.6,0.5-1,0.9-1.3,1.4l-1.8-1.7
		c0.4-0.3,1-0.9,1.5-1.4c0.3-0.4,0.9-1.2,1.1-1.5s0.2-0.3,0.3-0.4c-0.2,0-0.3,0-0.4,0c-0.6,0-0.6,0-1.2,0c-0.2,0-0.3,0-0.5,0
		c0,0-0.1,0-0.2,0L300.2,56.2z"/>
	<path class="st2" d="M320.4,63.3v0.5h3.6c0.8,0,1.2,0,1.7-0.1v2c-0.5-0.1-1-0.1-1.9-0.1h-3.4V66c0,0.8,0,1.2,0.1,1.8h-2.3
		c0.1-0.5,0.1-1,0.1-1.7v-0.4H315c-0.9,0-1.4,0-1.9,0.1v-2.1c0.3,0,0.5,0.1,0.9,0.1l-1-1.8c0.2-0.1,0.4-0.2,0.6-0.3
		c1-0.6,1.6-1,2.5-1.7l1,1.7c-0.9,0.8-1.3,1-3,2.1c0.2,0,0.3,0,0.6,0h3.6v-0.6c-0.5,0-0.8,0-1.1,0c0-0.5,0-0.8,0-1.5v-1.3
		c0-0.4,0-0.6,0-0.8c-0.2,0.3-0.3,0.4-0.6,0.6c-0.2-0.4-0.3-0.6-0.6-1l-0.9,1.1c-0.8-0.6-1.4-1-2.3-1.4l1.3-1.5
		c0.8,0.4,1.1,0.5,1.6,0.9c1.3-1.1,2.1-2.2,2.6-3.6l2.1,0.4c-0.3,0.6-0.4,0.8-0.6,1.2h1.3c0.3-0.5,0.5-1,0.7-1.5l2,0.3
		c-0.1,0.2-0.1,0.2-0.4,0.7c-0.1,0.1-0.2,0.3-0.3,0.5h1c0.5,0,1.1,0,1.5-0.1V58c-0.4,0-0.7-0.1-1.2-0.1h-1.6v0.4h1.2
		c0.7,0,0.9,0,1.2,0v1.3c-0.3,0-0.5,0-1.2,0h-1.2v0.5h1.2c0.6,0,0.8,0,1.2,0v1.3c-0.4,0-0.6,0-1.2,0h-1.2v0.4h1.6
		c0.6,0,0.9,0,1.3-0.1v1.7c-0.3,0-0.7-0.1-1.4-0.1h-3.8v0H320.4z M314.7,54.7c1,0.5,1.5,0.8,2.3,1.4l-1.3,1.6
		c-0.9-0.7-1.4-1.1-2.4-1.5L314.7,54.7z M320.8,58.2v-0.4h-1.7v0.4H320.8z M319.1,59.9h1.7v-0.5h-1.7V59.9z M319.1,61.6h1.7v-0.4
		h-1.7V61.6z"/>
	<path class="st2" d="M333.8,65.5v0.7c0,1,0,1.2,0.1,1.5h-2c0.1-0.4,0.1-0.8,0.1-1.5V62c-0.2,1.9-0.2,1.9-0.3,2.7
		c-0.2,1.2-0.5,2-0.9,2.9c-0.4-0.6-0.6-1-1.1-1.5c0,0.6,0,0.9,0.1,1.5h-2.2c0.1-0.7,0.1-0.9,0.1-1.6v-3.4c0-0.3,0-0.6,0-1.5
		c-0.2,0.4-0.4,0.6-0.6,0.9c-0.2-1.1-0.3-1.5-0.7-2.6c0.7-0.7,1.2-1.5,1.6-2.7c0.3-0.8,0.6-1.6,0.7-2.3l2.1,0.5
		c-0.1,0.2-0.1,0.2-0.2,0.5c0.4,0,0.8,0,1.3,0h0.2v-0.2c0-0.4,0-0.5-0.1-0.7h2.1c0,0.2,0,0.4,0,0.7v0.2h1.4v-0.2c0-0.4,0-0.5,0-0.7
		h2.1c0,0.2,0,0.4,0,0.7v0.2h0.4c0.6,0,1.2,0,1.5-0.1v1.9c-0.5,0-0.6,0-1.5,0h-0.4V58h0.5c0.8,0,1.1,0,1.5-0.1v1.9
		c-0.4,0-0.8-0.1-1.3-0.1h-6.1v0.4c0.4,0,0.7,0,1.4,0h4.4c0.6,0,0.9,0,1.3-0.1c0,0.3-0.1,0.7-0.1,1.4V66c0,1.1-0.3,1.3-2.3,1.3
		c-0.1-0.7-0.2-1-0.3-1.5c0.2,0,0.3,0,0.5,0s0.2,0,0.2-0.3v-0.4h-0.9V66c0,0.8,0,1.2,0.1,1.6h-1.8c0.1-0.5,0.1-0.8,0.1-1.6v-0.5
		H333.8z M329.6,65c0.2-0.5,0.3-0.9,0.3-1.4c0.1-0.8,0.2-2.4,0.2-4c0-0.8,0-1.2-0.1-1.7c0.6,0,0.8,0.1,1.5,0.1h0.4v-0.7l0,0
		c-0.8,0-1,0-1.4,0v-1.5c-0.3,0.9-0.4,1.2-0.8,2V65H329.6z M334.6,61.7h-0.8v0.6h0.8V61.7z M334.6,63.5h-0.8v0.6h0.8V63.5z
		 M335.5,58v-0.7h-1.4V58H335.5z M337.2,62.3v-0.6h-0.9v0.6H337.2z M337.2,64.1v-0.6h-0.9v0.6H337.2z"/>
	<path class="st2" d="M344.5,55.3c-0.2,0.9-0.3,4.6-0.3,6.9c0,1.4,0.1,1.8,0.3,2.2c0.3,0.4,0.9,0.7,1.6,0.7c1.4,0,2.5-0.8,3.1-2.3
		c0.3-0.7,0.4-1.5,0.6-2.5c1,0.8,1.5,1.1,2.4,1.4c-0.5,2.1-1,3.1-1.7,3.9c-1.1,1.2-2.5,1.8-4.3,1.8c-1.4,0-2.5-0.3-3.2-1
		c-0.8-0.8-1-1.6-1-3.6c0-0.4,0-0.4,0.1-3.1c0-1.4,0.1-2.7,0.1-3.2c0-0.4,0-0.6-0.1-1L344.5,55.3z"/>
	<path class="st2" d="M360.1,55c-0.1,0.6-0.1,1.6-0.1,2.6c0,0,0,0.1,0,0.2c1.6,0,3.1-0.2,4-0.4l0.2,2.3c-0.3,0-0.4,0-1,0.1
		c-1.4,0.1-1.9,0.2-3.2,0.2c0,0.6,0,0.6,0.1,2.5c1.4,0.5,2.3,1,3.9,2.1c0.2,0.2,0.3,0.2,0.4,0.3l-1.5,2.2c-0.6-0.8-1.6-1.5-2.8-2.2
		c0,0.1,0,0.2,0,0.2c0,0.6-0.2,1.2-0.6,1.6c-0.6,0.6-1.6,0.9-2.9,0.9c-1.1,0-2.1-0.3-2.7-0.7c-0.6-0.4-1-1.2-1-2.1
		c0-0.8,0.4-1.5,1.1-2.1c0.7-0.5,1.5-0.7,2.7-0.7c0.4,0,0.6,0,1,0.1c-0.1-1.1-0.1-3.9-0.2-5.8c0-0.7,0-0.9-0.1-1.3L360.1,55z
		 M356.9,64c-0.8,0-1.4,0.3-1.4,0.7c0,0.5,0.4,0.7,1.1,0.7c0.6,0,1-0.2,1.1-0.5c0.1-0.2,0.1-0.2,0.1-0.6c0-0.1,0-0.2,0-0.2
		C357.5,64.1,357.3,64,356.9,64z"/>
	<path class="st2" d="M366.2,59.4c0.4,0,0.4,0,1.8-0.2c1.9-0.3,3.2-0.4,4.6-0.4c1.8,0,3,0.5,3.6,1.5c0.3,0.6,0.5,1.2,0.5,1.9
		c0,1.7-1.1,3.3-2.9,4.2c-1.2,0.6-2.4,1-4.7,1.2c-0.2-1-0.5-1.5-1-2.4c1.6-0.1,2.8-0.3,3.8-0.7c0.9-0.3,1.5-0.8,1.9-1.4
		c0.2-0.3,0.3-0.6,0.3-0.9c0-0.8-0.6-1.3-1.8-1.3c-1.6,0-4.3,0.5-5.7,1L366.2,59.4z M368.5,54.8c1.7,0.5,3.6,0.8,5.7,0.8
		c0.2,0,0.5,0,1,0l-0.3,2.3c-2.8-0.1-4.9-0.3-7.1-0.8L368.5,54.8z"/>
	<path class="st2" d="M381.4,63.4c0-0.3,0-0.4,0-0.6c0-0.3,0-0.3-0.1-1.1l-0.3-4.4c0-0.6-0.1-1.2-0.2-1.9h3.2c0,0.3-0.1,1.3-0.2,1.9
		l-0.3,4.4c0,0.6,0,0.9,0,1.1c0,0.1,0,0.3,0,0.6H381.4z M381.2,66.9v-2.6h2.8v2.6H381.2z"/>
</g>
<g>
	<g>
		<g>
			<defs>
				<rect id="SVGID_4_" y="0.2" width="522.2" height="77.3"/>
			</defs>
			<clipPath id="SVGID_5_">
				<use xlink:href="#SVGID_4_"  style="overflow:visible;"/>
			</clipPath>
			<g class="st10">
				<g>
					<g>
						<path class="st11" d="M505.8,38.8c0.4,0.1,0.5,0,0.7-0.3c2-4.4,2-8.8,0.3-13.3c-2.2-5.4-6.2-9.1-11.4-11.5
							c-3.2-1.5-6.7-2.2-10.2-1.5s-6.4,2.6-8.9,5.1c-0.4,0.4-0.9,0.5-1.4,0.4c-1.6-0.6-3,0-4.1,1.1c-2.4,2.4-3.5,5.4-3.2,8.8
							c0.1,1.5,0.5,2.9,1.2,4.2c0.5-1.2,1-2.5,1.6-3.7c1.3-2.5,3-4.6,5.4-6.2c0.8-0.5,1.3-0.4,1.9,0.2c0.3,0.3,0.6,0.6,0.9,0.9
							c3.5,2.9,7.6,4.8,11.8,6.3c3.3,1.1,6.7,1.9,10.1,2.5c0.2,0,0.5,0.3,0.5,0.4c0.2,1.5,0.3,2.9,0.4,4.4c0.1,0.9,0.4,1.8,0.6,2.8
							C503.3,38.5,504.5,38.4,505.8,38.8z"/>
						<path class="st11" d="M506.4,45.9c-0.1-0.1-0.4-0.2-0.5-0.2c-1,0.6-2.1,0.8-3.2,0.6c-0.1,0-0.4,0-0.4,0.1
							c-0.1,0.3-0.1,0.6,0,0.8c1.1,1.3,1.9,2.8,2.3,4.5s0.6,3.4,0.8,5.1c0.3-0.4,0.7-0.9,1.1-1.4C508.6,52.4,508.6,48.7,506.4,45.9z
							"/>
					</g>
					<path class="st12" d="M499.8,65.9c-1.1,0.2-2.4-0.3-3.4,0.5c-0.2,0.2-0.5,0.2-0.8,0.2c-0.5,0-1,0-1.4-0.3c-0.8-0.5-1-1.5-1.8-2
						c-0.1-0.1-0.1-0.3-0.2-0.5c0-0.1,0-0.2-0.1-0.3c-0.6-0.8-0.7-1.2,0-2c1.2-1.3,2.5-2.6,4.8-1.7c-1.3-2.2-2.4-4.2-3.6-6.2
						c-0.1-0.1-0.4-0.1-0.5,0c-0.1,0-0.2,0.2-0.2,0.3c0.1,1.1,0.3,2.3,0.4,3.4c0.1,0.9-0.1,1.4-0.9,1.5c-1.7,0.2-3.4,0.3-5.1,0.5
						c-0.5,0-0.8-0.2-0.9-0.7c-0.2-1.2-0.4-2.4-0.7-3.7c0-0.2-0.2-0.3-0.4-0.4c-0.3-0.1-0.5,0.1-0.5,0.4c0,2.6-0.2,5.1,0,7.7
						c0.2,3.3,1,6.5,2.4,9.6c0.3,0.6,0.8,1.3,1.3,1.7c1.2,0.9,2.6,1.4,4.2,1.4c3.5,0,6.2-1.7,8.6-4c0.5-0.5,0.8-1.2,0.5-1.9
						c-0.5-1.2-1.1-2.4-1.6-3.6C499.9,66,499.8,65.9,499.8,65.9z"/>
					<g>
						<path class="st13" d="M493.6,61.1c-0.2,0.2-0.5,0.4-0.6,0.6c-0.2,0.3-0.2,0.7-0.3,1c0.3-0.1,0.5-0.3,0.7-0.4
							c0.4-0.2,0.8-0.4,1.1-0.6c0.1,0,0.2,0.1,0.3,0.1c-0.1,0.1-0.1,0.2-0.2,0.3c-0.4,0.3-0.8,0.6-1.1,1c-0.2,0.2-0.3,0.6-0.4,0.9
							c0.1,0,0.1,0.1,0.2,0.1c0.2-0.2,0.5-0.4,0.7-0.6c0.3-0.2,0.6-0.3,1-0.4c0.1,0,0.2,0.1,0.3,0.1c-0.1,0.1-0.1,0.2-0.2,0.3
							c-0.3,0.3-0.7,0.5-0.9,0.8c-0.2,0.2-0.2,0.5-0.3,0.9c0.9-0.3,1.3-1.3,2.3-0.7c-0.4,0.3-0.7,0.5-1,0.7
							c-0.2,0.1-0.2,0.4-0.3,0.6c0.2,0,0.5,0.1,0.7,0.1c0.7-0.2,1.4-0.4,2-0.6c0.1,0,0.2-0.1,0.2-0.2c0.9-1.3,0.6-3.2-0.6-4.3
							C496.4,60,494.9,60,493.6,61.1z"/>
						<path class="st13" d="M505.1,39.5c-0.9-0.3-1.8,0-2.5,0.7c-0.5,0.5-1.3,0.4-1.7-0.1c-0.3-0.5-0.6-1-0.7-1.5
							c-0.3-1.8-0.5-3.7-0.7-5.5c-0.1-0.6-0.3-0.9-0.9-1.1c-1.9-0.4-3.9-0.6-5.8-1.2c-6.1-1.7-11.9-3.9-16.7-8.3
							c-0.1,0.1-0.2,0.1-0.3,0.2c-2.2,1.8-3.7,4.1-4.8,6.8c-0.7,1.7-1.3,3.4-1.5,5.3c-0.1,0.9-0.2,1.8-0.4,2.6
							c-0.3,1.6-0.9,3.1-1.1,4.7c-0.4,3.8,0.9,7,4.2,9.2c2.2,1.5,4.7,2.2,7.2,2.4c2.8,0.2,5.6,0.2,8.4,0.1c3.5-0.1,6.6-1.3,9.5-3.1
							c1.8-1.1,3.1-2.6,3.4-4.8c0.1-0.4,0.2-0.7,0.6-0.7c0.3,0,0.7,0,0.9,0.1c1.2,0.5,2.2,0.4,3-0.5c0.9-0.9,1.2-2.1,1.2-3.3
							C506.5,40.6,506.2,39.8,505.1,39.5z M478.2,37.6c-0.2,1.1-1,1.6-2,1.4c-1.1-0.1-1.7-0.9-1.8-2c0-0.2,0-0.4,0-0.6h-0.1
							c0.2-0.8,0.3-1.5,0.6-2.3c0.3-0.8,1.1-1.2,2-1.1c0.8,0.1,1.2,0.7,1.3,1.4C478.3,35.5,478.4,36.6,478.2,37.6z M478.2,28.1
							c-0.3-0.2-0.4-0.3-0.5-0.4s-0.1-0.2-0.2-0.3c-0.9-1.2-1.8-1.2-2.6,0.1c-0.2,0.4-0.4,0.8-0.6,1.1c-0.1,0.1-0.1,0.3-0.2,0.3
							c-0.2,0-0.5,0-0.8,0c0.1-0.2,0.1-0.4,0.2-0.6c0.4-0.6,0.8-1.2,1.3-1.7c1.2-1.1,3.1-0.7,3.9,0.8
							C478.7,27.6,478.4,27.9,478.2,28.1z M480.5,37.8c0.4-0.2,0.8-0.4,1.2-0.5c0.6-0.2,0.9-0.7,0.9-1.3c0-0.7,0.1-1.3,0.1-2
							c0-0.5,0.4-0.5,0.7-0.5c0.4,0,0.5,0.1,0.5,0.5c0,0.8,0,1.6-0.1,2.3s-0.5,1.1-1.3,1.3c-0.3,0.1-0.7,0.2-1.1,0.3
							c0.5,0.6,0.9,1.1,1.3,1.6c0.1,0.2,0.2,0.4,0.3,0.6c-0.4,0-0.9,0.2-1,0.1c-0.6-0.6-1.1-1.3-1.7-2
							C480.2,38.2,480.4,37.9,480.5,37.8z M493.4,44c-0.4,1.8-1.7,2.9-3.2,3.8c-1.3,0.7-2.7,1.1-4.2,1.1c-2.4-0.1-4.4-1-5.7-3.1
							c-0.1-0.2-0.1-0.6-0.1-0.6c0.4-0.2,0.8-0.4,1.1,0.1c0.7,1.2,1.7,2.1,2.9,2.6c3.1,1.3,7.2-0.6,8-3.9c0.1-0.4,0.8-0.7,1.1-0.4
							C493.4,43.6,493.4,43.9,493.4,44z M496.4,37.8c-0.4,0.2-0.9,0.3-1.3-0.1c-0.6-0.6-1.2-1.1-1.8-1.5c-0.7-0.5-1.3-0.3-1.8,0.4
							c-0.3,0.5-0.6,1-0.8,1.5c-0.2,0.4-0.9,0.6-1.2,0.4c-0.1,0-0.1-0.2-0.1-0.2c0.1-1.4,1.8-3,3.3-2.9c1.6,0.1,2.7,1.1,3.8,2.2
							C496.5,37.6,496.4,37.8,496.4,37.8z"/>
						<path class="st13" d="M448,37.2c-0.5-0.4-1.1-0.7-1.6-1c-0.3-0.2-0.5-0.3-0.6,0.1c-0.1,0.4-0.7,0.8-0.1,1.2
							c0.5,0.4,1.1,0.7,1.7,1c0.5,0.3,1,0,1-0.8C448.3,37.6,448.2,37.4,448,37.2z"/>
						<path class="st13" d="M450.5,34.2c0.1,0.1,0.5-0.1,0.6-0.3c0.1-0.1,0.1-0.4,0-0.5c-0.4-0.5-0.7-1-0.5-1.7c0-0.1,0-0.3-0.1-0.4
							c-0.7-0.8-1.4-1.5-2.1-2.3c0-0.1-0.2-0.1-0.2-0.1c-0.4,0.5-0.9,1.1-1.3,1.6c0.1,0.3,0.2,0.5,0.3,0.6
							C448.4,32.2,449.4,33.2,450.5,34.2z"/>
						<path class="st13" d="M457.2,34.2c-0.2-2-1.2-3.6-2.5-5c-0.1-0.1-0.4-0.1-0.5-0.1c-0.7,0.6-1.5,1.3-2.1,2s-0.5,1.2,0.1,1.9
							c0.1,0.1,0.5,0.1,0.6,0.1c0.3-0.3,0.5-0.7,0.8-0.9s0.8-0.3,1.2-0.4l0.1,0.2c-0.7,0.6-1.3,1.3-2.1,1.8
							c-0.7,0.4-1.5,0.6-2.3,0.9c0.4,1,0,1.6-1.3,2.3c0.3,0.7,0.1,1.3-0.5,1.8c-0.1,0.1-0.1,0.4-0.1,0.5c0.7,0.7,1.4,1.3,2.2,2
							c0.8,0.7,1.7,0.7,2.7,0.5c2.6-0.6,4.1-2.3,4-4.7C457.5,36.2,457.3,35.2,457.2,34.2z"/>
						<path class="st13" d="M451.2,30.5c0.6-0.5,1.3-0.9,1.9-1.4c0.1-0.1,0.1-0.3,0-0.4c-0.4-0.5-0.8-0.9-1.2-1.4
							c-1-1.1-1.2-1.1-2.1,0c0,0-0.1,0.1-0.1,0.2c-0.3,0.4-0.3,0.8,0,1.2C450.2,29.3,450.7,29.9,451.2,30.5z"/>
						<path class="st13" d="M449,36.6c0.8-0.9,0.9-1.2,0.3-1.8c-0.8-0.8-1.6-1.5-2.4-2.2c-0.1-0.1-0.2-0.1-0.3-0.1
							c-0.6,0.2-0.9,1.5-0.5,1.9C447.1,35.1,448.1,35.8,449,36.6z"/>
					</g>
					<g>
						<path class="st14" d="M502.1,77.1c-0.4-1.4-0.8-2.8-1.2-4.2c-0.9,0.6-1.8,1.1-2.6,1.6c-0.1,0-0.1,0.3,0,0.4c0.6,1,1.2,2,1.7,3
							c0.3,0.5,0.6,0.9,1.2,0.6C501.9,78.2,502.2,77.8,502.1,77.1z"/>
						<path class="st14" d="M493,76c-0.8,0-1.7,0-2.5,0c0.3,0.6,0.7,1.3,1.1,2c0.1,0.2,0.5,0.4,0.6,0.3c0.4-0.1,1.1-0.3,1.2-0.6
							c0.1-0.5-0.1-1.1-0.2-1.7C493.2,76,493.1,76,493,76z"/>
					</g>
					<g>
						<path class="st2" d="M490.5,56.4c-0.5-0.6-1-1.2-1.6-1.8c-0.4,0.6-0.6,1.2-1,1.7c-0.2,0.3-0.5,0.5-0.8,0.8
							c0.1,0.3,0.2,0.8,0.2,1.3c0.1,0.4,0.3,0.6,0.6,0.5c1.2-0.1,2.4-0.3,3.5-0.5c0.1,0,0.3-0.3,0.3-0.5c0-0.6-0.1-1.2-0.2-1.9
							C491.4,57,491,57,490.5,56.4z"/>
						<path class="st2" d="M503.8,62.4c-0.2-1.1-0.8-1.9-1.5-2.8c-2-2.6-4.7-4.4-7.6-5.7c0,0,0,0-0.1,0c0,0,0,0,0,0.1
							c0.5,0.7,1,1.3,1.4,2c0.7,1.3,1.4,2.6,2.1,3.9c0.1,0.2,0.4,0.3,0.6,0.3c0.6,0,1.2,0,1.8,0c0.1,0,0.2,0.1,0.3,0.1
							c-0.1,0.1-0.1,0.2-0.2,0.3c-0.2,0.1-0.5,0.1-0.8,0.1c-0.4,0-0.7,0-1.2,0c1.3,1.5,1.5,3.1,0.5,4.7c1.1,0.2,2.9-0.3,3.7-0.9
							C503.6,64,503.9,63.3,503.8,62.4z"/>
						<path class="st2" d="M491.3,54.1c-0.6,0.1-1.1,0.2-1.7,0.3c0.5,0.5,0.9,1,1.3,1.5C491.1,55.2,491.2,54.7,491.3,54.1z"/>
						<path class="st2" d="M488.1,54.5c-0.4,0-0.7,0-1,0c-0.1,0-0.2,0.2-0.2,0.2c0.1,0.4,0.3,0.7,0.4,1.2
							C487.6,55.4,487.9,55,488.1,54.5z"/>
						<path class="st2" d="M483.1,54.7c-0.9,0-1.7,0-2.6-0.1c-2.5-0.2-5-0.6-7.3-1.6c-3.5-1.5-6-4-6.6-7.9c0-0.2-0.2-0.3-0.3-0.5
							c-1.5-1.4-3-2.8-4.4-4.3c-1-1-1.8-2.1-2.8-3.2c-0.4,3.8-3.1,5-6.4,5.5c0,0.1,0.1,0.1,0.1,0.1c1.1,1.1,2.1,2.2,3.2,3.3
							c5.5,5.2,11.8,9,19.2,10.9c2.5,0.6,5,1.1,7.6,1.1c0.1,0,0.4-0.1,0.4-0.2c0.1-0.9,0.2-1.9,0.2-2.8
							C483.4,54.9,483.2,54.7,483.1,54.7z"/>
					</g>
					<g>
						<path d="M502.5,78.7c0,0-0.2-0.1-0.3,0c-0.5,0.1-0.9,0.3-1.4,0.4c-0.1,0-0.2,0.2-0.2,0.3c0.2,0.6,0.4,1.3,0.6,1.9
							c0.2,0.5,0.6,0.8,1.3,0.7c0.6-0.2,0.7-0.7,0.8-1.5C503.1,80,502.8,79.4,502.5,78.7z"/>
						<path d="M493.3,78.6c-0.4,0-0.8,0.1-1.2,0.2v-0.1c-0.2,0-0.6,0-0.6,0.1c-0.3,0.7-0.6,1.5-0.7,2.3c-0.1,0.5,0.5,0.8,1,0.6
							c0.8-0.3,1.9-2,1.8-2.8C493.6,78.8,493.4,78.6,493.3,78.6z"/>
					</g>
					<g>
						<path d="M507.1,44.7c1.1-1.3,1.6-3.7,0.4-5.1c-0.1-0.1,0-0.3,0-0.4c0.3-0.6,0.7-1.1,0.9-1.7c1.8-4.5,1.4-9-0.5-13.4
							c-2.3-5-6.2-8.5-11.1-10.8c-3.4-1.6-7-2.3-10.8-1.8c-4.2,0.5-7.7,2.4-10.7,5.2c-0.1,0.1-0.3,0.2-0.4,0.2
							c-2.5-0.3-4.5,0.7-6.1,2.4c-3.5,3.8-3.8,10-0.8,14.1c0.1,0.1,0.2,0.3,0.2,0.4c-0.1,1.1,0,2.2-0.3,3.3
							c-0.6,1.9-1.2,3.8-1.3,5.8c-0.1-0.1-0.2-0.1-0.2-0.1c-2.8-2.6-5.4-5.4-7.5-8.7c-0.2-0.3-0.3-0.6-0.4-0.9
							c-0.4-1.5-1.2-2.8-2.2-4c-0.2-0.3-0.6-0.6-0.9-0.6c-0.9-0.1-1.3-0.7-1.8-1.3c-0.4-0.4-0.7-0.8-1.1-1.2c-0.3-0.2-0.6-0.4-1-0.5
							c-1-0.2-3.1,1.4-3.3,2.4c0,0.1-0.2,0.3-0.3,0.4c-0.8,0.5-1.5,1.1-1.7,2c-0.1,0.4,0.2,0.9,0.3,1.4c-0.6,0.2-1.1,0.9-1.4,1.6
							c-0.5,1.1,0.6,1.3,1.1,1.9c-0.8,0.1-1.3,0.5-1.7,1.7c0,0.1,0,0.3,0,0.4c0.7,0.5,1.5,1,2.2,1.5c0.2,0.1,0.4,0.2,0.5,0.3
							c0.8,1.1,1.8,2,3,2.7c0.4,0.2,0.7,0.5,1,0.8c1.9,1.8,3.6,3.8,5.6,5.5c7.6,6.4,16.2,10.2,26.2,10.5c0.1,0,0.3,0.2,0.3,0.3
							c0,1.1,0,2.1,0.1,3.2c0.2,3.7,1,7.2,2.6,10.5c0.4,0.7,1,1.6,1.7,1.9c1.4,0.6,2.1,1.6,2.6,2.9c0.1,0.2,0.2,0.4,0.3,0.6
							c0.1,0.1,0.1,0.3,0,0.4c-0.2,0.6-0.5,1.3-0.7,1.9c-0.4,1.2,0.3,2,1.5,1.9c1.6-0.1,3.4-2.2,3.3-3.8c-0.1-0.8-0.2-1.7-0.3-2.5
							c0-0.1,0.1-0.3,0.2-0.3c0.8-0.3,1.6-0.5,2.4-0.7c0.1,0,0.3,0,0.3,0.1c0.8,1.8,2.3,3.1,2.5,5.2c0,0.3,0.2,0.5,0.3,0.8
							c0.5,1.1,1.3,1.6,2.5,1.4c1.4-0.2,2.2-1.3,1.7-2.5s-0.9-2.4-1.2-3.7c-0.3-1.3-0.8-2.6-1.2-3.9c0-0.1,0-0.3,0-0.4
							c1.4-1.1,1.3-2.5,0.6-3.9c-0.4-0.8-0.8-1.6-1.1-2.4c0.5-0.1,0.9-0.2,1.4-0.4c0.4-0.2,0.9-0.4,1.3-0.6c1.2-0.7,1.5-1.8,1-3.1
							c-0.2-0.5-0.5-1.1-0.8-1.5c-1.8-2.7-4.3-4.5-7.2-6c-0.6-0.3-1.3-0.7-1.9-0.9c1.2-0.7,2.5-1.3,3.7-2c1.2-0.8,2.2-1.8,2.9-3.1
							c0.1,0.2,0.2,0.3,0.3,0.4c1.9,2.8,2.3,5.9,2.1,9.1c0,0.7,0,0.7,0.7,0.5c0.2,0,0.3-0.1,0.4-0.2c0.7-0.7,1.4-1.3,2-2
							c2.5-3.3,2.5-7.6,0-10.5C506.9,45.1,506.9,44.9,507.1,44.7z M467.4,27.6c-0.3-3.4,0.9-6.4,3.2-8.8c1.1-1.1,2.4-1.7,4.1-1.1
							c0.5,0.2,1,0.1,1.4-0.4c2.5-2.5,5.4-4.4,8.9-5.1c3.6-0.7,7,0,10.2,1.5c5.2,2.4,9.2,6.1,11.4,11.5c1.8,4.4,1.7,8.9-0.3,13.3
							c-0.2,0.3-0.3,0.4-0.7,0.3c-1.3-0.4-2.5-0.2-3.8,0.6c-0.2-1-0.5-1.9-0.6-2.8c-0.2-1.5-0.3-2.9-0.4-4.4c0-0.2-0.3-0.4-0.5-0.4
							c-3.4-0.6-6.8-1.3-10.1-2.5c-4.3-1.5-8.3-3.4-11.8-6.3c-0.3-0.3-0.6-0.6-0.9-0.9c-0.6-0.6-1.1-0.7-1.9-0.2
							c-2.4,1.6-4.1,3.7-5.4,6.2c-0.6,1.2-1.1,2.5-1.6,3.7C467.9,30.5,467.5,29.1,467.4,27.6z M449.7,27.4c0-0.1,0.1-0.1,0.1-0.2
							c1-1.1,1.2-1.1,2.1,0c0.4,0.5,0.8,0.9,1.2,1.4c0.1,0.1,0,0.3,0,0.4c-0.6,0.5-1.2,0.9-1.9,1.4c-0.5-0.6-1-1.2-1.5-1.8
							C449.4,28.3,449.4,27.9,449.7,27.4z M448.3,29c0,0,0.2,0,0.2,0.1c0.7,0.8,1.4,1.5,2.1,2.3c0.1,0.1,0.1,0.2,0.1,0.4
							c-0.2,0.7,0.1,1.2,0.5,1.7c0.1,0.1,0.1,0.4,0,0.5c-0.2,0.1-0.6,0.3-0.6,0.3c-1.1-1-2.2-2-3.2-3c-0.1-0.1-0.1-0.3-0.3-0.6
							C447.4,30.1,447.8,29.5,448.3,29z M446.7,32.5c0.1,0,0.2,0,0.3,0.1c0.8,0.7,1.6,1.4,2.4,2.2c0.6,0.6,0.5,0.8-0.3,1.8
							c-0.9-0.7-1.9-1.4-2.8-2.2C445.8,34,446.1,32.7,446.7,32.5z M447.4,38.5c-0.6-0.3-1.2-0.6-1.7-1c-0.6-0.4,0-0.8,0.1-1.2
							s0.4-0.3,0.6-0.1c0.5,0.3,1.1,0.7,1.6,1c0.2,0.1,0.3,0.4,0.4,0.5C448.3,38.5,447.9,38.7,447.4,38.5z M450.8,41.3
							c-0.7-0.6-1.5-1.3-2.2-2c-0.1-0.1,0-0.4,0.1-0.5c0.6-0.5,0.8-1.1,0.5-1.8c1.3-0.6,1.7-1.3,1.3-2.3c0.8-0.3,1.6-0.5,2.3-0.9
							c0.8-0.5,1.4-1.2,2.1-1.8l-0.1-0.2c-0.4,0.1-0.8,0.1-1.2,0.4c-0.3,0.2-0.5,0.6-0.8,0.9c-0.1,0.1-0.5,0.1-0.6-0.1
							c-0.6-0.7-0.7-1.2-0.1-1.9c0.6-0.7,1.4-1.4,2.1-2c0.1-0.1,0.4,0,0.5,0.1c1.3,1.4,2.4,3,2.5,5c0.1,1,0.2,2,0.3,2.9
							c0.1,2.4-1.5,4.1-4,4.7C452.5,42.1,451.6,42,450.8,41.3z M483.2,57.8c0,0.1-0.3,0.2-0.4,0.2c-2.6,0-5.1-0.5-7.6-1.1
							C467.8,55,461.5,51.2,456,46c-1.1-1-2.1-2.2-3.2-3.3l-0.1-0.1c3.3-0.6,6-1.7,6.4-5.5c0.9,1.1,1.8,2.2,2.8,3.2
							c1.4,1.5,3,2.8,4.4,4.3c0.1,0.1,0.3,0.3,0.3,0.5c0.6,4,3,6.4,6.6,7.9c2.3,1,4.8,1.4,7.3,1.6c0.9,0.1,1.7,0,2.6,0.1
							c0.1,0,0.3,0.2,0.3,0.3C483.4,55.9,483.3,56.9,483.2,57.8z M490.5,76c0.9,0,1.7,0,2.5,0c0.1,0,0.2,0,0.2,0.1
							c0.1,0.6,0.3,1.2,0.2,1.7c-0.1,0.3-0.7,0.5-1.2,0.6c-0.2,0-0.5-0.1-0.6-0.3C491.2,77.3,490.8,76.6,490.5,76z M491.8,81.7
							c-0.5,0.2-1.1-0.1-1-0.6c0.1-0.8,0.4-1.5,0.7-2.3c0-0.1,0.4-0.1,0.6-0.1v0.1c0.4-0.1,0.8-0.1,1.2-0.2c0.1,0,0.3,0.1,0.3,0.2
							C493.7,79.8,492.6,81.4,491.8,81.7z M502.5,78.7c0.3,0.7,0.6,1.4,0.8,1.8c-0.1,0.8-0.2,1.3-0.8,1.5c-0.6,0.2-1-0.2-1.3-0.7
							c-0.3-0.6-0.5-1.3-0.6-1.9c0-0.1,0.1-0.3,0.2-0.3c0.4-0.2,0.9-0.3,1.4-0.4C502.3,78.6,502.5,78.6,502.5,78.7z M502.1,77.1
							c0.2,0.7-0.1,1.2-0.9,1.5c-0.7,0.3-1-0.1-1.2-0.6c-0.6-1-1.2-2-1.7-3c-0.1-0.1,0-0.3,0-0.4c0.8-0.5,1.7-1,2.6-1.6
							C501.3,74.3,501.7,75.7,502.1,77.1z M501.6,69.6c0.3,0.7,0,1.4-0.5,1.9c-2.5,2.2-5.2,4-8.6,4c-1.5,0-3-0.5-4.2-1.4
							c-0.5-0.4-1-1.1-1.3-1.7c-1.4-3-2.2-6.2-2.4-9.6c-0.1-2.5,0-5.1,0-7.7c0-0.3,0.1-0.5,0.5-0.4c0.2,0,0.4,0.2,0.4,0.4
							c0.3,1.2,0.5,2.4,0.7,3.7c0.1,0.5,0.4,0.7,0.9,0.7c1.7-0.1,3.4-0.3,5.1-0.5c0.8-0.1,1.1-0.6,0.9-1.5c-0.2-1.1-0.3-2.3-0.4-3.4
							c0-0.1,0.1-0.3,0.2-0.3c0.2,0,0.5-0.1,0.5,0c1.2,2,2.4,4,3.6,6.2c-2.3-1-3.5,0.4-4.8,1.7c-0.7,0.7-0.6,1.2,0,2
							c0.1,0.1,0,0.2,0.1,0.3c0,0.2,0.1,0.4,0.2,0.5c0.8,0.5,1,1.5,1.8,2c0.4,0.2,0.9,0.2,1.4,0.3c0.3,0,0.6-0.1,0.8-0.2
							c1.1-0.8,2.3-0.4,3.4-0.5c0.1,0,0.2,0,0.2,0.1C500.5,67.2,501.1,68.4,501.6,69.6z M490.5,56.4c0.5,0.6,0.9,0.6,1.2-0.3
							c0.1,0.7,0.2,1.3,0.2,1.9c0,0.2-0.2,0.5-0.3,0.5c-1.2,0.2-2.4,0.3-3.5,0.5c-0.4,0-0.6-0.1-0.6-0.5c-0.1-0.5-0.2-1-0.2-1.3
							c0.4-0.3,0.6-0.6,0.8-0.8c0.4-0.5,0.6-1.1,1-1.7C489.5,55.2,490,55.8,490.5,56.4z M489.6,54.3c0.6-0.1,1.1-0.2,1.7-0.3
							c-0.1,0.6-0.3,1.2-0.4,1.8C490.5,55.3,490.1,54.9,489.6,54.3z M487.4,55.9c-0.2-0.4-0.3-0.8-0.4-1.2c0-0.1,0.1-0.2,0.2-0.2
							c0.3,0,0.6,0,1,0C487.9,55,487.6,55.4,487.4,55.9z M494.1,65.4c0.1-0.4,0.1-0.7,0.3-0.9c0.2-0.3,0.6-0.6,0.9-0.8
							c0.1-0.1,0.1-0.2,0.2-0.3c-0.1,0-0.3-0.1-0.3-0.1c-0.3,0.1-0.7,0.3-1,0.4c-0.3,0.2-0.5,0.4-0.7,0.6c-0.1,0-0.1-0.1-0.2-0.1
							c0.1-0.3,0.2-0.7,0.4-0.9c0.3-0.4,0.7-0.6,1.1-1c0.1-0.1,0.1-0.2,0.2-0.3c-0.1,0-0.3-0.2-0.3-0.1c-0.4,0.2-0.8,0.4-1.1,0.6
							c-0.2,0.1-0.3,0.3-0.7,0.4c0.1-0.3,0.1-0.7,0.3-1c0.1-0.3,0.4-0.4,0.6-0.6c1.3-1.1,2.7-1.2,3.8-0.2c1.2,1.1,1.5,3.1,0.6,4.3
							c-0.1,0.1-0.1,0.2-0.2,0.2c-0.7,0.2-1.4,0.5-2,0.6c-0.2,0.1-0.5,0-0.7-0.1c0.1-0.2,0.1-0.5,0.3-0.6c0.3-0.3,0.6-0.5,1-0.7
							C495.4,64.2,495,65.1,494.1,65.4z M502.3,59.7c0.7,0.8,1.3,1.7,1.5,2.8c0.1,0.9-0.2,1.6-0.9,2.1c-0.8,0.6-2.7,1.1-3.7,0.9
							c1-1.7,0.7-3.2-0.5-4.7c0.5,0,0.8,0,1.2,0c0.3,0,0.5-0.1,0.8-0.1c0.1,0,0.2-0.2,0.2-0.3c-0.1,0-0.2-0.1-0.3-0.1
							c-0.6,0-1.2,0-1.8,0c-0.2,0-0.5-0.2-0.6-0.3c-0.7-1.3-1.4-2.6-2.1-3.9c-0.4-0.7-0.9-1.3-1.4-2c0,0,0,0,0-0.1c0,0,0,0,0.1,0
							C497.7,55.3,500.3,57.1,502.3,59.7z M501.5,45.3c-0.4,0-0.6,0.2-0.6,0.7c-0.3,2.2-1.6,3.7-3.4,4.8c-2.9,1.8-6,3-9.5,3.1
							c-2.8,0.1-5.6,0.1-8.4-0.1c-2.6-0.2-5-0.9-7.2-2.4c-3.3-2.2-4.5-5.4-4.2-9.2c0.2-1.6,0.7-3.1,1.1-4.7c0.2-0.9,0.3-1.8,0.4-2.6
							c0.2-1.9,0.8-3.6,1.5-5.3c1.1-2.6,2.6-4.9,4.8-6.8c0.1-0.1,0.2-0.2,0.3-0.2c4.8,4.4,10.6,6.6,16.7,8.3
							c1.9,0.5,3.9,0.8,5.8,1.2c0.6,0.1,0.8,0.4,0.9,1.1c0.2,1.8,0.4,3.7,0.7,5.5c0.1,0.5,0.4,1,0.7,1.5c0.4,0.6,1.2,0.6,1.7,0.1
							c0.7-0.7,1.5-0.9,2.5-0.7c1.1,0.3,1.5,1.1,1.5,2.2c0,1.2-0.3,2.4-1.2,3.3c-0.8,0.9-1.9,1-3,0.5
							C502.1,45.3,501.8,45.3,501.5,45.3z M506.4,55.5c-0.4,0.5-0.8,1-1.1,1.4c-0.3-1.7-0.4-3.4-0.8-5.1c-0.4-1.7-1.2-3.2-2.3-4.5
							c-0.1-0.2,0-0.5,0-0.8c0-0.1,0.3-0.1,0.4-0.1c1.1,0.2,2.2,0,3.2-0.6c0.1-0.1,0.4,0,0.5,0.2C508.6,48.7,508.6,52.4,506.4,55.5z
							"/>
						<path d="M476.9,33.1c-0.9-0.1-1.7,0.2-2,1.1c-0.3,0.7-0.4,1.5-0.6,2.3h0.1c0,0.2,0,0.4,0,0.6c0.1,1.1,0.7,1.8,1.8,2
							c1,0.1,1.8-0.3,2-1.4c0.2-1,0.1-2.1,0-3.1C478.1,33.8,477.7,33.2,476.9,33.1z"/>
						<path d="M492.2,44c-0.8,3.2-4.9,5.2-8,3.9c-1.3-0.5-2.2-1.4-2.9-2.6c-0.3-0.5-0.7-0.3-1.1-0.1c-0.1,0,0,0.4,0.1,0.6
							c1.3,2.1,3.3,3,5.7,3.1c1.5-0.1,2.9-0.4,4.2-1.1c1.6-0.8,2.8-2,3.2-3.8c0-0.1,0-0.3,0-0.4C493,43.3,492.3,43.6,492.2,44z"/>
						<path d="M482,40.2c0.2,0.2,0.7,0,1-0.1c-0.1-0.2-0.1-0.4-0.3-0.6c-0.4-0.5-0.8-1-1.3-1.6c0.4-0.1,0.8-0.2,1.1-0.3
							c0.7-0.1,1.2-0.5,1.3-1.3c0.1-0.8,0.1-1.5,0.1-2.3c0-0.4-0.1-0.5-0.5-0.5c-0.3,0-0.7,0-0.7,0.5c0,0.7-0.1,1.3-0.1,2
							c0,0.6-0.3,1.1-0.9,1.3c-0.4,0.1-0.8,0.3-1.2,0.5c-0.1,0.1-0.2,0.3-0.2,0.4C480.8,38.9,481.3,39.6,482,40.2z"/>
						<path d="M492.7,35.3c-1.5-0.1-3.2,1.5-3.3,2.9c0,0.1,0,0.2,0.1,0.2c0.3,0.2,1,0,1.2-0.4c0.2-0.5,0.5-1.1,0.8-1.5
							c0.5-0.7,1.1-0.9,1.8-0.4c0.7,0.4,1.3,1,1.8,1.5c0.4,0.4,0.9,0.3,1.3,0.1c0.1,0,0.1-0.2,0.1-0.3
							C495.4,36.4,494.3,35.4,492.7,35.3z"/>
						<path d="M474.8,26.7c-0.5,0.5-0.9,1.1-1.3,1.7c-0.1,0.2-0.1,0.4-0.2,0.6c0.3,0,0.5,0,0.8,0c0.1,0,0.2-0.2,0.2-0.3
							c0.2-0.4,0.4-0.8,0.6-1.1c0.8-1.3,1.7-1.3,2.6-0.1c0.1,0.1,0.1,0.2,0.2,0.3c0.1,0.1,0.3,0.2,0.5,0.4c0.2-0.2,0.5-0.5,0.4-0.6
							C477.9,26,476,25.6,474.8,26.7z"/>
					</g>
				</g>
				<g>
					<path class="st15" d="M117.4,39.9c0,0.2,0.3,0.3,0.5,0.4c0.1-0.1,0.2-0.3,0.2-0.4c0.1-1.1,0.3-2.2,0.4-3.2
						c0.3-2.8,0.7-5.6,1-8.5c0.1-0.9,0.4-1.5,1.1-1.9c2.3-1.2,4.2-3,5.9-4.9c0.3-0.3,0.8-0.4,1.2-0.3c0.2,0,0.4,0.5,0.5,0.8
						s0.1,0.6,0,1c-0.1,0.7-0.3,1.5-0.5,2.4c1.8-0.9,3.5-1.5,5-2.5s2.9-2.2,4.3-3.3c0.3-0.3,0.9-0.3,1.3-0.3c0.1,0,0.2,0.6,0.3,0.9
						c0,0.4,0,0.8-0.1,1.1c-0.1,0.7-0.3,1.3-0.5,2c0.1,0,0.1,0,0.2,0c2.8-1,5.5-2.4,7.7-4.5c1-0.9,1.2-2.1,0.4-3.1
						c-0.7-0.9-1.6-1.6-2.5-2.2c-2.2-1.4-4.6-1.8-7.1-1.9c-5.8-0.4-11,1.1-15.5,4.8c-3.4,2.8-5.6,6.3-5.5,10.9
						c0,2.4,0.3,4.7,0.6,7.1C116.5,36.1,116.9,38,117.4,39.9z"/>
					<g>
						<path class="st14" d="M126.9,80.3c-1.1-0.3-2.2-0.7-3.3-1c0,0.4-0.1,1-0.1,1.5c0,1.6-0.1,3.2-0.1,4.7c0,0.7,0.5,1.1,1.3,1.2
							c0.7,0.1,0.9-0.3,1.1-0.9c0.4-1.7,0.9-3.5,1.3-5.2C127,80.5,127,80.3,126.9,80.3z"/>
						<path class="st14" d="M132,80.4c-0.1,0-0.3,0.1-0.2,0.2c0.1,1.1,0.2,2.2,0.3,3.4c0,0.5,0.4,0.5,0.7,0.5c0.5,0,1.2,0.2,1.3-0.4
							c0.4-1.4,0.7-2.8,1-4.2C133.9,80,133,80.2,132,80.4z"/>
					</g>
					<g>
						<path d="M125.5,87.7c0-0.4-0.1-0.6-0.5-0.5s-0.9,0-1.3-0.1c-0.1,0-0.3,0-0.3,0.1c-0.4,0.6-0.4,2.3,0.1,2.9
							c0.2,0.3,0.7,0.5,1,0.5s0.7-0.4,0.9-0.7c0.2-0.5,0.2-1,0.3-1.6c0,0,0,0-0.1,0C125.5,88.1,125.5,87.9,125.5,87.7z"/>
						<path d="M134.9,85.3c-0.3-0.5-0.6-0.7-1.2-0.4c-0.3,0.1-0.7,0.2-1,0.2c-0.4,0-0.4,0.2-0.3,0.5c0.5,1.1,1.3,1.8,2.4,2.2
							c0.6,0.2,1-0.2,1-1.1C135.5,86.3,135.2,85.8,134.9,85.3z"/>
					</g>
					<g>
						<path class="st2" d="M135.7,55.8c-0.5,0-1.1,0-1.7,0c0.4,0.6,0.8,1.1,1.2,1.8c0.2-0.5,0.5-1,0.6-1.4
							C135.8,56,135.7,55.8,135.7,55.8z"/>
						<path class="st2" d="M132.2,55.7c-0.9,0-1.6,0-2.4,0c0.3,0.6,0.6,1.2,0.9,1.9C131.2,57,131.7,56.4,132.2,55.7z"/>
						<path class="st2" d="M134.9,58.3c-0.1-0.1-0.3-0.2-0.4-0.3c-0.5-0.7-1-1.5-1.5-2.3c-0.7,0.8-1.3,1.6-1.9,2.4
							c-0.1,0.1-0.3,0.3-0.3,0.4c-0.1,0.5,0.5,1.2,1.1,1.2c0.9-0.1,1.9,0.2,2.7-0.4c0.1-0.1,0.2-0.1,0.3-0.1c0.5,0,0.5-0.3,0.5-0.7
							C135.4,58.5,135.1,58.4,134.9,58.3z"/>
						<path class="st2" d="M148.5,59.1c-0.4,0.4-0.7,0.8-1,1.1c-0.4,0.3-0.8,0.6-1.2,0.9c-1,0.7-1.7,0.7-2.6-0.2c-1-0.9-2-1.7-3-2.6
							c-0.7-0.6-1.4-1.3-2.2-2c0.1,0.8,0.3,1.5,0.4,2.3c0.1,0.3,0,0.8,0.2,1c0.5,0.4,0.8,0.9,1.1,1.4c1.3,1.8,2.9,3.4,4.3,5.1
							c0.4,0.5,0.7,0.4,1.1,0.1c2-1.3,4.1-2.7,6.1-4c0.1-0.1,0.2-0.2,0.4-0.3C150.7,61.4,149.5,60.4,148.5,59.1z"/>
						<path class="st2" d="M131.4,63.5c-0.9,0.3-1.8,0.5-2.8,0.8c-0.1,0-0.3-0.1-0.5-0.1c0.1-0.1,0.3-0.2,0.4-0.3
							c0.2-0.1,0.3-0.1,0.5-0.1c-0.1-0.4-0.2-0.7-0.3-1.1c-0.5-2.2-1.1-4.4-1.5-6.6c-0.1-0.6-0.4-0.7-1-0.7
							c-0.1,1.7-0.2,3.4-0.2,5.1c0,2.5,0.1,4.9,0.2,7.4c0,0.7,0.4,1,1.1,1c1-0.1,2-0.2,3-0.4c1.2-0.3,2.5-0.7,3.7-1.1
							c-1.1-1.2-2.1-2.4-2.1-4.1C131.6,63.4,131.5,63.5,131.4,63.5z"/>
					</g>
					<g>
						<path class="st13" d="M153.7,54.9c0.1,0.1,0.2,0.3,0.4,0.5c0.5-0.6,1-1.2,1.3-1.9c0.1-0.3-0.4-0.8-0.6-1.2
							c-0.2,0.1-0.4,0.2-0.5,0.3c-0.2,0.3-0.4,0.6-0.6,0.8C153.3,54,153.1,54.4,153.7,54.9z"/>
						<path class="st13" d="M153.4,52.6C153.4,52.5,153.5,52.5,153.4,52.6c0.1-0.3,0.3-0.7,0.2-0.9c-0.3-0.4-0.7-0.7-1.1-1
							c-0.1,0.1-0.2,0.1-0.2,0.2c-0.4,0.7-0.9,1.4-1.3,2.1c0,0,0,0.2,0.1,0.2C152.5,53.8,152.5,53.8,153.4,52.6z"/>
						<path class="st13" d="M154.4,56.8c0.1,0.2,0.3,0.4,0.4,0.6h0.2c0.5-0.5,1.1-1,1.5-1.6c0.1-0.2-0.2-0.6-0.3-1
							c-0.2,0.1-0.4,0.1-0.5,0.2c-0.4,0.4-0.7,0.8-1.1,1.2C154.6,56.4,154.5,56.6,154.4,56.8z"/>
						<path class="st13" d="M138.7,61.3c-0.5-0.1-1-0.1-1.5-0.2c-0.4,0-0.8-0.1-1.2-0.1c1.1-0.7,2.2-0.1,3.4-0.2
							c-0.2-0.2-0.4-0.4-0.5-0.5c-1.2-0.3-2.4-0.5-3.5-0.8c-0.1,0-0.3,0.2-0.4,0.3c-0.6,1-1.2,2-1.8,3c-0.1,0.1-0.1,0.2-0.1,0.3
							c0.1,1.1,0.5,2.2,1.2,3.1c0.4,0.5,0.8,0.6,1.4,0.2c0.9-0.6,1.8-1.2,3-0.9c0.1,0,0.2,0,0.2,0c0.1-0.2,0.3-0.4,0.3-0.6
							c0-0.1-0.2-0.3-0.4-0.3c-0.5,0-1.1,0-1.6,0c-0.1,0-0.2-0.1-0.3-0.2c0.1-0.1,0.2-0.2,0.3-0.2c0.6-0.1,1.2-0.1,1.7-0.1
							s0.7-0.3,0.5-0.7c-0.1-0.2-0.4-0.3-0.7-0.4c-0.6-0.1-1.1-0.1-1.7-0.1c-0.1,0-0.3-0.1-0.4-0.2c0.1-0.1,0.3-0.3,0.4-0.3
							c0.7,0,1.3,0,2,0c0.2,0,0.5-0.1,0.5-0.1c0-0.2,0-0.5-0.1-0.7C139.1,61.5,138.9,61.4,138.7,61.3z"/>
						<path class="st13" d="M154.6,58.2c-0.4-0.3-0.8-0.7-1.3-1c-1,0.6-1,0.6-2-0.3c-0.3-0.2-0.5-0.4-0.8-0.7
							c-0.1-0.1-0.2-0.3-0.3-0.5c0.2-0.1,0.5-0.2,0.7-0.2c0.1,0,0.3,0.1,0.4,0.2c0.3,0.3,0.6,0.5,0.9,0.8c0.1,0.1,0.4,0.3,0.5,0.3
							c0.2-0.2,0.5-0.5,0.5-0.7c0-0.3-0.1-0.7-0.3-0.9c-0.5-0.5-1-1-1.6-1.4c-0.6-0.5-1-0.4-1.6,0.1c-0.8,0.8-1,3-0.3,4.3
							c0.8,1.4,2,2.4,3.5,3.1c0.1,0,0.3,0.1,0.4,0c0.7-0.6,1.4-1.2,2.1-1.8C154.8,59.1,154.3,58.8,154.6,58.2z"/>
						<path class="st13" d="M156.9,57.3c-0.1,0-0.3,0.1-0.4,0.2c-0.3,0.2-0.5,0.4-0.7,0.6c-0.1,0.1,0,0.4,0,0.6c0,0.1,0.3,0.1,0.5,0
							c0.3-0.2,0.6-0.4,0.9-0.6c0.1-0.1,0.1-0.2,0.2-0.3C157.2,57.6,157.1,57.4,156.9,57.3z"/>
						<path class="st13" d="M147.8,22.8c-0.3-1.1-0.6-2.2-0.9-3.2c-1.9,1.1-3.8,2.2-5.7,3.1c-1.3,0.6-2.8,1.1-4.2,1.5
							c-0.7,0.2-0.7,0-0.5-0.7c0.3-0.9,0.5-1.7,0.7-2.6c-2.2,1.7-4.6,3-7.1,4c-1.1,0.4-2.3,0.8-3.5,1.1c-0.4,0.1-0.6-0.1-0.5-0.6
							c0.3-0.9,0.5-1.8,0.7-2.7h-0.1c-0.2,0.1-0.3,0.3-0.5,0.4c-1.2,0.9-2.3,2-3.6,2.8c-1,0.7-1.6,1.3-1.7,2.6
							c-0.4,4.1-1,8.2-1.5,12.3c0,0.2-0.2,0.6-0.4,0.7c-0.4,0.1-0.8,0-1.2-0.1c-0.5-0.1-0.9-0.4-1.4-0.5c-0.4-0.1-0.7,0.2-0.7,0.6
							c-0.2,1.5,0.1,3,0.6,4.4c0.3,0.8,1,1.2,1.9,1c0.6-0.1,1.2-0.3,1.9-0.4c0.4-0.1,0.6,0.1,0.7,0.5c0.5,1.7,1,3.4,1.6,5.2
							c0.3,0.8,0.8,1.3,1.7,1.6c2.5,0.9,5.2,1.3,7.8,1.3c3.3-0.1,6.5-0.3,9.8-0.5c2.4-0.1,4.5-0.9,5.6-3.4c0.2-0.4,0.4-0.7,0.5-1.1
							c1.4-3.3,1.8-6.8,2-10.3C149.8,34.1,149.1,28.4,147.8,22.8z M140.9,29.7c1.1-0.7,2.1-1.3,3.2-1.9c0.3-0.2,0.7-0.1,1-0.2
							c0,0.1,0,0.1,0.1,0.2c-1.3,0.8-2.7,1.6-4,2.4c-0.1,0.1-0.3-0.1-0.5-0.1C140.7,29.9,140.7,29.8,140.9,29.7z M127,29.2
							c0.1,0,0.2,0,0.4,0c0.5,0.2,1.1,0.3,1.7,0.5c0.9,0.3,1.8,0.6,2.8,0.8c0.1,0,0.2,0.1,0.3,0.2c-0.1,0.1-0.2,0.2-0.3,0.2
							c-0.3,0-0.7,0.1-1,0c-1.3-0.4-2.6-0.8-3.9-1.2c-0.2-0.1-0.3-0.2-0.5-0.3C126.6,29.4,126.8,29.3,127,29.2z M125.9,36.7
							c0.2-0.3,0.3-0.6,0.6-0.8c1.3-0.8,2.7-1.3,4.3-1.4c0.3,0.2,0.7,0.3,1,0.5c-0.2,0.3-0.4,0.7-0.6,0.9c-1.2,0.9-2.6,1.3-4.1,1.4
							c-0.1,0-0.2,0-0.2,0C126.4,37.1,126.1,36.9,125.9,36.7z M139,45.5c-0.4,1.8-1.8,3-3.9,3.3c-0.4,0.1-0.9,0.1-1.3,0.1
							c-2.3-0.1-4.3-0.7-5.9-2.4c-0.8-0.8-1.1-1.9-1.1-3c0-0.5,0.3-0.5,0.7-0.5c0.4,0,0.4,0.2,0.4,0.5c0,1.1,0.4,2.1,1.1,2.8
							c1.8,1.8,4,2.5,6.5,1.9c1.4-0.4,2.2-1.4,2.4-2.8c0.1-0.5,0.5-0.5,0.8-0.5C139,45,139.1,45.3,139,45.5z M140.3,40.5
							c-0.6,0.1-1.2,0-1.9,0c-0.1,0-0.2-0.1-0.3-0.1c0.1-0.1,0.1-0.2,0.2-0.2c0.4,0,0.7-0.1,1.1-0.1c1.3-0.1,1.7-0.6,1.6-1.8
							c0-0.4-0.1-0.7-0.2-1.1c-0.3-1.2-0.9-1.5-2.1-1.2c-0.8,0.2-1.2,0.1-1.3-0.7c-0.2-1-0.2-2.1-0.3-3.1c0-0.1,0.4-0.3,0.6-0.3
							c0.1,0,0.3,0.2,0.3,0.4c0.2,1.1,0.3,2.2,0.4,3.3c0.7-0.1,1.3-0.2,1.9-0.2c0.5,0,1,0.2,1.1,0.7c0.2,1,0.5,2,0.5,3
							C142.2,39.9,141.5,40.3,140.3,40.5z M146.2,35c-1.3,0.3-2.6,0.1-3.7-0.6c-0.2-0.2-0.4-0.5-0.5-0.8c0.3-0.2,0.5-0.4,0.8-0.5
							c0.2-0.1,0.4,0,0.5,0c1.2,0,2.2,0.3,3.1,0.9c0.2,0.1,0.4,0.4,0.4,0.6C146.7,34.8,146.4,35,146.2,35z"/>
					</g>
					<g>
						<path class="st16" d="M133.5,60.2c-0.8,0-1.6,0.1-2.4,0.1c-0.9,0-1.3-0.3-1.5-1.2c-0.2-1-0.5-2-0.7-3
							c-0.1-0.5-0.3-0.7-0.9-0.5c0.7,2.6,1.3,5.1,2,7.6C132,63.1,132.8,61.7,133.5,60.2z"/>
						<path class="st16" d="M137.5,66.1c-0.8,0.4-1.6,0.7-2.4,1.2c-2.7,1.4-5.7,1.9-8.7,2.1c-0.8,0-1.2-0.3-1.3-1.1
							c-0.1-1.2-0.2-2.4-0.2-3.5c0-1.8,0-3.6,0-5.6c-0.4,1.8-0.9,3.4-1.2,5.1c-0.6,3.6-1.2,7.1-1.8,10.7c-0.2,1.2,0.1,2.2,1.1,2.9
							c1,0.6,2.1,1.3,3.2,1.7c3.4,1.1,6.7,0.5,9.9-0.7c0.7-0.3,1.1-0.6,1.2-1.5c0.6-3.5,0.9-7,0.9-10.5
							C138.4,66.1,138.1,65.9,137.5,66.1z"/>
						<path class="st16" d="M137.6,59.3c0.1,0,0.3-0.1,0.2-0.2c-0.2-1.1-0.4-2.2-0.6-3.2c0-0.1-0.2-0.1-0.4-0.2c0,0-0.2,0.2-0.2,0.3
							c0,1,0,2.1,0,3.2C136.9,59.2,137.2,59.3,137.6,59.3z"/>
					</g>
					<g>
						<path d="M157,56.6c0.3-0.5,1.1-0.8,0.6-1.5c-0.3-0.5-0.8-0.8-1.2-1.3c0.4-1-0.1-1.8-1.4-2.2c-0.1,0-0.2-0.1-0.3-0.2
							c-0.6-0.7-1.3-1.3-2.2-1.2c-0.4,0-0.8,0.3-1,0.6c-0.6,0.7-1,1.5-1.5,2.2c-0.1,0.1-0.2,0.2-0.4,0.3c-1.6,0.9-1.8,1.4-1.5,2.9
							c0.1,0.5,0.2,1.1,0.2,1.7c0,0.1,0,0.2-0.1,0.3c-1,0.8-2,1.7-3,2.5c-0.1,0-0.3,0-0.4-0.1c-1.5-1.3-3-2.7-4.5-4
							c-0.3-0.3-0.6-0.6-0.9-0.9c1-0.1,2-0.2,3-0.4c0.9-0.2,1.8-0.4,2.7-0.6c1.6-0.5,2.5-1.7,3.2-3c1.4-2.6,2.1-5.4,2.4-8.3
							c0.9-8.4,0-16.6-2.7-24.5c-0.1-0.2-0.1-0.4,0-0.5c0.5-1,0.4-1.9-0.2-2.8c-1.1-1.6-2.6-2.6-4.4-3.3c-2-0.8-4.1-1.1-6.2-1.3
							c-0.2,0-0.4,0-0.6-0.1c-0.6,0-1.2,0-1.8,0c-0.1,0-0.3,0-0.4,0.1c-3.9,0.2-7.6,1.1-11.1,3c-5.9,3.1-9.3,7.9-9.2,14.7
							c0.1,3.8,0.7,7.5,1.6,11.2c0.1,0.4,0.1,0.5-0.3,0.6c-0.7,0.1-1.2,0.7-1.3,1.4c-0.3,1.6,0,3.2,0.7,4.7c0.3,0.8,1,1.2,1.8,1.2
							c0.7,0,1.4,0,2.1-0.1c0.3,0,0.4,0,0.5,0.3c0.5,1.6,1,3.1,1.5,4.7c0.3,0.9,0.9,1.5,1.9,1.8c0.8,0.2,1.6,0.5,2.3,0.7
							c-0.7,2.9-1.6,5.8-2.2,8.7c-0.7,3.4-1.1,6.9-1.8,10.3c-0.4,1.9-0.2,3.3,1.6,4.3c0.1,0,0.1,0.2,0.1,0.3c0,0.4-0.1,0.7-0.1,1.1
							c-0.1,1.9-0.3,3.8-0.2,5.8c0,0.8,0.2,1.5,0,2.3c-0.1,0.2-0.1,0.4-0.1,0.6c-0.2,1.4,0.3,2.3,1.5,2.5c0.5,0.1,1,0,1.5-0.1
							c1.1-0.3,1.7-1.5,1.5-3.1c-0.1-0.8-0.1-1.4,0.2-2.2c0.5-1.6,0.8-3.2,1.3-4.8c0-0.1,0.2-0.3,0.4-0.3c0.6,0,1.2,0,1.8,0
							c0.4,0,0.5,0.1,0.5,0.4c0.1,1,0.1,2,0.3,3c0.1,0.8,0.1,1.6,0.5,2.2c0.7,1.2,1.8,1.9,3.1,2.1c0.8,0.1,1.5,0,2-0.8
							c0.4-0.7,0.1-1.3-0.3-1.9c-0.3-0.5-0.7-1-1.1-1.4c-0.1-0.1-0.1-0.3-0.1-0.5c0.2-1,0.5-2,0.7-3.1c0.1-0.9,0.4-1.4,1.3-1.7
							c1.2-0.3,1.7-1.2,1.7-2.5c0-0.4,0.1-0.7,0.1-1.1c0.2-3,0.4-6,0.7-9c0-0.3,0.2-0.6,0.3-0.8c0.1-0.3,0.1-0.6,0.1-0.9
							c0-0.1-0.1-0.2,0-0.3c0.5-0.6,0.4-1.1-0.1-1.6c0.2,0,0.3,0.1,0.4,0.2c1,1.1,1.9,2.3,2.9,3.4c0.7,0.9,1.4,1,2.4,0.6
							c0.6-0.3,1.3-0.6,1.9-1c3.8-2.2,7.2-4.9,10.6-7.8c0.1-0.1,0.1-0.1,0.2-0.2c0-0.1,0-0.2,0-0.2C158.1,57.1,157.7,56.6,157,56.6z
							 M156.2,54.8c0.1,0.3,0.4,0.8,0.3,1c-0.4,0.6-1,1.1-1.5,1.6c0,0-0.2,0.1-0.2,0c-0.1-0.2-0.3-0.4-0.4-0.6
							c0.1-0.2,0.2-0.4,0.3-0.6c0.3-0.4,0.7-0.8,1.1-1.2C155.9,54.9,156.1,54.9,156.2,54.8z M154.3,52.7c0.1-0.1,0.3-0.2,0.5-0.3
							c0.2,0.4,0.7,0.9,0.6,1.2c-0.3,0.7-0.8,1.2-1.3,1.9c-0.2-0.2-0.3-0.4-0.4-0.5c-0.7-0.5-0.5-0.9,0-1.4
							C153.9,53.2,154.1,52.9,154.3,52.7z M151.1,52.9c0.4-0.7,0.9-1.4,1.3-2.1c0,0,0.1-0.1,0.2-0.2c0.4,0.3,0.8,0.6,1.1,1
							c0.1,0.2-0.1,0.5-0.2,0.8c0,0,0,0,0,0.1c-0.9,1.2-0.9,1.2-2.3,0.5C151.1,53,151.1,52.9,151.1,52.9z M115.7,27.1
							c0-4.5,2.1-8.1,5.5-10.9c4.5-3.7,9.7-5.2,15.5-4.8c2.5,0.2,5,0.6,7.1,1.9c0.9,0.6,1.8,1.4,2.5,2.2c0.9,1.1,0.7,2.2-0.4,3.1
							c-2.2,2.1-4.9,3.4-7.7,4.5c-0.1,0-0.1,0-0.2,0c0.2-0.7,0.3-1.4,0.5-2c0.1-0.4,0.1-0.8,0.1-1.1c0-0.3-0.2-0.9-0.3-0.9
							c-0.4,0-1,0.1-1.3,0.3c-1.5,1.1-2.8,2.4-4.3,3.3c-1.5,1-3.2,1.6-5,2.5c0.2-1,0.4-1.7,0.5-2.4c0.1-0.3,0.1-0.7,0-1
							s-0.3-0.8-0.5-0.8c-0.4,0-1,0.1-1.2,0.3c-1.8,1.9-3.6,3.6-5.9,4.9c-0.8,0.4-1.1,1-1.1,1.9c-0.3,2.8-0.6,5.6-1,8.5
							c-0.1,1.1-0.3,2.2-0.4,3.2c0,0.1-0.1,0.3-0.2,0.4c-0.2-0.1-0.5-0.2-0.5-0.4c-0.4-1.9-0.9-3.8-1.1-5.7
							C115.9,31.9,115.7,29.5,115.7,27.1z M123.9,53.9c-0.8-0.3-1.4-0.8-1.7-1.6c-0.6-1.7-1.1-3.4-1.6-5.2c-0.1-0.4-0.3-0.6-0.7-0.5
							c-0.6,0.1-1.2,0.3-1.9,0.4c-0.9,0.2-1.6-0.2-1.9-1c-0.5-1.4-0.8-2.9-0.6-4.4c0.1-0.4,0.3-0.7,0.7-0.6c0.5,0.1,0.9,0.4,1.4,0.5
							c0.4,0.1,0.8,0.2,1.2,0.1c0.2,0,0.4-0.4,0.4-0.7c0.5-4.1,1.1-8.2,1.5-12.3c0.1-1.4,0.7-2,1.7-2.6c1.3-0.8,2.4-1.9,3.6-2.8
							c0.2-0.1,0.3-0.3,0.5-0.4h0.1c-0.2,0.9-0.4,1.8-0.7,2.7c-0.1,0.5,0,0.7,0.5,0.6c1.2-0.3,2.4-0.6,3.5-1.1c2.6-1,4.9-2.3,7.1-4
							c-0.2,0.9-0.5,1.8-0.7,2.6c-0.2,0.7-0.1,0.9,0.5,0.7c1.4-0.4,2.8-0.8,4.2-1.5c1.9-0.9,3.8-2.1,5.7-3.1
							c0.3,0.9,0.6,2.1,0.9,3.2c1.4,5.6,2.1,11.3,1.8,17c-0.2,3.5-0.6,7-2,10.3c-0.2,0.4-0.4,0.7-0.5,1.1c-1.1,2.4-3.1,3.2-5.6,3.4
							c-3.3,0.2-6.5,0.4-9.8,0.5C129.1,55.2,126.4,54.8,123.9,53.9z M137.8,59.2l-0.2,0.2c-0.3,0-0.6-0.1-0.9-0.1c0-1.1,0-2.1,0-3.2
							c0-0.1,0.1-0.3,0.2-0.3c0.1,0,0.4,0.1,0.4,0.2C137.4,57,137.6,58.1,137.8,59.2z M128.6,64.3c0.9-0.2,1.8-0.5,2.8-0.8
							c0.1,0,0.3-0.1,0.5-0.2c0.1,1.7,1,2.9,2.1,4.1c-1.3,0.4-2.5,0.8-3.7,1.1c-1,0.2-2,0.3-3,0.4c-0.6,0.1-1.1-0.2-1.1-1
							c-0.1-2.5-0.2-4.9-0.2-7.4c0-1.7,0.1-3.4,0.2-5.1c0.5-0.1,0.8,0.1,1,0.7c0.5,2.2,1,4.4,1.5,6.6c0.1,0.3,0.2,0.7,0.3,1.1
							c-0.2,0-0.4,0.1-0.5,0.1c-0.2,0.1-0.3,0.2-0.4,0.3C128.3,64.2,128.5,64.3,128.6,64.3z M130.1,63.3c-0.7-2.5-1.3-5-2-7.6
							c0.6-0.1,0.8,0,0.9,0.5c0.2,1,0.4,2,0.7,3c0.2,0.9,0.6,1.2,1.5,1.2c0.8,0,1.6-0.1,2.4-0.1C132.8,61.7,132,63.1,130.1,63.3z
							 M129.8,55.7c0.8,0,1.5,0,2.4,0c-0.5,0.7-1,1.3-1.5,1.9C130.4,57,130.1,56.4,129.8,55.7z M131.9,59.7c-0.6,0-1.2-0.7-1.1-1.2
							c0-0.1,0.2-0.3,0.3-0.4c0.6-0.8,1.3-1.6,1.9-2.4c0.5,0.8,1,1.6,1.5,2.3c0.1,0.1,0.2,0.2,0.4,0.3c0.1,0.1,0.4,0.1,0.4,0.2
							c0,0.3,0,0.7-0.5,0.7c-0.1,0-0.2,0-0.3,0.1C133.8,60,132.8,59.6,131.9,59.7z M135.1,57.5c-0.4-0.6-0.8-1.2-1.2-1.8
							c0.6,0,1.2,0,1.7,0c0,0,0.1,0.2,0.1,0.3C135.6,56.6,135.4,57,135.1,57.5z M125.2,89.8c-0.1,0.3-0.5,0.7-0.9,0.7
							c-0.3,0-0.7-0.2-1-0.5c-0.5-0.5-0.5-2.3-0.1-2.9c0-0.1,0.2-0.1,0.3-0.1c0.4,0,0.9,0.1,1.3,0.1c0.5-0.1,0.6,0.1,0.5,0.5
							c0,0.2,0,0.4,0,0.5c0,0,0,0,0.1,0C125.5,88.8,125.5,89.4,125.2,89.8z M127,80.6c-0.4,1.7-0.9,3.5-1.3,5.2
							c-0.1,0.6-0.4,0.9-1.1,0.9c-0.8-0.1-1.3-0.5-1.3-1.2c0-1.6,0.1-3.2,0.1-4.7c0-0.5,0.1-1.1,0.1-1.5c1.1,0.3,2.2,0.6,3.3,1
							C127,80.3,127,80.5,127,80.6z M132,83.9c-0.1-1.1-0.2-2.2-0.3-3.4c0-0.1,0.2-0.2,0.2-0.2c1-0.2,2-0.4,3-0.6
							c-0.3,1.4-0.6,2.9-1,4.2c-0.2,0.6-0.8,0.4-1.3,0.4C132.4,84.4,132.1,84.4,132,83.9z M135.7,86.6c0,0.9-0.4,1.3-1,1.1
							c-1.1-0.4-1.9-1.1-2.4-2.2c-0.1-0.3-0.1-0.5,0.3-0.5c0.3,0,0.7,0,1-0.2c0.6-0.3,0.9-0.1,1.2,0.4
							C135.2,85.8,135.5,86.3,135.7,86.6z M137.5,77.2c-0.1,0.8-0.5,1.2-1.2,1.5c-3.2,1.3-6.5,1.9-9.9,0.7c-1.1-0.4-2.2-1-3.2-1.7
							c-1.1-0.6-1.4-1.6-1.1-2.9c0.7-3.6,1.2-7.1,1.8-10.7c0.3-1.7,0.7-3.3,1.2-5.1c0,2,0,3.8,0,5.6c0,1.2,0.1,2.4,0.2,3.5
							c0.1,0.8,0.4,1.1,1.3,1.1c3-0.1,6-0.6,8.7-2.1c0.8-0.4,1.6-0.8,2.4-1.2c0.5-0.2,0.8,0,0.8,0.6
							C138.4,70.2,138.1,73.7,137.5,77.2z M139.4,62.4c0,0.1-0.3,0.1-0.5,0.1c-0.7,0-1.3,0-2,0c-0.2,0-0.3,0.2-0.4,0.3
							c0.1,0.1,0.3,0.1,0.4,0.2c0.6,0,1.1,0,1.7,0.1c0.3,0,0.6,0.2,0.7,0.4c0.2,0.4,0,0.7-0.5,0.7c-0.6,0-1.2,0.1-1.7,0.1
							c-0.1,0-0.2,0.2-0.3,0.2c0.1,0.1,0.2,0.2,0.3,0.2c0.5,0,1.1,0,1.6,0c0.1,0,0.4,0.2,0.4,0.3c0,0.2-0.2,0.4-0.3,0.6
							c0,0-0.2,0.1-0.2,0c-1.2-0.3-2.1,0.3-3,0.9c-0.6,0.4-1,0.3-1.4-0.2c-0.7-0.9-1.1-1.9-1.2-3.1c0-0.1,0-0.2,0.1-0.3
							c0.6-1,1.2-2,1.8-3c0.1-0.1,0.3-0.3,0.4-0.3c1.2,0.2,2.4,0.5,3.5,0.8c0.2,0,0.3,0.3,0.5,0.5c-1.2,0.1-2.3-0.5-3.4,0.2
							c0.4,0,0.8,0.1,1.2,0.1c0.5,0.1,1,0.1,1.5,0.2c0.2,0,0.5,0.2,0.6,0.4C139.4,61.9,139.4,62.2,139.4,62.4z M151.9,62.2
							c-2,1.3-4.1,2.7-6.1,4c-0.4,0.3-0.8,0.4-1.1-0.1c-1.4-1.7-3-3.3-4.3-5.1c-0.4-0.5-0.6-1-1.1-1.4c-0.2-0.2-0.2-0.6-0.2-1
							c-0.1-0.7-0.3-1.5-0.4-2.3c0.8,0.7,1.5,1.4,2.2,2c1,0.9,2,1.8,3,2.6c0.9,0.8,1.6,0.9,2.6,0.2c0.4-0.3,0.8-0.6,1.2-0.9
							c0.4-0.3,0.7-0.7,1-1.1c1,1.4,2.2,2.3,3.8,2.8C152.1,62,152,62.1,151.9,62.2z M153.3,61.4c-0.1,0.1-0.3,0-0.4,0
							c-1.5-0.6-2.7-1.7-3.5-3.1c-0.7-1.2-0.6-3.5,0.3-4.3c0.5-0.5,1-0.6,1.6-0.1c0.6,0.4,1.1,0.9,1.6,1.4c0.2,0.2,0.3,0.6,0.3,0.9
							c0,0.3-0.3,0.5-0.5,0.7c0,0-0.3-0.2-0.5-0.3c-0.3-0.3-0.6-0.5-0.9-0.8c-0.1-0.1-0.3-0.2-0.4-0.2c-0.2,0-0.5,0.1-0.7,0.2
							c0.1,0.2,0.2,0.3,0.3,0.5c0.2,0.2,0.5,0.5,0.8,0.7c1,0.9,1,0.8,2,0.3c0.5,0.4,0.9,0.7,1.3,1c-0.3,0.6,0.2,0.9,0.8,1.4
							C154.7,60.2,154,60.8,153.3,61.4z M157.1,58.1c-0.3,0.2-0.5,0.4-0.9,0.6c-0.1,0.1-0.5,0.1-0.5,0c-0.1-0.2-0.1-0.5,0-0.6
							c0.2-0.3,0.5-0.4,0.7-0.6c0.1-0.1,0.4-0.2,0.4-0.2c0.2,0.2,0.3,0.4,0.5,0.6C157.2,58,157.2,58.1,157.1,58.1z"/>
						<path d="M135.2,48.8c2-0.3,3.5-1.5,3.9-3.3c0-0.2-0.1-0.6-0.2-0.6c-0.4-0.1-0.7-0.1-0.8,0.5c-0.2,1.4-1,2.4-2.4,2.8
							c-2.5,0.7-4.7,0-6.5-1.9c-0.8-0.8-1.1-1.7-1.1-2.8c0-0.3,0-0.5-0.4-0.5c-0.3,0-0.7,0-0.7,0.5c0,1.1,0.3,2.2,1.1,3
							c1.5,1.7,3.6,2.3,5.9,2.4C134.3,48.9,134.7,48.9,135.2,48.8z"/>
						<path d="M138.8,36c1.2-0.3,1.8,0,2.1,1.2c0.1,0.4,0.2,0.7,0.2,1.1c0.2,1.3-0.3,1.8-1.6,1.8c-0.4,0-0.7,0-1.1,0.1
							c-0.1,0-0.1,0.2-0.2,0.2c0.1,0,0.2,0.1,0.3,0.1c0.6,0,1.3,0,1.9,0c1.2-0.1,1.8-0.6,1.8-1.5c0-1-0.3-2-0.5-3
							c-0.1-0.5-0.6-0.8-1.1-0.7c-0.6,0-1.2,0.1-1.9,0.2c-0.1-1.1-0.2-2.2-0.4-3.3c0-0.1-0.3-0.4-0.3-0.4c-0.2,0.1-0.7,0.2-0.6,0.3
							c0,1,0.1,2.1,0.3,3.1C137.6,36,138,36.2,138.8,36z"/>
						<path d="M131,35.9c0.3-0.2,0.4-0.6,0.6-0.9c-0.3-0.2-0.7-0.3-1-0.5c-1.6,0.2-3,0.6-4.3,1.4c-0.3,0.2-0.4,0.5-0.6,0.8
							c0.3,0.2,0.6,0.3,0.9,0.5c0.1,0,0.2,0,0.2,0C128.5,37.2,129.9,36.8,131,35.9z"/>
						<path d="M142.7,33.2c-0.3,0.1-0.5,0.3-0.8,0.5c0.2,0.3,0.3,0.6,0.5,0.8c1.1,0.7,2.4,0.9,3.7,0.6c0.2,0,0.5-0.2,0.5-0.4
							s-0.2-0.4-0.4-0.6c-0.9-0.6-1.9-0.9-3.1-0.9C143.1,33.1,142.8,33.1,142.7,33.2z"/>
						<path d="M130.8,31c0.3,0.1,0.7,0,1,0c0.1,0,0.2-0.2,0.3-0.2c-0.1-0.1-0.2-0.1-0.3-0.2c-0.9-0.3-1.8-0.6-2.8-0.8
							c-0.6-0.2-1.2-0.4-1.7-0.5c-0.2,0-0.3,0-0.4,0c-0.2,0.1-0.3,0.2-0.5,0.3c0.2,0.1,0.3,0.2,0.5,0.3
							C128.2,30.2,129.5,30.6,130.8,31z"/>
						<path d="M141.1,30.1c1.3-0.8,2.7-1.6,4-2.4c0-0.1,0-0.1-0.1-0.2c-0.3,0.1-0.7,0-1,0.2c-1.1,0.6-2.1,1.3-3.2,1.9
							c-0.1,0.1-0.2,0.2-0.3,0.3C140.7,30.1,141,30.2,141.1,30.1z"/>
					</g>
				</g>
			</g>
		</g>
	</g>
</g>
<g>
	<path class="st9" d="M446.3,79.9l-9.8,9.1h10.6l16.2-15h-10.7L446.3,79.9L446.3,79.9L446.3,79.9z M497.1,79.9l-9.8,9.1h10.5L514,74
		h-10.7L497.1,79.9L497.1,79.9L497.1,79.9z M478.1,74l-16.3,15h10.7l16.3-15H478.1z M427.3,74l-16.2,15h10.7L438,74H427.3z
		 M142,79.9l-9.8,9.1h10.6L159,74h-10.7L142,79.9L142,79.9z M123,74l-16.2,15h10.7l16.2-15H123z M192.7,79.9l-9.8,9.1h10.6l16.2-15
		H199L192.7,79.9L192.7,79.9z M173.7,74l-16.2,15h10.7l16.2-15H173.7z M91.3,79.9L81.4,89H92l16.2-15H97.5l-6.3,5.8v0.1H91.3z
		 M40.5,79.9L30.7,89h10.6l16.2-15H46.8L40.5,79.9L40.5,79.9z M72.3,74L56,89h10.7L83,74H72.3z M325.9,74l-16.2,15h10.7l16.2-15
		H325.9z M344.9,79.9l-9.8,9.1h10.7L362,74h-10.7l-6.3,5.8L344.9,79.9L344.9,79.9z M395.6,79.9l-9.8,9.1h10.6l16.2-15h-10.7
		L395.6,79.9L395.6,79.9L395.6,79.9z M376.6,74l-16.2,15h10.7l16.2-15H376.6z M224.4,74l-16.2,15h10.7l16.2-15H224.4z M243.4,79.9
		l-9.8,9.1h10.6l16.2-15h-10.7L243.4,79.9L243.4,79.9L243.4,79.9z M294.2,79.9l-9.8,9.1H295l16.2-15h-10.7L294.2,79.9L294.2,79.9
		L294.2,79.9z M275.2,74L259,89h10.7l16.2-15H275.2z M-10.2,79.8V89h0.8L6.8,74H-3.9L-10.2,79.8z M21.5,74L5.3,89H16l16.2-15H21.5z"
		/>
</g>
<line class="st17" x1="0" y1="77.5" x2="522.2" y2="77.5"/>
</svg>
