<?xml version="1.0" encoding="utf-8"?>
<!-- Generator: Adobe Illustrator 24.0.1, SVG Export Plug-In . SVG Version: 6.00 Build 0)  -->
<svg version="1.1" id="レイヤー_1" xmlns="http://www.w3.org/2000/svg" xmlns:xlink="http://www.w3.org/1999/xlink" x="0px"
	 y="0px" viewBox="0 0 170.1 170.1" style="enable-background:new 0 0 170.1 170.1;" xml:space="preserve">
<style type="text/css">
	.st0{fill:#F3EB34;stroke:#000000;stroke-width:3;stroke-miterlimit:10;}
	.st1{fill:#FFFFFF;stroke:#000000;stroke-miterlimit:10;}
</style>
<circle class="st0" cx="85" cy="85" r="80.7"/>
<circle class="st1" cx="85" cy="85" r="72.4"/>
<g>
	<path d="M60,67.5c0-0.8-0.1-1.5-0.1-2.2c-10.3,9.2-20.3,10.6-20.7,10.6c-1.4,0-2.3-1.3-2.3-2.5c0-1,0.5-1.9,1.7-2.2
		c6-1.4,14.5-4.7,20.5-11.1c-0.3-1-0.6-1.9-0.9-2.7c-9,7.7-17.7,9.2-18,9.2c-1.4,0-2.2-1.3-2.2-2.5c0-1,0.6-2,1.7-2.3
		c5.6-1.2,11.3-3.5,16.7-7.9c-0.6-0.7-1.2-1.5-1.7-2c-7,4.1-12.9,5.6-13.7,5.6c-1.4,0-2.2-1.3-2.2-2.5c0-1,0.6-2,1.8-2.2
		c5-0.9,9.5-2.5,14.2-5.3H45c-1.4,0-2.1-1.2-2.1-2.3c0-1.2,0.7-2.3,2.1-2.3h29.7c1.4,0,2.1,1.1,2.1,2.3c0,1.1-0.7,2.3-2.1,2.3h-6.5
		c0.3,3.1,1.1,6.4,2.1,10c2.5-1.5,5.1-3.8,6.9-6.1c0.4-0.6,0.9-0.8,1.4-0.8c1.2,0,2.3,1.5,2.3,2.7c0,0.5-0.1,0.9-0.4,1.2
		c-2.6,2.8-5,4.7-8.6,7c2.2,4.7,5,7,9.7,10.1c0.8,0.5,1.1,1.2,1.1,1.9c0,1.4-1.2,2.8-2.5,2.8c-0.3,0-0.7-0.1-1-0.3
		C68,68.9,65.4,58.1,64,47.6h-3c-0.8,0.8-1.7,1.5-2.6,2.2c2.7,3.1,6.1,9.2,6.1,18.4c0,5.7-1.1,9.9-6.6,9.9c-1.3,0-2.9-0.3-4.8-0.8
		c-0.9-0.3-1.3-1.3-1.3-2.2c0-1.2,0.6-2.3,1.8-2.3c0.2,0,0.4,0,0.6,0.1c1.3,0.4,2.3,0.5,3.1,0.5c2.8,0,2.7-2.1,2.8-5.2L60,67.5
		L60,67.5z M81.3,42.6c0,1.1-1.1,1.7-2.3,1.7c-1.1,0-2.3-0.6-2.3-1.7v-2.1c0-0.5-0.6-0.8-1.1-0.8H43.3c-0.5,0-0.8,0.3-0.8,0.8v2.1
		c0,1.1-1.1,1.7-2.3,1.7c-1.1,0-2.3-0.6-2.3-1.7V39c0-2.4,1.2-3.7,3.7-3.7h15v-1.2c0-1.4,1.4-2.1,2.8-2.1c1.4,0,2.8,0.7,2.8,2.1v1.2
		h15.2c2.4,0,3.7,1.2,3.7,3.7v3.6H81.3z"/>
	<path d="M95.6,40.1c-0.5,0-0.8,0.3-0.8,0.8v4.3c0,17.3-0.2,23.3-2.8,31.2c-0.4,1-1.1,1.4-1.8,1.4c-1.3,0-2.6-1.1-2.6-2.5
		c0-0.3,0.1-0.6,0.2-0.9c2.4-6.7,2.6-12.5,2.6-29.2v-6c0-2.4,1.2-3.7,3.7-3.7h15.2v-1.3c0-1.4,1.3-2.1,2.7-2.1
		c1.3,0,2.6,0.7,2.6,2.1v1.3h15.7c1.4,0,2,1.1,2,2.3c0,1.1-0.7,2.3-2,2.3C130.3,40.1,95.6,40.1,95.6,40.1z M131.2,71.9
		c1.4,0,2.1,1.2,2.1,2.4c0,1.3-0.8,2.6-2.6,2.8c-2.2,0.2-5.6,0.3-8.8,0.3c-7.9,0-12.6-0.4-17.2-3.7c-2.2,2.2-5.4,4.2-6.6,4.2
		c-1.4,0-2.6-1.4-2.6-2.7c0-0.7,0.3-1.4,1.1-1.8c1.9-1.1,3.5-2.1,4.7-3.1c-1.6-2-3.5-5.3-3.5-6.5c0-1.4,1.4-2.4,2.7-2.4
		c0.7,0,1.4,0.4,1.7,1.3c0.6,1.5,1.2,2.8,2,4c1-1.9,1.3-4,1.3-6.8c0-0.2-0.2-0.5-0.4-0.5h-4.8c-1.8,0-2.8-1.2-2.8-2.7
		c0-0.8,0.3-1.6,0.9-2.3c1.8-2,5.8-6.6,5.8-6.6h-5.6c-1.4,0-2.1-1.2-2.1-2.3c0-1.2,0.7-2.3,2.1-2.3h8.2c2.7,0,3.5,1.2,3.5,2.4
		c0,0.8-0.4,1.7-0.8,2.2c-1.4,1.8-5.8,6.9-5.8,6.9h3.4c2.6,0,3.4,1.3,3.4,3.1v0.4c-0.3,4.9-1,8.6-2.7,11.7c2.7,1.9,6.3,2.7,10.3,2.7
		h0.4c4.4-0.1,9.2-0.3,12.6-0.8L131.2,71.9L131.2,71.9z M114.4,69.3c-1.4,0-2.1-1.2-2.1-2.3c0-1.2,0.7-2.3,2.1-2.3h5.4v-6.5h-6.5
		c-1.4,0-2.1-1.2-2.1-2.3c0-1.2,0.7-2.3,2.1-2.3h6.5V48c-1.7,0.2-3.6,0.3-5.7,0.4H114c-1.3,0-2.3-1.4-2.3-2.7c0-0.9,0.5-1.7,1.8-1.8
		c7.8-0.3,13.3-1.4,15.6-1.8c0.1,0,0.2-0.1,0.3-0.1c1.3,0,2.4,1.4,2.4,2.7c0,1.5-0.6,1.8-7.3,2.7v6.2h6.7c1.4,0,2.1,1.1,2.1,2.3
		c0,1.1-0.7,2.3-2.1,2.3h-6.7v6.5h5.7c1.4,0,2.1,1.1,2.1,2.3c0,1.1-0.7,2.3-2.1,2.3C130.2,69.3,114.4,69.3,114.4,69.3z"/>
	<path d="M41.5,112.4l-0.9,1.2c-0.4,0.5-0.8,0.7-1.3,0.7c-1.3,0-2.5-1.8-2.5-3.4c0-0.5,0.2-1,0.5-1.4c2.8-3.5,5.5-9.7,6.9-15.8
		c0.3-1,1.2-1.5,2.2-1.5c1.2,0,2.4,0.7,2.4,2.1c0,1.1-1.2,5.2-2.5,8.7v32.8c0,1.4-1.1,2.1-2.3,2.1s-2.5-0.8-2.5-2.1
		C41.5,135.8,41.5,112.4,41.5,112.4z M54.1,107.6c-0.4,0-0.5,0.3-0.5,0.7v9.5c0,5-0.2,11.3-1.6,16.7c-0.3,1.1-1.1,1.5-1.9,1.5
		c-1.4,0-2.8-1.2-2.8-2.7c0-0.3,0-0.5,0.1-0.8c1.4-4.4,1.5-10.5,1.5-15.3V108c0-3.7,1.5-4.7,4.7-4.7h3.8c-1-0.2-1.8-0.9-1.8-1.9
		v-1.3h-5c-1.4,0-2.1-1.1-2.1-2.2s0.7-2.2,2.1-2.2h5v-1.4c0-1.4,1.2-2.1,2.4-2.1s2.4,0.7,2.4,2.1v1.4h9.1v-1.4
		c0-1.4,1.2-2.1,2.4-2.1c1.2,0,2.4,0.7,2.4,2.1v1.4h5c1.4,0,2.1,1.1,2.1,2.2s-0.7,2.2-2.1,2.2h-5v1.4c0,1-0.8,1.6-1.8,1.8h8
		c1.4,0,2.1,1.1,2.1,2.1c0,1.1-0.7,2.2-2.1,2.2H54.1z M76.6,128h-6.2v6.6c0,1.2-1.1,1.8-2.2,1.8s-2.2-0.6-2.2-1.8V128h-5.9v8.1
		c0,1.2-1.1,1.7-2.3,1.7c-1.1,0-2.3-0.6-2.3-1.7v-23.4c0-2,1-2.9,2.9-2.9h19.9c2,0,2.9,1,2.9,2.9v19.5c0,3.1-0.5,5.2-4.7,5.2
		c-3.7,0-5.3-0.6-5.3-2.5c0-1.1,0.8-2.3,2.1-2.3c0.2,0,0.4,0,0.6,0.1c0.8,0.2,1.3,0.3,1.7,0.3c0.9,0,1.1-0.4,1.1-1.3V128H76.6z
		 M69.4,100.1h-9.1v1.2c0,1.2-0.8,1.8-1.7,2h12.6c-1-0.2-1.8-0.8-1.8-1.9V100.1z M65.9,114.2h-5.3c-0.4,0-0.6,0.2-0.6,0.6v2.4h5.9
		V114.2z M65.9,120.9H60v3.5h5.9V120.9z M76.6,114.8c0-0.4-0.2-0.6-0.6-0.6h-5.6v3h6.2V114.8z M76.6,120.9h-6.2v3.5h6.2V120.9z"/>
	<path d="M111.9,105.6c-1.9,1.5-4.4,3.2-6.6,4.6c1.4,0.7,2.6,1.4,3.4,1.7c3-1.6,7.1-4.2,9.2-5.8c0.3-0.3,0.7-0.4,1.1-0.4
		c1.2,0,2.5,1.1,2.5,2.2c0,0.5-0.3,1-0.9,1.5c-1.7,1.1-4.5,2.6-6.7,3.4c4-0.2,7.8-0.3,10.2-0.5c-0.4-0.4-0.8-0.8-1.2-1.2
		c-0.4-0.4-0.6-0.9-0.6-1.3c0-1.1,1.3-2.1,2.5-2.1c0.4,0,0.8,0.1,1.1,0.4c2.7,2.3,5.2,5,6.8,7c0.4,0.5,0.6,1,0.6,1.4
		c0,1.3-1.2,2.4-2.3,2.4c-0.6,0-1.1-0.3-1.5-0.8c-0.6-0.8-1.1-1.4-1.7-2.1c-4.8,0.4-21.1,1.1-35.4,1.1h-2.5c-1.4,0-2.2-1.3-2.2-2.4
		c0-1,0.6-1.9,1.9-1.9h0.1c4.8,0.2,9.8,0.2,13.8,0.2c-2.9-1.2-5.5-2.2-8.3-3.1c-1-0.3-1.3-0.9-1.3-1.6c0-1.2,1.3-2.5,2.5-2.5
		c0.2,0,0.5,0,5.1,2.3c1.1-0.7,2.5-1.5,3.9-2.5H90.1c-1.3,0-2-1.1-2-2.1c0-1.1,0.7-2.1,2-2.1h17.8V101c0-1.4,1.3-2.1,2.5-2.1
		c1.3,0,2.5,0.7,2.5,2.1v0.4h17.8c1.4,0,2,1,2,2.1c0,1-0.7,2.1-2,2.1C130.7,105.6,111.9,105.6,111.9,105.6z M122.5,98.9v0.4
		c0,1.4-1.1,2.1-2.3,2.1c-1.1,0-2.3-0.7-2.3-2.1v-0.4h-15v0.4c0,1.4-1.1,2.1-2.3,2.1c-1.1,0-2.3-0.7-2.3-2.1v-0.4h-8.7
		c-1.3,0-2-1.1-2-2.1s0.7-2.1,2-2.1h8.7v-0.4c0-1.4,1.2-2.1,2.3-2.1c1.2,0,2.3,0.7,2.3,2.1v0.4h15v-0.4c0-1.4,1.2-2.1,2.3-2.1
		c1.2,0,2.3,0.7,2.3,2.1v0.4h8.8c1.3,0,2,1.1,2,2.1c0,1.1-0.7,2.1-2,2.1H122.5z M93.8,136.8c-2.4,0-3.7-1.2-3.7-3.7v-11
		c0-2.4,1.2-3.7,3.7-3.7H127c2.4,0,3.7,1.2,3.7,3.7v11c0,2.4-1.2,3.7-3.7,3.7H93.8z M108.1,122.8H95.5c-0.5,0-0.8,0.3-0.8,0.8v2
		h13.4V122.8z M108.1,129.4H94.7v2.3c0,0.5,0.3,0.8,0.8,0.8h12.6V129.4z M126.1,123.5c0-0.5-0.3-0.8-0.8-0.8h-12.7v2.8h13.5V123.5z
		 M126.1,129.4h-13.5v3.1h12.7c0.5,0,0.8-0.3,0.8-0.8V129.4z"/>
</g>
</svg>
