<?xml version="1.0" encoding="utf-8"?>
<!-- Generator: Adobe Illustrator 24.0.1, SVG Export Plug-In . SVG Version: 6.00 Build 0)  -->
<svg version="1.1" id="レイヤー_1" xmlns="http://www.w3.org/2000/svg" xmlns:xlink="http://www.w3.org/1999/xlink" x="0px"
	 y="0px" viewBox="0 0 522.3 208.8" style="enable-background:new 0 0 522.3 208.8;" xml:space="preserve">
<style type="text/css">
	.st0{fill:url(#SVGID_1_);}
	.st1{opacity:0.28;clip-path:url(#SVGID_3_);}
	.st2{fill:#FFFFFF;}
	.st3{fill:#040000;}
	.st4{fill:#133C36;}
	.st5{enable-background:new    ;}
	.st6{fill:#FFE501;}
	.st7{fill:#E60000;}
	.st8{fill:#1E1D1D;}
	.st9{fill:none;}
	.st10{fill:#FDE2D6;enable-background:new    ;}
	.st11{fill:#FF9DA6;enable-background:new    ;}
	.st12{fill:#FFE5B0;enable-background:new    ;}
	.st13{fill:#FFFFFF;stroke:#000000;stroke-width:2;stroke-miterlimit:10;}
	.st14{fill:none;stroke:#FFFFFF;stroke-width:2;stroke-miterlimit:10;}
	.st15{fill:none;stroke:#000000;stroke-width:2;stroke-linecap:round;stroke-miterlimit:10;}
</style>
<g id="レイヤー_2_1_">
	
		<linearGradient id="SVGID_1_" gradientUnits="userSpaceOnUse" x1="261.15" y1="2044.8" x2="261.15" y2="1836" gradientTransform="matrix(1 0 0 1 0 -1836)">
		<stop  offset="0" style="stop-color:#FFEC00"/>
		<stop  offset="0.9879" style="stop-color:#FFCE52"/>
	</linearGradient>
	<rect y="0" class="st0" width="522.3" height="208.8"/>
	<g>
		<g>
			<g>
				<g>
					<g>
						<defs>
							<rect id="SVGID_2_" y="0" width="522.3" height="208.8"/>
						</defs>
						<clipPath id="SVGID_3_">
							<use xlink:href="#SVGID_2_"  style="overflow:visible;"/>
						</clipPath>
						<g class="st1">
							<polygon class="st2" points="-25.3,165.6 -58.1,165.6 -5.9,43.2 27,43.2 							"/>
							<polygon class="st2" points="29.2,165.6 -3.6,165.6 48.6,43.2 81.4,43.2 							"/>
							<polygon class="st2" points="83.7,165.6 50.9,165.6 103.1,43.2 135.9,43.2 							"/>
							<polygon class="st2" points="138.2,165.6 105.3,165.6 157.6,43.2 190.4,43.2 							"/>
							<polygon class="st2" points="192.7,165.6 159.8,165.6 212.1,43.2 244.9,43.2 							"/>
							<polygon class="st2" points="247.2,165.6 214.3,165.6 266.6,43.2 299.4,43.2 							"/>
							<polygon class="st2" points="301.7,165.6 268.8,165.6 321,43.2 353.9,43.2 							"/>
							<polygon class="st2" points="356.2,165.6 323.3,165.6 375.5,43.2 408.4,43.2 							"/>
							<polygon class="st2" points="410.7,165.6 377.8,165.6 430,43.2 462.9,43.2 							"/>
							<polygon class="st2" points="465.2,165.6 432.3,165.6 484.5,43.2 517.4,43.2 							"/>
							<polygon class="st2" points="519.6,165.6 486.8,165.6 539,43.2 571.9,43.2 							"/>
						</g>
					</g>
				</g>
			</g>
		</g>
	</g>
</g>
<g>
	<path class="st3" d="M455.5-0.7L445.8,9h10.6l16.2-16h-10.7l-6.3,6.2L455.5-0.7L455.5-0.7z M506.3-0.7L496.5,9H507l16.2-16h-10.7
		l-6.3,6.2L506.3-0.7L506.3-0.7z M487.3-7L471,9h10.7L498-7H487.3z M436.5-7L420.3,9H431l16.2-16H436.5z M151.2-0.7L141.4,9H152
		l16.2-16h-10.7l-6.3,6.2V-0.7z M132.2-7L116,9h10.7l16.2-16H132.2z M201.9-0.7L192.1,9h10.6l16.2-16h-10.7l-6.3,6.2L201.9-0.7
		L201.9-0.7z M182.9-7L166.7,9h10.7l16.2-16H182.9z M100.5-0.7L90.6,9h10.6l16.2-16h-10.7l-6.3,6.2v0.1
		C100.4-0.7,100.5-0.7,100.5-0.7z M49.7-0.7L39.9,9h10.6L66.7-7H56l-6.3,6.2V-0.7z M81.5-7L65.2,9h10.7L92.2-7H81.5z M335.1-7
		L318.9,9h10.7l16.2-16H335.1z M354.1-0.7L344.4,9H355l16.2-16h-10.7l-6.3,6.2L354.1-0.7L354.1-0.7z M404.8-0.7L395,9h10.6l16.2-16
		h-10.7l-6.3,6.2L404.8-0.7L404.8-0.7z M385.8-7L369.6,9h10.7l16.2-16H385.8z M233.6-7L217.4,9h10.7l16.2-16H233.6z M252.6-0.7
		L242.8,9h10.6l16.2-16h-10.7l-6.3,6.2L252.6-0.7L252.6-0.7z M303.4-0.7L293.6,9h10.6l16.2-16h-10.7l-6.3,6.2L303.4-0.7L303.4-0.7z
		 M284.4-7L268.2,9h10.7l16.2-16H284.4z M-1-0.8V9h0.8L16-7H5.3L-1-0.8z M30.7-7L14.5,9h10.7L41.4-7H30.7z"/>
</g>
<g>
	<path class="st4" d="M85.5,98.3H33.4c-3.9,0-7.5-2.1-9.5-5.4c-2-3.4-2-7.5,0-10.9L50,36.8c2-3.4,5.5-5.4,9.5-5.4s7.5,2.1,9.5,5.4
		L94.9,82c2,3.4,2,7.5,0,10.9C93.1,96.3,89.4,98.3,85.5,98.3z"/>
	<g>
		<g>
			<g class="st5">
				<path d="M119.7,35.1c0.3,1,0.8,1.5,2.2,1.5c1.2,0,2-0.5,2-1.2c0-0.3-0.1-0.7-0.5-0.7c-0.3-0.2-0.5-0.2-1.7-0.6
					c-1.3-0.3-1.7-0.5-2.3-0.7c-0.9-0.5-1.4-1.2-1.4-2.2c0-0.6,0.2-1,0.6-1.5c0.7-0.8,1.7-1.3,3.2-1.3c1.3,0,2.3,0.3,3,0.9
					c0.5,0.5,0.7,0.7,0.8,1.6l-2.2,0.3c-0.2-0.8-0.7-1.3-1.7-1.3s-1.7,0.5-1.7,1c0,0.3,0.2,0.6,0.6,0.7c0.3,0.2,0.7,0.3,1.6,0.5
					c1.6,0.3,2.2,0.6,2.8,0.9c0.7,0.5,0.9,1,0.9,2.1c0,0.7-0.3,1.4-0.7,1.8c-0.7,0.7-1.8,1-3.3,1c-1.6,0-2.9-0.6-3.6-1.4
					c-0.3-0.5-0.5-0.7-0.7-1.4L119.7,35.1z"/>
				<path d="M133.6,37.1c-0.7,0.7-1,0.8-1.7,0.9c-0.5,0.1-0.9,0.2-1.5,0.2c-2,0-3.1-0.9-3.1-2.7c0-1,0.7-2.2,1.8-2.5
					c1-0.4,2.2-0.7,4.5-0.7v-0.8c0-0.9-0.7-1.4-1.8-1.4c-0.7,0-1.3,0.2-1.7,0.5c-0.3,0.2-0.5,0.5-0.7,1l-2.1-0.3
					c0.3-0.9,0.7-1.4,1.3-1.8c0.7-0.6,1.7-0.8,3.1-0.8c1.5,0,2.4,0.3,3.2,0.9c0.6,0.6,0.7,1,0.7,2.2v4.3c0,0.8,0,1.3,0.1,2.1h-2.2
					L133.6,37.1L133.6,37.1z M133.6,33.6c-3.1,0.1-4.3,0.7-4.3,1.8c0,0.7,0.6,1.2,1.5,1.2c0.8,0,1.7-0.3,2.2-0.8s0.6-0.8,0.6-1.4
					V33.6z"/>
				<path d="M139.9,25.2c-0.1,0.7-0.1,1.2-0.1,2.2v5.2l2.3-2.3c0.8-0.7,0.9-1,1.3-1.4h3c-0.9,0.8-0.9,0.8-1.6,1.5l-2.2,2.2l2.7,3.7
					c1,1.5,1,1.5,1.5,1.8H144c-0.2-0.6-0.5-0.8-1-1.8l-1.7-2.5l-1.3,1.3v1c0,1,0,1.4,0.1,2.1h-2.3c0.1-0.7,0.1-1.2,0.1-2.1v-8.5
					c0-0.9,0-1.5-0.1-2.2L139.9,25.2L139.9,25.2z"/>
				<path d="M156.8,28.8c-0.1,0.7-0.1,1.2-0.1,2.1v5c0,0.8,0,1.4,0.1,2.1h-2.2v-0.8c0-0.2,0-0.3,0-0.7c-0.8,1.3-1.7,1.7-3.3,1.7
					c-0.8,0-1.4-0.1-2-0.5c-0.8-0.6-1.3-1.5-1.3-2.8v-4c0-0.8,0-1.5-0.1-2.1h2.3c-0.1,0.7-0.1,1.3-0.1,2.1v3.6
					c0,0.9,0.2,1.5,0.7,1.8c0.2,0.1,0.6,0.2,0.8,0.2c1.2,0,2.1-0.7,2.8-2.3V31c0-0.7,0-1.4-0.1-2.1
					C154.6,28.8,156.8,28.8,156.8,28.8z"/>
				<path d="M160.9,34.1c0.1,0.7,0.1,1,0.5,1.4c0.5,0.7,1.3,0.9,2.3,0.9c1.6,0,2.5-0.7,2.5-2c0-0.7-0.3-1.2-0.8-1.5
					c-0.5-0.2-0.6-0.3-2.8-0.7c-1.2-0.3-1.8-0.6-2.4-0.9c-0.8-0.7-1.3-1.5-1.3-2.5c0-2.2,1.8-3.7,4.6-3.7c1.8,0,3.2,0.6,3.9,1.6
					c0.5,0.6,0.7,0.9,0.7,1.8l-2.2,0.3c-0.1-0.6-0.2-0.8-0.5-1.2c-0.5-0.6-1-0.7-2.1-0.7c-1.4,0-2.3,0.7-2.3,1.7
					c0,0.7,0.3,1.2,1,1.5c0.3,0.1,0.5,0.2,2.2,0.6c1.3,0.3,2.1,0.6,2.5,0.9c0.9,0.7,1.3,1.6,1.3,2.8c0,1.2-0.3,2.1-0.9,2.7
					c-0.8,0.8-2.2,1.2-3.8,1.2c-1.3,0-2.5-0.3-3.3-0.8c-0.7-0.5-1-1-1.4-1.8c-0.1-0.3-0.2-0.7-0.3-1.3L160.9,34.1z"/>
				<path d="M179.4,38c-0.1-0.6-0.3-1.2-0.5-1.7l-0.7-1.7H173l-0.7,1.7c-0.3,0.7-0.3,0.9-0.5,1.7h-2.7c0.2-0.5,0.6-1.2,0.8-2
					l3.6-9.2c0.3-0.7,0.5-1.2,0.6-1.6h2.8c0.1,0.5,0.2,0.7,0.6,1.6l3.6,9.2c0.5,1,0.7,1.5,0.8,2H179.4z M176.1,28.1
					c-0.1-0.2-0.1-0.3-0.3-0.8c-0.2,0.7-0.2,0.7-0.3,0.8l-1.7,4.7h3.9L176.1,28.1z"/>
				<path d="M192.9,35.9c0.9,1.3,1.2,1.5,1.6,2.1h-3c-0.2-0.5-0.7-1.2-0.9-1.7l-3.2-4.5l-1.7,1.7v2.3c0,0.9,0,1.4,0.1,2.1h-2.3
					c0.1-0.7,0.1-1.2,0.1-2.1v-8.6c0-0.8,0-1.4-0.1-2.1h2.3c-0.1,0.6-0.1,1.2-0.1,2.1V31l4-4.3c0.7-0.7,0.9-1,1.3-1.6h3
					c-0.5,0.5-0.9,0.9-1.7,1.7l-3.5,3.6L192.9,35.9z"/>
				<path d="M206.9,25.2c-0.1,0.7-0.1,1.2-0.1,2.2V33c0,3.3-2,5.2-5.4,5.2c-1.8,0-3.2-0.6-4.2-1.5c-0.8-0.8-1.2-2.1-1.2-3.7v-5.6
					c0-0.9,0-1.6-0.1-2.2h2.3c-0.1,0.6-0.1,1.2-0.1,2.2V33c0,2.2,1,3.3,3.3,3.3c2.2,0,3.2-1.2,3.2-3.3v-5.6c0-1,0-1.6-0.1-2.2
					L206.9,25.2L206.9,25.2z"/>
			</g>
			<g class="st5">
				<path d="M132.2,66.4c-0.1,6.3-0.5,11.9-0.9,15.9c-0.7,5.2-1.7,8.3-3.9,12c-0.9-1.3-2.2-2.7-3.6-3.8c0,1.8,0.1,2.5,0.2,4.2h-5.5
					c0.2-2.1,0.3-3.3,0.3-5.8V75.3c0-1.8,0-3.6,0.1-6.4c-0.9,2.1-2,3.6-3.3,5.2c-0.9-3.2-0.9-3.2-2.2-5.9c2.7-3,4.8-6.6,6.7-10.9
					c1.3-3.1,2.2-5.8,2.4-8.1l5.2,1.3c-0.2,0.7-0.6,1.5-0.8,2.5c-0.9,3.2-1.6,4.9-3.1,7.9v28.3c1.3-2.2,1.8-3.7,2.3-6.6
					c0.7-3.7,1-8.5,1-16.2c0-1.8,0-3.3-0.2-4.9c1.6,0.2,2.7,0.2,5.2,0.2h21.8c2.7,0,3.8,0,5.3-0.2v4.8c-1.4-0.1-2.9-0.2-4.7-0.2
					L132.2,66.4C132.2,66.3,132.2,66.4,132.2,66.4z M134.3,52.6c0-1.5,0-2.2-0.2-2.9h5.3c-0.1,0.7-0.2,1.6-0.2,2.9v1h6.7v-1
					c0-1.5,0-2.2-0.2-2.9h5.3c-0.1,0.8-0.2,1.6-0.2,2.9v1h3.1c2.1,0,3.9-0.1,4.9-0.3v5c-1.4-0.1-2.5-0.2-4.9-0.2h-3.1v0.6
					c0,1.2,0,1.7,0.1,2.3h-5.3c0.1-0.7,0.1-1.5,0.1-2.3v-0.5H139v0.5c0,1.2,0,1.7,0.1,2.3h-5.3c0.1-0.7,0.1-1.5,0.1-2.3v-0.6h-2.1
					c-2.5,0-3.5,0-4.8,0.2v-4.8c1.4,0.1,3,0.2,4.8,0.2h2.1v-1C133.9,52.6,134.3,52.6,134.3,52.6z M137.8,86.4v2.9
					c0,3.2,0,4.2,0.2,5.2h-5.2c0.2-1.3,0.3-2.7,0.3-5.2V73.8c0-2.7,0-3.7-0.2-5.3c1.5,0.1,2.4,0.1,5.2,0.1h14.7c2.3,0,3.3,0,4.7-0.2
					c-0.1,1-0.2,2.5-0.2,5.2v16.6c0,3.2-1,3.9-5.5,3.9c-0.5,0-0.5,0-2.2,0c-0.2-2-0.5-2.7-0.9-4.3c1,0.1,2.2,0.2,2.9,0.2
					c0.8,0,1-0.2,1-1v-2.8h-5.3v2.2c0,2.8,0,4.2,0.2,5.3h-4.9c0.2-1.5,0.3-2.8,0.3-5.3v-2.2h-5.2L137.8,86.4L137.8,86.4z M143,73
					h-5.2v2.7h5.2V73z M143,79.5h-5.2v2.7h5.2V79.5z M152.8,75.6v-2.7h-5.3v2.7H152.8z M152.8,82.2v-2.7h-5.3v2.7H152.8z"/>
				<path d="M175,52.2c0-0.9,0-1.7-0.2-2.7h5.4c-0.1,0.9-0.2,1.7-0.2,2.7v0.5h10.8v-0.5c0-0.9,0-1.7-0.2-2.7h5.4
					c-0.1,0.9-0.2,1.6-0.2,2.7v0.5h5.9c2.4,0,4.2-0.1,5.6-0.3v4.8c-1.5-0.2-3-0.2-5.6-0.2h-5.9c0,0.8,0,1.3,0.2,2.1h-5.3
					c0-0.7,0.1-1.4,0.1-2.1H180c0,0.8,0,1.3,0.1,2.1h-5.3c0.1-0.7,0.1-1.3,0.1-2.1h-5.4c-2.7,0-4.2,0-5.6,0.2v-4.8
					c1.6,0.2,3.2,0.3,5.6,0.3h5.4L175,52.2L175,52.2z M196.1,66.9c-2.2,1.8-5.8,4.6-7.3,5.6c3.9-0.1,6.9-0.3,8.9-0.5
					c-1-0.8-1.5-1.2-3-2.2l3.7-2.7c3.9,2.9,6.4,5.1,9.7,8.4l-3.7,3.3c-1.4-1.7-2-2.2-2.9-3.3c-10.9,0.7-16.4,0.9-33.9,1.6
					c-1.2,0-2.1,0.1-2.9,0.2l-0.8-4.9c1.6,0.2,4.5,0.3,11.8,0.3c0.2,0,0.2,0,2.5,0c-1.8-0.8-6.4-2.9-8.8-3.8l3.2-3.3
					c2.3,1,2.9,1.3,4.5,2.1c1.2-0.8,1.8-1.4,3.2-2.7h-10c-2.5,0-4.2,0-5.6,0.2v-4.8c1.4,0.2,3.1,0.3,5.6,0.3H183
					c0-1.2,0-1.8-0.1-2.7h5.2c-0.1,0.9-0.1,1.4-0.1,2.7h13.4c2.3,0,4.4-0.1,5.6-0.3v4.8c-1.2-0.1-3.1-0.2-5.6-0.2h-8.8L196.1,66.9z
					 M168.4,82.6c0-1.8,0-3.2-0.1-4.6c1.4,0.1,2.3,0.1,4.8,0.1h25.3c2.5,0,3.5,0,4.8-0.2c-0.1,1.3-0.1,2.2-0.1,4.8V90
					c0,1.7,0.1,3.2,0.2,4.8H198V93h-24.6v1.8h-5.3c0.1-1.7,0.2-3.2,0.2-4.8v-7.4H168.4z M173.4,83.6h9.7v-2.1h-9.7V83.6z
					 M173.4,89.1h9.7v-2.2h-9.7V89.1z M186.1,64.8c-1.6,1.6-3.5,3.2-5.2,4.5c1.4,0.7,1.7,0.9,2.9,1.6c3-2.1,5.8-4.3,7.4-6
					L186.1,64.8L186.1,64.8z M187.9,83.6H198v-2.1h-10.1V83.6z M187.9,89.1H198v-2.2h-10.1V89.1z"/>
				<path d="M249.7,56.2c-0.6,0.1-0.6,0.1-4,1.3c-2.8,0.8-4.3,1.3-8.2,2.1c0,6.6,0,6.6-0.1,8.2h10.3c3.3,0,4.2,0,5.9-0.3v5.9
					c-1.8-0.2-2.7-0.2-5.9-0.2H237c-0.6,4.5-1.6,7.8-3.2,10.6c-1.7,2.8-4.5,5.5-7.9,7.7c-1.4,0.8-2.2,1.4-4.5,2.4
					c-1.4-2.4-2.2-3.5-4.3-5.2c3.6-1.3,5.3-2.2,7.5-4c2.9-2.3,4.8-5.2,5.5-8.2c0.2-0.8,0.3-1.6,0.6-3.2h-12c-3.1,0-4,0-5.9,0.2v-5.9
					c1.8,0.3,2.7,0.3,5.9,0.3h12.4c0.1-2.1,0.1-3.9,0.1-7.4c-3.9,0.6-5.4,0.7-13.5,1c-0.6-2.2-0.8-2.9-1.8-5.2
					c1.5,0.1,2.2,0.1,3,0.1c6.6,0,14.9-1,20.9-2.8c2.8-0.8,4.3-1.4,5.9-2.2L249.7,56.2z"/>
				<path d="M280.2,86.4h9.9c2.2,0,3.2,0,4.5-0.3v5.4c-1.4-0.1-2.3-0.2-4.5-0.2h-25c-2.2,0-3.2,0-4.5,0.2v-5.4
					c1.4,0.2,2.2,0.3,4.5,0.3h9.6V70.7h-6.6c-1.8,0-2.8,0-4.5,0.3v-5.5c1.3,0.2,2.4,0.3,4.4,0.3h19.1c2.1,0,3.1-0.1,4.5-0.3v5.4
					c-1.3-0.1-2.1-0.2-4.4-0.2h-6.9L280.2,86.4L280.2,86.4z"/>
				<path d="M308.2,62.6c2.1,3.7,3,6.1,4.8,11.5l-5.4,1.7c-1.3-4.9-2.2-7.5-4.4-11.8L308.2,62.6z M336.2,63.1
					c-0.3,0.7-0.5,0.9-0.7,2.4c-1.4,6.7-3.7,12-6.7,16.1c-3.7,4.9-7.6,8.1-14.9,11.8c-1.3-2.2-1.8-2.9-3.8-4.8
					c3.5-1.3,5.3-2.3,8.2-4.5c5.6-4.2,9-9.1,11.1-16.9c0.7-2.3,0.8-4,0.8-5.5L336.2,63.1z M318.6,60.8c2.5,4.8,3.6,6.9,4.7,11.2
					l-5.3,1.7c-0.9-3.7-2.3-7.5-4.4-11.4L318.6,60.8z"/>
				<path d="M380.5,59.6c-0.6,0.7-0.7,1.2-1.2,2.9c-2.2,7.4-5.6,14-9.9,18.8c-4.5,5.2-9.8,8.9-17.3,12.4c-1.4-2.4-2.1-3.2-4.2-5.2
					c4.8-2.1,7.6-3.5,10.7-5.8c6.9-5.2,11.5-11.9,14.2-20.5l-14.6,0.2c-3,4.7-6.7,8.9-11.3,12.4c-1.5-2.1-2.2-2.7-4.7-4.2
					c5.5-3.7,9.1-7.7,12.7-14.2c1.5-2.8,2.2-4.7,2.4-6.4l6.7,1.3c-0.3,0.5-0.3,0.5-0.8,1.5c-0.1,0.2-0.1,0.2-0.7,1.4
					c-0.1,0.3-0.1,0.3-0.7,1.3c-0.3,0.7-0.3,0.7-0.7,1.6c0.7,0,1.4-0.1,2.3-0.1l10.7-0.1c2,0,2.4-0.1,3.6-0.6L380.5,59.6z"/>
			</g>
		</g>
		<g>
			<path class="st6" d="M51.9,36.8L25.9,82c-3.3,5.8,0.7,12.9,7.5,12.9h52.1c6.6,0,10.8-7.1,7.5-12.9L66.9,36.8
				C63.5,31,55.2,31,51.9,36.8z"/>
			<path class="st7" d="M85.4,97H33.3c-3.9,0-7.5-2.1-9.5-5.4c-2-3.4-2-7.5,0-10.9l26.1-45.2c2-3.4,5.5-5.4,9.5-5.4s7.5,2.1,9.5,5.4
				L95,80.7c2,3.4,2,7.5,0,10.9S89.3,97,85.4,97z M54,37.9L27.9,83.1c-1.1,2-1.1,4.3,0,6.2c1.1,2,3.2,3.2,5.4,3.2h52.1
				c2.2,0,4.3-1.1,5.4-3.2c1.1-2,1.1-4.3,0-6.2L64.9,37.9c-1.1-2-3.2-3.2-5.4-3.2C57.1,34.7,55.1,35.9,54,37.9L54,37.9z"/>
		</g>
		<g class="st5">
			<path class="st7" d="M60.6,72v1.3c0,1.9,0,2.2,0.1,2.8H57c0.1-0.7,0.1-1.5,0.1-2.8v-7.7c-0.4,3.5-0.4,3.5-0.7,5.1
				c-0.4,2.3-0.8,3.7-1.7,5.4c-0.7-1.1-1.2-1.8-2.1-2.7c0,1.1,0,1.7,0.2,2.8h-4c0.1-1.3,0.2-1.7,0.2-2.9V67c0-0.6,0-1.1,0.1-2.8
				c-0.4,0.7-0.7,1.2-1.2,1.7c-0.4-2.1-0.7-2.8-1.3-4.7c1.2-1.3,2.2-2.9,3-5c0.7-1.6,1-3,1.2-4.2l3.8,0.9c-0.1,0.4-0.1,0.5-0.3,0.8
				c0.7,0.1,1.5,0.1,2.4,0.1h0.4v-0.4c0-0.7,0-0.9-0.1-1.3h3.9c0.1,0.4,0.1,0.8,0.1,1.3v0.4h2.5v-0.4c0-0.7,0-0.9-0.1-1.3h3.8
				c-0.1,0.4-0.1,0.7-0.1,1.2v0.4h0.7c1.2,0,2.2-0.1,2.7-0.2V57c-0.9-0.1-1.2-0.1-2.7-0.1h-0.7v1.4H68c1.5,0,2.1,0,2.9-0.1v3.5
				c-0.7-0.1-1.4-0.1-2.3-0.1H57.5v0.7c0.7,0.1,1.3,0.1,2.5,0.1h8.2c1.1,0,1.7,0,2.3-0.1c-0.1,0.6-0.1,1.2-0.1,2.6v8.6
				c0,2.1-0.6,2.4-4.2,2.4c-0.2-1.2-0.3-1.8-0.7-2.8c0.4,0,0.7,0.1,0.9,0.1c0.4,0,0.5-0.1,0.5-0.5V72h-1.6v0.9c0,1.6,0,2.2,0.1,2.9
				H62c0.1-0.8,0.1-1.5,0.1-2.9V72L60.6,72L60.6,72z M52.9,71.3c0.4-0.9,0.5-1.6,0.7-2.5c0.2-1.5,0.4-4.4,0.4-7.4
				c0-1.5,0-2.2-0.1-3.2c1,0.1,1.4,0.1,2.8,0.1h0.8V57h-0.4c-1.5,0-1.9,0-2.7,0.1v-2.7c-0.5,1.6-0.7,2.2-1.5,3.7V71.3z M62.2,65.1
				h-1.6v1h1.6V65.1z M62.2,68.5h-1.6v1.1h1.6V68.5z M63.7,58.3v-1.2h-2.5v1.2H63.7z M67,66.1v-1h-1.6v1H67z M67,69.6v-1h-1.6v1H67z
				"/>
		</g>
		<g class="st5">
			<path class="st7" d="M57.8,45.1c0,0.4,0.1,0.6,0.3,0.8c0.3,0.4,0.7,0.6,1.3,0.6c0.8,0,1.4-0.4,1.4-1c0-0.4-0.2-0.7-0.5-0.7
				c-0.3-0.1-0.6-0.2-1.7-0.5c-1-0.2-1.4-0.4-1.8-0.7c-0.7-0.5-1.1-1.2-1.1-2.2c0-1.8,1.4-2.8,3.7-2.8c1.4,0,2.5,0.5,3.2,1.3
				c0.3,0.4,0.4,0.7,0.6,1.3l-2.5,0.2c-0.1-0.7-0.6-1-1.4-1c-0.7,0-1.2,0.4-1.2,0.9c0,0.3,0.2,0.6,0.6,0.7c0.2,0.1,0.2,0.1,1.6,0.4
				c0.8,0.2,1.4,0.4,1.9,0.7c0.8,0.5,1.2,1.3,1.2,2.3c0,0.8-0.3,1.6-0.7,2.1c-0.7,0.7-1.7,0.9-3,0.9c-0.9,0-1.9-0.2-2.5-0.6
				c-0.6-0.3-0.9-0.8-1.2-1.4c-0.1-0.3-0.2-0.6-0.3-1L57.8,45.1z"/>
		</g>
		<polygon points="39.7,88.2 59.3,106.8 98.6,47.4 55.8,92.6 44,83 		"/>
		<g>
			<path class="st8" d="M168.8,124.9c0,0.4,0.3,0.5,1.7,0.5s1.8-0.1,2-0.7s0.3-1.5,0.3-3.1c1.1,0.5,1.6,0.7,2.6,0.9
				c-0.3,3.3-0.6,4.4-1.5,5c-0.6,0.4-1.8,0.5-3.8,0.5c-3.1,0-3.8-0.4-4-1.8c-1,0.7-1.5,1-2.7,1.7c-0.6-1-1-1.6-1.9-2.4
				c1.8-0.8,3.2-1.6,4.6-2.6v-5.7c0-0.8,0-1.2-0.1-2h3c-0.1,0.7-0.1,1.2-0.1,1.9v3.5c1.6-1.6,3-3.7,4-5.7c0.6-1.1,0.8-2,1-2.6
				l2.9,1.1c-0.3,0.6-0.3,0.6-0.8,1.6c-0.7,1.4-1,2-1.7,3.1l2.1-0.9c1,2.2,1.8,4.1,2.6,7.1l-2.6,1.4c-0.7-2.9-1.3-5-2.3-7.1
				c-1.6,2.4-3,4-5.2,5.9v0.4H168.8z M165.4,117c-0.3,3.2-0.7,4.9-1.4,6.8l-2.5-1.2c0.7-1.9,1.1-3.6,1.4-6.3L165.4,117z M167.1,111
				c2.2,0.8,3.5,1.4,5.2,2.3l-1.6,2.4c-1.2-0.9-2.8-1.7-5.2-2.6L167.1,111z"/>
			<path class="st8" d="M181.9,121.6c-0.8,0-1.5,0-2,0.1v-2.3c0.7,0.1,1.3,0.1,2,0.1h12.7c0.8,0,1.4,0,2-0.1v2.3
				c-0.6,0-1.2-0.1-2-0.1h-5.2c-0.1,0.2-0.2,0.3-0.3,0.6h4.8c0.8,0,1.3,0,1.7-0.1c-0.1,0.4-0.1,0.7-0.1,1.3v2.5
				c0,1.6-0.5,2.1-2.1,2.1c-0.2,0-0.2,0-1.4-0.1c-0.1-1.2-0.2-1.7-0.5-2.4c0.4,0.1,0.8,0.1,0.9,0.1c0.3,0,0.4-0.1,0.4-0.3v-1.2h-1.6
				v2.1c0,0.8,0,1.2,0.1,1.7h-2.6c0.1-0.5,0.1-0.9,0.1-1.7v-2.1h-1.3v2.1c0,0.7,0,1.2,0.1,1.7H185c0.1-0.5,0.1-0.9,0.1-1.7v-2.1
				h-1.3v2.2c0,0.7,0,1.2,0.1,1.7h-2.8c0.1-0.7,0.1-1.2,0.1-1.9v-2.6c0-0.5,0-1-0.1-1.5c0.5,0,0.8,0.1,1.9,0.1h3.4
				c0.2-0.3,0.2-0.3,0.3-0.6L181.9,121.6L181.9,121.6L181.9,121.6z M183.2,113.4c-0.8,0-1.5,0-2,0.1v-2.2c0.6,0.1,1.3,0.1,2.2,0.1
				h9.7c0.9,0,1.8,0,2.2-0.1v2.2c-0.6,0-1.2-0.1-2-0.1h-3.9v0.5h4.4c1.4,0,2,0,2.5-0.1c-0.1,0.5-0.1,0.7-0.1,1.6v1.3
				c0,0.7,0,1,0.1,1.6h-2.6v-2.5h-4.3v1.5c0,0.8,0,1.2,0.1,1.7h-2.9c0.1-0.6,0.1-0.9,0.1-1.7v-1.5h-4.1v2.5H180
				c0.1-0.5,0.1-0.8,0.1-1.6v-1.3c0-0.7,0-1.1-0.1-1.6c0.6,0,1,0.1,2.5,0.1h4.2v-0.5H183.2z M183.2,116.2c0.2,0,0.4,0,0.8,0h1.5
				c0.5,0,0.6,0,0.7,0v1.2c-0.2,0-0.4,0-0.7,0H184c-0.4,0-0.6,0-0.8,0V116.2z M183.2,117.8c0.2,0,0.3,0,0.8,0h1.5c0.5,0,0.7,0,0.7,0
				v1.2c-0.2,0-0.4,0-0.7,0H184c-0.4,0-0.6,0-0.8,0V117.8z M190.1,116.2c0.2,0,0.3,0,0.8,0h1.8c0.5,0,0.6,0,0.8,0v1.2
				c-0.2,0-0.4,0-0.8,0h-1.8c-0.4,0-0.5,0-0.8,0V116.2z M190.1,117.8c0.2,0,0.3,0,0.8,0h1.8c0.5,0,0.6,0,0.8,0v1.2
				c-0.2,0-0.4,0-0.8,0h-1.8c-0.4,0-0.5,0-0.8,0V117.8z"/>
			<path class="st8" d="M198.3,128.1c0.1-0.6,0.1-1,0.1-2.1v-5c0-0.7,0-1.1-0.1-1.7c0.6,0.1,1,0.1,1.9,0.1h4.5c0.5,0,0.8,0,1.2-0.1
				c0,0.4,0,0.6,0,1.4v5.4c0,0.7,0,1.1,0.1,1.5h-2.7v-0.5h-2.1v0.7L198.3,128.1L198.3,128.1z M200.6,113.2c0-0.7,0-1.1-0.1-1.7
				c0.5,0.1,1.1,0.1,2.1,0.1h7.7c1,0,1.6,0,2.1-0.1c-0.1,0.5-0.1,0.9-0.1,1.7v3.7c0,0.8,0,1.3,0.1,1.8c-0.5,0-0.8-0.1-1.9-0.1h-8.1
				c-0.9,0-1.3,0-1.9,0.1c0-0.5,0.1-1,0.1-1.8L200.6,113.2L200.6,113.2z M203.2,121.9H201v2.8h2.2V121.9z M203.3,114.2v1.9h6.3v-1.9
				H203.3z M212.9,119.5c0.8,0,1.3,0,1.7-0.1c-0.1,0.6-0.1,0.9-0.1,1.7v5c0,1,0,1.5,0.1,2.1h-2.8v-0.8h-2.2v0.8h-2.7
				c0-0.5,0.1-0.8,0.1-1.5V121c0-0.8,0-1,0-1.4c0.4,0,0.8,0.1,1.2,0.1L212.9,119.5L212.9,119.5z M209.4,124.8h2.3V122h-2.3V124.8z"
				/>
			<path class="st8" d="M231.5,112l-6.5,17.6h-3.3l6.6-17.6C228.3,112,231.5,112,231.5,112z"/>
			<path class="st8" d="M247.4,114.3c-1.4-0.7-2.6-1.1-4.2-1.7l2-1.9c2,0.6,3.3,1.1,5.1,2l-1.4,1.6h3.2c1.1,0,1.8,0,2.5-0.1v2.8
				c-0.7-0.1-1.3-0.1-2.5-0.1h-3.7v2.5h3.2c0.8,0,1.4,0,2.2-0.1v2.7c-0.7-0.1-1.1-0.1-2.1-0.1h-3.3v2.9h4.1c1.1,0,1.9,0,2.8-0.1v2.8
				c-0.9-0.1-1.6-0.1-2.7-0.1h-10.9c-1.3,0-2.1,0-2.9,0.1v-2.8c0.7,0.1,1.6,0.1,2.8,0.1h3.9V122h-2.8c-1,0-1.6,0-2.3,0.1v-2.7
				c0.7,0.1,1,0.1,2.1,0.1h3.1V117H242c-1.5,0-2,0-2.5,0.1v-2.8c0.8,0.1,1.3,0.1,2.4,0.1L247.4,114.3L247.4,114.3z"/>
			<path class="st8" d="M272.7,123.1c-1.2,0.9-1.9,1.5-2.7,2.1c1,0.3,2.1,0.5,3.7,0.5c-0.6,1-0.8,1.6-1.2,2.7
				c-3.1-0.5-5-1.1-6.7-2.5v1.2c-2.4,0.5-4.1,0.7-7.2,1.2c-0.4,0.1-0.7,0.1-0.9,0.2l-0.4-2.9c0.2,0,0.3,0,0.5,0c0.1,0,1-0.1,1.7-0.1
				v-7.9c0-0.2,0-0.2,0-0.2c-0.7,0.4-1,0.5-1.9,0.8c-0.3-1.1-0.5-1.7-1.1-2.8c1.4-0.4,2.8-0.9,4.1-1.8c1.4-0.8,2.2-1.5,3.1-2.5h3
				c0.9,1,1.9,1.9,3.3,2.6s2.7,1.3,4.1,1.6c-0.6,1-0.8,1.7-1.1,2.8c-0.7-0.3-1.4-0.6-2-0.8v4.5c0,0.2,0,0.2,0,0.2L272.7,123.1z
				 M261.9,118.4h6.1v-0.7h-6.1V118.4z M261.9,120.8h6.1v-0.7h-6.1V120.8z M261.9,122.9v2.2c0.1,0,0.1,0,0.2,0
				c0.7-0.1,1.9-0.3,2.4-0.3c-0.7-0.7-0.8-0.8-1.5-1.9L261.9,122.9L261.9,122.9z M263.6,115.1c0-0.3,0-0.4,0-0.6
				c-0.6,0.5-1,0.8-1.6,1.1h1.6V115.1z M266,114.3c-0.4-0.4-0.7-0.6-1.1-1c-0.5,0.5-0.7,0.7-1,1H266z M267.9,115.7
				c-0.8-0.6-1.1-0.8-1.6-1.2c0,0.2,0,0.4,0,0.7v0.6L267.9,115.7L267.9,115.7z M266.2,122.9c0.3,0.4,0.7,0.7,1.1,1
				c0.6-0.3,1.1-0.7,1.5-1H266.2z"/>
			<path class="st8" d="M290.2,112l-6.5,17.6h-3.3L287,112H290.2z"/>
			<path class="st8" d="M306.1,114.3c-1.4-0.7-2.6-1.1-4.2-1.7l2-1.9c2,0.6,3.3,1.1,5.1,2l-1.4,1.6h3.2c1.1,0,1.8,0,2.5-0.1v2.8
				c-0.7-0.1-1.3-0.1-2.5-0.1h-3.7v2.5h3.2c0.8,0,1.4,0,2.2-0.1v2.7c-0.7-0.1-1.1-0.1-2.1-0.1h-3.3v2.9h4.1c1.1,0,1.9,0,2.8-0.1v2.8
				c-0.9-0.1-1.6-0.1-2.7-0.1h-10.9c-1.3,0-2.1,0-2.9,0.1v-2.8c0.7,0.1,1.6,0.1,2.8,0.1h3.9V122h-2.8c-1,0-1.6,0-2.3,0.1v-2.7
				c0.7,0.1,1,0.1,2.1,0.1h3.1V117h-3.6c-1.5,0-2,0-2.5,0.1v-2.8c0.7,0.1,1.3,0.1,2.4,0.1L306.1,114.3L306.1,114.3z"/>
			<path class="st8" d="M317.7,123.1c-0.9,0-1.6,0-2.2,0.1v-2.6c0.6,0.1,1.2,0.1,2.2,0.1h0.4c-0.5-0.7-0.9-1.5-1.4-2.1l1.8-0.7
				c-0.3,0-0.4,0-0.6,0s-0.5,0-0.8,0c-0.3-0.8-0.6-1.4-1.1-2.3c2.1,0.1,3,0.1,4.2,0.1c1.9,0,4-0.1,5.6-0.2s2.4-0.3,3.8-0.6l1.8,2.2
				c-1.1,0.2-1.6,0.3-2.5,0.4l1.7,0.7c-0.9,1.3-1.3,1.9-2,2.5h0.9c1,0,1.7,0,2.2-0.1v2.6c-0.6-0.1-1.3-0.1-2.2-0.1h-2.8
				c1.4,1.1,3.1,1.8,5.3,2.2c-0.7,0.8-0.9,1.5-1.5,2.6c-1.3-0.4-2.3-0.8-3.5-1.6c-0.9-0.7-1.5-1.1-2.3-2c0,0.2,0,0.2,0,0.5
				c0,0.2,0,0.5,0,0.7v0.7c0,0.7,0,1.2,0.2,1.9h-3.1c0.1-0.7,0.2-1.1,0.2-1.9v-0.8c0-0.3,0-0.6,0-1.1c-1.3,1.6-3,2.7-5.5,3.5
				c-0.7-1.2-0.8-1.6-1.6-2.4c2.2-0.5,3.8-1.2,5.2-2.3L317.7,123.1L317.7,123.1L317.7,123.1z M319.2,111.9c0-0.3,0-0.6-0.1-0.8h2.8
				c0,0.4-0.1,0.6-0.1,0.8v0.2h3.4v-0.2c0-0.3,0-0.4-0.1-0.8h2.8c0,0.3-0.1,0.6-0.1,0.8v0.2h2c0.9,0,1.5,0,2.2-0.1v2.6
				c-0.6-0.1-1.2-0.1-2.2-0.1H328c0,0.3,0,0.5,0.1,0.7h-2.8c0-0.3,0-0.5,0.1-0.7H322c0,0.3,0,0.4,0.1,0.7h-2.8
				c0-0.3,0.1-0.5,0.1-0.7h-1.7c-0.9,0-1.6,0-2.2,0.1V112c0.7,0.1,1.2,0.1,2.2,0.1h1.7v-0.2H319.2z M322.2,120.7
				c0-0.4,0-0.6-0.1-0.8h0.7c-0.4-0.7-0.5-0.8-0.9-1.5l1.3-0.5c-1,0.1-1.9,0.1-3.8,0.1c0.4,0.5,0.8,1,1.3,1.8l-2.2,0.9H322.2z
				 M328.1,120.7l-1.9-0.8c0.7-0.8,1.1-1.4,1.6-2.2c-0.7,0.1-1.8,0.1-3.5,0.2c0.5,0.6,0.7,0.8,0.9,1.3l-2.1,0.7h1.9
				c-0.1,0.4-0.1,0.6-0.1,0.8H328.1L328.1,120.7L328.1,120.7z"/>
		</g>
	</g>
</g>
<rect x="-5.8" y="144.1" width="534.1" height="41.3"/>
<g>
	<path class="st2" d="M86.7,160.9c-0.4,0-0.6,0-1,0.1v-1.6c-0.5,1.4-0.8,2.4-1.3,3.3c0.6,1,0.9,1.4,1.1,2.1c0.2,0.6,0.3,1.3,0.3,1.8
		c0,1.8-1.1,2.9-3.1,2.9c-0.1,0-0.2,0-0.3,0c-0.1-1.4-0.2-1.9-0.6-2.7c0.3,0,0.5,0,0.6,0c0.6,0,0.6-0.2,0.6-0.9c0-1-0.3-1.9-1.2-3.1
		v8.4c0,0.9,0,1.8,0.1,2.6h-3c0.1-0.8,0.1-1.6,0.1-2.6v-12.8c0-0.8,0-1.5-0.1-2.2c0.5,0.1,1,0.1,1.7,0.1h3c0.6,0,1,0,1.4-0.1
		l1.2,1.8c0,0.1,0,0.1-0.1,0.2c0.6,0,0.7,0,1.2,0h1.7v-0.9c0-0.6,0-1.1-0.1-1.5h3.1c-0.1,0.4-0.1,0.8-0.1,1.5v0.9h2.3
		c1.1,0,1.6,0,2.2-0.1v3c-0.6-0.1-1-0.1-2.2-0.1h-3.9c0,1,0,1.2,0,1.6h3.5c0.7,0,1.1,0,1.8-0.1c-0.1,0.6-0.1,0.6-0.1,1.7
		c-0.1,3.7-0.3,6.4-0.6,7.4c-0.2,0.9-0.7,1.4-1.3,1.7c-0.6,0.2-1.4,0.4-2.5,0.4c-0.5,0-0.6,0-1.9-0.1c-0.1-1.1-0.2-1.8-0.6-2.9
		c1,0.2,1.7,0.2,2.3,0.2c1,0,1-0.1,1.3-1.1c0.2-0.9,0.3-2.6,0.3-4.6h-2.6c-0.3,2.2-0.8,3.5-1.7,5c-0.8,1.4-1.7,2.4-3.2,3.7
		c-0.7-1-1.4-1.6-2.3-2.4c2.1-1.4,3.2-2.8,3.8-4.8c0.5-1.4,0.6-2.9,0.6-5.8L86.7,160.9L86.7,160.9z M81.8,162.6
		c0.6-1.4,1-2.2,1.3-3.8h-1.3V162.6z"/>
	<path class="st2" d="M106.3,163.2c-0.7-1.2-1.8-2.5-2.9-3.8c1.3-1.3,2-2.3,2.7-3.8l3,1c-1.1,1.5-1.5,2-2.2,2.7
		c1,0.9,1.4,1.5,2.3,2.6l-2.4,1.2h1.4c-0.1,0.2-0.1,0.6-0.1,1c0,2.4,0.8,3.8,2.8,5.1c1.4,0.8,2.8,1.3,4.8,1.5c-0.6,1-1,1.7-1.5,3.1
		c-2.6-0.8-3.8-1.4-5.2-2.4c-1.1-0.9-1.8-1.7-2.4-2.8c-0.7,1.6-1.4,2.5-3,3.4c-1.3,0.8-2.6,1.3-4.6,1.8c-0.4-1.2-0.7-1.8-1.5-2.9
		c2.6-0.3,4.3-1,5.6-2.1c1.4-1.1,2.1-2.8,2.1-4.8c0-0.5,0-0.7-0.1-1.1L106.3,163.2L106.3,163.2z M103.8,156.7
		c-0.9,1.2-1.4,1.8-2.4,2.7c1,0.9,1.8,1.8,2.6,2.9l-2.8,1.4c-1.2-2-1.9-2.9-3.4-4.3c1.4-1.4,2.2-2.5,2.9-3.8L103.8,156.7z
		 M103.4,164.6c-0.7,1.8-1.4,2.9-2.6,4.4l-2.7-1.4c1.2-1.4,1.8-2.2,2.5-3.9L103.4,164.6z M114.6,156.7c-1.2,1.6-1.4,1.8-2.2,2.7
		c1.2,1.1,1.6,1.6,2.5,2.7l-2.8,1.4c-1.1-1.8-1.9-2.8-3.3-4.2c1.4-1.4,2.2-2.5,2.9-3.8L114.6,156.7z M114.6,165
		c-1,1.4-1.6,2.3-3,3.8l-2.5-1.7c1.4-1.2,1.9-1.9,2.8-3.4L114.6,165z"/>
	<path class="st2" d="M126.8,170.7v1c0,1.4,0,1.7,0.1,2.2h-2.7c0.1-0.6,0.1-1.1,0.1-2.2v-5.8c-0.2,2.6-0.2,2.6-0.5,3.8
		c-0.3,1.8-0.6,2.7-1.3,4.1c-0.6-0.9-0.9-1.4-1.5-2c0,0.9,0,1.3,0.1,2.1h-3c0.1-1,0.1-1.3,0.1-2.2v-4.8c0-0.4,0-0.9,0-2.2
		c-0.3,0.5-0.6,0.9-0.9,1.3c-0.3-1.5-0.5-2.2-1-3.5c1-1,1.7-2.2,2.3-3.7c0.5-1.2,0.8-2.2,1-3.1l2.9,0.6c-0.1,0.2-0.1,0.3-0.2,0.6
		c0.6,0,1.1,0.1,1.8,0.1h0.3v-0.2c0-0.5,0-0.6-0.1-1h3c0,0.3-0.1,0.6-0.1,1v0.2h1.9v-0.2c0-0.5,0-0.7-0.1-1h2.9c0,0.3-0.1,0.6-0.1,1
		v0.2h0.6c0.9,0,1.7,0,2.1-0.1v2.6c-0.7-0.1-0.9-0.1-2.1-0.1h-0.6v1h0.6c1.1,0,1.5,0,2.2-0.1v2.6c-0.6-0.1-1-0.1-1.8-0.1h-8.6v0.6
		c0.5,0,1,0.1,1.9,0.1h6.2c0.8,0,1.3,0,1.8-0.1c-0.1,0.5-0.1,1-0.1,2v6.5c0,1.5-0.5,1.8-3.1,1.8c-0.1-1-0.2-1.4-0.5-2.1
		c0.2,0,0.5,0,0.6,0c0.3,0,0.3-0.1,0.3-0.4v-0.6h-1.2v0.7c0,1.2,0,1.7,0.1,2.2h-2.6c0.1-0.6,0.1-1.1,0.1-2.2v-0.7L126.8,170.7
		L126.8,170.7z M121,170c0.2-0.7,0.4-1.2,0.5-1.9c0.2-1.1,0.3-3.4,0.3-5.5c0-1.1,0-1.6-0.1-2.4c0.8,0.1,1,0.1,2.1,0.1h0.6v-0.9h-0.3
		c-1.1,0-1.4,0-2,0.1v-2.1c-0.4,1.2-0.6,1.7-1.1,2.8V170z M127.9,165.4h-1.2v0.8h1.2V165.4z M127.9,168h-1.2v0.8h1.2V168z
		 M129.1,160.4v-1h-1.9v1H129.1z M131.5,166.2v-0.8h-1.2v0.8H131.5z M131.5,168.8V168h-1.2v0.8H131.5z"/>
	<path class="st2" d="M140.3,156.6c0-0.4,0-0.6-0.1-1h3c0,0.3-0.1,0.6-0.1,1h3.7c0-0.3,0-0.6-0.1-1h3c-0.1,0.3-0.1,0.6-0.1,1h1.9
		c1,0,1.7,0,2.3-0.1v2.4c-0.6-0.1-1.2-0.1-2.3-0.1h-1.9c0,0.2,0,0.3,0.1,0.6H147c0-0.2,0-0.4,0-0.6h-4.1c0,0.3,0,0.4,0.1,0.6h-2.7
		c0-0.2,0-0.2,0.1-0.6h-1.7c-1.1,0-1.7,0-2.3,0.1v-2.4c0.6,0.1,1.4,0.1,2.3,0.1H140.3z M149.4,162.8c-1.2,1-1.9,1.5-2.2,1.8
		c0.4,0,0.6,0,0.8,0c0.7,0,0.7,0,1.4-0.1c-0.3-0.2-0.4-0.3-0.7-0.6l2.1-1.4c1.4,1.1,2.4,2.1,3.6,3.4l-1.9,1.5c0,0.4,0,0.7,0,1.5v2.8
		c0,0.7,0,1.3,0.1,1.9h-3v-0.6h-8.7v0.6h-3c0.1-0.6,0.1-1.3,0.1-1.9v-2.9c0-0.6,0-1.3-0.1-1.8c0.7,0,0.9,0,2,0h10.5c0.8,0,1,0,1.4,0
		c-0.3-0.4-0.4-0.5-0.6-0.8c-5.4,0.3-5.4,0.3-13.1,0.6c-0.6,0-1,0.1-1.3,0.1l-0.3-2.6c0.6,0.1,1.4,0.1,4.2,0.2
		c-0.8-0.4-1.4-0.7-2.4-1.2l1.8-1.4h-1c-1,0-1.7,0-2.3,0.1v-2.4c0.6,0.1,1.4,0.1,2.3,0.1h4.7c0-0.3,0-0.4-0.1-0.6h2.9
		c0,0.2,0,0.4,0,0.6h5c0.9,0,1.8,0,2.3-0.1v2.4c-0.5-0.1-1.3-0.1-2.3-0.1h-3.6L149.4,162.8z M140.1,162c0.7,0.3,1,0.5,1.4,0.7
		c0.3-0.2,0.5-0.4,0.8-0.7H140.1z M140.7,169.4h3v-0.6h-3V169.4z M140.7,171.4h3v-0.6h-3V171.4z M145.4,162
		c-0.6,0.6-1.2,1.1-2.1,1.8c0.4,0.2,0.4,0.2,0.6,0.4c0.8-0.6,1.9-1.5,2.6-2.2L145.4,162L145.4,162z M146.4,169.4h3v-0.6h-3V169.4z
		 M146.4,171.4h3v-0.6h-3V171.4z"/>
	<path class="st2" d="M156,157.7c0.8,0.2,2,0.2,4,0.2c0.1,0,0.3,0,0.6,0c0.4-1,0.5-1.4,0.6-2.2l3.5,0.2c-0.2,0.3-0.2,0.3-0.4,0.9
		c-0.2,0.6-0.4,0.9-0.4,0.9c0.2,0,0.2,0,1.2-0.1c1.9-0.1,3.8-0.3,4.9-0.6l0.1,3c-0.6,0.1-1.2,0.1-1.8,0.2c-1.4,0.2-3.8,0.2-5.8,0.3
		c-0.3,0.6-0.5,0.8-1,1.4c0.8-0.4,1.6-0.6,2.4-0.6c1.6,0,2.6,0.6,3,1.8c0.3-0.1,0.3-0.1,1.4-0.5c0.1,0,0.6-0.2,1.2-0.4
		c1.1-0.4,1.2-0.4,1.5-0.6l1.2,3c-1,0.2-3,0.6-4.9,1.3c0,0.5,0,0.6,0,1.4c0,0.9,0,1.1,0.1,1.7l-3.1,0.1c0.1-0.3,0.1-0.9,0.1-2
		l-0.2,0.1c-0.9,0.4-1,0.5-1.4,0.8c-0.3,0.3-0.5,0.6-0.5,1c0,0.7,0.7,1,2.6,1c2.3,0,4.5-0.3,6.2-1l0.2,3.4c-0.6,0-0.6,0-1.7,0.2
		c-1.5,0.2-3.1,0.3-4.6,0.3c-2.2,0-3.5-0.2-4.6-0.9c-1-0.6-1.5-1.6-1.5-2.7c0-0.9,0.3-1.6,1-2.4c0.7-0.8,1.6-1.4,2.8-2.1
		c0.5-0.2,0.6-0.3,1.4-0.6c-0.2-0.3-0.4-0.5-0.8-0.5c-1,0-2.3,0.6-3.7,1.8c-0.8,0.7-1.4,1.3-1.8,1.9l-2.4-2.4c0.6-0.5,1.4-1.3,2-2
		c0.4-0.5,1.2-1.6,1.4-2.1c0.3-0.5,0.3-0.5,0.4-0.6c-0.2,0-0.5,0-0.6,0c-0.8,0-0.8,0-1.7,0c-0.2,0-0.4,0-0.6,0c0,0-0.2,0-0.3,0
		L156,157.7z"/>
	<path class="st2" d="M184.3,159.9c0-0.3,0-0.6,0-0.7v-0.6c0-1.1,0-1.7-0.1-2.2h3.4c-0.1,0.6-0.1,0.6-0.1,3.4h0.7c1.4,0,2,0,2.8-0.2
		v3.3c-1-0.1-1.4-0.1-2.7-0.1h-0.9c0,1.5-0.1,1.9-0.2,2.6c-0.3,2.6-1.1,4.3-2.9,5.8c-1,0.9-2,1.4-4,2.2c-0.6-1.3-1-1.9-2.1-3
		c1.8-0.6,2.9-1,3.7-1.7c1.3-1,1.8-2.3,2-4.4c0-0.3,0-0.5,0-1.6h-3.9v2.2c0,1,0,1.4,0.1,2h-3.5c0.1-0.6,0.1-1.2,0.1-2v-2.1h-0.6
		c-1.4,0-1.6,0-2.7,0.1v-3.3c0.9,0.1,1.3,0.2,2.8,0.2h0.6v-1.4c0-0.9,0-1.4-0.1-2h3.5c-0.1,0.8-0.1,0.8-0.1,1.9v1.4L184.3,159.9
		L184.3,159.9z"/>
	<path class="st2" d="M201.6,156.4c-0.1,0.2-0.2,0.2-0.2,0.5c0,0.1-0.1,0.2-0.2,0.3s-0.2,0.3-0.2,0.4c-0.2,0.6-0.2,0.6-0.4,0.8
		l4.8-0.1c0.7,0,1,0,1.4-0.2l1.6,1.6c-0.2,0.4-0.3,0.5-0.6,1.4c-1,3.2-2.3,5.7-4,7.6c-1.8,2-3.9,3.5-7,5c-0.6-1.2-1.2-2-2.3-2.9
		c2.7-1,4.7-2.2,6.4-3.9c1.4-1.4,2.5-3.3,3.2-5.4l-5.1,0.1c-1.3,2-2.6,3.4-4.3,4.8c-1-1.1-1.4-1.5-2.7-2.3c2.3-1.7,3.8-3.4,5.1-5.8
		c0.5-1,0.7-1.6,0.8-2.3L201.6,156.4z"/>
	<path class="st2" d="M213.4,160.5c0.7,1.4,1.4,3,1.8,4.9l-3,0.9c-0.5-2-0.9-3.2-1.7-5L213.4,160.5z M224.6,160.8
		c-0.1,0.3-0.2,0.4-0.3,1.2c-0.6,2.7-1.4,4.6-2.4,6.2c-1,1.5-2.4,2.9-4,3.9c-0.6,0.4-1.2,0.7-2.3,1.3c-0.6-1.2-1-1.7-2.1-2.7
		c3.8-1.5,5.9-3.4,7.1-6.6c0.5-1.4,0.8-2.9,0.9-4.1L224.6,160.8z M217.6,159.7c1,2,1.4,2.9,1.8,4.7l-3,0.9c-0.4-1.6-0.9-3-1.8-4.8
		L217.6,159.7z"/>
	<path class="st2" d="M233.8,156c0.1,1.3,0.5,3.6,1.1,5.7c0.9-0.3,1.4-0.5,2.2-0.7c1.8-0.6,1.8-0.6,2.5-0.7c0.5-0.2,0.5-0.2,0.8-0.3
		l1.1,3.4c-1.9,0.3-4.6,1-6.9,1.8c-2.5,0.9-3.8,1.9-3.8,3c0,1.2,1.1,1.7,3.8,1.7c1.8,0,3.8-0.2,5.6-0.6c0.3-0.1,0.5-0.1,1-0.3
		l0.2,3.7c-0.5,0-0.7,0-1.7,0.2c-2.2,0.2-3.4,0.3-4.8,0.3c-2.8,0-4.7-0.4-6-1.2c-1.1-0.7-1.8-2.1-1.8-3.6c0-1.4,0.7-3,2-3.9
		c0.6-0.6,1.2-0.9,2.4-1.4c-0.5-1.7-0.6-2.2-1.1-5c-0.2-0.9-0.2-1-0.3-1.3L233.8,156z"/>
	<path class="st2" d="M259.5,158.8c-0.5,0.1-0.5,0.1-1,0.3c-1.1,0.4-2.2,0.6-3.8,1c0,1,0,2.2-0.1,2.6h3.1c1.4,0,2.2,0,3-0.2v3.1
		c-0.8-0.1-1.3-0.1-3-0.1h-3.4c-0.2,1.8-0.6,3-1.3,4.1c-0.7,1.1-1.8,2.2-3.2,3c-0.6,0.4-1,0.6-1.8,1c-0.7-1.3-1.2-1.9-2.4-2.9
		c2.3-0.9,3.5-1.6,4.3-2.7c0.5-0.7,0.8-1.4,1-2.5h-3.8c-1.8,0-2.2,0-3,0.1v-3.1c0.8,0.1,1.3,0.2,3,0.2h4c0-0.6,0-1,0-1.6v-0.6
		c-1.8,0.2-2,0.2-5,0.3c-0.2-1-0.4-1.8-1-2.9c0.6,0,1,0,1.3,0c2.6,0,6.2-0.5,8.4-1c1-0.2,1.7-0.5,2.4-0.9L259.5,158.8z"/>
	<path class="st2" d="M272.1,169.8h3c1.2,0,1.8,0,2.6-0.1v2.9c-0.7-0.1-1.2-0.1-2.6-0.1h-9c-1.4,0-1.7,0-2.6,0.1v-2.9
		c0.7,0.1,1.2,0.1,2.6,0.1h2.9V164h-1.8c-1.3,0-1.7,0-2.5,0.1v-3c0.7,0.1,1.4,0.2,2.5,0.2h6.7c1.2,0,1.8,0,2.5-0.2v3
		c-0.6-0.1-1.4-0.1-2.5-0.1H272L272.1,169.8L272.1,169.8z"/>
	<path class="st2" d="M283.5,160.5c0.7,1.4,1.4,3,1.8,4.9l-3,0.9c-0.5-2-0.9-3.2-1.7-5L283.5,160.5z M294.7,160.8
		c-0.1,0.3-0.2,0.4-0.3,1.2c-0.6,2.7-1.4,4.6-2.4,6.2c-1,1.5-2.4,2.9-4,3.9c-0.6,0.4-1.2,0.7-2.3,1.3c-0.6-1.2-1-1.7-2.1-2.7
		c3.8-1.5,5.9-3.4,7.1-6.6c0.5-1.4,0.8-2.9,0.9-4.1L294.7,160.8z M287.8,159.7c1,2,1.4,2.9,1.8,4.7l-3,0.9c-0.4-1.6-0.9-3-1.8-4.8
		L287.8,159.7z"/>
	<path class="st2" d="M306.2,156.4c-0.1,0.2-0.2,0.2-0.2,0.5c0,0.1-0.1,0.2-0.2,0.3c-0.1,0.2-0.2,0.3-0.2,0.4
		c-0.2,0.6-0.2,0.6-0.4,0.8l4.8-0.1c0.7,0,1,0,1.4-0.2l1.6,1.6c-0.2,0.4-0.3,0.5-0.6,1.4c-1,3.2-2.3,5.7-4,7.6c-1.8,2-3.9,3.5-7,5
		c-0.6-1.2-1.2-2-2.3-2.9c2.7-1,4.7-2.2,6.4-3.9c1.4-1.4,2.5-3.3,3.2-5.4l-5.1,0.1c-1.3,2-2.6,3.4-4.3,4.8c-1-1.1-1.4-1.5-2.7-2.3
		c2.3-1.7,3.8-3.4,5.1-5.8c0.5-1,0.7-1.6,0.8-2.3L306.2,156.4z"/>
	<path class="st2" d="M319,167.8c0-0.4,0-0.6,0-0.9c0-0.4,0-0.4-0.1-1.5l-0.4-6.1c0-0.8-0.2-1.7-0.2-2.6h4.5
		c-0.1,0.5-0.2,1.8-0.2,2.6l-0.4,6.1c0,0.8-0.1,1.2-0.1,1.4c0,0.2,0,0.4,0,0.9L319,167.8L319,167.8z M318.6,172.8v-3.6h3.8v3.6
		H318.6z"/>
</g>
<rect x="-158.2" y="173.9" class="st9" width="127.5" height="168.9"/>
<g>
	<g>
		<g>
			<path class="st2" d="M414.1,103.9c-5.4,5.6-4.7,10.1,2.6,17.7c-0.5,0.8-1.1,1.7-1.6,2.6c-3.7,6.5-3.6,14.2,1.3,18.6
				c3.8,3.4,4.5,7.3,5.3,11.7c0.8,5,1,9.6-1,14.6c-1.5,3.7-1.6,8.2-1.5,12.4c0.2,5.9,4.2,8.8,9.9,7.5c3.4-0.8,6.6-2.3,10.2-3.6
				c-1.8,7.6-3.6,15.2-5.5,23.2c16.5,0,32.1,0,47.8-0.1c1.1,0,3.3-1,3.3-1.4c-0.2-3.1,2.4-2.9,4.1-4c1.7-1.1,3.5-2.5,4.5-4.2
				c2.1-3.5,0.9-5.4-3.1-5.7c-0.7-0.1-1.7-0.5-1.8-0.9c-0.2-0.5,0.3-1.4,0.7-2c1.4-2.1,3-4,4.2-6.1c1.7-3.1,1.4-6.4-1.5-8.6
				c-7.9-6.1-16-11.8-24-17.8c-1-0.7-1.7-1.9-2.4-2.6c7.3-1.2,13.9-2,20.4-3.5c5.5-1.3,10.1-4.4,13.1-9.5c0.8-1.3,2.5-2.5,4-3
				c5.5-1.7,8-5.2,7.4-10.9c-0.1-1.1,0.3-2.2,0.5-3.3c0.4-2.2,0.8-4.3,1.3-6.5c0.2-1.1,0.3-2.4,0.9-3.2c5-7.3,4.6-9.9-0.5-16.2
				c4.6-7.2,4.2-14.7,0.9-22.2c-3.8-8.7-9.5-15.7-17.4-21c-7.7-5.2-16.3-7.1-24.8-3.8c-7,2.7-13,3.4-19.5-0.4c-1.7-1-4.1-1-6.2-1.1
				c-5.4-0.2-10.3,1.6-12.6,6.6c-2.3,5.1-4.7,9.2-10.9,9.5c-0.1,0-0.2,0.1-0.3,0.2C410.7,72.5,404,94.1,414.1,103.9z"/>
			<path d="M414.1,103.9c-10.1-9.8-3.4-31.4,7.8-37.1c0.1-0.1,0.2-0.2,0.3-0.2c6.2-0.2,8.6-4.3,10.9-9.5c2.2-5,7.2-6.8,12.6-6.6
				c2.1,0.1,4.5,0.1,6.2,1.1c6.5,3.8,12.5,3.1,19.5,0.4c8.5-3.3,17.2-1.3,24.8,3.8c7.8,5.3,13.6,12.3,17.4,21
				c3.3,7.5,3.7,15-0.9,22.2c5.1,6.3,5.5,8.9,0.5,16.2c0.2,1.3,1.5,2.4,1.7,3.5c0.6,4.2-2.6,4.2-3,6.3c-0.2,1.1-1.5,2.1-1.3,3.2
				c0.6,5.7-1.9,9.3-7.4,10.9c-1.5,0.5-3.2,1.6-4,3c-3,5.1-7.6,8.2-13.1,9.5c-6.5,1.5-13.1,2.3-20.4,3.5c0.7,0.8,1.4,1.9,2.4,2.6
				c8,5.9,16.1,11.7,24,17.8c2.8,2.2,3.1,5.5,1.5,8.6c-1.2,2.2-2.8,4.1-4.2,6.1c-0.4,0.6-0.9,1.4-0.7,2c0.1,0.5,1.1,0.9,1.8,0.9
				c4,0.3,5.2,2.3,3.1,5.7c-1,1.7-2.8,3-4.5,4.2c-1.6,1.1-4.2,0.9-4.1,4c0,0.4-2.1,1.4-3.3,1.4c-15.6,0.1-31.3,0.1-47.8,0.1
				c1.9-8.1,3.7-15.6,5.5-23.2c-3.6,1.3-6.8,2.8-10.2,3.6c-5.7,1.3-9.8-1.6-9.9-7.5c-0.1-4.1,0-8.6,1.5-12.4c2-5,1.8-9.6,1-14.6
				c-0.7-4.4-1.5-8.3-5.3-11.7c-4.9-4.4-5-12.1-1.3-18.6c0.5-0.9,1.1-1.8,1.6-2.6C409.4,114,408.7,109.5,414.1,103.9z M500.1,117.8
				c-0.9-1.7-1.5-2.9-2.1-4.1c-1.6-2.8-3-5.7-4.8-8.5c-0.6-1-1.8-2.2-2.9-2.3c-11.1-1.7-13.7-4-15.8-14.8c-0.1-0.5-0.3-0.9-0.3-0.8
				c-5.8-0.8-11.7-0.6-16.6-2.5c-4.9-2-9-6.2-14.1-10c-14,9.1-22.6,22.6-23.5,40.5c-0.2,3.8-0.8,7.1-2.7,10.4
				c-3.8,6.5-2.8,12.9,1.8,16.7c0.8-1.2,1.7-3.3,2.5-3.3c1.6,0.1,3.5,1,4.6,2.3c1.3,1.5,1.8,3.8,2.9,5.5c0.6,0.9,2.3,2.2,2.6,1.9
				c3-2,5-1.6,6.8,1.6c0.3,0.5,1.7,0.6,2.5,0.7c5.5,0.6,10.9,1.1,16.6,1.7c0,1.9,0,3.7,0,5.7c1.9,0,3.7,0,5.5,0
				c-0.2-1.9-0.4-3.6-0.6-5.6c1.8,0,3.2,0.2,4.6,0c6.6-0.9,13.4-1.2,19.7-3.1c8.3-2.5,11.8-9.2,11-17.9c-0.1-1.4-0.3-2.7-0.4-4.5
				c1.5,0.2,2.4,0.3,3.4,0.4c5.3,0.8,9-2.8,8.6-8.1c-0.3-3.7-2.5-5.1-5.9-3.7C502.5,116.6,501.3,117.2,500.1,117.8z M482.1,207
				c-4.7-15.6-9.1-30.6-13.6-45.5c-0.4,0.1-0.7,0.2-1.1,0.3c0,0.8,0,1.6,0,2.3c-0.3,8.2-0.7,8.9-8.1,7.9c-1.2-0.2-2.4,0-3.5,0
				c-3.3,0-4.4-1.8-3.9-4.9c0.4-2.3,0.8-4.7,1.2-7c-0.6-0.1-1.2-0.3-1.7-0.4c-6.7,14.9-9.6,31-13.9,47.4
				C452.3,207,466.6,207,482.1,207z M434.3,176.7c-0.4-0.2-0.8-0.4-1.2-0.6c0.1-2.7,0.2-5.4,0.4-8.2c-3.4-0.3-6.4-0.5-9.7-0.8
				c-2.3,4.5-3.2,9.4-2.2,14.4c0.6,3.3,2.5,7.1,5.9,6.2c4.6-1.2,10.1-3.4,12.6-6.9c3.2-4.7,3.8-11.1,5.8-17.6
				c-5.2,3.1-10.9,4.3-10.1,11.4C435.8,175.2,434.8,176,434.3,176.7z M473.8,163.5c-0.3,0.3-0.6,0.6-1,0.9c3.2,6,2,13.9,8.5,18.5
				c-2.5,1.4-2.1,5.2,1.1,9.8c4.2-1,5.6-4.8,7.7-7.8c2.4-3.4,1.9-6.6-1.1-9.1C484.1,171.6,478.9,167.6,473.8,163.5z M424.3,141.7
				c-0.5,0.1-1,0.2-1.5,0.4c0.1,1.7,0.1,3.4,0.3,5c0.6,5.2,1.6,10.3,1.9,15.5c0.2,3.3,2.3,3.4,4.5,3.7c2.3,0.2,4.2,0.1,4.9-3
				c1.4-6.8,0.5-8.5-6-9.2C427.1,149.9,425.7,145.8,424.3,141.7z M455.7,169.8c8,1.3,9.5-0.7,7.4-9.1
				C455.4,159.8,455,160.3,455.7,169.8z M491.7,194.7c-1.7,0.7-2.8,1.1-4,1.6c0-0.4,0.1-0.7,0.1-1.1c-1.7-0.4-3.4-0.9-5.1-1.3
				c-0.4,0.5-0.7,1-1.1,1.5c1.5,2.5,3,7.2,4.6,7.2C489.9,202.6,491.3,198.9,491.7,194.7z"/>
			<path class="st10" d="M500.1,117.8c1.2-0.6,2.4-1.2,3.6-1.7c3.4-1.5,5.7-0.1,5.9,3.7c0.4,5.3-3.3,8.8-8.6,8.1
				c-1-0.1-2-0.2-3.4-0.4c0.2,1.8,0.3,3.2,0.4,4.5c0.8,8.7-2.8,15.3-11,17.9c-6.3,1.9-13.1,2.2-19.7,3.1c-1.4,0.2-2.8,0-4.6,0
				c0.2,2,0.4,3.6,0.6,5.6c-1.9,0-3.6,0-5.5,0c0-2,0-3.8,0-5.7c-5.6-0.6-11.1-1.1-16.6-1.7c-0.9-0.1-2.3-0.2-2.5-0.7
				c-1.7-3.2-3.8-3.6-6.8-1.6c-0.3,0.2-2-1.1-2.6-1.9c-1.1-1.8-1.5-4-2.9-5.5c-1.1-1.2-3-2.2-4.6-2.3c-0.8,0-1.7,2.1-2.5,3.3
				c-4.6-3.8-5.6-10.2-1.8-16.7c1.9-3.3,2.5-6.6,2.7-10.4c0.9-18,9.5-31.5,23.5-40.5c5.1,3.7,9.1,8,14.1,10c4.9,2,10.7,1.7,16.6,2.5
				c0-0.1,0.2,0.3,0.3,0.8c2.1,10.7,4.7,13.1,15.8,14.8c1.1,0.2,2.2,1.3,2.9,2.3c1.7,2.7,3.2,5.6,4.8,8.5
				C498.6,114.8,499.2,116,500.1,117.8z M474.6,105.1c-1,0-2.2-0.3-3.1,0.1c-1,0.4-1.8,1.3-2.7,2c0.8,0.8,1.5,2.1,2.4,2.3
				c2.3,0.4,4.7,0.6,7,0.4c0.9-0.1,2-1.3,2.3-2.2c0.2-0.5-1.1-1.8-1.9-2.2C477.3,105.1,475.9,105.2,474.6,105.1z M437.4,110.7
				c2.1-0.1,3.9,0,5.5-0.4c0.9-0.2,2.1-1.3,2.1-2c0-0.8-1.2-2.1-1.9-2.1c-2.6-0.2-5.2-0.2-7.8,0.1c-0.7,0.1-1.7,1.4-1.8,2.3
				c-0.1,0.5,1,1.5,1.7,1.9C435.9,110.7,437,110.6,437.4,110.7z M453.8,119.3c-1-1.7-1.8-3.2-2.8-4.9c6.2-0.4,6.8-1,5.6-5.3
				c-2.5,1.6-5,3.2-8.1,5.2C448.2,117.9,449.8,119.8,453.8,119.3z M441.9,95.7c0,0.3-0.1,0.7-0.1,1c2.2,0,4.4,0.2,6.5-0.1
				c1-0.2,2.4-1.3,2.6-2.2c0.3-1.4-0.2-3-0.3-4.5c-0.7,0.3-2,0.5-2.1,1c-0.3,1.3-0.1,2.8-0.1,4.4C445.9,95.4,443.9,95.5,441.9,95.7z
				 M471.2,95.2c0.1-0.5,0.1-0.9,0.2-1.4c-2.7-0.5-6.5,1.7-7.4-3.3c-0.3,0.2-0.6,0.3-1,0.5c-0.1,1.1-0.3,2.1-0.4,3.2
				C465.5,94.5,468.4,94.9,471.2,95.2z M473,122.3c0.4,0.3,0.7,0.5,1.1,0.8c0.4-1.6,1.5-3.4,1.1-4.9c-0.2-0.8-2.7-1.1-3.9-1.5
				C472,119,472.5,120.6,473,122.3z"/>
			<path class="st11" d="M482.1,207c-15.5,0-29.8,0-44.7,0c4.3-16.4,7.2-32.5,13.9-47.4c0.6,0.1,1.2,0.3,1.7,0.4
				c-0.4,2.3-0.8,4.7-1.2,7c-0.5,3.1,0.6,4.8,3.9,4.9c1.2,0,2.4-0.1,3.5,0c7.5,1,7.9,0.3,8.1-7.9c0-0.8,0-1.6,0-2.3
				c0.4-0.1,0.7-0.2,1.1-0.3C472.9,176.4,477.4,191.4,482.1,207z"/>
			<path class="st12" d="M434.3,176.7c0.5-0.7,1.4-1.5,1.4-2.1c-0.8-7.1,5-8.3,10.1-11.4c-2,6.5-2.6,13-5.8,17.6
				c-2.5,3.6-8,5.7-12.6,6.9c-3.3,0.9-5.2-2.9-5.9-6.2c-0.9-5.1-0.1-9.9,2.2-14.4c3.3,0.3,6.4,0.5,9.7,0.8c-0.1,2.8-0.2,5.5-0.4,8.2
				C433.6,176.3,433.9,176.5,434.3,176.7z"/>
			<path class="st12" d="M473.8,163.5c5.1,4.1,10.3,8.1,15.3,12.3c3,2.5,3.5,5.7,1.1,9.1c-2.1,3-3.5,6.8-7.7,7.8
				c-3.2-4.6-3.6-8.4-1.1-9.8c-6.5-4.6-5.3-12.5-8.5-18.5C473.1,164.1,473.5,163.8,473.8,163.5z"/>
			<path class="st10" d="M424.3,141.7c1.4,4.1,2.7,8.2,4.1,12.3c6.5,0.8,7.4,2.4,6,9.2c-0.7,3.1-2.5,3.2-4.9,3
				c-2.2-0.2-4.3-0.4-4.5-3.7c-0.3-5.2-1.3-10.4-1.9-15.5c-0.2-1.7-0.2-3.3-0.3-5C423.3,141.9,423.8,141.8,424.3,141.7z"/>
			<path class="st12" d="M455.7,169.8c-0.6-9.5-0.2-9.9,7.4-9.1C465.2,169.1,463.6,171.1,455.7,169.8z"/>
			<path class="st10" d="M491.7,194.7c0.8,1.3-1.1,8.4-5.5,7.9c-1.5-0.2-3.1-4.6-4.6-7.2c0.4-0.5,0.7-1,1.1-1.5
				c1.7,0.4,3.4,0.9,5.1,1.3c0,0.4-0.1,0.7-0.1,1.1C489.3,195,490.9,193.4,491.7,194.7z"/>
			<path d="M474.6,105.1c1.3,0.1,2.7-0.1,3.9,0.3c0.8,0.3,2.1,1.6,1.9,2.2c-0.3,0.9-1.4,2.2-2.3,2.2c-2.3,0.2-4.7,0.1-7-0.4
				c-0.9-0.2-1.6-1.5-2.4-2.3c0.9-0.7,1.7-1.6,2.7-2C472.4,104.9,473.5,105.1,474.6,105.1z"/>
			<path d="M437.4,110.7c-0.5,0-1.5,0.1-2.3-0.3c-0.8-0.4-1.8-1.4-1.7-1.9c0.2-0.9,1.1-2.2,1.8-2.3c2.6-0.3,5.2-0.3,7.8-0.1
				c0.8,0.1,1.9,1.4,1.9,2.1c0,0.7-1.2,1.8-2.1,2C441.3,110.6,439.6,110.5,437.4,110.7z"/>
			<path d="M453.8,119.3c-4,0.4-5.6-1.4-5.2-5c3-1.9,5.6-3.6,8.1-5.2c1.2,4.3,0.6,4.9-5.6,5.3C452,116.2,452.8,117.6,453.8,119.3z"
				/>
			<path d="M441.9,95.7c2-0.2,4-0.3,6.5-0.5c0-1.6-0.2-3,0.1-4.4c0.1-0.5,1.4-0.7,2.1-1c0.2,1.5,0.7,3.1,0.3,4.5
				c-0.2,0.9-1.6,2-2.6,2.2c-2.1,0.3-4.3,0.1-6.5,0.1C441.8,96.3,441.9,96,441.9,95.7z"/>
			<path d="M471.2,95.2c-2.9-0.4-5.7-0.7-8.6-1.1c0.1-1.1,0.3-2.1,0.4-3.2c0.3-0.2,0.6-0.3,1-0.5c0.9,5,4.7,2.8,7.4,3.3
				C471.4,94.3,471.3,94.7,471.2,95.2z"/>
			<path d="M473,122.3c-0.5-1.7-1-3.3-1.7-5.6c1.2,0.4,3.7,0.6,3.9,1.5c0.4,1.4-0.7,3.2-1.1,4.9C473.7,122.8,473.3,122.5,473,122.3z
				"/>
		</g>
	</g>
	<ellipse transform="matrix(0.257 -0.9664 0.9664 0.257 173.2979 533.3855)" class="st10" cx="433.5" cy="154" rx="4.4" ry="2.7"/>
	
		<ellipse transform="matrix(0.1855 -0.9827 0.9827 0.1855 279.6158 575.0575)" class="st13" cx="486.7" cy="118.9" rx="3.2" ry="5.3"/>
	
		<ellipse transform="matrix(0.1855 -0.9827 0.9827 0.1855 279.6158 575.0575)" class="st11" cx="486.7" cy="118.9" rx="3.2" ry="5.3"/>
	<path d="M437.1,165.9c5.6-2.8,11.3-5.6,16.8-8.6c0.7-0.4,1.4-1.8,1.2-2.4c-0.2-0.7-1.5-1.3-2.3-1.4c-4.2-0.4-8.4-0.5-12.5-0.9
		c-2.4-0.3-3.1,1.1-3.1,3C437,159,437.1,162.4,437.1,165.9z"/>
</g>
<g>
	<path class="st3" d="M455.5,207.1l-9.8,9.7h10.6l16.2-16h-10.7l-6.3,6.2L455.5,207.1L455.5,207.1z M506.3,207.1l-9.8,9.7H507
		l16.2-16h-10.7l-6.3,6.2L506.3,207.1L506.3,207.1z M487.3,200.8l-16.3,16h10.7l16.3-16H487.3z M436.5,200.8l-16.2,16H431l16.2-16
		H436.5z M151.2,207.1l-9.8,9.7H152l16.2-16h-10.7l-6.3,6.2V207.1z M132.2,200.8l-16.2,16h10.7l16.2-16H132.2z M201.9,207.1
		l-9.8,9.7h10.6l16.2-16h-10.7l-6.3,6.2V207.1z M182.9,200.8l-16.2,16h10.7l16.2-16H182.9z M100.5,207.1l-9.9,9.7h10.6l16.2-16
		h-10.7l-6.3,6.2v0.1C100.4,207.1,100.5,207.1,100.5,207.1z M49.7,207.1l-9.8,9.7h10.6l16.2-16H56l-6.3,6.2V207.1z M81.5,200.8
		l-16.3,16h10.7l16.3-16H81.5z M335.1,200.8l-16.2,16h10.7l16.2-16H335.1z M354.1,207.1l-9.8,9.7H355l16.2-16h-10.7l-6.3,6.2
		L354.1,207.1L354.1,207.1z M404.8,207.1l-9.8,9.7h10.6l16.2-16h-10.7l-6.3,6.2L404.8,207.1L404.8,207.1z M385.8,200.8l-16.2,16
		h10.7l16.2-16H385.8z M233.6,200.8l-16.2,16h10.7l16.2-16H233.6z M252.6,207.1l-9.8,9.7h10.6l16.2-16h-10.7l-6.3,6.2L252.6,207.1
		L252.6,207.1z M303.4,207.1l-9.8,9.7h10.6l16.2-16h-10.7l-6.3,6.2L303.4,207.1L303.4,207.1z M284.4,200.8l-16.2,16h10.7l16.2-16
		H284.4z M-1,207v9.8h0.8l16.2-16H5.3L-1,207z M30.7,200.8l-16.2,16h10.7l16.2-16H30.7z"/>
</g>
<line class="st14" x1="0" y1="208.8" x2="522.2" y2="208.8"/>
<path d="M443.9,108.3h-8.6c-1.1,0-1.9-0.9-1.9-1.9v-0.9c0-1.1,0.9-1.9,1.9-1.9h8.6c1.1,0,1.9,0.9,1.9,1.9v0.9
	C445.9,107.4,445,108.3,443.9,108.3z"/>
<path d="M478.9,107.5h-8.6c-1.1,0-1.9-0.9-1.9-1.9v-0.9c0-1.1,0.9-1.9,1.9-1.9h8.6c1.1,0,1.9,0.9,1.9,1.9v0.9
	C480.8,106.7,479.9,107.5,478.9,107.5z"/>
<path class="st15" d="M442,124c0,0,9.2,9.1,13.7,8.1c4.5-1.1,7.3-2.5,14-11.1"/>
</svg>
