<?xml version="1.0" encoding="utf-8"?>
<!-- Generator: Adobe Illustrator 24.0.1, SVG Export Plug-In . SVG Version: 6.00 Build 0)  -->
<svg version="1.1" id="レイヤー_1" xmlns="http://www.w3.org/2000/svg" xmlns:xlink="http://www.w3.org/1999/xlink" x="0px"
	 y="0px" viewBox="0 0 536.9 353.9" style="enable-background:new 0 0 536.9 353.9;" xml:space="preserve">
<style type="text/css">
	.st0{fill:#FFFFFF;}
	.st1{fill:none;stroke:#E60000;stroke-width:5.6356;stroke-miterlimit:10;}
	.st2{fill:#E60000;}
	.st3{enable-background:new    ;}
	.st4{fill:none;}
	.st5{fill:none;stroke:#E60000;stroke-miterlimit:10;}
	.st6{fill:none;stroke:#000000;stroke-miterlimit:10;}
	.st7{fill-rule:evenodd;clip-rule:evenodd;}
	.st8{fill-rule:evenodd;clip-rule:evenodd;fill:#B3B3B3;}
	.st9{fill:#FF0000;stroke:#FF0000;stroke-width:0.3543;stroke-miterlimit:10;}
</style>
<g>
	<path class="st0" d="M526.5,294.4c0,5.8-4.7,10.5-10.5,10.5H20.9c-5.8,0-10.5-4.7-10.5-10.5v-277c0-5.8,4.7-10.5,10.5-10.5H516
		c5.8,0,10.5,4.7,10.5,10.5V294.4z"/>
	<path class="st1" d="M526.5,294.4c0,5.8-4.7,10.5-10.5,10.5H20.9c-5.8,0-10.5-4.7-10.5-10.5v-277c0-5.8,4.7-10.5,10.5-10.5H516
		c5.8,0,10.5,4.7,10.5,10.5V294.4z"/>
</g>
<path class="st2" d="M526.5,72.9V15.1c0-4.5-3.7-8.3-8.3-8.3H18.7c-4.5,0-8.3,3.7-8.3,8.3v57.7H526.5z"/>
<g>
	<g>
		<g>
			<path class="st0" d="M74.8,65.2H32.6c-3.2,0-6.1-1.7-7.7-4.4s-1.6-6.1,0-8.8l21.1-36.5c1.6-2.8,4.5-4.4,7.7-4.4
				c3.2,0,6.1,1.7,7.7,4.4L82.5,52c1.6,2.8,1.6,6.1,0,8.8C80.9,63.6,78,65.2,74.8,65.2z M49.3,17.3L28.2,53.9c-0.9,1.6-0.9,3.5,0,5
				c0.9,1.6,2.5,2.5,4.4,2.5h42.2c1.8,0,3.5-0.9,4.4-2.5c0.9-1.6,0.9-3.5,0-5L58.1,17.3c-0.9-1.6-2.5-2.5-4.4-2.5
				C51.9,14.8,50.2,15.8,49.3,17.3L49.3,17.3z"/>
		</g>
	</g>
</g>
<g>
	<path class="st0" d="M45.4,27.7c1.2,0.2,2.1,0.2,4.1,0.2h4.3c2.4,0,2.9,0,4.2-0.1c-0.2,1.8-0.2,3.2-0.2,5.5v17.8
		c0,2,0.1,3.5,0.3,5.1h-7.4c0.2-1.6,0.3-3.2,0.3-5.1V33.7h-1.4c-1.3,0-2.7,0.1-4.1,0.2V27.7z"/>
</g>
<g>
	<g>
		<path class="st0" d="M204.1,23.4c0-0.9-0.1-1.4-0.2-1.9h5.3c-0.1,0.6-0.1,1-0.1,1.9h9.4c0-1-0.1-1.4-0.2-1.9h5.4
			c-0.1,0.6-0.1,1-0.1,1.9h1.4c1.8,0,2.9-0.1,4-0.2v4.7c-1.3-0.1-2.5-0.2-4-0.2h-1.4v8h1.7c1.5,0,2.8-0.1,4.1-0.2v4.8
			c-1.1-0.1-2.3-0.2-3.8-0.2h-2.2c2,1.6,4,2.4,7.1,3.2c-1,1.8-1.5,2.9-2,4.8c-2.4-1-3.8-1.7-5.9-3.1v1.9c-1.1-0.1-1.7-0.1-3.3-0.1
			h-3v1.4h7.3c1.6,0,2.7-0.1,4-0.2v4.8c-1.2-0.1-2.7-0.2-4.5-0.2h-18.4c-1.8,0-3.2,0.1-4.5,0.2v-4.8c1.2,0.1,2.3,0.2,4.1,0.2h6.9
			v-1.4h-2.7c-1.5,0-2.2,0-3.2,0.1V45c-2,1.4-3.6,2.3-5.9,3.2c-0.6-1.9-1-2.9-2-4.8c3-0.7,5-1.7,7-3.3h-2.1c-1.6,0-2.8,0.1-3.9,0.2
			v-4.8c1.1,0.1,2.3,0.2,3.8,0.2h1.9v-8h-1.3c-1.5,0-2.7,0.1-4,0.2v-4.7c1.2,0.1,2.3,0.2,4,0.2H204.1z M208.5,42.7h2.7
			c0-0.8-0.1-1.4-0.2-1.9h5.3c-0.1,0.7-0.2,1.1-0.2,1.9h3.4c-1.1-1-1.8-1.7-2.5-2.7h-6.7c-0.8,1.1-1.4,1.8-2.4,2.7H208.5z
			 M218.5,28.3v-1.1h-9.4v1.1H218.5z M218.5,32.1v-1h-9.4v1H218.5z M218.5,36v-1.1h-9.4V36H218.5z"/>
		<path class="st0" d="M252.6,31.5c1.2,2.3,2.2,3.7,3.9,5.6c2.4,2.5,4.7,4.4,7.6,5.9c-1.2,1.7-1.8,2.9-2.8,5.2
			c-2.4-1.6-3.6-2.5-5.3-4.2V47c-1.1-0.1-2.1-0.2-3.4-0.2h-2.4v1.8c0,1.7,0.1,3.2,0.2,4.6h-5.8c0.1-1.4,0.2-2.9,0.2-4.6v-1.8h-2.2
			c-1.3,0-2.3,0.1-3.4,0.2v-3.1c-1.9,1.9-3.1,3-5.2,4.3c-1-2.4-1.5-3.5-2.7-5.1c2.8-1.7,5.1-3.6,7.3-6.3c1.6-1.8,2.4-3,3.6-5.4h-5.5
			c-1.7,0-3,0.1-4.4,0.2v-5.4c1.4,0.2,2.7,0.2,4.4,0.2h8v-2.1c0-1.5-0.1-2.3-0.2-3.2h5.8c-0.2,0.8-0.2,1.7-0.2,3.2v2.1h8.4
			c1.8,0,3.1-0.1,4.4-0.2v5.4c-1.5-0.2-2.7-0.2-4.4-0.2H252.6z M244.9,39c0-1.1,0-1.8,0.1-2.9c-1.2,2.3-2.3,3.9-4.1,6.1
			c0.7,0,0.9,0,1.5,0h2.5V39z M253.1,42.2c0.7,0,0.9,0,1.3,0c-1.8-2-3-3.8-4.3-6.1c0.1,1.9,0.2,2.3,0.2,2.9v3.2H253.1z"/>
		<path class="st0" d="M265.4,36.9c0.5-2.6,0.8-4.7,0.8-7.3c0-0.4,0-0.9,0-1.6l2.9,0.5c0,0.6,0,1.1,0,1.3c0,2.9-0.2,5.9-0.7,8.3
			L265.4,36.9z M274.6,49.2c0,1.9,0,2.8,0.2,4h-5.3c0.1-1.3,0.2-2.9,0.2-4.7V25c0-1.7,0-2.7-0.2-3.8h5.3c-0.1,1.2-0.2,2-0.2,3.8v3
			l1.7-0.6c0.8,1.7,1.3,2.9,1.7,4.4c0.6,0,1.1,0,2,0h4.3v-1h-3.7c-1.3,0-1.7,0-2.6,0.1v-3.2c0.9,0.1,1.3,0.1,2.7,0.1h3.7v-0.9h-3.7
			c-2.1,0-2.6,0-3.6,0.1v-3.9c1.1,0.1,1.8,0.2,3.9,0.2h3.4c0-1,0-1.4-0.2-2.1h5.2c-0.1,0.7-0.2,1.2-0.2,2.1h4.1c2,0,2.7,0,3.7-0.2
			v3.9c-1-0.1-1.9-0.1-3.6-0.1h-4.2v0.9h4.3c1.4,0,1.7,0,2.5-0.1V31c-0.8-0.1-1.2-0.1-2.6-0.1h-4.2v1h5c1.7,0,2.4,0,3.4-0.2v3.9
			c-1.1-0.1-1.7-0.2-3.4-0.2h-14.2c-1.7,0-2.3,0-3.4,0.2v-2.7l-1.1,0.5c-0.3-1.4-0.5-2.2-0.9-3.2V49.2z M282.3,49.1
			c0,1.7,0.1,2.9,0.2,4.1h-5.3c0.2-1.1,0.2-2,0.2-4.1v-10c0-1,0-1.9-0.1-2.8c0.8,0.1,1.1,0.1,2.3,0.1H293c1.5,0,2.2,0,3-0.1
			c-0.1,0.9-0.1,1.8-0.1,3.3v9.5c0,3.1-1.2,4-5.6,4c-0.6,0-1.2,0-2.6-0.1c-0.2-1.6-0.4-2.6-1-4.2c1.2,0.2,2.2,0.2,2.9,0.2
			c1.1,0,1.3-0.1,1.3-0.7v-0.7h-8.6V49.1z M290.9,40.6v-1h-8.6v1H290.9z M290.9,44.6v-1h-8.6v1H290.9z"/>
		<path class="st0" d="M311.9,29.9c1.5,0,2.3,0,3.2-0.2v4.8c-0.5-0.1-0.9-0.1-1.5-0.1c-0.4,1.6-0.5,1.8-0.8,2.8c1,0,1.6,0,2.3-0.1
			v4.8c-1.1-0.1-1.8-0.2-3.2-0.2h-1.7v1.8h1.4c1.4,0,2.2,0,3.1-0.1V48c-1-0.1-1.7-0.2-3.1-0.2h-1.4v1.6c0,1.7,0,2.7,0.2,3.8h-5.2
			c0.2-1.2,0.2-2,0.2-3.8v-1.6h-1.4c-1.4,0-2.1,0-3.1,0.2v-4.8c1,0.1,1.7,0.1,3.1,0.1h1.4v-1.8h-2c-1.4,0-2.2,0-3.2,0.2V37
			c0.9,0.1,1.3,0.1,2.5,0.1c-0.2-1.1-0.4-1.8-0.7-2.8c-0.8,0-1.2,0.1-1.8,0.1v-4.8c1,0.1,1.7,0.2,3.2,0.2h2v-1.6H304
			c-1.3,0-2.1,0-3.1,0.1v-4.8c1,0.1,1.6,0.2,3.1,0.2h1.4v-0.3c0-1-0.1-1.7-0.2-2.2h5.2c-0.2,0.6-0.2,1.2-0.2,2.2v0.3h1.2
			c1.5,0,2.1,0,3.1-0.2v4.8c-1.1-0.1-1.8-0.1-3.1-0.1h-1.2v1.6H311.9z M308.4,37.1c0.3-1,0.4-1.7,0.7-2.8h-2.7
			c0.3,1.1,0.4,1.7,0.6,2.8H308.4z M331.5,35.5c-0.1,0.5-0.2,0.8-0.4,1.7c-0.6,2.8-1.5,5.8-2.5,7.9c1.3,1.2,2,1.8,3.9,2.9
			c-1.4,2.1-1.9,3.2-2.7,5.2c-1.7-1.4-2.4-2-3.9-3.7c-1.1,1.5-1.9,2.3-3.4,3.7c-0.7-1.5-1.1-2.3-1.9-3.4c0,1.5,0.1,2.3,0.2,3.5h-5.3
			c0.1-1.4,0.2-2.6,0.2-4.7V25.8c0-1.2-0.1-2.8-0.1-3.7c1,0.1,1.9,0.1,3.1,0.1h8.9c1.6,0,2.9-0.1,3.4-0.2c-0.1,1.3-0.1,1.3-0.2,3.3
			c-0.2,4-0.4,5.1-1.2,5.9c-0.6,0.7-1.7,1-3.9,1c-0.7,0-1.5,0-2.9-0.1c-0.1-1.4-0.4-2.5-0.9-4c1.4,0.2,2.3,0.3,3.1,0.3
			s0.8-0.2,0.9-1.7h-5.4v6.3h5.2c1.9,0,2.9,0,3.7-0.2L331.5,35.5z M320.6,48.1c0.9-0.7,1.7-1.6,2.5-2.6c-1.1-2-1.9-3.8-2.5-6.1V48.1
			z M324.1,37.4c0.4,1.3,0.8,2.3,1.4,3.6c0.4-1.3,0.6-1.9,1-3.6H324.1z"/>
		<path class="st0" d="M335.3,24.8c1.5,0.3,3.5,0.5,7,0.5c0.2,0,0.5,0,1,0c0.7-1.6,0.9-2.5,1.1-3.8l6.2,0.5
			c-0.3,0.5-0.3,0.5-0.7,1.6c-0.4,1-0.6,1.5-0.7,1.6c0.3,0,0.3,0,2.1-0.1c3.3-0.2,6.8-0.6,8.6-1.1l0.2,5.4c-1.1,0.1-2.1,0.2-3.1,0.3
			c-2.4,0.2-6.7,0.5-10.1,0.6c-0.6,1-0.8,1.4-1.6,2.5c1.5-0.7,2.9-1,4.3-1c2.8,0,4.5,1.1,5.2,3.3c0.6-0.2,0.6-0.2,2.4-0.8
			c0.1,0,1-0.3,2.1-0.7c1.9-0.6,2.2-0.7,2.7-1l2.1,5.4c-1.8,0.2-5.4,1.2-8.7,2.3c0,0.9,0,1,0,2.4c0,1.5,0,2,0.1,2.9l-5.5,0.2
			c0.1-0.5,0.1-1.6,0.2-3.6l-0.3,0.1c-1.6,0.7-1.8,0.9-2.4,1.4c-0.6,0.5-0.9,1.1-0.9,1.7c0,1.3,1.3,1.8,4.6,1.8
			c4.1,0,8-0.6,10.9-1.7l0.4,6.1c-1,0-1,0-3,0.3c-2.7,0.3-5.5,0.5-8.2,0.5c-3.8,0-6.3-0.5-8.1-1.6c-1.7-1-2.7-2.8-2.7-4.8
			c0-1.6,0.5-2.9,1.7-4.3c1.3-1.5,2.8-2.6,4.9-3.6c0.8-0.4,1.2-0.5,2.5-1.2c-0.3-0.6-0.7-0.9-1.4-0.9c-1.7,0-4.1,1.2-6.5,3.3
			c-1.4,1.3-2.3,2.2-3.3,3.4l-4.3-4.3c1.1-0.8,2.5-2.2,3.6-3.5c0.7-0.9,2.1-2.9,2.6-3.7c0.5-0.8,0.5-0.8,0.6-1.1c-0.5,0-0.8,0-1.1,0
			c-1.5,0-1.5,0-2.9,0c-0.5,0-0.7,0-1.2,0c-0.1,0-0.3,0-0.5,0L335.3,24.8z"/>
		<path class="st0" d="M376,27.3c-1.2,0-2.4,0.1-3.9,0.2v-5.4c1.2,0.2,2,0.2,3.8,0.2h6.3c1.2,0,2.1,0,3-0.1c0,1-0.1,1.5-0.1,2.2
			c0,5.3,1.5,10.6,4.4,14.9c2.2,3.5,5.4,6.4,9.4,8.6c-1.7,1.7-2.6,3-3.7,5.4c-2.9-2-4.8-3.6-6.9-6.2c-2.8-3.4-4.3-6.1-5.5-10.1
			c-1.4,4.1-2.7,6.6-5,9.5c-2.1,2.6-4.4,4.6-8,6.8c-1.1-2.1-2-3.3-3.6-4.9c2.7-1.5,4.1-2.5,5.8-4.1c2.9-2.8,5.1-6.4,6.3-10.3
			c0.6-2.1,0.9-3.8,1.1-6.6H376z"/>
		<path class="st0" d="M425.7,27.9c2.2,0,3.5,0,4.8-0.2c-0.1,1.4-0.2,1.8-0.2,3.6c-0.1,7.4-0.5,13.9-1,16.7
			c-0.3,1.7-1.1,3.1-2.2,3.7c-1.1,0.6-2.7,0.9-4.9,0.9c-1.2,0-2.2,0-4.4-0.2c-0.3-2.4-0.6-3.9-1.4-5.7c2.1,0.3,3.3,0.4,4.6,0.4
			c1.8,0,2.4-0.2,2.8-1c0.5-1.4,0.9-6.1,0.9-12.9h-7.8c-0.7,6-2.1,9.9-4.7,13.3c-1.9,2.5-4.5,4.7-8.2,6.7c-1.3-2.2-2.2-3.6-3.9-5.1
			c4.2-1.9,6.9-4,8.7-6.9c1.4-2.2,2-4.4,2.4-8H406c-1.5,0-3,0.1-4.2,0.2v-5.7c1.4,0.2,2.7,0.2,4.4,0.2h5.4c0-1,0-1.3,0-2
			c0-2-0.1-3.1-0.2-4.2h6.4c-0.2,1-0.2,1-0.3,5c0,0.4,0,0.5,0,1.2H425.7z"/>
	</g>
</g>
<rect x="7.7" y="3.4" class="st4" width="92" height="69.5"/>
<rect x="99.7" y="3.4" transform="matrix(-1 -1.224647e-16 1.224647e-16 -1 629.7255 76.2633)" class="st4" width="430.3" height="69.5"/>
<g>
	<path class="st0" d="M465.9,289.9c8.8-1.4,16.9-2.3,24.9-4.2c6.6-1.5,12.1-5.3,15.8-11.4c0.9-1.6,3-3,4.8-3.6c6.6-2,9.7-6.3,9-13.2
		c-0.1-1.3,0.3-2.7,0.5-4c0.5-2.6,1-5.2,1.6-7.8c0.3-1.3,0.2-2.9,0.9-3.9c6.4-9.5,6.4-11-0.4-19.8c5.1-7.2,5.5-15.1,2.7-23.2
		c-3.6-10.5-9.9-19.1-18.4-26.2c-12.6-10.5-26.6-12.1-41.3-5.4c-3.5,1.6-6.1,1.7-9.6-0.1c-16.9-8.7-27.3-4.5-33.9,13.3
		c-21.4,2.6-31.4,28.1-19.3,46.7c-1.3,3-3.2,5.4-3.5,8c-0.7,6.1,3.1,10.3,7.4,13.8c-1,1.6-1.8,2.7-2.4,4c-3.4,7.2-5,15,1.1,20.9
		c5.5,5.3,6.5,11.5,7.6,18.1c0.7,4.4,0.5,8.5-1.1,13c-1.8,5.1-2.4,10.8-2.4,16.3c0,7.8,5.2,11.4,12.8,9.5c3.7-0.9,7.2-2.6,11.5-4.2
		c-2.2,9.5-4.4,18.4-6.6,27.9c20.1,0,39.5,0,59-0.1c1,0,2.7-0.9,2.7-1.3c-0.1-3.9,3.3-3.9,5.5-5.4c1.8-1.1,3.7-2.7,4.8-4.5
		c2.6-4.3,1.2-6.8-3.7-7.1c-0.7,0-1.8-0.3-1.9-0.7c-0.2-0.7-0.1-1.8,0.4-2.5c0.9-1.3,2.2-2.3,3.1-3.6c4.9-6.7,5-11.3-1.4-16.5
		c-8.7-7.1-18.2-13.2-27.2-19.8C467.6,292.1,466.7,290.8,465.9,289.9z"/>
	<path d="M465.9,289.9c0.8,0.9,1.7,2.2,2.9,3.1c9.1,6.6,18.5,12.8,27.2,19.8c6.4,5.2,6.4,9.8,1.4,16.5c-0.9,1.3-2.2,2.3-3.1,3.6
		c-0.4,0.6-0.6,1.7-0.4,2.5c0.1,0.4,1.2,0.7,1.9,0.7c4.9,0.3,6.4,2.8,3.7,7.1c-1.1,1.8-2.9,3.3-4.8,4.5c-2.2,1.4-5.6,1.5-5.5,5.4
		c0,0.5-1.8,1.3-2.7,1.3c-19.5,0.1-39,0.1-59,0.1c2.3-9.5,4.4-18.4,6.6-27.9c-4.2,1.6-7.8,3.2-11.5,4.2c-7.7,2-12.9-1.7-12.8-9.5
		c0-5.5,0.6-11.2,2.4-16.3c1.6-4.5,1.9-8.6,1.1-13c-1.1-6.6-2.1-12.8-7.6-18.1c-6.1-5.8-4.4-13.7-1.1-20.9c0.6-1.3,1.5-2.4,2.4-4
		c-4.3-3.6-8.1-7.8-7.4-13.8c0.3-2.6,2.1-5,3.5-8c-12.2-18.6-2.1-44.1,19.3-46.7c6.6-17.8,17.1-22,33.9-13.3c3.5,1.8,6,1.7,9.6,0.1
		c14.8-6.7,28.8-5.2,41.3,5.4c8.4,7.1,14.8,15.7,18.4,26.2c2.7,8.1,2.4,15.9-2.7,23.2c6.9,8.8,6.8,10.3,0.4,19.8
		c-0.7,1-0.7,2.6-0.9,3.9c-0.5,2.6-1.1,5.2-1.6,7.8c-0.2,1.3-0.6,2.7-0.5,4c0.7,6.8-2.4,11.2-9,13.2c-1.8,0.5-3.9,2-4.8,3.6
		c-3.6,6.2-9.1,9.9-15.8,11.4C482.9,287.5,474.7,288.4,465.9,289.9z M462.5,287.3c2.4,0,4.2,0,6.1,0c8.5,0.2,16.8-0.7,24.6-4.2
		c8.5-3.9,12.5-10.4,12.1-19.7c-0.1-2.2-0.3-4.3-0.5-6.8c1.5,0.1,2.5,0,3.5,0.2c6.8,1.1,11.3-2.7,11-9.5c-0.2-4.8-2.9-6.7-7.3-4.8
		c-1.5,0.6-3.1,1.4-4.3,1.9c-3.4-6-6.5-11.6-9.3-16.5c-5.3-2-11.4-2.8-15.2-6.2c-3.8-3.5-5.3-9.5-8.2-15
		c-13.2,1.3-26.1-0.9-33.9-15.3c-16,10.3-26.3,23.9-29.3,42.4c-1.3,8.2-1.2,16.4-5.5,24.2c-3.5,6.4-0.9,13,3.6,16.3
		c1.1-1.4,2-3.7,3.3-3.9c1.5-0.2,3.7,0.9,4.8,2.2c1.6,1.9,2.5,4.3,3.5,6.6c1,2.3,1.5,4.6,5,2.3c1.2-0.8,3.9,0.5,5.8,1.2
		c1.5,0.5,2.7,2.1,4.2,2.2c6.6,0.9,13.2,1.4,19.9,2.1c0,2.4,0,4.5,0,6.9c2.4,0,4.5,0,6.8,0C463.1,291.8,462.9,289.9,462.5,287.3z
		 M450.7,295.7c-0.7-0.2-1.4-0.4-2.1-0.5c-8.2,18.1-11.6,37.8-16.8,57.5c18.1,0,35.6,0,54.2,0c-5.7-19.3-11.2-37.6-16.7-56
		c-1.2,3.4-1,6.8-1.8,9.9c-0.4,1.6-2.7,3.5-4.3,3.8c-3.2,0.5-6.6-0.2-9.9-0.3c-3.6-0.2-4.6-2.3-4.2-5.5
		C449.6,301.5,450.2,298.6,450.7,295.7z M415.7,304.2c-3.3,6-4.3,12.6-2.3,19.1c0.8,2.4,3.5,5.1,5.9,6.1c4,1.6,15.5-5.3,16.8-9.5
		c2-6.4,3.9-12.9,6.1-20.4c-5.9,3.8-13.2,4.9-12.2,13.8c0.1,0.8-1.3,1.8-2,2.8c-0.4-0.2-0.7-0.4-1.1-0.6c0.2-3.4,0.3-6.8,0.5-10.1
		C423.1,304.8,419.5,304.5,415.7,304.2z M485.6,335.6c6.5-1.4,8.6-6.7,10.9-11.3c1-1.9,0.8-5.9-0.6-7.3
		c-6.3-6.1-13.2-11.7-19.9-17.4c-0.4,0.4-0.9,0.8-1.3,1.3c4.2,7.2,2.3,17.2,10.9,22.8c-1.1,0.4-2.1,0.7-3.4,1.1
		C483.4,328.4,484.5,331.9,485.6,335.6z M416.2,273.5c-0.5,0.1-1.1,0.2-1.6,0.3c-0.1,0.7-0.3,1.5-0.2,2.2c0.9,8,1.7,16,3,23.9
		c0.2,1.2,2.6,2.7,4,2.8c2.1,0.2,6-0.6,6.1-1.4c0.5-3.8,0.1-7.8-0.3-11.7c0-0.5-2.2-0.8-3.4-1c-1-0.2-2.1-0.2-2.7-0.3
		C419.4,283.2,417.8,278.4,416.2,273.5z M431.7,302.7c6.6-3.3,13.6-6.8,20.5-10.4c0.7-0.4,1.5-2.1,1.2-2.7c-0.4-0.9-1.7-1.8-2.7-1.9
		c-5-0.5-10.1-0.6-15.2-1.1c-3.2-0.3-3.8,1.4-3.9,3.9C431.7,294.6,431.7,298.6,431.7,302.7z M463.2,307.7c0.3-3.7,0.5-7.5,0.8-11.2
		c-10-0.9-11.5,0.8-9.7,11.2C457,307.7,459.8,307.7,463.2,307.7z M497.2,337.7c-1.4,0.7-2.8,1.4-4.3,2.1c-0.9-1.3-1.7-2.3-2.6-3.6
		c-1.5,0.6-2.8,1.2-4.6,1.9c2.7,3.1,0.1,8.9,5.5,9.5C494.6,347.9,497.4,342.8,497.2,337.7z"/>
	<path class="st0" d="M462.5,287.3c0.3,2.6,0.6,4.5,0.8,6.7c-2.3,0-4.4,0-6.8,0c0-2.3,0-4.5,0-6.9c-6.8-0.7-13.4-1.3-19.9-2.1
		c-1.5-0.2-2.7-1.7-4.2-2.2c-1.9-0.7-4.6-1.9-5.8-1.2c-3.5,2.2-4-0.1-5-2.3c-1-2.3-2-4.8-3.5-6.6c-1.1-1.3-3.3-2.4-4.8-2.2
		c-1.3,0.2-2.2,2.5-3.3,3.9c-4.5-3.3-7.2-9.9-3.6-16.3c4.3-7.8,4.2-16,5.5-24.2c3-18.5,13.3-32.1,29.3-42.4
		c7.8,14.4,20.7,16.5,33.9,15.3c2.8,5.5,4.3,11.5,8.2,15c3.8,3.4,9.9,4.2,15.2,6.2c2.7,4.9,5.9,10.5,9.3,16.5
		c1.3-0.6,2.8-1.3,4.3-1.9c4.4-1.8,7.1,0,7.3,4.8c0.2,6.8-4.2,10.6-11,9.5c-1-0.2-2.1-0.1-3.5-0.2c0.2,2.5,0.5,4.7,0.5,6.8
		c0.4,9.3-3.6,15.8-12.1,19.7c-7.8,3.5-16.2,4.4-24.6,4.2C466.7,287.3,464.9,287.3,462.5,287.3z M470.5,234.3
		c3.3,0.3,6.8,0.8,10.2,0.7c1.2,0,2.3-1.6,3.5-2.5c-1-1-1.9-2.6-3.1-2.8c-2.4-0.5-5-0.2-7.5-0.4C469.8,229.1,469.3,231,470.5,234.3z
		 M439.6,250.9c7.5,11.4,24,9.8,31.5-2.7c-3.3,1.7-6.5,3.5-9.5,5.6c-6,4.3-11.7,4-17.4-0.7C442.9,252.1,441.1,251.7,439.6,250.9z
		 M427.5,235.4c4,0,7.8,0.1,11.5-0.1c0.8-0.1,2.2-1.7,2.1-2.3c-0.2-1-1.4-2.5-2.3-2.6c-2.6-0.4-5.4-0.1-8.1-0.1
		C427.4,230.2,426.1,231.6,427.5,235.4z M490.5,235.6c-3.3,1.7-8.5,3.5-8.3,4.4c0.8,4.6,5.3,3.5,8.4,3.2c2.7-0.3,5.3-2.1,8-3.3
		C496,238.6,493.5,237.2,490.5,235.6z M455.4,233.8c-3.4,2.2-6.6,4.3-10.2,6.6c0.1,4.6,2.2,6.7,6.4,5.6c-1.1-1.8-2.2-3.6-3.4-5.6
		C456,239.8,456.1,239.7,455.4,233.8z M437,217.8c9,1.9,11.2,1.4,11.5-2.4c0.2-2,1-4.9-2.8-5c-0.5,2.4-0.3,5.5-1.7,6.5
		C442.4,218.1,439.4,217.6,437,217.8z M478.8,243.7c-3.1,0-5.1,0-7.1,0c0,0.2-0.1,0.5-0.1,0.7c1,0.3,2.1,0.6,3.1,0.9
		c0,1.9,0,3.5,0,5.2c0.5,0.2,1,0.3,1.5,0.5C477,248.8,477.8,246.7,478.8,243.7z M473.4,217.1c0.1-0.6,0.1-1.2,0.2-1.8
		c-1.7,0.1-3.4,0.4-5.1,0.3c-1.1-0.1-2.2-0.6-3.1-1.2c-0.7-0.5-1.1-1.4-1.7-2.1c-0.5,0.7-1.5,1.5-1.4,2c0.3,1,1.1,2.6,1.9,2.7
		C467.3,217.2,470.3,217.1,473.4,217.1z"/>
	<path class="st0" d="M450.7,295.7c-0.5,2.9-1.1,5.8-1.5,8.8c-0.4,3.1,0.6,5.3,4.2,5.5c3.3,0.2,6.7,0.8,9.9,0.3
		c1.6-0.2,3.9-2.2,4.3-3.8c0.8-3.1,0.6-6.4,1.8-9.9c5.5,18.4,10.9,36.7,16.7,56c-18.6,0-36.1,0-54.2,0c5.2-19.7,8.5-39.3,16.8-57.5
		C449.3,295.3,450,295.5,450.7,295.7z"/>
	<path class="st0" d="M415.7,304.2c3.9,0.4,7.4,0.7,11.6,1.1c-0.2,3.3-0.3,6.7-0.5,10.1c0.4,0.2,0.7,0.4,1.1,0.6
		c0.7-0.9,2.1-1.9,2-2.8c-1-8.9,6.4-10,12.2-13.8c-2.2,7.5-4,14-6.1,20.4c-1.3,4.2-12.8,11.1-16.8,9.5c-2.4-1-5.1-3.6-5.9-6.1
		C411.3,316.7,412.3,310.2,415.7,304.2z"/>
	<path class="st0" d="M485.6,335.6c-1.2-3.7-2.2-7.2-3.4-10.9c1.2-0.4,2.2-0.7,3.4-1.1c-8.7-5.6-6.8-15.6-10.9-22.8
		c0.4-0.4,0.9-0.8,1.3-1.3c6.7,5.7,13.6,11.3,19.9,17.4c1.4,1.3,1.5,5.3,0.6,7.3C494.2,328.9,492.2,334.2,485.6,335.6z"/>
	<path class="st0" d="M416.2,273.5c1.6,4.8,3.2,9.7,4.9,14.9c0.6,0.1,1.7,0.1,2.7,0.3c1.2,0.2,3.3,0.5,3.4,1
		c0.4,3.9,0.8,7.9,0.3,11.7c-0.1,0.8-4,1.6-6.1,1.4c-1.5-0.1-3.9-1.7-4-2.8c-1.3-7.9-2.1-15.9-3-23.9c-0.1-0.7,0.2-1.5,0.2-2.2
		C415.2,273.8,415.7,273.6,416.2,273.5z"/>
	<path class="st0" d="M431.7,302.7c0-4.1,0-8.1,0-12.1c0-2.5,0.7-4.2,3.9-3.9c5,0.5,10.1,0.6,15.2,1.1c1,0.1,2.3,1,2.7,1.9
		c0.3,0.6-0.5,2.3-1.2,2.7C445.3,295.9,438.3,299.4,431.7,302.7z"/>
	<path class="st0" d="M463.2,307.7c-3.4,0-6.2,0-8.9,0c-1.8-10.4-0.3-12.2,9.7-11.2C463.7,300.2,463.5,304,463.2,307.7z"/>
	<path class="st0" d="M497.2,337.7c0.2,5.1-2.6,10.2-6.1,9.9c-5.4-0.6-2.7-6.4-5.5-9.5c1.8-0.8,3.2-1.3,4.6-1.9
		c0.9,1.3,1.7,2.4,2.6,3.6C494.5,339.1,495.8,338.4,497.2,337.7z"/>
	<path d="M470.5,234.3c-1.2-3.4-0.7-5.2,3-5.1c2.5,0.1,5.1-0.2,7.5,0.4c1.2,0.2,2.1,1.9,3.1,2.8c-1.2,0.9-2.3,2.5-3.5,2.5
		C477.3,235.1,473.9,234.6,470.5,234.3z"/>
	<path d="M439.6,250.9c1.5,0.7,3.3,1.2,4.6,2.3c5.7,4.7,11.3,5,17.4,0.7c3-2.1,6.2-4,9.5-5.6C463.6,260.7,447.1,262.3,439.6,250.9z"
		/>
	<path d="M427.5,235.4c-1.5-3.8-0.1-5.2,3.2-5.1c2.7,0,5.4-0.2,8.1,0.1c0.9,0.1,2.1,1.6,2.3,2.6c0.1,0.6-1.3,2.2-2.1,2.3
		C435.3,235.5,431.5,235.4,427.5,235.4z"/>
	<path d="M490.5,235.6c3,1.6,5.5,3,8.1,4.3c-2.7,1.2-5.2,3-8,3.3c-3.1,0.3-7.6,1.4-8.4-3.2C482,239.1,487.2,237.3,490.5,235.6z
		 M485.5,239.3c0,0.6,0,1.2,0,1.8c3.1,0,6.2,0,9.3,0c0-0.6,0-1.2,0-1.8C491.7,239.3,488.6,239.3,485.5,239.3z"/>
	<path d="M455.4,233.8c0.7,5.9,0.6,6-7.2,6.6c1.2,2,2.3,3.8,3.4,5.6c-4.2,1.1-6.3-1-6.4-5.6C448.8,238.1,452,236.1,455.4,233.8z"/>
	<path d="M437,217.8c2.4-0.2,5.4,0.3,7.1-0.9c1.4-1,1.2-4.1,1.7-6.5c3.7,0.1,2.9,3,2.8,5C448.2,219.2,446,219.8,437,217.8z"/>
	<path d="M478.8,243.7c-1.1,3-1.8,5.1-2.6,7.2c-0.5-0.2-1-0.3-1.5-0.5c0-1.6,0-3.2,0-5.2c-1-0.3-2-0.6-3.1-0.9
		c0-0.2,0.1-0.5,0.1-0.7C473.8,243.7,475.8,243.7,478.8,243.7z"/>
	<path d="M473.4,217.1c-3.1,0-6.1,0.2-9.2-0.1c-0.7-0.1-1.6-1.6-1.9-2.7c-0.1-0.5,0.9-1.4,1.4-2c0.6,0.7,1,1.6,1.7,2.1
		c0.9,0.6,2,1.1,3.1,1.2c1.7,0.1,3.4-0.2,5.1-0.3C473.5,215.8,473.5,216.5,473.4,217.1z"/>
	<path class="st0" d="M485.5,239.3c3.1,0,6.2,0,9.3,0c0,0.6,0,1.2,0,1.8c-3.1,0-6.2,0-9.3,0C485.5,240.5,485.5,239.9,485.5,239.3z"
		/>
</g>
<g>
	<path d="M25.2,140.6c0,1.9-1.5,3.4-3.3,3.4c-1.9,0-3.4-1.5-3.4-3.3c0-1.9,1.5-3.4,3.4-3.4C23.7,137.2,25.2,138.7,25.2,140.6z"/>
	<path d="M30.6,139.5c-1.1,0-1.7,0-2.4,0.1v-3.1c0.6,0.1,1.3,0.1,2.4,0.1h1.3v-1.4h-0.7c-0.9,0-1.5,0-2.1,0.1v-3.1
		c0.6,0.1,1.1,0.1,2.1,0.1h0.7V132c0-0.5,0-1-0.1-1.6h3.4c-0.1,0.5-0.1,0.9-0.1,1.6v0.4h0.2c0.7,0,1,0,1.4-0.1v1.6
		c0.5-0.8,0.9-1.7,1.2-2.6l1.9,1.3c0-0.6,0-1-0.1-1.6c0.5,0.1,1.1,0.1,2,0.1h3.6c1,0,1.4,0,1.9-0.1l1.4,2.1
		c-0.2,0.3-0.2,0.3-0.7,1.9c-0.4,1.2-0.8,2.1-1.6,4c0.9,1.4,1.3,2.1,1.7,3.2c0.3,0.9,0.4,1.7,0.4,2.4c0,1.5-0.2,2.2-0.9,2.8
		s-1.7,0.9-3.3,0.9c-0.1,0-0.3,0-0.5,0c-0.1-1.7-0.2-2.2-0.8-3.2v3c0,1.2,0,2.2,0.1,3h-3.5c0.1-0.7,0.1-1.7,0.1-3.1v-14
		c-0.6,1.1-1,1.8-1.6,2.8c0.5,0,0.8,0,1.1-0.1v3c-0.5,0-1.1-0.1-2.2-0.1h-1.1c-0.4,0.4-0.7,0.7-0.9,1h2c0.7,0,1.1,0,1.6-0.1
		c-0.1,0.6-0.1,1.1-0.1,2.4v5.5c0,1,0,1.7,0.1,2.4h-3.1V150h-2.7v1h-3.1c0.1-0.7,0.1-1.3,0.1-2.5v-3.6c-0.3,0.2-0.5,0.3-1.1,0.7
		c-0.3-1.3-0.7-2.2-1.2-3.2c1.7-0.8,2.9-1.6,4.5-2.9H30.6z M33.1,144h2.7v-1h-2.7V144z M33.1,147.3h2.7v-1h-2.7V147.3z M35.3,136.6
		c0.4-0.5,0.7-0.9,1.1-1.4c-0.1,0-0.3,0-0.5,0h-0.9v1.4H35.3z M43.2,144.8c0.4,0,0.6,0,0.8,0c0.9,0,1.3-0.3,1.3-1.1
		c0-0.7-0.2-1.6-0.4-2.3c-0.3-0.9-0.7-1.4-1.4-2.4c0.7-1.7,1.2-3.2,1.7-5.1h-1.9V144.8z"/>
	<path d="M50.2,138.3c0.6,0.1,0.9,0.1,1.8,0.1h2.1c0.7,0,1.2,0,1.7-0.1c-0.1,0.7-0.1,1.1-0.1,2.5v4.8c0.6,0.8,1,1.1,1.9,1.3
		c1.1,0.3,2.6,0.4,5.4,0.4c3.2,0,5.8-0.1,8-0.4c-0.5,1.3-0.7,2-0.8,3.5c-2.6,0.1-5.9,0.1-8,0.1c-3.1,0-4.8-0.2-6.1-0.7
		c-0.8-0.3-1.2-0.7-1.9-1.4c-0.8,0.8-1.5,1.4-2.6,2.1c-0.2,0.1-0.2,0.2-0.4,0.4l-1.5-3.5c0.7-0.2,1.5-0.7,2.8-1.7v-4h-0.9
		c-0.5,0-0.8,0-1.4,0.1V138.3z M58.8,132.5c-0.4-0.7-0.6-1-1-1.6l3.2-0.7c0.6,0.9,0.9,1.4,1.3,2.3h1.6c0.6-0.9,0.8-1.4,1.2-2.3
		l3.4,0.6c-0.5,0.8-0.6,1.1-1,1.7h0.8c1,0,1.5,0,2.2-0.1v3c-0.7-0.1-1.3-0.1-2.2-0.1h-3.4c-0.2,0.4-0.3,0.6-0.4,0.8h2.9
		c1,0,1.5,0,1.8-0.1c0,0.5-0.1,1-0.1,2v6.6c0,0.9,0,1.3,0.1,2c-0.2,0-0.2,0-0.6,0c-0.1,0-1.1,0-1.2,0h-8.3c-0.1,0-0.8,0-1.9,0
		c0-0.5,0.1-1.3,0.1-2.1v-6.6c0-0.7,0-1.4-0.1-2c0.7,0,1,0,2,0H61c0.2-0.4,0.2-0.5,0.4-0.8h-2.9c-0.9,0-1.7,0-2.2,0.1v-0.8l-2.4,2.4
		c-1.2-1.6-2.2-2.7-3.9-4.1l2.5-2.3c1.9,1.6,3,2.7,3.9,3.9v-2c0.5,0.1,1.3,0.1,2.3,0.1H58.8z M60.5,139h5.4v-0.7h-5.4V139z
		 M60.5,141.5h5.4v-0.7h-5.4V141.5z M60.5,144.1h5.4v-0.7h-5.4V144.1z"/>
	<path d="M81.8,138.5c-0.2,0.4-0.3,0.6-0.6,1.1v8.9c0,1.2,0,1.8,0.1,2.4h-3.5c0.1-0.7,0.1-1.4,0.1-2.5v-2.5c0-1.1,0-1.6,0.1-2.1
		c-0.3,0.4-0.5,0.7-0.8,0.9c-0.3-0.7-0.4-1-0.6-1.5c-0.3,3.5-0.9,5.6-2.2,7.7c-1.1-1.3-1.5-1.7-2.8-2.6c0.9-1.6,1.3-2.9,1.6-5.4
		c0.2-2,0.3-4.5,0.3-8.5c0-1.1,0-1.9-0.1-2.8c0.9,0.1,1.7,0.1,2.8,0.1h5.1v-0.5c0-0.5,0-0.8-0.1-1.1h3.6c-0.1,0.3-0.1,0.6-0.1,1.2
		v0.4h5c1.3,0,2.3,0,2.9-0.1v3.4c-0.8-0.1-1.6-0.1-2.8-0.1h-9.5l2.7,0.7c-0.3,0.9-0.5,1.2-0.9,2c0.5,0,0.7,0,1.4,0h3.6v-0.2
		c0-1.1,0-1.5-0.1-2.1h3.5c-0.1,0.6-0.1,1-0.1,2v0.3h0.3c1,0,1.4,0,1.9-0.1v3.2c-0.6-0.1-1.1-0.1-2-0.1h-0.2v7.6
		c0,1.1-0.3,1.7-1,2.1c-0.6,0.3-1.4,0.4-2.8,0.4c-0.7,0-1.1,0-2.1,0c-0.2-1.3-0.4-1.9-1-3.2c1.1,0.1,2.1,0.2,2.8,0.2
		c0.9,0,1-0.1,1-0.6v-6.4h-3.4c-1,0-1.4,0-2.1,0.1V138.5z M76.9,134.9c0,3,0,3.5-0.1,5.3c1.4-1.5,2.4-3.4,3-5.3H76.9z M84.4,140.8
		c1.3,1.6,2,2.5,2.8,4l-2.8,1.8c-0.8-1.6-1.5-2.7-2.7-4.2L84.4,140.8z"/>
	<path d="M106,148.2c0,1.3,0,2.1,0.1,2.7h-3.6c0.1-0.7,0.1-1.5,0.1-2.7v-3.5h-3.6l2.6,1.2c-1.6,2.2-3.1,3.5-5.3,4.8
		c-0.9-1.2-1.4-1.7-2.3-2.6c1.5-0.6,2.3-1.2,3.4-2.2c0.5-0.5,0.7-0.7,1.1-1.2h-1c-1.1,0-1.8,0-2.4,0.1c0.1-0.7,0.1-1.2,0.1-2.4v-7.8
		c0-1.2,0-1.7-0.1-2.4h3.5c-0.1,0.7-0.1,1.2-0.1,2.4v7.4h13.2c1.4,0,2.1,0,2.7-0.1v3.1c-0.7-0.1-1.5-0.1-2.7-0.1H110
		c1.4,1.5,2.3,2.2,4.7,3.2c-0.9,1-1.3,1.5-2.1,2.8c-1.4-0.8-2-1.2-2.9-2c-1-0.9-1.7-1.6-2.7-2.8l2.4-1.2H106V148.2z M112.5,139.4
		c0,0.8,0,1.4,0.1,1.9c-0.6,0-1.3-0.1-2-0.1h-8.9c-0.8,0-1.5,0-2,0.1c0-0.6,0.1-1.2,0.1-1.9v-6.6c0-0.7,0-1.3-0.1-1.9
		c0.5,0,1.2,0.1,2.1,0.1h8.9c0.8,0,1.5,0,2-0.1c0,0.6-0.1,1.1-0.1,1.9V139.4z M102.9,133.9h6.3v-0.7h-6.3V133.9z M102.9,136.5h6.3
		v-0.7h-6.3V136.5z M102.9,139.1h6.3v-0.8h-6.3V139.1z"/>
	<path d="M131.5,140.6c0,1.9-1.5,3.4-3.3,3.4c-1.9,0-3.4-1.5-3.4-3.3c0-1.9,1.5-3.4,3.4-3.4C130,137.2,131.5,138.7,131.5,140.6z"/>
	<path d="M134,140.2c0.4-1.6,0.6-3.3,0.6-4.8c0-0.1,0-0.5,0-0.9l1.9,0.3c0,2.7-0.2,4.5-0.5,6.2L134,140.2z M140,148.2
		c0,1.3,0,2,0.1,2.8h-3.5c0.1-0.9,0.1-1.8,0.1-3v-15.3c0-1.1,0-1.7-0.1-2.4h3.5c-0.1,0.8-0.1,1.3-0.1,2.4v1.7l1.3-0.6
		c0.4,0.8,0.5,1.1,0.9,2.3c0.3-1.5,0.6-3.4,0.6-4.3c0,0,0-0.2,0-0.3l3.2,0.6c-0.1,0.3-0.1,0.6-0.2,1.1c-0.1,0.4-0.1,0.6-0.2,1.2h1.1
		v-1.8c0-1.1,0-1.7-0.1-2.4h3.6c-0.1,0.8-0.1,1.3-0.1,2.4v1.8h1.9c1.2,0,2,0,2.6-0.1v3.4c-0.7-0.1-1.6-0.1-2.5-0.1H150v3.1h1.5
		c1.3,0,1.9,0,2.5-0.1v3.3c-0.6-0.1-1.4-0.1-2.6-0.1H150v3.5h2.1c1.2,0,2.1,0,2.8-0.1v3.4c-0.7-0.1-1.7-0.1-2.8-0.1h-8.7
		c-1.1,0-2,0-2.8,0.1v-3.4c0.6,0.1,1.6,0.1,2.8,0.1h3.2v-3.5H145c-0.3,0-0.9,0-1.8,0c-0.2,0-0.4,0-0.9,0.1v-3.3
		c0.5,0.1,0.7,0.1,1.3,0.1c-1-0.7-1.4-0.9-2.8-1.5c0.4-0.6,0.6-1.1,0.8-1.7l-1.1,0.5c-0.2-0.9-0.4-1.7-0.7-2.6V148.2z M144.9,137.6
		c-0.4,1.5-0.6,2.2-1,3.1c0.2,0,0.4,0,0.5,0h2.2v-3.1H144.9z"/>
	<path d="M165.2,140.5c0.9,0,1.5,0,2.1-0.1c0,0.4,0,0.5,0,1.6c0,3.5-0.2,5.7-0.5,6.9c-0.4,1.5-1.2,1.9-3.5,1.9c-0.4,0-1,0-1.7-0.1
		c-0.2-1.4-0.3-2.2-0.7-3c-0.7,1.4-1.3,2.2-2.5,3.3c-0.8-1.5-1.2-2.1-2.2-3.1c1.5-1.3,2.2-2.5,2.6-4.8c0.2-1.3,0.3-2.2,0.4-4.1
		c-1.1,0-1.5,0-2.3,0.1c0.1-0.9,0.1-1.5,0.1-2.8v-2.9c0-1.3,0-1.8-0.1-2.7c0.8,0.1,1.7,0.1,3,0.1h4.6c1.4,0,2.2,0,2.9-0.1
		c-0.1,0.9-0.1,1.4-0.1,2.6v3.2c0,1.6,0,2.1,0.1,2.6c-0.8-0.1-1.7-0.1-3-0.1h-1.9c0,1,0,1.1,0,1.5H165.2z M160.2,136h3.9v-2.3h-3.9
		V136z M162,143.5c-0.3,1.6-0.6,2.7-1.1,3.9c0.7,0.1,1.3,0.1,1.7,0.1c0.7,0,1-0.1,1.1-0.4c0.2-0.6,0.2-1.6,0.3-3.6H162z
		 M171.8,131.9c-0.1,0.8-0.1,1.5-0.1,2.8v8.1c0,1.4,0,2,0.1,2.7h-3.5c0.1-0.7,0.1-1.1,0.1-2.6v-8.2c0-1.3,0-2.1-0.1-2.8H171.8z
		 M176.5,130.5c-0.1,1-0.1,1.8-0.1,3.2v13.8c0,1.5-0.3,2.4-1,2.7c-0.7,0.3-2,0.5-3.9,0.5c-0.4,0-0.8,0-1.6,0
		c-0.3-1.4-0.5-2.2-1.1-3.4c1.5,0.1,2.3,0.2,3.1,0.2c0.9,0,1.1-0.2,1.1-0.7v-13.1c0-1,0-2.1-0.1-3.2H176.5z"/>
	<path d="M25.2,176.6c0,1.9-1.5,3.4-3.3,3.4c-1.9,0-3.4-1.5-3.4-3.3c0-1.9,1.5-3.4,3.4-3.4C23.7,173.2,25.2,174.7,25.2,176.6z"/>
	<path d="M31.4,174.7c0-0.2,0-0.2,0-0.4c-0.5,0.5-0.7,0.7-1.3,1.3c-0.8-1.4-1.3-2-2.2-2.9c2-1.6,3.3-3.1,4.2-5.1
		c0.3-0.7,0.5-1.1,0.5-1.6l3.7,0.6c-0.2,0.4-0.2,0.4-0.5,1c-0.1,0.2-0.2,0.4-0.3,0.7h9.7c1.1,0,1.8,0,2.5-0.1v3.3
		c-0.8-0.1-1.5-0.1-2.5-0.1h-4v2.1h3.1c1.2,0,1.8,0,2.6-0.1v3.2c-0.7-0.1-1.4-0.1-2.4-0.1h-3.2v2.9h4.6c1.1,0,1.9,0,2.6-0.1v3.4
		c-0.8-0.1-1.5-0.1-2.6-0.1h-4.6v1.8c0,1.3,0,1.9,0.1,2.7h-3.7c0.1-0.7,0.1-1.4,0.1-2.7v-1.8h-6.8c-1.1,0-1.9,0-2.6,0.1v-3.4
		c0.7,0.1,1.5,0.1,2.6,0.1h0.5V174.7z M33.7,171.4c-0.6,0.9-1,1.3-1.6,2.1c0.3,0,0.5,0,0.8,0h4.9v-2.1H33.7z M37.8,179.4v-2.9h-3.1
		v2.9H37.8z"/>
	<path d="M59.5,170.7c0.6,0,0.8,0,1.1-0.1v0.1c1.3-1.3,2.2-2.8,2.7-4.4h3.4c0.9,2.1,2.4,3.9,4.5,5c-0.7,1.3-1.1,1.9-1.5,3.3
		c-0.7-0.6-1-0.7-1.5-1.2v1.5c-0.5-0.1-0.7-0.1-1.8-0.1h-2c-0.9,0-1.3,0-1.9,0.1v-1.7c-0.4,0.5-0.7,0.7-1.3,1.2
		c-0.3-0.6-0.4-0.7-0.8-1.2c-0.4,0-0.6,0-0.9,0h-6.6c-1.2,0-1.8,0-2.6,0.1v-2.8c0.4,0.1,0.6,0.1,1,0.1v-1.4c0-1,0-1.3-0.1-1.9H54
		c-0.1,0.5-0.1,0.7-0.1,1.9v1.4h0.8v-2.1c0-1.3,0-1.7-0.1-2.4h3.2c-0.1,0.5-0.1,0.8-0.1,1.3h1c0.7,0,1,0,1.7-0.1v2.4
		c-0.5,0-0.8-0.1-1.7-0.1h-0.9v0.9H59.5z M58.1,174.6c0-0.4,0-0.5,0-0.8h2.5c0,0.6-0.1,1.1-0.1,2v8.7c0,1.3,0,1.6,0.1,2.3h-2.8V186
		h-4.3v0.9h-2.9c0.1-0.8,0.1-1.3,0.1-2.5v-8.4c0-1,0-1.6-0.1-2.2h2.6c0,0.3,0,0.5,0,0.8l0.8-0.5c0.4,0.7,0.5,1.1,0.7,1.6v-0.3
		c0-0.7,0-1.2-0.1-1.7h1.9c0,0.4-0.1,0.9-0.1,1.7v0.5c0.3-0.7,0.5-1.1,0.6-1.8L58.1,174.6z M54.7,177.2v-0.8l-1,0.7
		c-0.2-0.8-0.4-1.1-0.6-1.8v1.9H54.7z M53.1,180.7c0.4-0.5,0.7-1,1-1.6h-1V180.7z M53.1,183.4h5v-1.8c-0.4,0.6-0.4,0.6-0.6,0.9
		c-0.5-0.6-0.7-1-1.1-1.8c0,0.2,0,0.3,0,0.4c0,0.3,0,0.5,0,0.8v0.3c0,0.3,0,0.4,0,0.7h-1.8c0-0.3,0-0.4,0-0.7V182c0-0.3,0-0.3,0-0.4
		c0-0.1,0-0.1,0-0.3c0-0.1,0-0.2,0-0.4c-0.3,0.7-0.6,1.1-1.2,1.8c-0.2-0.4-0.3-0.5-0.5-0.8V183.4z M58.1,175.5
		c-0.3,0.7-0.4,0.9-0.7,1.5l-1-0.6v0.9h1.7V175.5z M58.1,179.1H57c0.3,0.6,0.6,1.1,1.1,1.6V179.1z M65.4,184.5c0,1.3,0,1.7,0.1,2.5
		h-3.4c0.1-0.7,0.1-1.2,0.1-2.5v-5.6c-0.6,0-1,0-1.4,0.1v-3.2c0.5,0.1,1,0.1,2.1,0.1h5.2c0.9,0,1.5,0,2-0.1c0,0.5-0.1,1.2-0.1,2.2
		v4.6c0,1.9-0.7,2.6-2.9,2.6c-0.2,0-0.6,0-1.1,0c-0.1-1.4-0.2-2.1-0.7-3V184.5z M66.3,172.1c0.1,0,0.1,0,0.5,0
		c-0.8-1-1.2-1.6-1.7-2.8c-0.6,1.2-0.9,1.8-1.6,2.8c0.3,0,0.5,0,0.8,0H66.3z M65.4,182c0.5,0.1,0.8,0.1,1.1,0.1
		c0.3,0,0.5-0.1,0.5-0.4v-2.9h-1.6V182z"/>
	<path d="M87.5,176.6c0,1.9-1.5,3.4-3.3,3.4c-1.9,0-3.4-1.5-3.4-3.3c0-1.9,1.5-3.4,3.4-3.4C86,173.2,87.5,174.7,87.5,176.6z"/>
	<path d="M108.5,172.3c1.4,0,1.7,0,2.5-0.1v3.2c-0.7-0.1-1.1-0.1-2.5-0.1h-0.8c0,0.7,0.1,1,0.2,2.4c0.4-0.8,0.5-1.1,0.7-1.8l2.3,1.5
		c-0.2,0.5-0.4,0.8-0.7,1.4c-0.3,0.6-1.1,2.1-1.6,2.9c0.5,1.1,0.5,1.1,0.7,1.4c0.2-0.4,0.2-1.1,0.3-2.3c0.7,0.6,1.2,1,2,1.5
		c-0.2,1.8-0.4,2.7-0.7,3.4c-0.4,0.7-0.9,1.1-1.6,1.1c-0.9,0-1.9-0.8-2.7-2.2c-0.9,1-1.6,1.6-2.9,2.6c-0.5-0.9-0.9-1.5-1.5-2.1h-1.6
		v1.1h-2.7c0.1-0.6,0.1-1.1,0.1-1.8v-6.6c0-1,0-1.2-0.1-1.8c0.3,0,0.5,0,1.3,0h3.9c0.5,0,0.8,0,1.3,0c0,0.4,0,0.7,0,1.8v5
		c0.5-0.5,0.8-0.8,1.2-1.3c-0.4-1.8-0.5-2.8-0.7-6.1h-6.5c-0.5,0-0.7,0-1,0v9.3c0,1.3,0,1.8,0.1,2.4h-3c0.1-0.7,0.1-1.3,0.1-2.4
		v-1.1c-1.1,0.4-1.3,0.4-3.1,1c-0.4,0.1-0.4,0.1-0.7,0.2l-0.6-3.3c0.2,0,0.4,0,0.9-0.1v-11.3c-0.3,0-0.4,0-0.7,0.1v-3.3
		c0.6,0.1,1.1,0.1,2.2,0.1h3.1c1.1,0,1.6,0,2.2-0.1v1.2c0.3,0,0.7,0.1,1.1,0.1h0.8c0-0.9,0-1.1-0.1-1.7h3.2
		c-0.1,0.6-0.1,0.8-0.1,1.7h2v-0.4c0-0.6,0-0.7-0.1-1.2h3.1c-0.1,0.6-0.1,1-0.1,1.7l2.1-1c0.8,1.4,1.1,2.2,1.5,3.5l-2.3,1.3
		c-0.4-1.6-0.7-2.4-1.3-3.6c0,0.2,0,0.4,0,0.5c0,0.2,0,0.8,0,1.7c0,0.4,0,1,0,1.8H108.5z M93.6,171.6h0.9v-1.7h-0.9V171.6z
		 M93.6,175.9h0.9v-1.6h-0.9V175.9z M93.6,180.6c0.5-0.1,0.6-0.2,0.9-0.2v-1.8h-0.9V180.6z M98.3,172.3c-0.1-0.7-0.2-1.3-0.3-1.7
		c-0.2,0-0.2,0-0.4,0v-0.7c-0.2,0-0.2,0-0.4,0v2.4c0.3,0,0.4,0,0.9,0H98.3z M100.4,179.3h1.3v-1h-1.3V179.3z M100.4,182.4h1.3v-1
		h-1.3V182.4z M101.3,172.3c0.1-0.6,0.2-1.1,0.3-1.8h-1.1c0.1,0.4,0.2,1.1,0.2,1.8H101.3z M104.6,172.3c0-0.6,0-0.6,0-1.8H104
		c-0.1,0.6-0.2,1.2-0.3,1.8H104.6z"/>
	<path d="M115.6,175.4c-0.9,0-1.5,0-2.1,0.1V173c0.6,0.1,1.1,0.1,2.1,0.1h2.2c-0.2-0.5-0.3-0.6-0.5-1.1h-1.9c-1.1,0-2,0-2.7,0.1
		v-2.9c0.7,0.1,1.3,0.1,2.5,0.1c-0.3-0.7-0.6-1-1.2-1.8l3.1-1.1c0.6,1,0.8,1.4,1.5,2.8h0.6v-1.4c0-0.6,0-1.1-0.1-1.6h3.3
		c0,0.4-0.1,0.8-0.1,1.4v1.6h0.9v-1.6c0-0.6,0-1-0.1-1.4h3.3c-0.1,0.4-0.1,0.9-0.1,1.6v1.4h0.7c0.7-1.1,1-1.8,1.4-2.8l3.1,1.1
		c-0.4,0.8-0.7,1.2-1.1,1.8c1.3,0,1.8,0,2.5-0.1v2.9c-0.7-0.1-1.7-0.1-2.8-0.1h-1.8c-0.3,0.6-0.3,0.7-0.5,1.1h2.1c1,0,1.5,0,2.2-0.1
		v2.5c-0.7-0.1-1.2-0.1-2.2-0.1h-5.6v0.7h4.7c0.9,0,1.5,0,2.2-0.1v2.3c-0.6-0.1-1.2-0.1-2.2-0.1h-4.7v0.7h5.7c1.3,0,2.2,0,2.8-0.1
		v2.8c-0.9-0.1-1.7-0.1-2.8-0.1h-3.4c1.5,1.1,3.6,1.9,6.7,2.3c-0.8,1.2-1.2,1.8-1.6,3.1c-3.3-0.9-5.6-2.1-7.5-4
		c0,0.6,0.1,0.7,0.1,1.3v0.7c0,0.9,0,1.6,0.1,2.2h-3.5c0.1-0.7,0.2-1.3,0.2-2.2v-0.7c0-0.6,0-0.6,0-1.2c-1.1,1.1-1.8,1.6-3,2.2
		c-1.3,0.7-2.5,1.2-4.1,1.7c-0.5-1.2-0.9-1.9-1.8-3c2.9-0.5,5-1.3,6.5-2.5h-3.1c-1.1,0-2,0-2.8,0.1v-2.8c0.8,0.1,1.6,0.1,2.8,0.1
		h5.4v-0.7h-4.4c-0.9,0-1.5,0-2.1,0.1V176c0.6,0.1,1.2,0.1,2.1,0.1h4.4v-0.7H115.6z M124.2,173c0.2-0.5,0.3-0.6,0.5-1.1h-3.9
		c0.2,0.6,0.3,0.7,0.4,1.1H124.2z"/>
	<path d="M164.5,176.6c0,1.9-1.5,3.4-3.3,3.4c-1.9,0-3.4-1.5-3.4-3.3c0-1.9,1.5-3.4,3.4-3.4C163,173.2,164.5,174.7,164.5,176.6z"/>
	<path d="M179,183.7c0,2.4-0.7,3-3.2,3c-0.2,0-0.4,0-0.7,0c0-0.5-0.1-0.6-0.1-1.1h-1.2c0-0.7,0.1-1.6,0.1-2.4v-8.8h-0.6v9
		c0,1.3,0,1.8,0.1,2.4h-2.1c0-0.7,0.1-1.6,0.1-2.4v-9h-0.6v9.9c0,1.3,0,2,0.1,2.7h-2.8c0.1-0.7,0.1-1.5,0.1-2.7v-10.8
		c0-0.8,0-1.4-0.1-2c0.5,0.1,1.1,0.1,1.9,0.1h1.3c0.3-0.6,0.5-1,0.7-1.6h-1.9c-1.3,0-1.8,0-2.4,0.1v-3.3c0.7,0.1,1.3,0.1,2.4,0.1h7
		c1.1,0,1.7,0,2.5-0.1v3.3c-0.8-0.1-1.3-0.1-2.4-0.1h-1.7c-0.2,0.5-0.4,1-0.6,1.6h2.8c0.8,0,1.3,0,1.7-0.1c0,0.6-0.1,1.3-0.1,2.1
		v1.9l2.1-1.1c1,1.9,1.6,3.3,2.1,5.1v-6h-1.8c-0.9,0-1.4,0-2,0.1v-3.3c0.6,0.1,1.1,0.1,2,0.1h1.8v-1.2c0-1.3,0-2-0.1-2.8h3.5
		c-0.1,0.8-0.1,1.5-0.1,2.8v1.2c0.7,0,1.1-0.1,1.6-0.1v3.3c-0.5-0.1-0.9-0.1-1.6-0.1v10.4c0,1.5-0.3,2.2-1.1,2.6
		c-0.5,0.3-1.5,0.4-3.3,0.4c-0.4,0-0.8,0-1.5,0c-0.1-1.5-0.3-2-0.7-3.3c1,0.1,1.6,0.2,2.4,0.2c0.7,0,0.9-0.1,0.9-0.5V180l-2.7,1.3
		c-0.6-2.3-1-3.5-1.6-4.8V183.7z M175.8,183.2v0.4c0.1,0,0.2,0,0.3,0c0.3,0,0.4-0.1,0.4-0.5v-8.8h-0.6V183.2z"/>
	<path d="M207.9,182.6c-0.4,0.4-0.9,0.8-1.3,1.2c1.3,0.2,2.2,0.3,3.5,0.3c-0.8,1.2-1.1,1.8-1.6,2.9c-3.4-0.4-5.5-1.2-7.4-2.8v1.8
		c-1.6,0.3-3,0.6-4.6,0.7c-0.8,0.1-1.5,0.2-2.2,0.3c-0.2,0-0.3,0-0.8,0.2l-0.3-2.6c-0.4,1-0.7,1.6-1.4,2.6c-1.1-1.5-1.6-2-2.6-2.9
		c1.4-1.7,1.9-3.6,1.9-7c0-0.8,0-1.3-0.1-1.9c0.8,0.1,1.3,0.1,2.5,0.1h13.3c1.2,0,1.7,0,2.4-0.1v2.3c-0.7-0.1-1.2-0.1-2.3-0.1h-12.5
		c0,1.3,0,1.7-0.1,2.5h12.8c1.1,0,1.6,0,2.2-0.1v2c-0.7-0.1-0.8-0.1-2.3-0.1h-0.9L207.9,182.6z M193.5,169c-1.1,0-1.7,0-2.4,0.1
		v-2.5c0.8,0.1,1.5,0.1,2.6,0.1h11.9c1.1,0,1.8,0,2.6-0.1v2.5c-0.7,0-1.3-0.1-2.4-0.1h-4.7v0.5h6.1c0.9,0,1.7,0,2.4-0.1
		c-0.1,0.5-0.1,0.9-0.1,1.8v1c0,0.9,0,1.3,0.1,1.9h-3.3v-2.7h-5.2v1.6c0,1.1,0,1.6,0.1,2h-3.4c0.1-0.6,0.1-1.1,0.1-2v-1.6h-5v2.7
		h-3.3c0.1-0.6,0.1-1,0.1-1.9v-1c0-0.9,0-1.3-0.1-1.8c0.7,0,1.2,0.1,2.4,0.1h5.8V169H193.5z M195,182h-1.2c-0.2,0.8-0.3,1.4-0.5,2.1
		c0.2,0,0.4,0,0.6,0c0.2,0,0.4,0,1.2-0.1V182z M193.6,173.7c0.2,0,0.5,0,1,0h1.8c0.8,0,0.8,0,1,0v1.3c-0.3,0-0.4,0-1,0h-1.8
		c-0.5,0-0.7,0-1,0V173.7z M193.6,172c0.3,0,0.4,0,1,0h1.8c0.5,0,0.8,0,1,0v1.3c-0.4,0-0.4,0-1,0h-1.8c-0.5,0-0.5,0-1,0V172z
		 M194.9,178.1c0.6,0.1,0.8,0.1,2.1,0.1h8.3c1.4,0,1.6,0,2.2-0.1v1.6c-0.5,0-0.9-0.1-2.2-0.1h-8.2c-1.3,0-1.7,0-2.2,0.1V178.1z
		 M198.2,183.7c0.9-0.1,1.1-0.2,2-0.3c-0.5-0.6-0.7-0.8-1-1.4h-1V183.7z M205.7,173.3c-0.4,0-0.5,0-1,0h-2c-0.5,0-0.5,0-1,0V172
		c0.3,0,0.4,0,1,0h2c0.6,0,0.7,0,1,0V173.3z M205.7,175.1c-0.1,0-0.1,0-0.2,0c-0.2,0-0.3,0-0.8,0h-2c-0.5,0-0.6,0-1,0v-1.3
		c0.4,0,0.4,0,1,0h2c0.5,0,0.7,0,1,0V175.1z M202.5,182c0.4,0.4,0.7,0.6,1.3,0.9c0.4-0.3,0.7-0.6,1-0.9H202.5z"/>
	<path d="M215.3,168.3c0-0.8,0-1.3-0.1-1.9h3.5c-0.1,0.6-0.1,1.1-0.1,1.9v1h1c1,0,1.5,0,2.2-0.1v3.2c-0.5,0-0.7-0.1-1.4-0.1
		c-0.2,2.4-0.6,4.4-1.4,6.4c1.1,1.3,1.9,2.2,3,3.7l-2.3,2.8c-1-1.5-1.3-2-2.3-3.3c-1.1,1.7-2,2.9-4,4.9c-0.6-1.3-1.1-2-2.2-3
		c2-1.6,3-2.8,4-4.6c-1-1.2-2.3-2.6-3.6-3.8l2.2-2.4c1.8,1.8,2,2,2.8,2.8c0.3-1.2,0.5-2.4,0.5-3.7h-3.5c-0.7,0-1.4,0-2.2,0.1v-3.3
		c0.7,0.1,1.4,0.1,2.3,0.1h1.6V168.3z M223.5,174.3c1.5,2.2,1.9,3.1,2.9,5.2l-2.8,1.8c-0.9-2.4-1.7-3.7-2.9-5.6L223.5,174.3z
		 M224.2,173.4c-1,0-1.5,0-2.1,0.1v-3.3c0.6,0.1,1.1,0.1,2.1,0.1h2.5v-1c0-1.3,0-2.1-0.1-2.8h3.6c-0.1,0.7-0.1,1.5-0.1,2.8v1
		c1,0,1.4,0,2-0.1v3.4c-0.1,0-0.2,0-0.2,0c-0.5-0.1-0.8-0.1-1.7-0.1v10.3c0,2.6-0.9,3.2-4.4,3.2c-0.3,0-0.6,0-1.9,0
		c-0.2-1.4-0.4-2.2-0.9-3.3c0.9,0.1,2.1,0.2,2.8,0.2c1,0,1.2-0.1,1.2-0.5v-9.9H224.2z"/>
	<path d="M251.1,185.5c-0.2-1.8-0.3-2.4-0.7-4c0,0.2,0,0.2,0,0.6c-0.3,4.1-0.8,4.7-4.2,4.7c-3,0-3.7-0.4-3.7-1.8v-8.1
		c0-1,0-1.6-0.1-2.1h3.1c-1.5-1-2.1-1.4-3.6-2.2l1.5-1.3h-5.5c0,5.5-0.2,8-0.6,10.6c-0.4,2-0.9,3.5-1.7,5.1c-1-1.2-1.6-1.8-2.7-2.8
		c1.4-2.6,1.7-5.3,1.7-12.8c0-1.6,0-2.5-0.1-3.3c0.8,0.1,1.3,0.1,2.4,0.1h5.4v-0.8c0-0.4,0-0.7-0.1-1.1h3.6
		c-0.1,0.3-0.1,0.6-0.1,1.1v0.7h5.2c1.3,0,2.1,0,2.8-0.1v3.4c-0.9-0.1-1.6-0.1-2.8-0.1h-5.4c1.3,0.7,2.7,1.7,4.3,2.9l-2.3,2.4
		c-0.8-0.8-1.1-1-1.9-1.6c0,0.4-0.1,1.2-0.1,1.9v6.1c0,0.4,0.1,0.5,0.7,0.5c0.6,0,0.8-0.1,0.9-0.3c0.2-0.3,0.2-1.3,0.2-3.3
		c1.1,0.5,1.9,0.8,2.8,1c-0.5-1.6-0.8-2.3-1.6-4.1l2.8-1.3c1.6,3.6,2.3,5.7,2.8,8.4L251.1,185.5z M237.4,184.2
		c0.7-1.7,0.9-2.5,1.2-4.5c0.2-1.3,0.2-2.2,0.3-4l3,0.8c-0.3,4.1-0.5,5.7-1.5,9.4L237.4,184.2z"/>
	<path d="M25.2,212.6c0,1.9-1.5,3.4-3.3,3.4c-1.9,0-3.4-1.5-3.4-3.3c0-1.9,1.5-3.4,3.4-3.4C23.7,209.2,25.2,210.7,25.2,212.6z"/>
	<path d="M29.9,214.9c0-0.3,0-0.3,0-0.9c0-0.4,0-0.4,0-1.4c-0.7,1-0.7,1-1.2,1.5c-0.3-1.7-0.5-2.5-1.1-4c1.4-1.5,2.3-3.1,3.1-5.3
		c0.4-1.1,0.7-2,0.8-2.8l3.5,0.8c-0.6,1.8-1.1,3.3-1.8,4.8v12.8c0,0.9,0,1.6,0.1,2.5h-3.6c0.1-1,0.1-1.5,0.1-2.5V214.9z M40.5,206.2
		c-1.3-0.9-2.2-1.3-3.5-1.9l2.4-2.3c1.8,0.8,3.2,1.6,4.8,2.7l-1.6,1.6h2.7c1.3,0,2.1,0,2.9-0.1v3.4c-0.9-0.1-1.7-0.1-2.8-0.1h-2.7
		v3.1H45c1.1,0,1.8,0,2.6-0.1v3.3c-0.7-0.1-1.5-0.1-2.6-0.1h-2.2v3.5h3.1c1,0,1.9,0,2.8-0.1v3.4c-0.8-0.1-1.6-0.1-2.8-0.1h-9.2
		c-1.2,0-2,0-2.9,0.1V219c0.9,0.1,1.8,0.1,2.7,0.1h2.8v-3.5h-1.9c-1.1,0-1.8,0-2.6,0.1v-3.3c0.8,0.1,1.5,0.1,2.6,0.1h1.9v-3.1h-2.4
		c-1.1,0-1.8,0-2.7,0.1v-3.4c0.8,0.1,1.3,0.1,2.7,0.1H40.5z"/>
	<path d="M55,213.8c-0.3,4.2-0.9,6.4-2.4,9.3c-1-1.4-1.7-2.1-2.9-3c0.8-1.3,1.2-2.3,1.5-4c0.4-2.2,0.6-5.4,0.6-10.8
		c0-1.1,0-1.8-0.2-2.6c0.8,0.1,1.8,0.1,3.1,0.1h12.3c1.2,0,2,0,2.8-0.1c-0.1,0.6-0.1,1.2-0.1,2.2v2.6c0,1.1,0,1.6,0.1,2.2
		c-0.7,0-1.6-0.1-2.6-0.1h-3.5v1.1h4.6c1,0,1.5,0,2.2-0.1v3.1c-0.7-0.1-1.4-0.1-2.2-0.1h-4.6v1.2h3.9c0.8,0,1.2,0,1.7-0.1
		c0,0.5-0.1,1-0.1,1.7v4.3c0,0.9,0,1.5,0.1,2h-3.3v-0.8h-7.4v0.8h-3.3c0.1-0.6,0.1-1.1,0.1-2v-4.3c0-0.9,0-1.1-0.1-1.6
		c0.5,0,0.7,0,1.7,0h3.3v-1.2H55z M60.4,209.8h-5.3l0,1.1h5.3V209.8z M66.6,207v-1.2H55.1v1.2H66.6z M58.7,219.2h7.4v-1.4h-7.4
		V219.2z"/>
	<path d="M75.5,222.3c-0.8-1.5-1.1-2-1.3-2.6c-0.5-1.2-0.7-2.6-0.7-4c0-1.2,0.2-2.4,0.5-3.5c0.3-1,0.7-1.8,1.6-3.2h2.6
		c-1.1,1.7-1.5,2.5-1.8,3.7c-0.3,1-0.4,2-0.4,2.9c0,1.4,0.3,2.8,0.7,4c0.3,0.8,0.6,1.3,1.5,2.7H75.5z"/>
	<path d="M83.4,209.5c0.3,0,0.5,0,0.7,0c1.1,0,2.5-0.1,3.8-0.2c1.1-0.1,1.6-0.2,2-0.4l1.4,1.4c-1,0.2-1.9,0.3-3.2,0.4v0.5h2.3
		c0.7,0,1,0,1.3-0.1v1.5c-0.3,0-0.7-0.1-1.3-0.1h-2.3v0.4h1.9c0.7,0,1.1,0,1.3,0v1.3c-0.3,0-0.6,0-1.3,0h-5.4c-0.7,0-1.1,0-1.3,0
		v-1.3c0.3,0,0.7,0,1.3,0h1.5v-0.4h-1.8c-0.7,0-1,0-1.4,0.1v-1.5c0.3,0,0.7,0.1,1.4,0.1h1.8v-0.4c-1.1,0-1.1,0-2.3,0.1
		c-0.1-0.4-0.2-0.6-0.4-0.9c-0.6,0.7-0.6,0.7-1,1v2c0,0.6,0,0.9,0.1,1.2h-2.2c0.1-0.2,0.1-0.5,0.1-0.8v-0.3c0-0.1,0-0.2,0-0.5
		c-0.4,0.3-0.5,0.4-1,0.7c-0.3-0.8-0.5-1.1-1-1.8c1.5-0.8,2.5-1.8,3.1-2.7l1.7,0.7L83.4,209.5z M81.4,220c-0.5,0-0.9,0-1.1,0
		c0-0.3,0-0.7,0-1.2v-3.3c0-0.6,0-0.6,0-1.1c0.4,0,0.5,0,1.3,0H89c0.8,0,0.9,0,1.4,0c0,0.3-0.1,0.6-0.1,1.2v3c0,0.8,0,1.1,0,1.4
		c-0.4,0-0.4,0-1.6,0h-0.4c1,0.4,2,0.6,3.6,0.6c-0.5,0.6-0.8,0.9-1.2,1.7c-2.1-0.4-3.2-0.7-4.8-1.6l1.2-0.7h-3.9l1.4,0.7
		c-1.6,0.9-2.6,1.3-4.7,1.6c-0.4-0.6-0.7-1-1.2-1.6c1.6-0.2,2.7-0.4,3.5-0.7H81.4z M82.4,216h5.9v-0.4h-5.9V216z M82.4,217.4h5.9
		V217h-5.9V217.4z M82.4,218.8h5.9v-0.4h-5.9V218.8z"/>
	<path d="M94.6,213.6c0-0.1,0.1-0.3,0.1-0.6l0-0.1c0,0,0-0.1,0-0.2c0-0.1,0-0.1,0-0.2c-0.4,0.3-0.7,0.5-1.1,0.8
		c-0.3-0.7-0.6-1.1-1-1.8c1.5-0.8,2.8-1.8,3.2-2.6l2.1,0.7l-0.2,0.2c-0.1,0.1-0.1,0.1-0.2,0.2c-0.2,0.3-0.5,0.5-0.8,0.8v1.9
		c0,0.6,0,0.6,0.1,0.8H94.6z M104.1,210.2c0.7,0,1.1-0.1,1.6-0.2l0.1,1.9c-0.3,0-0.4,0-0.7,0c-0.3,0-0.5,0-0.9,0l-1.9,0.1
		c0.6,0.5,1.2,0.9,1.6,0.9c0.2,0,0.3-0.4,0.4-1c0.6,0.4,1,0.6,1.7,0.9c-0.3,1.5-0.7,2-1.7,2.1c0,0.3,0,0.3,0,0.4v3.1
		c0,0.8,0,1.2,0.1,1.5c-0.4,0-0.7,0-1.4,0h-0.6c1,0.4,1.9,0.6,3.6,0.7c-0.5,0.6-0.8,1-1.2,1.7c-1.2-0.2-1.8-0.3-2.6-0.6
		c-0.8-0.3-1.3-0.5-2.2-1.1l1.2-0.7h-3.8l1.3,0.7c-1.6,1-2.6,1.3-4.7,1.7c-0.4-0.7-0.7-1-1.2-1.6c1.6-0.2,2.5-0.4,3.5-0.8h-0.6
		c-0.7,0-1,0-1.4,0c0-0.3,0.1-0.7,0.1-1.4v-3.4c0-0.7,0-1-0.1-1.4c0.4,0,0.6,0,1.4,0h5.7c-0.6-0.5-1-0.9-1.4-1.6l-1.2,0.1
		c-0.9,0.1-1,0.1-1.5,0.2l-0.1-1.9c0.2,0,0.3,0,0.6,0c0.2,0,0.5,0,0.9,0l0.5,0c-0.1-0.3-0.1-0.4-0.2-0.8c-0.1-0.3-0.1-0.4-0.2-0.5
		l2.2-0.2c0,0.4,0.1,0.6,0.3,1.3l1.5-0.1c-0.2-0.1-0.3-0.1-0.3-0.2c-0.4-0.2-0.5-0.3-0.7-0.4l1.3-0.9c0.6,0.3,1.1,0.6,1.6,1
		L104.1,210.2z M96.3,215.6h5.9v-0.4h-5.9V215.6z M96.3,217.1h5.9v-0.4h-5.9V217.1z M96.3,218.5h5.9v-0.4h-5.9V218.5z"/>
	<path d="M112,215.6c0,1.2-1,2.1-2.1,2.1c-1.2,0-2.1-1-2.1-2.1c0-1.2,1-2.1,2.1-2.1C111,213.5,112,214.4,112,215.6z"/>
	<path d="M120,217.8c-0.8,0-1.1,0-1.6,0.1v-1.3c-0.5,0.2-0.5,0.2-1,0.4v3.6c0,1.4-0.4,1.8-2.2,1.8c-0.3,0-0.5,0-1,0
		c-0.1-0.8-0.2-1.2-0.5-2c0.5,0.1,0.8,0.1,1.1,0.1c0.3,0,0.4-0.1,0.4-0.5v-2.3c-0.1,0-0.2,0.1-0.3,0.1c-0.3,0.1-0.3,0.1-0.5,0.2
		c-0.1,0-0.4,0.1-0.5,0.2l-0.2-2.2c0.3,0,0.7-0.1,1.5-0.3v-2h-0.4c-0.4,0-0.6,0-1,0.1v-2.1c0.4,0.1,0.6,0.1,1,0.1h0.4v-1
		c0-0.7,0-1-0.1-1.4h2.2c-0.1,0.4-0.1,0.7-0.1,1.4v1h0.4c0.2,0,0.4,0,0.6,0v1.7c0.3,0,1,0.1,1.5,0.1h1.4v-0.9h-1
		c-0.7,0-1.1,0-1.5,0.1v-2c0.4,0.1,0.8,0.1,1.5,0.1h1v-0.3c0-0.4,0-0.7-0.1-1h2.3c-0.1,0.3-0.1,0.6-0.1,1v0.3h1.2
		c0.7,0,1.1,0,1.5-0.1v2c-0.4,0-0.8-0.1-1.5-0.1h-1.2v0.9h1.6c0.7,0,1.3,0,1.7-0.1v2c-0.4,0-0.5,0-1.5-0.1v0.9c0.6,0,1,0,1.4-0.1v2
		c-0.5-0.1-0.8-0.1-1.4-0.1v2.8c0,0.5-0.2,1-0.4,1.2c-0.4,0.3-1,0.4-2,0.4c-0.2,0-0.4,0-1.2,0c-0.1-0.8-0.2-1.2-0.4-1.8l-0.8,0.6
		c-0.5-1-0.9-1.5-1.7-2.3L120,217.8z M118.3,213.4c-0.2,0-0.3,0-0.4,0h-0.4v1.5c0.3-0.1,0.3-0.1,0.9-0.3V213.4z M120.1,215
		c-1,0-1.5,0-1.7,0v0.8c0.4,0,1,0.1,1.7,0.1h3.1V215H120.1z M120.6,217.8c0.5,0.5,1,1.1,1.5,1.9l-0.7,0.5c0.4,0,0.9,0.1,1.1,0.1
		c0.4,0,0.6-0.1,0.6-0.3v-2.1H120.6z"/>
	<path d="M128.1,211.1c0.6,0.2,1.6,0.2,3,0.2c0.2-1,0.3-1.5,0.3-2.1l2.6,0.2c-0.2,0.5-0.2,0.5-0.5,1.9c2.8-0.1,4.4-0.3,5.2-0.6
		l0.1,2.4c-0.4,0-0.5,0-1,0.1c-2,0.2-3.2,0.3-4.9,0.3c-0.2,0.8-0.5,1.4-0.8,2.1c1-0.4,1.9-0.6,3.1-0.6c1.3,0,2.3,0.2,3,0.7
		c0.7,0.5,1.2,1.4,1.2,2.4c0,2.3-2.1,3.7-5.6,3.7c-1.2,0-2.4-0.2-3.6-0.4c0-1,0-1.4-0.2-2.4c1.4,0.4,2.6,0.6,3.8,0.6
		c1.9,0,3.1-0.6,3.1-1.5c0-0.7-0.7-1-2-1c-1.1,0-2,0.2-2.9,0.6c-0.5,0.2-0.7,0.4-0.9,0.7l-2.4-0.8c0.5-0.8,1.4-2.9,1.8-4.2
		c-0.1,0-0.1,0-0.5,0c-0.3,0-0.3,0-1.4-0.1c-0.2,0-0.4,0-0.5,0c0,0-0.1,0-0.2,0L128.1,211.1z"/>
	<path d="M148.1,214c-0.2,0.2-0.3,0.2-0.7,0.5c0.7,0.9,1,1.2,1.2,2c0.4,1,0.6,2.2,0.6,3.3c0,1-0.2,1.7-0.8,2.1
		c-0.3,0.2-0.9,0.4-1.8,0.4c-0.2,0-0.8,0-1.1-0.1c-0.1-0.8-0.2-0.9-0.5-1.6c-1,0.6-1.8,1-3,1.5c-0.4-0.8-0.7-1.2-1.2-1.8
		c2.2-0.6,4.2-1.6,5.9-2.8c-0.1-0.2-0.1-0.2-0.2-0.4c-1.2,0.8-2.9,1.6-4.6,2.2c-0.3-0.7-0.6-1.1-1.1-1.6c2-0.5,3.7-1.1,4.9-1.8
		c-0.1-0.1-0.2-0.2-0.3-0.4c-1.1,0.5-2,0.9-3.5,1.3c-0.2-0.6-0.5-1-0.9-1.6c1.3-0.2,1.6-0.3,2.4-0.5c0.7-0.2,1.1-0.4,1.6-0.6H144
		c-0.5,0-1,0-1.4,0.1v-0.8h-1.4c0.1-0.3,0.1-0.6,0.1-1V211c0-0.4,0-0.7-0.1-1c0.4,0,0.9,0.1,1.7,0.1h3.4v-0.2c0-0.3,0-0.6-0.1-0.8
		h2.3c0,0.2-0.1,0.5-0.1,0.8v0.2h3.6c0.8,0,1.2,0,1.7-0.1c0,0.3-0.1,0.5-0.1,1v1.3c0,0.4,0,0.7,0.1,1h-1.4v0.8
		c-0.5-0.1-0.9-0.1-1.4-0.1h-0.6c0.2,0.7,0.2,0.9,0.3,1.4c0.7-0.6,0.8-0.8,1.2-1.3l1.7,1.5c-0.1,0.1-0.1,0.1-0.2,0.2
		c0,0,0,0-0.6,0.5c-0.8,0.7-1,0.8-1.3,1c0.7,1.1,1.4,1.8,2.7,2.5c-0.7,0.8-0.9,1-1.5,1.9c-1.5-1.2-2.3-2.1-3-3.6
		c-0.6-1.2-1-2.4-1.3-4.1H148.1z M151.7,211.8h-8.4v0.5c0.3,0,0.4,0,0.7,0l6.9,0h0.7V211.8z M145.4,220.4c0.4,0.1,0.7,0.1,1,0.1
		c0.6,0,0.7-0.2,0.7-1.1c0,0,0-0.1,0-0.1C146.2,219.9,145.9,220.1,145.4,220.4z"/>
	<path d="M154.7,222.3c1.1-1.8,1.5-2.6,1.8-3.8c0.2-0.9,0.4-2,0.4-3c0-1.3-0.3-2.8-0.8-4c-0.3-0.8-0.6-1.3-1.4-2.5h2.6
		c1,1.6,1.3,2.4,1.7,3.6c0.3,1.1,0.4,2,0.4,3.1c0,1.4-0.3,2.9-0.7,4.1c-0.2,0.6-0.5,1.1-1.3,2.6H154.7z"/>
	<path d="M192.3,212.6c0,1.9-1.5,3.4-3.3,3.4c-1.9,0-3.4-1.5-3.4-3.3c0-1.9,1.5-3.4,3.4-3.4C190.8,209.2,192.3,210.7,192.3,212.6z"
		/>
	<path d="M197,214.9c0-0.3,0-0.3,0-0.9c0-0.4,0-0.4,0-1.4c-0.7,1-0.7,1-1.2,1.5c-0.3-1.7-0.5-2.5-1.1-4c1.4-1.5,2.3-3.1,3.1-5.3
		c0.4-1.1,0.7-2,0.8-2.8l3.5,0.8c-0.6,1.8-1.1,3.3-1.8,4.8v12.8c0,0.9,0,1.6,0.1,2.5h-3.6c0.1-1,0.1-1.5,0.1-2.5V214.9z
		 M207.6,206.2c-1.3-0.9-2.2-1.3-3.5-1.9l2.4-2.3c1.8,0.8,3.2,1.6,4.8,2.7l-1.6,1.6h2.7c1.3,0,2.1,0,2.9-0.1v3.4
		c-0.9-0.1-1.7-0.1-2.8-0.1h-2.7v3.1h2.2c1.1,0,1.8,0,2.6-0.1v3.3c-0.7-0.1-1.5-0.1-2.6-0.1h-2.2v3.5h3.1c1,0,1.9,0,2.8-0.1v3.4
		c-0.8-0.1-1.6-0.1-2.8-0.1h-9.2c-1.2,0-2,0-2.9,0.1V219c0.9,0.1,1.8,0.1,2.7,0.1h2.8v-3.5h-1.9c-1.1,0-1.8,0-2.6,0.1v-3.3
		c0.8,0.1,1.5,0.1,2.6,0.1h1.9v-3.1H204c-1.1,0-1.8,0-2.7,0.1v-3.4c0.8,0.1,1.3,0.1,2.7,0.1H207.6z"/>
	<path d="M222.1,213.8c-0.3,4.2-0.9,6.4-2.4,9.3c-1-1.4-1.7-2.1-2.9-3c0.8-1.3,1.2-2.3,1.5-4c0.4-2.2,0.6-5.4,0.6-10.8
		c0-1.1,0-1.8-0.2-2.6c0.8,0.1,1.8,0.1,3.1,0.1h12.3c1.2,0,2,0,2.8-0.1c-0.1,0.6-0.1,1.2-0.1,2.2v2.6c0,1.1,0,1.6,0.1,2.2
		c-0.7,0-1.6-0.1-2.6-0.1h-3.5v1.1h4.6c1,0,1.5,0,2.2-0.1v3.1c-0.7-0.1-1.4-0.1-2.2-0.1h-4.6v1.2h3.9c0.8,0,1.2,0,1.7-0.1
		c0,0.5-0.1,1-0.1,1.7v4.3c0,0.9,0,1.5,0.1,2h-3.3v-0.8h-7.4v0.8h-3.3c0.1-0.6,0.1-1.1,0.1-2v-4.3c0-0.9,0-1.1-0.1-1.6
		c0.5,0,0.7,0,1.7,0h3.3v-1.2H222.1z M227.6,209.8h-5.3l0,1.1h5.3V209.8z M233.7,207v-1.2h-11.5v1.2H233.7z M225.8,219.2h7.4v-1.4
		h-7.4V219.2z"/>
	<path d="M249.6,203c0,0-0.3,0.7-0.9,1.9l5.9-0.1c0.6,0,0.9-0.1,1.3-0.3l2,1.9c-0.3,0.3-0.3,0.4-0.5,0.9c-1.3,3.9-2.5,6.3-4.1,8.5
		c-1.4,1.9-3.2,3.6-5.3,5c-1.2,0.8-2.1,1.3-3.8,2c-0.8-1.4-1.3-2.1-2.6-3.3c3.3-1.2,5.5-2.5,7.5-4.5c-1.4-1.1-2.4-1.8-4.1-2.7
		l2.3-2.8c2,1.1,2.7,1.5,4,2.5c0.9-1.4,1.4-2.6,1.9-4l-6.1,0c-1.3,2.2-2.8,4-5,6c-1.1-1.1-1.7-1.7-3.2-2.5c2.6-2,4.2-3.9,5.5-6.3
		c0.6-1.1,1-2.1,1.3-3.1L249.6,203z"/>
	<path d="M278.6,205.1c-0.5,0.4-0.5,0.4-0.9,0.8c-1.7,1.8-3.3,3.1-5.1,4.4v8.5c0,1.8,0,2.4,0.1,3.6h-4.3c0.1-1.2,0.1-1.7,0.1-3.5
		v-6.1c-2.3,1.3-4,2.1-7.2,3.3c-0.6-1.5-1-2.2-2.1-3.5c4.8-1.3,8.1-3,11.7-5.7c1.9-1.4,3.4-2.9,4-4L278.6,205.1z"/>
	<path d="M298,207.1L298,207.1c0,0.2-0.1,0.2-0.1,0.3l-0.1,0.6c-1.8,7.1-5.6,11.5-12.6,14.6c-0.7-1.5-1.3-2.3-2.8-3.7
		c5.9-1.8,9.8-5.7,11.1-10.8h-9.2c-2.3,0-2.9,0-3.6,0.1v-4c0.8,0.1,1.5,0.2,3.7,0.2h11.2c0.1-1.4,1.1-2.4,2.5-2.4
		c1.4,0,2.5,1.1,2.5,2.5C300.5,205.9,299.4,207,298,207.1L298,207.1z M296.7,204.6c0,0.7,0.6,1.2,1.3,1.2s1.3-0.6,1.3-1.2
		c0-0.7-0.6-1.3-1.3-1.3S296.7,203.9,296.7,204.6z"/>
	<path d="M25.2,248.6c0,1.9-1.5,3.4-3.3,3.4c-1.9,0-3.4-1.5-3.4-3.3c0-1.9,1.5-3.4,3.4-3.4C23.7,245.2,25.2,246.7,25.2,248.6z"/>
	<path d="M30.4,241.4c0-1.2,0-2-0.1-2.9h3.6c-0.1,0.7-0.1,1.6-0.1,2.9v1.7h2.8V241c0-1,0-1.7-0.1-2.5H40c-0.1,0.8-0.1,1.5-0.1,2.5
		v2.1h2.8v-2.1c0-1.1,0-1.7-0.1-2.5h3.5c-0.1,0.8-0.1,1.5-0.1,2.5v2.1h0.2c1.1,0,1.8,0,2.6-0.1v3.3c-0.8-0.1-1.5-0.1-2.6-0.1h-0.2
		v4.6c0,0.6,0,1.4,0.1,2.2c-0.6,0-1.2-0.1-1.9-0.1h-5.6c-0.7,0-1.3,0-2,0.1c0-0.6,0.1-1.2,0.1-2v-4.8h-2.8v8.8h10.9
		c1.3,0,2.1,0,3.2-0.1v3.4c-1.1-0.1-2-0.2-3.2-0.2H33.7v0.9h-3.5c0.1-1.1,0.2-2.3,0.2-3.5v-9.4c-1.2,0-1.7,0-2.5,0.1v-3.3
		c0.8,0.1,1.2,0.1,2.5,0.1V241.4z M39.9,246.1v3.7h2.8v-3.7H39.9z"/>
	<path d="M64.8,239.6c0-0.6,0-0.8-0.1-1.3h3.4c-0.1,0.4-0.1,0.6-0.1,1.3c1.3,0,2,0,2.7-0.1v3.3c-0.9-0.1-1.5-0.1-2.7-0.1v1.9
		c0,0.9,0,1.2,0.1,1.6c-0.7-0.1-1-0.1-2.4-0.1H55c-0.5,0-1.3,0-2.4,0.1c0.1-0.5,0.1-1,0.1-1.7v-1.8c-1.2,0-1.8,0-2.6,0.1v-3.3
		c0.7,0.1,1.3,0.1,2.6,0.1c0-0.5,0-0.9-0.1-1.3h3.4c-0.1,0.4-0.1,0.6-0.1,1.3h2.7c0-0.7,0-0.9-0.1-1.3H62c-0.1,0.4-0.1,0.7-0.1,1.3
		H64.8z M61.9,256.4c0,1.3,0,2,0.1,2.7h-3.6c0.1-0.7,0.1-1.5,0.1-2.7v-2.9h-2.5v2c0,1.3,0,1.9,0.1,2.6h-3.5c0.1-0.7,0.1-1.5,0.1-2.6
		v-3.1h-2.5c0.1-0.5,0.1-0.9,0.1-1.7v-2.2c0-0.7,0-1.2-0.1-1.8c1,0.1,1.5,0.1,2.5,0.1h15.1c1.2,0,1.8,0,2.6-0.1c0,0.5-0.1,1-0.1,1.7
		v2.2c0,0.7,0,1.1,0.1,1.7H68v3.2c0,1-0.2,1.6-0.8,2c-0.6,0.4-1.3,0.5-2.8,0.5c-0.1,0-0.3,0-0.5,0c-0.1,0-0.3,0-0.6,0
		c-0.2-1.1-0.4-1.8-0.9-2.8c0.7,0.1,1.1,0.1,1.4,0.1c0.7,0,0.8-0.1,0.8-0.5v-1.3h-2.8V256.4z M58.6,249.7h-5v0.9c0.6,0,0.8,0,1.4,0
		h3.6V249.7z M58.7,242.6H56v1h2.7V242.6z M64.8,243.5v-1h-2.9v1H64.8z M66,250.5c0.4,0,0.7,0,1.1,0v-0.9h-5.2v0.9H66z"/>
	<path d="M84.2,238.6c-0.1,0.4-0.1,1-0.1,1.8c0,2.4,0.4,4.9,0.9,6.5c0.8,2.3,2.2,4.4,4.1,6.1c1.2,1.1,2.2,1.7,3.9,2.5
		c-1,1.2-1.5,1.9-2.2,3.5c-2.4-1.5-4-2.8-5.4-4.5c-1.3-1.6-2.2-3.2-3-5.5c-0.9,2.9-1.9,4.6-3.6,6.3c-1.4,1.5-2.8,2.6-4.7,3.7
		c-0.7-1.5-1.1-2-2.2-3.2c3.3-1.6,5.1-3.3,6.4-5.6c1.4-2.4,2.1-5.7,2.1-9.8c0-0.7,0-1.2-0.1-1.7H84.2z"/>
	<path d="M114.9,244.8c-0.4,0-0.6,0-1.2-0.1c-0.2,3.6-0.8,6.1-2,8.5c1,1.2,2.2,2.1,3.5,2.7c-0.8,1.1-1.3,2-1.8,3.3
		c-1.4-0.8-2.6-1.9-3.7-3.2c-1.3,1.4-2.6,2.4-4.3,3.3c-0.5-0.9-0.7-1.4-1.3-2.1l-0.9,1.4c-1-0.7-1.3-0.9-2.3-1.5
		c-1.5,1.2-2.9,1.8-5.2,2.3c-0.5-1.3-0.8-1.8-1.6-2.8c1.7-0.1,2.5-0.4,3.8-0.9c-1.1-0.5-1.7-0.7-3.1-1.2c0.7-1,1-1.4,1.4-2.1
		c-0.9,0-1.3,0-1.9,0.1v-3c0.5,0.1,1,0.1,1.9,0.1h1.4c0.2-0.4,0.2-0.6,0.4-1.1l3.3,0.4c-0.1,0.2-0.2,0.4-0.3,0.6h2.9
		c0.5,0,0.7,0,1.2,0c-0.4-0.7-0.6-1.1-1.1-1.6c-0.2,0.3-0.2,0.4-0.4,0.7c-1.1-0.8-1.4-1.2-2-2c0,0.3,0,0.6,0,0.7v0.4
		c0,0.2,0,0.5,0,0.7h-3.2c0-0.1,0-0.1,0-0.2c0,0,0,0,0-0.4v-0.4c0-0.2,0-0.5,0-0.8c-1.1,1.4-1.7,1.8-3.1,2.8
		c-0.6-1.1-0.9-1.7-1.7-2.5c1.3-0.5,2.1-1.1,3.1-2h-0.6c-0.8,0-1.4,0-1.9,0.1V242c0.6,0.1,1,0.1,1.8,0.1c-0.6-1.1-1-1.7-1.7-2.5
		l2.6-1.1c0.7,0.9,1.2,1.5,1.7,2.3v-0.9c0-0.7,0-1.1-0.1-1.5h3.3c-0.1,0.4-0.1,0.7-0.1,1.4v1.3c0.6-0.9,1.1-1.8,1.4-2.7l2.7,1.1
		c-0.6,1.1-0.9,1.8-1.4,2.6c0.6,0,0.9,0,1.1,0v2.6c0.8-1.9,1.6-4.9,1.6-6.4l3.3,0.6c-0.1,0.2-0.1,0.2-0.1,0.5c0,0,0,0.2-0.1,0.4
		c0,0.1-0.1,0.3-0.1,0.5c-0.2,0.6-0.2,0.8-0.4,1.4h3.1c1.1,0,1.6,0,2.1-0.1V244.8z M98.5,241.1l-2,1h2V241.1z M99.4,252.1
		c-0.2,0.3-0.3,0.4-0.5,0.8c0.6,0.2,0.9,0.3,1.3,0.5c0.3-0.5,0.4-0.7,0.6-1.3H99.4z M103.6,242.1l-1.9-0.9v0.9H103.6z M105.5,252.2
		c-0.4,0-0.7-0.1-1.5-0.1c-0.3,1.1-0.5,1.6-1,2.4c0.7,0.3,1,0.5,2,1c1.2-0.7,2.1-1.5,2.9-2.4c-0.7-1.4-1.1-2.3-1.5-4.1
		c-0.3,0.4-0.4,0.5-0.9,1V252.2z M103.2,244.7c0.4,0.4,0.7,0.6,1.7,1.1c0.2-0.4,0.4-0.6,0.6-1.1c-0.3,0-0.6,0-1.3,0H103.2z
		 M108.7,244.7c-0.1,0.3-0.2,0.4-0.3,0.7c0.3,2,0.6,3,1.3,4.6c0.6-1.6,0.8-3,0.9-5.3H108.7z"/>
	<path d="M131.5,248.6c0,1.9-1.5,3.4-3.3,3.4c-1.9,0-3.4-1.5-3.4-3.3c0-1.9,1.5-3.4,3.4-3.4C130,245.2,131.5,246.7,131.5,248.6z"/>
	<path d="M150.8,251.2c-0.6,0.9-1,1.5-1.5,2.5c-1.9-1.3-3.5-2.9-4.6-4.6c-1,2.3-2.3,3.7-4.6,5.3c-0.6-1.2-0.9-1.5-1.6-2.4v4.2
		c0,1.5,0,2.2,0.1,2.8H135c0.1-0.8,0.2-1.8,0.2-2.9v-12.8c0-1,0-1.6-0.1-2.3c0.9,0.1,1.5,0.1,2.9,0.1h5c0-0.3,0-0.4,0-0.7
		c0-1,0-1.6-0.1-2.1h3.7c-0.1,0.5-0.1,0.6-0.1,2c0,0.2,0,0.3,0,0.8h5.2c1.5,0,2,0,2.8-0.1c-0.1,0.7-0.1,1.3-0.1,2.3v12.8
		c0,1.3-0.5,2.1-1.6,2.4c-0.7,0.2-1.5,0.3-3,0.3c-0.5,0-0.5,0-1.8,0c-0.2-1.4-0.4-2.2-1-3.4c1.2,0.1,2.2,0.2,2.8,0.2
		c1,0,1.1-0.1,1.1-0.6V251.2z M138.5,251c2.4-1.6,3.5-3.5,4.1-6.8h-4.1V251z M146,244.2c-0.1,0.6-0.1,0.7-0.2,1.2
		c1.1,1.9,2.8,3.6,5,5v-6.1H146z"/>
	<path d="M156.4,241.8c0.5,0.1,1,0.1,1.8,0.1h5.1c0.9,0,1.3,0,1.8-0.1v2.9c-0.5-0.1-0.7-0.1-1.7-0.1h-5.2c-0.7,0-1.1,0-1.8,0.1
		V241.8z M164.4,257c0,0.9,0,1.1,0,1.5h-3V258h-1.3v0.9H157c0.1-0.7,0.1-1.5,0.1-2.2v-3.5c0-0.7,0-1.1-0.1-1.7
		c0.5,0,0.8,0.1,1.6,0.1h4.6c0.7,0,0.9,0,1.3-0.1c0,0.4,0,0.6,0,1.5v1.9c1-2.2,1.4-5.2,1.4-11.8c0-2.4,0-3.3-0.1-4.3
		c0.7,0.1,1.3,0.1,2.6,0.1h5.7c1.2,0,1.8,0,2.4-0.1c0,0.5-0.1,1-0.1,2.4v4.9c0,1.5,0,1.8,0,2.3c-0.4,0-1.1,0-1.7,0h-1
		c0.2,1.9,0.4,2.7,1,3.9c0.7,1.5,1.4,2.4,2.7,3.4c-1,1.1-1.5,1.9-2.3,3.3c-1.7-1.7-2.6-3.2-3.4-5.2c-0.7-1.7-0.9-2.9-1.2-5.5H169
		c-0.2,3.5-0.4,4.9-0.9,6.6c-0.4,1.5-0.9,2.5-1.9,4c-0.5-0.7-0.9-1.3-1.8-2.3V257z M157.2,238.6c0.6,0.1,1,0.1,2,0.1h3.3
		c1,0,1.4,0,2-0.1v2.6c-0.7,0-1.1-0.1-2-0.1h-3.3c-0.9,0-1.4,0-2,0.1V238.6z M157.2,245.4c0.4,0,0.6,0,1.3,0h4.7c0.7,0,0.9,0,1.2,0
		v2.5c-0.4,0-0.6,0-1.2,0h-4.7c-0.7,0-0.9,0-1.3,0V245.4z M157.2,248.5c0.4,0,0.6,0,1.3,0h4.6c0.7,0,0.9,0,1.3,0v2.5
		c-0.4,0-0.6,0-1.3,0h-4.6c-0.6,0-0.8,0-1.3,0V248.5z M160.1,255.4h1.4V254h-1.4V255.4z M172.9,245.2v-3.2h-3.7v1.2c0,0.5,0,1.1,0,2
		H172.9z"/>
	<path d="M181.8,258.3c-0.8-1.5-1.1-2-1.3-2.6c-0.5-1.2-0.7-2.6-0.7-4c0-1.2,0.2-2.4,0.5-3.5c0.3-1,0.7-1.8,1.6-3.2h2.6
		c-1.1,1.7-1.5,2.5-1.8,3.7c-0.3,1-0.4,2-0.4,2.9c0,1.4,0.3,2.8,0.7,4c0.3,0.8,0.6,1.3,1.5,2.7H181.8z"/>
	<path d="M197.6,250.1c-0.1,0.2-0.1,0.3-0.3,0.7c-0.5,1.2-1.2,2.5-1.9,3.5c0.4,0.7,0.6,1,1,1.3c0.2-0.4,0.3-0.8,0.4-1.8
		c0.6,0.6,0.9,0.9,1.6,1.3c-0.4,2.1-0.9,3-1.8,3c-0.8,0-1.7-0.7-2.6-2.1c-0.8,0.8-1.6,1.4-2.8,2.1c-0.4-0.7-0.6-1.1-1-1.7
		c-0.4,0.1-1,0.2-1.5,0.2c-0.1,0-0.3,0-0.5,0c-0.1-0.6-0.2-1-0.3-1.5c-0.3,1.4-0.7,2.4-1.3,3.3c-0.7-0.8-1-1.2-1.7-1.7
		c0.5-0.8,0.7-1.3,0.9-2.3c0.3-1.2,0.4-3.1,0.4-5.7c0-0.7,0-1.3-0.1-1.8c0.6,0,1.2,0.1,1.9,0.1h4c0-1.2,0-1.4-0.1-1.7h2.3
		c0,0.3-0.1,0.7-0.1,1v0.7h1.4c-0.5-0.4-0.7-0.5-1.1-0.7l1.3-1.2c0.7,0.4,1.2,0.8,1.8,1.3l-0.8,0.7c0.7,0,1,0,1.4-0.1v2.1
		c-0.5-0.1-1.2-0.1-1.8-0.1h-2.1c0.1,1.2,0.2,2.4,0.4,3.3c0.5-1,0.8-1.8,0.9-2.6L197.6,250.1z M188.2,252.1c-0.1,1-0.2,1.7-0.3,2.4
		c0.4,0.1,0.6,0.1,0.8,0.1c0.3,0,0.4-0.1,0.5-0.3c0.1-0.3,0.2-0.8,0.2-2.2H188.2z M190.7,250.2c0.5,0,0.6,0,0.9,0
		c0,0.4,0,0.4-0.1,2.6c-0.1,1.4-0.2,2.4-0.4,2.9c0.7-0.5,1.4-1,1.9-1.5c-0.6-1.6-0.8-2.9-1-5.4h-3.8c0,0.8,0,1,0,1.5H190.7z"/>
	<path d="M206.8,245.3c-0.1,0.3-0.1,0.6-0.1,1.1c0,1.5,0.2,3.1,0.6,4.1c0.5,1.5,1.4,2.8,2.6,3.9c0.8,0.7,1.4,1.1,2.5,1.6
		c-0.7,0.8-0.9,1.2-1.4,2.2c-1.5-0.9-2.5-1.8-3.4-2.9c-0.8-1-1.4-2-1.9-3.5c-0.6,1.8-1.2,2.9-2.3,4c-0.9,0.9-1.8,1.6-3,2.3
		c-0.4-0.9-0.7-1.2-1.4-2.1c2.1-1,3.2-2.1,4.1-3.6c0.9-1.6,1.3-3.6,1.3-6.2c0-0.5,0-0.7-0.1-1.1H206.8z"/>
	<path d="M212.9,258.3c1.1-1.8,1.5-2.6,1.8-3.8c0.2-0.9,0.4-2,0.4-3c0-1.3-0.3-2.8-0.8-4c-0.3-0.8-0.6-1.3-1.4-2.5h2.6
		c1,1.6,1.3,2.4,1.7,3.6c0.3,1.1,0.4,2,0.4,3.1c0,1.4-0.3,2.9-0.7,4.1c-0.2,0.6-0.5,1.1-1.3,2.6H212.9z"/>
	<path d="M233.2,248.6c0,1.9-1.5,3.4-3.3,3.4c-1.9,0-3.4-1.5-3.4-3.3c0-1.9,1.5-3.4,3.4-3.4C231.7,245.2,233.2,246.7,233.2,248.6z"
		/>
	<path d="M252.5,251.2c-0.6,0.9-1,1.5-1.5,2.5c-1.9-1.3-3.5-2.9-4.6-4.6c-1,2.3-2.3,3.7-4.6,5.3c-0.6-1.2-0.9-1.5-1.6-2.4v4.2
		c0,1.5,0,2.2,0.1,2.8h-3.7c0.1-0.8,0.2-1.8,0.2-2.9v-12.8c0-1,0-1.6-0.1-2.3c0.9,0.1,1.5,0.1,2.9,0.1h5c0-0.3,0-0.4,0-0.7
		c0-1,0-1.6-0.1-2.1h3.7c-0.1,0.5-0.1,0.6-0.1,2c0,0.2,0,0.3,0,0.8h5.2c1.5,0,2,0,2.8-0.1c-0.1,0.7-0.1,1.3-0.1,2.3v12.8
		c0,1.3-0.5,2.1-1.6,2.4c-0.7,0.2-1.5,0.3-3,0.3c-0.5,0-0.5,0-1.8,0c-0.2-1.4-0.4-2.2-1-3.4c1.2,0.1,2.2,0.2,2.8,0.2
		c1,0,1.1-0.1,1.1-0.6V251.2z M240.2,251c2.4-1.6,3.5-3.5,4.1-6.8h-4.1V251z M247.7,244.2c-0.1,0.6-0.1,0.7-0.2,1.2
		c1.1,1.9,2.8,3.6,5,5v-6.1H247.7z"/>
	<path d="M258.1,241.8c0.5,0.1,1,0.1,1.8,0.1h5.1c0.9,0,1.3,0,1.8-0.1v2.9c-0.5-0.1-0.7-0.1-1.7-0.1h-5.2c-0.7,0-1.1,0-1.8,0.1
		V241.8z M266.1,257c0,0.9,0,1.1,0,1.5h-3V258h-1.3v0.9h-3.2c0.1-0.7,0.1-1.5,0.1-2.2v-3.5c0-0.7,0-1.1-0.1-1.7
		c0.5,0,0.8,0.1,1.6,0.1h4.6c0.7,0,0.9,0,1.3-0.1c0,0.4,0,0.6,0,1.5v1.9c1-2.2,1.4-5.2,1.4-11.8c0-2.4,0-3.3-0.1-4.3
		c0.7,0.1,1.3,0.1,2.6,0.1h5.7c1.2,0,1.8,0,2.4-0.1c0,0.5-0.1,1-0.1,2.4v4.9c0,1.5,0,1.8,0,2.3c-0.4,0-1.1,0-1.7,0h-1
		c0.2,1.9,0.4,2.7,1,3.9c0.7,1.5,1.4,2.4,2.7,3.4c-1,1.1-1.5,1.9-2.3,3.3c-1.6-1.7-2.6-3.2-3.4-5.2c-0.7-1.7-0.9-2.9-1.2-5.5h-1.4
		c-0.2,3.5-0.4,4.9-0.9,6.6c-0.4,1.5-0.9,2.5-1.9,4c-0.5-0.7-0.9-1.3-1.8-2.3V257z M258.8,238.6c0.6,0.1,1,0.1,2,0.1h3.3
		c1,0,1.4,0,2-0.1v2.6c-0.7,0-1.1-0.1-2-0.1h-3.3c-0.9,0-1.4,0-2,0.1V238.6z M258.9,245.4c0.4,0,0.6,0,1.3,0h4.7c0.7,0,0.9,0,1.2,0
		v2.5c-0.4,0-0.6,0-1.2,0h-4.7c-0.7,0-0.9,0-1.3,0V245.4z M258.9,248.5c0.4,0,0.6,0,1.3,0h4.6c0.7,0,0.9,0,1.3,0v2.5
		c-0.4,0-0.6,0-1.3,0h-4.6c-0.6,0-0.8,0-1.3,0V248.5z M261.7,255.4h1.4V254h-1.4V255.4z M274.5,245.2v-3.2h-3.7v1.2c0,0.5,0,1.1,0,2
		H274.5z"/>
	<path d="M283.4,258.3c-0.8-1.5-1.1-2-1.3-2.6c-0.5-1.2-0.7-2.6-0.7-4c0-1.2,0.2-2.4,0.5-3.5c0.3-1,0.7-1.8,1.6-3.2h2.6
		c-1.1,1.7-1.5,2.5-1.8,3.7c-0.3,1-0.4,2-0.4,2.9c0,1.4,0.3,2.8,0.7,4c0.3,0.8,0.6,1.3,1.5,2.7H283.4z"/>
	<path d="M297,246.6c0.9,0,1.4,0,1.8-0.1v2.2c-0.4-0.1-0.9-0.1-1.8-0.1h-2.8v1.4h3.5c0.8,0,1.3,0,1.8-0.1v2.2
		c-0.5-0.1-1.1-0.1-1.8-0.1h-2.5c0.5,0.6,0.9,1.1,1.5,1.6c1,0.9,1.9,1.4,3.3,2c-0.6,0.7-0.8,1.2-1.3,2.1c-2.1-1.1-3.4-2.3-4.6-3.9
		c0,0.7,0,1.1,0,1.2v1.5c0,0.6,0,1.1,0.1,1.6H292c0.1-0.5,0.1-1,0.1-1.6v-1.5c0-0.3,0-0.8,0-1.2c-0.6,0.9-1.1,1.4-1.9,2.2
		c-0.8,0.7-1.4,1.1-2.3,1.7c-0.4-0.8-0.7-1.3-1.3-2c1.3-0.5,2.3-1.2,3.3-2.2c0.5-0.5,0.9-0.9,1.3-1.4h-2.3c-0.8,0-1.3,0-1.8,0.1
		v-2.2c0.5,0.1,1,0.1,1.8,0.1h3.2v-1.4h-2.5c-1,0-1.4,0-1.8,0.1v-2.2c0.4,0.1,0.9,0.1,1.8,0.1h2.5v-0.2c0-0.5,0-1-0.1-1.3h2.3
		c0,0.3-0.1,0.9-0.1,1.3v0.2H297z"/>
	<path d="M313.2,250.1c-0.1,0.2-0.1,0.3-0.3,0.7c-0.5,1.2-1.2,2.5-1.9,3.5c0.4,0.7,0.6,1,1,1.3c0.2-0.4,0.3-0.8,0.4-1.8
		c0.6,0.6,0.9,0.9,1.6,1.3c-0.4,2.1-0.9,3-1.8,3c-0.8,0-1.7-0.7-2.6-2.1c-0.8,0.8-1.6,1.4-2.8,2.1c-0.4-0.7-0.6-1.1-1-1.7
		c-0.4,0.1-1,0.2-1.5,0.2c-0.1,0-0.3,0-0.5,0c-0.1-0.6-0.2-1-0.3-1.5c-0.3,1.4-0.7,2.4-1.3,3.3c-0.7-0.8-1-1.2-1.7-1.7
		c0.5-0.8,0.7-1.3,0.9-2.3c0.3-1.2,0.4-3.1,0.4-5.7c0-0.7,0-1.3-0.1-1.8c0.6,0,1.2,0.1,1.9,0.1h4c0-1.2,0-1.4-0.1-1.7h2.3
		c0,0.3-0.1,0.7-0.1,1v0.7h1.4c-0.5-0.4-0.7-0.5-1.1-0.7l1.3-1.2c0.7,0.4,1.2,0.8,1.8,1.3l-0.8,0.7c0.7,0,1,0,1.4-0.1v2.1
		c-0.5-0.1-1.2-0.1-1.8-0.1h-2.1c0.1,1.2,0.2,2.4,0.4,3.3c0.5-1,0.8-1.8,0.9-2.6L313.2,250.1z M303.9,252.1c-0.1,1-0.2,1.7-0.3,2.4
		c0.4,0.1,0.6,0.1,0.8,0.1c0.3,0,0.4-0.1,0.5-0.3c0.1-0.3,0.2-0.8,0.2-2.2H303.9z M306.4,250.2c0.5,0,0.6,0,0.9,0
		c0,0.4,0,0.4-0.1,2.6c-0.1,1.4-0.2,2.4-0.4,2.9c0.7-0.5,1.4-1,1.9-1.5c-0.6-1.6-0.8-2.9-1-5.4H304c0,0.8,0,1,0,1.5H306.4z"/>
	<path d="M316.9,250.4c0-0.1,0-0.2,0-0.3c-0.3,0.3-0.5,0.5-0.9,0.8c-0.5-0.9-0.8-1.3-1.4-1.8c1.3-1,2.1-2,2.7-3.2
		c0.2-0.4,0.3-0.7,0.4-1l2.3,0.4c-0.1,0.3-0.1,0.3-0.3,0.6c-0.1,0.2-0.1,0.3-0.2,0.4h6.1c0.7,0,1.1,0,1.6-0.1v2.1
		c-0.5-0.1-0.9-0.1-1.6-0.1h-2.5v1.3h2c0.7,0,1.2,0,1.6-0.1v2c-0.5,0-0.9-0.1-1.6-0.1h-2v1.8h2.9c0.7,0,1.2,0,1.7-0.1v2.2
		c-0.5-0.1-1-0.1-1.7-0.1h-2.9v1.2c0,0.8,0,1.2,0.1,1.7h-2.3c0.1-0.4,0.1-0.9,0.1-1.7v-1.1h-4.4c-0.7,0-1.2,0-1.7,0.1v-2.2
		c0.5,0.1,1,0.1,1.7,0.1h0.3V250.4z M318.4,248.3c-0.4,0.6-0.6,0.9-1,1.3c0.2,0,0.3,0,0.5,0h3.1v-1.3H318.4z M321,253.4v-1.8H319
		v1.8H321z"/>
	<path d="M328.6,258.3c1.1-1.8,1.5-2.6,1.8-3.8c0.2-0.9,0.4-2,0.4-3c0-1.3-0.3-2.8-0.8-4c-0.3-0.8-0.6-1.3-1.4-2.5h2.6
		c1,1.6,1.3,2.4,1.7,3.6c0.3,1.1,0.4,2,0.4,3.1c0,1.4-0.3,2.9-0.7,4.1c-0.2,0.6-0.5,1.1-1.3,2.6H328.6z"/>
</g>
<g>
	<path class="st2" d="M365,115.8c-1.1,0.7-1.7,1-3.1,1.7c-0.7-1.2-1.1-1.7-2-2.6c2.2-0.8,3.9-1.6,6.2-3.2c-0.7-0.7-1.4-1.2-2.3-1.8
		c-0.7,0.6-1.2,1-2.2,1.6c-0.7-1-1.2-1.5-2.1-2.2c1.6-0.9,2.8-1.9,4.2-3.2c1-1,1.8-2.2,2.3-3.3l3.4,0.3c-0.4,0.6-0.5,0.8-0.7,1.2
		l3.8-0.4c0.7-0.1,1.2-0.1,1.6-0.3l1.8,1.5c-0.2,0.4-0.2,0.4-0.7,1c-1.2,1.8-3.1,4-4.9,5.6l5.4-0.5c0.9-0.1,1.4-0.2,1.9-0.2
		c0,0.6,0,1.2,0.1,2.1l0.5,5.5c0.1,1,0.2,1.6,0.3,2.2l-3.1,0.3l-0.1-1l-6.9,0.7l0.1,1l-3.1,0.3c0-0.6,0-1.3-0.1-2.2L365,115.8z
		 M366.4,107.2c-0.3,0.3-0.3,0.4-0.6,0.7c1.5,1,1.5,1,2.6,1.9c1.2-1.1,1.7-1.7,2.7-3L366.4,107.2z M368.2,118l6.9-0.7l-0.3-3.2
		l-6.9,0.7L368.2,118z"/>
	<path class="st2" d="M383.9,103.5c-0.4-0.6-0.6-0.8-1.2-1.5l3.1-1.1c0.7,0.8,1.2,1.6,1.6,2.2l2.5-0.2c0.5-0.8,0.7-1.4,1-2.5
		l3.3,0.4c-0.3,0.7-0.6,1.1-0.9,1.7l2.1-0.2c1.1-0.1,1.6-0.2,2.2-0.3l0.3,2.9c-0.6,0-1.1,0-2.3,0.1l-13.5,1.3
		c-1.1,0.1-1.7,0.2-2.3,0.3l-0.3-2.9c0.7,0,1.2,0,2.3-0.1L383.9,103.5z M384.7,117.9c0.1,1,0.2,1.5,0.3,2.2l-3.1,0.3
		c0-0.7,0-1.4-0.1-2.4l-0.8-8.8c-0.1-1-0.1-1.3-0.3-1.8c0.5,0,1,0,1.8-0.1l4.7-0.4c0.9-0.1,1.3-0.1,1.7-0.2c0,0.5,0,0.9,0.1,1.9
		l0.8,8.7c0.2,1.9-0.3,2.4-2.6,2.6c-0.2,0-0.5,0.1-1,0.1c-0.3-1.3-0.4-1.6-0.9-2.5c0.6,0,0.8,0,1.1,0c0.4,0,0.4-0.1,0.4-0.5
		l-0.1-0.9l-2.3,0.2L384.7,117.9z M386.3,110.3l-0.1-0.9l-2.3,0.2l0.1,0.9L386.3,110.3z M386.6,113.5l-0.1-0.9l-2.3,0.2l0.1,0.9
		L386.6,113.5z M393.1,106.6c0,0.5,0,1.1,0.1,1.9l0.4,4.5c0.1,1,0.2,1.4,0.3,2l-3,0.3c0-0.7,0-1.1-0.1-2l-0.4-4.5
		c-0.1-0.8-0.1-1.3-0.3-1.9L393.1,106.6z M397.2,105.7c0,0.6,0,1.2,0.1,2.1l0.8,8.1c0.1,1.2,0,1.8-0.4,2.2c-0.5,0.5-1.1,0.7-3,0.9
		c-0.2,0-0.2,0-1.7,0.1c-0.3-1.2-0.5-1.7-1.1-2.8c1.1,0,1.7,0,2.4-0.1c0.7-0.1,0.8-0.2,0.7-0.6l-0.7-7.6c-0.1-1-0.2-1.4-0.3-2
		L397.2,105.7z"/>
	<path class="st2" d="M404.3,100.2c0.2,0.7,0.3,0.9,0.6,1.6c0.3,0.9,0.4,0.9,0.8,2c1.4-0.5,1.8-0.7,2.8-1c-0.1-0.5-0.1-0.5-0.2-1.4
		c-0.1-1.3-0.2-1.5-0.4-2.1l3.5-0.3c0,0.5,0,0.7,0,1.5c0,0.2,0,0.2,0.1,1l0.1,0.6c0.5-0.1,0.6-0.1,0.9-0.1c1.9-0.2,3.6,0.5,4.5,1.8
		c0.4,0.6,0.7,1.4,0.8,2.3c0.1,1.5-0.4,3-1.5,4c-0.9,0.9-2.3,1.4-3.9,1.6c-0.8,0.1-1.9,0-2.9-0.1c-0.2-1.5-0.4-2.1-0.8-3.3
		c1.2,0.3,2.1,0.4,3,0.3c1.7-0.2,2.6-1,2.5-2.1c-0.1-1-0.9-1.5-2.3-1.4c-1.2,0.1-2.7,0.6-5.2,1.5c0.7,1.6,2,5.2,3.3,9.2
		c0.2,0.4,0.2,0.6,0.5,1l-3.7,1.2c-0.1-0.9-0.6-2.6-1.6-5.4c-0.3-0.8-0.8-2.4-1.7-4.8c-1.6,0.7-2.6,1.2-3.2,1.6l-1.3-3.2
		c0.6-0.1,0.6-0.1,2.8-1c0.3-0.1,0.4-0.2,0.7-0.3c-0.7-1.8-1.2-2.9-1.6-3.5L404.3,100.2z"/>
	<path class="st2" d="M434.1,98.4c-0.2,0.5-0.4,0.9-0.7,1.9c-0.6,2-1.3,3.7-2.1,5.5c1.9,1.3,2.5,1.8,4.7,3.8l-2.4,3.1
		c-1.2-1.3-2.5-2.5-4.2-3.7c-1.7,2.6-3.9,4.9-7.1,7.1c-0.8-1.1-1.5-1.8-2.8-2.8c2.4-1.4,3.6-2.4,5.1-4c0.7-0.8,1.4-1.6,1.9-2.4
		c-2.6-1.6-3.8-2.3-5.5-3.1l2.2-2.6c1.9,0.9,2.9,1.4,5,2.7c1-2,1.9-4.8,2-6.4L434.1,98.4z"/>
	<path class="st2" d="M454.8,97.9c-0.3,0.3-0.3,0.5-0.5,1.1c-1,3.1-2.5,5.3-4.9,7.1c-0.8-0.8-1.5-1.4-2.4-2c0.1,2.1-0.1,3.6-0.7,5
		c-0.6,1.3-1.5,2.6-2.8,3.7c-0.8,0.6-1.4,1.1-2.7,1.8c-0.9-1.5-1.3-1.9-2.6-3c2.1-0.9,3.5-1.9,4.3-3.2c0.8-1.3,1-2.8,0.8-5.4
		c-0.1-0.6-0.1-0.9-0.2-1.4l3.7-0.4c0,0.4,0,0.6,0.1,1.7c0,0,0,0.5,0,0.7c0.1-0.1,0.1-0.1,0.4-0.3c1.4-0.9,2.4-2.2,3-3.7l-9.5,0.9
		c-1.5,0.1-2.2,0.2-3.2,0.4l-0.3-3.5c0.9,0.1,1.6,0,3.2-0.1l10.4-1c1.1-0.1,1.3-0.1,1.7-0.4L454.8,97.9z"/>
	<path class="st2" d="M459.7,112.4c0-0.8,0-1.4-0.2-3.1l-1.1-11.6c-0.2-1.7-0.2-1.8-0.4-2.9l3.8-0.4c0,0.5,0,0.8,0.2,2.9l0.3,2.7
		c3.2,0.7,6.5,1.8,9.5,3.3l-1.6,3.6c-1.8-1-4.2-2.1-6.6-2.9c-0.6-0.2-0.7-0.2-0.7-0.2c-0.1,0-0.1,0-0.2-0.1l0.5,5.2
		c0.1,1.5,0.3,2.5,0.4,3L459.7,112.4z M467.1,95.1c0.9,0.8,1.6,1.7,2.2,2.7l-1.8,1.1c-0.8-1.2-1.4-1.9-2.2-2.7L467.1,95.1z
		 M469.6,93.7c0.8,0.7,1.4,1.4,2.3,2.6l-1.7,1.1c-0.8-1.2-1.5-1.9-2.2-2.7L469.6,93.7z"/>
	<path class="st2" d="M478.8,93.2c-0.1,0.4-0.3,1.1-0.4,2c-0.4,2.8-0.4,5.1-0.2,7.8l1.6,0.4c-0.4,2-0.5,3.6-0.3,6.2
		c0,0.1,0.1,0.4,0.1,0.8l-3.4,0.5c-0.1-0.4-0.1-0.4-0.3-1.6c-0.6-2.8-0.8-3.8-1-6c-0.3-2.8-0.3-4.6,0-8.1c0.1-0.9,0.1-1.5,0.1-1.8
		c0,0,0-0.1,0-0.1L478.8,93.2z M479.9,96.4c0.8,0.1,2.2,0.1,3.8,0c0.4,0,0.8-0.1,1.4-0.2c-0.1-1.2-0.1-1.2-0.2-2.6
		c0-0.5-0.1-0.8-0.2-1.1l3.4-0.3c0,0.6,0,1.5,0.2,3.5c1.2-0.3,2.4-0.6,3.1-0.9l0.4,3.2c-0.3,0-0.3,0.1-0.7,0.2
		c-0.6,0.2-1.5,0.4-2.5,0.6c0.2,1.6,0.2,1.9,0.6,4.2c1.4,0.5,2.2,0.8,3.4,1.5c0.1,0.1,0.2,0.1,0.4,0.2l-0.9,3.5
		c-0.5-0.5-1.3-1.1-2.6-1.7c0,0.1,0,0.1,0,0.2c0.2,1.7-1.5,3-4,3.2c-2.9,0.3-4.8-1-5-3.3c-0.1-1.2,0.3-2.3,1.2-3.1
		c0.7-0.6,1.7-1,3-1.1c0.4,0,0.7,0,1.2,0c-0.1-0.6-0.1-0.7-0.2-1.6c-0.1-0.7-0.1-1-0.2-1.6c-0.5,0.1-0.7,0.1-1.1,0.1
		c-0.6,0.1-1.8,0.1-3.4,0.2c-0.2,0-0.4,0-0.5,0c0,0-0.1,0-0.2,0L479.9,96.4z M486.1,105.3c-0.5-0.1-0.8-0.2-1.2-0.1
		c-0.9,0.1-1.4,0.5-1.4,1.1c0,0.5,0.6,0.8,1.4,0.7c1-0.1,1.4-0.5,1.3-1.3L486.1,105.3z"/>
	<path class="st2" d="M374.7,128.1c-0.1,0.9,0,2.2,0.1,3.6c0.4,4.5,1.4,7.8,2.2,7.7c0.2,0,0.4-0.3,0.6-0.8c0.3-1.2,0.6-2.3,0.7-3.5
		c1,1,1.6,1.4,3,2.2c-0.3,1.6-0.6,2.8-1.1,4c-0.6,1.4-1.6,2.2-2.8,2.3c-1.1,0.1-2.1-0.4-3-1.4c-1.2-1.4-1.9-3.3-2.5-6.5
		c-0.2-1.4-0.5-3-0.8-5.8c-0.1-0.7-0.1-0.9-0.2-1.4L374.7,128.1z M383.9,128c2.9,2.9,4.7,6.4,5.7,11.2l-3.4,1.7
		c-0.6-4.4-2.4-8.2-5.2-11.1L383.9,128z"/>
	<path class="st2" d="M395.6,128.9c-0.2,1.1-0.3,3-0.4,4.9c1.6-1.2,3.3-1.9,5.5-2.1c3.5-0.3,6.1,1.3,6.3,4.1
		c0.2,1.7-0.5,3.3-1.8,4.4c-1.3,1.1-3.1,1.7-5.6,2c-1.6,0.2-3.1,0.1-5.1-0.1c-0.2-1.6-0.4-2.3-0.8-3.5c2,0.4,3.9,0.6,5.4,0.4
		c2.6-0.2,4.3-1.4,4.2-2.8c-0.1-1.1-1.2-1.6-3-1.4c-1.5,0.1-3,0.7-4.2,1.6c-0.5,0.3-0.7,0.5-1,1l-3.3,0.2c0-0.2,0-0.2,0-0.4
		c0-1,0.1-4.2,0.3-7c0-0.4,0-0.8,0-1.3L395.6,128.9z M394.8,124.5c1,0.4,2.3,0.7,4.2,1c1.4,0.2,3.1,0.4,4.1,0.5l-0.8,3.3
		c-3.7-0.4-6.4-0.9-8.9-1.8L394.8,124.5z"/>
	<path class="st2" d="M416.2,122.8c-0.1,0.4-0.1,0.4-0.2,1.6c-0.1,0.5-0.1,0.7-0.1,1.1c1.3-0.3,2.1-0.5,2.7-0.7l0.4,3.2
		c-0.5,0.1-0.5,0.1-1.5,0.3c-0.5,0.1-1.6,0.3-2.1,0.4c-0.5,2.4-0.9,3.8-1.6,6c-0.3,1-0.5,1.3-1.1,3c-0.2,0.5-0.2,0.5-0.3,0.8
		l-3.4-1.5c1.2-2,2.3-5,3-7.9c-0.4,0-0.4,0-1.1,0.1c-0.5,0-0.5,0-0.9,0.1c-0.1,0-0.2,0-0.8,0.1l-0.3-3.2c0.8,0.1,1.7,0,2.9-0.1
		c0.2,0,0.3,0,0.7-0.1c0-0.2,0-0.2,0.1-0.9c0.1-0.7,0.1-1.7,0.1-2.4L416.2,122.8z M426.3,138.8c-0.8-0.8-1.6-1.4-2.8-1.9
		c0,0.9-0.2,1.5-0.6,2.1c-0.7,0.9-2.1,1.4-3.6,1.6c-1.6,0.2-3-0.2-3.9-1c-0.7-0.6-1.1-1.4-1.2-2.4c-0.2-2.3,1.6-4.1,4.3-4.4
		c0.4,0,0.7-0.1,1.4,0c-0.1-0.8-0.2-1.1-0.2-1.6c-0.1-0.8-0.1-1.5-0.1-2.4l3.3-0.2c-0.1,0.7-0.1,1.3,0,2.3c0.1,0.7,0.2,1.3,0.4,2.3
		c1.3,0.4,2.3,0.9,3.2,1.5c0.1,0,0.4,0.3,1,0.7L426.3,138.8z M418.8,135.8c-0.9,0.1-1.5,0.5-1.4,1.2c0.1,0.6,0.6,0.9,1.5,0.8
		c1-0.1,1.5-0.6,1.4-1.4c0-0.1-0.1-0.4-0.1-0.4C419.7,135.7,419.3,135.7,418.8,135.8z M425.6,129.5c-2-1-4-1.7-6.5-2.3l1.4-2.9
		c2.6,0.7,4.3,1.2,6.2,2.1L425.6,129.5z"/>
	<path class="st2" d="M432.2,122.7c-0.1,0.9,0,2.2,0.1,3.6c0.4,4.5,1.4,7.8,2.2,7.7c0.2,0,0.4-0.3,0.6-0.8c0.3-1.2,0.6-2.3,0.7-3.5
		c1,1,1.6,1.4,3,2.2c-0.3,1.6-0.6,2.8-1.1,4c-0.6,1.4-1.6,2.2-2.8,2.3c-1.1,0.1-2.1-0.4-3-1.4c-1.2-1.4-1.9-3.3-2.5-6.5
		c-0.2-1.4-0.5-3-0.8-5.8c-0.1-0.7-0.1-0.9-0.2-1.4L432.2,122.7z M441.5,122.5c2.9,2.9,4.7,6.4,5.7,11.2l-3.4,1.7
		c-0.6-4.4-2.4-8.2-5.2-11.1L441.5,122.5z"/>
	<path class="st2" d="M457.4,131.5c-0.9,2.7-2.1,3.9-4,4.1c-2.7,0.3-4.8-2.1-5.1-5.8c-0.2-2.3,0.4-4.5,1.7-6.3
		c1.6-2.1,4-3.3,6.9-3.6c2.7-0.3,5.1,0.4,6.7,1.8c1.4,1.2,2.3,3.1,2.5,5.4c0.2,2.6-0.5,5-2,6.7c-1.2,1.3-2.8,2.1-5.5,2.8
		c-0.6-1.4-1.1-2.1-2-3.1c1.9-0.3,3.1-0.8,4.1-1.4c1.5-1,2.2-2.7,2-4.8c-0.2-1.7-0.9-3-2.1-3.8c-0.6-0.3-1-0.5-1.7-0.5
		C458.6,126.4,458.2,129,457.4,131.5z M453.2,124.5c-1.2,1.2-1.9,3.2-1.7,4.9c0.1,1.4,0.8,2.5,1.5,2.4c0.5,0,1-0.8,1.4-2.4
		c0.5-1.9,0.9-4.2,0.9-6.2C454.5,123.5,453.9,123.9,453.2,124.5z"/>
	<path class="st2" d="M467.4,121.2c0.3,0,0.4,0,0.6,0c0.5,0,1.6-0.2,1.7-0.2c0.6-0.1,0.6-0.1,0.8-0.1c-0.1-1.1-0.1-1.5-0.2-2.2
		c0-0.2,0-0.2-0.1-1l3.5-0.2c-0.1,0.7-0.1,1.1,0,2.9l1.2,0.9c-0.2,0.2-0.7,0.8-1.1,1.4c0,0.4,0,0.6,0,0.7c0.5-0.5,0.7-0.7,1.6-1.5
		c1.6-1.4,2.9-2,4.4-2.2c3.1-0.3,4.9,1.9,5.4,6.4c0.1,1.1,0.1,2,0,3c0.1,0,0.7,0.4,1.8,1l-0.9,3.5c-0.6-0.5-0.7-0.6-1.7-1.3
		c-0.2,0.5-0.4,0.8-0.9,1.2c-0.7,0.6-1.9,1.1-3.1,1.2c-2.6,0.2-4.5-1-4.7-3.1c-0.2-2.1,1.4-3.7,3.9-3.9c0.8-0.1,1.4,0,2.3,0.2
		c0-0.5,0-0.9,0-1.4c-0.1-0.8-0.3-1.6-0.5-2.2c-0.3-0.8-1-1.2-1.8-1.1c-1.4,0.1-3.4,1.7-5.5,4.1l0.6,5.5c0.2,1.8,0.2,1.8,0.4,2.7
		l-3.6,0.3c0-0.5,0-1.1-0.1-2.1c-0.2-2-0.2-2-0.2-2.4c0-0.6,0-0.6,0-0.7c0,0,0-0.2,0-0.3l-0.1,0.2c-0.1,0.1-0.1,0.1-0.2,0.3
		c-0.1,0.1-0.2,0.3-0.5,0.7c-0.4,0.5-0.8,1.2-1,1.5l-1.9-3.2c0.4-0.3,0.9-0.8,2-2.1c0.6-0.7,0.8-1,1.3-1.5c-0.1-0.6-0.1-0.8-0.2-2.2
		c-1.5,0.2-2.1,0.4-2.9,0.6L467.4,121.2z M480,130.2c-0.7,0.1-1.1,0.4-1,0.9c0,0.5,0.6,0.7,1.3,0.6c0.5,0,1-0.3,1.2-0.6
		c0.1-0.1,0.3-0.5,0.3-0.5l0,0C481,130.2,480.6,130.1,480,130.2z"/>
</g>
<path class="st5" d="M335.6,109.8c-5.1,9.2,12.1,38.5,37.4,46.9c25.3,8.4,34.4,3.9,46.7,9.3c17.7,7.8-9.6-0.9,13.4-14.6
	c35.2-21.1,70-0.1,80.2-34.8"/>
<line class="st6" x1="18.6" y1="100.8" x2="333" y2="100.8"/>
<rect x="121.5" y="98.2" class="st0" width="108.7" height="6.4"/>
<g>
	<g>
		<path d="M131.8,91.5c0-0.6,0-1-0.1-1.4h3.9c-0.1,0.4-0.1,0.7-0.1,1.4h6.8c0-0.7,0-1-0.1-1.4h3.9c-0.1,0.4-0.1,0.7-0.1,1.4h1
			c1.3,0,2.1,0,2.9-0.1v3.4c-1-0.1-1.8-0.1-2.9-0.1h-1v5.8h1.2c1.1,0,2,0,3-0.1v3.5c-0.8-0.1-1.7-0.1-2.8-0.1h-1.6
			c1.4,1.1,2.9,1.8,5.1,2.3c-0.7,1.3-1.1,2.1-1.5,3.5c-1.8-0.7-2.8-1.3-4.3-2.3v1.4c-0.8-0.1-1.2-0.1-2.4-0.1h-2.2v1h5.3
			c1.1,0,1.9,0,2.9-0.2v3.5c-0.9-0.1-1.9-0.1-3.3-0.1h-13.3c-1.3,0-2.3,0-3.2,0.1v-3.5c0.8,0.1,1.7,0.1,3,0.1h5v-1h-2
			c-1.1,0-1.6,0-2.3,0.1v-1.4c-1.5,1-2.6,1.7-4.3,2.3c-0.4-1.4-0.7-2.1-1.5-3.5c2.1-0.5,3.6-1.2,5.1-2.4h-1.5c-1.1,0-2,0-2.8,0.1
			v-3.5c0.8,0.1,1.7,0.1,2.8,0.1h1.4v-5.8h-0.9c-1.1,0-2,0-2.9,0.1v-3.4c0.9,0.1,1.7,0.1,2.9,0.1H131.8z M135,105.5h2
			c0-0.6,0-1-0.1-1.4h3.8c-0.1,0.5-0.1,0.8-0.1,1.4h2.5c-0.8-0.7-1.3-1.3-1.8-2h-4.9c-0.6,0.8-1,1.3-1.7,2H135z M142.3,95.1v-0.8
			h-6.8v0.8H142.3z M142.3,97.9v-0.7h-6.8v0.7H142.3z M142.3,100.7v-0.8h-6.8v0.8H142.3z"/>
		<path d="M167,97.4c0.9,1.7,1.6,2.7,2.8,4c1.7,1.8,3.4,3.2,5.5,4.3c-0.9,1.2-1.3,2.1-2,3.8c-1.7-1.1-2.6-1.8-3.8-3v2.2
			c-0.8-0.1-1.5-0.1-2.5-0.1h-1.8v1.3c0,1.2,0,2.3,0.2,3.3h-4.2c0.1-1,0.2-2.1,0.2-3.3v-1.3h-1.6c-0.9,0-1.7,0-2.4,0.1v-2.3
			c-1.4,1.4-2.3,2.1-3.7,3.1c-0.7-1.7-1.1-2.5-1.9-3.7c2-1.2,3.7-2.6,5.3-4.5c1.1-1.3,1.7-2.2,2.6-3.9h-4c-1.2,0-2.1,0-3.2,0.2v-3.9
			c1,0.1,1.9,0.2,3.2,0.2h5.8v-1.5c0-1.1,0-1.7-0.2-2.3h4.2c-0.1,0.6-0.1,1.2-0.1,2.3v1.5h6.1c1.3,0,2.3,0,3.2-0.2v3.9
			c-1.1-0.1-1.9-0.2-3.2-0.2H167z M161.4,102.9c0-0.8,0-1.3,0.1-2.1c-0.9,1.7-1.7,2.8-3,4.4c0.5,0,0.6,0,1.1,0h1.8V102.9z
			 M167.4,105.1c0.5,0,0.7,0,0.9,0c-1.3-1.5-2.2-2.7-3.1-4.4c0.1,1.4,0.1,1.7,0.1,2.1v2.3H167.4z"/>
		<path d="M176.3,101.3c0.4-1.9,0.6-3.4,0.6-5.3c0-0.3,0-0.7,0-1.2l2.1,0.4c0,0.4,0,0.8,0,1c0,2.1-0.2,4.3-0.5,6L176.3,101.3z
			 M182.9,110.3c0,1.4,0,2,0.1,2.9h-3.8c0.1-0.9,0.1-2.1,0.1-3.4V92.7c0-1.2,0-1.9-0.1-2.7h3.8c-0.1,0.8-0.1,1.4-0.1,2.7v2.2
			l1.2-0.5c0.6,1.2,0.9,2.1,1.2,3.2c0.4,0,0.8,0,1.4,0h3.1v-0.7h-2.7c-0.9,0-1.3,0-1.9,0.1v-2.3c0.7,0,1,0,1.9,0h2.7v-0.6h-2.7
			c-1.5,0-1.9,0-2.6,0.1v-2.8c0.8,0.1,1.3,0.1,2.8,0.1h2.5c0-0.7,0-1-0.1-1.5h3.8c-0.1,0.5-0.1,0.8-0.1,1.5h3c1.4,0,1.9,0,2.7-0.1
			v2.8c-0.7-0.1-1.4-0.1-2.6-0.1h-3.1v0.6h3.1c1,0,1.2,0,1.8,0V97c-0.6-0.1-0.9-0.1-1.9-0.1h-3.1v0.7h3.6c1.3,0,1.7,0,2.4-0.1v2.9
			c-0.8-0.1-1.3-0.1-2.4-0.1h-10.3c-1.3,0-1.7,0-2.4,0.1v-2l-0.8,0.3c-0.2-1-0.4-1.6-0.7-2.3V110.3z M188.5,110.2c0,1.2,0,2.1,0.1,3
			h-3.9c0.1-0.8,0.1-1.5,0.1-3v-7.2c0-0.7,0-1.4-0.1-2c0.6,0,0.8,0,1.7,0h9.8c1.1,0,1.6,0,2.2-0.1c-0.1,0.7-0.1,1.3-0.1,2.4v6.9
			c0,2.3-0.9,2.9-4,2.9c-0.4,0-0.9,0-1.9,0c-0.1-1.2-0.3-1.9-0.7-3.1c0.8,0.1,1.6,0.2,2.1,0.2c0.8,0,0.9-0.1,0.9-0.5V109h-6.2V110.2
			z M194.8,104v-0.7h-6.2v0.7H194.8z M194.8,106.9v-0.7h-6.2v0.7H194.8z"/>
		<path d="M209.9,96.2c1.1,0,1.7,0,2.3-0.1v3.5c-0.4,0-0.6-0.1-1.1-0.1c-0.3,1.2-0.3,1.3-0.6,2c0.7,0,1.1,0,1.7-0.1v3.4
			c-0.8-0.1-1.3-0.1-2.3-0.1h-1.2v1.3h1c1,0,1.6,0,2.3-0.1v3.5c-0.7-0.1-1.2-0.1-2.3-0.1h-1v1.2c0,1.3,0,1.9,0.1,2.7h-3.8
			c0.1-0.9,0.1-1.5,0.1-2.7v-1.2h-1c-1,0-1.5,0-2.2,0.1v-3.5c0.7,0.1,1.3,0.1,2.2,0.1h1v-1.3h-1.5c-1,0-1.6,0-2.3,0.1v-3.4
			c0.6,0.1,1,0.1,1.8,0.1c-0.1-0.8-0.3-1.3-0.5-2c-0.6,0-0.9,0-1.3,0.1v-3.5c0.7,0.1,1.3,0.1,2.3,0.1h1.5V95h-1
			c-0.9,0-1.5,0-2.2,0.1v-3.5c0.7,0.1,1.2,0.1,2.2,0.1h1v-0.2c0-0.7,0-1.2-0.1-1.6h3.7c-0.1,0.5-0.1,0.9-0.1,1.6v0.2h0.9
			c1.1,0,1.6,0,2.2-0.1v3.5c-0.8-0.1-1.3-0.1-2.2-0.1h-0.9v1.2H209.9z M207.4,101.5c0.2-0.7,0.3-1.2,0.5-2H206
			c0.2,0.8,0.3,1.3,0.4,2H207.4z M224.1,100.3c-0.1,0.3-0.2,0.6-0.3,1.2c-0.4,2-1.1,4.2-1.8,5.7c0.9,0.9,1.5,1.3,2.9,2.1
			c-1,1.5-1.4,2.3-2,3.8c-1.2-1-1.7-1.5-2.8-2.7c-0.8,1.1-1.4,1.7-2.5,2.7c-0.5-1.1-0.8-1.7-1.4-2.5c0,1.1,0.1,1.7,0.2,2.5h-3.8
			c0.1-1,0.1-1.9,0.1-3.4V93.3c0-0.8,0-2-0.1-2.7c0.7,0.1,1.4,0.1,2.3,0.1h6.5c1.2,0,2.1,0,2.5-0.1c-0.1,0.9-0.1,0.9-0.1,2.4
			c-0.2,2.9-0.3,3.7-0.8,4.3c-0.5,0.5-1.2,0.7-2.8,0.7c-0.5,0-1.1,0-2.1-0.1c-0.1-1-0.3-1.8-0.6-2.9c1,0.1,1.7,0.2,2.2,0.2
			c0.5,0,0.6-0.1,0.7-1.2h-3.9v4.6h3.8c1.4,0,2.1,0,2.7-0.1L224.1,100.3z M216.3,109.4c0.7-0.5,1.2-1.1,1.8-1.9
			c-0.8-1.4-1.4-2.8-1.8-4.4V109.4z M218.8,101.7c0.3,0.9,0.6,1.7,1,2.6c0.3-0.9,0.5-1.4,0.7-2.6H218.8z"/>
	</g>
</g>
<path class="st2" d="M389.7,304.8H17.2c-4.6,0-8.3-3.7-8.3-8.3v-9.9c0-4.6,3.7-8.3,8.3-8.3h372.5c4.6,0,8.3,3.7,8.3,8.3v9.9
	C398,301.1,394.3,304.8,389.7,304.8z"/>
<g>
	<path class="st0" d="M24,289l0.4,0.4l-4.6,4.6l4.6,4.6l-0.4,0.4l-4.6-4.6l-4.6,4.6l-0.4-0.4l4.6-4.6l-4.6-4.6l0.4-0.4l4.6,4.6
		L24,289z M16.6,294.1c0,0.6-0.4,1-1,1c-0.5,0-1-0.5-1-1s0.4-1,1-1C16.2,293.1,16.6,293.5,16.6,294.1z M20.3,297.9c0,0.5-0.5,1-1,1
		c-0.5,0-1-0.5-1-1c0-0.5,0.5-1,0.9-1c0,0,0,0,0,0c0,0,0,0,0,0c0,0,0,0,0,0C19.9,296.9,20.3,297.3,20.3,297.9z M20.3,290.3
		c0,0.6-0.4,1-1,1s-1-0.5-1-1s0.5-1,1-1S20.3,289.8,20.3,290.3z M24.1,294.1c0,0.5-0.4,1-1,1s-1-0.4-1-1s0.4-1,1-1
		S24.1,293.6,24.1,294.1z"/>
	<path class="st0" d="M33.4,291.9c-0.2,0-0.2,0-0.5,0.1c-0.5,0.1-1.3,0.2-2,0.3v1.1c0.8-0.2,1.2-0.2,1.9-0.2c1.6,0,2.8,0.4,3.5,1.2
		c0.6,0.6,0.9,1.4,0.9,2.3c0,1.8-1.4,3.2-3.2,3.2c-1.6,0-2.5-1.1-2.5-3c0-0.1,0-0.2,0-0.3c0.9-0.3,1.3-0.4,2-0.8c0,0.3,0,0.4,0,0.7
		c0,0.4,0,0.6,0.1,0.8c0.1,0.2,0.3,0.4,0.6,0.4c0.6,0,0.9-0.5,0.9-1.1c0-0.4-0.2-0.9-0.6-1.1c-0.4-0.2-0.9-0.3-1.5-0.3
		c-0.6,0-1.2,0.1-1.9,0.3l0,2.3v0.3c0,0.8-0.1,1.1-0.2,1.4c-0.2,0.4-0.7,0.6-1.3,0.6c-1,0-2.1-0.4-2.8-1c-0.5-0.5-0.8-1.1-0.8-1.7
		c0-0.7,0.4-1.5,1.2-2.2c0.5-0.5,1.1-0.8,1.9-1.2v-1.5l-1,0l-1.3,0c0,0-0.2,0-0.3,0l0-2c0.4,0.1,0.9,0.1,1.8,0.1c0.1,0,0.1,0,0.5,0
		c0.2,0,0.2,0,0.3,0V290c0-1,0-1.3-0.1-1.8h2.2c-0.1,0.5-0.1,0.8-0.1,1.6v0.4c0.9-0.1,1.7-0.2,2.4-0.4L33.4,291.9z M28.9,296
		c-0.6,0.3-1.1,0.8-1.1,1.2c0,0.2,0.1,0.3,0.3,0.4c0.2,0.1,0.4,0.2,0.6,0.2c0.2,0,0.2-0.1,0.2-0.5V296z M36.2,293.1
		c-0.7-1.2-1.4-2-2.6-3.1l1.7-1.2c1.1,0.9,1.9,1.8,2.6,2.9L36.2,293.1z"/>
	<path class="st0" d="M41.7,296.2c-0.8,0.4-1.2,0.5-2.1,0.9c-0.4-0.8-0.6-1.2-1.2-1.8c1.5-0.4,2.6-0.8,4.2-1.7
		c-0.4-0.5-0.8-0.8-1.4-1.3c-0.5,0.3-0.8,0.5-1.5,0.9c-0.4-0.7-0.7-1-1.2-1.5c1.1-0.5,2-1,2.9-1.8c0.7-0.6,1.3-1.3,1.7-2l2.2,0.4
		c-0.3,0.4-0.4,0.5-0.5,0.7h2.5c0.5,0,0.8,0,1.1-0.1l1.1,1.1c-0.2,0.2-0.2,0.2-0.5,0.6c-0.9,1.1-2.2,2.4-3.5,3.3h3.5
		c0.6,0,0.9,0,1.2,0c-0.1,0.4-0.1,0.8-0.1,1.3v3.6c0,0.6,0,1,0.1,1.4h-2v-0.7h-4.5v0.7h-2c0.1-0.4,0.1-0.8,0.1-1.4V296.2z
		 M43.1,290.7c-0.2,0.2-0.2,0.2-0.4,0.4c0.9,0.7,0.9,0.7,1.6,1.4c0.8-0.6,1.2-1,1.9-1.8H43.1z M43.6,297.8h4.5v-2.1h-4.5V297.8z"/>
	<path class="st0" d="M54.7,289.4c-0.2-0.4-0.4-0.6-0.7-1l2-0.5c0.4,0.6,0.7,1.1,0.9,1.5h1.6c0.4-0.5,0.6-0.9,0.8-1.5l2.1,0.5
		c-0.3,0.4-0.4,0.7-0.7,1h1.4c0.7,0,1,0,1.5-0.1v1.9c-0.4-0.1-0.7-0.1-1.5-0.1h-8.8c-0.7,0-1.1,0-1.5,0.1v-1.9
		c0.5,0.1,0.8,0.1,1.5,0.1H54.7z M54.3,298.8c0,0.7,0,0.9,0.1,1.4h-2c0.1-0.5,0.1-0.9,0.1-1.6v-5.7c0-0.6,0-0.9-0.1-1.2
		c0.4,0,0.7,0,1.2,0h3.1c0.6,0,0.8,0,1.1,0c0,0.3,0,0.6,0,1.2v5.7c0,1.2-0.4,1.5-1.8,1.5c-0.1,0-0.4,0-0.6,0c-0.1-0.8-0.2-1-0.4-1.7
		c0.4,0,0.5,0.1,0.7,0.1c0.2,0,0.3-0.1,0.3-0.3v-0.6h-1.5V298.8z M55.8,294v-0.6h-1.5v0.6H55.8z M55.8,296.1v-0.6h-1.5v0.6H55.8z
		 M60.4,292c0,0.4-0.1,0.7-0.1,1.2v2.9c0,0.7,0,0.9,0.1,1.3h-2c0-0.5,0.1-0.7,0.1-1.3v-3c0-0.5,0-0.8-0.1-1.2H60.4z M63.1,291.7
		c-0.1,0.4-0.1,0.8-0.1,1.4v5.3c0,0.8-0.1,1.2-0.4,1.4c-0.4,0.3-0.8,0.4-2,0.4c-0.1,0-0.1,0-1.1,0c-0.1-0.8-0.2-1.2-0.5-1.9
		c0.7,0.1,1.1,0.1,1.6,0.1c0.4,0,0.5-0.1,0.5-0.4v-5c0-0.7,0-0.9-0.1-1.3H63.1z"/>
	<path class="st0" d="M68.1,288.5c0.1,0.4,0.1,0.6,0.3,1.1c0.2,0.6,0.2,0.6,0.4,1.4c0.9-0.2,1.2-0.3,1.9-0.5c0-0.3,0-0.3,0-0.9
		c0-0.8,0-1-0.1-1.4h2.3c0,0.3-0.1,0.5-0.1,1c0,0.1,0,0.1,0,0.7v0.4c0.3,0,0.4,0,0.6,0c1.2,0,2.3,0.5,2.8,1.4c0.2,0.4,0.4,1,0.4,1.6
		c0,1-0.5,1.9-1.2,2.5c-0.7,0.5-1.6,0.8-2.6,0.8c-0.5,0-1.2-0.1-1.8-0.3c-0.1-1-0.1-1.4-0.3-2.2c0.8,0.3,1.4,0.4,2,0.4
		c1.1,0,1.8-0.5,1.8-1.2c0-0.7-0.5-1-1.4-1c-0.8,0-1.8,0.2-3.5,0.7c0.3,1.1,0.9,3.5,1.6,6.1c0.1,0.3,0.1,0.4,0.2,0.7l-2.4,0.6
		c0-0.6-0.3-1.7-0.7-3.6c-0.1-0.5-0.4-1.6-0.8-3.2c-1.1,0.4-1.7,0.6-2.2,0.8l-0.7-2.1c0.4-0.1,0.4-0.1,1.8-0.5
		c0.2-0.1,0.3-0.1,0.4-0.1c-0.4-1.2-0.6-1.9-0.8-2.4L68.1,288.5z"/>
	<path class="st0" d="M87.5,289.2c-0.2,0.3-0.3,0.6-0.5,1.2c-0.5,1.3-1.1,2.3-1.7,3.4c1.1,1,1.5,1.4,2.8,2.7l-1.8,1.8
		c-0.7-0.9-1.5-1.7-2.5-2.7c-1.2,1.6-2.8,2.9-5,4.1c-0.4-0.8-0.8-1.3-1.6-2c1.6-0.8,2.5-1.3,3.5-2.3c0.5-0.5,1-0.9,1.4-1.4
		c-1.6-1.2-2.3-1.7-3.4-2.3l1.6-1.6c1.2,0.7,1.8,1.1,3.1,2c0.8-1.2,1.5-3,1.7-4L87.5,289.2z"/>
	<path class="st0" d="M89.5,292.8c0.6,0.1,1.3,0.1,2.7,0.1h6.2c1.3,0,1.8,0,2.7-0.1v2.5c-0.6-0.1-1.2-0.1-2.7-0.1h-6.2
		c-1.5,0-1.9,0-2.7,0.1V292.8z"/>
	<path class="st0" d="M106.7,288.8c-0.1,0.4-0.1,0.4-0.1,3c-0.1,2.7-0.3,4.2-1,5.6c-0.4,1-0.9,1.7-1.8,2.6c-0.7-0.9-1-1.2-1.9-1.8
		c0.7-0.7,1.1-1.2,1.5-2.1c0.6-1.3,0.8-2.9,0.8-6.3c0-0.6,0-0.9-0.1-1.2L106.7,288.8z M110.4,288.6c-0.1,0.5-0.1,0.7-0.1,1.5
		l-0.1,6.8c0.7-0.4,1.1-0.8,1.6-1.4c0.5-0.7,0.8-1.3,1-2.2c0.6,0.8,1,1.1,1.7,1.7c-0.6,1.5-1.3,2.5-2.2,3.3c-0.8,0.7-1.4,1-2.7,1.5
		c-0.4,0.1-0.5,0.2-0.6,0.3l-1.1-1.2c0.1-0.3,0.1-0.6,0.1-1.1l0.1-7.7v-0.5c0-0.4,0-0.7-0.1-1H110.4z"/>
	<path class="st0" d="M126.2,290.2c-0.2,0.2-0.2,0.3-0.4,0.7c-0.8,2-2,3.3-3.6,4.3c-0.5-0.6-0.9-1-1.5-1.4c-0.1,1.4-0.3,2.3-0.8,3.2
		c-0.5,0.8-1.1,1.6-2,2.2c-0.5,0.4-1,0.6-1.8,1c-0.5-1-0.7-1.3-1.5-2.1c1.4-0.5,2.4-1,3-1.8c0.6-0.8,0.8-1.7,0.8-3.5
		c0-0.4,0-0.6-0.1-0.9h2.4c0,0.3-0.1,0.4-0.1,1.1c0,0,0,0.3,0,0.5c0.1-0.1,0.1-0.1,0.3-0.2c0.9-0.5,1.7-1.3,2.2-2.2H117
		c-1,0-1.4,0-2.1,0.1v-2.3c0.6,0.1,1,0.1,2.1,0.1h6.8c0.7,0,0.8,0,1.1-0.1L126.2,290.2z"/>
	<path class="st0" d="M128.4,299.8c0.1-0.5,0.1-0.9,0.1-2v-7.6c0-1.1,0-1.2-0.1-1.9h2.5c-0.1,0.3-0.1,0.5-0.1,1.9v1.8
		c2.1,0.7,4.1,1.6,5.9,2.7l-1.2,2.2c-1.1-0.8-2.6-1.6-4.1-2.3c-0.4-0.2-0.4-0.2-0.5-0.2c0,0-0.1,0-0.1-0.1v3.4c0,1,0,1.7,0.1,2
		H128.4z M134.3,289.1c0.5,0.6,0.9,1.2,1.3,1.9l-1.2,0.6c-0.4-0.8-0.8-1.3-1.3-1.9L134.3,289.1z M136,288.3c0.5,0.5,0.8,1,1.3,1.8
		l-1.2,0.6c-0.5-0.8-0.8-1.3-1.3-1.9L136,288.3z"/>
	<path class="st0" d="M142.1,288.6c-0.1,0.5-0.1,0.8-0.1,1.6l-0.1,6.9c2.6-0.6,4.6-2.1,5.8-4.4c0.6,0.9,1,1.3,1.8,1.9
		c-1.9,2.9-4.3,4.4-8.1,5.1c-0.5,0.1-0.6,0.1-0.8,0.2l-1.2-1.4c0.1-0.3,0.1-0.4,0.2-1.1l0.1-7.2c0-0.1,0-0.1,0-0.2
		c0-0.6,0-1-0.1-1.4L142.1,288.6z"/>
	<path class="st0" d="M159.5,299.9c-1.1-1.4-2.3-2.6-3.7-3.7c-1.2,1.4-2.8,2.6-4.8,3.6c-0.5-0.9-0.7-1.3-1.5-2.1
		c1.7-0.6,3-1.5,4.2-2.6c1.2-1.2,2-2.3,2.6-3.8l-3.4,0.1c-1.1,0-1.5,0.1-2.1,0.1l-0.1-2.3c0.5,0.1,0.9,0.1,1.4,0.1
		c0.1,0,0.4,0,0.7,0l4.4-0.1c0.6,0,0.7,0,1-0.1l1.1,1.2c-0.2,0.2-0.3,0.3-0.5,0.8c-0.7,1.6-1.2,2.5-1.9,3.5c1.6,1.1,2.1,1.6,4.1,3.5
		L159.5,299.9z"/>
	<path class="st0" d="M167.5,288.3c-0.1,0.2-0.1,0.2-0.2,1c-0.1,0.3-0.1,0.4-0.2,0.7c0.8-0.1,1.4-0.2,1.8-0.3l0,2.1
		c-0.3,0-0.3,0-1,0.1c-0.4,0-1.1,0.1-1.4,0.1c-0.5,1.5-0.8,2.4-1.4,3.8c-0.3,0.6-0.4,0.8-0.9,1.8c-0.2,0.3-0.2,0.3-0.2,0.5l-2.1-1.2
		c0.9-1.2,1.8-3.1,2.4-4.9c-0.2,0-0.2,0-0.7,0c-0.3,0-0.3,0-0.6,0c-0.1,0-0.1,0-0.5,0v-2.1c0.5,0.1,1.1,0.1,1.9,0.1
		c0.1,0,0.2,0,0.5,0c0-0.1,0-0.1,0.1-0.5s0.2-1.1,0.2-1.5L167.5,288.3z M173.1,299.3c-0.5-0.6-1-1-1.7-1.4c0,0.6-0.2,1-0.5,1.4
		c-0.5,0.5-1.4,0.8-2.5,0.8s-1.9-0.3-2.5-0.9c-0.4-0.4-0.6-1-0.6-1.6c0-1.5,1.3-2.6,3.1-2.6c0.3,0,0.5,0,0.9,0.1
		c0-0.5-0.1-0.7-0.1-1c0-0.5,0-0.9,0.1-1.5l2.1,0.1c-0.1,0.5-0.1,0.8-0.1,1.5c0,0.5,0,0.9,0.1,1.5c0.8,0.4,1.4,0.7,2,1.2
		c0,0,0.2,0.2,0.6,0.5L173.1,299.3z M168.5,296.8c-0.6,0-1,0.3-1,0.7c0,0.4,0.4,0.6,0.9,0.6c0.6,0,1-0.3,1-0.8c0-0.1,0-0.3,0-0.3
		C169,296.9,168.8,296.8,168.5,296.8z M173.3,293.2c-1.2-0.8-2.5-1.4-4-1.9l1.1-1.8c1.6,0.6,2.7,1.1,3.9,1.8L173.3,293.2z"/>
	<path class="st0" d="M179.8,288.2c0,0.7,0.4,2.7,0.7,3.8c0.4-0.1,0.5-0.2,0.8-0.3c0.2-0.1,0.8-0.2,1.9-0.6c0.8-0.2,0.8-0.2,1-0.3
		l0.7,2.3c-1.3,0.2-3.1,0.7-4.7,1.2c-1.7,0.6-2.5,1.3-2.5,2c0,0.8,0.8,1.1,2.6,1.1c1.2,0,2.6-0.2,3.8-0.4c0.2,0,0.3-0.1,0.7-0.2
		l0.2,2.5c-0.3,0-0.5,0-1.1,0.1c-1.4,0.2-2.3,0.2-3.3,0.2c-1.9,0-3.2-0.3-4-0.8c-0.7-0.5-1.2-1.4-1.2-2.4c0-1,0.5-2,1.3-2.7
		c0.5-0.4,0.8-0.6,1.6-1c-0.3-1.1-0.4-1.6-0.8-3.4c-0.1-0.6-0.1-0.7-0.2-0.9L179.8,288.2z M183.3,288.2c0.4,0.6,0.8,1.3,1.1,2.1
		l-1.3,0.5c-0.4-0.9-0.7-1.5-1.1-2.1L183.3,288.2z M185.1,287.7c0.5,0.7,0.8,1.2,1.1,2l-1.2,0.4c-0.4-0.9-0.7-1.5-1.1-2L185.1,287.7
		z"/>
	<path class="st0" d="M190.4,289.9c0-0.3,0-0.4,0-0.6c-0.2,0.6-0.4,1.1-0.7,1.7v7.8c0,0.6,0,0.9,0.1,1.5h-2.1
		c0.1-0.5,0.1-0.9,0.1-1.5v-3.4c0-0.1,0-0.8,0-1.3c-0.1,0.1-0.1,0.2-0.2,0.2c-0.2,0.3-0.2,0.4-0.5,0.6c-0.2-0.9-0.3-1.5-0.7-2.4
		c0.7-0.8,1.3-1.7,1.7-3c0.3-0.7,0.4-1.2,0.4-1.7l1.7,0.5v0c0.5,0.1,0.9,0.1,1.7,0.1h4.7c1,0,1.4,0,1.9-0.1c0,0.5-0.1,0.9-0.1,1.8
		v8.2c0,1,0,1.4,0.1,1.9h-1.9v-0.5h-4.6v0.5h-1.9c0.1-0.5,0.1-0.9,0.1-1.7V289.9z M192.2,297.9h4.6v-7.7h-4.6V297.9z M195.6,293.4
		c0.3,0,0.5,0,0.7,0c0,0.2,0,0.3,0,0.8v2.5c0,0.5,0,0.6,0,0.8c0,0-0.1,0-0.1,0c-0.1,0-0.3,0-0.6,0h-2.3c-0.3,0-0.5,0-0.7,0
		c0-0.2,0-0.3,0-0.8v-2.5c0-0.4,0-0.5,0-0.8c0.3,0,0.4,0,0.7,0h0.3v-0.6H193c-0.2,0-0.4,0-0.6,0v-1.8c0.2,0,0.3,0.1,0.6,0.1h0.6V291
		c0-0.2,0-0.4-0.1-0.5h1.8c0,0.2-0.1,0.3-0.1,0.5v0.1h0.6c0.3,0,0.4,0,0.6-0.1v1.8c-0.2,0-0.3,0-0.6,0h-0.6v0.6H195.6z M194.1,295.9
		h0.8V295h-0.8V295.9z"/>
	<path class="st0" d="M207,288.2c-0.1,0.2-0.1,0.6-0.1,1.1c0,1.4,0.2,2.9,0.5,3.8c0.5,1.4,1.3,2.6,2.4,3.6c0.7,0.6,1.3,1,2.3,1.5
		c-0.6,0.7-0.9,1.1-1.3,2.1c-1.4-0.9-2.3-1.7-3.2-2.7c-0.8-0.9-1.3-1.9-1.8-3.2c-0.6,1.7-1.1,2.7-2.1,3.7c-0.8,0.9-1.7,1.5-2.8,2.2
		c-0.4-0.9-0.6-1.2-1.3-1.9c1.9-1,3-1.9,3.8-3.3c0.8-1.4,1.2-3.4,1.2-5.8c0-0.4,0-0.7-0.1-1H207z"/>
	<path class="st0" d="M213.3,289.4c0.6,0.1,1.3,0.2,2.7,0.2c0.1,0,0.2,0,0.4,0c0.3-0.6,0.4-1,0.4-1.4l2.4,0.2
		c-0.1,0.2-0.1,0.2-0.3,0.6c-0.2,0.4-0.2,0.6-0.3,0.6c0.1,0,0.1,0,0.8-0.1c1.3-0.1,2.6-0.2,3.3-0.4l0.1,2.1c-0.4,0-0.8,0.1-1.2,0.1
		c-0.9,0.1-2.5,0.2-3.9,0.2c-0.2,0.4-0.3,0.5-0.6,1c0.6-0.3,1.1-0.4,1.7-0.4c1.1,0,1.7,0.4,2,1.3c0.2-0.1,0.2-0.1,0.9-0.3
		c0,0,0.4-0.1,0.8-0.3c0.7-0.2,0.8-0.3,1-0.4l0.8,2.1c-0.7,0.1-2.1,0.5-3.3,0.9c0,0.4,0,0.4,0,0.9c0,0.6,0,0.8,0.1,1.1l-2.1,0.1
		c0-0.2,0.1-0.6,0.1-1.4l-0.1,0.1c-0.6,0.3-0.7,0.3-0.9,0.5c-0.2,0.2-0.3,0.4-0.3,0.7c0,0.5,0.5,0.7,1.7,0.7c1.6,0,3.1-0.2,4.2-0.6
		l0.1,2.3c-0.4,0-0.4,0-1.2,0.1c-1,0.1-2.1,0.2-3.1,0.2c-1.5,0-2.4-0.2-3.1-0.6c-0.6-0.4-1-1.1-1-1.8c0-0.6,0.2-1.1,0.6-1.6
		c0.5-0.6,1.1-1,1.9-1.4c0.3-0.2,0.4-0.2,1-0.4c-0.1-0.2-0.3-0.3-0.5-0.3c-0.7,0-1.6,0.5-2.5,1.2c-0.5,0.5-0.9,0.8-1.2,1.3l-1.7-1.6
		c0.4-0.3,1-0.8,1.4-1.4c0.3-0.4,0.8-1.1,1-1.4c0.2-0.3,0.2-0.3,0.2-0.4c-0.2,0-0.3,0-0.4,0c-0.6,0-0.6,0-1.1,0c-0.2,0-0.3,0-0.5,0
		c0,0-0.1,0-0.2,0L213.3,289.4z"/>
	<path class="st0" d="M231.4,296c-0.5,0-0.8,0-1.3,0.1v-0.4c-0.4,0.2-0.5,0.2-0.8,0.3v2.7c0,0.6,0,1.1,0.1,1.6h-2.1
		c0.1-0.4,0.1-1,0.1-1.6v-2c-0.4,0.1-0.5,0.2-0.7,0.2c-0.7,0.2-0.7,0.2-1.1,0.3l-0.4-2c0.6-0.1,1-0.1,2.1-0.4v-2.5h-0.5
		c-0.1,0.8-0.2,1.1-0.4,1.9c-0.6-0.4-0.9-0.5-1.4-0.7c0.3-1.1,0.5-2.4,0.5-3.7c0-0.2,0-0.4,0-0.6l1.5,0.2c0,0.2,0,0.3,0,0.9
		c0,0.1,0,0.2,0,0.3h0.4v-1.4c0-0.4,0-0.7-0.1-1.1h2.1c-0.1,0.3-0.1,0.7-0.1,1.1v1.4c0.4,0,0.7,0,0.9-0.1v1.4c0.5,0,0.9,0,1.4,0h1
		V291h-0.8c-0.6,0-1.1,0-1.4,0.1v-1.9c0.4,0.1,0.8,0.1,1.4,0.1h0.8v-0.3c0-0.4,0-0.7-0.1-0.9h2.1c-0.1,0.3-0.1,0.5-0.1,0.9v0.3h1
		c0.6,0,1.1,0,1.5-0.1v1.9c-0.4,0-0.9-0.1-1.5-0.1h-1v0.8h1.3c0.7,0,1.3,0,1.6-0.1v1.9c-0.4,0-0.9-0.1-1.3-0.1v0.7
		c0.7,0,0.9,0,1.2-0.1v1.9c-0.4-0.1-0.7-0.1-1.2-0.1v2.6c0,1.1-0.6,1.5-2.3,1.5c-0.3,0-0.7,0-1.1,0c-0.1-0.8-0.2-1.2-0.4-1.7
		l-0.6,0.4c-0.5-0.9-0.9-1.4-1.5-2.1l1.2-0.7H231.4z M229.3,294.1c0.3-0.1,0.3-0.1,0.9-0.3v0.4c0.4,0,0.7,0.1,1.4,0.1h2.6v-0.7h-2.6
		c-0.8,0-1.2,0-1.6,0.1v-1.3c-0.4,0-0.4,0-0.7,0V294.1z M232.1,296c0.5,0.5,0.9,1,1.3,1.6l-0.8,0.6c0.6,0.1,0.9,0.1,1.1,0.1
		c0.4,0,0.5-0.1,0.5-0.4v-2H232.1z"/>
	<path class="st0" d="M243.7,293.5h-2.3c-0.6,0-1,0-1.4,0.1v-1.1h-1.5c0.1-0.4,0.1-0.7,0.1-1.1v-1.2c0-0.3,0-0.7-0.1-1
		c0.5,0,1,0.1,1.6,0.1h3.2v-0.3c0-0.3,0-0.6-0.1-0.8h2.2c-0.1,0.3-0.1,0.5-0.1,0.8v0.3h3.3c0.5,0,1,0,1.5-0.1c0,0.4-0.1,0.6-0.1,1
		v1.2c0,0.4,0,0.7,0.1,1.1h-1.4v1.1c-0.4,0-0.7-0.1-1.4-0.1h-1.8v1.2h2.3c0.7,0,0.9,0,1.3-0.1v1.9c-0.4,0-0.7-0.1-1.3-0.1h-2.3v1.6
		c0.5,0,0.9,0.1,1.3,0.1c1.1,0,2.1,0,3.6-0.2c-0.2,0.8-0.3,1.3-0.4,2c-1.4,0-1.9,0.1-2.6,0.1c-2.1,0-3.3-0.1-4.2-0.5
		c-0.8-0.3-1.4-0.8-2-1.5c-0.5,0.9-0.9,1.5-1.6,2.2c-0.5-0.6-0.8-1-1.6-1.5c1.1-1.1,1.7-2,2.1-3.4c0.1-0.5,0.3-1,0.3-1.3l2,0.4
		c-0.1,0.3-0.1,0.5-0.2,0.6c-0.1,0.3-0.2,0.7-0.4,1.2c0.3,0.5,0.4,0.6,0.7,0.8c0.3,0.2,0.5,0.4,0.9,0.6V293.5z M248.3,290.9h-7.7
		v0.8c0.3,0,0.5,0,0.8,0h6c0.4,0,0.6,0,0.9,0V290.9z"/>
	<path class="st0" d="M251.2,289.6c0.3,0,0.5,0,0.8,0c0.4,0,3.8-0.1,5.1-0.1c0-0.8,0-1-0.1-1.4h2.3c-0.1,0.5-0.1,0.6-0.1,1.3
		c2.2,0,3.1,0,3.6-0.1l0,2.1c-0.6-0.1-0.8-0.1-2.3-0.1c-0.7,0-0.8,0-1.3,0v1.6c0,0.1,0,0.1,0,0.3c0.4,0.7,0.5,1.3,0.5,2.2
		c0,1.5-0.8,2.7-2.1,3.6c-0.6,0.4-1.4,0.7-2.6,1.1c-0.4-0.9-0.7-1.4-1.2-2.1c1.3-0.2,2.1-0.4,2.7-0.8c0.5-0.3,0.8-0.6,1-1
		c-0.5,0.5-1,0.6-1.7,0.6c-1.5,0-2.6-1-2.6-2.4c0-1.5,1.2-2.5,3-2.5c0.4,0,0.7,0,1,0.1c0-0.1,0-0.1,0-0.4c0-0.2,0-0.2,0-0.3
		c-2.7,0.1-4.8,0.2-5.8,0.3L251.2,289.6z M255.3,294.5c0,0.4,0.4,0.7,0.9,0.7c0.6,0,1-0.3,1-0.8c0-0.4-0.3-0.7-0.9-0.7
		C255.7,293.7,255.3,294.1,255.3,294.5z"/>
	<path class="st0" d="M265.2,288.7c0.5,0.1,1,0.1,1.9,0.1c1.2,0,2.6-0.1,3.9-0.2c0.6,0,0.7-0.1,1-0.2l1.1,1.6
		c-0.3,0.2-0.3,0.2-2.1,1.7c-0.7,0.6-0.9,0.8-1.8,1.4c0.7-0.2,1.1-0.2,1.8-0.2c1.2,0,2.1,0.3,2.8,0.9c0.6,0.6,0.9,1.3,0.9,2.2
		c0,1.3-0.6,2.4-1.8,3.1c-0.9,0.5-2.1,0.8-3.4,0.8c-2.2,0-3.5-0.9-3.5-2.3c0-1.2,1.1-2.1,2.6-2.1c0.9,0,1.8,0.4,2.3,1
		c0.3,0.3,0.4,0.5,0.6,1c0.7-0.3,1-0.8,1-1.4c0-0.9-0.9-1.5-2.3-1.5c-1.4,0-2.8,0.4-4,1.2c-0.4,0.3-0.8,0.6-1.2,1l-1.2-2
		c1.2-0.6,3.9-2.7,5.6-4.3c-0.7,0.1-1.2,0.1-3,0.2c-0.4,0-0.6,0-0.9,0.1L265.2,288.7z M268.4,297.2c-0.3,0-0.5,0.2-0.5,0.4
		c0,0.4,0.4,0.6,1.1,0.6c0.2,0,0.2,0,0.4,0C269.3,297.5,268.9,297.2,268.4,297.2z"/>
	<path class="st0" d="M275.6,294c0.2-1,0.3-1.8,0.3-2.8c0-0.1,0-0.4,0-0.6l1.1,0.2c0,0.2,0,0.4,0,0.5c0,1.1-0.1,2.2-0.3,3.2
		L275.6,294z M279.1,298.7c0,0.7,0,1.1,0.1,1.5h-2c0.1-0.5,0.1-1.1,0.1-1.8v-9c0-0.7,0-1-0.1-1.4h2c-0.1,0.4-0.1,0.8-0.1,1.4v1.2
		l0.6-0.2c0.3,0.6,0.5,1.1,0.7,1.7c0.2,0,0.4,0,0.8,0h1.7v-0.4h-1.4c-0.5,0-0.7,0-1,0v-1.2c0.4,0,0.5,0,1,0h1.4v-0.3h-1.4
		c-0.8,0-1,0-1.4,0.1v-1.5c0.4,0.1,0.7,0.1,1.5,0.1h1.3c0-0.4,0-0.5-0.1-0.8h2c-0.1,0.3-0.1,0.4-0.1,0.8h1.6c0.8,0,1,0,1.4-0.1v1.5
		c-0.4,0-0.7-0.1-1.4-0.1h-1.6v0.3h1.7c0.5,0,0.7,0,0.9,0v1.2c-0.3,0-0.5,0-1,0h-1.6v0.4h1.9c0.7,0,0.9,0,1.3-0.1v1.5
		c-0.4-0.1-0.7-0.1-1.3-0.1h-5.4c-0.7,0-0.9,0-1.3,0.1v-1l-0.4,0.2c-0.1-0.5-0.2-0.9-0.4-1.2V298.7z M282.1,298.6
		c0,0.6,0,1.1,0.1,1.6h-2c0.1-0.4,0.1-0.8,0.1-1.6v-3.8c0-0.4,0-0.7,0-1.1c0.3,0,0.4,0,0.9,0h5.1c0.6,0,0.8,0,1.1,0
		c0,0.4-0.1,0.7-0.1,1.3v3.6c0,1.2-0.5,1.5-2.1,1.5c-0.2,0-0.5,0-1,0c-0.1-0.6-0.2-1-0.4-1.6c0.4,0.1,0.8,0.1,1.1,0.1
		c0.4,0,0.5,0,0.5-0.3v-0.3h-3.3V298.6z M285.4,295.4V295h-3.3v0.4H285.4z M285.4,296.9v-0.4h-3.3v0.4H285.4z"/>
	<path class="st0" d="M293.4,291.3c0.6,0,0.9,0,1.2-0.1v1.8c-0.2,0-0.3,0-0.6,0c-0.2,0.6-0.2,0.7-0.3,1.1c0.4,0,0.6,0,0.9-0.1v1.8
		c-0.4-0.1-0.7-0.1-1.2-0.1h-0.6v0.7h0.5c0.5,0,0.8,0,1.2-0.1v1.8c-0.4-0.1-0.7-0.1-1.2-0.1h-0.5v0.6c0,0.7,0,1,0.1,1.4h-2
		c0.1-0.5,0.1-0.8,0.1-1.4v-0.6h-0.5c-0.5,0-0.8,0-1.2,0.1v-1.8c0.4,0,0.7,0.1,1.2,0.1h0.5v-0.7h-0.8c-0.5,0-0.9,0-1.2,0.1V294
		c0.3,0,0.5,0.1,1,0.1c-0.1-0.4-0.1-0.7-0.3-1.1c-0.3,0-0.5,0-0.7,0.1v-1.8c0.4,0.1,0.7,0.1,1.2,0.1h0.8v-0.6h-0.5
		c-0.5,0-0.8,0-1.2,0.1v-1.8c0.4,0.1,0.6,0.1,1.2,0.1h0.5v-0.1c0-0.4,0-0.7-0.1-0.9h2c-0.1,0.2-0.1,0.5-0.1,0.9v0.1h0.5
		c0.6,0,0.8,0,1.2-0.1v1.8c-0.4,0-0.7-0.1-1.2-0.1h-0.5v0.6H293.4z M292,294.1c0.1-0.4,0.2-0.6,0.3-1.1h-1c0.1,0.4,0.2,0.7,0.2,1.1
		H292z M300.9,293.4c-0.1,0.2-0.1,0.3-0.2,0.6c-0.2,1.1-0.6,2.2-0.9,3c0.5,0.5,0.8,0.7,1.5,1.1c-0.5,0.8-0.7,1.2-1,2
		c-0.7-0.5-0.9-0.8-1.5-1.4c-0.4,0.6-0.7,0.9-1.3,1.4c-0.3-0.6-0.4-0.9-0.7-1.3c0,0.6,0,0.9,0.1,1.3h-2c0.1-0.5,0.1-1,0.1-1.8v-8.7
		c0-0.4,0-1.1-0.1-1.4c0.4,0,0.7,0.1,1.2,0.1h3.4c0.6,0,1.1,0,1.3-0.1c0,0.5,0,0.5-0.1,1.3c-0.1,1.5-0.2,1.9-0.4,2.2
		c-0.2,0.3-0.6,0.4-1.5,0.4c-0.3,0-0.6,0-1.1-0.1c-0.1-0.5-0.1-1-0.3-1.5c0.5,0.1,0.9,0.1,1.2,0.1c0.3,0,0.3-0.1,0.4-0.6h-2.1v2.4h2
		c0.7,0,1.1,0,1.4-0.1L300.9,293.4z M296.7,298.3c0.4-0.3,0.6-0.6,0.9-1c-0.4-0.8-0.7-1.5-0.9-2.3V298.3z M298.1,294.2
		c0.1,0.5,0.3,0.9,0.5,1.4c0.2-0.5,0.2-0.7,0.4-1.4H298.1z"/>
	<path class="st0" d="M305.5,288.6c-0.1,0.3-0.2,0.7-0.4,1.3c-0.4,1.8-0.6,3.2-0.6,5l1,0.3c-0.4,1.3-0.5,2.3-0.5,4
		c0,0.1,0,0.2,0,0.5l-2.2,0.1c0-0.2,0-0.2-0.1-1c-0.2-1.8-0.3-2.5-0.3-3.9c0-1.8,0.1-3,0.5-5.3c0.1-0.6,0.2-0.9,0.2-1.1
		c0,0,0,0,0-0.1L305.5,288.6z M306,290.7c0.5,0.1,1.4,0.2,2.4,0.2c0.3,0,0.5,0,0.9,0c0-0.8,0-0.8,0-1.7c0-0.3,0-0.5-0.1-0.7l2.2,0
		c-0.1,0.4-0.1,1-0.1,2.3c0.8-0.1,1.6-0.2,2.1-0.4l0.1,2.1c-0.2,0-0.2,0-0.5,0.1c-0.4,0.1-1,0.2-1.6,0.2c0,1,0,1.3,0.1,2.8
		c0.9,0.4,1.4,0.7,2.1,1.2c0.1,0.1,0.1,0.1,0.2,0.2l-0.8,2.2c-0.3-0.4-0.8-0.8-1.5-1.2c0,0.1,0,0.1,0,0.1c0,1.1-1.1,1.8-2.8,1.8
		c-1.9,0-3-0.9-3-2.4c0-0.8,0.4-1.5,1-1.9c0.5-0.4,1.2-0.5,2-0.5c0.3,0,0.5,0,0.8,0.1c0-0.4,0-0.4,0-1c0-0.4,0-0.6,0-1.1
		c-0.3,0-0.5,0-0.7,0c-0.4,0-1.1,0-2.2-0.1c-0.2,0-0.3,0-0.3,0c0,0-0.1,0-0.2,0L306,290.7z M309.5,296.9c-0.3-0.1-0.5-0.2-0.8-0.2
		c-0.6,0-1,0.2-1,0.6c0,0.3,0.3,0.6,0.9,0.6c0.6,0,0.9-0.2,0.9-0.8L309.5,296.9z"/>
	<path class="st0" d="M317.2,295.6c0.1,0,0.4-0.1,0.8-0.2v-5.7c0-0.8,0-1.1-0.1-1.7h2.1c-0.1,0.5-0.1,0.8-0.1,1.7v8.7
		c0.8-0.5,1.6-1.3,2.3-2.1c-0.5-0.8-0.7-1.4-1.1-2.3c-0.4-1.1-0.6-1.8-0.8-2.8l1.8-0.7h-0.5c-0.8,0-1.1,0-1.4,0.1v-2
		c0.5,0.1,0.9,0.1,1.6,0.1h3.5c0.5,0,0.7,0,1.1-0.1c0,0.2,0,0.2-0.1,0.6c-0.1,2-0.4,3.3-0.9,4.8c-0.3,0.8-0.6,1.5-1,2.2
		c0.8,0.9,1.5,1.4,2.6,2.1c-0.5,0.8-0.6,1.2-0.9,2.1c-1.1-0.7-2-1.5-2.8-2.4c-0.8,1-1.6,1.7-2.6,2.4c-0.3-0.7-0.5-0.9-0.9-1.5
		c0,0.8,0,1,0.1,1.5h-2.1c0.1-0.5,0.1-0.8,0.1-1.6v-1.4c-0.6,0.2-1.3,0.5-2.4,0.9c-0.3,0.1-0.4,0.1-0.7,0.2l-0.3-2.1
		c0.3,0,0.4-0.1,0.7-0.1v-5.2c0-0.8,0-1.1-0.1-1.6h2.1c-0.1,0.5-0.1,0.8-0.1,1.6V295.6z M322.3,290.4c0.3,1.6,0.6,2.7,1.1,3.8
		c0.5-1.2,0.7-2.2,0.9-3.8H322.3z"/>
	<path class="st0" d="M335.3,293.9h2.7c0.6,0,1,0,1.3-0.1v1.4c-0.4,0-0.7-0.1-1.3-0.1h-3.3v0.5h3.5c0.8,0,1.2,0,1.5-0.1v1.7
		c-0.5-0.1-0.8-0.1-1.5-0.1h-1.9c0.8,0.5,2.3,0.9,3.7,1.1c-0.5,0.7-0.5,0.8-0.9,1.8c-1-0.2-1.6-0.4-2.4-0.8c-0.9-0.4-1.4-0.7-2-1.2
		c0,0.3,0,0.5,0,0.7v0.5c0,0.4,0,0.6,0.1,0.9h-2.1c0.1-0.3,0.1-0.5,0.1-0.9v-0.5c0-0.3,0-0.5,0-0.7c-0.6,0.6-1.2,1-2.2,1.4
		c-0.6,0.3-1.4,0.5-2.2,0.7c-0.2-0.7-0.5-1.1-0.9-1.7c1.6-0.2,2.7-0.6,3.6-1.2h-1.8c-0.7,0-1.1,0-1.5,0.1v-1.7
		c0.3,0,0.7,0.1,1.5,0.1h3.4v-0.5h-2.3c-0.5,0-0.9,0-1.3,0c0-0.3,0.1-0.7,0.1-1.2V293c0-0.3,0-0.6,0-1c-0.4,0.4-0.5,0.5-1,0.9
		c-0.2-0.8-0.4-1.2-0.8-1.9c0.9-0.7,1.6-1.4,2.2-2.4c0.2-0.3,0.3-0.6,0.4-0.8l2.1,0.3c-0.2,0.4-0.3,0.6-0.6,0.9h1.9
		c0.2-0.4,0.4-0.7,0.6-1.2l2.1,0.2c-0.2,0.4-0.4,0.7-0.6,1h2.3c0.6,0,0.9,0,1.3-0.1v1.5c-0.3,0-0.6,0-1,0h-2.9v0.4h2.2
		c0.8,0,0.9,0,1.3-0.1v1.2c-0.4,0-0.5,0-1.3,0h-2.2v0.4h2.2c0.8,0,0.9,0,1.3-0.1v1.2c-0.3,0-0.5,0-1.3,0h-2.2V293.9z M333.4,290.5
		h-2.2v0.4h2.2V290.5z M333.4,292h-2.2v0.4h2.2V292z M331.2,293.5v0.4h2.2v-0.4H331.2z"/>
	<path class="st0" d="M344.5,288.5c-0.1,0.8-0.3,4.3-0.3,6.5c0,1.3,0.1,1.7,0.3,2c0.2,0.4,0.8,0.6,1.5,0.6c1.3,0,2.4-0.8,2.9-2.2
		c0.3-0.7,0.4-1.4,0.5-2.4c1,0.8,1.4,1,2.2,1.4c-0.5,2-0.9,2.9-1.6,3.7c-1,1.1-2.4,1.7-4.1,1.7c-1.3,0-2.3-0.3-3-1
		c-0.7-0.7-1-1.5-1-3.4c0-0.3,0-0.3,0.1-3c0-1.3,0.1-2.5,0.1-3.1c0-0.4,0-0.6-0.1-1L344.5,288.5z"/>
	<path class="st0" d="M353.2,289.5c0.8,0.2,2.1,0.3,3.7,0.3c0.2,0,0.3,0,0.7,0c0-0.9,0-1.1-0.1-1.4h2.3c-0.1,0.4-0.1,0.4-0.1,1.4
		c1.7-0.1,2.9-0.2,3.7-0.5l0.1,2c-0.4,0-0.5,0-1.1,0.1c-0.9,0.1-1.6,0.2-2.6,0.2c0,0.3,0,0.3,0,0.8c1.5-0.1,2.5-0.2,3.4-0.4l0.1,2
		c-0.3,0-0.3,0-0.8,0.1c-0.6,0.1-1.8,0.2-2.5,0.2c0,0.6,0,0.6,0,1.1c0.7,0.2,1.1,0.3,1.8,0.7c0.7,0.4,0.8,0.4,1.7,1.1
		c0.2,0.1,0.3,0.2,0.5,0.3l-1.2,2.1c-0.4-0.4-0.4-0.4-0.9-0.8c-0.6-0.5-1.2-0.9-1.8-1.2c0,0.6-0.1,1-0.3,1.3c-0.4,0.7-1.4,1-2.8,1
		c-2.1,0-3.3-0.9-3.3-2.4c0-0.9,0.6-1.7,1.6-2.1c0.6-0.2,1.4-0.4,2.3-0.4c0.2,0,0.2,0,0.4,0c0-0.4,0-0.7,0-0.8c-0.3,0-0.8,0-1,0
		c-0.8,0-1.4,0-2.1-0.1c-0.6,0-0.6,0-1,0l0-1.9c0.6,0.1,1.9,0.2,3.2,0.2c0.3,0,0.5,0,0.9,0c0-0.1,0-0.1,0-0.2c0,0,0,0,0-0.3
		c0-0.2,0-0.2,0-0.3c-0.3,0-0.4,0-0.5,0c-0.7,0-0.9,0-2.4-0.1c-0.5,0-0.5,0-1,0c-0.2,0-0.3,0-0.4,0c-0.1,0-0.1,0-0.2,0L353.2,289.5z
		 M356.9,296.9c-0.8,0-1.2,0.2-1.2,0.6c0,0.3,0.4,0.5,1,0.5c0.7,0,1-0.2,1-0.8c0-0.1,0-0.2,0-0.2
		C357.4,296.9,357.2,296.9,356.9,296.9z"/>
	<path class="st0" d="M369.4,288.5c-0.1,0.5-0.1,1.1-0.1,2.4c1.3-0.1,1.9-0.1,3.3-0.1c0-0.1,0-0.1,0-0.1c0-0.8-0.1-1.8-0.1-2.2h2.2
		c0,0.3-0.1,0.7-0.1,1.2v0.9c0,0,0,0.1,0,0.2c1.9-0.1,1.9-0.1,2.4-0.1l0,2.2c-0.4,0-0.7,0-1.1,0c-0.2,0-0.2,0-1.3,0
		c0,1.9-0.1,2.7-0.6,3.2c-0.3,0.4-0.8,0.5-1.6,0.5c-0.6,0-1.2-0.1-2-0.4c0-0.1,0-0.2,0-0.3c0-0.7,0-1.1-0.2-1.8
		c0.7,0.3,1.3,0.5,1.8,0.5c0.4,0,0.5-0.2,0.5-1.7c-1.2,0-2.3,0.1-3.3,0.1c0,2.8,0,3.4,0.1,3.8c0.2,0.7,0.7,0.9,2.3,0.9
		c1.6,0,3.1-0.2,4.1-0.6l0.1,2.4c-0.5,0-0.5,0-1.3,0.1c-1.2,0.1-2.1,0.2-3,0.2c-1.2,0-2.2-0.1-2.7-0.3c-1-0.4-1.4-1-1.6-2.2
		c-0.1-0.5-0.1-1.6-0.1-3.4c0-0.2,0-0.5,0-0.8c-1.2,0.1-1.5,0.1-2.2,0.2l-0.1-2.2c0.2,0,0.3,0,0.4,0c0.2,0,0.8,0,1.9-0.1
		c0-0.2,0-0.3,0-0.4c0-1.1,0-1.5-0.1-2.1H369.4z"/>
	<path class="st0" d="M383.9,288.7c-0.3,0.5-0.5,1-2,4.8c0.5-0.4,1-0.6,1.6-0.6c0.9,0,1.5,0.5,1.7,1.2c0.1,0.5,0.1,0.6,0.2,2.2
		c0,0.9,0.2,1.2,0.6,1.2c0.5,0,0.9-0.3,1.2-1.1c0.3-0.7,0.5-1.5,0.5-2.4c0.8,0.7,1.1,0.9,2.1,1.3c-0.2,1.4-0.6,2.2-1.2,3
		c-0.7,0.9-1.7,1.4-2.9,1.4c-0.8,0-1.5-0.2-1.9-0.7c-0.4-0.5-0.6-1-0.6-1.9c0-0.1,0-0.4,0-0.9c0-0.1,0-0.2,0-0.2
		c0-0.6-0.1-0.8-0.5-0.8c-0.6,0-1.2,0.6-1.7,1.7c-0.4,0.8-0.8,2.1-1,3l-2.4-0.7c0.2-0.5,0.3-0.5,1-2.8c0.1-0.3,0.6-1.6,1.4-3.9
		c1.1-3,1.3-3.8,1.4-4.3L383.9,288.7z"/>
	<path class="st0" d="M395.4,297.8c0,1.4-1.1,2.5-2.5,2.5c-1.4,0-2.5-1.1-2.5-2.5c0-1.4,1.1-2.5,2.5-2.5
		C394.3,295.3,395.4,296.4,395.4,297.8z M391.8,297.8c0,0.6,0.5,1.1,1.1,1.1s1.1-0.5,1.1-1.1s-0.5-1.1-1.1-1.1
		S391.8,297.2,391.8,297.8z"/>
</g>
</svg>
