<?xml version="1.0" encoding="utf-8"?>
<!-- Generator: Adobe Illustrator 24.0.1, SVG Export Plug-In . SVG Version: 6.00 Build 0)  -->
<svg version="1.1" id="レイヤー_1" xmlns="http://www.w3.org/2000/svg" xmlns:xlink="http://www.w3.org/1999/xlink" x="0px"
	 y="0px" viewBox="0 0 536.9 353.9" style="enable-background:new 0 0 536.9 353.9;" xml:space="preserve">
<style type="text/css">
	.st0{fill:#FFFFFF;}
	.st1{fill:none;stroke:#E60000;stroke-width:5.6356;stroke-miterlimit:10;}
	.st2{fill:#E60000;}
	.st3{fill:#FF0000;stroke:#FF0000;stroke-width:0.2278;stroke-miterlimit:10;}
	.st4{fill:none;stroke:#000000;stroke-width:0.9112;stroke-miterlimit:10;}
	.st5{font-family:'HiraKakuStd-W8-83pv-RKSJ-H';}
	.st6{font-size:34px;}
	.st7{clip-path:url(#SVGID_2_);}
	.st8{fill:none;stroke:#707070;stroke-width:0.6134;}
	.st9{fill:#F70909;}
	.st10{fill:none;}
	.st11{font-size:22px;}
	.st12{font-size:14px;}
	.st13{font-size:20px;}
	.st14{fill:none;stroke:#E60000;stroke-miterlimit:10;}
	.st15{fill:none;stroke:#000000;stroke-miterlimit:10;}
	.st16{font-size:24.6363px;}
	.st17{font-size:13px;}
</style>
<g>
	<path class="st0" d="M526.5,294.4c0,5.8-4.7,10.5-10.5,10.5H20.9c-5.8,0-10.5-4.7-10.5-10.5v-277c0-5.8,4.7-10.5,10.5-10.5H516
		c5.8,0,10.5,4.7,10.5,10.5V294.4z"/>
	<path class="st1" d="M526.5,294.4c0,5.8-4.7,10.5-10.5,10.5H20.9c-5.8,0-10.5-4.7-10.5-10.5v-277c0-5.8,4.7-10.5,10.5-10.5H516
		c5.8,0,10.5,4.7,10.5,10.5V294.4z"/>
</g>
<path class="st2" d="M526.5,72.9V15.1c0-4.5-3.7-8.3-8.3-8.3H18.7c-4.5,0-8.3,3.7-8.3,8.3v57.7H526.5z"/>
<g>
	<g>
		<g>
			<path class="st0" d="M74.8,65.2H32.6c-3.2,0-6.1-1.7-7.7-4.4s-1.6-6.1,0-8.8l21.1-36.5c1.6-2.8,4.5-4.4,7.7-4.4
				c3.2,0,6.1,1.7,7.7,4.4L82.5,52c1.6,2.8,1.6,6.1,0,8.8C80.9,63.6,78,65.2,74.8,65.2z M49.3,17.3L28.2,53.9c-0.9,1.6-0.9,3.5,0,5
				c0.9,1.6,2.5,2.5,4.4,2.5h42.2c1.8,0,3.5-0.9,4.4-2.5c0.9-1.6,0.9-3.5,0-5L58.1,17.3c-0.9-1.6-2.5-2.5-4.4-2.5
				C51.9,14.8,50.2,15.8,49.3,17.3L49.3,17.3z"/>
		</g>
	</g>
</g>
<g>
	<path d="M800.5,174.5c11.5-12.8,27.2-16.6,43.8-17.2c3.5-0.1,7.6,0.6,10.4,2.5c7.4,4.6,14.5,9.9,21.2,15.5
		c4.2,3.5,6.5,8.5,5.6,14.2c-0.2,1.5-1.5,3.5-2.7,3.8c-15.7,4.1-31.4,7.8-47.2,11.7c-1,0.3-2.2,0.3-3.2,0
		c-12.1-3.3-23.9-7.1-32.7-16.8c-1.1-1.1-2.9-2.1-4.5-2.1c-10.9-0.2-21.9-0.4-32.7-0.2c-5.7,0.1-11.7,2.4-17.1,1.5
		c-20.4-3.2-40.9-0.8-61.3-1.8c-1.1-0.1-2.3-0.3-3.4-1.2c7-3.4,14.6-0.9,22.1-2.3c-7.8-10-4-19.5,1.6-28.3
		c7.6-11.9,18.7-20.2,30.9-26.9c1.6-0.9,3.7-1.1,5.6-1.7c1.9-5.5,1.8-5.1-3.8-6.6c-11.2-2.9-22.4-6.1-33.5-9.7
		c-3.2-1-6.2-3.2-8.9-5.3c-12-9-13.2-22.3-3-33.4c1.4-1.5,2.6-3.5,2.9-5.4c0.3-1.4-0.8-3.1-1.6-4.5c-0.5-1-1.7-1.6-2.5-2.6
		c-6.3-7.8-4.8-16.6,3.7-22c-5.2-6.6-4.8-13.8-2-21C693.9,0,703-11.6,719.2-16c0.2,0,0.3-0.2,0.5-0.1c7.9,0.7,13.7-3.3,19.9-7.6
		c9.6-6.7,20.6-4.9,29.7,3c1.3,1.1,3.5,1.8,5,1.5c18.7-3.8,33.8,1.8,45.6,16.8c6.9,8.8,12,18.7,14.9,29.4
		c3.3,12.2,3.6,24.1-7.3,33.8c1.5,1.2,2.7,2,3.8,3c5.2,4.5,5.4,10.3,0.3,14.9c-1.4,1.2-2.8,2.6-4.5,3.1c-3,1-3.4,2.8-3.6,5.7
		c-0.3,3.6-1.9,7.2-3,10.8c-0.3,1-1,1.9-1.1,2.8c-1.2,12.1-8.7,17.9-20.3,15.5c-6.6-1.4-12.7,2.7-15.1,8.8c-2,5.2-0.9,8.9,1.7,13.4
		c3.7,6.4,7,13.1,9.9,20C797.6,163.7,798.8,169.1,800.5,174.5z M842.1,200.2c-4-0.5-7.9-0.9-11.9-1.4c0.1,0.5,0.4,1.3,0.8,2.7
		c-5-3.6-9.5-6.8-14-9.9c-4.6-3.1-9.3-6-13.9-9c-0.2,0.2-0.4,0.4-0.5,0.5c1.6,0,3.3,0,4.5,0c3.5-6.5,3.7-14.6,12.2-17.4
		c-1.8-0.3-3.8-0.5-4.8,0.5c-5.2,4.8-10.1,9.8-15,14.9c-2.1,2.1-1.7,4,0.3,6.2c7,7.4,15.9,11.2,25.5,14c5.9,1.7,11.5,1.6,16.9-1.4
		c1.5-0.1,3,0.1,4.4-0.3c8.8-2.2,17.7-4.4,26.4-6.7c5.3-1.4,6-2.6,4.7-7.9c-2.1-8.9-21.4-24.9-31.9-25.6c5.9,4.2,11.4,7.7,16.3,11.7
		c2.6,2.1,5,4.9,6.6,7.8c2.6,5.2,0.8,8.3-4.3,11.2c-3.7,2.2-7.3,4-11.8,3.6c-0.7-0.1-1.5,0.6-2.3,1.1
		C847.6,196.8,844.8,198.5,842.1,200.2z M789.3,46.4c-5.5-0.3-10.8-0.5-15.9-0.9c-19.9-1.6-33.5-12.1-38.1-29.2
		c-0.7-2.9-1.2-5.8-1.8-9.1c-1.5,0.8-2.8,1.5-4.1,2.3c-17.4,11.1-29.2,26.4-33.6,46.7c-1.5,7.3-2.2,14.7-8.2,20.1
		c-0.5,0.5-0.7,1.3-1.1,2c-4.1,8.9-2,16.9,6.6,23.7c8.8,6.8,19.3,10.1,29.9,12.8c6.3,1.5,12.6,2.8,19,4.2c-0.5,3.1-0.9,5.7-1.5,9.1
		c4.6,0.5,8.8,0.9,13.8,1.4c-0.9-3.5-1.6-6.2-2.6-9.6c3,0,5.6-0.2,8.2,0.1c2.5,0.3,3.8-0.2,5.7-2.2c2.6-2.8,6.3-5.3,9.9-6.5
		c6.7-2.2,9.1-0.5,10.9,6.3c6.7-2.5,11.5-6.7,12.4-14.2c0.4-3.2,2-4,4.6-2.9c9.7,4.2,17.9-2.5,15.9-15.6c-0.6-4.4-3.5-6.2-7.5-4.6
		c-3.6,1.5-6.4,0.5-9.2-1.6C792.3,70.5,786.4,60.3,789.3,46.4z M768.1,136.9c2.1,13.8,3.8,27.1,6.2,40.3c1,5.6,5.2,7.8,10.9,7
		c6.9-1.1,11.3-6.7,10.1-13.7c-2.4-13.5-10.5-24.2-16.2-36.2C775.3,135.2,772.1,135.9,768.1,136.9z M721.5,182
		c0.5-4.4,0.3-8.5,1.5-12.1c1.6-4.9-0.8-6.4-4.5-7.5c-2.6-0.7-5.3-1.4-7.9-2c0.1-0.5,0.2-0.8,0.3-1.3c3.2,0.4,6.5,0.7,9.7,1.1
		c2-9.2,4-18.4,6-27.7c-10.9,7.5-21.1,16-26,29.1c-1.6,4.3-1.8,9.6-1.1,14.1c0.4,2.4,3.7,5.6,6.3,6.1
		C710.9,182.6,716.3,182,721.5,182z M736.2,183.1c5.6,0,10.5,0.1,15.5,0c3.5-0.1,5.6-1.9,5.8-5.6c0.3-8,0.5-16,0.9-24.1
		c0.2-3.9-1.8-5.6-5.5-5.6c-3.6,0.1-7.2,0.5-10.8,0.5c-9.7,0.2-10.4,0.9-8.7,10.8c0.1,0.3,0.3,0.5,0.1,0.1c4.6,1.8,8.7,3.5,13.4,5.4
		c-2.2,0.3-3.6,0.5-5.3,0.7c-0.1,2-0.2,3.7-0.3,5.9c3.3,0,6.1,0,9,0c0,0.3,0,0.5,0,0.7c-3.3,0.3-6.6,0.5-9.9,0.7
		c0,0.5,0.1,1,0.1,1.5c1.8,0.3,3.6,0.5,5.5,0.8c0,0.2,0,0.3,0,0.5c-2.1,0.3-4.3,0.5-6.4,0.9c0,0.5,0.1,1,0.1,1.5
		c2.9,0.2,5.8,0.4,9.7,0.5C744.9,181.4,739.2,176.9,736.2,183.1z M760.1,131.4c-0.5,0.2-1,0.4-1.5,0.5c0,2.8,0,5.6,0,8.6
		c0.1,3-1.5,4.5-4.4,4.6c-5.5,0-10.9,0-16.4,0c-3.3,0-5.1-1.6-4.9-5.1c0.2-3.3,0.4-6.6,0.6-9.8c-5.5,10.3-6.7,21.5-8.8,32.8
		c5.9-0.7,6.4-1.2,6.2-5.4c-0.1-1.8-0.5-3.6-0.5-5.4c0-2.9,0.9-4.9,4.5-4.9c6.7-0.1,13.3-0.4,20-0.7c4.4-0.3,6.1,2,6.3,5.9
		c0.1,1.6-0.2,3.3-0.3,5c-0.4,8.3-0.8,16.6-1.2,25c4,0,7.7,0,10.9,0c-0.8-4.8-1.5-9.3-2.2-13.8c-1.9-10.8-3.7-21.4-5.8-32.1
		C762.2,134.7,760.9,133.2,760.1,131.4z M766.4,128.9c0.7,1.2,2.2,5.3,3.6,5.3c2.7-0.1,6.4-1.7,7.9-3.9c2.1-3.1,3-7.2,3.7-11
		c0.4-1.7-0.5-4.6-1.7-5.6c-1.4-0.9-4.2-0.7-5.9,0C768.3,116.2,767.1,121.7,766.4,128.9z M737.7,142.4c5.6,0,10.8,0,16.3,0
		c0-4,0-7.6,0-11.2c-5.5-0.5-10.8-1-16.3-1.5C737.7,134.1,737.7,138.2,737.7,142.4z M725.1,177.7c0.8,1.6,1.9,3.9,2.9,6.2
		c2.3-1.7,5.5-3,6.5-5.4c1.7-3.7,2.1-8.1,2.9-12.3c0.5-2.3-0.9-4-3-3.1c-2.7,1.2-5.6,2.9-7.2,5.2
		C725.7,170.6,725.9,173.9,725.1,177.7z M849.1,190.6c-2-5.6-8.7-8.1-14.9-6c-3.6,1.2-6.7,3.2-6.2,7.7c0.4,3.6,4.6,6.2,9.5,5.8
		c-1.6-1.8-3.2-3.6-5.2-5.7C838.1,190.8,842.6,183.9,849.1,190.6z M820.7,190c5.2-2.8,9.7-5.2,14.3-7.7c-3.9-2.2-7.9-2.6-11.8-0.7
		c-2.1,1-4.1,2.9-5.2,5C817.7,187.2,820.2,189.5,820.7,190z M862.8,187.7c-0.7-9.4-9.6-11.3-20.6-4.5c2.7,0.5,5.6,1.1,8.1,0.5
		C855.3,182.4,860.1,180.9,862.8,187.7z M830,172.5c-2.6-0.9-5.3-1.9-7.9-2.9c-0.7,2.3-2.1,4.6-1.9,6.9c0.2,2.5,2.2,3.8,5.1,2.5
		C821.9,173.2,828.9,176.1,830,172.5z M820.7,168.3c-5.6,0.4-8.4,2.7-8,6.7c0.4,3.7,3,6.1,7,5.9C816,176.4,817.8,172.3,820.7,168.3z
		 M860.2,178.3c2.1,3.3,4.2,6.5,6.1,9.6c3.8-4.1,1.8-10.2-6.1-15.1C862.7,175.6,863.2,177.7,860.2,178.3z M761.4,129.8
		c0.4-0.3,0.8-0.5,1.2-0.7c0.2-2.2,0.3-4.4,0.5-6.9c-2.2-0.3-4.2-0.5-6.2-0.7c-0.4,0.4-0.7,0.8-1.1,1.2
		C757.6,125,759.5,127.3,761.4,129.8z M752.8,184.6c-5.3,0-9.7,0-14.9,0C741.5,187.3,749.3,187.4,752.8,184.6z M811.3,176.3
		c-2.9,6.3-2.6,7.2,3.5,8.4C813.6,181.9,812.7,179.7,811.3,176.3z"/>
	<path d="M719.5,84.6c1.4,0.2,3.1-0.1,4,0.6c9.4,7.1,20.4,7.8,31.5,7.7c2.8,0,5.7,0,10.2,0c-1.5,2.2-2.3,4.3-3.6,4.8
		c-13.3,5.6-29.2,4.1-37.7-7.9c-1.2-1.6-3.1-2.8-4.6-4.2C719.3,85.3,719.4,85,719.5,84.6z M735.2,94.8c6.8,4.6,18.4,4.8,24.2,0
		C750.9,94.8,743.1,94.8,735.2,94.8z"/>
	<path d="M727.3,60.9c-0.3,2.6-0.5,4.1-0.7,6.9c-4.3-0.6-8.7-1-12.9-2c-0.7-0.2-1.4-2.6-1.2-3.9c0.2-1,1.7-2.6,2.6-2.5
		C719.1,59.6,723,60.3,727.3,60.9z"/>
	<path d="M778.5,72c-0.2,2.5-0.3,4.1-0.4,6.8c-4.4-0.5-8.8-0.9-13.1-1.7c-0.7-0.2-1.8-2.6-1.5-3.4c0.5-1.4,2.1-3.3,3.2-3.2
		C770.7,70.6,774.4,71.4,778.5,72z"/>
	<path d="M734.4,73.9c1.9,2.3,3.4,3.9,4.7,5.6c-3.6,1.5-8.5-1.5-7.9-5.2c0.1-1,2.2-2.5,3.4-2.5c3.8,0.1,6.1-1,5.9-5.3
		c0-0.9,1.5-1.8,2.4-2.7c0.5,1,1.5,2,1.5,3.1C744.4,72.4,743.6,72.9,734.4,73.9z"/>
	<path d="M773.4,56.3c-5.1,1.5-11.8-0.5-13.8-4.2c-0.9-1.6-0.8-4-0.5-6c0.1-0.7,2.2-1.2,3.7-2C762,51.7,762.4,52.1,773.4,56.3z"/>
	<path d="M725.3,44.4c2.8,0.2,5.8,0.9,8.6,0.3c2.4-0.5,4.5-2.6,7.4-4.6C740,46.9,732.2,48.7,725.3,44.4z"/>
</g>
<g>
	<path d="M-264.2,455.7L-264.2,455.7c-0.2,0-0.2,0-0.3,0c-2.9,2.6-7.7,4.5-8,4.5c-0.5,0-1-0.6-1-1.2c0-0.4,0.2-0.6,0.5-0.8
		c3.3-1.2,5.6-2.6,7.3-4c0.4-0.4,0.8-0.5,1.4-0.5c0.5,0,1,0.2,1.4,0.5c1.7,1.5,4.2,2.7,7.3,4c0.5,0.2,0.6,0.5,0.6,0.8
		c0,0.5-0.5,1.1-1,1.1C-256.7,460.1-260.3,458.9-264.2,455.7z M-271.9,464.4c-0.5,0-0.8-0.5-0.8-1s0.3-1,0.8-1h14.8
		c0.8,0,1.3,0.5,1.3,1.3c0,1.1-1.9,7.7-12.9,8.4h-0.1c-0.6,0-1.1-0.5-1.1-1.2c0-0.5,0.3-0.9,0.9-1c4.9-0.4,9.2-2.3,10.6-5.3v-0.1
		c0-0.1,0-0.2-0.1-0.2L-271.9,464.4L-271.9,464.4z M-268.1,460.5c-0.5,0-0.8-0.5-0.8-1c0-0.5,0.3-1,0.8-1h7.6c0.5,0,0.8,0.5,0.8,1
		c0,0.5-0.3,1-0.8,1H-268.1z"/>
	<path d="M-249,471.6c-0.8-0.9-1.6-1.7-2.9-2.7c-0.2-0.2-0.3-0.4-0.3-0.6c0-0.5,0.5-1,1-1c0.2,0,0.4,0.1,0.5,0.2
		c1.3,1,2.2,1.8,3.1,2.8c0.2,0.2,0.3,0.5,0.3,0.6c0,0.5-0.5,1.1-1,1.1C-248.5,472-248.8,471.9-249,471.6z"/>
	<path d="M-233.6,467.9c0-0.4,0-0.6,0-0.9c-4.1,3.7-8.1,4.3-8.3,4.3c-0.5,0-0.9-0.5-0.9-1c0-0.4,0.2-0.7,0.6-0.9
		c2.5-0.5,5.8-1.9,8.2-4.5c-0.1-0.4-0.2-0.7-0.4-1.1c-3.6,3.1-7.1,3.6-7.2,3.6c-0.5,0-0.9-0.5-0.9-1c0-0.4,0.2-0.8,0.7-0.9
		c2.3-0.5,4.6-1.4,6.7-3.2c-0.2-0.3-0.5-0.5-0.7-0.8c-2.8,1.6-5.2,2.3-5.5,2.3c-0.5,0-0.9-0.5-0.9-1c0-0.4,0.2-0.8,0.7-0.9
		c2-0.4,3.8-1,5.6-2.1h-3.9c-0.5,0-0.8-0.5-0.8-0.9c0-0.5,0.3-0.9,0.8-0.9h11.9c0.5,0,0.8,0.5,0.8,0.9c0,0.5-0.3,0.9-0.8,0.9h-2.6
		c0.1,1.3,0.5,2.6,0.8,4c1-0.5,2.1-1.5,2.7-2.5c0.2-0.2,0.4-0.4,0.5-0.4c0.5,0,0.9,0.5,0.9,1.1c0,0.2,0,0.4-0.2,0.5
		c-1.1,1.2-2,1.9-3.5,2.8c0.9,1.9,2,2.8,3.9,4c0.3,0.2,0.5,0.5,0.5,0.7c0,0.5-0.5,1.1-1,1.1c-0.1,0-0.3,0-0.4-0.1
		c-4.5-2.8-5.6-7.2-6.1-11.4h-1.2c-0.3,0.4-0.6,0.6-1,0.9c1.1,1.3,2.5,3.7,2.5,7.4c0,2.3-0.5,4-2.6,4c-0.5,0-1.2-0.1-1.9-0.3
		c-0.4-0.1-0.5-0.5-0.5-0.9c0-0.5,0.2-0.9,0.7-0.9c0.1,0,0.2,0,0.2,0c0.5,0.2,0.9,0.2,1.3,0.2c1.2,0,1.1-0.8,1.2-2.1v-0.1H-233.6z
		 M-225.1,457.9c0,0.5-0.5,0.7-0.9,0.7c-0.5,0-0.9-0.3-0.9-0.7v-0.8c0-0.2-0.2-0.3-0.5-0.3h-12.9c-0.2,0-0.3,0.1-0.3,0.3v0.8
		c0,0.5-0.5,0.7-0.9,0.7s-0.9-0.3-0.9-0.7v-1.5c0-1,0.5-1.5,1.5-1.5h6v-0.5c0-0.5,0.5-0.8,1.2-0.8c0.6,0,1.2,0.3,1.2,0.8v0.5h6.1
		c1,0,1.5,0.5,1.5,1.5L-225.1,457.9L-225.1,457.9z"/>
	<path d="M-219,454.4c0.5,0,1.2,0.4,1.2,0.9c0,0.1,0,0.2,0,0.2c-0.6,2.2-1.2,4.9-1.2,8.6c0,2.1,0.2,3.8,0.7,5.7c0,0.1,0,0.3,0,0.4
		c0,0.7-0.5,1.2-1.2,1.2c-0.5,0-1-0.3-1.2-1c-0.4-1.6-0.5-3.7-0.5-5.9c0-3.8,0.5-7,1.2-9.4C-219.9,454.6-219.5,454.4-219,454.4z
		 M-205.8,468.3c0.7,0,1,0.5,1,1c0,0.5-0.4,1.1-1,1.2c-1.3,0.1-2.4,0.2-3.5,0.2c-5.7,0-7.4-1.7-7.4-4.3c0-0.5,0.1-1.2,0.3-1.7
		c0.2-0.5,0.5-0.6,0.9-0.6c0.5,0,1.1,0.4,1.1,0.9c0,0.1,0,0.2,0,0.2c-0.1,0.4-0.2,0.7-0.2,1c0,1.5,1.1,2.3,4.8,2.3
		c1,0,2.3-0.1,3.6-0.2L-205.8,468.3L-205.8,468.3z M-206.2,458.1c-1.3-0.1-2.6-0.2-3.8-0.2c-1.6,0-3.3,0.1-4.8,0.3h-0.1
		c-0.5,0-0.9-0.5-0.9-1.1c0-0.5,0.3-0.9,0.8-1c1.6-0.2,3.4-0.3,5.1-0.3c1.3,0,2.6,0,3.8,0.2c0.6,0,0.9,0.5,0.9,1
		C-205.2,457.6-205.5,458.1-206.2,458.1L-206.2,458.1z"/>
	<path d="M-191.7,472c-0.7,0-1.2-0.5-1.2-1.1c0-0.5,0.3-0.8,0.9-0.9c4-0.4,5.6-2.1,5.6-4.3c0-0.4,0-2.5-2.6-3.5
		c-2.7,5.6-6.6,8.8-9.7,8.8c-2.4,0-3.3-1.2-3.3-3.4c0-3.1,2.2-5.7,5.6-7c0-0.9,0-1.8,0-2.7c-1.5,0-3,0-4.4-0.1c-0.5,0-0.8-0.5-0.8-1
		c0-0.5,0.3-0.9,0.8-0.9h0.1c1.4,0.1,2.9,0.1,4.5,0.1c0-0.5,0.1-1.1,0.1-1.5c0-0.5,0.5-0.7,1-0.7c0.5,0,1.1,0.3,1.1,0.8v0.1
		c0,0.5-0.1,0.9-0.1,1.4c2.8,0,5.7-0.2,8-0.4h0.1c0.5,0,0.8,0.5,0.8,1c0,0.5-0.3,0.9-0.7,0.9c-2.3,0.2-5.3,0.3-8.3,0.4
		c0,0.7-0.1,1.5-0.1,2.2c0.8-0.2,1.6-0.2,2.6-0.2c4.2,0,7.6,1.9,7.6,5.7c0,3.8-3.2,5.9-7.3,6.3H-191.7z M-196.3,462.8
		c-2.3,1.1-3.6,3-3.6,4.9c0,1.1,0.4,1.5,1.4,1.5c0.8,0,1.7-0.4,2.6-1C-196.2,466.7-196.2,464.8-196.3,462.8z M-191.9,461.8
		c-0.8,0-1.7,0.1-2.5,0.3c0,1.6,0.1,3.2,0.3,4.6c1.3-1.3,2.5-3,3.4-4.8C-191.1,461.8-191.5,461.8-191.9,461.8z"/>
	<path d="M-171.3,462.1c-2.9,0.2-5.4,0.7-8.6,3.2c-0.2,0.2-0.5,0.2-0.6,0.2c-0.6,0-1.2-0.6-1.2-1.3c0-0.4,0.2-0.7,0.5-0.9
		c3-1.9,5.6-3.8,9.7-6.9c0.1-0.1,0.1-0.1,0.1-0.1s0,0-0.1,0h-0.1c-2.5,0.3-4.6,0.4-6.4,0.4c-0.4,0-0.6,0-1,0c-0.6,0-1-0.5-1-1
		c0-0.5,0.4-1,1-1l0,0c0.5,0,1.2,0,1.7,0c2.4,0,5-0.2,7.5-0.4h0.1c0.7,0,1.3,0.7,1.3,1.5c0,0.4-0.1,0.7-0.4,0.9
		c-1.9,1.5-3.9,3-5.9,4.3c1.4-0.5,2.4-0.5,3.4-0.6h0.5c3.2,0,6.2,1.6,6.2,5.1c0,5-5.1,6.6-9.2,6.6c-2.7,0-5.6-0.5-5.6-3.5v-0.1
		c0-2,2.1-3,3.8-3c2.8,0,4.7,1.7,5.7,4c1.2-0.5,3.4-1.5,3.4-3.8c0-2.1-1.5-3.5-4.2-3.5C-170.7,462.1-171.3,462.1-171.3,462.1z
		 M-175.7,467.1c-1.1,0-1.8,0.5-1.8,1.3c0,1.1,1,1.5,3.6,1.5c0.6,0,1.2,0,1.7-0.1C-172.9,468-174,467.1-175.7,467.1z"/>
	<path d="M-271.6,491l-0.4,0.5c-0.2,0.2-0.4,0.3-0.5,0.3c-0.5,0-1-0.7-1-1.4c0-0.2,0.1-0.4,0.2-0.5c1.2-1.4,2.2-3.8,2.7-6.4
		c0.1-0.4,0.5-0.6,0.9-0.6c0.5,0,1,0.3,1,0.8c0,0.5-0.5,2.1-1,3.5v13.1c0,0.5-0.5,0.8-0.9,0.8s-1-0.3-1-0.8
		C-271.6,500.3-271.6,491-271.6,491z M-266.6,489.1c-0.2,0-0.2,0.1-0.2,0.3v3.8c0,2-0.1,4.6-0.6,6.7c-0.1,0.5-0.5,0.6-0.7,0.6
		c-0.5,0-1.2-0.5-1.2-1.1c0-0.1,0-0.2,0-0.3c0.5-1.7,0.5-4.2,0.5-6.2v-3.7c0-1.5,0.6-1.9,1.9-1.9h1.5c-0.4-0.1-0.7-0.4-0.7-0.7v-0.5
		h-2c-0.5,0-0.8-0.5-0.8-0.9c0-0.5,0.3-0.9,0.8-0.9h2v-0.5c0-0.5,0.5-0.8,1-0.8c0.5,0,1,0.3,1,0.8v0.5h3.6v-0.5c0-0.5,0.5-0.8,1-0.8
		c0.5,0,1,0.3,1,0.8v0.5h2c0.5,0,0.8,0.5,0.8,0.9c0,0.5-0.3,0.9-0.8,0.9h-2v0.5c0,0.4-0.4,0.6-0.7,0.7h3.2c0.5,0,0.8,0.5,0.8,0.8
		c0,0.5-0.3,0.9-0.8,0.9H-266.6z M-257.6,497.3h-2.5v2.6c0,0.5-0.5,0.7-0.9,0.7c-0.5,0-0.9-0.3-0.9-0.7v-2.6h-2.4v3.3
		c0,0.5-0.5,0.7-0.9,0.7c-0.5,0-0.9-0.2-0.9-0.7v-9.4c0-0.8,0.4-1.2,1.2-1.2h7.9c0.8,0,1.2,0.4,1.2,1.2v7.8c0,1.3-0.2,2.1-1.9,2.1
		c-1.5,0-2.1-0.3-2.1-1c0-0.5,0.3-0.9,0.8-0.9c0.1,0,0.2,0,0.2,0c0.3,0.1,0.5,0.1,0.6,0.1c0.4,0,0.5-0.2,0.5-0.5L-257.6,497.3
		L-257.6,497.3z M-260.4,486.1h-3.6v0.5c0,0.5-0.3,0.7-0.7,0.8h5c-0.4-0.1-0.7-0.4-0.7-0.7L-260.4,486.1L-260.4,486.1z
		 M-261.9,491.7h-2.1c-0.2,0-0.3,0.1-0.3,0.3v1h2.4V491.7z M-261.9,494.5h-2.4v1.4h2.4V494.5z M-257.6,492c0-0.2-0.1-0.3-0.3-0.3
		h-2.3v1.2h2.5L-257.6,492L-257.6,492z M-257.6,494.5h-2.5v1.4h2.5V494.5z"/>
	<path d="M-243.4,488.3c-0.7,0.5-1.7,1.3-2.6,1.8c0.5,0.3,1.1,0.5,1.4,0.7c1.2-0.6,2.8-1.7,3.7-2.4c0.1-0.1,0.3-0.2,0.5-0.2
		c0.5,0,1,0.5,1,0.9c0,0.2-0.1,0.4-0.4,0.5c-0.7,0.5-1.8,1-2.7,1.4c1.6-0.1,3.1-0.1,4.1-0.2c-0.2-0.2-0.4-0.4-0.5-0.5
		c-0.2-0.2-0.3-0.4-0.3-0.5c0-0.5,0.5-0.8,1-0.8c0.2,0,0.3,0,0.5,0.2c1.1,0.9,2.1,2,2.7,2.8c0.2,0.2,0.2,0.4,0.2,0.5
		c0,0.5-0.5,1-0.9,1c-0.2,0-0.5-0.1-0.6-0.4s-0.5-0.5-0.7-0.8c-1.9,0.2-8.5,0.5-14.2,0.5h-1c-0.5,0-0.9-0.5-0.9-1
		c0-0.4,0.3-0.7,0.7-0.7l0,0c1.9,0.1,3.9,0.1,5.6,0.1c-1.2-0.5-2.2-0.9-3.3-1.3c-0.4-0.1-0.5-0.4-0.5-0.6c0-0.5,0.5-1,1-1
		c0.1,0,0.2,0,2,0.9c0.5-0.3,1-0.6,1.5-1h-6.1c-0.5,0-0.8-0.5-0.8-0.8c0-0.5,0.3-0.8,0.8-0.8h7.1v-0.2c0-0.5,0.5-0.8,1-0.8
		c0.5,0,1,0.3,1,0.8v0.2h7.1c0.5,0,0.8,0.4,0.8,0.8c0,0.4-0.3,0.8-0.8,0.8H-243.4z M-239.1,485.6v0.2c0,0.5-0.5,0.8-0.9,0.8
		c-0.5,0-0.9-0.3-0.9-0.8v-0.2h-6v0.2c0,0.5-0.5,0.8-0.9,0.8c-0.5,0-0.9-0.3-0.9-0.8v-0.2h-3.5c-0.5,0-0.8-0.5-0.8-0.8
		c0-0.4,0.3-0.8,0.8-0.8h3.5v-0.2c0-0.5,0.5-0.8,0.9-0.8c0.5,0,0.9,0.3,0.9,0.8v0.2h6v-0.2c0-0.5,0.5-0.8,0.9-0.8
		c0.5,0,0.9,0.3,0.9,0.8v0.2h3.6c0.5,0,0.8,0.5,0.8,0.8c0,0.5-0.3,0.8-0.8,0.8H-239.1z M-250.6,500.8c-1,0-1.5-0.5-1.5-1.5v-4.5
		c0-1,0.5-1.5,1.5-1.5h13.3c1,0,1.5,0.5,1.5,1.5v4.5c0,1-0.5,1.5-1.5,1.5H-250.6z M-244.9,495.2h-5c-0.2,0-0.3,0.1-0.3,0.3v0.8h5.4
		L-244.9,495.2L-244.9,495.2z M-244.9,497.8h-5.4v0.9c0,0.2,0.1,0.3,0.3,0.3h5L-244.9,497.8L-244.9,497.8z M-237.7,495.5
		c0-0.2-0.1-0.3-0.3-0.3h-5.1v1.1h5.4V495.5z M-237.7,497.8h-5.4v1.3h5.1c0.2,0,0.3-0.1,0.3-0.3V497.8z"/>
	<path d="M-230.9,500.7c-1,0-1.5-0.5-1.5-1.5v-6c0-1,0.5-1.5,1.5-1.5h5c1,0,1.5,0.5,1.5,1.5v5.9c0,1-0.5,1.5-1.5,1.5H-230.9z
		 M-229.5,490.5c-1,0-1.5-0.5-1.5-1.5v-4c0-1,0.5-1.5,1.5-1.5h11.6c1,0,1.5,0.5,1.5,1.5v4c0,1-0.5,1.5-1.5,1.5H-229.5z M-226.2,494
		c0-0.2-0.1-0.3-0.3-0.3h-3.6c-0.2,0-0.3,0.1-0.3,0.3v4.5c0,0.2,0.1,0.3,0.3,0.3h3.6c0.2,0,0.3-0.1,0.3-0.3V494z M-218.3,485.7
		c0-0.2-0.1-0.3-0.3-0.3h-10c-0.2,0-0.3,0.1-0.3,0.3v2.5c0,0.2,0.1,0.3,0.3,0.3h10c0.2,0,0.3-0.1,0.3-0.3V485.7z M-221.6,500.7
		c-1,0-1.5-0.5-1.5-1.5v-5.8c0-1,0.5-1.5,1.5-1.5h5.4c1,0,1.5,0.5,1.5,1.5v6c0,1-0.5,1.5-1.5,1.5L-221.6,500.7L-221.6,500.7z
		 M-216.7,494c0-0.2-0.1-0.3-0.3-0.3h-3.9c-0.2,0-0.3,0.1-0.3,0.3v4.5c0,0.2,0.1,0.3,0.3,0.3h3.9c0.2,0,0.3-0.1,0.3-0.3V494z"/>
	<path d="M-193.7,492.6c-0.1,4.6-3,7.6-7.6,8.3c-0.1,0-0.2,0-0.3,0c-0.8,0-1.3-0.6-1.3-1.2c0-0.5,0.3-0.9,0.9-1c4.3-0.7,6-3.3,6.1-6
		v-0.2c0-3.2-1.9-5.3-4.8-5.8c-1.1,5.7-3.3,10.1-6.6,12.4c-0.5,0.4-1.2,0.6-1.8,0.6c-1.1,0-3.6-0.9-3.6-5.3c0-5.7,4.8-9.7,10.8-9.7
		c4.5,0,8.2,2.8,8.2,7.7C-193.7,492.4-193.7,492.6-193.7,492.6z M-210.6,494.6c0,0.1,0,0.3,0,0.4c0.1,1.4,0.7,2.5,1.6,2.5
		c1.5,0,4.9-4.2,6.3-10.8C-207.5,487-210.6,490.5-210.6,494.6z"/>
	<path class="st3" d="M-173.3,486.8c-0.1,3.6-0.6,6.9-2.2,9.6c0.7,1.1,1.6,2.2,2.7,3c0.4,0.3,0.5,0.5,0.5,0.8c0,0.5-0.5,1.1-1.1,1.1
		c-0.2,0-0.5-0.1-0.6-0.3c-1-0.9-1.8-1.9-2.6-3c-1.5,1.8-3.8,3.3-4.4,3.3c-0.4,0-0.7-0.3-0.9-0.5c-0.1,0.1-0.3,0.1-0.4,0.1
		s-0.2,0-0.4-0.1c-0.8-0.5-1.8-1.1-2.8-1.5c-1.3,1-3,1.7-5.3,2.2h-0.1c-0.5,0-1.1-0.7-1.1-1.3c0-0.4,0.3-0.7,0.8-0.8
		c1.5-0.2,2.6-0.5,3.6-1.1c-1-0.5-1.9-0.8-2.7-1.2c-0.5-0.2-0.6-0.5-0.6-1c0-0.3,0.1-0.5,0.3-0.8c0.4-0.5,0.6-1,0.9-1.5h-1.4
		c-0.5,0-0.9-0.5-0.9-1c0-0.5,0.3-1,0.9-1h2.5c0.2-0.5,0.4-0.9,0.5-1.4c0.2-0.4,0.5-0.5,0.9-0.5v-2.6c-0.7,1.5-1.8,2.7-3,3.6
		c-0.2,0.1-0.4,0.2-0.5,0.2c-0.5,0-1.1-0.6-1.1-1.2c0-0.3,0.1-0.5,0.4-0.6c1-0.5,1.9-1.4,2.6-2.2h-2.3c-0.5,0-0.7-0.5-0.7-0.9
		c0-0.5,0.3-0.9,0.7-0.9h1.6c-0.4-0.5-0.8-1.2-1.4-1.6c-0.2-0.2-0.3-0.4-0.3-0.5c0-0.5,0.5-0.9,1-0.9c0.2,0,0.4,0.1,0.5,0.3
		c1.4,1.4,1.5,1.9,1.5,2.1c0,0.4-0.3,0.7-0.6,0.8h1.5v-2.7c0-0.5,0.5-0.8,1-0.8s1,0.3,1,0.8v2.7h1.6c-0.5-0.1-0.8-0.5-0.8-0.9
		c0-0.2,0.1-0.4,0.2-0.5c0.5-0.5,0.9-0.9,1.2-1.5c0.2-0.3,0.4-0.4,0.6-0.4c0.5,0,1,0.5,1,0.9c0,0.2,0,0.3-0.1,0.5
		c-0.5,0.6-1,1.4-1.5,1.8h1.4c0.5,0,0.8,0.5,0.8,0.9c0,0.5-0.3,0.9-0.8,0.9h-2.2c0.6,0.5,1.3,0.9,1.9,1.5c0.2,0.2,0.3,0.4,0.3,0.5
		c0,0.5-0.5,1.2-1,1.2c-0.2,0-0.5-0.1-0.5-0.4c-0.5-0.9-1.2-1.6-2-2.5v2.6c0,0.5-0.5,0.9-0.9,0.9c-0.1,0.3-0.2,0.6-0.3,0.9h5.3
		c0.5,0,0.8,0.5,0.8,1c0,0.5-0.3,1-0.8,1h-0.8c-0.5,1.5-1.1,2.8-1.9,3.9c2.2,1,2.5,1.2,2.6,1.5c1.5-0.9,2.7-1.9,3.6-3.1
		c-0.8-1.7-1.4-3.7-1.7-6c-0.6,1.1-0.8,1.5-1.4,1.5s-1.1-0.5-1.1-1.1c0-0.2,0-0.4,0.2-0.5c1.5-2.2,2.5-5.2,2.7-7.6
		c0.1-0.5,0.5-0.7,0.9-0.7c0.5,0,1.1,0.4,1.1,0.9c0,0.1,0,0.1,0,0.2c-0.1,0.6-0.3,1.4-0.5,2.1h4.4c0.6,0,1,0.5,1,1.1
		c0,0.5-0.3,0.9-0.8,0.9L-173.3,486.8L-173.3,486.8z M-187.4,493.7c-0.3,0.5-0.6,1.1-1.1,1.6c0,0.1-0.1,0.1-0.1,0.2s0.1,0.2,0.2,0.2
		c0.7,0.4,1.6,0.7,2.6,1.1c0.8-0.8,1.3-1.9,1.7-3.1C-184.1,493.7-187.4,493.7-187.4,493.7z M-178.1,486.8c0.1,2.9,0.6,5.3,1.5,7.3
		c0.9-2,1.2-4.5,1.4-7.3H-178.1z"/>
	<path class="st3" d="M-157.9,496.3v-2.7c-3.4,1.5-4.6,2.9-4.6,4c0,1.2,1.3,1.5,5.3,1.5c1.7,0,3-0.1,4.5-0.4c0.1,0,0.1,0,0.2,0
		c0.5,0,0.9,0.5,0.9,1c0,0.5-0.4,1.1-1,1.2c-1.6,0.2-2.7,0.3-4.6,0.3c-5.6,0-7.5-1.1-7.5-3.4c0-2.6,2.6-4.6,6.7-6.4
		c-0.2-1.1-0.9-1.5-1.7-1.5c-2.7,0-5.4,2.4-7.6,5.4c-0.3,0.4-0.6,0.5-1,0.5c-0.6,0-1.3-0.5-1.3-1.2c0-0.3,0.1-0.5,0.3-0.7
		c2.4-2.7,3.9-5.1,5-7.7c-1.3,0-2.6,0-3.7,0c-0.6,0-0.9-0.5-0.9-1.1c0-0.5,0.3-1,0.8-1h0.1c1.1,0,2.2,0,3.3,0h1.2
		c0.2-0.5,0.4-1.2,0.5-1.8c0.1-0.5,0.5-0.6,1-0.6c0.5,0,1.2,0.4,1.2,1c0,0.3-0.2,0.7-0.4,1.5c2.5-0.1,4.9-0.3,7.3-0.5h0.1
		c0.6,0,1,0.5,1,1.1c0,0.5-0.3,0.9-0.8,1c-1.7,0.2-5,0.4-8.3,0.5c-0.5,1-0.9,2.1-1.5,3.1c1.1-0.8,2.6-1.3,3.6-1.3
		c1.9,0,3.3,0.8,3.8,2.7c1.1-0.5,2.4-0.8,3.6-1.2c0.1,0,0.3-0.1,0.4-0.1c0.6,0,1,0.5,1,1.1c0,0.5-0.2,0.8-0.6,0.9
		c-1.6,0.5-3,0.9-4.2,1.3v3.6c0,0.6-0.5,0.9-1.1,0.9S-157.9,496.9-157.9,496.3L-157.9,496.3z"/>
	<path class="st3" d="M-270.1,513.9c-0.7,0-1.1-0.5-1.1-1.1s0.4-1.1,1.1-1.1h6.2c1.2,0,1.7,0.5,1.8,1.3c0.6,5.5,3.3,11.3,8,15.3
		c0.3,0.3,0.4,0.5,0.4,0.8c0,0.6-0.5,1.4-1.2,1.4c-0.3,0-0.5-0.1-0.7-0.3c-3.7-3.3-6.4-7.8-7.7-12.8c-1.3,5-3.6,9.8-8.2,13.1
		c-0.2,0.1-0.4,0.2-0.5,0.2c-0.5,0-1.2-0.6-1.2-1.3c0-0.4,0.2-0.6,0.5-0.9c4.4-3.1,6.7-7.8,8.1-14.4h-5.5V513.9z"/>
	<path class="st3" d="M-232.6,516.8c0,10.1-0.9,13.7-4.9,13.7c-0.9,0-2-0.2-3.3-0.5c-0.6-0.2-0.9-0.7-0.9-1.3c0-0.6,0.4-1.3,1.1-1.3
		c0.1,0,0.3,0,0.5,0.1c0.9,0.3,1.7,0.5,2.4,0.5c2.2,0,2.8-2.3,2.8-9.9v-1.4c0-0.5-0.4-0.6-0.6-0.6h-6.9c-0.2,6.2-1.5,10.9-7,14.3
		c-0.2,0.1-0.5,0.2-0.6,0.2c-0.7,0-1.3-0.7-1.3-1.4c0-0.4,0.1-0.7,0.5-0.9c4.6-2.9,5.8-6.5,6.1-12.2h-5.2c-0.5,0-0.9-0.5-0.9-1.1
		s0.3-1.1,0.9-1.1h5.3v-2.1c0-0.6,0.5-0.9,1.2-0.9c0.5,0,1.2,0.3,1.2,0.9v2.1h7.9c1.1,0,2,0.8,2,1.9L-232.6,516.8L-232.6,516.8z"/>
	<path class="st3" d="M-210.6,515.3c-1.7,0-3.5-0.1-5.2-0.1c0,1.6,0,3.2,0,4.4c0.3,0.6,0.4,1.5,0.4,2.3c0,4.2-1.5,7.5-7.5,8.5
		c-0.1,0-0.2,0-0.2,0c-0.7,0-1.3-0.6-1.3-1.3c0-0.5,0.3-0.9,0.9-1c3.6-0.6,5.1-1.9,5.7-3.7c-0.8,0.6-2,1-3.4,1
		c-3.6,0-5.5-1.7-5.5-4.4c0-2.6,2.1-4.5,5.6-4.5c1.2,0,2.3,0.3,3.1,0.7c0-0.6,0-1.4-0.1-2.1h-1.4c-3.2,0-6.4,0.1-9.7,0.2l0,0
		c-0.5,0-0.9-0.5-0.9-1.1s0.3-1,0.8-1c3.7,0,7.5-0.1,11-0.1c0-0.5,0-0.9-0.1-1.3v-0.1c0-0.5,0.5-0.9,1.1-0.9c0.5,0,1.1,0.3,1.1,0.9
		c0,0.5,0,0.9,0,1.3c1.7,0,3.6,0,5.3,0c0.5,0,0.9,0.5,0.9,1C-209.8,514.5-210,515.3-210.6,515.3L-210.6,515.3z M-220.9,518.6
		c-2.2,0-3.4,1-3.4,2.6c0,1.2,1.1,2.3,3.2,2.3c2,0,3.6-0.7,3.6-2.6C-217.7,519.6-218.8,518.6-220.9,518.6z"/>
	<path class="st3" d="M-197.8,519.8c-3.1,0.2-5.7,0.8-9.2,3.4c-0.3,0.2-0.5,0.3-0.7,0.3c-0.7,0-1.3-0.6-1.3-1.4c0-0.4,0.2-0.7,0.5-1
		c3.3-2.1,6.1-4.1,10.4-7.5c0.1-0.1,0.1-0.1,0.1-0.1s0,0-0.1,0h-0.1c-2.6,0.3-4.9,0.5-6.9,0.5c-0.4,0-0.7,0-1,0c-0.7,0-1-0.5-1-1.1
		s0.4-1.1,1.1-1.1l0,0c0.6,0,1.2,0,1.8,0c2.6,0,5.4-0.2,8.1-0.4h0.1c0.8,0,1.4,0.8,1.4,1.5c0,0.4-0.1,0.7-0.5,1
		c-2,1.6-4.2,3.2-6.4,4.6c1.5-0.5,2.6-0.6,3.6-0.7h0.5c3.5,0,6.7,1.7,6.7,5.5c0,5.4-5.5,7-9.9,7c-2.9,0-6-0.5-6-3.7v-0.1
		c0-2.2,2.3-3.3,4.1-3.3c3.1,0,5,1.9,6.1,4.4c1.2-0.5,3.6-1.6,3.6-4.1c0-2.3-1.6-3.6-4.6-3.6L-197.8,519.8L-197.8,519.8z
		 M-202.5,525.3c-1.1,0-1.9,0.5-1.9,1.4c0,1.1,1,1.6,3.9,1.6c0.6,0,1.3,0,1.9-0.1C-199.5,526.2-200.8,525.3-202.5,525.3z"/>
	<path class="st3" d="M-178.1,513.9c0.6,0,1,0.5,1,1s-0.3,1-0.9,1c-1.3,0.1-2.6,0.2-3.7,0.3c-0.7,4.6-1.9,9.1-3.6,13.6
		c-0.2,0.5-0.6,0.8-1.1,0.8c-0.6,0-1.3-0.5-1.3-1.2c0-0.2,0-0.4,0.1-0.5c1.8-4.1,2.9-8.2,3.6-12.6c-1.1,0-2,0.1-2.9,0.1
		c-0.6,0-1-0.5-1-1.1s0.4-1.1,1-1.1c1,0,2.1,0,3.3-0.1c0.1-0.7,0.2-1.5,0.3-2.3c0.1-0.5,0.5-0.8,1.1-0.8c0.5,0,1.2,0.3,1.2,1
		c0,0,0,0.1,0,0.2c-0.1,0.5-0.2,1.2-0.2,1.7c1.1,0,2.3-0.1,3.3-0.2h-0.1V513.9z M-169.8,527.6c0.6,0,1,0.5,1,1.1s-0.4,1.2-1.2,1.3
		c-1,0-2,0.1-2.8,0.1c-6,0-8.4-1.2-8.4-5.1v-0.4c0-0.8,0.6-1.3,1.2-1.3c0.5,0,1.1,0.4,1.1,1c0,2.5,0.9,3.4,5.6,3.4
		C-172.4,527.7-171.2,527.6-169.8,527.6L-169.8,527.6z M-169.9,519.5c-1.5-0.1-3.1-0.2-4.6-0.2c-1,0-2,0-2.9,0.1h-0.1
		c-0.6,0-1-0.5-1-1.2c0-0.5,0.3-1,0.9-1c1.1-0.1,2.2-0.1,3.3-0.1c1.6,0,3.3,0.1,4.6,0.2c0.6,0.1,0.9,0.5,0.9,1.1
		C-168.9,519-169.3,519.5-169.9,519.5L-169.9,519.5z M-171.5,515.8c-0.2,0-0.5-0.1-0.6-0.4c-0.5-0.8-1.2-1.6-1.7-2.1
		c-0.2-0.2-0.2-0.4-0.2-0.5c0-0.5,0.4-0.8,0.8-0.8c0.2,0,0.4,0.1,0.5,0.3c2,2,2.1,2.6,2.1,2.7C-170.6,515.4-171,515.8-171.5,515.8z
		 M-169.4,514.5c-0.2,0-0.5-0.1-0.6-0.4c-0.5-0.7-1.1-1.4-1.6-1.8c-0.2-0.2-0.3-0.4-0.3-0.5c0-0.4,0.4-0.7,0.7-0.7
		c0.2,0,0.4,0.1,0.5,0.2c0.5,0.5,2,1.9,2,2.5C-168.5,514.1-169,514.5-169.4,514.5z"/>
	<path class="st3" d="M-162.4,511.3c0.6,0,1.2,0.4,1.2,1.1c0,0.1,0,0.2,0,0.4c-0.7,2.7-1.1,5.4-1.1,7.9c0,0.3,0,0.5,0,0.7
		c0,2.4,0.2,4.6,0.5,6.7c0,0.1,0,0.3,0,0.4c0,0.7-0.6,1.2-1.3,1.2c-0.5,0-1.1-0.4-1.2-1.1c-0.3-2.1-0.5-4.3-0.5-6.7
		c0-2.6,0.2-5.6,1.1-9.7C-163.4,511.6-163,511.3-162.4,511.3z M-146.2,515.4c0.6,0,0.9,0.5,0.9,1.1c0,0.5-0.3,0.9-0.7,1
		c-0.8,0.1-2,0.3-3.3,0.3c0,1.5,0,2.9,0,4.1c0,5.4-1.5,7.5-6.4,8.4c-0.1,0-0.3,0-0.4,0c-0.8,0-1.3-0.6-1.3-1.2c0-0.5,0.3-1,0.8-1.1
		c4-0.7,4.9-1.8,4.9-6.1c0-1.3,0-2.6-0.1-4c-0.9,0-1.9,0-2.8,0c-1.6,0-3.2,0-4.6-0.1c-0.6,0-1-0.5-1-1.2c0-0.5,0.3-1,1-1h0.1
		c1.8,0.1,3.9,0.2,5.9,0.2h1.5c0-1.4-0.1-2.6-0.2-3.7V512c0-0.5,0.5-0.8,1.1-0.8c0.5,0,1.1,0.3,1.1,0.8c0.1,1.1,0.2,2.4,0.2,3.7
		c1.1,0,2.3-0.2,3-0.3H-146.2z"/>
	<path d="M-135.1,514.9c0.5,0,0.9,0.5,0.9,1c0,0.5-0.3,0.9-0.9,1c-1.2,0.1-2.4,0.2-3.5,0.3c-0.7,4.4-1.7,8.5-3.5,12.7
		c-0.2,0.5-0.6,0.7-1,0.7c-0.5,0-1.2-0.5-1.2-1.1c0-0.2,0-0.4,0.1-0.5c1.7-3.8,2.7-7.6,3.4-11.7c-1,0-1.9,0.1-2.7,0.1
		c-0.6,0-0.9-0.5-0.9-1s0.3-1,0.9-1c0.9,0,1.9,0,3-0.1c0.1-0.7,0.2-1.4,0.3-2.1c0.1-0.5,0.5-0.7,1-0.7c0.5,0,1.1,0.3,1.1,0.9
		c0,0,0,0.1,0,0.2c-0.1,0.5-0.2,1.1-0.2,1.6c1,0,2.1-0.1,3.1-0.2h0.1V514.9z M-127.4,527.7c0.6,0,0.9,0.5,0.9,1
		c0,0.5-0.4,1.2-1.1,1.2c-1,0-1.8,0.1-2.6,0.1c-5.6,0-7.8-1.2-7.8-4.7v-0.4c0-0.8,0.5-1.2,1.1-1.2c0.5,0,1,0.4,1,1
		c0,2.3,0.8,3.1,5.2,3.1C-129.7,527.8-128.7,527.7-127.4,527.7L-127.4,527.7z M-127.5,520.2c-1.4-0.1-2.9-0.2-4.4-0.2
		c-0.9,0-1.9,0-2.7,0.1h-0.1c-0.6,0-0.9-0.5-0.9-1.1c0-0.5,0.3-0.9,0.8-1c1-0.1,2-0.1,3-0.1c1.5,0,3,0.1,4.4,0.2
		c0.5,0.1,0.8,0.5,0.8,1C-126.5,519.6-126.9,520.2-127.5,520.2L-127.5,520.2z M-128.9,516.7c-0.2,0-0.5-0.1-0.5-0.4
		c-0.5-0.7-1.1-1.5-1.6-2c-0.2-0.2-0.2-0.4-0.2-0.5c0-0.4,0.4-0.7,0.7-0.7c0.2,0,0.4,0.1,0.5,0.3c1.9,1.9,1.9,2.4,1.9,2.6
		C-128.2,516.3-128.5,516.7-128.9,516.7z M-127,515.5c-0.2,0-0.4-0.1-0.5-0.3c-0.5-0.6-1-1.3-1.5-1.7c-0.2-0.2-0.3-0.4-0.3-0.5
		c0-0.4,0.4-0.6,0.7-0.6c0.2,0,0.4,0.1,0.5,0.2c0.5,0.5,1.8,1.8,1.8,2.3C-126.3,515.1-126.6,515.5-127,515.5z"/>
	<path d="M-117,513.1c-0.1,1-0.2,2-0.3,3c1,0,2-0.1,2.8-0.1c2.7,0,4,1.3,4,5.1c0,6.3-1.5,9-4.5,9c-1.5,0-2.5-0.4-3.3-0.6
		c-0.5-0.2-0.7-0.6-0.7-1c0-0.5,0.4-1.2,1-1.2c0.2,0,0.3,0,0.5,0.1c0.8,0.4,1.5,0.5,2.4,0.5c1.5,0,2.5-2,2.5-6.8
		c0-2.7-0.7-3.2-2.2-3.2c-0.8,0-1.8,0-2.9,0.1c-0.7,4.3-1.9,7.9-4.5,11.6c-0.2,0.3-0.5,0.5-0.8,0.5c-0.5,0-1.2-0.5-1.2-1.2
		c0-0.2,0.1-0.5,0.2-0.6c2.3-3.2,3.5-6.3,4.1-10.1c-0.9,0.1-1.9,0.2-2.8,0.3h-0.1c-0.5,0-0.9-0.5-0.9-1.1c0-0.5,0.2-0.8,0.7-0.8
		c1.2-0.1,2.3-0.2,3.5-0.2c0.1-1,0.2-2.1,0.3-3.3c0-0.5,0.5-0.7,1-0.7c0.5,0,1,0.3,1,0.9v-0.1H-117z M-105.9,522.4
		c-0.4,0-0.7-0.2-0.9-0.6c-1-2.1-2.1-3.8-3.4-5.2c-0.2-0.2-0.3-0.4-0.3-0.6c0-0.5,0.5-1,1.1-1c0.3,0,0.6,0.2,0.9,0.5
		c1.5,1.5,3.7,5,3.7,5.8C-104.7,522-105.2,522.4-105.9,522.4z"/>
	<path d="M-102.4,524c0.1-2.6,0.5-6.1,0.9-7.6c0.1-0.5,0.6-0.8,1.1-0.8c0.5,0,1.1,0.4,1.1,0.9c0,0.1,0,0.2,0,0.3
		c-0.4,1.3-0.5,3.2-0.8,5.4c2.2-1.9,5.2-2.8,7.8-2.8c3.8,0,6,1.9,6,4.9c0,4-3.5,6.3-11.3,6.3c-0.7,0-1.2-0.5-1.2-1.2
		c0-0.5,0.4-1,1.1-1c6.8,0,9.3-1.7,9.3-4.2c0-1.8-1.3-2.9-4-2.9c-2.1,0-5.1,0.9-7.7,3.7c-0.3,0.3-0.6,0.5-1,0.5
		C-101.8,525.4-102.4,524.9-102.4,524L-102.4,524z M-98.3,512c2.4,0.1,4.5,0.5,6.8,1c0.5,0.1,0.8,0.5,0.8,1c0,0.5-0.4,1.1-1,1.1
		c-0.1,0-0.2,0-0.3,0c-2.3-0.5-4.2-0.8-6.5-1c-0.6,0-0.9-0.5-0.9-1C-99.3,512.6-99,512-98.3,512L-98.3,512z"/>
	<path d="M-264.6,544.1c-0.5,5.1-2.4,9.1-6.9,12.4c-0.2,0.2-0.5,0.2-0.6,0.2c-0.6,0-1.3-0.6-1.3-1.3c0-0.3,0.2-0.6,0.5-0.8
		c4-2.8,5.6-6.2,6.1-10.5h-4.9c-0.5,0-0.9-0.5-0.9-1c0-0.5,0.3-1,0.9-1h5.1c0-0.7,0.1-1.5,0.1-2.3c0-0.6,0.5-1,1.1-1s1.1,0.4,1.1,1
		c0,0.8,0,1.5-0.1,2.3h5.7c1.6,0,2.6,0.9,2.6,2.5c0,9.8-0.3,12.4-4.6,12.4c-1,0-2.3-0.3-3.6-0.7c-0.6-0.2-0.9-0.6-0.9-1.1
		c0-0.6,0.5-1.2,1.1-1.2c0.1,0,0.3,0,0.4,0.1c1.1,0.5,2,0.6,2.7,0.6c2.3,0,2.6-1.1,2.6-9.8c0-0.5-0.3-0.7-0.7-0.7H-264.6z"/>
	<path d="M-246.3,544.9c-1.3-0.9-3.6-2.2-5.3-2.9c-0.5-0.2-0.6-0.5-0.6-0.9c0-0.5,0.5-1.2,1.2-1.2c0.5,0,4.1,1.7,5.9,3
		c0.4,0.3,0.5,0.6,0.5,0.9c0,0.6-0.6,1.3-1.2,1.3C-245.9,545.1-246.1,545-246.3,544.9z M-250.7,556.7c-0.1,0-0.2,0-0.3,0
		c-0.7,0-1.2-0.6-1.2-1.3c0-0.5,0.3-0.9,0.9-1c7.8-1.4,11.9-4.6,13.8-10.6c0.2-0.5,0.5-0.6,1-0.6c0.5,0,1.2,0.4,1.2,1.1
		c0,0.1,0,0.2,0,0.4C-237,550.6-242.2,555.5-250.7,556.7z"/>
	<path d="M-218.1,543.9c0-0.4-0.3-0.6-0.5-0.6h-7.6c-1.7,2.4-4.6,4.6-5.5,4.6c-0.6,0-1.2-0.5-1.2-1.2c0-0.4,0.2-0.6,0.5-0.9
		c2.7-1.5,4.9-4.3,5.7-6.7c0.2-0.4,0.5-0.5,0.9-0.5c0.5,0,1.2,0.4,1.2,1c0,0.4-0.5,1.3-0.6,1.7h6.7c1.5,0,2.4,0.8,2.4,2.3
		c0,0.1,0,0.2,0,0.3c-0.5,6.9-5.5,12.1-14.9,12.8h-0.1c-0.7,0-1.2-0.6-1.2-1.2c0-0.5,0.3-0.9,0.9-0.9c3.5-0.2,6.4-1.1,8.6-2.6
		c-1.5-1.5-3.8-3.4-5-3.9c-0.3-0.2-0.4-0.4-0.4-0.6c0-0.5,0.5-1.2,1.2-1.2c0.2,0,0.4,0,0.5,0.2c1.2,0.6,3.8,2.6,5.4,4.2
		C-219.3,548.9-218.3,546.6-218.1,543.9L-218.1,543.9z"/>
	<path d="M-206.7,544.9c-1.3-0.9-3.6-2.2-5.3-2.9c-0.5-0.2-0.6-0.5-0.6-0.9c0-0.5,0.5-1.2,1.2-1.2c0.5,0,4.1,1.7,5.9,3
		c0.4,0.3,0.5,0.6,0.5,0.9c0,0.6-0.6,1.3-1.2,1.3C-206.4,545.1-206.5,545-206.7,544.9z M-211.2,556.7c-0.1,0-0.2,0-0.3,0
		c-0.7,0-1.2-0.6-1.2-1.3c0-0.5,0.3-0.9,0.9-1c7.8-1.4,11.9-4.6,13.8-10.6c0.2-0.5,0.5-0.6,1-0.6c0.5,0,1.2,0.4,1.2,1.1
		c0,0.1,0,0.2,0,0.4C-197.4,550.6-202.6,555.5-211.2,556.7z"/>
	<path d="M-178,542.4c0.5,0,0.9,0.5,0.9,1s-0.3,1-0.7,1c-1.9,0.2-4.5,0.3-6,0.3c0,1.8,0.1,3.7,0.1,5.3c2.4,0.7,4.9,2,6.6,3.3
		c0.3,0.2,0.5,0.5,0.5,0.8c0,0.6-0.5,1.3-1.2,1.3c-0.3,0-0.5-0.1-0.7-0.3c-1.4-1.2-3.3-2.2-5-2.9c0,0.3,0,0.5,0,0.7
		c0,3.3-1.9,4.1-4.7,4.1c-2.7,0-5-1.5-5-3.8c0-2.6,2-3.9,5.4-3.9c0.6,0,1.4,0.1,2.2,0.3c0-3.2-0.2-7.6-0.3-10v-0.1
		c0-0.5,0.5-0.8,1.1-0.8c0.5,0,1.1,0.3,1.1,0.9v3.3C-182.4,542.8-180.1,542.6-178,542.4L-178,542.4L-178,542.4z M-185.9,551.5
		c-0.8-0.2-1.5-0.3-2.2-0.3c-2.3,0-3.3,0.6-3.3,2c0,1.1,1.3,1.7,2.8,1.7c1.7,0,2.6-0.5,2.6-2.3V551.5z"/>
	<path d="M-171,554.3c0-0.8,0.5-1.5,1.3-1.5s1.3,0.6,1.3,1.5c0,0.8-0.5,1.5-1.3,1.5C-170.6,555.8-171,555.1-171,554.3z M-171,540.5
		L-171,540.5c0-0.7,0.6-1.1,1.2-1.1c0.6,0,1.2,0.4,1.2,1l0,0l-0.4,10.4c0,0.6-0.5,0.9-0.9,0.9c-0.4,0-0.8-0.3-0.8-0.9L-171,540.5z"
		/>
</g>
<path class="st4" d="M-288.2,551c0,0,64.7,49.7,116.6,31.5s62-46,87.5-52.6c25.5-6.6,29.2,4.6,29.2,4.6s-12.5-11.4-11.3-34.1
	c1.3-22.6,3.1-39.9-17.9-56.3s-82-9.1-98.4,0"/>
<text transform="matrix(1 0 0 1 -743.118 12.7869)"><tspan x="0" y="0" style="font-family:'KozGoPr6N-Regular-83pv-RKSJ-H'; font-size:12px;">１：ご自宅の備蓄品の数を入れるだけ！</tspan><tspan x="0" y="14.4" style="font-family:'KozGoPr6N-Regular-83pv-RKSJ-H'; font-size:12px;">備蓄品別に、今、ご自宅で備蓄している量を記入するだけであなたの世帯で 必要とされる基準数（１週間分）との比較ができます。</tspan></text>
<text transform="matrix(1 0 0 1 40.5682 55.1306)" class="st0 st5 st6">3</text>
<g>
	<text transform="matrix(1 0 0 1 195.8626 50.1573)" class="st0 st5 st6">基本情報を入力</text>
</g>
<g>
	<defs>
		<rect id="SVGID_1_" x="-416.9" y="-249.1" width="1075.8" height="179.1"/>
	</defs>
	<clipPath id="SVGID_2_">
		<use xlink:href="#SVGID_1_"  style="overflow:visible;"/>
	</clipPath>
	<g id="リピートグリッド_3" class="st7">
		<g transform="translate(-58 -3176)">
			<g id="長方形_9" transform="translate(58 3176)">
				<rect x="-416.9" y="-249.1" class="st0" width="311.6" height="173.6"/>
				<rect x="-416.6" y="-248.8" class="st8" width="311" height="173"/>
			</g>
			<text transform="matrix(1 0 0 1 -302.495 2969.8167)" style="font-family:'HiraKakuProN-W6-83pv-RKSJ-H'; font-size:33.1213px;">基本情報入力</text>
			<line id="線_4" class="st8" x1="-348.2" y1="2980.6" x2="-58.1" y2="2980.6"/>
		</g>
		<g transform="translate(560 -3176)">
			<g id="長方形_9-2" transform="translate(58 3176)">
				<rect x="-655.9" y="-249.1" class="st0" width="311.6" height="173.6"/>
				<rect x="-655.6" y="-248.8" class="st8" width="311" height="173"/>
			</g>
			
				<text transform="matrix(1 0 0 1 -574.5609 2969.8167)" style="font-family:'HiraKakuProN-W6-83pv-RKSJ-H'; font-size:33.1213px;">備蓄状況チェック</text>
			<line id="線_4-2" class="st8" x1="-587.1" y1="2980.6" x2="-297" y2="2980.6"/>
		</g>
		<g transform="translate(1178 -3176)">
			<g id="長方形_9-3" transform="translate(58 3176)">
				<rect x="-894.8" y="-249.1" class="st0" width="311.6" height="173.6"/>
				<rect x="-894.5" y="-248.8" class="st8" width="311" height="173"/>
			</g>
			
				<text transform="matrix(1 0 0 1 -763.8246 2969.8167)" style="font-family:'HiraKakuProN-W6-83pv-RKSJ-H'; font-size:33.1213px;">結果を確認</text>
			<line id="線_4-3" class="st8" x1="-826.1" y1="2980.6" x2="-536" y2="2980.6"/>
		</g>
	</g>
</g>
<text transform="matrix(1 0 0 1 -383.1888 -157.7281)" style="font-family:'HiraKakuProN-W3-83pv-RKSJ-H'; font-size:24.5343px;">年代</text>
<text transform="matrix(1 0 0 1 10.9547 -167.5416)" style="font-family:'HiraKakuProN-W3-83pv-RKSJ-H'; font-size:24.5343px;">画面の指示に従って</text>
<text transform="matrix(1 0 0 1 31.3053 -125.8336)" style="font-family:'HiraKakuProN-W3-83pv-RKSJ-H'; font-size:24.5343px;">数字を選ぶだけ!</text>
<text transform="matrix(1 0 0 1 -8.514 -84.1246)" style="font-family:'HiraKakuProN-W3-83pv-RKSJ-H'; font-size:24.5343px;">最短3分で終了します。</text>
<text transform="matrix(1 0 0 1 368.5172 -167.5416)" style="font-family:'HiraKakuProN-W3-83pv-RKSJ-H'; font-size:24.5343px;">結果をPDFで保存したり</text>
<text transform="matrix(1 0 0 1 358.36 -125.8336)" style="font-family:'HiraKakuProN-W3-83pv-RKSJ-H'; font-size:24.5343px;">不足品の購入もできます。</text>
<text transform="matrix(1 0 0 1 376.5153 -92.0993)" style="font-family:'HiraKakuProN-W3-83pv-RKSJ-H'; font-size:15.3339px;">※購入はAmazon.co.jpのリンクから</text>
<text transform="matrix(1 0 0 1 -383.1888 -117.2467)" style="font-family:'HiraKakuProN-W3-83pv-RKSJ-H'; font-size:24.5343px;">世帯人数</text>
<text transform="matrix(1 0 0 1 -223.7162 -157.7281)" style="font-family:'HiraKakuProN-W3-83pv-RKSJ-H'; font-size:24.5343px;">職業</text>
<text transform="matrix(1 0 0 1 -303.4525 -157.7281)" style="font-family:'HiraKakuProN-W3-83pv-RKSJ-H'; font-size:24.5343px;">性別</text>
<text transform="matrix(1 0 0 1 -235.37 -114.7926)" style="font-family:'HiraKakuProN-W3-83pv-RKSJ-H'; font-size:24.5343px;">都道府県</text>
<path id="合体_1" class="st9" d="M-75-144.8h-19.3v-20.9H-75v-9.8l35,20.2L-75-135V-144.8z"/>
<path id="合体_2" class="st9" d="M302.9-144.8h-19.3v-20.9h19.3v-9.8l35,20.2l-35,20.2V-144.8z"/>
<rect x="7.7" y="3.4" class="st10" width="92" height="69.5"/>
<rect x="99.7" y="3.4" transform="matrix(-1 -1.224647e-16 1.224647e-16 -1 629.7255 76.2633)" class="st10" width="430.3" height="69.5"/>
<g>
	<path class="st0" d="M465.9,289.9c8.8-1.4,16.9-2.3,24.9-4.2c6.6-1.5,12.1-5.3,15.8-11.4c0.9-1.6,3-3,4.8-3.6c6.6-2,9.7-6.3,9-13.2
		c-0.1-1.3,0.3-2.7,0.5-4c0.5-2.6,1-5.2,1.6-7.8c0.3-1.3,0.2-2.9,0.9-3.9c6.4-9.5,6.4-11-0.4-19.8c5.1-7.2,5.5-15.1,2.7-23.2
		c-3.6-10.5-9.9-19.1-18.4-26.2c-12.6-10.5-26.6-12.1-41.3-5.4c-3.5,1.6-6.1,1.7-9.6-0.1c-16.9-8.7-27.3-4.5-33.9,13.3
		c-21.4,2.6-31.4,28.1-19.3,46.7c-1.3,3-3.2,5.4-3.5,8c-0.7,6.1,3.1,10.3,7.4,13.8c-1,1.6-1.8,2.7-2.4,4c-3.4,7.2-5,15,1.1,20.9
		c5.5,5.3,6.5,11.5,7.6,18.1c0.7,4.4,0.5,8.5-1.1,13c-1.8,5.1-2.4,10.8-2.4,16.3c0,7.8,5.2,11.4,12.8,9.5c3.7-0.9,7.2-2.6,11.5-4.2
		c-2.2,9.5-4.4,18.4-6.6,27.9c20.1,0,39.5,0,59-0.1c1,0,2.7-0.9,2.7-1.3c-0.1-3.9,3.3-3.9,5.5-5.4c1.8-1.1,3.7-2.7,4.8-4.5
		c2.6-4.3,1.2-6.8-3.7-7.1c-0.7,0-1.8-0.3-1.9-0.7c-0.2-0.7-0.1-1.8,0.4-2.5c0.9-1.3,2.2-2.3,3.1-3.6c4.9-6.7,5-11.3-1.4-16.5
		c-8.7-7.1-18.2-13.2-27.2-19.8C467.6,292.1,466.7,290.8,465.9,289.9z"/>
	<path d="M465.9,289.9c0.8,0.9,1.7,2.2,2.9,3.1c9.1,6.6,18.5,12.8,27.2,19.8c6.4,5.2,6.4,9.8,1.4,16.5c-0.9,1.3-2.2,2.3-3.1,3.6
		c-0.4,0.6-0.6,1.7-0.4,2.5c0.1,0.4,1.2,0.7,1.9,0.7c4.9,0.3,6.4,2.8,3.7,7.1c-1.1,1.8-2.9,3.3-4.8,4.5c-2.2,1.4-5.6,1.5-5.5,5.4
		c0,0.5-1.8,1.3-2.7,1.3c-19.5,0.1-39,0.1-59,0.1c2.3-9.5,4.4-18.4,6.6-27.9c-4.2,1.6-7.8,3.2-11.5,4.2c-7.7,2-12.9-1.7-12.8-9.5
		c0-5.5,0.6-11.2,2.4-16.3c1.6-4.5,1.9-8.6,1.1-13c-1.1-6.6-2.1-12.8-7.6-18.1c-6.1-5.8-4.4-13.7-1.1-20.9c0.6-1.3,1.5-2.4,2.4-4
		c-4.3-3.6-8.1-7.8-7.4-13.8c0.3-2.6,2.1-5,3.5-8c-12.2-18.6-2.1-44.1,19.3-46.7c6.6-17.8,17.1-22,33.9-13.3c3.5,1.8,6,1.7,9.6,0.1
		c14.8-6.7,28.8-5.2,41.3,5.4c8.4,7.1,14.8,15.7,18.4,26.2c2.7,8.1,2.4,15.9-2.7,23.2c6.9,8.8,6.8,10.3,0.4,19.8
		c-0.7,1-0.7,2.6-0.9,3.9c-0.5,2.6-1.1,5.2-1.6,7.8c-0.2,1.3-0.6,2.7-0.5,4c0.7,6.8-2.4,11.2-9,13.2c-1.8,0.5-3.9,2-4.8,3.6
		c-3.6,6.2-9.1,9.9-15.8,11.4C482.9,287.5,474.7,288.4,465.9,289.9z M462.5,287.3c2.4,0,4.2,0,6.1,0c8.5,0.2,16.8-0.7,24.6-4.2
		c8.5-3.9,12.5-10.4,12.1-19.7c-0.1-2.2-0.3-4.3-0.5-6.8c1.5,0.1,2.5,0,3.5,0.2c6.8,1.1,11.3-2.7,11-9.5c-0.2-4.8-2.9-6.7-7.3-4.8
		c-1.5,0.6-3.1,1.4-4.3,1.9c-3.4-6-6.5-11.6-9.3-16.5c-5.3-2-11.4-2.8-15.2-6.2c-3.8-3.5-5.3-9.5-8.2-15
		c-13.2,1.3-26.1-0.9-33.9-15.3c-16,10.3-26.3,23.9-29.3,42.4c-1.3,8.2-1.2,16.4-5.5,24.2c-3.5,6.4-0.9,13,3.6,16.3
		c1.1-1.4,2-3.7,3.3-3.9c1.5-0.2,3.7,0.9,4.8,2.2c1.6,1.9,2.5,4.3,3.5,6.6c1,2.3,1.5,4.6,5,2.3c1.2-0.8,3.9,0.5,5.8,1.2
		c1.5,0.5,2.7,2.1,4.2,2.2c6.6,0.9,13.2,1.4,19.9,2.1c0,2.4,0,4.5,0,6.9c2.4,0,4.5,0,6.8,0C463.1,291.8,462.9,289.9,462.5,287.3z
		 M450.7,295.7c-0.7-0.2-1.4-0.4-2.1-0.5c-8.2,18.1-11.6,37.8-16.8,57.5c18.1,0,35.6,0,54.2,0c-5.7-19.3-11.2-37.6-16.7-56
		c-1.2,3.4-1,6.8-1.8,9.9c-0.4,1.6-2.7,3.5-4.3,3.8c-3.2,0.5-6.6-0.2-9.9-0.3c-3.6-0.2-4.6-2.3-4.2-5.5
		C449.6,301.5,450.2,298.6,450.7,295.7z M415.7,304.2c-3.3,6-4.3,12.6-2.3,19.1c0.8,2.4,3.5,5.1,5.9,6.1c4,1.6,15.5-5.3,16.8-9.5
		c2-6.4,3.9-12.9,6.1-20.4c-5.9,3.8-13.2,4.9-12.2,13.8c0.1,0.8-1.3,1.8-2,2.8c-0.4-0.2-0.7-0.4-1.1-0.6c0.2-3.4,0.3-6.8,0.5-10.1
		C423.1,304.8,419.5,304.5,415.7,304.2z M485.6,335.6c6.5-1.4,8.6-6.7,10.9-11.3c1-1.9,0.8-5.9-0.6-7.3
		c-6.3-6.1-13.2-11.7-19.9-17.4c-0.4,0.4-0.9,0.8-1.3,1.3c4.2,7.2,2.3,17.2,10.9,22.8c-1.1,0.4-2.1,0.7-3.4,1.1
		C483.4,328.4,484.5,331.9,485.6,335.6z M416.2,273.5c-0.5,0.1-1.1,0.2-1.6,0.3c-0.1,0.7-0.3,1.5-0.2,2.2c0.9,8,1.7,16,3,23.9
		c0.2,1.2,2.6,2.7,4,2.8c2.1,0.2,6-0.6,6.1-1.4c0.5-3.8,0.1-7.8-0.3-11.7c0-0.5-2.2-0.8-3.4-1c-1-0.2-2.1-0.2-2.7-0.3
		C419.4,283.2,417.8,278.4,416.2,273.5z M431.7,302.7c6.6-3.3,13.6-6.8,20.5-10.4c0.7-0.4,1.5-2.1,1.2-2.7c-0.4-0.9-1.7-1.8-2.7-1.9
		c-5-0.5-10.1-0.6-15.2-1.1c-3.2-0.3-3.8,1.4-3.9,3.9C431.7,294.6,431.7,298.6,431.7,302.7z M463.2,307.7c0.3-3.7,0.5-7.5,0.8-11.2
		c-10-0.9-11.5,0.8-9.7,11.2C457,307.7,459.8,307.7,463.2,307.7z M497.2,337.7c-1.4,0.7-2.8,1.4-4.3,2.1c-0.9-1.3-1.7-2.3-2.6-3.6
		c-1.5,0.6-2.8,1.2-4.6,1.9c2.7,3.1,0.1,8.9,5.5,9.5C494.6,347.9,497.4,342.8,497.2,337.7z"/>
	<path class="st0" d="M462.5,287.3c0.3,2.6,0.6,4.5,0.8,6.7c-2.3,0-4.4,0-6.8,0c0-2.3,0-4.5,0-6.9c-6.8-0.7-13.4-1.3-19.9-2.1
		c-1.5-0.2-2.7-1.7-4.2-2.2c-1.9-0.7-4.6-1.9-5.8-1.2c-3.5,2.2-4-0.1-5-2.3c-1-2.3-2-4.8-3.5-6.6c-1.1-1.3-3.3-2.4-4.8-2.2
		c-1.3,0.2-2.2,2.5-3.3,3.9c-4.5-3.3-7.2-9.9-3.6-16.3c4.3-7.8,4.2-16,5.5-24.2c3-18.5,13.3-32.1,29.3-42.4
		c7.8,14.4,20.7,16.5,33.9,15.3c2.8,5.5,4.3,11.5,8.2,15c3.8,3.4,9.9,4.2,15.2,6.2c2.7,4.9,5.9,10.5,9.3,16.5
		c1.3-0.6,2.8-1.3,4.3-1.9c4.4-1.8,7.1,0,7.3,4.8c0.2,6.8-4.2,10.6-11,9.5c-1-0.2-2.1-0.1-3.5-0.2c0.2,2.5,0.5,4.7,0.5,6.8
		c0.4,9.3-3.6,15.8-12.1,19.7c-7.8,3.5-16.2,4.4-24.6,4.2C466.7,287.3,464.9,287.3,462.5,287.3z M470.5,234.3
		c3.3,0.3,6.8,0.8,10.2,0.7c1.2,0,2.3-1.6,3.5-2.5c-1-1-1.9-2.6-3.1-2.8c-2.4-0.5-5-0.2-7.5-0.4C469.8,229.1,469.3,231,470.5,234.3z
		 M439.6,250.9c7.5,11.4,24,9.8,31.5-2.7c-3.3,1.7-6.5,3.5-9.5,5.6c-6,4.3-11.7,4-17.4-0.7C442.9,252.1,441.1,251.7,439.6,250.9z
		 M427.5,235.4c4,0,7.8,0.1,11.5-0.1c0.8-0.1,2.2-1.7,2.1-2.3c-0.2-1-1.4-2.5-2.3-2.6c-2.6-0.4-5.4-0.1-8.1-0.1
		C427.4,230.2,426.1,231.6,427.5,235.4z M490.5,235.6c-3.3,1.7-8.5,3.5-8.3,4.4c0.8,4.6,5.3,3.5,8.4,3.2c2.7-0.3,5.3-2.1,8-3.3
		C496,238.6,493.5,237.2,490.5,235.6z M455.4,233.8c-3.4,2.2-6.6,4.3-10.2,6.6c0.1,4.6,2.2,6.7,6.4,5.6c-1.1-1.8-2.2-3.6-3.4-5.6
		C456,239.8,456.1,239.7,455.4,233.8z M437,217.8c9,1.9,11.2,1.4,11.5-2.4c0.2-2,1-4.9-2.8-5c-0.5,2.4-0.3,5.5-1.7,6.5
		C442.4,218.1,439.4,217.6,437,217.8z M478.8,243.7c-3.1,0-5.1,0-7.1,0c0,0.2-0.1,0.5-0.1,0.7c1,0.3,2.1,0.6,3.1,0.9
		c0,1.9,0,3.5,0,5.2c0.5,0.2,1,0.3,1.5,0.5C477,248.8,477.8,246.7,478.8,243.7z M473.4,217.1c0.1-0.6,0.1-1.2,0.2-1.8
		c-1.7,0.1-3.4,0.4-5.1,0.3c-1.1-0.1-2.2-0.6-3.1-1.2c-0.7-0.5-1.1-1.4-1.7-2.1c-0.5,0.7-1.5,1.5-1.4,2c0.3,1,1.1,2.6,1.9,2.7
		C467.3,217.2,470.3,217.1,473.4,217.1z"/>
	<path class="st0" d="M450.7,295.7c-0.5,2.9-1.1,5.8-1.5,8.8c-0.4,3.1,0.6,5.3,4.2,5.5c3.3,0.2,6.7,0.8,9.9,0.3
		c1.6-0.2,3.9-2.2,4.3-3.8c0.8-3.1,0.6-6.4,1.8-9.9c5.5,18.4,10.9,36.7,16.7,56c-18.6,0-36.1,0-54.2,0c5.2-19.7,8.5-39.3,16.8-57.5
		C449.3,295.3,450,295.5,450.7,295.7z"/>
	<path class="st0" d="M415.7,304.2c3.9,0.4,7.4,0.7,11.6,1.1c-0.2,3.3-0.3,6.7-0.5,10.1c0.4,0.2,0.7,0.4,1.1,0.6
		c0.7-0.9,2.1-1.9,2-2.8c-1-8.9,6.4-10,12.2-13.8c-2.2,7.5-4,14-6.1,20.4c-1.3,4.2-12.8,11.1-16.8,9.5c-2.4-1-5.1-3.6-5.9-6.1
		C411.3,316.7,412.3,310.2,415.7,304.2z"/>
	<path class="st0" d="M485.6,335.6c-1.2-3.7-2.2-7.2-3.4-10.9c1.2-0.4,2.2-0.7,3.4-1.1c-8.7-5.6-6.8-15.6-10.9-22.8
		c0.4-0.4,0.9-0.8,1.3-1.3c6.7,5.7,13.6,11.3,19.9,17.4c1.4,1.3,1.5,5.3,0.6,7.3C494.2,328.9,492.2,334.2,485.6,335.6z"/>
	<path class="st0" d="M416.2,273.5c1.6,4.8,3.2,9.7,4.9,14.9c0.6,0.1,1.7,0.1,2.7,0.3c1.2,0.2,3.3,0.5,3.4,1
		c0.4,3.9,0.8,7.9,0.3,11.7c-0.1,0.8-4,1.6-6.1,1.4c-1.5-0.1-3.9-1.7-4-2.8c-1.3-7.9-2.1-15.9-3-23.9c-0.1-0.7,0.2-1.5,0.2-2.2
		C415.2,273.8,415.7,273.6,416.2,273.5z"/>
	<path class="st0" d="M431.7,302.7c0-4.1,0-8.1,0-12.1c0-2.5,0.7-4.2,3.9-3.9c5,0.5,10.1,0.6,15.2,1.1c1,0.1,2.3,1,2.7,1.9
		c0.3,0.6-0.5,2.3-1.2,2.7C445.3,295.9,438.3,299.4,431.7,302.7z"/>
	<path class="st0" d="M463.2,307.7c-3.4,0-6.2,0-8.9,0c-1.8-10.4-0.3-12.2,9.7-11.2C463.7,300.2,463.5,304,463.2,307.7z"/>
	<path class="st0" d="M497.2,337.7c0.2,5.1-2.6,10.2-6.1,9.9c-5.4-0.6-2.7-6.4-5.5-9.5c1.8-0.8,3.2-1.3,4.6-1.9
		c0.9,1.3,1.7,2.4,2.6,3.6C494.5,339.1,495.8,338.4,497.2,337.7z"/>
	<path d="M470.5,234.3c-1.2-3.4-0.7-5.2,3-5.1c2.5,0.1,5.1-0.2,7.5,0.4c1.2,0.2,2.1,1.9,3.1,2.8c-1.2,0.9-2.3,2.5-3.5,2.5
		C477.3,235.1,473.9,234.6,470.5,234.3z"/>
	<path d="M439.6,250.9c1.5,0.7,3.3,1.2,4.6,2.3c5.7,4.7,11.3,5,17.4,0.7c3-2.1,6.2-4,9.5-5.6C463.6,260.7,447.1,262.3,439.6,250.9z"
		/>
	<path d="M427.5,235.4c-1.5-3.8-0.1-5.2,3.2-5.1c2.7,0,5.4-0.2,8.1,0.1c0.9,0.1,2.1,1.6,2.3,2.6c0.1,0.6-1.3,2.2-2.1,2.3
		C435.3,235.5,431.5,235.4,427.5,235.4z"/>
	<path d="M490.5,235.6c3,1.6,5.5,3,8.1,4.3c-2.7,1.2-5.2,3-8,3.3c-3.1,0.3-7.6,1.4-8.4-3.2C482,239.1,487.2,237.3,490.5,235.6z
		 M485.5,239.3c0,0.6,0,1.2,0,1.8c3.1,0,6.2,0,9.3,0c0-0.6,0-1.2,0-1.8C491.7,239.3,488.6,239.3,485.5,239.3z"/>
	<path d="M455.4,233.8c0.7,5.9,0.6,6-7.2,6.6c1.2,2,2.3,3.8,3.4,5.6c-4.2,1.1-6.3-1-6.4-5.6C448.8,238.1,452,236.1,455.4,233.8z"/>
	<path d="M437,217.8c2.4-0.2,5.4,0.3,7.1-0.9c1.4-1,1.2-4.1,1.7-6.5c3.7,0.1,2.9,3,2.8,5C448.2,219.2,446,219.8,437,217.8z"/>
	<path d="M478.8,243.7c-1.1,3-1.8,5.1-2.6,7.2c-0.5-0.2-1-0.3-1.5-0.5c0-1.6,0-3.2,0-5.2c-1-0.3-2-0.6-3.1-0.9
		c0-0.2,0.1-0.5,0.1-0.7C473.8,243.7,475.8,243.7,478.8,243.7z"/>
	<path d="M473.4,217.1c-3.1,0-6.1,0.2-9.2-0.1c-0.7-0.1-1.6-1.6-1.9-2.7c-0.1-0.5,0.9-1.4,1.4-2c0.6,0.7,1,1.6,1.7,2.1
		c0.9,0.6,2,1.1,3.1,1.2c1.7,0.1,3.4-0.2,5.1-0.3C473.5,215.8,473.5,216.5,473.4,217.1z"/>
	<path class="st0" d="M485.5,239.3c3.1,0,6.2,0,9.3,0c0,0.6,0,1.2,0,1.8c-3.1,0-6.2,0-9.3,0C485.5,240.5,485.5,239.9,485.5,239.3z"
		/>
</g>
<text transform="matrix(1 0 0 1 16.3307 148.9473)"><tspan x="0" y="0" class="st5 st11">・都道府県 ・性別　</tspan><tspan x="0" y="36" class="st5 st11">・年齢 ・職業　・耐震対応</tspan><tspan x="0" y="72" class="st5 st11">・住居</tspan><tspan x="66" y="72" class="st5 st12">（賃貸・持ち家）</tspan><tspan x="178" y="72" class="st5 st11">　・住居タイプ　</tspan><tspan x="0" y="108" class="st5 st11">・世帯人数 ・内訳</tspan><tspan x="183.3" y="108" class="st5 st12">（成人） </tspan><tspan x="244" y="108" class="st5 st11">・内訳</tspan><tspan x="310" y="108" class="st5 st12">（未成年）</tspan></text>
<text transform="matrix(0.9955 -9.465469e-02 9.465469e-02 0.9955 357.2617 120.9174)"><tspan x="0" y="0" class="st2 st5 st13">名前やメアドは</tspan><tspan x="10" y="24" class="st2 st5 st13">いらないのね</tspan></text>
<path class="st14" d="M335.6,109.8c-5.1,9.2,12.1,38.5,37.4,46.9c25.3,8.4,34.4,3.9,46.7,9.3c17.7,7.8-9.6-0.9,13.4-14.6
	c35.2-21.1,70-0.1,80.2-34.8"/>
<line class="st15" x1="18.6" y1="100.8" x2="333" y2="100.8"/>
<rect x="121.5" y="98.2" class="st0" width="108.7" height="6.4"/>
<g>
	<text transform="matrix(1 0 0 1 126.5517 110.9162)" class="st5 st16">基本情報</text>
</g>
<path class="st2" d="M389.7,304.8H17.2c-4.6,0-8.3-3.7-8.3-8.3v-9.9c0-4.6,3.7-8.3,8.3-8.3h372.5c4.6,0,8.3,3.7,8.3,8.3v9.9
	C398,301.1,394.3,304.8,389.7,304.8z"/>
<text transform="matrix(1 0 0 1 13.3396 299.0494)" class="st0 st5 st17">※お名前やメールアドレスなど個人を特定する情報は収集しません。</text>
</svg>
