<?xml version="1.0" encoding="utf-8"?>
<!-- Generator: Adobe Illustrator 24.0.1, SVG Export Plug-In . SVG Version: 6.00 Build 0)  -->
<svg version="1.1" id="レイヤー_1" xmlns="http://www.w3.org/2000/svg" xmlns:xlink="http://www.w3.org/1999/xlink" x="0px"
	 y="0px" viewBox="0 0 536.9 353.9" style="enable-background:new 0 0 536.9 353.9;" xml:space="preserve">
<style type="text/css">
	.st0{fill:#FFFFFF;}
	.st1{fill:none;stroke:#E60000;stroke-width:5.6356;stroke-miterlimit:10;}
	.st2{fill:#E60000;}
	.st3{enable-background:new    ;}
	.st4{fill:none;}
	.st5{fill:none;stroke:#E60000;stroke-miterlimit:10;}
	.st6{fill:none;stroke:#000000;stroke-miterlimit:10;}
	.st7{fill-rule:evenodd;clip-rule:evenodd;}
	.st8{fill-rule:evenodd;clip-rule:evenodd;fill:#B3B3B3;}
	.st9{fill:#FF0000;stroke:#FF0000;stroke-width:0.3543;stroke-miterlimit:10;}
</style>
<g>
	<path class="st0" d="M526.5,294.4c0,5.8-4.7,10.5-10.5,10.5H20.9c-5.8,0-10.5-4.7-10.5-10.5v-277c0-5.8,4.7-10.5,10.5-10.5H516
		c5.8,0,10.5,4.7,10.5,10.5V294.4z"/>
	<path class="st1" d="M526.5,294.4c0,5.8-4.7,10.5-10.5,10.5H20.9c-5.8,0-10.5-4.7-10.5-10.5v-277c0-5.8,4.7-10.5,10.5-10.5H516
		c5.8,0,10.5,4.7,10.5,10.5V294.4z"/>
</g>
<path class="st2" d="M526.5,72.9V15.1c0-4.5-3.7-8.3-8.3-8.3H18.7c-4.5,0-8.3,3.7-8.3,8.3v57.7H526.5z"/>
<g>
	<g>
		<g>
			<path class="st0" d="M74.8,65.2H32.6c-3.2,0-6.1-1.7-7.7-4.4s-1.6-6.1,0-8.8l21.1-36.5c1.6-2.8,4.5-4.4,7.7-4.4
				c3.2,0,6.1,1.7,7.7,4.4L82.5,52c1.6,2.8,1.6,6.1,0,8.8C80.9,63.6,78,65.2,74.8,65.2z M49.3,17.3L28.2,53.9c-0.9,1.6-0.9,3.5,0,5
				c0.9,1.6,2.5,2.5,4.4,2.5h42.2c1.8,0,3.5-0.9,4.4-2.5c0.9-1.6,0.9-3.5,0-5L58.1,17.3c-0.9-1.6-2.5-2.5-4.4-2.5
				C51.9,14.8,50.2,15.8,49.3,17.3L49.3,17.3z"/>
		</g>
	</g>
</g>
<g>
	<path class="st0" d="M47.3,56.2c-3.1,0-3.8,0-5.1,0.1c0.1-1.7,0.3-2.7,0.7-4c0.9-2.8,2.5-5.4,4.9-7.6c1.3-1.2,2.6-2.2,6.1-4.5
		c2.9-2,3.6-2.9,3.6-4.4c0-1.6-1.5-2.7-3.6-2.7c-1.6,0-2.8,0.5-3.5,1.7c-0.5,0.7-0.7,1.4-0.9,2.9l-7.1-0.7c0.5-3,1.1-4.5,2.5-6.1
		c1.9-2.3,5-3.5,9-3.5c4.6,0,8.1,1.5,9.8,4.3c0.7,1.2,1.1,2.5,1.1,4c0,2.5-1,4.6-3.1,6.3c-1.1,1-1.5,1.2-4.9,3.6c-3,2-4.2,3.2-5,4.7
		h7.9c2.5,0,4.1-0.1,5.4-0.2v6.4c-2-0.2-3.4-0.2-5.8-0.2H47.3z"/>
</g>
<g>
	<g>
		<path class="st0" d="M125.9,38.9c-2,1.5-3.1,3-3.1,4.2c0,1.8,2.2,2.5,7.4,2.5c4,0,8.9-0.7,11.1-1.6l0.4,6.5c-0.6,0-0.9,0-1.4,0.1
			c-0.2,0-0.5,0.1-1.1,0.1l-1,0.1c-2.9,0.4-5.7,0.5-8.5,0.5c-3.8,0-6.6-0.4-8.6-1.2c-3-1.2-4.6-3.3-4.6-6.2c0-3,1.5-5.5,4.9-8.2
			L125.9,38.9z M119,23.4c2.2,0.6,6.4,0.9,11.3,0.9c4.4,0,7.7-0.2,9.5-0.6l0.1,5.2c-2.2,1.1-7,4.1-9.5,6l-4.2-2.9
			c0.7-0.5,1.2-0.7,1.7-1.1l1.1-0.7c0.2-0.1,0.5-0.3,0.5-0.3l0.3-0.2c0.1,0,0.2-0.1,0.4-0.2c-1.1,0.1-1.6,0.1-2.8,0.1
			c-2.6,0-4.3-0.1-7.6-0.4c-0.7-0.1-0.7-0.1-1.2-0.1L119,23.4z M137.9,32.1c1.4,1.5,2.4,3.1,3.4,4.9l-3.1,1.7c-1.1-2.1-2-3.4-3.4-5
			L137.9,32.1z M142.2,29.8c1.3,1.4,2.2,2.7,3.4,4.7l-3,1.7c-1.2-2.1-2.1-3.5-3.3-4.9L142.2,29.8z"/>
		<path class="st0" d="M157.5,25.2c0.6-1.5,1.1-3,1.3-4.2l6.1,0.4c-0.2,0.6-0.2,0.6-1.1,2.7c-0.1,0.3-0.3,0.6-0.5,1.1h7.7
			c2.1,0,3,0,4.3-0.1c-0.1,1.1-0.2,2-0.2,4.1v20c0,1.8,0,2.8,0.2,4h-5.5v-1.5h-15.5v1.5h-5.4c0.1-1.1,0.2-2.2,0.2-3.9v-20
			c0-2,0-2.9-0.2-4.1c1.3,0.1,2.2,0.1,4.3,0.1H157.5z M154.3,32.5h15.5V30h-15.5V32.5z M154.3,39.7h15.5v-2.4h-15.5V39.7z
			 M154.3,46.9h15.5v-2.5h-15.5V46.9z"/>
		<path class="st0" d="M190.7,36c-4.6,0.6-4.6,0.6-6.9,0.8c-0.5-1.7-1-2.8-1.7-4h-2.1c0.1-0.9,0.2-1.6,0.2-2.9v-3.7
			c0-1.2,0-1.9-0.1-2.7c1.1,0.1,2.2,0.1,4.1,0.1h8.3v-0.6c0-0.7-0.1-1.2-0.2-1.9h5.7c-0.1,0.7-0.1,1.2-0.1,1.9v0.6h8.7
			c1.9,0,3,0,4.1-0.1c-0.1,0.7-0.1,1.4-0.1,2.7V30c0,1,0,1.9,0.2,2.8h-4.4c-4,1.1-6.8,1.8-10.3,2.4v2.4l11-1.1
			c1.5-0.1,3-0.4,3.9-0.6l0.5,5.3c-0.3,0-0.6,0-0.7,0c-0.7,0-2.2,0.1-3.3,0.2L196,42.6v4.1c0,0.8,0.1,1,1.1,1.1
			c0.5,0.1,2.1,0.1,3.8,0.1c2.5,0,3.8-0.2,4.2-0.6c0.5-0.4,0.6-1.5,0.7-4.3c1.9,0.8,3.2,1.3,5.1,1.6c-0.2,4.1-0.7,5.7-2.1,6.8
			c-1.4,1.1-3.1,1.4-9.7,1.4c-7,0-8.5-0.7-8.5-4.4v-5.4l-6.8,0.6c-1.9,0.2-2.8,0.3-4,0.6l-0.5-5.3c0.4,0,0.6,0,0.8,0
			c0.8,0,2.1-0.1,3.2-0.2l7.2-0.7V36z M205.5,28.5h-20.3V32c7.3-0.6,12.9-1.7,17.2-3.4l3,3.2V28.5z"/>
		<path class="st0" d="M228.9,43.4c-2,4.4-4.2,6.3-7.3,6.3c-4.6,0-7.8-4.4-7.8-10.6c0-4,1.4-7.6,3.9-10.4c3-3.3,7.3-5,12.3-5
			c4.6,0,8.6,1.5,11.1,4.2c2.2,2.3,3.3,5.6,3.3,9.5c0,4.4-1.7,8.4-4.5,11c-2.3,2.1-5,3.2-9.8,3.9c-0.8-2.4-1.5-3.7-2.9-5.6
			c3.2-0.2,5.3-0.8,7.1-1.7c2.6-1.4,4.1-4.2,4.1-7.9c0-2.9-1-5.2-3-6.7c-0.9-0.7-1.6-1-2.9-1.2C231.9,35,230.8,39.3,228.9,43.4z
			 M223.1,30.9c-2.2,1.9-3.7,5.1-3.7,8.1c0,2.4,0.9,4.3,2.1,4.3c0.8,0,1.7-1.2,2.8-3.8c1.2-3.1,2.2-7,2.5-10.4
			C225.4,29.4,224.3,29.9,223.1,30.9z"/>
		<path class="st0" d="M264.7,47.7v1.7c0,2.4,0,3,0.2,3.8h-4.8c0.1-1,0.2-2,0.2-3.8V39.2c-0.4,4.6-0.4,4.6-0.9,6.7
			c-0.5,3.1-1.1,4.9-2.2,7.2c-1-1.5-1.6-2.4-2.7-3.6c0,1.5,0,2.3,0.2,3.7h-5.4c0.2-1.8,0.2-2.3,0.2-3.9v-8.5c0-0.7,0-1.5,0.1-3.8
			c-0.5,0.9-1.1,1.6-1.6,2.2c-0.5-2.8-0.8-3.8-1.7-6.3c1.6-1.7,2.9-3.8,4-6.6c0.8-2.1,1.4-4,1.6-5.6l5.1,1.2
			c-0.1,0.4-0.2,0.6-0.4,1.2c1,0.1,1.9,0.1,3.3,0.1h0.5V23c0-0.9,0-1.2-0.1-1.7h5.2c-0.1,0.5-0.1,1-0.1,1.7v0.5h3.4V23
			c0-0.9,0-1.3-0.1-1.7h5.2c-0.1,0.5-0.1,1-0.1,1.7v0.5h1c1.6,0,3-0.1,3.6-0.2v4.7c-1.2-0.1-1.6-0.1-3.6-0.1h-1v1.6h1.2
			c2,0,2.7,0,3.8-0.1v4.7c-1-0.1-1.9-0.1-3.2-0.1h-15.1v1c0.9,0.1,1.8,0.1,3.4,0.1h10.8c1.5,0,2.2,0,3.2-0.1
			c-0.1,0.8-0.1,1.7-0.1,3.6v11.5c0,2.7-0.8,3.2-5.6,3.3c-0.2-1.7-0.4-2.3-0.8-3.7c0.4,0,0.8,0.1,1.2,0.1c0.5,0,0.6-0.1,0.6-0.7v-1
			H271V49c0,2.1,0,3,0.1,3.8h-4.5c0.1-1.1,0.2-2,0.2-3.8v-1.3H264.7z M254.4,46.7c0.4-1.3,0.6-2.1,0.8-3.4c0.3-2,0.5-5.9,0.5-9.8
			c0-2,0-2.9-0.1-4.2c1.4,0.1,1.9,0.1,3.7,0.1h1.1v-1.6H260c-2,0-2.5,0-3.6,0.1v-3.6c-0.6,2.1-1,3-1.9,5V46.7z M266.8,38.5h-2.1v1.4
			h2.1V38.5z M266.8,43h-2.1v1.4h2.1V43z M268.9,29.4v-1.6h-3.4v1.6H268.9z M273.2,39.9v-1.4H271v1.4H273.2z M273.2,44.4V43H271v1.4
			H273.2z"/>
		<path class="st0" d="M288.6,22.8c0-0.7,0-1-0.1-1.6h5.2c-0.1,0.6-0.1,1-0.1,1.6h6.6c0-0.6,0-1.1-0.1-1.6h5.2
			c-0.1,0.6-0.1,1-0.1,1.6h3.3c1.8,0,3-0.1,4.1-0.2v4.2c-1.2-0.1-2.2-0.2-4.1-0.2h-3.3c0,0.4,0,0.5,0.1,1.1h-4.9
			c0-0.3,0.1-0.6,0.1-1.1h-7.2c0,0.6,0,0.6,0.1,1.1h-4.9c0.1-0.4,0.1-0.5,0.1-1.1h-3c-1.9,0-2.9,0-4.1,0.2v-4.2
			c1.2,0.1,2.4,0.2,4.1,0.2H288.6z M304.7,33.8c-2.1,1.7-3.5,2.8-4,3.2c0.6,0,1.2-0.1,1.5-0.1c1.3,0,1.3,0,2.4-0.1
			c-0.5-0.4-0.7-0.6-1.3-1.1l3.7-2.4c2.5,2,4.3,3.7,6.4,6.1l-3.4,2.8c-0.1,0.7-0.1,1.3-0.1,2.7v5c0,1.3,0.1,2.3,0.2,3.5h-5.2v-1.2
			h-15.5v1.2h-5.2c0.1-1.1,0.2-2.3,0.2-3.5v-5.1c0-1.2,0-2.2-0.1-3.2c1.3,0.1,1.5,0.1,3.6,0.1h18.5c1.4,0,1.8,0,2.4,0
			c-0.5-0.6-0.7-0.9-1.1-1.4c-9.6,0.6-9.6,0.6-23.3,1.1c-1.1,0.1-1.6,0.1-2.2,0.2l-0.5-4.5c1.2,0.2,2.5,0.2,7.4,0.2
			c-1.5-0.7-2.4-1.2-4.3-2.1l3.1-2.6h-1.7c-1.9,0-3,0-4.1,0.2v-4.3c1.1,0.1,2.4,0.2,4.1,0.2h8.3c0-0.6,0-0.7-0.1-1.2h5.1
			c-0.1,0.3-0.1,0.6-0.1,1.2h8.7c1.6,0,3.1-0.1,4.1-0.2v4.3c-0.9-0.1-2.2-0.2-4.1-0.2h-6.4L304.7,33.8z M288.2,32.4
			c1.3,0.6,1.8,0.9,2.5,1.3c0.6-0.5,0.8-0.7,1.5-1.3H288.2z M289.4,45.5h5.3v-1h-5.3V45.5z M289.4,49.1h5.3v-1h-5.3V49.1z
			 M297.8,32.4c-1,1-2.1,1.9-3.6,3.2c0.7,0.4,0.7,0.4,1.1,0.6c1.4-1,3.4-2.7,4.6-3.8H297.8z M299.5,45.5h5.4v-1h-5.4V45.5z
			 M299.5,49.1h5.4v-1h-5.4V49.1z"/>
		<path class="st0" d="M315.8,53.1c0.1-1.1,0.2-2,0.2-3.9V40c0-1.2,0-2.1-0.1-3.2c1.1,0.1,2,0.1,3.5,0.1h8.4c0.9,0,1.6,0,2.3-0.1
			c-0.1,0.6-0.1,1.1-0.1,2.7v10.2c0,1.2,0,2,0.1,2.8H325v-1h-3.9v1.5H315.8z M320.1,25.3c0-1.3,0-2.1-0.1-3.1c1,0.1,2.1,0.1,3.9,0.1
			h14.5c1.9,0,3,0,3.9-0.1c-0.1,0.8-0.1,1.8-0.1,3.1v6.8c0,1.5,0,2.4,0.1,3.3c-1-0.1-1.6-0.1-3.5-0.1h-15.4c-1.8,0-2.5,0-3.4,0.1
			c0.1-0.9,0.1-2,0.1-3.3V25.3z M325,41.7h-4V47h4V41.7z M325.2,27.1v3.5h11.7v-3.5H325.2z M343.1,37c1.5,0,2.4,0,3.2-0.1
			c-0.1,1-0.1,1.8-0.1,3.2v9.2c0,1.9,0,2.8,0.2,3.8H341v-1.5h-4.3v1.5h-5c0.1-0.8,0.1-1.6,0.1-2.8V39.6c0-1.6,0-1.9-0.1-2.7
			c0.7,0.1,1.4,0.1,2.3,0.1H343.1z M336.7,47h4.3v-5.3h-4.3V47z"/>
		<path class="st0" d="M364.5,43.4c-2,4.4-4.2,6.3-7.3,6.3c-4.6,0-7.8-4.4-7.8-10.6c0-4,1.4-7.6,3.9-10.4c3-3.3,7.3-5,12.3-5
			c4.6,0,8.6,1.5,11.1,4.2c2.2,2.3,3.3,5.6,3.3,9.5c0,4.4-1.7,8.4-4.5,11c-2.3,2.1-5,3.2-9.8,3.9c-0.8-2.4-1.5-3.7-2.9-5.6
			c3.2-0.2,5.3-0.8,7.1-1.7c2.6-1.4,4.1-4.2,4.1-7.9c0-2.9-1-5.2-3-6.7c-0.9-0.7-1.6-1-2.9-1.2C367.5,35,366.4,39.3,364.5,43.4z
			 M358.7,30.9c-2.2,1.9-3.7,5.1-3.7,8.1c0,2.4,0.9,4.3,2.1,4.3c0.9,0,1.7-1.2,2.8-3.8c1.2-3.1,2.2-7,2.5-10.4
			C361,29.4,359.9,29.9,358.7,30.9z"/>
		<path class="st0" d="M414.9,31.3c-0.7-0.1-0.9-0.1-1.8-0.1c-0.3,5.6-1.2,9.5-3.2,13.1c1.6,1.8,3.3,3.2,5.4,4.2
			c-1.2,1.7-1.9,3.1-2.8,5.1c-2.1-1.3-4-3-5.7-5c-2,2.2-4,3.6-6.7,5.1c-0.7-1.4-1.2-2.1-2-3.3l-1.3,2.1c-1.5-1.1-2-1.5-3.6-2.4
			c-2.3,1.8-4.5,2.8-8,3.5c-0.7-1.9-1.2-2.8-2.4-4.4c2.6-0.2,3.9-0.5,5.8-1.4c-1.7-0.7-2.5-1.1-4.9-1.9c1.1-1.6,1.5-2.2,2.2-3.3
			c-1.4,0-2.1,0-3,0.2v-4.7c0.8,0.1,1.6,0.2,2.9,0.2h2.2c0.3-0.6,0.3-0.9,0.6-1.7l5,0.7c-0.2,0.3-0.3,0.6-0.5,1h4.6
			c0.8,0,1.2,0,1.9-0.1c-0.6-1.1-1-1.6-1.7-2.5c-0.2,0.4-0.3,0.6-0.5,1.2c-1.7-1.2-2.2-1.8-3-3.1c0,0.4,0.1,1,0.1,1.2v0.6
			c0,0.4,0,0.7,0.1,1.1h-5c0-0.1,0-0.1,0-0.4c0,0,0,0,0-0.6v-0.5c0-0.2,0-0.7,0.1-1.3c-1.8,2.1-2.5,2.8-4.8,4.3
			c-0.8-1.7-1.5-2.6-2.7-3.9c1.9-0.8,3.3-1.7,4.7-3h-1c-1.2,0-2.2,0-3,0.1v-4.3c0.8,0.1,1.5,0.1,2.8,0.1c-0.8-1.7-1.5-2.7-2.6-3.9
			l3.9-1.8c1.2,1.4,1.8,2.3,2.5,3.5v-1.4c0-1.1-0.1-1.7-0.2-2.2h5.1c-0.1,0.6-0.1,1.1-0.1,2.2v1.9c1-1.5,1.7-2.7,2.2-4.2l4.2,1.8
			c-0.9,1.8-1.4,2.8-2.2,4c1,0,1.4,0,1.7-0.1v3.9c1.3-3,2.5-7.6,2.5-9.9l5.2,1c-0.1,0.3-0.1,0.3-0.2,0.8c0,0-0.1,0.3-0.1,0.6
			c-0.1,0.1-0.1,0.4-0.2,0.8c-0.2,1-0.3,1.2-0.6,2.2h4.8c1.7,0,2.5,0,3.2-0.2V31.3z M389.6,25.7l-3.1,1.5h3.1V25.7z M391,42.7
			c-0.3,0.5-0.4,0.7-0.7,1.2c1,0.3,1.3,0.4,2.1,0.7c0.5-0.8,0.6-1.1,0.9-2H391z M397.4,27.2l-3-1.3v1.3H397.4z M400.4,42.8
			c-0.6-0.1-1.2-0.1-2.3-0.1c-0.5,1.7-0.8,2.4-1.6,3.7c1.1,0.5,1.5,0.7,3,1.6c1.8-1.1,3.2-2.2,4.4-3.7c-1.1-2.1-1.6-3.6-2.2-6.3
			c-0.4,0.6-0.6,0.7-1.3,1.6V42.8z M396.8,31.3c0.6,0.6,1.1,0.9,2.5,1.7c0.3-0.6,0.5-1,0.9-1.7c-0.4,0-1-0.1-1.9-0.1H396.8z
			 M405.3,31.2c-0.2,0.4-0.2,0.6-0.4,1c0.5,3.1,0.9,4.6,2,7.1c0.9-2.5,1.2-4.7,1.4-8.2H405.3z"/>
		<path class="st0" d="M418.1,24.8c1.5,0.3,3.5,0.5,7,0.5c0.2,0,0.5,0,1,0c0.7-1.6,0.9-2.5,1.1-3.8l6.2,0.5
			c-0.3,0.5-0.3,0.5-0.7,1.6c-0.4,1-0.6,1.5-0.7,1.6c0.3,0,0.3,0,2.1-0.1c3.3-0.2,6.8-0.6,8.6-1.1l0.2,5.4c-1.1,0.1-2.1,0.2-3.1,0.3
			c-2.4,0.2-6.7,0.5-10.1,0.6c-0.6,1-0.8,1.4-1.6,2.5c1.5-0.7,2.9-1,4.3-1c2.8,0,4.5,1.1,5.2,3.3c0.6-0.2,0.6-0.2,2.4-0.8
			c0.1,0,1-0.3,2.1-0.7c1.9-0.6,2.2-0.7,2.7-1l2.1,5.4c-1.8,0.2-5.4,1.2-8.7,2.3c0,0.9,0,1,0,2.4c0,1.5,0,2,0.1,2.9l-5.5,0.2
			c0.1-0.5,0.1-1.6,0.2-3.6l-0.3,0.1c-1.6,0.7-1.8,0.9-2.4,1.4c-0.6,0.5-0.9,1.1-0.9,1.7c0,1.3,1.3,1.8,4.6,1.8
			c4.1,0,8-0.6,10.9-1.7l0.4,6.1c-1,0-1,0-3,0.3c-2.7,0.3-5.5,0.5-8.2,0.5c-3.8,0-6.3-0.5-8.1-1.6c-1.7-1-2.7-2.8-2.7-4.8
			c0-1.6,0.5-2.9,1.7-4.3c1.3-1.5,2.8-2.6,4.9-3.6c0.8-0.4,1.2-0.5,2.5-1.2c-0.3-0.6-0.7-0.9-1.4-0.9c-1.7,0-4.1,1.2-6.5,3.3
			c-1.4,1.3-2.3,2.2-3.3,3.4l-4.3-4.3c1.1-0.8,2.5-2.2,3.6-3.5c0.7-0.9,2.1-2.9,2.6-3.7c0.5-0.8,0.5-0.8,0.6-1.1c-0.5,0-0.8,0-1.1,0
			c-1.5,0-1.5,0-2.9,0c-0.5,0-0.7,0-1.2,0c-0.1,0-0.3,0-0.5,0L418.1,24.8z"/>
		<path class="st0" d="M458.8,27.3c-1.2,0-2.4,0.1-3.9,0.2v-5.4c1.2,0.2,2,0.2,3.8,0.2h6.3c1.2,0,2.1,0,3-0.1c0,1-0.1,1.5-0.1,2.2
			c0,5.3,1.5,10.6,4.4,14.9c2.2,3.5,5.4,6.4,9.4,8.6c-1.7,1.7-2.6,3-3.7,5.4c-2.9-2-4.8-3.6-6.9-6.2c-2.8-3.4-4.3-6.1-5.5-10.1
			c-1.4,4.1-2.7,6.6-5,9.5c-2.1,2.6-4.4,4.6-8,6.8c-1.1-2.1-2-3.3-3.6-4.9c2.7-1.5,4.1-2.5,5.8-4.1c2.9-2.8,5.1-6.4,6.3-10.3
			c0.6-2.1,0.9-3.8,1.1-6.6H458.8z"/>
		<path class="st0" d="M508.5,27.9c2.2,0,3.5,0,4.8-0.2c-0.1,1.4-0.2,1.8-0.2,3.6c-0.1,7.4-0.5,13.9-1,16.7
			c-0.3,1.7-1.1,3.1-2.2,3.7c-1.1,0.6-2.7,0.9-4.9,0.9c-1.2,0-2.2,0-4.4-0.2c-0.3-2.4-0.6-3.9-1.4-5.7c2.1,0.3,3.3,0.4,4.6,0.4
			c1.8,0,2.4-0.2,2.8-1c0.5-1.4,0.9-6.1,0.9-12.9h-7.8c-0.7,6-2.1,9.9-4.7,13.3c-1.9,2.5-4.5,4.7-8.2,6.7c-1.3-2.2-2.2-3.6-3.9-5.1
			c4.2-1.9,6.9-4,8.7-6.9c1.4-2.2,2-4.4,2.4-8h-5.2c-1.5,0-3,0.1-4.2,0.2v-5.7c1.4,0.2,2.7,0.2,4.4,0.2h5.4c0-1,0-1.3,0-2
			c0-2-0.1-3.1-0.2-4.2h6.4c-0.2,1-0.2,1-0.3,5c0,0.4,0,0.5,0,1.2H508.5z"/>
	</g>
</g>
<g class="st3">
	<path d="M60,118.7c-1.4,0-2.9,0.1-4.2,0.2v-4.5c1.4,0.1,2.6,0.2,4.2,0.2h19.5c1.5,0,2.8-0.1,4.2-0.2v4.5c-1.3-0.1-2.7-0.2-4.2-0.2
		h-7.5v1.7h2.9c1.2,0,1.8,0,2.4-0.1c-0.1,0.7-0.1,1.3-0.1,2.3v10.9c0,1.4,0,1.7,0.1,2.3c-0.3,0-0.3,0-1.4-0.1H63.6
		c-1.1,0.1-1.1,0.1-1.4,0.1c0.1-0.7,0.1-1,0.1-2.3v-10.9c0-1,0-1.7-0.1-2.3c0.7,0.1,1.2,0.1,2.4,0.1h2.9v-1.7H60z M82.8,120.5
		c-0.1,1.2-0.2,2.6-0.2,3.7v13.4c0,1.5,0.1,2.8,0.2,4.5h-4.7V141h-17v1.1h-4.7c0.2-1.4,0.2-2.8,0.2-4.4v-13.6c0-1.1-0.1-2.3-0.2-3.6
		h4.6c-0.1,0.6-0.1,1.1-0.1,2.5v13.8h17.3v-13.9c0-1.1,0-1.7-0.1-2.3H82.8z M66,124.3v1.8h1.7v-1.8H66z M66,129.9v2.1h1.7v-2.1H66z
		 M73.3,126.1v-1.8h-1.8v1.8H73.3z M73.3,131.9v-2.1h-1.8v2.1H73.3z"/>
	<path d="M95.9,120.6c0.4-0.6,0.7-1.2,0.9-1.8h-6.7c-1.7,0-3,0.1-4.2,0.2v-4.5c1.4,0.1,2.6,0.2,4.2,0.2h19.5c1.5,0,2.8-0.1,4.2-0.2
		v4.5c-1.3-0.1-2.5-0.2-4.2-0.2H102c-0.2,0.5-0.5,1.1-0.9,1.8h8.2c1.7,0,2.6,0,3.5-0.1c-0.1,1.2-0.2,2-0.2,3.9v13.3
		c0,1.7,0.1,3.1,0.2,4.5h-4.6V141H91.4v1.1h-4.6c0.1-1.4,0.2-2.5,0.2-4.5v-13.2c0-1.5-0.1-2.6-0.2-3.9c0.9,0.1,1.9,0.1,3.6,0.1H95.9
		z M93.4,124.6h-2v12.3h2V124.6z M97.6,124.6v1.7h4.2v-1.7H97.6z M97.6,131.5h4.2v-1.6h-4.2V131.5z M101.9,135.1h-4.2v1.8h4.2V135.1
		z M106.1,136.9h2.1v-12.3h-2.1V136.9z"/>
	<path d="M129.5,133.3c-1.7,3.9-3.8,5.5-6.5,5.5c-4,0-6.9-3.9-6.9-9.4c0-3.5,1.2-6.7,3.5-9.2c2.7-2.9,6.5-4.4,10.9-4.4
		c4,0,7.6,1.4,9.8,3.7c1.9,2,3,5,3,8.4c0,3.9-1.5,7.5-4,9.7c-2,1.8-4.4,2.8-8.6,3.5c-0.7-2.2-1.3-3.3-2.6-4.9
		c2.8-0.2,4.7-0.7,6.3-1.5c2.3-1.2,3.6-3.8,3.6-7c0-2.6-0.9-4.6-2.7-5.9c-0.8-0.6-1.4-0.9-2.5-1.1
		C132.2,125.8,131.1,129.7,129.5,133.3z M124.3,122.3c-2,1.7-3.3,4.5-3.3,7.2c0,2.1,0.8,3.8,1.9,3.8c0.8,0,1.5-1.1,2.4-3.3
		c1.1-2.7,1.9-6.2,2.3-9.2C126.3,120.9,125.4,121.4,124.3,122.3z"/>
	<path d="M149.5,116.8c0-1.6,0-2.1-0.2-3.1h4.9c-0.1,0.9-0.2,1.5-0.2,3.1v2.1h0.2c0.7,0,1.4,0,2.2-0.1v4.5c-0.8-0.1-1.5-0.1-2.2-0.1
		h-0.3v3.4c1.4-0.3,1.4-0.3,2.6-0.6v4.1c-1.2,0.4-1.4,0.4-2.6,0.8v7.5c0,2.7-1.2,3.5-5,3.5c-0.5,0-1.2,0-2.5-0.1
		c-0.2-1.8-0.4-2.8-1-4.5c1.6,0.2,2.3,0.3,3.1,0.3c0.6,0,0.8-0.2,0.8-0.8v-4.8c-0.2,0.1-0.2,0.1-0.8,0.2c-0.5,0.1-1.1,0.2-1.7,0.4
		c-0.2,0-0.4,0.1-0.8,0.2l-0.6-4.8c0.9,0,1.9-0.2,3.9-0.4v-4.3h-1.3c-0.8,0-1.3,0-2.2,0.1v-4.5c0.8,0.1,1.4,0.2,2.2,0.2h1.3V116.8z
		 M162,113.7c-0.1,0.8-0.1,1.1-0.1,2.6c3.6-0.5,7-1.5,8.6-2.5l3.2,3.8c-4.7,1.3-7.4,1.9-11.8,2.4v0.8c0,0.8,0.3,0.9,3.2,0.9
		c3.1,0,3.9-0.1,4.2-0.5c0.3-0.3,0.4-1,0.5-2.6c1.7,0.6,2.8,0.9,4.4,1.1c-0.2,2.4-0.4,3.3-0.9,4.1c-1,1.6-2.4,1.9-8.7,1.9
		c-5.9,0-7.3-0.6-7.3-3.1v-6.2c0-1.2,0-2-0.1-2.7H162z M157.4,129.5c0-1.6,0-2-0.1-2.7c0.8,0.1,1.4,0.1,2.7,0.1h9.6
		c1.5,0,2.2,0,2.9-0.1c-0.1,0.7-0.1,1.4-0.1,2.8v9.2c0,1.7,0,2.4,0.2,3.2h-4.7v-1.1h-6v1.1h-4.6c0.1-0.8,0.2-1.4,0.2-3V129.5z
		 M161.9,132h6v-1.4h-6V132z M161.9,137h6v-1.5h-6V137z"/>
	<path d="M185.6,129.2c-1.5,4.3-3.4,7.7-6.2,10.9c-1.2-1.3-2.2-2.1-3.8-3.2c2.6-2.4,4.6-5.8,5.7-9.4L185.6,129.2z M180.4,126.3
		c-1.9,0-2.8,0-4.1,0.2v-4.8c1.3,0.2,2.1,0.2,4.2,0.2h18.7c1.8,0,2.8,0,4.2-0.2v4.8c-1.3-0.2-2.3-0.2-4.1-0.2h-6.8v11.3
		c0,2.1-0.6,3.3-2,3.8c-0.8,0.3-2,0.4-4.1,0.4c-0.8,0-1.3,0-2.5-0.1c-0.2-1.7-0.5-2.9-1.1-4.5c1.3,0.2,2.6,0.3,3.6,0.3
		c1.1,0,1.3-0.1,1.3-0.8v-10.4H180.4z M200.5,119.4c-1.3-0.1-2.7-0.2-4.2-0.2h-13.2c-1.3,0-2.5,0.1-4,0.2v-4.7
		c1.3,0.1,2.3,0.2,4.1,0.2h13.3c1.5,0,2.9-0.1,4.1-0.2V119.4z M198.3,127.5c0.8,2.1,1.4,3.4,2.7,5.2c1.1,1.5,1.8,2.3,3.3,3.7
		c-1.6,1.4-2.5,2.3-3.7,3.7c-3.1-3.6-4.8-6.3-6.6-10.9L198.3,127.5z"/>
	<path d="M214.6,115.4c-1.2,3.4-2.1,9.1-2.3,14.5l2.3,0.8c-0.8,2.7-1.2,5.4-1.2,8.4c0,0.6,0,0.8,0.1,1.5l-5.2,0.2
		c0-0.6,0-0.8-0.2-1.6c-0.6-4-0.8-6.7-0.8-9.5c0-3.5,0.4-7.3,1.1-11.6c0.4-2.1,0.4-2.3,0.5-3.2L214.6,115.4z M222.9,128.6
		c-1.4,1.8-2,3.1-2,4.2c0,1.4,1.4,2.1,3.9,2.1c2.7,0,5.2-0.4,7.5-1.2l0.3,5.3c-0.8,0.1-0.8,0.1-2.6,0.4c-1.6,0.2-3.5,0.4-5.2,0.4
		c-2.8,0-4.7-0.4-6.2-1.3c-1.7-1-2.8-2.8-2.8-4.8c0-1.5,0.5-3.1,1.4-4.7c0.4-0.7,0.6-1,1.4-2.2L222.9,128.6z M217,117.7
		c1.4,0.3,3,0.5,5.4,0.5c4,0,7-0.2,9-0.8l0.2,5.2c-0.3,0-0.6,0-2.2,0.2c-2.1,0.2-4.3,0.3-6.4,0.3c-1.8,0-3.3-0.1-5.2-0.2
		c-0.2,0-0.5,0-0.9-0.1L217,117.7z"/>
	<path d="M255.9,127.5h2.9c1.4,0,2.2,0,3.2-0.2v4.5c-1-0.1-2-0.2-3.3-0.2h-2.8v5.1c1.3,0.2,2.4,0.3,4.1,0.3c1.1,0,1.9,0,3.9-0.2
		c-0.7,1.8-0.9,2.9-1.2,4.7c-0.8,0-1.3,0-1.7,0c-6.8,0-10.2-1.3-13-4.9c-0.8,2.3-1.4,3.7-2.6,5.4c-1.1-1.5-2-2.4-3.1-3.3
		c0,1.7,0,2.3,0.1,3.2h-4.8c0.1-1.1,0.2-2.1,0.2-3.5v-3.9c0-1.3,0-1.9,0-3.4c-1,0.9-1,0.9-1.6,1.4c-0.4-1.9-0.9-3.2-1.7-4.8
		c2.7-1.8,5.3-4.7,6.6-7.3l2.9,2.2v-3c0.8,0.1,1.6,0.1,3.2,0.1h0.8c-0.8-1.7-1.5-3-2.5-4.4l4.1-1.8c1.3,1.6,2,2.8,3.1,4.9l-3,1.3h4
		c1.1-2,1.9-3.8,2.6-6.2l4.7,1.4c-0.8,2-1.6,3.6-2.4,4.8h1.2c1.7,0,2.3,0,3.3-0.2v4.5c-1.1-0.1-2.1-0.2-3.5-0.2h-3.6V127.5z
		 M244.7,116.2c-0.2,0.2-0.2,0.2-0.9,1c-0.8,0.8-2.3,2.2-3.6,3.4c-0.8,0.7-1.7,1.4-3.1,2.3c-0.7-1.7-1.2-2.6-2.2-4.1
		c2-1.1,3.6-2.3,5.2-3.9c0.5-0.5,0.8-0.9,1.1-1.4L244.7,116.2z M247.7,124c-1.6,0-2.5,0-3.5,0.1c-0.8,1.3-1,1.5-1.9,2.6V138
		c1.7-2.7,3-7.6,3-11.7c0-0.3,0-0.4,0-0.7l4.6,0.6c-0.1,0.5-0.2,0.9-0.2,1.7c-0.1,1.4-0.3,2.6-0.5,3.9c0.7,1.4,1.1,1.9,2.1,2.9V124
		H247.7z"/>
	<path d="M266.6,124.3c1.1-0.1,1.1-0.1,3.5-0.6c4.2-0.8,7-1.2,9.5-1.2c3,0,5,0.6,6.6,1.9c1.6,1.3,2.5,3.3,2.5,5.7c0,4.6-3,8-8.3,9.7
		c-2.1,0.6-2.6,0.7-6.8,1.2c-0.4-1.9-0.7-2.9-1.8-4.8c2.8,0,5.1-0.3,7.3-1c2-0.6,3.7-1.9,4.3-3.3c0.2-0.5,0.4-1.1,0.4-1.8
		c0-1.9-1.6-3-4.3-3c-2,0-4.5,0.4-7.9,1.1c-2,0.5-2.7,0.6-3.8,1.1L266.6,124.3z"/>
	<path d="M291.2,117.4c0.5,0,0.9,0,1.1,0c0.8,0,1.9-0.1,5.2-0.3c4.7-0.3,6.9-0.4,16.1-0.8c2.5-0.1,2.8-0.1,3.3-0.2l0.3,5.5
		c-0.4-0.1-0.5-0.1-0.8-0.1c-2.1,0-4.8,0.8-6.9,2.1c-3,1.8-4.8,4.4-4.8,6.9c0,1.7,0.8,2.9,2.5,3.7c1.2,0.6,3.8,1.1,5.8,1.1
		c0.3,0,0.5,0,0.9-0.1l-0.7,5.8c-0.4-0.1-0.6-0.1-1.1-0.2c-3.4-0.3-5.7-0.8-7.6-1.7c-3.6-1.7-5.4-4.4-5.4-8.3c0-2.5,0.8-4.8,2.6-6.8
		c0.8-1,1.5-1.6,3-2.6l-10.4,0.9c-1.2,0.1-1.5,0.2-2.6,0.4L291.2,117.4z"/>
	<path d="M106.7,171.9c-0.6-0.1-0.8-0.1-1.6-0.1c-0.2,5-1.1,8.4-2.8,11.6c1.4,1.6,3,2.9,4.8,3.7c-1.1,1.5-1.7,2.7-2.4,4.5
		c-1.9-1.1-3.6-2.6-5.1-4.4c-1.8,1.9-3.5,3.2-5.9,4.5c-0.6-1.2-1-1.9-1.8-2.9l-1.2,1.9c-1.3-1-1.8-1.3-3.2-2.1c-2,1.6-4,2.5-7.1,3.1
		c-0.7-1.7-1.1-2.5-2.2-3.9c2.3-0.2,3.5-0.5,5.2-1.3c-1.5-0.7-2.3-1-4.3-1.7c1-1.4,1.4-1.9,1.9-2.9c-1.3,0-1.8,0-2.7,0.2V178
		c0.7,0.1,1.4,0.2,2.6,0.2h2c0.2-0.6,0.3-0.8,0.6-1.5l4.5,0.6c-0.2,0.3-0.3,0.6-0.4,0.9h4c0.7,0,1,0,1.7-0.1c-0.5-1-0.9-1.4-1.5-2.2
		c-0.2,0.4-0.3,0.5-0.5,1c-1.5-1.1-2-1.6-2.7-2.7c0,0.4,0.1,0.9,0.1,1v0.5c0,0.3,0,0.6,0.1,0.9h-4.4c0-0.1,0-0.1,0-0.3
		c0,0,0,0,0-0.5v-0.5c0-0.2,0-0.6,0.1-1.1c-1.6,1.9-2.3,2.5-4.2,3.8c-0.8-1.5-1.3-2.3-2.4-3.4c1.7-0.7,2.9-1.5,4.2-2.7H81
		c-1.1,0-1.9,0-2.7,0.1v-3.8c0.8,0.1,1.4,0.1,2.5,0.1c-0.8-1.5-1.4-2.3-2.3-3.5l3.5-1.6c1,1.2,1.6,2,2.3,3.1v-1.2c0-1-0.1-1.5-0.2-2
		h4.5c-0.1,0.5-0.1,1-0.1,2v1.7c0.9-1.3,1.5-2.4,2-3.7l3.7,1.6c-0.8,1.6-1.2,2.4-2,3.6c0.9,0,1.2,0,1.5-0.1v3.5
		C95,169,96,165,96,162.9l4.6,0.9c-0.1,0.2-0.1,0.2-0.2,0.7c0,0-0.1,0.2-0.1,0.5c-0.1,0.1-0.1,0.4-0.2,0.7c-0.2,0.9-0.3,1.1-0.5,2
		h4.3c1.5,0,2.2,0,2.9-0.2V171.9z M84.3,166.9l-2.8,1.3h2.8V166.9z M85.5,182c-0.3,0.5-0.4,0.6-0.7,1.1c0.9,0.3,1.2,0.4,1.8,0.7
		c0.5-0.7,0.6-1,0.8-1.7H85.5z M91.2,168.3l-2.6-1.2v1.2H91.2z M93.9,182.1c-0.6-0.1-1-0.1-2-0.1c-0.5,1.5-0.7,2.2-1.4,3.3
		c1,0.4,1.3,0.6,2.7,1.4c1.6-1,2.8-2,3.9-3.3c-1-1.9-1.4-3.2-2-5.6c-0.4,0.5-0.5,0.6-1.2,1.4V182.1z M90.6,171.9
		c0.5,0.5,0.9,0.8,2.3,1.5c0.3-0.5,0.5-0.8,0.8-1.5c-0.4,0-0.8-0.1-1.7-0.1H90.6z M98.2,171.8c-0.2,0.4-0.2,0.5-0.4,0.9
		c0.4,2.7,0.8,4.1,1.7,6.3c0.8-2.2,1.1-4.1,1.2-7.2H98.2z"/>
	<path d="M120.5,178.6c0-0.4,0-1-0.1-1.5h1.8c1.1-0.8,1.6-1.2,2.1-1.7h-6.9c-1.5,0-2.4,0-3.3,0.2v-4.4c1,0.1,1.8,0.1,3.3,0.1h9.5
		c1.3,0,1.8,0,2.4-0.1l2.3,3c-0.5,0.4-0.6,0.5-1,0.9c-1.6,1.5-3.3,2.9-4.7,3.9h6.1c1.6,0,3.2-0.1,4.2-0.2v4.7
		c-1.1-0.1-2.7-0.2-4.2-0.2h-6.9v4.3c0,3-1.1,3.8-5.3,3.8c-0.9,0-2.1,0-3.6-0.1c-0.2-1.6-0.5-2.3-1.4-4.3c1.6,0.2,3.1,0.3,4.1,0.3
		c1.2,0,1.6-0.2,1.6-0.7v-3.3h-7.8c-1.5,0-3.1,0.1-4.2,0.2v-4.7c1.2,0.2,2.6,0.2,4.2,0.2h7.8V178.6z M119.7,165.2
		c0-0.8,0-1.4-0.1-2.1h5.1c-0.1,0.6-0.2,1.2-0.2,2v0.5h7.7c1.7,0,2.6,0,3.7-0.1c-0.1,0.8-0.1,1.4-0.1,2.5v3.2c0,0.9,0.1,1.7,0.2,2.5
		h-4.6v-3.9h-18v3.9h-4.6c0.1-0.7,0.2-1.4,0.2-2.5V168c0-1.1,0-1.7-0.1-2.5c1.1,0.1,2,0.1,3.7,0.1h7.3V165.2z"/>
	<path d="M139.6,166.1c1.3,0.3,3.1,0.4,6.2,0.4c0.2,0,0.5,0,0.8,0c0.6-1.4,0.8-2.3,0.9-3.3l5.5,0.4c-0.2,0.5-0.3,0.5-0.6,1.4
		c-0.4,0.9-0.6,1.4-0.6,1.4c0.3,0,0.3,0,1.8-0.1c3-0.2,6-0.5,7.6-1l0.2,4.8c-0.9,0.1-1.8,0.2-2.7,0.3c-2.1,0.2-5.9,0.4-9,0.5
		c-0.5,0.9-0.7,1.3-1.4,2.2c1.3-0.6,2.5-0.9,3.8-0.9c2.5,0,4,1,4.6,2.9c0.5-0.2,0.5-0.2,2.1-0.7c0.1,0,0.9-0.3,1.9-0.6
		c1.7-0.6,1.9-0.6,2.4-0.9l1.8,4.8c-1.6,0.2-4.8,1.1-7.7,2c0,0.8,0,0.8,0,2.2c0,1.4,0,1.8,0.1,2.6l-4.9,0.2c0.1-0.5,0.1-1.4,0.2-3.2
		l-0.3,0.1c-1.4,0.7-1.6,0.8-2.1,1.3c-0.5,0.5-0.8,1-0.8,1.5c0,1.1,1.1,1.6,4,1.6c3.6,0,7.1-0.5,9.6-1.5l0.3,5.4
		c-0.9,0-0.9,0-2.7,0.3c-2.4,0.3-4.9,0.5-7.3,0.5c-3.4,0-5.5-0.4-7.2-1.4c-1.5-0.9-2.4-2.5-2.4-4.3c0-1.4,0.5-2.6,1.5-3.8
		c1.1-1.3,2.5-2.3,4.3-3.2c0.7-0.4,1-0.5,2.2-1c-0.3-0.5-0.6-0.8-1.2-0.8c-1.5,0-3.6,1.1-5.7,2.9c-1.3,1.1-2.1,2-2.9,3l-3.8-3.8
		c1-0.7,2.2-2,3.2-3.1c0.7-0.8,1.9-2.6,2.3-3.3c0.5-0.8,0.5-0.8,0.6-1c-0.4,0-0.8,0-1,0c-1.3,0-1.3,0-2.6,0c-0.4,0-0.6,0-1.1,0
		c-0.1,0-0.2,0-0.5,0L139.6,166.1z"/>
	<path d="M174.9,184.5c0.9,1.4,1.7,1.8,3.2,2c-0.8-1-1-1.2-2.3-2.4c1.8-0.3,2.8-0.6,4.2-1.1h-2.3c-1.1,0-1.5,0-2.1,0.1v-3.5
		c0.7,0.1,1,0.1,2.1,0.1h1.5v-1.3h-0.3c-1.7,0-2,0-2.8,0.1v-3.4c0.8,0.1,1.1,0.1,2.8,0.1h0.3v-1.1c-1.7,0-2.3-0.1-2.8-0.2
		c-0.7-0.3-1-0.8-1-1.8v-3.2l-3,3c-1.7-2.3-2.8-3.4-5.2-5.5l3.4-3.3c2,1.7,3.4,3,4.8,4.6c0.8,0.1,0.9,0.1,2.2,0.1h2.8v-0.9h-2.9
		c-1.4,0-1.8,0-2.5,0.1v-3.4c0.8,0.1,1.6,0.1,2.6,0.1h4.2c1.6,0,2,0,2.7-0.1c-0.1,0.3-0.1,0.5-0.1,1.1l0,0.6v3.2
		c0,0.9,0,1.4,0.1,1.7c-0.7,0-1.3-0.1-2-0.1h-3.3v0.7c0,0.5,0.1,0.5,0.9,0.5c0.5,0,0.9-0.1,1.1-0.2c0.1-0.1,0.2-0.4,0.2-0.8
		c0-0.1,0-0.1,0-0.2c1.3,0.5,2.3,0.7,3.5,0.9c-0.2,1.8-0.4,2.2-1.4,2.7v1.4h3.2V174c-0.9-0.3-1.3-0.9-1.3-1.9v-2.4
		c0-0.9,0-0.9-0.1-2c0.8,0.1,1,0.1,2.3,0.1h2.7v-0.9h-2.6c-1.4,0-1.8,0-2.5,0.1v-3.4c0.8,0.1,1.6,0.1,2.6,0.1h4.1c1.6,0,2,0,2.7-0.1
		c-0.1,0.4-0.1,0.6-0.1,1v3.9c0,0.9,0,1.4,0.1,1.7c-0.7,0-1.3-0.1-2-0.1h-3.2v0.7c0,0.4,0.2,0.5,1,0.5c0.5,0,1-0.1,1.1-0.2
		c0.1-0.1,0.1-0.1,0.2-0.6v-0.2c0,0,0-0.1,0-0.1c1.1,0.4,2.3,0.6,3.8,0.8c-0.2,1.6-0.4,2.2-1.1,2.6c-0.5,0.3-1.2,0.4-3.4,0.5v1.1h1
		c1.7,0,2,0,2.8-0.1v3.4c-0.8-0.1-1.2-0.1-2.8-0.1h-1v1.3h1.5c1.7,0,2,0,2.9-0.1v3.4c-0.9-0.1-1.2-0.1-2.9-0.1h-2.1
		c1.7,0.5,2.8,0.8,4.9,1.1c-0.8,0.9-0.9,1-1.8,2.3c0.7-0.1,1.2-0.1,2.5-0.3c-0.6,1.6-0.9,2.9-1.1,4.7c-2.7,0.1-6.9,0.2-11.5,0.2
		c-4.4,0-6.2-0.2-7.6-0.7c-1.2-0.4-2.1-1-3.1-2.2c-1.3,1.2-1.8,1.6-4,3.2l-2-4.8c0.9-0.3,2.1-1.1,3.6-2.3v-5.7h-1.2
		c-0.7,0-1.1,0-1.9,0.2V174c0.8,0.1,1.3,0.2,2.5,0.2h2.9c1.2,0,1.5,0,2.3-0.1c-0.1,0.9-0.1,1.2-0.1,3.4V184.5z M184.8,184.4
		c-1.7,1.1-3.1,1.7-5,2.4c1,0,2.3,0.1,3.7,0.1c1.6,0,5-0.1,6.6-0.2c-1.5-0.5-2.7-1.1-4.5-2.3l1.9-1.4h-4.8L184.8,184.4z
		 M183.5,179.8h3.2v-1.3h-3.2V179.8z"/>
	<path d="M205.3,177.7c-0.8,4.4-2,8.3-3.7,11.7c-1.6-1-2.8-1.6-4.8-2.2c1.7-3,3.3-8,3.6-11.1L205.3,177.7z M219.6,167.5
		c1.1,1.5,2.1,3.1,2.8,4.9l-2.7,1.3c-0.7-1.7-1.4-3.1-2.2-4.2l0,1.5c-2.4,0.3-5.3,2.7-5.3,4.3c0,0.5,0.2,0.9,0.7,1.6
		c0.2,0.3,0.5,0.5,1.7,1.9c2,2.1,2.7,3.6,2.7,5.7c0,3.5-2.8,6.1-6.6,6.1c-1.5,0-3.1-0.4-4.6-1.1c-0.7-0.3-1.1-0.5-2.1-1.2
		c0.6-2,0.8-2.8,1-5.1c1.7,1.4,3.6,2.3,4.9,2.3c1.1,0,1.7-0.6,1.7-1.6c0-0.5-0.2-1-0.5-1.5c-0.4-0.5-0.4-0.5-2.1-2.5
		c-1.4-1.6-2-3-2-4.4c0-1.9,1.1-3.6,3.3-5.3c-2.2-0.2-3.5-0.6-6.3-1.5c-0.3-0.1-0.5-0.2-0.5-0.2s-0.3-0.1-0.5-0.2l1.7-4.7
		c1.1,0.6,2.2,0.9,3.7,1.4c2.5,0.7,6.5,1.2,8.6,1.2c0.1,0,0.3,0,0.6,0l0,2.3L219.6,167.5z M221.3,175.5c2,3.2,3.8,7.5,4.6,11.1
		l-4.9,2.3c-0.8-4.5-2.6-9.1-4.3-11.7L221.3,175.5z M223.5,165.8c1.2,1.6,1.9,2.9,2.7,4.7l-2.7,1.2c-0.9-2.1-1.6-3.3-2.7-4.8
		L223.5,165.8z"/>
	<path d="M243.7,172c2.9-0.4,4.2-0.5,8-0.5c0.2,0,0.8,0,1.5,0l0.1,5.1c-1.4-0.2-2.3-0.2-3.9-0.2c-3.3,0-5.5,0.2-8.5,0.8l-0.3-4.3
		c-1.4,0.2-1.9,0.2-2.7,0.2c-1.2,6-1.8,8.4-4.8,17.6l-5.5-2c2-3.9,4-10.1,5.1-15.4c-0.2,0-0.4,0-0.5,0c-0.7,0-1.5,0-2.1-0.1
		c-0.8,0-0.9,0-1.1,0c-0.2,0-0.4,0-0.7,0l0.1-4.9c1.2,0.2,2.8,0.3,4.6,0.3c0.1,0,0.3,0,0.6,0c0.4-2.5,0.5-3.6,0.5-4.5
		c0-0.1,0-0.3,0-0.5l5.6,0.4c-0.2,0.6-0.2,0.8-0.4,1.7c-0.1,0.6-0.3,1.5-0.5,2.6c2-0.2,3.5-0.4,4.9-0.8L243.7,172z M244.7,180.3
		c-1.1,1.4-1.7,2.3-1.7,3.3c0,1.4,1.2,2,3.8,2c2.4,0,5.3-0.5,7.1-1.2l0.4,5.3c-0.6,0.1-0.8,0.1-1.6,0.2c-2.8,0.4-4,0.5-5.9,0.5
		c-5.9,0-8.9-1.9-8.9-5.7c0-1.7,0.7-3.4,2.4-5.8L244.7,180.3z M248.2,164.3c1.1,1.3,2.1,2.7,3,4.5l-2.9,1.4c-1-2-1.9-3.2-3-4.5
		L248.2,164.3z M252.2,162.5c1.1,1.1,1.9,2.3,3.1,4.3l-2.8,1.4c-1.1-2.1-2-3.3-3-4.5L252.2,162.5z"/>
	<path d="M265.2,164.7c-0.8,2.6-1.3,5.4-1.6,8.6c-0.2,1.9-0.3,4.1-0.3,6.9c0,0,0,0.3,0,1.1c0.4-1.3,0.9-2.4,1.5-3.7l3.5,1.7
		c-2,3.2-3.6,7.7-3.8,10.3l-4.8,0.2c-0.1-0.6-0.1-0.6-0.4-2.4c-0.5-2.9-0.8-6.4-0.8-9.5c0-3.3,0.1-4.7,1-11.2
		c0.2-1.1,0.2-1.6,0.2-2.4L265.2,164.7z M266.5,169.9c1.5,0.3,3.3,0.4,5.4,0.4c1.1,0,1.9,0,2.7-0.1c-0.2-5.1-0.2-5.2-0.5-6.3
		l5.4-0.1c-0.1,0.6-0.1,0.8-0.1,1.1c0,0.1,0,0.3,0,0.6c0,0.6,0.1,2,0.1,4.2c1.7-0.2,3-0.5,4.2-1l0.3,5c-0.5,0.1-0.7,0.1-1.7,0.3
		c-1.1,0.2-1.1,0.2-2.6,0.4c0,1.4,0,1.7,0,2.4c0,3.9-0.6,6.9-1.8,8.9c-1.3,2.3-2.8,3.7-5.9,5.5c-1.4-1.7-2.4-2.7-4.1-4
		c3.1-1.4,5.1-3.2,6-5.3c0.6-1.4,0.8-3.2,0.8-6.7c0,0,0-0.2,0-0.4c-1.2,0.1-1.9,0.1-3.2,0.1c-1.1,0-2.1,0-3.2-0.1
		c-1-0.1-1-0.1-1.9-0.1L266.5,169.9z"/>
	<path d="M287.8,181.8c0.1-0.7,0.1-0.9,0.1-1.6c0-0.3,0-0.3-0.1-2.1l-0.6-9.5c-0.1-1.5-0.2-3.1-0.4-4.1h7c-0.2,1.2-0.2,2.4-0.4,4.1
		l-0.6,9.5c-0.1,1.2-0.1,1.9-0.1,2.4c0,0.3,0,0.6,0.1,1.3H287.8z M287.3,189.5v-5.7h6.1v5.7H287.3z"/>
	<path d="M41.2,226.3c-1.2,0-1.8,0.1-2.7,0.2v-3.7c0.9,0.1,1.7,0.2,3.5,0.2h21c1.7,0,2.5,0,3.4-0.2v3.7c-1-0.1-1.8-0.2-3.5-0.2H52.9
		v10c1.1-0.5,1.7-0.7,2.6-1.2c-0.8-0.9-1.2-1.5-2.1-3l3.1-1.3h-0.5c-1.1,0-1.7,0-2.4,0.1v-3.9c0.7,0.1,1.3,0.1,2.5,0.1h5.2
		c1,0,1.7,0,2.2-0.1l2.1,2.3c-0.2,0.3-0.2,0.3-0.7,1.4c-0.8,1.6-1.8,2.9-3,4.2c1.5,0.6,2.7,1,4.9,1.4c-0.9,1.5-1.4,2.5-2,4.3
		c-2.9-1-4.5-1.7-6.1-2.8c-1.4,1.1-2.5,1.7-4.5,2.6c-0.5-1.2-0.7-1.6-1.3-2.7c0,1.2,0.1,2,0.2,2.8h-4.6c0.1-0.7,0.1-1.3,0.2-2.8
		c-2.5,0.5-3.3,0.6-8,1.3c-0.4,0.1-0.8,0.1-1.3,0.3l-0.9-4.4c0.3,0,0.4,0,0.6,0c0.3,0,0.8,0,2.2-0.1V226.3z M63.6,219.4
		c0,1.3,0,2,0.1,2.8c-0.3,0-1.1,0-2.5-0.1H44.5c-1.4,0-2.1,0-3,0.1c0.1-0.8,0.1-1.5,0.1-2.8v-3.6c0-1.3,0-2-0.1-2.8
		c1,0.1,1.7,0.1,3.2,0.1h15.9c1.4,0,2.2,0,3.2-0.1c-0.1,0.8-0.1,1.4-0.1,2.8V219.4z M45.5,227.3h3.1v-1h-3.1V227.3z M45.5,230.8h3.1
		v-1.1h-3.1V230.8z M45.5,234.5c0.6-0.1,1.6-0.2,3.1-0.4v-0.9h-3.1V234.5z M46,216.6h13.1v-0.9H46V216.6z M46,219.6h13.1v-0.9H46
		V219.6z M57,230.8c0.6,1,0.9,1.3,1.5,2c0.7-0.7,1.1-1.1,1.7-2H57z"/>
	<path d="M73.3,219.8c-0.6,1.4-0.9,2-1.9,3.5c-1.1-1.4-2-2.2-3.4-3c1.4-1.9,2.1-3.6,2.9-6.1c0.3-1,0.4-1.4,0.4-2.2l4.4,0.7
		c-0.1,0.4-0.3,0.9-0.5,1.6c-0.1,0.5-0.2,0.6-0.4,1.3h2.8c1.3,0,2.1,0,2.9-0.2v4.4c-0.8-0.1-1.3-0.1-2.5-0.1c0,2.5,0,2.5-0.1,3.9
		h0.3c1.3,0,1.8,0,2.7-0.2v4.5c-0.8-0.1-1.5-0.1-2.8-0.1h-0.4c1,2.2,2,3.5,4,5.3c-1.3,1.6-1.7,2.3-2.6,4.3c-1.4-1.5-2.2-2.5-3-4.1
		c-1.2,2.8-2.6,4.8-4.9,7c-0.8-1.7-1.6-2.7-2.9-4c2.7-2.3,4.3-4.9,5-8.5h-1.2c-1.6,0-2.3,0-3.3,0.2v-4.5c1,0.2,1.6,0.2,3.4,0.2h1.6
		c0.1-1.3,0.1-1.3,0.1-3.9H73.3z M84.5,229.2c-1.3,0-2.1,0-3.1,0.1c0.1-1,0.1-1.8,0.1-3.2v-4c0-1.5,0-2.3-0.1-3.3
		c0.9,0.1,1.9,0.1,3.5,0.1H92c1.5,0,2.6,0,3.5-0.1c-0.1,1.1-0.1,1.7-0.1,3.3v4c0,1.5,0,2.1,0.1,3.2c-1.1-0.1-1.9-0.1-3.2-0.1h-0.9
		l3.6,1.3c-1,2.9-1.1,3.3-1.9,5h0.3c1.6,0,2.3,0,3.4-0.1v4.5c-1.1-0.1-1.8-0.2-3.4-0.2h-9.9c-1.6,0-2.3,0-3.4,0.2v-4.5
		c1.1,0.1,1.8,0.1,3.4,0.1h0.6c-0.7-1.9-1.3-3.3-2.3-4.8l3.4-1.6H84.5z M81,213.1c1.1,0.1,1.7,0.2,3.4,0.2H93c1.7,0,2.3,0,3.4-0.2
		v4.5c-1.1-0.1-1.9-0.1-3.4-0.1h-8.6c-1.4,0-2.3,0-3.4,0.1V213.1z M85.9,229.2c1.1,1.8,1.1,2,2.4,4.8l-3.4,1.5h3.7
		c0.8-2,1.4-4,2-6.3H85.9z M85.9,225.1h5v-2.2h-5V225.1z"/>
	<path d="M105.1,231.2c0.2,1,0.4,1.4,0.8,1.9c0.8,0.8,2,1.3,3.5,1.3c2.3,0,3.8-1.2,3.8-3c0-1.2-0.6-2.2-1.6-2.6
		c-0.7-0.2-1.6-0.4-2.8-0.4c-1.2,0-2.5,0.1-3.7,0.2v-5.2c1,0.1,2,0.2,3.2,0.2c2.9,0,4.3-1,4.3-2.9c0-1.6-1.1-2.6-3.1-2.6
		c-2.1,0-3.2,0.8-3.7,2.8l-6.5-0.9c0.6-1.9,1.1-2.8,2-3.8c1.8-2,4.6-3,8.3-3c3.3,0,6,0.9,7.7,2.6c1.1,1.1,1.7,2.6,1.7,4.3
		c0,3.2-1.7,5.2-5.2,6c1.8,0.3,2.8,0.7,3.9,1.6c1.3,1.1,2,2.7,2,4.5c0,1.5-0.4,3-1.2,4c-0.7,0.9-1.7,1.7-2.8,2.3
		c-1.6,0.7-4,1.2-6.3,1.2c-2.7,0-5.4-0.6-7-1.7c-1.4-0.9-2.4-2.2-3.1-3.9c-0.2-0.4-0.3-0.8-0.5-1.6L105.1,231.2z"/>
	<path d="M130.4,226.3c-0.8,0-1.4,0-2,0.1v-1.7c-1.4,1.5-2.2,2.1-3.7,3.3c-1-1.7-1.7-2.8-3.1-4.2c3.5-2.4,5.8-5.1,7.6-8.6
		c0.6-1.2,0.9-1.9,1.1-2.8l4.9,1.8c-0.3,0.5-0.5,0.8-0.8,1.5c-0.8,1.8-2.3,4.3-3.8,6.3h11.4c-1.6-2-2.8-4.1-3.9-6.6
		c-0.2-0.5-0.4-0.9-0.6-1.3l4.5-1.7c0.2,0.8,0.5,1.4,1.2,2.8c1.8,3.3,4.3,5.9,7.8,8c-1.4,1.8-1.8,2.3-3,4.6c-1.3-1-1.8-1.4-2.6-2.1
		c0,6.1-0.5,10.2-1.2,11.8c-0.8,1.7-2.3,2.3-6,2.3c-0.3,0-0.3,0-2.1,0c-0.2-1.8-0.5-2.8-1.3-4.8c1.3,0.2,2.5,0.3,3.2,0.3
		c1.6,0,1.9-0.2,2.2-1.5c0.3-1.2,0.5-4.2,0.5-7.6H136c-0.3,3.3-1,5.3-2.4,7.7c-1.2,1.9-2.8,3.6-4.8,5c-0.9,0.6-1.6,1-3,1.7
		c-1-1.7-1.6-2.6-3-4.1c3.5-1.4,5.7-3.1,7-5.5c0.8-1.5,1.2-2.7,1.3-4.7H130.4z"/>
	<path d="M152,215.9c0.5,0,0.9,0,1.1,0c0.8,0,1.9-0.1,5.2-0.3c4.3-0.3,7.3-0.4,13-0.6l3.1-0.1l1.3-0.1c1,0,1.2-0.1,1.4-0.1
		c0.2,0,0.3,0,0.7-0.1l0.3,5.5c-0.4-0.1-0.5-0.1-0.8-0.1c-2.1,0-4.8,0.8-6.9,2.1c-3,1.8-4.8,4.4-4.8,6.8c0,1.7,0.8,2.9,2.5,3.7
		c1.2,0.6,3.9,1.1,5.8,1.1c0.2,0,0.5,0,0.9,0l-0.7,5.7c-0.4-0.1-0.5-0.1-1.1-0.2c-3.4-0.3-5.7-0.8-7.6-1.7c-3.6-1.7-5.4-4.4-5.4-8.3
		c0-2.5,0.8-4.8,2.6-6.8c0.8-1,1.5-1.6,3-2.6l-1.4,0.2c-0.7,0.1-1.7,0.2-7.3,0.6c-2.8,0.3-3,0.3-4.2,0.6L152,215.9z M173.3,222.8
		c1.2,1.4,2.1,2.7,2.9,4.4l-2.9,1.3c-0.9-1.9-1.7-3.1-2.9-4.5L173.3,222.8z M177.4,221c1.1,1.2,1.9,2.4,3,4.2l-2.8,1.3
		c-1.1-2-1.8-3.2-2.9-4.3L177.4,221z"/>
	<path d="M184.7,229.9c-0.1,4.9-0.2,6.8-0.9,9.5l-3.1-1.8c0.7-2.2,0.9-4.2,0.9-8.1L184.7,229.9z M190.9,229.3
		c-0.1-0.6-0.2-0.8-0.2-1.2l-1.3,0.2v9.1c0,1.7,0,2.3,0.2,3.3h-4.3c0.2-1.1,0.2-1.9,0.2-3.3v-8.7c-0.5,0-0.8,0.1-1,0.1
		c-0.8,0.1-0.8,0.1-1.9,0.1c-0.7,0-0.7,0-1.2,0.1l-0.4-4.2c1,0.1,1.4,0.1,1.9,0.1c0.2,0,0.4,0,0.7,0c0.5-0.6,0.6-0.8,1.1-1.4
		c-1.4-2-2.4-3.1-3.8-4.5l2.1-3.7l0.8,0.8c0.9-1.6,1.5-3,1.7-4.2l4,1.4c-0.2,0.3-0.3,0.5-0.5,1c-0.9,2-1.8,3.6-2.7,5
		c0.3,0.4,0.4,0.5,0.6,0.8c1.8-2.8,2.4-3.9,2.7-4.9l3.4,1.9c0,0-0.4,0.5-1,1.6c1.6-1.2,2.5-2.1,3.4-3.6c0.8-1.2,1.1-1.9,1.4-3
		l4.8,0.6c-0.2,0.3-0.2,0.5-0.5,1c-0.2,0.3-0.2,0.5-0.4,0.8h3.3c1.1,0,1.7,0,2.4-0.2l2.1,2.4c-0.2,0.3-0.2,0.4-0.4,0.7
		c-1.5,2.7-2.7,4.3-4.2,5.9c1.9,1,3.4,1.5,5.9,2c-1,1.7-1.4,2.7-2,4.8c-3.3-1.2-5.4-2.2-7.5-3.7c-0.8,0.5-1,0.7-1.7,1.1
		c2.8,1.1,4.8,2.1,7.5,3.6l-2.4,3.9c1.3,0.4,2.1,0.6,4,1.3l-1.7,4.3c-3.1-1.4-6.5-2.4-12.4-3.6l2-4c4,0.9,5.5,1.3,8,2
		c-2.6-1.8-4.5-2.9-7.7-4.2l2.1-2.9c-1.6,0.9-2.3,1.2-4.4,2c-0.2-0.6-0.3-0.8-0.6-1.4L190.9,229.3z M187.7,224.7
		c0.7,0,0.9,0,1.5-0.1c0.2,0,0.5,0,0.7-0.1c-0.2-0.7-0.3-1-0.7-2C188.6,223.5,188.2,224,187.7,224.7z M191.9,221.5
		c0.8,2.1,1,2.7,1.3,3.8c1.4-0.5,2.4-1,3.7-1.7c-0.6-0.6-0.9-1.1-1.5-1.9c-0.5,0.4-0.7,0.6-1.5,1.2c-0.8-1.5-1.5-2.4-2.5-3.4
		c-0.5,0.8-1,1.5-2,2.9L191.9,221.5z M192.8,229.4c0.5,3.7,0.5,3.7,0.8,7.7l-3.1,0.5c0-3.2-0.1-3.9-0.4-7.7L192.8,229.4z
		 M198.2,218.5c0.6,0.9,1.2,1.6,2,2.4c0.8-0.9,1.2-1.3,2.1-2.6h-4L198.2,218.5z"/>
	<path d="M215.9,218c-2,0-3.1,0.1-4.5,0.2v-4.9c1.2,0.1,2.5,0.2,4.5,0.2h15c1.7,0,2.9-0.1,3.7-0.2l2.9,3.3c-0.7,0.6-0.7,0.6-3.1,3
		c-2,1.9-4.7,4.1-7.9,6.2v10.9c0,1.3-0.4,2.3-1.2,2.8c-0.8,0.6-2.1,0.8-4.5,0.8c-0.9,0-1.9,0-4-0.1c-0.3-1.9-0.6-3.2-1.3-5
		c2.1,0.3,3.4,0.4,4.6,0.4c1.1,0,1.5-0.2,1.5-0.8v-10.3c0-1.3,0-2.1-0.2-3h3.5c1.6-1,2.7-1.9,4.3-3.3H215.9z"/>
	<path d="M248,213.5c-0.3,1.9-0.7,9.9-0.7,15c0,3,0.1,3.9,0.6,4.7c0.6,0.9,1.9,1.4,3.5,1.4c3.1,0,5.5-1.8,6.7-5.1
		c0.6-1.6,0.9-3.2,1.2-5.5c2.2,1.7,3.2,2.4,5.2,3.2c-1.1,4.5-2.1,6.7-3.8,8.6c-2.4,2.6-5.5,3.9-9.5,3.9c-3.1,0-5.4-0.8-7-2.3
		c-1.7-1.7-2.3-3.6-2.3-7.8c0-0.8,0-0.8,0.2-6.8c0.1-3,0.1-5.9,0.1-7.1c0-0.9,0-1.4-0.2-2.3L248,213.5z"/>
	<path d="M268,215.7c1.8,0.4,4.9,0.6,8.7,0.6c0.4,0,0.8,0,1.7,0c0-2-0.1-2.5-0.2-3.3h5.3c-0.2,0.8-0.2,1-0.2,3.1
		c4-0.2,6.8-0.6,8.6-1.1l0.2,4.6c-0.9,0.1-1.1,0.1-2.7,0.3c-2,0.3-3.7,0.4-6.1,0.5c0,0.8,0,0.8,0,1.9c3.4-0.2,5.7-0.5,7.8-0.9
		l0.1,4.6c-0.6,0-0.6,0-1.9,0.2c-1.4,0.2-4.2,0.4-5.9,0.4c0,1.4,0,1.4,0.1,2.7c1.6,0.4,2.5,0.8,4.1,1.6c1.5,0.8,1.9,1,4,2.5
		c0.5,0.3,0.7,0.4,1.1,0.7l-2.9,4.8c-0.9-1-0.9-1-2-1.9c-1.4-1.2-2.9-2.1-4.3-2.7c0,1.4-0.2,2.3-0.7,3c-1,1.5-3.3,2.4-6.6,2.4
		c-4.9,0-7.7-2-7.7-5.5c0-2.2,1.4-4,3.8-4.9c1.4-0.5,3.2-0.8,5.4-0.8c0.4,0,0.5,0,0.9,0c0-1-0.1-1.6-0.1-1.8c-0.6,0-1.9,0-2.3,0
		c-1.7,0-3.1,0-4.8-0.1c-1.3-0.1-1.5-0.1-2.4-0.1l0.1-4.5c1.3,0.3,4.3,0.5,7.4,0.5c0.6,0,1.1,0,2,0c0-0.2,0-0.3,0-0.5
		c0-0.1,0-0.1,0-0.8c0-0.4,0-0.4,0-0.7c-0.7,0-1,0-1.3,0c-1.6,0-2.1,0-5.6-0.2c-1.1,0-1.1,0-2.3-0.1c-0.4,0-0.7,0-0.8,0
		c-0.1,0-0.3,0-0.5,0L268,215.7z M276.7,232.8c-1.8,0-2.9,0.5-2.9,1.4c0,0.8,0.8,1.2,2.3,1.2c1.7,0,2.4-0.6,2.4-1.9
		c0-0.2,0-0.5,0-0.5C277.8,232.9,277.4,232.8,276.7,232.8z"/>
	<path d="M295.1,216.1c0.8,0.1,1.1,0.1,1.8,0.1c0.8,0,8.9-0.2,11.7-0.3c0-1.9-0.1-2.3-0.2-3.2h5.3c-0.1,1.1-0.2,1.4-0.2,3.1
		c5,0,7.2-0.1,8.4-0.2l0,4.9c-1.4-0.1-2-0.2-5.4-0.2c-1.6,0-1.8,0-3,0v3.8c0,0.2,0,0.3,0,0.7c0.9,1.6,1.2,3,1.2,5
		c0,3.4-1.7,6.3-5,8.3c-1.5,0.9-3.2,1.6-6.1,2.4c-0.8-2.1-1.5-3.3-2.9-4.8c3-0.5,4.8-0.9,6.2-1.8c1.1-0.7,1.7-1.3,2.2-2.4
		c-1.3,1.1-2.3,1.4-4,1.4c-3.5,0-6-2.3-6-5.5c0-3.4,2.8-5.8,7-5.8c1,0,1.7,0.1,2.3,0.3c0-0.3,0-0.3,0-0.9c0-0.4,0-0.4,0-0.7
		c-6.2,0.2-11.1,0.5-13.5,0.8L295.1,216.1z M304.5,227.3c0,0.9,0.8,1.6,2,1.6c1.3,0,2.3-0.8,2.3-1.8c0-0.9-0.8-1.6-2-1.6
		C305.5,225.6,304.5,226.3,304.5,227.3z"/>
	<path d="M332.9,234.9c0,3.2-2.6,5.7-5.7,5.7c-3.1,0-5.7-2.6-5.7-5.7c0-3.2,2.6-5.7,5.7-5.7C330.4,229.2,332.9,231.8,332.9,234.9z
		 M324.6,234.9c0,1.4,1.2,2.6,2.6,2.6c1.4,0,2.6-1.2,2.6-2.6c0-1.4-1.2-2.6-2.6-2.6C325.8,232.3,324.6,233.5,324.6,234.9z"/>
</g>
<rect x="7.7" y="3.4" class="st4" width="92" height="69.5"/>
<rect x="99.7" y="3.4" transform="matrix(-1 -1.224647e-16 1.224647e-16 -1 629.7255 76.2633)" class="st4" width="430.3" height="69.5"/>
<g>
	<path class="st2" d="M376.5,111.8c0.3,1.1,0.5,1.5,1.1,2c1,0.8,2.3,1.2,3.9,1.1c2.6-0.2,4.1-1.7,3.9-3.7c-0.1-1.3-0.9-2.3-2-2.7
		c-0.8-0.2-1.8-0.3-3.1-0.1c-1.3,0.1-2.8,0.3-4,0.6l-0.5-5.7c1.1,0,2.2,0,3.5-0.1c3.1-0.3,4.6-1.5,4.4-3.6c-0.2-1.8-1.5-2.7-3.7-2.5
		c-2.3,0.2-3.4,1.3-3.7,3.4l-7.2-0.3c0.4-2.1,0.9-3.1,1.8-4.4c1.8-2.4,4.7-3.8,8.7-4.1c3.6-0.3,6.6,0.4,8.7,2
		c1.3,1.1,2.1,2.6,2.3,4.5c0.3,3.5-1.3,5.8-5,7.1c2,0.1,3.2,0.5,4.4,1.3c1.5,1.1,2.4,2.8,2.6,4.7c0.2,1.7-0.2,3.3-0.9,4.5
		c-0.6,1.1-1.7,2.1-2.9,2.8c-1.6,1-4.2,1.7-6.7,1.9c-3,0.3-6-0.1-7.8-1.1c-1.6-0.8-2.9-2.2-3.8-3.9c-0.2-0.4-0.4-0.9-0.7-1.7
		L376.5,111.8z"/>
	<path class="st2" d="M405.4,103.6c-0.9,0.1-1.5,0.2-2.2,0.3l-0.2-1.8c-1.4,1.8-2.1,2.6-3.7,4c-1.2-1.8-2.2-2.9-3.8-4.3
		c3.5-3,5.8-6.2,7.4-10.2c0.5-1.3,0.8-2.2,0.9-3.2l5.6,1.5c-0.3,0.6-0.4,0.9-0.7,1.8c-0.7,2.1-2.1,5-3.5,7.3l12.4-1.2
		c-2-2.1-3.5-4.2-4.9-6.8c-0.2-0.5-0.5-0.9-0.8-1.4l4.7-2.3c0.3,0.9,0.7,1.5,1.6,2.9c2.3,3.4,5.3,6,9.3,8c-1.4,2.1-1.7,2.8-2.8,5.3
		c-1.5-0.9-2.1-1.3-3-2c0.6,6.6,0.6,11.1-0.1,13c-0.7,2-2.2,2.8-6.3,3.2c-0.3,0-0.3,0-2.3,0.2c-0.4-1.9-0.8-3-1.9-5.1
		c1.4,0.1,2.7,0,3.5,0c1.7-0.2,2.1-0.4,2.3-1.8c0.2-1.3,0.1-4.6-0.2-8.3l-5,0.5c0,3.6-0.5,5.9-1.8,8.6c-1.1,2.2-2.6,4.2-4.7,5.9
		c-1,0.8-1.6,1.2-3.1,2.1c-1.2-1.8-2-2.6-3.7-4.2c3.7-1.9,5.9-4,7.1-6.8c0.8-1.7,1-3.1,0.9-5.3L405.4,103.6z"/>
	<path class="st2" d="M430.9,108.4c0-0.3-0.1-1-0.2-2c-0.6,1-0.6,1-0.9,1.4c-0.4-1.3-0.8-2.3-1.4-3.6c1-1.3,1.8-3,2.4-5
		c0.3-1,0.4-1.9,0.5-2.6l3.2,0.4c-0.4,2.1-0.8,3.3-1.2,4.7l1.1,11.5c0.1,0.9,0.2,1.4,0.3,2.3l-3.3,0.3c0-0.9,0-1.4-0.1-2.3
		L430.9,108.4z M438.7,97.7c-0.1-0.7-0.1-1.1-0.3-1.6l3.3-0.3c-0.1,0.4,0,0.8,0,1.6l0.1,1.2l2.3-0.2c1.1-0.1,1.8-0.2,2.4-0.4
		l0.3,3.1c-0.7,0-1.5,0-2.5,0.1L437,102c-1.2,0.1-2,0.2-2.6,0.4l-0.3-3.1c0.6,0,1.2,0,2.5-0.1l2.2-0.2L438.7,97.7z M441.4,111.2
		c0.7-2.9,1.2-6.5,1.2-9.4l3.4,0.6c-0.4,3.4-0.8,5.4-1.5,8.5l1.4-0.1c1.1-0.1,1.8-0.2,2.4-0.4l0.3,3.1c-0.7,0-1.5,0-2.6,0.1
		l-8.2,0.8c-1.1,0.1-1.9,0.2-2.5,0.4l-0.3-3.1c0.6,0,1.3,0,2.4-0.1L441.4,111.2z M437.8,111.1c-0.8-2.9-1.6-5-2.8-7.4l2.8-1.3
		c1.2,2.6,1.9,4.3,2.9,7.3L437.8,111.1z"/>
	<path class="st2" d="M456.6,94.9c-0.1,0.4-0.1,0.4-0.2,1.6c-0.1,0.5-0.1,0.7-0.1,1.1c1.3-0.3,2.1-0.5,2.7-0.7l0.4,3.2
		c-0.5,0.1-0.5,0.1-1.5,0.3c-0.5,0.1-1.6,0.3-2.1,0.4c-0.5,2.4-0.9,3.8-1.6,6c-0.3,1-0.5,1.3-1.1,3c-0.2,0.5-0.2,0.5-0.3,0.8
		l-3.4-1.5c1.2-2,2.3-5,3-7.9c-0.4,0-0.4,0-1.1,0.1c-0.5,0-0.5,0-0.9,0.1c-0.1,0-0.2,0-0.8,0.1l-0.3-3.2c0.8,0.1,1.7,0,2.9-0.1
		c0.2,0,0.3,0,0.7-0.1c0-0.2,0-0.2,0.1-0.9c0.1-0.7,0.1-1.7,0.1-2.4L456.6,94.9z M466.7,110.9c-0.8-0.8-1.6-1.4-2.8-1.9
		c0,0.9-0.2,1.5-0.6,2.1c-0.7,0.9-2.1,1.4-3.6,1.6c-1.6,0.2-3-0.2-3.9-1c-0.7-0.6-1.1-1.4-1.2-2.4c-0.2-2.3,1.6-4.1,4.3-4.4
		c0.4,0,0.7-0.1,1.4,0c-0.1-0.8-0.2-1.1-0.2-1.6c-0.1-0.8-0.1-1.5-0.1-2.4l3.3-0.2c-0.1,0.7-0.1,1.3,0,2.3c0.1,0.7,0.2,1.3,0.4,2.3
		c1.3,0.4,2.3,0.9,3.2,1.5c0.1,0,0.4,0.3,1.1,0.7L466.7,110.9z M459.2,107.8c-0.9,0.1-1.5,0.5-1.4,1.2c0.1,0.6,0.6,0.9,1.5,0.8
		c1-0.1,1.5-0.6,1.4-1.4c0-0.1-0.1-0.4-0.1-0.4C460.1,107.8,459.7,107.8,459.2,107.8z M466,101.5c-2-1-4-1.7-6.5-2.3l1.4-2.9
		c2.6,0.7,4.3,1.2,6.2,2.1L466,101.5z"/>
	<path class="st2" d="M473.9,97.3c-0.2,1.1-0.3,3-0.4,4.9c1.6-1.2,3.3-1.9,5.5-2.1c3.5-0.3,6.1,1.3,6.3,4.1c0.2,1.7-0.5,3.3-1.8,4.4
		c-1.3,1.1-3.1,1.7-5.6,2c-1.6,0.2-3.1,0.1-5.1-0.1c-0.2-1.6-0.4-2.3-0.8-3.5c2,0.4,3.9,0.6,5.4,0.4c2.6-0.2,4.3-1.4,4.2-2.8
		c-0.1-1.1-1.2-1.6-3-1.4c-1.5,0.1-3,0.7-4.2,1.6c-0.5,0.3-0.7,0.5-1,1l-3.3,0.2c0-0.2,0-0.2,0-0.4c0-1,0.1-4.2,0.3-7
		c0-0.4,0-0.8,0-1.3L473.9,97.3z M473.1,93c1,0.4,2.3,0.7,4.2,1c1.4,0.2,3.1,0.4,4.1,0.5l-0.8,3.3c-3.7-0.4-6.4-0.9-8.9-1.8
		L473.1,93z"/>
	<path class="st2" d="M394,125.2c1.5,0.9,2.1,1.4,3.4,2.5l-1.7,2.5c-1.2-1.2-2.1-1.9-3.4-2.7L394,125.2z M397.7,132.1
		c-1.1,0.9-1.8,1.4-3.3,2.2c-0.3,0.2-0.6,0.3-0.8,0.5l-1.3-2.7c1.3-0.4,2.6-1.2,4.4-2.5L397.7,132.1z M405.8,131.5
		c0.1,1,0.2,1.4,0.2,1.8c-0.5,0-0.9,0-1.6,0.1l-1.1,0.1l0.1,1l5-0.5c1.2-0.1,2-0.2,2.5-0.4l0.3,2.9c-0.6,0-1.5,0-2.6,0.1l-2.8,0.3
		c1.7,0.9,3.5,1.4,6,1.6c-0.6,1.1-0.9,1.8-1.3,3c-1.6-0.3-2.6-0.6-3.7-1.2c-1.3-0.6-2.1-1.1-3-1.9c0,0.1,0,0.2,0,0.3
		c0,0.1,0.1,0.6,0.1,0.7l0.1,0.9c0.1,1,0.1,1.3,0.4,2l-3.3,0.3c0-0.7,0-1.2-0.1-2l-0.1-0.9c0-0.3,0-0.7,0-1
		c-0.8,1.1-1.5,1.8-2.7,2.6c-0.8,0.6-1.6,1-3.1,1.6c-0.6-1-1.2-1.7-2-2.6c2.5-0.8,4.2-1.7,5.5-2.8l-2.7,0.3c-1,0.1-2,0.2-2.5,0.4
		l-0.3-2.9c0.6,0,1.5,0,2.5-0.1l4.9-0.5l-0.1-1l-0.9,0.1c-0.6,0.1-1.1,0.1-1.6,0.2c0-0.4,0-1.1-0.1-1.8l-0.4-4.7
		c-0.1-0.8-0.1-1-0.2-1.7c0.5,0,0.7,0,1.6-0.1l0.6-0.1c0.2-0.8,0.3-1.1,0.4-2l3.2,0c-0.2,0.5-0.2,0.5-0.4,1.2
		c-0.1,0.2-0.1,0.3-0.2,0.5l1.4-0.1c0.9-0.1,1.1-0.1,1.6-0.2c0,0.6,0,0.6,0.1,1.7l0,0.3c1.1-1.1,1.8-1.9,2.6-3.2l2.4,1.8
		c-1.1,1.4-1.9,2.3-2.9,3.4c1.4,0.5,2.5,1,3.6,1.6l-1.3,2.7c-1.5-0.9-2.6-1.5-4-2.1L405.8,131.5z M400.2,128.6l2.6-0.2l-0.1-0.8
		l-2.6,0.2L400.2,128.6z M400.5,131.5l2.6-0.2l-0.1-0.8l-2.6,0.2L400.5,131.5z M407,128.8l-1.5-1.4l0.3,3.5L407,128.8z"/>
	<path class="st2" d="M429.1,130.2c0.7,0.8,1.4,1.3,2.6,1.9c-0.4,1-0.6,1.7-0.8,3c-0.5-0.3-0.7-0.4-1-0.7c0.1,2.3,0.1,3.4-0.2,4.1
		c-0.3,1-1,1.4-2.6,1.6c-0.3,0-0.7,0-1.5,0.1c-0.2-1-0.4-1.6-0.7-2.3c-0.6,1.1-1.6,2-3,3c-0.6-0.9-1-1.3-2-2.2
		c0,1.5-0.5,2.1-2.3,2.2c-0.2,0-0.4,0-0.8,0.1c-0.2-1.2-0.4-1.8-0.8-2.6c-0.1,1.2-0.3,2-0.8,3.1c-0.8-0.9-1.3-1.5-2.4-2.2
		c0.8-2.1,0.8-4.5,0-13c-0.1-1.4-0.3-2.2-0.4-3.1c0.7,0,1.2,0,1.9-0.1l2.5-0.2c0.9-0.1,1.3-0.1,1.7-0.2c0,0.4,0,0.7,0.1,1.5l0.8,8.7
		c0.6-0.6,0.9-1.1,1.4-1.9c-0.6,0.1-0.8,0.1-1.2,0.2l-0.2-2.5c0.6,0,1,0,1.9-0.1l0.6-0.1c0.1-0.4,0.2-0.6,0.3-1l-0.8,0.1
		c-1.1,0.1-1.3,0.1-1.9,0.2l-0.2-2.5c0.3,0,0.5,0,1,0c-0.4-0.6-0.7-1.1-1.5-1.9l2.1-1.3c0.7,0.9,1,1.2,1.6,2.2l-1.6,1l1.7-0.2
		c0.1-1.4,0.2-2.3,0.1-3.1c0-0.1,0-0.1,0-0.3l2.8-0.1c-0.1,0.6-0.1,0.6-0.1,1.2c-0.1,1.1-0.1,1.4-0.2,2l0.8-0.1
		c0.5-1.2,0.7-1.8,0.9-3.1l2.7,0.6c-0.4,1.2-0.6,1.5-1,2.2c0.8-0.1,1-0.1,1.4-0.2l0.2,2.5c-0.6,0-0.8,0-1.9,0.1l-1.2,0.1
		c0.1,0.4,0.2,0.5,0.4,1l1.3-0.1c0.9-0.1,1.4-0.2,1.9-0.3l0.2,2.6c-0.6,0-0.9,0-1.8,0.1L429.1,130.2z M416.2,125.7l-0.9,0.1l0.2,1.9
		l0.9-0.1L416.2,125.7z M416.8,132.2l-0.2-2l-1,0.1l0.1,2L416.8,132.2z M416,135c0.1,1.2,0,2.5,0,3.3c0.3,0,0.8,0,0.9,0
		c0.4,0,0.5-0.1,0.5-0.5l-0.3-2.9L416,135z M422.9,135.5c-0.6,0.1-0.8,0.1-1.2,0.2l-0.1-1.1c-0.3,0.5-0.6,0.8-1.2,1.5
		c-0.4-0.6-0.5-0.9-0.9-1.4l0.4,3.8c0,0.1,0,0.2,0,0.3c1.7-0.9,2.8-1.9,3.2-3.2L422.9,135.5z M427.8,132.6c-0.6-0.7-1.2-1.5-1.6-2.2
		l-2.6,0.3c-0.4,1-0.6,1.4-1.1,2.4c0,0,0.2,0,0.3,0l0.8-0.1c0-0.3,0-0.8,0-1.1c0-0.2-0.1-0.4-0.1-0.7l2.7-0.2c0,0.2,0,0.2,0,0.5
		c0,0.3,0,0.9,0,1.2L427.8,132.6z M424.5,127.2c-0.2,0.8-0.2,0.8-0.2,1l1.1-0.1c-0.1-0.2-0.2-0.5-0.3-1L424.5,127.2z M425.9,135.2
		c-0.2,0.9-0.5,1.6-0.8,2.3c0.6,0,0.9,0.1,1.3,0c0.4,0,0.5-0.1,0.6-0.5c0.1-0.5,0.1-1.1,0.1-1.9L425.9,135.2z"/>
	<path class="st2" d="M432.1,124.5c0.3,0,0.4,0,0.6,0c0.5,0,1.6-0.2,1.7-0.2c0.6-0.1,0.6-0.1,0.8-0.1c-0.1-1.1-0.1-1.5-0.2-2.2
		c0-0.2,0-0.2-0.1-1l3.5-0.2c-0.1,0.7-0.1,1.1,0,2.9l1.2,0.9c-0.2,0.2-0.7,0.8-1.1,1.4c0,0.4,0,0.6,0,0.7c0.5-0.5,0.7-0.7,1.6-1.5
		c1.6-1.4,2.9-2,4.4-2.2c3.1-0.3,4.9,1.9,5.4,6.4c0.1,1.1,0.1,2,0,3c0.1,0,0.7,0.4,1.8,1l-0.9,3.5c-0.6-0.5-0.7-0.6-1.7-1.3
		c-0.2,0.5-0.4,0.8-0.9,1.2c-0.7,0.6-1.9,1.1-3.1,1.2c-2.6,0.2-4.5-1-4.7-3.1c-0.2-2.1,1.4-3.7,3.9-3.9c0.8-0.1,1.4,0,2.3,0.2
		c0-0.5,0-0.9,0-1.4c-0.1-0.8-0.3-1.6-0.5-2.2c-0.3-0.8-1-1.2-1.8-1.1c-1.4,0.1-3.4,1.7-5.5,4.1l0.6,5.5c0.2,1.8,0.2,1.8,0.4,2.7
		l-3.6,0.3c0-0.5,0-1.1-0.1-2.1c-0.2-2-0.2-2-0.2-2.4c0-0.6,0-0.6-0.1-0.7c0,0,0-0.2,0-0.3l-0.1,0.2c-0.1,0.1-0.1,0.1-0.2,0.3
		c-0.1,0.1-0.2,0.3-0.5,0.7c-0.4,0.5-0.8,1.2-1,1.5l-1.9-3.2c0.4-0.3,0.9-0.8,2-2.1c0.6-0.7,0.8-1,1.3-1.5c-0.1-0.6-0.1-0.8-0.2-2.2
		c-1.5,0.2-2.1,0.4-2.9,0.6L432.1,124.5z M444.7,133.6c-0.7,0.1-1.1,0.4-1,0.9c0,0.5,0.6,0.7,1.3,0.6c0.5,0,1-0.3,1.2-0.6
		c0.1-0.1,0.3-0.5,0.3-0.5l0,0C445.8,133.6,445.3,133.5,444.7,133.6z"/>
	<path class="st2" d="M457,131.1c0-0.4,0-0.6,0-0.9c0-0.4,0-0.4-0.2-1.5l-1-6.3c-0.1-0.8-0.3-1.7-0.5-2.7l4.6-0.4c0,0.5,0,1.9,0,2.7
		l0.2,6.3c0,0.8,0.1,1.2,0.1,1.5c0,0.2,0,0.4,0.1,0.9L457,131.1z M457.1,136.3l-0.4-3.8l4-0.4l0.4,3.8L457.1,136.3z"/>
</g>
<path class="st5" d="M335.6,109.8c-5.1,9.2,12.1,38.5,37.4,46.9c25.3,8.4,34.4,3.9,46.7,9.3c17.7,7.8-9.6-0.9,13.4-14.6
	c35.2-21.1,70-0.1,80.2-34.8"/>
<path class="st2" d="M389.7,304.8H17.2c-4.6,0-8.3-3.7-8.3-8.3v-9.9c0-4.6,3.7-8.3,8.3-8.3h372.5c4.6,0,8.3,3.7,8.3,8.3v9.9
	C398,301.1,394.3,304.8,389.7,304.8z"/>
<g>
	<path class="st0" d="M24,289l0.4,0.4l-4.6,4.6l4.6,4.6l-0.4,0.4l-4.6-4.6l-4.6,4.6l-0.4-0.4l4.6-4.6l-4.6-4.6l0.4-0.4l4.6,4.6
		L24,289z M16.6,294.1c0,0.6-0.4,1-1,1c-0.5,0-1-0.5-1-1s0.4-1,1-1C16.2,293.1,16.6,293.6,16.6,294.1z M20.3,297.9c0,0.5-0.5,1-1,1
		c-0.5,0-1-0.5-1-1c0-0.5,0.5-1,0.9-1c0,0,0,0,0,0c0,0,0,0,0,0c0,0,0,0,0,0C19.9,296.9,20.3,297.3,20.3,297.9z M20.3,290.3
		c0,0.6-0.4,1-1,1s-1-0.5-1-1s0.5-1,1-1S20.3,289.8,20.3,290.3z M24.1,294.1c0,0.5-0.4,1-1,1s-1-0.4-1-1s0.4-1,1-1
		S24.1,293.6,24.1,294.1z"/>
	<path class="st0" d="M36.5,293.5c0.5,0,0.9,0,1.2-0.1c0,0.3,0,0.4-0.1,1.6c0,0.9-0.1,2.4-0.2,3c-0.1,1-0.3,1.5-0.7,1.8
		c-0.4,0.3-0.9,0.4-1.9,0.4c-0.2,0-0.4,0-0.7,0c0-0.4,0-0.5-0.1-0.8c-0.4,0.1-0.8,0.1-1.5,0.1c-1.9,0-2.3-0.2-2.3-1v-1.8
		c-0.2,0.1-0.2,0.2-0.5,0.3c-0.1-0.6-0.2-1-0.5-1.7c-0.1,0-0.1,0-0.2,0.1v3.3c0,1.3-0.4,1.6-2,1.6c-0.3,0-0.5,0-0.9,0
		c-0.1-0.8-0.2-1.1-0.4-1.8c0.4,0,0.7,0.1,1,0.1c0.3,0,0.4-0.1,0.4-0.4v-2.1c-0.4,0.1-0.5,0.2-0.7,0.2c-0.2,0.1-0.2,0.1-0.4,0.1
		c-0.1,0-0.1,0-0.2,0.1l-0.2-2c0.4,0,0.7-0.1,1.4-0.3v-2h-0.4c-0.3,0-0.6,0-0.9,0.1v-1.9c0.3,0.1,0.6,0.1,0.9,0.1h0.3v-0.9
		c0-0.7,0-1-0.1-1.3h2.1c-0.1,0.4-0.1,0.7-0.1,1.3v0.9h0.4c0.2,0,0.3,0,0.5,0v1.8c-0.3,0-0.4,0-0.5,0h-0.4v1.4
		c0.4-0.1,0.4-0.1,0.8-0.3l0,1.4c0.6-0.5,1-1,1.3-1.5c-0.6,0-0.6,0-0.9,0c0-0.5,0-0.8,0-1.3v-2.3c0-0.5,0-0.9-0.1-1.2
		c0.4,0,0.8,0.1,1.3,0.1h4.3c0.5,0,0.9,0,1.2-0.1c0,0.4-0.1,0.8-0.1,1.3v2.1c0,0.6,0,0.9,0.1,1.3c-0.4,0-0.8,0-1.3,0h-2.5
		c-0.1,0.2-0.1,0.2-0.2,0.4H36.5z M32.1,295.3c0,0.1,0,0.3,0,0.5c0.9-0.2,1.6-0.4,2.2-0.8h-2.4c-0.1,0.1-0.1,0.2-0.2,0.3H32.1z
		 M32,297.6c0,0.2,0.1,0.2,0.6,0.2c0.7,0,0.7-0.1,0.8-0.9c-0.5,0.1-0.8,0.2-1.4,0.3V297.6z M32.2,290.3h3v-0.4h-3V290.3z
		 M32.2,291.8h3v-0.4h-3V291.8z M35.3,296.4c-0.7,0.2-1,0.4-1.7,0.5c0.7,0.2,0.9,0.3,1.5,0.3c-0.1,0.6-0.1,0.8-0.2,1.1
		c0,0,0.1,0,0.1,0c0.3,0,0.4-0.1,0.5-0.6c0.1-0.5,0.1-0.9,0.1-2.7h-1.3L35.3,296.4z"/>
	<path class="st0" d="M43.5,299.1v0.3c0,0.4,0,0.6,0.1,0.9h-1.9c0-0.2,0.1-0.5,0.1-0.8v-0.3H40c-0.6,0-0.8,0-1.2,0.1v-1.5
		c0.4,0,0.6,0.1,1.2,0.1h1.8v-0.4h-1.2c-0.7,0-1,0-1.2,0c0-0.3,0-0.5,0-0.9v-1.5c0-0.4,0-0.6,0-0.9c0.3,0,0.5,0,1.2,0h1.2v-0.4h-1.6
		c-0.6,0-0.8,0-1.2,0.1v-1.3c0.4,0,0.6,0.1,1.2,0.1h1.6V292h-1.6c-0.6,0-1,0-1.4,0.1v-1.6c0.4,0,0.7,0.1,1.4,0.1h1.5v-0.4h-1
		c-0.5,0-0.9,0-1.2,0.1v-1.4c0.4,0,0.6,0.1,1.2,0.1h1c0-0.4,0-0.6-0.1-0.8h2c-0.1,0.2-0.1,0.4-0.1,0.8h1c0.6,0,0.9,0,1.2-0.1v1.4
		c-0.3,0-0.7-0.1-1.2-0.1h-1v0.4h2.7c0-0.5,0-0.9,0-1.4c0-0.5,0-0.8-0.1-1.1h2c-0.1,0.3-0.1,0.4-0.1,0.8l1.3-0.7
		c0.5,0.6,0.8,1,1.2,1.8l-1.1,0.6c0.6,0,0.9,0,1.2-0.1v1.6c-0.4-0.1-0.7-0.1-1.4-0.1h-1.2c0,1.1,0.1,1.7,0.2,2.5
		c0.4-0.8,0.6-1.4,0.6-2l1.8,0.6c-0.1,0.1-0.2,0.4-0.3,0.8c-0.4,1.1-0.9,2.1-1.5,2.9c0.2,0.5,0.3,0.8,0.5,1c0.1-0.3,0.2-0.6,0.3-1.5
		c0.5,0.5,0.8,0.7,1.3,1c-0.1,0.9-0.2,1.3-0.5,1.8c-0.3,0.6-0.7,1-1.2,1c-0.6,0-1.2-0.5-1.8-1.6c-0.5,0.6-0.9,1.1-1.7,1.7
		c-0.3-0.4-0.5-0.7-0.9-1.2H43.5z M41.8,294.9H41v0.4h0.8V294.9z M41.8,296.1H41v0.4h0.8V296.1z M45.7,297.8c0.2,0,0.2,0,0.5,0
		c0.3-0.3,0.5-0.6,0.8-1c-0.3-1.2-0.5-2.5-0.6-4.7h-2.8v0.4h1.4c0.6,0,0.9,0,1.2-0.1v1.3c-0.3,0-0.6-0.1-1.2-0.1h-1.4v0.4h1.2
		c0.7,0,0.9,0,1.2,0c0,0.3,0,0.4,0,0.9v1.5c0,0.6,0,0.6,0,0.9c-0.3,0-0.6,0-1.2,0h-1.2v0.4H45.7z M44.4,295.3v-0.4h-0.9v0.4H44.4z
		 M44.4,296.5v-0.4h-0.9v0.4H44.4z M49.2,290.5c-0.4-0.7-0.7-1.2-1-1.6l0,1.6H49.2z"/>
	<path class="st0" d="M52.3,290.4c0.5,0.1,0.8,0.1,1.4,0.1c1,0,2-0.1,3.2-0.2c-0.1-0.2-0.1-0.2-0.2-0.5c-0.2-0.6-0.4-0.9-0.5-1.3
		l2.3-0.3c0.1,0.5,0.3,1.2,0.6,1.8c1.4-0.2,2.4-0.4,3.2-0.7l0.2,2.2c-0.4,0.1-0.4,0.1-1.1,0.2c-0.6,0.1-1.1,0.2-1.6,0.3
		c0.5,1.1,1.3,2.3,2.2,3.6l-2.2,0.9c-0.4-0.4-0.7-0.6-1.4-0.7c-0.4-0.1-0.9-0.1-1.4-0.1c-1.5,0-2.3,0.4-2.3,1.1c0,0.7,0.8,1,2.4,1
		c1.5,0,3.1-0.4,4.1-0.9l0.3,2.3c-0.2,0.1-0.3,0.1-0.6,0.1c-1.7,0.4-2.5,0.5-3.8,0.5c-1.8,0-3-0.3-3.8-0.9c-0.6-0.5-1-1.3-1-2.1
		c0-0.7,0.3-1.4,0.8-1.9c0.8-0.8,2-1.2,3.7-1.2c0.7,0,1.1,0.1,1.8,0.3c-0.2-0.3-0.5-0.7-0.8-1.4c-0.1-0.2-0.1-0.3-0.2-0.4
		c-1.1,0.2-2.8,0.3-4.6,0.3c-0.4,0-0.4,0-0.7,0L52.3,290.4z"/>
	<path class="st0" d="M63.7,296.1c0.4-0.3,0.6-0.5,0.9-0.8c0.9-0.9,1.4-1.4,1.4-1.4c0-0.2,0-0.6,0-1.4c-1.5,0.1-1.5,0.1-1.9,0.2
		l-0.1-2.1c0.3,0,0.5,0,0.7,0c0.3,0,0.9,0,1.4-0.1c0-0.2,0-0.2,0-0.4c0-0.3,0-0.6,0-0.9c0-0.4,0-0.5-0.1-0.9l2.3,0.1
		c-0.1,0.3-0.1,1.1-0.2,1.9l0.7,0.7c-0.2,0.2-0.5,0.5-0.8,0.9l0,0.2c0,0.1,0,0.2,0,0.3c1.6-1.5,3-2.2,4.1-2.2c1.3,0,2.1,0.8,2.1,2
		c0,0.4-0.1,0.9-0.3,2c-0.4,1.6-0.6,2.5-0.6,2.8c0,0.2,0.1,0.4,0.3,0.4s0.5-0.2,0.7-0.6c0.3-0.5,0.6-1,0.8-1.4
		c0.3,0.8,0.5,1.2,1.1,2.1c-1,1.6-1.8,2.3-3.1,2.3s-2-0.8-2-2.1c0-0.7,0.1-1.5,0.6-3.5c0.2-0.7,0.2-1.1,0.2-1.3
		c0-0.2-0.1-0.4-0.4-0.4c-0.3,0-0.8,0.2-1.2,0.5c-0.9,0.6-1.7,1.3-2.2,2c0,0.6,0,1,0,1.4c0,1.8,0,3.2,0.1,3.7l-2.4,0
		c0.1-0.5,0.1-1.2,0.1-2v-0.7c0-0.1,0-0.1,0-0.3c0-0.1,0-0.1,0-0.2c0-0.1,0-0.1,0-0.2c-0.9,1.1-1.1,1.4-1.3,1.6L63.7,296.1z"/>
	<path class="st0" d="M76.2,289.6c0.2,0,0.4,0,0.5,0c0.3,0,0.8,0,2.2-0.1c2-0.1,3-0.2,6.9-0.3c1.1,0,1.2-0.1,1.4-0.1l0.1,2.4
		c-0.2,0-0.2,0-0.4,0c-0.9,0-2.1,0.4-3,0.9c-1.3,0.8-2.1,1.9-2.1,3c0,0.7,0.4,1.2,1.1,1.6c0.5,0.3,1.6,0.5,2.5,0.5
		c0.1,0,0.2,0,0.4,0l-0.3,2.5c-0.2,0-0.2,0-0.5-0.1c-1.5-0.1-2.5-0.4-3.3-0.7c-1.5-0.7-2.3-1.9-2.3-3.6c0-1.1,0.4-2.1,1.1-2.9
		c0.3-0.4,0.6-0.7,1.3-1.1l-4.5,0.4c-0.5,0.1-0.6,0.1-1.1,0.2L76.2,289.6z"/>
	<path class="st0" d="M91.4,289.2c-0.1,0.6-0.1,1.4-0.1,2.4c0,2.9,0.4,5.1,1,5.1c0.1,0,0.3-0.2,0.4-0.5c0.3-0.7,0.5-1.5,0.7-2.2
		c0.6,0.7,0.9,1,1.8,1.6c-0.3,1-0.6,1.8-1,2.5c-0.5,0.9-1.2,1.3-2,1.3c-0.7,0-1.4-0.4-1.9-1.1c-0.7-1-1-2.3-1.2-4.3
		c-0.1-0.9-0.1-2-0.1-3.8c0-0.4,0-0.6-0.1-0.9H91.4z M97.4,289.7c1.7,2,2.6,4.4,3,7.6l-2.3,0.9c-0.1-2.9-1-5.5-2.7-7.5L97.4,289.7z"
		/>
	<path class="st0" d="M102.7,288.7c0.5,0.1,1,0.1,1.9,0.1c1.2,0,2.6-0.1,3.9-0.2c0.6,0,0.7-0.1,1-0.2l1.1,1.6
		c-0.3,0.2-0.3,0.2-2.1,1.7c-0.7,0.6-0.9,0.8-1.8,1.4c0.7-0.2,1.1-0.2,1.8-0.2c1.2,0,2.1,0.3,2.8,0.9c0.6,0.6,0.9,1.3,0.9,2.2
		c0,1.3-0.6,2.4-1.8,3.1c-0.9,0.5-2.1,0.8-3.4,0.8c-2.2,0-3.5-0.9-3.5-2.3c0-1.2,1.1-2.1,2.6-2.1c0.9,0,1.8,0.4,2.3,1
		c0.3,0.3,0.4,0.5,0.6,1c0.7-0.3,1-0.8,1-1.4c0-0.9-0.9-1.5-2.3-1.5c-1.4,0-2.8,0.4-4,1.2c-0.4,0.3-0.8,0.6-1.2,1l-1.2-2
		c1.2-0.6,3.9-2.7,5.6-4.3c-0.7,0.1-1.2,0.1-3,0.2c-0.4,0-0.6,0-0.9,0.1L102.7,288.7z M105.9,297.2c-0.3,0-0.5,0.2-0.5,0.4
		c0,0.4,0.4,0.6,1.1,0.6c0.2,0,0.2,0,0.4,0C106.8,297.5,106.4,297.2,105.9,297.2z"/>
	<path class="st0" d="M120.1,298.1v0.7c0,0.9,0,1.2,0.1,1.4h-1.8c0.1-0.4,0.1-0.8,0.1-1.4v-3.9c-0.2,1.8-0.2,1.8-0.3,2.6
		c-0.2,1.2-0.4,1.9-0.9,2.8c-0.4-0.6-0.6-0.9-1-1.4c0,0.6,0,0.9,0.1,1.4h-2.1c0.1-0.7,0.1-0.9,0.1-1.5v-3.2c0-0.3,0-0.6,0-1.4
		c-0.2,0.3-0.4,0.6-0.6,0.9c-0.2-1.1-0.3-1.5-0.7-2.4c0.6-0.7,1.1-1.5,1.5-2.5c0.3-0.8,0.5-1.5,0.6-2.1l2,0.5
		c-0.1,0.2-0.1,0.2-0.1,0.4c0.4,0,0.7,0,1.3,0h0.2v-0.2c0-0.3,0-0.5-0.1-0.7h2c0,0.2,0,0.4,0,0.6v0.2h1.3v-0.2c0-0.4,0-0.5,0-0.7h2
		c0,0.2,0,0.4,0,0.6v0.2h0.4c0.6,0,1.2,0,1.4-0.1v1.8c-0.5,0-0.6,0-1.4,0h-0.4v0.6h0.5c0.8,0,1,0,1.5-0.1v1.8
		c-0.4,0-0.7-0.1-1.2-0.1h-5.8v0.4c0.3,0,0.7,0,1.3,0h4.1c0.6,0,0.9,0,1.2-0.1c0,0.3-0.1,0.7-0.1,1.4v4.4c0,1-0.3,1.2-2.1,1.3
		c-0.1-0.6-0.1-0.9-0.3-1.4c0.2,0,0.3,0,0.5,0c0.2,0,0.2,0,0.2-0.3v-0.4h-0.8v0.5c0,0.8,0,1.1,0.1,1.5h-1.7c0.1-0.4,0.1-0.8,0.1-1.5
		v-0.5H120.1z M116.2,297.7c0.2-0.5,0.2-0.8,0.3-1.3c0.1-0.8,0.2-2.2,0.2-3.8c0-0.8,0-1.1-0.1-1.6c0.5,0,0.7,0.1,1.4,0.1h0.4v-0.6
		h-0.2c-0.8,0-1,0-1.4,0v-1.4c-0.2,0.8-0.4,1.1-0.7,1.9V297.7z M120.9,294.6h-0.8v0.5h0.8V294.6z M120.9,296.3h-0.8v0.5h0.8V296.3z
		 M121.7,291.1v-0.6h-1.3v0.6H121.7z M123.3,295.1v-0.5h-0.8v0.5H123.3z M123.3,296.9v-0.5h-0.8v0.5H123.3z"/>
	<path class="st0" d="M129.2,288.6c0-0.3,0-0.4,0-0.6h2c0,0.2,0,0.4,0,0.6h2.5c0-0.2,0-0.4,0-0.6h2c0,0.2,0,0.4,0,0.6h1.3
		c0.7,0,1.1,0,1.6-0.1v1.6c-0.5-0.1-0.8-0.1-1.6-0.1h-1.3c0,0.2,0,0.2,0,0.4h-1.9c0-0.1,0-0.2,0-0.4H131c0,0.2,0,0.2,0,0.4h-1.9
		c0-0.1,0-0.2,0-0.4h-1.1c-0.7,0-1.1,0-1.6,0.1v-1.6c0.5,0.1,0.9,0.1,1.6,0.1H129.2z M135.4,292.8c-0.8,0.7-1.3,1.1-1.5,1.2
		c0.2,0,0.4,0,0.6,0c0.5,0,0.5,0,0.9,0c-0.2-0.2-0.3-0.2-0.5-0.4l1.4-0.9c1,0.8,1.6,1.4,2.4,2.3l-1.3,1.1c0,0.3,0,0.5,0,1v1.9
		c0,0.5,0,0.9,0.1,1.3h-2v-0.4h-5.9v0.4h-2c0-0.4,0.1-0.9,0.1-1.3v-2c0-0.5,0-0.9,0-1.2c0.5,0,0.6,0,1.4,0h7.1c0.5,0,0.7,0,0.9,0
		c-0.2-0.2-0.3-0.3-0.4-0.5c-3.7,0.2-3.7,0.2-8.9,0.4c-0.4,0-0.6,0-0.9,0.1l-0.2-1.7c0.5,0.1,1,0.1,2.8,0.1
		c-0.6-0.3-0.9-0.5-1.6-0.8l1.2-1h-0.7c-0.7,0-1.2,0-1.6,0.1v-1.6c0.4,0,0.9,0.1,1.6,0.1h3.2c0-0.2,0-0.3,0-0.5h1.9
		c0,0.1,0,0.2,0,0.5h3.3c0.6,0,1.2,0,1.6-0.1v1.6c-0.3,0-0.9-0.1-1.6-0.1h-2.4L135.4,292.8z M129.1,292.3c0.5,0.2,0.7,0.3,1,0.5
		c0.2-0.2,0.3-0.3,0.6-0.5H129.1z M129.5,297.3h2v-0.4h-2V297.3z M129.5,298.6h2v-0.4h-2V298.6z M132.7,292.3
		c-0.4,0.4-0.8,0.7-1.4,1.2c0.3,0.2,0.3,0.2,0.4,0.2c0.5-0.4,1.3-1,1.8-1.5H132.7z M133.4,297.3h2.1v-0.4h-2.1V297.3z M133.4,298.6
		h2.1v-0.4h-2.1V298.6z"/>
	<path class="st0" d="M139.6,300.2c0.1-0.4,0.1-0.8,0.1-1.5v-3.5c0-0.4,0-0.8-0.1-1.2c0.4,0,0.8,0.1,1.3,0.1h3.2c0.4,0,0.6,0,0.9,0
		c0,0.2,0,0.4,0,1v3.9c0,0.5,0,0.8,0,1.1h-2v-0.4h-1.5v0.6H139.6z M141.3,289.5c0-0.5,0-0.8-0.1-1.2c0.4,0,0.8,0.1,1.5,0.1h5.5
		c0.7,0,1.1,0,1.5-0.1c0,0.3-0.1,0.7-0.1,1.2v2.6c0,0.6,0,0.9,0.1,1.3c-0.4,0-0.6,0-1.3,0h-5.9c-0.7,0-1,0-1.3,0
		c0-0.3,0.1-0.8,0.1-1.3V289.5z M143.1,295.8h-1.5v2h1.5V295.8z M143.2,290.2v1.3h4.5v-1.3H143.2z M150,294c0.6,0,0.9,0,1.2-0.1
		c0,0.4-0.1,0.7-0.1,1.2v3.5c0,0.7,0,1.1,0.1,1.5h-2v-0.6h-1.6v0.6h-1.9c0-0.3,0-0.6,0-1.1V295c0-0.6,0-0.7,0-1c0.3,0,0.5,0,0.9,0
		H150z M147.6,297.8h1.7v-2h-1.7V297.8z"/>
	<path class="st0" d="M158.3,296.5c-0.8,1.7-1.6,2.4-2.8,2.4c-1.7,0-3-1.7-3-4c0-1.5,0.5-2.9,1.5-4c1.1-1.2,2.8-1.9,4.7-1.9
		c1.7,0,3.3,0.6,4.2,1.6c0.8,0.9,1.3,2.1,1.3,3.6c0,1.7-0.6,3.2-1.7,4.2c-0.9,0.8-1.9,1.2-3.7,1.5c-0.3-0.9-0.6-1.4-1.1-2.1
		c1.2-0.1,2-0.3,2.7-0.7c1-0.5,1.6-1.6,1.6-3c0-1.1-0.4-2-1.1-2.6c-0.3-0.3-0.6-0.4-1.1-0.5C159.4,293.2,159,294.9,158.3,296.5z
		 M156,291.7c-0.9,0.7-1.4,1.9-1.4,3.1c0,0.9,0.4,1.7,0.8,1.7c0.3,0,0.7-0.5,1.1-1.4c0.5-1.2,0.8-2.7,1-4
		C156.9,291.1,156.5,291.3,156,291.7z"/>
	<path class="st0" d="M170.2,294.2c-0.3,0.5-0.5,1-0.8,1.7c-0.3-0.4-0.5-0.7-0.7-1.3c0,0.4,0,0.4,0,1.4v2.6c0,0.6,0,1.2,0.1,1.7
		h-2.1c0.1-0.4,0.1-1.1,0.1-1.7V297c0-0.5,0-0.8,0-1.3c-0.3,0.9-0.6,1.4-1,2c-0.3-0.9-0.4-1.3-0.8-2.1c0.8-0.9,1.4-2.2,1.7-3.5h-0.5
		c-0.4,0-0.6,0-0.8,0.1v-1.9c0.2,0.1,0.4,0.1,0.8,0.1h0.6v-0.8c0-0.6,0-1-0.1-1.4h2.1c-0.1,0.4-0.1,0.8-0.1,1.4v0.8h0.4
		c0.3,0,0.5,0,0.7-0.1v1.9c-0.2,0-0.4-0.1-0.7-0.1h-0.4c0.3,0.7,0.7,1.4,1.4,2v-4.3c0-0.6,0-1-0.1-1.4c0.4,0,0.8,0.1,1.4,0.1h3.8
		c0.7,0,1,0,1.4-0.1c0,0.4-0.1,0.7-0.1,1.4v3.4c0,0.7,0,1,0.1,1.4c-0.3,0-0.4,0-0.6,0l1.3,1.2c-0.5,0.4-1.3,1-1.7,1.3
		c0.6,0.6,1,0.9,1.9,1.3c-0.6,0.8-0.6,0.9-1.1,2c-1.2-0.7-1.9-1.5-2.5-2.4l0,1.2c-1.2,0.4-2.3,0.7-3.8,1c-0.4,0.1-0.5,0.1-0.7,0.2
		l-0.3-2c0.3,0,0.5,0,1-0.1V294.2z M174.8,290.7v-0.6h-2.7v0.6H174.8z M172.1,292.8h2.7v-0.6h-2.7V292.8z M172.1,297.7
		c0.9-0.2,1.1-0.2,1.6-0.4c-0.6-1.1-0.8-1.6-1.1-2.9h-0.5V297.7z M174.4,294.5c0.1,0.5,0.2,0.6,0.4,1c0.5-0.4,0.8-0.7,1.1-1h-0.2
		H174.4z"/>
	<path class="st0" d="M184.9,289.7c0.3,0,0.5,0,0.7,0c0,0.1,0,0.1,0,0.2c0,0.1,0,0.2,0,0.5c0,2.4-0.4,4.5-1,6.1
		c0.4,0.6,1.1,1.1,1.6,1.3c0.7,0.3,1.7,0.4,3,0.4c0.4,0,0.8,0,1.4-0.1c-0.3,0.8-0.4,1.2-0.5,2c-3.5,0-5.1-0.5-6.3-2.2
		c-0.5,0.8-1,1.5-1.8,2.2c-0.4-0.7-0.5-1-1-1.6c0,0.6-0.1,1-0.3,1.2c-0.1,0.2-0.3,0.3-0.6,0.4c-0.2,0-0.6,0.1-0.8,0.1
		c-0.5,0-0.7,0-0.9,0c-0.1-0.8-0.1-1.2-0.4-1.9c0.3,0,0.6,0.1,0.8,0.1c0.3,0,0.3-0.1,0.3-0.4v-2.2c-0.1,0-0.1,0-0.3,0.1
		c-0.1,0-0.1,0-0.2,0.1c-0.2,0.1-0.2,0.1-0.4,0.1l-0.2-2c0.3,0,0.7-0.1,1.1-0.2V292h-0.1c-0.3,0-0.6,0-0.9,0.1v-1.9
		c0.3,0.1,0.5,0.1,0.9,0.1h0.1v-0.8c0-0.6,0-0.9-0.1-1.3h1.9c-0.1,0.4-0.1,0.7-0.1,1.3v0.8h0.2c0.2,0,0.4,0,0.5,0v1.8
		c-0.2,0-0.3,0-0.5,0H181v1.5l0.5-0.2c0.5-1.4,0.8-3,0.8-4.7c0-0.2,0-0.3,0-0.5l1.8,0.2c0,0.1,0,0.2,0,0.4c-0.1,0.8-0.1,0.8-0.1,1
		H184.9z M181,298.5c0.9-0.8,1.3-1.3,1.9-2.3c-0.1-0.4-0.2-0.6-0.4-1.1c-0.2,0.3-0.2,0.4-0.5,0.8c-0.2-0.4-0.3-0.6-0.5-0.9v0.1
		c-0.2,0.1-0.4,0.1-0.5,0.2V298.5z M183.6,291.4c-0.1,0.5-0.2,0.9-0.3,1.4c0.1,0.8,0.2,1,0.3,1.5c0.2-0.9,0.3-1.6,0.4-2.9H183.6z
		 M187.4,290.3c0,4.1-0.2,5.3-1.1,7.2c-0.5-0.5-0.7-0.6-1.4-1.1c0.8-1.4,1-2.6,1-6.7c0-0.6,0-0.9-0.1-1.2c0.3,0,0.6,0,1,0h1.5
		c0.5,0,0.7,0,0.9,0c0,0.3,0,0.7,0,1.2v5.8c0,0.1,0,0.1,0.1,0.1c0.1,0,0.2,0,0.2-0.2c0.1-0.3,0.1-0.7,0.1-2.1
		c0.3,0.2,0.5,0.3,0.9,0.4c-0.1,3.5-0.1,3.6-1.5,3.6c-0.6,0-1-0.1-1.2-0.4c-0.1-0.1-0.1-0.4-0.1-0.8v-6H187.4z"/>
	<path class="st0" d="M194.9,288.6c-0.1,0.3-0.2,0.7-0.4,1.3c-0.4,1.8-0.6,3.2-0.6,5l1,0.3c-0.4,1.3-0.5,2.3-0.5,4
		c0,0.1,0,0.2,0,0.5l-2.2,0.1c0-0.2,0-0.2-0.1-1c-0.2-1.8-0.3-2.5-0.3-3.9c0-1.8,0.1-3,0.5-5.3c0.1-0.6,0.2-0.9,0.2-1.1
		c0,0,0,0,0-0.1L194.9,288.6z M195.4,290.7c0.5,0.1,1.4,0.2,2.4,0.2c0.3,0,0.5,0,0.9,0c0-0.8,0-0.8,0-1.7c0-0.3,0-0.5-0.1-0.7l2.2,0
		c-0.1,0.4-0.1,1-0.1,2.3c0.8-0.1,1.6-0.2,2.1-0.4l0.1,2.1c-0.2,0-0.2,0-0.5,0.1c-0.4,0.1-1,0.2-1.6,0.2c0,1,0,1.3,0.1,2.8
		c0.9,0.4,1.4,0.7,2.1,1.2c0.1,0.1,0.1,0.1,0.2,0.2l-0.8,2.2c-0.3-0.4-0.8-0.8-1.5-1.2c0,0.1,0,0.1,0,0.1c0,1.1-1.1,1.8-2.8,1.8
		c-1.9,0-3-0.9-3-2.4c0-0.8,0.4-1.5,1-1.9c0.5-0.4,1.2-0.5,2-0.5c0.3,0,0.5,0,0.8,0.1c0-0.4,0-0.4,0-1c0-0.4,0-0.6,0-1.1
		c-0.3,0-0.5,0-0.7,0c-0.4,0-1.1,0-2.2-0.1c-0.2,0-0.3,0-0.3,0c0,0-0.1,0-0.2,0L195.4,290.7z M198.9,296.9c-0.3-0.1-0.5-0.2-0.8-0.2
		c-0.6,0-1,0.2-1,0.6c0,0.3,0.3,0.6,0.9,0.6c0.6,0,0.9-0.2,0.9-0.8L198.9,296.9z"/>
	<path class="st0" d="M205.6,295.6c1.2,0.9,2.1,1.7,3.2,2.9l-1.7,1.7c-1-1.2-1.8-2-3.1-3.1L205.6,295.6z"/>
	<path class="st0" d="M212.1,294.9v-7h4.3v2.1h-2v4.9H212.1z"/>
	<path class="st0" d="M222.1,289.5c0-0.6,0-1.1-0.1-1.4h2.2c-0.1,0.4-0.1,0.8-0.1,1.4v2.4h2.2v-1.8c0-0.5,0-0.8-0.1-1.1h2.1
		c-0.1,0.4-0.1,0.7-0.1,1.2v2.6c0,0.4,0,0.8,0.1,1c-0.3,0-0.6-0.1-1-0.1h-3.2v3.9h2.6v-1.9c0-0.4,0-0.8-0.1-1.1h2.1
		c0,0.4-0.1,0.8-0.1,1.3v2.7c0,0.7,0,1.1,0.1,1.5h-2.1v-0.6h-7.1v0.6h-2.1c0.1-0.4,0.1-0.9,0.1-1.5V296c0-0.5,0-1-0.1-1.4h2.1
		c0,0.3-0.1,0.6-0.1,1.1v1.9h2.4v-3.9h-3c-0.5,0-0.8,0-1.1,0.1c0-0.3,0.1-0.6,0.1-1v-2.6c0-0.2,0-1-0.1-1.3h2.1
		c0,0.3-0.1,0.6-0.1,1.1v1.8h2V289.5z"/>
	<path class="st0" d="M233.9,289.3c0-0.7,0-0.9-0.1-1.2h2c-0.1,0.3-0.1,0.5-0.1,1.1v0.2h0.9c0-0.9,0-0.9-0.1-1.3h2
		c-0.1,0.4-0.1,0.6-0.1,1.3h1.6c0.6,0,1,0,1.3-0.1c0,0.3-0.1,0.7-0.1,1.2v4.7c0.3,0,0.5,0,0.8-0.1v2c-0.5-0.1-1-0.1-1.7-0.1h-1.9
		c1.1,0.7,2.1,1.1,3.8,1.5c-0.5,0.7-0.7,1.1-1.1,1.9c-1.1-0.3-1.7-0.5-2.5-0.9c-0.7-0.4-1.2-0.7-2.1-1.4l1.1-1h-3.6l1.2,1
		c-0.9,0.7-1.3,1-2.1,1.4c-0.7,0.4-1.2,0.6-2.2,0.9c-0.4-0.8-0.7-1.2-1.2-1.8c1.7-0.4,2.6-0.7,3.6-1.5h-1.7c-0.7,0-1.3,0-1.7,0.1v-2
		c0.3,0,0.4,0.1,0.8,0.1v-4.7c0-0.5,0-0.8-0.1-1.2c0.4,0,0.8,0.1,1.3,0.1L233.9,289.3L233.9,289.3z M233.9,291.2h-0.9v1h0.9V291.2z
		 M233.9,294h-0.9v1.2h0.9V294z M236.7,292.2v-1h-0.9v1H236.7z M236.7,295.2V294h-0.9v1.2H236.7z M239.5,292.2v-1h-0.9v1H239.5z
		 M239.5,295.2V294h-0.9v1.2H239.5z"/>
	<path class="st0" d="M242.9,294c0.2-1,0.3-1.8,0.3-2.8c0-0.1,0-0.4,0-0.6l1.1,0.2c0,0.2,0,0.4,0,0.5c0,1.1-0.1,2.2-0.3,3.2
		L242.9,294z M246.4,298.7c0,0.7,0,1.1,0.1,1.5h-2c0.1-0.5,0.1-1.1,0.1-1.8v-9c0-0.7,0-1-0.1-1.4h2c-0.1,0.4-0.1,0.8-0.1,1.4v1.2
		l0.7-0.2c0.3,0.6,0.5,1.1,0.6,1.7c0.2,0,0.4,0,0.8,0h1.7v-0.4h-1.4c-0.5,0-0.7,0-1,0v-1.2c0.4,0,0.5,0,1,0h1.4v-0.3h-1.4
		c-0.8,0-1,0-1.4,0.1v-1.5c0.4,0.1,0.7,0.1,1.5,0.1h1.3c0-0.4,0-0.5-0.1-0.8h2c-0.1,0.3-0.1,0.4-0.1,0.8h1.6c0.8,0,1,0,1.4-0.1v1.5
		c-0.4,0-0.7-0.1-1.4-0.1H252v0.3h1.7c0.5,0,0.6,0,0.9,0v1.2c-0.3,0-0.5,0-1,0H252v0.4h1.9c0.7,0,0.9,0,1.3-0.1v1.5
		c-0.4-0.1-0.7-0.1-1.3-0.1h-5.4c-0.7,0-0.9,0-1.3,0.1v-1l-0.4,0.2c-0.1-0.5-0.2-0.9-0.4-1.2V298.7z M249.4,298.6
		c0,0.6,0,1.1,0.1,1.6h-2c0.1-0.4,0.1-0.8,0.1-1.6v-3.8c0-0.4,0-0.7,0-1.1c0.3,0,0.4,0,0.9,0h5.1c0.6,0,0.8,0,1.1,0
		c0,0.4-0.1,0.7-0.1,1.3v3.6c0,1.2-0.5,1.5-2.1,1.5c-0.2,0-0.5,0-1,0c-0.1-0.6-0.2-1-0.4-1.6c0.4,0.1,0.8,0.1,1.1,0.1
		c0.4,0,0.5,0,0.5-0.3v-0.3h-3.3V298.6z M252.6,295.4V295h-3.3v0.4H252.6z M252.6,296.9v-0.4h-3.3v0.4H252.6z"/>
	<path class="st0" d="M260.7,291.3c0.6,0,0.9,0,1.2-0.1v1.8c-0.2,0-0.3,0-0.6,0c-0.2,0.6-0.2,0.7-0.3,1.1c0.4,0,0.6,0,0.9-0.1v1.8
		c-0.4-0.1-0.7-0.1-1.2-0.1H260v0.7h0.5c0.5,0,0.8,0,1.2-0.1v1.8c-0.4-0.1-0.7-0.1-1.2-0.1H260v0.6c0,0.7,0,1,0.1,1.4h-2
		c0.1-0.5,0.1-0.8,0.1-1.4v-0.6h-0.5c-0.5,0-0.8,0-1.2,0.1v-1.8c0.4,0,0.7,0.1,1.2,0.1h0.5v-0.7h-0.8c-0.5,0-0.9,0-1.2,0.1V294
		c0.3,0,0.5,0.1,1,0.1c-0.1-0.4-0.1-0.7-0.3-1.1c-0.3,0-0.5,0-0.7,0.1v-1.8c0.4,0.1,0.7,0.1,1.2,0.1h0.8v-0.6h-0.5
		c-0.5,0-0.8,0-1.2,0.1v-1.8c0.4,0.1,0.6,0.1,1.2,0.1h0.5v-0.1c0-0.4,0-0.7-0.1-0.9h2c-0.1,0.2-0.1,0.5-0.1,0.9v0.1h0.5
		c0.6,0,0.8,0,1.2-0.1v1.8c-0.4,0-0.7-0.1-1.2-0.1H260v0.6H260.7z M259.3,294.1c0.1-0.4,0.2-0.6,0.3-1.1h-1c0.1,0.4,0.2,0.7,0.2,1.1
		H259.3z M268.2,293.4c-0.1,0.2-0.1,0.3-0.2,0.6c-0.2,1.1-0.6,2.2-0.9,3c0.5,0.5,0.8,0.7,1.5,1.1c-0.5,0.8-0.7,1.2-1,2
		c-0.7-0.5-0.9-0.8-1.5-1.4c-0.4,0.6-0.7,0.9-1.3,1.4c-0.3-0.6-0.4-0.9-0.7-1.3c0,0.6,0,0.9,0.1,1.3h-2c0.1-0.5,0.1-1,0.1-1.8v-8.7
		c0-0.4,0-1.1-0.1-1.4c0.4,0,0.7,0.1,1.2,0.1h3.4c0.6,0,1.1,0,1.3-0.1c0,0.5,0,0.5-0.1,1.3c-0.1,1.5-0.2,1.9-0.4,2.2
		c-0.2,0.3-0.6,0.4-1.5,0.4c-0.3,0-0.6,0-1.1-0.1c-0.1-0.5-0.1-1-0.3-1.5c0.5,0.1,0.9,0.1,1.2,0.1c0.3,0,0.3-0.1,0.4-0.6H264v2.4h2
		c0.7,0,1.1,0,1.4-0.1L268.2,293.4z M264,298.3c0.4-0.3,0.6-0.6,0.9-1c-0.4-0.8-0.7-1.5-0.9-2.3V298.3z M265.3,294.2
		c0.1,0.5,0.3,0.9,0.5,1.4c0.2-0.5,0.2-0.7,0.4-1.4H265.3z"/>
	<path class="st0" d="M273.2,293.3v7h-4.3v-2.1h2.1v-4.9H273.2z"/>
	<path class="st0" d="M276.1,289.4c0.6,0.1,1.3,0.2,2.7,0.2c0.1,0,0.2,0,0.4,0c0.3-0.6,0.4-1,0.4-1.4l2.4,0.2
		c-0.1,0.2-0.1,0.2-0.3,0.6c-0.2,0.4-0.2,0.6-0.3,0.6c0.1,0,0.1,0,0.8-0.1c1.3-0.1,2.6-0.2,3.3-0.4l0.1,2.1c-0.4,0-0.8,0.1-1.2,0.1
		c-0.9,0.1-2.5,0.2-3.9,0.2c-0.2,0.4-0.3,0.5-0.6,1c0.6-0.3,1.1-0.4,1.7-0.4c1.1,0,1.7,0.4,2,1.3c0.2-0.1,0.2-0.1,0.9-0.3
		c0,0,0.4-0.1,0.8-0.3c0.7-0.2,0.8-0.3,1-0.4l0.8,2.1c-0.7,0.1-2.1,0.5-3.3,0.9c0,0.4,0,0.4,0,0.9c0,0.6,0,0.8,0.1,1.1l-2.1,0.1
		c0-0.2,0.1-0.6,0.1-1.4l-0.1,0.1c-0.6,0.3-0.7,0.3-0.9,0.5c-0.2,0.2-0.3,0.4-0.3,0.7c0,0.5,0.5,0.7,1.7,0.7c1.6,0,3.1-0.2,4.2-0.6
		l0.1,2.3c-0.4,0-0.4,0-1.2,0.1c-1,0.1-2.1,0.2-3.1,0.2c-1.5,0-2.4-0.2-3.1-0.6c-0.7-0.4-1-1.1-1-1.8c0-0.6,0.2-1.1,0.6-1.6
		c0.5-0.6,1.1-1,1.9-1.4c0.3-0.2,0.4-0.2,1-0.4c-0.1-0.2-0.3-0.3-0.5-0.3c-0.7,0-1.6,0.5-2.5,1.2c-0.5,0.5-0.9,0.8-1.2,1.3l-1.7-1.6
		c0.4-0.3,1-0.8,1.4-1.4c0.3-0.4,0.8-1.1,1-1.4c0.2-0.3,0.2-0.3,0.2-0.4c-0.2,0-0.3,0-0.4,0c-0.6,0-0.6,0-1.1,0c-0.2,0-0.3,0-0.5,0
		c0,0-0.1,0-0.2,0L276.1,289.4z"/>
	<path class="st0" d="M292.2,294.7c-0.8,0.6-1.2,1.1-1.2,1.6c0,0.7,0.8,1,2.8,1c1.5,0,3.4-0.3,4.3-0.6l0.2,2.5c-0.2,0-0.3,0-0.5,0
		c-0.1,0-0.2,0-0.4,0.1l-0.4,0.1c-1.1,0.1-2.2,0.2-3.2,0.2c-1.5,0-2.5-0.1-3.3-0.5c-1.2-0.5-1.7-1.3-1.7-2.4c0-1.2,0.6-2.1,1.9-3.1
		L292.2,294.7z M289.5,288.8c0.8,0.2,2.4,0.4,4.3,0.4c1.7,0,2.9-0.1,3.6-0.2l0.1,2c-0.8,0.4-2.7,1.6-3.6,2.3l-1.6-1.1
		c0.3-0.2,0.4-0.3,0.6-0.4l0.4-0.3c0.1-0.1,0.2-0.1,0.2-0.1l0.1-0.1c0,0,0.1-0.1,0.2-0.1c-0.4,0-0.6,0.1-1.1,0.1c-1,0-1.6,0-2.9-0.2
		c-0.3,0-0.3,0-0.5,0L289.5,288.8z M296.8,292.1c0.5,0.6,0.9,1.2,1.3,1.9l-1.2,0.6c-0.4-0.8-0.8-1.3-1.3-1.9L296.8,292.1z
		 M298.4,291.3c0.5,0.5,0.8,1,1.3,1.8l-1.2,0.6c-0.4-0.8-0.8-1.3-1.3-1.9L298.4,291.3z"/>
	<path class="st0" d="M305.5,293.1c-0.8,0.9-1.7,1.5-3.1,2c1.2-0.2,2.2-0.5,3.1-1c0.4-0.2,0.8-0.5,1-0.7l1.4,1
		c-0.7,0.5-1.5,1-2.3,1.3c-0.9,0.4-1.7,0.6-3.1,0.9c-0.2-0.5-0.3-0.8-0.7-1.2c-0.3,0.1-0.5,0.2-1,0.3c-0.3-0.7-0.5-1.1-0.9-1.6
		c1.3-0.2,2-0.5,2.8-0.9H302c-0.6,0-1.2,0-1.7,0.1v-1.8c0.4,0.1,0.9,0.1,1.7,0.1h2.5c0.1-0.2,0.1-0.2,0.2-0.5c-1.3,0-1.3,0-2.6,0
		c-0.2,0-0.4,0-0.7,0l-0.2-1.7c0.4,0,0.9,0.1,1.9,0.1c0.5-0.6,0.8-1.1,1.1-1.6l2.1,0.4c-0.1,0.1-0.1,0.1-0.3,0.4
		c-0.2,0.3-0.4,0.6-0.7,0.9c0.8,0,1.8,0,2.6-0.1c-0.2-0.2-0.4-0.3-0.7-0.6l1.5-0.8c1,0.8,1.8,1.5,2.8,2.6l-1.6,0.9h0.6
		c0.8,0,1.3,0,1.7-0.1v1.8c-0.4-0.1-0.9-0.1-1.6-0.1h-1.2c0.7,0.5,1.8,0.9,3.1,1.1c-0.4,0.6-0.6,1-0.8,1.8c-2-0.5-3.6-1.5-4.7-2.9
		H305.5z M309.5,295.6c-1.3,1-1.8,1.3-2.9,1.7c-1.2,0.5-2.4,0.8-4.2,1.1c-0.2-0.6-0.4-1-0.8-1.4c1.9-0.1,3.5-0.6,4.9-1.3
		c0.7-0.4,1.3-0.7,1.5-1L309.5,295.6z M311.4,296.8c-1.5,1.3-1.9,1.5-3,2.1c-1.6,0.8-3.4,1.3-5.8,1.5c-0.3-0.7-0.4-1.1-0.9-1.7
		c2.8-0.1,4.8-0.7,6.7-1.8c0.5-0.3,1.1-0.8,1.4-1.1L311.4,296.8z M309.8,291.4c-0.4-0.5-0.4-0.5-0.6-0.7c-0.7,0.1-1.4,0.1-2.3,0.2
		c-0.1,0.3-0.2,0.4-0.3,0.6H309.8z"/>
	<path class="st0" d="M313,299.2c0.8-0.8,1.2-1.4,1.5-2.4l1.8,0.7c-0.5,1.3-0.9,1.9-1.6,2.8L313,299.2z M318,295.3c0,0.8,0,1,0,1.3
		c-0.4,0-0.8,0-1.4,0h-1.8c-0.6,0-0.9,0-1.3,0.1c0-0.4,0.1-0.8,0.1-1.4v-5.4c0-0.6,0-1-0.1-1.4c0.4,0,0.7,0.1,1.4,0.1h2.1
		c0.5,0,0.7,0,1-0.1c0,0.3,0,0.5,0,1v2.2c1.1-0.4,1.5-0.8,1.7-1.5h-0.2c-0.5,0-0.8,0-1.2,0.1v-1.9c0.5,0,1,0.1,1.6,0.1h3.9
		c0.6,0,0.9,0,1.3-0.1c0,0.3-0.1,0.6-0.1,0.9c0,0.8-0.1,1.6-0.2,2c-0.2,0.7-0.5,1-1,1.2c-0.3,0.1-0.8,0.2-1.6,0.2
		c-0.1,0-0.2,0-0.5,0c-0.1-0.6-0.1-0.9-0.4-1.6c0.4,0.1,0.8,0.1,1.1,0.1c0.5,0,0.5-0.1,0.6-1h-1.4c-0.3,1.2-0.9,2-2,2.6h3.7
		c0.7,0,1,0,1.4-0.1c0,0.4-0.1,0.7-0.1,1.4v1.4c0,0.7,0,1,0.1,1.4c-0.3,0-0.4,0-1.1,0c0.7,0.8,1.1,1.5,1.6,2.4l-1.8,1
		c-0.6-1.2-0.9-1.8-1.6-2.8l1.5-0.6h-3.7c-0.7,0-1.1,0-1.4,0c0-0.3,0-0.5,0-1.2v-2c0-0.5,0-0.7,0-0.9c-0.1-0.3-0.3-0.4-0.5-0.7
		V295.3z M315.4,291.6h0.9v-1.5h-0.9V291.6z M315.4,294.8h0.9v-1.5h-0.9V294.8z M316.8,300.1c0-0.4,0-0.6,0-0.9c0-0.7,0-1.1-0.1-1.8
		l1.8-0.2c0.2,1,0.2,1.7,0.3,2.8L316.8,300.1z M319.9,300.2c-0.1-1-0.2-1.7-0.5-2.7l1.8-0.3c0.3,0.9,0.5,1.6,0.7,2.7L319.9,300.2z
		 M320.3,295.2h2.4v-0.8h-2.4V295.2z"/>
	<path class="st0" d="M334.8,289.5c-0.3,0.2-0.4,0.3-1.7,1.4c-0.8,0.7-1.8,1.5-3.2,2.5c-0.4,0.3-0.4,0.3-0.4,0.5
		c0,0.2,0,0.2,1.2,1.1c1.4,1,2.5,1.9,4,3.2c0.1,0.1,0.2,0.2,0.4,0.3l-1.9,1.9c-0.3-0.4-0.6-0.8-1.3-1.4c-1.1-1.1-1.6-1.4-3.8-3.2
		c-0.7-0.5-0.9-0.7-1.1-1.1c-0.1-0.2-0.2-0.6-0.2-0.9c0-0.5,0.2-0.9,0.5-1.2c0.2-0.2,0.4-0.4,1.2-1c1.7-1.3,2.5-2,3.4-2.9
		c0.3-0.3,0.4-0.5,0.7-0.8L334.8,289.5z"/>
	<path class="st0" d="M343.9,291.9c1.3-0.2,1.8-0.2,3.4-0.2c0.1,0,0.4,0,0.6,0l0,2.2c-0.6-0.1-1-0.1-1.7-0.1c-1.4,0-2.4,0.1-3.7,0.3
		l-0.1-1.8c-0.6,0.1-0.8,0.1-1.2,0.1c-0.5,2.6-0.8,3.6-2.1,7.6l-2.4-0.9c0.9-1.7,1.7-4.4,2.2-6.7c-0.1,0-0.2,0-0.2,0
		c-0.3,0-0.7,0-0.9,0c-0.3,0-0.4,0-0.5,0c-0.1,0-0.2,0-0.3,0l0-2.1c0.5,0.1,1.2,0.1,2,0.1c0,0,0.1,0,0.2,0c0.2-1.1,0.2-1.5,0.2-1.9
		c0-0.1,0-0.1,0-0.2l2.4,0.2c-0.1,0.3-0.1,0.4-0.2,0.8c-0.1,0.3-0.1,0.7-0.2,1.1c0.9-0.1,1.5-0.2,2.1-0.3L343.9,291.9z M344.3,295.4
		c-0.5,0.6-0.7,1-0.7,1.4c0,0.6,0.5,0.9,1.6,0.9c1,0,2.3-0.2,3.1-0.5l0.2,2.3c-0.3,0-0.4,0-0.7,0.1c-1.2,0.2-1.7,0.2-2.5,0.2
		c-2.5,0-3.8-0.8-3.8-2.5c0-0.8,0.3-1.5,1-2.5L344.3,295.4z M345.8,288.6c0.5,0.5,0.9,1.2,1.3,1.9l-1.2,0.6c-0.4-0.8-0.8-1.4-1.3-2
		L345.8,288.6z M347.6,287.8c0.5,0.5,0.8,1,1.3,1.9l-1.2,0.6c-0.5-0.9-0.9-1.4-1.3-1.9L347.6,287.8z"/>
	<path class="st0" d="M350.1,290.4c0.5,0.1,0.8,0.1,1.4,0.1c1,0,2-0.1,3.2-0.2c-0.1-0.2-0.1-0.2-0.2-0.5c-0.2-0.6-0.4-0.9-0.5-1.3
		l2.3-0.3c0.1,0.5,0.3,1.2,0.6,1.8c1.4-0.2,2.4-0.4,3.2-0.7l0.2,2.2c-0.4,0.1-0.4,0.1-1.1,0.2c-0.6,0.1-1.1,0.2-1.6,0.3
		c0.5,1.1,1.3,2.3,2.2,3.6l-2.2,0.9c-0.4-0.4-0.7-0.6-1.4-0.7c-0.4-0.1-0.9-0.1-1.4-0.1c-1.5,0-2.3,0.4-2.3,1.1c0,0.7,0.8,1,2.4,1
		c1.5,0,3.1-0.4,4.1-0.9l0.3,2.3c-0.2,0.1-0.3,0.1-0.6,0.1c-1.7,0.4-2.5,0.5-3.8,0.5c-1.8,0-3-0.3-3.8-0.9c-0.6-0.5-1-1.3-1-2.1
		c0-0.7,0.3-1.4,0.8-1.9c0.8-0.8,2-1.2,3.7-1.2c0.7,0,1.1,0.1,1.8,0.3c-0.2-0.3-0.5-0.7-0.8-1.4c-0.1-0.2-0.1-0.3-0.2-0.4
		c-1.1,0.2-2.8,0.3-4.6,0.3c-0.4,0-0.4,0-0.7,0L350.1,290.4z"/>
	<path class="st0" d="M364.7,289.2c-0.1,0.6-0.1,1.4-0.1,2.4c0,2.9,0.4,5.1,1,5.1c0.1,0,0.3-0.2,0.4-0.5c0.3-0.7,0.5-1.5,0.7-2.2
		c0.6,0.7,0.9,1,1.8,1.6c-0.3,1-0.6,1.8-1,2.5c-0.5,0.9-1.2,1.3-2,1.3c-0.7,0-1.4-0.4-1.9-1.1c-0.7-1-1-2.3-1.2-4.3
		c-0.1-0.9-0.1-2-0.1-3.8c0-0.4,0-0.6-0.1-0.9H364.7z M370.6,289.7c1.7,2,2.6,4.4,3,7.6l-2.3,0.9c-0.1-2.9-1-5.5-2.7-7.5
		L370.6,289.7z"/>
	<path class="st0" d="M379.4,297.8c0,1.4-1.1,2.5-2.5,2.5c-1.4,0-2.5-1.1-2.5-2.5c0-1.4,1.1-2.5,2.5-2.5
		C378.3,295.3,379.4,296.4,379.4,297.8z M375.8,297.8c0,0.6,0.5,1.1,1.1,1.1s1.1-0.5,1.1-1.1s-0.5-1.1-1.1-1.1
		S375.8,297.2,375.8,297.8z"/>
</g>
<g>
	<path d="M491,324.7c9.1-10.1,21.5-13.2,34.8-13.6c2.8-0.1,6,0.5,8.3,1.9c5.9,3.7,11.5,7.9,16.8,12.3c3.4,2.8,5.1,6.8,4.5,11.3
		c-0.2,1.1-1.2,2.8-2.2,3c-12.5,3.2-25,6.2-37.5,9.3c-0.8,0.2-1.7,0.2-2.5,0c-9.6-2.6-18.9-5.7-26-13.3c-0.8-0.9-2.3-1.6-3.6-1.7
		c-8.7-0.2-17.3-0.3-26-0.1c-4.5,0.1-9.2,1.9-13.6,1.2c-16.2-2.6-32.5-0.6-48.7-1.4c-0.9,0-1.8-0.2-2.7-0.9
		c5.5-2.6,11.6-0.7,17.5-1.8c-6.2-7.9-3.2-15.4,1.3-22.5c6-9.5,14.8-16,24.5-21.3c1.3-0.7,3-0.9,4.5-1.3c1.5-4.3,1.4-4.1-3-5.2
		c-8.9-2.3-17.8-4.9-26.6-7.6c-2.6-0.8-4.9-2.6-7.1-4.2c-9.6-7.1-10.4-17.7-2.4-26.6c1.1-1.2,2-2.8,2.3-4.3c0.2-1.1-0.7-2.4-1.3-3.6
		c-0.5-0.8-1.4-1.3-2-2.1c-5-6.2-3.8-13.2,2.9-17.4c-4.1-5.2-3.8-11-1.6-16.7c4.6-11.7,11.7-21,24.6-24.4c0.1,0,0.2-0.1,0.3-0.1
		c6.3,0.6,10.8-2.6,15.7-6c7.6-5.3,16.3-3.9,23.6,2.4c1,0.8,2.7,1.5,3.9,1.2c14.8-3,26.8,1.5,36.1,13.3c5.5,7,9.5,14.8,11.8,23.4
		c2.6,9.7,2.8,19.1-5.8,26.8c1.2,0.9,2.2,1.6,3,2.4c4.1,3.5,4.3,8.2,0.2,11.8c-1.1,1-2.2,2-3.5,2.5c-2.4,0.8-2.7,2.2-2.9,4.6
		c-0.2,2.9-1.5,5.7-2.4,8.5c-0.2,0.8-0.8,1.5-0.9,2.3c-1,9.6-6.9,14.2-16.1,12.3c-5.2-1.1-10.1,2.2-12,7c-1.6,4.1-0.7,7.1,1.4,10.6
		c3,5.1,5.6,10.4,7.9,15.8C488.8,316.1,489.7,320.3,491,324.7z M524.1,345.1c-3.2-0.4-6.3-0.7-9.5-1.1c0.1,0.3,0.3,1,0.6,2.2
		c-4-2.8-7.5-5.4-11.1-7.8c-3.6-2.5-7.3-4.8-11-7.2c-0.1,0.1-0.3,0.3-0.4,0.4c1.3,0,2.6,0,3.5,0c2.7-5.1,3-11.6,9.7-13.8
		c-1.4-0.2-3.1-0.4-3.8,0.4c-4.1,3.8-8,7.8-11.9,11.8c-1.6,1.7-1.4,3.2,0.2,4.9c5.6,5.9,12.6,8.9,20.2,11.1
		C515.3,347.4,519.7,347.4,524.1,345.1c1.1-0.1,2.3,0,3.4-0.3c7-1.7,14-3.5,21-5.3c4.2-1.1,4.7-2.1,3.7-6.3
		c-1.7-7.1-17-19.8-25.3-20.3c4.7,3.3,9,6.1,13,9.3c2.1,1.7,4,3.9,5.2,6.2c2.1,4.1,0.7,6.6-3.4,8.9c-3,1.7-5.8,3.2-9.4,2.8
		c-0.6-0.1-1.2,0.5-1.8,0.9C528.4,342.3,526.3,343.7,524.1,345.1z M482.2,223c-4.3-0.2-8.5-0.4-12.7-0.7
		c-15.8-1.3-26.6-9.6-30.2-23.2c-0.6-2.3-0.9-4.6-1.5-7.2c-1.2,0.7-2.3,1.2-3.3,1.8c-13.8,8.8-23.1,20.9-26.6,37.1
		c-1.3,5.8-1.7,11.7-6.5,15.9c-0.4,0.4-0.6,1-0.8,1.6c-3.3,7.1-1.6,13.5,5.2,18.8c7,5.5,15.3,8,23.7,10.1c5,1.2,10,2.2,15.1,3.3
		c-0.4,2.4-0.7,4.5-1.2,7.2c3.6,0.4,7,0.7,10.9,1.1c-0.7-2.7-1.3-4.9-2.1-7.6c2.4,0,4.5-0.2,6.5,0c1.9,0.2,3-0.2,4.5-1.7
		c2.1-2.2,5-4.2,7.9-5.1c5.3-1.8,7.2-0.4,8.6,5c5.4-2,9.1-5.4,9.9-11.3c0.3-2.5,1.6-3.2,3.7-2.3c7.8,3.3,14.2-2,12.7-12.3
		c-0.5-3.5-2.8-4.9-5.9-3.6c-2.9,1.2-5.1,0.5-7.3-1.3C484.6,242.2,480,234.2,482.2,223z M465.4,294.8c1.6,10.9,3,21.5,4.9,32
		c0.8,4.4,4.1,6.2,8.6,5.5c5.5-0.8,9-5.3,8-10.8c-1.9-10.7-8.3-19.2-12.9-28.7C471.1,293.5,468.6,294.1,465.4,294.8z M428.4,330.6
		c0.4-3.5,0.2-6.7,1.2-9.6c1.3-3.9-0.6-5-3.6-5.9c-2.1-0.6-4.2-1.1-6.3-1.6c0.1-0.3,0.1-0.7,0.2-1c2.6,0.3,5.1,0.6,7.7,0.9
		c1.6-7.3,3.2-14.6,4.8-22c-8.7,5.9-16.7,12.7-20.6,23c-1.3,3.4-1.4,7.6-0.9,11.2c0.3,1.9,3,4.5,5,4.8
		C420,331.1,424.3,330.6,428.4,330.6z M440.1,331.5c4.4,0,8.3,0.1,12.3,0c2.8-0.1,4.5-1.5,4.6-4.5c0.2-6.4,0.4-12.7,0.7-19.1
		c0.1-3.1-1.4-4.5-4.3-4.4c-2.9,0.1-5.7,0.4-8.6,0.5c-7.7,0.2-8.2,0.8-6.8,8.5c0,0.2,0.2,0.4,0,0.1c3.6,1.5,6.9,2.8,10.6,4.3
		c-1.8,0.2-2.9,0.4-4.2,0.6c-0.1,1.6-0.1,2.9-0.2,4.7c2.6,0,4.9,0,7.1,0c0,0.2,0,0.4,0,0.6c-2.6,0.2-5.2,0.4-7.8,0.6
		c0,0.4,0.1,0.8,0.1,1.2c1.4,0.2,2.9,0.4,4.3,0.6c0,0.1,0,0.2,0,0.4c-1.7,0.2-3.4,0.5-5.1,0.7c0,0.4,0.1,0.8,0.1,1.1
		c2.3,0.1,4.7,0.3,7.6,0.4C447,330.1,442.5,326.6,440.1,331.5z M459,290.5c-0.4,0.1-0.8,0.3-1.2,0.4c0,2.3,0,4.5,0,6.8
		c0,2.4-1.1,3.6-3.5,3.6c-4.3,0-8.7,0-13,0c-2.6,0-4.1-1.3-3.9-4c0.1-2.6,0.3-5.2,0.5-7.8c-4.3,8.2-5.2,17-7,26
		c4.7-0.6,5.1-0.9,4.9-4.3c0-1.4-0.4-2.9-0.4-4.3c0-2.3,0.7-3.9,3.5-3.9c5.3-0.1,10.6-0.3,15.8-0.6c3.5-0.2,4.8,1.6,5,4.7
		c0.1,1.3-0.1,2.6-0.2,3.9c-0.3,6.6-0.6,13.1-1,19.8c3.2,0,6.1,0,8.7,0c-0.6-3.8-1.1-7.4-1.8-10.9c-1.5-8.5-3-17-4.6-25.5
		C460.7,293.1,459.7,291.9,459,290.5z M464,288.5c0.6,0.9,1.8,4.2,2.8,4.2c2.2-0.1,5.1-1.4,6.3-3.1c1.7-2.4,2.4-5.7,3-8.8
		c0.3-1.4-0.4-3.7-1.4-4.4c-1.1-0.8-3.3-0.6-4.7,0C465.5,278.5,464.6,282.7,464,288.5z M441.3,299.3c4.5,0,8.6,0,12.9,0
		c0-3.2,0-6,0-8.9c-4.3-0.4-8.5-0.8-12.9-1.2C441.3,292.6,441.3,295.8,441.3,299.3z M431.3,327.2c0.6,1.3,1.5,3.1,2.3,4.9
		c1.8-1.4,4.3-2.4,5.2-4.2c1.4-3,1.7-6.4,2.3-9.7c0.3-1.8-0.7-3.2-2.4-2.5c-2.1,0.9-4.5,2.3-5.7,4.1
		C431.8,321.6,431.9,324.2,431.3,327.2z M529.6,337.5c-1.6-4.5-6.9-6.5-11.9-4.8c-2.9,1-5.3,2.5-4.9,6.1c0.3,2.9,3.6,4.9,7.5,4.6
		c-1.3-1.5-2.5-2.8-4.1-4.6C520.9,337.6,524.5,332.2,529.6,337.5z M507.1,337c4.1-2.2,7.6-4.1,11.3-6.2c-3.1-1.7-6.3-2-9.3-0.6
		c-1.7,0.8-3.3,2.3-4.1,4C504.7,334.7,506.8,336.5,507.1,337z M540.5,335.2c-0.6-7.5-7.6-9-16.3-3.6c2.1,0.4,4.4,0.8,6.4,0.3
		C534.6,331,538.4,329.7,540.5,335.2z M514.4,323.1c-2-0.8-4.2-1.5-6.3-2.3c-0.6,1.8-1.6,3.7-1.5,5.5c0.1,2,1.7,3,4.1,2
		C508.1,323.6,513.6,325.9,514.4,323.1z M507.1,319.7c-4.4,0.3-6.6,2.2-6.3,5.3c0.3,2.9,2.4,4.9,5.6,4.7
		C503.4,326.2,504.8,323,507.1,319.7z M538.4,327.6c1.7,2.6,3.3,5.1,4.9,7.6c3-3.3,1.5-8.1-4.8-12
		C540.4,325.6,540.9,327.2,538.4,327.6z M460.1,289.2c0.3-0.2,0.6-0.4,0.9-0.6c0.1-1.7,0.2-3.5,0.4-5.5c-1.7-0.2-3.3-0.4-4.9-0.6
		c-0.3,0.3-0.6,0.6-0.9,1C457.1,285.4,458.6,287.3,460.1,289.2z M453.3,332.7c-4.2,0-7.7,0-11.9,0
		C444.3,334.8,450.4,334.9,453.3,332.7z M499.7,326.2c-2.3,5-2,5.7,2.7,6.7C501.4,330.5,500.7,328.8,499.7,326.2z"/>
	<path class="st0" d="M482.2,223c-2.3,11.1,2.3,19.1,10.6,25.6c2.2,1.7,4.4,2.5,7.3,1.3c3.2-1.3,5.4,0.1,5.9,3.6
		c1.5,10.3-4.9,15.6-12.7,12.3c-2.1-0.9-3.3-0.2-3.7,2.3c-0.8,5.9-4.5,9.3-9.9,11.3c-1.4-5.4-3.3-6.7-8.6-5c-2.9,1-5.8,2.9-7.9,5.1
		c-1.5,1.6-2.6,1.9-4.5,1.7c-2-0.2-4.1,0-6.5,0c0.7,2.7,1.3,4.8,2.1,7.6c-3.9-0.4-7.3-0.7-10.9-1.1c0.4-2.7,0.8-4.8,1.2-7.2
		c-5.1-1.1-10.1-2.1-15.1-3.3c-8.4-2.1-16.7-4.7-23.7-10.1c-6.8-5.3-8.5-11.7-5.2-18.8c0.3-0.5,0.4-1.2,0.8-1.6
		c4.8-4.3,5.2-10.2,6.5-15.9c3.5-16.1,12.8-28.3,26.6-37.1c1-0.6,2.1-1.1,3.3-1.8c0.5,2.6,0.9,5,1.5,7.2
		c3.6,13.5,14.5,21.9,30.2,23.2C473.7,222.7,477.9,222.8,482.2,223z M426.8,253.3c-0.1,0.3-0.1,0.6-0.2,0.9c1.3,1.1,2.8,2,3.7,3.3
		c6.8,9.5,19.4,10.8,29.9,6.3c1-0.4,1.6-2.1,2.8-3.8c-3.6,0-5.9,0-8.1,0c-8.9,0.1-17.5-0.5-25-6.1
		C429.2,253.3,427.8,253.5,426.8,253.3z M433,234.6c-3.4-0.5-6.5-1-9.7-1.2c-0.7,0-2,1.2-2.1,2c-0.2,1,0.4,3,0.9,3.1
		c3.4,0.8,6.8,1.1,10.2,1.6C432.7,237.8,432.8,236.6,433,234.6z M473.7,243.4c-3.3-0.5-6.3-1.1-9.3-1.2c-0.9,0-2.1,1.5-2.6,2.5
		c-0.3,0.7,0.6,2.6,1.2,2.7c3.4,0.7,6.9,1,10.4,1.4C473.5,246.6,473.6,245.3,473.7,243.4z M438.7,244.9c7.3-0.8,7.9-1.3,7.9-5.6
		c0-0.8-0.8-1.6-1.2-2.4c-0.7,0.7-1.9,1.5-1.9,2.2c0.1,3.5-1.6,4.3-4.7,4.2c-0.9,0-2.6,1.1-2.7,1.9c-0.4,2.9,3.5,5.2,6.3,4.1
		C441.3,248.1,440.2,246.7,438.7,244.9z M469.6,231c-8.8-3.4-9-3.7-8.4-9.6c-1.3,0.6-2.9,1-3,1.6c-0.2,1.5-0.3,3.4,0.4,4.7
		C460.2,230.5,465.5,232.1,469.6,231z M431.4,221.5c5.4,3.4,11.6,2,12.6-3.4c-2.3,1.5-3.9,3.2-5.8,3.6
		C436.1,222.2,433.7,221.6,431.4,221.5z"/>
	<path class="st0" d="M465.4,294.8c3.2-0.8,5.7-1.4,8.6-2c4.6,9.5,11,18.1,12.9,28.7c1,5.5-2.5,10-8,10.8c-4.5,0.7-7.9-1.1-8.6-5.5
		C468.4,316.3,467,305.7,465.4,294.8z"/>
	<path class="st0" d="M428.4,330.6c-4.1,0-8.4,0.5-12.4-0.2c-2-0.4-4.7-2.9-5-4.8c-0.5-3.6-0.4-7.8,0.9-11.2
		c3.8-10.3,11.9-17.1,20.6-23c-1.6,7.4-3.2,14.7-4.8,22c-2.6-0.3-5.2-0.6-7.7-0.9c-0.1,0.3-0.1,0.7-0.2,1c2.1,0.5,4.2,1,6.3,1.6
		c2.9,0.9,4.9,2,3.6,5.9C428.6,323.9,428.8,327.1,428.4,330.6z"/>
	<path class="st0" d="M440.1,331.5c2.4-4.9,6.8-1.3,10.3-3.6c-3-0.2-5.3-0.3-7.6-0.4c0-0.4-0.1-0.8-0.1-1.1c1.7-0.2,3.4-0.5,5.1-0.7
		c0-0.1,0-0.2,0-0.4c-1.4-0.2-2.9-0.4-4.3-0.6c0-0.4-0.1-0.8-0.1-1.2c2.6-0.2,5.2-0.4,7.8-0.6c0-0.2,0-0.4,0-0.6c-2.2,0-4.5,0-7.1,0
		c0.1-1.8,0.2-3.1,0.2-4.7c1.3-0.2,2.4-0.3,4.2-0.6c-3.8-1.5-7-2.8-10.6-4.3c0.2,0.3,0,0.1,0-0.1c-1.4-7.8-0.9-8.4,6.8-8.5
		c2.9-0.1,5.7-0.4,8.6-0.5c2.9-0.1,4.5,1.3,4.3,4.4c-0.3,6.4-0.5,12.7-0.7,19.1c-0.1,3-1.8,4.4-4.6,4.5
		C448.4,331.5,444.5,331.5,440.1,331.5z"/>
	<path class="st0" d="M459,290.5c0.7,1.3,1.6,2.6,1.9,4c1.6,8.5,3.1,17,4.6,25.5c0.6,3.5,1.1,7.1,1.8,10.9c-2.6,0-5.5,0-8.7,0
		c0.3-6.7,0.7-13.2,1-19.8c0.1-1.3,0.3-2.6,0.2-3.9c-0.2-3.1-1.5-4.9-5-4.7c-5.3,0.3-10.6,0.5-15.8,0.6c-2.8,0-3.6,1.6-3.5,3.9
		c0,1.4,0.4,2.9,0.4,4.3c0.1,3.4-0.3,3.7-4.9,4.3c1.7-9,2.7-17.9,7-26c-0.2,2.6-0.4,5.2-0.5,7.8c-0.1,2.7,1.3,4,3.9,4
		c4.3,0,8.7,0,13,0c2.3,0,3.5-1.2,3.5-3.6c0-2.3,0-4.5,0-6.8C458.3,290.8,458.7,290.7,459,290.5z"/>
	<path class="st0" d="M524,345c-4.3,2.4-8.7,2.4-13.4,1.1c-7.6-2.2-14.7-5.2-20.2-11.1c-1.6-1.7-1.9-3.3-0.2-4.9
		c3.9-4,7.8-8,11.9-11.8c0.8-0.7,2.4-0.6,3.8-0.4c-6.7,2.2-7,8.7-9.7,13.8c-0.9,0-2.2,0-3.5,0c0.1-0.1,0.3-0.3,0.4-0.4
		c3.7,2.4,7.4,4.7,11,7.2c3.6,2.4,7.1,5,11.1,7.8c-0.3-1.1-0.5-1.8-0.6-2.2C517.8,344.4,520.9,344.7,524,345L524,345z"/>
	<path class="st0" d="M524.1,345.1c2.2-1.4,4.3-2.8,6.5-4.1c0.6-0.4,1.2-0.9,1.8-0.9c3.6,0.4,6.4-1.1,9.4-2.8c4-2.3,5.5-4.7,3.4-8.9
		c-1.2-2.4-3.1-4.6-5.2-6.2c-4-3.2-8.3-6-13-9.3c8.3,0.6,23.6,13.2,25.3,20.3c1,4.2,0.4,5.2-3.7,6.3c-7,1.8-14,3.6-21,5.3
		C526.4,345.1,525.2,345,524.1,345.1C524,345,524.1,345.1,524.1,345.1z"/>
	<path class="st0" d="M464,288.5c0.6-5.7,1.5-10,6-12.1c1.3-0.6,3.6-0.8,4.7,0c1,0.7,1.7,3,1.4,4.4c-0.6,3-1.3,6.3-3,8.8
		c-1.2,1.8-4.1,3.1-6.3,3.1C465.8,292.7,464.6,289.4,464,288.5z"/>
	<path class="st0" d="M441.3,299.3c0-3.4,0-6.7,0-10.1c4.4,0.4,8.6,0.8,12.9,1.2c0,2.9,0,5.7,0,8.9
		C449.9,299.3,445.8,299.3,441.3,299.3z"/>
	<path class="st0" d="M431.3,327.2c0.6-3.1,0.5-5.7,1.7-7.4c1.3-1.8,3.6-3.2,5.7-4.1c1.7-0.7,2.7,0.7,2.4,2.5
		c-0.6,3.3-0.9,6.8-2.3,9.7c-0.8,1.8-3.4,2.8-5.2,4.2C432.8,330.3,431.9,328.6,431.3,327.2z"/>
	<path class="st0" d="M529.6,337.5c-5.1-5.3-8.7,0.1-13.4,1.3c1.6,1.7,2.8,3.1,4.1,4.6c-3.9,0.3-7.2-1.7-7.5-4.6
		c-0.4-3.6,2.1-5.1,4.9-6.1C522.8,331,528,333,529.6,337.5z"/>
	<path class="st0" d="M507.1,337c-0.4-0.4-2.4-2.2-2.1-2.8c0.9-1.6,2.5-3.2,4.1-4c3-1.4,6.2-1.1,9.3,0.6
		C514.8,332.8,511.2,334.7,507.1,337z"/>
	<path class="st0" d="M540.5,335.2c-2.1-5.5-5.9-4.2-9.9-3.2c-2,0.5-4.3,0.1-6.4-0.3C532.9,326.2,539.9,327.7,540.5,335.2z"/>
	<path class="st0" d="M514.4,323.1c-0.9,2.9-6.4,0.6-3.8,5.1c-2.3,1.1-3.9,0-4.1-2c-0.1-1.8,1-3.7,1.5-5.5
		C510.3,321.5,512.4,322.3,514.4,323.1z"/>
	<path class="st0" d="M507.1,319.7c-2.3,3.2-3.7,6.4-0.8,10c-3.2,0.2-5.3-1.8-5.6-4.7C500.5,321.9,502.7,320,507.1,319.7z"/>
	<path class="st0" d="M460.1,289.2c-1.5-1.9-3-3.8-4.5-5.7c0.3-0.3,0.6-0.6,0.9-1c1.6,0.2,3.2,0.4,4.9,0.6c-0.1,2-0.3,3.8-0.4,5.5
		C460.7,288.8,460.4,289,460.1,289.2z"/>
	<path class="st0" d="M453.3,332.7c-2.8,2.1-9,2.1-11.9,0C445.6,332.7,449.1,332.7,453.3,332.7z"/>
	<path class="st0" d="M499.7,326.2c1.1,2.6,1.8,4.4,2.7,6.7C497.6,331.9,497.3,331.1,499.7,326.2z"/>
	<path d="M426.8,253.3c1.1,0.1,2.4-0.1,3.2,0.5c7.5,5.7,16.2,6.2,25,6.1c2.3,0,4.5,0,8.1,0c-1.2,1.7-1.8,3.4-2.8,3.8
		c-10.5,4.5-23.1,3.3-29.9-6.3c-0.9-1.3-2.5-2.2-3.7-3.3C426.7,253.9,426.7,253.6,426.8,253.3z M439.3,261.4
		c5.4,3.6,14.6,3.8,19.2,0C451.8,261.4,445.6,261.4,439.3,261.4z"/>
	<path d="M433,234.6c-0.2,2-0.3,3.3-0.6,5.5c-3.4-0.5-6.9-0.8-10.2-1.6c-0.6-0.1-1.1-2.1-0.9-3.1c0.1-0.8,1.4-2,2.1-2
		C426.5,233.6,429.7,234.1,433,234.6z"/>
	<path d="M473.7,243.4c-0.1,2-0.2,3.2-0.3,5.4c-3.5-0.4-7-0.7-10.4-1.4c-0.6-0.1-1.4-2-1.2-2.7c0.4-1.1,1.7-2.6,2.6-2.5
		C467.4,242.2,470.4,242.9,473.7,243.4z"/>
	<path d="M438.7,244.9c1.5,1.8,2.7,3.1,3.8,4.4c-2.8,1.1-6.7-1.2-6.3-4.1c0.1-0.8,1.8-1.9,2.7-1.9c3.1,0,4.8-0.8,4.7-4.2
		c0-0.7,1.2-1.4,1.9-2.2c0.4,0.8,1.2,1.6,1.2,2.4C446.6,243.7,445.9,244.1,438.7,244.9z"/>
	<path d="M469.6,231c-4.1,1.1-9.4-0.4-10.9-3.3c-0.7-1.3-0.7-3.2-0.4-4.7c0.1-0.6,1.7-0.9,3-1.6C460.6,227.3,460.8,227.5,469.6,231z
		"/>
	<path d="M431.4,221.5c2.3,0.1,4.7,0.7,6.8,0.2c1.9-0.4,3.5-2.1,5.8-3.6C443.1,223.4,436.9,224.9,431.4,221.5z"/>
	<path class="st0" d="M439.3,261.4c6.3,0,12.5,0,19.2,0C453.9,265.2,444.7,265,439.3,261.4z"/>
</g>
</svg>
