<?xml version="1.0" encoding="utf-8"?>
<!-- Generator: Adobe Illustrator 24.0.1, SVG Export Plug-In . SVG Version: 6.00 Build 0)  -->
<svg version="1.1" id="レイヤー_1" xmlns="http://www.w3.org/2000/svg" xmlns:xlink="http://www.w3.org/1999/xlink" x="0px"
	 y="0px" viewBox="0 0 536.9 353.9" style="enable-background:new 0 0 536.9 353.9;" xml:space="preserve">
<style type="text/css">
	.st0{fill:#FFFFFF;}
	.st1{fill:none;stroke:#E60000;stroke-width:5.6356;stroke-miterlimit:10;}
	.st2{fill:#E60000;}
	.st3{enable-background:new    ;}
	.st4{fill:none;}
	.st5{fill:none;stroke:#E60000;stroke-miterlimit:10;}
	.st6{fill:none;stroke:#000000;stroke-miterlimit:10;}
	.st7{fill-rule:evenodd;clip-rule:evenodd;}
	.st8{fill-rule:evenodd;clip-rule:evenodd;fill:#B3B3B3;}
	.st9{fill:#FF0000;stroke:#FF0000;stroke-width:0.3543;stroke-miterlimit:10;}
</style>
<g>
	<path class="st0" d="M526.5,294.4c0,5.8-4.7,10.5-10.5,10.5H20.9c-5.8,0-10.5-4.7-10.5-10.5v-277c0-5.8,4.7-10.5,10.5-10.5H516
		c5.8,0,10.5,4.7,10.5,10.5V294.4z"/>
	<path class="st1" d="M526.5,294.4c0,5.8-4.7,10.5-10.5,10.5H20.9c-5.8,0-10.5-4.7-10.5-10.5v-277c0-5.8,4.7-10.5,10.5-10.5H516
		c5.8,0,10.5,4.7,10.5,10.5V294.4z"/>
</g>
<path class="st2" d="M526.5,72.9V15.1c0-4.5-3.7-8.3-8.3-8.3H18.7c-4.5,0-8.3,3.7-8.3,8.3v57.7H526.5z"/>
<g>
	<g>
		<g>
			<path class="st0" d="M74.8,65.2H32.6c-3.2,0-6.1-1.7-7.7-4.4s-1.6-6.1,0-8.8l21.1-36.5c1.6-2.8,4.5-4.4,7.7-4.4
				c3.2,0,6.1,1.7,7.7,4.4L82.5,52c1.6,2.8,1.6,6.1,0,8.8C80.9,63.6,78,65.2,74.8,65.2z M49.3,17.3L28.2,53.9c-0.9,1.6-0.9,3.5,0,5
				c0.9,1.6,2.5,2.5,4.4,2.5h42.2c1.8,0,3.5-0.9,4.4-2.5c0.9-1.6,0.9-3.5,0-5L58.1,17.3c-0.9-1.6-2.5-2.5-4.4-2.5
				C51.9,14.8,50.2,15.8,49.3,17.3L49.3,17.3z"/>
		</g>
	</g>
</g>
<g>
	<path class="st0" d="M49,47.5c0.2,1.1,0.4,1.6,1,2.2c0.9,1,2.3,1.5,3.9,1.5c2.7,0,4.3-1.3,4.3-3.4c0-1.4-0.7-2.5-1.8-2.9
		c-0.8-0.3-1.8-0.4-3.2-0.4c-1.3,0-2.9,0.1-4.2,0.2v-5.8c1.2,0.1,2.3,0.2,3.6,0.2c3.2,0,4.8-1.1,4.8-3.3c0-1.8-1.3-2.9-3.5-2.9
		c-2.4,0-3.6,1-4.1,3.1l-7.3-1.1c0.6-2.1,1.2-3.1,2.3-4.3c2.1-2.2,5.2-3.4,9.3-3.4c3.7,0,6.8,1,8.7,2.9c1.3,1.3,1.9,2.9,1.9,4.8
		c0,3.6-1.9,5.8-5.8,6.8c2.1,0.3,3.2,0.8,4.4,1.8c1.4,1.3,2.2,3.1,2.2,5c0,1.7-0.5,3.3-1.4,4.5c-0.7,1-1.9,2-3.2,2.6
		c-1.8,0.8-4.5,1.3-7.1,1.3c-3.1,0-6.1-0.7-7.9-1.9c-1.6-1-2.8-2.5-3.5-4.4c-0.2-0.5-0.3-0.9-0.6-1.8L49,47.5z"/>
</g>
<g>
	<g>
		<path class="st0" d="M134.8,53.2v-1.7h-19.3v1.7H110c0.1-1.1,0.2-2.6,0.2-4.7v-22c0-1.6,0-2.6-0.2-4c1.2,0.1,2.3,0.2,4,0.2h22.1
			c1.7,0,2.7,0,4-0.2c-0.1,1.3-0.2,2.3-0.2,4v22c0,1.9,0.1,3.7,0.2,4.7H134.8z M115.4,46.9h19.3V27.4h-19.3V46.9z M129.3,29.9
			c1.4,0,2.2,0,3-0.1c-0.1,0.9-0.1,1.8-0.1,2.8v8.9c0,1.1,0,1.9,0.1,2.8c-0.8-0.1-1.8-0.1-3-0.1h-8.5c-1.4,0-2.1,0-3,0.1
			c0.1-1,0.1-1.8,0.1-2.8v-8.9c0-0.9,0-1.8-0.1-2.8c0.8,0.1,1.7,0.1,3,0.1H129.3z M122.8,39.7h4.6v-5.4h-4.6V39.7z"/>
		<path class="st0" d="M149.8,28.2c-1.2,1.7-2.2,2.7-4,4.5c-1-1.7-1.8-2.7-3.1-4.1c2.6-2.2,4.6-5,5.3-7.7l5.1,0.8
			c0,0.1-0.3,0.7-0.8,1.9h3.3c1.6,0,2.2,0,3.1-0.2v3.4c1.5-2.1,2.4-4.1,2.7-5.8l5.1,0.7l-0.7,1.9h5.4c1.5,0,2.4,0,3.4-0.2v4.9
			c-0.9-0.1-2.1-0.2-3.4-0.2h-1.6c0.6,1.1,1,1.8,1.5,3.3l-5,1.1c-0.5-1.8-0.7-2.5-1.5-4.4h-1c-0.6,1.1-1.1,1.8-1.7,2.5
			c1.3,1.4,3.5,2.7,6.4,3.8c2.2,0.9,3.9,1.4,7.1,2c-1.2,2.3-1.5,3-2,5.1c-2.4-0.7-4.6-1.5-6.8-2.5v1.6c-1.2-0.1-1.9-0.1-2.8-0.1
			h-9.4c-1.6,0-1.7,0-2.9,0.1v-1.6c-2.5,1.3-4.4,2-6.6,2.6c-0.6-1.9-1.1-3.2-2.1-4.9c4.9-1,9.1-2.8,12.1-5.3l-3.2,0.6
			c-0.3-1.4-0.7-2.8-1.2-4H149.8z M152.5,53.1h-5.2c0.1-1.1,0.2-2.4,0.2-3.8v-4.2c0-1.6,0-2.4-0.1-3.3c0.8,0.1,1.6,0.1,3.1,0.1h17.2
			c1.7,0,2.3,0,3.1-0.1c-0.1,0.7-0.1,1.6-0.1,3.4v4.2c0,1.7,0,2.8,0.2,3.8h-5.3v-1.4h-13.1V53.1z M152.5,47.5h13.1v-1.6h-13.1V47.5z
			 M155.2,28.2c0.4,0.7,0.6,1.4,0.9,2.1h3.3c-0.6-0.6-1-1-2-1.7l0.3-0.3c-0.7,0-1,0-1.4,0H155.2z M162.2,36.7
			c-1.4-0.8-2-1.4-3.3-2.5c-1.3,1.2-1.8,1.5-3.2,2.5H162.2z"/>
		<path class="st0" d="M181.5,41.2c-0.1,5.1-0.3,7.3-1.1,10.4l-3.5-1.8c0.7-2.3,1.1-4.7,1.2-9.1L181.5,41.2z M177.2,35.1
			c1.1,0.1,1.5,0.1,2.5,0.1c0,0,0.5,0,0.8,0c0.4-0.6,0.5-0.7,0.8-1.1c-1.6-2.2-2.5-3.3-4.3-5.1l2.2-4.2l1,1c0.8-1.4,1.8-3.8,2.1-5.1
			l4.4,1.6c-0.2,0.3-0.3,0.6-0.6,1.2c-1,2.1-2.2,4.1-3.1,5.5c0.4,0.5,0.4,0.5,0.9,1.1c2-3.3,2.3-3.8,3.1-5.7l3.9,2.2
			c-0.5,0.7-0.5,0.8-1.4,2.1c-0.5,0.8-1.3,2-2.5,3.7l3.3-1.1c0.8,2.2,1.2,3.4,1.6,5.1v-4.4c1.1,0.1,2.4,0.2,3.9,0.2h1.4v-2.7h-2.2
			c-1.8,0-3,0-4,0.2v-5c1.1,0.1,2.2,0.2,4,0.2h2.1v-1.3c0-0.8-0.1-1.6-0.2-2.4h5.4c-0.1,0.7-0.2,1.5-0.2,2.4v1.2h2.9
			c1.8,0,3-0.1,4.1-0.2v5c-1.2-0.1-2.4-0.2-4.1-0.2h-2.9v2.7h2.2c1.6,0,2.9-0.1,3.9-0.2v4.9c-1.1-0.1-2.4-0.2-3.8-0.2h-8.9
			c-1.3,0-2,0-3.7,0.1c0.2,0.7,0.2,0.7,0.4,1.6c0.7,0,1.7,0.1,3,0.1h9.3c1.6,0,2.5,0,3.3-0.1c-0.1,0.8-0.1,1.7-0.1,3.3v7.2
			c0,1.5,0,2.7,0.2,3.9h-5.3v-1.4h-5.7v1.5h-5.1c0.1-1,0.1-2,0.1-3.4v-7.7c0-1.4,0-2.2,0-2.7l-3.1,1.1c-0.1-0.6-0.2-0.8-0.2-1.3
			c-1,0.1-1.1,0.1-1.8,0.1v10.2c0,2,0,2.7,0.2,3.8h-5c0.2-1.1,0.2-1.9,0.2-3.8v-9.8c-0.5,0-0.8,0-1.1,0c-0.6,0-1.8,0.1-3.5,0.3
			L177.2,35.1z M185,35.2c1.3-0.1,1.6-0.1,2.6-0.2c-0.2-0.8-0.3-1-0.8-2.3C185.9,34,185.7,34.2,185,35.2z M190.5,40.6
			c0.5,4.3,0.5,4.3,0.6,8.7l-3.2,0.5c0-0.6,0-1.2,0-1.5c0-2.5-0.1-4.5-0.4-7.1L190.5,40.6z M196.9,47.1h5.7v-3.7h-5.7V47.1z"/>
		<path class="st0" d="M218.5,36.7c-1.7,0-3,0-4.1,0.1c0.1-1,0.2-1.9,0.2-4v-7.2c0-1.7,0-2.5-0.2-3.5c1.1,0.1,2.2,0.1,4.2,0.1h17.1
			c2,0,3,0,4.2-0.1c-0.1,1-0.2,1.8-0.2,4v6.7c0,2.2,0,3,0.2,4c-1.2-0.1-2.3-0.1-4.2-0.1h-6.2v1.4h8.7c2.2,0,3.3,0,4.3-0.2v5
			c-1.2-0.1-2.4-0.2-4.2-0.2H233c2.6,2.4,5.9,4,10.5,5.1c-1.3,1.9-1.9,3.1-2.7,5.1c-4.8-1.6-8.4-3.9-11.5-7.4c0,0.3,0,0.3,0.1,0.8
			c0,0.2,0,1.2,0,1.3v2c0,1.5,0.1,2.5,0.2,3.7h-5.6c0.2-1.2,0.2-2,0.2-3.7v-2c0-0.5,0-0.6,0.1-2.1c-3.2,3.5-6.2,5.5-11.1,7.6
			c-0.8-2.1-1.4-3.2-2.7-5c3.9-1.1,7.6-3,10-5.3h-4.8c-1.9,0-3,0.1-4.2,0.2v-5c1.1,0.2,2,0.2,4.2,0.2h8.6v-1.4H218.5z M219.8,26.5
			v1.3h4.6v-1.3H219.8z M219.8,31.4v1.4h4.6v-1.4H219.8z M229.5,27.8h5v-1.3h-5V27.8z M229.5,32.8h5v-1.4h-5V32.8z"/>
		<path class="st0" d="M246.6,24.8c1.5,0.3,3.5,0.5,7,0.5c0.2,0,0.5,0,1,0c0.7-1.6,0.9-2.5,1.1-3.8l6.2,0.5
			c-0.3,0.5-0.3,0.5-0.7,1.6c-0.4,1-0.6,1.5-0.7,1.6c0.3,0,0.3,0,2.1-0.1c3.3-0.2,6.8-0.6,8.6-1.1l0.2,5.4c-1.1,0.1-2.1,0.2-3.1,0.3
			c-2.4,0.2-6.7,0.5-10.1,0.6c-0.6,1-0.8,1.4-1.6,2.5c1.5-0.7,2.9-1,4.3-1c2.8,0,4.5,1.1,5.2,3.3c0.6-0.2,0.6-0.2,2.4-0.8
			c0.1,0,1-0.3,2.1-0.7c1.9-0.6,2.2-0.7,2.7-1l2.1,5.4c-1.8,0.2-5.4,1.2-8.7,2.3c0,0.9,0,1,0,2.4c0,1.5,0,2,0.1,2.9l-5.5,0.2
			c0.1-0.5,0.1-1.6,0.2-3.6l-0.3,0.1c-1.6,0.7-1.8,0.9-2.4,1.4c-0.6,0.5-0.9,1.1-0.9,1.7c0,1.3,1.3,1.8,4.6,1.8
			c4.1,0,8-0.6,10.9-1.7l0.4,6.1c-1,0-1,0-3,0.3c-2.7,0.3-5.5,0.5-8.2,0.5c-3.8,0-6.3-0.5-8.1-1.6c-1.7-1-2.7-2.8-2.7-4.8
			c0-1.6,0.5-2.9,1.7-4.3c1.3-1.5,2.8-2.6,4.9-3.6c0.8-0.4,1.2-0.5,2.5-1.2c-0.3-0.6-0.7-0.9-1.4-0.9c-1.7,0-4.1,1.2-6.5,3.3
			c-1.4,1.3-2.3,2.2-3.3,3.4l-4.3-4.3c1.1-0.8,2.5-2.2,3.6-3.5c0.7-0.9,2.1-2.9,2.6-3.7c0.5-0.8,0.5-0.8,0.6-1.1c-0.5,0-0.9,0-1.1,0
			c-1.5,0-1.5,0-2.9,0c-0.5,0-0.7,0-1.2,0c-0.1,0-0.3,0-0.5,0L246.6,24.8z"/>
		<path class="st0" d="M303.7,52.3c-3-3.7-5.9-6.7-9.8-9.7c-3.2,3.8-7.2,6.8-12.5,9.3c-1.2-2.4-1.9-3.4-3.8-5.4
			c4.4-1.7,7.9-3.9,11-6.9c3.2-3,5.2-6.1,6.8-10l-8.8,0.1c-2.9,0.1-4,0.1-5.4,0.3l-0.2-6.1c1.3,0.2,2.2,0.2,3.6,0.2
			c0.3,0,0.9,0,1.9,0l11.6-0.2c1.6,0,1.8,0,2.7-0.4l3,3.1c-0.5,0.5-0.7,0.9-1.2,2c-1.8,4.3-3.1,6.6-5,9.2c4.1,3,5.5,4.1,10.8,9.2
			L303.7,52.3z"/>
		<path class="st0" d="M316,30.2c-2.8,0-4,0-5.5,0.2v-6c1.9,0.2,2.9,0.3,5.6,0.3l18.6,0c1.1,0,1.6-0.1,2.3-0.3l3.3,3.7
			c-0.5,0.5-0.7,0.7-1.6,2.2c-3.5,5.9-6.3,9.2-10.8,13c1.5,1.7,2.4,3,4,5.2l-5.1,4c-2-3.3-3.7-5.7-6.6-8.9c-2.8-3.2-4.4-4.7-6.8-6.8
			l4.7-3.3c2.8,2.3,3.9,3.3,5.9,5.4c1.9-1.6,4.1-3.8,5.3-5.4c0.8-1.1,1.8-2.5,2.2-3.3L316,30.2z"/>
		<path class="st0" d="M352.8,35.6c-0.1,0.4-0.3,1.3-0.5,2.7c-0.3,1.7-1.2,4.6-2,6.5c-0.8,2-1.5,3.3-2.9,5.5c-2.4-1.5-3.5-2-5.6-2.8
			c2.2-3.1,3.5-5.7,4.6-9.6c0.4-1.5,0.6-2.4,0.7-3.7L352.8,35.6z M354.9,25.8c0-1.7,0-2.3-0.2-3.8h6.4c-0.1,1-0.2,2.3-0.2,3.8v1.3
			h6.5c2.7,0,3.8-0.1,5.3-0.3v5.8c-1.4-0.1-2.6-0.2-5.2-0.2h-6.6v15c0,2.8,0,3.8,0.2,5h-6.5c0.2-1.6,0.2-2.3,0.2-5.1V32.5h-6.3
			c-3.2,0-3.7,0-5.1,0.2v-5.8c1.5,0.2,2.6,0.3,5.2,0.3h6.3V25.8z M368.6,34.2c0.3,1.3,0.7,2.8,1.3,4.4c1.1,3.3,2.2,5.6,4.2,8.6
			c-3.1,1.6-3.2,1.6-5.6,3.1c-2.4-4.4-3.5-7.2-5-13c-0.3-1-0.3-1.2-0.5-1.7L368.6,34.2z"/>
		<path class="st0" d="M385.7,30.4c-0.1,0.4-0.2,0.4-0.5,1.9c-0.1,0.6-0.2,0.8-0.3,1.3c1.5-0.2,2.6-0.3,3.3-0.6l0.1,3.9
			c-0.6,0-0.6,0-1.8,0.2c-0.6,0.1-2,0.2-2.6,0.2c-0.9,2.8-1.5,4.5-2.6,7c-0.5,1.1-0.7,1.5-1.7,3.4c-0.3,0.6-0.3,0.6-0.5,0.9
			l-3.9-2.1c1.7-2.3,3.4-5.7,4.4-9.1c-0.5,0-0.5,0-1.3,0c-0.6,0-0.6,0-1.1,0c-0.1,0-0.2,0-0.9,0v-3.8c0.9,0.2,2,0.2,3.5,0.2
			c0.3,0,0.4,0,0.9,0c0-0.2,0-0.2,0.2-1c0.2-0.8,0.3-2,0.4-2.9L385.7,30.4z M396,50.6c-0.9-1-1.8-1.8-3.1-2.6
			c-0.1,1.1-0.4,1.8-1,2.5c-0.9,0.9-2.6,1.5-4.5,1.5c-1.9,0-3.6-0.6-4.5-1.6c-0.8-0.8-1.2-1.8-1.2-3c0-2.8,2.3-4.7,5.7-4.7
			c0.5,0,0.9,0,1.7,0.1c-0.1-0.9-0.1-1.4-0.1-1.9c0-1,0-1.8,0.1-2.8l4,0.2c-0.2,0.8-0.3,1.6-0.3,2.7c0,0.9,0,1.6,0.2,2.8
			c1.5,0.6,2.6,1.3,3.7,2.1c0.1,0,0.5,0.4,1.2,0.9L396,50.6z M387.5,46.1c-1.1,0-1.8,0.5-1.8,1.2c0,0.7,0.7,1.2,1.7,1.2
			c1.2,0,1.8-0.5,1.8-1.5c0-0.2,0-0.5,0-0.5C388.4,46.1,388,46.1,387.5,46.1z M396.3,39.3c-2.3-1.4-4.6-2.5-7.5-3.5l2-3.3
			c3,1.1,5,1.9,7.2,3.2L396.3,39.3z"/>
		<path class="st0" d="M408.3,30.2c0,1.2,0.7,4.9,1.4,7.1c0.6-0.2,1-0.3,1.5-0.5c0.3-0.1,1.5-0.4,3.5-1.1c1.5-0.4,1.5-0.4,1.8-0.6
			l1.4,4.3c-2.4,0.4-5.7,1.2-8.6,2.2c-3.1,1.1-4.7,2.4-4.7,3.8c0,1.5,1.4,2.1,4.8,2.1c2.2,0,4.8-0.3,7-0.8c0.4-0.1,0.6-0.1,1.3-0.4
			l0.3,4.6c-0.6,0-0.9,0-2.1,0.2c-2.7,0.3-4.3,0.4-6,0.4c-3.5,0-5.9-0.5-7.5-1.5c-1.4-0.9-2.2-2.6-2.2-4.5c0-1.9,0.9-3.7,2.5-4.9
			c0.8-0.7,1.5-1.1,3-1.8c-0.6-2-0.8-3-1.4-6.3c-0.2-1.2-0.3-1.2-0.4-1.6L408.3,30.2z M414.7,30.1c0.8,1.1,1.5,2.4,2.1,3.9l-2.3,0.8
			c-0.7-1.7-1.3-2.8-2.1-4L414.7,30.1z M418.1,29.2c0.9,1.2,1.5,2.2,2,3.6l-2.3,0.8c-0.7-1.6-1.2-2.7-2-3.8L418.1,29.2z"/>
		<path class="st0" d="M431.5,23.2c-1.3,3.9-2.3,10.2-2.6,16.4l2.6,0.9c-0.9,3.1-1.3,6.1-1.3,9.5c0,0.6,0,1,0.1,1.7l-5.8,0.3
			c0-0.6,0-0.9-0.2-1.8c-0.6-4.6-0.9-7.5-0.9-10.7c0-3.9,0.4-8.2,1.3-13.1c0.4-2.4,0.4-2.6,0.5-3.6L431.5,23.2z M440.9,38
			c-1.6,2-2.3,3.5-2.3,4.7c0,1.6,1.5,2.4,4.4,2.4c3,0,5.9-0.5,8.5-1.4l0.3,6c-0.9,0.1-0.9,0.1-2.9,0.4c-1.8,0.3-3.9,0.4-5.9,0.4
			c-3.2,0-5.3-0.4-7-1.4c-1.9-1.1-3.1-3.2-3.1-5.4c0-1.7,0.6-3.5,1.6-5.3c0.5-0.8,0.7-1.1,1.6-2.4L440.9,38z M434.2,25.7
			c1.6,0.3,3.4,0.5,6.1,0.5c4.5,0,7.9-0.3,10.1-0.8l0.2,5.8c-0.3,0-0.6,0-2.5,0.2c-2.3,0.2-4.8,0.4-7.2,0.4c-2.1,0-3.8-0.1-5.8-0.3
			c-0.3,0-0.5,0-1-0.1L434.2,25.7z"/>
		<path class="st0" d="M479.8,41c2,2.4,4.2,4.1,7.4,5.8c-1.3,2.2-1.7,3.1-2.5,5.5c-3.3-2.1-5.3-4.1-7.4-7.1c0,0.7,0.1,2.5,0.1,3.5
			v1.7c0,1,0.1,1.9,0.2,3h-5.5c0.1-1.2,0.2-1.9,0.2-3v-2.6c0-0.1,0-0.1,0-0.9c0-0.2,0-0.8,0.1-1.8c-1.3,2-2.1,3-3.6,4.5
			c-1.2,1.1-2.1,1.8-3.3,2.7c-1-2.2-1.6-3.1-2.9-4.6v1.7c0,1.4,0.1,2.5,0.2,3.9h-5.4c0.2-1.5,0.2-2.3,0.2-3.9v-8.4c0-0.2,0-1.7,0-2
			c0-0.9,0-0.9,0-1.4c-0.6,0.9-1,1.4-1.7,2.1c-0.5-2.7-1-4-1.9-6.3c2.1-2,3.6-4.5,4.9-7.9c0.6-1.7,1.1-3.4,1.3-4.6l5.3,1.8
			c-0.2,0.5-0.3,0.8-0.6,1.9c-0.5,1.7-1.2,3.5-2.3,5.6v17.2c3.1-1.8,5.5-3.8,7.2-6.3h-2.2c-1.4,0-2.8,0.1-4,0.2V36
			c1.2,0.1,2.3,0.2,4,0.2h4.7v-2h-3.5c-1.3,0-2.5,0-3.3,0.1c0.1-1.1,0.1-2,0.1-3.5v-5.4c0-1.3,0-2.2-0.1-3.2c1,0.1,1.9,0.2,3.8,0.2
			h11.6c1.6,0,2.8,0,3.8-0.2c-0.1,1.1-0.1,1.7-0.1,3.5v5.2c0,1.5,0,2.3,0.1,3.4c-0.2,0-0.3,0-0.4,0h-0.7l-2,0h-4.2v2h5
			c1.3,0,2.8-0.1,4-0.2v5.2c-1.4-0.1-2.8-0.2-3.9-0.2H479.8z M470.6,29.5h8.8v-2.4h-8.8V29.5z"/>
		<path class="st0" d="M507.8,38.4c0-0.5,0-0.9-0.1-1.3h1.9c0.7-0.5,1.1-0.8,1.8-1.7h-7.3c-1.5,0-2.2,0-3.1,0.1v-3.9
			c-1.2,1.9-1.8,2.9-2.9,4.3v13.5c0,1.6,0,2.5,0.2,3.8h-5.6c0.1-1.2,0.2-1.9,0.2-3.8v-8.1c-0.7,0.6-1.2,1-2.3,1.9
			c-0.7-2.1-1.3-3.5-2.4-5.2c2.2-1.5,3.3-2.4,4.8-3.9c0-0.9-0.1-1.3-0.2-2.1h1.9c0.8-1.1,1.3-1.9,2-3.1h-3c-1.9,0-3.5,0.1-4.7,0.2
			v-5.3c1.2,0.1,2.5,0.2,4.8,0.2h5.1c0.4-1.3,0.7-2.3,0.8-3.2l5.8,0.4c-0.2,0.5-0.3,0.6-0.7,2.1c-0.1,0.3-0.1,0.4-0.2,0.6h10.7
			c2.4,0,3.7-0.1,4.8-0.2v5.3c-1.4-0.1-3.2-0.2-4.7-0.2h-12.9c-0.4,0.7-0.5,1.1-1,1.8c0.6,0,1.4,0.1,2.5,0.1h9.4c1.3,0,2.1,0,3-0.1
			l3.1,2.9c-0.3,0.3-0.3,0.3-0.9,0.9c-1.8,1.9-2.3,2.4-5.2,4.8h2.8c1.9,0,3.1-0.1,4.2-0.2v5.2c-1-0.1-2.5-0.2-4.4-0.2H513V49
			c0,3.4-1.2,4.1-6.8,4.1c-0.3,0-1.4,0-1.9,0c-0.3-2.1-0.6-3.3-1.4-5c1.6,0.2,2.7,0.2,3.8,0.2c1,0,1.2-0.1,1.2-0.8v-3.4h-4.2
			c-1.9,0-3.3,0.1-4.3,0.2v-5.2c1.1,0.1,2.3,0.2,4.2,0.2h4.4V38.4z"/>
	</g>
</g>
<g class="st3">
	<path d="M72.8,120.2c-0.1,4.5-0.3,6.5-1,9.2l-3.1-1.6c0.7-2,0.9-4.2,1-8.1L72.8,120.2z M69,114.8c1,0.1,1.3,0.1,2.2,0.1
		c0,0,0.4,0,0.7,0c0.4-0.5,0.5-0.6,0.7-1c-1.4-1.9-2.2-2.9-3.8-4.5l2-3.7l0.8,0.9c0.7-1.2,1.6-3.4,1.9-4.5l3.9,1.4
		c-0.2,0.3-0.3,0.5-0.6,1.1c-0.9,1.8-1.9,3.7-2.7,4.8c0.3,0.4,0.4,0.5,0.8,0.9c1.8-3,2-3.4,2.7-5l3.4,2c-0.4,0.6-0.5,0.7-1.2,1.9
		c-0.5,0.8-1.2,1.8-2.2,3.3l2.9-1c0.7,2,1.1,3,1.4,4.5v-3.9c1,0.1,2.1,0.2,3.5,0.2h1.2V110h-1.9c-1.6,0-2.6,0-3.6,0.2v-4.4
		c1,0.1,2,0.2,3.6,0.2h1.9v-1.1c0-0.7-0.1-1.4-0.2-2.1h4.8c-0.1,0.7-0.2,1.4-0.2,2.2v1.1h2.6c1.6,0,2.7-0.1,3.6-0.2v4.4
		c-1.1-0.1-2.2-0.2-3.6-0.2h-2.6v2.3h2c1.4,0,2.5-0.1,3.5-0.2v4.4c-0.9-0.1-2.1-0.2-3.4-0.2h-7.9c-1.1,0-1.8,0-3.3,0.1
		c0.2,0.6,0.2,0.6,0.3,1.4c0.7,0,1.5,0.1,2.7,0.1h8.3c1.4,0,2.2,0,2.9-0.1c-0.1,0.7-0.1,1.5-0.1,3v6.4c0,1.3,0,2.3,0.2,3.5h-4.7
		v-1.3h-5v1.3h-4.5c0.1-0.9,0.1-1.8,0.1-3V121c0-1.2,0-1.9,0-2.4l-2.7,1c-0.1-0.5-0.2-0.8-0.2-1.1c-0.9,0.1-1,0.1-1.6,0.1v9
		c0,1.7,0,2.3,0.2,3.3h-4.4c0.2-1,0.2-1.7,0.2-3.3v-8.7c-0.4,0-0.8,0-1,0c-0.5,0-1.6,0.1-3.1,0.2L69,114.8z M75.9,114.9
		c1.1-0.1,1.4-0.1,2.3-0.2c-0.2-0.7-0.3-0.9-0.7-2.1C76.7,113.8,76.5,114,75.9,114.9z M80.8,119.7c0.4,3.8,0.4,3.8,0.6,7.7l-2.9,0.5
		c0-0.6,0-1.1,0-1.3c0-2.3-0.1-4-0.4-6.3L80.8,119.7z M86.5,125.4h5v-3.3h-5V125.4z"/>
	<path d="M105.6,116.2c-1.5,0-2.7,0-3.7,0.1c0.1-0.8,0.2-1.7,0.2-3.6v-6.4c0-1.5,0-2.2-0.2-3.1c1,0.1,1.9,0.1,3.7,0.1h15.2
		c1.8,0,2.6,0,3.7-0.1c-0.1,0.9-0.2,1.6-0.2,3.6v5.9c0,2,0,2.7,0.2,3.6c-1.1-0.1-2.1-0.1-3.7-0.1h-5.5v1.2h7.7c2,0,2.9,0,3.8-0.2
		v4.5c-1.1-0.1-2.2-0.2-3.7-0.2h-4.7c2.3,2.2,5.3,3.6,9.3,4.5c-1.1,1.7-1.7,2.7-2.4,4.5c-4.3-1.4-7.4-3.5-10.2-6.6
		c0,0.3,0,0.3,0.1,0.7c0,0.2,0,1.1,0,1.2v1.7c0,1.3,0.1,2.2,0.2,3.3h-4.9c0.2-1,0.2-1.7,0.2-3.3v-1.7c0-0.4,0-0.5,0.1-1.9
		c-2.9,3.1-5.5,4.9-9.8,6.7c-0.7-1.8-1.3-2.8-2.3-4.4c3.5-0.9,6.8-2.7,8.8-4.7h-4.3c-1.7,0-2.7,0.1-3.7,0.2v-4.5
		c1,0.2,1.7,0.2,3.7,0.2h7.6v-1.2H105.6z M106.7,107.2v1.2h4.1v-1.2H106.7z M106.7,111.5v1.2h4.1v-1.2H106.7z M115.3,108.4h4.5v-1.2
		h-4.5V108.4z M115.3,112.8h4.5v-1.2h-4.5V112.8z"/>
	<path d="M137.8,103.9c-0.3,0.6-0.6,1.6-0.9,3c-0.9,4.1-1.4,7.5-1.4,11.7l2.3,0.8c-0.9,2.9-1.3,5.4-1.3,9.2c0,0.2,0,0.5,0.1,1.2
		l-5.1,0.2c0-0.5,0-0.5-0.2-2.4c-0.5-4.2-0.7-5.9-0.7-9.1c0-4.2,0.3-6.9,1.2-12.2c0.2-1.4,0.4-2.2,0.4-2.6c0,0,0-0.1,0-0.2
		L137.8,103.9z M138.9,108.8c1.2,0.3,3.3,0.5,5.6,0.5c0.6,0,1.1,0,2.2,0c0-1.8,0-1.8,0-3.9c0-0.7-0.1-1.2-0.2-1.7l5.2,0
		c-0.2,1-0.2,2.3-0.2,5.3c1.8-0.2,3.6-0.6,4.8-0.9l0.2,4.8c-0.4,0-0.5,0.1-1.1,0.2c-0.9,0.2-2.3,0.4-3.8,0.6c0,2.3,0.1,3,0.3,6.4
		c2.1,0.9,3.2,1.5,4.8,2.7c0.2,0.1,0.3,0.2,0.6,0.4l-1.9,5.1c-0.7-0.8-1.9-1.8-3.6-2.9c0,0.1,0,0.2,0,0.2c0,2.6-2.6,4.3-6.5,4.3
		c-4.4,0-7-2.1-7-5.6c0-1.8,0.8-3.4,2.3-4.4c1.1-0.8,2.7-1.2,4.6-1.2c0.6,0,1.1,0.1,1.7,0.2c0-0.8,0-1-0.1-2.4c0-1,0-1.4-0.1-2.5
		c-0.7,0-1.1,0-1.7,0c-0.9,0-2.7-0.1-5.2-0.2c-0.4,0-0.6,0-0.7,0c-0.1,0-0.2,0-0.4,0L138.9,108.8z M147,123.2
		c-0.8-0.3-1.2-0.4-1.8-0.4c-1.4,0-2.2,0.5-2.2,1.4c0,0.8,0.8,1.3,2,1.3c1.4,0,2.1-0.5,2.1-1.7L147,123.2z"/>
	<path d="M162.5,120.2c2.9,2,4.8,3.9,7.3,6.7l-3.8,3.9c-2.3-2.9-4.1-4.7-7.1-7.2L162.5,120.2z"/>
	<path d="M197.1,130c-2.6-3.3-5.3-5.9-8.6-8.6c-2.8,3.3-6.4,6-11.1,8.3c-1.1-2.1-1.7-3-3.4-4.8c3.9-1.5,7-3.5,9.8-6.1
		c2.8-2.7,4.6-5.4,6.1-8.9l-7.8,0.1c-2.6,0.1-3.6,0.1-4.8,0.3l-0.2-5.4c1.2,0.2,2,0.2,3.2,0.2c0.2,0,0.8,0,1.7,0l10.3-0.2
		c1.4,0,1.6,0,2.4-0.3l2.7,2.7c-0.5,0.5-0.6,0.8-1.1,1.8c-1.6,3.8-2.7,5.9-4.4,8.1c3.6,2.6,4.9,3.7,9.6,8.2L197.1,130z"/>
	<path d="M208,110.5c-2.5,0-3.6,0-4.9,0.2v-5.3c1.7,0.2,2.6,0.2,5,0.2l16.5,0c1,0,1.4-0.1,2.1-0.3l2.9,3.3c-0.5,0.5-0.6,0.7-1.4,1.9
		c-3.1,5.2-5.6,8.2-9.5,11.5c1.3,1.5,2.1,2.6,3.6,4.6l-4.5,3.5c-1.8-3-3.3-5-5.8-7.9c-2.4-2.8-3.9-4.2-6.1-6l4.1-2.9
		c2.5,2,3.5,3,5.2,4.8c1.7-1.4,3.6-3.3,4.7-4.8c0.8-0.9,1.6-2.2,1.9-2.9L208,110.5z"/>
	<path d="M240.6,115.3c-0.1,0.4-0.2,1.1-0.5,2.4c-0.3,1.5-1.1,4-1.8,5.8c-0.8,1.8-1.4,3-2.6,4.8c-2.1-1.3-3.1-1.8-5-2.5
		c2-2.7,3.1-5.1,4-8.5c0.4-1.3,0.5-2.1,0.6-3.3L240.6,115.3z M242.4,106.6c0-1.5,0-2.1-0.2-3.3h5.7c-0.1,0.9-0.2,2-0.2,3.4v1.1h5.7
		c2.4,0,3.4-0.1,4.7-0.2v5.1c-1.2-0.1-2.3-0.2-4.6-0.2h-5.8v13.3c0,2.5,0,3.3,0.2,4.5h-5.8c0.2-1.4,0.2-2.1,0.2-4.5v-13.2h-5.6
		c-2.8,0-3.3,0-4.5,0.2v-5.1c1.4,0.2,2.3,0.2,4.6,0.2h5.6V106.6z M254.6,114c0.2,1.2,0.6,2.4,1.1,3.9c1,2.9,2,4.9,3.8,7.6
		c-2.8,1.4-2.8,1.4-5,2.8c-2.2-3.9-3.1-6.4-4.5-11.5c-0.2-0.9-0.3-1-0.5-1.5L254.6,114z"/>
	<path d="M269.2,103.8c0.2,1,0.3,1.4,0.6,2.4c0.4,1.4,0.4,1.4,0.9,3.1c2.1-0.6,2.8-0.7,4.4-1.1c0-0.7,0-0.7-0.1-2.1
		c0-2-0.1-2.3-0.2-3.1h5.4c-0.1,0.8-0.1,1.1-0.2,2.3c0,0.3,0,0.3,0,1.5v0.9c0.7-0.1,0.9-0.1,1.3-0.1c2.9,0,5.3,1.2,6.5,3.3
		c0.6,1,0.9,2.3,0.9,3.6c0,2.3-1.1,4.5-2.8,5.8c-1.5,1.2-3.7,1.8-6.1,1.8c-1.2,0-2.8-0.2-4.3-0.6c-0.2-2.3-0.3-3.2-0.8-5
		c1.8,0.6,3.1,0.9,4.5,0.9c2.5,0,4.1-1.1,4.1-2.9c0-1.5-1.2-2.4-3.3-2.4c-1.7,0-4.2,0.5-8,1.6c0.8,2.6,2.2,8.1,3.7,14.2
		c0.2,0.7,0.3,0.9,0.6,1.6l-5.7,1.3c-0.1-1.4-0.6-4-1.6-8.3c-0.3-1.2-0.9-3.6-1.9-7.4c-2.5,0.8-4,1.4-5,1.9l-1.6-5
		c0.9-0.1,0.9-0.1,4.3-1.2c0.5-0.1,0.6-0.2,1-0.3c-0.8-2.8-1.4-4.5-1.9-5.5L269.2,103.8z"/>
	<path d="M39.5,178.4c0.2-1.3,0.2-2.7,0.2-4.5v-16.3c0-1.6-0.1-3-0.2-4.4c1.4,0.1,2.5,0.1,4.4,0.1h6.6c6,0,9.2,2.9,9.2,8.1
		c0,5.4-3.4,8.6-9.3,8.6h-4.8v3.9c0,1.8,0.1,3.3,0.2,4.5H39.5z M50.2,164.8c2.1,0,3.3-1.2,3.3-3.3s-1.2-3.2-3.3-3.2h-4.5v6.4H50.2z"
		/>
	<path d="M78.6,162c-0.6-2.7-2.2-4.1-4.8-4.1c-3.7,0-5.8,2.9-5.8,7.9c0,4.9,2.2,7.9,6,7.9c1.7,0,3.1-0.7,3.9-1.9
		c0.5-0.7,0.7-1.3,0.9-2.6l6.3,0.9c-0.6,2.6-1.2,4-2.5,5.5c-1.9,2.1-4.8,3.3-8.4,3.3c-3.7,0-6.8-1.1-8.9-3.3
		c-2.2-2.3-3.5-5.8-3.5-9.8c0-4.1,1.3-7.6,3.6-9.9c2.1-2,5.1-3.1,8.6-3.1c3.9,0,6.9,1.3,8.9,3.9c1,1.2,1.5,2.3,1.9,4.1L78.6,162z"/>
	<path d="M95.8,153.5c-1.2,3.4-2.1,9.1-2.3,14.5l2.3,0.8c-0.8,2.7-1.2,5.4-1.2,8.4c0,0.6,0,0.8,0.1,1.5l-5.2,0.2
		c0-0.6,0-0.8-0.2-1.6c-0.6-4-0.8-6.7-0.8-9.5c0-3.5,0.4-7.3,1.1-11.6c0.4-2.1,0.4-2.3,0.5-3.2L95.8,153.5z M104.1,166.7
		c-1.4,1.8-2,3.1-2,4.2c0,1.4,1.4,2.1,3.9,2.1c2.7,0,5.2-0.4,7.5-1.2l0.3,5.3c-0.8,0.1-0.8,0.1-2.6,0.4c-1.6,0.2-3.5,0.4-5.2,0.4
		c-2.8,0-4.7-0.4-6.2-1.3c-1.7-1-2.8-2.8-2.8-4.8c0-1.5,0.5-3.1,1.4-4.7c0.4-0.7,0.6-1,1.4-2.2L104.1,166.7z M98.2,155.8
		c1.4,0.3,3,0.5,5.4,0.5c4,0,7-0.2,9-0.8l0.2,5.2c-0.3,0-0.6,0-2.2,0.2c-2.1,0.2-4.3,0.3-6.4,0.3c-1.8,0-3.3-0.1-5.2-0.2
		c-0.2,0-0.5,0-0.9-0.1L98.2,155.8z"/>
	<path d="M138.6,169.3c1.7,2.2,3.7,3.7,6.6,5.1c-1.1,2-1.5,2.7-2.2,4.8c-2.9-1.9-4.7-3.6-6.5-6.3c0,0.7,0.1,2.2,0.1,3.1v1.5
		c0,0.8,0.1,1.7,0.2,2.6h-4.8c0.1-1.1,0.2-1.7,0.2-2.6v-2.3c0-0.1,0-0.1,0-0.8c0-0.2,0-0.7,0.1-1.6c-1.1,1.7-1.9,2.7-3.2,4
		c-1.1,1-1.8,1.6-2.9,2.3c-0.9-1.9-1.4-2.7-2.5-4.1v1.5c0,1.3,0.1,2.3,0.2,3.5h-4.8c0.2-1.4,0.2-2,0.2-3.5v-7.5c0-0.2,0-1.5,0-1.7
		c0-0.8,0-0.8,0-1.3c-0.6,0.8-0.9,1.2-1.5,1.9c-0.5-2.4-0.8-3.5-1.7-5.6c1.8-1.8,3.2-4,4.3-7c0.6-1.5,1-3,1.1-4l4.7,1.6
		c-0.2,0.5-0.3,0.7-0.5,1.7c-0.5,1.5-1.1,3.1-2,5v15.2c2.8-1.6,4.8-3.4,6.4-5.5h-2c-1.2,0-2.5,0.1-3.6,0.2v-4.5
		c1,0.1,2.1,0.2,3.6,0.2h4.2v-1.8h-3.1c-1.1,0-2.2,0-2.9,0.1c0.1-0.9,0.1-1.8,0.1-3.1v-4.8c0-1.2,0-1.9-0.1-2.8
		c0.8,0.1,1.7,0.2,3.3,0.2h10.3c1.4,0,2.4,0,3.4-0.2c-0.1,1-0.1,1.5-0.1,3.1v4.6c0,1.4,0,2.1,0.1,3c-0.2,0-0.3,0-0.4,0h-0.7l-1.8,0
		h-3.7v1.8h4.5c1.1,0,2.5-0.1,3.6-0.2v4.6c-1.2-0.1-2.4-0.2-3.4-0.2H138.6z M130.5,159.1h7.8V157h-7.8V159.1z"/>
	<path d="M163.4,167c0-0.4,0-0.8-0.1-1.1h1.7c0.7-0.5,0.9-0.7,1.6-1.5h-6.4c-1.4,0-2,0-2.7,0.1V161c-1,1.7-1.6,2.6-2.6,3.8v12
		c0,1.4,0,2.2,0.2,3.3h-5c0.1-1,0.2-1.7,0.2-3.3v-7.2c-0.7,0.5-1.1,0.9-2.1,1.7c-0.6-1.9-1.2-3.1-2.2-4.6c2-1.3,2.9-2.1,4.2-3.5
		c0-0.8-0.1-1.1-0.2-1.8h1.7c0.7-1,1.2-1.7,1.8-2.8H151c-1.7,0-3.1,0.1-4.1,0.2v-4.7c1.1,0.1,2.2,0.2,4.3,0.2h4.5
		c0.4-1.1,0.6-2,0.7-2.8l5.1,0.4c-0.2,0.5-0.2,0.6-0.6,1.8c-0.1,0.2-0.1,0.3-0.2,0.6h9.5c2.1,0,3.3-0.1,4.2-0.2v4.7
		c-1.3-0.1-2.8-0.2-4.1-0.2h-11.4c-0.3,0.7-0.5,1-0.9,1.6c0.5,0,1.2,0.1,2.3,0.1h8.3c1.1,0,1.8,0,2.7-0.1l2.7,2.5
		c-0.3,0.3-0.3,0.3-0.8,0.8c-1.6,1.7-2,2.1-4.6,4.2h2.5c1.7,0,2.7-0.1,3.7-0.2v4.6c-0.9-0.1-2.2-0.2-3.9-0.2H168v4.3
		c0,3-1,3.6-6.1,3.6c-0.3,0-1.2,0-1.7,0c-0.3-1.9-0.6-3-1.2-4.4c1.4,0.2,2.3,0.2,3.3,0.2c0.9,0,1.1-0.1,1.1-0.7v-3h-3.8
		c-1.7,0-2.9,0.1-3.8,0.2v-4.6c1,0.1,2,0.2,3.7,0.2h3.9V167z"/>
	<path d="M176.6,155.4c0.5,0,0.9,0,1.1,0c0.8,0,1.9-0.1,5.2-0.3c4.3-0.3,7.3-0.4,13-0.6l3.1-0.1l1.3-0.1c1,0,1.2-0.1,1.4-0.1
		c0.2,0,0.3,0,0.7-0.1l0.3,5.5c-0.4-0.1-0.5-0.1-0.8-0.1c-2.1,0-4.8,0.8-6.9,2.1c-3,1.8-4.8,4.4-4.8,6.8c0,1.7,0.8,2.9,2.5,3.7
		c1.2,0.6,3.9,1.1,5.8,1.1c0.2,0,0.5,0,0.9,0l-0.7,5.7c-0.4-0.1-0.5-0.1-1.1-0.2c-3.4-0.3-5.7-0.8-7.6-1.7c-3.6-1.7-5.4-4.4-5.4-8.3
		c0-2.5,0.8-4.8,2.6-6.8c0.8-1,1.5-1.6,3-2.6l-1.4,0.2c-0.7,0.1-1.7,0.2-7.3,0.6c-2.8,0.3-3,0.3-4.2,0.6L176.6,155.4z M197.9,162.3
		c1.2,1.4,2.1,2.7,2.9,4.4l-2.9,1.3c-0.9-1.9-1.7-3.1-2.9-4.5L197.9,162.3z M201.9,160.6c1.1,1.2,1.9,2.4,3,4.2l-2.8,1.3
		c-1.1-2-1.8-3.2-2.9-4.3L201.9,160.6z"/>
	<path d="M207.5,155.9c1.1,0.1,2,0.2,3.4,0.2c1.7,0,4-0.1,5.4-0.2c-0.6-1.7-1-2.5-1.3-3l5.3-0.6c0.2,1,0.4,1.7,0.9,3.1
		c2.9-0.4,6.4-1.1,8.2-1.7l0.4,4.4c-0.6,0.1-0.6,0.1-2.2,0.5c-1.7,0.4-1.8,0.4-4.8,0.9c0.2,0.6,0.6,1.4,0.7,1.6
		c4.2-0.8,5.6-1.1,7-1.6l0.5,4.4c-0.7,0.1-0.7,0.1-3.7,0.7c0,0-1.4,0.2-1.8,0.3c1.2,2.2,2.1,3.4,3.9,5.5l-4.4,2.3
		c-1.8-0.9-3.7-1.3-6.3-1.3c-3.3,0-5.2,0.7-5.2,2c0,1.1,1.6,1.7,4.8,1.7c3.5,0,7.2-0.7,9.6-1.9l0.7,5.1c-0.6,0.1-0.6,0.1-2.1,0.4
		c-2.9,0.6-5.6,0.9-8.4,0.9c-4.6,0-7.7-1-9.1-2.9c-0.7-0.9-1.1-2.1-1.1-3.3c0-2.1,1.4-4,3.6-5c1.8-0.8,3.8-1.1,6.4-1.1
		c1.6,0,2.8,0.1,4.2,0.4c-0.3-0.5-0.8-1.2-1.4-2.1c-2.6,0.3-6,0.5-10.4,0.7c-1.8,0.1-1.9,0.1-2.6,0.2l-0.2-4.5
		c0.9,0.1,1.4,0.1,3.1,0.1c2.9,0,5.8-0.2,8.2-0.4c-0.1-0.2-0.3-0.8-0.7-1.6c-2.7,0.3-4,0.3-7.9,0.3c-1.4,0-1.6,0-2.3,0.1
		L207.5,155.9z"/>
	<path d="M237.4,153.5c1.3,0.2,2.4,0.2,4.3,0.2c2.7,0,6-0.1,9.1-0.4c1.3-0.1,1.7-0.2,2.3-0.4l2.5,3.6c-0.8,0.5-0.8,0.5-4.8,3.9
		c-1.6,1.4-2.1,1.8-4.2,3.3c1.7-0.4,2.6-0.5,4.1-0.5c2.8,0,4.8,0.7,6.4,2c1.4,1.3,2.2,3,2.2,5.2c0,3-1.4,5.5-4.2,7.1
		c-2.1,1.2-5,1.9-8,1.9c-5.1,0-8.2-2-8.2-5.4c0-2.8,2.5-4.8,6-4.8c2.2,0,4.1,0.8,5.4,2.3c0.6,0.7,0.9,1.3,1.4,2.4
		c1.6-0.7,2.4-1.7,2.4-3.3c0-2.1-2-3.4-5.4-3.4c-3.2,0-6.6,1-9.3,2.8c-0.9,0.6-1.9,1.4-2.9,2.3l-2.8-4.6c2.8-1.3,9.1-6.2,12.9-9.9
		c-1.6,0.2-2.8,0.2-7,0.5c-0.8,0-1.4,0.1-2,0.2L237.4,153.5z M244.9,173.2c-0.7,0-1.2,0.4-1.2,1c0,0.8,1,1.3,2.6,1.3
		c0.4,0,0.4,0,1-0.1C246.9,173.9,246.1,173.2,244.9,173.2z"/>
	<path d="M275.8,171.4c-1.7,3.9-3.8,5.5-6.5,5.5c-4,0-6.9-3.9-6.9-9.4c0-3.5,1.2-6.7,3.5-9.2c2.7-2.9,6.5-4.4,10.9-4.4
		c4,0,7.6,1.4,9.8,3.7c1.9,2,3,5,3,8.4c0,3.9-1.5,7.5-4,9.7c-2,1.8-4.4,2.8-8.6,3.5c-0.7-2.2-1.3-3.3-2.6-4.9
		c2.8-0.2,4.7-0.7,6.3-1.5c2.3-1.2,3.6-3.8,3.6-7c0-2.6-0.9-4.6-2.7-5.9c-0.8-0.6-1.4-0.9-2.5-1.1
		C278.4,164,277.4,167.9,275.8,171.4z M270.6,160.4c-2,1.7-3.3,4.5-3.3,7.2c0,2.1,0.8,3.8,1.9,3.8c0.8,0,1.5-1.1,2.4-3.3
		c1.1-2.7,1.9-6.2,2.3-9.2C272.6,159,271.6,159.5,270.6,160.4z"/>
	<path d="M291.8,155.4c0.5,0,0.9,0,1.1,0c0.8,0,1.9-0.1,5.2-0.3c4.3-0.3,7.3-0.4,13-0.6l3.1-0.1l1.3-0.1c1,0,1.2-0.1,1.4-0.1
		c0.2,0,0.3,0,0.7-0.1l0.3,5.5c-0.4-0.1-0.5-0.1-0.8-0.1c-2.1,0-4.8,0.8-6.9,2.1c-3,1.8-4.8,4.4-4.8,6.8c0,1.7,0.8,2.9,2.5,3.7
		c1.2,0.6,3.9,1.1,5.8,1.1c0.2,0,0.5,0,0.9,0l-0.7,5.7c-0.4-0.1-0.5-0.1-1.1-0.2c-3.4-0.3-5.7-0.8-7.6-1.7c-3.6-1.7-5.4-4.4-5.4-8.3
		c0-2.5,0.8-4.8,2.6-6.8c0.8-1,1.5-1.6,3-2.6l-1.4,0.2c-0.7,0.1-1.7,0.2-7.3,0.6c-2.8,0.3-3,0.3-4.2,0.6L291.8,155.4z M313.1,162.3
		c1.2,1.4,2.1,2.7,2.9,4.4l-2.9,1.3c-0.9-1.9-1.7-3.1-2.9-4.5L313.1,162.3z M317.2,160.6c1.1,1.2,1.9,2.4,3,4.2l-2.8,1.3
		c-1.1-2-1.8-3.2-2.9-4.3L317.2,160.6z"/>
	<path d="M72.9,216.7c-1.8,1.4-2.7,2.6-2.7,3.7c0,1.6,2,2.3,6.5,2.3c3.6,0,7.9-0.6,9.8-1.4l0.4,5.8c-0.8,0-0.8,0-3,0.3
		c-2.5,0.3-5,0.5-7.5,0.5c-3.4,0-5.8-0.3-7.7-1.1c-2.7-1.1-4-2.9-4-5.5c0-2.7,1.3-4.9,4.3-7.3L72.9,216.7z M66.8,203
		c2,0.5,5.6,0.8,10,0.8c3.9,0,6.8-0.2,8.4-0.5l0.1,4.6c-1.9,0.9-5.7,3.3-8.4,5.3l-3.7-2.6c0.9-0.6,0.9-0.6,2.4-1.5
		c0.4-0.2,0.4-0.3,0.7-0.4c0.2-0.1,0.2-0.1,0.5-0.3c-1,0.1-1.4,0.1-2.5,0.1c-2.3,0-3.8-0.1-6.8-0.4c-0.5-0.1-0.6-0.1-1.1-0.1
		L66.8,203z"/>
	<path d="M89.8,219.8c0.8-0.6,1.3-1.1,2.1-1.8c2-2,3.1-3.1,3.3-3.3c0-0.5,0.1-1.4,0.1-3.3c-3.4,0.2-3.4,0.2-4.5,0.4l-0.2-4.8
		c0.7,0.1,1.1,0.1,1.6,0.1c0.8,0,2-0.1,3.3-0.2c0-0.4,0-0.4,0-1c0-0.6,0.1-1.4,0.1-2.1c0-0.9,0-1.2-0.1-2l5.3,0.1
		c-0.1,0.7-0.3,2.6-0.4,4.5l1.7,1.6c-0.5,0.4-1.1,1.1-1.9,2l0,0.4c0,0.3,0,0.4,0,0.7c3.8-3.5,6.9-5.2,9.5-5.2c2.9,0,4.8,1.9,4.8,4.7
		c0,1-0.2,2-0.8,4.5c-0.9,3.8-1.3,5.7-1.3,6.4c0,0.5,0.3,0.9,0.7,0.9c0.5,0,1.1-0.5,1.7-1.4c0.8-1.1,1.4-2.3,1.8-3.2
		c0.7,1.9,1.2,2.9,2.5,4.8c-2.3,3.8-4.3,5.2-7.2,5.2s-4.7-1.9-4.7-4.8c0-1.7,0.3-3.5,1.3-8c0.4-1.6,0.5-2.6,0.5-3.1
		c0-0.5-0.3-0.8-0.9-0.8c-0.7,0-1.8,0.5-2.9,1.2c-2,1.4-3.9,3.1-5.2,4.6c0,1.4,0,2.3,0,3.2c0,4.3,0.1,7.3,0.2,8.5l-5.5,0
		c0.2-1.1,0.3-2.7,0.3-4.6v-1.7c0-0.2,0-0.3,0-0.6c0-0.2,0-0.3,0-0.4c0-0.1,0-0.3,0-0.5c-2.1,2.6-2.6,3.2-3,3.8L89.8,219.8z"/>
	<path d="M120.5,208.5c0.1,0,0.2,0,0.3,0c1,0,3.9-0.2,5.8-0.5c0.5-3.2,0.7-4.9,0.7-6c0-0.1,0-0.3,0-0.5l5.5,0.5
		c-0.2,0.6-0.2,0.6-0.5,2.4c-0.2,1.4-0.5,2.5-0.6,3.2c0.5,0,0.9-0.1,1.3-0.1c1.9,0,3.3,0.4,4.3,1.2c1.5,1.2,2.1,3.1,2.1,6.5
		c0,4.7-0.7,8.6-1.9,10.7c-0.4,0.8-1.2,1.4-1.9,1.8c-0.6,0.3-1.4,0.4-2.3,0.4c-1.4,0-2.7-0.2-4.8-0.8c0.1-0.8,0.1-1.2,0.1-1.7
		c0-1.3-0.1-2.1-0.5-3.6c1.7,0.7,3.3,1.1,4.1,1.1c0.6,0,1-0.4,1.4-1.4c0.5-1.3,0.8-4.4,0.8-6.7c0-1.3-0.2-2-0.6-2.4
		c-0.3-0.4-0.8-0.5-1.8-0.5c-0.3,0-0.6,0-1.2,0.1c-0.5,2.5-1.2,4.7-2.1,7.5c-1,2.8-1.4,4-3.2,7.8c-0.2,0.5-0.3,0.7-0.5,1.1l-5-2.6
		c1.9-2.6,4.5-8.6,5.7-13.3c-2.1,0.3-3.7,0.6-4.7,0.8L120.5,208.5z M142.8,205.3c3,3.8,4.9,7.8,6.1,12.9l-4.9,2.3
		c-1-5.5-2.9-9.9-5.6-13.2L142.8,205.3z"/>
	<path d="M158.7,208c-0.4,1.6-0.9,4.5-1.3,7.3c2.5-1.6,5.2-2.3,8.6-2.3c5.4,0,8.9,2.8,8.9,7.1c0,2.6-1.2,4.9-3.4,6.4
		c-2.2,1.5-4.9,2.2-8.6,2.2c-2.5,0-4.6-0.2-7.6-0.9c-0.1-2.5-0.2-3.5-0.7-5.4c3,0.9,5.8,1.4,8,1.4c4,0,6.6-1.4,6.6-3.6
		c0-1.6-1.6-2.5-4.3-2.5c-2.3,0-4.5,0.6-6.6,1.8c-0.8,0.4-1.1,0.7-1.7,1.4l-5-0.2c0.1-0.3,0.1-0.3,0.1-0.6c0.2-1.4,0.8-6.3,1.4-10.4
		c0.1-0.7,0.2-1.1,0.2-1.9L158.7,208z M158.2,201.3c1.5,0.8,3.3,1.4,6.1,2.1c2,0.5,4.6,1.1,6.1,1.3l-1.6,4.8
		c-5.5-1.1-9.5-2.3-13-3.9L158.2,201.3z"/>
	<path d="M191.4,220.7c-1.7,3.9-3.8,5.5-6.5,5.5c-4,0-6.9-3.9-6.9-9.4c0-3.5,1.2-6.7,3.5-9.2c2.7-2.9,6.5-4.4,10.9-4.4
		c4,0,7.6,1.4,9.8,3.7c1.9,2,3,5,3,8.4c0,3.9-1.5,7.5-4,9.7c-2,1.8-4.4,2.8-8.6,3.5c-0.7-2.2-1.3-3.3-2.6-4.9
		c2.8-0.2,4.7-0.7,6.3-1.5c2.3-1.2,3.6-3.8,3.6-7c0-2.6-0.9-4.6-2.7-5.9c-0.8-0.6-1.4-0.9-2.5-1.1
		C194.1,213.3,193,217.1,191.4,220.7z M186.2,209.7c-2,1.7-3.3,4.5-3.3,7.2c0,2.1,0.8,3.8,1.9,3.8c0.8,0,1.5-1.1,2.4-3.3
		c1.1-2.7,1.9-6.2,2.3-9.2C188.2,208.3,187.3,208.8,186.2,209.7z"/>
	<path d="M223.1,224.5v1.5c0,2.2,0,2.7,0.2,3.3H219c0.1-0.9,0.2-1.8,0.2-3.3v-9c-0.4,4.1-0.4,4.1-0.8,5.9c-0.5,2.7-1,4.3-2,6.4
		c-0.8-1.4-1.4-2.1-2.4-3.2c0,1.3,0,2,0.2,3.3h-4.8c0.2-1.6,0.2-2,0.2-3.5v-7.5c0-0.7,0-1.3,0.1-3.3c-0.5,0.8-0.9,1.4-1.4,2
		c-0.5-2.4-0.7-3.4-1.5-5.6c1.4-1.5,2.6-3.4,3.6-5.8c0.8-1.8,1.3-3.5,1.4-4.9l4.5,1.1c-0.1,0.4-0.2,0.5-0.3,1
		c0.8,0.1,1.7,0.1,2.9,0.1h0.5v-0.4c0-0.8,0-1.1-0.1-1.5h4.6c-0.1,0.5-0.1,0.9-0.1,1.5v0.4h3v-0.4c0-0.8,0-1.1-0.1-1.5h4.6
		c-0.1,0.5-0.1,0.8-0.1,1.5v0.4h0.9c1.4,0,2.7-0.1,3.2-0.2v4.2c-1.1-0.1-1.4-0.1-3.2-0.1h-0.9v1.4h1.1c1.8,0,2.4,0,3.4-0.1v4.1
		c-0.8-0.1-1.7-0.1-2.8-0.1h-13.4v0.9c0.8,0.1,1.6,0.1,3,0.1h9.6c1.3,0,2,0,2.8-0.1c-0.1,0.8-0.1,1.5-0.1,3.2v10.2
		c0,2.4-0.7,2.8-4.9,2.9c-0.2-1.5-0.3-2.1-0.7-3.3c0.4,0,0.7,0.1,1.1,0.1c0.5,0,0.5-0.1,0.5-0.6v-0.9h-1.9v1.1c0,1.8,0,2.6,0.1,3.4
		h-4c0.1-1,0.2-1.8,0.2-3.4v-1.1H223.1z M214,223.6c0.4-1.1,0.6-1.9,0.8-3c0.3-1.8,0.5-5.2,0.5-8.7c0-1.8,0-2.5-0.1-3.7
		c1.2,0.1,1.7,0.1,3.3,0.1h1v-1.4h-0.5c-1.8,0-2.3,0-3.2,0.1v-3.2c-0.6,1.9-0.9,2.7-1.7,4.4V223.6z M225,216.4h-1.8v1.2h1.8V216.4z
		 M225,220.4h-1.8v1.3h1.8V220.4z M226.8,208.3v-1.4h-3v1.4H226.8z M230.6,217.6v-1.2h-1.9v1.2H230.6z M230.6,221.6v-1.3h-1.9v1.3
		H230.6z"/>
	<path d="M240.4,209.6c0.8,0.1,1.2,0.1,1.8,0.1c3.2,0,6.8-0.2,11.3-0.7c1.5-0.2,2.2-0.3,2.8-0.5l2.7,3.5c-0.6,0.4-1.1,0.7-2.5,2
		c-1.2,1.1-4.1,3.6-4.8,4.1c0.6-0.2,0.8-0.2,1.2-0.2c1.1,0,2,0.4,2.5,1.2c0.5,0.8,0.6,1.1,0.8,3.3c0.1,1.5,0.5,2,1.7,2
		c2.1,0,4.7-0.5,6.2-1.2l0.5,5.2c-1.1,0.1-1.1,0.1-2.8,0.3c-2,0.3-3,0.4-4.6,0.4c-2.7,0-4.2-0.6-5.1-1.9c-0.5-0.8-0.6-1.4-0.7-3.1
		c-0.1-1.2-0.2-1.6-0.4-1.9c-0.2-0.2-0.6-0.4-1-0.4c-1.2,0-2.5,0.9-4.9,3.3c-1.5,1.5-2.9,3-3.9,4.3l-3.9-4.5
		c1.9-1.2,5.2-4.1,10.4-8.8c1.4-1.3,1.7-1.6,2.8-2.5c-1.7,0.3-3.3,0.5-7.3,0.8c-1.1,0.1-1.7,0.2-2.5,0.3L240.4,209.6z M244.3,201.4
		c3.3,1,7.8,1.4,13.1,1.4l-0.8,4.7c-6.8-0.3-9.6-0.6-13.8-1.5L244.3,201.4z"/>
	<path d="M280,220.7c-1.7,3.9-3.8,5.5-6.5,5.5c-4,0-6.9-3.9-6.9-9.4c0-3.5,1.2-6.7,3.5-9.2c2.7-2.9,6.5-4.4,10.9-4.4
		c4,0,7.6,1.4,9.8,3.7c1.9,2,3,5,3,8.4c0,3.9-1.5,7.5-4,9.7c-2,1.8-4.4,2.8-8.6,3.5c-0.7-2.2-1.3-3.3-2.6-4.9
		c2.8-0.2,4.7-0.7,6.3-1.5c2.3-1.2,3.6-3.8,3.6-7c0-2.6-0.9-4.6-2.7-5.9c-0.8-0.6-1.4-0.9-2.5-1.1
		C282.7,213.3,281.6,217.1,280,220.7z M274.8,209.7c-2,1.7-3.3,4.5-3.3,7.2c0,2.1,0.8,3.8,1.9,3.8c0.8,0,1.5-1.1,2.4-3.3
		c1.1-2.7,1.9-6.2,2.3-9.2C276.9,208.3,275.9,208.8,274.8,209.7z"/>
	<path d="M79.9,262.1c-1.9,2-4,3.4-7.1,4.6c2.8-0.5,5.1-1.2,7.1-2.3c0.9-0.5,1.8-1.1,2.3-1.6l3.2,2.3c-1.7,1.3-3.4,2.2-5.3,3
		c-2.1,1-4,1.5-7.2,2c-0.5-1.3-0.8-1.9-1.5-2.9c-0.7,0.2-1.2,0.4-2.3,0.7c-0.6-1.6-1.1-2.4-2.1-3.8c3.1-0.6,4.6-1.1,6.4-2.1h-1.7
		c-1.3,0-2.7,0.1-3.9,0.2v-4.1c1,0.1,2.2,0.2,3.8,0.2h5.8c0.3-0.5,0.3-0.6,0.5-1.1c-3.1,0.1-3.1,0.1-6.1,0.1c-0.5,0-0.8,0-1.6,0.1
		l-0.5-3.9c1,0.1,2.2,0.2,4.3,0.2c1.1-1.3,1.9-2.5,2.5-3.7l4.9,0.9c-0.2,0.2-0.2,0.2-0.6,0.8c-0.6,0.8-1,1.3-1.6,2
		c2,0,4.2-0.1,6.1-0.2c-0.5-0.5-0.8-0.7-1.6-1.4l3.6-1.7c2.3,1.8,4.1,3.5,6.4,6l-3.6,2h1.3c1.7,0,3.1-0.1,3.9-0.2v4.1
		c-1-0.1-2.2-0.2-3.8-0.2h-2.7c1.6,1.2,4.2,2.1,7.1,2.4c-0.9,1.5-1.3,2.4-1.8,4.3c-4.6-1.2-8.3-3.5-10.9-6.7H79.9z M89.1,267.9
		c-3,2.3-4.1,3-6.6,4c-2.8,1.2-5.5,1.9-9.7,2.5c-0.5-1.5-0.9-2.2-1.8-3.3c4.3-0.3,8-1.3,11.4-3c1.7-0.8,3-1.7,3.5-2.3L89.1,267.9z
		 M93.5,270.8c-3.6,2.9-4.5,3.6-7,4.8c-3.8,1.9-7.8,3-13.4,3.6c-0.6-1.7-1-2.5-2.1-3.9c6.4-0.3,11.1-1.6,15.5-4.3
		c1.3-0.8,2.5-1.7,3.2-2.5L93.5,270.8z M89.8,258.4c-1-1.3-1-1.3-1.4-1.7c-1.6,0.2-3.3,0.3-5.4,0.4c-0.3,0.6-0.4,1-0.6,1.4H89.8z"/>
	<path d="M102.3,262.2c-1.8,0-3.4,0.1-4.3,0.2V258c0.9,0.1,2.4,0.2,4.3,0.2h5.7v-1.4h-3.7c-1.7,0-2.7,0-3.6,0.1v-4.3
		c0.9,0.1,1.9,0.2,3.5,0.2h3.7v-0.2c0-0.9-0.1-1.4-0.2-2.1h4.8c-0.1,0.6-0.2,1.2-0.2,2.1v0.2h1.5c1.6,0,2.6-0.1,3.5-0.2v2.3
		c1.4-1.6,2.1-2.6,2.9-4l4.2,2.7c-0.4,0.3-0.4,0.3-1.3,1.4c-1,1.1-1.8,2-3,3.1h1.2c1.8,0,3.1-0.1,4-0.2v4.4c-1-0.1-2.4-0.2-4-0.2
		h-6.1c-1.1,0.8-1.8,1.3-2.8,1.8c3.6-0.2,7.3-0.8,8.9-1.4l2.9,3.5c-4.1,0.8-8.3,1.1-14.2,1.3c-0.1,0.3-0.2,0.6-0.3,0.8h9.8
		c1.7,0,2,0,2.9-0.1c-0.1,0.5-0.1,0.7-0.2,1.8c-0.3,3.8-0.8,6-1.5,7c-0.9,1.2-2,1.5-5.5,1.5c-1.1,0-1.3,0-3.8-0.2
		c-0.1-1.8-0.3-2.8-1-4.3c2.1,0.2,3.4,0.3,4.5,0.3c1.4,0,1.8-0.1,2-0.3c0.3-0.3,0.4-0.9,0.5-2h-9.1c-0.3,0.7-0.4,1-0.9,1.9l-5.1-0.6
		c1.2-2,1.6-2.8,2.6-5.3c-2,0.9-3.2,1.4-5.4,2.2c-0.8-1.6-1.4-2.6-2.5-3.9c4.3-1.2,7.8-2.6,10.9-4.2H102.3z M114,258.2
		c0.8-0.7,1.1-0.9,1.6-1.4c-0.6,0-0.7,0-1.1,0h-2.1v1.4H114z"/>
	<path d="M136.4,252.1c-1.2,3.4-2.1,9.1-2.3,14.5l2.3,0.8c-0.8,2.7-1.2,5.4-1.2,8.4c0,0.6,0,0.8,0.1,1.5l-5.2,0.2
		c0-0.6,0-0.8-0.2-1.6c-0.6-4-0.8-6.7-0.8-9.5c0-3.5,0.4-7.3,1.1-11.6c0.4-2.1,0.4-2.3,0.5-3.2L136.4,252.1z M144.7,265.3
		c-1.4,1.8-2,3.1-2,4.2c0,1.4,1.4,2.1,3.9,2.1c2.7,0,5.2-0.4,7.5-1.2l0.3,5.3c-0.8,0.1-0.8,0.1-2.6,0.4c-1.6,0.2-3.5,0.4-5.2,0.4
		c-2.8,0-4.7-0.4-6.2-1.3c-1.7-1-2.8-2.8-2.8-4.8c0-1.5,0.5-3.1,1.4-4.7c0.4-0.7,0.6-1,1.4-2.2L144.7,265.3z M138.8,254.4
		c1.4,0.3,3,0.5,5.4,0.5c4,0,7-0.2,9-0.8l0.2,5.2c-0.3,0-0.6,0-2.2,0.2c-2.1,0.2-4.3,0.3-6.4,0.3c-1.8,0-3.3-0.1-5.2-0.2
		c-0.2,0-0.5,0-0.9-0.1L138.8,254.4z"/>
	<path d="M156.9,254c0.5,0,0.9,0,1.1,0c0.8,0,1.9-0.1,5.2-0.3c4.3-0.3,7.3-0.4,13-0.6l3.1-0.1l1.3-0.1c1,0,1.2-0.1,1.4-0.1
		c0.2,0,0.3,0,0.7-0.1l0.3,5.5c-0.4-0.1-0.5-0.1-0.8-0.1c-2.1,0-4.8,0.8-6.9,2.1c-3,1.8-4.8,4.4-4.8,6.8c0,1.7,0.8,2.9,2.5,3.7
		c1.2,0.6,3.9,1.1,5.8,1.1c0.2,0,0.5,0,0.9,0l-0.7,5.7c-0.4-0.1-0.5-0.1-1.1-0.2c-3.4-0.3-5.7-0.8-7.6-1.7c-3.6-1.7-5.4-4.4-5.4-8.3
		c0-2.5,0.8-4.8,2.6-6.8c0.8-1,1.5-1.6,3-2.6l-1.4,0.2c-0.7,0.1-1.7,0.2-7.3,0.6c-2.8,0.3-3,0.3-4.2,0.6L156.9,254z M178.3,260.9
		c1.2,1.4,2.1,2.7,2.9,4.4l-2.9,1.3c-0.9-1.9-1.7-3.1-2.9-4.5L178.3,260.9z M182.3,259.1c1.1,1.2,1.9,2.4,3,4.2l-2.8,1.3
		c-1.1-2-1.8-3.2-2.9-4.3L182.3,259.1z"/>
	<path d="M187.9,254.5c1.1,0.1,2,0.2,3.4,0.2c1.7,0,4-0.1,5.4-0.2c-0.6-1.7-1-2.5-1.3-3l5.3-0.6c0.2,1,0.4,1.7,0.9,3.1
		c2.9-0.4,6.4-1.1,8.2-1.7l0.4,4.4c-0.6,0.1-0.6,0.1-2.2,0.5c-1.7,0.4-1.8,0.4-4.8,0.9c0.2,0.6,0.6,1.4,0.7,1.6
		c4.2-0.8,5.6-1.1,7-1.6l0.5,4.4c-0.7,0.1-0.7,0.1-3.7,0.7c0,0-1.4,0.2-1.8,0.3c1.2,2.2,2.1,3.4,3.9,5.5l-4.4,2.3
		c-1.8-0.9-3.7-1.3-6.3-1.3c-3.3,0-5.2,0.7-5.2,2c0,1.1,1.6,1.7,4.8,1.7c3.5,0,7.2-0.7,9.6-1.9l0.7,5.1c-0.6,0.1-0.6,0.1-2.1,0.4
		c-2.9,0.6-5.6,0.9-8.4,0.9c-4.6,0-7.7-1-9.1-2.9c-0.7-0.9-1.1-2.1-1.1-3.3c0-2.1,1.4-4,3.6-5c1.8-0.8,3.8-1.1,6.4-1.1
		c1.6,0,2.8,0.1,4.2,0.4c-0.3-0.5-0.8-1.2-1.4-2.1c-2.6,0.3-6,0.5-10.4,0.7c-1.8,0.1-1.9,0.1-2.6,0.2l-0.2-4.5
		c0.9,0.1,1.4,0.1,3.1,0.1c2.9,0,5.8-0.2,8.2-0.4c-0.1-0.2-0.3-0.8-0.7-1.6c-2.7,0.3-4,0.3-7.9,0.3c-1.4,0-1.6,0-2.3,0.1
		L187.9,254.5z"/>
	<path d="M215.6,253.8c1.8,0.4,4.9,0.6,8.7,0.6c0.4,0,0.8,0,1.7,0c0-2-0.1-2.5-0.2-3.3h5.3c-0.2,0.8-0.2,1-0.2,3.1
		c4-0.2,6.8-0.6,8.6-1.1l0.2,4.6c-0.9,0.1-1.1,0.1-2.7,0.3c-2,0.3-3.7,0.4-6.1,0.5c0,0.8,0,0.8,0,1.9c3.4-0.2,5.7-0.5,7.8-0.9
		l0.1,4.6c-0.6,0-0.6,0-1.9,0.2c-1.4,0.2-4.2,0.4-5.9,0.4c0,1.4,0,1.4,0.1,2.7c1.6,0.4,2.5,0.8,4.1,1.6c1.5,0.8,1.9,1,4,2.5
		c0.5,0.3,0.7,0.4,1.1,0.7l-2.9,4.8c-0.9-1-0.9-1-2-1.9c-1.4-1.2-2.9-2.1-4.3-2.7c0,1.4-0.2,2.3-0.7,3c-1,1.5-3.3,2.4-6.6,2.4
		c-4.9,0-7.7-2-7.7-5.5c0-2.2,1.4-4,3.8-4.9c1.4-0.5,3.2-0.8,5.4-0.8c0.4,0,0.5,0,0.9,0c0-1-0.1-1.6-0.1-1.8c-0.6,0-1.9,0-2.3,0
		c-1.7,0-3.1,0-4.8-0.1c-1.3-0.1-1.5-0.1-2.4-0.1l0.1-4.5c1.3,0.3,4.3,0.5,7.4,0.5c0.6,0,1.1,0,2,0c0-0.2,0-0.3,0-0.5
		c0-0.1,0-0.1,0-0.8c0-0.4,0-0.4,0-0.7c-0.7,0-1,0-1.3,0c-1.6,0-2.1,0-5.6-0.2c-1.1,0-1.1,0-2.3-0.1c-0.4,0-0.7,0-0.8,0
		c-0.1,0-0.3,0-0.5,0L215.6,253.8z M224.3,270.9c-1.8,0-2.9,0.5-2.9,1.4c0,0.8,0.8,1.2,2.3,1.2c1.7,0,2.4-0.6,2.4-1.9
		c0-0.2,0-0.5,0-0.5C225.4,271,225,270.9,224.3,270.9z"/>
	<path d="M242.7,254.2c0.8,0.1,1.1,0.1,1.8,0.1c0.8,0,8.9-0.2,11.7-0.3c0-1.9-0.1-2.3-0.2-3.2h5.3c-0.1,1.1-0.2,1.4-0.2,3.1
		c5,0,7.2-0.1,8.4-0.2l0,4.9c-1.4-0.1-2-0.2-5.4-0.2c-1.6,0-1.8,0-3,0v3.8c0,0.2,0,0.3,0,0.7c0.9,1.6,1.2,3,1.2,5
		c0,3.4-1.7,6.3-5,8.3c-1.5,0.9-3.2,1.6-6.1,2.4c-0.8-2.1-1.5-3.3-2.9-4.8c3-0.5,4.8-0.9,6.2-1.8c1.1-0.7,1.7-1.3,2.2-2.4
		c-1.3,1.1-2.3,1.4-4,1.4c-3.5,0-6-2.3-6-5.5c0-3.4,2.8-5.8,7-5.8c1,0,1.7,0.1,2.3,0.3c0-0.3,0-0.3,0-0.9c0-0.4,0-0.4,0-0.7
		c-6.2,0.2-11.1,0.5-13.5,0.8L242.7,254.2z M252.1,265.5c0,0.9,0.8,1.6,2,1.6c1.3,0,2.3-0.8,2.3-1.8c0-0.9-0.8-1.6-2-1.6
		C253,263.7,252.1,264.4,252.1,265.5z"/>
	<path d="M278.3,269.3c0.1-0.6,0.1-0.9,0.1-1.4c0-0.6,0-0.6-0.1-2.3l-0.6-9.5c-0.1-1.2-0.2-2.6-0.4-4.1h7c-0.1,0.7-0.3,2.8-0.4,4.1
		l-0.6,9.5c-0.1,1.3-0.1,1.9-0.1,2.3c0,0.3,0,0.6,0,1.4H278.3z M277.7,277.1v-5.7h6.1v5.7H277.7z"/>
</g>
<rect x="7.7" y="3.4" class="st4" width="92" height="69.5"/>
<rect x="99.7" y="3.4" transform="matrix(-1 -1.224647e-16 1.224647e-16 -1 629.7255 76.2633)" class="st4" width="430.3" height="69.5"/>
<g>
	<path class="st2" d="M357.8,99.2c-0.3,0.4-0.7,1-0.9,1.3c-1.1,1.5-2.6,3-4.1,4.1c-0.6-1.2-1-1.8-1.9-2.8c2-1.2,3.3-2.7,4.1-4.3
		L357.8,99.2z M370.8,109.1c-0.2,0.3-0.2,0.3-0.5,0.7c-0.1,0.2-0.1,0.2-1,1.4c-0.6,0.9-0.8,1.1-1.4,1.7c1.7,0.4,3,0.5,5.2,0.4
		c-0.5,1.3-0.8,2.1-1.1,3.5c-2.6-0.1-4.7-0.6-6.8-1.6c-1.9,1.3-3.4,2.1-6.3,2.9c-0.4-0.9-0.8-1.7-1.4-2.5c0.1,1.4,0.2,1.8,0.3,2.4
		l-3.4,0.3c0-0.6,0-1.3-0.1-2.3l-0.4-4.4c0,0,0-0.4-0.1-1.3c-0.3,0.4-0.5,0.7-1,1.1c-0.5-1.5-0.8-2.1-1.6-3.3c2-1.7,3.7-4.1,4.3-5.8
		l2.8,1.6c-0.1,0.2-0.2,0.3-0.3,0.6c-0.1,0.2-0.1,0.2-0.2,0.4c-0.1,0.1-0.1,0.1-0.2,0.3c0.3,0,0.4,0,0.6,0l2.2-0.2
		c0.4-0.4,0.4-0.4,0.5-0.5c-1.2-1-2.3-1.7-4.1-2.7l1.9-2.6c0.5,0.3,0.5,0.3,1,0.6c0.7-1,1.4-2.3,1.6-2.9l3.3,0.8
		c-0.2,0.3-0.2,0.4-0.5,0.8c-0.6,1-1.3,2.1-2,3c0.4,0.3,0.5,0.4,0.9,0.7c1.5-1.9,2.3-3.2,2.7-4.1l3.3,1.2c-0.3,0.5-0.6,0.8-0.7,1
		c-0.7,1-2.4,3.2-3.4,4.4c0.4-0.1,0.4-0.1,1.2-0.2c0.2,0,0.5-0.1,1.3-0.2c-0.3-0.4-0.5-0.6-0.9-1.2l2.6-1.6c1.2,1.5,2.5,3.2,3.5,4.8
		l-2.8,1.8c-0.4-0.8-0.5-1-0.8-1.4c-2.4,0.5-2.7,0.6-4.1,0.8c-0.2,0.3-0.2,0.4-0.3,0.7l2.7-0.3c0.7-0.1,1.3-0.1,1.7-0.2L370.8,109.1
		z M357.2,111.4c1.7-0.9,3-2.1,3.8-3.3l-2.3,0.4c-0.2,0-0.3,0.1-0.8,0.2l-0.5-2.6c-0.1,0.2-0.1,0.2-0.6,0.9L357.2,111.4z
		 M357.6,115.4c1.8-0.4,3.1-1,4.6-1.8c-0.6-0.5-0.8-0.6-1.3-1.1c-0.8,0.7-1.2,1-2.1,1.6c-0.5-0.7-0.9-1.3-1.5-1.9L357.6,115.4z
		 M363.3,110.7c0.5,0.5,0.8,0.7,1.5,1.1c0.5-0.5,0.8-0.7,1.4-1.4L363.3,110.7z"/>
	<path class="st2" d="M373.4,101.5c0.1,0,0.2,0,0.2,0c0.7-0.1,2.8-0.4,4.2-0.8c0.1-2.3,0.2-3.6,0.1-4.4c0-0.1,0-0.2,0-0.4l4,0
		c-0.1,0.5-0.1,0.5-0.2,1.8c-0.1,1-0.2,1.9-0.2,2.4c0.4-0.1,0.6-0.1,0.9-0.1c1.4-0.1,2.4,0.1,3.2,0.6c1.2,0.8,1.8,2.1,2,4.6
		c0.3,3.4,0.1,6.3-0.6,7.9c-0.3,0.6-0.8,1.1-1.3,1.4c-0.4,0.2-1,0.4-1.7,0.5c-1,0.1-2,0-3.5-0.3c0-0.6,0-0.9-0.1-1.3
		c-0.1-1-0.2-1.5-0.6-2.6c1.3,0.4,2.4,0.6,3.1,0.5c0.5,0,0.7-0.4,0.9-1.1c0.2-1,0.3-3.3,0.1-4.9c-0.1-0.9-0.3-1.5-0.6-1.7
		c-0.3-0.3-0.6-0.3-1.3-0.2c-0.2,0-0.4,0-0.9,0.1c-0.2,1.9-0.5,3.5-1,5.6c-0.5,2.1-0.8,3-1.8,5.9c-0.1,0.4-0.2,0.5-0.3,0.8l-3.8-1.6
		c1.2-2,2.6-6.5,3.2-10.1c-1.5,0.3-2.6,0.7-3.4,0.9L373.4,101.5z M389.4,97.6c2.5,2.5,4.1,5.3,5.4,8.9l-3.4,2c-1.1-3.9-2.8-7-5-9.2
		L389.4,97.6z"/>
	<path class="st2" d="M401.1,98.4c-0.2,1.2-0.4,3.3-0.4,5.4c1.7-1.4,3.6-2.1,6.1-2.3c3.9-0.4,6.7,1.4,7,4.5c0.2,1.9-0.6,3.7-2,4.9
		c-1.5,1.2-3.4,1.9-6.1,2.2c-1.8,0.2-3.4,0.1-5.6-0.1c-0.2-1.8-0.4-2.5-0.9-3.8c2.2,0.5,4.3,0.6,5.9,0.5c2.9-0.3,4.7-1.5,4.6-3
		c-0.1-1.2-1.3-1.7-3.3-1.5c-1.6,0.2-3.3,0.8-4.7,1.8c-0.5,0.4-0.7,0.6-1.1,1.1l-3.6,0.2c0-0.2,0-0.2,0-0.4c0-1.1,0.1-4.6,0.3-7.7
		c0-0.5,0-0.8,0-1.4L401.1,98.4z M400.3,93.7c1.1,0.4,2.5,0.8,4.6,1.1c1.5,0.3,3.4,0.5,4.5,0.5l-0.8,3.6c-4-0.4-7.1-1-9.7-2
		L400.3,93.7z"/>
	<path class="st2" d="M420.6,105.4c-1.1,0.1-1.7,0.2-2.3,0.3c0-0.7,0-1.4-0.1-2.4l-0.8-8.3c-0.1-1.1-0.2-1.9-0.3-2.5
		c0.6,0,1.2,0,2.3-0.1l11.1-1.1c1.1-0.1,1.7-0.2,2.3-0.3c0,0.6,0,1.4,0.1,2.5l0.8,8.3c0.1,1.1,0.2,1.8,0.3,2.4c-0.6,0-1.3,0-2.3,0.1
		l-1.8,0.2l0.3,3.1c0,0.5,0.3,0.6,1.5,0.5c1.3-0.1,1.7-0.3,1.9-0.6c0.1-0.3,0.1-1.4,0-2.7c1.2,0.5,1.9,0.7,3.2,0.9
		c0.1,2.7-0.1,3.7-0.8,4.4c-0.6,0.6-1.5,0.8-4.2,1.1c-4,0.4-4.6,0.2-4.8-1.8l-0.4-4.5l-1.3,0.1c-0.1,1.2-0.2,1.6-0.5,2.5
		c-1,2.4-3,4.1-6.4,5.4c-0.7-1.2-1.1-1.9-2.1-2.8c3.7-1,5.2-2.3,5.5-4.7L420.6,105.4z M420.7,96l8.9-0.8l-0.1-0.9l-8.9,0.8L420.7,96
		z M421,99.3l8.9-0.8l-0.1-0.9l-8.9,0.8L421,99.3z M421.4,102.6l8.9-0.8l-0.1-0.9l-8.9,0.8L421.4,102.6z"/>
	<path class="st2" d="M446.3,90.5c0-0.7,0-1.1,0-1.5l3.6-0.1c-0.1,0.3-0.1,0.4-0.1,1.3l3.9-0.4c1.5-0.1,2.2-0.2,3.1-0.4l0.3,3.2
		c-0.7,0-1.5,0-3.1,0.2l-4.5,0.4c-0.1,0.3-0.1,0.4-0.1,0.7l3.4-0.3c1.6-0.1,2-0.2,2.7-0.3c0,0.6,0,1.2,0.2,2.6l0.6,6.3
		c0.1,1.4,0.2,1.9,0.3,2.5c-0.7,0-1.1,0.1-2.7,0.2l-7.4,0.7c-1.5,0.1-2,0.2-2.6,0.3c0-0.6-0.1-1.3-0.2-2.5L443,97
		c-0.1-1.5-0.2-1.9-0.3-2.6c0.8,0,1.2,0,2.7-0.2l0.5,0c0.1-0.3,0.1-0.4,0.1-0.7l-5.6,0.5c-1.1,0.1-2.1,0.2-2.9,0.4l-0.3-3.2
		c0.7,0,1.7,0,2.9-0.1L446.3,90.5z M455.6,105.3c1.2-0.1,1.8-0.2,2.5-0.4l0.3,3.2c-0.8,0-1.6,0-2.9,0.1l-12.8,1.2l0.1,0.7l-3.5,0.3
		c0-0.8,0-1.9-0.2-3.4l-0.8-8.9c-0.1-1.3-0.2-2.1-0.4-2.6l3.6-0.3c0,0.6,0,1.4,0.1,2.4l0.8,8.8L455.6,105.3z M446.2,97.3l6.1-0.6
		l-0.1-0.7l-6.1,0.6L446.2,97.3z M446.5,100.1l6.1-0.6l-0.1-0.7l-6.1,0.6L446.5,100.1z M446.7,103.1l6.1-0.6l-0.1-0.8l-6.1,0.6
		L446.7,103.1z"/>
	<path class="st2" d="M465.8,88.2c-0.1,0.9,0,1.9,0.2,4c2.2-0.3,3.1-0.4,5.5-0.8c0-0.1,0-0.2,0-0.2c-0.1-1.3-0.4-3-0.5-3.7l3.8-0.4
		c0,0.5,0,1.1,0.1,2.1l0.1,1.4c0,0,0,0.2,0,0.4c3.2-0.4,3.2-0.4,3.9-0.6l0.4,3.7c-0.7,0-1.1,0-1.8,0.1c-0.3,0-0.4,0-2.1,0.2
		c0.3,3.3,0.2,4.5-0.6,5.6c-0.5,0.6-1.3,1-2.6,1.1c-0.9,0.1-2.1,0-3.4-0.4c0-0.2,0-0.4-0.1-0.5c-0.1-1.1-0.2-1.9-0.5-3
		c1.1,0.4,2.3,0.6,3,0.6c0.7-0.1,0.8-0.5,0.6-3c-2,0.3-3.9,0.5-5.6,0.8c0.5,4.8,0.6,5.8,0.8,6.4c0.4,1.1,1.3,1.3,4.1,1.1
		c2.7-0.3,5.2-0.9,6.8-1.6l0.6,4c-0.9,0.2-0.9,0.2-2.1,0.4c-2,0.4-3.4,0.6-5.1,0.8c-2.1,0.2-3.7,0.2-4.7-0.1
		c-1.7-0.5-2.6-1.4-3.1-3.4c-0.2-0.8-0.4-2.6-0.7-5.7c0-0.3-0.1-0.8-0.1-1.3c-1.9,0.3-2.6,0.4-3.7,0.7l-0.6-3.6c0.4,0,0.5,0,0.7,0
		c0.3,0,1.4-0.2,3.2-0.4c0-0.3,0-0.5-0.1-0.7c-0.2-1.9-0.3-2.5-0.5-3.4L465.8,88.2z"/>
	<path class="st2" d="M482.6,86.9c0.9,0,1.7,0,3.2-0.1c1.9-0.2,4.4-0.5,6.6-0.9c1-0.2,1.2-0.2,1.6-0.5l2,2.5
		c-0.5,0.4-0.5,0.4-3.3,3.2c-1.1,1.1-1.4,1.5-2.8,2.7c1.2-0.4,1.8-0.6,3-0.7c2.1-0.2,3.6,0.1,4.8,1c1.1,0.8,1.8,2.1,2,3.6
		c0.2,2.2-0.7,4.1-2.5,5.4c-1.4,1-3.5,1.7-5.7,1.9c-3.7,0.4-6.1-0.9-6.3-3.3c-0.2-2,1.5-3.7,4-3.9c1.6-0.1,3,0.3,4.1,1.3
		c0.5,0.4,0.8,0.9,1.2,1.6c1.1-0.6,1.6-1.4,1.5-2.6c-0.1-1.5-1.7-2.3-4.2-2.1c-2.3,0.2-4.7,1.2-6.5,2.7c-0.6,0.5-1.3,1.1-1.9,1.8
		l-2.4-3.1c1.9-1.1,6.2-5.2,8.7-8.1c-1.1,0.2-2,0.4-5.1,0.8c-0.6,0.1-1,0.2-1.4,0.2L482.6,86.9z M489.3,100.7
		c-0.5,0-0.8,0.4-0.8,0.8c0.1,0.6,0.8,0.9,2,0.8c0.3,0,0.3,0,0.7-0.1C490.9,101.1,490.2,100.6,489.3,100.7z"/>
	<path class="st2" d="M367.6,128.6c0.1,0,0.2,0,0.2,0c0.7-0.1,2.8-0.4,4.2-0.8c0.1-2.3,0.2-3.6,0.1-4.4c0-0.1,0-0.2,0-0.4l4,0
		c-0.1,0.5-0.1,0.5-0.2,1.8c-0.1,1-0.2,1.9-0.2,2.4c0.4-0.1,0.6-0.1,0.9-0.1c1.4-0.1,2.4,0.1,3.2,0.6c1.2,0.8,1.8,2.1,2,4.6
		c0.3,3.4,0.1,6.3-0.6,7.9c-0.3,0.6-0.8,1.1-1.3,1.4c-0.4,0.2-1,0.4-1.7,0.5c-1,0.1-2,0-3.5-0.3c0-0.6,0-0.9-0.1-1.3
		c-0.1-1-0.2-1.5-0.6-2.6c1.3,0.4,2.4,0.6,3.1,0.5c0.5,0,0.7-0.4,0.9-1.1c0.2-1,0.3-3.3,0.1-4.9c-0.1-0.9-0.3-1.5-0.6-1.7
		c-0.3-0.3-0.6-0.3-1.3-0.2c-0.2,0-0.4,0-0.9,0.1c-0.2,1.9-0.5,3.5-1,5.6c-0.5,2.1-0.8,3-1.8,5.9c-0.1,0.4-0.2,0.5-0.3,0.8l-3.8-1.6
		c1.2-2,2.6-6.5,3.2-10.1c-1.5,0.3-2.6,0.7-3.4,0.9L367.6,128.6z M383.7,124.7c2.4,2.5,4.1,5.3,5.4,8.9l-3.4,2c-1.1-3.9-2.8-7-5-9.2
		L383.7,124.7z"/>
	<path class="st2" d="M395.4,125.5c-0.2,1.2-0.4,3.3-0.4,5.4c1.7-1.4,3.6-2.1,6.1-2.3c3.9-0.4,6.7,1.4,7,4.5c0.2,1.9-0.6,3.7-2,4.9
		c-1.5,1.2-3.4,1.9-6.1,2.2c-1.8,0.2-3.4,0.1-5.6-0.1c-0.2-1.8-0.4-2.5-0.9-3.8c2.2,0.5,4.3,0.6,5.9,0.5c2.9-0.3,4.7-1.5,4.6-3
		c-0.1-1.2-1.3-1.7-3.3-1.5c-1.6,0.2-3.3,0.8-4.7,1.8c-0.5,0.4-0.7,0.6-1.1,1.1l-3.6,0.2c0-0.2,0-0.2,0-0.4c0-1.1,0.1-4.6,0.3-7.7
		c0-0.5,0-0.8,0-1.4L395.4,125.5z M394.6,120.7c1.1,0.4,2.5,0.8,4.6,1.1c1.5,0.3,3.4,0.5,4.5,0.5l-0.8,3.6c-4-0.4-7.1-1-9.7-2
		L394.6,120.7z"/>
	<path class="st2" d="M417.4,122c-0.9,0.1-1.4,0.2-2.2,0.3l-0.2-2.1c-0.1,0.4-0.1,0.4-0.2,0.7c-0.1,0.8-0.4,1.7-0.7,2.7l1.3,13.2
		c0.1,1,0.2,1.6,0.4,2.5l-3.5,0.3c0-0.8,0-1.7-0.1-2.9l-0.5-5.3c-0.1-1.3-0.1-1.4-0.2-2.3c-0.3,0.6-0.6,1.1-1,1.6
		c-0.5-1.7-0.8-2.5-1.5-3.9c1.1-1.4,1.9-3.1,2.4-5.4c0.3-1.2,0.4-1.9,0.5-2.9l3.1,0.8l0-0.3c0.8,0,1.8,0,2.8-0.1l8.7-0.8
		c1-0.1,2-0.2,2.8-0.4l0.3,3.2c-0.8,0-1.4,0-2.3,0.1l-3.6,0.3l0.1,0.9l3.2-0.3c1-0.1,1.5-0.2,2-0.3c0,0.6,0,0.9,0.1,2.4l0.4,4.7
		c0.1,1.2,0.2,1.7,0.3,2.3c-0.6,0-0.9,0-1.8,0.1l-3.8,0.4c-0.1,1-0.2,1.7-0.6,2.6c1.8,0.3,3.5,0.4,6.1,0.1c0.3,0,0.6-0.1,1.3-0.2
		c-0.4,1.4-0.5,2.1-0.6,3.6c-4.2,0.1-6.5-0.1-8.8-0.9c-1.3,1.1-2.5,1.7-4.7,2.5c-0.5-1.3-0.8-1.8-1.6-3c1.3-0.3,2.1-0.6,3.2-1.1
		c-0.2-0.1-0.8-0.6-1.9-1.4l2-1.7l-0.9,0.1c-0.6,0.1-1,0.1-1.5,0.2c0-0.7,0-1.2-0.1-2.3l-0.4-4.7c-0.1-1.2-0.2-1.6-0.3-2.3
		c0.7,0,1.1,0,2.1-0.1l3.1-0.3l-0.1-0.9L417.4,122z M418.8,125.2l0.1,1l1.9-0.2l-0.1-1L418.8,125.2z M419,132c0.6,0.5,1,0.8,1.8,1.1
		c0.2-0.5,0.3-0.7,0.4-1.3L419,132z M419.1,128.5l0.1,1.1l1.8-0.2c0-0.6,0-0.6-0.1-1.1L419.1,128.5z M423.9,124.7
		c0.1,0.7,0.1,0.7,0.1,1l1.9-0.2l-0.1-1L423.9,124.7z M424.2,129l2-0.2l-0.1-1.1l-1.9,0.2L424.2,129z"/>
	<path class="st2" d="M435.1,121.2c-1.1,0.3-1.5,0.4-2.6,0.6c-0.4-1.2-0.7-1.9-1.3-2.9c2.1-0.4,3.7-0.8,5.7-1.5
		c1.4-0.5,2-0.8,2.6-1.2l2.2,2.7c-0.1,0.1-0.1,0.1-0.5,0.2c-0.8,0.4-1.9,0.8-2.8,1.1l0.2,2.2l1.4-0.1c0.8-0.1,1.3-0.1,1.8-0.3
		l0.3,3.2c-0.6,0-1.1,0-1.9,0.1l-1.2,0.1c1.3,1.5,2.1,2.2,3.6,3.1c-0.5,1.1-0.9,2-1.2,3.2c-1-0.8-1.5-1.3-2.2-2.3
		c0.1,0.5,0.2,1.1,0.2,1.8l0.3,3c0.1,1.4,0.2,2,0.4,2.9l-3.6,0.3c0-0.9,0-1.6-0.1-2.9l-0.2-2.6c-0.1-1.1-0.1-1.1-0.1-1.7
		c-0.5,1.8-1.1,2.9-2.2,4.3c-0.7-1.5-1.1-2.1-1.9-3.2c0.8-0.8,1.2-1.5,1.8-2.6c0.6-1.1,0.9-1.9,1.1-2.8l-1,0.1
		c-0.8,0.1-1.4,0.1-1.9,0.3l-0.3-3.2c0.6,0,1.1,0,2-0.1l1.6-0.2L435.1,121.2z M445.5,117.4c0,0.8,0,1.5,0.2,2.8l0.8,8.1
		c0.1,1.3,0.2,1.9,0.4,2.7l-3.5,0.3c0-0.7,0-1.1-0.1-2.6l-0.8-8.2c-0.1-1.3-0.2-2-0.4-2.8L445.5,117.4z M450.5,115.5
		c0,1,0,1.9,0.2,3.2l1.3,13.8c0.1,1.4-0.1,2.3-0.9,2.8c-0.6,0.4-1.8,0.7-3.7,0.8c-0.4,0-0.7,0-1.5,0.1c-0.4-1.3-0.7-2.1-1.4-3.3
		c1.4,0,2.1,0,3-0.1c1-0.1,1.1-0.2,1.1-0.8l-1.2-13c-0.1-1-0.2-2.1-0.4-3.2L450.5,115.5z"/>
	<path class="st2" d="M453.2,119c0.3,0,0.4,0,0.7,0c0.5,0,1.7-0.2,1.9-0.2c0.7-0.1,0.7-0.1,0.9-0.1c-0.1-1.2-0.1-1.7-0.2-2.5
		c0-0.2,0-0.2-0.2-1.1l3.8-0.3c-0.1,0.8-0.1,1.2,0,3.2l1.3,1c-0.3,0.2-0.8,0.9-1.2,1.5c0,0.4,0,0.7,0,0.7c0.5-0.6,0.7-0.8,1.8-1.7
		c1.8-1.5,3.2-2.2,4.9-2.4c3.4-0.3,5.4,2.1,5.9,7c0.1,1.2,0.1,2.2,0.1,3.3c0.1,0,0.7,0.4,2,1.1l-1,3.9c-0.7-0.6-0.8-0.7-1.9-1.5
		c-0.3,0.6-0.5,0.9-1,1.3c-0.8,0.7-2.1,1.2-3.4,1.3c-2.9,0.3-4.9-1.1-5.2-3.4c-0.2-2.3,1.5-4.1,4.3-4.3c0.9-0.1,1.5,0,2.5,0.2
		c0-0.6,0-1,0-1.6c-0.1-0.9-0.3-1.8-0.5-2.4c-0.3-0.9-1.1-1.3-2-1.2c-1.5,0.1-3.7,1.8-6.1,4.5l0.6,6.1c0.2,1.9,0.2,2,0.4,3l-3.9,0.4
		c0.1-0.6,0-1.2-0.1-2.3c-0.2-2.2-0.2-2.2-0.2-2.7c0-0.6,0-0.7-0.1-0.8c0,0,0-0.2,0-0.3l-0.1,0.2c-0.1,0.1-0.1,0.1-0.3,0.4
		c-0.1,0.1-0.2,0.4-0.5,0.8c-0.4,0.5-0.9,1.3-1.1,1.7l-2.1-3.5c0.5-0.3,1-0.9,2.2-2.3c0.6-0.7,0.9-1.1,1.4-1.6
		c-0.1-0.6-0.1-0.9-0.2-2.5c-1.6,0.2-2.3,0.4-3.2,0.6L453.2,119z M467.1,129c-0.7,0.1-1.2,0.5-1.1,0.9c0,0.5,0.6,0.8,1.4,0.7
		c0.6-0.1,1.1-0.3,1.4-0.7c0.1-0.1,0.3-0.5,0.3-0.6l0,0C468.2,129,467.7,128.9,467.1,129z"/>
	<path class="st2" d="M480.6,126.3c0-0.4,0-0.6,0-1c0-0.4,0-0.4-0.3-1.7l-1.1-6.9c-0.1-0.9-0.3-1.9-0.5-2.9l5.1-0.5c0,0.5,0,2.1,0,3
		l0.2,7c0,0.9,0.1,1.4,0.1,1.7c0,0.2,0,0.5,0.1,1L480.6,126.3z M480.7,131.9l-0.4-4.1l4.4-0.4l0.4,4.1L480.7,131.9z"/>
</g>
<path class="st5" d="M335.6,109.8c-5.1,9.2,12.1,38.5,37.4,46.9c25.3,8.4,34.4,3.9,46.7,9.3c17.7,7.8-9.6-0.9,13.4-14.6
	c35.2-21.1,70-0.1,80.2-34.8"/>
<g>
	<path d="M516.9,252.4c0.2,0.4,0.5,0.8,0.7,1.3c3.1,5.8,2.9,11-0.7,14.9c-3.7,4-10.7,5.4-16.1,2.6c-2.2-1.1-3.8-0.7-6,0
		c-8.2,2.5-16.5,4.5-25.2,6.8c0.1,1.5,0.7,2.8,3.5,4.2c3.9,1.9,7.7,4.9,10.2,8.4c4.8,6.6,9.3,13.6,12.8,21c4.5,9.6,1,16.9-8.8,21.1
		c-0.6,0.3-1.3,0.6-1.8,0.8c-0.1,0.3-0.2,0.5-0.2,0.6c1.5,7.2,1.3,7.7-6.4,7.6c-13.4-0.1-26.9-0.2-40.3-0.8c-7.3-0.3-7.9-1.4-7-8.5
		c0.6-4.8,1.6-9.5,2.4-14c-4.4,1-8.8,2.5-13.3,3c-9,1-14.3-4.3-12.4-13.1c1.7-8.2,4.7-16.2,7.5-24.2c1.1-3,1-5.8,1-8.8
		c0-5.6-1.2-10-5.1-14.5c-6-7-4.2-18.3,2.7-27.2c1.5-1.9,2.6-4.2,3.9-6.3c-6.3-4-6.7-11.6-0.3-14.7c-4.8-6.1-5.5-12.9-3.1-20.2
		c2.8-8.1,7.7-14.5,15.6-17.8c3.8-1.6,8.5-1.1,12.7-1.7c1.4-0.2,3.1-0.4,3.9-1.3c9.7-10.3,20-11.2,31.3-2.6c1.1,0.9,3.1,1.3,4.5,1
		c12.8-2.3,23.8,0.9,32.9,10.3c5.5,5.7,9.8,12.1,12.1,19.6c3.1,9.7,3.9,19-6.4,25.4c5.6,5.1,6.1,8.9,2.1,15.2
		c-0.5,0.7-0.8,1.5-1.2,2.2c-1.5,3.3-3,6.6-4.5,9.9C517.6,252.4,517.3,252.4,516.9,252.4z M439.8,262.9c0,0-0.1-0.1-0.1-0.1
		c-0.4,3.3-0.7,6.6-1.1,10.3c6.7,1.2,13.4,2.4,20.3,3.6c-0.4,2.2-0.8,4-1.1,6c3.4,0,6.4,0,9.6,0c-0.6-2.4-1-4.4-1.6-6.8
		c2.1-0.3,3.8-0.5,5.6-0.7c8.6-0.8,17.1-2.2,24.6-6.8c5.1-3.1,8.5-7.4,8-13.7c-0.2-3.2,0.6-3.8,3.6-3.1c5.3,1.2,9.1-0.7,10.7-5.6
		c0.7-2.1,0.5-5.1-0.5-7c-1.4-2.6-4.2-1.3-6.5-0.6c-2,0.6-4.5,1.5-6.3,0.8c-6.7-2.6-11-7.6-11.5-15c-0.2-3.4,0.3-6.9,0.4-10.5
		c-7-1.1-13.4-3.1-13.6-12.2c-6.2,1.4-12.2,2.4-17.9-0.7c-5.9-3.2-9-8.2-8.3-15.2c-0.9,0.1-1.4,0.1-1.8,0.3c-1.4,0.5-2.7,1-4,1.7
		c-13.7,6.8-21.8,18.2-25.9,32.6c-1.9,6.8-3.9,13.4-8.2,19.2c-1.4,1.9-2.1,4.4-2.6,6.7c-0.9,4.6-0.3,9.1,2.4,13.3
		c2.2,3.4,5,4.9,9,4.5C427.7,256.6,436.8,255.9,439.8,262.9z M480.7,315.5c-5.1,3-10.5,0.5-14.8-0.3c-3.7,3.3-6.9,6.1-10.2,9
		c5.8,5.5,12.7,9.5,21.3,9.3c15.6-0.4,22.2-11.2,14.9-24.8c-3.3-6.2-7.7-11.7-11.7-17.5c-0.7-1-1.7-1.7-2.9-2.7
		C477.2,298,476.1,307,480.7,315.5z M429.9,284.5c-3.5-0.9-6.7-1.8-10.3-2.7c-0.9,2.1-2.1,4.2-2.7,6.5c-2,7-4.5,13.9-5.5,21
		c-1.1,7.7,4.9,12.4,12.4,10.5c3.5-0.9,6.7-2.6,10.1-4.1c0.6-0.3,1.3-0.8,1.4-1.4c1.1-3.9,2-7.9,3-11.9c0.4-1.4,0.8-2.7,1.4-4
		c0.8-1.9,1.7-3.8,2.5-5.7c-0.2-0.1-0.4-0.2-0.6-0.2c-3.7,2.7-7.4,5.4-11.2,8.1c0.2,1.2,0.4,2.6,0.6,4c-0.3,0.3-0.6,0.5-0.8,0.8
		c-0.9-0.7-2.2-1.3-2.5-2.2c-0.5-1.6-0.5-3.4-0.3-5C428.1,293.7,429,289.2,429.9,284.5z M481.1,334.7c-11,1.6-20-2.1-28.2-9.1
		c-4.1-3.5-9.1-6.1-14.5-9.7c-1.2,6.6-2.4,11.9-3,17.3c-0.6,5,0.4,5.8,5.6,6.1c7.4,0.4,14.8,1.1,22.1,1.2c6.5,0.1,12.9-0.5,19.9-0.9
		C482.2,337.4,481.7,336.1,481.1,334.7z M441.6,312.6c-0.3,0.3-0.5,0.6-0.8,1c1.7,1.5,3.3,3.2,5.1,4.5c1.3,1,3.3,1.2,4.6,2.2
		c3,2.3,5.7,1.4,8.2-0.7c2.5-2.2,4-4.9,2.4-8.4c-1.1-2.3-1.9-4.7-3-7c-2.3-4.4-6.3-6.2-11.1-6.3c-4.4-0.1-6.4,2.4-4.8,6.5
		c1,2.6,2.7,5,4.2,7.9C444.6,312.4,443.1,312.5,441.6,312.6z M419.8,266.2c-0.2,2-0.4,3-0.3,4.1c0.1,1.9,0.2,3.9,0.5,5.8
		c0.5,3.3,6.8,7.4,9.9,6.6c0.4-0.1,1-0.4,1.1-0.8c1.9-5.8,3.9-11.6,5.3-17.5c0.3-1.2-1.5-3.9-2.8-4.3c-1.5-0.5-3.9,0.4-5.3,1.5
		c-1.4,1.1-2.3,3.1-3.2,4.8C423.6,268.9,422.1,269.4,419.8,266.2z M429.6,297.6c0.5,0.3,1,0.6,1.5,1c4.3-3.8,8.9-7.3,12.8-11.5
		c2.2-2.4,4.5-4.2,7.5-4.5c3.4-0.2,4.3-1.9,4.1-5.1c-6-0.9-12.1-1.8-18.9-2.9C434.3,282.3,432,290,429.6,297.6z M460,301.4
		c2.8,7.3,5.2,14.6,15,13.4c0-0.3,0.1-0.7,0-1c-1.9-8.5-3-16.9-0.5-25.5c0.3-1.2-1.3-2.9-2.1-4.4c-0.5,0.1-1,0.2-1.5,0.3
		c-1.3,4.1-3,8.2-3.9,12.4c-0.6,2.7-1.9,3.7-4.2,4.2C461.9,301,461,301.2,460,301.4z M454.5,284.5c-1.1,4-2.2,8-3.3,12
		c2.1,1,3.9,1.8,5.6,2.6c0.1,0.1,0.2,0.1,0.3,0.1c2.9,1,5.2,0,6-2.8c1.1-4,2.1-7.9,3.1-11.9C462.5,284.5,458.7,284.5,454.5,284.5z
		 M445.2,295.8c0.5,0.3,1.1,0.5,1.6,0.8c1.4-3.5,2.3-7.2,3.1-10.8c-0.4-0.1-0.9-0.3-1.3-0.4C447.5,288.8,446.3,292.3,445.2,295.8z"
		/>
	<path class="st0" d="M439.8,262.9c-3.1-7-12.1-6.3-16.8,0.9c-4,0.4-6.9-1.1-9-4.5c-2.6-4.2-3.3-8.6-2.4-13.3
		c0.5-2.3,1.2-4.9,2.6-6.7c4.3-5.8,6.3-12.4,8.2-19.2c4.1-14.3,12.3-25.7,25.9-32.6c1.3-0.6,2.7-1.2,4-1.7c0.4-0.2,0.9-0.1,1.8-0.3
		c-0.6,7,2.4,12,8.3,15.2c5.7,3.1,11.7,2.1,17.9,0.7c0.2,9.1,6.6,11.1,13.6,12.2c-0.2,3.6-0.7,7.1-0.4,10.5
		c0.5,7.4,4.8,12.3,11.5,15c1.7,0.7,4.2-0.2,6.3-0.8c2.4-0.7,5.2-1.9,6.5,0.6c1,1.9,1.2,4.9,0.5,7c-1.6,4.9-5.4,6.8-10.7,5.6
		c-3-0.7-3.9-0.1-3.6,3.1c0.5,6.3-2.9,10.6-8,13.7c-7.6,4.6-16,6-24.6,6.8c-1.8,0.2-3.5,0.4-5.6,0.7c0.5,2.4,1,4.3,1.6,6.8
		c-3.2,0-6.3,0-9.6,0c0.4-2,0.7-3.8,1.1-6c-6.9-1.2-13.6-2.4-20.3-3.6c0.4-3.7,0.8-7,1.1-10.3c2,1.2,3.9,3.1,6,3.4
		c5.1,0.7,9.7-1.4,11.6-6.3c2.1-5.6,3.4-11.6,4.5-17.5c0.8-4.5,0.5-4.5-4.1-3.7c-5.6,0.9-11.3,2.3-16.3-2.1
		c-0.5-0.4-1.7,0.1-2.6,0.2c6.7,3.7,3.5,9.1,2.9,13.9C441.2,254.9,440.5,258.9,439.8,262.9z M458.6,222.1c6.8,5.3,12.4,7.4,15.3,5.5
		c-3.2-1.7-6.3-3.4-9.7-5.2c3.4-1.1,6.4-2.1,9.4-3c-0.1-0.3-0.2-0.6-0.3-0.9C468.2,218.1,463.8,220.9,458.6,222.1z M446.2,232.4
		c0.1-0.4,0.3-0.7,0.4-1.1c-0.9-1.7-1.7-3.4-2.7-5.4c7.2-0.4,8.1-1.3,7.6-7.4c-1.3,1.1-2.6,1.7-2.8,2.5c-0.3,2.6-1.4,3.5-4,3.2
		c-1.2-0.1-3.6,1.1-3.6,1.4c0.3,1.8,0.9,3.7,1.9,5.2C443.6,231.7,445.2,231.9,446.2,232.4z M430.4,225.1c5.4,1,8.9-2.4,13.3-4.6
		c-5.9-3.8-7.8-4.3-11.1-2.7c1.8,1,3.4,1.8,5.5,2.9C435.2,222.3,432.8,223.7,430.4,225.1z M469.6,212.6c-5.7,1-7.5-1.5-6.6-7
		c-1.4,0.7-2.8,1.3-2.8,2c0,1.8-0.1,4.4,1,5.3C463.5,214.8,466.6,214.4,469.6,212.6z M441.5,209c0,0.3-0.1,0.7-0.1,1
		c1.7,0.2,3.3,0.4,5,0.6c2,0.2,3.5-0.4,3.1-2.7c-0.2-1.2-0.9-3.3-1.4-3.4c-2.9-0.1-1.3,2.3-1.8,3.7c-0.1,0.2-0.3,0.4-0.4,0.6
		C444.4,208.8,442.9,208.9,441.5,209z M463.8,242.1c0.5,0.1,0.9,0.3,1.4,0.4c0.3-1.7,1.4-3.9,0.8-4.9c-0.8-1.3-3.1-1.5-4.8-2.2
		c-0.4,0.4-0.7,0.8-1.1,1.2C465.5,236.2,465,238.9,463.8,242.1z"/>
	<path class="st0" d="M480.7,315.5c-4.6-8.5-3.5-17.4-3.3-27c1.1,1,2.2,1.7,2.9,2.7c4,5.8,8.4,11.3,11.7,17.5
		c7.3,13.6,0.6,24.5-14.9,24.8c-8.7,0.2-15.5-3.8-21.3-9.3c3.2-2.9,6.4-5.7,10.2-9C470.2,315.9,475.6,318.5,480.7,315.5z"/>
	<path class="st0" d="M429.9,284.5c-0.9,4.7-1.8,9.2-2.5,13.7c-0.2,1.6-0.2,3.5,0.3,5c0.3,0.9,1.6,1.5,2.5,2.2
		c0.3-0.3,0.6-0.5,0.8-0.8c-0.2-1.4-0.4-2.8-0.6-4c3.8-2.8,7.5-5.5,11.2-8.1c0.2,0.1,0.4,0.2,0.6,0.2c-0.8,1.9-1.7,3.7-2.5,5.7
		c-0.5,1.3-1,2.7-1.4,4c-1,4-1.9,8-3,11.9c-0.2,0.6-0.8,1.2-1.4,1.4c-3.3,1.4-6.6,3.2-10.1,4.1c-7.6,1.9-13.5-2.8-12.4-10.5
		c1-7.1,3.5-14,5.5-21c0.7-2.3,1.8-4.4,2.7-6.5C423.2,282.7,426.4,283.6,429.9,284.5z"/>
	<path class="st0" d="M481.1,334.7c0.6,1.4,1.1,2.7,2,5c-7,0.3-13.5,0.9-19.9,0.9c-7.4-0.1-14.8-0.8-22.1-1.2
		c-5.2-0.3-6.2-1.1-5.6-6.1c0.6-5.4,1.8-10.7,3-17.3c5.4,3.6,10.4,6.1,14.5,9.7C461.1,332.6,470.1,336.3,481.1,334.7z"/>
	<path class="st0" d="M441.6,312.6c1.5-0.1,3-0.1,4.7-0.2c-1.6-2.9-3.2-5.3-4.2-7.9c-1.6-4.1,0.4-6.6,4.8-6.5
		c4.8,0.1,8.8,1.9,11.1,6.3c1.2,2.2,2,4.7,3,7c1.6,3.5,0.2,6.2-2.4,8.4c-2.4,2.1-5.1,3-8.2,0.7c-1.3-1-3.2-1.2-4.6-2.2
		c-1.8-1.3-3.4-3-5.1-4.5C441.1,313.2,441.3,312.9,441.6,312.6z"/>
	<path class="st0" d="M419.8,266.2c2.3,3.2,3.8,2.7,5.1,0.1c0.9-1.7,1.7-3.7,3.2-4.8c1.4-1.1,3.8-2,5.3-1.5c1.3,0.4,3.1,3.1,2.8,4.3
		c-1.4,5.9-3.4,11.7-5.3,17.5c-0.1,0.4-0.7,0.7-1.1,0.8c-3.1,0.9-9.5-3.3-9.9-6.6c-0.3-1.9-0.4-3.8-0.5-5.8
		C419.4,269.2,419.6,268.2,419.8,266.2z"/>
	<path class="st0" d="M429.6,297.6c2.3-7.7,4.7-15.3,7-22.9c6.8,1,12.9,1.9,18.9,2.9c0.2,3.2-0.7,4.8-4.1,5.1
		c-3.1,0.2-5.3,2-7.5,4.5c-3.8,4.2-8.5,7.7-12.8,11.5C430.6,298.3,430.1,298,429.6,297.6z"/>
	<path class="st0" d="M460,301.4c1-0.2,1.9-0.4,2.8-0.6c2.3-0.5,3.6-1.5,4.2-4.2c0.9-4.2,2.5-8.3,3.9-12.4c0.5-0.1,1-0.2,1.5-0.3
		c0.7,1.5,2.4,3.2,2.1,4.4c-2.5,8.6-1.4,17,0.5,25.5c0.1,0.3,0,0.7,0,1C465.2,316.1,462.8,308.8,460,301.4z"/>
	<path class="st0" d="M454.5,284.5c4.2,0,8.1,0,11.8,0c-1.1,4-2.1,8-3.1,11.9c-0.7,2.8-3.1,3.9-6,2.8c-0.1,0-0.2-0.1-0.3-0.1
		c-1.7-0.8-3.5-1.6-5.6-2.6C452.3,292.5,453.4,288.5,454.5,284.5z"/>
	<path class="st0" d="M445.2,295.8c1.2-3.5,2.3-7,3.5-10.5c0.4,0.1,0.9,0.3,1.3,0.4c-0.9,3.7-1.8,7.3-3.1,10.8
		C446.3,296.3,445.7,296,445.2,295.8z"/>
	<path d="M439.8,262.9c0.6-4,1.3-8.1,1.8-12.1c0.6-4.8,3.8-10.2-2.9-13.9c0.9-0.1,2.1-0.6,2.6-0.2c5,4.4,10.7,3,16.3,2.1
		c4.6-0.8,4.9-0.8,4.1,3.7c-1.1,5.9-2.4,11.9-4.5,17.5c-1.8,4.9-6.4,7-11.6,6.3c-2.1-0.3-4-2.2-6-3.4
		C439.7,262.8,439.8,262.9,439.8,262.9z M446.6,242c-1,5.7-2.2,11.1-2.8,16.6c-0.2,1.7,0.9,4.3,2.3,5.1c2.2,1.4,4.8,0.3,6.3-2
		c4.3-6.3,4.9-13.6,5.9-21C454.2,241.2,450.6,241.6,446.6,242z"/>
	<path d="M458.6,222.1c5.1-1.2,9.6-3.9,14.8-3.7c0.1,0.3,0.2,0.6,0.3,0.9c-3,1-6.1,2-9.4,3c3.4,1.9,6.5,3.5,9.7,5.2
		C471,229.4,465.4,227.4,458.6,222.1z"/>
	<path d="M446.2,232.4c-1.1-0.5-2.6-0.7-3.1-1.5c-1-1.5-1.6-3.4-1.9-5.2c0-0.3,2.4-1.6,3.6-1.4c2.7,0.3,3.7-0.6,4-3.2
		c0.1-0.8,1.5-1.4,2.8-2.5c0.5,6.1-0.5,7-7.6,7.4c1,1.9,1.9,3.6,2.7,5.4C446.5,231.7,446.4,232,446.2,232.4z"/>
	<path d="M430.4,225.1c2.4-1.4,4.8-2.8,7.6-4.4c-2-1.1-3.7-2-5.5-2.9c3.3-1.6,5.2-1.1,11.1,2.7C439.3,222.7,435.8,226.1,430.4,225.1
		z"/>
	<path d="M469.6,212.6c-3.1,1.9-6.1,2.2-8.4,0.3c-1.1-0.9-1-3.5-1-5.3c0-0.7,1.4-1.3,2.8-2C462.1,211.1,464,213.6,469.6,212.6z"/>
	<path d="M441.5,209c1.5-0.1,2.9-0.1,4.3-0.2c0.1-0.2,0.3-0.4,0.4-0.6c0.5-1.3-1.1-3.8,1.8-3.7c0.5,0,1.2,2.1,1.4,3.4
		c0.4,2.3-1.1,2.9-3.1,2.7c-1.7-0.2-3.3-0.4-5-0.6C441.4,209.7,441.4,209.3,441.5,209z"/>
	<path d="M463.8,242.1c1.2-3.2,1.6-6-3.7-5.4c0.4-0.4,0.7-0.8,1.1-1.2c1.7,0.7,4,1,4.8,2.2c0.7,1-0.5,3.2-0.8,4.9
		C464.7,242.4,464.3,242.3,463.8,242.1z"/>
	<path class="st0" d="M446.6,242c4-0.4,7.6-0.8,11.7-1.2c-1,7.4-1.7,14.7-5.9,21c-1.5,2.2-4.1,3.4-6.3,2c-1.3-0.8-2.4-3.4-2.3-5.1
		C444.4,253.2,445.6,247.7,446.6,242z"/>
</g>
<path d="M407.9,209.4c-2.2,1.3-5.2,2.5-7,4.7c-1.7,2.1-2,5.4-3.5,8.2c-1.6-6.3-3.3-12-10.7-12.2c2.6-1.7,5.8-2.9,7.7-5.2
	c1.7-2.1,1.9-5.3,2.8-8c0.4,0.1,0.7,0.2,1,0.3c1,2.8,1.4,6.1,3.2,8.3C403,207.6,406.1,208.4,407.9,209.4z M392.4,209.5
	c1.8,1.4,3.6,2.8,5.2,4.2c1.7-1.3,3.5-2.7,5.2-4c-1.8-1.4-3.7-2.8-5.4-4.2C395.8,206.8,394,208.2,392.4,209.5z"/>
<g>
	<path class="st7" d="M365.1,275.5c-0.5,0.1-1,0.2-1.5,0.4c-1.6,0.6-3,0.1-4.4-0.3c-0.1-0.1-0.2-0.2-0.4-0.4c-0.9-1-1.8-2.7-2.2-3.8
		c-0.2-0.6-0.5-1.1-0.7-1.7c-0.3-0.6-0.1-1.3-0.7-1.7c-0.1-0.1-0.1-0.1-0.1-0.3c-0.4-1.1-0.6-2.1-1.1-3c-0.5-0.9-0.7-1.8-1-2.7
		c-0.1-0.4-0.4-0.9-0.6-1.3c-0.1-0.4-0.1-0.9-0.6-1.2c-0.1-0.1-0.1-0.1-0.1-0.3c-0.4-1.1-0.6-2.3-1.2-3.3c-0.5-0.9-0.6-2-1.1-2.8
		c-0.6-1.1-0.8-2.1-1.1-3.3c-0.2-0.6-0.6-1-0.7-1.6c-0.1-0.5-0.1-1.1-0.6-1.5c-0.1-0.1-0.1-0.1-0.1-0.3c-0.6-1.8-1.1-3.5-1.7-5.2
		c-0.3-0.9-0.9-1.6-1-2.6c-0.1-0.9-0.3-1.8-0.7-2.6c-0.3-0.6-0.4-1.3-0.8-1.8c-0.4-0.6-0.4-1.3-0.8-1.8c-0.6-1-0.8-2.1-1.1-3.1
		c-0.1-0.6-0.5-1-0.7-1.4c-0.2-0.5-0.1-1.1-0.6-1.5c-0.1,0-0.1-0.1-0.1-0.3c-0.4-1.1-0.8-2.3-1.2-3.5c-0.2-0.5-0.4-1-0.6-1.4
		s-0.1-1-0.6-1.3c-0.4-0.4-0.1-1.1-0.7-1.4c-0.1-0.1-0.1-0.4-0.2-0.6c-0.3-0.9-0.3-1.9-1-2.7c-0.6-2.3-0.4-4.2,1.8-5.7
		c0.6-0.4,1.3-0.7,2-1.1c1.3-0.6,2.7-0.9,4-1.3c0.9-0.9,2.2-0.6,3-1.4c0.1-0.1,0.3-0.1,0.4-0.1c1.4-0.5,2.8-0.8,4.2-1.4
		c1.3-0.6,2.8-0.8,4-1.3c2.8-1.3,5.9-1.6,8.6-2.6c1.7-0.6,3.5-0.9,5.1-1.6c1-0.4,2.1-0.8,3.1-1.1c1.6-0.4,3.2,0.5,3.8,2.1
		c0.2,0.6,0.6,1.2,0.8,1.8c0.2,0.6,0.2,1.3,0.8,1.7c0.1,1.2,0.9,2.1,1.1,3.2c0.2,1.1,0.6,2.1,1.3,2.9c0.1,0.1,0.1,0.1,0.1,0.2
		c0.3,0.7,0.1,1.5,0.7,2.1c0.6,0.6,0.1,1.5,0.9,1.9c-0.6,0.8,0.4,1.1,0.5,1.7c0.1,0.6,0.1,1.3,0.5,1.8c0.9,1.3,0.9,2.9,1.4,4.3
		c0.1,0.4,0.4,0.9,0.6,1.3c0.2,0.4,0.1,1.1,0.6,1.3c0.1,0.1,0.1,0.2,0.1,0.4c0.6,2.5,1.8,4.8,2.3,7.3c0.1,0.4,0.1,0.9,0.6,1.2
		c0.3,0.2,0.1,0.9,0.6,1.2c0.4,0.4,0.6,1.1,0.9,1.6c0.6,2.1,1.5,4,2,6.2c0.4,1.7,1.3,3.3,1.6,5c0.6,0.9,0.7,1.8,1.1,2.8
		c0.1,0.4,0.4,0.6,0.5,0.9c0.1,0.3,0.2,0.6,0.4,1c0.5,0.8,0.8,1.6,1.1,2.5c0.4,1.4,0.7,2.8,1.1,4.2c0.3,0.8,0.3,1.6,0.3,2.4
		c0,0.4-0.3,0.8-0.5,1.1c-0.4,0.4-0.8,0.9-1.1,1.3c-0.6,0.9-1.7,1.2-2.6,1.7c-1.2,0.6-2.6,1.1-3.8,1.7c-1.1,0.5-2.4,0.7-3.5,1.2
		c-0.9,0.4-2,0.6-2.8,1.1s-1.8,0.6-2.7,1c-0.6,0.2-1.1,0.4-1.6,0.7c-0.5,0.2-1.1,0.1-1.5,0.6c0,0-0.1,0.1-0.1,0.1
		c-0.9,0.1-1.6,0.7-2.6,1c-0.6,0.1-1.1,0.1-1.6,0.6c-0.4,0.4-1.1,0.3-1.6,0.7c-0.6,0.5-1.5,0.6-2.2,0.9c-0.6,0.3-1.1,0.6-1.7,0.8
		C366.3,275.1,365.8,275.3,365.1,275.5z M356.9,208.8c0-0.1,0-0.1-0.1-0.2c-0.3,0.1-0.6,0.1-0.9,0.2c-0.6,0.3-1.1,0.1-1.8,0.1
		c-0.2,0-0.4-0.1-0.6-0.3c-0.1-0.1,0.1-0.4,0-0.5c-0.1-0.3-0.1-0.5-0.2-0.7c-0.2,0.1-0.5,0.1-0.6,0.2c-0.5,0.6-1.4,0.3-1.9,1
		c-0.1,0.1-0.4,0.1-0.6,0.2c-1.8,0.6-3.8,0.7-5.4,1.7c-0.5,0.3-1.2,0.3-1.8,0.5c-0.6,0.2-1.1,0.6-1.7,0.7c-0.7,0.2-1.3,0.6-1.8,1.1
		c-0.6,0.6-1,1.3-0.6,2.2c0.3,0.7,0.8,1.3,0.9,2.1c0.1,1.1,1.1,2.1,1.1,3.2c0,0.1,0,0.1,0.1,0.1c0.5,0.1,0.4,0.7,0.6,1.1
		c0.1,0.4,0.4,0.7,0.6,1.1c0.4,1.1,0.8,2.3,1.2,3.3c0,0.1,0,0.2,0.1,0.3c0.5,0.3,0.4,0.8,0.6,1.2s0.5,0.9,0.6,1.3
		c0.2,0.6,0.3,1.3,0.5,1.9c0.2,0.6,0.6,1.2,0.8,1.8c0.2,0.6,0.5,1.1,0.7,1.7c0.4,1,0.6,2.1,1.1,3c0.5,1.1,0.6,2.3,1.2,3.3
		c0.4,0.7,0.4,1.6,0.9,2.3c0.4,0.6,0.4,1.6,0.6,2.3s0.6,1.4,0.9,2.1c0.3,0.9,0.4,1.8,0.8,2.7c0.3,0.9,0.6,1.8,1,2.6
		c0.4,0.6,0.5,1.1,0.7,1.7c0.2,0.6,0.6,1.1,0.7,1.7c0.4,1.6,1.3,2.8,1.5,4.5c0.6,0.6,0.5,1.5,0.9,2.1c0.4,0.6,0.4,1.2,0.7,1.8
		c0.4,0.6,0.7,1.2,0.8,1.8c0.1,0.9,0.7,1.3,0.9,2.1c0,0.1,0.3,0.1,0.4,0.1c0.2,0,0.5-0.1,0.6-0.2c0.4-0.4,0.9-0.8,1.4-0.9
		c0.6-0.1,1.1-0.5,1.6-0.7c1-0.4,2-0.7,3-1.1c0.1,0,0.2-0.1,0.2-0.1c0.2-0.5,0.7-0.4,1.1-0.6c0.4-0.2,0.7-0.4,1.1-0.6
		c1.1-0.4,2.2-0.6,3.3-1.1c0.8-0.4,1.7-0.5,2.6-1c0.8-0.4,1.8-0.6,2.7-1c0.9-0.5,2.1-0.6,3-1.1c0.6-0.4,1.4-0.4,2.1-0.9
		c1.1-0.6,2.5-1.1,3.7-1.6c1.6-0.5,3.1-1.5,4.7-1.9c0.1,0,0.2,0,0.3-0.1c0.1-0.2,0.3-0.4,0.3-0.6c0-0.4-0.3-0.2-0.5-0.1
		c-1,0.1-1.8,0.7-2.7,1c-1.2,0.4-2.3,0.8-3.5,1.2c-0.1,0-0.1,0-0.1,0.1c-0.4,0.9-1.4,0.4-2.1,1c-0.6,0.5-1.3,0.6-2.1,0.9
		c-1.1,0.5-2.1,0.8-3.2,1.2c-0.1,0-0.2,0-0.3,0.1c-0.3,0.5-0.9,0.6-1.3,0.6c-0.6,0.1-0.9,0.5-1.4,0.7c-0.9,0.3-1.8,0.4-2.6,1
		c-1.8,0.3-3.5,1.3-5.2,1.7c-0.9,0.2-1.8,0.5-2.5,1c-0.5,0.4-1,0.4-1.5,0.6c-0.5,0.3-1,0.6-1.6,0.7c-1.2,0.2-1.2,0.3-1.6-0.8
		c-0.1-0.1-0.1-0.3-0.1-0.4c-0.8-0.9-1-2.1-1.6-3c-0.3-0.4-0.3-1.1-0.5-1.6c-0.2-0.5-0.5-0.9-0.6-1.5c-0.1-0.5-0.5-1-0.6-1.5
		c-0.7-1.9-1.3-3.8-1.8-5.8c-0.1-0.3-0.1-0.8-0.3-0.9c-0.5-0.4-0.4-0.9-0.6-1.2c-0.2-0.4-0.5-0.9-0.6-1.3c-0.4-1.2-0.6-2.5-1.2-3.6
		c-0.4-0.8-0.5-1.7-1-2.6s-0.4-2-1.1-2.8c-0.5-2.6-1.7-4.9-2.3-7.4c-0.1-0.2-0.1-0.5-0.2-0.7c-0.6-0.9-1.1-1.8-1.3-2.9
		c-0.2-0.6-0.6-1.1-0.9-1.8c-0.4-0.6-0.6-1.3-0.9-1.9c-0.3-0.6-0.4-1.3-0.8-2c-0.6-1.2-0.9-2.6-1.4-3.9c-0.2-0.6-0.1-1.4-0.8-1.8
		c-0.1-0.1-0.1-0.3-0.1-0.4c0.4-0.6-0.1-1.1-0.1-1.6c1.7-0.4,3.2-1.3,5-1.6c0.4-0.1,0.7-0.1,0.9-0.3c1.1-0.9,2.6-1,3.7-1.8
		c0.6,0.1,0.9-0.6,1.4-0.7c0.6-0.1,1.1-0.4,1.6-0.6c1.1-0.6,2.2-0.9,3.3-1.2c0.2-0.1,0.4-0.1,0.4-0.4c0.6-0.1,1.1-0.3,1.6-0.4
		c0.4-0.1,0.9-0.4,1.3-0.6c1.3-0.4,2.6-0.6,3.8-1.3c1.3-0.6,2.7-0.8,4-1.3c1.1-0.5,2.3-0.6,3.4-0.9c0.9-0.2,1.1-0.1,1.3,0.7
		c0.1,0.6,0.1,1.2,0.5,1.6c0.3,0.4,0.4,0.7,0.5,1.1c0.2,0.4,0.5,0.8,0.6,1.2c0.3,1.3,1.3,2.3,1.6,3.7c0.9,1,1.1,2.3,1.8,3.4
		c0.6,1.1,0.9,2.3,1.3,3.5c0.1,0.1,0.1,0.4,0.2,0.5c0.5,0.2,0.4,0.7,0.5,1.1c0.2,0.4,0.4,0.7,0.6,1.1c0.3,0.9,0.5,1.7,0.9,2.6
		c0.5,0.9,0.5,1.9,0.9,2.8c0.5,0.9,0.6,1.8,1.1,2.6c0.7,1.2,1.2,2.6,1.6,3.8c0.5,1.6,1.3,3,1.6,4.5c0.1,0.2,0.1,0.4,0.3,0.6
		c0.1-0.1,0.1-0.3,0.1-0.4c-0.6-1.7-0.7-3.5-1.6-5.2c-0.4-0.7-0.6-1.6-0.9-2.4c-0.5-1.4-1.1-2.8-1.5-4.3c-0.4-1.9-1.4-3.6-1.8-5.5
		c-0.6-0.8-0.7-1.8-1-2.7c-0.1-0.1-0.2-0.3-0.3-0.4c-0.4-0.8-0.9-1.6-1.3-2.3c-0.4-0.6-0.6-1.4-0.9-2.1c-0.1-0.3-0.4-0.6-0.5-0.9
		c-0.1-0.3-0.1-0.8-0.5-0.9c0-0.7-0.6-1.2-0.8-1.8c-0.4-1.1-0.8-2.1-1.1-3.2c0-0.1-0.1-0.2-0.1-0.3c-0.6-0.9-0.8-1.9-1.3-2.8
		c-0.2-0.4-0.4-0.9-0.6-1.3c-0.1-0.2-0.5-0.3-0.7-0.3c-0.3,0-0.6,0.1-0.9,0.2c-2.8,0.7-5.5,1.9-8.4,2.6c-1.2,0.2-2.3,0.6-3.5,0.9
		c-0.2,0.1-0.4,0.1-0.6,0.1c-0.1,0.1-0.1,0.3-0.1,0.4c0,0.1,0.1,0.1,0.2,0.1c0.2,0.1,0.6,0.2,0.4,0.6c-0.1,0.3-0.1,0.6-0.4,0.9
		C357.6,208.1,357,208,356.9,208.8z M341.6,216.1c0.4,1.3,1,2.4,1.3,3.5c0.3,1.1,1.1,2.1,1.2,3.3c0,0.1,0,0.1,0.1,0.1
		c0.6,0.3,0.4,1,0.6,1.5s0.5,0.9,0.7,1.4c0.4,0.9,0.5,1.8,1,2.5c0.8,1.1,1,2.6,1.8,3.7c0.3,1.9,1.3,3.6,1.8,5.5
		c0.2,0.9,0.4,1.9,0.8,2.7c0.3,0.5,0.5,1.1,0.6,1.6c0.2,0.6,0.6,1.1,0.7,1.6c0.4,1.7,1.3,3.3,1.6,5c0,0.1,0,0.4,0.1,0.4
		c0.6,0.4,0.5,1,0.7,1.5c0.2,0.6,0.5,1.1,0.7,1.6c0.4,1.2,0.5,2.6,1.2,3.6c0.3,0.4,0.3,1.1,0.5,1.6c0.2,0.6,0.6,1.1,0.7,1.6
		c0.3,1,1,1.8,1.1,2.9c0,0.2,0.3,0.4,0.4,0.5c0.3,0.4,0.6,0.7,0.6,1.2c0.1,0.4,0.1,0.9,0.4,1.2c0.1,0.2,0.5,0.4,0.7,0.4
		c0.3,0.1,0.6-0.1,0.8-0.2c1.3-0.9,2.8-1.3,4.1-1.9c1.1-0.6,2.3-0.6,3.5-1.2c0.9-0.5,2.1-0.5,3-1.1c0.6-0.4,1.6-0.4,2.3-0.9
		c0.6-0.4,1.5-0.5,2.3-0.9c1.1-0.6,2.2-0.9,3.3-1.2c0.1,0,0.2,0,0.3-0.1c0.3-0.5,0.9-0.4,1.3-0.6c0.5-0.3,0.9-0.5,1.4-0.7
		c0.4-0.1,0.9-0.5,1.3-0.6c1.3-0.4,2.4-1.1,3.8-1.3c0.2,0,0.4-0.4,0.6-0.4c0.6-0.1,0.6-0.4,0.4-0.9c-0.3-0.9-0.5-1.9-0.8-2.8
		c-0.3-0.9-0.7-1.8-1.1-2.8c-0.3-0.9-0.2-1.8-1-2.6c-0.3-1.5-0.9-2.9-1.4-4.3c-0.4-1-0.5-2-1.1-3c-0.5-0.9-0.6-2-1.1-2.9
		c-0.4-0.8-0.5-1.6-0.9-2.4c-0.6-1.1-0.9-2.2-1.2-3.3c0-0.1,0-0.2-0.1-0.3c-0.8-0.5-0.6-1.5-1.1-2.2c-0.5-0.7-0.6-1.6-0.8-2.5
		c-0.1-0.2-0.1-0.4-0.1-0.6c-0.9-0.9-0.7-2.1-1.3-3c-0.6-0.9-0.8-2.1-1.2-3.2c-0.3-0.7-0.8-1.3-0.9-2.1c-0.8-0.3-0.4-1.2-0.9-1.8
		c-0.5-0.5-0.6-1.3-0.9-1.9c-0.3-0.6-0.8-1.3-0.9-2c-0.7-0.4-0.4-1.2-0.9-1.6c-0.5-0.5-0.4-1.2-0.6-1.8c-0.1-0.2-0.1-0.4-0.2-0.7
		c-1.5,0.6-3.1,0.6-4.4,1.5c-2.1,0.4-3.9,1.5-6,1.8c-1.2,0.2-2.1,1.1-3.3,1.2c-0.1,0-0.1,0-0.1,0.1c-0.4,0.6-1.1,0.5-1.6,0.7
		c-0.5,0.2-1.1,0.6-1.6,0.7c-1,0.2-1.8,0.8-2.8,1.1c-1,0.4-2,1-3,1.3c-0.1,0.1-0.4,0-0.4,0.1c-0.4,0.6-1.2,0.4-1.6,0.7
		c-0.5,0.6-1.2,0.5-1.8,0.7C343.7,215.6,342.7,215.8,341.6,216.1z M386.5,234.2c0.1,0.2,0.1,0.4,0.1,0.6c0.1,0.6,0.3,1.3,0.5,1.9
		c0.2,0.6,0.6,1.1,0.7,1.7c0.8,2.3,1.2,4.7,2.1,7c1.1,3,1.9,6.2,2.8,9.4c0.3,1.1,0.5,2.1,0.9,3.1c0.4,0.9,0,1.5-0.5,2.1
		c-0.5,0.6-1.1,1.1-1.8,1.4c-1.6,0.6-3.1,1.5-4.8,1.9c-0.7,0.1-1.3,0.4-2,0.9c-1.1,0.8-2.3,1.1-3.5,1.7c-0.6,0.4-1.4,0.3-2.1,0.8
		c-0.5,0.4-1.4,0.3-2,0.9c-1.5,0.3-2.8,0.9-4.2,1.4c-0.6,0.2-1.1,0.3-1.6,0.6c-0.4,0.3-1,0.6-1.6,0.8c-1.4,0.4-2.8,0.7-4.2,1.3
		c-1.1,0.5-2.3,0.6-3.4,0.9c-1.1,0.3-1.9-0.1-2.5-0.9c-0.6-0.9-1.2-1.8-1.7-2.8c-0.4-0.6-0.6-1.2-0.8-1.8c-0.2-0.6-0.4-1.3-0.8-1.8
		c-0.4-0.5-0.2-1.3-0.7-1.8c-0.4-0.5-0.2-1.3-0.9-1.8c-0.1-1.3-1-2.5-1.3-3.8c-0.3-1.3-1.1-2.3-1.3-3.6c0-0.1-0.1-0.2-0.1-0.2
		c-0.5-0.2-0.4-0.7-0.5-1.1c-0.2-0.4-0.4-0.7-0.6-1.1c-0.5-1.4-0.7-2.9-1.4-4.3c-0.6-1.3-0.6-2.8-1.3-4c-0.4-0.7-0.4-1.6-0.9-2.4
		c-0.4-0.5-0.4-1.3-0.6-1.9c-0.2-0.6-0.5-1.1-0.7-1.7c-0.4-1.1-0.4-2.4-1.2-3.3c-0.4-1.6-1.3-3-1.6-4.7c-0.2-1.1-0.7-2.1-1.3-2.9
		c-0.4-0.6-0.6-1.2-0.8-1.8c-0.4-1-0.7-2-1.1-3c-0.7-0.4-0.4-1.2-0.9-1.6c-0.6-0.6-0.4-1.3-0.7-1.9c-0.3-0.6-0.3-1.2-0.7-1.8
		c-0.5-0.7-0.7-1.8-0.4-2.6c0.4-1.2,1.1-2.3,2.3-2.9c0.6-0.3,1.3-0.6,2-0.9c0.6-0.3,1.1-0.4,1.8-0.7c0.6-0.2,1.2-0.6,1.8-0.8
		c1.7-0.6,3.5-0.7,5.1-1.6c0.6-0.4,1.3-0.4,1.9-0.7c0.6-0.3,1.3-0.7,2-0.9c0.7-0.2,1.4-0.4,2.1-0.9c0.7-0.4,1.6-0.4,2.3-0.6
		c0.7-0.2,1.4-0.6,2.1-0.9c3.3-0.9,6.7-1.8,9.9-2.7c0.8-0.2,1.3-0.1,1.8,0.6c0.4,0.6,0.8,1.2,1,1.8c0.2,0.8,0.9,1.4,0.9,2.3
		c0.6,0.4,0.5,1.1,0.8,1.7c0.3,0.6,0.6,1.1,0.8,1.7c0.2,0.9,0.5,1.7,1,2.3c0.4,0.4,0.3,0.9,0.6,1.3c0.6,0.7,1,1.5,1.2,2.4
		c0.1,0.2,0.2,0.4,0.4,0.6c0.5,1.2,1.5,2.3,1.6,3.7c0.1,0.3,0.1,0.5,0.3,0.9c0.1-0.2,0.1-0.4,0.1-0.4c-0.3-1.1-0.6-2.3-0.9-3.4
		c0-0.1,0-0.2-0.1-0.3c-0.6-0.3-0.4-1.1-0.9-1.5c-0.5-0.4-0.3-1.1-0.7-1.6c-0.4-0.4-0.4-1.1-0.6-1.7c-0.1-0.1,0-0.3-0.1-0.4
		c-0.9-1.1-1.1-2.5-1.8-3.7c-0.4-0.6-0.4-1.4-0.6-2.1c-0.2-0.7-0.6-1.3-0.8-2c-0.4-1-0.7-2-1.1-3c-0.1-0.1-0.2-0.2-0.3-0.3
		c-0.6-0.7-1.8-0.9-2.8-0.3c-0.2,0.1-0.4,0.3-0.7,0.4c-1.8,0.6-3.6,0.7-5.2,1.7c-3.3,0.7-6.3,2.2-9.6,2.8c-0.9,0.1-1.6,0.4-2.5,0.6
		c-0.2,0.1-0.5,0.1-0.6,0.2c-0.9,0.7-2.1,0.9-3.2,1.4c-1.5,0.6-3,1.1-4.5,1.6c-0.1,0-0.2,0-0.3,0.1c-0.4,0.6-1.1,0.4-1.6,0.7
		c-0.5,0.4-1.1,0.5-1.6,0.7c-0.9,0.3-1.8,0.5-2.7,1c-0.8,0.4-1.1,1.1-1.7,1.6c-0.2,0.2-0.3,0.7-0.3,1c0.3,1.2,0.6,2.5,0.9,3.7
		c0.6,0.2,0.4,0.8,0.6,1.2s0.5,0.9,0.6,1.3c0.4,1.5,1.1,2.8,1.8,4.3c0.1,0.3,0.4,0.5,0.5,0.8c0.5,1.3,0.9,2.7,1.3,4
		c0.5,1.4,1,2.9,1.4,4.3c0,0.1,0,0.2,0.1,0.3c0.5,0.2,0.4,0.7,0.6,1.1c0.1,0.4,0.4,0.7,0.6,1.1c0.4,1.3,0.9,2.6,1.3,3.8
		c0.6,2.1,1.6,4,2,6.2c0,0.1,0,0.2,0.1,0.3c0.9,0.9,0.7,2.1,1.3,3c0.6,0.9,0.6,2.1,1.1,3c0.4,0.9,0.6,1.9,1.1,2.8
		c0.4,0.9,0.6,1.8,1,2.7c0.5,0.9,0.8,2.1,1.1,3c0,0.1,0,0.2,0.1,0.3c0.6,0.3,0.4,1,0.6,1.5c0.2,0.5,0.5,1.1,0.7,1.6
		c0.4,1.2,0.9,2.4,1.3,3.6c0,0.1,0.1,0.2,0.1,0.2c0.6,0.4,0.3,1.2,0.7,1.6c0.6,0.5,0.4,1.2,0.7,1.8c0.2,0.6,0.4,1.1,0.7,1.6
		c0.2,0.4,0.5,0.7,0.7,1.1c0.2,0.5,0.6,1.1,1.2,1.3c0.9,0.4,1.9,0.4,2.8,0.1c1.1-0.1,2.1-0.5,3.1-0.9c0.8-0.3,1.6-0.6,2.2-1
		c0.4-0.2,0.6-0.3,1-0.4c0.3-0.1,0.6-0.4,0.9-0.5c1-0.4,2.1-0.8,3-1.1c0.1,0,0.2-0.1,0.3-0.1c0.4-0.6,1.1-0.3,1.4-0.7
		c0.4-0.4,1-0.5,1.5-0.6c0.2-0.1,0.6-0.1,0.6-0.2c0.4-0.6,1.1-0.5,1.6-0.7c0.6-0.2,1.1-0.5,1.6-0.7c1-0.4,2-0.6,3-1.1
		c1.1-0.6,2.3-0.6,3.3-1.2c0.6-0.4,1.5-0.3,2.2-0.8c0.6-0.5,1.5-0.3,2.1-0.9c1.5-0.4,2.6-1.5,3.7-2.5c0.3-0.2,0.6-0.7,0.5-1.1
		c-0.1-1-0.3-2-0.5-3c-0.1-0.7-0.4-1.3-0.6-2.1c-0.2-0.6-0.4-1.3-0.8-1.9c-0.4-0.6-0.4-1.3-0.8-1.8c-0.4-0.4-0.5-1-0.7-1.6
		c-0.4-1.1-0.6-2.4-1.2-3.5c-0.6-1.1-0.8-2.4-1.3-3.6c-0.8-2-1.1-4.1-1.9-6.1C387.4,235.8,386.9,235,386.5,234.2z M391.8,256.6
		c-0.3,0.2-0.4,0.4-0.6,0.5c-1.4,0.6-2.9,1.2-4.4,1.8c-1,0.4-2,0.7-3,1.1c-0.1,0-0.1,0-0.1,0.1c-0.3,0.6-0.9,0.4-1.3,0.6
		c-0.4,0.2-0.9,0.5-1.3,0.6c-1.4,0.4-2.7,1.3-4.2,1.4c-0.1,0-0.2,0-0.3,0.1c-0.4,0.6-1.3,0.5-1.8,0.8c-0.6,0.3-1.2,0.6-1.8,0.8
		c-1.4,0.5-2.8,1-4.3,1.4c-0.1,0-0.2,0-0.3,0.1c-0.2,0.5-0.7,0.4-1.1,0.6c-0.4,0.1-0.7,0.4-1.1,0.6c-1,0.4-2.1,0.8-3,1.1
		c-0.1,0.1-0.3,0.2-0.4,0.3c-0.6,0.4-1.3,0.9-2,1.2c-0.5,0.3-0.6,0.6-0.1,0.9c0.4,0.3,0.6,0.6,0.9,0.9c0.1,0.1,0.2,0.2,0.3,0.2
		c0.9-0.2,1.8-0.3,2.6-0.7c0.6-0.4,1.3-0.4,1.8-0.8c0.6-0.4,1.2-0.6,1.8-0.8c0.7-0.2,1.6-0.2,2.1-0.6c0.5-0.4,1.1-0.3,1.5-0.6
		c0.5-0.4,1.1-0.5,1.6-0.7c0.3-0.1,0.6-0.1,0.8-0.2c0.5-0.6,1.1-0.6,1.8-0.7c0.6-0.1,1.1-0.6,1.7-0.8c1.1-0.4,2.4-0.7,3.5-1.3
		c1-0.6,2.2-0.7,3-1.6c0.1-0.1,0.2-0.1,0.4-0.1c1.2-0.2,2.1-1.1,3.3-1.2c0.1,0,0.2,0,0.3-0.1c0.3-0.5,0.8-0.4,1.2-0.6
		c0.4-0.1,0.8-0.4,1.2-0.6c0.7-0.2,1.2-0.7,1.6-1.3c0.4-0.5-0.1-1-0.1-1.5C392,257.3,391.9,257,391.8,256.6z M383.1,223.8
		c-0.1,0-0.2,0.1-0.3,0.1c0.1,0.2,0.1,0.4,0.1,0.6c0.4,1.6,1.3,3,1.6,4.7c0.1,0.3,0.2,0.5,0.3,0.8c-0.1-1.1-0.4-2.1-0.6-3.1
		C384,225.7,383.1,224.9,383.1,223.8z"/>
	<path class="st7" d="M356.9,208.8c-0.2,0.1-0.4,0.1-0.6,0.2c-1.1,0.4-2.3,0.7-3.3,1.2c-0.5,0.3-1.1,0.6-1.6,0.6
		c-0.6,0.1-0.9,0.7-1.4,0.7c-1.1,0.9-2.6,0.9-3.7,1.8c-0.2,0.2-0.6,0.2-0.9,0.3c-1.8,0.3-3.3,1.3-5,1.6c-0.1,0.6,0.4,1.1,0.1,1.6
		c-0.1,0.1,0,0.4,0.1,0.4c0.6,0.5,0.6,1.2,0.8,1.8c0.5,1.3,0.8,2.7,1.4,3.9c0.4,0.6,0.5,1.3,0.8,2s0.6,1.3,0.9,1.9
		c0.3,0.6,0.7,1.1,0.9,1.8c0.4,1.1,0.8,2,1.3,2.9c0.1,0.2,0.1,0.4,0.2,0.7c0.6,2.6,1.8,4.9,2.3,7.4c0.6,0.9,0.6,1.9,1.1,2.8
		c0.4,0.9,0.5,1.8,1,2.6c0.6,1.1,0.9,2.4,1.2,3.6c0.1,0.4,0.4,0.9,0.6,1.3c0.2,0.4,0.1,0.9,0.6,1.2c0.2,0.1,0.2,0.6,0.3,0.9
		c0.6,1.9,1.2,3.9,1.8,5.8c0.1,0.5,0.5,0.9,0.6,1.5c0.1,0.5,0.5,0.9,0.6,1.5c0.2,0.5,0.2,1.1,0.5,1.6c0.6,1,0.8,2.2,1.6,3
		c0.1,0.1,0.1,0.3,0.1,0.4c0.4,1.1,0.4,1.1,1.6,0.8c0.6-0.1,1.1-0.5,1.6-0.7c0.5-0.2,1-0.2,1.5-0.6c0.7-0.5,1.6-0.9,2.5-1
		c1.8-0.4,3.4-1.4,5.2-1.7c0.7-0.6,1.7-0.7,2.6-1c0.5-0.1,0.9-0.6,1.4-0.7c0.5-0.1,1-0.1,1.3-0.6c0-0.1,0.1-0.1,0.3-0.1
		c1.1-0.4,2.2-0.7,3.2-1.2c0.7-0.3,1.5-0.5,2.1-0.9c0.6-0.6,1.6-0.1,2.1-1c0,0,0.1,0,0.1-0.1c1.1-0.4,2.3-0.9,3.5-1.2
		c0.9-0.3,1.7-0.9,2.7-1c0.2,0,0.5-0.2,0.5,0.1c0,0.2-0.1,0.4-0.3,0.6c0,0.1-0.1,0.1-0.3,0.1c-1.6,0.5-3.1,1.4-4.7,1.9
		c-1.3,0.4-2.6,0.9-3.7,1.6c-0.7,0.4-1.5,0.5-2.1,0.9c-1,0.6-2.1,0.6-3,1.1c-0.9,0.4-1.8,0.6-2.7,1c-0.9,0.5-1.8,0.5-2.6,1
		c-1.1,0.6-2.1,0.8-3.3,1.1c-0.4,0.1-0.7,0.4-1.1,0.6c-0.4,0.2-0.9,0.1-1.1,0.6c0,0.1-0.1,0.1-0.2,0.1c-1,0.4-2,0.7-3,1.1
		c-0.6,0.2-1.1,0.6-1.6,0.7c-0.6,0.1-1.1,0.5-1.4,0.9c-0.1,0.1-0.4,0.2-0.6,0.2c-0.1,0-0.4-0.1-0.4-0.1c-0.2-0.8-0.9-1.3-0.9-2.1
		c-0.1-0.7-0.4-1.3-0.8-1.8c-0.3-0.6-0.3-1.2-0.7-1.8c-0.4-0.6-0.4-1.5-0.9-2.1c-0.2-1.6-1.1-2.9-1.5-4.5c-0.1-0.6-0.5-1.1-0.7-1.7
		c-0.2-0.6-0.4-1.2-0.7-1.7c-0.4-0.8-0.7-1.6-1-2.6c-0.3-0.9-0.4-1.8-0.8-2.7c-0.2-0.7-0.6-1.4-0.9-2.1c-0.3-0.8-0.3-1.6-0.6-2.3
		c-0.4-0.7-0.5-1.6-0.9-2.3c-0.6-1.1-0.6-2.3-1.2-3.3c-0.5-1-0.7-2.1-1.1-3c-0.3-0.6-0.5-1.1-0.7-1.7c-0.2-0.6-0.6-1.2-0.8-1.8
		c-0.2-0.6-0.3-1.3-0.5-1.9c-0.1-0.4-0.4-0.9-0.6-1.3c-0.1-0.4-0.1-0.9-0.6-1.2c-0.1,0-0.1-0.1-0.1-0.3c-0.4-1.1-0.8-2.3-1.2-3.3
		c-0.1-0.4-0.4-0.7-0.6-1.1c-0.1-0.4-0.1-0.9-0.6-1.1c0,0-0.1-0.1-0.1-0.1c-0.1-1.2-1-2.1-1.1-3.2c-0.1-0.8-0.6-1.4-0.9-2.1
		c-0.4-0.9,0-1.6,0.6-2.2c0.6-0.5,1.1-0.9,1.8-1.1c0.6-0.2,1.1-0.5,1.7-0.7c0.6-0.2,1.3-0.2,1.8-0.5c1.7-1,3.6-1.1,5.4-1.7
		c0.2-0.1,0.6-0.1,0.6-0.2c0.4-0.7,1.4-0.4,1.9-1c0.1-0.1,0.4-0.1,0.6-0.2c0.1,0.2,0.1,0.5,0.2,0.7c0,0.1-0.1,0.4,0,0.5
		c0.1,0.1,0.4,0.3,0.6,0.3c0.6-0.1,1.2,0.1,1.8-0.1c0.2-0.1,0.6-0.1,0.9-0.2C356.9,208.7,356.9,208.7,356.9,208.8z"/>
	<path class="st7" d="M391.8,256.6c0.1,0.4,0.2,0.7,0.2,0.9c0.1,0.5,0.6,1,0.1,1.5c-0.4,0.6-0.9,1.1-1.6,1.3
		c-0.4,0.1-0.8,0.4-1.2,0.6c-0.4,0.1-0.9,0.1-1.2,0.6c0,0.1-0.1,0.1-0.3,0.1c-1.2,0.1-2.2,1-3.3,1.2c-0.1,0-0.3,0.1-0.4,0.1
		c-0.9,0.9-2.1,1-3,1.6c-1.1,0.6-2.3,0.9-3.5,1.3c-0.6,0.2-1.1,0.7-1.7,0.8c-0.6,0.1-1.3,0.1-1.8,0.7c-0.1,0.1-0.5,0.1-0.8,0.2
		c-0.6,0.2-1.1,0.2-1.6,0.7c-0.4,0.4-1,0.3-1.5,0.6c-0.6,0.4-1.4,0.4-2.1,0.6c-0.6,0.2-1.3,0.4-1.8,0.8c-0.6,0.4-1.3,0.4-1.8,0.8
		c-0.7,0.5-1.7,0.5-2.6,0.7c-0.1,0-0.2-0.1-0.3-0.2c-0.4-0.3-0.6-0.6-0.9-0.9c-0.4-0.4-0.4-0.6,0.1-0.9c0.7-0.4,1.3-0.9,2-1.2
		c0.1-0.1,0.3-0.2,0.4-0.3c1-0.4,2.1-0.7,3-1.1c0.4-0.1,0.7-0.4,1.1-0.6c0.4-0.1,0.9-0.1,1.1-0.6c0-0.1,0.1-0.1,0.3-0.1
		c1.4-0.5,2.9-0.9,4.3-1.4c0.6-0.2,1.3-0.5,1.8-0.8c0.6-0.3,1.4-0.1,1.8-0.8c0.1-0.1,0.1-0.1,0.3-0.1c1.5-0.1,2.8-1.1,4.2-1.4
		c0.5-0.1,0.9-0.4,1.3-0.6c0.4-0.2,1.1-0.1,1.3-0.6c0,0,0.1,0,0.1-0.1c1-0.4,2-0.7,3-1.1c1.5-0.6,2.9-1.2,4.4-1.8
		C391.4,257,391.6,256.8,391.8,256.6z"/>
	<path class="st7" d="M356.7,208.6c0.4-0.6,0.9-0.5,1.3-0.9c0.4-0.3,0.3-0.6,0.4-0.9c0.2-0.4-0.2-0.4-0.4-0.6
		c-0.1-0.1-0.2-0.1-0.2-0.1c0-0.1,0-0.4,0.1-0.4c0.1-0.1,0.4-0.1,0.6-0.1c1.2-0.3,2.3-0.7,3.5-0.9c2.9-0.6,5.5-1.8,8.4-2.6
		c0.3-0.1,0.6-0.2,0.9-0.2c0.2,0,0.6,0.1,0.7,0.3c0.3,0.4,0.4,0.9,0.6,1.3c0.5,0.9,0.6,2,1.3,2.8c0.1,0.1,0.1,0.1,0.1,0.3
		c0.4,1.1,0.8,2.1,1.1,3.2c0.2,0.6,0.8,1.1,0.8,1.8c0.4,0.1,0.4,0.6,0.5,0.9c0.1,0.3,0.4,0.6,0.5,0.9c0.3,0.7,0.5,1.5,0.9,2.1
		c0.4,0.8,0.9,1.5,1.3,2.3c0.1,0.1,0.2,0.3,0.3,0.4c0.3,0.9,0.4,1.9,1,2.7c0.4,1.9,1.3,3.6,1.8,5.5c0.4,1.5,1,2.8,1.5,4.3
		c0.3,0.8,0.5,1.7,0.9,2.4c0.9,1.6,1.1,3.5,1.6,5.2c0.1,0.1,0.1,0.3-0.1,0.4c-0.1-0.2-0.2-0.4-0.3-0.6c-0.3-1.6-1.1-3-1.6-4.5
		c-0.4-1.3-0.9-2.6-1.6-3.8c-0.5-0.9-0.6-1.8-1.1-2.6c-0.5-0.9-0.5-1.9-0.9-2.8c-0.4-0.9-0.6-1.7-0.9-2.6c-0.1-0.4-0.4-0.7-0.6-1.1
		c-0.2-0.4-0.1-0.9-0.5-1.1c-0.1-0.1-0.1-0.4-0.2-0.5c-0.4-1.1-0.7-2.4-1.3-3.5c-0.6-1.1-0.9-2.4-1.8-3.4c-0.3-1.3-1.3-2.3-1.6-3.7
		c-0.1-0.4-0.4-0.8-0.6-1.2c-0.1-0.4-0.2-0.7-0.5-1.1c-0.4-0.4-0.4-1.1-0.5-1.6c-0.3-0.9-0.4-0.9-1.3-0.7c-1.1,0.3-2.3,0.5-3.4,0.9
		c-1.3,0.6-2.8,0.8-4,1.3c-1.2,0.6-2.6,0.8-3.8,1.3c-0.4,0.1-0.9,0.4-1.3,0.6C357.9,208.3,357.3,208.4,356.7,208.6z"/>
	<path class="st8" d="M394.3,255.1c-0.2-0.6-0.4-1.3-0.8-1.9c-0.4-0.6-0.4-1.3-0.8-1.8c-0.4-0.4-0.5-1-0.7-1.6
		c-0.4-1.1-0.6-2.4-1.2-3.5c-0.6-1.1-0.8-2.4-1.3-3.6c-0.8-2-1.1-4.1-1.9-6.1c-0.4-0.7-2.3-9.2-3.4-9.4c0-0.1-0.1-0.2-0.1-0.4
		c-0.1-0.7-0.6-1.3-0.9-2c0.1-1.4-1.6-5.5-1.6-5.6c-0.3-1.1-1.1-2.2-1.3-3.3c0-0.1,0-0.2-0.1-0.3c-0.6-0.3-0.4-1.1-0.9-1.5
		c-0.5-0.4-0.3-1.1-0.7-1.6c-0.4-0.4-0.4-1.1-0.6-1.7c-0.1-0.1,0-0.3-0.1-0.4c-0.9-1.1-1.1-2.5-1.8-3.7c-0.4-0.6-0.4-1.4-0.6-2.1
		c-0.2-0.7-0.6-1.3-0.8-2c-0.4-1-0.7-2-1.1-3c-0.1-0.1-0.2-0.2-0.3-0.3c-0.6-0.7-1.8-0.9-2.8-0.3c-0.2,0.1-0.4,0.3-0.7,0.4
		c-1.8,0.6-3.6,0.7-5.2,1.7c-3.3,0.7-6.3,2.2-9.6,2.8c-0.9,0.1-1.6,0.4-2.5,0.6c-0.2,0.1-0.5,0.1-0.6,0.2c-0.9,0.7-2.1,0.9-3.2,1.4
		c-1.5,0.6-3,1.1-4.5,1.6c-0.1,0-0.2,0-0.3,0.1c-0.4,0.6-1.1,0.4-1.6,0.7c-0.5,0.4-1.1,0.5-1.6,0.7c-0.9,0.3-1.8,0.5-2.7,1
		c-0.8,0.4-1.1,1.1-1.7,1.6c-0.2,0.2-0.3,0.7-0.3,1c0.3,1.2,0.6,2.5,0.9,3.7c0.6,0.2,0.4,0.8,0.6,1.2c0.2,0.4,0.5,0.9,0.6,1.3
		c0.4,1.5,1.1,2.8,1.8,4.3c0.1,0.3,0.4,0.5,0.5,0.8c0.5,1.3,0.9,2.7,1.3,4c0.5,1.4,1,2.9,1.4,4.3c0,0.1,0,0.2,0.1,0.3
		c0.5,0.2,0.4,0.7,0.6,1.1c0.1,0.4,0.4,0.7,0.6,1.1c0.4,1.3,0.9,2.6,1.3,3.8c0.6,2.1,1.6,4,2,6.2c0,0.1,0,0.2,0.1,0.3
		c0.9,0.9,0.7,2.1,1.3,3c0.6,0.9,0.6,2.1,1.1,3c0.4,0.9,0.6,1.9,1.1,2.8c0.4,0.9,0.6,1.8,1,2.7c0.5,0.9,0.8,2.1,1.1,3
		c0,0.1,0,0.2,0.1,0.3c0.6,0.3,0.4,1,0.6,1.5c0.2,0.5,0.5,1.1,0.7,1.6c0.4,1.2,0.9,2.4,1.3,3.6c0,0.1,0.1,0.2,0.1,0.2
		c0.6,0.4,0.3,1.2,0.7,1.6c0.6,0.5,0.4,1.2,0.7,1.8c0.2,0.6,0.4,1.1,0.7,1.6c0.2,0.4,0.5,0.7,0.7,1.1c0.2,0.5,0.6,1.1,1.2,1.3
		c0.9,0.4,1.9,0.4,2.8,0.1c1.1-0.1,2.1-0.5,3.1-0.9c0.8-0.3,1.6-0.6,2.2-1c0.4-0.2,0.6-0.3,1-0.4c0.3-0.1,0.6-0.4,0.9-0.5
		c1-0.4,2.1-0.8,3-1.1c0.1,0,0.2-0.1,0.3-0.1c0.4-0.6,1.1-0.3,1.4-0.7c0.4-0.4,1-0.5,1.5-0.6c0.2-0.1,0.6-0.1,0.6-0.2
		c0.4-0.6,1.1-0.5,1.6-0.7s1.1-0.5,1.6-0.7c1-0.4,2-0.6,3-1.1c1.1-0.6,2.3-0.6,3.3-1.2c0.6-0.4,1.5-0.3,2.2-0.8
		c0.6-0.5,1.5-0.3,2.1-0.9c1.5-0.4,2.6-1.5,3.7-2.5c0.3-0.2,0.6-0.7,0.5-1.1c-0.1-1-0.3-2-0.5-3
		C394.7,256.4,394.5,255.8,394.3,255.1z M393.2,260c-0.5,0.6-1.1,1.1-1.8,1.4c-1.6,0.6-3.1,1.5-4.8,1.9c-0.7,0.1-1.3,0.4-2,0.9
		c-1.1,0.8-2.3,1.1-3.5,1.7c-0.6,0.4-1.4,0.3-2.1,0.8c-0.5,0.4-1.4,0.3-2,0.9c-1.5,0.3-2.8,0.9-4.2,1.4c-0.6,0.2-1.1,0.3-1.6,0.6
		c-0.4,0.3-1,0.6-1.6,0.8c-1.4,0.4-2.8,0.7-4.2,1.3c-1.1,0.5-2.3,0.6-3.4,0.9c-1.1,0.3-1.9-0.1-2.5-0.9c-0.6-0.9-1.2-1.8-1.7-2.8
		c-0.4-0.6-0.6-1.2-0.8-1.8s-0.4-1.3-0.8-1.8c-0.4-0.5-0.2-1.3-0.7-1.8c-0.4-0.5-0.2-1.3-0.9-1.8c-0.1-1.3-1-2.5-1.3-3.8
		c-0.3-1.3-1.1-2.3-1.3-3.6c0-0.1-0.1-0.2-0.1-0.2c-0.5-0.2-0.4-0.7-0.5-1.1c-0.2-0.4-0.4-0.7-0.6-1.1c-0.5-1.4-0.7-2.9-1.4-4.3
		c-0.6-1.3-0.6-2.8-1.3-4c-0.4-0.7-0.4-1.6-0.9-2.4c-0.4-0.5-0.4-1.3-0.6-1.9c-0.2-0.6-0.5-1.1-0.7-1.7c-0.4-1.1-0.4-2.4-1.2-3.3
		c-0.4-1.6-1.3-3-1.6-4.7c-0.2-1.1-0.7-2.1-1.3-2.9c-0.4-0.6-0.6-1.2-0.8-1.8c-0.4-1-0.7-2-1.1-3c-0.7-0.4-0.4-1.2-0.9-1.6
		c-0.6-0.6-0.4-1.3-0.7-1.9c-0.3-0.6-0.3-1.2-0.7-1.8c-0.5-0.7-0.7-1.8-0.4-2.6c0.4-1.2,1.1-2.3,2.3-2.9c0.6-0.3,1.3-0.6,2-0.9
		c0.6-0.3,1.1-0.4,1.8-0.7c0.6-0.2,1.2-0.6,1.8-0.8c1.7-0.6,3.5-0.7,5.1-1.6c0.6-0.4,1.3-0.4,1.9-0.7c0.6-0.3,1.3-0.7,2-0.9
		c0.7-0.2,1.4-0.4,2.1-0.9c0.7-0.4,1.6-0.4,2.3-0.6c0.7-0.2,1.4-0.6,2.1-0.9c3.3-0.9,6.7-1.8,9.9-2.7c0.8-0.2,1.3-0.1,1.8,0.6
		c0.4,0.6,0.8,1.2,1,1.8c0.2,0.8,0.9,1.4,0.9,2.3c0.6,0.4,0.5,1.1,0.8,1.7s0.6,1.1,0.8,1.7c0.2,0.9,0.5,1.7,1,2.3
		c0.4,0.4,0.3,0.9,0.6,1.3c0.6,0.7,1,1.5,1.2,2.4c0.1,0.2,0.2,0.4,0.4,0.6c0.5,1.2,1.3,2.7,1.6,4.1c0.1,0.3,2.3,5.7,2.4,6l0,0
		c0.3,0.9,0.6,1.6,0.9,2.5c0,0.1,0.1,0.1,0.1,0.2c0.1,0.4,0.2,0.7,0.3,1.1c0,0.2,0.3,0.6,0.4,0.8c0.8,2.1,1.7,4.7,1.7,4.9
		c0.1,0.6,0.3,1.3,0.5,1.9c0.2,0.6,0.6,1.1,0.7,1.7c0.8,2.3,1.2,4.7,2.1,7c1.1,3,1.9,6.2,2.8,9.4c0.3,1.1,0.5,2.1,0.9,3.1
		C394,258.8,393.7,259.5,393.2,260z"/>
	<path class="st8" d="M357.8,206.9c0.1,0.4,0,0.8-0.4,0.9l-3.9,1.6c-0.4,0.1-0.8,0-0.9-0.4v-0.1c-0.1-0.4,0-0.8,0.4-0.9l3.9-1.6
		C357.2,206.3,357.6,206.5,357.8,206.9L357.8,206.9z"/>
</g>
<g>
	<path class="st9" d="M352.2,220.2l13.9-5.1l5.3,14.5l-1.1,0.4l-0.4-1.2l-11.5,4.3l0.4,1.2l-1.1,0.4L352.2,220.2z M357.9,231.9
		l11.5-4.3l-4-11.1l-11.5,4.3L357.9,231.9z M357.3,222.5l6.3-2.3l2.1,5.7l-6.3,2.3L357.3,222.5z M364.3,225.4l-1.4-3.8l-4.3,1.6
		l1.4,3.8L364.3,225.4z"/>
	<path class="st9" d="M368.1,238.8c-0.2,0.7-0.4,1.3-0.7,1.9l1.3-0.4c0,0.1-0.1,0.3-0.2,0.4c2.4,1.3,6.1,2,9,2
		c-0.1,0.4-0.3,0.9-0.3,1.2c-1.4-0.1-2.9-0.2-4.5-0.6l0.3,0.8l-7.1,2.6l-0.3-0.8c-0.9,1.3-1.9,2.5-3,3.5c-0.2-0.2-0.6-0.5-0.9-0.6
		c2.4-2.2,4.5-5.2,5.2-7.6c-0.3-0.1-0.6-0.2-0.9-0.2c0.3-0.5,0.6-1.1,0.9-1.7l-3.2,1.2c0.6,0.6,1.3,1.2,1.7,1.6l-0.9,0.7
		c-0.4-0.6-1.2-1.3-1.9-2l-0.6,0.2c-0.1,1.1-0.4,2.1-0.8,3c-0.3-0.1-0.8-0.2-1.1-0.3c0.6-1.4,0.9-3.5,0.9-5.5l1.5-0.1
		c0,0.1-0.1,0.2-0.3,0.3c0,0.4,0,0.9-0.1,1.3l4.6-1.7l0.4,0.9c0.4-1,0.6-2.1,0.6-3.2l1.5-0.1c0,0.1-0.1,0.2-0.3,0.3
		c0,0.5-0.1,0.9-0.1,1.4l6-2.2l0.4,1l-3.8,1.4c0.7,0.5,1.4,1.1,1.8,1.5l-0.9,0.8c-0.5-0.6-1.3-1.3-2.2-1.8L368.1,238.8z M367,254.1
		l-2-5.3l9.8-3.6l2,5.3l-1.1,0.4l-0.2-0.5l-7.7,2.8l0.2,0.6L367,254.1z M372.4,243.2c-1.6-0.4-3.2-0.9-4.4-1.6
		c-0.4,1.2-1.1,2.6-2.1,4L372.4,243.2z M374.2,246.5l-7.7,2.8l1,2.8l7.7-2.8L374.2,246.5z"/>
</g>
</svg>
