<?xml version="1.0" encoding="utf-8"?>
<!-- Generator: Adobe Illustrator 24.0.1, SVG Export Plug-In . SVG Version: 6.00 Build 0)  -->
<svg version="1.1" id="レイヤー_1" xmlns="http://www.w3.org/2000/svg" xmlns:xlink="http://www.w3.org/1999/xlink" x="0px"
	 y="0px" viewBox="0 0 536.9 353.9" style="enable-background:new 0 0 536.9 353.9;" xml:space="preserve">
<style type="text/css">
	.st0{fill:#FFFFFF;}
	.st1{fill:none;stroke:#E60000;stroke-width:5.6356;stroke-miterlimit:10;}
	.st2{fill:#E60000;}
	.st3{enable-background:new    ;}
	.st4{fill:none;}
	.st5{fill:none;stroke:#E60000;stroke-miterlimit:10;}
	.st6{fill:none;stroke:#000000;stroke-miterlimit:10;}
</style>
<g>
	<path class="st0" d="M525.7,292.9c0,5.8-4.7,10.5-10.5,10.5H20.1c-5.8,0-10.5-4.7-10.5-10.5v-277c0-5.8,4.7-10.5,10.5-10.5h495.1
		c5.8,0,10.5,4.7,10.5,10.5V292.9z"/>
	<path class="st1" d="M525.7,322.8c0,5.8-4.7,10.5-10.5,10.5H20.1c-5.8,0-10.5-4.7-10.5-10.5V15.9c0-5.8,4.7-10.5,10.5-10.5h495.1
		c5.8,0,10.5,4.7,10.5,10.5V322.8z"/>
</g>
<path class="st2" d="M525.7,71.5V13.7c0-4.5-3.7-8.3-8.3-8.3H17.9c-4.5,0-8.3,3.7-8.3,8.3v57.7L525.7,71.5L525.7,71.5z"/>
<g>
	<g>
		<g>
			<path class="st0" d="M74,63.7H31.8c-3.2,0-6.1-1.7-7.7-4.4s-1.6-6.1,0-8.8l21.1-36.5c1.6-2.8,4.5-4.4,7.7-4.4s6.1,1.7,7.7,4.4
				l21.1,36.5c1.6,2.8,1.6,6.1,0,8.8C80.1,62.1,77.2,63.7,74,63.7z M48.5,15.8L27.4,52.5c-0.9,1.6-0.9,3.5,0,5
				c0.9,1.6,2.5,2.5,4.4,2.5H74c1.8,0,3.5-0.9,4.4-2.5s0.9-3.5,0-5L57.3,15.8c-0.9-1.6-2.5-2.5-4.4-2.5
				C51.1,13.4,49.4,14.4,48.5,15.8L48.5,15.8z"/>
		</g>
	</g>
</g>
<g class="st3">
	<path class="st0" d="M44.6,26.2c1.2,0.2,2.1,0.2,4.1,0.2H53c2.4,0,2.9,0,4.2-0.1c-0.2,1.8-0.2,3.2-0.2,5.5v17.8
		c0,2,0.1,3.5,0.3,5.1h-7.4c0.2-1.6,0.3-3.2,0.3-5.1V32.3h-1.4c-1.3,0-2.7,0.1-4.1,0.2V26.2z"/>
</g>
<g>
	<g class="st3">
		<path class="st0" d="M202.3,22c0-0.9-0.1-1.4-0.2-1.9h5.3c-0.1,0.6-0.1,1-0.1,1.9h9.4c0-1-0.1-1.4-0.2-1.9h5.4
			c-0.1,0.6-0.1,1-0.1,1.9h1.4c1.8,0,2.9-0.1,4-0.2v4.7c-1.3-0.1-2.5-0.2-4-0.2h-1.4v8h1.7c1.5,0,2.8-0.1,4.1-0.2v4.8
			c-1.1-0.1-2.3-0.2-3.8-0.2h-2.2c2,1.6,4,2.4,7.1,3.2c-1,1.8-1.5,2.9-2,4.8c-2.4-1-3.8-1.7-5.9-3.1v1.9c-1.1-0.1-1.7-0.1-3.3-0.1
			h-3v1.4h7.3c1.6,0,2.7-0.1,4-0.2v4.8c-1.2-0.1-2.7-0.2-4.5-0.2h-18.4c-1.8,0-3.2,0.1-4.5,0.2v-4.8c1.2,0.1,2.3,0.2,4.1,0.2h6.9
			v-1.4h-2.7c-1.5,0-2.2,0-3.2,0.1v-1.9c-2,1.4-3.6,2.3-5.9,3.2c-0.6-1.9-1-2.9-2-4.8c3-0.7,5-1.7,7-3.3h-2.1
			c-1.6,0-2.8,0.1-3.9,0.2v-4.8c1.1,0.1,2.3,0.2,3.8,0.2h1.9v-8h-1.3c-1.5,0-2.7,0.1-4,0.2v-4.7c1.2,0.1,2.3,0.2,4,0.2H202.3z
			 M206.7,41.3h2.7c0-0.8-0.1-1.4-0.2-1.9h5.3c-0.1,0.7-0.2,1.1-0.2,1.9h3.4c-1.1-1-1.8-1.7-2.5-2.7h-6.7c-0.8,1.1-1.4,1.8-2.4,2.7
			H206.7z M216.8,26.9v-1.1h-9.4v1.1H216.8z M216.8,30.7v-1h-9.4v1H216.8z M216.8,34.6v-1.1h-9.4v1.1H216.8z"/>
		<path class="st0" d="M250.9,30c1.2,2.3,2.2,3.7,3.9,5.6c2.4,2.5,4.7,4.4,7.6,5.9c-1.2,1.7-1.8,2.9-2.8,5.2
			c-2.4-1.6-3.6-2.5-5.3-4.2v3.1c-1.1-0.1-2.1-0.2-3.4-0.2h-2.4v1.8c0,1.7,0.1,3.2,0.2,4.6h-5.8c0.1-1.4,0.2-2.9,0.2-4.6v-1.8H241
			c-1.3,0-2.3,0.1-3.4,0.2v-3.1c-1.9,1.9-3.1,3-5.2,4.3c-1-2.4-1.5-3.5-2.7-5.1c2.8-1.7,5.1-3.6,7.3-6.3c1.6-1.8,2.4-3,3.6-5.4h-5.5
			c-1.7,0-3,0.1-4.4,0.2v-5.4c1.4,0.2,2.7,0.2,4.4,0.2h8V23c0-1.5-0.1-2.3-0.2-3.2h5.8c-0.2,0.8-0.2,1.7-0.2,3.2v2.1h8.4
			c1.8,0,3.1-0.1,4.4-0.2v5.4c-1.5-0.2-2.7-0.2-4.4-0.2H250.9z M243.2,37.6c0-1.1,0-1.8,0.1-2.9c-1.2,2.3-2.3,3.9-4.1,6.1
			c0.7,0,0.9,0,1.5,0h2.5V37.6z M251.4,40.8c0.7,0,0.9,0,1.3,0c-1.8-2-3-3.8-4.3-6.1c0.1,1.9,0.2,2.3,0.2,2.9v3.2H251.4z"/>
		<path class="st0" d="M263.7,35.4c0.5-2.6,0.8-4.7,0.8-7.3c0-0.4,0-0.9,0-1.6l2.9,0.5c0,0.6,0,1.1,0,1.3c0,2.9-0.2,5.9-0.7,8.3
			L263.7,35.4z M272.8,47.8c0,1.9,0,2.8,0.2,4h-5.3c0.1-1.3,0.2-2.9,0.2-4.7V23.5c0-1.7,0-2.7-0.2-3.8h5.3c-0.1,1.2-0.2,2-0.2,3.8v3
			l1.7-0.6c0.8,1.7,1.3,2.9,1.7,4.4c0.6,0,1.1,0,2,0h4.3v-1h-3.7c-1.3,0-1.7,0-2.6,0.1v-3.2c0.9,0.1,1.3,0.1,2.7,0.1h3.7v-0.9h-3.7
			c-2.1,0-2.6,0-3.6,0.1v-3.9c1.1,0.1,1.8,0.2,3.9,0.2h3.4c0-1,0-1.4-0.2-2.1h5.2c-0.1,0.7-0.2,1.2-0.2,2.1h4.1c2,0,2.7,0,3.7-0.2
			v3.9c-1-0.1-1.9-0.1-3.6-0.1h-4.2v0.9h4.3c1.4,0,1.7,0,2.5-0.1v3.2c-0.8-0.1-1.2-0.1-2.6-0.1h-4.2v1h5c1.7,0,2.4,0,3.4-0.2v3.9
			c-1.1-0.1-1.7-0.2-3.4-0.2h-14.2c-1.7,0-2.3,0-3.4,0.2v-2.7l-1.1,0.5c-0.3-1.4-0.5-2.2-0.9-3.2V47.8z M280.6,47.7
			c0,1.7,0.1,2.9,0.2,4.1h-5.3c0.2-1.1,0.2-2,0.2-4.1v-10c0-1,0-1.9-0.1-2.8c0.9,0.1,1.1,0.1,2.3,0.1h13.5c1.5,0,2.2,0,3-0.1
			c-0.1,0.9-0.1,1.8-0.1,3.3v9.5c0,3.1-1.2,4-5.6,4c-0.6,0-1.2,0-2.6-0.1c-0.2-1.6-0.4-2.6-1-4.2c1.2,0.2,2.2,0.2,2.9,0.2
			c1.1,0,1.3-0.1,1.3-0.7v-0.7h-8.6V47.7z M289.2,39.2v-1h-8.6v1H289.2z M289.2,43.1v-1h-8.6v1H289.2z"/>
		<path class="st0" d="M310.1,28.4c1.5,0,2.3,0,3.2-0.2V33c-0.5-0.1-0.9-0.1-1.5-0.1c-0.4,1.6-0.5,1.8-0.8,2.8c1,0,1.6,0,2.3-0.1
			v4.8c-1.1-0.1-1.8-0.2-3.2-0.2h-1.7V42h1.4c1.4,0,2.2,0,3.1-0.1v4.8c-1-0.1-1.7-0.2-3.1-0.2h-1.4V48c0,1.7,0,2.7,0.2,3.8h-5.2
			c0.2-1.2,0.2-2,0.2-3.8v-1.6h-1.4c-1.4,0-2.1,0-3.1,0.2v-4.8c1,0.1,1.7,0.1,3.1,0.1h1.4v-1.8h-2c-1.4,0-2.2,0-3.2,0.2v-4.8
			c0.8,0.1,1.3,0.1,2.5,0.1c-0.2-1.1-0.4-1.8-0.7-2.8c-0.8,0-1.2,0.1-1.8,0.1v-4.8c1,0.1,1.7,0.2,3.2,0.2h2v-1.6h-1.4
			c-1.3,0-2.1,0-3.1,0.1v-4.8c1,0.1,1.6,0.2,3.1,0.2h1.4v-0.3c0-1-0.1-1.7-0.2-2.2h5.2c-0.2,0.6-0.2,1.2-0.2,2.2v0.3h1.2
			c1.5,0,2.1,0,3.1-0.2v4.8c-1.1-0.1-1.8-0.1-3.1-0.1h-1.2v1.6H310.1z M306.7,35.7c0.3-1,0.4-1.7,0.7-2.8h-2.7
			c0.3,1.1,0.4,1.7,0.6,2.8H306.7z M329.7,34c-0.1,0.5-0.2,0.8-0.4,1.7c-0.6,2.8-1.5,5.8-2.5,7.9c1.3,1.2,2,1.8,3.9,2.9
			c-1.4,2.1-1.9,3.2-2.7,5.2c-1.7-1.4-2.4-2-3.9-3.7c-1.1,1.5-1.9,2.3-3.4,3.7c-0.7-1.5-1.1-2.3-1.9-3.4c0,1.5,0.1,2.3,0.2,3.5h-5.3
			c0.1-1.4,0.2-2.6,0.2-4.7V24.4c0-1.2-0.1-2.8-0.1-3.7c1,0.1,1.9,0.1,3.1,0.1h8.9c1.6,0,2.9-0.1,3.4-0.2c-0.1,1.3-0.1,1.3-0.2,3.3
			c-0.2,4-0.4,5.1-1.2,5.9c-0.6,0.7-1.7,1-3.9,1c-0.7,0-1.5,0-2.9-0.1c-0.1-1.4-0.4-2.5-0.9-4c1.4,0.2,2.3,0.3,3.1,0.3
			s0.9-0.2,0.9-1.7h-5.4v6.3h5.2c1.9,0,2.9,0,3.7-0.2L329.7,34z M318.9,46.6c0.9-0.7,1.7-1.6,2.5-2.6c-1.1-2-1.9-3.8-2.5-6.1V46.6z
			 M322.4,36c0.4,1.3,0.8,2.3,1.4,3.6c0.4-1.3,0.6-1.9,1-3.6H322.4z"/>
		<path class="st0" d="M333.6,23.3c1.5,0.3,3.5,0.5,7,0.5c0.2,0,0.5,0,1,0c0.7-1.6,0.9-2.5,1.1-3.8l6.2,0.5
			c-0.3,0.5-0.3,0.5-0.7,1.6c-0.4,1-0.6,1.5-0.7,1.6c0.3,0,0.3,0,2.1-0.1c3.3-0.2,6.8-0.6,8.6-1.1l0.2,5.4c-1.1,0.1-2.1,0.2-3.1,0.3
			c-2.4,0.2-6.7,0.5-10.1,0.6c-0.6,1-0.8,1.4-1.6,2.5c1.5-0.7,2.9-1,4.3-1c2.8,0,4.5,1.1,5.2,3.3c0.6-0.2,0.6-0.2,2.4-0.8
			c0.1,0,1-0.3,2.1-0.7c1.9-0.6,2.2-0.7,2.7-1l2.1,5.4c-1.8,0.2-5.4,1.2-8.7,2.3c0,0.9,0,1,0,2.4c0,1.5,0,2,0.1,2.9l-5.5,0.2
			c0.1-0.5,0.1-1.6,0.2-3.6l-0.3,0.1c-1.6,0.7-1.8,0.9-2.4,1.4c-0.6,0.5-0.9,1.1-0.9,1.7c0,1.3,1.3,1.8,4.6,1.8
			c4.1,0,8-0.6,10.9-1.7l0.4,6.1c-1,0-1,0-3,0.3c-2.7,0.3-5.5,0.5-8.2,0.5c-3.8,0-6.3-0.5-8.1-1.6c-1.7-1-2.7-2.8-2.7-4.8
			c0-1.6,0.5-2.9,1.7-4.3c1.3-1.5,2.8-2.6,4.9-3.6c0.8-0.4,1.2-0.5,2.5-1.2c-0.3-0.6-0.7-0.9-1.4-0.9c-1.7,0-4.1,1.2-6.5,3.3
			c-1.4,1.3-2.3,2.2-3.3,3.4l-4.3-4.3c1.1-0.8,2.5-2.2,3.6-3.5c0.7-0.9,2.1-2.9,2.6-3.7c0.5-0.8,0.5-0.8,0.6-1.1c-0.5,0-0.9,0-1.1,0
			c-1.5,0-1.5,0-2.9,0c-0.5,0-0.7,0-1.2,0c-0.1,0-0.3,0-0.5,0L333.6,23.3z"/>
		<path class="st0" d="M374.3,25.9c-1.2,0-2.4,0.1-3.9,0.2v-5.4c1.2,0.2,2,0.2,3.8,0.2h6.3c1.2,0,2.1,0,3-0.1c0,1-0.1,1.5-0.1,2.2
			c0,5.3,1.5,10.6,4.4,14.9c2.2,3.5,5.4,6.4,9.4,8.6c-1.7,1.7-2.6,3-3.7,5.4c-2.9-2-4.8-3.6-6.9-6.2c-2.8-3.4-4.3-6.1-5.5-10.1
			c-1.4,4.1-2.7,6.6-5,9.5c-2.1,2.6-4.4,4.6-8,6.8c-1.1-2.1-2-3.3-3.6-4.9c2.7-1.5,4.1-2.5,5.8-4.1c2.9-2.8,5.1-6.4,6.3-10.3
			c0.6-2.1,0.9-3.8,1.1-6.6H374.3z"/>
		<path class="st0" d="M424,26.4c2.2,0,3.5,0,4.8-0.2c-0.1,1.4-0.2,1.8-0.2,3.6c-0.1,7.4-0.5,13.9-1,16.7c-0.3,1.7-1.1,3.1-2.2,3.7
			c-1.1,0.6-2.7,0.9-4.9,0.9c-1.2,0-2.2,0-4.4-0.2c-0.3-2.4-0.6-3.9-1.4-5.7c2.1,0.3,3.3,0.4,4.6,0.4c1.8,0,2.4-0.2,2.8-1
			c0.5-1.4,0.9-6.1,0.9-12.9h-7.8c-0.7,6-2.1,9.9-4.7,13.3c-1.9,2.5-4.5,4.7-8.2,6.7c-1.3-2.2-2.2-3.6-3.9-5.1
			c4.2-1.9,6.9-4,8.7-6.9c1.4-2.2,2-4.4,2.4-8h-5.2c-1.5,0-3,0.1-4.2,0.2v-5.7c1.4,0.2,2.7,0.2,4.4,0.2h5.4c0-1,0-1.3,0-2
			c0-2-0.1-3.1-0.2-4.2h6.4c-0.2,1-0.2,1-0.3,5c0,0.4,0,0.5,0,1.2H424z"/>
	</g>
</g>
<rect x="6.9" y="2" class="st4" width="92" height="69.5"/>
<rect x="98.9" y="2" class="st4" width="430.3" height="69.5"/>
<g>
	<path class="st0" d="M465.1,288.4c8.8-1.4,16.9-2.3,24.9-4.2c6.6-1.5,12.1-5.3,15.8-11.4c0.9-1.6,3-3,4.8-3.6c6.6-2,9.7-6.3,9-13.2
		c-0.1-1.3,0.3-2.7,0.5-4c0.5-2.6,1-5.2,1.6-7.8c0.3-1.3,0.2-2.9,0.9-3.9c6.4-9.5,6.4-11-0.4-19.8c5.1-7.2,5.5-15.1,2.7-23.2
		c-3.6-10.5-9.9-19.1-18.4-26.2c-12.6-10.5-26.6-12.1-41.3-5.4c-3.5,1.6-6.1,1.7-9.6-0.1c-16.9-8.7-27.3-4.5-33.9,13.3
		c-21.4,2.6-31.4,28.1-19.3,46.7c-1.3,3-3.2,5.4-3.5,8c-0.7,6.1,3.1,10.3,7.4,13.8c-1,1.6-1.8,2.7-2.4,4c-3.4,7.2-5,15,1.1,20.9
		c5.5,5.3,6.5,11.5,7.6,18.1c0.7,4.4,0.5,8.5-1.1,13c-1.8,5.1-2.4,10.8-2.4,16.3c0,7.8,5.2,11.4,12.8,9.5c3.7-0.9,7.2-2.6,11.5-4.2
		c-2.2,9.5-4.4,18.4-6.6,27.9c20.1,0,39.5,0,59-0.1c1,0,2.7-0.9,2.7-1.3c-0.1-3.9,3.3-3.9,5.5-5.4c1.8-1.1,3.7-2.7,4.8-4.5
		c2.6-4.3,1.2-6.8-3.7-7.1c-0.7,0-1.8-0.3-1.9-0.7c-0.2-0.7-0.1-1.8,0.4-2.5c0.9-1.3,2.2-2.3,3.1-3.6c4.9-6.7,5-11.3-1.4-16.5
		c-8.7-7.1-18.2-13.2-27.2-19.8C466.8,290.6,465.9,289.3,465.1,288.4z"/>
	<path d="M465.1,288.4c0.8,0.9,1.7,2.2,2.9,3.1c9.1,6.6,18.5,12.8,27.2,19.8c6.4,5.2,6.4,9.8,1.4,16.5c-0.9,1.3-2.2,2.3-3.1,3.6
		c-0.4,0.6-0.6,1.7-0.4,2.5c0.1,0.4,1.2,0.7,1.9,0.7c4.9,0.3,6.4,2.8,3.7,7.1c-1.1,1.8-2.9,3.3-4.8,4.5c-2.2,1.4-5.6,1.5-5.5,5.4
		c0,0.5-1.8,1.3-2.7,1.3c-19.5,0.1-39,0.1-59,0.1c2.3-9.5,4.4-18.4,6.6-27.9c-4.2,1.6-7.8,3.2-11.5,4.2c-7.7,2-12.9-1.7-12.8-9.5
		c0-5.5,0.6-11.2,2.4-16.3c1.6-4.5,1.9-8.6,1.1-13c-1.1-6.6-2.1-12.8-7.6-18.1c-6.1-5.8-4.4-13.7-1.1-20.9c0.6-1.3,1.5-2.4,2.4-4
		c-4.3-3.6-8.1-7.8-7.4-13.8c0.3-2.6,2.1-5,3.5-8c-12.2-18.6-2.1-44.1,19.3-46.7c6.6-17.8,17.1-22,33.9-13.3c3.5,1.8,6,1.7,9.6,0.1
		c14.8-6.7,28.8-5.2,41.3,5.4c8.4,7.1,14.8,15.7,18.4,26.2c2.7,8.1,2.4,15.9-2.7,23.2c6.9,8.8,6.8,10.3,0.4,19.8
		c-0.7,1-0.7,2.6-0.9,3.9c-0.5,2.6-1.1,5.2-1.6,7.8c-0.2,1.3-0.6,2.7-0.5,4c0.7,6.8-2.4,11.2-9,13.2c-1.8,0.5-3.9,2-4.8,3.6
		c-3.6,6.2-9.1,9.9-15.8,11.4C482.1,286,473.9,286.9,465.1,288.4z M461.7,285.8c2.4,0,4.2,0,6.1,0c8.5,0.2,16.8-0.7,24.6-4.2
		c8.5-3.9,12.5-10.4,12.1-19.7c-0.1-2.2-0.3-4.3-0.5-6.8c1.5,0.1,2.5,0,3.5,0.2c6.8,1.1,11.3-2.7,11-9.5c-0.2-4.8-2.9-6.7-7.3-4.8
		c-1.5,0.6-3.1,1.4-4.3,1.9c-3.4-6-6.5-11.6-9.3-16.5c-5.3-2-11.4-2.8-15.2-6.2c-3.8-3.5-5.3-9.5-8.2-15
		c-13.2,1.3-26.1-0.9-33.9-15.3c-16,10.3-26.3,23.9-29.3,42.4c-1.3,8.2-1.2,16.4-5.5,24.2c-3.5,6.4-0.9,13,3.6,16.3
		c1.1-1.4,2-3.7,3.3-3.9c1.5-0.2,3.7,0.9,4.8,2.2c1.6,1.9,2.5,4.3,3.5,6.6c1,2.3,1.5,4.6,5,2.3c1.2-0.8,3.9,0.5,5.8,1.2
		c1.5,0.5,2.7,2.1,4.2,2.2c6.6,0.9,13.2,1.4,19.9,2.1c0,2.4,0,4.5,0,6.9c2.4,0,4.5,0,6.8,0C462.3,290.3,462.1,288.4,461.7,285.8z
		 M449.9,294.2c-0.7-0.2-1.4-0.4-2.1-0.5c-8.2,18.1-11.6,37.8-16.8,57.5c18.1,0,35.6,0,54.2,0c-5.7-19.3-11.2-37.6-16.7-56
		c-1.2,3.4-1,6.8-1.8,9.9c-0.4,1.6-2.7,3.5-4.3,3.8c-3.2,0.5-6.6-0.2-9.9-0.3c-3.6-0.2-4.6-2.3-4.2-5.5
		C448.8,300,449.4,297.1,449.9,294.2z M414.9,302.8c-3.3,6-4.3,12.6-2.3,19.1c0.8,2.4,3.5,5.1,5.9,6.1c4,1.6,15.5-5.3,16.8-9.5
		c2-6.4,3.9-12.9,6.1-20.4c-5.9,3.8-13.2,4.9-12.2,13.8c0.1,0.8-1.3,1.8-2,2.8c-0.4-0.2-0.7-0.4-1.1-0.6c0.2-3.4,0.3-6.8,0.5-10.1
		C422.3,303.3,418.7,303,414.9,302.8z M484.8,334.1c6.5-1.4,8.6-6.7,10.9-11.3c1-1.9,0.8-5.9-0.6-7.3c-6.3-6.1-13.2-11.7-19.9-17.4
		c-0.4,0.4-0.9,0.8-1.3,1.3c4.2,7.2,2.3,17.2,10.9,22.8c-1.1,0.4-2.1,0.7-3.4,1.1C482.6,326.9,483.7,330.4,484.8,334.1z M415.4,272
		c-0.5,0.1-1.1,0.2-1.6,0.3c-0.1,0.7-0.3,1.5-0.2,2.2c0.9,8,1.7,16,3,23.9c0.2,1.2,2.6,2.7,4,2.8c2.1,0.2,6-0.6,6.1-1.4
		c0.5-3.8,0.1-7.8-0.3-11.7c0-0.5-2.2-0.8-3.4-1c-1-0.2-2.1-0.2-2.7-0.3C418.6,281.8,417,276.9,415.4,272z M430.9,301.2
		c6.6-3.3,13.6-6.8,20.5-10.4c0.7-0.4,1.5-2.1,1.2-2.7c-0.4-0.9-1.7-1.8-2.7-1.9c-5-0.5-10.1-0.6-15.2-1.1c-3.2-0.3-3.8,1.4-3.9,3.9
		C430.9,293.1,430.9,297.1,430.9,301.2z M462.4,306.2c0.3-3.7,0.5-7.5,0.8-11.2c-10-0.9-11.5,0.8-9.7,11.2
		C456.2,306.2,459,306.2,462.4,306.2z M496.4,336.2c-1.4,0.7-2.8,1.4-4.3,2.1c-0.9-1.3-1.7-2.3-2.6-3.6c-1.5,0.6-2.8,1.2-4.6,1.9
		c2.7,3.1,0.1,8.9,5.5,9.5C493.8,346.4,496.6,341.3,496.4,336.2z"/>
	<path class="st0" d="M461.7,285.8c0.3,2.6,0.6,4.5,0.8,6.7c-2.3,0-4.4,0-6.8,0c0-2.3,0-4.5,0-6.9c-6.8-0.7-13.4-1.3-19.9-2.1
		c-1.5-0.2-2.7-1.7-4.2-2.2c-1.9-0.7-4.6-1.9-5.8-1.2c-3.5,2.2-4-0.1-5-2.3c-1-2.3-2-4.8-3.5-6.6c-1.1-1.3-3.3-2.4-4.8-2.2
		c-1.3,0.2-2.2,2.5-3.3,3.9c-4.5-3.3-7.2-9.9-3.6-16.3c4.3-7.8,4.2-16,5.5-24.2c3-18.5,13.3-32.1,29.3-42.4
		c7.8,14.4,20.7,16.5,33.9,15.3c2.8,5.5,4.3,11.5,8.2,15c3.8,3.4,9.9,4.2,15.2,6.2c2.7,4.9,5.9,10.5,9.3,16.5
		c1.3-0.6,2.8-1.3,4.3-1.9c4.4-1.8,7.1,0,7.3,4.8c0.2,6.8-4.2,10.6-11,9.5c-1-0.2-2.1-0.1-3.5-0.2c0.2,2.5,0.5,4.7,0.5,6.8
		c0.4,9.3-3.6,15.8-12.1,19.7c-7.8,3.5-16.2,4.4-24.6,4.2C465.9,285.8,464.1,285.8,461.7,285.8z M469.7,232.9
		c3.3,0.3,6.8,0.8,10.2,0.7c1.2,0,2.3-1.6,3.5-2.5c-1-1-1.9-2.6-3.1-2.8c-2.4-0.5-5-0.2-7.5-0.4C469,227.7,468.5,229.6,469.7,232.9z
		 M438.8,249.4c7.5,11.4,24,9.8,31.5-2.7c-3.3,1.7-6.5,3.5-9.5,5.6c-6,4.3-11.7,4-17.4-0.7C442.1,250.7,440.3,250.2,438.8,249.4z
		 M426.7,233.9c4,0,7.8,0.1,11.5-0.1c0.8-0.1,2.2-1.7,2.1-2.3c-0.2-1-1.4-2.5-2.3-2.6c-2.6-0.4-5.4-0.1-8.1-0.1
		C426.6,228.8,425.3,230.2,426.7,233.9z M489.7,234.2c-3.3,1.7-8.5,3.5-8.3,4.4c0.8,4.6,5.3,3.5,8.4,3.2c2.7-0.3,5.3-2.1,8-3.3
		C495.2,237.2,492.7,235.8,489.7,234.2z M454.6,232.4c-3.4,2.2-6.6,4.3-10.2,6.6c0.1,4.6,2.2,6.7,6.4,5.6c-1.1-1.8-2.2-3.6-3.4-5.6
		C455.2,238.4,455.3,238.2,454.6,232.4z M436.2,216.4c9,1.9,11.2,1.4,11.5-2.4c0.2-2,1-4.9-2.8-5c-0.5,2.4-0.3,5.5-1.7,6.5
		C441.6,216.7,438.6,216.2,436.2,216.4z M478,242.2c-3.1,0-5.1,0-7.1,0c0,0.2-0.1,0.5-0.1,0.7c1,0.3,2.1,0.6,3.1,0.9
		c0,1.9,0,3.5,0,5.2c0.5,0.2,1,0.3,1.5,0.5C476.2,247.4,477,245.2,478,242.2z M472.6,215.7c0.1-0.6,0.1-1.2,0.2-1.8
		c-1.7,0.1-3.4,0.4-5.1,0.3c-1.1-0.1-2.2-0.6-3.1-1.2c-0.7-0.5-1.1-1.4-1.7-2.1c-0.5,0.7-1.5,1.5-1.4,2c0.3,1,1.1,2.6,1.9,2.7
		C466.5,215.8,469.5,215.7,472.6,215.7z"/>
	<path class="st0" d="M449.9,294.2c-0.5,2.9-1.1,5.8-1.5,8.8c-0.4,3.1,0.6,5.3,4.2,5.5c3.3,0.2,6.7,0.8,9.9,0.3
		c1.6-0.2,3.9-2.2,4.3-3.8c0.8-3.1,0.6-6.4,1.8-9.9c5.5,18.4,10.9,36.7,16.7,56c-18.6,0-36.1,0-54.2,0c5.2-19.7,8.5-39.3,16.8-57.5
		C448.5,293.8,449.2,294,449.9,294.2z"/>
	<path class="st0" d="M414.9,302.8c3.9,0.4,7.4,0.7,11.6,1.1c-0.2,3.3-0.3,6.7-0.5,10.1c0.4,0.2,0.7,0.4,1.1,0.6
		c0.7-0.9,2.1-1.9,2-2.8c-1-8.9,6.4-10,12.2-13.8c-2.2,7.5-4,14-6.1,20.4c-1.3,4.2-12.8,11.1-16.8,9.5c-2.4-1-5.1-3.6-5.9-6.1
		C410.5,315.2,411.5,308.8,414.9,302.8z"/>
	<path class="st0" d="M484.8,334.1c-1.2-3.7-2.2-7.2-3.4-10.9c1.2-0.4,2.2-0.7,3.4-1.1c-8.7-5.6-6.8-15.6-10.9-22.8
		c0.4-0.4,0.9-0.8,1.3-1.3c6.7,5.7,13.6,11.3,19.9,17.4c1.4,1.3,1.5,5.3,0.6,7.3C493.4,327.4,491.4,332.8,484.8,334.1z"/>
	<path class="st0" d="M415.4,272c1.6,4.8,3.2,9.7,4.9,14.9c0.6,0.1,1.7,0.1,2.7,0.3c1.2,0.2,3.3,0.5,3.4,1c0.4,3.9,0.8,7.9,0.3,11.7
		c-0.1,0.8-4,1.6-6.1,1.4c-1.5-0.1-3.9-1.7-4-2.8c-1.3-7.9-2.1-15.9-3-23.9c-0.1-0.7,0.2-1.5,0.2-2.2
		C414.4,272.3,414.9,272.1,415.4,272z"/>
	<path class="st0" d="M430.9,301.2c0-4.1,0-8.1,0-12.1c0-2.5,0.7-4.2,3.9-3.9c5,0.5,10.1,0.6,15.2,1.1c1,0.1,2.3,1,2.7,1.9
		c0.3,0.6-0.5,2.3-1.2,2.7C444.5,294.4,437.5,297.9,430.9,301.2z"/>
	<path class="st0" d="M462.4,306.2c-3.4,0-6.2,0-8.9,0c-1.8-10.4-0.3-12.2,9.7-11.2C462.9,298.8,462.7,302.5,462.4,306.2z"/>
	<path class="st0" d="M496.4,336.2c0.2,5.1-2.6,10.2-6.1,9.9c-5.4-0.6-2.7-6.4-5.5-9.5c1.8-0.8,3.2-1.3,4.6-1.9
		c0.9,1.3,1.7,2.4,2.6,3.6C493.7,337.6,495,336.9,496.4,336.2z"/>
	<path d="M469.7,232.9c-1.2-3.4-0.7-5.2,3-5.1c2.5,0.1,5.1-0.2,7.5,0.4c1.2,0.2,2.1,1.9,3.1,2.8c-1.2,0.9-2.3,2.5-3.5,2.5
		C476.5,233.7,473.1,233.2,469.7,232.9z"/>
	<path d="M438.8,249.4c1.5,0.7,3.3,1.2,4.6,2.3c5.7,4.7,11.3,5,17.4,0.7c3-2.1,6.2-4,9.5-5.6C462.8,259.2,446.3,260.8,438.8,249.4z"
		/>
	<path d="M426.7,233.9c-1.5-3.8-0.1-5.2,3.2-5.1c2.7,0,5.4-0.2,8.1,0.1c0.9,0.1,2.1,1.6,2.3,2.6c0.1,0.6-1.3,2.2-2.1,2.3
		C434.5,234.1,430.7,233.9,426.7,233.9z"/>
	<path d="M489.7,234.2c3,1.6,5.5,3,8.1,4.3c-2.7,1.2-5.2,3-8,3.3c-3.1,0.3-7.6,1.4-8.4-3.2C481.2,237.7,486.4,235.9,489.7,234.2z
		 M484.7,237.9c0,0.6,0,1.2,0,1.8c3.1,0,6.2,0,9.3,0c0-0.6,0-1.2,0-1.8C490.9,237.9,487.8,237.9,484.7,237.9z"/>
	<path d="M454.6,232.4c0.7,5.9,0.6,6-7.2,6.6c1.2,2,2.3,3.8,3.4,5.6c-4.2,1.1-6.3-1-6.4-5.6C448,236.7,451.2,234.7,454.6,232.4z"/>
	<path d="M436.2,216.4c2.4-0.2,5.4,0.3,7.1-0.9c1.4-1,1.2-4.1,1.7-6.5c3.7,0.1,2.9,3,2.8,5C447.4,217.8,445.2,218.4,436.2,216.4z"/>
	<path d="M478,242.2c-1.1,3-1.8,5.1-2.6,7.2c-0.5-0.2-1-0.3-1.5-0.5c0-1.6,0-3.2,0-5.2c-1-0.3-2-0.6-3.1-0.9c0-0.2,0.1-0.5,0.1-0.7
		C473,242.2,475,242.2,478,242.2z"/>
	<path d="M472.6,215.7c-3.1,0-6.1,0.2-9.2-0.1c-0.7-0.1-1.6-1.6-1.9-2.7c-0.1-0.5,0.9-1.4,1.4-2c0.6,0.7,1,1.6,1.7,2.1
		c0.9,0.6,2,1.1,3.1,1.2c1.7,0.1,3.4-0.2,5.1-0.3C472.7,214.4,472.7,215.1,472.6,215.7z"/>
	<path class="st0" d="M484.7,237.9c3.1,0,6.2,0,9.3,0c0,0.6,0,1.2,0,1.8c-3.1,0-6.2,0-9.3,0C484.7,239.1,484.7,238.4,484.7,237.9z"
		/>
</g>
<g class="st3">
	<path d="M26.3,140.6c0,2.3-1.8,4.1-4.1,4.1c-2.3,0-4.1-1.8-4.1-4.1c0-2.3,1.8-4.1,4.1-4.1C24.5,136.5,26.3,138.3,26.3,140.6z"/>
	<path d="M32.9,139.2c-1.4,0-2.1,0-3,0.1v-3.8c0.7,0.1,1.6,0.1,3,0.1h1.6V134h-0.9c-1.1,0-1.8,0-2.6,0.1v-3.7
		c0.8,0.1,1.3,0.1,2.6,0.1h0.9v-0.4c0-0.6,0-1.2-0.1-2h4.2c-0.1,0.6-0.1,1.1-0.1,2v0.4h0.2c0.8,0,1.3,0,1.7-0.1v1.9
		c0.6-1,1.1-2.1,1.5-3.2l2.4,1.6c0-0.7,0-1.3-0.1-1.9c0.6,0.1,1.3,0.1,2.5,0.1h4.4c1.2,0,1.7,0,2.3-0.1l1.7,2.6
		c-0.2,0.4-0.2,0.4-0.9,2.3c-0.5,1.4-0.9,2.6-1.9,4.9c1.2,1.7,1.6,2.5,2.1,3.9c0.3,1.1,0.5,2,0.5,3c0,1.8-0.3,2.7-1.1,3.4
		c-0.8,0.7-2.1,1.1-4,1.1c-0.1,0-0.4,0-0.6,0c-0.1-2.1-0.3-2.7-0.9-3.9v3.7c0,1.4,0.1,2.6,0.2,3.6h-4.3c0.1-0.8,0.1-2,0.1-3.7v-17
		c-0.7,1.3-1.2,2.2-2,3.4c0.6,0,0.9-0.1,1.3-0.1v3.6c-0.6-0.1-1.4-0.1-2.6-0.1h-1.3c-0.5,0.5-0.8,0.8-1.2,1.2H41
		c0.9,0,1.4,0,1.9-0.1c-0.1,0.8-0.1,1.4-0.1,2.9v6.7c0,1.3,0,2,0.1,2.9h-3.8V152h-3.3v1.2h-3.8c0.1-0.8,0.1-1.6,0.1-3.1v-4.4
		c-0.3,0.2-0.6,0.4-1.4,0.9c-0.4-1.6-0.8-2.7-1.5-3.9c2.1-1,3.5-1.9,5.5-3.5H32.9z M35.9,144.7h3.2v-1.2h-3.2V144.7z M35.9,148.8
		h3.2v-1.3h-3.2V148.8z M38.6,135.7c0.5-0.6,0.9-1.1,1.3-1.7c-0.2,0-0.4,0-0.6,0h-1.1v1.7H38.6z M48.3,145.7c0.4,0,0.7,0.1,0.9,0.1
		c1.1,0,1.6-0.4,1.6-1.3c0-0.8-0.2-1.9-0.5-2.8c-0.4-1-0.8-1.7-1.7-3c0.9-2.1,1.5-3.9,2.1-6.2h-2.3V145.7z"/>
	<path d="M56.8,137.8c0.7,0.1,1.1,0.1,2.2,0.1h2.5c0.9,0,1.4,0,2.1-0.1c-0.1,0.9-0.1,1.3-0.1,3v5.8c0.7,1,1.2,1.4,2.3,1.6
		c1.4,0.3,3.1,0.4,6.5,0.4c3.9,0,7-0.2,9.7-0.5c-0.6,1.6-0.8,2.4-1,4.2c-3.2,0.1-7.1,0.1-9.7,0.1c-3.7,0-5.9-0.3-7.4-0.9
		c-0.9-0.4-1.4-0.8-2.3-1.7c-1,1-1.8,1.7-3.1,2.5c-0.2,0.1-0.3,0.2-0.5,0.4l-1.8-4.3c0.8-0.2,1.8-0.9,3.4-2v-4.8h-1.2
		c-0.6,0-0.9,0-1.7,0.1V137.8z M67.2,130.7c-0.5-0.9-0.7-1.2-1.2-1.9l3.9-0.9c0.8,1.2,1.1,1.7,1.6,2.8h1.9c0.7-1,1-1.7,1.4-2.8
		l4.1,0.7c-0.6,0.9-0.7,1.3-1.3,2h1c1.2,0,1.8,0,2.7-0.2v3.6c-0.9-0.1-1.6-0.1-2.7-0.1h-4.1c-0.3,0.5-0.3,0.7-0.5,0.9h3.6
		c1.2,0,1.8,0,2.2-0.1c-0.1,0.6-0.1,1.2-0.1,2.4v8.1c0,1,0,1.6,0.1,2.4c-0.2,0-0.2,0-0.7,0c-0.1,0-1.3,0-1.4,0H67.7
		c-0.2,0-0.9,0-2.3,0.1c0.1-0.6,0.1-1.6,0.1-2.5v-8c0-0.9,0-1.7-0.1-2.4c0.8,0.1,1.2,0.1,2.4,0.1h2.1c0.2-0.5,0.3-0.6,0.5-0.9h-3.5
		c-1.1,0-2,0-2.7,0.1v-1l-3,2.9c-1.4-1.9-2.7-3.3-4.8-5l3-2.8c2.3,1.9,3.7,3.3,4.7,4.7v-2.4c0.7,0.1,1.5,0.2,2.8,0.2H67.2z
		 M69.3,138.7h6.6v-0.9h-6.6V138.7z M69.3,141.7h6.6v-0.8h-6.6V141.7z M69.3,144.9h6.6V144h-6.6V144.9z"/>
	<path d="M95.2,138.1c-0.3,0.5-0.4,0.7-0.8,1.3v10.8c0,1.4,0,2.2,0.1,2.9h-4.3c0.1-0.9,0.2-1.7,0.2-3.1V147c0-1.4,0-2,0.1-2.5
		c-0.4,0.5-0.6,0.8-1,1.2c-0.3-0.9-0.5-1.2-0.7-1.8c-0.4,4.3-1.1,6.9-2.7,9.3c-1.4-1.6-1.8-2.1-3.4-3.2c1.1-2,1.6-3.5,1.9-6.6
		c0.3-2.5,0.4-5.5,0.4-10.3c0-1.4,0-2.3-0.1-3.3c1.1,0.1,2.1,0.1,3.4,0.1h6.2v-0.6c0-0.6,0-0.9-0.1-1.4h4.4
		c-0.1,0.4-0.1,0.8-0.1,1.4v0.5h6.1c1.6,0,2.8-0.1,3.6-0.2v4.1c-0.9-0.1-1.9-0.1-3.4-0.1H93.5l3.3,0.8c-0.4,1-0.6,1.4-1,2.5
		c0.6,0.1,0.9,0.1,1.7,0.1h4.4v-0.3c0-1.3,0-1.8-0.1-2.5h4.3c-0.1,0.7-0.2,1.2-0.2,2.5v0.3h0.3c1.2,0,1.7,0,2.3-0.1v3.9
		c-0.7-0.1-1.3-0.1-2.4-0.1h-0.2v9.2c0,1.3-0.4,2.1-1.3,2.5c-0.7,0.4-1.7,0.5-3.5,0.5c-0.9,0-1.4,0-2.6-0.1
		c-0.2-1.6-0.5-2.3-1.3-3.9c1.3,0.2,2.6,0.2,3.4,0.2c1,0,1.2-0.1,1.2-0.7v-7.8h-4.1c-1.2,0-1.7,0-2.6,0.1V138.1z M89.2,133.7
		c0,3.7,0,4.3-0.1,6.4c1.7-1.8,3-4.2,3.6-6.4H89.2z M98.4,140.8c1.6,1.9,2.4,3.1,3.4,4.9l-3.4,2.2c-1-2-1.8-3.3-3.3-5.2L98.4,140.8z
		"/>
	<path d="M124.7,149.9c0,1.6,0.1,2.5,0.2,3.3h-4.4c0.1-0.8,0.2-1.8,0.2-3.3v-4.2h-4.4l3.2,1.4c-2,2.6-3.8,4.3-6.4,5.9
		c-1.1-1.4-1.7-2.1-2.8-3.2c1.8-0.8,2.8-1.4,4.2-2.7c0.6-0.6,0.9-0.9,1.3-1.4h-1.2c-1.3,0-2.1,0-2.9,0.1c0.1-0.8,0.1-1.5,0.1-3v-9.5
		c0-1.4,0-2.1-0.1-2.9h4.2c-0.1,0.8-0.1,1.5-0.1,2.9v9h16.1c1.7,0,2.6,0,3.3-0.1v3.8c-0.9-0.1-1.9-0.2-3.3-0.2h-2.1
		c1.7,1.8,2.8,2.6,5.8,3.9c-1.1,1.2-1.6,1.9-2.6,3.4c-1.7-1-2.4-1.5-3.5-2.4c-1.3-1.1-2.1-1.9-3.2-3.4l3-1.5h-4.3V149.9z
		 M132.6,139.1c0,0.9,0,1.7,0.1,2.3c-0.7-0.1-1.5-0.1-2.5-0.1h-10.9c-1,0-1.8,0-2.5,0.1c0.1-0.8,0.1-1.4,0.1-2.4V131
		c0-0.9,0-1.6-0.1-2.3c0.6,0.1,1.4,0.1,2.5,0.1h10.8c1,0,1.8,0,2.4-0.1c-0.1,0.7-0.1,1.4-0.1,2.3V139.1z M120.9,132.4h7.7v-0.9h-7.7
		V132.4z M120.9,135.6h7.7v-0.9h-7.7V135.6z M120.9,138.8h7.7v-0.9h-7.7V138.8z"/>
	<path d="M155.7,140.6c0,2.3-1.8,4.1-4.1,4.1c-2.3,0-4.1-1.8-4.1-4.1c0-2.3,1.8-4.1,4.1-4.1C153.9,136.5,155.7,138.3,155.7,140.6z"
		/>
	<path d="M158.8,140.2c0.4-1.9,0.7-4,0.7-5.9c0-0.1,0-0.6,0-1.1l2.3,0.3c0,3.3-0.2,5.4-0.6,7.6L158.8,140.2z M166.1,149.9
		c0,1.6,0,2.4,0.1,3.4H162c0.1-1,0.2-2.2,0.2-3.7v-18.6c0-1.4,0-2-0.2-3h4.2c-0.1,1-0.1,1.6-0.1,3v2.1l1.5-0.7c0.5,1,0.6,1.3,1,2.8
		c0.4-1.8,0.8-4.2,0.8-5.3c0-0.1,0-0.2,0-0.3l3.9,0.7c-0.1,0.3-0.1,0.7-0.2,1.4c-0.1,0.5-0.1,0.7-0.2,1.5h1.3V131c0-1.3,0-2-0.2-3
		h4.4c-0.1,0.9-0.2,1.6-0.2,3v2.1h2.3c1.4,0,2.4-0.1,3.1-0.2v4.1c-0.9-0.1-1.9-0.2-3.1-0.2h-2.3v3.7h1.8c1.6,0,2.3,0,3.1-0.1v4
		c-0.7-0.1-1.7-0.1-3.1-0.1h-1.8v4.3h2.6c1.4,0,2.6-0.1,3.3-0.2v4.2c-0.9-0.1-2-0.2-3.3-0.2h-10.6c-1.3,0-2.5,0.1-3.3,0.2v-4.2
		c0.7,0.1,2,0.2,3.3,0.2h3.9v-4.3h-2c-0.4,0-1.1,0-2.1,0.1c-0.3,0-0.5,0-1,0.1v-4c0.6,0.1,0.9,0.1,1.6,0.1c-1.2-0.8-1.7-1.1-3.4-1.8
		c0.5-0.8,0.7-1.3,1-2.1l-1.3,0.6c-0.2-1-0.5-2-0.8-3.1V149.9z M172.1,136.9c-0.4,1.8-0.7,2.7-1.2,3.7c0.3,0,0.4,0,0.6,0h2.7v-3.7
		H172.1z"/>
	<path d="M196.7,140.5c1,0,1.8-0.1,2.6-0.1c0,0.5-0.1,0.6-0.1,1.9c0,4.3-0.2,7-0.6,8.4c-0.5,1.8-1.5,2.3-4.3,2.3
		c-0.5,0-1.2,0-2.1-0.1c-0.2-1.7-0.4-2.7-0.8-3.7c-0.8,1.7-1.6,2.7-3.1,4.1c-0.9-1.8-1.4-2.5-2.7-3.8c1.8-1.6,2.6-3.1,3.2-5.8
		c0.3-1.6,0.4-2.7,0.5-5c-1.3,0-1.9,0.1-2.8,0.1c0.1-1.1,0.1-1.8,0.1-3.4v-3.5c0-1.6,0-2.2-0.1-3.3c1,0.1,2.1,0.1,3.6,0.1h5.7
		c1.7,0,2.6,0,3.6-0.1c-0.1,1.1-0.1,1.7-0.1,3.2v3.9c0,2,0,2.6,0.1,3.1c-1-0.1-2-0.1-3.7-0.1h-2.3c0,1.2,0,1.4-0.1,1.8H196.7z
		 M190.6,135h4.7v-2.8h-4.7V135z M192.9,144.1c-0.3,2-0.7,3.3-1.3,4.7c0.8,0.1,1.6,0.2,2,0.2c0.9,0,1.2-0.1,1.4-0.5
		c0.2-0.7,0.3-2,0.3-4.4H192.9z M204.8,130c-0.1,0.9-0.1,1.8-0.1,3.5v9.9c0,1.7,0,2.4,0.1,3.3h-4.2c0.1-0.8,0.1-1.4,0.1-3.2v-10
		c0-1.6,0-2.6-0.1-3.5H204.8z M210.5,128.3c-0.1,1.2-0.2,2.2-0.2,3.9V149c0,1.8-0.4,2.9-1.3,3.3c-0.8,0.4-2.5,0.6-4.7,0.6
		c-0.5,0-1,0-1.9-0.1c-0.3-1.7-0.6-2.7-1.3-4.2c1.8,0.2,2.8,0.2,3.8,0.2c1,0,1.3-0.2,1.3-0.8v-15.9c0-1.2-0.1-2.5-0.2-3.9H210.5z"/>
</g>
<g class="st3">
	<path d="M26.3,184.4c0,2.3-1.8,4.1-4.1,4.1c-2.3,0-4.1-1.8-4.1-4.1c0-2.3,1.8-4.1,4.1-4.1C24.5,180.3,26.3,182.1,26.3,184.4z"/>
	<path d="M33.9,182.1c0-0.2,0-0.3,0-0.5c-0.6,0.7-0.9,0.9-1.6,1.6c-0.9-1.7-1.5-2.5-2.7-3.5c2.5-2,4-3.8,5.1-6.2
		c0.4-0.8,0.6-1.4,0.7-1.9l4.4,0.8c-0.2,0.5-0.3,0.5-0.6,1.2c-0.1,0.3-0.2,0.5-0.4,0.9h11.8c1.4,0,2.2-0.1,3.1-0.2v4.1
		c-0.9-0.1-1.8-0.2-3.1-0.2h-4.8v2.6h3.7c1.4,0,2.2,0,3.1-0.1v3.9c-0.9-0.1-1.7-0.1-3-0.1h-3.9v3.5h5.6c1.3,0,2.3-0.1,3.2-0.2v4.2
		c-1-0.1-1.9-0.2-3.2-0.2h-5.6v2.2c0,1.6,0,2.3,0.2,3.2h-4.5c0.1-0.9,0.2-1.7,0.2-3.3v-2.2h-8.3c-1.3,0-2.3,0.1-3.2,0.2v-4.2
		c0.9,0.1,1.9,0.2,3.2,0.2h0.6V182.1z M36.7,178.1c-0.8,1.1-1.2,1.6-2,2.5c0.4,0,0.6,0,1,0h5.9v-2.6H36.7z M41.6,187.8v-3.5h-3.7
		v3.5H41.6z"/>
	<path d="M68,177.3c0.7,0,1,0,1.4-0.1v0.2c1.6-1.6,2.7-3.4,3.3-5.4h4.1c1.1,2.6,3,4.7,5.4,6.1c-0.9,1.6-1.3,2.3-1.8,4.1
		c-0.9-0.7-1.2-0.9-1.8-1.5v1.9c-0.6-0.1-0.8-0.1-2.2-0.1h-2.4c-1.1,0-1.6,0-2.3,0.1v-2.1c-0.5,0.6-0.9,0.9-1.6,1.5
		c-0.4-0.7-0.5-0.9-0.9-1.5c-0.5,0-0.8,0-1.1,0h-8c-1.5,0-2.2,0-3.2,0.1v-3.4c0.5,0.1,0.7,0.1,1.3,0.1v-1.7c0-1.2,0-1.6-0.1-2.4h3.5
		c-0.1,0.6-0.1,0.9-0.1,2.4v1.7h1v-2.5c0-1.5,0-2-0.2-2.9H66c-0.1,0.6-0.1,0.9-0.1,1.6H67c0.9,0,1.3,0,2-0.1v2.9
		c-0.6-0.1-1-0.1-2.1-0.1h-1.1v1H68z M66.4,182c0-0.4,0-0.6-0.1-1h3.1c-0.1,0.7-0.1,1.4-0.1,2.4V194c0,1.6,0,2,0.1,2.8h-3.5v-0.9
		h-5.2v1.1h-3.5c0.1-0.9,0.1-1.6,0.1-3.1v-10.3c0-1.3,0-1.9-0.1-2.7h3.2c0,0.3-0.1,0.6-0.1,1l1-0.6c0.4,0.8,0.6,1.3,0.9,2V183
		c0-0.9,0-1.4-0.1-2.1h2.3c-0.1,0.5-0.1,1.1-0.1,2.1v0.6c0.4-0.8,0.6-1.4,0.8-2.2L66.4,182z M62.3,185.1v-1l-1.2,0.8
		c-0.3-1-0.5-1.4-0.8-2.1v2.4H62.3z M60.3,189.4c0.5-0.6,0.9-1.2,1.2-1.9h-1.2V189.4z M60.3,192.7h6.1v-2.1
		c-0.5,0.8-0.5,0.8-0.8,1.2c-0.6-0.8-0.9-1.3-1.3-2.2c0,0.2,0,0.4,0,0.5c0,0.3,0,0.6,0,1v0.4c0,0.4,0,0.5,0.1,0.8h-2.2
		c0.1-0.3,0.1-0.5,0.1-0.9V191c0-0.4,0-0.4,0-0.5c0-0.2,0-0.2,0-0.4c0-0.2,0-0.3,0-0.5c-0.4,0.9-0.7,1.4-1.4,2.2
		c-0.2-0.4-0.3-0.6-0.6-0.9V192.7z M66.4,183.1c-0.3,0.9-0.5,1.1-0.8,1.8l-1.2-0.8v1h2V183.1z M66.4,187.5h-1.3
		c0.3,0.8,0.7,1.3,1.3,2V187.5z M75.3,194c0,1.6,0,2.1,0.1,3h-4.1c0.1-0.9,0.2-1.4,0.2-3v-6.9c-0.8,0-1.2,0-1.7,0.1v-3.9
		c0.7,0.1,1.2,0.1,2.5,0.1h6.3c1.1,0,1.8,0,2.4-0.1c-0.1,0.7-0.1,1.4-0.1,2.7v5.6c0,2.4-0.8,3.1-3.5,3.1c-0.3,0-0.7,0-1.3-0.1
		c-0.1-1.7-0.2-2.5-0.8-3.6V194z M76.4,178.9c0.1,0,0.1,0,0.6,0c-1-1.2-1.4-1.9-2.1-3.4c-0.7,1.5-1.1,2.2-2,3.4c0.4,0,0.6,0,1,0
		H76.4z M75.3,191c0.7,0.1,0.9,0.1,1.4,0.1c0.4,0,0.6-0.1,0.6-0.5v-3.5h-1.9V191z"/>
	<path d="M102.2,184.4c0,2.3-1.8,4.1-4.1,4.1c-2.3,0-4.1-1.8-4.1-4.1c0-2.3,1.8-4.1,4.1-4.1C100.4,180.3,102.2,182.1,102.2,184.4z"
		/>
	<path d="M127.8,179.1c1.7,0,2.1,0,3.1-0.2v3.9c-0.9-0.1-1.3-0.1-3.1-0.1h-1c0.1,0.9,0.1,1.2,0.2,2.9c0.5-1,0.6-1.3,0.9-2.2l2.8,1.8
		c-0.3,0.6-0.5,1-0.8,1.7c-0.3,0.7-1.3,2.5-2,3.6c0.6,1.4,0.6,1.4,0.8,1.7c0.2-0.5,0.3-1.3,0.3-2.8c0.8,0.8,1.4,1.2,2.4,1.8
		c-0.2,2.2-0.5,3.3-0.9,4.2c-0.4,0.9-1.2,1.4-2,1.4c-1.1,0-2.3-1-3.3-2.7c-1.1,1.2-1.9,2-3.6,3.2c-0.6-1.1-1.1-1.8-1.8-2.6h-2v1.4
		h-3.3c0.1-0.8,0.1-1.4,0.1-2.2v-8c0-1.2,0-1.4-0.1-2.2c0.4,0.1,0.6,0.1,1.6,0.1h4.7c0.6,0,1,0,1.6-0.1c-0.1,0.5-0.1,0.8-0.1,2.2v6
		c0.6-0.6,0.9-1,1.5-1.6c-0.5-2.2-0.6-3.4-0.8-7.4h-8c-0.6,0-0.8,0-1.3,0v11.4c0,1.6,0,2.2,0.1,2.9h-3.6c0.1-0.8,0.1-1.6,0.1-2.9
		v-1.4c-1.4,0.5-1.6,0.5-3.8,1.2c-0.4,0.1-0.5,0.2-0.8,0.3l-0.7-4.1c0.2,0,0.5,0,1.2-0.2v-13.7c-0.4,0-0.5,0-0.9,0.1v-4
		c0.7,0.1,1.3,0.2,2.6,0.2h3.8c1.4,0,1.9,0,2.7-0.1v1.4c0.4,0.1,0.8,0.1,1.3,0.1h1c0-1.2,0-1.4-0.1-2h3.9c-0.1,0.7-0.1,0.9-0.1,2
		h2.4v-0.5c0-0.8,0-0.9-0.1-1.4h3.8c-0.1,0.8-0.1,1.2-0.1,2.1l2.5-1.3c0.9,1.7,1.3,2.7,1.8,4.3l-2.8,1.5c-0.5-2-0.8-2.9-1.6-4.3
		c0,0.2,0,0.5,0,0.6c0,0.3,0,1,0,2c0,0.5,0,1.2,0,2.2H127.8z M109.6,178.3h1.1v-2.1h-1.1V178.3z M109.6,183.5h1.1v-2h-1.1V183.5z
		 M109.6,189.3c0.6-0.1,0.7-0.2,1.1-0.3v-2.1h-1.1V189.3z M115.4,179.1c-0.1-0.8-0.3-1.6-0.4-2.1c-0.2,0-0.3,0-0.5,0.1v-0.8
		c-0.2,0-0.3,0-0.5,0v2.9c0.3,0,0.5,0,1.2,0H115.4z M117.9,187.7h1.6v-1.2h-1.6V187.7z M117.9,191.5h1.6v-1.3h-1.6V191.5z
		 M119,179.1c0.2-0.7,0.2-1.4,0.3-2.1h-1.4c0.1,0.5,0.2,1.3,0.3,2.1H119z M123,179.1c0-0.7,0-0.7,0-2.1h-0.8
		c-0.1,0.7-0.2,1.4-0.4,2.1H123z"/>
	<path d="M136.3,183c-1.2,0-1.8,0-2.6,0.1V180c0.8,0.1,1.4,0.1,2.6,0.1h2.7c-0.3-0.6-0.4-0.8-0.7-1.3H136c-1.3,0-2.4,0.1-3.3,0.1
		v-3.6c0.9,0.1,1.6,0.2,3,0.2c-0.4-0.8-0.7-1.2-1.4-2.1l3.8-1.3c0.7,1.2,1,1.7,1.8,3.4h0.8v-1.7c0-0.8-0.1-1.4-0.1-1.9h4
		c-0.1,0.5-0.1,1-0.1,1.7v1.9h1.1v-1.9c0-0.8,0-1.2-0.1-1.7h4c-0.1,0.5-0.1,1.1-0.1,1.9v1.7h0.8c0.9-1.4,1.2-2.1,1.7-3.5l3.8,1.3
		c-0.5,0.9-0.9,1.4-1.3,2.1c1.6,0,2.2-0.1,3.1-0.2v3.6c-0.9-0.1-2.1-0.1-3.3-0.1h-2.2c-0.3,0.7-0.4,0.8-0.6,1.3h2.5
		c1.2,0,1.8,0,2.6-0.1v3.1c-0.9-0.1-1.4-0.1-2.6-0.1h-6.8v0.8h5.7c1.1,0,1.8,0,2.6-0.1v2.8c-0.8-0.1-1.5-0.1-2.6-0.1h-5.7v0.8h7
		c1.6,0,2.7-0.1,3.4-0.2v3.4c-1.1-0.1-2.1-0.2-3.4-0.2h-4.1c1.8,1.4,4.4,2.3,8.1,2.8c-1,1.5-1.4,2.2-2,3.8c-4-1.1-6.8-2.6-9.1-4.8
		c0.1,0.7,0.1,0.9,0.1,1.5v0.9c0,1.1,0,1.9,0.1,2.6h-4.3c0.1-0.8,0.2-1.6,0.2-2.7v-0.8c0-0.7,0-0.8,0-1.5c-1.4,1.3-2.2,1.9-3.6,2.7
		c-1.6,0.9-3,1.5-5,2.1c-0.6-1.4-1.1-2.3-2.2-3.6c3.6-0.6,6-1.6,7.9-3h-3.7c-1.3,0-2.4,0.1-3.5,0.2v-3.4c0.9,0.1,2,0.2,3.4,0.2h6.5
		v-0.8h-5.4c-1.1,0-1.8,0-2.6,0.1v-2.8c0.8,0.1,1.4,0.1,2.6,0.1h5.4V183H136.3z M146.8,180.1c0.3-0.6,0.3-0.8,0.6-1.3h-4.8
		c0.3,0.7,0.4,0.9,0.5,1.3H146.8z"/>
</g>
<g class="st3">
	<path d="M26.3,223.6c0,2.3-1.8,4.1-4.1,4.1c-2.3,0-4.1-1.8-4.1-4.1c0-2.3,1.8-4.1,4.1-4.1C24.5,219.5,26.3,221.3,26.3,223.6z"/>
	<path d="M32.7,214.9c0-1.4-0.1-2.4-0.2-3.6h4.4c-0.1,0.9-0.2,2-0.2,3.6v2h3.5v-2.5c0-1.3-0.1-2.1-0.2-3.1h4.3c-0.1,1-0.1,1.8-0.1,3
		v2.6h3.4v-2.6c0-1.3,0-2.1-0.1-3h4.3c-0.1,0.9-0.2,1.8-0.2,3v2.6h0.2c1.4,0,2.2-0.1,3.1-0.2v4c-0.9-0.1-1.8-0.2-3.1-0.2h-0.2v5.5
		c0,0.7,0,1.7,0.1,2.7c-0.8-0.1-1.4-0.1-2.3-0.1h-6.8c-0.9,0-1.6,0-2.5,0.1c0.1-0.7,0.1-1.5,0.1-2.4v-5.8h-3.5v10.8h13.2
		c1.6,0,2.6,0,3.9-0.2v4.2c-1.3-0.1-2.5-0.2-3.9-0.2H36.7v1.2h-4.2c0.1-1.4,0.2-2.8,0.2-4.3v-11.5c-1.5,0-2.1,0.1-3,0.2v-4
		c0.9,0.1,1.5,0.1,3,0.2V214.9z M44.2,220.6v4.4h3.4v-4.4H44.2z"/>
	<path d="M74.5,212.7c0-0.8,0-1-0.1-1.6h4.2c-0.1,0.5-0.1,0.8-0.1,1.6c1.6,0,2.4-0.1,3.3-0.2v4c-1-0.1-1.8-0.1-3.3-0.2v2.3
		c0,1.1,0,1.4,0.1,2c-0.8-0.1-1.2-0.1-2.9-0.1h-13c-0.6,0-1.5,0-2.9,0.1c0.1-0.6,0.1-1.2,0.1-2.1v-2.2c-1.5,0-2.2,0.1-3.2,0.2v-4
		c0.9,0.1,1.6,0.2,3.2,0.2c0-0.7,0-1-0.1-1.6h4.2c-0.1,0.5-0.1,0.7-0.1,1.6h3.2c0-0.8-0.1-1.2-0.1-1.6h4.2c-0.1,0.5-0.1,0.8-0.1,1.6
		H74.5z M71,233.1c0,1.6,0.1,2.5,0.2,3.3h-4.4c0.1-0.8,0.2-1.8,0.2-3.3v-3.6h-3.1v2.4c0,1.6,0,2.3,0.1,3.2h-4.3
		c0.1-0.9,0.2-1.8,0.2-3.2v-3.8h-3.1C57,227.4,57,227,57,226v-2.6c0-0.9,0-1.5-0.1-2.1c1.2,0.1,1.8,0.1,3.1,0.1h18.4
		c1.4,0,2.2,0,3.1-0.1c-0.1,0.6-0.1,1.2-0.1,2.1v2.7c0,0.8,0,1.4,0.1,2h-3.1v3.9c0,1.2-0.3,2-1,2.4c-0.7,0.5-1.5,0.6-3.4,0.6
		c-0.1,0-0.3,0-0.6,0c-0.2,0-0.4,0-0.7,0c-0.3-1.3-0.5-2.1-1.1-3.4c0.8,0.1,1.4,0.1,1.7,0.1c0.9,0,1-0.1,1-0.6v-1.6H71V233.1z
		 M67,224.9h-6.1v1c0.7,0,1,0,1.7,0H67V224.9z M67.1,216.3h-3.2v1.2h3.2V216.3z M74.5,217.5v-1.2H71v1.2H74.5z M76,226
		c0.5,0,0.8,0,1.4,0v-1H71v1.1H76z"/>
	<path d="M98.1,211.5c-0.1,0.5-0.2,1.2-0.2,2.2c0,2.9,0.4,5.9,1.1,7.9c0.9,2.8,2.7,5.4,5,7.5c1.5,1.3,2.7,2.1,4.7,3.1
		c-1.3,1.4-1.8,2.3-2.7,4.2c-2.9-1.8-4.8-3.4-6.5-5.5c-1.6-1.9-2.7-3.9-3.6-6.7c-1.2,3.5-2.3,5.5-4.4,7.7c-1.7,1.8-3.4,3.1-5.8,4.4
		c-0.9-1.8-1.3-2.4-2.7-3.9c4-2,6.2-4,7.8-6.9c1.7-3,2.5-7,2.5-11.9c0-0.9,0-1.4-0.1-2.1H98.1z"/>
	<path d="M135.5,219c-0.5-0.1-0.7-0.1-1.4-0.1c-0.2,4.4-1,7.5-2.5,10.3c1.2,1.4,2.6,2.5,4.3,3.3c-0.9,1.3-1.5,2.4-2.2,4
		c-1.7-1-3.2-2.3-4.5-3.9c-1.6,1.7-3.1,2.9-5.2,4c-0.6-1.1-0.9-1.7-1.6-2.6l-1,1.7c-1.2-0.9-1.6-1.2-2.8-1.9
		c-1.8,1.4-3.5,2.2-6.3,2.8c-0.6-1.5-0.9-2.2-1.9-3.5c2-0.2,3.1-0.4,4.6-1.1c-1.4-0.6-2-0.9-3.8-1.5c0.9-1.2,1.2-1.7,1.7-2.6
		c-1.1,0-1.6,0-2.4,0.1v-3.7c0.6,0.1,1.2,0.1,2.3,0.1h1.7c0.2-0.5,0.3-0.7,0.5-1.3l4,0.5c-0.1,0.2-0.3,0.5-0.4,0.8h3.6
		c0.6,0,0.9,0,1.5-0.1c-0.5-0.9-0.8-1.3-1.4-2c-0.2,0.3-0.2,0.5-0.4,0.9c-1.3-1-1.7-1.4-2.4-2.4c0,0.3,0.1,0.8,0.1,0.9v0.5
		c0,0.3,0,0.6,0.1,0.8h-3.9c0-0.1,0-0.1,0-0.3c0,0,0,0,0-0.5V222c0-0.2,0-0.6,0.1-1c-1.4,1.7-2,2.2-3.7,3.4
		c-0.7-1.3-1.2-2.1-2.1-3.1c1.5-0.6,2.6-1.3,3.7-2.4h-0.8c-1,0-1.7,0-2.4,0.1v-3.4c0.7,0.1,1.2,0.1,2.2,0.1
		c-0.7-1.3-1.2-2.1-2.1-3.1l3.1-1.4c0.9,1.1,1.4,1.8,2,2.8v-1.1c0-0.9-0.1-1.3-0.1-1.8h4c-0.1,0.5-0.1,0.9-0.1,1.7v1.5
		c0.8-1.2,1.3-2.1,1.7-3.3l3.3,1.4c-0.7,1.4-1.1,2.2-1.7,3.2c0.8,0,1.1,0,1.4-0.1v3.1c1-2.4,2-6,2-7.8l4.1,0.8
		c-0.1,0.2-0.1,0.2-0.2,0.6c0,0-0.1,0.2-0.1,0.5c-0.1,0.1-0.1,0.3-0.2,0.6c-0.2,0.8-0.2,1-0.5,1.7h3.8c1.3,0,2,0,2.5-0.1V219z
		 M115.6,214.5l-2.5,1.2h2.5V214.5z M116.6,227.9c-0.2,0.4-0.3,0.5-0.6,1c0.8,0.3,1,0.3,1.6,0.6c0.4-0.6,0.5-0.9,0.7-1.6H116.6z
		 M121.7,215.7l-2.3-1v1H121.7z M124.1,228c-0.5-0.1-0.9-0.1-1.8-0.1c-0.4,1.3-0.6,1.9-1.3,2.9c0.9,0.4,1.2,0.6,2.4,1.3
		c1.4-0.9,2.5-1.8,3.5-2.9c-0.9-1.7-1.3-2.8-1.8-5c-0.3,0.5-0.5,0.6-1,1.2V228z M121.2,218.9c0.5,0.5,0.8,0.7,2,1.4
		c0.3-0.5,0.4-0.8,0.7-1.3c-0.3,0-0.7-0.1-1.5-0.1H121.2z M128,218.9c-0.1,0.3-0.2,0.5-0.3,0.8c0.4,2.4,0.7,3.6,1.6,5.6
		c0.7-2,1-3.7,1.1-6.4H128z"/>
</g>
<g>
	<g class="st3">
		<path d="M100.3,268.9c-1.6-2.8-2.1-3.8-2.5-4.9c-0.9-2.2-1.4-5.1-1.4-7.7c0-2.3,0.3-4.6,1-6.7c0.6-1.9,1.3-3.3,3-6.1h4.9
			c-2.1,3.2-2.8,4.7-3.5,7.1c-0.5,1.8-0.7,3.7-0.7,5.6c0,2.6,0.5,5.4,1.4,7.6c0.6,1.4,1.2,2.6,2.8,5.1H100.3z"/>
		<path d="M130.5,253.4c-0.2,0.3-0.2,0.5-0.5,1.3c-0.9,2.4-2.2,4.8-3.6,6.7c0.7,1.3,1.2,1.8,1.8,2.4c0.3-0.9,0.5-1.5,0.8-3.5
			c1.2,1.1,1.8,1.6,3.1,2.4c-0.7,4-1.7,5.8-3.4,5.8c-1.5,0-3.2-1.3-5-4c-1.6,1.6-3.1,2.7-5.4,4c-0.7-1.4-1.1-2.1-2-3.2
			c-0.8,0.2-1.9,0.3-2.8,0.3c-0.3,0-0.5,0-1,0c-0.2-1.2-0.3-2-0.6-2.9c-0.5,2.6-1.3,4.5-2.5,6.3c-1.3-1.6-1.9-2.3-3.2-3.3
			c0.9-1.5,1.4-2.6,1.8-4.4c0.5-2.4,0.8-6,0.8-10.9c0-1.3-0.1-2.5-0.2-3.5c1.1,0.1,2.2,0.1,3.6,0.1h7.6c-0.1-2.2-0.1-2.6-0.2-3.2
			h4.4c-0.1,0.5-0.1,1.3-0.1,1.9v1.3h2.7c-1-0.8-1.4-1-2.1-1.4l2.6-2.4c1.4,0.8,2.3,1.5,3.4,2.5l-1.6,1.3c1.4,0,1.9,0,2.7-0.1v4
			c-1-0.1-2.2-0.2-3.5-0.2h-4c0.1,2.4,0.4,4.5,0.7,6.2c1-2,1.6-3.5,1.8-5L130.5,253.4z M112.7,257.1c-0.1,1.8-0.3,3.2-0.5,4.6
			c0.9,0.1,1.2,0.2,1.6,0.2c0.6,0,0.9-0.1,1-0.5c0.2-0.5,0.3-1.6,0.4-4.2H112.7z M117.5,253.5c0.9,0,1.2,0,1.8-0.1
			c-0.1,0.8-0.1,0.8-0.2,4.9c-0.1,2.7-0.4,4.6-0.8,5.6c1.4-0.9,2.7-1.9,3.7-2.9c-1.1-3.1-1.5-5.6-1.8-10.3h-7.2c0,1.5,0,1.9,0,2.8
			H117.5z"/>
		<path d="M148.3,244.1c-0.1,0.5-0.2,1.2-0.2,2.2c0,2.9,0.4,5.9,1.1,7.9c0.9,2.8,2.7,5.4,5,7.5c1.5,1.3,2.7,2.1,4.7,3.1
			c-1.3,1.4-1.8,2.3-2.7,4.2c-2.9-1.8-4.8-3.4-6.5-5.5c-1.6-1.9-2.7-3.9-3.6-6.7c-1.2,3.5-2.3,5.5-4.4,7.7c-1.7,1.8-3.4,3.1-5.8,4.4
			c-0.9-1.8-1.3-2.4-2.7-3.9c4-2,6.2-4,7.8-6.9c1.7-3,2.5-7,2.5-11.9c0-0.9,0-1.4-0.1-2.1H148.3z"/>
		<path d="M159.9,268.9c2.2-3.4,2.9-4.9,3.5-7.2c0.5-1.8,0.7-3.7,0.7-5.7c0-2.5-0.6-5.4-1.5-7.7c-0.6-1.4-1.2-2.5-2.7-4.8h5
			c1.8,3,2.5,4.6,3.2,6.8c0.6,2,0.8,3.9,0.8,5.9c0,2.7-0.5,5.6-1.4,7.8c-0.5,1.2-1,2.1-2.5,4.9H159.9z"/>
	</g>
</g>
<g>
	<g class="st3">
		<path d="M46.6,258.3c0,1.4-1.2,2.6-2.6,2.6c-1.4,0-2.6-1.2-2.6-2.6c0-1.4,1.2-2.6,2.6-2.6C45.5,255.7,46.6,256.8,46.6,258.3z"/>
		<path d="M61.6,260.3c-0.5,0.7-0.8,1.1-1.2,1.9c-1.5-1-2.7-2.3-3.6-3.6c-0.8,1.8-1.8,2.9-3.5,4.1c-0.5-0.9-0.7-1.2-1.2-1.9v3.3
			c0,1.1,0,1.7,0.1,2.2h-2.8c0.1-0.6,0.1-1.4,0.1-2.2v-9.9c0-0.8,0-1.3-0.1-1.8c0.7,0.1,1.2,0.1,2.2,0.1h3.9c0-0.2,0-0.3,0-0.6
			c0-0.8,0-1.2-0.1-1.6h2.9c-0.1,0.4-0.1,0.5-0.1,1.6c0,0.2,0,0.3,0,0.6h4c1.2,0,1.6,0,2.2-0.1c-0.1,0.5-0.1,1-0.1,1.8v9.9
			c0,1-0.4,1.6-1.2,1.9c-0.5,0.2-1.2,0.2-2.3,0.2c-0.4,0-0.4,0-1.4,0c-0.2-1.1-0.3-1.7-0.8-2.6c0.9,0.1,1.7,0.2,2.2,0.2
			c0.8,0,0.9-0.1,0.9-0.5V260.3z M52.1,260.2c1.8-1.2,2.7-2.7,3.2-5.3h-3.2V260.2z M57.9,254.9c-0.1,0.4-0.1,0.6-0.1,0.9
			c0.8,1.5,2.1,2.8,3.9,3.8v-4.7H57.9z"/>
		<path d="M66,253c0.4,0.1,0.8,0.1,1.4,0.1h4c0.7,0,1,0,1.4-0.1v2.3c-0.4-0.1-0.5-0.1-1.3-0.1h-4c-0.6,0-0.9,0-1.4,0.1V253z
			 M72.1,264.8c0,0.7,0,0.9,0,1.2h-2.3v-0.4h-1v0.7h-2.5c0.1-0.5,0.1-1.2,0.1-1.7v-2.7c0-0.5,0-0.9-0.1-1.3c0.4,0,0.6,0.1,1.2,0.1
			h3.6c0.6,0,0.7,0,1-0.1c0,0.3,0,0.5,0,1.1v1.4c0.8-1.7,1.1-4,1.1-9.1c0-1.8,0-2.6-0.1-3.4c0.5,0.1,1,0.1,2,0.1h4.4
			c0.9,0,1.4,0,1.8-0.1c0,0.4-0.1,0.8-0.1,1.8v3.8c0,1.2,0,1.4,0,1.8c-0.3,0-0.8,0-1.3,0h-0.8c0.2,1.4,0.3,2.1,0.8,3
			c0.5,1.1,1.1,1.9,2.1,2.7c-0.8,0.9-1.2,1.4-1.8,2.6c-1.3-1.3-2-2.5-2.6-4c-0.5-1.3-0.7-2.3-0.9-4.2h-1.1c-0.1,2.7-0.3,3.8-0.7,5.1
			c-0.3,1.1-0.7,1.9-1.5,3.1c-0.4-0.6-0.7-1-1.4-1.8V264.8z M66.5,250.6c0.5,0.1,0.8,0.1,1.5,0.1h2.6c0.8,0,1.1,0,1.5-0.1v2
			c-0.5,0-0.8-0.1-1.5-0.1H68c-0.7,0-1.1,0-1.5,0.1V250.6z M66.5,255.8c0.3,0,0.4,0,1,0h3.6c0.6,0,0.7,0,1,0v1.9c-0.3,0-0.5,0-1,0
			h-3.6c-0.5,0-0.7,0-1,0V255.8z M66.5,258.2c0.3,0,0.5,0,1,0h3.6c0.5,0,0.7,0,1,0v1.9c-0.3,0-0.5,0-1,0h-3.6c-0.5,0-0.6,0-1,0
			V258.2z M68.7,263.6h1.1v-1.1h-1.1V263.6z M78.7,255.7v-2.5h-2.9v0.9c0,0.4,0,0.8,0,1.5H78.7z"/>
	</g>
</g>
<g>
	<g class="st3">
		<path d="M193.6,268.9c-1.6-2.8-2.1-3.8-2.5-4.9c-0.9-2.2-1.4-5.1-1.4-7.7c0-2.3,0.3-4.6,1-6.7c0.6-1.9,1.3-3.3,3-6.1h4.9
			c-2.1,3.2-2.8,4.7-3.5,7.1c-0.5,1.8-0.7,3.7-0.7,5.6c0,2.6,0.5,5.4,1.4,7.6c0.6,1.4,1.2,2.6,2.8,5.1H193.6z"/>
		<path d="M219.6,246.6c1.8,0,2.7-0.1,3.5-0.2v4.2c-0.8-0.1-1.7-0.1-3.4-0.1h-5.4v2.7h6.7c1.6,0,2.5-0.1,3.5-0.2v4.2
			c-1-0.1-2-0.2-3.5-0.2h-4.8c0.9,1.2,1.7,2.1,2.9,3.1c1.9,1.6,3.6,2.7,6.4,3.8c-1.1,1.4-1.6,2.2-2.4,4.1c-4-2.2-6.5-4.4-8.7-7.5
			c0.1,1.4,0.1,2.1,0.1,2.2v2.9c0,1.1,0.1,2.1,0.2,3.1h-4.6c0.1-0.9,0.2-1.8,0.2-3.1v-2.9c0-0.5,0.1-1.6,0.1-2.2
			c-1.2,1.8-2.1,2.8-3.7,4.2c-1.5,1.3-2.7,2.1-4.4,3.2c-0.8-1.6-1.3-2.5-2.5-3.9c2.4-1,4.4-2.4,6.4-4.3c1-0.9,1.7-1.7,2.4-2.8H204
			c-1.6,0-2.4,0-3.5,0.2V253c1,0.1,1.9,0.2,3.5,0.2h6.2v-2.7h-4.7c-1.8,0-2.6,0-3.5,0.1v-4.2c0.9,0.1,1.7,0.2,3.5,0.2h4.7v-0.5
			c0-1-0.1-1.9-0.1-2.5h4.5c-0.1,0.6-0.1,1.7-0.1,2.5v0.4H219.6z"/>
		<path d="M250.6,253.4c-0.2,0.3-0.2,0.5-0.5,1.3c-0.9,2.4-2.2,4.8-3.6,6.7c0.7,1.3,1.2,1.8,1.8,2.4c0.3-0.9,0.5-1.5,0.8-3.5
			c1.2,1.1,1.8,1.6,3.1,2.4c-0.7,4-1.7,5.8-3.4,5.8c-1.5,0-3.2-1.3-5-4c-1.6,1.6-3.1,2.7-5.4,4c-0.7-1.4-1.1-2.1-2-3.2
			c-0.8,0.2-1.9,0.3-2.8,0.3c-0.3,0-0.5,0-1,0c-0.2-1.2-0.3-2-0.6-2.9c-0.5,2.6-1.3,4.5-2.5,6.3c-1.3-1.6-1.9-2.3-3.2-3.3
			c0.9-1.5,1.4-2.6,1.8-4.4c0.5-2.4,0.8-6,0.8-10.9c0-1.3-0.1-2.5-0.2-3.5c1.1,0.1,2.2,0.1,3.6,0.1h7.6c-0.1-2.2-0.1-2.6-0.2-3.2
			h4.4c-0.1,0.5-0.1,1.3-0.1,1.9v1.3h2.7c-1-0.8-1.4-1-2.1-1.4l2.6-2.4c1.4,0.8,2.3,1.5,3.4,2.5l-1.6,1.3c1.4,0,1.9,0,2.7-0.1v4
			c-1-0.1-2.2-0.2-3.5-0.2h-4c0.1,2.4,0.4,4.5,0.7,6.2c1-2,1.6-3.5,1.8-5L250.6,253.4z M232.7,257.1c-0.1,1.8-0.3,3.2-0.5,4.6
			c0.9,0.1,1.2,0.2,1.6,0.2c0.6,0,0.9-0.1,1-0.5c0.2-0.5,0.3-1.6,0.4-4.2H232.7z M237.5,253.5c0.9,0,1.2,0,1.8-0.1
			c-0.1,0.8-0.1,0.8-0.2,4.9c-0.1,2.7-0.4,4.6-0.8,5.6c1.4-0.9,2.7-1.9,3.7-2.9c-1.1-3.1-1.5-5.6-1.8-10.3h-7.2c0,1.5,0,1.9,0,2.8
			H237.5z"/>
		<path d="M257.7,253.9c0-0.2,0-0.3,0-0.5c-0.6,0.7-0.9,0.9-1.6,1.6c-0.9-1.7-1.5-2.5-2.7-3.5c2.5-2,4-3.8,5.1-6.2
			c0.4-0.8,0.6-1.4,0.7-1.9l4.4,0.8c-0.2,0.5-0.3,0.5-0.6,1.2c-0.1,0.3-0.2,0.5-0.4,0.9h11.8c1.4,0,2.2-0.1,3.1-0.2v4.1
			c-0.9-0.1-1.8-0.2-3.1-0.2h-4.8v2.6h3.7c1.4,0,2.2,0,3.1-0.1v3.9c-0.9-0.1-1.7-0.1-3-0.1h-3.9v3.5h5.6c1.3,0,2.3-0.1,3.2-0.2v4.2
			c-1-0.1-1.9-0.2-3.2-0.2h-5.6v2.2c0,1.6,0,2.3,0.2,3.2h-4.5c0.1-0.9,0.2-1.7,0.2-3.3v-2.2h-8.3c-1.3,0-2.3,0.1-3.2,0.2v-4.2
			c0.9,0.1,1.9,0.2,3.2,0.2h0.6V253.9z M260.5,249.9c-0.8,1.1-1.2,1.6-2,2.5c0.4,0,0.6,0,1,0h5.9v-2.6H260.5z M265.4,259.6v-3.5
			h-3.7v3.5H265.4z"/>
		<path d="M280,268.9c2.2-3.4,2.9-4.9,3.5-7.2c0.5-1.8,0.7-3.7,0.7-5.7c0-2.5-0.6-5.4-1.5-7.7c-0.6-1.4-1.2-2.5-2.7-4.8h5
			c1.8,3,2.5,4.6,3.2,6.8c0.6,2,0.8,3.9,0.8,5.9c0,2.7-0.5,5.6-1.4,7.8c-0.5,1.2-1,2.1-2.5,4.9H280z"/>
	</g>
</g>
<g class="st3">
	<path class="st2" d="M361.3,113.9c-1.1,0.7-1.7,1-3.1,1.7c-0.7-1.2-1.1-1.7-2-2.6c2.2-0.8,3.9-1.6,6.2-3.2
		c-0.7-0.7-1.4-1.2-2.3-1.8c-0.7,0.6-1.2,1-2.2,1.6c-0.7-1-1.2-1.5-2.1-2.2c1.6-0.9,2.8-1.9,4.2-3.2c1-1,1.8-2.2,2.3-3.3l3.4,0.3
		c-0.4,0.6-0.5,0.8-0.7,1.2l3.8-0.4c0.7-0.1,1.2-0.1,1.6-0.3l1.8,1.5c-0.2,0.4-0.2,0.4-0.7,1c-1.2,1.8-3.1,4-4.9,5.6l5.4-0.5
		c0.9-0.1,1.4-0.2,1.9-0.2c0,0.6,0,1.2,0.1,2.1l0.5,5.5c0.1,1,0.2,1.6,0.3,2.2l-3.1,0.3l-0.1-1l-6.9,0.7l0.1,1l-3.1,0.3
		c0-0.6,0-1.3-0.1-2.2L361.3,113.9z M362.8,105.3c-0.3,0.3-0.3,0.4-0.6,0.7c1.5,1,1.5,1,2.6,1.9c1.2-1.1,1.7-1.7,2.7-3L362.8,105.3z
		 M364.5,116.1l7-0.7l-0.3-3.2l-7,0.7L364.5,116.1z"/>
	<path class="st2" d="M380.3,101.7c-0.4-0.6-0.6-0.8-1.2-1.5l3.1-1.1c0.7,0.8,1.2,1.6,1.6,2.2l2.5-0.2c0.5-0.8,0.7-1.4,1-2.5
		l3.3,0.4c-0.3,0.7-0.6,1.1-0.9,1.7l2.1-0.2c1.1-0.1,1.6-0.2,2.2-0.3l0.3,2.9c-0.6,0-1.1,0-2.3,0.1l-13.5,1.3
		c-1.1,0.1-1.7,0.2-2.3,0.3l-0.3-2.9c0.7,0,1.2,0,2.3-0.1L380.3,101.7z M381.1,116c0.1,1,0.2,1.5,0.3,2.2l-3.1,0.3
		c0-0.7,0-1.4-0.1-2.4l-0.8-8.8c-0.1-1-0.1-1.3-0.3-1.8c0.5,0,1,0,1.8-0.1l4.7-0.4c0.9-0.1,1.3-0.1,1.7-0.2c0,0.5,0,0.9,0.1,1.9
		l0.8,8.7c0.2,1.9-0.3,2.4-2.6,2.6c-0.2,0-0.5,0.1-1,0.1c-0.3-1.3-0.4-1.6-0.9-2.5c0.6,0,0.8,0,1.1,0c0.4,0,0.4-0.1,0.4-0.5
		l-0.1-0.9l-2.3,0.2L381.1,116z M382.7,108.4l-0.1-0.9l-2.3,0.2l0.1,0.9L382.7,108.4z M383,111.6l-0.1-0.9l-2.3,0.2l0.1,0.9
		L383,111.6z M389.4,104.7c0,0.5,0,1.1,0.1,1.9l0.4,4.5c0.1,1,0.2,1.4,0.3,2l-3,0.3c0-0.7,0-1.1-0.1-2l-0.4-4.5
		c-0.1-0.8-0.1-1.3-0.3-1.9L389.4,104.7z M393.5,103.8c0,0.6,0,1.2,0.1,2.1l0.8,8.1c0.1,1.2,0,1.8-0.4,2.2c-0.5,0.5-1.1,0.7-3,0.9
		c-0.2,0-0.2,0-1.7,0.1c-0.3-1.2-0.5-1.7-1.1-2.8c1.1,0,1.7,0,2.4-0.1c0.7-0.1,0.8-0.2,0.7-0.6l-0.7-7.6c-0.1-1-0.2-1.4-0.3-2
		L393.5,103.8z"/>
	<path class="st2" d="M400.7,98.3c0.2,0.7,0.3,0.9,0.6,1.6c0.3,0.9,0.4,0.9,0.8,2c1.4-0.5,1.8-0.7,2.8-1c-0.1-0.5-0.1-0.5-0.2-1.4
		c-0.1-1.3-0.2-1.5-0.4-2.1l3.5-0.3c0,0.5,0,0.7,0,1.5c0,0.2,0,0.2,0.1,1l0.1,0.6c0.5-0.1,0.6-0.1,0.9-0.1c1.9-0.2,3.6,0.5,4.5,1.8
		c0.4,0.6,0.7,1.4,0.8,2.3c0.1,1.5-0.4,3-1.5,4c-0.9,0.9-2.3,1.4-3.9,1.6c-0.8,0.1-1.9,0-2.9-0.1c-0.2-1.5-0.4-2.1-0.8-3.3
		c1.2,0.3,2.1,0.4,3,0.3c1.7-0.2,2.6-1,2.5-2.1c-0.1-1-0.9-1.5-2.3-1.4c-1.2,0.1-2.7,0.6-5.2,1.5c0.7,1.6,2,5.2,3.3,9.2
		c0.2,0.4,0.2,0.6,0.5,1l-3.7,1.2c-0.1-0.9-0.6-2.6-1.6-5.4c-0.3-0.8-0.8-2.4-1.7-4.8c-1.6,0.7-2.6,1.2-3.2,1.6l-1.3-3.2
		c0.6-0.1,0.6-0.1,2.8-1c0.3-0.1,0.4-0.2,0.7-0.3c-0.7-1.8-1.2-2.9-1.6-3.5L400.7,98.3z"/>
	<path class="st2" d="M430.5,96.5c-0.2,0.5-0.4,0.9-0.7,1.9c-0.6,2-1.3,3.7-2.1,5.5c1.9,1.3,2.5,1.8,4.7,3.8l-2.4,3.1
		c-1.2-1.3-2.5-2.5-4.2-3.7c-1.7,2.6-3.9,4.9-7.1,7.1c-0.8-1.1-1.5-1.8-2.8-2.8c2.4-1.4,3.6-2.4,5.1-4c0.7-0.8,1.4-1.6,1.9-2.4
		c-2.6-1.6-3.8-2.3-5.5-3.1l2.2-2.6c1.9,0.9,2.9,1.4,5,2.7c1-2,1.9-4.8,2-6.4L430.5,96.5z"/>
	<path class="st2" d="M451.2,96.1c-0.3,0.3-0.3,0.5-0.5,1.1c-1,3.1-2.5,5.3-4.9,7.1c-0.8-0.8-1.5-1.4-2.4-2c0.1,2.1-0.1,3.6-0.7,4.9
		c-0.6,1.3-1.5,2.6-2.8,3.7c-0.8,0.6-1.4,1.1-2.7,1.8c-0.9-1.5-1.3-1.9-2.6-3c2.1-0.9,3.5-1.9,4.3-3.2c0.8-1.3,1-2.8,0.8-5.4
		c-0.1-0.6-0.1-0.9-0.3-1.4l3.7-0.4c0,0.4,0,0.6,0.1,1.7c0,0,0,0.5,0,0.7c0.1-0.1,0.1-0.1,0.4-0.3c1.4-0.9,2.4-2.2,3-3.7l-9.5,0.9
		c-1.5,0.1-2.2,0.3-3.2,0.4l-0.3-3.5c0.9,0.1,1.6,0,3.2-0.1l10.4-1c1.1-0.1,1.3-0.1,1.7-0.4L451.2,96.1z"/>
	<path class="st2" d="M456,110.5c0-0.8,0-1.4-0.2-3.1l-1.1-11.6c-0.2-1.7-0.2-1.8-0.4-2.9l3.8-0.4c0,0.5,0,0.8,0.2,2.9l0.3,2.7
		c3.2,0.7,6.5,1.8,9.5,3.3l-1.6,3.6c-1.8-1-4.2-2.1-6.6-2.9c-0.6-0.2-0.7-0.2-0.7-0.2c-0.1,0-0.1,0-0.2-0.1l0.5,5.2
		c0.1,1.5,0.3,2.5,0.4,3L456,110.5z M463.4,93.2c0.9,0.8,1.6,1.7,2.2,2.7l-1.8,1.1c-0.8-1.2-1.4-1.9-2.2-2.7L463.4,93.2z M466,91.8
		c0.8,0.7,1.4,1.4,2.3,2.6l-1.7,1.1c-0.8-1.2-1.5-1.9-2.2-2.7L466,91.8z"/>
	<path class="st2" d="M475.2,91.3c-0.1,0.4-0.3,1.1-0.4,2c-0.4,2.8-0.4,5.1-0.2,7.8l1.6,0.4c-0.4,2-0.5,3.6-0.3,6.2
		c0,0.1,0.1,0.4,0.1,0.8l-3.4,0.5c-0.1-0.4-0.1-0.4-0.3-1.6c-0.6-2.8-0.8-3.8-1-6c-0.3-2.8-0.3-4.6,0-8.1c0.1-0.9,0.1-1.5,0.1-1.8
		c0,0,0-0.1,0-0.1L475.2,91.3z M476.2,94.5c0.8,0.1,2.2,0.1,3.8,0c0.4,0,0.8-0.1,1.4-0.2c-0.1-1.2-0.1-1.2-0.2-2.6
		c0-0.5-0.1-0.8-0.2-1.1l3.4-0.3c0,0.6,0,1.5,0.2,3.5c1.2-0.3,2.4-0.6,3.1-0.9l0.4,3.2c-0.3,0-0.3,0.1-0.7,0.2
		c-0.6,0.2-1.5,0.4-2.5,0.6c0.2,1.6,0.2,1.9,0.6,4.2c1.4,0.5,2.2,0.8,3.4,1.5c0.1,0.1,0.2,0.1,0.4,0.2l-0.9,3.5
		c-0.5-0.5-1.3-1.1-2.6-1.7c0,0.1,0,0.1,0,0.2c0.2,1.7-1.5,3-4,3.2c-2.9,0.3-4.8-1-5-3.3c-0.1-1.2,0.3-2.3,1.2-3.1
		c0.7-0.6,1.7-1,3-1.1c0.4,0,0.7,0,1.2,0c-0.1-0.6-0.1-0.7-0.2-1.6c-0.1-0.7-0.1-1-0.2-1.6c-0.5,0.1-0.7,0.1-1.1,0.1
		c-0.6,0.1-1.8,0.1-3.4,0.2c-0.2,0-0.4,0-0.5,0c0,0-0.1,0-0.2,0L476.2,94.5z M482.5,103.5c-0.5-0.1-0.8-0.2-1.2-0.1
		c-0.9,0.1-1.4,0.5-1.4,1.1c0,0.5,0.6,0.8,1.4,0.7c1-0.1,1.4-0.5,1.3-1.3L482.5,103.5z"/>
</g>
<g class="st3">
	<path class="st2" d="M372.4,126.1c-0.1,0.9,0,2.2,0.1,3.6c0.4,4.5,1.4,7.8,2.2,7.7c0.2,0,0.4-0.3,0.6-0.8c0.3-1.2,0.6-2.3,0.7-3.5
		c1,1,1.6,1.4,3,2.2c-0.3,1.6-0.6,2.8-1.1,4c-0.6,1.4-1.6,2.2-2.8,2.3c-1.1,0.1-2.1-0.4-3-1.4c-1.2-1.4-1.9-3.3-2.5-6.5
		c-0.2-1.4-0.5-3-0.8-5.8c-0.1-0.7-0.1-0.9-0.2-1.4L372.4,126.1z M381.7,126c2.9,2.9,4.7,6.4,5.7,11.2l-3.4,1.7
		c-0.6-4.4-2.4-8.2-5.2-11.1L381.7,126z"/>
	<path class="st2" d="M393.3,126.9c-0.2,1.1-0.3,3-0.4,4.9c1.6-1.2,3.3-1.9,5.5-2.1c3.5-0.3,6.1,1.3,6.3,4.1
		c0.2,1.7-0.5,3.3-1.8,4.4c-1.3,1.1-3.1,1.7-5.6,2c-1.6,0.2-3.1,0.1-5.1-0.1c-0.2-1.6-0.4-2.3-0.8-3.5c2,0.4,3.9,0.6,5.4,0.4
		c2.6-0.2,4.3-1.4,4.2-2.8c-0.1-1.1-1.2-1.6-3-1.4c-1.5,0.1-3,0.7-4.2,1.6c-0.5,0.3-0.7,0.5-1,1l-3.3,0.2c0-0.2,0-0.2,0-0.4
		c0-1,0.1-4.2,0.3-7c0-0.4,0-0.8,0-1.3L393.3,126.9z M392.5,122.5c1,0.4,2.3,0.7,4.2,1c1.4,0.2,3.1,0.4,4.1,0.5l-0.8,3.3
		c-3.7-0.4-6.4-0.9-8.9-1.8L392.5,122.5z"/>
	<path class="st2" d="M413.9,120.8c-0.1,0.4-0.1,0.4-0.2,1.6c-0.1,0.5-0.1,0.7-0.1,1.1c1.3-0.3,2.1-0.5,2.7-0.7l0.4,3.2
		c-0.5,0.1-0.5,0.1-1.5,0.3c-0.5,0.1-1.6,0.3-2.1,0.4c-0.5,2.4-0.9,3.8-1.6,6c-0.3,1-0.5,1.3-1.1,3c-0.2,0.5-0.2,0.5-0.3,0.8
		l-3.4-1.5c1.2-2,2.3-5,3-7.9c-0.4,0-0.4,0-1.1,0.1c-0.5,0-0.5,0-0.9,0.1c-0.1,0-0.2,0-0.8,0.1l-0.3-3.2c0.8,0.1,1.7,0,2.9-0.1
		c0.2,0,0.3,0,0.7-0.1c0-0.2,0-0.2,0.1-0.9c0.1-0.7,0.1-1.7,0.1-2.4L413.9,120.8z M424,136.8c-0.8-0.8-1.6-1.4-2.8-1.9
		c0,0.9-0.2,1.5-0.6,2.1c-0.7,0.9-2.1,1.4-3.6,1.6s-3-0.2-3.9-1c-0.7-0.6-1.1-1.4-1.2-2.4c-0.2-2.3,1.6-4.1,4.3-4.4
		c0.4,0,0.7-0.1,1.4,0c-0.1-0.8-0.2-1.1-0.2-1.6c-0.1-0.8-0.1-1.5-0.1-2.4l3.3-0.2c-0.1,0.7-0.1,1.3,0,2.3c0.1,0.7,0.2,1.3,0.4,2.3
		c1.3,0.4,2.3,0.9,3.2,1.5c0.1,0,0.4,0.3,1,0.7L424,136.8z M416.6,133.7c-0.9,0.1-1.5,0.5-1.4,1.2c0.1,0.6,0.6,0.9,1.5,0.8
		c1-0.1,1.5-0.6,1.4-1.4c0-0.1-0.1-0.4-0.1-0.4C417.4,133.7,417,133.7,416.6,133.7z M423.4,127.5c-2-1-4-1.7-6.5-2.3l1.4-2.9
		c2.6,0.7,4.3,1.2,6.2,2.1L423.4,127.5z"/>
	<path class="st2" d="M430,120.7c-0.1,0.9,0,2.2,0.1,3.6c0.4,4.5,1.4,7.8,2.2,7.7c0.2,0,0.4-0.3,0.6-0.8c0.3-1.2,0.6-2.3,0.7-3.5
		c1,1,1.6,1.4,3,2.2c-0.3,1.6-0.6,2.8-1.1,4c-0.6,1.4-1.6,2.2-2.8,2.3c-1.1,0.1-2.1-0.4-3-1.4c-1.2-1.4-1.9-3.3-2.5-6.5
		c-0.2-1.4-0.5-3-0.8-5.8c-0.1-0.7-0.1-0.9-0.2-1.4L430,120.7z M439.2,120.5c2.9,2.9,4.7,6.4,5.7,11.2l-3.4,1.7
		c-0.6-4.4-2.4-8.2-5.2-11.1L439.2,120.5z"/>
	<path class="st2" d="M455.1,129.5c-0.9,2.7-2.1,3.9-4,4.1c-2.7,0.3-4.8-2.1-5.1-5.8c-0.2-2.3,0.4-4.5,1.7-6.3
		c1.6-2.1,4-3.3,6.9-3.6c2.7-0.3,5.1,0.4,6.7,1.8c1.4,1.2,2.3,3.1,2.5,5.4c0.2,2.6-0.5,5-2,6.7c-1.2,1.3-2.8,2.1-5.5,2.8
		c-0.6-1.4-1.1-2.1-2-3.1c1.9-0.3,3.1-0.8,4.1-1.4c1.5-1,2.2-2.7,2-4.8c-0.2-1.7-0.9-3-2.1-3.8c-0.6-0.3-1-0.5-1.7-0.5
		C456.4,124.4,455.9,127,455.1,129.5z M451,122.5c-1.2,1.2-1.9,3.2-1.7,4.9c0.1,1.4,0.8,2.5,1.5,2.4c0.5,0,0.9-0.8,1.4-2.4
		c0.5-1.9,0.9-4.2,0.9-6.2C452.2,121.5,451.6,121.9,451,122.5z"/>
	<path class="st2" d="M465.1,119.1c0.3,0,0.4,0,0.6,0c0.5,0,1.6-0.2,1.7-0.2c0.6-0.1,0.6-0.1,0.8-0.1c-0.1-1.1-0.1-1.5-0.2-2.2
		c0-0.2,0-0.2-0.1-1l3.5-0.2c-0.1,0.7-0.1,1.1,0,2.9l1.2,0.9c-0.2,0.2-0.7,0.8-1.1,1.4c0,0.4,0,0.6,0,0.7c0.5-0.5,0.7-0.7,1.6-1.5
		c1.6-1.4,2.9-2,4.4-2.2c3.1-0.3,4.9,1.9,5.4,6.4c0.1,1.1,0.1,2,0,3c0.1,0,0.7,0.4,1.8,1l-0.9,3.5c-0.6-0.5-0.7-0.6-1.7-1.3
		c-0.2,0.5-0.4,0.8-0.9,1.2c-0.7,0.6-1.9,1.1-3.1,1.2c-2.6,0.2-4.5-1-4.7-3.1c-0.2-2.1,1.4-3.7,3.9-3.9c0.8-0.1,1.4,0,2.3,0.2
		c0-0.5,0-0.9,0-1.4c-0.1-0.8-0.3-1.6-0.5-2.2c-0.3-0.8-1-1.2-1.8-1.1c-1.4,0.1-3.4,1.7-5.5,4.1l0.6,5.5c0.2,1.8,0.2,1.8,0.4,2.7
		l-3.6,0.3c0-0.5,0-1.1-0.1-2.1c-0.2-2-0.2-2-0.2-2.4c0-0.6,0-0.6,0-0.7c0,0,0-0.2,0-0.3l-0.1,0.2c-0.1,0.1-0.1,0.1-0.2,0.3
		c-0.1,0.1-0.2,0.3-0.5,0.7c-0.4,0.5-0.8,1.2-1,1.5l-1.9-3.2c0.4-0.3,0.9-0.8,2-2.1c0.6-0.7,0.8-1,1.3-1.5c-0.1-0.6-0.1-0.8-0.2-2.2
		c-1.5,0.2-2.1,0.4-2.9,0.6L465.1,119.1z M477.7,128.2c-0.7,0.1-1.1,0.4-1,0.9c0,0.5,0.6,0.7,1.3,0.6c0.5,0,1-0.3,1.2-0.6
		c0.1-0.1,0.3-0.5,0.3-0.5l0,0C478.8,128.2,478.3,128.1,477.7,128.2z"/>
</g>
<path class="st5" d="M334.8,108.4c-5.1,9.2,12.1,38.5,37.4,46.9c25.3,8.4,34.4,3.9,46.7,9.3c17.7,7.8-9.6-0.9,13.4-14.6
	c35.2-21.1,70-0.1,80.2-34.8"/>
<line class="st6" x1="17.8" y1="99.4" x2="332.2" y2="99.4"/>
<rect x="120.7" y="96.8" class="st0" width="108.7" height="6.4"/>
<g>
	<g class="st3">
		<path d="M131,90.1c0-0.6,0-1-0.1-1.4h3.9c-0.1,0.4-0.1,0.7-0.1,1.4h6.8c0-0.7,0-1-0.1-1.4h3.9c-0.1,0.4-0.1,0.7-0.1,1.4h1
			c1.3,0,2.1,0,2.9-0.1v3.4c-1-0.1-1.8-0.1-2.9-0.1h-1V99h1.2c1.1,0,2,0,3-0.1v3.5c-0.8-0.1-1.7-0.1-2.8-0.1h-1.6
			c1.4,1.1,2.9,1.8,5.1,2.3c-0.7,1.3-1.1,2.1-1.5,3.5c-1.8-0.7-2.8-1.3-4.3-2.3v1.4c-0.8-0.1-1.2-0.1-2.4-0.1h-2.2v1h5.3
			c1.1,0,1.9,0,2.9-0.2v3.5c-0.9-0.1-1.9-0.1-3.3-0.1h-13.3c-1.3,0-2.3,0-3.2,0.1v-3.4c0.8,0.1,1.7,0.1,3,0.1h5v-1h-2
			c-1.1,0-1.6,0-2.3,0.1v-1.4c-1.5,1-2.6,1.7-4.3,2.3c-0.4-1.4-0.7-2.1-1.5-3.5c2.1-0.5,3.6-1.2,5.1-2.4h-1.5c-1.1,0-2,0-2.8,0.1
			v-3.5c0.8,0.1,1.7,0.1,2.8,0.1h1.4v-5.8h-0.9c-1.1,0-2,0-2.9,0.1v-3.4c0.9,0.1,1.7,0.1,2.9,0.1H131z M134.2,104.1h2
			c0-0.6,0-1-0.1-1.4h3.8c-0.1,0.5-0.1,0.8-0.1,1.4h2.5c-0.8-0.7-1.3-1.3-1.8-2h-4.9c-0.6,0.8-1,1.3-1.7,2H134.2z M141.5,93.6v-0.8
			h-6.8v0.8H141.5z M141.5,96.4v-0.7h-6.8v0.7H141.5z M141.5,99.2v-0.8h-6.8v0.8H141.5z"/>
		<path d="M166.2,95.9c0.9,1.7,1.6,2.7,2.8,4c1.7,1.8,3.4,3.2,5.5,4.3c-0.9,1.2-1.3,2.1-2,3.8c-1.7-1.1-2.6-1.8-3.8-3v2.2
			c-0.8-0.1-1.5-0.1-2.5-0.1h-1.8v1.3c0,1.2,0,2.3,0.2,3.3h-4.2c0.1-1,0.2-2.1,0.2-3.3v-1.3H159c-0.9,0-1.7,0-2.4,0.1v-2.3
			c-1.4,1.4-2.3,2.1-3.7,3.1c-0.7-1.7-1.1-2.5-1.9-3.7c2-1.2,3.7-2.6,5.3-4.5c1.1-1.3,1.7-2.2,2.6-3.9h-4c-1.2,0-2.1,0-3.2,0.2v-3.9
			c1,0.1,1.9,0.2,3.2,0.2h5.8v-1.5c0-1.1,0-1.7-0.2-2.3h4.2c-0.1,0.6-0.1,1.2-0.1,2.3v1.5h6.1c1.3,0,2.3,0,3.2-0.2v3.9
			c-1.1-0.1-1.9-0.2-3.2-0.2H166.2z M160.6,101.4c0-0.8,0-1.3,0.1-2.1c-0.9,1.7-1.7,2.8-3,4.4c0.5,0,0.6,0,1.1,0h1.8V101.4z
			 M166.6,103.7c0.5,0,0.7,0,0.9,0c-1.3-1.5-2.2-2.7-3.1-4.4c0.1,1.4,0.1,1.7,0.1,2.1v2.3H166.6z"/>
		<path d="M175.5,99.8c0.4-1.9,0.6-3.4,0.6-5.3c0-0.3,0-0.7,0-1.2l2.1,0.4c0,0.4,0,0.8,0,1c0,2.1-0.2,4.3-0.5,6L175.5,99.8z
			 M182.1,108.8c0,1.4,0,2,0.1,2.9h-3.8c0.1-0.9,0.1-2.1,0.1-3.4V91.2c0-1.2,0-1.9-0.1-2.7h3.8c-0.1,0.8-0.1,1.4-0.1,2.7v2.2
			l1.2-0.5c0.6,1.2,0.9,2.1,1.2,3.2c0.4,0,0.8,0,1.4,0h3.1v-0.7h-2.7c-0.9,0-1.3,0-1.9,0.1v-2.3c0.7,0,1,0,1.9,0h2.7v-0.6h-2.7
			c-1.5,0-1.9,0-2.6,0.1v-2.8c0.8,0.1,1.3,0.1,2.8,0.1h2.5c0-0.7,0-1-0.1-1.5h3.8c-0.1,0.5-0.1,0.8-0.1,1.5h3c1.4,0,1.9,0,2.7-0.1
			v2.8c-0.7-0.1-1.4-0.1-2.6-0.1h-3.1v0.6h3.1c1,0,1.2,0,1.8,0v2.3c-0.6-0.1-0.9-0.1-1.9-0.1h-3.1v0.7h3.6c1.3,0,1.7,0,2.4-0.1v2.9
			c-0.8-0.1-1.3-0.1-2.4-0.1H186c-1.3,0-1.7,0-2.4,0.1v-2l-0.8,0.3c-0.2-1-0.4-1.6-0.7-2.3V108.8z M187.7,108.7c0,1.2,0,2.1,0.1,3
			H184c0.1-0.8,0.1-1.5,0.1-3v-7.2c0-0.7,0-1.4-0.1-2c0.6,0,0.8,0,1.7,0h9.8c1.1,0,1.6,0,2.2-0.1c-0.1,0.7-0.1,1.3-0.1,2.4v6.9
			c0,2.3-0.9,2.9-4,2.9c-0.4,0-0.9,0-1.9,0c-0.1-1.2-0.3-1.9-0.7-3.1c0.8,0.1,1.6,0.2,2.1,0.2c0.8,0,0.9-0.1,0.9-0.5v-0.5h-6.2
			V108.7z M194,102.6v-0.7h-6.2v0.7H194z M194,105.4v-0.7h-6.2v0.7H194z"/>
		<path d="M209.1,94.8c1.1,0,1.7,0,2.3-0.1v3.5c-0.4,0-0.6-0.1-1.1-0.1c-0.3,1.2-0.3,1.3-0.6,2c0.7,0,1.1,0,1.7-0.1v3.5
			c-0.8-0.1-1.3-0.1-2.3-0.1h-1.2v1.3h1c1,0,1.6,0,2.3-0.1v3.4c-0.7-0.1-1.2-0.1-2.3-0.1h-1v1.2c0,1.3,0,1.9,0.1,2.7h-3.8
			c0.1-0.9,0.1-1.5,0.1-2.7v-1.2h-1c-1,0-1.5,0-2.2,0.1v-3.4c0.7,0.1,1.3,0.1,2.2,0.1h1v-1.3H203c-1,0-1.6,0-2.3,0.1v-3.5
			c0.6,0.1,1,0.1,1.8,0.1c-0.1-0.8-0.3-1.3-0.5-2c-0.6,0-0.9,0-1.3,0.1v-3.5c0.7,0.1,1.3,0.1,2.3,0.1h1.5v-1.2h-1
			c-0.9,0-1.5,0-2.2,0.1v-3.5c0.7,0.1,1.2,0.1,2.2,0.1h1v-0.2c0-0.7,0-1.2-0.1-1.6h3.7c-0.1,0.5-0.1,0.9-0.1,1.6v0.2h0.9
			c1.1,0,1.6,0,2.2-0.1v3.5c-0.8-0.1-1.3-0.1-2.2-0.1h-0.9v1.2H209.1z M206.6,100c0.2-0.7,0.3-1.2,0.5-2h-1.9c0.2,0.8,0.3,1.3,0.4,2
			H206.6z M223.4,98.8c-0.1,0.3-0.2,0.6-0.3,1.2c-0.4,2-1.1,4.2-1.8,5.7c0.9,0.9,1.5,1.3,2.9,2.1c-1,1.5-1.4,2.3-2,3.8
			c-1.2-1-1.7-1.5-2.8-2.7c-0.8,1.1-1.4,1.7-2.5,2.7c-0.5-1.1-0.8-1.7-1.4-2.5c0,1.1,0.1,1.7,0.2,2.5h-3.8c0.1-1,0.1-1.9,0.1-3.4
			V91.8c0-0.8,0-2-0.1-2.7c0.7,0.1,1.4,0.1,2.3,0.1h6.5c1.2,0,2.1,0,2.5-0.1c-0.1,0.9-0.1,0.9-0.1,2.4c-0.2,2.9-0.3,3.7-0.8,4.3
			c-0.5,0.5-1.2,0.7-2.8,0.7c-0.5,0-1.1,0-2.1-0.1c-0.1-1-0.3-1.8-0.6-2.9c1,0.1,1.7,0.2,2.2,0.2c0.5,0,0.6-0.1,0.7-1.2h-3.9v4.6
			h3.8c1.4,0,2.1,0,2.7-0.1L223.4,98.8z M215.5,108c0.7-0.5,1.2-1.1,1.8-1.9c-0.8-1.4-1.4-2.8-1.8-4.4V108z M218,100.2
			c0.3,0.9,0.6,1.7,1,2.6c0.3-0.9,0.5-1.4,0.7-2.6H218z"/>
	</g>
</g>
<path class="st2" d="M388.9,332.3H16.4c-4.6,0-8.3-3.7-8.3-8.3v-38.9c0-4.6,3.7-8.3,8.3-8.3h372.5c4.6,0,8.3,3.7,8.3,8.3V324
	C397.2,328.6,393.5,332.3,388.9,332.3z"/>
<g class="st3">
	<path class="st0" d="M34.6,288.4l0.6,0.7l-7.1,7.2l7.1,7.1l-0.6,0.7l-7.1-7.1l-7.1,7.1l-0.7-0.7l7.1-7.1l-7.1-7.2l0.7-0.7l7.1,7.1
		L34.6,288.4z M23.3,296.2c0,0.9-0.7,1.5-1.5,1.5c-0.8,0-1.5-0.7-1.5-1.5c0-0.8,0.7-1.5,1.5-1.5C22.6,294.6,23.3,295.3,23.3,296.2z
		 M29,302c0,0.8-0.7,1.5-1.5,1.5c-0.8,0-1.5-0.7-1.5-1.5c0-0.8,0.7-1.5,1.4-1.5c0,0,0,0,0.1,0c0,0,0,0,0,0c0,0,0,0,0,0
		C28.3,300.5,29,301.1,29,302z M29,290.4c0,0.9-0.7,1.5-1.5,1.5c-0.8,0-1.5-0.7-1.5-1.5c0-0.8,0.7-1.5,1.5-1.5
		C28.3,288.8,29,289.5,29,290.4z M34.7,296.2c0,0.8-0.7,1.5-1.5,1.5c-0.8,0-1.5-0.7-1.5-1.5s0.7-1.5,1.5-1.5
		C34,294.7,34.7,295.3,34.7,296.2z"/>
	<path class="st0" d="M42,299.4c-1.2,0.6-1.8,0.8-3.2,1.4c-0.6-1.3-0.9-1.8-1.8-2.8c2.3-0.5,4-1.2,6.5-2.6c-0.6-0.7-1.2-1.3-2.1-2
		c-0.7,0.5-1.3,0.8-2.3,1.4c-0.6-1-1.1-1.6-1.9-2.4c1.7-0.8,3-1.6,4.4-2.8c1.1-0.9,2-2,2.6-3.1l3.4,0.7c-0.4,0.6-0.6,0.8-0.8,1.1
		h3.8c0.7,0,1.2,0,1.6-0.1l1.7,1.7c-0.3,0.3-0.3,0.3-0.8,1c-1.4,1.7-3.4,3.7-5.4,5.1h5.4c0.9,0,1.4,0,1.9-0.1
		c-0.1,0.6-0.1,1.2-0.1,2.1v5.5c0,1,0,1.6,0.1,2.2H52v-1h-7v1h-3.1c0.1-0.6,0.1-1.3,0.1-2.2V299.4z M44.3,291
		c-0.3,0.3-0.4,0.4-0.7,0.6c1.4,1.1,1.4,1.1,2.4,2.1c1.3-1,1.9-1.6,2.9-2.7H44.3z M45,301.9h7v-3.2h-7V301.9z"/>
	<path class="st0" d="M62,289c-0.4-0.6-0.5-0.9-1.1-1.6l3.1-0.8c0.6,0.9,1.1,1.7,1.4,2.4H68c0.6-0.8,0.9-1.3,1.3-2.3l3.3,0.7
		c-0.4,0.7-0.7,1.1-1.1,1.6h2.1c1.1,0,1.6,0,2.3-0.1v3c-0.6-0.1-1.1-0.1-2.3-0.1H60c-1.1,0-1.7,0-2.3,0.1v-3C58.4,289,59,289,60,289
		H62z M61.5,303.3c0,1,0,1.5,0.1,2.2h-3.1c0.1-0.7,0.1-1.4,0.1-2.4v-8.9c0-1,0-1.3-0.1-1.8c0.5,0,1,0.1,1.8,0.1H65
		c0.9,0,1.3,0,1.7-0.1c0,0.5-0.1,0.9-0.1,1.9v8.7c0,1.9-0.5,2.3-2.8,2.3c-0.2,0-0.5,0-1,0c-0.2-1.3-0.3-1.6-0.7-2.6
		c0.6,0.1,0.8,0.1,1.1,0.1c0.4,0,0.4-0.1,0.4-0.4v-0.9h-2.3V303.3z M63.8,296v-0.9h-2.3v0.9H63.8z M63.8,299.2v-0.9h-2.3v0.9H63.8z
		 M70.9,292.9c-0.1,0.5-0.1,1.1-0.1,1.9v4.5c0,1,0,1.4,0.1,2.1h-3.1c0.1-0.7,0.1-1.1,0.1-2v-4.6c0-0.8,0-1.3-0.1-1.9H70.9z
		 M75.1,292.4c-0.1,0.6-0.1,1.2-0.1,2.1v8.2c0,1.2-0.2,1.8-0.6,2.2c-0.6,0.5-1.2,0.6-3.1,0.6c-0.2,0-0.2,0-1.7,0
		c-0.2-1.2-0.4-1.8-0.8-2.9c1.1,0.1,1.7,0.1,2.4,0.1c0.7,0,0.8-0.1,0.8-0.6v-7.7c0-1,0-1.4-0.1-2H75.1z"/>
	<path class="st0" d="M82.7,287.6c0.1,0.7,0.2,0.9,0.4,1.6c0.3,0.9,0.3,1,0.6,2.1c1.4-0.4,1.8-0.5,2.9-0.7c0-0.5,0-0.5,0-1.4
		c0-1.3,0-1.5-0.2-2.1H90c-0.1,0.5-0.1,0.7-0.1,1.5c0,0.2,0,0.2,0,1v0.6c0.5,0,0.6,0,0.9,0c1.9,0,3.5,0.8,4.3,2.2
		c0.4,0.6,0.6,1.5,0.6,2.4c0,1.5-0.7,3-1.9,3.9c-1,0.8-2.4,1.2-4,1.2c-0.8,0-1.9-0.1-2.8-0.4c-0.1-1.5-0.2-2.1-0.5-3.3
		c1.2,0.4,2.1,0.6,3,0.6c1.7,0,2.7-0.7,2.7-1.9c0-1-0.8-1.6-2.2-1.6c-1.2,0-2.8,0.3-5.3,1c0.5,1.7,1.5,5.4,2.5,9.5
		c0.1,0.4,0.2,0.6,0.4,1.1l-3.8,0.9c-0.1-0.9-0.4-2.6-1.1-5.5c-0.2-0.8-0.6-2.4-1.3-4.9c-1.6,0.6-2.7,1-3.3,1.3l-1-3.3
		c0.6-0.1,0.6-0.1,2.8-0.8c0.3-0.1,0.4-0.1,0.7-0.2c-0.5-1.8-0.9-3-1.3-3.7L82.7,287.6z"/>
	<path class="st0" d="M112.6,288.6c-0.3,0.5-0.4,0.9-0.8,1.9c-0.8,2-1.6,3.6-2.7,5.3c1.7,1.5,2.4,2.1,4.4,4.2l-2.7,2.8
		c-1.1-1.4-2.2-2.7-3.8-4.1c-1.9,2.5-4.3,4.5-7.8,6.4c-0.7-1.2-1.3-1.9-2.5-3c2.5-1.2,3.8-2.1,5.4-3.5c0.8-0.7,1.5-1.4,2.1-2.2
		c-2.5-1.9-3.6-2.6-5.2-3.6l2.5-2.4c1.8,1.1,2.7,1.7,4.7,3.1c1.2-1.9,2.3-4.6,2.6-6.2L112.6,288.6z"/>
	<path class="st0" d="M115.8,294.2c0.9,0.1,2,0.2,4.1,0.2h9.6c2,0,2.8,0,4.1-0.2v3.9c-1-0.1-1.8-0.1-4.1-0.1h-9.5
		c-2.2,0-2.9,0-4.1,0.1V294.2z"/>
	<path class="st0" d="M142.2,288c-0.1,0.7-0.1,0.7-0.2,4.6c-0.1,4.2-0.5,6.4-1.5,8.6c-0.7,1.5-1.4,2.6-2.8,4c-1-1.3-1.6-1.9-2.9-2.8
		c1.1-1,1.8-1.9,2.4-3.2c0.9-2,1.3-4.4,1.3-9.6c0-0.9,0-1.3-0.1-1.8L142.2,288z M147.9,287.7c-0.1,0.8-0.1,1.1-0.2,2.3l-0.1,10.5
		c1.1-0.7,1.7-1.3,2.4-2.2c0.7-1,1.2-2.1,1.6-3.4c1,1.2,1.5,1.8,2.7,2.6c-0.9,2.2-1.9,3.8-3.5,5.1c-1.2,1-2.2,1.5-4.2,2.3
		c-0.6,0.2-0.7,0.3-1,0.4l-1.7-1.8c0.2-0.5,0.2-0.9,0.2-1.7l0.1-11.9v-0.7c0-0.6,0-1.1-0.1-1.6H147.9z"/>
	<path class="st0" d="M172.2,290.1c-0.3,0.3-0.4,0.4-0.6,1c-1.3,3-3,5-5.6,6.6c-0.7-0.9-1.4-1.5-2.2-2.2c-0.1,2.1-0.5,3.5-1.2,4.9
		c-0.7,1.3-1.7,2.4-3.1,3.4c-0.8,0.6-1.5,0.9-2.8,1.5c-0.8-1.6-1.1-2.1-2.3-3.2c2.2-0.7,3.6-1.6,4.6-2.8c1-1.2,1.3-2.7,1.3-5.3
		c0-0.6,0-0.9-0.1-1.4h3.8c-0.1,0.4-0.1,0.6-0.1,1.7c0,0,0,0.5,0,0.7c0.1-0.1,0.1-0.1,0.5-0.2c1.5-0.7,2.6-1.9,3.4-3.4h-9.6
		c-1.5,0-2.2,0-3.2,0.1v-3.5c0.9,0.1,1.6,0.2,3.2,0.2h10.5c1.1,0,1.3,0,1.7-0.2L172.2,290.1z"/>
	<path class="st0" d="M175.7,305c0.1-0.8,0.1-1.4,0.1-3.1v-11.7c0-1.7,0-1.8-0.1-2.9h3.9c-0.1,0.5-0.1,0.8-0.1,2.9v2.7
		c3.2,1,6.3,2.4,9.1,4.2l-1.9,3.4c-1.7-1.2-4-2.5-6.3-3.5c-0.6-0.2-0.7-0.3-0.7-0.3c-0.1,0-0.1,0-0.2-0.1v5.2c0,1.5,0,2.5,0.1,3.1
		H175.7z M184.7,288.5c0.8,0.9,1.4,1.8,2,2.9l-1.9,0.9c-0.7-1.3-1.2-2-2-2.9L184.7,288.5z M187.4,287.3c0.7,0.8,1.3,1.6,2,2.8
		l-1.8,0.9c-0.7-1.3-1.3-2.1-2-2.9L187.4,287.3z"/>
	<path class="st0" d="M196.8,287.8c-0.1,0.8-0.1,1.3-0.1,2.5l-0.1,10.6c4-0.9,7.1-3.2,8.9-6.8c0.9,1.3,1.5,2,2.7,2.9
		c-2.9,4.5-6.6,6.8-12.5,7.8c-0.7,0.1-0.9,0.2-1.2,0.4l-1.8-2.1c0.2-0.4,0.2-0.6,0.2-1.6l0.1-11.1c0-0.1,0-0.2,0-0.3
		c0-0.9,0-1.6-0.1-2.2L196.8,287.8z"/>
	<path class="st0" d="M223.6,305c-1.7-2.2-3.5-3.9-5.7-5.7c-1.9,2.2-4.3,4-7.4,5.5c-0.7-1.4-1.1-2-2.2-3.2c2.6-1,4.7-2.3,6.5-4
		c1.9-1.8,3.1-3.6,4-5.9l-5.2,0.1c-1.7,0-2.4,0.1-3.2,0.2l-0.1-3.6c0.8,0.1,1.3,0.1,2.1,0.1c0.2,0,0.5,0,1.1,0l6.9-0.1
		c0.9,0,1.1,0,1.6-0.2l1.8,1.8c-0.3,0.3-0.4,0.5-0.7,1.2c-1.1,2.5-1.8,3.9-2.9,5.4c2.4,1.7,3.2,2.4,6.4,5.4L223.6,305z"/>
	<path class="st0" d="M236,287.3c-0.1,0.4-0.1,0.4-0.4,1.6c-0.1,0.5-0.1,0.7-0.2,1.1c1.3-0.1,2.1-0.3,2.8-0.5l0.1,3.2
		c-0.5,0-0.5,0-1.5,0.2c-0.5,0.1-1.6,0.2-2.1,0.2c-0.7,2.4-1.2,3.7-2.2,5.8c-0.4,0.9-0.6,1.3-1.4,2.8c-0.3,0.5-0.3,0.5-0.4,0.8
		l-3.3-1.8c1.4-1.9,2.8-4.7,3.7-7.6c-0.4,0-0.4,0-1.1,0c-0.5,0-0.5,0-0.9,0c-0.1,0-0.2,0-0.8,0V290c0.8,0.1,1.7,0.2,2.9,0.2
		c0.2,0,0.3,0,0.7,0c0-0.2,0-0.2,0.2-0.8c0.2-0.7,0.3-1.7,0.3-2.4L236,287.3z M244.6,304.1c-0.7-0.9-1.5-1.5-2.6-2.2
		c-0.1,0.9-0.3,1.5-0.8,2.1c-0.8,0.8-2.2,1.2-3.8,1.2c-1.6,0-3-0.5-3.8-1.3c-0.7-0.7-1-1.5-1-2.5c0-2.3,1.9-3.9,4.7-3.9
		c0.4,0,0.7,0,1.4,0.1c-0.1-0.8-0.1-1.1-0.1-1.6c0-0.8,0-1.5,0.1-2.4l3.3,0.1c-0.2,0.7-0.2,1.3-0.2,2.3c0,0.7,0,1.3,0.2,2.3
		c1.2,0.5,2.2,1.1,3.1,1.8c0.1,0,0.4,0.3,1,0.8L244.6,304.1z M237.4,300.4c-0.9,0-1.5,0.4-1.5,1c0,0.6,0.6,1,1.4,1
		c1,0,1.5-0.4,1.5-1.3c0-0.1,0-0.4,0-0.4C238.2,300.4,237.9,300.4,237.4,300.4z M244.8,294.8c-1.9-1.2-3.8-2.1-6.2-2.9l1.7-2.8
		c2.5,0.9,4.2,1.6,6,2.7L244.8,294.8z"/>
	<path class="st0" d="M254.8,287.1c0,1,0.6,4.1,1.1,5.9c0.5-0.2,0.8-0.3,1.3-0.4c0.2-0.1,1.2-0.4,2.9-0.9c1.2-0.4,1.2-0.4,1.5-0.5
		l1.1,3.6c-2,0.3-4.8,1-7.2,1.9c-2.6,0.9-3.9,2-3.9,3.1c0,1.2,1.2,1.8,4,1.8c1.8,0,4-0.2,5.9-0.6c0.3-0.1,0.5-0.1,1.1-0.3l0.3,3.8
		c-0.5,0-0.7,0-1.7,0.2c-2.2,0.2-3.6,0.3-5,0.3c-2.9,0-4.9-0.4-6.2-1.3c-1.1-0.7-1.8-2.2-1.8-3.8c0-1.6,0.8-3.1,2.1-4.1
		c0.7-0.6,1.3-0.9,2.5-1.5c-0.5-1.7-0.6-2.5-1.2-5.3c-0.2-1-0.2-1-0.3-1.3L254.8,287.1z M260.2,287c0.7,0.9,1.2,2,1.7,3.2L260,291
		c-0.6-1.4-1.1-2.4-1.7-3.3L260.2,287z M263,286.3c0.8,1,1.2,1.8,1.7,3l-1.9,0.7c-0.6-1.4-1-2.3-1.7-3.1L263,286.3z"/>
</g>
<g class="st3">
	<path class="st0" d="M44.4,313c0-0.4,0-0.5,0-0.9c-0.4,1-0.6,1.6-1.1,2.6v12c0,0.9,0,1.3,0.1,2.3h-3.2c0.1-0.8,0.1-1.4,0.1-2.3
		v-5.2c0-0.2,0-1.2,0-2c-0.1,0.2-0.2,0.3-0.3,0.4c-0.3,0.5-0.4,0.5-0.8,0.9c-0.3-1.4-0.5-2.3-1-3.7c1.1-1.2,2-2.6,2.7-4.6
		c0.4-1.1,0.6-1.9,0.7-2.6l2.6,0.8v0c0.8,0.1,1.4,0.1,2.6,0.1h7.3c1.6,0,2.2,0,2.9-0.1c-0.1,0.7-0.1,1.4-0.1,2.7V326
		c0,1.5,0,2.1,0.1,2.9h-2.9V328h-7.1v0.8h-2.9c0.1-0.7,0.1-1.4,0.1-2.6V313z M47.2,325.3h7.1v-11.9h-7.1V325.3z M52.5,318.5
		c0.4,0,0.7,0,1.1,0c0,0.3,0,0.4,0,1.2v3.9c0,0.8,0,0.9,0,1.2c0,0-0.1,0-0.1,0c-0.1,0-0.4,0-1,0H49c-0.4,0-0.7,0-1.1,0
		c0-0.3,0-0.5,0-1.2v-3.9c0-0.7,0-0.8,0-1.2c0.4,0,0.7,0,1.1,0h0.4v-0.9h-0.9c-0.3,0-0.6,0-0.9,0.1v-2.7c0.3,0.1,0.5,0.1,0.9,0.1
		h0.9v-0.2c0-0.4,0-0.5-0.1-0.8h2.8c-0.1,0.3-0.1,0.5-0.1,0.8v0.2h0.9c0.4,0,0.6,0,0.9-0.1v2.7c-0.3,0-0.5-0.1-0.9-0.1H52v0.9H52.5z
		 M50.1,322.3h1.2v-1.4h-1.2V322.3z"/>
	<path class="st0" d="M70,310.4c-0.1,0.4-0.1,0.9-0.1,1.6c0,2.2,0.3,4.4,0.8,5.9c0.7,2.1,2,4,3.8,5.6c1.1,1,2,1.6,3.5,2.3
		c-0.9,1.1-1.3,1.7-2,3.2c-2.2-1.3-3.6-2.5-4.9-4.1c-1.2-1.4-2-2.9-2.7-5c-0.9,2.6-1.7,4.1-3.3,5.8c-1.3,1.3-2.5,2.3-4.3,3.3
		c-0.6-1.3-1-1.8-2-2.9c3-1.5,4.6-3,5.9-5.1c1.3-2.2,1.9-5.2,1.9-8.9c0-0.7,0-1.1-0.1-1.6H70z"/>
	<path class="st0" d="M79.8,312.1c0.9,0.2,2.1,0.3,4.1,0.3c0.1,0,0.3,0,0.6,0c0.4-1,0.5-1.5,0.6-2.2l3.7,0.3
		c-0.2,0.3-0.2,0.3-0.4,0.9c-0.3,0.6-0.4,0.9-0.4,0.9c0.2,0,0.2,0,1.2-0.1c2-0.1,4-0.4,5.1-0.6l0.1,3.2c-0.6,0.1-1.2,0.1-1.8,0.2
		c-1.4,0.1-3.9,0.3-6,0.3c-0.3,0.6-0.5,0.8-1,1.5c0.9-0.4,1.7-0.6,2.5-0.6c1.7,0,2.7,0.6,3.1,1.9c0.3-0.1,0.3-0.1,1.4-0.5
		c0.1,0,0.6-0.2,1.2-0.4c1.1-0.4,1.3-0.4,1.6-0.6l1.2,3.2c-1,0.1-3.2,0.7-5.1,1.4c0,0.5,0,0.6,0,1.4c0,0.9,0,1.2,0.1,1.7l-3.3,0.1
		c0.1-0.3,0.1-0.9,0.1-2.1l-0.2,0.1c-0.9,0.4-1,0.5-1.4,0.8c-0.3,0.3-0.5,0.7-0.5,1c0,0.8,0.7,1.1,2.7,1.1c2.4,0,4.7-0.4,6.4-1
		l0.2,3.6c-0.6,0-0.6,0-1.8,0.2c-1.6,0.2-3.3,0.3-4.8,0.3c-2.3,0-3.7-0.3-4.8-0.9c-1-0.6-1.6-1.6-1.6-2.8c0-0.9,0.3-1.7,1-2.5
		c0.7-0.9,1.6-1.5,2.9-2.1c0.5-0.2,0.7-0.3,1.5-0.7c-0.2-0.3-0.4-0.5-0.8-0.5c-1,0-2.4,0.7-3.8,1.9c-0.8,0.7-1.4,1.3-1.9,2l-2.5-2.5
		c0.6-0.5,1.5-1.3,2.1-2.1c0.4-0.5,1.2-1.7,1.5-2.2c0.3-0.5,0.3-0.5,0.4-0.6c-0.3,0-0.5,0-0.6,0c-0.9,0-0.9,0-1.7,0
		c-0.3,0-0.4,0-0.7,0c0,0-0.2,0-0.3,0L79.8,312.1z"/>
	<path class="st0" d="M107.5,322.4c-0.8,0-1.3,0-2,0.1v-0.7c-0.7,0.3-0.7,0.3-1.2,0.5v4.1c0,1,0,1.7,0.1,2.5h-3.2
		c0.1-0.6,0.1-1.6,0.1-2.5v-3.1c-0.5,0.2-0.8,0.2-1.1,0.4c-1.1,0.3-1.1,0.3-1.6,0.5l-0.5-3.1c0.9-0.1,1.5-0.2,3.3-0.7v-3.8h-0.8
		c-0.1,1.2-0.2,1.7-0.6,2.9c-0.9-0.6-1.3-0.8-2.2-1.1c0.5-1.6,0.8-3.6,0.8-5.7c0-0.4,0-0.6-0.1-0.9l2.3,0.3c0,0.3,0,0.4-0.1,1.3
		c0,0.2,0,0.3,0,0.5h0.5v-2.1c0-0.6,0-1.1-0.1-1.6h3.2c-0.1,0.5-0.1,1-0.1,1.6v2.1c0.7,0,1,0,1.4-0.1v2.1c0.7,0,1.3,0.1,2.2,0.1h1.6
		v-1.2h-1.2c-0.9,0-1.6,0-2.2,0.1v-3c0.7,0.1,1.3,0.1,2.2,0.1h1.2v-0.4c0-0.6,0-1-0.1-1.4h3.2c-0.1,0.4-0.1,0.8-0.1,1.4v0.4h1.6
		c1,0,1.6,0,2.3-0.1v3c-0.6-0.1-1.3-0.1-2.3-0.1h-1.6v1.2h2c1.1,0,2,0,2.5-0.1v2.9c-0.6-0.1-1.3-0.1-2-0.1v1.1c1,0,1.4,0,1.8-0.1v3
		c-0.6-0.1-1-0.1-1.8-0.1v4.1c0,1.7-0.9,2.3-3.5,2.3c-0.4,0-1,0-1.7-0.1c-0.1-1.2-0.3-1.8-0.6-2.6l-0.9,0.7
		c-0.7-1.4-1.3-2.2-2.4-3.3l1.9-1.1H107.5z M104.4,319.5c0.5-0.2,0.5-0.2,1.4-0.5v0.5c0.5,0.1,1.1,0.1,2.2,0.1h4v-1.1h-4.1
		c-1.2,0-1.9,0-2.5,0.1v-2c-0.6,0-0.6,0-1.1,0V319.5z M108.7,322.4c0.8,0.8,1.4,1.5,2,2.5l-1.3,1c0.9,0.1,1.4,0.1,1.7,0.1
		c0.6,0,0.8-0.1,0.8-0.5v-3.1H108.7z"/>
	<path class="st0" d="M126.5,318.6H123c-0.9,0-1.5,0-2.1,0.1v-1.7h-2.3c0.1-0.5,0.1-1,0.1-1.8v-1.9c0-0.5,0-1-0.1-1.6
		c0.8,0.1,1.5,0.1,2.4,0.1h4.9v-0.4c0-0.5,0-0.9-0.1-1.3h3.4c-0.1,0.4-0.1,0.7-0.1,1.3v0.4h5.1c0.8,0,1.6,0,2.4-0.1
		c-0.1,0.6-0.1,1-0.1,1.6v1.9c0,0.6,0,1.1,0.1,1.7h-2.2v1.7c-0.6-0.1-1.1-0.1-2.1-0.1h-2.8v1.9h3.6c1,0,1.5,0,2.1-0.1v2.9
		c-0.6-0.1-1.1-0.1-2.1-0.1h-3.6v2.4c0.8,0.1,1.3,0.1,2,0.1c1.8,0,3.2-0.1,5.6-0.3c-0.4,1.2-0.5,1.9-0.7,3.1c-2.1,0.1-2.9,0.1-4,0.1
		c-3.2,0-5.1-0.2-6.5-0.8c-1.2-0.5-2.2-1.2-3-2.2c-0.8,1.4-1.4,2.3-2.4,3.5c-0.7-0.9-1.3-1.5-2.4-2.3c1.7-1.7,2.6-3.1,3.3-5.3
		c0.2-0.7,0.4-1.6,0.5-2l3,0.6c-0.1,0.5-0.2,0.8-0.2,1c-0.1,0.5-0.3,1.1-0.6,1.9c0.5,0.7,0.6,0.9,1,1.3c0.4,0.4,0.8,0.6,1.4,0.9
		V318.6z M133.6,314.6h-11.9v1.3c0.4,0,0.7,0,1.3,0h9.3c0.6,0,0.9,0,1.3,0V314.6z"/>
	<path class="st0" d="M138.2,312.6c0.5,0,0.7,0.1,1.2,0.1c0.5,0,5.9-0.1,7.8-0.2c0-1.3,0-1.5-0.1-2.1h3.5c-0.1,0.7-0.1,0.9-0.1,2
		c3.3,0,4.8-0.1,5.6-0.1l0,3.3c-0.9-0.1-1.3-0.1-3.6-0.1c-1.1,0-1.2,0-2,0v2.5c0,0.1,0,0.2,0,0.4c0.6,1.1,0.8,2,0.8,3.3
		c0,2.2-1.2,4.2-3.3,5.5c-1,0.6-2.1,1.1-4,1.6c-0.6-1.4-1-2.2-1.9-3.2c2-0.3,3.2-0.6,4.1-1.2c0.7-0.4,1.2-0.9,1.5-1.6
		c-0.8,0.7-1.5,0.9-2.7,0.9c-2.3,0-4-1.5-4-3.7c0-2.3,1.9-3.8,4.6-3.8c0.6,0,1.1,0.1,1.6,0.2c0-0.2,0-0.2,0-0.6c0-0.3,0-0.3,0-0.5
		c-4.1,0.1-7.4,0.3-9,0.5L138.2,312.6z M144.4,320.1c0,0.6,0.6,1.1,1.3,1.1c0.9,0,1.5-0.5,1.5-1.2c0-0.6-0.5-1-1.3-1
		C145,318.9,144.4,319.4,144.4,320.1z"/>
	<path class="st0" d="M159.6,311.2c0.8,0.1,1.6,0.1,2.9,0.1c1.8,0,4-0.1,6-0.2c0.9-0.1,1.1-0.1,1.5-0.3l1.6,2.4
		c-0.5,0.3-0.5,0.3-3.2,2.6c-1.1,0.9-1.4,1.2-2.8,2.2c1.1-0.3,1.7-0.4,2.7-0.4c1.9,0,3.2,0.4,4.3,1.4c1,0.9,1.5,2,1.5,3.5
		c0,2-0.9,3.6-2.8,4.7c-1.4,0.8-3.3,1.3-5.3,1.3c-3.4,0-5.4-1.3-5.4-3.6c0-1.9,1.7-3.2,4-3.2c1.4,0,2.7,0.6,3.6,1.5
		c0.4,0.4,0.6,0.8,0.9,1.6c1.1-0.5,1.6-1.2,1.6-2.2c0-1.4-1.4-2.3-3.6-2.3c-2.1,0-4.4,0.7-6.2,1.8c-0.6,0.4-1.3,0.9-1.9,1.5l-1.9-3
		c1.8-0.9,6.1-4.1,8.6-6.6c-1.1,0.1-1.9,0.2-4.7,0.3c-0.5,0-0.9,0.1-1.3,0.1L159.6,311.2z M164.6,324.2c-0.5,0-0.8,0.3-0.8,0.7
		c0,0.5,0.6,0.9,1.7,0.9c0.2,0,0.3,0,0.7-0.1C166,324.8,165.4,324.2,164.6,324.2z"/>
	<path class="st0" d="M175.7,319.3c0.3-1.5,0.5-2.8,0.5-4.3c0-0.2,0-0.5,0-0.9l1.7,0.3c0,0.3,0,0.7,0,0.8c0,1.7-0.1,3.5-0.4,4.9
		L175.7,319.3z M181.1,326.5c0,1.1,0,1.6,0.1,2.4h-3.1c0.1-0.7,0.1-1.7,0.1-2.8v-13.9c0-1,0-1.6-0.1-2.2h3.1
		c-0.1,0.7-0.1,1.2-0.1,2.2v1.8l1-0.4c0.5,1,0.8,1.7,1,2.6c0.4,0,0.6,0,1.2,0h2.5v-0.6h-2.2c-0.8,0-1,0-1.5,0.1v-1.9
		c0.5,0,0.8,0,1.6,0h2.2v-0.5h-2.2c-1.2,0-1.5,0-2.1,0.1v-2.3c0.6,0.1,1.1,0.1,2.3,0.1h2c0-0.6,0-0.8-0.1-1.2h3.1
		c-0.1,0.4-0.1,0.7-0.1,1.2h2.4c1.2,0,1.6,0,2.2-0.1v2.3c-0.6-0.1-1.1-0.1-2.1-0.1h-2.5v0.5h2.5c0.8,0,1,0,1.5,0v1.9
		c-0.5-0.1-0.7-0.1-1.5-0.1h-2.5v0.6h3c1,0,1.4,0,2-0.1v2.3c-0.7-0.1-1-0.1-2-0.1h-8.4c-1,0-1.4,0-2,0.1v-1.6l-0.6,0.3
		c-0.2-0.8-0.3-1.3-0.5-1.9V326.5z M185.7,326.5c0,1,0,1.7,0.1,2.4h-3.1c0.1-0.7,0.1-1.2,0.1-2.4v-5.9c0-0.6,0-1.1-0.1-1.7
		c0.5,0,0.7,0,1.3,0h7.9c0.9,0,1.3,0,1.8-0.1c-0.1,0.5-0.1,1.1-0.1,2v5.6c0,1.8-0.7,2.3-3.3,2.3c-0.4,0-0.7,0-1.5,0
		c-0.1-1-0.2-1.5-0.6-2.5c0.7,0.1,1.3,0.1,1.7,0.1c0.6,0,0.8-0.1,0.8-0.4v-0.4h-5V326.5z M190.8,321.5v-0.6h-5v0.6H190.8z
		 M190.8,323.8v-0.6h-5v0.6H190.8z"/>
	<path class="st0" d="M203.1,315.1c0.9,0,1.3,0,1.9-0.1v2.8c-0.3,0-0.5-0.1-0.9-0.1c-0.2,0.9-0.3,1.1-0.5,1.6c0.6,0,0.9,0,1.4-0.1
		v2.8c-0.6-0.1-1-0.1-1.9-0.1h-1v1.1h0.8c0.8,0,1.3,0,1.8-0.1v2.8c-0.6-0.1-1-0.1-1.8-0.1h-0.8v0.9c0,1,0,1.6,0.1,2.2h-3.1
		c0.1-0.7,0.1-1.2,0.1-2.2v-0.9h-0.8c-0.8,0-1.2,0-1.8,0.1V323c0.6,0.1,1,0.1,1.8,0.1h0.8V322h-1.2c-0.8,0-1.3,0-1.9,0.1v-2.8
		c0.5,0.1,0.8,0.1,1.5,0.1c-0.1-0.6-0.2-1.1-0.4-1.6c-0.5,0-0.7,0-1.1,0.1V315c0.6,0.1,1,0.1,1.9,0.1h1.2v-1h-0.8
		c-0.8,0-1.2,0-1.8,0.1v-2.8c0.6,0.1,0.9,0.1,1.8,0.1h0.8v-0.2c0-0.6,0-1-0.1-1.3h3c-0.1,0.4-0.1,0.7-0.1,1.3v0.2h0.7
		c0.9,0,1.3,0,1.8-0.1v2.8c-0.6-0.1-1.1-0.1-1.8-0.1h-0.7v1H203.1z M201.1,319.4c0.2-0.6,0.3-1,0.4-1.6h-1.6c0.2,0.6,0.3,1,0.4,1.6
		H201.1z M214.7,318.4c-0.1,0.3-0.1,0.5-0.2,1c-0.4,1.7-0.9,3.4-1.5,4.6c0.7,0.7,1.2,1,2.3,1.7c-0.8,1.2-1.1,1.9-1.6,3.1
		c-1-0.8-1.4-1.2-2.3-2.2c-0.6,0.9-1.1,1.4-2,2.2c-0.4-0.9-0.7-1.4-1.1-2c0,0.9,0.1,1.4,0.1,2.1h-3.1c0.1-0.8,0.1-1.5,0.1-2.8v-13.4
		c0-0.7,0-1.6-0.1-2.2c0.6,0.1,1.1,0.1,1.8,0.1h5.2c1,0,1.7,0,2-0.1c-0.1,0.8-0.1,0.8-0.1,2c-0.1,2.4-0.3,3-0.7,3.5
		c-0.4,0.4-1,0.6-2.3,0.6c-0.4,0-0.9,0-1.7-0.1c-0.1-0.8-0.2-1.5-0.5-2.4c0.8,0.1,1.4,0.2,1.8,0.2s0.5-0.1,0.5-1h-3.2v3.7h3.1
		c1.1,0,1.7,0,2.2-0.1L214.7,318.4z M208.3,325.9c0.5-0.4,1-0.9,1.5-1.5c-0.6-1.2-1.1-2.3-1.5-3.6V325.9z M210.3,319.6
		c0.2,0.8,0.5,1.4,0.8,2.1c0.3-0.7,0.4-1.1,0.6-2.1H210.3z"/>
	<path class="st0" d="M221.8,311c-0.2,0.4-0.4,1.1-0.6,2c-0.6,2.7-0.9,5-1,7.8l1.5,0.5c-0.6,1.9-0.8,3.6-0.8,6.1
		c0,0.1,0,0.4,0.1,0.8l-3.4,0.1c0-0.4,0-0.4-0.2-1.6c-0.4-2.8-0.4-3.9-0.4-6.1c0-2.8,0.2-4.6,0.8-8.1c0.2-0.9,0.2-1.4,0.2-1.7
		c0,0,0-0.1,0-0.1L221.8,311z M222.5,314.2c0.8,0.2,2.2,0.3,3.7,0.3c0.4,0,0.8,0,1.4,0c0-1.2,0-1.2,0-2.6c0-0.5,0-0.8-0.1-1.1l3.5,0
		c-0.1,0.6-0.2,1.5-0.2,3.5c1.2-0.1,2.4-0.4,3.2-0.6l0.1,3.2c-0.3,0-0.3,0-0.7,0.1c-0.6,0.1-1.5,0.3-2.5,0.4c0,1.6,0,2,0.2,4.3
		c1.4,0.6,2.1,1,3.2,1.8c0.1,0.1,0.2,0.1,0.4,0.2l-1.3,3.4c-0.5-0.6-1.2-1.2-2.4-1.9c0,0.1,0,0.1,0,0.2c0,1.7-1.7,2.8-4.3,2.8
		c-2.9,0-4.7-1.4-4.7-3.7c0-1.2,0.5-2.2,1.5-2.9c0.8-0.5,1.8-0.8,3.1-0.8c0.4,0,0.7,0,1.2,0.1c0-0.6,0-0.7-0.1-1.6c0-0.7,0-1,0-1.7
		c-0.5,0-0.7,0-1.1,0c-0.6,0-1.8,0-3.4-0.1c-0.2,0-0.4,0-0.5,0c0,0-0.1,0-0.2,0L222.5,314.2z M227.9,323.8c-0.5-0.2-0.8-0.2-1.2-0.2
		c-0.9,0-1.5,0.4-1.5,0.9c0,0.5,0.5,0.9,1.3,0.9c1,0,1.4-0.4,1.4-1.2L227.9,323.8z"/>
	<path class="st0" d="M239.9,321.8c0.2-0.1,0.6-0.2,1.2-0.4v-8.7c0-1.2,0-1.8-0.1-2.5h3.3c-0.1,0.7-0.1,1.3-0.1,2.5V326
		c1.3-0.8,2.5-1.9,3.5-3.3c-0.7-1.2-1.1-2.1-1.6-3.6c-0.6-1.7-0.9-2.7-1.2-4.3l2.8-1h-0.7c-1.2,0-1.6,0-2.1,0.1v-3.1
		c0.8,0.1,1.4,0.1,2.4,0.1h5.5c0.7,0,1.1,0,1.7-0.1c0,0.3,0,0.3-0.1,1c-0.2,3-0.6,5.1-1.4,7.4c-0.4,1.2-1,2.4-1.5,3.3
		c1.2,1.3,2.3,2.2,4,3.2c-0.7,1.2-1,1.8-1.5,3.2c-1.7-1.1-3.1-2.4-4.3-3.7c-1.2,1.5-2.4,2.7-3.9,3.7c-0.5-1-0.7-1.5-1.4-2.4
		c0,1.2,0,1.6,0.1,2.3h-3.3c0.1-0.8,0.1-1.3,0.1-2.5v-2.1c-0.9,0.4-2,0.8-3.7,1.4c-0.4,0.2-0.6,0.2-1,0.4l-0.5-3.3
		c0.5-0.1,0.6-0.1,1.1-0.2v-8c0-1.2,0-1.8-0.1-2.5h3.2c-0.1,0.7-0.1,1.3-0.1,2.5V321.8z M247.6,313.8c0.4,2.4,0.9,4.2,1.7,5.8
		c0.8-1.9,1.1-3.4,1.4-5.8H247.6z"/>
	<path class="st0" d="M267.7,319.2h4.2c1,0,1.5,0,2.1-0.1v2.2c-0.6-0.1-1-0.1-2-0.1h-5.1v0.7h5.3c1.2,0,1.9,0,2.3-0.1v2.6
		c-0.7-0.1-1.2-0.1-2.3-0.1h-3c1.3,0.8,3.5,1.5,5.8,1.7c-0.7,1-0.8,1.3-1.5,2.8c-1.6-0.4-2.5-0.7-3.6-1.2c-1.3-0.6-2.1-1.1-3.1-1.9
		c0,0.5,0.1,0.8,0.1,1.1v0.8c0,0.6,0,0.9,0.1,1.4h-3.3c0.1-0.4,0.1-0.8,0.1-1.4v-0.8c0-0.4,0-0.7,0.1-1.1c-1,0.9-1.9,1.5-3.3,2.1
		c-1,0.4-2.1,0.8-3.3,1.1c-0.4-1-0.8-1.7-1.4-2.7c2.4-0.3,4.2-0.9,5.6-1.9h-2.8c-1.1,0-1.6,0-2.3,0.1v-2.6c0.5,0.1,1.1,0.1,2.3,0.1
		h5.3v-0.7h-3.5c-0.8,0-1.4,0-2,0.1c0.1-0.5,0.1-1,0.1-1.8v-1.6c0-0.5,0-0.9,0.1-1.5c-0.5,0.6-0.8,0.8-1.5,1.4
		c-0.4-1.3-0.7-1.9-1.3-2.9c1.5-1,2.4-2.1,3.4-3.6c0.3-0.4,0.5-0.9,0.6-1.3l3.2,0.4c-0.4,0.7-0.5,0.9-0.9,1.4h2.9
		c0.4-0.6,0.6-1.1,0.9-1.8l3.2,0.3c-0.3,0.6-0.6,1-0.9,1.6h3.6c0.9,0,1.4,0,2.1-0.1v2.4c-0.4,0-0.9-0.1-1.6-0.1h-4.5v0.6h3.4
		c1.2,0,1.4,0,2-0.1v1.8c-0.6-0.1-0.8-0.1-2-0.1h-3.4v0.6h3.4c1.2,0,1.4,0,2-0.1v1.8c-0.5-0.1-0.8-0.1-2-0.1h-3.4V319.2z
		 M264.8,313.9h-3.4v0.6h3.4V313.9z M264.8,316.2h-3.4v0.6h3.4V316.2z M261.4,318.5v0.7h3.4v-0.7H261.4z"/>
	<path class="st0" d="M282,310.9c-0.2,1.3-0.5,6.6-0.5,10c0,2,0.1,2.6,0.4,3.1c0.4,0.6,1.2,1,2.3,1c2.1,0,3.7-1.2,4.4-3.4
		c0.4-1.1,0.6-2.1,0.8-3.6c1.5,1.2,2.1,1.6,3.4,2.1c-0.8,3-1.4,4.5-2.5,5.7c-1.6,1.7-3.7,2.6-6.3,2.6c-2,0-3.6-0.5-4.6-1.5
		c-1.1-1.1-1.5-2.4-1.5-5.2c0-0.5,0-0.5,0.1-4.5c0-2,0.1-3.9,0.1-4.7c0-0.6,0-0.9-0.1-1.5L282,310.9z"/>
	<path class="st0" d="M295.3,312.3c1.2,0.3,3.2,0.4,5.8,0.4c0.2,0,0.5,0,1.1,0c0-1.3,0-1.7-0.1-2.2h3.5c-0.1,0.5-0.1,0.7-0.2,2.1
		c2.7-0.2,4.5-0.4,5.7-0.7l0.1,3.1c-0.6,0-0.7,0-1.8,0.2c-1.3,0.2-2.5,0.3-4,0.3c0,0.5,0,0.5,0,1.3c2.3-0.1,3.8-0.3,5.2-0.6l0.1,3.1
		c-0.4,0-0.4,0-1.3,0.1c-0.9,0.1-2.8,0.2-3.9,0.3c0,0.9,0,0.9,0.1,1.8c1,0.3,1.7,0.5,2.7,1.1c1,0.5,1.3,0.7,2.7,1.7
		c0.3,0.2,0.4,0.3,0.8,0.5l-1.9,3.2c-0.6-0.6-0.6-0.6-1.4-1.3c-0.9-0.8-1.9-1.4-2.8-1.8c0,0.9-0.1,1.5-0.5,2c-0.7,1-2.2,1.6-4.4,1.6
		c-3.3,0-5.1-1.3-5.1-3.7c0-1.5,0.9-2.7,2.5-3.3c0.9-0.4,2.1-0.5,3.6-0.5c0.3,0,0.3,0,0.6,0c0-0.7,0-1.1,0-1.2c-0.4,0-1.2,0-1.5,0
		c-1.2,0-2.1,0-3.2-0.1c-0.9,0-1-0.1-1.6-0.1l0-3c0.9,0.2,2.9,0.3,4.9,0.3c0.4,0,0.7,0,1.3,0c0-0.1,0-0.2,0-0.3c0,0,0,0,0-0.5
		c0-0.3,0-0.3,0-0.5c-0.5,0-0.7,0-0.8,0c-1.1,0-1.4,0-3.7-0.1c-0.8,0-0.8,0-1.5-0.1c-0.3,0-0.5,0-0.5,0c-0.1,0-0.2,0-0.3,0
		L295.3,312.3z M301.1,323.7c-1.2,0-1.9,0.3-1.9,1c0,0.5,0.6,0.8,1.6,0.8c1.1,0,1.6-0.4,1.6-1.3c0-0.1,0-0.3,0-0.3
		C301.8,323.7,301.5,323.7,301.1,323.7z"/>
	<path class="st0" d="M320.3,310.9c-0.1,0.8-0.2,1.7-0.2,3.6c2.1-0.1,2.9-0.1,5.1-0.2c0-0.1,0-0.2,0-0.2c0-1.2-0.1-2.7-0.2-3.4h3.4
		c-0.1,0.4-0.1,1-0.1,1.9v1.3c0,0,0,0.2,0,0.3c3-0.1,3-0.1,3.6-0.2l0,3.4c-0.7,0-1-0.1-1.7-0.1c-0.3,0-0.3,0-2,0c0,3-0.2,4.1-1,5
		c-0.5,0.5-1.3,0.8-2.4,0.8c-0.9,0-1.9-0.2-3-0.6c0-0.2,0-0.3,0-0.5c0-1-0.1-1.7-0.2-2.8c1,0.5,2,0.8,2.7,0.8c0.6,0,0.8-0.4,0.8-2.6
		c-1.8,0.1-3.5,0.1-5.1,0.2c0,4.3,0,5.3,0.2,5.9c0.3,1,1,1.3,3.6,1.3c2.4,0,4.8-0.3,6.3-0.9l0.2,3.7c-0.8,0.1-0.8,0.1-2,0.2
		c-1.9,0.2-3.2,0.3-4.7,0.3c-1.9,0-3.4-0.2-4.2-0.5c-1.5-0.6-2.2-1.5-2.5-3.3c-0.1-0.8-0.2-2.4-0.2-5.3c0-0.3,0-0.7,0-1.2
		c-1.8,0.1-2.4,0.1-3.4,0.3l-0.2-3.3c0.3,0,0.4,0,0.7,0c0.3,0,1.3,0,2.9-0.1c0-0.3,0-0.4,0-0.6c0-1.7,0-2.3-0.2-3.2H320.3z"/>
	<path class="st0" d="M342.6,311.2c-0.4,0.8-0.7,1.5-3,7.5c0.8-0.6,1.6-0.9,2.5-0.9c1.3,0,2.3,0.7,2.7,1.9c0.2,0.7,0.2,0.9,0.2,3.4
		c0,1.4,0.2,1.8,1,1.8c0.8,0,1.4-0.5,1.9-1.6c0.5-1.1,0.7-2.3,0.8-3.7c1.2,1,1.7,1.4,3.2,2c-0.4,2.1-0.9,3.4-1.8,4.6
		c-1,1.4-2.6,2.1-4.5,2.1c-1.3,0-2.3-0.3-2.9-1c-0.7-0.7-1-1.6-1-3c0-0.2,0-0.6,0-1.4c0-0.1,0-0.3,0-0.3c0-1-0.2-1.3-0.8-1.3
		c-0.9,0-1.9,0.9-2.7,2.6c-0.6,1.3-1.3,3.3-1.6,4.6l-3.7-1.1c0.4-0.7,0.4-0.8,1.6-4.3c0.2-0.5,0.9-2.5,2.1-6c1.6-4.7,2-5.9,2.1-6.7
		L342.6,311.2z"/>
	<path class="st0" d="M360.3,325.1c0,2.1-1.7,3.8-3.8,3.8c-2.1,0-3.8-1.7-3.8-3.8c0-2.1,1.7-3.8,3.8-3.8S360.3,323,360.3,325.1z
		 M354.8,325.1c0,1,0.8,1.7,1.7,1.7c1,0,1.7-0.8,1.7-1.7c0-1-0.8-1.7-1.7-1.7C355.6,323.4,354.8,324.2,354.8,325.1z"/>
</g>
</svg>
