<?xml version="1.0" encoding="utf-8"?>
<!-- Generator: Adobe Illustrator 24.0.1, SVG Export Plug-In . SVG Version: 6.00 Build 0)  -->
<svg version="1.1" xmlns="http://www.w3.org/2000/svg" xmlns:xlink="http://www.w3.org/1999/xlink" x="0px" y="0px"
	 viewBox="0 0 522.3 208.8" style="enable-background:new 0 0 522.3 208.8;" xml:space="preserve">
<style type="text/css">
	.st0{fill:url(#SVGID_1_);}
	.st1{opacity:0.28;clip-path:url(#SVGID_3_);}
	.st2{fill:#FFFFFF;}
	.st3{fill:url(#SVGID_4_);}
	.st4{opacity:0.28;clip-path:url(#SVGID_6_);}
	.st5{fill:url(#SVGID_7_);}
	.st6{opacity:0.28;clip-path:url(#SVGID_9_);}
	.st7{fill:url(#SVGID_10_);}
	.st8{opacity:0.28;clip-path:url(#SVGID_12_);}
	.st9{fill:#040000;}
	.st10{fill:none;stroke:#040000;stroke-width:2.3936;stroke-miterlimit:10;}
	.st11{fill:#FDE2D6;}
	.st12{fill:#FFE5B0;}
	.st13{fill:#FF9DA6;}
	.st14{fill:#FF6F63;}
	.st15{fill:url(#SVGID_13_);}
	.st16{fill:url(#SVGID_14_);}
	.st17{fill:url(#SVGID_15_);}
	.st18{fill:url(#SVGID_16_);}
	.st19{fill:url(#SVGID_17_);}
	.st20{fill:url(#SVGID_18_);}
	.st21{fill:#FFEFDD;}
	.st22{fill:#000018;}
	.st23{fill:#0E0B01;}
	.st24{fill:#747474;}
	.st25{fill:#133C36;}
	.st26{enable-background:new    ;}
	.st27{fill:#FFE501;}
	.st28{fill:#E60000;}
	.st29{fill:#1E1D1D;}
	.st30{clip-path:url(#SVGID_20_);}
	.st31{fill:#450000;}
	.st32{fill:#FF4143;}
	.st33{fill:#A38A77;}
	.st34{clip-path:url(#SVGID_22_);}
	.st35{fill:none;stroke:#FFFFFF;stroke-width:2;stroke-miterlimit:10;}
	.st36{stroke:#FFFFFF;stroke-width:1.0406;stroke-miterlimit:10;}
	.st37{fill:#231815;}
	.st38{fill:#FF908D;}
	.st39{fill:#FF9FAA;}
</style>
<g id="レイヤー_2">
	
		<linearGradient id="SVGID_1_" gradientUnits="userSpaceOnUse" x1="261.15" y1="-1737.9828" x2="261.15" y2="-1529.1827" gradientTransform="matrix(1 0 0 -1 0 -1529.1827)">
		<stop  offset="0" style="stop-color:#FFEC00"/>
		<stop  offset="0.9879" style="stop-color:#FFCE52"/>
	</linearGradient>
	<rect y="0" class="st0" width="522.3" height="208.8"/>
	<g>
		<g>
			<g>
				<g>
					<defs>
						<rect id="SVGID_8_" y="0" width="522.3" height="208.8"/>
					</defs>
					<clipPath id="SVGID_3_">
						<use xlink:href="#SVGID_8_"  style="overflow:visible;"/>
					</clipPath>
					<g class="st1">
						<polygon class="st2" points="-25.3,165.6 -58.1,165.6 -5.9,43.2 27,43.2 						"/>
						<polygon class="st2" points="29.2,165.6 -3.6,165.6 48.6,43.2 81.4,43.2 						"/>
						<polygon class="st2" points="83.7,165.6 50.9,165.6 103.1,43.2 135.9,43.2 						"/>
						<polygon class="st2" points="138.2,165.6 105.3,165.6 157.6,43.2 190.4,43.2 						"/>
						<polygon class="st2" points="192.7,165.6 159.8,165.6 212.1,43.2 244.9,43.2 						"/>
						<polygon class="st2" points="247.2,165.6 214.3,165.6 266.6,43.2 299.4,43.2 						"/>
						<polygon class="st2" points="301.7,165.6 268.8,165.6 321,43.2 353.9,43.2 						"/>
						<polygon class="st2" points="356.2,165.6 323.3,165.6 375.5,43.2 408.4,43.2 						"/>
						<polygon class="st2" points="410.7,165.6 377.8,165.6 430,43.2 462.9,43.2 						"/>
						<polygon class="st2" points="465.2,165.6 432.3,165.6 484.5,43.2 517.4,43.2 						"/>
						<polygon class="st2" points="519.6,165.6 486.8,165.6 539,43.2 571.9,43.2 						"/>
					</g>
				</g>
			</g>
		</g>
	</g>
</g>
<g id="レイヤー_1">
	<g>
		<path class="st9" d="M455.5-0.7L445.8,9h10.6l16.2-16h-10.7l-6.3,6.2L455.5-0.7L455.5-0.7z M506.3-0.7L496.5,9H507l16.2-16h-10.7
			l-6.3,6.2L506.3-0.7L506.3-0.7z M487.3-7L471,9h10.7L498-7H487.3z M436.5-7L420.3,9H431l16.2-16H436.5z M151.2-0.7L141.4,9H152
			l16.2-16h-10.7l-6.3,6.2V-0.7z M132.2-7L116,9h10.7l16.2-16H132.2z M201.9-0.7L192.1,9h10.6l16.2-16h-10.7l-6.3,6.2L201.9-0.7
			L201.9-0.7z M182.9-7L166.7,9h10.7l16.2-16H182.9z M100.5-0.7L90.6,9h10.6l16.2-16h-10.7l-6.3,6.2v0.1
			C100.4-0.7,100.5-0.7,100.5-0.7z M49.7-0.7L39.9,9h10.6L66.7-7H56l-6.3,6.2V-0.7z M81.5-7L65.2,9h10.7L92.2-7H81.5z M335.1-7
			L318.9,9h10.7l16.2-16H335.1z M354.1-0.7L344.4,9H355l16.2-16h-10.7l-6.3,6.2L354.1-0.7L354.1-0.7z M404.8-0.7L395,9h10.6l16.2-16
			h-10.7l-6.3,6.2L404.8-0.7L404.8-0.7z M385.8-7L369.6,9h10.7l16.2-16H385.8z M233.6-7L217.4,9h10.7l16.2-16H233.6z M252.6-0.7
			L242.8,9h10.6l16.2-16h-10.7l-6.3,6.2L252.6-0.7L252.6-0.7z M303.4-0.7L293.6,9h10.6l16.2-16h-10.7l-6.3,6.2L303.4-0.7L303.4-0.7z
			 M284.4-7L268.2,9h10.7l16.2-16H284.4z M-1-0.8V9h0.8L16-7H5.3L-1-0.8z M30.7-7L14.5,9h10.7L41.4-7H30.7z"/>
	</g>
	<g>
		<path class="st25" d="M99.3,104H53.4c-3.5,0-6.6-1.8-8.3-4.8c-1.7-3-1.7-6.6,0-9.6l23-39.8c1.7-3,4.9-4.8,8.3-4.8s6.6,1.8,8.3,4.8
			l23,39.8c1.7,3,1.7,6.6,0,9.6C106,102.3,102.8,104,99.3,104z"/>
		<g>
			<g>
				<g class="st26">
					<path d="M129.5,48.4c0.2,0.9,0.7,1.3,1.9,1.3c1.1,0,1.7-0.4,1.7-1.1c0-0.2-0.1-0.6-0.4-0.7c-0.2-0.2-0.4-0.2-1.5-0.5
						c-1.2-0.2-1.5-0.4-2.1-0.6c-0.8-0.4-1.2-1.1-1.2-1.9c0-0.5,0.2-0.9,0.5-1.3c0.6-0.7,1.5-1.2,2.8-1.2c1.2,0,2.1,0.2,2.6,0.8
						c0.4,0.4,0.6,0.7,0.7,1.4l-1.9,0.2c-0.2-0.7-0.7-1.2-1.5-1.2c-0.8,0-1.5,0.4-1.5,0.9c0,0.2,0.2,0.5,0.5,0.7
						c0.2,0.2,0.6,0.2,1.4,0.4c1.4,0.2,2,0.5,2.5,0.8c0.6,0.4,0.8,0.9,0.8,1.8c0,0.6-0.2,1.2-0.7,1.6c-0.7,0.6-1.6,0.9-2.9,0.9
						c-1.4,0-2.6-0.5-3.1-1.2c-0.2-0.4-0.4-0.7-0.6-1.2L129.5,48.4z"/>
					<path d="M141.7,50.1c-0.6,0.6-0.9,0.7-1.5,0.8c-0.4,0.1-0.8,0.2-1.3,0.2c-1.7,0-2.7-0.8-2.7-2.4c0-0.9,0.7-1.9,1.6-2.2
						c0.9-0.3,2-0.6,4-0.6v-0.7c0-0.8-0.6-1.2-1.6-1.2c-0.6,0-1.2,0.2-1.5,0.4c-0.2,0.2-0.4,0.4-0.6,0.9l-1.8-0.2
						c0.2-0.8,0.6-1.2,1.2-1.6c0.7-0.5,1.5-0.7,2.7-0.7c1.3,0,2.1,0.2,2.8,0.8c0.5,0.5,0.7,0.9,0.7,2v3.8c0,0.7,0,1.2,0.1,1.8h-1.9
						L141.7,50.1L141.7,50.1z M141.7,47c-2.7,0.1-3.8,0.6-3.8,1.6c0,0.7,0.5,1.1,1.3,1.1c0.7,0,1.5-0.2,2-0.7
						c0.4-0.4,0.5-0.7,0.5-1.2V47z"/>
					<path d="M147.3,39.7c-0.1,0.6-0.1,1.1-0.1,1.9v4.6l2.1-2.1c0.7-0.7,0.8-0.9,1.2-1.2h2.6c-0.8,0.7-0.8,0.7-1.4,1.3l-2,1.9
						l2.4,3.3c0.9,1.3,0.9,1.3,1.3,1.6h-2.6c-0.2-0.5-0.4-0.7-0.9-1.6l-1.5-2.2l-1.2,1.2v0.9c0,0.9,0,1.2,0.1,1.8h-2.1
						c0.1-0.6,0.1-1.1,0.1-1.8v-7.5c0-0.8,0-1.3-0.1-1.9L147.3,39.7L147.3,39.7z"/>
					<path d="M162.1,42.8c-0.1,0.6-0.1,1.1-0.1,1.8V49c0,0.7,0,1.2,0.1,1.8h-1.9v-0.7c0-0.2,0-0.2,0-0.6c-0.7,1.2-1.5,1.5-2.9,1.5
						c-0.7,0-1.2-0.1-1.7-0.4c-0.7-0.5-1.2-1.3-1.2-2.5v-3.5c0-0.7,0-1.3-0.1-1.8h2.1c-0.1,0.7-0.1,1.2-0.1,1.8v3.1
						c0,0.8,0.2,1.3,0.7,1.6c0.2,0.1,0.5,0.2,0.7,0.2c1.1,0,1.8-0.7,2.5-2.1v-2.8c0-0.7,0-1.2-0.1-1.8
						C160.2,42.8,162.1,42.8,162.1,42.8z"/>
					<path d="M165.8,47.5c0.1,0.7,0.1,0.9,0.4,1.2c0.4,0.6,1.2,0.8,2.1,0.8c1.4,0,2.2-0.7,2.2-1.7c0-0.6-0.2-1.1-0.7-1.3
						c-0.4-0.2-0.5-0.2-2.5-0.7c-1.1-0.2-1.6-0.5-2.1-0.8c-0.7-0.6-1.2-1.3-1.2-2.2c0-2,1.6-3.2,4-3.2c1.6,0,2.8,0.5,3.5,1.4
						c0.4,0.5,0.6,0.8,0.7,1.6l-2,0.2c-0.1-0.5-0.2-0.7-0.4-1.1c-0.4-0.5-0.9-0.7-1.8-0.7c-1.2,0-2.1,0.7-2.1,1.5
						c0,0.6,0.2,1.1,0.9,1.3c0.2,0.1,0.4,0.2,2,0.5c1.2,0.2,1.8,0.5,2.2,0.8c0.8,0.6,1.2,1.4,1.2,2.5s-0.2,1.8-0.8,2.4
						c-0.7,0.7-1.9,1.1-3.4,1.1c-1.2,0-2.2-0.2-2.9-0.7c-0.6-0.4-0.9-0.9-1.2-1.6c-0.1-0.2-0.2-0.6-0.2-1.2L165.8,47.5z"/>
					<path d="M182,50.9c-0.1-0.5-0.2-1.1-0.4-1.5L181,48h-4.5l-0.6,1.5c-0.2,0.7-0.2,0.8-0.4,1.5h-2.4c0.2-0.4,0.5-1.1,0.7-1.7
						l3.1-8.1c0.2-0.7,0.4-1.1,0.5-1.4h2.5c0.1,0.4,0.2,0.6,0.5,1.4l3.1,8.1c0.4,0.9,0.6,1.3,0.7,1.7H182z M179.2,42.2
						c-0.1-0.2-0.1-0.2-0.2-0.7c-0.2,0.7-0.2,0.7-0.2,0.7l-1.5,4.1h3.5L179.2,42.2z"/>
					<path d="M193.9,49.1c0.8,1.2,1.1,1.3,1.4,1.8h-2.6c-0.2-0.4-0.6-1.1-0.8-1.5l-2.8-4l-1.5,1.5V49c0,0.8,0,1.2,0.1,1.8h-2.1
						c0.1-0.7,0.1-1.1,0.1-1.8v-7.6c0-0.7,0-1.2-0.1-1.8h2.1c-0.1,0.5-0.1,1.1-0.1,1.8v3.3l3.5-3.8c0.6-0.6,0.8-0.9,1.2-1.4h2.6
						c-0.4,0.4-0.8,0.8-1.5,1.5l-3.1,3.1L193.9,49.1z"/>
					<path d="M206.2,39.7c-0.1,0.6-0.1,1.1-0.1,1.9v5c0,2.9-1.7,4.5-4.8,4.5c-1.6,0-2.8-0.5-3.7-1.3c-0.7-0.7-1.1-1.8-1.1-3.2v-5
						c0-0.8,0-1.4-0.1-2h2.1c-0.1,0.5-0.1,1.1-0.1,2v5c0,1.9,0.9,2.9,2.9,2.9c1.9,0,2.8-1.1,2.8-2.9v-5c0-0.9,0-1.4-0.1-2
						L206.2,39.7L206.2,39.7z"/>
				</g>
				<g class="st26">
					<path d="M140.4,75.9c-0.1,5.5-0.4,10.5-0.8,14c-0.6,4.6-1.5,7.3-3.5,10.6c-0.8-1.2-1.9-2.4-3.1-3.4c0,1.6,0.1,2.2,0.2,3.7h-4.9
						c0.2-1.8,0.2-2.9,0.2-5.1v-12c0-1.6,0-3.1,0.1-5.6c-0.8,1.8-1.7,3.1-2.9,4.6c-0.8-2.8-0.8-2.8-1.9-5.2c2.4-2.6,4.2-5.8,5.9-9.6
						c1.2-2.7,1.9-5.1,2.1-7.1l4.6,1.2c-0.2,0.7-0.5,1.3-0.7,2.2c-0.8,2.8-1.4,4.3-2.7,6.9v24.9c1.2-1.9,1.6-3.2,2.1-5.8
						c0.7-3.3,0.9-7.5,0.9-14.3c0-1.6,0-2.9-0.2-4.3c1.4,0.2,2.4,0.2,4.5,0.2h19.2c2.4,0,3.4,0,4.7-0.2V76c-1.2-0.1-2.6-0.2-4.1-0.2
						L140.4,75.9C140.4,75.9,140.4,75.9,140.4,75.9z M142.3,63.8c0-1.3,0-1.9-0.2-2.6h4.7c-0.1,0.7-0.2,1.4-0.2,2.6v0.9h5.9v-0.9
						c0-1.3,0-1.9-0.2-2.6h4.7c-0.1,0.7-0.2,1.4-0.2,2.6v0.9h2.7c1.8,0,3.5-0.1,4.3-0.2v4.4c-1.2-0.1-2.2-0.2-4.3-0.2h-2.7v0.5
						c0,1.1,0,1.5,0.1,2.1h-4.7c0.1-0.7,0.1-1.3,0.1-2.1v-0.4h-5.9v0.4c0,1.1,0,1.5,0.1,2.1h-4.7c0.1-0.7,0.1-1.3,0.1-2.1v-0.5h-1.8
						c-2.2,0-3.1,0-4.2,0.2v-4.2c1.2,0.1,2.6,0.2,4.2,0.2h1.8v-0.9C141.9,63.8,142.3,63.8,142.3,63.8z M145.4,93.5v2.6
						c0,2.8,0,3.7,0.2,4.6H141c0.2-1.2,0.2-2.4,0.2-4.6V82.5c0-2.4,0-3.2-0.2-4.7c1.3,0.1,2.1,0.1,4.5,0.1h13c2.1,0,2.9,0,4.1-0.2
						c-0.1,0.9-0.2,2.2-0.2,4.6v14.6c0,2.8-0.9,3.5-4.9,3.5c-0.4,0-0.4,0-1.9,0c-0.2-1.7-0.4-2.4-0.8-3.8c0.9,0.1,1.9,0.2,2.6,0.2
						c0.7,0,0.9-0.2,0.9-0.9v-2.5h-4.7v2c0,2.5,0,3.7,0.2,4.7h-4.3c0.2-1.3,0.2-2.5,0.2-4.7v-2h-4.5L145.4,93.5L145.4,93.5z
						 M150,81.7h-4.6v2.4h4.6V81.7z M150,87.5h-4.6v2.4h4.6V87.5z M158.6,84v-2.4h-4.7V84H158.6z M158.6,89.9v-2.4h-4.7v2.4H158.6z"
						/>
					<path d="M178.2,63.5c0-0.8,0-1.5-0.2-2.4h4.8c-0.1,0.8-0.2,1.5-0.2,2.4v0.4h9.5v-0.4c0-0.8,0-1.5-0.2-2.4h4.8
						c-0.1,0.8-0.2,1.4-0.2,2.4v0.4h5.2c2.1,0,3.7-0.1,5-0.2v4.2c-1.3-0.2-2.6-0.2-5-0.2h-5.2c0,0.7,0,1.2,0.2,1.8H192
						c0-0.6,0.1-1.2,0.1-1.8h-9.5c0,0.7,0,1.2,0.1,1.8H178c0.1-0.7,0.1-1.2,0.1-1.8h-4.8c-2.4,0-3.7,0-5,0.2v-4.2
						c1.4,0.2,2.8,0.2,5,0.2h4.8L178.2,63.5L178.2,63.5z M196.7,76.4c-1.9,1.6-5.1,4-6.4,5c3.5-0.1,6.1-0.2,7.8-0.4
						c-0.9-0.7-1.3-1.1-2.6-2l3.3-2.4c3.5,2.6,5.6,4.5,8.6,7.4l-3.3,2.9c-1.2-1.5-1.7-2-2.6-2.9c-9.6,0.7-14.4,0.8-29.9,1.4
						c-1.1,0-1.8,0.1-2.6,0.2l-0.7-4.3c1.4,0.2,4,0.2,10.4,0.2c0.2,0,0.2,0,2.2,0c-1.6-0.7-5.6-2.6-7.8-3.4l2.8-2.9
						c2.1,0.9,2.6,1.2,4,1.8c1.1-0.7,1.6-1.2,2.8-2.4H174c-2.2,0-3.7,0-5,0.2v-4.2c1.2,0.2,2.7,0.2,5,0.2h11.1c0-1.1,0-1.6-0.1-2.4
						h4.6c-0.1,0.8-0.1,1.2-0.1,2.4h11.8c2.1,0,3.9-0.1,5-0.2v4.2c-1.1-0.1-2.7-0.2-5-0.2h-7.8L196.7,76.4z M172.4,90.2
						c0-1.6,0-2.8-0.1-4c1.2,0.1,2.1,0.1,4.2,0.1h22.3c2.2,0,3.1,0,4.2-0.2c-0.1,1.2-0.1,2-0.1,4.2v6.4c0,1.5,0.1,2.8,0.2,4.2h-4.7
						v-1.6h-21.6v1.6h-4.7c0.1-1.5,0.2-2.8,0.2-4.2v-6.5H172.4z M176.8,91.1h8.6v-1.8h-8.6V91.1z M176.8,95.9h8.6V94h-8.6V95.9z
						 M187.9,74.5c-1.4,1.4-3.1,2.8-4.5,4c1.2,0.7,1.5,0.8,2.6,1.4c2.6-1.8,5.1-3.8,6.5-5.3L187.9,74.5L187.9,74.5z M189.5,91.1h8.9
						v-1.8h-8.9V91.1z M189.5,95.9h8.9V94h-8.9V95.9z"/>
					<path d="M244,66.9c-0.5,0.1-0.5,0.1-3.5,1.2c-2.5,0.7-3.8,1.2-7.2,1.8c0,5.8,0,5.8-0.1,7.3h9.1c2.9,0,3.7,0,5.2-0.2v5.2
						c-1.6-0.2-2.4-0.2-5.2-0.2h-9.5c-0.5,4-1.4,6.9-2.8,9.3c-1.5,2.5-4,4.9-6.9,6.8c-1.2,0.7-2,1.2-4,2.1c-1.2-2.1-1.9-3.1-3.8-4.5
						c3.1-1.2,4.7-2,6.6-3.5c2.6-2.1,4.2-4.5,4.9-7.3c0.2-0.7,0.2-1.4,0.5-2.8h-10.6c-2.7,0-3.5,0-5.2,0.2V77
						c1.6,0.2,2.4,0.2,5.2,0.2h10.9c0.1-1.8,0.1-3.5,0.1-6.5c-3.5,0.5-4.8,0.7-11.9,0.9c-0.5-1.9-0.7-2.6-1.6-4.6
						c1.3,0.1,2,0.1,2.6,0.1c5.8,0,13.1-0.9,18.4-2.5c2.5-0.7,3.8-1.2,5.2-2L244,66.9z"/>
					<path d="M270.8,93.5h8.8c2,0,2.8,0,4-0.2v4.8c-1.2-0.1-2.1-0.2-4-0.2h-22c-1.9,0-2.8,0-4,0.2v-4.8c1.2,0.2,2,0.2,4,0.2h8.4
						V79.7h-5.8c-1.6,0-2.5,0-4,0.2v-4.9c1.2,0.2,2.1,0.2,3.9,0.2h16.8c1.8,0,2.7-0.1,4-0.2v4.8c-1.2-0.1-1.8-0.2-3.9-0.2h-6.1
						L270.8,93.5L270.8,93.5z"/>
					<path d="M295.5,72.6c1.8,3.3,2.6,5.4,4.2,10.2l-4.8,1.5c-1.2-4.3-2-6.6-3.9-10.4L295.5,72.6z M320.1,73.1
						c-0.2,0.7-0.4,0.8-0.6,2.1c-1.2,5.9-3.2,10.6-5.9,14.2c-3.2,4.3-6.7,7.1-13.1,10.4c-1.2-1.9-1.6-2.6-3.4-4.2
						c3.1-1.2,4.7-2.1,7.3-4c5-3.7,7.9-8,9.7-14.9c0.6-2.1,0.7-3.5,0.7-4.9L320.1,73.1z M304.6,71c2.2,4.2,3.1,6.1,4.1,9.9l-4.7,1.5
						c-0.8-3.3-2.1-6.6-3.9-10.1L304.6,71z"/>
					<path d="M359.1,69.9c-0.5,0.7-0.6,1.1-1.1,2.6c-2,6.5-5,12.3-8.8,16.6c-4,4.5-8.7,7.8-15.3,10.9c-1.2-2.1-1.8-2.8-3.7-4.5
						c4.2-1.8,6.7-3.1,9.4-5.1c6.1-4.5,10.2-10.5,12.5-18.1l-12.9,0.2c-2.6,4.1-5.9,7.8-10,10.9c-1.3-1.8-1.9-2.4-4.1-3.7
						c4.9-3.3,8-6.8,11.1-12.5c1.3-2.5,2-4.1,2.1-5.6l5.9,1.2c-0.2,0.4-0.2,0.4-0.7,1.3c-0.1,0.2-0.1,0.2-0.6,1.2
						c-0.1,0.2-0.1,0.2-0.6,1.2c-0.2,0.6-0.2,0.6-0.7,1.4c0.6,0,1.2-0.1,2.1-0.1l9.4-0.1c1.7,0,2.1-0.1,3.1-0.5L359.1,69.9z"/>
				</g>
			</g>
			<g>
				<path class="st27" d="M69.8,49.9l-23,39.8c-2.9,5.1,0.7,11.4,6.6,11.4h45.9c5.8,0,9.5-6.3,6.6-11.4L83,49.9
					C80,44.7,72.7,44.7,69.8,49.9z"/>
				<path class="st28" d="M99.2,102.9H53.3c-3.5,0-6.6-1.8-8.3-4.8c-1.7-3-1.7-6.6,0-9.6l23-39.8c1.7-3,4.9-4.8,8.3-4.8
					s6.6,1.8,8.3,4.8l23,39.8c1.7,3,1.7,6.6,0,9.6C105.9,101.1,102.7,102.9,99.2,102.9z M71.6,50.8l-23,39.8c-1,1.7-1,3.8,0,5.4
					c1,1.7,2.8,2.8,4.8,2.8h45.9c2,0,3.8-1,4.8-2.8c1-1.7,1-3.8,0-5.4l-23-39.8c-1-1.7-2.8-2.8-4.8-2.8C74.3,48,72.6,49.1,71.6,50.8
					L71.6,50.8z"/>
			</g>
			<g class="st26">
				<path class="st28" d="M77.4,80.9V82c0,1.7,0,2,0.1,2.5h-3.2c0.1-0.7,0.1-1.3,0.1-2.5v-6.8c-0.3,3.1-0.3,3.1-0.6,4.5
					c-0.3,2.1-0.7,3.2-1.5,4.8c-0.7-1-1.1-1.6-1.8-2.4c0,1,0,1.5,0.2,2.5h-3.5c0.1-1.2,0.2-1.5,0.2-2.6v-5.6c0-0.5,0-1,0.1-2.5
					c-0.3,0.6-0.7,1.1-1.1,1.5c-0.3-1.8-0.6-2.5-1.2-4.1c1.1-1.2,1.9-2.6,2.6-4.4c0.6-1.4,0.9-2.6,1.1-3.7l3.4,0.8
					c-0.1,0.3-0.1,0.4-0.2,0.7c0.7,0.1,1.3,0.1,2.1,0.1h0.3v-0.3c0-0.6,0-0.8-0.1-1.2h3.5c-0.1,0.3-0.1,0.7-0.1,1.1v0.3H80v-0.3
					c0-0.6,0-0.8-0.1-1.2h3.4c-0.1,0.3-0.1,0.7-0.1,1.1v0.3h0.7c1.1,0,2-0.1,2.4-0.2v3.1c-0.8-0.1-1.1-0.1-2.4-0.1h-0.7v1.2H84
					c1.3,0,1.8,0,2.6-0.1v3.1c-0.7-0.1-1.2-0.1-2.1-0.1h-9.8v0.7c0.6,0.1,1.2,0.1,2.2,0.1h7.2c1,0,1.5,0,2.1-0.1
					c-0.1,0.5-0.1,1.1-0.1,2.3v7.6c0,1.8-0.5,2.1-3.7,2.1c-0.2-1.1-0.2-1.6-0.6-2.5c0.3,0,0.6,0.1,0.8,0.1c0.3,0,0.4-0.1,0.4-0.4V81
					h-1.4v0.8c0,1.4,0,2,0.1,2.6h-3c0.1-0.7,0.1-1.3,0.1-2.6V81L77.4,80.9L77.4,80.9z M70.7,80.2c0.3-0.8,0.4-1.4,0.6-2.2
					c0.2-1.3,0.3-3.9,0.3-6.5c0-1.3,0-1.9-0.1-2.8c0.9,0.1,1.2,0.1,2.5,0.1h0.7v-1.1h-0.3c-1.3,0-1.7,0-2.4,0.1v-2.4
					c-0.4,1.4-0.7,2-1.3,3.3C70.7,68.7,70.7,80.2,70.7,80.2z M78.8,74.8h-1.4v0.9h1.4V74.8z M78.8,77.8h-1.4v1h1.4V77.8z M80.2,68.8
					v-1.1h-2.2v1.1H80.2z M83.1,75.7v-0.9h-1.4v0.9H83.1z M83.1,78.7v-0.9h-1.4v0.9H83.1z"/>
			</g>
			<g class="st26">
				<path class="st28" d="M75,57.2c0,0.3,0.1,0.5,0.2,0.7c0.2,0.3,0.7,0.5,1.2,0.5c0.7,0,1.2-0.3,1.2-0.9c0-0.3-0.2-0.6-0.4-0.7
					c-0.2-0.1-0.5-0.2-1.5-0.4c-0.9-0.2-1.2-0.3-1.6-0.6c-0.7-0.4-1-1.1-1-1.9c0-1.6,1.2-2.5,3.2-2.5c1.2,0,2.2,0.4,2.8,1.2
					c0.2,0.3,0.3,0.7,0.5,1.2L77.4,54c-0.1-0.7-0.5-0.9-1.2-0.9c-0.6,0-1.1,0.3-1.1,0.8c0,0.2,0.2,0.5,0.5,0.7
					c0.2,0.1,0.2,0.1,1.4,0.3c0.7,0.2,1.2,0.3,1.7,0.6c0.7,0.4,1.1,1.2,1.1,2.1c0,0.7-0.2,1.4-0.7,1.8c-0.6,0.6-1.5,0.8-2.6,0.8
					c-0.8,0-1.7-0.2-2.2-0.5c-0.5-0.2-0.8-0.7-1.1-1.2c-0.1-0.2-0.2-0.5-0.2-0.9L75,57.2z"/>
			</g>
			<polygon points="59,95.2 76.3,111.5 110.9,59.2 73.1,99.1 62.8,90.6 			"/>
			<g>
				<path class="st29" d="M172.7,131c0,0.3,0.2,0.4,1.5,0.4c1.2,0,1.6-0.1,1.7-0.6c0.2-0.5,0.2-1.3,0.2-2.7c1,0.4,1.4,0.6,2.3,0.8
					c-0.2,2.9-0.5,3.9-1.3,4.4c-0.5,0.3-1.6,0.4-3.4,0.4c-2.7,0-3.4-0.3-3.5-1.6c-0.9,0.6-1.3,0.9-2.4,1.5c-0.5-0.9-0.9-1.4-1.7-2.1
					c1.6-0.7,2.8-1.4,4-2.3v-5c0-0.7,0-1.1-0.1-1.7h2.6c-0.1,0.6-0.1,1.1-0.1,1.7v3.1c1.4-1.4,2.6-3.2,3.5-5c0.5-1,0.7-1.7,0.9-2.3
					l2.6,1c-0.2,0.5-0.2,0.5-0.7,1.4c-0.6,1.2-0.9,1.7-1.5,2.7l1.8-0.8c0.9,2,1.6,3.6,2.3,6.3l-2.3,1.2c-0.6-2.6-1.2-4.4-2.1-6.3
					c-1.4,2.1-2.6,3.5-4.5,5.2V131z M169.7,124c-0.2,2.8-0.6,4.3-1.2,6l-2.2-1.1c0.7-1.7,1-3.1,1.2-5.5L169.7,124z M171.2,118.7
					c2,0.7,3.1,1.2,4.5,2.1l-1.4,2.1c-1.1-0.8-2.5-1.5-4.6-2.3L171.2,118.7z"/>
				<path class="st29" d="M184.3,128.1c-0.7,0-1.3,0-1.7,0.1v-2.1c0.6,0.1,1.2,0.1,1.7,0.1h11.2c0.7,0,1.2,0,1.7-0.1v2.1
					c-0.5,0-1.1-0.1-1.7-0.1H191c-0.1,0.2-0.2,0.2-0.2,0.5h4.2c0.7,0,1.2,0,1.5-0.1c-0.1,0.3-0.1,0.7-0.1,1.2v2.2
					c0,1.4-0.4,1.8-1.8,1.8c-0.2,0-0.2,0-1.2-0.1c-0.1-1.1-0.2-1.5-0.4-2.1c0.3,0.1,0.7,0.1,0.8,0.1c0.2,0,0.3-0.1,0.3-0.2v-1.1
					h-1.4v1.8c0,0.7,0,1.1,0.1,1.5h-2.3c0.1-0.4,0.1-0.8,0.1-1.5v-1.8h-1.2v1.8c0,0.7,0,1.1,0.1,1.5h-2.3c0.1-0.4,0.1-0.8,0.1-1.5
					v-1.8H186v2c0,0.7,0,1.1,0.1,1.5h-2.5c0.1-0.6,0.1-1.1,0.1-1.7v-2.3c0-0.4,0-0.9-0.1-1.3c0.4,0,0.7,0.1,1.7,0.1h3
					c0.2-0.2,0.2-0.2,0.2-0.5L184.3,128.1L184.3,128.1L184.3,128.1z M185.3,120.9c-0.7,0-1.3,0-1.7,0.1V119c0.5,0.1,1.2,0.1,2,0.1
					h8.6c0.8,0,1.6,0,2-0.1v1.9c-0.5,0-1.1-0.1-1.7-0.1H191v0.4h3.9c1.2,0,1.7,0,2.2-0.1c-0.1,0.4-0.1,0.7-0.1,1.4v1.2
					c0,0.7,0,0.9,0.1,1.4h-2.3v-2.2H191v1.3c0,0.7,0,1.1,0.1,1.5h-2.6c0.1-0.5,0.1-0.8,0.1-1.5v-1.3h-3.6v2.2h-2.3
					c0.1-0.4,0.1-0.7,0.1-1.4v-1.2c0-0.7,0-1-0.1-1.4c0.5,0,0.9,0.1,2.2,0.1h3.7v-0.4H185.3z M185.3,123.3c0.2,0,0.3,0,0.7,0h1.3
					c0.4,0,0.5,0,0.7,0v1.1c-0.2,0-0.3,0-0.7,0h-1.3c-0.3,0-0.5,0-0.7,0V123.3z M185.3,124.7c0.2,0,0.2,0,0.7,0h1.3
					c0.4,0,0.6,0,0.7,0v1.1c-0.2,0-0.3,0-0.7,0h-1.3c-0.3,0-0.5,0-0.7,0V124.7z M191.5,123.3c0.2,0,0.2,0,0.7,0h1.6
					c0.4,0,0.5,0,0.7,0v1.1c-0.2,0-0.3,0-0.7,0h-1.6c-0.3,0-0.4,0-0.7,0V123.3z M191.5,124.7c0.2,0,0.2,0,0.7,0h1.6
					c0.4,0,0.5,0,0.7,0v1.1c-0.2,0-0.3,0-0.7,0h-1.6c-0.3,0-0.4,0-0.7,0V124.7z"/>
				<path class="st29" d="M198.6,133.8c0.1-0.5,0.1-0.9,0.1-1.8v-4.4c0-0.6,0-1-0.1-1.5c0.5,0.1,0.9,0.1,1.7,0.1h4
					c0.4,0,0.7,0,1.1-0.1c0,0.3,0,0.5,0,1.2v4.8c0,0.6,0,1,0.1,1.3H203v-0.4h-1.8v0.7L198.6,133.8L198.6,133.8z M200.7,120.7
					c0-0.6,0-1-0.1-1.5c0.4,0.1,1,0.1,1.8,0.1h6.8c0.9,0,1.4,0,1.8-0.1c-0.1,0.4-0.1,0.8-0.1,1.5v3.2c0,0.7,0,1.2,0.1,1.6
					c-0.4,0-0.7-0.1-1.7-0.1h-7.1c-0.8,0-1.2,0-1.7,0.1c0-0.4,0.1-0.9,0.1-1.6L200.7,120.7L200.7,120.7z M203,128.4h-1.9v2.5h1.9
					V128.4z M203.1,121.6v1.7h5.5v-1.7H203.1z M211.5,126.2c0.7,0,1.2,0,1.5-0.1c-0.1,0.5-0.1,0.8-0.1,1.5v4.4c0,0.9,0,1.3,0.1,1.8
					h-2.5v-0.7h-2v0.7h-2.4c0-0.4,0.1-0.7,0.1-1.3v-5c0-0.7,0-0.9,0-1.2c0.3,0,0.7,0.1,1.1,0.1L211.5,126.2L211.5,126.2z
					 M208.5,130.9h2.1v-2.5h-2.1V130.9z"/>
				<path class="st29" d="M227.9,119.6l-5.7,15.5h-2.9l5.8-15.5H227.9z"/>
				<path class="st29" d="M241.9,121.7c-1.2-0.6-2.3-1-3.7-1.5l1.7-1.7c1.7,0.5,2.9,1,4.5,1.7l-1.2,1.4h2.8c1,0,1.6,0,2.2-0.1v2.5
					c-0.7-0.1-1.2-0.1-2.2-0.1h-3.3v2.2h2.8c0.7,0,1.2,0,1.9-0.1v2.4c-0.6-0.1-1-0.1-1.8-0.1h-2.9v2.6h3.6c1,0,1.7,0,2.5-0.1v2.5
					c-0.8-0.1-1.4-0.1-2.4-0.1h-9.6c-1.2,0-1.8,0-2.6,0.1v-2.5c0.7,0.1,1.4,0.1,2.5,0.1h3.5v-2.6h-2.5c-0.9,0-1.4,0-2.1,0.1v-2.4
					c0.6,0.1,0.9,0.1,1.8,0.1h2.7V124H237c-1.3,0-1.7,0-2.2,0.1v-2.5c0.7,0.1,1.2,0.1,2.1,0.1H241.9z"/>
				<path class="st29" d="M264.2,129.4c-1.1,0.8-1.7,1.3-2.4,1.8c0.9,0.2,1.8,0.4,3.3,0.4c-0.5,0.9-0.7,1.4-1.1,2.4
					c-2.7-0.4-4.4-1-5.9-2.2v1.1c-2.1,0.4-3.6,0.7-6.4,1.1c-0.3,0.1-0.6,0.1-0.8,0.2l-0.3-2.6c0.2,0,0.2,0,0.4,0
					c0.1,0,0.9-0.1,1.5-0.1v-6.9c0-0.2,0-0.2,0-0.2c-0.6,0.3-0.9,0.4-1.7,0.7c-0.2-1-0.4-1.5-1-2.5c1.2-0.3,2.5-0.8,3.6-1.6
					c1.2-0.7,2-1.3,2.7-2.2h2.6c0.8,0.9,1.7,1.7,2.9,2.3c1.2,0.7,2.4,1.2,3.6,1.4c-0.5,0.9-0.7,1.5-1,2.5c-0.7-0.2-1.2-0.5-1.7-0.7
					v4c0,0.2,0,0.2,0,0.2L264.2,129.4z M254.7,125.2h5.4v-0.6h-5.4V125.2z M254.7,127.4h5.4v-0.6h-5.4V127.4z M254.7,129.2v2
					c0.1,0,0.1,0,0.2,0c0.7-0.1,1.7-0.2,2.1-0.2c-0.6-0.6-0.7-0.7-1.3-1.7L254.7,129.2L254.7,129.2z M256.2,122.3c0-0.2,0-0.3,0-0.5
					c-0.5,0.4-0.9,0.7-1.4,1h1.4V122.3z M258.3,121.7c-0.3-0.3-0.6-0.5-1-0.9c-0.4,0.4-0.6,0.6-0.9,0.9H258.3z M260,122.9
					c-0.7-0.5-1-0.7-1.4-1.1c0,0.2,0,0.3,0,0.6v0.5H260z M258.5,129.2c0.2,0.3,0.6,0.7,1,0.9c0.5-0.2,1-0.6,1.3-0.9H258.5z"/>
				<path class="st29" d="M279.6,119.6l-5.7,15.5H271l5.8-15.5H279.6z"/>
				<path class="st29" d="M293.6,121.7c-1.2-0.6-2.3-1-3.7-1.5l1.7-1.7c1.7,0.5,2.9,1,4.5,1.7l-1.2,1.4h2.8c1,0,1.6,0,2.2-0.1v2.5
					c-0.7-0.1-1.2-0.1-2.2-0.1h-3.3v2.2h2.8c0.7,0,1.2,0,1.9-0.1v2.4c-0.6-0.1-1-0.1-1.8-0.1h-2.9v2.6h3.6c1,0,1.7,0,2.5-0.1v2.5
					c-0.8-0.1-1.4-0.1-2.4-0.1h-9.6c-1.2,0-1.8,0-2.6,0.1v-2.5c0.7,0.1,1.4,0.1,2.5,0.1h3.5v-2.6h-2.5c-0.9,0-1.4,0-2.1,0.1v-2.4
					c0.6,0.1,0.9,0.1,1.8,0.1h2.7V124h-3.1c-1.3,0-1.7,0-2.2,0.1v-2.5c0.7,0.1,1.2,0.1,2.1,0.1H293.6z"/>
				<path class="st29" d="M303.8,129.4c-0.8,0-1.4,0-2,0.1v-2.3c0.5,0.1,1.1,0.1,2,0.1h0.3c-0.4-0.7-0.8-1.3-1.2-1.8l1.6-0.6
					c-0.2,0-0.3,0-0.5,0c-0.2,0-0.4,0-0.7,0c-0.2-0.7-0.5-1.2-1-2.1c1.8,0.1,2.6,0.1,3.7,0.1c1.7,0,3.5-0.1,5-0.2
					c1.4-0.1,2.1-0.2,3.4-0.5l1.6,1.9c-1,0.2-1.4,0.2-2.2,0.3l1.5,0.6c-0.8,1.2-1.2,1.7-1.7,2.2h0.8c0.9,0,1.5,0,2-0.1v2.3
					c-0.5-0.1-1.2-0.1-2-0.1h-2.5c1.2,1,2.7,1.6,4.7,2c-0.6,0.7-0.8,1.3-1.3,2.3c-1.2-0.3-2.1-0.7-3.1-1.4c-0.8-0.6-1.3-1-2.1-1.7
					c0,0.2,0,0.2,0,0.4c0,0.2,0,0.4,0,0.6v0.7c0,0.7,0,1.1,0.2,1.7h-2.7c0.1-0.6,0.2-1,0.2-1.7v-0.7c0-0.2,0-0.5,0-1
					c-1.2,1.4-2.6,2.4-4.9,3.1c-0.6-1.1-0.7-1.4-1.4-2.1c2-0.4,3.4-1.1,4.5-2.1L303.8,129.4L303.8,129.4L303.8,129.4z M305.1,119.5
					c0-0.2,0-0.5-0.1-0.7h2.5c0,0.3-0.1,0.5-0.1,0.7v0.2h3v-0.2c0-0.2,0-0.3-0.1-0.7h2.5c0,0.2-0.1,0.5-0.1,0.7v0.2h1.7
					c0.8,0,1.3,0,1.9-0.1v2.3c-0.5-0.1-1.1-0.1-1.9-0.1h-1.6c0,0.2,0,0.4,0.1,0.7h-2.5c0-0.2,0-0.4,0.1-0.7h-3c0,0.2,0,0.3,0.1,0.7
					h-2.5c0-0.2,0.1-0.4,0.1-0.7h-1.5c-0.8,0-1.4,0-1.9,0.1v-2.3c0.6,0.1,1.1,0.1,1.9,0.1h1.5v-0.2H305.1z M307.8,127.3
					c0-0.3,0-0.5-0.1-0.7h0.6c-0.3-0.7-0.4-0.7-0.8-1.3l1.2-0.4c-0.9,0.1-1.7,0.1-3.4,0.1c0.3,0.4,0.7,0.9,1.2,1.6l-1.9,0.8H307.8z
					 M313,127.3l-1.7-0.7c0.6-0.7,1-1.2,1.4-2c-0.6,0.1-1.6,0.1-3.1,0.2c0.4,0.5,0.6,0.7,0.8,1.2l-1.8,0.6h1.7
					c-0.1,0.3-0.1,0.5-0.1,0.7L313,127.3L313,127.3L313,127.3z"/>
			</g>
		</g>
	</g>
	<rect x="-6" y="145.1" width="534.1" height="41.3"/>
	<g>
		<defs>
			<rect id="SVGID_21_" x="388.2" y="25.1" width="130.7" height="183"/>
		</defs>
		<clipPath id="SVGID_4_">
			<use xlink:href="#SVGID_21_"  style="overflow:visible;"/>
		</clipPath>
		<g style="clip-path:url(#SVGID_4_);">
			<path class="st31" d="M503.2,110.5c-0.2,0.7-0.7,0.7-1.2,0.7c-0.1,0-0.4-0.5-0.5-0.8c-0.2-1.2-0.3-2.4-0.5-3.7
				c-0.6-5-1.2-10-1.8-15c-0.5-4.6-1.1-9.2-1.5-13.8c-0.2-2.2-1-3.7-2.9-4.7c-0.6-0.3-1.2-0.7-1.8-1c-1.5-1-3-1.8-4.4-2.9
				c-3.7-2.8-7.1-6-10.2-9.5c-1-1.1-2.3-1.3-3.6-1c-1.1,0.3-1.3,1.4-1.3,2.4c0.1,1.8,0.3,3.7,0.5,5.5c0.1,1,0.5,2,0.8,3.1
				c-0.2-0.1-0.3-0.1-0.4-0.1c-9.2-3.2-17.7-7.8-24.5-14.9c-0.9-1-2-1.2-3.2-1.3c-0.8,0-1.4,0.4-1.4,1.3c0,1.6-0.1,3.2,0.2,4.7
				c0.2,1.8,0.8,3.5,1.2,5.4c-2.4-1-4.6-1.9-6.8-2.9c-5.5-2.5-10.5-5.7-15-9.8c-2.2-2-2.7-4.4-1.3-7.1c0.6-1.2,1.5-2.3,2.4-3.3
				c3.3-3.4,7.3-5.6,11.8-6.9c8.9-2.7,18-3.1,27.1-1.6c9.5,1.6,18.2,5.1,26,11c5.6,4.3,10.1,9.4,13.3,15.7
				c3.5,6.9,3.9,14.3,3.4,21.8c-0.4,7-1.5,14-2.9,20.9C504.4,105.5,503.7,108,503.2,110.5z"/>
			<g>
				<path class="st21" d="M415.6,108.2c0.3,9.5,1.4,18.9,4.7,27.9c1,2.8,2.4,5.5,4,8c2.1,3.2,5,5,8.7,5.6c7.1,1.2,14.2,1.9,21.4,2
					c4.5,0.1,9,0.1,13.6-0.1c6.1-0.2,12-1.3,17.7-3.5c1.9-0.7,3.3-1.9,4-3.8c1-2.6,2-5.2,2.8-7.8c0.7-2.3,1.3-4.6,1.8-7
					c0.2-0.8,0.6-1.2,1.3-1.1c0.9,0.1,1.7,0.3,2.6,0.5c1.5,0.2,2.9,0.6,4.4,0.6c1.7,0.1,3-0.9,3.5-2.4c0.7-2,1.3-4.1,1.6-6.2
					c0.3-2,0.2-4,0-6c-0.1-1.4-0.8-2-2.2-1.6c-1.2,0.3-2.4,0.8-3.4,1.5c-1,0.6-3,0.8-3.9,0c-0.3-0.3-0.5-0.8-0.5-1.2
					c-1.1-8.2-2.1-16.5-3.1-24.8c-0.5-3.9-0.8-7.9-1.2-11.8c-0.1-1-0.5-1.9-1.3-2.5c-0.8-0.5-1.5-1.1-2.4-1.5
					c-4.1-2.2-7.5-5.3-10.9-8.4c-0.3-0.3-0.6-0.5-1.1-0.7c0.3,1.5,0.6,2.9,1,4.4c0.3,1.1,0.6,2.1,0.9,3.2c0.2,0.7-0.1,1.1-0.8,1.1
					c-0.8,0-1.7,0-2.5-0.3c-9.7-2.8-18.8-7.1-26.6-13.6c0.5,2.2,1,4.4,1.5,6.6c0.1,0.4,0.3,0.7,0.4,1.1c0.4,1.1,0.1,1.5-1,1.4
					c-1.1-0.1-2.1-0.3-3.1-0.6c-7.7-2.5-15-5.7-21.5-10.5c-0.8-0.6-1.6-1.2-2.5-1.9c-0.6,1.9-1.2,3.6-1.7,5.4
					c-2.1,7.3-3.5,14.8-4.6,22.4C415.9,91,415.3,99.6,415.6,108.2z M439.6,83.5c-0.7,0-1.6-0.1-2.2-0.5c-2.5-1.5-5-3.1-7.4-4.6
					c-0.6-0.4-1.2-0.6-1.8-1c-0.4-0.2-0.4-0.5,0.1-0.7c0.2-0.1,0.4-0.1,0.7-0.1c0.3,0.1,0.8,0.1,1.1,0.3c3.2,2,6.4,3.9,9.6,5.9
					C440.2,83.1,440.1,83.5,439.6,83.5z M478.4,81.9c-0.3,0.2-0.5,0.4-0.8,0.5c-3.7,1.2-7.5,2.3-11.3,3.5c-0.2,0.1-0.5,0.1-0.8,0.2
					c-0.4-0.1-0.9-0.1-1.3-0.3c-0.3-0.1-0.6-0.4-0.9-0.7c0.3-0.2,0.6-0.4,0.9-0.5c3.7-1.2,7.4-2.3,11.1-3.4c0.7-0.2,1.5-0.1,2.3,0
					C477.8,81.3,478.1,81.7,478.4,81.9z M478.8,102.6c-0.8,0.3-1.8,0.3-2.6,0.5c-3.8-0.4-7.3-1.6-10.3-3.9c-0.5-0.4-0.9-0.7-1.3-1.2
					c-0.7-0.9-0.4-1.8,0.7-2c0.5-0.1,1-0.2,1.5-0.2c4,0.1,7.8,1.2,11.2,3.3c0.4,0.3,0.9,0.6,1.2,1
					C480.4,101.1,480.2,102.2,478.8,102.6z M444.5,124c0.8-0.5,2.1,0.2,2.3,1.1c0.7,3.9,2.9,6.6,6.7,7.7c5.2,1.5,10.1,0.5,14.6-2.4
					c4-2.5,6.5-6,6.4-11c0-0.2,0.1-0.6,0.2-0.6c0.6,0,1.2-0.1,1.8,0.1c0.3,0.1,0.6,0.6,0.6,1c0.2,3.3-0.9,6.2-3.2,8.6
					c-4.2,4.4-9.6,6-14.9,6.3c-4.1,0-7.4-0.7-10.3-2.7c-2.5-1.7-4-4.1-4.5-7C444.1,124.7,444.2,124.1,444.5,124z M437.2,99.4
					c0.5-1,1.3-1.8,2.5-1.8c1.4,0,2.8,0.1,4.2,0.4c1.4,0.3,1.6,0.4,1.8-1c0.4-2.5,0.6-5.1,0.8-7.6c0.1-0.8,0.2-1.3,1.1-1.2
					c1.1,0,1.6,0.4,1.5,1.3c0,1.9,0,3.7-0.2,5.5c-0.1,1.3-0.5,2.5-1,3.7c-0.5,1.2-1.5,1.3-2.7,1c-1-0.3-2.1-0.5-3.2-0.5
					c-1.2-0.1-2.1,0.6-2.3,1.7c-0.5,2.1-0.9,4.2-1.2,6.3c-0.2,1.8,0.7,2.9,2.5,3.3c1.1,0.2,2.3,0.2,3.4,0.3c0.6,0.1,1.2,0.1,1.7,0.3
					c0.2,0,0.3,0.3,0.4,0.5c-0.2,0.1-0.4,0.4-0.6,0.4c-0.8,0-1.6,0-2.3,0c0,0,0,0.1,0,0.1c-1.2-0.1-2.4-0.1-3.6-0.3
					c-2.4-0.4-3.8-1.4-4.1-3.4C435.4,105.2,435.9,102.2,437.2,99.4z M423.9,94.7c0.2-0.2,0.5-0.4,0.8-0.6c1.9-1.2,3.9-2,6.1-2.2
					c1.5-0.1,3-0.1,4.4,0.2c1.3,0.3,1.6,1.4,0.7,2.5c-0.2,0.2-0.5,0.4-0.7,0.6c-2.2,1.5-4.6,2-7.7,2.1c-0.7-0.1-1.9-0.3-3.1-0.6
					C423.2,96.4,423.1,95.5,423.9,94.7z"/>
				<path class="st21" d="M406.8,147.1c-1-1.2-1.9-2.4-2.8-3.7c-0.2-0.4-0.2-1.2,0.1-1.6c0.6-0.8,1.5-1.4,2.3-2
					c0.5-0.4,0.9-0.2,1.2,0.3c0.9,1.4,1.8,2.8,2.7,4.2c0.3,0.4,0.5,0.9,0.7,1.2c-1.2,0.6-2.3,1.2-3.4,1.7
					C407.3,147.2,406.9,147.2,406.8,147.1z"/>
				<path class="st21" d="M404.7,149.6c-0.7,0.6-1.3,1.2-2.1,1.9c-0.9-1.1-1.9-2.2-2.8-3.4c-1.1-1.4-1.1-1.8,0.1-3.2
					c0.2-0.3,0.5-0.5,0.7-0.8c0.3-0.3,0.6-0.3,0.9,0.1c1.1,1.5,2.2,3,3.3,4.5C405.1,149,405,149.3,404.7,149.6z"/>
				<path class="st21" d="M401.7,155.9c-0.1,0.3-0.2,0.6-0.3,0.8c-0.6,1.1-0.8,1.1-1.7,0.3c-1.1-1.1-2.2-2.2-3.3-3.3
					c-0.7-0.8-0.2-2.6,0.7-3c0.1-0.1,0.4,0.1,0.6,0.2c1.1,1.3,2.2,2.6,3.3,3.9C401.3,155.1,401.5,155.5,401.7,155.9z"/>
				<path class="st21" d="M395.2,157.3c0.1-0.1,0.3-0.1,0.4,0c0.9,0.8,1.9,1.6,2.8,2.4c0.2,0.2,0.2,0.7,0.1,1
					c-0.1,0.4-0.5,0.6-0.8,0.9c-0.2-0.1-0.4-0.2-0.5-0.3c-0.8-0.5-1.6-1-2.3-1.6C394.1,159.2,394.3,157.7,395.2,157.3z"/>
				<path class="st21" d="M400.1,163c1.5-0.9,1.8-1.9,1.3-3.6c1.6-0.2,2.6-1.1,3.3-2.5c0.4,0.3,0.8,0.5,1.2,0.7
					c0.9,0.4,1.8,0.8,2.7,0.1c1.6-1.3,3.2-2.7,4.8-4.1c0.1-0.1,0.2-0.6,0-0.7c-0.7-0.7-2.3-0.7-3,0c-1,0.9-2,1.8-3,2.7
					c-0.5,0.5-0.8,0.4-1.3-0.1c-1.1-1.2-1.3-2.4-0.2-3.5c1.6-1.6,3.4-3.1,5.2-4.5c0.5-0.4,1.5-0.4,2.1-0.1c1.9,0.9,3.1,2.4,3.1,4.6
					c-0.1,2.5-0.4,5-0.7,7.5c0,0.5-0.1,1-0.4,1.4c-2.3,3.6-5.4,6.3-9.3,7.8c-0.3,0.1-0.7,0.1-1-0.1c-2-1.2-3.7-2.7-5.2-4.5
					C399.5,163.5,399.5,163.3,400.1,163z"/>
				<path class="st21" d="M443.3,169.8c0.3-0.8,1-1.2,1.8-1.3c1.2-0.2,2.3-0.3,3.5-0.4c1.1-0.1,2.3-0.2,3.4-0.3
					c0.2,0,0.4-0.2,0.6-0.3c-0.2-0.2-0.3-0.5-0.5-0.5c-0.7-0.1-1.4-0.3-2.1-0.3c-1.7,0.1-3.4,0.3-5,0.5c-0.4,0-0.8,0-1.3-0.1
					c0.3-0.4,0.6-0.8,1-1.2c0.1-0.2,0.4-0.2,0.6-0.3c2.9-1.2,6-1.7,9.1-1.9c0.7,0,1.1,0.4,1.5,0.9c1.6,2.7,3.3,5.4,4.9,8.2
					c0.1,0.2,0.3,0.5,0.3,0.8c-0.3,3.6-1.7,6.8-4.3,9.4c-0.6,0.6-1.2,0.7-1.9,0.3c-1.4-0.8-2.8-1.6-4.3-2.3c-1.3-0.7-2.6-1-4.1-0.7
					c-0.4,0.1-0.8,0-1.3,0c-0.9-0.1-1.3-0.6-1.3-1.5c0-1,0.7-1.2,1.5-1.2c1.2,0,2.4,0.1,3.6,0.1c0.4,0,0.9-0.2,1.3-0.3
					c-0.4-0.3-0.8-0.5-1.1-0.8c-0.1-0.1-0.3-0.1-0.4-0.1c-1.3-0.1-2.7-0.2-4-0.2c-1.3,0-2-1.1-1.2-2.1c0.4-0.5,1.2-0.8,1.8-0.9
					c1.6-0.2,3.2-0.2,4.9-0.3c0.3,0,0.7-0.3,1-0.4c-0.3-0.2-0.6-0.6-0.9-0.7c-1.2-0.1-2.3,0-3.5,0c0,0,0-0.1,0-0.1
					c-0.8,0-1.6,0-2.3,0C443.1,171.7,442.8,171.1,443.3,169.8z"/>
			</g>
			<g>
				<path class="st2" d="M463.8,173.8c0.7,0.3,1.2,0.5,1.7,0.8c2.3,1.2,4.9,1.4,7.4,2c0.3,0.1,0.6-0.2,1-0.4
					c-0.2-0.2-0.5-0.5-0.7-0.6c-0.6-0.2-1.2-0.3-1.7-0.4c0.4-1.8,0.8-3.5,1.2-5.2c1.2-5.2,2.5-10.4,3.7-15.5
					c0.5-1.9,0.5-1.9,2.5-2.1c0.1,0,0.1,0,0.3,0c0.1,2.4,0.3,4.7,0.4,7c0.2,5.1,0.3,10.2,0.4,15.3c0.1,4.4-0.2,8.8-1,13.2
					c-0.2,0.8-0.5,1.3-1.4,1.3c-0.8,0-1.6,0-2.4-0.1c-5.4-0.5-10.5-1.8-15.6-3.5c-0.5-0.2-0.9-0.4-1.6-0.7
					C461.8,182.1,463.2,178.2,463.8,173.8z"/>
				<path class="st2" d="M462.8,153.5c2.3,0,4.4,0,6.5,0c-0.8,1.7-1.6,3.3-2.4,5.1C465.5,156.9,464.3,155.3,462.8,153.5z"/>
				<path class="st2" d="M453.4,153.5c1.5,0,3,0,4.7,0.1c-1.1,1.7-2.1,3.1-3.2,4.8c-0.7-1.4-1.3-2.6-1.8-3.9
					C453,154.2,453.3,153.5,453.4,153.5z"/>
				<path class="st2" d="M456.4,159.4c1.1-1.7,2.3-3.5,3.4-5.2c0.6-1,0.8-1,1.6-0.1c1.7,2,3.3,4.1,4.9,6.1c0.1,0.1,0.2,0.3,0.2,0.5
					c0.1,1.6-1.4,3.3-3.1,3.3c-1.3,0-2.6-0.1-3.9-0.1c-0.9,0-1.8,0-2.6-0.7c-0.4-0.3-1.1-0.5-1.6-0.6c-0.7-0.1-0.9-0.5-1-1.1
					c0-0.4,0-0.8,0-1.4C455.5,160.7,456,160.2,456.4,159.4z"/>
				<path class="st2" d="M418.4,162.8c0.5,0.5,0.9,1.1,1.4,1.5c1.5,1.3,3,2.7,4.7,3.8c2.9,2,4.6,1.8,7.3-0.6
					c3.2-2.8,6.4-5.7,9.5-8.5c1.2-1.1,2.5-2.3,3.8-3.5c-0.5,2.9-0.9,5.6-1.4,8.3c0,0.2-0.2,0.4-0.3,0.5c-1.4,0.7-1.9,2.1-2.8,3.2
					c-3.1,3.9-6.6,7.6-9.9,11.4c-0.8,0.9-1.7,1.8-2.3,2.9c-0.5,0.7-0.8,0.7-1.5,0.3c-6.2-3.3-11.9-7.3-17.6-11.4
					c-0.2-0.2-0.5-0.4-0.7-0.6C413.9,167.6,414.4,167.2,418.4,162.8z"/>
			</g>
			<g>
				<path class="st32" d="M471.3,163.9c-0.8,3.2-1.7,6.5-2.6,9.7c0,0.2-0.4,0.4-0.5,0.4c-1.9-0.7-3.7-1.5-5.6-2.3
					c-0.1,0-0.1-0.1-0.1-0.2c-1.1-2-2.3-3.9-3.5-6c0.9,0,1.7,0,2.4,0c1.5,0.1,2.9,0.2,4.4,0.2c2.4,0,3.5-0.9,4.1-3.2
					c0.2-0.7,0.3-1.3,0.5-2c0.5-2.3,1-4.6,1.6-6.8c0.1-0.6,0.9-1,1.5-0.7c0.2,0.1,0.3,0.7,0.2,1
					C472.9,157.4,472.2,160.7,471.3,163.9z"/>
				<path class="st32" d="M450.3,162.8c-0.8,0.2-1.6,0.2-2.6,0.4c0.6-3.2,1.2-6.1,1.8-9.1c0.1-0.3,0.4-0.5,0.6-0.7
					c0.1,0.3,0.3,0.6,0.3,0.8c0.1,2.7,0.2,5.3,0.2,8C450.7,162.4,450.4,162.7,450.3,162.8z"/>
				<path class="st32" d="M446.6,181.4c0.6,0,1.3-0.1,1.9,0.2c2.8,1.3,5.4,2.7,8.2,4c4.3,2,8.8,3.2,13.5,3.9
					c2.6,0.4,5.2,0.7,7.8,0.8c2.8,0.1,3.8-0.8,4-3.5c0.3-5.2,0.4-10.5,0.6-15.7c0.1-2.5,0-4.9,0-7.3c0,0,0.1,0.1,0.1,0.3
					c2.3,8.9,4.1,17.8,5.5,26.9c0.8,5.2,1.5,10.5,2.4,15.7c0.4,2.4-0.1,4.4-2.1,5.8c-2.3,1.6-4.6,3.1-7.1,4.3
					c-6.6,3-13.6,3.1-20.6,1.7c-3.6-0.7-7-2-10.4-3.6c-0.7-0.3-1.3-0.8-1.4-1.7c-0.2-1.3-0.4-2.5-0.6-3.8
					c-0.6-5.9-1.3-11.8-1.8-17.7c-0.3-3.2-0.2-6.4-0.2-9.6C446.3,181.9,446.5,181.4,446.6,181.4z"/>
			</g>
			<path d="M449.7,58.7C449.7,58.7,449.7,58.7,449.7,58.7C449.7,58.7,449.7,58.7,449.7,58.7L449.7,58.7z"/>
			<g>
				<path d="M391.6,159.7c1.5,1.1,3.1,2.2,4.7,3.3c0.3,0.2,0.6,0.4,0.8,0.7c1.3,1.8,2.9,3.3,4.8,4.6c6.3,4.3,12.5,8.6,18.8,12.8
					c1.8,1.2,3.7,2.2,5.7,3c2.9,1.1,4.6,0.6,6.7-1.8c2.6-3.1,5.3-6.3,7.9-9.4c0.3-0.3,0.5-0.9,1-0.3c-1.4,1.6-1.5,2.5-0.3,4.2
					c0.1,0.2,0.1,0.5,0,0.7c-0.4,1-0.4,1.9,0.4,2.8c0.2,0.2,0.3,0.6,0.4,0.9c0.1,4.3,0.1,8.6,0.4,12.9c0.3,4,0.8,8,1.2,12
					c0.2,2,0.4,3.9,0.7,5.9c0.2,1.8,1.2,3.2,2.8,3.9c1.3,0.6,2.7,1.2,4,1.7c0.6,0.2,0.9,0.5,1,1.1c0.8,3.7,1.6,7.4,2.4,11.1
					c0.1,0.3,0,0.7-0.2,1c-0.7,1-1.4,2-2.1,2.9c-0.5,0.7-1,1.3-1.5,2.1c-1.8,3-0.1,6,3.5,6.2c1.8,0.1,3.5-0.3,4.9-1.2
					c1.6-1,3.1-2.3,4.5-3.6c1.1-1,1.5-2.3,1.6-3.8c0.2-2.3,0.4-4.6,0.7-6.9c0.2-1.6,0.3-3.3,0.5-4.9c0-0.6,0.2-0.7,0.8-0.7
					c1.8,0,3.7,0,5.6-0.1c0.8,0,1.1,0.2,1.2,0.9c1,4.1,2,8.2,3.1,12.3c0.2,0.9,0.7,1.8,1,2.7c0.1,0.3,0.1,0.8,0.1,1.1
					c-0.4,2.3-0.6,4.6-0.1,6.9c1.2,5,7,5.7,9.9,3.7c1.6-1.1,2.2-2.7,2-4.5c-0.2-1.8-0.7-3.6-1-5.5c-0.1-0.4-0.3-0.9-0.1-1.2
					c1-1.9,0.7-3.8,0.6-5.8c-0.1-3.2-0.3-6.5-0.5-9.7c-0.1-1.7-0.2-3.4-0.4-5.1c-0.1-0.6,0.1-1,0.7-1.4c0.9-0.6,1.7-1.3,2.5-1.9
					c2-1.7,2.7-3.9,2.3-6.4c-2.7-17.6-5.3-35.3-10.8-52.3c-0.2-0.8-0.5-1.6-0.8-2.3c-0.2-0.6-0.1-0.8,0.5-0.9c2.1-0.6,4.1-1.4,6.2-2
					c2.2-0.7,3.6-2.2,4.3-4.2c1.4-3.6,2.6-7.3,3.9-10.9c0.3-0.8,0.5-1.7,0.6-2.6c0.1-0.7,0.4-0.8,1.1-0.7c1.9,0.2,3.7,0.4,5.6,0.3
					c2.8-0.1,4.8-1.6,5.7-4.3c0.7-2,1-4,1.4-6.1c0.1-0.2,0.1-0.4,0.2-0.7c0-1.6,0-3.1,0-4.7c-0.1-0.2-0.1-0.4-0.2-0.6
					c-0.5-1.9-1.6-3.2-3.5-3.7c-1.2-0.3-1.2-0.4-0.9-1.6c2.7-11.1,4.4-22.3,4.4-33.8c0-6.1-1.2-12-4.4-17.4
					c-5.4-9.2-13-16-22.6-20.6c-8.5-4-17.4-6.3-26.7-7.1c-1.5-0.1-3-0.2-4.5-0.3c-0.6,0-1.2,0-1.8,0c-1.6,0.1-3.2,0.2-4.8,0.4
					c-6.8,0.7-13.4,1.9-19.4,5.3c-2.8,1.5-5.2,3.4-7.1,6c-1.3,1.8-2.3,3.7-2.1,6c0.1,0.7,0.3,1.5,0.6,2.1c0.5,0.7,0.4,1.3,0.1,2.1
					c-3.5,9.6-5.6,19.6-6.9,29.7c-1,8.2-1.7,16.4-1.5,24.7c0.2,10.7,1.8,21.2,5.8,31.2c1.3,3.2,2.9,6.2,5.4,8.8
					c2.1,2.2,4.6,3.3,7.5,3.9c3.9,0.8,7.9,1.3,11.9,2c0.3,0.1,0.7,0.1,1.2,0.2c-1.2,1.1-2.3,2.2-3.4,3.2c-3.5,3.2-7,6.4-10.6,9.5
					c-1.5,1.4-1.5,1.3-3-0.1c-2.3-2-4.7-3.8-7-5.8c-0.2-0.2-0.4-0.7-0.4-1c0.3-2.2,0.6-4.4,1.1-6.6c0.3-1.4-0.1-2.5-1.2-3.4
					c-0.9-0.7-1.8-1.4-2.8-1.9c-0.8-0.4-1.3-1-1.8-1.8c-1.2-1.9-2.5-3.8-3.8-5.7c-1.3-1.8-3-2.2-5-1.4c-1.7,0.7-3.3,1.6-4.3,3.3
					c-0.1,0.2-0.3,0.3-0.5,0.4c-1.9,0.4-3,1.7-4,3.2c-0.8,1.2-0.2,2.2,0.6,3.3c-1.7,0.3-2.7,1.4-3.5,2.6c-0.8,1.2-0.7,1.9,0.3,3
					c0.4,0.4,0.8,0.9,1.2,1.4c-1.8,0.2-2.8,1.3-3.5,2.7C390.9,158.6,391,159.2,391.6,159.7z M404.8,148.6c0.3,0.4,0.3,0.7-0.1,1
					c-0.7,0.6-1.3,1.2-2.1,1.9c-0.9-1.1-1.9-2.2-2.8-3.4c-1.1-1.4-1.1-1.8,0.1-3.2c0.2-0.3,0.5-0.5,0.7-0.8c0.3-0.3,0.6-0.3,0.9,0.1
					C402.6,145.6,403.7,147.1,404.8,148.6z M411,145.5c-1.2,0.6-2.3,1.2-3.4,1.7c-0.2,0.1-0.6,0.1-0.7,0c-1-1.2-1.9-2.4-2.8-3.7
					c-0.2-0.4-0.2-1.2,0.1-1.6c0.6-0.8,1.5-1.4,2.3-2c0.5-0.4,0.9-0.2,1.2,0.3c0.9,1.4,1.8,2.8,2.7,4.2
					C410.5,144.7,410.8,145.1,411,145.5z M504.9,102.9c-0.5,2.5-1.2,5.1-1.7,7.6c-0.2,0.7-0.7,0.7-1.2,0.7c-0.1,0-0.4-0.5-0.5-0.8
					c-0.2-1.2-0.3-2.4-0.5-3.7c-0.6-5-1.2-10-1.8-15c-0.5-4.6-1.1-9.2-1.5-13.8c-0.2-2.2-1-3.7-2.9-4.7c-0.6-0.3-1.2-0.7-1.8-1
					c-1.5-1-3-1.8-4.4-2.9c-3.7-2.8-7.1-6-10.2-9.5c-1-1.1-2.3-1.3-3.6-1c-1.1,0.3-1.3,1.4-1.3,2.4c0.1,1.8,0.3,3.7,0.5,5.5
					c0.1,1,0.5,2,0.8,3.1c-0.2-0.1-0.3-0.1-0.4-0.1c-9.2-3.2-17.7-7.8-24.5-14.9c-0.9-1-2-1.2-3.2-1.3c-0.8,0-1.4,0.4-1.4,1.3
					c0,1.6-0.1,3.2,0.2,4.7c0.2,1.8,0.8,3.5,1.2,5.4c-2.4-1-4.6-1.9-6.8-2.9c-5.5-2.5-10.5-5.7-15-9.8c-2.2-2-2.7-4.4-1.3-7.1
					c0.6-1.2,1.5-2.3,2.4-3.3c3.3-3.4,7.3-5.6,11.8-6.9c8.9-2.7,18-3.1,27.1-1.6c9.5,1.6,18.2,5.1,26,11c5.6,4.3,10.1,9.4,13.3,15.7
					c3.5,6.9,3.9,14.3,3.4,21.8C507.3,89,506.3,96,504.9,102.9z M468,151.6c-4.5,0.2-9,0.1-13.6,0.1c-7.2-0.1-14.3-0.8-21.4-2
					c-3.8-0.6-6.7-2.4-8.7-5.6c-1.6-2.5-3-5.2-4-8c-3.2-9-4.3-18.4-4.7-27.9c-0.3-8.6,0.3-17.2,1.5-25.8c1-7.6,2.4-15.1,4.6-22.4
					c0.5-1.8,1.1-3.5,1.7-5.4c0.9,0.7,1.7,1.3,2.5,1.9c6.6,4.8,13.9,8,21.5,10.5c1,0.3,2.1,0.5,3.1,0.6c1.2,0.1,1.4-0.3,1-1.4
					c-0.1-0.4-0.3-0.7-0.4-1.1c-0.5-2.2-1-4.4-1.5-6.6c0,0,0,0,0,0l0,0c0,0,0,0,0,0c7.8,6.5,16.9,10.8,26.6,13.6
					c0.8,0.2,1.7,0.3,2.5,0.3c0.7,0,1-0.4,0.8-1.1c-0.3-1.1-0.6-2.1-0.9-3.2c-0.4-1.5-0.6-2.9-1-4.4c0.5,0.2,0.8,0.4,1.1,0.7
					c3.4,3.1,6.8,6.2,10.9,8.4c0.8,0.4,1.6,1,2.4,1.5c0.9,0.6,1.2,1.4,1.3,2.5c0.4,3.9,0.7,7.9,1.2,11.8c1,8.3,2,16.5,3.1,24.8
					c0.1,0.4,0.2,0.9,0.5,1.2c0.9,0.8,2.9,0.7,3.9,0c1.1-0.6,2.2-1.2,3.4-1.5c1.3-0.3,2.1,0.2,2.2,1.6c0.1,2,0.2,4,0,6
					c-0.3,2.1-0.9,4.2-1.6,6.2c-0.5,1.6-1.8,2.5-3.5,2.4c-1.5-0.1-2.9-0.4-4.4-0.6c-0.9-0.1-1.7-0.4-2.6-0.5
					c-0.8-0.1-1.1,0.3-1.3,1.1c-0.6,2.3-1.1,4.7-1.8,7c-0.8,2.6-1.8,5.2-2.8,7.8c-0.7,1.9-2.1,3.1-4,3.8
					C480,150.2,474.1,151.3,468,151.6z M449.5,154.1c0.1-0.3,0.4-0.5,0.6-0.7c0.1,0.3,0.3,0.6,0.3,0.8c0.1,2.7,0.2,5.3,0.2,8
					c0,0.2-0.2,0.5-0.4,0.6c-0.8,0.2-1.6,0.2-2.6,0.4C448.3,160,448.9,157,449.5,154.1z M473.9,176.2c-0.2-0.2-0.5-0.5-0.7-0.6
					c-0.6-0.2-1.2-0.3-1.7-0.4c0.4-1.8,0.8-3.5,1.2-5.2c1.2-5.2,2.5-10.4,3.7-15.5c0.5-1.9,0.5-1.9,2.5-2.1c0.1,0,0.1,0,0.3,0
					c0.1,2.4,0.3,4.7,0.4,7c0.2,5.1,0.3,10.2,0.4,15.3c0.1,4.4-0.2,8.8-1,13.2c-0.2,0.8-0.5,1.3-1.4,1.3c-0.8,0-1.6,0-2.4-0.1
					c-5.4-0.5-10.5-1.8-15.6-3.5c-0.5-0.2-0.9-0.4-1.6-0.7c3.9-2.8,5.3-6.6,5.9-11c0.7,0.3,1.2,0.5,1.7,0.8c2.3,1.2,4.9,1.4,7.4,2
					C473.2,176.7,473.5,176.3,473.9,176.2z M462.5,171.6c-1.1-2-2.3-3.9-3.5-6c0.9,0,1.7,0,2.4,0c1.5,0.1,2.9,0.2,4.4,0.2
					c2.4,0,3.5-0.9,4.1-3.2c0.2-0.7,0.3-1.3,0.5-2c0.5-2.3,1-4.6,1.6-6.8c0.1-0.6,0.9-1,1.5-0.7c0.2,0.1,0.3,0.7,0.2,1
					c-0.8,3.3-1.5,6.6-2.4,9.9c-0.8,3.2-1.7,6.5-2.6,9.7c0,0.2-0.4,0.4-0.5,0.4c-1.9-0.7-3.7-1.5-5.6-2.3
					C462.6,171.7,462.6,171.6,462.5,171.6z M466.9,158.6c-1.4-1.7-2.7-3.3-4.1-5.1c2.3,0,4.4,0,6.5,0
					C468.6,155.2,467.8,156.8,466.9,158.6z M457,163.3c-0.4-0.3-1.1-0.5-1.6-0.6c-0.7-0.1-0.9-0.5-1-1.1c0-0.4,0-0.8,0-1.4
					c1.1,0.5,1.5-0.1,2-0.8c1.1-1.7,2.3-3.5,3.4-5.2c0.6-1,0.8-1,1.6-0.1c1.7,2,3.3,4.1,4.9,6.1c0.1,0.1,0.2,0.3,0.2,0.5
					c0.1,1.6-1.4,3.3-3.1,3.3c-1.3,0-2.6-0.1-3.9-0.1C458.7,164,457.8,164,457,163.3z M453.1,154.5c-0.1-0.3,0.1-1,0.2-1
					c1.5,0,3,0,4.7,0.1c-1.1,1.7-2.1,3.1-3.2,4.8C454.2,156.9,453.6,155.7,453.1,154.5z M477.3,220.3c3.1-0.5,6.1-1.5,9.1-3
					c0.1,0.5,0.1,0.9,0.1,1.2c0.1,1.7,0.2,3.3,0.3,5c0.2,2.7,0.4,5.4,0.5,8.2c0.1,1.5-0.1,3.1-0.9,4.4c-0.7,1.2-2.5,2-3.9,1.8
					c-1.4-0.2-1.9-1.3-2.2-2.4c-1.2-4.7-2.4-9.5-3.6-14.3C476.7,220.7,476.6,220.4,477.3,220.3z M455.1,218.8c2.5,0.5,4.8,1,7,1.5
					c0.7,0.1,1.7,0.1,2,0.5c0.3,0.4,0,1.4,0,2.1c-0.2,2.5-0.5,5.1-0.8,7.6c0,0.3-0.5,0.7-0.7,0.8c-1,0.1-1.9,0.2-2.9,0.2
					c-1.3,0-1.8-0.4-2.1-1.6C456.7,226.2,455.9,222.5,455.1,218.8z M446.3,182.1c0-0.2,0.2-0.7,0.3-0.7c0.6,0,1.3-0.1,1.9,0.2
					c2.8,1.3,5.4,2.7,8.2,4c4.3,2,8.8,3.2,13.5,3.9c2.6,0.4,5.2,0.7,7.8,0.8c2.8,0.1,3.8-0.8,4-3.5c0.3-5.2,0.4-10.5,0.6-15.7
					c0.1-2.5,0-4.9,0-7.3c0,0,0.1,0.1,0.1,0.3c2.3,8.9,4.1,17.8,5.5,26.9c0.8,5.2,1.5,10.5,2.4,15.7c0.4,2.4-0.1,4.4-2.1,5.8
					c-2.3,1.6-4.6,3.1-7.1,4.3c-6.6,3-13.6,3.1-20.6,1.7c-3.6-0.7-7-2-10.4-3.6c-0.7-0.3-1.3-0.8-1.4-1.7c-0.2-1.3-0.4-2.5-0.6-3.8
					c-0.6-5.9-1.3-11.8-1.8-17.7C446.2,188.5,446.3,185.3,446.3,182.1z M446.9,171.7c-0.8,0-1.6,0-2.3,0c-1.4,0-1.8-0.6-1.2-1.9
					c0.3-0.8,1-1.2,1.8-1.3c1.2-0.2,2.3-0.3,3.5-0.4c1.1-0.1,2.3-0.2,3.4-0.3c0.2,0,0.4-0.2,0.6-0.3c-0.2-0.2-0.3-0.5-0.5-0.5
					c-0.7-0.1-1.4-0.3-2.1-0.3c-1.7,0.1-3.4,0.3-5,0.5c-0.4,0-0.8,0-1.3-0.1c0.3-0.4,0.6-0.8,1-1.2c0.1-0.2,0.4-0.2,0.6-0.3
					c2.9-1.2,6-1.7,9.1-1.9c0.7,0,1.1,0.4,1.5,0.9c1.6,2.7,3.3,5.4,4.9,8.2c0.1,0.2,0.3,0.5,0.3,0.8c-0.3,3.6-1.7,6.8-4.3,9.4
					c-0.6,0.6-1.2,0.7-1.9,0.3c-1.4-0.8-2.8-1.6-4.3-2.3c-1.3-0.7-2.6-1-4.1-0.7c-0.4,0.1-0.8,0-1.3,0c-0.9-0.1-1.3-0.6-1.3-1.5
					c0-1,0.7-1.2,1.5-1.2c1.2,0,2.4,0.1,3.6,0.1c0.4,0,0.9-0.2,1.3-0.3c-0.4-0.3-0.8-0.5-1.1-0.8c-0.1-0.1-0.3-0.1-0.4-0.1
					c-1.3-0.1-2.7-0.2-4-0.2c-1.3,0-2-1.1-1.2-2.1c0.4-0.5,1.2-0.8,1.8-0.9c1.6-0.2,3.2-0.2,4.9-0.3c0.3,0,0.7-0.3,1-0.4
					c-0.3-0.2-0.6-0.6-0.9-0.7C449.2,171.8,448.1,171.8,446.9,171.7C446.9,171.8,446.9,171.8,446.9,171.7z M408.6,170.2
					c5.3-2.6,5.8-2.9,9.8-7.4c0.5,0.5,0.9,1.1,1.4,1.5c1.5,1.3,3,2.7,4.7,3.8c2.9,2,4.6,1.8,7.3-0.6c3.2-2.8,6.4-5.7,9.5-8.5
					c1.2-1.1,2.5-2.3,3.8-3.5c-0.5,2.9-0.9,5.6-1.4,8.3c0,0.2-0.2,0.4-0.3,0.5c-1.4,0.7-1.9,2.1-2.8,3.2c-3.1,3.9-6.6,7.6-9.9,11.4
					c-0.8,0.9-1.7,1.8-2.3,2.9c-0.5,0.7-0.8,0.7-1.5,0.3c-6.2-3.3-11.9-7.3-17.6-11.4C409.1,170.6,408.9,170.4,408.6,170.2z
					 M400.1,163c1.5-0.9,1.8-1.9,1.3-3.6c1.6-0.2,2.6-1.1,3.3-2.5c0.4,0.3,0.8,0.5,1.2,0.7c0.9,0.4,1.8,0.8,2.7,0.1
					c1.6-1.3,3.2-2.7,4.8-4.1c0.1-0.1,0.2-0.6,0-0.7c-0.7-0.7-2.3-0.7-3,0c-1,0.9-2,1.8-3,2.7c-0.5,0.5-0.8,0.4-1.3-0.1
					c-1.1-1.2-1.3-2.4-0.2-3.5c1.6-1.6,3.4-3.1,5.2-4.5c0.5-0.4,1.5-0.4,2.1-0.1c1.9,0.9,3.1,2.4,3.1,4.6c-0.1,2.5-0.4,5-0.7,7.5
					c0,0.5-0.1,1-0.4,1.4c-2.3,3.6-5.4,6.3-9.3,7.8c-0.3,0.1-0.7,0.1-1-0.1c-2-1.2-3.7-2.7-5.2-4.5
					C399.5,163.5,399.5,163.3,400.1,163z M396.4,153.6c-0.7-0.8-0.2-2.6,0.7-3c0.1-0.1,0.4,0.1,0.6,0.2c1.1,1.3,2.2,2.6,3.3,3.9
					c0.3,0.3,0.4,0.8,0.6,1.2c-0.1,0.3-0.2,0.6-0.3,0.8c-0.6,1.1-0.8,1.1-1.7,0.3C398.6,155.9,397.5,154.8,396.4,153.6z
					 M395.2,157.3c0.1-0.1,0.3-0.1,0.4,0c0.9,0.8,1.9,1.6,2.8,2.4c0.2,0.2,0.2,0.7,0.1,1c-0.1,0.4-0.5,0.6-0.8,0.9
					c-0.2-0.1-0.4-0.2-0.5-0.3c-0.8-0.5-1.6-1-2.3-1.6C394.1,159.2,394.3,157.7,395.2,157.3z"/>
				<path d="M448.7,132.1c-2.5-1.7-4-4.1-4.5-7c-0.1-0.3,0-0.9,0.3-1.1c0.8-0.5,2.1,0.2,2.3,1.1c0.7,3.9,2.9,6.6,6.7,7.7
					c5.2,1.5,10.1,0.5,14.6-2.4c4-2.5,6.5-6,6.4-11c0-0.2,0.1-0.6,0.2-0.6c0.6,0,1.2-0.1,1.8,0.1c0.3,0.1,0.6,0.6,0.6,1
					c0.2,3.3-0.9,6.2-3.2,8.6c-4.2,4.4-9.6,6-14.9,6.3C455,134.7,451.7,134.1,448.7,132.1z"/>
				<path d="M447.8,98.7c-0.5,1.2-1.5,1.3-2.7,1c-1-0.3-2.1-0.5-3.2-0.5c-1.2-0.1-2.1,0.6-2.3,1.7c-0.5,2.1-0.9,4.2-1.2,6.3
					c-0.2,1.8,0.7,2.9,2.5,3.3c1.1,0.2,2.3,0.2,3.4,0.3c0.6,0.1,1.2,0.1,1.7,0.3c0.2,0,0.3,0.3,0.4,0.5c-0.2,0.1-0.4,0.4-0.6,0.4
					c-0.8,0-1.6,0-2.3,0c0,0,0,0.1,0,0.1c-1.2-0.1-2.4-0.1-3.6-0.3c-2.4-0.4-3.8-1.4-4.1-3.4c-0.4-3,0-6,1.3-8.7
					c0.5-1,1.3-1.8,2.5-1.8c1.4,0,2.8,0.1,4.2,0.4c1.4,0.3,1.6,0.4,1.8-1c0.4-2.5,0.6-5.1,0.8-7.6c0.1-0.8,0.2-1.3,1.1-1.2
					c1.1,0,1.6,0.4,1.5,1.3c0,1.9,0,3.7-0.2,5.5C448.7,96.2,448.3,97.5,447.8,98.7z"/>
				<path d="M465.9,99.2c-0.5-0.4-0.9-0.7-1.3-1.2c-0.7-0.9-0.4-1.8,0.7-2c0.5-0.1,1-0.2,1.5-0.2c4,0.1,7.8,1.2,11.2,3.3
					c0.4,0.3,0.9,0.6,1.2,1c1,1.1,0.8,2.1-0.6,2.5c-0.8,0.3-1.8,0.3-2.6,0.5C472.4,102.7,468.9,101.5,465.9,99.2z"/>
				<path d="M435.2,92.1c1.3,0.3,1.6,1.4,0.7,2.5c-0.2,0.2-0.5,0.4-0.7,0.6c-2.2,1.5-4.6,2-7.7,2.1c-0.7-0.1-1.9-0.3-3.1-0.6
					c-1.1-0.3-1.2-1.2-0.4-2c0.2-0.2,0.5-0.4,0.8-0.6c1.9-1.2,3.9-2,6.1-2.2C432.3,91.8,433.8,91.9,435.2,92.1z"/>
				<path d="M466.3,85.9c-0.2,0.1-0.5,0.1-0.8,0.2c-0.4-0.1-0.9-0.1-1.3-0.3c-0.3-0.1-0.6-0.4-0.9-0.7c0.3-0.2,0.6-0.4,0.9-0.5
					c3.7-1.2,7.4-2.3,11.1-3.4c0.7-0.2,1.5-0.1,2.3,0c0.3,0,0.6,0.5,0.8,0.7c-0.3,0.2-0.5,0.4-0.8,0.5
					C473.8,83.6,470,84.8,466.3,85.9z"/>
				<path d="M439.6,83.5c-0.7,0-1.6-0.1-2.2-0.5c-2.5-1.5-5-3.1-7.4-4.6c-0.6-0.4-1.2-0.6-1.8-1c-0.4-0.2-0.4-0.5,0.1-0.7
					c0.2-0.1,0.4-0.1,0.7-0.1c0.3,0.1,0.8,0.1,1.1,0.3c3.2,2,6.4,3.9,9.6,5.9C440.2,83.1,440.1,83.5,439.6,83.5z"/>
			</g>
		</g>
	</g>
	<g>
		<path class="st2" d="M49.6,168.4c-1.3,1-2,1.9-2,2.7c0,1.1,1.4,1.7,4.8,1.7c2.6,0,5.7-0.4,7.2-1l0.3,4.2c-0.6,0-0.6,0-2.2,0.2
			c-1.8,0.2-3.7,0.4-5.5,0.4c-2.5,0-4.2-0.2-5.6-0.8c-2-0.8-2.9-2.1-2.9-4c0-2,1-3.6,3.1-5.3L49.6,168.4z M45.1,158.4
			c1.4,0.4,4.1,0.6,7.3,0.6c2.9,0,5-0.1,6.1-0.4l0.1,3.4c-1.4,0.7-4.1,2.4-6.1,3.9l-2.7-1.9c0.6-0.4,0.7-0.5,1.7-1.1
			c0.3-0.2,0.3-0.2,0.5-0.3c0.2-0.1,0.2-0.1,0.4-0.2c-0.7,0.1-1.1,0.1-1.8,0.1c-1.7,0-2.8-0.1-5-0.3c-0.4,0-0.5,0-0.8-0.1
			L45.1,158.4z"/>
		<path class="st2" d="M61.9,170.7c0.6-0.5,0.9-0.8,1.5-1.3c1.5-1.5,2.3-2.3,2.4-2.4c0-0.4,0-1,0.1-2.4c-2.5,0.2-2.5,0.2-3.3,0.3
			l-0.2-3.5c0.5,0,0.8,0.1,1.1,0.1c0.6,0,1.5,0,2.4-0.1c0-0.3,0-0.3,0-0.7c0-0.5,0-1,0-1.5c0-0.7,0-0.9-0.1-1.5l3.9,0.1
			c-0.1,0.5-0.2,1.9-0.3,3.3l1.2,1.1c-0.4,0.3-0.8,0.8-1.4,1.5l0,0.3c0,0.2,0,0.3,0,0.5c2.8-2.6,5-3.8,7-3.8c2.1,0,3.5,1.4,3.5,3.4
			c0,0.7-0.1,1.5-0.6,3.3c-0.7,2.8-0.9,4.2-0.9,4.7c0,0.4,0.2,0.6,0.5,0.6c0.3,0,0.8-0.4,1.2-1c0.6-0.8,1.1-1.7,1.3-2.4
			c0.5,1.4,0.9,2.1,1.8,3.5c-1.7,2.8-3.1,3.8-5.2,3.8s-3.5-1.4-3.5-3.5c0-1.2,0.2-2.6,1-5.9c0.3-1.2,0.4-1.9,0.4-2.3
			c0-0.4-0.2-0.6-0.6-0.6c-0.5,0-1.3,0.3-2.1,0.9c-1.5,1-2.9,2.3-3.8,3.4c0,1,0,1.7,0,2.3c0,3.1,0.1,5.4,0.2,6.2l-4,0
			c0.1-0.8,0.2-2,0.2-3.4v-1.2c0-0.1,0-0.2,0-0.4c0-0.1,0-0.2,0-0.3c0-0.1,0-0.2,0-0.4c-1.6,1.9-1.9,2.3-2.2,2.8L61.9,170.7z"/>
		<path class="st2" d="M85.1,159.5c1.3,0.3,3.6,0.5,6.3,0.5c0.3,0,0.6,0,1.2,0c0-1.5,0-1.8-0.1-2.4h3.9c-0.1,0.6-0.1,0.7-0.2,2.3
			c2.9-0.2,5-0.4,6.2-0.8l0.1,3.4c-0.6,0-0.8,0-1.9,0.2c-1.5,0.2-2.7,0.3-4.4,0.4c0,0.6,0,0.6,0,1.4c2.5-0.1,4.2-0.3,5.7-0.7
			l0.1,3.4c-0.5,0-0.5,0-1.4,0.1c-1,0.1-3.1,0.3-4.3,0.3c0,1,0,1,0.1,1.9c1.1,0.3,1.8,0.6,3,1.2c1.1,0.6,1.4,0.7,2.9,1.8
			c0.3,0.2,0.5,0.3,0.8,0.5l-2.1,3.5c-0.7-0.7-0.7-0.7-1.5-1.4c-1-0.9-2.1-1.6-3.1-2c0,1-0.2,1.7-0.5,2.2c-0.7,1.1-2.4,1.7-4.8,1.7
			c-3.6,0-5.7-1.5-5.7-4c0-1.6,1-2.9,2.8-3.6c1-0.4,2.4-0.6,3.9-0.6c0.3,0,0.4,0,0.7,0c0-0.7,0-1.2,0-1.3c-0.5,0-1.4,0-1.7,0
			c-1.3,0-2.3,0-3.5-0.1c-1,0-1.1-0.1-1.7-0.1l0-3.3c1,0.2,3.2,0.4,5.4,0.4c0.5,0,0.8,0,1.5,0c0-0.2,0-0.2,0-0.3c0,0,0,0,0-0.6
			c0-0.3,0-0.3,0-0.5c-0.5,0-0.7,0-0.9,0c-1.2,0-1.6,0-4.1-0.1c-0.8,0-0.8,0-1.7-0.1c-0.3,0-0.5,0-0.6,0c-0.1,0-0.2,0-0.4,0
			L85.1,159.5z M91.5,172c-1.3,0-2.1,0.4-2.1,1.1c0,0.6,0.6,0.9,1.7,0.9c1.2,0,1.8-0.4,1.8-1.4c0-0.1,0-0.4,0-0.4
			C92.3,172.1,92,172,91.5,172z"/>
		<path class="st2" d="M105,159.7c0.4,0,0.7,0,0.8,0c0.6,0,1.4,0,3.8-0.2c3.2-0.2,5.3-0.3,9.5-0.5l2.3-0.1l0.9,0c0.7,0,0.9,0,1,0
			c0.2,0,0.2,0,0.5-0.1l0.2,4c-0.3,0-0.4,0-0.6,0c-1.5,0-3.5,0.6-5,1.5c-2.2,1.3-3.5,3.2-3.5,5c0,1.3,0.6,2.1,1.8,2.7
			c0.9,0.4,2.8,0.8,4.2,0.8c0.2,0,0.3,0,0.7,0l-0.5,4.2c-0.3-0.1-0.4-0.1-0.8-0.1c-2.5-0.2-4.2-0.6-5.6-1.2c-2.6-1.2-3.9-3.2-3.9-6
			c0-1.8,0.6-3.5,1.9-5c0.6-0.7,1.1-1.1,2.2-1.9l-1,0.1c-0.5,0-1.3,0.1-5.4,0.4c-2,0.2-2.2,0.2-3.1,0.4L105,159.7z M120.6,164.7
			c0.9,1,1.5,2,2.1,3.2l-2.1,1c-0.7-1.4-1.3-2.2-2.1-3.3L120.6,164.7z M123.5,163.4c0.8,0.9,1.4,1.7,2.2,3.1l-2,0.9
			c-0.8-1.5-1.3-2.3-2.1-3.2L123.5,163.4z"/>
		<path class="st2" d="M132.5,158.3c-0.9,2.5-1.5,6.6-1.7,10.6l1.7,0.6c-0.6,2-0.9,4-0.9,6.2c0,0.4,0,0.6,0.1,1.1l-3.8,0.2
			c0-0.4,0-0.6-0.1-1.2c-0.4-2.9-0.6-4.9-0.6-7c0-2.5,0.3-5.3,0.8-8.5c0.3-1.5,0.3-1.7,0.3-2.4L132.5,158.3z M138.6,167.9
			c-1,1.3-1.5,2.2-1.5,3c0,1,1,1.6,2.9,1.6c2,0,3.8-0.3,5.5-0.9l0.2,3.9c-0.6,0.1-0.6,0.1-1.9,0.3c-1.2,0.2-2.6,0.3-3.8,0.3
			c-2,0-3.4-0.3-4.6-0.9c-1.2-0.7-2-2.1-2-3.5c0-1.1,0.4-2.3,1.1-3.4c0.3-0.5,0.4-0.7,1-1.6L138.6,167.9z M134.3,159.9
			c1,0.2,2.2,0.3,3.9,0.3c2.9,0,5.1-0.2,6.6-0.6l0.2,3.8c-0.2,0-0.4,0-1.6,0.2c-1.5,0.2-3.1,0.2-4.6,0.2c-1.3,0-2.4,0-3.8-0.2
			c-0.2,0-0.3,0-0.6,0L134.3,159.9z"/>
		<path class="st2" d="M152.5,164.3c-1.1,0-1.7,0-2.5,0.1v-1.1h-2.1c0.1-0.6,0.1-1.1,0.1-1.8v-1.5c0-0.8,0-1.2-0.1-1.7
			c0.8,0.1,1.4,0.1,2.6,0.1h5.5c0-0.6,0-0.8-0.1-1.2h3.6c-0.1,0.4-0.1,0.6-0.1,1.2h5.7c1.2,0,1.8,0,2.6-0.1
			c-0.1,0.5-0.1,0.9-0.1,1.7v1.5c0,0.7,0,1.2,0.1,1.8h-2.1v1.1c-0.7-0.1-1.4-0.1-2.5-0.1H161c1.6,0.8,3.3,1.1,6.1,1.1
			c-0.5,0.7-0.7,1-1.1,1.8c0.9,0,1.5,0,2.2-0.1v3c-0.8-0.1-1.6-0.1-2.6-0.1v5.1c0,1.2-0.2,1.9-0.9,2.3c-0.6,0.4-1.3,0.5-2.9,0.5
			c-0.5,0-1.1,0-2.1,0c-0.1-0.7-0.1-0.9-0.3-1.4h-6v0.9h-3.4c0.1-0.6,0.1-1.1,0.1-1.9v-3.2c0-0.7,0-1.1-0.1-1.6c0.6,0,1,0,1.7,0h7.2
			c1,0,1.3,0,1.8,0c-0.1,0.5-0.1,1-0.1,1.7v2.5c0.2,0,0.6,0,0.7,0c0.7,0,0.9-0.1,0.9-0.5v-4.4h-12c-1,0-1.8,0-2.6,0.1v-3
			c0.6,0.1,1.1,0.1,2,0.1c-0.4-0.6-0.5-0.9-1.1-1.6c2.7-0.1,4.2-0.4,5.6-1.3H152.5z M151.2,161.1v0.8c0.4,0,0.6,0,0.9,0h3.7
			c0.1-0.4,0.1-0.5,0.1-0.8H151.2z M153.4,173.9h4.1v-1h-4.1V173.9z M161,167.1c-1.4-0.5-2.4-1.1-3.4-2.1c-0.8,1-1.7,1.5-3.1,2.1
			H161z M159.2,161.1c0,0.4-0.1,0.5-0.1,0.8h4.5c0.4,0,0.5,0,0.9,0v-0.8H159.2z"/>
		<path class="st2" d="M177.1,157.9c-0.2,0.9-0.2,1.9-0.2,4c2.3-0.1,3.1-0.1,5.6-0.2c0-0.1,0-0.2,0-0.2c0-1.3-0.1-3-0.2-3.8h3.8
			c-0.1,0.5-0.1,1.1-0.1,2.1v1.5c0,0,0,0.2,0,0.4c3.3-0.1,3.3-0.1,4-0.2l0,3.7c-0.7,0-1.1-0.1-1.8-0.1c-0.3,0-0.4,0-2.2,0
			c0,3.3-0.2,4.5-1.1,5.5c-0.5,0.6-1.4,0.9-2.7,0.9c-0.9,0-2.1-0.2-3.3-0.7c0-0.2,0-0.4,0-0.5c0-1.1-0.1-1.9-0.3-3
			c1.1,0.5,2.2,0.9,3,0.9c0.7,0,0.8-0.4,0.9-2.9c-2,0.1-3.9,0.2-5.6,0.2c0,4.8,0,5.8,0.2,6.5c0.3,1.1,1.1,1.5,4,1.5
			c2.7,0,5.3-0.4,6.9-1l0.2,4c-0.9,0.1-0.9,0.1-2.2,0.2c-2,0.2-3.5,0.3-5.1,0.3c-2.1,0-3.7-0.2-4.6-0.6c-1.6-0.6-2.4-1.7-2.8-3.7
			c-0.1-0.9-0.2-2.7-0.2-5.8c0-0.3,0-0.8,0-1.3c-2,0.1-2.6,0.2-3.7,0.3l-0.2-3.7c0.4,0,0.5,0,0.7,0c0.3,0,1.4,0,3.2-0.1
			c0-0.3,0-0.5,0-0.7c0-1.9,0-2.5-0.2-3.5H177.1z"/>
		<path class="st2" d="M197.5,162c-0.3,1.2-0.7,3.3-0.9,5.3c1.8-1.2,3.8-1.7,6.3-1.7c3.9,0,6.5,2,6.5,5.2c0,1.9-0.9,3.6-2.5,4.7
			c-1.6,1.1-3.6,1.6-6.3,1.6c-1.8,0-3.4-0.2-5.5-0.7c-0.1-1.8-0.2-2.5-0.5-3.9c2.2,0.7,4.2,1,5.9,1c2.9,0,4.8-1,4.8-2.6
			c0-1.2-1.1-1.8-3.1-1.8c-1.6,0-3.3,0.4-4.8,1.3c-0.6,0.3-0.8,0.5-1.2,1l-3.7-0.2c0-0.2,0-0.2,0.1-0.4c0.1-1.1,0.6-4.6,1-7.6
			c0.1-0.5,0.1-0.8,0.1-1.4L197.5,162z M197.1,157.2c1.1,0.5,2.4,1,4.5,1.6c1.5,0.4,3.4,0.8,4.4,0.9l-1.2,3.5
			c-4-0.8-6.9-1.7-9.5-2.9L197.1,157.2z"/>
		<path class="st2" d="M211.1,170.7c0.6-0.5,0.9-0.8,1.5-1.3c1.5-1.5,2.3-2.3,2.4-2.4c0-0.4,0-1,0.1-2.4c-2.5,0.2-2.5,0.2-3.3,0.3
			l-0.2-3.5c0.5,0,0.8,0.1,1.1,0.1c0.6,0,1.5,0,2.4-0.1c0-0.3,0-0.3,0-0.7c0-0.5,0-1,0-1.5c0-0.7,0-0.9-0.1-1.5l3.9,0.1
			c-0.1,0.5-0.2,1.9-0.3,3.3l1.2,1.1c-0.4,0.3-0.8,0.8-1.4,1.5l0,0.3c0,0.2,0,0.3,0,0.5c2.8-2.6,5-3.8,7-3.8c2.1,0,3.5,1.4,3.5,3.4
			c0,0.7-0.1,1.5-0.6,3.3c-0.7,2.8-0.9,4.2-0.9,4.7c0,0.4,0.2,0.6,0.5,0.6c0.3,0,0.8-0.4,1.2-1c0.5-0.8,1.1-1.7,1.3-2.4
			c0.5,1.4,0.9,2.1,1.8,3.5c-1.7,2.8-3.1,3.8-5.2,3.8s-3.5-1.4-3.5-3.5c0-1.2,0.2-2.6,1-5.9c0.3-1.2,0.4-1.9,0.4-2.3
			c0-0.4-0.2-0.6-0.6-0.6c-0.5,0-1.3,0.3-2.1,0.9c-1.5,1-2.9,2.3-3.8,3.4c0,1,0,1.7,0,2.3c0,3.1,0.1,5.4,0.2,6.2l-4,0
			c0.1-0.8,0.2-2,0.2-3.4v-1.2c0-0.1,0-0.2,0-0.4c0-0.1,0-0.2,0-0.3c0-0.1,0-0.2,0-0.4c-1.6,1.9-1.9,2.3-2.2,2.8L211.1,170.7z"/>
		<path class="st2" d="M245.3,163.4c2.1-0.3,3.1-0.3,5.8-0.3c0.2,0,0.6,0,1.1,0l0.1,3.7c-1.1-0.1-1.7-0.2-2.9-0.2
			c-2.4,0-4,0.1-6.2,0.5l-0.2-3.1c-1.1,0.1-1.3,0.1-2,0.2c-0.4,2.1-0.8,3.7-1.4,6c-0.6,1.9-0.7,2.4-1.6,5.3
			c-0.4,1.1-0.4,1.1-0.5,1.6l-4-1.5c1.5-2.8,2.9-7.2,3.7-11.3c-0.2,0-0.3,0-0.4,0c-0.7,0-1.2,0-2.1-0.1c0,0-0.1,0-0.2,0
			c-0.2,0-0.3,0-0.5,0l0.1-3.6c0.9,0.1,2,0.2,3.3,0.2c0.1,0,0.2,0,0.4,0c0.3-1.8,0.4-2.6,0.4-3.3c0-0.1,0-0.2,0-0.3l4.1,0.3
			c-0.1,0.4-0.2,0.7-0.3,1.3c0,0.1-0.2,0.8-0.4,1.9c1.5-0.2,2.4-0.3,3.6-0.6L245.3,163.4z M246,169.4c-0.8,1-1.2,1.7-1.2,2.4
			c0,1,0.9,1.5,2.8,1.5c1.7,0,3.9-0.4,5.2-0.9l0.3,3.9c-0.4,0-0.6,0.1-1.2,0.1c-2.1,0.3-2.9,0.4-4.3,0.4c-4.3,0-6.5-1.4-6.5-4.2
			c0-1.3,0.5-2.5,1.7-4.3L246,169.4z"/>
		<path class="st2" d="M271.3,177.7v-1.1h-12.5v1.1h-3.5c0.1-0.7,0.1-1.7,0.1-3.1v-14.2c0-1,0-1.7-0.1-2.6c0.8,0.1,1.5,0.1,2.6,0.1
			h14.3c1.1,0,1.8,0,2.6-0.1c-0.1,0.8-0.1,1.5-0.1,2.6v14.2c0,1.2,0,2.4,0.1,3.1H271.3z M258.8,173.6h12.5V161h-12.5V173.6z
			 M267.8,162.6c0.9,0,1.4,0,2-0.1c0,0.5-0.1,1.1-0.1,1.8v5.7c0,0.7,0,1.2,0.1,1.8c-0.5,0-1.1-0.1-2-0.1h-5.5c-0.9,0-1.4,0-2,0.1
			c0-0.6,0.1-1.2,0.1-1.8v-5.7c0-0.6,0-1.1-0.1-1.8c0.5,0,1.1,0.1,2,0.1H267.8z M263.5,169h2.9v-3.5h-2.9V169z"/>
		<path class="st2" d="M281,161.5c-0.8,1.1-1.4,1.8-2.6,2.9c-0.6-1.1-1.1-1.8-2-2.6c1.7-1.4,2.9-3.3,3.4-5l3.3,0.5
			c0,0.1-0.2,0.5-0.6,1.2h2.1c1,0,1.5,0,2-0.1v2.2c0.9-1.4,1.5-2.7,1.8-3.8l3.3,0.5l-0.5,1.2h3.5c1,0,1.6,0,2.2-0.1v3.2
			c-0.6-0.1-1.4-0.1-2.2-0.1h-1c0.4,0.7,0.6,1.2,1,2.1l-3.3,0.7c-0.3-1.2-0.5-1.6-1-2.8H290c-0.4,0.7-0.7,1.2-1.1,1.6
			c0.9,0.9,2.2,1.7,4.1,2.5c1.4,0.6,2.5,0.9,4.6,1.3c-0.8,1.5-0.9,1.9-1.3,3.3c-1.5-0.4-3-0.9-4.4-1.6v1c-0.8,0-1.2-0.1-1.8-0.1H284
			c-1,0-1.1,0-1.9,0.1v-1c-1.6,0.8-2.8,1.3-4.3,1.7c-0.4-1.2-0.7-2.1-1.4-3.2c3.2-0.6,5.9-1.8,7.8-3.4l-2.1,0.4
			c-0.2-0.9-0.5-1.8-0.8-2.6H281z M282.8,177.7h-3.4c0.1-0.7,0.1-1.6,0.1-2.5v-2.8c0-1,0-1.5-0.1-2.1c0.6,0,1,0.1,2,0.1h11.1
			c1.1,0,1.5,0,2-0.1c0,0.5-0.1,1.1-0.1,2.2v2.8c0,1.1,0,1.8,0.1,2.5h-3.4v-0.9h-8.4V177.7z M282.8,174h8.5V173h-8.5V174z
			 M284.5,161.5c0.2,0.5,0.4,0.9,0.6,1.4h2.1c-0.4-0.4-0.7-0.6-1.3-1.1l0.2-0.2c-0.4,0-0.6,0-0.9,0H284.5z M289,167
			c-0.9-0.5-1.3-0.9-2.2-1.6c-0.9,0.7-1.2,1-2.1,1.6H289z"/>
		<path class="st2" d="M308.7,171.3c-1.3,2.8-2.8,4-4.8,4c-2.9,0-5-2.8-5-6.8c0-2.6,0.9-4.9,2.5-6.7c1.9-2.1,4.7-3.2,8-3.2
			c2.9,0,5.5,1,7.2,2.7c1.4,1.5,2.2,3.6,2.2,6.1c0,2.9-1.1,5.5-2.9,7.1c-1.5,1.3-3.2,2-6.3,2.5c-0.5-1.6-0.9-2.4-1.9-3.6
			c2.1-0.2,3.4-0.5,4.6-1.1c1.7-0.9,2.6-2.8,2.6-5.1c0-1.9-0.7-3.4-1.9-4.3c-0.6-0.4-1.1-0.6-1.8-0.8
			C310.7,165.9,309.9,168.7,308.7,171.3z M305,163.3c-1.5,1.2-2.4,3.3-2.4,5.2c0,1.6,0.6,2.8,1.4,2.8c0.5,0,1.1-0.8,1.8-2.4
			c0.8-2,1.4-4.5,1.7-6.7C306.4,162.3,305.7,162.6,305,163.3z"/>
		<path class="st2" d="M340.8,168.9c-1.3-0.1-2.4-0.2-3.8-0.2h-12.5c-1.3,0-2.5,0-3.8,0.2V165c1.2,0.1,2.2,0.2,3.8,0.2H337
			c1.7,0,2.8,0,3.8-0.2V168.9z"/>
		<path class="st2" d="M350.8,164.2h0.9c1,0,1.4,0,1.7-0.1v1.3h5.1c1.1,0,1.4,0,2-0.1c0,0.3,0,0.5,0,1v5c0,0.6,0,0.9,0,1.3
			c0.9,0.4,1.5,0.6,2.8,0.9c-0.2,2.1-0.4,3-1.1,3.5c-0.6,0.4-1.6,0.6-4.4,0.6c-4,0-4.6-0.3-4.6-1.9v-2h-1.2
			c-0.6,1.4-1.9,2.6-3.6,3.3c-1.2,0.5-2.4,0.7-4.3,0.9c-0.4-1.1-0.8-1.8-1.5-2.8c0.1,0,0.2,0,0.2,0c2.7,0,4.4-0.4,5.5-1.4h-0.8
			c-1.1,0-1.6,0-2.2,0c0.1-0.5,0.1-1.2,0.1-2.2v-5.2c0-0.2,0-0.4,0-0.6h-0.5c-0.6,0-0.9,0-1.5,0c0-0.6,0-1.1,0-2.4v-3.6
			c0-1.4,0-1.8-0.1-2.4c0.6,0,1.1,0.1,2.3,0.1h5.5c1,0,1.6,0,2.2-0.1v2.2c-0.4,0-0.8-0.1-1.6-0.1h-0.9v0.6h1c0.6,0,0.8,0,1.1,0
			c0,0.1,0,0.1,0,0.2c1-0.9,1.7-2.1,2.1-3.3l3.3,0.5c-0.2,0.4-0.2,0.4-0.4,0.9h2.9c0.8,0,1.4,0,2-0.1v2.9c-0.6-0.1-1.3-0.1-2-0.1
			h-4.6c-0.3,0.4-0.4,0.5-0.8,0.9c0.2,0,0.2,0,0.6,0h4.2c0.9,0,1.5,0,2-0.1v2.6c-0.5-0.1-1.1-0.1-1.9-0.1h-3.7c-0.7,0-1.5,0-1.9,0.1
			v-1.7c-0.3,0.2-0.4,0.3-0.7,0.6c-0.4-0.7-0.6-1-1.1-1.6v0.7c0,0.6,0,0.7,0,1c-0.5,0-0.6,0-1.2,0h-1V164.2z M348,160.1v-0.6h-1.6
			v0.6H348z M349.9,162.2v-0.7h-3.6v0.7H349.9z M346.3,163.6v0.7h1.6v-0.7H346.3z M348.5,167.8h8.6v-0.6h-8.6V167.8z M348.5,169.7
			h8.6v-0.5h-8.6V169.7z M348.5,171.7h8.6v-0.5h-8.6V171.7z M356.4,174.4c0,0.5,0.2,0.6,1.6,0.6c1.2,0,1.7,0,1.9-0.2
			c0.2-0.1,0.2-0.2,0.3-1c-0.5,0-0.9,0-2,0h-1.8V174.4z"/>
	</g>
	<g>
		<path class="st9" d="M455.5,207.1l-9.8,9.7h10.6l16.2-16h-10.7l-6.3,6.2L455.5,207.1L455.5,207.1z M506.3,207.1l-9.8,9.7H507
			l16.2-16h-10.7l-6.3,6.2L506.3,207.1L506.3,207.1z M487.3,200.8l-16.3,16h10.7l16.3-16H487.3z M436.5,200.8l-16.2,16H431l16.2-16
			H436.5z M151.2,207.1l-9.8,9.7H152l16.2-16h-10.7l-6.3,6.2V207.1z M132.2,200.8l-16.2,16h10.7l16.2-16H132.2z M201.9,207.1
			l-9.8,9.7h10.6l16.2-16h-10.7l-6.3,6.2V207.1z M182.9,200.8l-16.2,16h10.7l16.2-16H182.9z M100.5,207.1l-9.9,9.7h10.6l16.2-16
			h-10.7l-6.3,6.2v0.1C100.4,207.1,100.5,207.1,100.5,207.1z M49.7,207.1l-9.8,9.7h10.6l16.2-16H56l-6.3,6.2V207.1z M81.5,200.8
			l-16.3,16h10.7l16.3-16H81.5z M335.1,200.8l-16.2,16h10.7l16.2-16H335.1z M354.1,207.1l-9.8,9.7H355l16.2-16h-10.7l-6.3,6.2
			L354.1,207.1L354.1,207.1z M404.8,207.1l-9.8,9.7h10.6l16.2-16h-10.7l-6.3,6.2L404.8,207.1L404.8,207.1z M385.8,200.8l-16.2,16
			h10.7l16.2-16H385.8z M233.6,200.8l-16.2,16h10.7l16.2-16H233.6z M252.6,207.1l-9.8,9.7h10.6l16.2-16h-10.7l-6.3,6.2L252.6,207.1
			L252.6,207.1z M303.4,207.1l-9.8,9.7h10.6l16.2-16h-10.7l-6.3,6.2L303.4,207.1L303.4,207.1z M284.4,200.8l-16.2,16h10.7l16.2-16
			H284.4z M-1,207v9.8h0.8l16.2-16H5.3L-1,207z M30.7,200.8l-16.2,16h10.7l16.2-16H30.7z"/>
	</g>
	<line class="st35" x1="0" y1="208.8" x2="522.2" y2="208.8"/>
</g>
</svg>
