<?xml version="1.0" encoding="utf-8"?>
<!-- Generator: Adobe Illustrator 24.0.1, SVG Export Plug-In . SVG Version: 6.00 Build 0)  -->
<svg version="1.1" id="レイヤー_1" xmlns="http://www.w3.org/2000/svg" xmlns:xlink="http://www.w3.org/1999/xlink" x="0px"
	 y="0px" viewBox="0 0 141.7 141.7" style="enable-background:new 0 0 141.7 141.7;" xml:space="preserve">
<style type="text/css">
	.st0{fill:#CF1126;}
	.st1{fill:#F4F3F1;}
	.st2{fill:#C30D23;}
	.st3{fill:#CCCCCC;}
	.st4{clip-path:url(#SVGID_2_);}
	.st5{fill:#C8C9CA;}
	.st6{clip-path:url(#SVGID_4_);}
	.st7{fill:#FFFFFF;}
	.st8{fill:#803220;}
	.st9{fill:#EEAA3D;}
	.st10{fill:#E29223;}
	.st11{fill:#944024;}
	.st12{fill:#B15022;}
	.st13{fill:#D18215;}
	.st14{fill:#231815;}
	.st15{fill:#FAED00;}
	.st16{fill:#1EAA39;}
	.st17{fill:#169530;}
	.st18{fill:none;}
	.st19{clip-path:url(#SVGID_6_);}
	.st20{clip-path:url(#SVGID_8_);}
	.st21{fill:#FCD006;}
	.st22{fill:#604C3F;}
	.st23{fill:#C79F62;}
	.st24{fill:#FDEABE;}
	.st25{fill:#E95504;}
</style>
<g>
	<g>
		<g>
			<rect x="5.1" y="12.3" class="st0" width="31.9" height="81.7"/>
			<rect x="37.1" y="12.3" class="st1" width="32.1" height="81.7"/>
		</g>
		<g>
			<polygon class="st2" points="7,10.3 5.1,12.3 37.1,12.3 36.8,10.3 			"/>
			<polygon class="st3" points="67.9,10.3 36.8,10.3 37.1,12.3 69.1,12.3 			"/>
		</g>
		<g>
			<defs>
				<polygon id="SVGID_1_" points="67.9,10.3 36.8,10.3 7,10.3 5.1,12.3 5.1,94 37.1,94 69.1,94 69.1,12.3 				"/>
			</defs>
			<clipPath id="SVGID_2_">
				<use xlink:href="#SVGID_1_"  style="overflow:visible;"/>
			</clipPath>
			<g class="st4">
				<ellipse class="st5" cx="30.5" cy="64.6" rx="33.6" ry="24.5"/>
				<path class="st5" d="M64,65.5c0,13.5-9.2,39.6-33.6,39.6c-26.1,0-33.6-26.1-33.6-39.6C-3.1,52,11.9,41,30.5,41
					C49,41,64,52,64,65.5z"/>
				<g>
					<defs>
						<path id="SVGID_3_" d="M30.5,87.4c-17.6,0-31.9-10.2-31.9-22.8c0-12.6,14.3-22.8,31.9-22.8C48,41.8,62.4,52,62.4,64.6
							C62.4,77.2,48,87.4,30.5,87.4z"/>
					</defs>
					<use xlink:href="#SVGID_3_"  style="overflow:visible;fill:#DBDCDC;"/>
					<clipPath id="SVGID_4_">
						<use xlink:href="#SVGID_3_"  style="overflow:visible;"/>
					</clipPath>
					<g class="st6">
						<path class="st7" d="M59.9,69.1c-0.3-1.3,0.7-2.1,0-3.3c-0.6-1-1.6-1.5-2-2.5c-0.1-0.3,0-0.6-0.2-0.9
							c-0.4-0.6-1.1-0.7-1.6-1.1c-0.5-0.5-0.2-0.7-0.5-1.1c-0.5-0.8-1.6-0.6-2.3-0.9c-0.8-0.3-1.3-1.2-2.1-1.8
							c-1.6-1.2-3.5-1.9-5.3-2.7c-1.3-0.6-3.8-2.4-4.6-0.6c-0.5,1-0.1,3.3,0.2,4.3c0.3,1.5,1.1,2.9,1.6,4.4c0.5,1.6,0.7,3.1,0.8,4.8
							c0.2,1.5,0.3,3.1,0,4.6c-0.3,1.4-0.6,2.6,0.3,3.9c0.9,1.3,2.3,1.9,2.7,3.5c0.3,1.1,0.1,2.3,0.1,3.4c0,1.5,0.4,2.1,1.8,2.5
							c1.7,0.5,3.8,0.5,4.8-1.2c0.6-1,0.7-3.1,1.7-3.6c0.5-0.3,1.3,0,1.8-0.5c0.5-0.5,0.6-1.4,1.1-2c0.6-0.7,0.9-1.3,1.4-2.1
							c0.5-0.7,1.3-1.1,1.5-2C61.5,72.5,60.3,70.7,59.9,69.1z"/>
						<path class="st8" d="M3.4,59.7c0.9-0.7,1.8-0.5,2.2-1.8c0.5-1.7-0.2-3.5,2.2-4.1c0.8-0.2,1.6-0.1,2.3-0.3c1-0.3,1.8-0.7,3-0.7
							c1.7,0,3.3,0.4,5-0.3c1-0.4,2-1.3,3.1-1.3c1.4,0.1,1.4,0.8,2.6,0.1c1.4-0.8,2.4-1.5,4.1-1.5c1.3,0,2.6,0.6,3.8,0.6
							c1.6-0.1,3.2-1.2,4.9-0.5c0.6,0.2,0.8,0.8,1.3,1c0.5,0.3,1.2,0.2,1.8,0.3c1.4,0.2,4.1,0.2,5,1.5c0.2,0.3,0.2,1,0.4,1.3
							c0.4,0.7,1,1,1.5,1.6c1.3,1.2,1,2.2,1.3,3.7c0.5,1.9,2.2,2.9,3.2,4.5c0.8,1.3,0.2,2.9,0.8,4.3c0.6,1.4,2.1,2,2.2,3.5
							c0.1,0.8-0.1,1.5-0.1,2.3c0,0.9,0.2,1.7,0.3,2.5c0.1,0.9,0.1,2-0.2,2.8c-0.6,1.8-1.4,3.3-2.9,4.6c-4.3,3.8-10.8,5.8-16.4,5.9
							c-6.1,0.1-12.5-0.4-18.2-2.7c-6.4-2.6-12.7-6.4-16-12.7c-1-1.9-2.8-5.7-2.2-7.9c0.2-0.6,0.5-1.1,1.1-1.4
							c0.9-0.4,1.2,0.2,1.6-0.7C2,62.5,1.7,60.9,3.4,59.7z"/>
						<path class="st9" d="M29.5,48.4c1.5-0.7,3.1-0.7,4.7-0.7c1.2,0,5.7,0,5.1,2.2c-1.1,0.4-2.4,0.2-3.6,0.2
							c-1.6,0-2.8,0.5-4.4,0.9c-0.9,0.2-3,1-3.8,0.4C26.5,50.5,28.8,48.7,29.5,48.4z"/>
						<path class="st10" d="M38.9,56.4c1.7,0.2,2.9,1.1,4.4,1.9c1,0.6,4.8,3,3.2,4.6c-1.2-0.3-2.2-1.1-3.2-1.7
							c-1.4-0.8-2.7-1.1-4.2-1.6c-0.8-0.3-3.1-0.7-3.4-1.7C35.2,56.6,38.1,56.3,38.9,56.4z"/>
						<path class="st10" d="M12.9,73.1c-1.7-0.3-2.9-1.2-4.3-2.1c-1-0.7-4.7-3.2-3-4.7c1.2,0.3,2.1,1.2,3.1,1.8
							c1.3,0.9,2.6,1.2,4.1,1.8c0.8,0.3,3.1,0.8,3.3,1.8C16.6,73.1,13.7,73.2,12.9,73.1z"/>
						<path class="st11" d="M13,55.1c-0.1,0.9-0.6,2.2-0.3,3.2c0.6,1.8,2.7,3.2,4.4,3.8c0.8,0.3,2.1,0.5,3,0.3
							c1-0.2,1.1-1.2,2.1-1.5c0.9-0.3,1.9,0.3,2.6,0.6c0.8,0.3,1.8,0.5,2.7,0.7c2.6,0.4,3.9-0.2,4.9-2.8c0.4-1.1,0.8-3.6,0.5-4.8
							c-0.6-2.7-3.9-3.1-6.3-3.1c-3.6,0.1-7.1,0.9-10.7,0.5c-1.1-0.1-1.5-0.4-2.1,0.5C13.3,53.3,13.1,54.3,13,55.1z"/>
						<path class="st12" d="M32.9,53.2c-0.2-1.3-1.5-2.3-2.8-2.6c-2.6-0.7-6.3-0.2-8.8,0.4c-2.1,0.5-5.1-1.7-6.9,0.2
							c-2.1,2.3-1.6,6.5,0.8,8.3c1.1,0.8,3.3,1.6,4.6,1.1c1-0.4,1.6-1.4,2.8-1.4c1.2,0,2.2,1,3.4,1.3c1,0.2,2.1,0.3,3.1,0
							c1.2-0.4,1.4-1.2,2.1-2.1c0.6-0.8,1.2-1.1,1.5-2.1C33,55.3,33.1,54.2,32.9,53.2z"/>
						<path class="st11" d="M18.3,51.7c-0.9,0.1-2.1-0.3-3.1-0.2c0,0.5,0.4,0.6,0.8,0.8c-0.8,0-1.2,0.7-0.7,1.2
							c-0.5,0.1-1.4,0.3-1.1,1c1.6,0.2,3.3,0.1,4.9,0c-0.5-0.4-1.7-0.4-1.6-1.1c0.6,0,1.5,0.2,1.5-0.6c0-0.3-0.7-0.7-0.8-1"/>
						<path class="st11" d="M17.7,56.4c0.2,0.3,0.6,0.4,1,0.5c0,0.1,0,0.2,0,0.2c-0.4,0.1-0.4,0.3-0.6,0.4c0.1,0.1,0.4,0.3,0.5,0.4
							c-0.2,0.1-0.4,0.3-0.6,0.3c1.6,0.6,3.4-0.5,4.9-0.5c-0.2-0.5-0.8-0.4-1.3-0.5c0.2,0-0.5-0.6-0.5-0.6c-0.3-0.2-0.6-0.2-0.9-0.3
							C19.4,56.2,18.5,56.3,17.7,56.4z"/>
						<path class="st11" d="M39.4,65.3c-1.4-0.4-2.9-0.8-4.3-1.2c-2.1-0.6-3.9-1.3-5.4-2.8c-0.6-0.6-0.2-2.1-1.1-1.9
							c-0.7,1.5-2.2,0.8-0.5,6.2c0.8,2.8,3,2.6,7.3,2.8c2.5,0.1,5.3,1.8,7.8,1.2c1.6-0.4,2.1-1.8,0.7-2.9
							C42.7,65.8,40.8,65.6,39.4,65.3z"/>
						<path class="st12" d="M28.2,60.3c0.3-1.3,1.1-1.4,2.3-1.3c1,0.1,1.8,0.5,2.7,0.6c1,0.1,2-0.1,3-0.3c1.9-0.3,3.7,0,5.4,1.1
							c1.6,1.1,1.8,3.3,2.1,5c0.1,0.8,1,1.6,0.9,2.4c-0.2,1.1-2,0.6-3,0.6c-2.3,0-4.4-0.5-6.7-1c-1.6-0.3-3.1,0-4.5-1
							C29.1,65.5,27.8,61.8,28.2,60.3z"/>
						<g>
							<path class="st12" d="M12.1,68.3c0.4,1.5,0.8,3,1.4,4.4c0.2,0.5,0.7,1.6,1.3,1.9c0.3,0.1,0.7,0,1,0c0.6,0,1.3,0.1,1.9,0.2
								c1.3,0.3,2.2,0.8,3.5,0.4c0.6-0.2,1.2-0.2,1.8-0.4c0.3-0.1,0.6-0.3,0.9-0.5c1.4-0.6,2.8-1,4.1-1.8c1-0.6,2.1-1.2,2.6-2.2
								c0.2-0.5,0.5-0.7,0.8-1c-0.1-1-0.8-2-1.4-2.8c-0.5-0.6-0.9-1.1-1.6-1.5c-0.6-0.4-1-0.9-1.6-1.3c-0.5-0.3-1-0.5-1.5-0.8
								c-0.3-0.2-0.7-0.5-1.1-0.6c-0.4-0.1-0.8-0.1-1.2,0c-0.5,0.1-0.8,0.5-1.2,0.6c-0.5,0.1-1-0.2-1.5-0.2
								c-1.8-0.3-4.3-0.3-5.3,1.5c-0.4,0.7-0.5,0.8-1.3,0.8c-1,0-1.9-0.3-2.9-0.4c0,0.5,0.1,0.9,0.2,1.5
								C11.2,66.7,11.9,67.4,12.1,68.3z"/>
							<path class="st11" d="M30.6,70.2c-0.4,1.1-1.6,1.7-2.6,2.2c-1.3,0.8-2.7,1.2-4.1,1.8c-0.3,0.1-0.6,0.3-0.9,0.5
								c-0.6,0.3-1.2,0.2-1.8,0.4c-1.3,0.4-2.2-0.1-3.5-0.4c-0.6-0.1-1.3-0.2-1.9-0.2c-0.3,0-0.7,0.1-1,0c-0.5-0.3-1.1-1.4-1.3-1.9
								c-0.6-1.4-1-2.9-1.4-4.4c-0.3-0.9-0.9-1.6-1.2-2.5c-0.1-0.5-0.2-1-0.2-1.5c-0.4-0.1-0.8-0.1-1.2-0.1c-0.8,0-1.4,0.6-1.6,1.4
								c-0.1,0.3-0.3,0.7-0.1,1c0.2,0.2,0.6,0.4,0.8,0.7c0.3,0.5,0.5,1.2,0.7,1.8c0.3,0.9,0.8,1.8,1.3,2.6c0.4,0.6,0.7,1.2,1.1,1.8
								c0.4,0.5,0.9,0.9,1.4,1.3c0.5,0.5,0.5,0.6,1.3,0.7c0.6,0.1,1.2,0.3,1.9,0.4c1.1,0.2,2.1,0.4,3.2,0.5c0.9,0.1,1.6,0.2,2.4-0.2
								c0.6-0.3,1.2-0.8,1.8-1.1c1.3-0.6,2.7-1,3.9-1.7c1.1-0.7,2.1-1.6,3-2.4c0.6-0.6,0.8-1.2,0.8-1.8
								C31.1,69.5,30.8,69.8,30.6,70.2z"/>
						</g>
						<path class="st11" d="M15.1,67.7c0.4,0.7,0.4,1.6,0.8,2.3c0.1,0.3,0.3,0.7,0.6,0.7c0.4,0,0.3-0.3,0.7-0.1
							c0.2,0.1,0.3,0.4,0.4,0.5c0.2,0.2,0.5,0.5,0.8,0.6c0.6,0.3,0.3,0,0.6-0.3c0.4-0.3,1.1,0.2,1.5,0.4c0.5,0.2,1.1,0.5,1.7,0.5
							c0.2-0.8-1.1-1.4-1.6-1.8c-0.8-0.6-1.4-1.3-1.8-2.2c-0.4-0.8-0.8-1.6-1.2-2.5c-0.2-0.5-0.7-1-0.9-0.3
							c-0.1,0.4,0.2,1.1-0.5,1.1c-0.4,0-1-0.4-1.2-0.7c-0.2-0.3-0.8-1.3-0.9-0.4C14.1,66.3,14.8,67.1,15.1,67.7z"/>
						<path class="st11" d="M22,63.7c-0.5,0.4-1.2-0.2-1.7-0.1c-0.7,0.1-0.2,0.4-0.1,0.9c0,0.4-0.4,0.4-0.3,0.6
							c0,0.2,1.1,0.3,1.3,0.2c0.4-0.1,0.6-0.3,1-0.3c0.5,0,1.6,1,1.7,0.3c0.1-0.3-0.3-0.7-0.4-0.9c-0.1-0.4-0.2-0.9-0.2-1.3
							c-0.2,0-0.6,0.1-0.7,0.2L22,63.7z"/>
						<g>
							<path class="st9" d="M5.2,61.5c0.5-0.4,1-0.7,1.6-0.9c2.1-0.8,4.3-1.5,6.2-2.5c1.3-0.7,2.6-1.5,3.9-2.2
								c0.3-0.2,0.6-0.4,0.9-0.6c-0.2-0.2-0.6-0.3-0.9-0.2c-2,0.4-4.3,1.1-6,2.4c-1.2,0.9-2.7,1.4-4,2.3c-1.1,0.7-2,1.6-3.1,2.4
								c-0.3,0.2-0.4,0.4-0.4,0.7c0.2-0.1,0.4-0.1,0.6-0.3C4.5,62.3,4.7,61.9,5.2,61.5z"/>
							<path class="st10" d="M17.8,55.4c-0.3,0.2-0.6,0.4-0.9,0.6c-1.3,0.8-2.6,1.6-3.9,2.2c-1.9,1-4.2,1.7-6.2,2.5
								c-0.6,0.2-1.1,0.5-1.6,0.9c-0.5,0.3-0.7,0.8-1.1,1.1c-0.2,0.1-0.4,0.2-0.6,0.3c-0.1,0.6,0.5,1.1,1.1,1.4
								c1.3,0.4,2.6-0.1,3.8-0.4c2.4-0.5,4.9-0.8,7-2.2c1.5-1,2.9-2.7,3-4.6C18.5,56.4,18.3,55.7,17.8,55.4z"/>
						</g>
						<path class="st13" d="M16.5,57.8c-0.4,0.2-0.9,0.4-1.3,0.6c-0.7,0.3-1.3,0.7-2,1c-1.2,0.5-2.6,1-3.9,1.5
							c-0.5,0.2-1.1,0.5-1.6,0.7c-0.2,0.1-0.4,0.2-0.5,0.3c0.8-0.2,1.7-0.5,2.4-0.8c1.2-0.4,2.4-1,3.6-1.5c1.2-0.5,3.2-1.3,3.6-1.9
							L16.5,57.8z"/>
						<path class="st13" d="M16.8,58.9c-0.3,0.2-0.7,0.3-1.1,0.5c-0.6,0.2-1.1,0.5-1.6,0.8c-1,0.4-2.1,0.8-3.2,1.2
							c-0.4,0.2-0.9,0.4-1.3,0.5C9.4,62,9.2,62,9.1,62.1c0.6-0.1,1.4-0.4,2-0.6c1-0.3,2-0.8,2.9-1.1c1-0.4,2.6-1,2.9-1.5L16.8,58.9z
							"/>
						<path class="st7" d="M18.1,63.8C18,64,17.6,64,17.4,64.1c0.2,0,0.4,0.1,0.7,0.2c0,0,0,0.2,0,0.2c-0.1,0-0.2,0.1-0.3,0.1
							c0.2,0.1,0.5,0.1,0.7,0.3c-0.1,0-0.1,0.1-0.2,0.1c-0.2,0.3,0.2,0.5,0.2,0.7c-0.1,0.2-0.6,0.2-0.8,0.2
							c-0.1-0.5,0.5-0.9-0.3-0.9c0-0.1-0.1-0.3-0.1-0.4c0-0.1-1.3,0.5-0.9-0.2C16.6,63.8,17.6,63.7,18.1,63.8z"/>
						<path class="st7" d="M23.1,70.2c-0.2,0.1-0.3,0.2-0.4,0.3c0.2,0,0.3,0.1,0.5,0.2c-0.1,0.1-0.2,0.3-0.3,0.4
							c0.2,0.1,0.4,0.1,0.6,0.1c-0.1,0.4-1,0.6-1.1,0.1c-0.2,0-0.4,0-0.6,0c0-0.1,0-0.2,0-0.3c0.2,0,0.3,0,0.4-0.1
							c-0.4,0-1,0.1-1.3-0.1c0.1-0.3,0.5-0.5,0.8-0.6c0.2-0.1,0.5-0.2,0.8-0.2C22.6,70.1,23.1,70.2,23.1,70.2z"/>
						<path class="st11" d="M39.1,61.3c0.8,0.5,0.6,0.7,1,1.5c0.5,1.2,1.3,2.1,1.7,3.4c0.2,0.6,0.1,1.6,1.1,1.3
							c0.5-0.1-0.3-3.4-0.5-3.8c-0.3-1-0.9-2.2-1.7-2.9c-0.4-0.4-2.1-1-2.6-0.7C37,60.7,38.7,61.1,39.1,61.3z"/>
						<path class="st11" d="M33.9,60.6c-0.8,0.5-0.2,0.7,0.1,1.1c0.2,0.3,0.5,0.3,0.6,0.5c0.1,0.3-0.1,0.7,0,1
							c0.3,0.8,1.6,0.9,2.1,1.7c0.2,0.3,0.3,1,0.4,1.4c-0.9,0-1.4-0.1-2.3-0.3c-0.6-0.2-1.8-0.2-2.4-0.4c-0.2-0.1-0.9-0.2-0.5-0.7
							C32.3,64,32.8,65,33,64c0.2-1-1.4-2-1-2.9c0.2-0.4,1.3-0.7,1.8-0.6c0,0.1,0.1,0.2,0.1,0.3V60.6z"/>
						<path class="st11" d="M44.1,52.8c-1.3,0.7-2.7,1.2-4.1,1.8c-2,0.8-3.8,1.5-5.9,1.3c-0.8-0.1-1.5-1.5-2-0.8
							c0.4,1.6-1.2,2,3.6,5.1c2.4,1.6,4,0.1,7.4-2.5c2-1.5,5.2-2,6.8-4c1-1.3,0.4-2.7-1.3-2.7C46.9,51,45.4,52.1,44.1,52.8z"/>
						<path class="st12" d="M32.3,56.2c-0.6-1.2-0.1-1.8,1-2.5c0.8-0.6,1.7-0.8,2.5-1.3c0.9-0.6,1.4-1.4,2.1-2.1
							c1.3-1.4,2.8-2.4,4.8-2.6c1.9-0.2,3.5,1.4,4.8,2.5c0.6,0.5,1.8,0.6,2.2,1.3c0.6,0.9-1.1,1.7-1.9,2.3C46,55.2,44,56.2,42,57.3
							c-1.4,0.8-2.4,2-4.1,2.2C36.3,59.6,33,57.5,32.3,56.2z"/>
						<path class="st11" d="M41.3,49.9c1-0.2,1,0.1,1.7,0.5c1.2,0.6,2.3,0.7,3.5,1.5c0.5,0.3,1.1,1.2,1.7,0.3
							c0.3-0.4-2.5-2.4-2.8-2.6c-0.9-0.5-2.1-1.2-3.1-1.1c-0.6,0-2.3,0.6-2.5,1.1C39.4,50.8,40.8,50,41.3,49.9z"/>
						<path class="st11" d="M36.9,52.7c-0.3,0.8,0.3,0.7,0.8,0.8c0.3,0.1,0.5-0.1,0.8,0c0.3,0.1,0.4,0.6,0.6,0.7
							c0.8,0.4,1.8-0.3,2.7,0c0.4,0.1,0.9,0.5,1.2,0.8c-0.6,0.6-1.2,0.9-1.9,1.2c-0.6,0.3-1.5,1.1-2.1,1.2c-0.2,0.1-0.8,0.4-0.9-0.3
							c-0.1-0.9,0.9-0.4,0.4-1.3c-0.5-1-2.4-0.6-2.6-1.6c-0.1-0.4,0.6-1.4,1-1.6c0.1,0.1,0.2,0.1,0.3,0.1L36.9,52.7z"/>
						<path class="st7" d="M34.4,65.6c0.4,0.4,1.2,0.6,0.9,1.2c0.8,0.4,2.1,0.2,3,0.3c0.8,0.1,1.7,0.4,2.5,0.3
							c-0.6-1.1-2.8-1.9-4-1.8c0.1,0.1,0.1,0.2,0.2,0.3C36.5,65.9,34.6,65.8,34.4,65.6z"/>
						<path class="st11" d="M22.9,51.4c-0.9,0-0.5,0.4,0,0.6c0.7,0.3,1.4-0.3,2,0.4c-0.2,0.2-0.2,0.4-0.2,0.8c1,0.2,2.1,0.3,3,0.8
							c0.3,0.2,0.7,0.3,0.9,0.5c0.1,0.1-0.1,0.4,0,0.5c0.8,0.7,3.3,0.8,3.9-0.3c1.1-2.1-3.3-3.4-4.7-3.7c-1-0.2-2.1-0.3-3.2-0.3
							c-0.4,0-0.9,0-1.3,0.2C23.4,51,22.8,51.4,22.9,51.4z"/>
						<path class="st11" d="M50.8,79.9c-2.6,1.4-7.7,3.1-9.7,0.1c-1.2-1.8-3.7-4.6-2-6.8c2-2.7,7.3-2,10.1-1.2
							c1.7,0.5,3.5,1.2,5.2,1.8c1.3,0.4,2.7,1.3,2.1,2.9C55.7,78.8,52.4,79,50.8,79.9z"/>
						<path class="st12" d="M41.4,70.5c2.3-0.7,4.7-1.9,6.8-3.2c2.6-1.6,4.4,0,5.4,2.6c0.6,1.6,1.3,2.5,2.3,3.9c0.7,1.1,0.8,1.9,0,3
							c-1.2,1.7-3.9,2-5.8,2.6c-1.6,0.5-4.2,1.6-5.9,1.3c-1.6-0.3-2-0.7-2.7-1.9c-0.9-1.7-2.4-2.5-2.6-4.6
							C38.6,72.5,39.7,71,41.4,70.5z"/>
						<g>
							<path class="st9" d="M34.9,69.9c0.3-0.3,0.5-0.4,0.9-0.6c0.4-0.2,0.8-0.4,1.3-0.5c0.7-0.1,1.3-0.3,2-0.6
								c1.2-0.5,2.6-0.6,3.8-1.1c1.2-0.6,2.8-1,3.8-1.9c0.8-0.7,1.6-1.6,2.3-2.3c0.3-0.3,0.7-0.9,1.1-1c0.2-0.1,0.3-0.1,0.3,0.2
								c0,0.3-0.3,0.4-0.4,0.6c-0.3,0.4-0.5,0.8-0.8,1.1c-0.7,0.8-1.4,1.6-2.2,2.3c-1.5,1.3-3.1,2.4-4.9,3c-1.3,0.5-2.6,0.9-3.9,0.9
								c-0.4,0-0.8,0-1.2,0c-0.2,0-0.5,0.1-0.7,0.1C36,70.2,35,70.3,34.9,69.9"/>
							<path class="st10" d="M37.7,69.4c1.1-0.2,2.2-0.5,3.2-0.9c2-0.7,4.3-1.7,6-3c0.9-0.6,1.7-1.4,2.4-2.2
								c0.5-0.5,0.8-1.1,1.2-1.5c-0.1,0.3-0.1,0.7-0.2,1c-0.2,0.7-0.5,1.4-0.8,2.1c-0.9,1.6-2.3,2.9-3.9,3.7c-1.8,1-3.7,1.9-5.8,2.4
								c-0.9,0.2-2,0.4-2.9,0.2c-0.7-0.2-1.4-0.3-1.9-0.8c-0.5-0.5,0.2-0.6,0.6-0.6C36.3,69.7,37,69.6,37.7,69.4z"/>
						</g>
						<g>
							<path class="st11" d="M23.6,80.7c0.6,0.7,1.3,1.5,2.2,2c1,0.5,2.1,0.7,3.3,0.7c0.8,0,1.8,0.1,2.4-0.4
								c0.4-0.4,0.6-1.1,0.9-1.5c0.5-0.9,1.1-0.9,2.2-0.9c1.1,0,1.9-0.3,2.7-0.9c1-0.8,1.6-2,1.6-3.3c0-1.7-1.8-2.8-3.4-2
								c-2.4,1.2-4.3,2.9-7,3.5c-1.4,0.3-3.2,0.6-4.7,0.2c-0.5-0.1-2.1-1.1-2.2,0C21.5,78.8,23,80.1,23.6,80.7z"/>
							<path class="st12" d="M21.7,78.6c-0.4-0.8-0.9-2,0.3-2.2c1.5-0.2,3.1,1.8,4.3,0c0.8-1.1,0.2-3.1,1.8-3.6
								c0.5-0.1,1-0.1,1.4-0.3c0.8-0.4,1.1-1.1,1.6-1.7c1.1-1.2,4,0,4.8,1c0.9,1.1,2.5,1.4,2.8,3c0.3,1.6-0.6,3.4-2.1,3.9
								c-0.8,0.3-1.8,0.4-2.6,0.4c-1,0-1.8-0.2-2.5,0.6c-0.5,0.6-0.9,1.3-1.5,1.8c-1.3,0.9-3.4,1.6-5,0.8
								C23.7,81.5,22.4,79.9,21.7,78.6z"/>
							<path class="st11" d="M24.4,77.6c0,0.2,0.2,0.3,0.4,0.4c0,0.1,0,0.1,0,0.2c-0.4,0-0.3,0.3,0,0.4c-0.8,0.2,0.2,0.6,0.6,0.6
								c0.5,0,1.1-0.3,1.4-0.7c0.2-0.2,0.5-0.6,0.5-0.9c0-0.8-0.7-0.1-1.1,0C25.6,77.6,25,77.5,24.4,77.6z"/>
							<path class="st11" d="M30.3,72.9c-0.4,0.2-0.8,0.3-0.4,0.6c0.2,0.2,0.7,0.2,0.9,0.3c0.4,0.1,0.6,0.4,0.9,0.6
								c0.7,0.5,1.8,0.8,2.7,0.7c0-0.3-0.3-0.4-0.4-0.7c0.4,0,1.3,0,1.2-0.6c0-0.2-0.2-0.4-0.3-0.6c-0.1-0.5,0.1-0.5-0.4-0.8
								c-0.7-0.5-1.3-0.4-2-0.5c-0.5,0-0.9-0.3-1.3,0C30.9,72.2,30.7,72.7,30.3,72.9z"/>
							<path class="st7" d="M27.5,74.2c-0.3,0.3-0.2,0.7-0.4,1.1c0.4,0,0.3-0.5,0.6-0.5c0,0.1,0,0.3,0,0.4c0.1-0.1,0.2-0.1,0.3-0.2
								c0.1,0.2-0.1,0.4-0.2,0.6c0.2-0.1,0.2-0.5,0.6-0.5c0,0.4-0.3,0.7-0.2,1.1c0.2-0.2,0.2-0.5,0.4-0.7c0.2-0.2,0.7-0.4,1-0.6
								c-0.2-0.1-0.5,0-0.7-0.1c0.1-0.1,0.1-0.2,0.1-0.3c-0.3-0.1-0.6,0-0.8-0.2c0.2,0.1,0.7-0.1,0.4-0.4
								C28.3,73.8,27.7,74,27.5,74.2z"/>
							<path class="st7" d="M30.8,78.2c0.3,0,0.5-0.2,0.7-0.2c0,0.3-0.3,0.4-0.5,0.6c0.3,0,0.4-0.2,0.7-0.2c0,0.2,0.1,0.3,0,0.4
								c0.4,0.1,0.6-0.2,1-0.2c-0.2-0.2-0.4-0.3-0.6-0.4c0.1-0.2,0-0.3-0.2-0.4c1.1,0.2-0.2-0.7-0.9-0.4c0.1,0,0.2,0.2,0.3,0.2
								C31.4,77.6,30.7,78.2,30.8,78.2z"/>
						</g>
						<path class="st9" d="M15,76.3c0.5,0,0.8,0,1.3,0.2c0.6,0.2,1.1,0.4,1.5,0.8c0.8,0.5,1.4,0.9,2.3,1.3c1.5,0.7,2.7,1.8,4.3,2.4
							c1.5,0.6,3.2,1.6,4.9,1.8c1.3,0.1,2.7,0,4.1,0c0.5,0,1.4-0.1,1.8,0.1c0.2,0.1,0.3,0.1,0.1,0.4c-0.2,0.2-0.6,0.1-0.8,0.1
							c-0.6,0-1.1,0.3-1.7,0.3c-1.3,0-2.6,0.2-3.9,0c-2.4-0.3-4.7-0.7-6.9-1.8c-1.5-0.7-3-1.5-4.2-2.7c-0.4-0.3-0.6-0.7-1-1
							c-0.2-0.2-0.5-0.3-0.7-0.5C15.7,77.5,14.7,76.8,15,76.3"/>
						<path class="st10" d="M17.8,78.4c1.1,0.8,2.3,1.5,3.6,2.1c2.4,1.2,5.2,2.3,7.8,2.7c1.3,0.2,2.7,0.3,4,0.3
							c0.8,0,1.6-0.3,2.4-0.2c-0.4,0.1-0.7,0.4-1,0.6c-0.8,0.4-1.7,0.8-2.5,1c-2.2,0.6-4.5,0.4-6.7-0.2c-2.4-0.7-4.9-1.7-7.1-3
							c-1-0.6-2-1.4-2.7-2.4c-0.4-0.7-0.9-1.5-0.9-2.4c0-0.8,0.6-0.3,1,0C16.4,77.4,17,77.9,17.8,78.4z"/>
						<path class="st7" d="M37.4,51.6c0.8,0.2,1.4-0.8,2.3-0.8c-0.2,0.3-0.5,0.5-0.7,0.8c0.4,0,0.7-0.2,0.9-0.4
							c-0.1,0.2-0.1,0.5-0.3,0.8c0.9,0,1-1,2.1-0.8c-0.1,0.3-0.1,0.6-0.1,0.9c0.5,0,1.5-0.7,1.5-1.3c-0.2,0.1-0.5,0.2-0.7,0.3
							c0.1-0.3-0.1-0.6,0-0.9c-0.5-0.1-1,0-1.3,0.3c0-0.3,0.2-0.6,0.5-0.8c-0.5-0.1-0.9,0.3-1.3,0.5c0.3-0.1,0.8-0.7,0.6-1.1
							c-0.2-0.3-1,0.2-1.3,0.3C38.9,50,37.8,50.8,37.4,51.6z"/>
						<path class="st11" d="M41.3,75.4c0.3,0.3,0.2,0.9,0.3,1.3c0.2,0,0.4,0.1,0.6,0.1c0,1,0.4,2.9,1.9,2.5
							c-0.1-0.6-0.5-1.2-0.6-1.9c-0.1-1,0.5-1,0.6-1.8c0.1-1-0.7-1.6-0.4-2.7c0.2-0.8,0.6-2-0.7-1.9c-0.8,0-1.8,1.2-2.2,1.8
							c-0.3,0.5-0.7,1.1-0.5,1.7C40.4,75.2,40.9,74.9,41.3,75.4z"/>
						<path class="st11" d="M50.3,70.8c0.4,1.3,2.3,2,2.6,3.2c0.1,0.2-0.1,1-0.1,1.3c-0.6,0-2.8,0.4-2.4,1.6
							c0.3,0.8,2.3,0.5,2.9,0.3c1.4-0.4,3.2-1.3,2.3-2.8c-0.7-1.3-1.7-2.5-2.4-3.9c-0.5-1-1.5-1.6-2.7-1.4
							C49.3,69.3,48.5,71,50.3,70.8z"/>
						<path class="st7" d="M42.6,71.7c0.2,0,0.6,0.1,0.8,0c-0.1,0.3-0.2,0.7-0.3,1c0.2,0,0.5,0.1,0.7,0c-0.1,0.5-0.3,0.9-0.3,1.4
							c0,0.4,0.4,0.7,0.3,1.2c1,0.1,1.5-0.3,2.4-0.4c-0.7,0.1-1.4-0.2-1.7-0.8c0.7-0.4,0.5-0.6,0.5-1.2c0-0.1,0-0.9-0.1-1.1
							c0-0.1-0.6,0.1-0.6-0.1c0-0.4,0.3-0.2,0.4-0.4c0.1-0.3,0.3-0.6,0.4-1c-0.4,0-1,0-1.4,0.2C43.3,70.9,42.7,71.7,42.6,71.7z"/>
						<path class="st13" d="M37.9,69.7c0.8,0.2,1.5-0.2,2.3-0.4c0.8-0.2,1.6-0.5,2.4-0.8c0.5-0.1,0.9-0.2,1.3-0.3
							c0.4-0.1,0.7-0.4,1.1-0.4c-1.2,1-2.7,1.7-4.3,2c-0.8,0.1-1.9,0.4-2.6,0H37.9z"/>
						<path class="st9" d="M26.6,59.8c0.2-0.6-0.2-1.4,0.2-2.1c0.7-1,1.9-1,3-1.2c2.3-0.4,4.2-2.4,6.5-2.9c0.7-0.2,1.8-0.3,2.5-0.1
							c1.5,0.6,0.2,2.1-0.8,2.6c-2.5,1.3-5.6,2.1-8.3,3C28.6,59.5,27.6,59.8,26.6,59.8"/>
						<path class="st10" d="M34.7,55.7c0.7-0.3,1.4-0.7,2.1-1c0.6-0.3,1.4-1,2.1-1.1c1.4-0.2,1.5,1.2,0.8,2.1
							c-0.8,1-2.5,1.8-3.5,2.5c-0.9,0.6-1.9,1.5-2.9,1.8c-1.3,0.3-6.5,1.8-6.8-0.5c-0.2-1.4,2.1-1.9,3-2.1
							C31.2,57.1,33,56.5,34.7,55.7z"/>
						<path class="st13" d="M28.5,58.3c0.6,0.3,1.5-0.3,2.1-0.4c0.7-0.2,1.4-0.3,2.1-0.6c0.5-0.3,0.9-0.3,1.5-0.4
							c0.2,0,0.6-0.1,0.8-0.3c-0.5,0.3-1.1,0.7-1.7,1C32.6,58,31.7,58,31,58.2C30.4,58.4,29,58.9,28.5,58.3L28.5,58.3z"/>
						<path class="st13" d="M28.4,59.4c1,0,2,0,3-0.1c0.6-0.1,1.2-0.2,1.8-0.2c-0.7,0.5-1.6,0.5-2.4,0.6
							C30,59.8,29.2,59.9,28.4,59.4L28.4,59.4z"/>
						<path class="st7" d="M21.1,57.1c0.2,0.1,0.5,0.3,0.7,0.4c-0.4,0-0.8,0.1-1,0.4c0.3,0.1,0.6,0.2,0.9,0.2
							c-0.3,0-0.7,0.1-1.1,0.2c0.9,0.4,2.4-0.1,3.4,0.2c-0.2-0.2-0.2-0.4-0.3-0.6c0.1,0.1,1.1-0.1,1.2-0.1C24,57,22.2,57,21.1,57.1z
							"/>
						<path class="st13" d="M17.7,79.3c0.8,1.2,2.9,1.8,4.1,2.3c1,0.4,1.9,1.2,2.9,1.5c-0.2,0.1-0.5,0-0.7,0
							c-0.5-1.1-2.8-1.4-3.9-1.7c-0.8-0.3-1.5-1.2-2.2-1.3c0-0.2-0.1-0.5,0-0.7L17.7,79.3z"/>
						<path class="st13" d="M26,83.6c1.7,1.1,4,0.5,5.8,0.6c-0.8,0.6-2.5,0.3-3.5,0.3c-0.9,0-1.6,0-2.1-0.7L26,83.6z"/>
					</g>
				</g>
			</g>
		</g>
		<g>
			<path class="st14" d="M32.2,38.4c0.2,0,0.3,0,0.4,0c0.2,0,1,0.1,1.2,0.1c0.7,0,4.3-0.4,5-0.6l2.9-0.6l0.4,0l4.2-0.6l0.7-0.1
				c0-0.4,0-2.4,0.1-2.7c0.1-0.8,0.1-0.9,0-1.3c-0.1,0-0.6,0.1-0.8,0.1c-1.1,0-2,0-2.8-0.4c-1-0.6-1.1-0.6-1.9-0.8
				c-0.2,0.3-2.3,2.6-2.4,2.6c0,0-0.1,0-0.1,0.1c-0.3,0.3-0.9,0.9-1.4,1.1c-0.1,0-0.6,0.1-0.7,0.1c-0.1,0.1-0.6,0.4-0.7,0.4
				c-0.5,0-0.6-0.1-1.1-0.3l0.1-0.3c0.7-0.5,1.1-1.4,1.1-1.5c0.1-0.2,1.1-2.1,1.1-2.2l1.1-3.1c0.1-0.4,0.9-3.1,0.9-4.1
				c0-0.2,0-0.5-0.5-0.8c-0.8-0.4-0.9-0.5-1-0.9c0.5-0.4,0.5-0.4,0.8-0.4l0.2-0.1c0.2,0,1.1,0,1.3,0c0.5,0,0.6,0.1,1.5,1
				c0.2,0.2,1.2,0.8,1.4,1c0.5,0.8,1.5,2.1,1.5,2.3c0,0.6-0.1,0.6-0.5,1c-0.1,0.1-0.4,0.7-0.5,0.7c-0.1,0.2-0.8,0.9-0.9,1.1
				c0,0.1-0.1,0.2-0.2,0.3l0.1,0.1h0.8l3.4-0.8l0.1-0.1l0-0.2l0-5v-1c0-0.1-0.1-0.9-0.1-1c0-1.3,0-1.5-0.2-1.6
				c-0.1-0.1-0.6-0.6-0.7-0.7c-0.1-0.1-0.3-0.6-0.3-0.6c-0.2-0.2-0.5-0.4-0.6-0.5l-0.1-0.3l0.3,0c0.1,0,0.3-0.1,0.3-0.1
				c0.4,0,1.3,0,1.8-0.2c0.1,0,0.6-0.3,0.7-0.3c0.4,0,2,1.5,2.4,1.7c0.5,0.4,0.6,0.4,1,1c0.1,0.2,0.9,0.9,1,1c0,0.1,0.2,0.4,0.3,0.6
				c0,1.3,0,1.3-0.8,1.8c-0.2,0.1-0.3,1.3-0.3,2.1c0,0.4-0.1,1.9-0.1,2.2c0.8-0.1,1.4-0.6,1.9-1.3c0.2,0,1.2-0.3,1.3-0.3
				c0.1,0,0.4,0,0.4,0c0.3,0.2,0.4,0.3,1.1,0.5c1,0.3,1.7,0.7,2.1,1l0.4,0.9c0,0.2,0,0.3,0,0.4c0,0.1,0.1,0.3,0.1,0.4
				c0,0.1-0.4,0.6-0.9,0.7c-0.3,0.4-0.9,0.5-1.3,0.6c-0.3,0.1-1.6,0.4-1.8,0.4c-1,0-1.2,0-2.4,0.4c-0.1,0-0.7,0.1-0.8,0.2l-0.1,0.2
				l-0.1,3.2V36l4.3-0.1l0.7,0.1c0.7,0,2.1,0,2.9-0.3h0.5c0,0,1.1-0.6,1.3-0.6c0.3,0,1.2,0.5,1.7,1.3c0.4,0.3,0.5,0.3,0.7,0.6
				c0.9,0.4,1.7,1.6,1.7,1.8c0,0.7-0.1,0.7-0.4,1.3c-0.1,0.1-0.6,0.4-0.7,0.5c-0.2,0.1-1,0.1-1.1,0.1c-0.1,0-1.3-0.3-2-0.5
				c-0.2,0-1.1-0.1-1.2-0.1c-0.4,0-2-0.4-2.3-0.4c-1.1-0.2-2.2-0.3-3.3-0.2l-2.6,0.2c-0.1,0-0.2,0.4-0.2,0.4l-0.1,3.1
				c0,0.8-0.1,2.4-0.2,3.9c0,0.2-0.3,1.3-0.3,1.5c0,0.8,0,0.9-0.3,2.1c-0.1,0.2-0.5,0.9-0.6,1.1c-0.3,0.8-0.3,0.8-0.9,1.1
				c-0.1,0.2-0.2,0.4-0.4,0.4c-0.2,0-0.3-0.2-0.5-0.7l0-0.3l-0.6-3.1l-0.2-2l0-3.5c0-0.2-0.1-0.8-0.1-0.9c0-0.3,0-2.3,0-2.6
				c-0.4,0-1.9,0.4-2.2,0.5c-0.1,0-0.5,0.2-0.6,0.3l-2.5,0.7c-0.2,0.1-1.2,0.4-1.4,0.5c-0.2,0-1,0.5-1.2,0.5c-0.1,0-0.5,0.2-0.6,0.2
				c-0.2,0-2.1-0.6-2.5-1.1c-0.6-0.1-0.8-0.2-2.1-1.2c-0.2-0.1-1-0.5-1.1-0.6c-0.1-0.1-0.5-0.8-0.6-1V38.4z"/>
			<path class="st14" d="M32.3,75.6c0.3,0.2,0.4,0.2,0.7,0.3c0.7-0.3,0.8-0.3,1.8-0.3c0.5,0,2.7-0.4,3-0.4l3.7-0.4l0.4-0.1l0.1-0.6
				l0.2-4.9l-0.1-0.9c-0.3,0.2-0.5,0.2-0.6,0.2c-0.1,0-1.9-0.6-2.9-1.2c-0.2-0.2-2-1.8-2.1-1.8c0-0.1,0-0.2,0-0.2
				c0-0.1,0.2-0.6,0.2-0.7l0.7,0.1c0.2,0.4,1.6,0.4,1.7,0.4c0.3,0,2.8-0.4,2.8-0.4l0.1-0.1v-0.5L42,60.6c0-0.5,0-0.6-0.2-0.7l0-0.2
				c-0.3-0.5-0.4-0.5-1.2-0.7c-0.1,0-0.6-0.4-0.7-0.4L39.5,58c0.3,0,1.3-0.4,1.6-0.4c0.2,0,0.4,0,0.5-0.1c0.4,0,0.5-0.1,0.7-0.2
				c0.7,0.1,0.8,0.2,1.4,0.7c0.2,0.1,1.2,0.6,1.3,0.7c0.2,0.2,1.2,1,1.2,1.6c0,0.1,0,0.2-0.1,0.4c-0.5,0.6-0.5,2.1-0.4,3.3l0,0
				l3.6-0.6l3.1-0.3v-0.3l0-3.3c0-0.5,0-1.4,0-1.8c-0.1-0.1-0.7-0.7-0.8-0.8c-0.4-0.1-0.5-0.2-1.3-1.2c0.1-0.1,0.1-0.1,0.2-0.1
				c0.4,0,0.5,0,1-0.3l0.8-0.1c0.2,0.1,0.3,0.1,1.1,0.3c0.1,0,0.5,0.3,0.6,0.3c0.2,0.1,1.1,0.5,1.3,0.6c0.5,0.3,1,0.8,1.2,1
				c0.3,0.4,0.3,0.4,0.5,0.6l0.1,0.7c-0.1,0.3-0.4,1.7-0.5,2c-0.1,0.5-0.1,0.6-0.1,0.9l0.3,0.1l0.2-0.3l0.8,0
				c0.4,0.4,2.5,1.5,2.9,1.8c0.2,0.1,0.5,0.5,0.5,0.7c0,0.3-0.1,1.2-0.6,1.4c-1,0.6-1.7,0.6-1.9,0.6c-0.2,0-1-0.1-1-0.1
				c-0.3,0-0.9,0-0.9,0.2l-0.2,3.2v1l-0.2,3.1l0.2,0.1c0.2,0,1.8-0.2,1.8-0.2c0.1,0,0.6,0.1,0.7,0.1c0.1,0,0.2,0,0.4-0.3
				c0.2-0.1,0.4-0.2,0.8-0.2c0.4,0,2.3,0.5,3.3,2.1c0.1,0.2,0.8,1,0.9,1.2c0.1,0.2,0.1,0.4,0.1,0.7c-0.4,0.5-1.4,0.9-1.6,0.9
				c-0.1,0-0.9-0.1-1-0.1c-0.1,0-0.5,0.1-0.5,0.1l-2.8-0.7c-0.1,0-1.7-0.2-1.8-0.2c-0.2,0-0.2,0-0.3,0.7c0,0.3-0.1,1.9-0.2,2.2
				c0,0.1-0.1,1-0.1,1c0,1.3-0.2,2.6-0.6,4L55.1,88c0,0.1-0.8,1.5-1.1,1.5c-0.2,0-0.4-0.7-0.5-0.9c-0.3-0.6-0.3-1.2-0.3-1.4
				c0-0.3-0.2-1.6-0.2-1.8l-0.2-3.3V82l-0.2-3.2l-0.1-1.6l-0.3-0.1l-2.8,0c-0.1,0-0.9,0.1-1,0.1c-0.3,0-1.5,0.3-1.8,0.3
				c-1,0-1.2,0-1.2,0.6c-0.5,3.2-3.6,8.9-9,8.9c-0.3,0-0.6-0.1-0.8-0.3c0.4-0.1,1.4-0.6,2.2-1.4c0.2-0.2,1.1-1.4,1.4-1.6
				c0.2-0.4,1.6-2.2,1.8-2.6c0.2-0.5,0.6-1.8,0.7-2.7c-0.5,0-0.7,0-1.6,0.7c-0.3,0.1-1.2,0.5-1.4,0.5c-0.3,0-0.8-0.1-1.1-0.3l-2.4-1
				c-0.3-0.1-1-0.4-1.8-1.1c-0.3-0.3-0.4-0.3-0.6-0.4c-0.1-0.4-0.2-0.5-0.5-0.9L32.3,75.6z M49.4,74.3c0.2,0,3-0.2,3.2-0.2l0-1.1
				l0.1-4.1l-0.1-2.1l-0.2-0.1L48.9,67c-0.1,0-0.6,0-0.7,0c-0.9,0-1.8,0.1-2.5,0.4v0.5c0.3,0,1.4,0.4,1.6,0.4
				c0.7,0.1,2.4,0.7,3.2,1.7c0.3,0.3,0.5,1,0.5,1.1c0,0.1-0.2,1.4-0.3,1.6c-0.1,0.1-0.6,0.5-0.7,0.6c-0.3,0.2-0.5,0.2-0.6,0.2
				c-0.5,0-1.6-0.4-2.4-2.2l-1-2.2c-0.1-0.3-0.2-0.3-0.4-0.3l-0.2,4c0,0.2-0.2,1.3-0.2,1.5c0,0.1,0,0.1,0.1,0.2L49.4,74.3z"/>
		</g>
		<g>
			<path class="st7" d="M8.6,18.9c0-0.1,0-0.4,0-0.4c0,0,0-0.2,0-0.2c-0.1-0.1-0.1-0.2-0.2-0.2c0-0.1,0-0.1-0.1-0.2c0,0,0-0.1,0-0.1
				l0,0l0,0c0,0,0.1,0,0.2,0c0,0,0.1-0.1,0.1-0.1c0.1,0,0.1,0,0.1,0c0,0,0.1,0,0.2,0.1c0,0,0.6,0.6,0.7,0.7c0,0.1,0,0.2,0,0.2
				c0,0.1,0,0.1,0,0.1c0,0-0.1,0.2-0.1,0.2c0,0,0,0.1,0,0.2c0,0,0,0.2,0,0.3c0,0.1,0,0.3,0,0.4c0,0,0,0.1,0,0.1l0,0.1
				c0,0,0.1-0.1,0.2-0.1c0.2,0,0.5,0.3,0.5,0.6c0,0-0.2,0.2-0.2,0.2h0c0,0-0.5,0.2-0.5,0.3v0c0,0.1,0,0.3,0,0.4l0,0l0,0
				c0,0,0.1,0,0.1,0h0.1c0.1,0,0.3-0.1,0.4-0.1l0.6-0.1l0.3-0.1c0-0.1,0-0.1,0-0.2c0-0.2,0-0.4,0-0.5l0,0c-0.1,0-0.2,0-0.2,0
				c-0.1,0-0.3-0.1-0.4-0.3c0,0-0.2-0.1-0.2-0.1c0,0-0.2-0.2-0.2-0.2c-0.1,0-0.1,0-0.1-0.1c0,0,0.2,0,0.2,0c0.3,0,0.4,0,0.8-0.1
				c0.1,0,0.1,0,0.1-0.3l0-0.8c0-0.5,0-0.5-0.1-0.6c0,0-0.2-0.2-0.2-0.2l0-0.1l-0.1,0l0-0.1c0.1,0,0.1,0,0.1-0.1c0,0,0.1,0,0.1,0
				c0,0,0.1,0,0.1,0c0,0,0.1-0.1,0.2-0.1c0.1,0,0.2,0.1,0.4,0.3c0,0,0.2,0.1,0.2,0.1c0,0,0.1,0.1,0.1,0.1h0c0,0,0.1,0.1,0.1,0.1
				c0.1,0.1,0.1,0.2,0.1,0.3v0c0,0.2-0.1,0.2-0.1,0.3c0,0,0,0.3,0,0.3c0,0.3,0,0.3,0.1,0.3c0.2,0,0.3-0.1,0.4-0.1c0,0,0,0,0.1,0
				c0,0,0.4,0.1,0.4,0.1c0.2,0.1,0.2,0.2,0.2,0.4c0,0.1,0,0.2-0.1,0.3c-0.1,0.1-0.5,0.1-0.5,0.1c-0.2,0-0.4,0-0.6,0.1l0,0l-0.1,0.8
				l0.7-0.1c0.1,0,0.1,0,0.1-0.1l0.1,0c0-0.1,0-0.1,0.1-0.1c0,0,0.2,0,0.2,0c0,0,0.1,0.1,0.1,0.1l0.1,0.1c0,0,0.1,0,0.1,0l0,0
				c0.1,0.1,0.1,0.1,0.1,0.1l0,0c0,0,0.1,0,0.1,0l0,0c0,0.1,0.1,0.1,0.1,0.2l0,0c0,0.1,0,0.1,0,0.2c0,0.3-0.2,0.3-0.4,0.3l-0.8,0
				c-0.2,0-0.2,0-0.3,0c0,0,0,0,0,0.1c0.1,0.1,0.3,0.2,0.3,0.3c0,0.1,0,0.1,0.2,0.2c0.1,0,0.1,0,0.2,0c0,0,0.1,0,0.1,0
				c0.1,0,0.5,0.1,0.5,0.7c0,0.2-0.2,0.3-0.2,0.3c-0.1,0-0.3,0-0.4,0c0,0-0.2,0.1-0.2,0.1c0,0,0,0.1,0,0.1c0,0,0,0.1,0,0.1v0.9
				l0,0.8c0,0,0,0.2,0,0.2c0,0-0.1,0.2-0.1,0.3c0,0-0.2,0.3-0.2,0.4c-0.1,0.1-0.1,0.1-0.2,0.2c0,0-0.2,0.1-0.2,0.1
				c0,0-0.2-0.2-0.2-0.2c-0.1-0.2-0.1-0.4-0.2-0.5c-0.1-0.1-0.4-0.6-0.6-0.6c0,0-0.2,0.1-0.3,0.1c0,0-0.1,0-0.1,0
				c-0.1,0-0.2-0.2-0.2-0.2c0-0.1-0.3-0.5-0.3-0.5C10,24.1,9.9,24,9.7,23.8c0,0-0.1-0.1-0.1-0.1c0-0.1,0-0.1,0-0.1l0,0
				c0,0,0.1,0,0.1,0c0.3,0,1,0.3,1.1,0.4c0,0.1,0,0.1,0.1,0.2c0,0.1,0.1,0.3,0.1,0.3c0,0.1,0.1,0.2,0.1,0.3c0,0,0,0.1,0,0.2
				c0,0,0,0,0.1,0c0.1,0,0.5-0.1,0.6-0.1l0,0l0-0.9c0-0.1,0-0.6,0-0.7c0,0,0-0.1,0-0.1c0,0-0.1,0-0.1,0c-0.1,0-0.2,0-0.3,0
				c-0.1,0-0.6,0.2-0.8,0.2c0,0.1-0.1,0.2-0.2,0.2c0,0,0,0-0.2-0.1c0,0-0.1,0-0.1,0C10,23.3,9.6,23,9.5,23c0-0.1,0-0.1-0.1-0.1
				c0,0,0,0.1,0,0.1c0,0.1,0,0.1,0,0.1l0,0.1l0,0.8c0,0.1,0,0.3,0,0.4c0,0.1,0,0.4,0,0.5c0,0.1,0,0.3,0,0.4c0,0.2-0.1,0.5-0.1,0.6
				C9.3,25.9,9.1,26,9,26c0,0-0.2,0-0.2-0.1c0,0-0.4-0.5-0.4-0.7c0-0.3,0-0.3,0-0.4c0-0.1,0-0.1,0-0.2c0,0,0-0.1,0-0.1
				c0.1,0,0.1,0,0.1-0.1c0-0.2,0.1-0.4,0-0.5l0-0.8l0,0l-0.1,0.1L8,23.8c-0.1,0.1-0.3,0.3-0.4,0.4c0,0-0.1,0.1-0.1,0.2
				c0,0-0.1,0.1-0.1,0.1c-0.2,0-0.3-0.1-0.4-0.3c-0.1-0.1-0.3-0.4-0.3-0.5c0,0,0.1-0.4,0.1-0.5c0,0,0-0.2,0-0.2c0-0.1,0-0.1,0-0.1
				l0,0C7,23,7,23,7.2,23.1c0,0,0.1,0.1,0.1,0.1c0,0,0.2-0.1,0.2-0.1c0,0,0,0,0.1,0l0.6-0.5c0.1,0,0.3-0.3,0.4-0.4
				c0,0,0.1-0.1,0.1-0.2c0-0.1,0-0.5,0-0.6c0,0,0,0,0-0.1c0,0-0.2,0.1-0.3,0.1c-0.1,0-0.4-0.2-0.4-0.2c0,0,0,0.1-0.1,0.1
				c-0.1,0.1-0.3,0.4-0.4,0.4c-0.1,0-0.2,0.2-0.3,0.2c-0.1,0-0.3,0.1-0.4,0.2c0,0,0,0-0.1,0c-0.1,0-0.1,0-0.1-0.1
				c0-0.1,0.2-0.3,0.2-0.4c0.2-0.4,0.4-0.9,0.5-1.4c0-0.1,0.1-0.6,0.1-0.7c0-0.1,0-0.1-0.1-0.3c0,0-0.1-0.1-0.1-0.2c0,0,0,0,0.1,0
				c0,0.1,0.1,0.1,0.1,0.1c0.1,0,0.5,0.2,0.6,0.3c0.2,0.1,0.3,0.2,0.3,0.4c0,0.2,0,0.4-0.1,0.4c-0.1,0.3-0.1,0.3-0.1,0.4
				c0,0,0.1-0.1,0.1-0.1c0,0,0.3-0.1,0.3-0.1c0,0,0,0,0-0.2L8.6,18.9z M11.7,22.3c0-0.3,0-0.3-0.1-0.4c0,0-0.1-0.2-0.1-0.2
				c0,0-0.5,0.1-0.6,0.1c0,0-0.5,0.2-0.5,0.2c0,0-0.1,0-0.2,0c-0.1,0-0.4-0.2-0.5-0.2c0,0-0.1-0.1-0.2-0.1c0,0-0.1,0.2-0.1,0.2
				c0,0-0.1,0.2-0.1,0.2c0,0,0,0.1,0,0.1c0,0.5,0,0.5,0.1,0.5c0.1,0,0.5-0.1,0.6-0.1c0,0,0.3,0,0.3,0c0.3-0.1,1.2-0.3,1.3-0.3
				C11.6,22.3,11.7,22.3,11.7,22.3L11.7,22.3z"/>
			<path class="st7" d="M15.7,24.9c0.1,0.1,0.1,0.1,0.4,0.1c0-0.2,0-0.4,0-0.5C16,24.6,15.5,25,15.4,25c-0.4,0.2-0.7,0.3-1,0.3
				c0,0-0.2,0-0.2-0.1c0,0,0,0,0-0.1c0,0,0.2-0.1,0.2-0.1l0.5-0.5c0.1-0.1,0.3-0.3,0.5-0.4c0.1-0.1,0.2-0.2,0.3-0.2l0.5-0.6l0.2-0.2
				c-0.1,0-0.4,0.1-0.5,0.1c-0.1,0-0.1,0-0.2,0c0,0-0.8-0.4-0.9-0.5c-0.1-0.1-0.2-0.2-0.2-0.2v0c0,0,0.2,0,0.2,0
				c0.1,0,0.6-0.1,0.7-0.2c-0.1-0.1-0.2-0.1-0.2-0.2c0,0-0.2-0.3-0.2-0.4c0,0,0-0.2,0-0.2c0,0,0-0.2,0-0.3c0-0.2,0-0.3-0.3-0.5v0
				c0,0,0.1,0,0.1,0c0,0,0.2,0,0.2,0c0.1,0,0.2-0.1,0.3-0.1c0.3,0,0.7-0.1,0.7-0.1c0.1,0,0-0.2,0-0.3l-0.2,0l-0.6,0.2
				c0,0-0.2,0-0.2,0c-0.1,0-0.5-0.3-0.5-0.3c0,0-0.2-0.1-0.2-0.2v0l0.3-0.1c0,0,0.3,0,0.3,0l0.8-0.1c0.1,0,0.3,0,0.3-0.1
				c0,0,0-0.1,0-0.3c-0.1,0-0.1,0-0.1,0c-0.2,0-0.2,0-0.4-0.1c-0.2-0.1-0.2-0.2-0.3-0.2c-0.1,0.1-0.3,0.4-0.4,0.4
				c-0.1,0-0.4,0.2-0.5,0.2c0,0,0,0,0,0c0-0.1,0.2-0.3,0.3-0.4c0-0.1,0.1-0.4,0.1-0.4c0,0,0-0.1,0-0.1V19c0,0,0-0.2,0.1-0.2
				c0,0,0-0.1,0-0.1c0-0.1,0.1-0.3,0.1-0.4c0,0,0-0.1-0.1-0.1l0,0c-0.1,0-0.1-0.1-0.1-0.1c0.1,0,0.1,0,0.3,0c0.1,0,0.1,0,0.4,0.2
				c0.1,0,0.3,0.1,0.3,0.4c0,0-0.1,0.4-0.1,0.5c0.1,0,0.5-0.1,0.5-0.1l0-1c0-0.1,0-0.1-0.1-0.1c0,0-0.2-0.1-0.2-0.2l0,0
				c0.1,0,0.2-0.1,0.2-0.1c0,0,0.1-0.1,0.1-0.1c0.1,0,0.3,0,0.3,0c0.2,0.1,0.2,0.2,0.3,0.3c0.1,0.1,0.4,0.2,0.4,0.4c0,0,0,0.1,0,0.1
				c0,0-0.1,0.2-0.1,0.2c0,0.1,0,0.2,0,0.3c0.1,0,0.2,0,0.3-0.1c0,0,0.1,0,0.1,0c0,0,0.1,0,0.1,0c0.2,0,0.5,0.2,0.5,0.3
				c0,0.2-0.2,0.4-0.3,0.4c-0.1,0.1-0.7,0.2-0.7,0.2c0,0,0,0.2-0.1,0.3c0,0,0,0,0,0c0,0,0.1,0,0.1,0c0,0,0.2-0.1,0.2-0.1
				c0.1-0.1,0.1-0.1,0.2-0.1c0.2,0,0.2,0,0.4,0.1c0.2,0.1,0.2,0.1,0.3,0.3l0-0.1v-0.6c0-0.2,0-0.8,0-0.8c0-0.1-0.1-0.2-0.2-0.3
				l0-0.1c0.2,0,0.2,0,0.3,0l0.3,0.2c0.1,0.1,0.1,0.1,0.2,0.2c0,0,0.2,0.2,0.2,0.2c0,0,0,0,0,0c0,0.1,0,0.2,0,0.2l0,0.8
				c0,0,0,0.3,0,0.3c0,0,0,0.2,0,0.3c0,0.1,0,0.6,0,0.7c0.1,0,0.3-0.1,0.4-0.1l0-0.3l0-1.8c0-0.1,0-0.4,0-0.5c0,0,0-0.1-0.1-0.2
				c0,0-0.1-0.1-0.1-0.2c0,0-0.1,0-0.1,0c0,0-0.1-0.1-0.1-0.1v0c0,0,0.2-0.1,0.2-0.1c0.1,0,0.4,0,0.6,0.3c0,0,0.1,0.1,0.2,0.1
				c0.1,0.1,0.3,0.3,0.3,0.5c-0.1,0.2-0.1,0.5-0.1,0.5l0,0.8l0,0.9c0,0.5-0.1,0.9-0.3,1.1c-0.1,0.2-0.1,0.2-0.2,0.2
				c-0.3,0-0.3-0.2-0.4-0.4c-0.1-0.2-0.2-0.3-0.2-0.4c-0.1-0.1-0.2-0.1-0.2-0.2c-0.1,0-0.1,0-0.1,0l0,0c0,0,0,0-0.1,0
				c-0.1-0.1-0.2-0.3-0.3-0.8c0-0.1,0-0.1,0-0.2c-0.1,0.2-0.1,0.3-0.2,0.3c-0.1,0-0.4,0-0.4,0l-0.6,0c0,0-0.1,0.1-0.1,0.2
				c0,0,0,0.1,0,0.1c0.1,0,0.5-0.1,0.5-0.1c0.1,0,0.3,0.1,0.3,0.1c0.1,0.1,0.3,0.3,0.3,0.4c0,0,0,0.1,0,0.1c0,0,0,0,0,0.1
				c-0.1,0.2-0.1,0.2-0.1,0.2c0.1,0,0.3,0.2,0.3,0.3c0.1,0.1,0.1,0.1,0.1,0.2c0,0.1,0,0.2,0,0.3c0.1,0,0.6,0,0.7,0
				c0.1,0,0.2,0,0.2-0.1c0,0,0.2-0.1,0.2-0.1c0,0,0.3,0,0.3,0c0.1,0.1,0.4,0.4,0.4,0.5c0,0,0,0,0,0.1c0,0.1,0,0.1,0,0.2
				c0,0-0.1,0.2-0.1,0.3l-0.2,0l-0.6-0.2h0c0,0,0.2,0.3,0.2,0.3c0,0,0,0.1-0.1,0.2l0,0c0,0,0,0-0.1,0.1l-0.6,0.3l0.2,0.2l1.1,0.9
				l0.4,0.3l0.6,0.4c0,0,0.2,0.1,0.2,0.1c0,0,0,0,0,0c0,0-0.1,0.1-0.2,0.1c0,0-0.7,0.2-0.8,0.2c-0.1,0-0.4,0-0.5,0
				c0,0-0.3-0.1-0.5-0.3l-0.5-0.5c-0.1-0.1-0.3-0.5-0.4-0.5c0,0-0.2,0.2-0.3,0.2c0,0-0.2,0.1-0.2,0.1c-0.1,0-0.3,0.2-0.3,0.3
				c-0.3,0.2-0.3,0.2-0.4,0.3c0,0.1-0.1,0.4-0.4,0.4c0,0-0.1,0-0.1,0c-0.3-0.1-0.7-0.5-0.7-0.6c0-0.1,0-0.1,0-0.2
				c0-0.1-0.1-0.1-0.1-0.1C15.7,25.1,15.7,25,15.7,24.9L15.7,24.9z M17.3,22.3c0.1,0,0.1,0,0.2-0.1l0-0.2c-0.1,0-0.1,0-0.1,0
				c-0.2,0-0.4-0.2-0.4-0.3c0,0,0.1-0.1,0.1-0.1c0,0,0.1-0.2,0.1-0.2c0-0.1,0-0.1,0.1-0.4c0,0,0,0,0,0c-0.1,0-0.2,0-0.2,0
				c-0.1,0-0.1,0-0.1,0.1c0,0.3,0,0.5-0.1,0.7c-0.1,0.2-0.1,0.3-0.2,0.4c0,0-0.3-0.2-0.3-0.2c0,0-0.1-0.2-0.1-0.2c0-0.1,0-0.3,0-0.4
				c0-0.1,0-0.2,0-0.2c0,0-0.1,0-0.1,0c0,0-0.1,0-0.1,0c0,0.9-0.1,1-0.1,1.1v0c0,0,0.7-0.1,0.9-0.1L17.3,22.3z M16.9,24.7l0.5-0.2
				c0,0,0.4-0.2,0.4-0.2c0,0-0.4-0.4-0.4-0.5c0-0.1-0.2-0.3-0.2-0.4C17,23.6,17,23.6,17,23.7l-0.1,0.1c0,0.1,0,0.1,0,0.1
				C16.9,24.1,16.9,24.4,16.9,24.7L16.9,24.7L16.9,24.7z M17.6,23c0,0.1,0.2,0.3,0.3,0.4c0,0,0.5-0.3,0.5-0.3
				c0.1-0.1,0.2-0.1,0.2-0.2l0,0c-0.1,0-0.3,0-0.4,0C18,22.8,17.8,22.9,17.6,23L17.6,23L17.6,23z"/>
			<path class="st7" d="M23.8,24.5l0.6-0.3c0.2-0.1,0.7-0.5,0.8-0.7l0.4-0.4c0.2-0.2,0.6-0.8,0.7-1l0.2-0.5c0.1-0.3,0.2-0.7,0.2-0.7
				c0-0.2,0-0.4-0.1-0.6c-0.1-0.2-0.6-0.3-0.7-0.3c0,0-0.3,0-0.3,0l-0.8,0.2l-0.2,0.1l-0.6,0.2c0,0-0.2,0.1-0.2,0.1
				c-0.1,0-0.5,0.2-0.5,0.2c-0.2,0-0.5-0.1-0.7-0.3c-0.2-0.1-0.7-0.6-0.7-0.7c0-0.1,0.1-0.2,0.2-0.2c0,0,0.3,0,0.4,0
				c0.3,0,1.7-0.4,2-0.5c0.2,0,1.1-0.3,1.3-0.3c0.8,0,1.2,0.3,1.4,0.5c0.4,0.4,0.6,0.9,0.6,1.6c0,0.2-0.1,0.8-0.1,1l-0.3,0.7
				l-0.2,0.4l-0.5,0.6l0,0l-0.5,0.5c-0.2,0.2-0.7,0.4-1,0.5c-0.4,0.1-0.5,0.1-1,0.1c0,0-0.4-0.1-0.4-0.1c0,0,0-0.1,0-0.1L23.8,24.5z
				"/>
			<path class="st7" d="M30.2,20.9l0.6-0.4c0.1-0.1,0.5-0.2,0.5-0.3c0,0,0.1-0.6,0.2-0.7c0.1-0.2,0.1-0.2,0.1-0.3l0.1,0.1
				c0,0,0,0.1,0,0.1c0,0.1,0,0.3,0,0.4c0,0.1,0,0.1,0,0.3c0.1,0,0.6-0.2,0.6-0.3l0-1.1c0-0.1,0-0.2-0.1-0.2c0,0-0.1,0-0.1,0.1
				c-0.1,0.2-0.1,0.2-0.1,0.2c-0.1,0-0.1-0.1-0.1-0.1c0-0.2,0-0.2,0.2-0.6c0.1-0.2,0.2-0.3,0.4-0.3c0.1,0,0.3,0.1,0.5,0.3
				c0.1,0.2,0.2,0.7,0.2,0.7l0,0.8l0,0l0.1,0l0.6-0.1c0,0,0.5,0,1,0.8c0.2,0.3,0.2,0.4,0.2,0.5c0,0.2,0,0.3-0.1,0.5
				c-0.1,0.2-0.2,0.4-0.2,0.5L34.4,22l-0.3,0.4c-0.2,0.2-0.5,0.4-0.7,0.6c0,0-0.3,0.1-0.3,0.2L32.9,24c0,0.1-0.5,1.4-1,1.7
				c-0.3,0.2-0.4,0.2-0.7,0.2c0,0-0.1,0-0.1-0.1c0-0.1,0.1-0.2,0.2-0.3c0.5-0.7,0.7-1.5,0.7-2.1c0,0-0.2,0-0.3,0
				c-0.5,0-0.7-0.2-0.7-0.7c0-0.1,0-0.4,0-0.8c0-0.1,0.1-0.7,0.1-0.7c0,0,0-0.1,0-0.1l0,0l-0.5,0.4c0,0-0.2,0.2-0.2,0.3
				c0,0.1,0,0.1,0,0.2c0,0.2,0,0.2,0.2,0.6c0,0,0.1,0.2,0.1,0.4c0,0.1,0,0.4-0.3,0.4c-0.3,0-0.8-0.5-0.9-0.7c0-0.1-0.1-0.9-0.1-1
				l0.1-0.9c0-0.1,0-0.4,0-0.6c0-0.1-0.2-0.3-0.2-0.4c0-0.2,0.1-0.2,0.1-0.2c0.3,0,0.7,0.8,0.8,1C30.2,20.7,30.2,20.8,30.2,20.9
				L30.2,20.9z M32.2,20.7c-0.1,0-0.2,0-0.4,0.2c-0.2,0.1-0.2,0.1-0.2,0.3c0,0.7,0,0.8,0.1,1.1c0,0.3,0.1,0.3,0.2,0.3
				c0,0,0.4-0.1,0.4-0.1C32.2,22.3,32.2,21,32.2,20.7L32.2,20.7z M33.1,21.1c0,0.1-0.1,0.5-0.1,0.6c0,0,0,0.3,0,0.3c0,0,0,0,0,0
				c0.4-0.2,1-1.3,1-1.6c0-0.2-0.2-0.2-0.3-0.2c0,0-0.6,0.1-0.6,0.2L33.1,21.1z"/>
			<path class="st7" d="M10.1,33.4c0.1-0.2,0.5-0.9,0.6-1c0,0,0.1-0.2,0.1-0.2c0,0,0-0.1,0-0.1l0.4-0.8l0.6-1.4l0.1-0.3l0.2-0.6
				c0-0.1,0.1-0.2,0.1-0.2c0-0.2,0-0.3-0.1-0.4c0,0,0-0.1,0-0.1c-0.1-0.1-0.1-0.1-0.2-0.2l0,0l0-0.1c0.1,0,0.1,0,0.2,0
				c0,0,0.2,0,0.3,0c0,0,0.1-0.1,0.1-0.1c0.1,0,0.8,0.7,0.8,1.1c0,0.3-0.1,0.3-0.2,0.4c0,0-0.3,0.5-0.3,0.5c0,0,0,0.1-0.1,0.1
				l-0.3,0.5c-0.2,0.4-0.2,0.4-0.2,0.5c0,0,0,0.1,0.1,0.1c0.2,0.2,0.2,0.3,0.3,0.5c0,0,0,0,0,0.1c0,0,0,0,0.1,0c0.1,0,0.3,0,0.5-0.1
				l0.5-0.1l0.5-0.1l0.2,0l0-1.1v-1.1c0-0.1,0-0.3,0-0.4c0-0.2,0-0.2-0.1-0.3c0,0-0.2-0.1-0.2-0.2c-0.1-0.2-0.1-0.2-0.1-0.4
				c0.1,0,0.1,0,0.4-0.2c0,0,0,0,0.1,0c0,0,0.1,0,0.1,0c0.1,0.1,0.4,0.3,0.5,0.3c0,0,0.2,0.1,0.2,0.1c0.1,0.1,0.2,0.2,0.3,0.3
				c0.2,0.2,0.2,0.3,0.2,0.4c0,0-0.1,0.3-0.1,0.5l0,0.3l0,0.3l0,0.5l0,0.7l0.1,0c0.1,0,0.4-0.1,0.5-0.1c0,0,0-0.1,0.1-0.2
				c0,0,0-0.1,0-0.1c0.1,0,0.1,0,0.2-0.1c0.3,0,0.4,0.1,0.6,0.3c0,0,0.1,0.1,0.2,0.1c0.1,0.1,0.2,0.2,0.2,0.3c0,0,0.1,0.2,0.1,0.2
				c0,0.1-0.1,0.4-0.3,0.4c0,0-0.1,0-0.1,0c-0.1,0-0.2,0-0.2,0c0,0-0.1,0-0.1,0l-0.7,0c0,0-0.2,0-0.2,0c0,0-0.3,0-0.3,0.1L15.2,33
				l0,0.2l0,0.9l0,0c0,0.1,0,0.6,0,0.7c0.2,0,0.6-0.1,0.8-0.1c0.1-0.1,0.2-0.1,0.3-0.1c0.1,0,0.4,0.2,0.7,0.5
				c0.1,0.1,0.1,0.2,0.1,0.3c0,0.3-0.3,0.4-0.3,0.4c-0.1,0-0.4,0-0.5-0.1c0,0-0.2-0.1-0.3-0.1c-0.1,0-0.4,0-0.5,0
				c-0.1,0-0.1,0-0.2,0l-0.5,0c0,0-0.2,0.1-0.2,0.1c-0.2,0-0.2,0-0.3,0c-0.1,0-0.3,0.1-0.4,0.1c-0.1,0-0.5-0.2-0.7-0.4
				c0,0-0.4-0.4-0.4-0.4c0,0,0,0,0,0c0,0,0.1-0.1,0.1-0.1c0.1,0,0.3,0.1,0.3,0.1l0.7-0.1c0,0,0.1,0,0.1,0c0,0,0.3,0,0.3,0
				c0,0,0-0.1,0-0.1c0-0.1,0-0.3,0-0.3l0-1.2l0-0.8c0,0,0-0.1,0-0.1c0,0-0.2,0.1-0.2,0.1c0,0-0.1,0-0.2,0c0,0-0.2,0.1-0.2,0.1
				c-0.1,0-0.3-0.1-0.7-0.3c-0.1,0-0.2-0.1-0.2-0.1c0,0-0.1,0-0.1,0l0,0l0,0.3l0,0.8l0,0.8l0,0.9c0,0.7,0,0.8-0.1,0.9
				c-0.1,0.1-0.2,0.3-0.4,0.3c-0.1,0-0.1,0-0.3-0.3c0,0-0.2-0.6-0.2-0.7l0,0c0,0,0-0.1,0.1-0.1c0,0,0.1-0.1,0.1-0.1c0,0,0-0.2,0-0.2
				l0.1-1.5l0.1-1l0-0.2c0,0-0.2,0.3-0.2,0.3c0,0-0.1,0.1-0.1,0.1c0,0-0.2,0.3-0.2,0.3C11,33.1,10.5,33.5,10.1,33.4
				C10.2,33.5,10.1,33.4,10.1,33.4L10.1,33.4z"/>
			<path class="st7" d="M18.4,34.7c0,0,0.1,0,0.1,0c0.2,0,0.5,0,0.6-0.1c0.1-0.1,0.1-0.3,0.1-0.3c0-0.2,0-0.2-0.2-0.7
				c-0.1-0.2-0.1-0.2-0.1-0.5c0,0,0-0.2,0-0.3c0-0.1,0.2-0.6,0.2-0.7l0,0c-0.1,0.1-0.1,0.1-0.2,0.2c0,0-0.1,0.1-0.1,0.1
				c-0.2,0-0.5-0.3-0.5-0.3C18,32,18,31.9,18,31.7c0-0.1,0-0.2,0-0.2c0.1-0.2,0.1-0.2,0.1-0.3c0.1,0,0.1,0,0.2,0.2
				c0,0,0.1,0.1,0.2,0.1l0.1,0l0.6-0.4l0.3-0.2c0,0,0-0.1,0-0.2c0-0.1,0.1-0.2,0.1-0.3c0,0,0.1,0,0.1,0c0.1,0,0.1,0,0.3,0.2
				c0,0,0.3,0.1,0.3,0.2c0.1,0.1,0.2,0.2,0.2,0.3c0,0,0,0.2,0,0.2c0,0-0.1,0.3-0.3,0.3c-0.2,0.3-0.6,1.1-0.6,1.5
				c0,0.3,0.2,0.6,0.5,0.9c0,0,0.1,0.1,0.1,0.1l0.2-0.3l0.3-0.7l0.1-0.2l0.3-0.7c0.1-0.2,0.3-0.9,0.3-1.1c0-0.1,0-0.1-0.1-0.2
				c-0.1-0.1-0.1-0.1-0.1-0.1c0,0,0-0.1,0-0.1l0.3-0.1c0-0.1-0.2-0.7-0.2-0.8c0-0.2-0.1-0.2-0.1-0.4l-0.3-0.7c0-0.1-0.1-0.1-0.3-0.2
				c-0.1,0-0.3-0.3-0.3-0.5c0.2,0,0.2,0.1,0.4,0.1c0.2,0,0.7,0.2,0.7,0.3c0,0,0.3,0.3,0.3,0.3c0,0.1,0,0.2,0,0.3
				c0,0.1,0.3,0.8,0.3,0.8l0.2,0.5c0.1,0.1,0.2,0.3,0.3,0.5l0.4,0.9c0.1,0.3,0.2,0.3,0.3,0.6c0.1,0.2,0.7,1.2,0.7,1.2l0.4,0.6
				c0.1,0.1,0.1,0.2,0.2,0.3l0,0.1c-0.1,0-0.4,0.1-0.5,0.1c0,0-0.7-0.1-0.8-0.1c-0.2-0.2-0.5-0.6-0.6-0.8l-0.3-0.6
				c-0.1-0.1-0.3-0.8-0.3-0.9l0,0.1l-0.2,0.8c-0.1,0.2-0.3,0.6-0.4,0.7c-0.1,0.2-0.1,0.2-0.4,0.4c-0.1,0-0.1,0-0.4,0.2
				c-0.1,0-0.1,0.1-0.2,0.1c0,0-0.2,0-0.3,0c-0.1,0.2-0.1,0.2-0.3,0.4c0,0-0.1,0.1-0.1,0.1c0,0,0,0,0,0c0,0,0,0,0.1,0c0,0,0,0,0.1,0
				c0.1,0,0.3,0,0.4,0c0,0,0.1,0,0.1,0l0.7,0h0.1l0.7,0.1l0.9,0.1c0.1,0,0.5,0.1,0.5,0.1h0.9c0.1,0,0.6,0,0.7,0l0,0.1
				c0,0.2-0.4,0.5-0.7,0.7l-0.5,0.3c-0.1,0-0.2,0.1-0.3,0.1c0,0-0.1,0-0.2,0L22.5,36l-0.1,0l-0.8-0.3c-0.1,0-0.7-0.1-0.7-0.1h-0.2
				c0,0-0.1,0-0.1,0c0,0,0,0-0.1,0l-0.7-0.1l0,0l-0.7,0c-0.1,0-0.4,0.1-0.4,0.1c-0.5,0-0.8-0.6-0.8-0.8c0-0.1,0-0.4,0.2-0.5
				c0.1,0,0.1,0,0.2,0.2C18.2,34.5,18.4,34.6,18.4,34.7L18.4,34.7z M19.1,28.3c0.1,0,0.3,0.1,0.4,0.1c0.1,0,0.3,0.1,0.3,0.1
				c0.2,0.2,0.4,0.6,0.4,0.8c0,0-0.1,0.3-0.1,0.3c-0.1,0.1-0.2,0.2-0.2,0.2c-0.3,0-0.3,0-0.7-0.2c-0.1-0.1-0.8-0.6-0.8-1.3
				C18.6,28.3,18.7,28.3,19.1,28.3z"/>
			<path class="st7" d="M27.9,28.5c0.7-0.3,0.7-0.4,0.7-0.5c0-0.1,0.1-0.1,0.2-0.1c0.2,0,0.3,0.1,0.4,0.3c0.1,0.1,0.4,0.3,0.4,0.4
				c0,0,0.1,0.1,0.1,0.2c0,0.2,0,0.2-0.2,0.3c-0.1,0.1-0.2,0.2-0.4,0.6c0,0.1-0.1,0.4-0.1,0.4l-0.2,0.6l-0.1,0.2l-0.2,0.8l-0.3,0.8
				l0,0.1l0,0l0.1,0l0.8,0c0.1,0,0.6,0.2,0.7,0.2c0.1-0.1,0.1-0.6,0.1-0.6c0-0.1,0-0.2-0.1-0.2l-0.1-0.1c0,0-0.1-0.1-0.1-0.2
				c0-0.1,0.1-0.2,0.2-0.2c0.6,0,1,0.7,1,0.9c0,0,0,0.2,0,0.2l-0.1,0.6c0.1,0.1,0.5,0.3,0.5,0.4c0.2,0.2,0.4,0.6,0.4,0.8
				c0,0.3-0.2,0.4-0.3,0.4c0,0-0.3,0-0.6-0.3c0,0-0.3-0.2-0.3-0.2c-0.3,0.6-1,1.7-1.9,1.7c-0.1,0-0.2,0-0.2-0.1
				c0-0.1,0.3-0.4,0.4-0.5c0.2-0.3,0.4-0.7,0.6-1.2c0-0.1,0.1-0.3,0.1-0.4c0,0-0.1,0-0.1-0.1c-0.1,0-0.5-0.1-0.5-0.1
				c0,0-0.1,0-0.1,0l-0.7,0l0,0l-0.3,0.8c-0.3,0.7-0.6,1.1-0.6,1.1c0,0-0.2,0.1-0.3,0.1c-0.1,0-0.4-0.2-0.4-0.3
				c-0.3-0.6-0.3-0.7-0.5-0.9c0,0-0.1-0.1-0.1-0.2c-0.2-0.1-0.2-0.2-0.2-0.5c0-0.1,0.2-0.6,0.4-0.7c0.3-0.2,0.8-0.3,1.1-0.4
				c0.3,0,0.3-0.1,0.3-0.3c0-0.1,0.1-0.4,0.1-0.5c0-0.1,0.2-0.8,0.2-0.9c0-0.1,0.4-1.2,0.4-1.5c-0.1,0-0.2,0.1-0.4,0.1
				c-0.4,0-1.1-0.4-1.1-0.8c0-0.1,0-0.2,0.1-0.2c0,0,0.3,0.1,0.3,0.1c0.1,0,0.4-0.1,0.4-0.1L27.9,28.5z M26.8,33.8
				c-0.4,0-0.8,0.3-0.8,0.4c0,0,0,0,0,0.1c0.1,0,0.4,0.2,0.5,0.2C26.6,34.3,26.7,34,26.8,33.8L26.8,33.8z"/>
		</g>
		<path class="st14" d="M33.6,44.3c0,3.2-5.4,5.7-12,5.7c-6.6,0-12-2.6-12-5.7s5.4-5.7,12-5.7C28.3,38.5,33.6,41.1,33.6,44.3z"/>
		<g>
			<path class="st15" d="M14.7,46.2l-0.5,0l-0.5-0.1c-0.1,0-0.6-0.2-0.7-0.3c-0.3-0.2-0.5-0.4-0.5-0.7c0,0,0-0.3,0.1-0.3
				c0,0,0.1,0,0.1,0c0.1,0,0.1,0.1,0.2,0.3c0.1,0.1,0.3,0.3,0.4,0.3c0.4,0.1,1.1,0.1,1.4,0.1c0.1,0,0.4,0,0.5-0.1
				c0.1-0.1,0.1-0.1,0.2-0.1c0.2,0,0.6,0.2,0.6,0.5c0,0.1-0.1,0.2-0.2,0.3c0,0-0.3,0.1-0.3,0.1L15,46.2L14.7,46.2z M13.6,42.4
				L13.6,42.4l0.4,0c0,0,0.3,0,0.3,0c0.1,0,0.5-0.1,0.5-0.1c0,0,0.3,0,0.3,0.1c0.1,0,0.3,0.2,0.3,0.3c0.2,0.3,0.3,0.3,0.3,0.4
				c0,0,0,0.1,0,0.1c0,0-0.1,0.1-0.2,0.1l-0.4,0.1l0,0l-0.5,0.2c0,0-0.3,0.1-0.4,0.1c-0.1,0-0.1,0-0.1-0.1c0-0.1,0-0.1,0.2-0.2
				c0.1,0,0.4-0.3,0.4-0.4c0-0.1,0-0.1-0.2-0.1H14c0,0-0.3,0-0.3,0c-0.3-0.1-0.3-0.1-0.4-0.2c0,0-0.1,0-0.1,0
				C13,42.5,13,42.5,13,42.5c0,0,0,0,0-0.1L13.6,42.4z"/>
			<path class="st15" d="M20,43.4c-0.2,0.1-0.3,0.1-0.3,0.1l-0.4,0.1c0,0-0.2,0-0.2,0c-0.1,0.1-0.2,0.3-0.2,0.5l-0.2,0.4l-0.5,0.9
				c0,0-0.1,0.2-0.1,0.2c-0.2,0.5-0.4,0.6-0.5,0.6c-0.1,0-0.3,0-0.4-0.2c0,0,0-0.3,0-0.4c0-0.1,0-0.1,0.1-0.1
				c0.1-0.1,0.2-0.2,0.2-0.3c0,0,0.4-0.7,0.5-0.8c0.1-0.2,0.2-0.4,0.3-0.6c0,0,0.1-0.1,0.1-0.1c0,0-0.1,0-0.1-0.1
				c-0.1,0-0.4-0.2-0.4-0.2c-0.1-0.1-0.2-0.2-0.2-0.3c0,0,0.1-0.1,0.1-0.1c0,0,0.3,0.1,0.3,0.1c0.1,0,0.6-0.1,0.6-0.1l0.1-0.4
				c0-0.1,0.1-0.3,0.1-0.4c0,0,0-0.1-0.1-0.2c0,0-0.1-0.1-0.1-0.2c0-0.1,0.1-0.1,0.1-0.1c0.2,0,0.7,0.4,0.7,0.7c0,0,0,0.2,0,0.3
				c0.1,0,0.1,0,0.2-0.1c0,0,0.2-0.1,0.2-0.1c0.1,0,0.3,0,0.3,0c0.3,0,0.4,0.1,0.4,0.3c0,0.1-0.1,0.2-0.2,0.3L20,43.4z M19,45.3
				c0.1,0,0.1,0,0.2,0.2c0,0,0.3,0.3,0.5,0.3c0.2,0,0.5,0,0.6,0c0.1,0,0.3-0.1,0.3-0.1c0.1,0,0.6,0.1,0.6,0.4c0,0.2,0,0.2-0.2,0.3
				c-0.1,0.1-0.6,0.1-0.7,0.1c-0.1,0-0.5,0-0.6,0c-0.6-0.1-0.9-0.6-0.9-1C18.9,45.4,18.9,45.3,19,45.3z M19.5,44.5c0,0-0.2,0-0.3,0
				c0,0-0.1,0-0.1,0c-0.1,0-0.1-0.1-0.1-0.1c0,0,0.1-0.1,0.2-0.2c0.3-0.1,0.7-0.2,1-0.2c0,0,0.5,0,0.7,0.1c0.1,0.1,0.3,0.2,0.3,0.4
				c0,0.1,0,0.2-0.1,0.2c0,0-0.1,0.1-0.1,0.1c0,0-0.2,0.1-0.2,0.1c0,0-0.2,0.1-0.3,0.1C20.4,45,20.1,45,20,45c0,0,0,0,0,0
				c0,0,0,0,0-0.1c0,0,0,0,0,0c0,0,0.1-0.1,0.1-0.1c0.1-0.1,0.2-0.2,0.2-0.2L19.5,44.5z M20.7,42.5c0,0-0.2-0.1-0.2-0.1c0,0,0,0,0,0
				c0,0,0-0.1,0.1-0.1c0,0,0.3,0,0.5,0.1c0.1,0,0.1,0,0.2,0.1c0.1,0.1,0.1,0.1,0.2,0.3c0,0.1-0.1,0.2-0.2,0.2
				c-0.2,0-0.3-0.1-0.4-0.2L20.7,42.5z M20.9,42c0,0,0.3-0.1,0.3-0.1c0.2,0,0.4,0.2,0.4,0.3c0,0.1-0.1,0.2-0.2,0.2
				c-0.1,0-0.3-0.1-0.4-0.2c0,0-0.2-0.1-0.2-0.1C20.9,42.1,20.9,42.1,20.9,42C20.9,42,20.9,42,20.9,42z"/>
			<path class="st15" d="M22.8,43.3l0.4-0.2c0,0,0.3-0.1,0.3-0.1c0,0,0,0,0,0l0-0.4c0-0.1,0-0.2,0-0.3c0,0-0.2-0.2-0.2-0.3
				c0-0.1,0.1-0.1,0.1-0.1c0,0,0.1,0,0.1,0l0,0l0,0l0.4,0.3c0.1,0,0.3,0.3,0.3,0.5c0,0,0,0.2,0,0.2c0,0,0.2,0.1,0.2,0.1
				c0.1,0,0.1,0.1,0.1,0.2c0,0.1,0,0.1-0.2,0.3c0,0-0.3,0.2-0.3,0.3c0,0,0,0.3,0,0.4c0,0,0,0,0,0.1c0.1,0,0.3-0.1,0.3-0.1
				c0.2-0.1,0.6-0.2,0.9-0.2c0.5,0,0.7,0.1,0.9,0.3c0.1,0.1,0.2,0.4,0.2,0.6c0,0.1,0,0.5-0.2,0.7c-0.1,0.1-0.2,0.2-0.5,0.4
				c0,0-0.1,0-0.1,0c-0.1,0-0.4,0.2-0.6,0.2l-0.4,0.1c-0.1,0-0.1,0-0.2,0c0,0,0-0.1,0-0.1c0,0,0,0,0.1,0c0.1-0.1,0.3-0.2,0.5-0.3
				l0.3-0.3c0,0,0.5-0.5,0.5-1c0-0.3-0.2-0.4-0.3-0.4c-0.1,0-0.6,0.1-1,0.3c0,0-0.2,0.1-0.2,0.1c0,0-0.2,0.1-0.2,0.1c0,0,0,0,0,0.1
				c0,0,0,0.2,0,0.3l0,0.4l0,0.5c0,0.2-0.2,0.4-0.4,0.4c-0.2,0-0.3-0.3-0.3-0.3c-0.1-0.3-0.1-0.5-0.2-0.7l0,0l-0.4,0.3
				c0,0-0.2,0.2-0.2,0.2c0,0-0.1,0-0.1,0c-0.3,0-0.3-0.5-0.3-0.5c0-0.1,0-0.1,0.1-0.2c0,0,0.7-0.9,0.7-0.9c0.1-0.1,0.4-0.5,0.5-0.6
				c-0.1,0-0.1,0-0.4,0.2c0,0-0.3,0.1-0.3,0.2c-0.1,0.1-0.1,0.1-0.2,0.2c0,0,0,0,0,0c0,0-0.3-0.2-0.3-0.4c0-0.1,0.1-0.2,0.1-0.2
				L22.8,43.3z M23.5,44.4C23.5,44.4,23.5,44.4,23.5,44.4C23.5,44.4,23.5,44.4,23.5,44.4L23.5,44.4c-0.1,0-0.3,0.3-0.3,0.3
				c0,0,0,0,0,0c0,0,0.2-0.1,0.3-0.1c0,0,0,0,0,0L23.5,44.4z M23.5,45.4c0-0.2,0-0.2,0-0.2c-0.1,0.1-0.2,0.1-0.2,0.1
				C23.3,45.3,23.4,45.4,23.5,45.4C23.5,45.4,23.5,45.4,23.5,45.4z"/>
			<path class="st15" d="M28.5,43.8c0,0,0,0.2,0,0.2c0,0.1,0,0.1,0,0.2c0.1-0.1,0.1-0.1,0.2-0.2c0.1-0.1,0.1-0.1,0.1-0.2
				c0.1-0.1,0.1-0.1,0.1-0.1c0.1,0,0.1,0,0.1,0.1c0,0,0,0.2,0,0.3c0,0,0,0.1-0.1,0.1l-0.1,0.3c0,0.1-0.2,0.4-0.3,0.5
				c0,0.1-0.1,0.1-0.2,0.1c-0.4,0-0.5-0.4-0.5-0.4c0-0.1,0-0.1,0-0.2c0-0.1,0-0.3,0-0.3c0-0.3,0.1-0.6,0.1-1c0,0,0.1-0.4,0.1-0.5
				c0,0,0-0.2,0-0.2C28,42.4,28,42.4,28,42.3c0,0,0,0,0.1-0.1c0,0,0.3,0.1,0.4,0.3c0.1,0.1,0.2,0.2,0.2,0.4v0.1c0,0,0,0.2,0,0.3
				L28.5,43.8z M29.6,45.5c0.1-0.2,0.3-0.6,0.3-0.8l0-0.4l0-0.1l0-0.6v-0.1l0-0.5l0-0.4c0-0.3-0.1-0.4-0.1-0.4
				c-0.2-0.1-0.2-0.1-0.2-0.2c0-0.1,0.2-0.1,0.3-0.1c0.1,0,0.3,0,0.6,0.4c0,0,0.1,0.1,0.1,0.1c0.1,0.2,0.1,0.3,0.1,0.4c0,0,0,0,0,0
				l0,0.3c0,0.1,0,0.4,0,0.4c0,0,0,0.1,0,0.2c0,0.2,0,0.3,0,0.3l-0.1,0.6c-0.1,0.8-0.5,1.1-0.8,1.4c-0.3,0.2-0.5,0.3-0.7,0.3
				c-0.1,0-0.1,0-0.2,0c-0.1,0-0.1,0-0.1-0.1c0.3-0.2,0.3-0.2,0.6-0.5L29.6,45.5z"/>
		</g>
	</g>
	<g>
		<g>
			<rect x="72.6" y="49.7" class="st16" width="31.9" height="81.7"/>
			<rect x="104.5" y="49.7" class="st1" width="32.1" height="81.7"/>
		</g>
		<g>
			<polygon class="st17" points="74.4,47.7 72.6,49.7 104.5,49.7 104.3,47.7 			"/>
			<polygon class="st3" points="135.4,47.7 104.3,47.7 104.5,49.7 136.6,49.7 			"/>
		</g>
		<polygon class="st18" points="135.4,47.7 104.3,47.7 74.4,47.7 72.6,49.7 72.6,131.4 104.5,131.4 136.6,131.4 136.6,49.7 		"/>
		<g>
			<path class="st7" d="M76.1,56.3c0-0.1,0-0.3,0-0.4c0,0,0-0.2,0-0.2c-0.1-0.1-0.1-0.2-0.2-0.2c0-0.1,0-0.1-0.1-0.2
				c0,0,0-0.1-0.1-0.1l0,0l0,0c0,0,0.1,0,0.2,0c0,0,0.1-0.1,0.1-0.1c0.1,0,0.1,0,0.1,0c0,0,0.1,0,0.2,0.1c0,0,0.6,0.6,0.7,0.7
				c0,0.1,0,0.2,0,0.2c0,0.1,0,0.1,0,0.1c0,0-0.1,0.2-0.1,0.2c0,0,0,0.1,0,0.2c0,0,0,0.2,0,0.3c0,0.1,0,0.3,0,0.4c0,0,0,0.1,0,0.1
				l0,0.1c0,0,0.1-0.1,0.2-0.1c0.2,0,0.5,0.3,0.5,0.6c0,0-0.2,0.2-0.2,0.2h0c0,0-0.5,0.2-0.5,0.3v0c0,0.1,0,0.3,0,0.4l0,0l0,0
				c0,0,0.1,0,0.1,0h0.1c0.1,0,0.3-0.1,0.4-0.1l0.6-0.1l0.3-0.1c0-0.1,0-0.1,0-0.2c0-0.2,0-0.4,0-0.5l0,0c-0.1,0-0.2,0-0.2,0
				c-0.1,0-0.3-0.1-0.4-0.3c0,0-0.2-0.1-0.2-0.1c0,0-0.2-0.2-0.2-0.2c-0.1,0-0.1,0-0.1-0.1c0,0,0.2,0,0.2,0c0.3,0,0.4,0,0.8-0.1
				c0.1,0,0.1,0,0.1-0.3l0-0.8c0-0.5,0-0.5-0.1-0.6c0,0-0.2-0.2-0.2-0.2l0-0.1l-0.1,0l0-0.1c0.1,0,0.1,0,0.1-0.1c0,0,0.1,0,0.1,0
				c0,0,0.1,0,0.1,0c0,0,0.1-0.1,0.2-0.1c0.1,0,0.2,0.1,0.4,0.3c0,0,0.2,0.1,0.2,0.1c0,0,0.1,0.1,0.1,0.1h0c0,0,0.1,0.1,0.1,0.1
				c0.1,0.1,0.1,0.2,0.1,0.3v0c0,0.2,0,0.2,0,0.3c0,0,0,0.3,0,0.3c0,0.3,0,0.3,0.1,0.3c0.2,0,0.3-0.1,0.4-0.1c0,0,0,0,0.1,0
				c0,0,0.4,0.1,0.4,0.1c0.2,0.1,0.2,0.2,0.2,0.4c0,0.1,0,0.2-0.1,0.3c-0.1,0.1-0.5,0.1-0.5,0.1c-0.2,0-0.4,0-0.6,0.1l0,0l-0.1,0.8
				l0.7-0.1c0.1,0,0.1,0,0.1-0.1l0,0c0-0.1,0-0.1,0.1-0.1c0,0,0.2,0,0.2,0c0,0,0.1,0.1,0.1,0.1l0.1,0.1c0,0,0.1,0,0.1,0l0,0
				c0.1,0.1,0.1,0.1,0.1,0.1l0,0c0,0,0.1,0,0.1,0l0,0c0,0.1,0.1,0.1,0.1,0.2l0,0c0,0.1,0,0.1,0,0.2c0,0.3-0.2,0.3-0.4,0.3l-0.8,0
				c-0.2,0-0.2,0-0.3,0c0,0,0,0,0,0.1c0.1,0.1,0.3,0.2,0.3,0.3c0,0.1,0,0.1,0.2,0.2c0.1,0,0.1,0,0.2,0c0,0,0.1,0,0.1,0
				c0.1,0,0.5,0.1,0.5,0.7c0,0.2-0.2,0.3-0.2,0.3c-0.1,0-0.3,0-0.4,0c0,0-0.2,0.1-0.2,0.1c0,0,0,0.1,0,0.1c0,0,0,0.1,0,0.1v0.9
				l0,0.8c0,0,0,0.2,0,0.2c0,0-0.1,0.2-0.1,0.3c0,0-0.2,0.3-0.2,0.4c-0.1,0.1-0.1,0.1-0.2,0.2c0,0-0.2,0.1-0.2,0.1
				c0,0-0.2-0.2-0.2-0.2c-0.1-0.2-0.1-0.4-0.2-0.5c-0.1-0.1-0.4-0.6-0.6-0.6c0,0-0.2,0.1-0.3,0.1c0,0-0.1,0-0.1,0
				c-0.1,0-0.2-0.2-0.2-0.2c0-0.1-0.3-0.5-0.3-0.5c-0.1-0.2-0.1-0.3-0.3-0.6c0,0-0.1-0.1-0.1-0.1c0-0.1,0-0.1,0-0.1l0,0
				c0,0,0.1,0,0.1,0c0.3,0,1,0.3,1.1,0.4c0,0.1,0,0.1,0.1,0.2c0,0.1,0.1,0.3,0.1,0.3c0,0.1,0.1,0.2,0.1,0.3c0,0,0,0.1,0,0.2
				c0,0,0,0,0.1,0c0.1,0,0.5-0.1,0.6-0.1l0,0l0-0.9c0-0.1,0-0.6,0-0.7c0,0,0-0.1,0-0.1c0,0-0.1,0-0.1,0c-0.1,0-0.2,0-0.3,0
				c-0.1,0-0.6,0.2-0.8,0.2c0,0.1-0.1,0.2-0.2,0.2c0,0,0,0-0.2-0.1c0,0-0.1,0-0.1,0c-0.1-0.1-0.6-0.4-0.7-0.4c0-0.1,0-0.1-0.1-0.1
				c0,0,0,0.1,0,0.1c0,0.1,0,0.1,0,0.1l0,0.1l0,0.8c0,0.1,0,0.3,0,0.4c0,0.1,0,0.4,0,0.5c0,0.1,0,0.3,0,0.4c0,0.2-0.1,0.5-0.1,0.6
				c0,0.1-0.2,0.2-0.3,0.2c0,0-0.2,0-0.2-0.1c0,0-0.4-0.5-0.4-0.7c0-0.3,0-0.3,0-0.4c0-0.1,0-0.1,0-0.2c0,0,0-0.1,0-0.1
				c0.1,0,0.1,0,0.1-0.1c0-0.2,0.1-0.4,0.1-0.5l0-0.8l0,0l-0.1,0.1l-0.4,0.5c-0.1,0.1-0.3,0.4-0.4,0.4c0,0-0.1,0.1-0.1,0.2
				c0,0-0.1,0.1-0.1,0.1c-0.2,0-0.3-0.1-0.4-0.3c-0.1-0.1-0.3-0.4-0.3-0.5c0,0,0.1-0.4,0.1-0.5c0,0,0-0.2,0-0.2c0-0.1,0-0.1,0-0.1
				l0,0c0.1,0.1,0.2,0.1,0.3,0.2c0,0,0.1,0.1,0.1,0.1c0,0,0.2-0.1,0.2-0.1c0,0,0,0,0.1,0l0.6-0.5c0.1,0,0.3-0.3,0.4-0.4
				c0.1,0,0.1-0.1,0.1-0.2c0-0.1,0-0.5,0-0.6c0,0,0,0,0-0.1c0,0-0.2,0.1-0.3,0.1c-0.1,0-0.4-0.2-0.4-0.2c0,0,0,0.1-0.1,0.1
				C75.2,58.7,75,59,74.9,59c-0.1,0-0.2,0.2-0.3,0.2c-0.1,0-0.3,0.1-0.4,0.2c0,0,0,0-0.1,0c-0.1,0-0.1,0-0.1-0.1
				c0-0.1,0.2-0.3,0.2-0.4c0.2-0.4,0.4-0.9,0.5-1.4c0-0.1,0.1-0.6,0.1-0.7c0-0.1,0-0.1-0.1-0.3c0,0-0.1-0.1-0.1-0.2c0,0,0,0,0.1,0
				c0,0.1,0.1,0.1,0.1,0.1c0.1,0,0.5,0.2,0.6,0.3c0.2,0.1,0.3,0.2,0.3,0.4c0,0.2,0,0.4-0.1,0.4c-0.1,0.3-0.1,0.3-0.1,0.4
				c0,0,0.1-0.1,0.1-0.1c0,0,0.3-0.1,0.3-0.1c0,0,0,0,0-0.2L76.1,56.3z M79.2,59.7c0-0.3,0-0.3-0.1-0.4c0,0-0.1-0.2-0.1-0.2
				c0,0-0.5,0.1-0.6,0.1c0,0-0.5,0.2-0.5,0.2c0,0-0.1,0-0.2,0c-0.1,0-0.4-0.2-0.5-0.2c0,0-0.1-0.1-0.2-0.1c0,0-0.1,0.2-0.1,0.2
				c0,0-0.1,0.2-0.1,0.2c0,0,0,0.1,0,0.1c0,0.5,0,0.5,0.1,0.5c0.1,0,0.5-0.1,0.6-0.1c0,0,0.3,0,0.3,0c0.3-0.1,1.2-0.3,1.3-0.3
				C79.1,59.7,79.1,59.7,79.2,59.7L79.2,59.7z"/>
			<path class="st7" d="M83.2,62.4c0.1,0.1,0.1,0.1,0.4,0.1c0-0.2,0-0.4,0-0.5c-0.1,0.1-0.7,0.5-0.8,0.5c-0.4,0.2-0.7,0.3-1,0.3
				c0,0-0.2,0-0.2-0.1c0,0,0,0,0-0.1c0,0,0.2-0.1,0.2-0.1l0.5-0.5c0.1-0.1,0.3-0.3,0.5-0.4c0.1-0.1,0.2-0.2,0.3-0.2l0.5-0.5l0.2-0.2
				c-0.1,0-0.4,0.1-0.5,0.1c-0.1,0-0.1,0-0.2,0c0,0-0.8-0.4-0.9-0.5c-0.1-0.1-0.2-0.2-0.2-0.2v0c0,0,0.2,0,0.2,0
				c0.1,0,0.6-0.1,0.7-0.2c-0.1-0.1-0.2-0.1-0.2-0.2c0,0-0.2-0.3-0.2-0.4c0,0,0-0.2,0-0.2c0,0,0-0.2,0-0.3c0-0.2,0-0.3-0.3-0.5v0
				c0,0,0.1,0,0.1,0c0,0,0.2,0,0.2,0c0.1,0,0.2-0.1,0.3-0.1c0.3,0,0.7-0.1,0.7-0.1c0.1,0,0-0.2,0-0.3l-0.2,0l-0.6,0.2
				c0,0-0.2,0-0.2,0c-0.1,0-0.5-0.3-0.5-0.3c0,0-0.2-0.1-0.2-0.2v0l0.3-0.1c0,0,0.3,0,0.3,0l0.8-0.2c0.1,0,0.3,0,0.3-0.1
				c0,0,0-0.1,0-0.3c-0.1,0-0.1,0-0.1,0c-0.2,0-0.2,0-0.4-0.1c-0.2-0.2-0.2-0.2-0.3-0.2c-0.1,0.1-0.3,0.4-0.4,0.4
				c-0.1,0-0.4,0.2-0.5,0.2c0,0,0,0,0,0c0-0.1,0.2-0.3,0.3-0.4c0-0.1,0.1-0.4,0.1-0.4c0,0,0-0.1,0-0.1v-0.1c0,0,0-0.2,0.1-0.2
				c0,0,0-0.1,0-0.1c0-0.1,0.1-0.3,0.1-0.4c0,0,0-0.1-0.1-0.1l0,0c-0.1,0-0.1-0.1-0.1-0.1c0.1,0,0.1,0,0.3,0c0.1,0,0.1,0,0.4,0.2
				c0.1,0,0.3,0.1,0.3,0.4c0,0-0.1,0.4-0.1,0.5c0.1,0,0.5-0.1,0.5-0.1l0-1c0-0.1,0-0.1-0.1-0.1c0,0-0.2-0.1-0.2-0.2l0,0
				c0.1,0,0.2-0.1,0.2-0.1c0,0,0.1-0.1,0.1-0.1c0.1,0,0.3,0,0.3,0c0.2,0.1,0.2,0.2,0.3,0.3c0.1,0.1,0.4,0.2,0.4,0.4c0,0,0,0.1,0,0.1
				c0,0-0.1,0.2-0.1,0.2c0,0.1,0,0.2,0,0.3c0.1,0,0.2,0,0.3-0.1c0,0,0.1,0,0.1,0c0,0,0.1,0,0.1,0c0.2,0,0.5,0.2,0.5,0.3
				c0,0.2-0.2,0.4-0.3,0.4c-0.1,0.1-0.7,0.2-0.7,0.2c0,0,0,0.2-0.1,0.3c0,0,0,0,0,0c0,0,0.1,0,0.1,0c0,0,0.2-0.1,0.2-0.1
				c0.1-0.1,0.1-0.1,0.2-0.1c0.2,0,0.2,0,0.4,0.1c0.2,0.1,0.2,0.1,0.3,0.3l0-0.1v-0.6c0-0.2,0-0.8,0-0.8c0-0.1-0.1-0.2-0.2-0.3
				l0-0.1c0.2,0,0.2,0,0.3,0l0.3,0.2c0.1,0.1,0.1,0.1,0.2,0.2c0,0,0.2,0.2,0.2,0.2c0,0,0,0,0,0c0,0.1,0,0.2,0,0.2l0,0.8
				c0,0,0,0.3,0,0.3c0,0,0,0.2,0,0.3c0,0.1,0,0.6,0,0.7c0.1,0,0.3-0.1,0.4-0.1l0-0.3l0-1.8c0-0.1,0-0.4,0-0.5c0,0,0-0.1-0.1-0.2
				c0,0-0.1-0.1-0.1-0.2c0,0-0.1,0-0.1,0c0,0-0.1-0.1-0.1-0.1v0c0,0,0.2-0.1,0.2-0.1c0.1,0,0.4,0,0.6,0.3c0,0,0.1,0.1,0.2,0.1
				c0.1,0.1,0.3,0.3,0.3,0.5c-0.1,0.2-0.1,0.5-0.1,0.5l0,0.8l0,0.9c0,0.5-0.1,0.9-0.3,1.1c-0.1,0.2-0.1,0.2-0.2,0.2
				c-0.3,0-0.3-0.2-0.4-0.4c-0.1-0.2-0.2-0.3-0.3-0.4c-0.1-0.1-0.2-0.1-0.2-0.2c-0.1,0-0.1,0-0.1,0l0,0c0,0,0,0-0.1,0
				c-0.1-0.1-0.2-0.3-0.3-0.8c0-0.1,0-0.1,0-0.2c-0.1,0.2-0.1,0.3-0.2,0.3c-0.1,0-0.4,0-0.4,0l-0.6,0c0,0-0.1,0.1-0.1,0.2
				c0,0,0,0.1,0,0.1c0.1,0,0.5-0.1,0.5-0.1c0.1,0,0.3,0.1,0.3,0.1c0.1,0.1,0.3,0.3,0.3,0.4c0,0,0,0.1,0,0.1c0,0,0,0,0,0.1
				c-0.1,0.2-0.1,0.2-0.1,0.2c0,0,0.3,0.2,0.3,0.3c0.1,0.1,0.1,0.1,0.1,0.2c0,0.1,0,0.2,0,0.3c0.1,0,0.6,0,0.7,0
				c0.1,0,0.2,0,0.2-0.1c0,0,0.2-0.1,0.2-0.1c0,0,0.3,0,0.3,0c0.1,0.1,0.4,0.4,0.4,0.5c0,0,0,0,0,0.1c0,0.1,0,0.1,0,0.2
				c0,0-0.1,0.2-0.1,0.3l-0.2,0l-0.6-0.2h0c0,0,0.2,0.3,0.2,0.3c0,0,0,0.1-0.1,0.2l0,0c0,0,0,0-0.1,0.1L86,61.3l0.2,0.2l1.1,0.9
				l0.4,0.3l0.6,0.4c0,0,0.2,0.1,0.2,0.1c0,0,0,0,0,0c0,0-0.1,0.1-0.2,0.1c0,0-0.7,0.2-0.8,0.2c-0.1,0-0.4,0-0.5,0
				c0,0-0.3-0.1-0.5-0.3L86,62.7c-0.1-0.1-0.3-0.5-0.4-0.5c0,0-0.2,0.2-0.3,0.2c0,0-0.2,0.1-0.2,0.1c-0.1,0-0.3,0.2-0.3,0.3
				c-0.3,0.2-0.3,0.2-0.4,0.3c0,0.1-0.1,0.4-0.4,0.4c0,0-0.1,0-0.1,0c-0.3-0.1-0.7-0.5-0.7-0.6c0-0.1,0-0.1,0-0.2
				c0-0.1-0.1-0.1-0.1-0.1C83.1,62.5,83.2,62.4,83.2,62.4L83.2,62.4z M84.7,59.7c0.1,0,0.1,0,0.2-0.1l0-0.2c-0.1,0-0.1,0-0.1,0
				c-0.2,0-0.4-0.2-0.4-0.3c0,0,0.1-0.1,0.1-0.1c0,0,0.1-0.2,0.1-0.2c0-0.1,0-0.1,0.1-0.4c0,0,0,0,0,0c-0.1,0-0.2,0-0.2,0
				c-0.1,0-0.1,0-0.1,0.1c0,0.3,0,0.5-0.1,0.7c-0.1,0.2-0.1,0.3-0.2,0.4c0,0-0.3-0.2-0.3-0.2c0,0-0.1-0.2-0.1-0.2c0-0.1,0-0.3,0-0.4
				c0-0.1,0-0.2,0-0.2c0,0-0.1,0-0.1,0c0,0-0.1,0-0.1,0c0,0.9-0.1,1-0.1,1.1v0c0,0,0.7-0.1,0.9-0.1L84.7,59.7z M84.4,62.1l0.5-0.2
				c0,0,0.4-0.2,0.4-0.2c0,0-0.4-0.4-0.4-0.5c0-0.1-0.2-0.3-0.2-0.4c-0.1,0.1-0.2,0.2-0.2,0.3l-0.1,0.1c0,0.1,0,0.1,0,0.1
				C84.4,61.6,84.4,61.8,84.4,62.1L84.4,62.1L84.4,62.1z M85,60.4c0,0.1,0.2,0.3,0.3,0.4c0,0,0.5-0.3,0.5-0.3
				c0.1-0.1,0.2-0.1,0.2-0.2l0,0c-0.1,0-0.3,0-0.4,0C85.5,60.3,85.2,60.3,85,60.4L85,60.4L85,60.4z"/>
			<path class="st7" d="M91.3,61.9l0.6-0.3c0.2-0.1,0.7-0.5,0.8-0.7l0.4-0.4c0.2-0.2,0.6-0.8,0.7-1l0.2-0.5c0.1-0.3,0.2-0.7,0.2-0.7
				c0-0.2,0-0.4-0.1-0.6c-0.1-0.2-0.5-0.3-0.7-0.3c0,0-0.3,0-0.3,0l-0.8,0.2L92,57.7L91.4,58c0,0-0.2,0.1-0.2,0.1
				c-0.1,0-0.5,0.2-0.5,0.2c-0.2,0-0.5-0.1-0.7-0.3c-0.2-0.1-0.7-0.6-0.7-0.7c0-0.1,0.1-0.2,0.2-0.2c0,0,0.3,0,0.4,0
				c0.3,0,1.7-0.4,2-0.5c0.2,0,1.1-0.3,1.3-0.3c0.8,0,1.2,0.3,1.4,0.5c0.4,0.4,0.6,0.9,0.6,1.6c0,0.2-0.1,0.8-0.1,1l-0.3,0.7
				l-0.2,0.4l-0.5,0.6l0,0l-0.5,0.5c-0.2,0.2-0.7,0.4-1,0.5c-0.4,0.1-0.5,0.1-1,0.1c0,0-0.4-0.1-0.4-0.1c0,0,0-0.1,0-0.1L91.3,61.9z
				"/>
			<path class="st7" d="M97.7,58.3l0.6-0.4c0.1-0.1,0.5-0.2,0.5-0.3c0,0,0.1-0.6,0.2-0.7c0.1-0.2,0.1-0.2,0.1-0.3l0.1,0.1
				c0,0,0,0.1,0,0.1c0,0.1,0,0.3,0,0.4c0,0.1,0,0.1,0,0.3c0.1,0,0.6-0.2,0.6-0.3l0-1.1c0-0.1,0-0.2-0.1-0.2c0,0-0.1,0-0.1,0.1
				c-0.1,0.1-0.1,0.2-0.1,0.2c-0.1,0-0.1-0.1-0.1-0.1c0-0.2,0-0.2,0.2-0.6c0.1-0.2,0.2-0.3,0.4-0.3c0.1,0,0.4,0.1,0.5,0.3
				c0.1,0.1,0.2,0.7,0.2,0.7l0,0.8l0,0l0.1,0l0.6-0.1c0,0,0.5,0,1,0.8c0.2,0.3,0.2,0.4,0.2,0.5c0,0.2,0,0.3-0.1,0.5
				c-0.1,0.2-0.2,0.4-0.2,0.5l-0.4,0.5l-0.3,0.4c-0.2,0.2-0.5,0.4-0.7,0.6c0,0-0.3,0.1-0.3,0.2l-0.1,0.8c0,0.1-0.5,1.4-1,1.7
				c-0.3,0.2-0.4,0.2-0.7,0.2c0,0-0.1,0-0.1-0.1c0-0.1,0.1-0.2,0.2-0.3c0.5-0.7,0.7-1.5,0.7-2.1c0,0-0.2,0-0.3,0
				c-0.5,0-0.7-0.2-0.7-0.7c0-0.1,0-0.4,0-0.8c0-0.1,0.1-0.6,0.1-0.7c0,0,0-0.1,0-0.1l0,0L98,59.1c0,0-0.2,0.2-0.2,0.3
				c0,0.1,0,0.1,0,0.2c0,0.2,0,0.2,0.2,0.6c0,0,0.1,0.2,0.1,0.4c0,0.1,0,0.4-0.3,0.4c-0.3,0-0.8-0.5-0.9-0.7c0-0.1-0.1-0.9-0.1-1
				l0.1-0.9c0-0.1,0-0.4,0-0.6c0-0.1-0.2-0.3-0.2-0.4c0-0.2,0.1-0.2,0.1-0.2c0.3,0,0.7,0.8,0.8,1C97.6,58.1,97.6,58.3,97.7,58.3
				L97.7,58.3z M99.6,58.1c-0.1,0-0.2,0-0.4,0.2C99,58.4,99,58.4,99,58.6c0,0.7,0,0.8,0.1,1.1c0,0.3,0.1,0.3,0.2,0.3
				c0,0,0.4-0.1,0.4-0.1C99.6,59.7,99.7,58.4,99.6,58.1L99.6,58.1z M100.6,58.5c0,0.1-0.1,0.5-0.1,0.6c0,0,0,0.3,0,0.3c0,0,0,0,0,0
				c0.4-0.2,1-1.3,1-1.6c0-0.2-0.2-0.2-0.3-0.2c0,0-0.6,0.1-0.6,0.2L100.6,58.5z"/>
			<path class="st7" d="M77.6,70.8c0.1-0.2,0.5-0.9,0.6-1c0,0,0.1-0.2,0.1-0.2c0,0,0-0.1,0-0.1l0.4-0.8l0.6-1.4l0.1-0.3l0.2-0.6
				c0-0.1,0.1-0.2,0.1-0.2c0-0.2,0-0.3-0.1-0.4c0,0,0-0.1,0-0.1c-0.1-0.1-0.1-0.1-0.2-0.2l0,0l0-0.1c0.1,0,0.1,0,0.2,0
				c0,0,0.2,0,0.3,0c0,0,0.1-0.1,0.1-0.1c0.1,0,0.8,0.7,0.8,1.1c0,0.3-0.1,0.3-0.2,0.4c0,0-0.3,0.5-0.3,0.5c0,0,0,0.1-0.1,0.1
				l-0.3,0.5c-0.2,0.4-0.2,0.4-0.2,0.5c0,0,0,0.1,0.1,0.1c0.2,0.2,0.2,0.3,0.3,0.5c0,0,0,0,0,0.1c0,0,0,0,0.1,0c0.1,0,0.3,0,0.5-0.1
				l0.5-0.1l0.5-0.1l0.2,0l0-1.1v-1.1c0-0.1,0-0.3,0-0.4c0-0.2,0-0.2-0.1-0.3c0,0-0.2-0.1-0.2-0.2c-0.1-0.2-0.1-0.2-0.1-0.4
				c0.1,0,0.1,0,0.4-0.2c0,0,0,0,0.1,0c0,0,0.1,0,0.1,0c0.1,0.1,0.4,0.3,0.5,0.3c0,0,0.2,0.1,0.2,0.1c0.1,0.1,0.2,0.2,0.3,0.3
				c0.2,0.2,0.2,0.3,0.2,0.4c0,0-0.1,0.3-0.1,0.5l0,0.3l0,0.4l0,0.5l0,0.7l0.1,0c0.1,0,0.4-0.1,0.5-0.1c0,0,0-0.1,0.1-0.2
				c0,0,0-0.1,0-0.1c0.1,0,0.1,0,0.2-0.1c0.3,0,0.4,0.1,0.6,0.3c0,0,0.1,0.1,0.2,0.1c0.1,0.1,0.2,0.2,0.2,0.3c0,0,0.1,0.2,0.1,0.2
				c0,0.1-0.1,0.4-0.3,0.4c-0.1,0-0.1,0-0.1,0c-0.1,0-0.2,0-0.2,0c0,0-0.1,0-0.1,0l-0.7,0c0,0-0.2,0-0.2,0c0,0-0.3,0-0.3,0.1
				l-0.1,0.8l0,0.2l0,0.9l0,0c0,0.1,0,0.6,0,0.7c0.2,0,0.6-0.1,0.8-0.1c0.1-0.1,0.2-0.1,0.3-0.1c0.1,0,0.4,0.2,0.7,0.5
				c0.1,0.1,0.1,0.2,0.1,0.3c0,0.3-0.3,0.4-0.3,0.4c-0.1,0-0.4,0-0.5-0.1c0,0-0.2-0.1-0.3-0.1c-0.1,0-0.4,0-0.5,0
				c-0.1,0-0.1,0-0.2,0l-0.5,0c0,0-0.2,0.1-0.2,0.1c-0.2,0-0.2,0-0.3,0c-0.1,0-0.3,0.1-0.4,0.1c-0.1,0-0.5-0.2-0.7-0.4
				c0,0-0.4-0.4-0.4-0.4c0,0,0,0,0,0c0,0,0.1-0.1,0.1-0.1c0.1,0,0.3,0.1,0.3,0.1l0.7-0.1c0,0,0.1,0,0.1,0c0,0,0.3,0,0.3,0
				c0,0,0-0.1,0-0.1c0-0.1,0-0.3,0-0.3l0-1.2l0-0.8c0,0,0-0.1,0-0.1c0,0-0.2,0.1-0.2,0.1c0,0-0.1,0-0.2,0c0,0-0.2,0.1-0.2,0.1
				c-0.1,0-0.3-0.1-0.7-0.3c-0.1,0-0.2-0.1-0.2-0.1c0,0-0.1,0-0.1,0l0,0l0,0.3l0,0.8l0,0.8l0,0.9c0,0.7,0,0.8-0.1,0.9
				c-0.1,0.1-0.2,0.3-0.4,0.3c-0.1,0-0.1,0-0.4-0.3c0,0-0.2-0.6-0.2-0.7l0,0c0,0,0-0.1,0.1-0.1c0,0,0.1-0.1,0.1-0.1c0,0,0-0.2,0-0.2
				l0.1-1.5l0.1-1l0-0.2c0,0-0.2,0.3-0.2,0.3c0,0-0.1,0.1-0.1,0.1c0,0-0.2,0.3-0.2,0.3C78.5,70.6,78,70.9,77.6,70.8
				C77.6,70.9,77.6,70.9,77.6,70.8L77.6,70.8z"/>
			<path class="st7" d="M85.8,72.1c0,0,0.1,0,0.1,0c0.2,0,0.5,0,0.6-0.1c0.1-0.1,0.1-0.3,0.1-0.3c0-0.2,0-0.2-0.2-0.7
				c-0.1-0.2-0.1-0.2-0.1-0.5c0,0,0-0.2,0-0.3c0-0.1,0.2-0.6,0.2-0.7l0,0c-0.1,0.1-0.1,0.1-0.2,0.2c0,0-0.1,0.1-0.1,0.1
				c-0.2,0-0.5-0.3-0.5-0.3c-0.1-0.1-0.2-0.2-0.2-0.4c0-0.1,0-0.1,0-0.2c0.1-0.2,0.1-0.2,0.1-0.3c0.1,0,0.1,0,0.2,0.2
				c0,0,0.1,0.1,0.2,0.1l0.1,0l0.6-0.4l0.3-0.2c0,0,0-0.2,0-0.2c0-0.1,0.1-0.2,0.1-0.3c0,0,0.1,0,0.1,0c0.1,0,0.1,0,0.3,0.2
				c0.1,0,0.3,0.1,0.3,0.2c0.1,0.1,0.2,0.2,0.2,0.3c0,0,0,0.2,0,0.2c0,0-0.1,0.3-0.3,0.3C87.4,69.2,87,70,87,70.4
				c0,0.3,0.2,0.6,0.5,0.9c0,0,0.1,0.1,0.1,0.1l0.2-0.3l0.4-0.7l0.1-0.2l0.3-0.7c0.1-0.2,0.3-0.9,0.3-1.1c0-0.1,0-0.1-0.1-0.2
				c-0.1-0.1-0.1-0.1-0.1-0.1c0,0,0-0.1,0-0.1l0.3-0.1c0-0.1-0.2-0.7-0.2-0.8c-0.1-0.2-0.1-0.2-0.1-0.4L88.3,66
				c0-0.1-0.1-0.1-0.3-0.2c-0.1,0-0.3-0.3-0.3-0.5c0.2,0,0.2,0.1,0.4,0.1c0.2,0,0.7,0.2,0.7,0.3c0,0,0.3,0.3,0.3,0.3
				c0,0.1,0.1,0.2,0.1,0.3c0,0.1,0.3,0.8,0.3,0.8l0.2,0.5c0.1,0.1,0.2,0.3,0.3,0.5l0.4,0.9c0.1,0.3,0.2,0.3,0.3,0.6
				c0.1,0.2,0.7,1.2,0.7,1.2l0.4,0.6c0.1,0.1,0.1,0.2,0.2,0.3l0,0.1c-0.1,0-0.4,0.1-0.5,0.1c0,0-0.7-0.1-0.8-0.1
				c-0.2-0.2-0.5-0.6-0.6-0.8l-0.3-0.6c-0.1-0.1-0.3-0.8-0.3-0.9l0,0.1l-0.2,0.8c-0.1,0.2-0.3,0.6-0.4,0.7c-0.1,0.2-0.1,0.2-0.4,0.4
				c-0.1,0-0.1,0-0.4,0.2c-0.1,0-0.1,0.1-0.2,0.1c0,0-0.2,0-0.3,0c-0.1,0.2-0.1,0.2-0.3,0.4c0,0-0.1,0.1-0.1,0.1c0,0,0,0,0,0
				c0,0,0,0,0.1,0c0,0,0.1,0,0.1,0c0.1,0,0.3,0,0.4,0c0,0,0.1,0,0.1,0l0.7,0h0.1l0.7,0.1l0.9,0.1c0.1,0,0.5,0.1,0.5,0.1h0.9
				c0.1,0,0.6,0,0.7,0l0,0.1c0,0.2-0.4,0.5-0.7,0.7L91,73.5c-0.1,0-0.2,0.1-0.3,0.1c0,0-0.1,0-0.2,0l-0.6-0.1l-0.1,0L89,73.2
				c-0.1,0-0.7-0.1-0.7-0.1h-0.2c0,0-0.1,0-0.1,0c0,0-0.1,0-0.1,0L87.2,73l0,0l-0.7,0c-0.1,0-0.4,0.1-0.4,0.1
				c-0.5,0-0.8-0.6-0.8-0.8c0-0.1,0-0.4,0.2-0.5c0.1,0,0.1,0,0.2,0.1C85.7,72,85.8,72.1,85.8,72.1L85.8,72.1z M86.5,65.8
				c0.1,0,0.3,0.1,0.4,0.1c0.1,0,0.3,0.1,0.3,0.1c0.2,0.2,0.4,0.6,0.4,0.8c0,0-0.1,0.3-0.1,0.3c0,0.1-0.2,0.2-0.2,0.2
				c-0.3,0-0.3,0-0.7-0.2c-0.1-0.1-0.8-0.6-0.8-1.3C86,65.7,86.2,65.7,86.5,65.8z"/>
			<path class="st7" d="M95.4,66c0.7-0.3,0.7-0.4,0.7-0.5c0-0.1,0.1-0.1,0.2-0.1c0.2,0,0.3,0.1,0.4,0.3c0,0.1,0.4,0.3,0.4,0.4
				c0,0,0.1,0.1,0.1,0.2c0,0.2,0,0.2-0.2,0.3c-0.1,0.1-0.2,0.2-0.4,0.6c0,0.1-0.1,0.4-0.1,0.4l-0.2,0.6l-0.1,0.2l-0.2,0.8l-0.3,0.8
				l0,0.1l0,0l0.1,0l0.8,0c0.1,0,0.6,0.2,0.7,0.2c0.1-0.1,0.1-0.6,0.1-0.6c0-0.1,0-0.2-0.1-0.2l-0.1-0.1c0,0-0.1-0.1-0.1-0.2
				c0-0.1,0.1-0.2,0.2-0.2c0.6,0,1,0.7,1,0.9c0,0,0,0.2,0,0.2l-0.1,0.6c0.1,0.1,0.5,0.3,0.5,0.4c0.2,0.2,0.4,0.6,0.4,0.8
				c0,0.3-0.2,0.4-0.3,0.4c0,0-0.3,0-0.6-0.3c0,0-0.3-0.2-0.3-0.2c-0.3,0.6-1,1.7-1.9,1.7c-0.1,0-0.2,0-0.2-0.1
				c0-0.1,0.3-0.4,0.3-0.5c0.2-0.3,0.4-0.7,0.6-1.2c0-0.1,0.1-0.3,0.1-0.4c0,0-0.1,0-0.1-0.1c-0.1,0-0.5-0.1-0.5-0.1
				c0,0-0.1,0-0.1,0l-0.7,0l0,0L95,71.9c-0.3,0.7-0.6,1.1-0.6,1.1c0,0-0.2,0.1-0.3,0.1c-0.1,0-0.4-0.2-0.4-0.3
				c-0.3-0.6-0.3-0.7-0.5-0.9c0,0-0.1-0.1-0.1-0.2c-0.2-0.1-0.2-0.2-0.2-0.5c0-0.1,0.2-0.6,0.4-0.7c0.3-0.2,0.8-0.3,1.1-0.4
				c0.3,0,0.3-0.1,0.3-0.3c0-0.1,0.1-0.4,0.1-0.5c0-0.1,0.2-0.8,0.2-0.9c0-0.1,0.4-1.2,0.4-1.5c-0.1,0-0.2,0.1-0.4,0.1
				c-0.3,0-1.1-0.4-1.1-0.8c0-0.1,0-0.2,0.1-0.2c0.1,0,0.3,0.1,0.3,0.1c0.1,0,0.4-0.1,0.4-0.1L95.4,66z M94.2,71.2
				c-0.4,0-0.8,0.3-0.8,0.4c0,0,0,0,0,0.1c0.1,0,0.4,0.2,0.5,0.2C94,71.8,94.2,71.4,94.2,71.2L94.2,71.2z"/>
		</g>
		<g>
			<defs>
				<polygon id="SVGID_5_" points="104.5,49.7 72.6,49.7 72.6,131.4 104.5,131.4 136.6,131.4 136.6,49.7 				"/>
			</defs>
			<clipPath id="SVGID_6_">
				<use xlink:href="#SVGID_5_"  style="overflow:visible;"/>
			</clipPath>
			<g class="st19">
				<ellipse class="st5" cx="97.9" cy="102" rx="33.6" ry="24.5"/>
				<path class="st5" d="M131.5,103c0,13.5-9.2,39.6-33.6,39.6c-26.1,0-33.6-26.1-33.6-39.6c0-13.5,15-24.5,33.6-24.5
					C116.5,78.5,131.5,89.4,131.5,103z"/>
				<g>
					<defs>
						<path id="SVGID_7_" d="M97.9,124.9C80.3,124.9,66,114.6,66,102c0-12.6,14.3-22.8,31.9-22.8c17.6,0,31.9,10.2,31.9,22.8
							C129.8,114.6,115.5,124.9,97.9,124.9z"/>
					</defs>
					<use xlink:href="#SVGID_7_"  style="overflow:visible;fill:#DBDCDC;"/>
					<clipPath id="SVGID_8_">
						<use xlink:href="#SVGID_7_"  style="overflow:visible;"/>
					</clipPath>
					<g class="st20">
						<path class="st7" d="M127.3,106.5c-0.3-1.3,0.7-2.1,0-3.3c-0.6-1-1.6-1.5-2-2.5c-0.1-0.3,0-0.6-0.2-0.9
							c-0.4-0.6-1.1-0.7-1.6-1.1c-0.5-0.5-0.2-0.7-0.5-1.1c-0.5-0.8-1.6-0.6-2.2-0.9c-0.8-0.3-1.3-1.2-2.1-1.8
							c-1.6-1.2-3.5-1.9-5.3-2.7c-1.3-0.6-3.8-2.4-4.6-0.6c-0.5,1-0.1,3.3,0.2,4.3c0.3,1.5,1.1,2.9,1.6,4.4c0.5,1.6,0.7,3.1,0.8,4.8
							c0.2,1.5,0.3,3.1,0,4.6c-0.3,1.4-0.6,2.6,0.3,3.9c0.9,1.3,2.3,1.9,2.7,3.5c0.3,1.1,0.1,2.3,0.1,3.4c0,1.5,0.4,2.1,1.8,2.5
							c1.7,0.5,3.8,0.5,4.8-1.2c0.6-1,0.7-3.1,1.7-3.6c0.5-0.3,1.3,0,1.8-0.5c0.5-0.5,0.6-1.4,1.1-2c0.6-0.7,0.9-1.3,1.4-2.1
							c0.5-0.7,1.3-1.1,1.5-2C129,109.9,127.7,108.1,127.3,106.5z"/>
						<path class="st21" d="M70.9,97.1c0.9-0.7,1.8-0.5,2.2-1.8c0.5-1.7-0.2-3.5,2.2-4.1c0.8-0.2,1.6-0.1,2.3-0.3
							c1-0.3,1.8-0.7,3-0.7c1.7,0,3.3,0.4,5-0.3c1-0.4,2-1.3,3.1-1.3c1.4,0.1,1.4,0.8,2.6,0.1c1.4-0.8,2.4-1.5,4.1-1.5
							c1.3,0,2.6,0.6,3.8,0.6c1.6-0.1,3.2-1.2,4.9-0.5c0.6,0.2,0.8,0.8,1.3,1c0.5,0.3,1.2,0.2,1.8,0.3c1.4,0.2,4.1,0.2,5,1.5
							c0.2,0.3,0.2,1,0.4,1.3c0.4,0.7,1,1,1.5,1.6c1.3,1.2,1,2.2,1.3,3.7c0.5,1.9,2.2,2.9,3.2,4.5c0.8,1.3,0.2,2.9,0.8,4.3
							c0.6,1.4,2.1,2,2.2,3.5c0.1,0.8-0.1,1.5-0.1,2.3c0,0.9,0.2,1.7,0.3,2.5c0.1,0.9,0.1,2-0.2,2.8c-0.6,1.8-1.4,3.3-2.9,4.6
							c-4.3,3.8-10.8,5.8-16.4,5.9c-6.1,0.1-12.5-0.4-18.2-2.7c-6.4-2.6-12.7-6.4-16-12.7c-1-1.9-2.8-5.7-2.2-7.9
							c0.2-0.6,0.5-1.1,1.1-1.4c0.9-0.4,1.2,0.2,1.6-0.7C69.4,99.9,69.2,98.3,70.9,97.1z"/>
						<path class="st10" d="M99.3,100.2c1.5-0.7,3.1-0.7,4.7-0.7c1.2,0,5.7,0,5.1,2.2c-1.1,0.4-2.4,0.2-3.6,0.2
							c-1.6,0-2.8,0.5-4.4,0.9c-0.9,0.2-3,1-3.8,0.4C96.3,102.3,98.5,100.6,99.3,100.2z"/>
						<path class="st9" d="M88.3,118.1c1.6,0.6,3.1,0.5,4.7,0.5c1.2,0,5.7-0.2,5-2.4c-1.2-0.3-2.4-0.1-3.6-0.1
							c-1.6,0.1-2.9-0.4-4.4-0.7c-0.9-0.2-3.1-0.9-3.8-0.2C85.2,116.1,87.5,117.8,88.3,118.1z"/>
						<path class="st9" d="M80.3,110.5c-1.7-0.3-2.9-1.2-4.3-2.1c-1-0.7-4.7-3.2-3-4.7c1.2,0.3,2.1,1.2,3.1,1.8
							c1.3,0.9,2.6,1.2,4.1,1.8c0.8,0.3,3.1,0.8,3.3,1.8C84,110.5,81.2,110.7,80.3,110.5z"/>
						<path class="st10" d="M107.7,94.1c-1.4,0.9-3,1-4.6,1.2c-1.2,0.1-5.7,0.6-5.3-1.6c1.1-0.5,2.4-0.5,3.6-0.7
							c1.6-0.2,2.8-0.9,4.2-1.4c0.8-0.3,2.9-1.4,3.7-0.8C110.4,91.7,108.4,93.7,107.7,94.1z"/>
						<g>
							<path class="st9" d="M72.7,99c0.5-0.4,1-0.7,1.6-0.9c2.1-0.8,4.3-1.5,6.2-2.5c1.3-0.7,2.6-1.5,3.9-2.2
								c0.3-0.2,0.6-0.4,0.9-0.6c-0.2-0.2-0.6-0.3-0.9-0.2c-2,0.4-4.3,1.1-6,2.4c-1.2,0.9-2.7,1.4-4,2.3c-1.1,0.7-2,1.6-3.1,2.4
								c-0.3,0.2-0.4,0.4-0.4,0.7c0.2-0.1,0.4-0.1,0.6-0.3C72,99.8,72.2,99.3,72.7,99z"/>
							<path class="st10" d="M85.3,92.8c-0.3,0.2-0.6,0.4-0.9,0.6c-1.3,0.8-2.6,1.6-3.9,2.2c-1.9,1-4.2,1.7-6.2,2.5
								c-0.6,0.2-1.1,0.5-1.6,0.9c-0.5,0.3-0.7,0.8-1.1,1.1c-0.2,0.1-0.4,0.2-0.6,0.3c-0.1,0.6,0.5,1.2,1.1,1.4
								c1.3,0.4,2.6-0.1,3.8-0.4c2.4-0.5,4.9-0.8,7-2.2c1.5-1,2.9-2.7,3-4.6C86,93.8,85.7,93.1,85.3,92.8z"/>
						</g>
						<path class="st13" d="M83.9,95.2c-0.4,0.2-0.9,0.4-1.3,0.6c-0.7,0.3-1.3,0.7-2,1c-1.2,0.5-2.6,1-3.9,1.5
							c-0.5,0.2-1.1,0.5-1.6,0.7c-0.2,0.1-0.4,0.2-0.5,0.3c0.8-0.2,1.7-0.5,2.4-0.8c1.2-0.4,2.4-1,3.6-1.5c1.2-0.5,3.2-1.3,3.6-1.9
							L83.9,95.2z"/>
						<path class="st13" d="M84.2,96.3c-0.3,0.2-0.7,0.3-1.1,0.5c-0.6,0.2-1.1,0.5-1.6,0.8c-1,0.4-2.1,0.8-3.2,1.2
							c-0.4,0.2-0.9,0.4-1.3,0.5c-0.2,0.1-0.4,0.1-0.4,0.2c0.6-0.1,1.4-0.4,2-0.6c1-0.3,2-0.8,2.9-1.1c1-0.4,2.6-1,2.9-1.5
							L84.2,96.3z"/>
						<g>
							<path class="st9" d="M100.8,110.8c0.5,0.3,1,0.6,1.6,0.8c2.1,0.6,4.4,1.1,6.4,2c1.4,0.6,2.7,1.3,4.1,1.9
								c0.3,0.2,0.6,0.3,0.9,0.5c-0.2,0.2-0.5,0.3-0.9,0.3c-2.1-0.2-4.4-0.8-6.1-1.9c-1.3-0.8-2.8-1.2-4.1-2
								c-1.1-0.6-2.2-1.5-3.2-2.2c-0.3-0.2-0.4-0.4-0.4-0.6c0.2,0,0.4,0.1,0.6,0.2C100.1,110.1,100.4,110.5,100.8,110.8z"/>
							<path class="st10" d="M113.9,116c-0.3-0.2-0.6-0.3-0.9-0.5c-1.3-0.7-2.7-1.3-4.1-1.9c-2-0.9-4.3-1.4-6.4-2
								c-0.6-0.2-1.1-0.4-1.6-0.8c-0.5-0.3-0.7-0.7-1.2-1c-0.2-0.1-0.4-0.2-0.6-0.2c-0.1-0.6,0.4-1.2,1-1.4c1.2-0.5,2.6-0.1,3.8,0.1
								c2.4,0.3,4.9,0.4,7.1,1.7c1.6,0.9,3.1,2.5,3.4,4.4C114.5,114.9,114.3,115.6,113.9,116z"/>
						</g>
						<path class="st13" d="M112.4,113.7c-0.4-0.2-0.9-0.3-1.4-0.5c-0.7-0.3-1.3-0.6-2.1-0.8c-1.3-0.4-2.7-0.8-4-1.2
							c-0.6-0.2-1.1-0.4-1.7-0.6c-0.2-0.1-0.4-0.1-0.5-0.2c0.8,0.1,1.7,0.4,2.5,0.6c1.2,0.4,2.5,0.8,3.7,1.2c1.2,0.4,3.3,1,3.7,1.6
							L112.4,113.7z"/>
						<path class="st13" d="M112.6,112.5c-0.4-0.1-0.8-0.3-1.1-0.4c-0.6-0.2-1.1-0.4-1.7-0.6c-1-0.3-2.2-0.6-3.2-1
							c-0.5-0.2-0.9-0.3-1.4-0.4c-0.2-0.1-0.4-0.1-0.4-0.2c0.7,0.1,1.4,0.3,2,0.5c1,0.3,2,0.6,3,0.9c1,0.3,2.7,0.8,3,1.3
							L112.6,112.5z"/>
						<path class="st16" d="M95,97.9c0,1-0.8,1.9-1.9,1.9c-1,0-1.9-0.8-1.9-1.9c0-1,0.8-1.9,1.9-1.9C94.2,96.1,95,96.9,95,97.9z"/>
						<path class="st16" d="M110.9,105.5c0,1-0.8,1.9-1.9,1.9c-1,0-1.9-0.8-1.9-1.9c0-1,0.8-1.9,1.9-1.9
							C110.1,103.6,110.9,104.4,110.9,105.5z"/>
						<path class="st16" d="M96.3,109.1c0,1-0.8,1.9-1.9,1.9c-1,0-1.9-0.8-1.9-1.9c0-1,0.8-1.9,1.9-1.9
							C95.4,107.2,96.3,108.1,96.3,109.1z"/>
						<path class="st16" d="M82.9,113.1c0,1-0.8,1.9-1.9,1.9c-1,0-1.9-0.8-1.9-1.9c0-1,0.8-1.9,1.9-1.9
							C82.1,111.2,82.9,112,82.9,113.1z"/>
						<path class="st16" d="M95.2,122.8c0,1-0.8,1.9-1.9,1.9c-1,0-1.9-0.8-1.9-1.9c0-1,0.8-1.9,1.9-1.9
							C94.4,120.9,95.2,121.7,95.2,122.8z"/>
						<path class="st16" d="M100.4,90.1c0,1-0.8,1.9-1.9,1.9c-1,0-1.9-0.8-1.9-1.9c0-1,0.8-1.9,1.9-1.9
							C99.6,88.2,100.4,89.1,100.4,90.1z"/>
						<path class="st16" d="M83.3,99.8c0,1-0.8,1.9-1.9,1.9c-1,0-1.9-0.8-1.9-1.9c0-1,0.8-1.9,1.9-1.9
							C82.5,97.9,83.3,98.8,83.3,99.8z"/>
						<path class="st22" d="M104.6,96.5c2.3-0.2,4.3-2,6.7-1.3c1.9,0.6,2.7,1.9,3.7,3.3c0.5,0.8,1.4,1.7,1.7,2.8
							c0.8,3.4-3.7-0.3-4.5-1.1c-1.7-1.7-2.6-1.7-4.7-2.4c-0.8-0.3-2-0.3-2.6-1.1L104.6,96.5z"/>
						<path class="st23" d="M104.2,96.4c-0.4,0.5,1.6,1.4,1.9,1.5c1.2,0.6,2.3,0.8,3.4,1.6c1,0.8,1.9,1.6,3,2.2c1,0.5,2,1.4,3.1,1.5
							c0.3,0,0.8,0,1-0.3c0.1-0.2,0.2-0.5,0.2-0.7c0.1-0.4-0.1-0.7-0.3-1c-0.9-1.1-2.3-1.7-3.5-2.3c-1.4-0.6-2.8-1.1-4.1-1.6
							c-0.7-0.3-1.4-0.5-2.2-0.7c-0.4-0.1-0.7-0.3-1.2-0.4C105.2,96.4,104.4,96.2,104.2,96.4z"/>
						<path class="st22" d="M88,97.9c-2.6,3-1.4,8.4-1.5,12c-1.3,0-2.1-2-2.5-3c-0.6-1.7-0.3-3,0.2-4.7c0.3-1.4,1.9-5.2,4-4.3H88z"
							/>
						<path class="st23" d="M86.6,109.9c0.1-2.4,0.3-4.7,0.5-7c0.2-1.6,0.8-3.4,1-5c-1.6-0.1-1.4,0.2-2,1.5c-0.7,1.6-1,3.2-0.9,4.9
							c0.1,1.3,0.4,2.6,0.7,3.9c0,0.3,0,1.1,0.2,1.3C86.1,109.6,86.6,110.3,86.6,109.9z"/>
						<g>
							<path class="st24" d="M92.1,93.7c-0.4-0.2-0.7-0.6-1.1-0.8c-0.4-0.2-0.9-0.1-1.3-0.3c-0.9-0.3-1.8-0.8-2.7-1.1
								c-0.6-0.2-1.2,0-1.7-0.1c0-0.1,0-0.3,0-0.4c0.9,0,1.7,0.1,2.6,0.3c0.5,0.1,1,0.3,1.5,0.5c0.5,0.2,1.1,0.3,1.6,0.6
								c0.7,0.4,1.3,0.8,2.1,0.9c0.6,0.1,2.5,0,2.5,0.9C94.5,94.5,93,94.2,92.1,93.7z"/>
							<path class="st25" d="M85.2,91.1c3.7-0.2,6.7,3,10.3,2.8c0.1-0.5-2-0.8-2.4-0.9c-1-0.4-1.9-1-2.9-1.4
								C89.6,91.4,85.1,90.3,85.2,91.1L85.2,91.1z"/>
						</g>
						<g>
							<path class="st24" d="M95.5,104.8c0.5,0.1,0.8,0.4,1.3,0.5c0.4,0,0.9-0.1,1.3-0.1c1,0,2,0.2,2.9,0.2c0.6,0,1.1-0.3,1.7-0.4
								c0.1,0.1,0.1,0.2,0.1,0.3c-0.8,0.3-1.7,0.5-2.5,0.6c-0.5,0.1-1,0-1.6-0.1c-0.6-0.1-1.2,0-1.7-0.1c-0.8-0.1-1.5-0.4-2.3-0.2
								c-0.6,0.1-2.3,0.8-2.6-0.1C93,104.8,94.5,104.6,95.5,104.8z"/>
							<path class="st25" d="M102.9,105.1c-3.5,1.3-7.3-0.7-10.7,0.6c0.1,0.5,2.1,0.1,2.6,0.1c1.1,0,2.1,0.3,3.2,0.4
								C98.6,106.2,103.1,105.9,102.9,105.1L102.9,105.1z"/>
						</g>
						<g>
							<path class="st24" d="M97.7,112.8c0.3,0.4,0.3,0.9,0.6,1.2c0.3,0.3,0.7,0.5,1,0.8c0.7,0.7,1.2,1.5,1.9,2.2
								c0.4,0.4,1,0.6,1.5,0.9c0,0.1-0.1,0.2-0.2,0.3c-0.8-0.4-1.5-0.8-2.2-1.4c-0.4-0.3-0.7-0.7-1.1-1.1c-0.4-0.4-0.9-0.8-1.2-1.2
								c-0.5-0.7-0.8-1.3-1.4-1.8c-0.5-0.3-2.2-1.1-1.8-1.9C95.9,111.1,97.1,112,97.7,112.8z"/>
							<path class="st25" d="M102.8,118.2c-3.4-1.5-4.7-5.6-8-7.1c-0.3,0.4,1.4,1.6,1.8,1.9c0.8,0.8,1.3,1.7,2,2.5
								C98.9,116,102.4,118.9,102.8,118.2L102.8,118.2z"/>
						</g>
						<g>
							<path class="st24" d="M115.2,108.1c-0.1-0.4,0-0.9-0.1-1.4c-0.1-0.4-0.5-0.7-0.7-1.1c-0.4-0.9-0.6-1.9-1.1-2.7
								c-0.3-0.5-0.8-0.9-1.1-1.3c0.1-0.1,0.2-0.2,0.3-0.2c0.6,0.6,1.1,1.3,1.6,2.1c0.3,0.5,0.4,0.9,0.6,1.4
								c0.2,0.5,0.5,1.1,0.7,1.6c0.2,0.8,0.3,1.5,0.7,2.2c0.3,0.5,1.7,1.8,1,2.4C116.3,110.4,115.5,109.1,115.2,108.1z"/>
							<path class="st25" d="M112.4,101.2c2.7,2.6,2.4,6.9,5,9.4c0.4-0.3-0.8-2-1-2.4c-0.5-1-0.6-2.1-1-3.1
								C115.2,104.7,113,100.7,112.4,101.2L112.4,101.2z"/>
						</g>
						<g>
							<path class="st24" d="M102.4,122.2c-0.3-0.3-0.4-0.7-0.7-1c-0.3-0.2-0.6-0.3-0.9-0.5c-0.6-0.4-1.2-1.1-1.8-1.5
								c-0.4-0.2-0.9-0.2-1.3-0.4c0-0.1,0-0.3,0.1-0.3c0.7,0.1,1.3,0.3,1.9,0.6c0.4,0.2,0.7,0.4,1,0.7c0.3,0.3,0.8,0.5,1.1,0.8
								c0.5,0.5,0.8,1,1.4,1.2c0.4,0.2,1.9,0.3,1.7,1.3C104,123.3,103,122.8,102.4,122.2z"/>
							<path class="st25" d="M97.6,118.6c2.8,0.4,4.5,3.9,7.3,4.3c0.1-0.5-1.3-1-1.6-1.2c-0.7-0.5-1.3-1.2-2-1.8
								C100.9,119.6,97.8,117.9,97.6,118.6L97.6,118.6z"/>
						</g>
						<g>
							<path class="st24" d="M95.1,99.7c-0.3,0.2-0.8,0.1-1.1,0.3c-0.3,0.2-0.5,0.5-0.7,0.7c-0.6,0.5-1.4,0.8-2,1.3
								c-0.4,0.3-0.5,0.7-0.8,1.1c-0.1,0-0.2-0.1-0.3-0.2c0.3-0.6,0.7-1.1,1.2-1.6c0.3-0.3,0.6-0.5,1-0.7c0.4-0.2,0.7-0.6,1.1-0.8
								c0.6-0.3,1.2-0.4,1.6-0.9c0.3-0.4,0.9-1.6,1.7-1.2C96.7,98.5,95.9,99.4,95.1,99.7z"/>
							<path class="st25" d="M90.2,103c1.3-2.6,5.2-3,6.4-5.5c-0.4-0.3-1.4,0.9-1.7,1.1c-0.7,0.5-1.6,0.8-2.3,1.3
								C92.1,100.2,89.5,102.6,90.2,103L90.2,103z"/>
						</g>
						<g>
							<path class="st24" d="M83.7,110.5c-0.2-0.4-0.2-0.9-0.5-1.3c-0.2-0.4-0.7-0.6-0.9-0.9c-0.6-0.7-1.1-1.6-1.7-2.4
								c-0.4-0.4-1-0.6-1.4-1c0-0.1,0.1-0.2,0.2-0.3c0.8,0.4,1.4,1,2.1,1.6c0.4,0.4,0.6,0.8,1,1.2c0.3,0.5,0.8,0.9,1.1,1.4
								c0.4,0.7,0.7,1.4,1.3,1.9c0.5,0.4,2.1,1.3,1.6,2.1C85.4,112.5,84.2,111.4,83.7,110.5z"/>
							<path class="st25" d="M79.2,104.7c3.3,1.8,4.1,6.1,7.3,7.8c0.3-0.4-1.3-1.7-1.6-2c-0.7-0.9-1.1-1.8-1.8-2.7
								C82.8,107.2,79.6,104,79.2,104.7L79.2,104.7z"/>
						</g>
						<path class="st9" d="M97.6,103.4c0.9-0.6,1.6-1.4,2.7-1.7c1.3-0.4,2.8-0.4,4.1-0.5c0.9,0,4.5-0.7,4.8,0.6
							c-0.6,0.6-2,0.3-2.8,0.3c-0.5,0-1,0-1.5,0c-0.8,0-1.1,0.2-1.7,0.5c-1.1,0.6-2.2,0.4-3.4,0.7c-0.7,0.1-1.3,0.3-2.1,0.3
							L97.6,103.4z"/>
						<path class="st10" d="M88.1,116.6c1.3,0.7,2.9,1,4.4,1c1.8,0.1,3.6-0.5,5.5-0.4c0,0,0,0.1,0,0.1c-0.8,0.6-2,1.3-2.9,1.5
							c-0.7,0.2-1.6-0.1-2.4,0c-0.6,0.1-1.2,0.1-1.9,0.1c-1.4,0-2.5-0.1-3.6-1c-0.4-0.3-1.6-1.7-1.1-2.1
							C86.5,115.4,87.7,116.3,88.1,116.6z"/>
						<path class="st13" d="M93,118.1c-1,0.1-2.1,0.1-3.1,0c-0.7-0.1-1.3-0.5-1.9-0.5c-0.1,0.9,4.7,1.5,5.2,0.7L93,118.1z"/>
						<path class="st13" d="M99.6,100.8c1.2-0.5,3.5-1.3,4.8-0.9c-1,0.2-2,0.2-3,0.4C100.7,100.4,100.2,100.8,99.6,100.8L99.6,100.8
							z"/>
						<path class="st13" d="M102,100.5c1.3-0.3,3.6-0.7,4.9,0c-1,0-2-0.2-3-0.2C103.2,100.4,102.6,100.7,102,100.5L102,100.5z"/>
						<path class="st23" d="M105,115.3c1.4,0.3,2.9,0.1,4.4,0.2c1.4,0.1,2.7,0.3,4.1,0.3c1.4,0.1,2.8,0,4.1,0.2
							c0.2,1.2-2.1,1.8-2.9,2.1c-1.8,0.4-4.4,0.3-6.2,0c-1.8-0.4-2.4-1.3-3.3-2.6L105,115.3z"/>
						<path class="st22" d="M105.2,115.2c0.9,0.7,1.5,1.3,2.7,1.9c1,0.5,2.2,0.5,3.4,0.5c1.5,0,2.9,0,4.3-0.6
							c0.8-0.4,1.7-0.5,2.3-0.9c1.5,2-6.2,2.7-7.1,2.7c-1.6,0-3-0.4-4.2-1.2c-1-0.7-0.6-1.2-1.2-2.1L105.2,115.2z"/>
						<path class="st16" d="M109.4,119.8c0,1-0.8,1.9-1.9,1.9c-1,0-1.9-0.8-1.9-1.9c0-1,0.8-1.9,1.9-1.9
							C108.6,117.9,109.4,118.7,109.4,119.8z"/>
					</g>
				</g>
			</g>
		</g>
		<g>
			<path class="st14" d="M104.4,71.6l0.4-0.1l0-0.1c0.8,0.1,0.9,0,1.2,0l2.9-0.1l3.4-0.4c0.2,0,1.2,0,1.3,0c0.3,0,2.4-0.3,2.4-0.3
				c0-0.1-0.2-0.8-0.2-0.9c0-0.1,0.1-0.5,0.1-0.5l-0.1-2.3c0-0.2,0.1-1.2,0.1-1.5c0-0.1-0.2-0.2-0.3-0.2c-0.2,0-1.8,0.3-2.1,0.3
				c-1.2,0-2.6-0.9-3.1-1.2c-0.2-0.1-1.1-0.5-1.2-0.6c0,0-0.5-0.3-0.6-0.4l0-0.1c0.2,0,1.4,0,1.6,0c0.1,0,0.4-0.1,1-0.1l2.1-0.3
				c0.1,0,0.5,0,0.6,0c0.3-0.1,1.7-0.3,1.9-0.4c0.1-0.1,0.2-0.2,0.2-0.3l-0.1-3.5c0-0.2,0-1.2,0-1.4c0-0.4,0-0.5-0.4-0.5
				c-0.4,0.1-1.4,0.3-1.8,0.3c-0.5,0-0.6,0-1.2,0.2c-0.1-0.1-0.9-0.2-1.1-0.2c-0.3-0.1-0.7-0.3-1-0.5l-1.9-1.3
				c-0.1,0-0.5-0.2-0.5-0.3c-0.1-0.1-0.5-0.5-0.5-0.7c0.2-0.1,1.3,0.2,1.6,0.2c0.3,0,0.8-0.1,1-0.1l2-0.1l0.3-0.1l2.9-0.3l3.1-0.2
				l2.7-0.4l0.6-0.2c0.2-0.3,0.8-0.8,1.1-0.8c0.1,0,0.7,0.2,0.8,0.2c0.1,0,0.2,0,0.3,0.1l2.1,0.8c0.5,0.2,1.4,0.8,1.4,1.1
				c0,0.2,0,0.3-0.2,0.8c-0.1,0.1-0.6,0.4-0.7,0.4l-0.5,0.1l-3.5,0.4c-0.3,0-0.4,0-1.3,0c-0.1,0-0.3,0.1-0.4,0.1
				c-0.1,0-0.5,0.1-0.6,0.1c-0.1,0-0.3,0-0.3,0c-0.1,0-0.5,0.1-0.6,0.1c-0.2,0-0.4,0-0.5,0v0.1c0.7,0.4,1.9,1.3,1.9,1.9
				c0,0.2-0.4,1.3-0.4,1.4c0,0.2-0.2,1.6-0.2,1.8c1,0,1.1,0,1.6-0.3c0.3-0.1,0.9-0.2,1-0.2c0.3,0,2.2,0.8,2.8,1.2
				c0.1,0.1,0.7,0.6,0.7,0.9c0,0.2-0.1,0.4-0.2,0.5c-0.4,0.3-1.4,0.5-1.6,0.5h-0.1l-2.4,0.2c-1.2,0.1-1.9,0.2-2,0.5l-0.1,2
				c0,0.3-0.2,1.8-0.1,2.2l-0.3,1.2l0,0.1l0.5,0l3.5-0.1c0.1,0,0.5,0.1,0.6,0.1c0.2,0,1.2-0.3,1.5-0.4l0.5-0.2
				c1.4-0.2,4.3,2.1,4.5,2.4l0,0.4c0.1,0.2,0.2,0.3,0.2,0.4c0,0.1-0.1,0.3-0.1,0.3c0,0.2,0,0.3-0.2,0.4c-0.1,0.1-0.9,0.4-1.1,0.4
				c-0.1,0-0.3,0-0.7-0.1l-1.9-0.6c-0.2-0.1-1.8-0.2-1.8-0.2l-2.4-0.1l-4-0.1l-2.3,0.1c-0.1,0-0.8,0.1-0.9,0.1H115l-2.5,0.4
				c-0.1,0-1.2,0.3-1.3,0.3c-0.8,0.3-1.2,0.5-1.6,0.5c-0.2,0-0.8-0.3-1-0.3c-0.1,0-0.4-0.1-0.6-0.2l-1.9-1.2c-0.4-0.3-1.4-1-1.7-1.4
				L104.4,71.6z M121,65.1c0.2,0,0.3,0,1,0.2c0.1,0,0.6,0.1,0.7,0.1c0.3,0.1,1.5,0.5,1.8,0.6c1.3,0.5,2.1,0.9,2.1,2.2
				c0,0.3,0,0.8-0.3,1c-0.5,0.5-0.7,0.7-1.6,0.7c-0.4,0-1.4-0.6-1.8-1.7c-0.6-1.4-1.4-2.3-1.6-2.6c-0.1-0.1-0.5-0.2-0.5-0.3
				C120.8,65.1,121,65.1,121,65.1z"/>
			<path class="st14" d="M108.2,89l2.4-0.3c0.8-0.1,0.9-0.1,1.5-0.1c0,0,0.7-0.1,0.8-0.1c0,0,0.3,0,0.4,0l2.5-0.3h0.5
				c0.1-0.1,0.1-0.2,0.1-0.4c-0.3-0.5-0.5-0.5-1.4-0.8c-0.1,0-0.6-0.2-0.7-0.2c-0.1,0-0.2-0.1-0.3-0.1l0-0.1
				c0.2-0.1,0.3-0.2,0.4-0.4c0.5-0.3,0.7-0.4,1.5-0.5c0.5,0,0.9,0,2.2-1.3c0.2-0.2,1.6-2.1,1.8-2.5c-0.1,0-4,0.9-4,0.9
				c-0.1,0-0.5,0.2-0.5,0.2c-0.1,0.1-0.8,0.2-1,0.2c-0.2,0.3-0.8,0.5-1.3,0.5c-0.2,0-0.8-0.1-0.9-0.2c-0.1,0-0.6-0.5-0.7-0.6
				l-1.5-1.1c-0.7-0.5-1.4-1.8-1.4-1.9l0.2,0c0-0.1,0.1-0.1,0.1-0.1c0.1,0,0.6,0.2,0.7,0.3c0,0,0.8,0.1,0.9,0.2
				c0.1,0,0.8,0.1,0.9,0.2c0.1,0,0.9,0.1,1,0.1c0.1,0,0.6-0.1,0.7-0.1c0.5,0,0.6,0,1-0.2c0.1,0,0.1,0,0.2,0l2.3-0.2
				c0.1,0,0.6-0.2,0.7-0.2c0.2,0,0.9-0.2,1.1-0.1c0.2-0.2,1.8-0.4,1.9-0.4c0.7-0.4,0.8-0.4,1.2-0.9c0.1,0,0.1-0.1,0.2-0.1
				c0.6,0,1.5,0.6,2,1c0.3,0.2,1.4,0.8,1.6,1c0.6,0.5,0.7,0.8,0.7,1.7c0,0.1-0.3,0.5-0.3,0.6c-0.1,0-0.4,0.3-0.5,0.3
				c-0.3,0.1-1.6,0.4-1.8,0.5l-2.7,1.9h-0.1c-0.3,0.2-1.7,1.1-1.9,1.3l0.1,0.2c0.5,0.3,0.6,0.5,0.9,1c0,0,0.1,0.1,0.1,0.1l3-0.1
				c0.5,0,3-0.1,3.2,0c0.1,0.1,0.2,0.1,0.3-0.1l0.1,0l0.1-0.1l0.2-0.1c0.1-0.5,0.7-0.5,0.7-0.5c0.2,0,2.7,1.2,3.6,1.9
				c0,0,0.1,0.2,0.1,0.2v0.2c0,0.1,0.2,0.3,0.2,0.4c0,0.2,0,0.9-0.1,1c-0.3,0.4-1.1,0.6-1.6,0.6c-0.2,0-0.3-0.1-1.5-0.4
				c-0.1-0.1-1.3-0.3-1.5-0.3l-2-0.1c-0.3,0-1.6,0.1-1.9,0.1c-0.2,0-0.9-0.1-1.1,0c-0.1,0-0.8,0-0.9,0.1c-0.2,0-0.2,0.1-0.2,0.2
				c0,0.2,0.3,1,0.2,1.2l-0.1,2.1c0,0.2,0.1,1,0.1,1.1c0,0.2-0.1,0.9-0.1,1.1c0,0.5-0.3,1.6-0.5,2.1c-0.4,1.3-0.9,1.8-2,2.7
				c0,0-0.9,0.6-1.2,0.6c-0.8,0-1-0.3-1.5-1.4c-0.3-0.5-1.6-2.7-3.8-3.7c-0.2-0.2-0.2-0.2-0.2-0.4l0.1-0.1l0.6,0.1l2.3,0.2
				c0.2,0,1.8,0,2,0c0.2-0.3,0.4-0.9,0.4-1.2l0.1-2.1c0-0.3,0-2,0-2.3c-0.5,0.1-1.5,0.2-2.2,0.2c0,0-1.6,0.1-1.6,0.1l-1.9,0.3
				c-0.2,0-1.5,0.3-1.6,0.4c-0.3,0.3-0.4,0.4-0.8,0.4c-0.6,0-1.4-0.4-2-0.6c-0.3-0.1-1.4-0.9-1.6-0.9c-0.1-0.1-0.6-0.5-0.7-0.6
				c-0.3-0.3-0.3-0.4-0.6-0.7v-0.1c0.1,0,0.8,0.2,0.9,0.2c0.1,0,0.4-0.1,0.5-0.1c0.6,0,0.7,0,1.7-0.2c0.3,0,0.5,0,0.8,0L108.2,89z"
				/>
			<path class="st14" d="M103.5,118.1c0.3,0.1,0.3,0.2,0.6,0.2c0.6-0.2,0.7-0.2,1.6-0.2c0.4,0,2.3-0.3,2.6-0.3l3.1-0.3l0.3-0.1
				l0.1-0.4l0.1-3.4l-0.1-0.6c-0.3,0.1-0.4,0.2-0.5,0.2c-0.1,0-1.7-0.4-2.5-0.9c-0.2-0.1-1.7-1.2-1.8-1.3c0-0.1,0-0.1,0-0.2
				c0-0.1,0.1-0.4,0.1-0.5l0.6,0.1c0.2,0.3,1.4,0.3,1.5,0.3c0.2,0,2.4-0.3,2.4-0.3l0.1-0.1v-0.3l-0.1-2.4c0-0.3,0-0.4-0.1-0.5l0-0.1
				c-0.3-0.3-0.4-0.3-1.1-0.5c-0.1,0-0.5-0.3-0.6-0.3l-0.3-0.5c0.2,0,1.2-0.3,1.4-0.3c0.2,0,0.4,0,0.4,0c0.3,0,0.4-0.1,0.6-0.1
				c0.6,0.1,0.7,0.1,1.2,0.5c0.1,0.1,1,0.4,1.2,0.5c0.2,0.1,1,0.7,1,1.1c0,0.1,0,0.1-0.1,0.3c-0.4,0.4-0.4,1.5-0.4,2.3l0,0l3.1-0.4
				l2.7-0.2v-0.2l0-2.3c0-0.3,0-1,0-1.3c-0.1-0.1-0.6-0.5-0.7-0.5c-0.3-0.1-0.4-0.2-1.1-0.8c0.1-0.1,0.1-0.1,0.2-0.1
				c0.3,0,0.4,0,0.9-0.2l0.7-0.1c0.2,0.1,0.3,0.1,1,0.2c0.1,0,0.4,0.2,0.5,0.2c0.2,0.1,1,0.3,1.2,0.4c0.4,0.2,0.8,0.5,1,0.7
				c0.2,0.3,0.3,0.3,0.4,0.4l0.1,0.5c-0.1,0.2-0.4,1.2-0.4,1.4c-0.1,0.3-0.1,0.4-0.1,0.6l0.2,0.1l0.1-0.2l0.7,0
				c0.3,0.3,2.2,1.1,2.5,1.3c0.1,0.1,0.4,0.3,0.4,0.5c0,0.2-0.1,0.8-0.5,1c-0.9,0.4-1.4,0.4-1.6,0.4c-0.1,0-0.8-0.1-0.9-0.1
				c-0.3,0-0.8,0-0.8,0.2l-0.2,2.2v0.7l-0.2,2.2l0.2,0.1c0.2,0,1.5-0.2,1.6-0.2c0.1,0,0.5,0.1,0.6,0.1c0.1,0,0.1,0,0.3-0.2
				c0.2-0.1,0.4-0.1,0.7-0.1c0.3,0,2,0.4,2.8,1.5c0.1,0.1,0.7,0.7,0.8,0.8c0.1,0.1,0.1,0.3,0.1,0.5c-0.3,0.4-1.2,0.6-1.4,0.6
				c-0.1,0-0.8,0-0.8,0c-0.1,0-0.4,0.1-0.5,0l-2.4-0.5c-0.1,0-1.4-0.2-1.5-0.2c-0.2,0-0.2,0-0.3,0.5c0,0.2-0.1,1.3-0.1,1.6
				c0,0.1-0.1,0.7-0.1,0.7c0,0.9-0.1,1.8-0.5,2.8l-0.7,2c0,0.1-0.7,1.1-1,1.1c-0.1,0-0.4-0.5-0.5-0.6c-0.2-0.4-0.2-0.8-0.2-1
				c0-0.2-0.2-1.1-0.2-1.2l-0.1-2.3v-0.1l-0.1-2.2l-0.1-1.1l-0.2-0.1l-2.4,0c-0.1,0-0.8,0.1-0.9,0.1c-0.2,0-1.3,0.2-1.6,0.2
				c-0.9,0-1,0-1.1,0.4c-0.4,2.2-3.1,6.2-7.7,6.2c-0.3,0-0.5-0.1-0.7-0.2c0.3-0.1,1.2-0.4,1.9-1c0.2-0.2,1-1,1.2-1.1
				c0.2-0.3,1.4-1.5,1.5-1.8c0.2-0.4,0.6-1.2,0.6-1.8c-0.5,0-0.6,0-1.4,0.5c-0.2,0.1-1.1,0.4-1.2,0.4c-0.3,0-0.7-0.1-0.9-0.2
				L106,120c-0.3-0.1-0.8-0.3-1.6-0.8c-0.3-0.2-0.3-0.2-0.5-0.3c-0.1-0.3-0.2-0.4-0.5-0.6L103.5,118.1z M118.3,117.2
				c0.2,0,2.6-0.1,2.7-0.1l0-0.8l0.1-2.9L121,112l-0.1-0.1l-3.1,0.3c-0.1,0-0.5,0-0.6,0c-0.8,0-1.6,0.1-2.1,0.3v0.4
				c0.2,0,1.2,0.3,1.4,0.3c0.6,0.1,2.1,0.5,2.7,1.2c0.2,0.2,0.5,0.7,0.5,0.8c0,0.1-0.2,1-0.3,1.1c-0.1,0.1-0.5,0.4-0.6,0.4
				c-0.3,0.1-0.4,0.1-0.5,0.1c-0.4,0-1.4-0.3-2.1-1.6l-0.9-1.5c-0.1-0.2-0.2-0.2-0.3-0.2l-0.1,2.8c0,0.1-0.1,0.9-0.1,1.1
				c0,0.1,0,0.1,0.1,0.1L118.3,117.2z"/>
		</g>
		<path class="st14" d="M102,81.7c0,3.2-5.4,5.7-12,5.7c-6.6,0-12-2.6-12-5.7c0-3.2,5.4-5.7,12-5.7C96.6,76,102,78.5,102,81.7z"/>
		<g>
			<path class="st15" d="M83.1,83.6l-0.5,0l-0.5-0.1c-0.1,0-0.6-0.2-0.7-0.3c-0.3-0.2-0.5-0.4-0.5-0.7c0,0,0-0.3,0.1-0.3
				c0,0,0.1,0,0.1,0c0.1,0,0.1,0.1,0.2,0.3c0.1,0.1,0.3,0.3,0.4,0.3c0.4,0.1,1.1,0.1,1.4,0.1c0.1,0,0.4,0,0.5-0.1
				c0.1-0.1,0.1-0.1,0.2-0.1c0.2,0,0.6,0.2,0.6,0.5c0,0.1-0.1,0.2-0.2,0.3c0,0-0.3,0.1-0.3,0.1l-0.6,0.1L83.1,83.6z M82,79.8
				L82,79.8l0.4,0c0,0,0.3,0,0.3,0c0.1,0,0.5-0.1,0.5-0.1c0,0,0.3,0,0.3,0.1c0,0,0.3,0.2,0.3,0.3c0.2,0.3,0.3,0.3,0.3,0.4
				c0,0,0,0.1,0,0.1c0,0-0.1,0.1-0.2,0.1l-0.4,0.1l0,0L83,80.9c0,0-0.3,0.1-0.4,0.1c-0.1,0-0.1,0-0.1-0.1c0-0.1,0-0.1,0.2-0.2
				c0.1,0,0.4-0.3,0.4-0.4c0-0.1,0-0.1-0.2-0.1h-0.5c0,0-0.3,0-0.3,0c-0.3-0.1-0.3-0.1-0.4-0.2c0,0-0.1,0-0.1,0
				c-0.2-0.2-0.2-0.2-0.2-0.2c0,0,0,0,0-0.1L82,79.8z"/>
			<path class="st15" d="M88.4,80.8c-0.2,0.1-0.3,0.1-0.3,0.1L87.6,81c0,0-0.2,0-0.2,0c-0.1,0.1-0.2,0.3-0.2,0.5L87,81.9l-0.5,0.9
				c0,0-0.1,0.1-0.1,0.2c-0.2,0.5-0.4,0.6-0.5,0.6c-0.1,0-0.3,0-0.4-0.2c0,0,0-0.3,0-0.4c0-0.1,0-0.1,0.1-0.1
				c0.1-0.1,0.2-0.2,0.2-0.3c0,0,0.4-0.7,0.5-0.8c0.1-0.2,0.2-0.4,0.3-0.6c0,0,0.1-0.1,0.1-0.1c0,0-0.1,0-0.1-0.1
				c-0.1,0-0.4-0.2-0.4-0.2c-0.1-0.1-0.2-0.2-0.2-0.3c0,0,0.1-0.1,0.1-0.1c0,0,0.3,0.1,0.3,0.1c0.1,0,0.6-0.1,0.6-0.1l0.1-0.4
				c0-0.1,0.1-0.3,0.1-0.4c0,0,0-0.1-0.1-0.2c0,0-0.1-0.1-0.1-0.2c0-0.1,0.1-0.1,0.1-0.1c0.2,0,0.7,0.4,0.7,0.7c0,0,0,0.2,0,0.3
				c0.1,0,0.1,0,0.2-0.1c0,0,0.2-0.1,0.2-0.1c0.1,0,0.3,0,0.3,0c0.3,0,0.4,0.1,0.4,0.3c0,0.1-0.1,0.2-0.2,0.3L88.4,80.8z M87.4,82.7
				c0.1,0,0.1,0,0.2,0.2c0,0,0.3,0.3,0.5,0.3c0.2,0,0.5,0,0.6,0c0.1,0,0.3-0.1,0.3-0.1c0.1,0,0.6,0.1,0.6,0.4c0,0.2,0,0.2-0.2,0.3
				c-0.1,0.1-0.6,0.1-0.7,0.1c-0.1,0-0.5,0-0.6,0c-0.6-0.1-0.9-0.6-0.9-1C87.3,82.8,87.3,82.7,87.4,82.7z M87.9,81.9
				c0,0-0.2,0-0.3,0c0,0-0.1,0-0.1,0c-0.1,0-0.1-0.1-0.1-0.1c0,0,0.1-0.1,0.2-0.2c0.3-0.1,0.7-0.2,1-0.2c0,0,0.5,0,0.7,0.1
				c0.1,0.1,0.3,0.2,0.3,0.4c0,0.1,0,0.2-0.1,0.2c0,0-0.1,0.1-0.1,0.1c0,0-0.2,0.1-0.2,0.1c0,0-0.2,0.1-0.3,0.1
				c-0.1,0-0.4,0.1-0.5,0.1c0,0,0,0,0,0c0,0,0,0,0-0.1c0,0,0,0,0,0c0,0,0.1-0.1,0.1-0.1c0.1-0.1,0.2-0.2,0.2-0.2L87.9,81.9z
				 M89,79.9c0,0-0.2-0.1-0.2-0.1c0,0,0,0,0,0c0,0,0-0.1,0.1-0.1c0,0,0.3,0,0.5,0.1c0.1,0,0.1,0,0.2,0.1c0.1,0.1,0.1,0.1,0.2,0.3
				c0,0.1-0.1,0.2-0.2,0.2c-0.2,0-0.3-0.1-0.3-0.2L89,79.9z M89.3,79.4c0,0,0.3-0.1,0.3-0.1c0.2,0,0.4,0.2,0.4,0.3
				c0,0.1-0.1,0.2-0.2,0.2c-0.1,0-0.3-0.1-0.4-0.2c0,0-0.2-0.1-0.2-0.1C89.2,79.5,89.2,79.5,89.3,79.4
				C89.2,79.4,89.3,79.4,89.3,79.4z"/>
			<path class="st15" d="M91.2,80.8l0.4-0.2c0,0,0.3-0.1,0.3-0.1c0,0,0,0,0,0l0-0.4c0-0.1,0-0.2,0-0.3c0,0-0.2-0.2-0.2-0.3
				c0-0.1,0.1-0.1,0.1-0.1c0,0,0.1,0,0.1,0l0,0l0,0l0.4,0.3c0.1,0,0.3,0.3,0.3,0.5c0,0,0,0.2,0,0.2c0,0,0.2,0.1,0.2,0.1
				c0.1,0,0.1,0.1,0.1,0.2c0,0.1,0,0.1-0.2,0.3c0,0-0.3,0.2-0.3,0.3c0,0,0,0.3,0,0.4c0,0,0,0,0,0.1c0.1,0,0.3-0.1,0.3-0.1
				c0.2-0.1,0.6-0.2,0.9-0.2c0.5,0,0.7,0.1,0.9,0.3c0.1,0.1,0.2,0.4,0.2,0.6c0,0.1,0,0.5-0.2,0.7c-0.1,0.1-0.2,0.2-0.5,0.4
				c0,0-0.1,0-0.1,0c-0.1,0-0.4,0.2-0.6,0.2L93,83.7c-0.1,0-0.1,0-0.2,0c0,0,0-0.1,0-0.1c0,0,0,0,0.1,0c0.1-0.1,0.3-0.2,0.5-0.3
				l0.3-0.3c0,0,0.5-0.5,0.5-1c0-0.3-0.2-0.4-0.3-0.4c-0.1,0-0.6,0.1-1,0.3c0,0-0.2,0.1-0.2,0.1c0,0-0.2,0.1-0.2,0.1c0,0,0,0,0,0.1
				c0,0,0,0.2,0,0.3l0,0.4l0,0.5c0,0.2-0.2,0.4-0.4,0.4c-0.2,0-0.3-0.3-0.3-0.3c-0.1-0.3-0.1-0.5-0.2-0.7l0,0l-0.4,0.3
				c0,0-0.2,0.2-0.2,0.2c0,0-0.1,0-0.1,0c-0.3,0-0.3-0.5-0.3-0.5c0-0.1,0-0.1,0.1-0.2c0,0,0.7-0.9,0.7-0.9c0.1-0.1,0.4-0.5,0.5-0.6
				c-0.1,0-0.1,0-0.4,0.2c0,0-0.3,0.1-0.3,0.2c-0.1,0.1-0.1,0.1-0.2,0.2c0,0,0,0,0,0c0,0-0.3-0.2-0.3-0.4c0-0.1,0.1-0.2,0.1-0.2
				L91.2,80.8z M91.8,81.9C91.8,81.9,91.8,81.8,91.8,81.9C91.8,81.8,91.8,81.8,91.8,81.9L91.8,81.9c-0.1,0-0.3,0.3-0.3,0.3
				c0,0,0,0,0,0c0,0,0.2-0.1,0.3-0.1c0,0,0,0,0,0L91.8,81.9z M91.8,82.8c0-0.2,0-0.2,0-0.2c-0.1,0.1-0.2,0.1-0.2,0.1
				C91.6,82.7,91.7,82.8,91.8,82.8C91.8,82.8,91.8,82.8,91.8,82.8z"/>
			<path class="st15" d="M96.9,81.3c0,0,0,0.2,0,0.2c0,0.1,0,0.1,0,0.2c0.1-0.1,0.1-0.1,0.2-0.2c0.1-0.1,0.1-0.1,0.1-0.2
				c0.1-0.1,0.1-0.2,0.1-0.2c0.1,0,0.1,0,0.1,0.1c0,0,0,0.2,0,0.3c0,0,0,0.1-0.1,0.1l-0.1,0.3c0,0.1-0.2,0.4-0.3,0.5
				c0,0.1-0.1,0.1-0.2,0.1c-0.4,0-0.5-0.4-0.5-0.4c0-0.1,0-0.1,0-0.2c0-0.1,0-0.3,0-0.3c0-0.3,0.1-0.6,0.1-1c0,0,0.1-0.4,0.1-0.5
				c0,0,0-0.2,0-0.2c-0.1-0.1-0.1-0.1-0.1-0.1c0,0,0,0,0.1-0.1c0,0,0.3,0.1,0.4,0.3c0.1,0.1,0.2,0.2,0.2,0.4v0.1c0,0,0,0.2,0,0.3
				L96.9,81.3z M98,82.9c0.1-0.2,0.3-0.6,0.3-0.8l0-0.4l0-0.1l0-0.6V81l0-0.5l0-0.4c0-0.3-0.1-0.4-0.1-0.4C98,79.6,98,79.6,98,79.5
				c0-0.1,0.2-0.1,0.3-0.1c0.1,0,0.3,0,0.6,0.4c0,0,0.1,0.1,0.1,0.1c0.1,0.2,0.1,0.3,0.1,0.4c0,0,0,0,0,0l0,0.3c0,0.1,0,0.4,0,0.4
				c0,0,0,0.1,0,0.2c0,0.2,0,0.3,0,0.3L99,82.2c-0.1,0.8-0.5,1.1-0.8,1.4c-0.3,0.2-0.5,0.3-0.7,0.3c-0.1,0-0.1,0-0.2,0
				c-0.1,0-0.1,0-0.1-0.1c0.3-0.2,0.3-0.2,0.6-0.5L98,82.9z"/>
		</g>
	</g>
</g>
</svg>
