<?xml version="1.0" encoding="utf-8"?>
<!-- Generator: Adobe Illustrator 24.0.1, SVG Export Plug-In . SVG Version: 6.00 Build 0)  -->
<svg version="1.1" id="レイヤー_1" xmlns="http://www.w3.org/2000/svg" xmlns:xlink="http://www.w3.org/1999/xlink" x="0px"
	 y="0px" viewBox="0 0 141.7 141.7" style="enable-background:new 0 0 141.7 141.7;" xml:space="preserve">
<style type="text/css">
	.st0{fill:#FFFFFF;}
	.st1{fill:#9FA0A0;}
	.st2{fill:#CDA774;}
	.st3{fill:#DDB887;}
	.st4{fill:#F3EBDF;}
	.st5{fill:#F8F0E4;}
	.st6{fill:#ECECEC;}
	.st7{fill:url(#SVGID_1_);}
	.st8{fill:url(#SVGID_2_);}
	.st9{fill:#E60012;}
	.st10{fill:#036EB8;}
	.st11{fill:#EA5514;}
	.st12{clip-path:url(#SVGID_4_);}
	.st13{fill:url(#SVGID_5_);}
	.st14{fill:url(#SVGID_6_);}
	.st15{fill:url(#SVGID_7_);}
	.st16{fill:url(#SVGID_8_);}
	.st17{fill:url(#SVGID_9_);}
	.st18{fill:url(#SVGID_10_);}
	.st19{fill:url(#SVGID_11_);}
	.st20{fill:url(#SVGID_12_);}
	.st21{fill:url(#SVGID_13_);}
	.st22{fill:url(#SVGID_14_);}
	.st23{fill:url(#SVGID_15_);}
	.st24{fill:url(#SVGID_16_);}
	.st25{fill:url(#SVGID_17_);}
	.st26{fill:url(#SVGID_18_);}
	.st27{fill:url(#SVGID_19_);}
	.st28{fill:url(#SVGID_20_);}
	.st29{fill:url(#SVGID_21_);}
	.st30{fill:url(#SVGID_22_);}
	.st31{fill:url(#SVGID_23_);}
	.st32{fill:url(#SVGID_24_);}
	.st33{fill:url(#SVGID_25_);}
	.st34{fill:url(#SVGID_26_);}
	.st35{fill:url(#SVGID_27_);}
	.st36{fill:url(#SVGID_28_);}
	.st37{fill:url(#SVGID_29_);}
	.st38{fill:url(#SVGID_30_);}
	.st39{fill:url(#SVGID_31_);}
	.st40{fill:url(#SVGID_32_);}
	.st41{fill:url(#SVGID_33_);}
	.st42{fill:url(#SVGID_34_);}
	.st43{fill:url(#SVGID_35_);}
	.st44{fill:url(#SVGID_36_);}
	.st45{fill:url(#SVGID_37_);}
	.st46{fill:url(#SVGID_38_);}
	.st47{fill:url(#SVGID_39_);}
	.st48{clip-path:url(#SVGID_41_);}
	.st49{fill:#B28247;}
	.st50{fill:#FFF100;}
	.st51{fill:#8FC31F;}
	.st52{fill:none;stroke:#B28247;stroke-width:0.5288;stroke-linecap:round;stroke-linejoin:round;stroke-miterlimit:10;}
	.st53{fill:#EAE5E3;}
	.st54{fill:#BEB1AA;}
	.st55{clip-path:url(#SVGID_43_);}
	.st56{fill:url(#SVGID_44_);}
	.st57{fill:url(#SVGID_45_);}
	.st58{fill:url(#SVGID_46_);}
	.st59{fill:url(#SVGID_47_);}
	.st60{fill:url(#SVGID_48_);}
	.st61{fill:url(#SVGID_49_);}
	.st62{fill:url(#SVGID_50_);}
	.st63{fill:url(#SVGID_51_);}
	.st64{fill:url(#SVGID_52_);}
	.st65{fill:url(#SVGID_53_);}
	.st66{fill:url(#SVGID_54_);}
	.st67{fill:url(#SVGID_55_);}
	.st68{fill:url(#SVGID_56_);}
	.st69{fill:url(#SVGID_57_);}
	.st70{fill:url(#SVGID_58_);}
	.st71{fill:url(#SVGID_59_);}
	.st72{fill:none;}
	.st73{fill:url(#SVGID_60_);}
	.st74{fill:#DCDDDD;}
	.st75{fill:#EACE76;}
	.st76{clip-path:url(#SVGID_62_);}
	.st77{fill:#C9A063;}
	.st78{fill:#00913A;}
	.st79{fill:#3E3A39;}
	.st80{fill:#C6BA9A;}
	.st81{fill:#D6CCB5;}
	.st82{fill:#B5B5B6;}
	.st83{fill:#F0EFEF;}
	.st84{fill:#595857;}
	.st85{fill:#727171;}
	.st86{fill:#CCAC69;}
	.st87{fill:#C9CACA;}
	.st88{fill:#8A8A8A;}
	.st89{opacity:0.75;}
	.st90{fill:#B81C25;}
	.st91{fill:#DE551A;}
	.st92{fill:#E99413;}
	.st93{fill:#F7F9F9;}
	.st94{fill:#F7F9F9;stroke:#727171;stroke-width:0.2229;stroke-miterlimit:10;}
	.st95{fill:#C39717;}
	.st96{fill:#CC172C;}
	.st97{fill:#E83514;}
	.st98{fill:url(#SVGID_63_);}
	.st99{fill:url(#SVGID_64_);}
	.st100{fill:url(#SVGID_65_);}
	.st101{fill:url(#SVGID_66_);}
	.st102{fill:url(#SVGID_67_);}
	.st103{fill:url(#SVGID_68_);}
	.st104{fill:#E6E6E6;}
	.st105{fill:#D1EAF6;}
	.st106{fill:#359DD1;}
	.st107{fill:#44AFDB;}
	.st108{fill:url(#SVGID_69_);}
	.st109{fill:none;stroke:#221714;stroke-width:0.1546;}
	.st110{fill:url(#SVGID_70_);}
	.st111{fill:url(#SVGID_71_);}
	.st112{fill:url(#SVGID_72_);}
	.st113{fill:url(#SVGID_73_);}
	.st114{fill:url(#SVGID_74_);}
	.st115{fill:url(#SVGID_75_);}
	.st116{fill:url(#SVGID_76_);}
	.st117{fill:url(#SVGID_77_);}
	.st118{fill:url(#SVGID_78_);}
	.st119{fill:url(#SVGID_79_);}
	.st120{fill:url(#SVGID_80_);}
	.st121{fill:url(#SVGID_81_);}
	.st122{fill:url(#SVGID_82_);}
	.st123{fill:url(#SVGID_83_);}
	.st124{fill:url(#SVGID_84_);}
	.st125{fill:url(#SVGID_85_);}
	.st126{fill:url(#SVGID_86_);}
	.st127{fill:url(#SVGID_87_);}
	.st128{fill:url(#SVGID_88_);}
	.st129{fill:url(#SVGID_89_);}
	.st130{fill:url(#SVGID_90_);}
	.st131{fill:url(#SVGID_91_);}
	.st132{fill:url(#SVGID_92_);}
	.st133{fill:url(#SVGID_93_);}
	.st134{fill:url(#SVGID_94_);}
	.st135{fill:url(#SVGID_95_);}
	.st136{fill:url(#SVGID_96_);}
	.st137{fill:url(#SVGID_97_);}
	.st138{fill:url(#SVGID_98_);}
	.st139{fill:url(#SVGID_99_);}
	.st140{fill:url(#SVGID_100_);}
	.st141{fill:url(#SVGID_101_);}
	.st142{fill:url(#SVGID_102_);}
	.st143{fill:url(#SVGID_103_);}
	.st144{fill:url(#SVGID_104_);}
	.st145{fill:url(#SVGID_105_);}
	.st146{fill:url(#SVGID_106_);}
	.st147{fill:url(#SVGID_107_);}
	.st148{fill:url(#SVGID_108_);}
	.st149{fill:url(#SVGID_109_);}
	.st150{fill:url(#SVGID_110_);}
	.st151{fill:url(#SVGID_111_);}
	.st152{fill:url(#SVGID_112_);}
	.st153{fill:url(#SVGID_113_);}
	.st154{fill:url(#SVGID_114_);}
	.st155{fill:url(#SVGID_115_);}
	.st156{fill:url(#SVGID_116_);}
	.st157{fill:url(#SVGID_117_);}
	.st158{fill:url(#SVGID_118_);}
	.st159{fill:url(#SVGID_119_);}
	.st160{stroke:#000000;stroke-width:2.4516;stroke-linecap:round;stroke-linejoin:round;stroke-miterlimit:10;}
	.st161{fill:url(#SVGID_120_);stroke:#000000;stroke-width:0.8172;stroke-linecap:round;stroke-linejoin:round;}
	.st162{fill:url(#SVGID_121_);stroke:#000000;stroke-width:0.8172;stroke-linecap:round;stroke-linejoin:round;}
	.st163{fill:url(#SVGID_122_);stroke:#000000;stroke-width:0.8172;stroke-linecap:round;stroke-linejoin:round;}
	.st164{opacity:0.4;fill:#FFFFFF;}
	.st165{fill:#FFFEEE;}
	.st166{fill:none;stroke:#F7EFB8;stroke-width:0.4086;}
	.st167{fill:none;stroke:#F7EFB8;stroke-width:0.2043;stroke-miterlimit:10;}
	.st168{fill-rule:evenodd;clip-rule:evenodd;fill:none;stroke:#000000;stroke-width:0.1961;stroke-miterlimit:10;}
	.st169{fill:none;stroke:#000000;stroke-width:0.8172;stroke-linecap:round;stroke-linejoin:round;}
	.st170{fill-rule:evenodd;clip-rule:evenodd;}
	.st171{fill-rule:evenodd;clip-rule:evenodd;fill:none;stroke:#000000;stroke-width:0.4086;stroke-miterlimit:10;}
	.st172{fill-rule:evenodd;clip-rule:evenodd;fill:url(#SVGID_123_);}
	.st173{opacity:0.9;fill:#E60012;}
	.st174{fill:#DCDBDA;}
	.st175{opacity:0.9;fill:#FFFFFF;}
	.st176{opacity:0.3;fill:#FFFFFF;}
	.st177{fill:#7E7977;}
	.st178{fill:#EEEAD0;}
	.st179{fill:#DDD9C2;}
	.st180{fill:#D3A243;}
	.st181{fill:none;stroke:#E5E3DA;stroke-width:0.4086;stroke-linecap:round;stroke-linejoin:round;}
	.st182{fill:#C11920;}
	.st183{fill:url(#SVGID_124_);}
	.st184{fill:url(#SVGID_125_);}
	.st185{fill:#5D8AA2;}
	.st186{fill:#267EAF;}
	.st187{fill:none;stroke:#D9B556;stroke-width:0.6958;stroke-miterlimit:10;}
	.st188{fill:#D9B556;}
	.st189{fill:#0E2F8F;}
	.st190{fill:url(#SVGID_126_);}
	.st191{fill:url(#SVGID_127_);}
	.st192{fill:url(#SVGID_128_);}
	.st193{fill:#755F43;}
	.st194{fill:#CD6829;}
	.st195{fill:#E08030;}
	.st196{fill:#F7F8F8;}
	.st197{fill:#E60012;stroke:#000000;stroke-width:0.1945;stroke-miterlimit:10;}
	.st198{fill:none;stroke:#000000;stroke-width:0.1945;stroke-miterlimit:10;}
	.st199{fill:#FFF100;stroke:#000000;stroke-width:0.1945;stroke-miterlimit:10;}
	.st200{fill:#FFFFFF;stroke:#000000;stroke-width:0.1264;stroke-miterlimit:10;}
	.st201{fill:none;stroke:#9FA0A0;stroke-width:0.1853;stroke-linecap:round;stroke-linejoin:round;stroke-miterlimit:10;}
	.st202{fill:#722F1C;}
	.st203{fill:#E9C07F;}
	.st204{fill:#F2D39D;}
	.st205{fill:#D0542E;}
	.st206{fill:#DC643A;}
	.st207{fill:#6A3906;}
	.st208{fill:#674425;}
	.st209{fill:none;stroke:#E60012;stroke-width:0.1398;stroke-miterlimit:10;}
	.st210{fill:none;stroke:#E60012;stroke-width:0.1398;stroke-miterlimit:10;stroke-dasharray:0.7067,0.7067;}
	.st211{fill:none;stroke:#000000;stroke-width:0.1398;stroke-miterlimit:10;}
	.st212{fill:none;stroke:#000000;stroke-miterlimit:10;}
	.st213{fill:#C9A063;stroke:#000000;stroke-width:1.3629;stroke-miterlimit:10;}
	.st214{fill:#008ABD;}
	.st215{fill:#5CB9D3;}
	.st216{fill:#BFC0C0;}
	.st217{fill:#FBF8EA;}
	.st218{fill:none;stroke:#000000;stroke-width:0.6064;}
	.st219{fill:#B5B5B6;stroke:#000000;stroke-width:1.1444;stroke-miterlimit:10;}
	.st220{fill:#EA5514;stroke:#000000;stroke-width:1.1444;stroke-miterlimit:10;}
	.st221{fill:#C9A063;stroke:#000000;stroke-width:1.1444;stroke-miterlimit:10;}
	.st222{fill:none;stroke:#000000;stroke-width:1.1444;stroke-miterlimit:10;}
	.st223{fill:#DDB735;stroke:#000000;stroke-width:1.1444;stroke-miterlimit:10;}
	.st224{fill:none;stroke:#FFFFFF;stroke-width:2.546;stroke-miterlimit:10;}
	.st225{fill:#40220F;stroke:#000000;stroke-width:1.1444;stroke-miterlimit:10;}
</style>
<g>
	<path class="st9" d="M29.8,12.1h49.3c4.4,0,8.1,3.6,8.1,8.1v51.8H21.8V20.1C21.8,15.7,25.4,12.1,29.8,12.1z"/>
	<g>
		<path class="st0" d="M79.2,95.1H29.8c-4.4,0-8-3.6-8-8V71.9h65.4v15.2C87.2,91.5,83.6,95.1,79.2,95.1z"/>
		<g>
			<g>
				<line class="st209" x1="21.8" y1="71.9" x2="22" y2="72.2"/>
				<line class="st210" x1="22.5" y1="72.7" x2="42" y2="94.6"/>
				<line class="st209" x1="42.3" y1="94.8" x2="42.5" y2="95.1"/>
			</g>
		</g>
		<line class="st211" x1="21.8" y1="71.9" x2="87.2" y2="71.9"/>
	</g>
	<path class="st212" d="M79.1,95.1H29.8c-4.4,0-8.1-3.6-8.1-8.1V20.1c0-4.4,3.6-8.1,8.1-8.1h49.3c4.4,0,8.1,3.6,8.1,8.1V87
		C87.2,91.5,83.6,95.1,79.1,95.1z"/>
	<polygon class="st9" points="29.9,86.1 23.4,87.9 28.2,92.7 	"/>
	<circle class="st213" cx="54.5" cy="40.9" r="26.7"/>
	<g>
		<g>
			<path d="M38.3,78.1c0,0.1,0,0.1,0,0.1c0,0,0,0.1,0,0.2l0,0.2l0,0.2c-0.3,2.5-1,4.3-2.1,5.6c-0.4-0.4-0.9-0.8-1.4-1
				c1.1-1.1,1.9-3.4,2-5.6L38.3,78.1z M40.7,77.8C40.7,77.8,40.7,77.8,40.7,77.8c0,0.3,0.2,1.3,0.3,1.8c0.4,1.6,0.9,2.7,1.8,3.8
				c-0.5,0.3-0.9,0.6-1.3,1c-1.1-1.5-1.8-3.4-2.1-5.7c0-0.1,0-0.1,0-0.2l-0.1-0.3l0-0.1c0,0,0,0,0-0.1L40.7,77.8z M42.9,78.4
				c0,0.5-0.4,0.9-0.9,0.9c-0.5,0-0.9-0.4-0.9-0.9c0-0.5,0.4-0.9,0.9-0.9C42.5,77.5,42.9,77.9,42.9,78.4z M41.5,78.4
				c0,0.2,0.2,0.5,0.5,0.5c0.3,0,0.5-0.2,0.5-0.5c0-0.3-0.2-0.5-0.5-0.5C41.7,78,41.5,78.2,41.5,78.4z"/>
			<path d="M44.7,79.1c0.3,0.6,0.6,1.3,0.8,2.1l-1.3,0.4c-0.2-0.9-0.4-1.4-0.7-2.2L44.7,79.1z M49.6,79.3c-0.1,0.1-0.1,0.2-0.1,0.5
				c-0.2,1.2-0.6,2-1,2.7c-0.4,0.7-1,1.2-1.7,1.7c-0.3,0.2-0.5,0.3-1,0.6c-0.3-0.5-0.4-0.7-0.9-1.2c1.7-0.6,2.6-1.5,3.1-2.9
				c0.2-0.6,0.4-1.3,0.4-1.8L49.6,79.3z M46.6,78.8c0.4,0.9,0.6,1.2,0.8,2l-1.3,0.4c-0.2-0.7-0.4-1.3-0.7-2.1L46.6,78.8z"/>
			<path d="M54.6,77.4c0,0.1-0.1,0.1-0.1,0.2c0,0,0,0.1-0.1,0.1c0,0.1-0.1,0.1-0.1,0.2c-0.1,0.2-0.1,0.2-0.2,0.4l2.1,0
				c0.3,0,0.4,0,0.6-0.1l0.7,0.7c-0.1,0.2-0.1,0.2-0.2,0.6c-0.4,1.4-1,2.5-1.7,3.3c-0.8,0.9-1.7,1.5-3.1,2.1c-0.3-0.5-0.5-0.9-1-1.3
				c1.2-0.4,2-1,2.8-1.7c0.6-0.6,1.1-1.4,1.4-2.4l-2.2,0c-0.5,0.9-1.1,1.5-1.9,2.1c-0.4-0.5-0.6-0.7-1.2-1c1-0.7,1.7-1.5,2.2-2.5
				c0.2-0.4,0.3-0.7,0.4-1L54.6,77.4z"/>
			<path d="M60.8,81.4c-0.5,0.4-0.7,0.7-0.7,1c0,0.4,0.5,0.6,1.8,0.6c1,0,2.2-0.2,2.7-0.4l0.1,1.6c-0.2,0-0.2,0-0.3,0
				c-0.1,0-0.1,0-0.3,0l-0.2,0c-0.7,0.1-1.4,0.1-2.1,0.1c-0.9,0-1.6-0.1-2.1-0.3c-0.7-0.3-1.1-0.8-1.1-1.5c0-0.7,0.4-1.3,1.2-2
				L60.8,81.4z M59.1,77.6c0.5,0.1,1.6,0.2,2.8,0.2c1.1,0,1.9-0.1,2.3-0.2l0,1.3c-0.5,0.3-1.7,1-2.3,1.5l-1-0.7
				c0.2-0.1,0.3-0.2,0.4-0.3l0.3-0.2c0.1,0,0.1-0.1,0.1-0.1l0.1,0c0,0,0.1,0,0.1-0.1c-0.3,0-0.4,0-0.7,0c-0.6,0-1,0-1.9-0.1
				c-0.2,0-0.2,0-0.3,0L59.1,77.6z M63.8,79.7c0.3,0.4,0.6,0.7,0.8,1.2l-0.8,0.4c-0.3-0.5-0.5-0.8-0.8-1.2L63.8,79.7z M64.8,79.2
				c0.3,0.3,0.5,0.6,0.8,1.2l-0.7,0.4c-0.3-0.5-0.5-0.9-0.8-1.2L64.8,79.2z"/>
			<path d="M68.3,77.4c-0.1,0.2-0.2,0.4-0.2,0.8c-0.3,1.1-0.4,2.1-0.4,3.2l0.6,0.2C68,82.5,68,83.2,68,84.3c0,0,0,0.1,0,0.3
				l-1.4,0.1c0-0.1,0-0.1-0.1-0.7c-0.1-1.2-0.2-1.6-0.2-2.5c0-1.2,0.1-1.9,0.3-3.4c0.1-0.4,0.1-0.6,0.1-0.7c0,0,0,0,0,0L68.3,77.4z
				 M68.6,78.8c0.3,0.1,0.9,0.1,1.6,0.1c0.2,0,0.3,0,0.6,0c0-0.5,0-0.5,0-1.1c0-0.2,0-0.3,0-0.5l1.4,0c0,0.3-0.1,0.6-0.1,1.5
				c0.5-0.1,1-0.2,1.3-0.3l0.1,1.3c-0.1,0-0.1,0-0.3,0c-0.3,0.1-0.6,0.1-1,0.2c0,0.6,0,0.8,0.1,1.8c0.6,0.3,0.9,0.4,1.3,0.8
				c0,0,0.1,0.1,0.2,0.1l-0.5,1.4c-0.2-0.2-0.5-0.5-1-0.8c0,0,0,0.1,0,0.1c0,0.7-0.7,1.2-1.8,1.2c-1.2,0-1.9-0.6-1.9-1.5
				c0-0.5,0.2-0.9,0.6-1.2c0.3-0.2,0.8-0.3,1.3-0.3c0.2,0,0.3,0,0.5,0c0-0.2,0-0.3,0-0.7c0-0.3,0-0.4,0-0.7c-0.2,0-0.3,0-0.5,0
				c-0.2,0-0.7,0-1.4,0c-0.1,0-0.2,0-0.2,0c0,0-0.1,0-0.1,0L68.6,78.8z M70.8,82.8c-0.2-0.1-0.3-0.1-0.5-0.1c-0.4,0-0.6,0.1-0.6,0.4
				c0,0.2,0.2,0.4,0.5,0.4c0.4,0,0.6-0.1,0.6-0.5L70.8,82.8z"/>
			<path d="M78.1,77.5c-0.2,0.3-0.3,0.6-1.3,3.1c0.3-0.2,0.7-0.4,1-0.4c0.5,0,1,0.3,1.1,0.8c0.1,0.3,0.1,0.4,0.1,1.4
				c0,0.6,0.1,0.8,0.4,0.8c0.3,0,0.6-0.2,0.8-0.7c0.2-0.4,0.3-1,0.3-1.5c0.5,0.4,0.7,0.6,1.3,0.8c-0.2,0.9-0.4,1.4-0.7,1.9
				c-0.4,0.6-1.1,0.9-1.9,0.9c-0.5,0-0.9-0.1-1.2-0.4c-0.3-0.3-0.4-0.6-0.4-1.2c0-0.1,0-0.2,0-0.6c0-0.1,0-0.1,0-0.1
				c0-0.4-0.1-0.5-0.3-0.5c-0.4,0-0.8,0.4-1.1,1.1c-0.2,0.5-0.5,1.4-0.6,1.9l-1.5-0.5c0.1-0.3,0.2-0.3,0.7-1.8
				c0.1-0.2,0.4-1,0.9-2.5c0.7-1.9,0.8-2.4,0.9-2.8L78.1,77.5z"/>
		</g>
	</g>
	<g>
		<g>
			<g>
				<path class="st214" d="M65,59c0,0,0,1,0,1.8c0,1.2-4.7,2.7-10.6,2.7c-5.8,0-10.6-1.4-10.6-2.7c0-1.2,0-1.8,0-1.8H65z"/>
			</g>
			<path class="st215" d="M76,41c0,3.8-2.3,20.6-21.6,20.6c-19.2,0-21.6-16.8-21.6-20.6"/>
			<g>
				<path class="st0" d="M57.8,41h-6.7c-0.1,1.6-0.1,3.3-0.1,5.1c0,6.2,0.5,11.7,1.2,15.4c0.7,0.1,1.5,0.1,2.3,0.1
					c0.8,0,1.5,0,2.3-0.1c0.7-3.7,1.2-9.3,1.2-15.4C57.9,44.3,57.9,42.6,57.8,41z"/>
				<path class="st0" d="M66.8,42.9c-0.3,5.6-1.9,13.4-4.5,17.6c1.7-0.5,3.2-1.2,4.5-2.1c2.4-3.1,5-8.1,7.2-16.3L66.8,42.9z"/>
				<path class="st0" d="M34.4,42.1c2,7.6,4.4,12.4,6.6,15.5c1.4,1,3,1.9,4.9,2.6c-2.5-4.2-4.1-11.9-4.3-17.3L34.4,42.1z"/>
			</g>
			<ellipse class="st216" cx="54.5" cy="41" rx="21.6" ry="6.9"/>
		</g>
		<path class="st217" d="M74,41.1c-0.2-1.3-0.6-2.5-1-3.7C69.6,29,60.3,24.9,54.4,23.2C49.5,21.9,41,29.8,37,36.9
			c-1.4,2.5-2.3,5-2.3,6.8c3.3,2.5,10.9,4.2,19.8,4.2c8.9,0,16.6-1.7,19.9-4.2C74.3,42.9,74.2,42.1,74,41.1z"/>
		<path class="st217" d="M41.4,31.5c0.5,0.9,0.5,1.8,0,2c-0.5,0.3-1.2-0.2-1.7-1.1c-0.5-0.9-0.5-1.8,0-2
			C40.2,30.1,40.9,30.6,41.4,31.5z"/>
		<path class="st217" d="M45.8,26.3c0.5,0.9,0.5,1.8,0,2c-0.5,0.3-1.2-0.2-1.7-1.1c-0.5-0.9-0.5-1.8,0-2
			C44.6,25,45.3,25.5,45.8,26.3z"/>
		<path class="st217" d="M52.5,23.5c0.5,0.9,0.5,1.8,0,2c-0.5,0.3-1.2-0.2-1.7-1.1c-0.5-0.9-0.5-1.8,0-2
			C51.2,22.1,52,22.6,52.5,23.5z"/>
		<path class="st217" d="M38.6,36.2c-0.4,0.9-1.1,1.5-1.6,1.3c-0.5-0.2-0.6-1.1-0.2-2c0.4-0.9,1.1-1.5,1.6-1.3
			C38.9,34.3,39,35.2,38.6,36.2z"/>
		<path class="st217" d="M43.7,29.8c-0.4,0.9-1.1,1.5-1.6,1.3c-0.5-0.2-0.6-1.1-0.2-2c0.4-0.9,1.1-1.5,1.6-1.3
			C44,28,44.1,28.9,43.7,29.8z"/>
		<path class="st0" d="M50.4,35.3c-0.4,0.9-1.1,1.5-1.6,1.3c-0.5-0.2-0.6-1.1-0.2-2c0.4-0.9,1.1-1.5,1.6-1.3
			C50.7,33.5,50.8,34.4,50.4,35.3z"/>
		<path class="st0" d="M45.7,32.4c-0.4,0.9-1.1,1.5-1.6,1.3c-0.5-0.2-0.6-1.1-0.2-2c0.4-0.9,1.1-1.5,1.6-1.3
			C46,30.6,46.1,31.5,45.7,32.4z"/>
		<path class="st0" d="M43.9,41.1c0.4,0.9,0.4,1.8-0.1,2c-0.5,0.2-1.2-0.3-1.6-1.2c-0.4-0.9-0.4-1.8,0.1-2
			C42.8,39.6,43.5,40.2,43.9,41.1z"/>
		<path class="st0" d="M63.6,39.1c0,1-0.4,1.8-0.9,1.8c-0.5,0-1-0.8-1-1.8c0-1,0.4-1.8,0.9-1.8C63.1,37.3,63.6,38.1,63.6,39.1z"/>
		<path class="st0" d="M59.3,30.4c0,1-0.4,1.8-0.9,1.8c-0.5,0-1-0.8-1-1.8c0-1,0.4-1.8,0.9-1.8C58.9,28.6,59.3,29.4,59.3,30.4z"/>
		<path class="st217" d="M47.5,26.8c-0.2,1-0.8,1.6-1.4,1.5c-0.5-0.1-0.7-1-0.5-2c0.2-1,0.8-1.6,1.4-1.5
			C47.5,25,47.7,25.8,47.5,26.8z"/>
		<path class="st217" d="M72,34.6c-0.2,1-0.8,1.6-1.4,1.5c-0.5-0.1-0.7-1-0.5-2c0.2-1,0.8-1.6,1.4-1.5C72.1,32.7,72.3,33.6,72,34.6z
			"/>
		<path class="st217" d="M67.3,28.5c0.1,1-0.2,1.8-0.7,1.9c-0.5,0.1-1.1-0.7-1.2-1.6c-0.1-1,0.2-1.8,0.7-1.9
			C66.6,26.8,67.1,27.5,67.3,28.5z"/>
		<path class="st217" d="M68.6,29.9c0.7,0.7,1,1.6,0.6,1.9c-0.4,0.4-1.2,0.1-1.9-0.6c-0.7-0.7-1-1.6-0.6-1.9
			C67.1,29,67.9,29.2,68.6,29.9z"/>
		<path class="st217" d="M57.3,23.3c0.7,0.7,1,1.6,0.6,1.9c-0.4,0.4-1.2,0.1-1.9-0.6c-0.7-0.7-1-1.6-0.6-1.9
			C55.8,22.3,56.6,22.6,57.3,23.3z"/>
		<path class="st217" d="M64.3,26.9c0.4,0.9,0.4,1.8-0.1,2c-0.5,0.2-1.2-0.3-1.7-1.2c-0.4-0.9-0.4-1.8,0.1-2
			C63.2,25.4,63.9,26,64.3,26.9z"/>
		<path class="st217" d="M61,24.5c0.4,0.9,0.4,1.8-0.1,2c-0.5,0.2-1.2-0.3-1.7-1.2c-0.4-0.9-0.4-1.8,0.1-2
			C59.8,23.1,60.5,23.6,61,24.5z"/>
	</g>
	<path class="st218" d="M76,41c0,3.8-9.7,6.9-21.6,6.9c-11.9,0-21.6-3.1-21.6-6.9"/>
</g>
<g>
	<path class="st9" d="M69.7,47.8h49.3c4.4,0,8.1,3.6,8.1,8.1v51.8H61.7V55.8C61.7,51.4,65.3,47.8,69.7,47.8z"/>
	<g>
		<path class="st0" d="M119.1,130.8H69.7c-4.4,0-8-3.6-8-8v-15.2h65.4v15.2C127.1,127.2,123.5,130.8,119.1,130.8z"/>
		<g>
			<g>
				<line class="st209" x1="61.7" y1="107.6" x2="61.9" y2="107.9"/>
				<line class="st210" x1="62.4" y1="108.4" x2="81.9" y2="130.3"/>
				<line class="st209" x1="82.2" y1="130.5" x2="82.4" y2="130.8"/>
			</g>
		</g>
		<line class="st211" x1="61.7" y1="107.6" x2="127.1" y2="107.6"/>
	</g>
	<path class="st212" d="M119.1,130.8H69.7c-4.4,0-8.1-3.6-8.1-8.1V55.8c0-4.4,3.6-8.1,8.1-8.1h49.3c4.4,0,8.1,3.6,8.1,8.1v66.9
		C127.1,127.2,123.5,130.8,119.1,130.8z"/>
	<polygon class="st9" points="69.9,121.8 63.3,123.6 68.1,128.4 	"/>
	<circle class="st213" cx="94.4" cy="76.6" r="26.7"/>
	<g>
		<g>
			<path d="M78.2,113.8c0,0.1,0,0.1,0,0.1c0,0,0,0.1,0,0.2l0,0.2l0,0.2c-0.3,2.5-1,4.3-2.1,5.6c-0.4-0.4-0.9-0.8-1.4-1
				c1.1-1.1,1.9-3.4,2-5.6L78.2,113.8z M80.7,113.5C80.7,113.5,80.7,113.5,80.7,113.5c0,0.3,0.2,1.3,0.3,1.8
				c0.4,1.6,0.9,2.7,1.8,3.8c-0.5,0.3-0.9,0.6-1.3,1c-1.1-1.5-1.8-3.4-2.1-5.7c0-0.1,0-0.1,0-0.2l-0.1-0.3l0-0.1c0,0,0,0,0-0.1
				L80.7,113.5z M82.8,114.1c0,0.5-0.4,0.9-0.9,0.9c-0.5,0-0.9-0.4-0.9-0.9c0-0.5,0.4-0.9,0.9-0.9C82.4,113.2,82.8,113.6,82.8,114.1
				z M81.4,114.1c0,0.2,0.2,0.5,0.5,0.5c0.3,0,0.5-0.2,0.5-0.5c0-0.3-0.2-0.5-0.5-0.5C81.7,113.7,81.4,113.9,81.4,114.1z"/>
			<path d="M84.7,114.8c0.3,0.6,0.6,1.3,0.8,2.1l-1.3,0.4c-0.2-0.9-0.4-1.4-0.7-2.2L84.7,114.8z M89.5,115c-0.1,0.1-0.1,0.2-0.1,0.5
				c-0.2,1.2-0.6,2-1,2.7c-0.4,0.7-1,1.2-1.7,1.7c-0.3,0.2-0.5,0.3-1,0.6c-0.3-0.5-0.4-0.7-0.9-1.2c1.7-0.6,2.6-1.5,3.1-2.9
				c0.2-0.6,0.4-1.3,0.4-1.8L89.5,115z M86.5,114.5c0.4,0.9,0.6,1.2,0.8,2l-1.3,0.4c-0.2-0.7-0.4-1.3-0.7-2.1L86.5,114.5z"/>
			<path d="M94.5,113.1c0,0.1-0.1,0.1-0.1,0.2c0,0,0,0.1-0.1,0.1c0,0.1-0.1,0.1-0.1,0.2c-0.1,0.2-0.1,0.2-0.2,0.4l2.1,0
				c0.3,0,0.4,0,0.6-0.1l0.7,0.7c-0.1,0.2-0.1,0.2-0.2,0.6c-0.4,1.4-1,2.5-1.7,3.3c-0.8,0.9-1.7,1.5-3.1,2.1c-0.3-0.5-0.5-0.9-1-1.3
				c1.2-0.4,2-1,2.8-1.7c0.6-0.6,1.1-1.4,1.4-2.4l-2.2,0c-0.5,0.9-1.1,1.5-1.9,2.1c-0.4-0.5-0.6-0.7-1.2-1c1-0.7,1.7-1.5,2.2-2.5
				c0.2-0.4,0.3-0.7,0.4-1L94.5,113.1z"/>
			<path d="M100.8,117.1c-0.5,0.4-0.7,0.7-0.7,1c0,0.4,0.5,0.6,1.8,0.6c1,0,2.2-0.2,2.7-0.4l0.1,1.6c-0.2,0-0.2,0-0.3,0
				c-0.1,0-0.1,0-0.3,0l-0.2,0c-0.7,0.1-1.4,0.1-2.1,0.1c-0.9,0-1.6-0.1-2.1-0.3c-0.7-0.3-1.1-0.8-1.1-1.5c0-0.7,0.4-1.3,1.2-2
				L100.8,117.1z M99.1,113.3c0.5,0.1,1.6,0.2,2.8,0.2c1.1,0,1.9-0.1,2.3-0.2l0,1.3c-0.5,0.3-1.7,1-2.3,1.5l-1-0.7
				c0.2-0.1,0.3-0.2,0.4-0.3l0.3-0.2c0.1,0,0.1-0.1,0.1-0.1l0.1,0c0,0,0.1,0,0.1-0.1c-0.3,0-0.4,0-0.7,0c-0.6,0-1,0-1.9-0.1
				c-0.2,0-0.2,0-0.3,0L99.1,113.3z M103.7,115.4c0.3,0.4,0.6,0.7,0.8,1.2l-0.8,0.4c-0.3-0.5-0.5-0.8-0.8-1.2L103.7,115.4z
				 M104.8,114.9c0.3,0.3,0.5,0.6,0.8,1.2l-0.7,0.4c-0.3-0.5-0.5-0.9-0.8-1.2L104.8,114.9z"/>
			<path d="M108.2,113.1c-0.1,0.2-0.2,0.4-0.2,0.8c-0.3,1.1-0.4,2.1-0.4,3.2l0.6,0.2c-0.3,0.8-0.3,1.5-0.3,2.5c0,0,0,0.1,0,0.3
				l-1.4,0.1c0-0.1,0-0.1-0.1-0.7c-0.1-1.2-0.2-1.6-0.2-2.5c0-1.2,0.1-1.9,0.3-3.4c0.1-0.4,0.1-0.6,0.1-0.7c0,0,0,0,0,0L108.2,113.1
				z M108.5,114.5c0.3,0.1,0.9,0.1,1.6,0.1c0.2,0,0.3,0,0.6,0c0-0.5,0-0.5,0-1.1c0-0.2,0-0.3,0-0.5l1.4,0c0,0.3-0.1,0.6-0.1,1.5
				c0.5-0.1,1-0.2,1.3-0.3l0.1,1.3c-0.1,0-0.1,0-0.3,0c-0.3,0.1-0.6,0.1-1,0.2c0,0.6,0,0.8,0.1,1.8c0.6,0.3,0.9,0.4,1.3,0.8
				c0,0,0.1,0.1,0.2,0.1l-0.5,1.4c-0.2-0.2-0.5-0.5-1-0.8c0,0,0,0.1,0,0.1c0,0.7-0.7,1.2-1.8,1.2c-1.2,0-1.9-0.6-1.9-1.5
				c0-0.5,0.2-0.9,0.6-1.2c0.3-0.2,0.8-0.3,1.3-0.3c0.2,0,0.3,0,0.5,0c0-0.2,0-0.3,0-0.7c0-0.3,0-0.4,0-0.7c-0.2,0-0.3,0-0.5,0
				c-0.2,0-0.7,0-1.4,0c-0.1,0-0.2,0-0.2,0c0,0-0.1,0-0.1,0L108.5,114.5z M110.8,118.5c-0.2-0.1-0.3-0.1-0.5-0.1
				c-0.4,0-0.6,0.1-0.6,0.4c0,0.2,0.2,0.4,0.5,0.4c0.4,0,0.6-0.1,0.6-0.5L110.8,118.5z"/>
			<path d="M118,113.2c-0.2,0.3-0.3,0.6-1.3,3.1c0.3-0.2,0.7-0.4,1-0.4c0.5,0,1,0.3,1.1,0.8c0.1,0.3,0.1,0.4,0.1,1.4
				c0,0.6,0.1,0.8,0.4,0.8c0.3,0,0.6-0.2,0.8-0.7c0.2-0.4,0.3-1,0.3-1.5c0.5,0.4,0.7,0.6,1.3,0.8c-0.2,0.9-0.4,1.4-0.7,1.9
				c-0.4,0.6-1.1,0.9-1.9,0.9c-0.5,0-0.9-0.1-1.2-0.4c-0.3-0.3-0.4-0.6-0.4-1.2c0-0.1,0-0.2,0-0.6c0-0.1,0-0.1,0-0.1
				c0-0.4-0.1-0.5-0.3-0.5c-0.4,0-0.8,0.4-1.1,1.1c-0.2,0.5-0.5,1.4-0.6,1.9l-1.5-0.5c0.1-0.3,0.2-0.3,0.7-1.8
				c0.1-0.2,0.4-1,0.9-2.5c0.7-1.9,0.8-2.4,0.9-2.8L118,113.2z"/>
		</g>
	</g>
	<g>
		<g>
			<g>
				<path class="st214" d="M105,94.7c0,0,0,1,0,1.8c0,1.2-4.7,2.7-10.6,2.7c-5.8,0-10.6-1.4-10.6-2.7c0-1.2,0-1.8,0-1.8H105z"/>
			</g>
			<path class="st215" d="M116,76.7c0,3.8-2.3,20.6-21.6,20.6c-19.2,0-21.6-16.8-21.6-20.6"/>
			<g>
				<path class="st0" d="M97.8,76.7h-6.7C91,78.3,91,80,91,81.8c0,6.2,0.5,11.7,1.2,15.4c0.7,0.1,1.5,0.1,2.3,0.1
					c0.8,0,1.5,0,2.3-0.1c0.7-3.7,1.2-9.3,1.2-15.4C97.9,80,97.8,78.3,97.8,76.7z"/>
				<path class="st0" d="M106.7,78.6c-0.3,5.6-1.9,13.4-4.5,17.6c1.7-0.5,3.2-1.2,4.5-2.1c2.4-3.1,5-8.1,7.2-16.3L106.7,78.6z"/>
				<path class="st0" d="M74.4,77.8c2,7.6,4.4,12.4,6.6,15.5c1.4,1,3,1.9,4.9,2.6c-2.5-4.2-4.1-11.9-4.3-17.3L74.4,77.8z"/>
			</g>
			<ellipse class="st216" cx="94.4" cy="76.7" rx="21.6" ry="6.9"/>
		</g>
		<path class="st217" d="M114,76.8c-0.2-1.3-0.6-2.5-1-3.7c-3.4-8.4-12.6-12.6-18.6-14.2c-4.8-1.3-13.3,6.6-17.4,13.7
			c-1.4,2.5-2.3,5-2.3,6.8c3.3,2.5,10.9,4.2,19.8,4.2c8.9,0,16.6-1.7,19.9-4.2C114.2,78.6,114.1,77.8,114,76.8z"/>
		<path class="st217" d="M81.3,67.2c0.5,0.9,0.5,1.8,0,2c-0.5,0.3-1.2-0.2-1.7-1.1c-0.5-0.9-0.5-1.8,0-2
			C80.1,65.8,80.9,66.3,81.3,67.2z"/>
		<path class="st217" d="M85.7,62c0.5,0.9,0.5,1.8,0,2c-0.5,0.3-1.2-0.2-1.7-1.1c-0.5-0.9-0.5-1.8,0-2C84.5,60.7,85.3,61.2,85.7,62z
			"/>
		<path class="st217" d="M92.4,59.2c0.5,0.9,0.5,1.8,0,2c-0.5,0.3-1.2-0.2-1.7-1.1c-0.5-0.9-0.5-1.8,0-2
			C91.2,57.8,91.9,58.3,92.4,59.2z"/>
		<path class="st217" d="M78.6,71.9c-0.4,0.9-1.1,1.5-1.6,1.3c-0.5-0.2-0.6-1.1-0.2-2c0.4-0.9,1.1-1.5,1.6-1.3
			C78.8,70,78.9,70.9,78.6,71.9z"/>
		<path class="st217" d="M83.7,65.5c-0.4,0.9-1.1,1.5-1.6,1.3c-0.5-0.2-0.6-1.1-0.2-2c0.4-0.9,1.1-1.5,1.6-1.3
			C84,63.7,84,64.6,83.7,65.5z"/>
		<path class="st0" d="M90.3,71c-0.4,0.9-1.1,1.5-1.6,1.3c-0.5-0.2-0.6-1.1-0.2-2c0.4-0.9,1.1-1.5,1.6-1.3
			C90.6,69.2,90.7,70.1,90.3,71z"/>
		<path class="st0" d="M85.6,68.1c-0.4,0.9-1.1,1.5-1.6,1.3c-0.5-0.2-0.6-1.1-0.2-2c0.4-0.9,1.1-1.5,1.6-1.3
			C85.9,66.3,86,67.2,85.6,68.1z"/>
		<path class="st0" d="M83.9,76.8c0.4,0.9,0.4,1.8-0.1,2c-0.5,0.2-1.2-0.3-1.6-1.2c-0.4-0.9-0.4-1.8,0.1-2
			C82.7,75.3,83.4,75.9,83.9,76.8z"/>
		<path class="st0" d="M103.6,74.8c0,1-0.4,1.8-0.9,1.8c-0.5,0-1-0.8-1-1.8c0-1,0.4-1.8,0.9-1.8C103.1,73,103.5,73.8,103.6,74.8z"/>
		<path class="st0" d="M99.3,66.1c0,1-0.4,1.8-0.9,1.8c-0.5,0-1-0.8-1-1.8c0-1,0.4-1.8,0.9-1.8C98.8,64.3,99.2,65.1,99.3,66.1z"/>
		<path class="st217" d="M87.4,62.5c-0.2,1-0.8,1.6-1.4,1.5c-0.5-0.1-0.7-1-0.5-2c0.2-1,0.8-1.6,1.4-1.5
			C87.4,60.7,87.6,61.5,87.4,62.5z"/>
		<path class="st217" d="M112,70.3c-0.2,1-0.8,1.6-1.4,1.5c-0.5-0.1-0.7-1-0.5-2c0.2-1,0.8-1.6,1.4-1.5
			C112,68.4,112.2,69.3,112,70.3z"/>
		<path class="st217" d="M107.2,64.2c0.1,1-0.2,1.8-0.7,1.9c-0.5,0.1-1.1-0.7-1.2-1.6c-0.1-1,0.2-1.8,0.7-1.9
			C106.5,62.4,107,63.2,107.2,64.2z"/>
		<path class="st217" d="M108.6,65.6c0.7,0.7,1,1.6,0.6,1.9c-0.4,0.4-1.2,0.1-1.9-0.6c-0.7-0.7-1-1.6-0.6-1.9
			C107,64.7,107.9,64.9,108.6,65.6z"/>
		<path class="st217" d="M97.2,59c0.7,0.7,1,1.6,0.6,1.9c-0.4,0.4-1.2,0.1-1.9-0.6c-0.7-0.7-1-1.6-0.6-1.9
			C95.7,58,96.5,58.3,97.2,59z"/>
		<path class="st217" d="M104.3,62.5c0.4,0.9,0.4,1.8-0.1,2c-0.5,0.2-1.2-0.3-1.7-1.2c-0.4-0.9-0.4-1.8,0.1-2
			C103.1,61.1,103.8,61.7,104.3,62.5z"/>
		<path class="st217" d="M100.9,60.2c0.4,0.9,0.4,1.8-0.1,2c-0.5,0.2-1.2-0.3-1.7-1.2c-0.4-0.9-0.4-1.8,0.1-2
			C99.7,58.8,100.5,59.3,100.9,60.2z"/>
	</g>
	<path class="st218" d="M116,76.7c0,3.8-9.7,6.9-21.6,6.9c-11.9,0-21.6-3.1-21.6-6.9"/>
</g>
</svg>
