<?xml version="1.0" encoding="utf-8"?>
<!-- Generator: Adobe Illustrator 24.0.1, SVG Export Plug-In . SVG Version: 6.00 Build 0)  -->
<svg version="1.1" id="レイヤー_1" xmlns="http://www.w3.org/2000/svg" xmlns:xlink="http://www.w3.org/1999/xlink" x="0px"
	 y="0px" viewBox="0 0 141.7 141.7" style="enable-background:new 0 0 141.7 141.7;" xml:space="preserve">
<style type="text/css">
	.st0{fill:#F7F9F9;stroke:#727171;stroke-width:0.1741;stroke-miterlimit:10;}
	.st1{fill:#C39717;}
	.st2{fill:#CC172C;}
	.st3{fill:#231815;}
	.st4{fill:#E73828;}
	.st5{fill:#F7B52C;}
	.st6{clip-path:url(#SVGID_2_);}
	.st7{fill:#D2A143;}
	.st8{fill:#B48626;}
	.st9{fill:#9C751E;}
	.st10{fill:#8DC21F;}
	.st11{fill:#00913A;}
	.st12{fill:#E95513;}
	.st13{fill:#FFFFFF;}
	.st14{clip-path:url(#SVGID_4_);}
	.st15{fill:#BDA661;}
	.st16{fill:#C9B168;}
</style>
<g>
	<path class="st0" d="M58.5,26.3H5.9L15.2,81l0,0c0.2,3.3,7.7,6,17,6s16.9-2.7,17-6l0,0L58.5,26.3z"/>
	<path class="st0" d="M59.2,26.5c0-5.4-12.1-9.7-27-9.7s-27,4.3-27,9.7c0,0.2,0,1.3,0,1.6c0,5.3,12.1,9.7,27,9.7s27-4.3,27-9.7
		C59.2,27.8,59.2,26.7,59.2,26.5z"/>
	<path class="st1" d="M32.2,78.1c-0.2,0-0.4,0-0.5,0v-1.9c0.4,0,0.8,0,1.1,0v1.9C32.6,78.1,32.4,78.1,32.2,78.1z M33.9,78.1
		l-0.1-1.9c0.4,0,0.8,0,1.1-0.1L35,78C34.7,78.1,34.3,78.1,33.9,78.1z M30.5,78.1c-0.4,0-0.8,0-1.2-0.1l0.1-1.9c0.4,0,0.7,0,1.1,0.1
		V78.1z M28.2,78c-0.4,0-0.8-0.1-1.2-0.1l0.2-1.9c0.4,0,0.7,0.1,1.1,0.1L28.2,78z M36.3,78l-0.2-1.9c0.4,0,0.7-0.1,1.1-0.1l0.2,1.9
		C37.1,77.9,36.7,78,36.3,78z M26,77.7c-0.4-0.1-0.8-0.1-1.2-0.2l0.2-1.9c0.4,0.1,0.7,0.1,1.1,0.2L26,77.7z M38.5,77.7l-0.2-1.9
		c0.4,0,0.7-0.1,1.1-0.2l0.2,1.9C39.3,77.7,38.9,77.7,38.5,77.7z M23.6,77.5c-0.4-0.1-0.8-0.2-1.2-0.2l0.3-1.9
		c0.4,0.1,0.7,0.2,1.1,0.2L23.6,77.5z M40.8,77.5l-0.3-1.9c0.4-0.1,0.7-0.1,1.1-0.2l0.3,1.9C41.6,77.3,41.2,77.4,40.8,77.5z
		 M21.4,77.1C21,77,20.6,77,20.3,76.9l0.4-1.8c0.4,0.1,0.7,0.2,1.1,0.2L21.4,77.1z M43.1,77.1l-0.4-1.8c0.4-0.1,0.7-0.2,1.1-0.2
		l0.4,1.8C43.8,77,43.5,77,43.1,77.1z M19.1,76.6c-0.4-0.1-0.8-0.2-1.1-0.3l0.5-1.8c0.3,0.1,0.7,0.2,1.1,0.3L19.1,76.6z M45.3,76.6
		l-0.5-1.8c0.4-0.1,0.7-0.2,1.1-0.3l0.5,1.8C46.1,76.3,45.7,76.5,45.3,76.6z M16.9,75.9c-0.4-0.2-0.8-0.2-1.1-0.4l0.7-1.7
		c0.3,0.2,0.7,0.2,1,0.4L16.9,75.9z M47.6,75.9L47,74.1c0.4-0.2,0.7-0.2,1-0.4l0.7,1.7C48.3,75.6,48,75.8,47.6,75.9z"/>
	<path class="st1" d="M32.8,48.2v-3.7c0.4,0,0.7,0,1.1,0l0.1,3.7C33.5,48.2,33.1,48.2,32.8,48.2z M31.7,48.2c-0.4,0-0.8,0-1.1,0
		l0.1-3.7c0.4,0,0.7,0,1.1,0L31.7,48.2z M35,48.1l-0.1-3.7c0.4,0,0.7,0,1.1,0l0.2,3.7C35.8,48.1,35.4,48.1,35,48.1z M29.4,48.1
		c-0.4,0-0.8,0-1.1-0.1l0.2-3.7c0.4,0,0.7,0,1.1,0L29.4,48.1z M37.3,48.1l-0.2-3.7c0.4,0,0.7-0.1,1.1-0.1l0.2,3.7
		C38.1,48.1,37.7,48.1,37.3,48.1z M27.1,48.1c-0.4,0-0.8-0.1-1.1-0.1l0.2-3.7c0.4,0,0.7,0.1,1.1,0.1L27.1,48.1z M39.5,47.9l-0.3-3.7
		c0.4,0,0.7-0.1,1.1-0.1l0.3,3.7C40.3,47.9,39.9,47.9,39.5,47.9z M24.9,47.9c-0.4,0-0.8-0.1-1.1-0.1l0.3-3.7c0.4,0,0.7,0.1,1.1,0.1
		L24.9,47.9z M22.7,47.8c-0.4,0-0.8-0.1-1.1-0.2l0.5-3.7c0.4,0.1,0.7,0.1,1.1,0.2L22.7,47.8z M41.8,47.8L41.4,44
		c0.4,0,0.7-0.1,1.1-0.2l0.5,3.7C42.6,47.7,42.2,47.7,41.8,47.8z M44.1,47.4l-0.5-3.7c0.4-0.1,0.7-0.1,1.1-0.2l0.5,3.7
		C44.8,47.4,44.5,47.4,44.1,47.4z M20.4,47.4c-0.4-0.1-0.8-0.1-1.1-0.2l0.5-3.7c0.3,0.1,0.7,0.1,1.1,0.2L20.4,47.4z M46.3,47.1
		l-0.6-3.7c0.4-0.1,0.7-0.2,1.1-0.2l0.6,3.7C47,47,46.7,47.1,46.3,47.1z M18.2,47.1c-0.4-0.1-0.8-0.2-1.1-0.2l0.6-3.7
		c0.3,0.1,0.7,0.2,1.1,0.2L18.2,47.1z M48.5,46.7l-0.7-3.7c0.4-0.1,0.7-0.2,1-0.2l0.8,3.7C49.3,46.6,48.9,46.7,48.5,46.7z
		 M15.9,46.7c-0.4-0.1-0.8-0.2-1.1-0.2l0.8-3.7c0.3,0.1,0.7,0.2,1,0.2L15.9,46.7z M13.7,46.3c-0.4-0.1-0.8-0.2-1.1-0.2l0.9-3.7
		c0.3,0.1,0.7,0.2,1,0.2L13.7,46.3z M50.8,46.3l-0.9-3.7c0.3-0.1,0.7-0.2,1-0.2l0.9,3.7C51.5,46.1,51.1,46.2,50.8,46.3z M53,45.7
		l-1-3.6c0.3-0.1,0.7-0.2,1-0.3l1.1,3.6C53.8,45.5,53.4,45.6,53,45.7z M11.5,45.7c-0.4-0.1-0.8-0.2-1.1-0.3l1.1-3.6
		c0.3,0.1,0.7,0.2,1,0.3L11.5,45.7z"/>
	<path class="st2" d="M32.2,79.2c-6.9,0-13.6-1.2-17.7-3.2l0.1-0.2c4.1,2,10.7,3.2,17.6,3.2s13.5-1.2,17.6-3.2l0.1,0.2
		C45.8,78.1,39.2,79.2,32.2,79.2z"/>
	<path class="st2" d="M32.2,42.9c-8.6,0-16.7-1.2-23-3.3l0.1-0.2c6.2,2.1,14.4,3.2,22.9,3.2s16.6-1.2,22.9-3.2l0.1,0.2
		C48.9,41.7,40.8,42.9,32.2,42.9z"/>
	<path class="st0" d="M59.2,26.4c0,3.4-5.1,6.5-12.7,8.2c-4.1,0.9-9.1,4.8-14.4,4.8c-5.7,0-11-4.1-15.3-5.1c-7-1.7-11.6-4.7-11.6-8
		c0-5.3,12.1-9.7,27-9.7S59.2,21,59.2,26.4z"/>
	<path class="st2" d="M37.6,35.6c0,1.4-2.4,3-5.4,3c-3,0-5.4-1.7-5.4-3H37.6z"/>
	<g>
		<g>
			<path class="st2" d="M27.4,59.9c-0.4,0.2-1.2,0.4-2.1,0.4c-2.9,0-4.5-2-4.5-4.8c0-3.4,2.2-5.1,4.8-5.1c1,0,1.7,0.2,2,0.4
				l-0.4,1.5c-0.4-0.2-0.9-0.3-1.6-0.3c-1.6,0-2.9,1.1-2.9,3.4c0,2.2,1.1,3.4,2.9,3.4c0.5,0,1.2-0.1,1.6-0.3L27.4,59.9z"/>
			<path class="st2" d="M35.6,56.1c0,2.8-1.3,4.1-3.5,4.1s-3.4-1.3-3.4-4.1v-5.7h1.9v5.9c0,1.7,0.6,2.4,1.6,2.4c1,0,1.6-0.7,1.6-2.4
				v-5.9h1.9V56.1z"/>
			<path class="st2" d="M37.5,50.6c0.6-0.1,1.4-0.2,2.5-0.2c1.2,0,2.1,0.2,2.7,0.8c0.5,0.5,0.9,1.2,0.9,2.2c0,2.7-2.2,3.3-3.7,3.3
				c-0.2,0-0.5,0-0.7-0.1v3.6h-1.9L37.5,50.6L37.5,50.6z M39.4,55c0.2,0,0.4,0.1,0.6,0.1c1.2,0,1.9-0.6,1.9-1.7c0-1-0.6-1.6-1.7-1.6
				c-0.4,0-0.6,0-0.8,0.1C39.4,51.9,39.4,55,39.4,55z"/>
		</g>
		<g>
			<path class="st2" d="M22.8,67.4c0,0.1-0.1,0.2-0.2,0.2c-0.8,3-2,4.5-4.6,5.4c-0.2-0.3-0.5-0.9-0.8-1.2c2-0.5,3.4-2,3.7-3.4h-4.8
				V67h5.4l0.2-0.1L22.8,67.4z M21.7,65.8h-4.8v-1.4h4.8V65.8z"/>
			<path class="st2" d="M24.2,67.6h7v1.5h-6.6c-0.1,0.1-0.2,0.2-0.3,0.2L24.2,67.6z"/>
			<path class="st2" d="M34.5,66c0.6,0.3,1.3,0.7,2,1.2c0.4-0.7,0.9-2,1.3-3.1l1.6,0.8c-0.1,0.1-0.2,0.2-0.3,0.2
				c-0.4,0.9-0.9,2.1-1.4,3c0.4,0.3,1,0.8,1.5,1.2l-0.9,1.5c-0.4-0.4-0.9-0.9-1.4-1.3c-0.9,1.3-2,2.7-3.1,3.5
				c-0.2-0.3-0.8-0.9-1.1-1.1c1.2-0.8,2.3-2,3.1-3.3c-0.6-0.5-1.3-0.9-2-1.2L34.5,66z"/>
			<path class="st2" d="M42,64.7c0.9,0.3,1.9,0.9,2.4,1.2l-0.7,1.4c-0.6-0.5-1.6-1-2.4-1.3L42,64.7z M41.5,71.3
				c2.7-1,4.7-2.9,5.6-5.6c0.4,0.4,0.9,0.6,1.2,0.9c-1,2.7-3,4.8-5.8,6c0,0.1-0.1,0.2-0.2,0.2L41.5,71.3z"/>
		</g>
	</g>
	<g>
		<g>
			<path class="st2" d="M28.9,23.9c-0.2,0.1-0.9,0.2-1.6,0.2c-2,0-3-0.9-2.7-2.3c0.3-1.5,1.8-2.2,3.4-2.2c0.6,0,1.1,0.1,1.2,0.2
				L29,20.4c-0.2-0.1-0.5-0.2-1-0.2c-1,0-2,0.5-2.1,1.5c-0.2,1,0.5,1.6,1.7,1.6c0.4,0,0.9-0.1,1.1-0.2L28.9,23.9z"/>
			<path class="st2" d="M34.7,22.1c0.1,1.3-0.9,2-2.4,2c-1.6,0-2.3-0.6-2.3-2l0.2-2.4h1.2l-0.1,2.5c0,0.8,0.4,1.2,1.1,1.2
				s1.1-0.3,1.1-1.2l-0.1-2.5h1.2L34.7,22.1z"/>
			<path class="st2" d="M35.7,19.8c0.4-0.1,0.9-0.1,1.6-0.1c0.8,0,1.4,0.1,1.8,0.3c0.4,0.2,0.7,0.5,0.8,0.9c0.2,1.2-1.2,1.4-2.2,1.4
				c-0.2,0-0.3,0-0.5,0l0.2,1.7h-1.3L35.7,19.8z M37.1,21.7c0.2,0,0.2,0,0.5,0c0.8,0,1.2-0.3,1.1-0.7c-0.1-0.5-0.5-0.6-1.2-0.6
				c-0.2,0-0.4,0-0.5,0L37.1,21.7z"/>
		</g>
		<g>
			<path class="st2" d="M25.2,27c0,0.1-0.1,0.1-0.2,0.1c-0.9,1.8-2,2.7-4.2,3.3c-0.1-0.2-0.3-0.5-0.5-0.8c1.7-0.4,3-1.2,3.4-2h-3.7
				l0.2-0.8h4.1l0.2-0.1L25.2,27z M24.6,26.1H21l0.2-0.7h3.5L24.6,26.1z"/>
			<path class="st2" d="M26.3,27.1h5.3V28h-5.2c-0.1,0.1-0.2,0.1-0.2,0.1L26.3,27.1z"/>
			<path class="st2" d="M34.1,26.3c0.5,0.2,1,0.4,1.6,0.6c0.2-0.4,0.6-1.1,0.9-1.7l1.2,0.4c0,0.1-0.1,0.1-0.2,0.1
				c-0.2,0.5-0.5,1.2-0.9,1.6c0.3,0.2,0.8,0.5,1.2,0.7l-0.5,0.9c-0.3-0.2-0.8-0.5-1.2-0.9c-0.6,0.8-1.4,1.6-2.3,2.2
				c-0.2-0.2-0.6-0.5-0.9-0.7c0.9-0.5,1.8-1.2,2.3-2c-0.5-0.2-1-0.5-1.6-0.7L34.1,26.3z"/>
			<path class="st2" d="M39.5,25.5c0.6,0.2,1.4,0.5,2,0.7L41,27c-0.5-0.2-1.3-0.5-2-0.8L39.5,25.5z M39.8,29.4
				c2.1-0.6,3.4-1.8,3.7-3.3c0.3,0.2,0.7,0.4,1,0.5c-0.4,1.6-1.6,2.9-3.7,3.6c0,0.1,0,0.2-0.1,0.2L39.8,29.4z"/>
		</g>
	</g>
</g>
<g>
	<path class="st3" d="M64.6,119.7l6.1,6c0,0,0.5,0.8,2.3,0.9c1.9,0.1,42.7-0.6,42.7-0.6s2.3-0.2,3.7-2c1.4-1.7,4.2-6.4,4.2-6.4
		l-58.9,1.5"/>
	<g>
		<path class="st4" d="M131.4,86.7L55.1,99.4c-0.5,4.7-0.9,9-1,11.7c0,0.5,0,0.9,0.1,1.3l78.4-13.1
			C132.2,95.2,131.8,90.6,131.4,86.7z"/>
		<path class="st3" d="M130.2,76.9c-1-5-8.9-5.9-8.9-5.9H68.4c-9-0.1-10.4,6.7-10.4,6.7s-1.7,11.6-2.9,21.6l76.3-12.7
			C130.9,82.2,130.5,78.4,130.2,76.9z"/>
		<path class="st5" d="M132.6,99.3l-78.4,13.1c1,7.1,10.8,8.4,10.8,8.4s51.3-0.9,60.2-1.3c8.9-0.4,8.7-6.3,8.7-6.3
			S133.3,106.8,132.6,99.3z"/>
	</g>
	<g>
		<defs>
			<path id="SVGID_1_" d="M130.2,76.9c-1-5-8.9-5.9-8.9-5.9H68.4c-9-0.1-10.4,6.7-10.4,6.7s-1.7,11.6-2.9,21.6l76.3-12.7
				C130.9,82.2,130.5,78.4,130.2,76.9z"/>
		</defs>
		<clipPath id="SVGID_2_">
			<use xlink:href="#SVGID_1_"  style="overflow:visible;"/>
		</clipPath>
		<g class="st6">
			<path class="st7" d="M55.6,82.7c0.6,0,0.9-2,6.4-2.3c5.4-0.3,8.3-2.4,11.5-2.9c3.1-0.5,5-0.3,6.5-0.3c1.5,0,1.3-0.5,4.1-0.6
				c2.8-0.1,4.9-0.9,6.8-0.7c2,0.2,5.3,1.5,5.8,1.5c0.5,0,5.1,0.5,5.9,0.8c0.8,0.3,3.7,2.4,5.7,3.1c1.9,0.7,5.4,2.4,6.2,4.3
				c0.8,1.9,2.2,2.8,2.3,3.7c0.1,0.9-64.1,12.3-64.1,12.3l2.5-19.1"/>
			<path class="st8" d="M58.5,84.9c-0.3,0-0.6-0.3-0.7-0.6c0-0.4,0.3-0.7,0.6-0.7c1.4-0.1,2-0.9,2.8-2c0.3-0.4,0.5-0.7,0.8-1.1
				c1.2-1.4,2.6-1.4,4-1.3c0.6,0,1.1,0,1.7,0c1.1,0.1,2.3,0.1,3.2-0.3c0.6-0.3,1.2-0.8,1.8-1.3c0.4-0.3,0.8-0.6,1.2-0.9
				c0.3-0.2,0.7-0.1,0.9,0.2c0.2,0.3,0.1,0.7-0.2,0.9c-0.3,0.2-0.7,0.5-1.1,0.8c-0.7,0.5-1.3,1.1-2.1,1.4c-1.2,0.6-2.6,0.5-3.8,0.4
				c-0.6,0-1.2,0-1.7,0c-1.4,0-2.2,0-3,0.9c-0.3,0.3-0.5,0.7-0.7,1C61.5,83.5,60.6,84.8,58.5,84.9C58.5,84.9,58.5,84.9,58.5,84.9z"
				/>
			<path class="st8" d="M72.1,82.6c-0.1,0-0.2,0-0.3-0.1c-0.3-0.2-0.5-0.5-0.3-0.9c1.9-4.1,6.2-2.9,7.6-2.4l0.3,0.1
				c1,0.3,2,0.6,2.9,0.6c0.7,0,1.1-0.3,1.7-0.8c0.2-0.1,0.4-0.3,0.6-0.4c1.5-1.1,3.3-2.1,6-1.1c0.7,0.3,1.3,0.6,1.9,1
				c1,0.6,1.9,1.1,2.9,1.1c0.4,0,0.7,0.3,0.7,0.6c0,0.4-0.3,0.7-0.6,0.7c-1.4,0-2.6-0.6-3.6-1.3c-0.6-0.3-1.1-0.7-1.7-0.9
				c-1.7-0.7-2.9-0.4-4.7,0.9c-0.2,0.1-0.4,0.3-0.5,0.4c-0.7,0.5-1.3,1.1-2.5,1.1c-1.1,0-2.3-0.3-3.3-0.6l-0.3-0.1
				c-3.2-1-5-0.4-6,1.7C72.6,82.4,72.4,82.6,72.1,82.6z"/>
			<path class="st9" d="M79.2,86.8c-0.1,0-0.2,0-0.3-0.1c-0.3-0.2-0.5-0.5-0.3-0.9c1.4-3,4.2-2.9,6.6-2.8c2,0.1,3.9,0.1,5-1.3
				c0.4-0.5,0.6-1,0.8-1.6c0.4-0.9,0.8-1.9,1.8-2.6c1.6-1.1,3.5-1.5,5.3-1.2c0.4,0.1,0.6,0.4,0.5,0.8c-0.1,0.4-0.4,0.6-0.8,0.5
				c-1.5-0.3-3,0.1-4.4,1c-0.7,0.5-1,1.2-1.3,2c-0.2,0.6-0.5,1.3-1,1.9c-1.5,2-3.9,1.9-6.1,1.8c-2.4-0.1-4.4-0.1-5.4,2
				C79.7,86.7,79.4,86.8,79.2,86.8z"/>
			<path class="st8" d="M83.3,92.4c-0.1,0-0.2,0-0.2,0c-0.6-0.2-1.1-0.6-1.5-1c-0.6-0.5-1.1-0.9-1.8-1c-0.5-0.1-1,0-1.6,0.1
				c-0.9,0.2-1.8,0.4-2.9-0.2c-0.9-0.5-1.6-1.2-2.3-1.9c-0.9-0.9-1.8-1.8-3.1-2.1c-1.1-0.3-2.9-0.1-3.8,0.5c-0.4,0.3-0.6,0.6-0.6,1
				c0,0.4-0.4,0.6-0.7,0.6c-0.4,0-0.6-0.4-0.6-0.7c0.1-0.8,0.5-1.4,1.2-1.9c1.3-0.9,3.4-1,4.9-0.7c1.6,0.4,2.7,1.4,3.7,2.4
				c0.7,0.6,1.3,1.3,2,1.7c0.7,0.4,1.3,0.2,2,0.1c0.6-0.1,1.3-0.3,2.1-0.1c1,0.2,1.8,0.8,2.4,1.3c0.4,0.3,0.8,0.6,1.2,0.8
				c0.3,0.1,0.5,0.5,0.4,0.9C83.9,92.2,83.6,92.4,83.3,92.4z"/>
			<path class="st8" d="M65.8,93.9c-0.2,0-0.3-0.1-0.5-0.2c-0.3-0.3-0.2-0.7,0-0.9c2.5-2.4,5.3-2.1,8-1.8c0.9,0.1,1.9,0.2,2.8,0.2
				c0,0,0,0,0,0c1.4,0,2-0.5,3.1-1.5c0.2-0.2,0.5-0.4,0.8-0.7c0.1-0.1,0.3-0.2,0.4-0.4c1.1-1,2.2-1.9,4-2c1.4-0.1,3.7,0.3,5.1,1.2
				c0.3,0.2,0.4,0.6,0.2,0.9c-0.2,0.3-0.6,0.4-0.9,0.2c-1.1-0.7-3.1-1-4.3-1c-1.4,0.1-2.1,0.7-3.2,1.7c-0.1,0.1-0.3,0.2-0.4,0.4
				c-0.3,0.2-0.5,0.4-0.7,0.6c-1.1,1-2,1.9-4,1.9c0,0,0,0,0,0c-1,0-2-0.1-2.9-0.2c-2.6-0.3-4.9-0.6-7,1.4
				C66.1,93.8,65.9,93.9,65.8,93.9z"/>
			<path class="st8" d="M65.4,92.8c-1.4-0.2-2.9-0.4-3.7-1.1c-0.5-0.4-0.6-1-0.8-1.5c-0.1-0.2-0.1-0.5-0.2-0.6
				c-0.6-1.1-1.5-1.2-3.1-1.1c-0.2,0-0.4,0-0.6,0c-0.4,0-0.7-0.3-0.7-0.7c0-0.4,0.3-0.7,0.7-0.7c0,0,0,0,0,0c0.2,0,0.4,0,0.5,0
				c1.6,0,3.4,0,4.3,1.9c0.1,0.3,0.2,0.6,0.3,0.9c0.1,0.3,0.2,0.7,0.4,0.9c0.5,0.4,2.3,0.7,3,0.8L65.4,92.8z"/>
			<path class="st9" d="M67,89.3c-0.3,0-0.6-0.2-0.6-0.5c-0.1-0.4,0.2-0.7,0.5-0.8c0.4-0.1,0.8-0.9,1-1.5c0.2-0.4,0.4-0.8,0.6-1.2
				c1.2-1.5,2.5-1.8,4.1-1.6c0.2,0,0.5,0.1,0.7,0.1c0.4,0.1,0.7,0.1,1.1,0.1c0.5-0.1,1-0.4,1.5-0.8c0.6-0.4,1.2-0.8,1.9-0.9
				c0.4-0.1,0.7,0.2,0.8,0.5c0.1,0.4-0.2,0.7-0.5,0.8c-0.5,0.1-0.9,0.4-1.4,0.7c-0.6,0.4-1.3,0.8-2.1,1c-0.5,0.1-1,0-1.5-0.1
				c-0.2,0-0.4-0.1-0.6-0.1c-1.5-0.1-2.2,0.1-3,1.1c-0.2,0.2-0.3,0.5-0.5,0.9c-0.5,1-1,2.1-2,2.2C67.1,89.3,67.1,89.3,67,89.3z"/>
			<path class="st8" d="M70.3,84.8c-1,0-1.9-0.5-2.7-1c-0.7-0.4-1.3-0.8-2-0.8c-0.7,0-1.2,0.3-1.8,0.6c-0.5,0.3-1.1,0.6-1.8,0.8
				c-0.4,0.1-0.7-0.2-0.8-0.5c-0.1-0.4,0.2-0.7,0.5-0.8c0.5-0.1,0.9-0.3,1.3-0.6c0.7-0.4,1.4-0.9,2.5-0.8c1,0.1,1.8,0.5,2.6,1
				c0.7,0.4,1.3,0.8,2,0.8c0,0,0,0,0,0c0.4,0,0.7,0.3,0.7,0.7C70.9,84.5,70.6,84.8,70.3,84.8C70.3,84.8,70.3,84.8,70.3,84.8z"/>
			<path class="st8" d="M104.1,87.4c-0.1,0-0.2,0-0.2,0c-0.9-0.3-1.8-0.9-2.7-1.4c-2.2-1.3-4.5-2.7-6.2-1.5
				c-0.5,0.3-0.9,0.7-1.3,1.1C93,86.2,92.2,87,91,87.3c-0.4,0.1-0.7-0.1-0.8-0.5c-0.1-0.4,0.1-0.7,0.5-0.8c0.8-0.2,1.4-0.8,2-1.4
				c0.4-0.4,0.9-0.9,1.5-1.3c2.4-1.6,5.3,0.1,7.6,1.5c0.9,0.5,1.8,1.1,2.5,1.3c0.3,0.1,0.5,0.5,0.4,0.8
				C104.6,87.2,104.3,87.4,104.1,87.4z"/>
			<path class="st8" d="M99.4,82c-0.5,0-1,0-1.4-0.1c-0.2,0-0.5,0-0.7,0c-0.4,0-0.6-0.3-0.6-0.7c0-0.4,0.3-0.6,0.7-0.6
				c0.2,0,0.5,0,0.7,0c1.4,0.1,2.8,0.2,3.8-0.6c0.3-0.2,0.6-0.5,0.8-0.8c0.7-0.8,1.5-1.7,3.3-1c0.3,0.1,0.5,0.5,0.4,0.8
				c-0.1,0.3-0.5,0.5-0.8,0.4c-1-0.4-1.2-0.1-1.8,0.6c-0.3,0.3-0.6,0.7-1,1C101.7,81.8,100.6,82,99.4,82z"/>
			<path class="st8" d="M91.2,91.8c-0.1,0-0.1,0-0.2,0c-0.4-0.1-0.6-0.4-0.5-0.8c0.6-2.4,4.7-3.2,6.5-2.8c0.4,0.1,0.9,0.3,1.6,0.6
				c1.5,0.6,4.3,1.8,5.2,0.9c0.2-0.3,0.7-0.3,0.9-0.1c0.3,0.2,0.3,0.7,0.1,0.9c-1.5,1.7-4.6,0.3-6.7-0.5c-0.6-0.2-1.1-0.5-1.4-0.5
				c-1.5-0.4-4.6,0.5-4.9,1.8C91.8,91.6,91.5,91.8,91.2,91.8z"/>
			<path class="st9" d="M85,94c-0.1,0-0.1,0-0.2,0c-0.4,0-0.6-0.4-0.6-0.7c0-0.4,0.4-0.6,0.7-0.6c0.4,0,0.8-0.3,1.3-0.6
				c0.4-0.3,0.9-0.6,1.4-0.8c0.4-0.1,0.7-0.2,1-0.3c0.7-0.1,1-0.2,1.6-0.8c0.4-0.4,0.8-0.8,1.2-1.2c1.7-1.9,3.3-3.6,6.5-3.5
				c0.4,0,0.6,0.3,0.6,0.7c0,0.4-0.3,0.7-0.7,0.6c-2.6-0.1-3.9,1.3-5.5,3c-0.4,0.4-0.8,0.8-1.2,1.3c-0.9,0.9-1.5,1-2.3,1.2
				c-0.3,0.1-0.6,0.1-0.9,0.2c-0.3,0.1-0.6,0.3-1,0.6C86.4,93.6,85.8,94,85,94z"/>
			<path class="st9" d="M79.1,83c-0.2,0-0.3-0.1-0.5-0.2c-0.3-0.3-0.3-0.7,0-0.9c0.8-0.8,1.1-1.5,1.6-2.4c0.1-0.3,0.3-0.5,0.4-0.8
				c0.9-1.6,3.1-4.2,5.5-3.3c0.3,0.1,0.5,0.5,0.4,0.8c-0.1,0.3-0.5,0.5-0.8,0.4c-1.6-0.6-3.2,1.5-3.9,2.7c-0.2,0.3-0.3,0.6-0.4,0.8
				c-0.5,1-0.9,1.7-1.8,2.7C79.4,83,79.2,83,79.1,83z"/>
			<path class="st8" d="M86.4,81.9c-0.1,0-0.3,0-0.4-0.1c-0.3-0.2-0.3-0.6-0.1-0.9c0.1-0.1,0.2-0.3,0.3-0.5c1.3-1.8,3.8-5.2,6.3-5.4
				c0.8-0.1,1.6,0.2,2.2,0.8c0.3,0.3,0.3,0.7,0,0.9c-0.3,0.3-0.7,0.3-0.9,0c-0.4-0.4-0.8-0.5-1.2-0.5c-1.9,0.2-4.2,3.4-5.3,4.9
				c-0.1,0.2-0.2,0.3-0.3,0.5C86.8,81.8,86.6,81.9,86.4,81.9z"/>
			<path class="st9" d="M106.2,84.3c-0.1,0-0.1,0-0.2,0c-0.3-0.1-0.6-0.2-0.8-0.2c-1.2-0.3-2.4-0.7-3.5-1.8
				c-0.4-0.4-0.7-0.8-0.9-1.2c-0.7-1-1.2-1.6-2.6-1.8c-0.4,0-0.6-0.4-0.6-0.7c0-0.4,0.4-0.6,0.7-0.6c2,0.2,2.8,1.3,3.5,2.3
				c0.3,0.4,0.5,0.7,0.8,1.1c0.8,0.9,1.7,1.1,2.9,1.4c0.3,0.1,0.6,0.2,0.9,0.2c0.3,0.1,0.5,0.5,0.4,0.8
				C106.7,84.1,106.4,84.3,106.2,84.3z"/>
			<path class="st8" d="M82.9,86.3c-1.1,0-2.4-0.4-3.3-0.7c-0.7-0.3-1.4-0.7-2-1.1c-0.6-0.5-1.3-0.9-1.9-1c-0.6-0.1-1.3-0.1-2.1-0.1
				c-0.6,0-1.3,0.1-2,0c-0.4,0-0.6-0.4-0.6-0.7c0.1-0.4,0.4-0.6,0.7-0.6c0.5,0.1,1.1,0.1,1.7,0c0.8,0,1.6-0.1,2.4,0.1
				c0.9,0.2,1.7,0.7,2.4,1.2c0.6,0.4,1.1,0.8,1.7,1c0.9,0.3,2.2,0.7,3.1,0.6c0.4,0,0.7,0.2,0.7,0.6c0,0.4-0.2,0.7-0.6,0.7
				C83.1,86.3,83,86.3,82.9,86.3z"/>
			<path class="st9" d="M63.9,90.4c-1.7,0-2.4-1.5-3-2.7c-0.4-0.8-0.8-1.6-1.4-1.9c-0.3-0.1-0.5-0.5-0.3-0.9
				c0.1-0.3,0.5-0.5,0.9-0.3c1,0.5,1.5,1.5,2,2.5c0.6,1.3,1,2,2,2c0.4,0,0.7,0.2,0.7,0.6c0,0.4-0.2,0.7-0.6,0.7
				C64,90.4,63.9,90.4,63.9,90.4z"/>
			<path class="st10" d="M67.7,81.1c0.2,0,0.4,0.4,0.7,0.3c0.5-0.1,0.8-0.4,1.2-0.7c1.1-0.8,0.9-0.8,2.2-0.4
				c0.8,0.2,1.6,0.3,1.7,1.3c-1.3,0.4-2,0.5-3.2,1.2c-0.9,0.5-1.1,0.5-2.2,0.5c-0.7,0-2.2,0.6-2.4-0.3C65.5,82.3,67,81.1,67.7,81.1z
				"/>
			<path class="st10" d="M92.2,81.5c0.8-0.9,1.6,0,2.7,0.1c0.7,0.1,1.3-0.2,2-0.1c1.1,0.1,2.1,0.7,3.2,1.3c-0.4,0.5-0.8,1.7-1.2,2
				c-0.7,0.6-2.2,0.1-3.3,0c-0.9-0.1-2.8,0.1-3.4-0.6C91.7,83.6,91.7,82,92.2,81.5z"/>
			<path class="st10" d="M72.7,93c0.8-0.5,1.2-1.9,1.9-2.7c0.7-0.7,1-0.7,1.8-0.9c0.7-0.2,0.9,0.1,1.5-0.4c0.5-0.4,0.8-1.3,1-1.9
				c1,1,2,2.1,3.1,2.9c-1.1,0.7-1.9,2-3,2.6c-1.1,0.6-1.6,0-2.5,1c-0.8,0.9-0.6,1.4-1.7,0.5c-0.6-0.5-0.8-0.8-1.6-1L72.7,93z"/>
			<path class="st10" d="M59,92.8c0.5,0.3,1.4,0.2,2,0.4c0.6,0.2,0.7,0.4,1,0.7c0.3,0.3,0.2,0.5,0.6,0.7c0.3,0.2,1,0.1,1.3,0.1
				c-0.3,0.8-0.6,1.7-0.8,2.5c-0.7-0.5-1.6-0.5-2.2-1c-0.6-0.5-0.4-0.9-1.2-1.1c-0.7-0.2-1,0.1-0.8-0.8c0.1-0.5,0.3-0.7,0.2-1.2
				L59,92.8z"/>
			<path class="st10" d="M102.6,87.2c0.7-1.1,1.5-1.8,2.9-1.7c0.9,0,1.6,0.4,2.4,0.1c0.8-0.3,0.7-0.8,1.5-0.3c0.7,0.4,1.1,1.5,1.7,2
				c-1.1,0.1-2.1,0.7-2.9,1.3c-1.3,1-1.2,1.2-3,0.4c-1.2-0.5-1.6-1.1-2.6-1.9"/>
			<rect x="81.1" y="82.9" class="st11" width="0.8" height="0.6"/>
			<rect x="77" y="86.7" class="st12" width="0.8" height="0.6"/>
			<rect x="65.8" y="84.5" class="st12" width="0.8" height="0.6"/>
			<rect x="77.8" y="79.2" class="st12" width="0.8" height="0.6"/>
			<rect x="85.7" y="84.2" class="st12" width="0.8" height="0.6"/>
			
				<rect x="90.8" y="80.2" transform="matrix(0.7619 -0.6477 0.6477 0.7619 -30.4119 78.2213)" class="st12" width="0.8" height="0.6"/>
			<polygon class="st12" points="93.3,87.2 92.7,87.7 92.3,87.3 92.9,86.8 			"/>
			
				<rect x="71.5" y="91.5" transform="matrix(0.9994 -3.385343e-02 3.385343e-02 0.9994 -3.0646 2.4852)" class="st12" width="0.8" height="0.6"/>
			
				<rect x="66.8" y="90.9" transform="matrix(0.9995 -3.187383e-02 3.187383e-02 0.9995 -2.8708 2.1887)" class="st12" width="0.8" height="0.6"/>
			<rect x="74.1" y="85.1" class="st11" width="0.8" height="0.6"/>
			<polygon class="st11" points="70.9,88.3 70.1,88.6 69.9,88.1 70.7,87.8 			"/>
			<polygon class="st11" points="89,85.6 88.2,85.9 88,85.3 88.8,85 			"/>
			<polygon class="st11" points="76.5,80.2 75.8,79.9 76,79.4 76.7,79.7 			"/>
			<polygon class="st11" points="85,90.1 84.2,89.8 84.4,89.3 85.2,89.6 			"/>
			<polygon class="st11" points="88.9,80.9 88.3,81.5 87.9,81.1 88.5,80.6 			"/>
			
				<rect x="81.7" y="81.5" transform="matrix(0.6995 -0.7146 0.7146 0.6995 -33.7631 83.2031)" class="st11" width="0.8" height="0.6"/>
			
				<rect x="95.9" y="88.2" transform="matrix(7.498456e-02 -0.9972 0.9972 7.498456e-02 0.6773 177.8905)" class="st11" width="0.6" height="0.8"/>
			
				<rect x="68" y="89.1" transform="matrix(7.654453e-02 -0.9971 0.9971 7.654453e-02 -26.1313 150.7642)" class="st11" width="0.6" height="0.8"/>
			
				<rect x="63.6" y="83.8" transform="matrix(0.8811 -0.473 0.473 0.8811 -32.1356 40.2755)" class="st11" width="0.8" height="0.6"/>
			
				<rect x="63.2" y="92.3" transform="matrix(0.8818 -0.4717 0.4717 0.8818 -36.1651 40.9553)" class="st11" width="0.8" height="0.6"/>
			
				<rect x="70.4" y="92.1" transform="matrix(0.8829 -0.4695 0.4695 0.8829 -35.0815 44.0833)" class="st11" width="0.8" height="0.6"/>
			<path class="st10" d="M80.5,79.7c0.8-2.7,3.3-1.6,5.2-2.5c0,0.6,0.1,1.2,0.1,1.8c-0.9,0.1-1.5-0.1-2.1,0.4
				c-0.4,0.3-0.5,0.9-1,1.1c-0.8,0.4-1.8-0.2-2.2-0.9"/>
		</g>
	</g>
	<g>
		<path class="st13" d="M59,100.8c0.4-0.1,1.6,0.3,1.9,1.5c0,0.2,0.1,0.9,0.2,1c0.1,0.1,0.1,0.2,0.4,0.5c0.1,0.1,0.2,0.3,0.2,0.6
			c0,0.5-0.7,0.9-1.1,0.9c-0.6,0.1-1.7-0.3-1.7-1.7c0-0.3,0.1-1.6,0-1.7c0-0.1-0.2-0.3-0.3-0.4c0-0.1,0-0.1,0-0.2
			C58.5,101,58.8,100.8,59,100.8z M59.5,109.1c0-0.2,0.4-0.4,0.6-0.4c0.4-0.1,0.7-0.3,1.6-1.3c0.4-0.5,1.1-1.3,2.3-3.9
			c0.2-0.5,0.9-2.1,1-2.4c0-0.1-0.1-0.2-0.1-0.2c-0.3-0.2-0.7-0.5-0.6-1c0-0.4,0.4-0.7,0.7-0.7c0.7-0.1,2.2,0.5,2,2.1
			c0,0.5-0.6,3.7-2.4,6.4c-0.6,0.9-1.4,1.9-2.7,2.1C61.3,109.8,59.5,109.6,59.5,109.1z"/>
		<path class="st13" d="M68.2,102.8c0.1,0,0.4,0,0.5,0c0.1,0,1.1-0.3,1.3-0.3c1.2-0.4,1.5-0.5,2.5-0.7c1.2-0.3,2.3-0.5,2.6-0.6
			c0.8-0.1,2.6-0.4,2.5,1c0,0.5-0.4,1-1.2,1.1c-0.1,0-0.9,0.1-1,0.1c-0.5,0.1-1.1,0.1-1.4,0.2c-0.8,0.1-1.7,0.3-2.5,0.5
			c-1.1,0.2-1.1,0.2-1.3,0.3c-1.4,0.2-2.1-0.4-2.2-0.9C67.9,103.1,68,102.8,68.2,102.8z"/>
		<path class="st13" d="M86.1,105.5c-0.3,0-0.8-0.1-1.2-0.5c-0.9-1-1.1-1.1-1.6-1.5c-0.1,0-0.2-0.1-0.2-0.1c0,0,0,0-0.2,0.2
			c0,0.1-1.5,1.8-1.6,2c-0.3,0.4-0.8,0.9-1.5,1c-0.5,0.1-1.1,0-1.8-0.5c-0.1-0.1-0.3-0.2-0.3-0.4c0-0.1,0-0.1,0.4-0.3
			c0.5-0.3,1.3-1.3,1.9-1.9c0.3-0.4,1.8-2.1,2.1-2.5c1.5-1.7,2.2-2.3,2.9-2.8C85,98.1,85,98,85,98c0-0.1-0.1-0.3-0.3-0.3
			c-0.1,0-0.1,0-0.6,0.4c-1.2,0.9-2,1.5-3,1.7c-1.3,0.2-2-0.5-1.9-1c0-0.2,0.2-0.4,0.3-0.5c0,0,0.3,0,0.3,0c0.2,0,0.3-0.1,1.4-0.8
			c1.4-0.9,2.5-1.4,3.2-1.5c1.6-0.3,2.6,1.2,2.5,2.3c0,0.1-0.1,0.7-0.7,1.3c-0.6,0.6-1.2,1.1-1.6,1.6c-0.1,0.1-0.1,0.2-0.1,0.2
			c0,0.1,0,0.1,0.3,0.2c0.9,0.3,1.9,1,2.2,1.6c0.2,0.4,0.2,0.7,0.2,1C87.2,104.6,86.7,105.4,86.1,105.5z"/>
		<path class="st13" d="M94.1,95.1c-0.1-0.1-0.3-0.2-0.2-0.5c0-0.3,0.3-0.6,0.8-0.7c0.6-0.1,1.2,0.2,1.5,0.6c1.1-0.2,2.5,0,2.4,0.8
			c0,0.4-0.3,1-1.2,1.1c0.1,0.1,0.3,0.3,0.3,0.7c0.7,0.2,0.7,0.6,0.7,0.9c-0.1,0.8-0.5,0.9-0.9,0.9c-0.1,0.2-0.2,0.2-0.3,0.4
			c0.7,0,1,0.2,1,0.8c-0.1,0.8-0.7,0.9-1,1c0.3,0.3,0.3,0.4,0.4,0.5c0.4,0.4,0.6,0.6,0.5,1.3c0,0.4-0.1,0.7-0.3,0.9
			c-0.4,0.7-1.5,0.8-1.6,0.8c-0.3,0-1.1,0.1-1.5-0.1c-0.5-0.3-0.7-0.9-0.6-1.4c0-0.4,0.2-1,0.4-1.5c-0.2,0.1-0.9,0.2-1.1,0.3
			c0.4,0.2,0.4,0.5,0.4,0.8c0,0.2-0.1,1.3-0.7,1.9c-0.2,0.2-0.4,0.4-0.9,0.5c-0.3,0.1-0.5,0-0.6,0c-0.1,0.1-0.2,0.2-0.5,0.2
			c-0.9,0.1-0.9-0.6-0.9-1.3c0-0.3,0-0.7-0.1-0.9c-0.1,0.4-0.3,1.2-0.4,1.5c-0.2,0.5-0.6,1-1,1.1c-0.7,0.1-1.2-0.8-1.1-1.3
			c0-0.2,0-0.2,0.3-0.5c0-0.1,0.3-0.5,0.6-1.1c0.3-0.7,0.5-1.4,0.7-1.8c0,0-0.1,0.1-0.2,0.1c-0.4,0.1-1.1-0.3-0.9-2.2
			c0-0.2,0.1-1.2,0.4-1.7c0.1-0.2,0.2-0.3,0.5-0.4c0.3-0.1,0.5,0,0.5,0.6c0,0.3-0.1,0.4-0.1,0.7c-0.1,0.2-0.1,0.3-0.1,0.4
			c0,0,0,0.2,0.1,0.2c0.1,0,0.3-0.4,0.5-0.6c0.1-0.7,0.1-0.8,0.1-1.5c-0.1-0.1-0.4-0.4-0.4-0.9c0-0.2,0.1-0.8,0.8-0.9
			c0.2,0,0.9-0.1,1.2,0.9c0.2-0.2,0.4-0.3,0.5-0.3c0.3,0,0.7,0.2,0.9,0.7c0.1-0.1,0.6-0.4,0.7-0.5c0.3-0.2,0.4-0.3,0.6-0.3
			L94.1,95.1z M90.7,101c0.2,0.1,0.4,0.3,0.6,0.7c0.4,0.8,0.5,1.7,0.6,1.8c0.4-0.4,0.5-0.8,0.5-0.9c-0.2-0.2-0.2-0.3-0.2-0.5
			c-0.1,0-0.6-0.2-0.6-0.7c0-0.1,0-0.2,0.6-0.4c0.2-0.1,0.2-0.1,0.8-0.4c-0.1-0.2-0.2-0.5-0.2-0.6c-0.4,0.1-0.4,0.2-0.5,0.2
			c-0.1,0-0.1,0-0.2,0c-0.1,0.2-0.2,0.5-0.8,0.5c-0.3,0-0.4,0-0.6-0.2C90.7,100.7,90.7,100.7,90.7,101z M91,99.2
			C91,99.1,91,99.1,91,99.2c0.4-0.8,0.6-1.4,0.6-2.1c0-0.1,0-0.2,0-0.2c-0.1,0-0.3,0.4-0.3,0.5C91.2,97.6,91,98.9,91,99.2z
			 M92.8,98.5c0-0.1,0-0.1,0-0.2c-0.1-0.1-0.2-0.1-0.2-0.2c0,0,0,0.1,0,0.2c0,0.1,0,0.2-0.1,0.4C92.7,98.6,92.7,98.6,92.8,98.5z
			 M93.8,98c0.1,0,0.1,0,0.1-0.1c-0.1-0.2-0.1-0.4-0.1-0.9c-0.4,0.1-0.8,0.3-1.1,0.3c0,0,0,0.2,0,0.2C93,97.4,93.5,97.4,93.8,98z
			 M94.1,99.5c0,0.3,0,0.3,0,0.5c0.5-0.2,0.9-0.3,1.1-0.4c0.1-0.2,0.2-0.4,0.3-0.6C95.3,99.1,95.1,99.1,94.1,99.5z M96,96.4
			c0,0.3-0.1,0.5-0.1,0.8c0.1,0,0.2,0,0.4-0.1c0,0,0-0.1,0-0.2c-0.1-0.1-0.1-0.2-0.1-0.3c0-0.2,0.2-0.3,0.2-0.3
			C96.1,96.3,96.1,96.3,96,96.4z M96.2,101.5c0,0.2-0.1,0.5-0.1,0.6c-0.1,0.2-0.1,0.3-0.1,0.3c0,0.1,0,0.2,0.2,0.1
			c0.3,0,0.6-0.5,0.6-0.9c0-0.2,0-0.4,0-0.5c-0.3,0-0.4,0.1-0.6,0.1C96.2,101.3,96.2,101.3,96.2,101.5z"/>
		<path class="st13" d="M100.3,95.3l0.9-0.3l1-0.4c0,0,0,0,0-0.1c0,0,0-0.1-0.1-0.2c0-0.1-0.1-0.2-0.1-0.4c0-0.5,0.5-1.1,1.1-1.2
			c0.2,0,0.5,0,0.7,0.5c0,0.1,0.1,0.5,0.2,0.6c0.1,0,0.2,0,0.7-0.2c0.1,0,0.2,0,0.3-0.1c1.2-0.2,1.6,0.6,1.5,1
			c0,0.2-0.1,0.6-0.4,0.7c-0.2,0.1-1.3,0.2-1.3,0.4c0,0.1,0.2,0.2,0.2,0.2c0,0,0.2-0.1,0.2-0.1c0.3-0.1,0.6-0.1,0.7-0.2
			c1.1-0.2,1.5,0.6,1.4,1.1c0,0.1-0.1,0.7-0.7,0.9c-0.2,0-0.2,0.1-0.3,0.1c0,0.1,0,0.2,0.2,0.7c0.1,0.2,0.1,0.5,0.1,0.6
			c-0.1,0.7-0.6,1.3-1.1,1.3c-0.3,0-0.4,0-0.7-0.1c-1-0.3-2.5-0.2-3-0.1c-1,0.2-1.2,0.6-1.2,0.8c0,0.5,0.8,0.4,1.4,0.3
			c0.5-0.1,0.8-0.2,1.1-0.3c0.7-0.2,0.9-0.3,1.4-0.4c0.2,0,1.1-0.2,1.1,0.8c-0.1,1.3-1.8,1.5-2.6,1.6c-0.7,0.1-2.4,0.4-3.4-0.2
			c-0.7-0.4-0.7-1.1-0.7-1.5c0.1-1.9,2.5-2.2,3-2.3c0.5-0.1,1-0.1,1.3-0.1c0.1,0,0.7,0,0.7,0c0,0,0.2,0,0.2-0.1
			c0-0.1-0.3-0.5-0.4-0.6c-0.3,0.1-0.4,0.1-1,0.3c-0.4,0.1-0.8,0.2-1.1,0.3c-0.3,0.1-0.9,0.1-1.4-0.1c-0.4-0.2-0.6-0.7-0.5-1.1
			c0-0.2,0.1-0.4,0.1-0.5c0,0,0.1-0.1,0.1-0.2c0-0.1,0-0.1-0.2-0.1c-0.4-0.2-0.7-0.8-0.7-1.1c0-0.2,0.1-0.5,0.5-0.6
			c0.1,0,0.2,0,0.2,0c0,0,0.3,0.1,0.3,0.1H100.3z M101.6,96.6c-0.4,0.1-0.4,0.2-0.4,0.3c0,0.2,0.1,0.3,0.3,0.2
			c0.3,0,1.1-0.3,1.3-0.4c0,0,0,0,0-0.1c0,0-0.2-0.3-0.2-0.3c0,0-0.1,0-0.1,0L101.6,96.6z"/>
		<path class="st13" d="M118.1,94.5c0,0.2-0.1,0.5-0.4,0.7c-0.3,0.2-0.4,0.2-0.7,0.3c-0.5,0.1-1,0.2-2.2,0.8
			c-0.4,0.2-2.1,1.2-2.1,1.9c0,0.5,0.7,0.9,1.7,0.7c0.2,0,0.9-0.2,1-0.2c0.3-0.1,1.3-0.1,1.3,0.8c0,0.6-0.5,1.3-2,1.6
			c-2.1,0.3-3.9-0.4-3.8-2.3c0-0.4,0.1-0.6,0.2-0.8c-0.1,0-0.1,0-0.2,0.1c-0.2,0.1-0.4,0.2-0.5,0.2c-1,0.2-1.7-0.6-1.7-1
			c0,0,0-0.1,0.2-0.2c0.5-0.3,0.6-0.3,1.2-0.7c0.1-0.1,0.4-0.2,0.4-0.3l0,0c0-0.1-0.1-0.1-0.2-0.1c-0.1,0-1-0.4-0.9-1.7
			c0-0.6,0.5-1.3,1-1.4c0.4-0.1,0.6,0.3,0.6,0.4c0,0,0.1,0.7,0.1,0.7c0,0.1,0.1,0.1,0.1,0.1c0.1,0,0.4-0.3,0.5-0.4
			c1.1-1.1,1.7-1.7,2.4-2.2c0.3-0.2,0.8-0.5,1.2-0.5c1.2-0.2,2,0.8,1.9,1.4c0,0.2-0.1,0.5-0.5,0.9C117.8,93.4,118.1,94,118.1,94.5z
			 M113.2,94.6c0.1-0.1,0.5-0.3,0.6-0.3c0,0,1.5-1.5,1.5-1.6c0,0-0.1-0.2-0.2-0.1c-0.2,0-0.4,0.2-0.9,0.8c-0.6,0.7-0.7,0.8-0.8,1
			C113.3,94.4,113.2,94.5,113.2,94.6L113.2,94.6z"/>
		<path class="st13" d="M125,91.6c0.1-0.4,0.1-0.5,0-0.6c-0.1-0.1-0.4-0.4-0.4-0.7c0-0.2,0.3-0.7,0.7-0.8c0.3-0.1,1.3,0,1.6,1
			c0.1,0.3,0.1,0.3,0.2,0.3c0.4,0,0.8,0,1.2,0.3c0.1,0.1,0.4,0.3,0.3,0.8c-0.1,0.9-0.6,1-1,1c-0.5,0.1-0.5,0.1-0.5,0.4
			c0,0.2,0,0.9,0,1.1c0,0.2-0.1,1.1-0.1,1.3c0,0.1,0,0.1,0.2,0.2c0,0,1.3,0.7,1.2,1.6c0,0.5-0.4,1.2-1,1.3c-0.2,0-0.5-0.1-0.6-0.1
			c-0.2-0.1-0.4-0.4-0.5-0.4c0,0,0,0,0,0c-0.1,0-0.1,0.1-0.2,0.3c-0.5,0.8-1.5,1.1-1.9,1.2c-1.4,0.2-2-0.5-2.1-0.9
			c-0.1-0.4-0.1-0.4-0.2-0.7c0-0.2,0-0.3,0-0.4c0.1-1.3,1.6-2.1,2.8-2.3l0.2,0c0,0,0.1-0.2,0.1-0.2l0.1-1c0-0.1,0-0.1-0.1-0.1
			c0,0-0.4,0.2-0.5,0.2c-0.3,0.1-0.6,0.2-0.9,0.3c-0.3,0-0.4,0-1-0.1c-0.1,0-0.1,0-0.1,0c-0.2,0-0.3,0.2-0.4,0.5
			c-0.2,0.5-0.3,1.1-0.3,1.6c0,0.2,0,0.3,0,0.4l0,1.1l0.1,1c0,0.1,0,0.2,0,0.3c-0.1,0.7-0.7,0.9-0.9,0.9c-0.8,0.1-1.3-0.3-1.6-0.8
			c-0.2-0.5-0.4-1.4-0.3-2.5c0.1-0.7,0.2-1.5,0.6-2.8c0.2-0.5,0.2-0.8,0.3-1.2c0-0.3,0-0.4-0.1-1.2c0,0,0-0.2,0-0.2
			c0-0.4,0.3-0.8,0.7-0.8c0.7-0.1,1.4,0.7,1.3,1.8c0,0.5-0.1,0.8-0.5,2c-0.4,1.1-0.5,1.9-0.6,2.4c0,0.2-0.1,0.9,0.2,0.8
			c0.1,0,0.1-0.1,0.1-0.1c0-0.3,0.1-1.3,0.4-2.3c0.2-0.7,0.6-1.9,1.3-2.2c0.1-0.1,0.6-0.2,0.7-0.2c0.1,0,0.2-0.1,0.5-0.3l0.7-0.5
			l0.5-0.3L125,91.6z M124.2,97.4c0-0.1,0.1-0.2,0.1-0.3c0-0.1,0-0.1-0.1-0.1c-0.4-0.1-0.5-0.1-0.7,0c-0.1,0-0.4,0.1-0.4,0.3
			c0,0.4,0.3,0.7,0.7,0.6C124,97.9,124.1,97.6,124.2,97.4z M128.3,89.9c0-0.2-0.2-0.5-0.3-0.5c0,0-0.1,0-0.1,0.1c0,0,0,0.5,0,0.6
			c0,0.1-0.1,0.3-0.1,0.4c-0.1,0.1-0.2,0.2-0.4,0.2c-0.3,0-0.3,0-0.3-0.1c-0.1-0.1-0.1-0.1-0.2-0.5c0-0.1-0.3-0.4-0.3-0.5
			c0-0.2,0.2-0.3,0.4-0.3c0.1,0,0.3,0,0.5,0.1c0.3-0.4,0.6-0.5,0.7-0.5c0.4-0.1,1,0.3,1,1c0,0.4-0.2,0.7-0.7,0.7
			c-0.2,0-0.3-0.1-0.3-0.3c0,0,0-0.2,0-0.2L128.3,89.9z"/>
	</g>
	<path class="st8" d="M68.5,96.7c-0.3,0-0.6,0-0.9-0.1c-0.7-0.2-1.3-0.5-1.9-0.8c-0.7-0.4-1.3-0.7-2.1-0.7c-1.6-0.1-3.6,0.3-5.3,0.7
		l-0.5,0.1c-0.4,0.1-0.7-0.1-0.8-0.5c-0.1-0.4,0.1-0.7,0.5-0.8l0.5-0.1c1.8-0.4,3.8-0.8,5.6-0.7c1.1,0.1,1.9,0.5,2.6,0.9
		c0.5,0.3,1,0.5,1.6,0.7c1,0.2,2.1-0.2,3.1-0.6c0.3-0.1,0.6-0.2,0.8-0.3c0.2-0.1,0.3-0.1,0.4-0.2c0.4-0.2,1-0.5,1.8-0.1
		c0.3,0.1,0.5,0.5,0.3,0.9c-0.1,0.3-0.5,0.5-0.9,0.3c-0.2-0.1-0.3-0.1-0.7,0.1c-0.2,0.1-0.4,0.2-0.6,0.3c-0.3,0.1-0.5,0.2-0.8,0.3
		C70.6,96.3,69.6,96.7,68.5,96.7z"/>
	<g>
		<path class="st3" d="M102.3,108.6l1.3-0.6l0.3-0.1c0.1-0.3,0.4-1,0.4-1.4c0-0.1,0-0.2-0.4-0.5c-0.2-0.1-0.3-0.3-0.3-0.6
			c0-0.5,0.2-0.7,0.5-0.9c0.3-0.2,0.7-0.3,1-0.3c1.2-0.1,2.4,1,2.5,1.9c0,0.1,0,0.3,0,0.4l1.2-0.3c0.2,0,0.6-0.1,0.8-0.1
			c2.4-0.1,4,1.2,4,2.1c0,0.4-0.1,0.8-0.4,1c-0.4,0.3-0.4,0.4-0.9,0.4c-0.2,0-0.3,0-0.4,0l-0.9-0.2c-0.3-0.1-0.8-0.1-1.1-0.1
			c-0.6,0-1.1,0.2-1.6,0.4l1.3,0.7l1.5,0.9l0.3,0.2l0.8,0.6c0.4,0.3,1,0.8,1.3,1.5c0.1,0.2,0.2,0.6,0.2,0.9c0,0.5-0.2,0.9-0.5,1.2
			c0,0-0.1,0-0.1,0.1c-0.2,0.2-0.3,0.2-0.7,0.3c0,0-0.2,0-0.3,0c-0.6,0-1.3-0.4-1.6-0.7l-0.8-0.9l-0.9-1l-0.9-0.9
			c-0.6-0.7-1.3-1.1-1.6-1.2l0,0.1l-0.5,1.1l0,0.1c0.1,0,0.6,0.1,0.6,0.2c0.8,0.4,2.1,1.3,2.1,2.5c0,0.6-0.5,1-0.7,1.1
			c-0.1,0.1-0.2,0.1-0.7,0.2c-1,0.1-1.7-0.7-1.7-1.1c0-0.1,0-0.7,0-0.7c-0.1-0.3-0.2-0.4-0.3-0.5c-0.6,1.5-1.8,2.2-2.6,2.2
			c-0.6,0-1.4-0.4-1.4-0.4c-1-0.6-1.3-0.9-1.4-1.2c0-0.2,0.1-0.2,0.3-0.3c0.4-0.1,1.4-1,1.8-1.5c0.5-0.9,0.7-1.2,1-2
			c-0.1,0-0.6,0.1-0.7,0.1c-1.3,0.1-2.5-0.6-2.5-1.4c0-0.3,0.4-0.5,0.5-0.5c0.1,0,0.3,0,0.3,0L102.3,108.6z"/>
		<path class="st3" d="M116.9,107.9c-0.1,0-0.2,0.1-0.4,0.1c-0.8,0-1.6-0.3-1.6-0.8c0-0.3,0.4-0.4,0.5-0.4c0.3,0,0.4-0.1,1.5-0.5
			l0-0.3c-0.1,0-0.4,0.1-0.5,0.1c-1,0.1-1.7-0.3-1.8-0.7c0-0.2,0.1-0.3,0.5-0.4c0.5-0.2,1.2-0.4,1.6-0.6c-0.2-0.1-0.5-0.2-0.5-0.5
			c0-0.6,1.1-0.7,1.3-0.7c0.7,0,1.4,0.1,1.9,0.6c0.1,0,0.5-0.1,1.1,0c0.7,0.1,0.8,0.3,0.9,0.4c0.1,0,0.1,0,0.2,0
			c0.2,0,0.4-0.1,0.5-0.1c2.3-0.7,2.9-0.9,3.7-1c1.8-0.1,3.1,0.7,3.1,1.5c0,0.4-0.3,0.7-0.7,0.7c-0.1,0-0.7-0.1-0.8-0.1
			c-0.2,0-0.5-0.1-1,0c-0.5,0-0.7,0.1-1,0.2c0.2,0.1,0.3,0.2,0.3,0.3c2-0.2,3,1.2,3.1,2.5c0,0.1,0,1.9,0,2.3c0,0.2,0.1,1.3,0.1,1.5
			c0.1,1-0.5,1.5-0.9,1.5c-0.2,0-0.3,0-0.8-0.3c-0.2-0.1-0.3-0.1-0.5-0.1c-0.3,0-1.4,0.3-1.6,0.3c-0.3,0.1-0.7,0.1-1,0.1
			c-0.8,0-1.2-0.3-1.4-0.4c-0.8-0.1-1.2-0.4-1.3-1.3c-0.1,0.4-0.2,0.8-0.5,1.4c1.5,0.5,3.2,0.6,4.9,0.5c0.2,0,2.1-0.1,2.3-0.2
			c0.5,0,1.2,0,1.2,0.8c0,0.5-0.3,1.7-2.7,1.8c-0.1,0-2.1,0.1-3.9-0.2c-1.2-0.2-2.2-0.5-3.2-1c-0.6,0.9-1.4,1.5-2.4,1.6
			c-0.7,0-1.9-0.2-2-1.4c0-0.1,0-0.7,0.2-1.5c-0.5-0.2-0.7-0.5-0.7-0.8c0-0.3,0-0.3,0.7-0.9c0.1-0.1,0.3-0.3,0.3-0.4
			c0-0.1,0-0.1-0.2-0.2c-0.2-0.1-0.3-0.3-0.3-0.5c0-0.4,0.4-0.8,0.9-0.8c0.2,0,0.2,0,0.8,0.2c0.2-0.2,0.2-0.3,0.6-0.8
			c-0.5,0.1-1.2,0.2-1.3,0.2c-0.9,0-1.7-0.5-1.7-0.8c0-0.3,0.2-0.3,0.5-0.4c0.1,0,1.2-0.4,1.8-0.5V107.9z M116.2,114.2
			c-0.1,0-0.2,0-0.2,0c0,0.4,0.1,0.8,0.4,0.8c0.2,0,0.3-0.1,1.2-1.1c-0.2-0.1-0.2-0.2-0.4-0.3C116.9,113.9,116.4,114.2,116.2,114.2z
			 M118.8,112.2c0.7-1,0.9-1.3,0.8-1.5c0-0.2-0.2-0.5-0.5-0.5c-0.1,0-0.2,0.1-0.3,0.3c-0.2,0.4-0.4,0.7-0.6,1.2
			C118.4,111.8,118.7,112.1,118.8,112.2z M120.5,109.2c-0.1,0-0.3,0-0.5,0c-0.2,0-0.4,0.1-0.6,0.1c0.9,0.2,1.4,0.5,1.9,1.5
			c0-0.2,0-0.3,0-0.5c0-0.1,0.1-0.9,0.1-1C121.1,109.3,121,109.3,120.5,109.2z M123.1,106.6c-0.3-0.3-0.3-0.3-0.3-0.4
			c0-0.1,0.1-0.2,0.1-0.2c-0.5,0-1.3,0-1.8-0.5c-0.1,0-0.2,0-0.3,0c-0.1,0-0.5,0-0.6,0c-0.2,0-0.4,0-0.7,0l0,0.3
			c0.4,0,1.6,0.1,1.8,0.9c0.1-0.1,0.1-0.1,0.4-0.1c0.3,0,0.5,0.1,0.6,0.1L123.1,106.6z M119.7,107.7c0.5,0,1.3,0,1.7,0.3
			c0-0.1,0-0.1-0.1-0.3c-0.1-0.3-0.1-0.3-0.2-0.5c-0.1,0-0.2,0.1-0.3,0.1c-0.1,0-1,0-1.2,0L119.7,107.7z M123,108.3
			c0,0.1,0.1,0.2,0.1,0.5c0,0.2,0.1,2.3,0.1,2.6c0,0.4,0.1,0.5,0.1,0.7l0.3-0.1c0-0.1-0.1-1-0.1-1c0-0.3,0-1.7-0.1-2
			c0-0.1-0.1-0.5-0.1-0.7L123,108.3z M124.4,108c0.1,0.1,0.2,0.3,0.2,0.5l0.4-0.2c0-0.1-0.1-0.3-0.1-0.4c0,0,0-0.1,0-0.1L124.4,108z
			 M124.7,109.8l0,0.4l0.4-0.1l0-0.4L124.7,109.8z M124.8,111.3l0,0.4l0.4-0.1l0-0.3L124.8,111.3z M126.8,111.4l-0.1-2
			c0-0.3-0.1-1.5-0.2-1.7c0-0.1-0.1-0.2-0.2-0.2c-0.1,0-0.2,0-0.3,0.1c0.3,0.5,0.3,0.6,0.4,2.3l0.1,1.5L126.8,111.4z"/>
	</g>
	<g>
		<defs>
			<path id="SVGID_3_" d="M130.2,76.9c-1-5-8.9-5.9-8.9-5.9H68.4c-9-0.1-10.4,6.7-10.4,6.7s-1.7,11.6-2.9,21.6l76.3-12.7
				C130.9,82.2,130.5,78.4,130.2,76.9z"/>
		</defs>
		<clipPath id="SVGID_4_">
			<use xlink:href="#SVGID_3_"  style="overflow:visible;"/>
		</clipPath>
		<g class="st14">
			<polyline class="st15" points="128.4,72.2 102.5,75.5 102.5,76.7 129.9,73.7 			"/>
			<polyline class="st16" points="128.4,72.7 102.5,76 102.5,77.2 129.9,74.2 			"/>
			<path class="st8" d="M121.2,91.1c-0.1,0-0.3,0-0.4-0.1l-0.2-0.2c-0.7-0.6-1.1-0.9-1.7-1.9c-0.3-0.5-0.4-1.1-0.5-1.6
				c-0.1-0.4-0.2-0.9-0.3-1.2c-0.3-0.5-0.6-0.6-1.1-0.8c-0.2-0.1-0.5-0.2-0.8-0.3c-1.5-0.7-1.8-1.4-2.2-2.4l-0.2-0.5
				c-0.5-1.2-0.7-1.6-1.8-2.2c-0.2-0.1-0.4-0.2-0.6-0.3c-0.8-0.3-1.5-0.6-2-1.5c-0.2-0.4-0.4-0.8-0.5-1.1c-0.2-0.7-0.4-1.1-1.1-1.4
				c-0.4-0.2-0.8-0.1-1.3-0.1c-0.3,0-0.7,0.1-1.2,0.1c-0.4,0-0.6-0.3-0.6-0.7c0-0.4,0.3-0.6,0.7-0.6c0.3,0,0.6,0,0.9,0
				c0.6-0.1,1.3-0.1,2,0.1c1.3,0.5,1.6,1.4,1.9,2.2c0.1,0.3,0.2,0.6,0.3,0.8c0.3,0.6,0.7,0.7,1.4,1c0.2,0.1,0.5,0.2,0.7,0.3
				c1.6,0.8,1.9,1.6,2.4,2.9l0.2,0.5c0.4,1,0.5,1.3,1.5,1.7c0.2,0.1,0.4,0.2,0.7,0.2c0.6,0.2,1.3,0.4,1.9,1.4c0.3,0.5,0.4,1,0.5,1.6
				c0.1,0.5,0.2,0.9,0.3,1.2c0.4,0.8,0.7,1,1.3,1.5l0.2,0.2c0.3,0.2,0.3,0.6,0.1,0.9C121.6,91,121.4,91.1,121.2,91.1z"/>
			<path class="st8" d="M114.6,92.1c-0.2,0-0.3-0.1-0.5-0.2c-0.4-0.4-0.4-1.2-0.3-2.1c0-0.4,0-0.9,0-1.2c0-0.3-0.1-0.5-0.3-0.8
				c-0.1-0.2-0.2-0.5-0.3-0.9c-0.2-1-0.1-1.9,0-2.8c0.1-0.5,0.1-1,0.1-1.5c0-0.2,0-0.3,0-0.4c0-0.7,0-0.8-0.4-1.3
				c-0.1-0.2-0.4-0.4-0.7-0.5c-0.4-0.2-0.9-0.5-1.1-1.1c-0.2-0.4-0.1-1-0.1-1.4c0-0.3,0-0.6,0-0.8c-0.3-1.1-1.1-2.2-1.8-2.9
				c-0.2-0.3-0.2-0.7,0.1-0.9c0.3-0.2,0.7-0.2,0.9,0.1c0.7,0.8,1.7,2.1,2,3.4c0.1,0.4,0.1,0.8,0,1.2c0,0.3,0,0.7,0,0.8
				c0.1,0.2,0.3,0.3,0.6,0.5c0.3,0.2,0.7,0.4,1,0.9c0.6,0.8,0.6,1.4,0.6,2.1c0,0.1,0,0.2,0,0.4c0,0.6-0.1,1.2-0.1,1.7
				c-0.1,0.8-0.2,1.6,0,2.3c0.1,0.2,0.1,0.4,0.2,0.7c0.1,0.3,0.3,0.7,0.4,1.1c0.1,0.4,0,0.9,0,1.4c0,0.4-0.1,1,0,1.2
				c0.2,0.3,0.2,0.6-0.1,0.9C114.9,92,114.7,92.1,114.6,92.1z"/>
			<path class="st9" d="M115.4,90.8c-0.4,0-0.7-0.3-0.7-0.7c0-1,0.1-2.2,0.2-3.4c0.1-1.5,0.3-3,0.2-4.4c0-1.2-0.5-2-0.9-2.9
				c-0.3-0.5-0.5-1-0.8-1.7c-0.1-0.4-0.3-0.8-0.4-1.2c-0.2-0.9-0.5-1.8-1.1-2.4c-0.2-0.3-0.2-0.7,0-0.9c0.3-0.2,0.7-0.2,0.9,0
				c0.8,0.9,1.1,2,1.4,3c0.1,0.4,0.2,0.8,0.3,1.1c0.2,0.5,0.4,1,0.7,1.5c0.5,1,1,2,1.1,3.5c0.1,1.4-0.1,3-0.2,4.5
				c-0.1,1.2-0.2,2.3-0.2,3.3C116,90.5,115.7,90.8,115.4,90.8z"/>
			<path class="st8" d="M117.2,90.8c-0.4,0-0.7-0.3-0.7-0.7c0-1,0.1-2.2,0.2-3.4c0.1-1.5,0.3-3,0.2-4.4c0-1.2-0.5-2-0.9-2.9
				c-0.3-0.5-0.5-1-0.8-1.7c-0.1-0.4-0.3-0.8-0.4-1.2c-0.2-0.9-0.5-1.8-1.1-2.4c-0.3-0.3-0.2-0.7,0-0.9c0.3-0.2,0.7-0.2,0.9,0
				c0.8,0.9,1.1,2,1.4,3c0.1,0.4,0.2,0.8,0.3,1.1c0.2,0.5,0.4,1,0.7,1.5c0.5,1,1,2,1.1,3.5c0,1.4-0.1,3-0.2,4.5
				c-0.1,1.2-0.2,2.3-0.2,3.3C117.8,90.5,117.5,90.8,117.2,90.8z"/>
			<path class="st8" d="M118.6,89.7c-0.3,0-0.6-0.3-0.7-0.6c0-0.3-0.1-0.9-0.2-1.4c-0.1-0.8-0.2-1.8-0.3-2.5c0-0.7,0.1-1.4,0.2-2.1
				c0.1-0.6,0.2-1.1,0.2-1.7c0-0.5-0.1-0.7-0.3-1c-0.1-0.2-0.3-0.5-0.4-1c-0.2-0.6-0.1-0.9-0.1-1.2c0-0.1,0-0.3,0-0.5
				c0-2.7,0-2.7-2.6-4l-0.5-0.2c-0.3-0.2-0.5-0.5-0.3-0.9c0.2-0.3,0.5-0.5,0.9-0.3l0.5,0.2c2.9,1.3,3.4,1.7,3.3,5.2
				c0,0.3,0,0.5-0.1,0.7c0,0.2-0.1,0.4,0,0.7c0.1,0.3,0.2,0.5,0.3,0.7c0.2,0.4,0.4,0.8,0.5,1.6c0,0.7-0.1,1.4-0.2,2
				c-0.1,0.6-0.2,1.1-0.2,1.7c0,0.7,0.2,1.6,0.3,2.4c0.1,0.6,0.1,1.1,0.2,1.5C119.3,89.4,119,89.7,118.6,89.7
				C118.7,89.7,118.6,89.7,118.6,89.7z"/>
			<path class="st9" d="M122,90.1c-0.3,0-0.6-0.3-0.7-0.6c0-0.3-0.1-0.9-0.2-1.4c-0.1-0.8-0.2-1.8-0.3-2.5c0-0.8,0.1-1.4,0.2-2.1
				c0.1-0.6,0.2-1.1,0.2-1.7c0-0.5-0.1-0.7-0.3-1c-0.1-0.2-0.3-0.5-0.4-1c-0.2-0.6-0.1-0.9-0.1-1.2c0-0.1,0-0.3,0-0.5
				c0-2.7,0-2.7-2.6-4l-0.5-0.2c-0.3-0.2-0.5-0.5-0.3-0.9c0.2-0.3,0.5-0.5,0.9-0.3l0.5,0.2c2.9,1.4,3.4,1.7,3.3,5.2
				c0,0.3,0,0.5-0.1,0.7c0,0.2-0.1,0.4,0,0.7c0.1,0.3,0.2,0.5,0.3,0.7c0.2,0.4,0.4,0.8,0.5,1.6c0,0.7-0.1,1.4-0.2,2
				c-0.1,0.6-0.2,1.1-0.2,1.7c0,0.7,0.2,1.6,0.3,2.4c0.1,0.6,0.1,1.1,0.2,1.5C122.7,89.8,122.4,90.1,122,90.1
				C122,90.1,122,90.1,122,90.1z"/>
			<path class="st8" d="M122.3,90.9c-0.4,0-0.7-0.3-0.7-0.7c0-0.6-0.1-1.3-0.2-1.9c-0.1-1-0.2-2-0.1-3c0-0.4,0.1-0.9,0.2-1.3
				c0.1-0.7,0.3-1.4,0.2-2.2c-0.2-1.9,0-2.3,0.6-3.7l0.2-0.4c0.6-1.3,0-2.2-1.2-3.6c-0.2-0.3-0.4-0.5-0.6-0.8
				c-0.2-0.3-0.2-0.7,0.1-0.9c0.3-0.2,0.7-0.2,0.9,0.1c0.2,0.3,0.4,0.5,0.6,0.8c1.1,1.4,2.3,2.9,1.3,5l-0.2,0.4
				c-0.6,1.3-0.6,1.4-0.5,3c0.1,0.9-0.1,1.8-0.2,2.5c-0.1,0.4-0.1,0.8-0.2,1.2c-0.1,0.9,0,1.8,0.1,2.7c0.1,0.7,0.2,1.4,0.2,2.1
				C123,90.6,122.7,90.9,122.3,90.9C122.3,90.9,122.3,90.9,122.3,90.9z"/>
			<path class="st9" d="M106.5,92.8c-0.3,0-0.6-0.3-0.7-0.6c-0.1-1-0.2-3.6,0.3-5.3c0.3-1.2,0.8-1.9,1.2-2.5c0.6-0.9,1-1.5,0.8-3
				c-0.1-1.2,0-1.7,0.3-2.6c0-0.1,0.1-0.3,0.2-0.5c0.3-1,0.3-2.1,0.4-3.2c0-0.3,0-0.7,0-1c0-0.4,0.3-0.6,0.7-0.6
				c0.4,0,0.6,0.3,0.6,0.7c0,0.3,0,0.7,0,1c0,1.2-0.1,2.4-0.4,3.5c-0.1,0.2-0.1,0.4-0.2,0.5c-0.3,0.8-0.3,1-0.2,2
				c0.2,1.9-0.4,2.9-1,3.9c-0.4,0.6-0.8,1.2-1,2.2c-0.4,1.5-0.3,4.1-0.2,4.8C107.2,92.4,106.9,92.7,106.5,92.8
				C106.5,92.8,106.5,92.8,106.5,92.8z"/>
			<path class="st8" d="M123.1,90.3C123.1,90.3,123.1,90.3,123.1,90.3c-0.4,0-0.7-0.3-0.7-0.7c0-0.4,0-0.6,0.1-0.8
				c0-0.4,0.1-0.6-0.1-1.3l0-0.2c-0.2-0.8-0.4-2-0.8-2.7c-0.2-0.5-0.6-0.7-1.1-1.1c-0.5-0.3-1-0.7-1.3-1.2c-0.8-1.2-0.3-2.3,0.1-3.3
				c0.2-0.5,0.4-0.9,0.5-1.3c0.2-1.3-0.4-2.8-0.9-4.2l-0.1-0.4c-0.1-0.3,0-0.7,0.4-0.8c0.3-0.1,0.7,0,0.8,0.4l0.1,0.4
				c0.6,1.5,1.2,3.2,1,4.8c-0.1,0.6-0.3,1.2-0.6,1.7c-0.4,0.9-0.6,1.4-0.2,2c0.2,0.3,0.6,0.6,1,0.8c0.6,0.4,1.2,0.8,1.6,1.6
				c0.4,0.8,0.7,2.1,0.9,3l0,0.2c0.2,0.8,0.1,1.2,0.1,1.7c0,0.2,0,0.4-0.1,0.7C123.7,90,123.4,90.3,123.1,90.3z"/>
			<path class="st8" d="M109,91.3c-0.1,0-0.1,0-0.2,0c-0.4-0.1-0.6-0.4-0.5-0.8c0.3-1.3,0-2.3-0.3-3.4c-0.3-1.1-0.6-2.2-0.4-3.5
				c0-0.3,0.1-0.5,0.1-0.7c0.2-1,0.3-1.5-0.3-2.6c-0.7-1.5-1.7-3-2.6-4.2c-0.2-0.3-0.1-0.7,0.1-0.9c0.3-0.2,0.7-0.1,0.9,0.1
				c0.9,1.3,2,2.8,2.7,4.4c0.7,1.5,0.6,2.3,0.4,3.4c0,0.2-0.1,0.4-0.1,0.7c-0.2,1.1,0.1,2,0.4,3c0.3,1.2,0.7,2.5,0.3,4.1
				C109.6,91.1,109.3,91.3,109,91.3z"/>
		</g>
	</g>
</g>
</svg>
