<?xml version="1.0" encoding="utf-8"?>
<!-- Generator: Adobe Illustrator 24.0.1, SVG Export Plug-In . SVG Version: 6.00 Build 0)  -->
<svg version="1.1" id="レイヤー_1" xmlns="http://www.w3.org/2000/svg" xmlns:xlink="http://www.w3.org/1999/xlink" x="0px"
	 y="0px" viewBox="0 0 141.7 141.7" style="enable-background:new 0 0 141.7 141.7;" xml:space="preserve">
<style type="text/css">
	.st0{fill:#8A8A8A;}
	.st1{fill:#F0EFEF;}
	.st2{fill:#C11920;}
	.st3{fill:url(#SVGID_1_);}
	.st4{fill:url(#SVGID_2_);}
	.st5{fill:#5D8AA2;}
	.st6{fill:#DCDDDD;}
	.st7{fill:#C9CACA;}
	.st8{fill:#267EAF;}
	.st9{fill:#B5B5B6;}
	.st10{fill:#595857;}
	.st11{fill:none;stroke:#D9B556;stroke-width:0.5495;stroke-miterlimit:10;}
	.st12{fill:#D9B556;}
	.st13{fill:#3E3A39;}
	.st14{fill:#F7F9F9;}
	.st15{fill:#0E2F8F;}
	.st16{fill:url(#SVGID_3_);}
	.st17{fill:url(#SVGID_4_);}
	.st18{fill:url(#SVGID_5_);}
	.st19{fill:#755F43;}
	.st20{fill:#CD6829;}
	.st21{fill:#E08030;}
	.st22{fill:#F7F8F8;}
	.st23{fill:#E9E5E2;}
	.st24{fill:#9E9E9F;}
	.st25{fill:#C8C9CA;}
	.st26{clip-path:url(#SVGID_8_);fill:#FBD6A0;}
	.st27{fill:#D1A26C;}
	.st28{fill:#FDEBD1;}
	.st29{fill:url(#SVGID_9_);}
	.st30{fill:#DBDCDC;}
	.st31{fill:#888888;}
	.st32{fill:#B4B4B5;}
	.st33{fill:#E6BE98;}
	.st34{fill:#BAE2F8;}
	.st35{fill:#182987;}
	.st36{fill:#FFFFFF;}
	.st37{fill:#3071B7;}
	.st38{clip-path:url(#SVGID_11_);fill:#F7B52C;}
</style>
<g>
	<g>
		<path class="st0" d="M98.9,49.1c-0.7-0.7-12.4-0.9-28-0.9s-27.3,0.2-28,0.9c-0.7,0.7-0.4,2.1,0.1,2.7c0.5,0.5,16,2.4,28,2.5
			c12-0.1,27.5-2.1,28-2.5C99.3,51.3,99.7,49.8,98.9,49.1z M70.8,53.2c-1.2,0-2.4,0-3.6-0.1C68.5,53.2,69.6,53.2,70.8,53.2
			s2.4,0,3.6-0.1C73.2,53.2,72,53.2,70.8,53.2z"/>
		<path class="st1" d="M98.6,15.4c0-0.6-12.4-1.2-27.7-1.2s-27.7,0.6-27.7,1.2c0,0.1,0.1,0.2,0.3,0.2h-0.4V50c0,0,12.4,1.7,27.7,1.7
			S98.6,50,98.6,50V15.6h-0.3C98.5,15.6,98.6,15.5,98.6,15.4z"/>
		<path class="st2" d="M70.8,43.2c-11.8,0-22.2-0.7-27.7-1.6v6.3v2.4c5.6,0.9,16,2.5,27.7,2.5c11.8,0,22.2-1.7,27.7-2.5v-2.4v-6.3
			C93,42.5,82.7,43.2,70.8,43.2z"/>
		<path class="st1" d="M91.1,51.3c4.4-0.2,7.5-0.6,7.5-1c0-0.1,0-0.2,0-0.2v-0.1v-0.1V16c-1,0.4-4,0.6-7.7,0.9L91.1,51.3z"/>
		
			<linearGradient id="SVGID_1_" gradientUnits="userSpaceOnUse" x1="43.0872" y1="125.3789" x2="98.5956" y2="125.3789" gradientTransform="matrix(1 0 0 -1 0 141.7323)">
			<stop  offset="5.618000e-03" style="stop-color:#CACBCC"/>
			<stop  offset="0.2921" style="stop-color:#AAABAD"/>
			<stop  offset="0.6517" style="stop-color:#CECED0"/>
			<stop  offset="0.8652" style="stop-color:#AEAFB1"/>
			<stop  offset="1" style="stop-color:#B5B5B6"/>
			<stop  offset="1" style="stop-color:#D2D4D7"/>
		</linearGradient>
		<path class="st3" d="M98.6,15.4c0,1.2-12.4,5.1-27.7,5.1s-27.7-3.9-27.7-5.1s12.4-3.2,27.7-3.2C86.2,12.2,98.6,14.2,98.6,15.4z"/>
		
			<linearGradient id="SVGID_2_" gradientUnits="userSpaceOnUse" x1="44.8743" y1="125.8528" x2="96.8094" y2="125.8528" gradientTransform="matrix(1 0 0 -1 0 141.7323)">
			<stop  offset="0" style="stop-color:#D2D4D7"/>
			<stop  offset="0" style="stop-color:#B5B5B6"/>
			<stop  offset="0.1348" style="stop-color:#AEAFB1"/>
			<stop  offset="0.3483" style="stop-color:#CECED0"/>
			<stop  offset="0.7079" style="stop-color:#AAABAD"/>
			<stop  offset="0.9944" style="stop-color:#CACBCC"/>
		</linearGradient>
		<path class="st4" d="M89.4,17c3-0.4,5.3-0.7,6.5-0.9c-3-1.2-13.1-2.5-25-2.5c-12,0-22,1.4-25,2.5c3.2,0.7,15.3,2.2,25,2.2
			C77,18.2,84.2,17.6,89.4,17z"/>
		<path class="st2" d="M70.8,17.5c-11.8,0-22.2-0.7-27.7-1.6v6.3v2.4c5.6,0.9,16,1.6,27.7,1.6c11.8,0,22.2-0.7,27.7-1.6v-2.4v-6.3
			C93,16.7,82.7,17.5,70.8,17.5z"/>
		<path class="st0" d="M98.9,15.6c0-0.2-0.3-0.4-0.9-0.6c-1.3,0.2-3.8,0.6-7,0.9c-5.6,0.6-13.4,1.3-20.1,1.3
			c-10.5,0-23.7-1.5-27.1-2.2c-0.6,0.2-0.9,0.5-0.9,0.6c0,0.3,0.9,0.8,2.4,1.4c4.9,0.8,16.3,2,25.7,2c6.7,0,14.5-0.6,20.2-1.3
			c2.2-0.2,4.1-0.5,5.4-0.7C98.1,16.4,98.9,15.9,98.9,15.6z"/>
	</g>
	<g>
		<path class="st5" d="M88.8,45.3c0-0.1,0-0.1,0-0.2v-0.1V45c-0.3-0.4-0.5-0.9-0.5-1.6c0-0.5,0.2-0.9,0.3-1.3V42
			c0-0.1-0.1-0.2-0.1-0.3c-0.1-0.2-0.1-0.4-0.2-0.6c0,0-0.2-0.5-0.2-0.6c0.1-0.1,0.4-0.4,0.4-0.4c0.2-0.2,0.3-0.2,0.4-0.4
			c0.1-0.1,0.2-0.2,0.2-0.2c0.1-0.1,0.1-0.2,0.2-0.2c0-0.7,0.3-1.4,1-1.6c0.1-0.1,0.1-0.2,0.2-0.2l0,0l0,0c-0.1-0.5,0-1,0.3-1.4
			c0.1-0.1,0.2-0.2,0.2-0.2v-0.1c-0.1,0-0.1,0-0.2,0c-1.8,0.4-3.7,1.3-5.4,2.2h-0.1l0,0c-0.2,0.1-0.3,0.2-0.5,0.2
			c-0.2,0.1-0.5,0.5-0.6,0.9l0,0v0.1v0.1l0,0c-0.1,0.5,0,0.9,0.2,1.2c1.2,1.9,2.4,4.2,3.9,5.8C88.5,45.9,88.7,45.6,88.8,45.3z"/>
		<path class="st6" d="M89.2,39.6c-0.6-0.2-1.3-0.3-1.9-0.5c-0.7-0.2-1.4-0.3-2.1-0.4c0.8-0.2,1.6-0.4,2.4-0.6
			c0.9-0.2,1.7-0.4,2.8-0.6c0-0.1,0.1-0.1,0.1-0.2c-1,0.1-2,0.2-2.8,0.3c-0.9,0.1-1.6,0.2-2.3,0.3c0,0-0.1,0-0.1,0.1
			c-0.2,0.2-0.3,0.6-0.4,0.9c-0.1,0.2-0.2,0.6-0.2,0.8c-0.1,0.4-0.1,0.9,0,1.2c0.5,0.5,1,1,1.6,1.6c0.7,0.8,1.6,1.7,2.4,2.8v-0.1
			c-0.9-1.1-1.7-2.2-2.3-3.1c-0.6-0.7-1-1.3-1.5-1.9c0.6,0.2,1.2,0.6,1.8,0.9c0.6,0.3,1.2,0.6,1.8,1c0-0.1-0.1-0.2-0.1-0.3
			c-0.6-0.4-1.1-0.8-1.7-1.2c-0.7-0.5-1.3-0.9-2-1.3c0.7,0,1.4,0.1,2.3,0.2c0.6,0.1,1.2,0.2,1.8,0.2C89.1,39.7,89.2,39.7,89.2,39.6z
			"/>
	</g>
	<g>
		<path class="st5" d="M78,31.4C78,31.3,78,31.3,78,31.4c-0.2,0-0.2,0-0.3,0c-0.8,0-1.5-0.6-1.7-1.5l-0.1-0.1
			c-0.1,0-0.2,0.1-0.4,0.1c-0.8,0-1.4-0.6-1.7-1.3l-0.1-0.1c-0.2,0.1-0.3,0.1-0.6,0.1c-0.7,0-1.3-0.5-1.6-1.1
			c-0.1,0-0.2,0.1-0.2,0.2c-0.6,0.7-2.3,4.5-1.4,4.7c0.1,0.3,3.2,1.4,3.6,1.7c0.2,0.2,0.5,0.3,0.6,0.5c0.5,0.3,0.9,0.5,1.2,0.4
			c1.3-0.7,2.7-1.3,3.3-2.2C78.2,32.5,77.9,31.8,78,31.4z"/>
		<path class="st6" d="M76.4,32.5c-0.4,0.3-0.7,0.6-1.1,0.9c-0.4,0.2-0.8,0.4-1.2,0.6l0.2,0.8c0.4-0.2,0.8-0.5,1.2-0.8
			c0.4-0.3,0.8-0.7,1.1-1.1c0.3-0.4,0.7-0.9,1-1.3c0-0.1,0.1-0.1,0.1-0.2c-0.1,0-0.1-0.1-0.2-0.1l0,0C77.1,31.8,76.8,32.2,76.4,32.5
			z"/>
		<path class="st6" d="M74.5,31.2c-0.3,0.4-0.7,0.7-1.1,1c-0.4,0.3-0.8,0.6-1.2,0.7l0.2,0.8c0.4-0.3,0.8-0.6,1.2-0.9
			c0.4-0.4,0.7-0.8,1.1-1.2c0.3-0.5,0.6-0.9,0.9-1.4c0-0.1,0.1-0.1,0.1-0.2c-0.1,0-0.1-0.1-0.2-0.1l0,0
			C75.2,30.4,74.9,30.8,74.5,31.2z"/>
		<path class="st6" d="M72.7,29.9c-0.3,0.4-0.7,0.8-1.1,1.1c-0.4,0.3-0.8,0.6-1.2,0.9l0.2,0.8c0.4-0.3,0.8-0.6,1.1-1.1
			c0.4-0.4,0.7-0.9,1-1.3c0.3-0.5,0.6-1,0.9-1.6v-0.1c-0.1,0-0.1-0.1-0.2-0.1C73.4,29.1,73,29.5,72.7,29.9z"/>
	</g>
	<g>
		<path class="st7" d="M78.8,41c-0.6-0.1-1.3,0-2-0.1c-0.8-0.2-1.7-0.4-2.4-0.6c-0.6-0.2-1.3-0.5-1.9-0.3c-0.8,0.2-1.2,0.7-2.1,0.5
			c-0.9-0.2-1.7-0.8-2.5-1.1c-0.6-0.2-1.3-0.6-2.1-0.6c-1-0.2-1.8,0.3-2.9,0.1c-1-0.2-1.7-0.1-2.4,0.9c-0.9,1.2-1.3,2.4-2.6,3.1
			c-0.2,0.1-0.2,0.2-0.4,0.2c0,0,0.1,0,0.1,0.1c0.5,0.2,0.9,0.2,1.3,0.3c0.6,0.1,1.1,0.2,1.7,0.3c1.2,0.2,2.4,0.3,3.6,0.4
			c5.7,0.3,11.9-0.6,16.3-2c-0.2-0.2-0.4-0.3-0.6-0.5C79.7,41.2,79.3,41.1,78.8,41z"/>
		<path class="st8" d="M85.1,38.9c0-0.1,0-0.2,0-0.2l0,0c0-0.2,0-0.4,0-0.6c0,0,0,0-0.1,0C85,38.1,85,38.1,84.9,38
			c-0.1-0.2-0.2-0.3-0.5-0.4c-2.7-2.3-5.6-4.1-8.5-5.8c-3.7-2.1-7.7-3.8-11.7-4.2c-3.4-0.3-7,0.1-9.7,3.6c-0.9,1.2-2.4,2.8-2.8,4.7
			l0,0c0,0,0,0-0.1,0l0,0v0.1l0,0V36l0,0v0.1l0,0v0.1l0,0v0.1c0,0,0,0.1-0.1,0.1c-0.1,0.1-0.2,0.2-0.2,0.2c-0.1,0.5,0,1.3,0.2,1.7
			c0.2,0.4,0.5,0.6,0.7,0.9c0.6,0.7,1.2,1.3,1.9,1.8c0.4,0.3,0.9,0.6,1.3,0.9c0.7,0.5,1.4,0.8,2.1,1c0.2-0.1,0.3-0.2,0.4-0.2
			c1.3-0.8,1.7-1.9,2.6-3.1c0.7-0.9,1.3-1.1,2.4-0.9c1,0.2,1.9-0.2,2.9-0.1c0.7,0.1,1.4,0.4,2.1,0.6c0.9,0.3,1.7,0.9,2.5,1.1
			c0.9,0.2,1.3-0.2,2.1-0.5c0.6-0.2,1.3,0.2,1.9,0.3c0.8,0.2,1.7,0.4,2.4,0.6c0.6,0.1,1.3,0,2,0.1c0.6,0.1,0.9,0.2,1.3,0.6
			c0.2,0.2,0.4,0.4,0.6,0.5c1.8-0.6,3.3-1.3,4.3-2c0-0.2,0-0.3,0-0.4l0,0c0-0.1,0-0.2,0-0.2c0-0.1,0-0.2,0-0.2
			C85.1,39.2,85.1,39.1,85.1,38.9L85.1,38.9z"/>
	</g>
	<path class="st9" d="M60.3,39.6L60.3,39.6L60.3,39.6z"/>
	<path class="st9" d="M60.3,39.4C60.3,39.4,60.3,39.3,60.3,39.4C60.3,39.3,60.3,39.4,60.3,39.4z"/>
	<path class="st9" d="M60.3,39.3c0-0.1,0-0.1,0-0.2C60.3,39.3,60.3,39.3,60.3,39.3z"/>
	<path class="st9" d="M60.3,39.7c0-0.1,0-0.1,0-0.2C60.3,39.7,60.3,39.7,60.3,39.7z"/>
	<path class="st9" d="M60.3,39.6c0-0.1,0-0.1,0-0.2C60.3,39.4,60.3,39.5,60.3,39.6z"/>
	<path class="st10" d="M53.1,37.4c0-0.1-0.1-0.2-0.1-0.2c-0.2-0.2-0.2-0.3-0.4-0.5c-0.4-0.4-0.9-0.3-0.9-0.2c0,0.1,0.2,0.2,0.2,0.2
		c0.2,0.2,0.5,0.4,0.7,0.6C52.8,37.4,53,37.5,53.1,37.4C53.1,37.5,53.1,37.4,53.1,37.4z"/>
	<path class="st11" d="M53.1,37.7L53.1,37.7c-0.2,0-0.2-0.2-0.3-0.2l-0.1-0.1c-0.1-0.1-0.2-0.2-0.2-0.2c-0.2-0.2-0.3-0.3-0.6-0.4
		l0,0c-0.2-0.1-0.3-0.1-0.2-0.3c0-0.2,0.2-0.2,0.2-0.2c0.2,0,0.5,0,0.8,0.3c0.2,0.2,0.2,0.3,0.4,0.5c0,0,0.1,0.2,0.2,0.3
		c0,0.1,0,0.2,0,0.2C53.2,37.6,53.1,37.7,53.1,37.7L53.1,37.7z"/>
	<g>
		<path class="st12" d="M58.2,34.4c0,0.8-0.6,1.4-1.2,1.3c-0.6,0-1.2-0.7-1.2-1.4c0-0.8,0.6-1.3,1.2-1.3
			C57.6,33,58.2,33.6,58.2,34.4z"/>
		<path class="st13" d="M57.6,34.3c0,0.6-0.4,0.9-0.8,0.9c-0.5,0-0.8-0.5-0.8-0.9c0-0.6,0.4-0.9,0.8-0.9
			C57.2,33.3,57.6,33.8,57.6,34.3z"/>
		<path class="st14" d="M57.2,34c0,0.2-0.1,0.2-0.2,0.2s-0.2-0.2-0.2-0.2c0-0.2,0.1-0.2,0.2-0.2C57.2,33.8,57.2,33.9,57.2,34z"/>
	</g>
	<g>
		<g>
			<path class="st1" d="M65.1,32.5c0.1,0.6,0.1,1.1,0,1.7c0.2-1.5,0,0,0,0.1l0,0c0,0,0,0,0-0.1c-0.1,0.5-0.2,0.9-0.4,1.3
				c0.4-0.2,0.7-0.6,0.8-1.3S65.4,32.9,65.1,32.5z"/>
			<path class="st1" d="M64.7,35.5c0.1,0.5,0.1,0.9,0,1.4c0.2-1.3,0,0,0,0.1l0,0c0,0,0,0,0-0.1c-0.1,0.4-0.2,0.8-0.3,1.1
				c0.3-0.2,0.6-0.6,0.6-1.1S64.9,35.8,64.7,35.5z"/>
		</g>
		<g>
			<path class="st1" d="M66.6,32.7c0.1,0.6,0.1,1.1,0,1.7c0.2-1.5,0,0,0,0.1l0,0c0,0,0,0,0-0.1c-0.1,0.5-0.2,0.9-0.4,1.3
				c0.4-0.2,0.7-0.6,0.8-1.3C67.1,33.8,66.9,33.1,66.6,32.7z"/>
			<path class="st1" d="M66.2,35.6c0.1,0.5,0.1,0.9,0,1.4c0.2-1.3,0,0,0,0.1l0,0c0,0,0,0,0-0.1c-0.1,0.4-0.2,0.8-0.3,1.1
				c0.3-0.2,0.6-0.6,0.6-1.1C66.6,36.6,66.5,36,66.2,35.6z"/>
		</g>
		<g>
			<path class="st1" d="M68.1,32.9c0.1,0.6,0.1,1.1,0,1.7c0.2-1.5,0,0,0,0.1l0,0c0,0,0,0,0-0.1c-0.1,0.5-0.2,0.9-0.4,1.3
				c0.4-0.2,0.7-0.6,0.8-1.3C68.6,34,68.5,33.3,68.1,32.9z"/>
			<path class="st1" d="M67.8,35.9c0.1,0.5,0.1,0.9,0,1.4c0.2-1.3,0,0,0,0.1l0,0c0,0,0,0,0-0.1c-0.1,0.4-0.2,0.8-0.3,1.1
				c0.3-0.2,0.6-0.6,0.6-1.1S68,36.3,67.8,35.9z"/>
		</g>
		<g>
			<path class="st1" d="M69.6,33.2c0.1,0.6,0.1,1.1,0,1.7c0.2-1.5,0,0,0,0.1l0,0c0,0,0,0,0-0.1c-0.1,0.5-0.2,0.9-0.4,1.3
				c0.4-0.2,0.7-0.6,0.8-1.3C70.2,34.2,70,33.6,69.6,33.2z"/>
			<path class="st1" d="M69.3,36.1c0.1,0.5,0.1,0.9,0,1.4c0.2-1.3,0,0,0,0.1l0,0c0,0,0,0,0-0.1c-0.1,0.4-0.2,0.8-0.3,1.1
				c0.3-0.2,0.6-0.6,0.6-1.1C69.7,37,69.6,36.4,69.3,36.1z"/>
		</g>
		<g>
			<path class="st1" d="M71.2,33.4c0.1,0.6,0.1,1.1,0,1.7c0.2-1.5,0,0,0,0.1l0,0c0,0,0,0,0-0.1c-0.1,0.5-0.2,0.9-0.4,1.3
				c0.4-0.2,0.7-0.6,0.8-1.3C71.7,34.4,71.5,33.8,71.2,33.4z"/>
			<path class="st1" d="M70.8,36.3c0.1,0.5,0.1,0.9,0,1.4c0.2-1.3,0,0,0,0.1l0,0c0,0,0,0,0-0.1c-0.1,0.4-0.2,0.8-0.3,1.1
				c0.3-0.2,0.6-0.6,0.6-1.1C71.2,37.2,71.1,36.7,70.8,36.3z"/>
		</g>
		<g>
			<path class="st1" d="M72.8,33.6c0.1,0.6,0.1,1.1,0,1.7c0.2-1.5,0,0,0,0.1l0,0c0,0,0,0,0-0.1c-0.1,0.5-0.2,0.9-0.4,1.3
				c0.4-0.2,0.7-0.6,0.8-1.3C73.3,34.7,73.1,34,72.8,33.6z"/>
			<path class="st1" d="M72.4,36.6c0.1,0.5,0.1,0.9,0,1.4c0.2-1.3,0,0,0,0.1l0,0c0,0,0,0,0-0.1c-0.1,0.4-0.2,0.8-0.3,1.1
				c0.3-0.2,0.6-0.6,0.6-1.1S72.6,36.9,72.4,36.6z"/>
		</g>
		<g>
			<path class="st1" d="M74.2,34.2c0.1,0.6,0.1,1.1,0,1.7c0.2-1.4,0,0,0,0.1l0,0c0,0,0,0,0-0.1c-0.1,0.5-0.2,0.9-0.4,1.3
				c0.4-0.2,0.6-0.6,0.8-1.3C74.7,35.2,74.5,34.6,74.2,34.2z"/>
			<path class="st1" d="M73.9,37c0.1,0.5,0.1,0.9,0,1.3c0.2-1.2,0,0,0,0.1l0,0c0,0,0,0,0-0.1c-0.1,0.4-0.2,0.8-0.3,1.1
				c0.3-0.2,0.6-0.6,0.6-1C74.3,37.9,74.2,37.4,73.9,37z"/>
		</g>
		<g>
			<path class="st1" d="M75.7,34.8c0.1,0.5,0.1,1,0,1.6c0.2-1.4,0,0,0,0.1l0,0c0,0,0,0,0-0.1c-0.1,0.5-0.2,0.9-0.4,1.3
				c0.3-0.2,0.6-0.6,0.7-1.2C76.2,35.8,76,35.2,75.7,34.8z"/>
			<path class="st1" d="M75.4,37.5c0.1,0.4,0.1,0.9,0,1.3c0.2-1.2,0,0,0,0.1l0,0c0,0,0,0,0-0.1c-0.1,0.4-0.2,0.7-0.3,1
				c0.3-0.2,0.6-0.6,0.6-1C75.7,38.3,75.7,37.8,75.4,37.5z"/>
		</g>
		<g>
			<path class="st1" d="M77.2,35.4c0.1,0.5,0.1,1,0,1.5c0.2-1.3,0,0,0,0.1l0,0c0,0,0,0,0-0.1c-0.1,0.5-0.2,0.9-0.4,1.2
				c0.3-0.2,0.6-0.6,0.7-1.2C77.6,36.3,77.5,35.7,77.2,35.4z"/>
			<path class="st1" d="M76.9,38c0.1,0.4,0.1,0.8,0,1.3c0.2-1.1,0,0,0,0l0,0l0,0c-0.1,0.4-0.2,0.7-0.3,1c0.2-0.2,0.5-0.5,0.6-0.9
				C77.2,38.8,77.2,38.3,76.9,38z"/>
		</g>
		<g>
			<path class="st1" d="M78.7,36.3c0.1,0.4,0.1,0.8,0,1.1c0.2-1,0,0,0,0l0,0l0,0c-0.1,0.3-0.2,0.6-0.3,0.9c0.3-0.2,0.6-0.5,0.6-0.9
				C79,37,78.9,36.6,78.7,36.3z"/>
			<path class="st1" d="M78.4,38.2c0.1,0.3,0.1,0.6,0,0.9c0.2-0.9,0,0,0,0l0,0l0,0c-0.1,0.2-0.2,0.6-0.2,0.7
				c0.2-0.1,0.4-0.4,0.5-0.7C78.7,38.9,78.7,38.5,78.4,38.2z"/>
		</g>
		<g>
			<path class="st1" d="M80,36.8c0.1,0.3,0.1,0.6,0,0.9c0.2-0.9,0,0,0,0l0,0l0,0c-0.1,0.3-0.2,0.6-0.2,0.8c0.2-0.1,0.5-0.4,0.6-0.7
				C80.4,37.4,80.2,37,80,36.8z"/>
			<path class="st1" d="M79.8,38.5c0.1,0.2,0.1,0.6,0,0.8c0.1-0.7,0,0,0,0l0,0l0,0c0,0.2-0.1,0.5-0.2,0.6c0.2-0.1,0.4-0.3,0.5-0.6
				C80.2,39,80,38.7,79.8,38.5z"/>
		</g>
		<g>
			<path class="st1" d="M81.1,37.5c0.1,0.3,0.1,0.6,0,0.9c0.2-0.8,0,0,0,0l0,0l0,0c-0.1,0.2-0.2,0.5-0.2,0.7
				c0.2-0.1,0.4-0.3,0.5-0.6C81.3,38.1,81.3,37.7,81.1,37.5z"/>
			<path class="st1" d="M80.9,38.9c0,0.2,0.1,0.4,0,0.6c0.1-0.6,0,0,0,0l0,0l0,0c0,0.2-0.1,0.3-0.2,0.5c0.2-0.1,0.2-0.2,0.3-0.5
				C81.1,39.3,81,39.1,80.9,38.9z"/>
		</g>
		<path class="st1" d="M82.3,38.2c0.1,0.3,0.1,0.6,0,0.9c0.2-0.9,0,0,0,0l0,0l0,0c-0.1,0.3-0.2,0.6-0.2,0.8c0.2-0.1,0.5-0.4,0.5-0.7
			C82.6,38.8,82.4,38.4,82.3,38.2z"/>
		<path class="st1" d="M83.4,38.9c0.1,0.2,0.1,0.6,0,0.8c0.1-0.7,0,0,0,0l0,0l0,0c0,0.2-0.1,0.5-0.2,0.6c0.2-0.1,0.4-0.3,0.5-0.6
			C83.7,39.5,83.6,39.1,83.4,38.9z"/>
	</g>
	<path class="st5" d="M68.1,40.8c-1.6-1-3.6-1.9-5.6-2.8c0,0.1-0.1,0.2-0.1,0.3c-0.2,0.6-0.3,1-0.6,1.6V40c-0.1,0.1-0.1,0.2-0.2,0.2
		c1.2,1.7,2.4,3.4,3.4,4.7c0.1-0.7,0.5-1.4,1.3-1.4h0.1c0.1-0.2,0.2-0.2,0.2-0.3c0.2-0.4,0.4-0.8,0.9-0.9l0,0
		C67.7,41.6,67.8,41.1,68.1,40.8C68.2,40.8,68.2,40.8,68.1,40.8z"/>
	<path class="st6" d="M65.2,44.4C65.2,44.3,65.2,44.3,65.2,44.4c-0.5-0.9-0.9-1.7-1.4-2.5c-0.5-0.8-0.9-1.5-1.4-2.2
		c0.6,0.6,1.2,1.2,1.7,1.9c0.6,0.6,1,1.3,1.6,2.1l0,0c-0.5-0.8-0.9-1.5-1.5-2.2c-0.5-0.6-0.9-1.3-1.4-1.8l0,0c0.6,0.5,1.3,1,1.9,1.6
		c0.6,0.5,1.1,1,1.7,1.6l0,0c-0.6-0.6-1-1.3-1.6-1.8c-0.5-0.6-1-1-1.5-1.5c0.6,0.2,1.3,0.5,1.9,0.7c0.7,0.3,1.4,0.6,2.1,1
		c-0.6-0.5-1.3-0.9-2.1-1.3c-0.7-0.4-1.3-0.8-2.1-1.1c-0.2-0.1-0.5-0.2-0.6-0.2c-0.2,0.6-0.3,1-0.6,1.6c0.6,0.6,1.1,1.4,1.7,2.1
		C64.2,42.8,64.7,43.6,65.2,44.4z"/>
</g>
<g>
	<g>
		<path class="st0" d="M132.2,105.1c-0.7-0.7-12.4-0.9-28-0.9s-27.3,0.2-28,0.9s-0.4,2.1,0.1,2.7c0.5,0.5,16,2.4,28,2.5
			c12-0.1,27.5-2.1,28-2.5C132.5,107.2,132.9,105.7,132.2,105.1z M104.1,109.1c-1.2,0-2.4,0-3.6-0.1
			C101.7,109,102.9,109,104.1,109.1c1.2,0,2.4,0,3.6-0.1C106.5,109,105.3,109.1,104.1,109.1z"/>
		<path class="st1" d="M131.9,71.4c0-0.6-12.4-1.2-27.7-1.2s-27.7,0.6-27.7,1.2c0,0.1,0.1,0.2,0.3,0.2h-0.3V106
			c0,0,12.4,1.7,27.7,1.7s27.7-1.7,27.7-1.7V71.5h-0.3C131.8,71.5,131.9,71.4,131.9,71.4z"/>
		<path class="st15" d="M104.1,99.2c-11.8,0-22.2-0.7-27.7-1.6v6.3v2.4c5.6,0.9,16,2.5,27.7,2.5c11.8,0,22.2-1.7,27.7-2.5v-2.4v-6.3
			C126.3,98.4,116,99.2,104.1,99.2z"/>
		<path class="st1" d="M124.4,107.1c4.4-0.2,7.5-0.6,7.5-1c0-0.1,0-0.2,0-0.2v-0.1v-0.1V71.9c-1,0.4-4,0.6-7.7,0.9L124.4,107.1z"/>
		
			<linearGradient id="SVGID_3_" gradientUnits="userSpaceOnUse" x1="76.3747" y1="69.4233" x2="131.8831" y2="69.4233" gradientTransform="matrix(1 0 0 -1 0 141.7323)">
			<stop  offset="5.618000e-03" style="stop-color:#CACBCC"/>
			<stop  offset="0.2921" style="stop-color:#AAABAD"/>
			<stop  offset="0.6517" style="stop-color:#CECED0"/>
			<stop  offset="0.8652" style="stop-color:#AEAFB1"/>
			<stop  offset="1" style="stop-color:#B5B5B6"/>
			<stop  offset="1" style="stop-color:#D2D4D7"/>
		</linearGradient>
		<path class="st16" d="M131.9,71.4c0,1.2-12.4,5.1-27.7,5.1s-27.7-3.9-27.7-5.1c0-1.2,12.4-3.2,27.7-3.2
			C119.4,68.1,131.9,70.1,131.9,71.4z"/>
		
			<linearGradient id="SVGID_4_" gradientUnits="userSpaceOnUse" x1="78.1618" y1="69.8972" x2="130.097" y2="69.8972" gradientTransform="matrix(1 0 0 -1 0 141.7323)">
			<stop  offset="0" style="stop-color:#D2D4D7"/>
			<stop  offset="0" style="stop-color:#B5B5B6"/>
			<stop  offset="0.1348" style="stop-color:#AEAFB1"/>
			<stop  offset="0.3483" style="stop-color:#CECED0"/>
			<stop  offset="0.7079" style="stop-color:#AAABAD"/>
			<stop  offset="0.9944" style="stop-color:#CACBCC"/>
		</linearGradient>
		<path class="st17" d="M122.7,72.9c3-0.4,5.3-0.7,6.5-0.9c-3-1.2-13.1-2.5-25-2.5c-12,0-22,1.4-25,2.5c3.2,0.7,15.3,2.2,25,2.2
			C110.4,74.1,117.5,73.6,122.7,72.9z"/>
		<path class="st15" d="M104.1,73.3c-11.8,0-22.2-0.7-27.7-1.6v6.3v2.4c5.6,0.9,16,1.6,27.7,1.6c11.8,0,22.2-0.7,27.7-1.6v-2.4v-6.3
			C126.3,72.6,116,73.3,104.1,73.3z"/>
		<path class="st0" d="M132.2,71.5c0-0.2-0.3-0.4-0.9-0.6c-1.3,0.2-3.8,0.6-7,0.9c-5.6,0.6-13.4,1.3-20.1,1.3
			c-10.5,0-23.7-1.5-27.1-2.2c-0.6,0.2-0.9,0.5-0.9,0.6c0,0.3,0.9,0.8,2.4,1.4c4.9,0.8,16.3,2,25.7,2c6.7,0,14.5-0.6,20.2-1.3
			c2.2-0.2,4.1-0.5,5.4-0.7C131.4,72.3,132.2,71.8,132.2,71.5z"/>
	</g>
	<g>
		<g>
			<g>
				
					<linearGradient id="SVGID_5_" gradientUnits="userSpaceOnUse" x1="104.1115" y1="58.4306" x2="104.1115" y2="59.4687" gradientTransform="matrix(1 0 0 -1 0 141.7323)">
					<stop  offset="0" style="stop-color:#BF9E73"/>
					<stop  offset="1" style="stop-color:#E4D1A2"/>
				</linearGradient>
				<rect x="80" y="82.3" class="st18" width="48.2" height="1"/>
				<g>
					<rect x="81" y="82.1" class="st19" width="0.2" height="1.3"/>
					<rect x="87.5" y="82.1" class="st19" width="0.2" height="1.3"/>
					<rect x="94" y="82.1" class="st19" width="0.2" height="1.3"/>
					<rect x="100.4" y="82.1" class="st19" width="0.2" height="1.3"/>
					<rect x="106.9" y="82.1" class="st19" width="0.2" height="1.3"/>
					<rect x="113.4" y="82.1" class="st19" width="0.2" height="1.3"/>
					<rect x="119.7" y="82.1" class="st19" width="0.2" height="1.3"/>
					<rect x="126.2" y="82.1" class="st19" width="0.2" height="1.3"/>
				</g>
			</g>
			<path class="st20" d="M126.2,83.6H81.8c0,0,0.3,10-1.4,15.3c1.9,0.9,6.2-0.6,9.4-0.2c0.1,0,0.6-8.2,0.6-8.2v8.3
				c1.9,0.5,5.8,0.3,8.2,0.1c0.1,0,0.9-8.4,0.9-8.4s0.3,7.3-0.2,8.4l8.9,0.2c-0.1-1,0.5-8.5,0.5-8.5s0.5,5.8,0.2,8.5
				c0,0.1,4.9-0.6,8.8,0.1l0.1-8.6c0,0,0.6,8.4,0.7,8.6c2.4-0.7,7.7-0.4,9.2-0.5C125.8,93.6,126.2,83.6,126.2,83.6z"/>
			<g>
				<rect x="82.2" y="81.9" class="st21" width="1.3" height="2.6"/>
				<rect x="90.7" y="81.9" class="st21" width="1.3" height="2.6"/>
				<rect x="99.1" y="81.9" class="st21" width="1.3" height="2.6"/>
				<rect x="107.6" y="81.9" class="st21" width="1.3" height="2.6"/>
				<rect x="116" y="81.9" class="st21" width="1.3" height="2.6"/>
				<rect x="124.5" y="81.9" class="st21" width="1.3" height="2.6"/>
			</g>
		</g>
		<g>
			<g>
				<g>
					<path class="st22" d="M98.7,90.8c0,0.2-0.2,0.6-0.5,0.9c0,0.1-0.1,0.2-0.2,0.2C97.8,92,97.6,92,97.4,92c-0.3,0-0.5-0.1-0.5-0.2
						c0,0,0-0.1,0.1-0.1c0.2-0.1,0.4-0.2,0.5-0.5c0.1-0.2,0.1-0.2,0.1-0.3c0-0.2,0-0.3-0.1-0.5c-0.1-0.2-0.2-0.2-0.4-0.2
						c-0.1,0-0.1,0-0.2,0s-0.1,0-0.2,0c-0.2,0-0.4,0-0.5,0c-0.3,0.1-0.6,0.2-0.9,0.2c-0.2,0.1-0.4,0.2-0.6,0.2
						c-0.2,0.1-0.4,0.2-0.6,0.3c0.1,0.2,0.1,0.4,0.2,0.6c0,0.1,0.1,0.3,0.1,0.6c0.1,0.2,0.1,0.6,0.2,0.8c0.1,0.2,0.2,0.5,0.2,0.7
						c0.1,0.2,0.1,0.3,0.2,0.6c0,0.1,0,0.2-0.1,0.2s-0.2,0-0.2-0.1c-0.2-0.1-0.2-0.2-0.5-0.2c-0.1-0.1-0.2-0.2-0.2-0.3
						c-0.1-0.1-0.1-0.2-0.2-0.4c-0.1-0.2-0.2-0.5-0.4-0.9c-0.2-0.5-0.2-0.9-0.3-1.2c-0.2,0.1-0.3,0.2-0.4,0.2
						c-0.2,0.2-0.6,0.2-1,0.2c0,0-0.1,0-0.3-0.1c-0.2,0-0.2-0.1-0.2-0.2c0-0.2,0-0.2,0-0.2c0.1-0.2,0.2-0.3,0.3-0.5
						c0.1-0.1,0.2-0.2,0.2-0.2c0.1-0.1,0.2-0.1,0.5-0.2c0.2-0.1,0.3-0.2,0.6-0.2c0-0.2-0.1-0.4-0.1-0.6c-0.1-0.2-0.2-0.4-0.2-0.7
						c0-0.2-0.1-0.3-0.1-0.6c0-0.2,0-0.3,0.1-0.5c0.2-0.2,0.2-0.4,0.4-0.4c0.1,0,0.2,0.1,0.3,0.3c0,0.1,0.1,0.2,0.2,0.4
						c0.1,0.2,0.2,0.3,0.3,0.6c0.1,0.2,0.1,0.6,0.2,0.9c0.2-0.1,0.3-0.1,0.6-0.2c0.2-0.1,0.5-0.1,0.5-0.1c0.2,0,0.4-0.1,0.7-0.2
						c0.1,0,0.2-0.1,0.4-0.1c0-0.1,0-0.2-0.1-0.4c0-0.2,0-0.3,0.1-0.5c0.1-0.1,0.2-0.2,0.2-0.5c0.1-0.1,0.2-0.2,0.2-0.2
						c0.1,0,0.2,0,0.3,0.1c0.1,0.1,0.2,0.2,0.2,0.2c0,0.1,0,0.2,0.1,0.2c0,0.1,0,0.2,0,0.2s0,0.2,0,0.2c0,0.1,0,0.2-0.1,0.3
						c0.1,0,0.2,0,0.2,0l0.3,0.1c0.2,0.1,0.3,0.1,0.5,0.2c0.1,0.1,0.2,0.1,0.2,0.2C98.5,90.2,98.7,90.4,98.7,90.8z"/>
				</g>
			</g>
			<g>
				<g>
					<path class="st22" d="M104.8,94c0,0.2-0.1,0.2-0.2,0.3c-0.1,0.1-0.2,0.2-0.4,0.2c-0.1,0.1-0.2,0.2-0.3,0.2
						c-0.2,0.1-0.2,0.1-0.2,0.1c-0.1,0.1-0.2,0.1-0.3,0.1c0,0-0.2,0-0.5-0.1c0,0-0.2-0.1-0.2-0.2c-0.2-0.1-0.3-0.2-0.4-0.3
						c0,0-0.1-0.1-0.2-0.1c-0.1-0.1-0.2-0.2-0.2-0.2c-0.1-0.1-0.1-0.2-0.1-0.3c0-0.2,0.1-0.4,0.2-0.5c0,0,0.2-0.2,0.4-0.5
						c0.1-0.1,0.2-0.1,0.2-0.1c0.1,0,0.2,0.1,0.2,0.3c0,0.1,0,0.2,0,0.2c0,0.1,0,0.1,0,0.2c0,0.1,0,0.2,0,0.2c0,0.1,0,0.1,0.1,0.1
						h0.1l0.1,0.1c0.1,0.1,0.2,0.1,0.2,0.1s0.2,0,0.2,0.1c0,0,0.2,0,0.2,0.1c0.2,0,0.2,0.1,0.2,0.1c0.1,0,0.2,0,0.4-0.1
						c0.2-0.1,0.2-0.1,0.3-0.1C104.7,93.9,104.8,93.9,104.8,94z M106.7,90.1C106.7,90.2,106.7,90.2,106.7,90.1
						c-0.1,0.1-0.1,0.2-0.1,0.2c-0.1,0.2-0.2,0.2-0.3,0.3c-0.1,0.1-0.2,0.2-0.4,0.2c-0.1,0-0.1,0.1-0.2,0.1c0.1,0.2,0.1,0.4,0.1,0.7
						c0,0.1,0,0.2-0.1,0.3c-0.1,0.2-0.1,0.2-0.2,0.2c0,0-0.1,0-0.1-0.1c-0.1,0-0.2-0.1-0.2-0.1c-0.2,0-0.2-0.2-0.3-0.3
						s-0.2-0.3-0.2-0.5c-0.1,0-0.2,0-0.4,0.1c-0.3,0.3-0.4,0.3-0.4,0.3c-0.1,0-0.2,0-0.4-0.1c-0.6-0.1-0.9-0.2-0.9-0.4
						c0-0.2,0.1-0.3,0.2-0.3c0.1,0,0.2-0.1,0.6-0.1c0.4,0,0.6-0.1,0.6-0.1s0.1,0,0.2-0.1c0.1,0,0.1-0.1,0.2-0.1
						c-0.1-0.2-0.2-0.5-0.3-0.8c0,0-0.1,0-0.2,0c0,0,0,0-0.1,0h-0.1c-0.1,0-0.2,0-0.4,0c-0.2,0.1-0.3,0.1-0.4,0.1s-0.2,0-0.2-0.1
						c-0.1,0-0.2-0.1-0.2-0.1c-0.2,0-0.3-0.1-0.4-0.2c-0.3-0.2-0.4-0.4-0.4-0.5s0-0.2,0.1-0.2s0.2-0.1,0.2-0.2
						c0.2-0.1,0.3-0.2,0.6-0.2c0.1,0,0.2,0,0.5-0.1c0.3,0,0.5-0.1,0.6-0.1c0-0.1-0.1-0.2-0.1-0.2c0-0.2-0.1-0.2-0.1-0.2
						c0-0.2,0.1-0.3,0.3-0.4c0.1,0,0.2,0,0.2,0.1c0.1,0.1,0.2,0.1,0.2,0.2c0.1,0,0.2,0.1,0.3,0.2c0.1,0.1,0.2,0.2,0.2,0.4
						c0.1,0,0.2,0,0.5-0.1c0.1,0,0.2,0,0.3,0c0.2,0,0.2,0.1,0.2,0.2c0,0,0,0.1-0.1,0.2s-0.1,0.1-0.1,0.2s-0.1,0.2-0.2,0.4
						c-0.1,0.2-0.2,0.2-0.2,0.2s-0.1,0.1-0.2,0.2c0,0.1,0.1,0.3,0.2,0.6c0,0.1,0,0.2,0.1,0.3c0.2,0,0.3-0.1,0.6-0.2
						c0.2-0.1,0.4-0.1,0.4-0.1C106.6,89.9,106.7,90,106.7,90.1z"/>
				</g>
			</g>
			<g>
				<g>
					<path class="st22" d="M116,89.8c0,0.1,0,0.1-0.1,0.2c-0.1,0.1-0.1,0.1-0.1,0.2c-0.1,0.2-0.2,0.3-0.3,0.5
						c-0.2,0.2-0.3,0.2-0.5,0.3c-0.1,0-0.3,0.2-0.6,0.3c-0.2,0.1-0.5,0.2-0.9,0.3c-0.2,0.1-0.2,0.1-0.4,0.2
						c-0.2,0.1-0.3,0.2-0.4,0.3c-0.1,0.1-0.2,0.1-0.2,0.2c-0.1,0-0.2,0.1-0.2,0.1c-0.1,0.1-0.2,0.2-0.2,0.3s-0.1,0.2-0.1,0.2
						s0,0.1,0.1,0.2c0,0.1,0.1,0.1,0.2,0.2c0.1,0.1,0.2,0.2,0.2,0.2c0.1,0.1,0.2,0.1,0.2,0.2c0.1,0,0.2,0.1,0.6,0.2
						c0.2,0.1,0.4,0.2,0.6,0.2c0.1,0,0.2,0,0.4,0c0.2,0,0.2,0,0.2,0s0.1,0,0.2,0s0.2,0,0.2,0c0.2,0,0.3,0,0.3,0
						c0.2,0,0.2,0.1,0.2,0.2s0,0.1,0,0.1c-0.1,0.1-0.1,0.1-0.2,0.2c-0.1,0.1-0.2,0.1-0.3,0.2c0,0-0.1,0-0.2,0.1
						c-0.1,0.1-0.2,0.1-0.2,0.1s-0.1,0-0.2,0s-0.2,0-0.4,0c-0.4,0-0.6,0-0.6,0c-0.2-0.1-0.4-0.1-0.6-0.2c-0.3-0.1-0.4-0.2-0.5-0.2
						c-0.2,0-0.3-0.1-0.5-0.1c-0.2-0.1-0.4-0.3-0.5-0.6c0-0.1-0.1-0.2-0.2-0.3c-0.1-0.2-0.2-0.2-0.2-0.4c0-0.3,0.2-0.7,0.6-1.2
						c0.2-0.2,0.5-0.5,0.8-0.7c-0.1-0.2-0.1-0.4-0.1-0.7s-0.1-0.6-0.1-0.7c-0.1-0.5-0.1-0.7-0.1-0.9c0-0.2,0.1-0.2,0.1-0.3
						c0-0.1,0.1-0.2,0.2-0.3c0.1-0.1,0.2-0.1,0.2-0.1c0.2,0,0.2,0,0.2,0.1c0,0.1,0.1,0.2,0.2,0.3s0.2,0.2,0.2,0.4c0,0.1,0,0.3,0,0.6
						c0,0.1,0,0.2,0.1,0.2c0,0.1,0.1,0.2,0.1,0.2c0,0.1,0,0.2,0,0.2c0,0.2,0,0.2,0,0.2c0.1,0,0.2-0.1,0.6-0.2
						c0.2-0.1,0.5-0.2,0.8-0.3c0.2-0.1,0.2-0.1,0.4-0.1c0.1,0,0.1,0,0.2,0.1c0.1,0,0.2,0.1,0.2,0.1c0.1,0,0.2,0,0.3,0.1
						C116,89.7,116,89.8,116,89.8z"/>
				</g>
			</g>
			<g>
				<g>
					<path class="st22" d="M121.3,91.2c0,0.1,0,0.1-0.1,0.2c-0.1,0.1-0.3,0.2-0.5,0.2c-0.2,0-0.2,0.1-0.2,0.1
						c-0.2,0-0.5-0.1-0.6-0.3s-0.3-0.6-0.4-0.9c0-0.2,0-0.3,0-0.3c0-0.1,0-0.2,0.1-0.4c0-0.1,0.1-0.2,0.1-0.4c0-0.1,0-0.2,0.1-0.3
						c0-0.1,0.1-0.2,0.1-0.2c0.1-0.1,0.2-0.2,0.3-0.2c0.1-0.1,0.2-0.1,0.2-0.1c0.2,0,0.2,0.1,0.2,0.2s0.2,0.4,0.2,0.7
						c0,0.2,0,0.3-0.1,0.6c-0.1,0.2-0.1,0.5-0.1,0.6c0,0.2,0.1,0.3,0.2,0.5c0,0,0.1,0.1,0.1,0.2c0.1,0.1,0.2,0.1,0.3,0.1
						C121.2,91.1,121.3,91.1,121.3,91.2z M124.5,91.3c0,0.2-0.1,0.4-0.2,0.7c-0.1,0.1-0.1,0.2-0.2,0.5c0,0.2-0.1,0.4-0.2,0.7
						c-0.1,0.2-0.2,0.3-0.2,0.4c0,0.1-0.1,0.2-0.2,0.3c0,0-0.1,0.1-0.2,0.1c-0.1,0.1-0.1,0.1-0.1,0.1c-0.1,0.1-0.2,0.2-0.2,0.2
						s-0.2-0.1-0.2-0.2c0-0.1,0-0.2,0.1-0.2c0.1-0.3,0.2-0.6,0.2-0.6c0-0.3,0-0.4,0-0.4c0-0.2,0.1-0.6,0.2-0.9c0-0.1,0-0.2,0-0.3
						v-0.1c0-0.1,0-0.1,0-0.2c0,0,0-0.1,0-0.2s0-0.2,0-0.3c0-0.2,0-0.4-0.1-0.6c0-0.1,0-0.2,0-0.2c0-0.2,0-0.3,0.1-0.6
						s0.2-0.3,0.4-0.3c0.1,0,0.2,0,0.2,0.1c0.1,0.1,0.2,0.2,0.2,0.2c0,0,0,0.1,0.1,0.2s0.1,0.2,0.1,0.2c0,0.2,0.1,0.3,0.1,0.6
						c0,0.3,0,0.6,0,0.7C124.5,91,124.5,91.2,124.5,91.3z"/>
				</g>
			</g>
			<g>
				<g>
					<g>
						<path class="st22" d="M85.6,88.5c-0.1,0-0.2-0.1-0.2-0.1c0-0.1,0.1-0.1,0.2-0.1c0.2,0,0.4,0,0.6,0c0.1,0,0.2,0,0.3,0
							c0.1,0,0.2,0,0.2,0.1c0.1,0,0.1,0.1,0.1,0.2c0,0-0.1,0.1-0.2,0.1c-0.1,0-0.2,0-0.2,0c-0.2,0-0.3,0-0.4,0
							C85.9,88.7,85.8,88.7,85.6,88.5L85.6,88.5c0.1,0.2,0.1,0.2,0,0.2c-0.1,0.1-0.2,0.2-0.2,0.2c-0.1,0.1-0.1,0.2-0.2,0.2l0,0v-0.1
							c0-0.1,0-0.1,0.1-0.2c0.1-0.1,0.1-0.2,0.1-0.2C85.6,88.6,85.6,88.5,85.6,88.5z M86.3,88c0.1,0,0.1,0,0.2,0
							c0.1,0,0.1-0.1,0.2-0.1s0.1,0,0.1,0.1c0,0.1-0.1,0.1-0.1,0.1c-0.1,0-0.2,0.1-0.2,0.1s-0.2,0-0.2,0c-0.2,0-0.3,0-0.4,0
							c-0.2,0-0.3-0.1-0.3-0.2c0,0,0-0.2,0-0.2s0.1-0.1,0.1-0.1s0.1,0,0.1,0.1c0,0.2,0,0.2,0,0.2c0,0.1,0.1,0.1,0.2,0.1s0.1,0,0.1,0
							l0,0l0,0c0,0,0-0.1,0-0.2s0-0.2,0-0.3c0-0.2,0.1-0.2,0.2-0.2s0.2,0,0.2,0.1c0.1,0.1,0.1,0.1,0.1,0.2v0.1
							C86.3,87.8,86.3,87.9,86.3,88C86.3,87.9,86.3,88,86.3,88z M85.9,88.7c0.1,0,0.1,0,0.2,0.1l0.1,0.1v0.1V89h-0.1
							c0,0-0.1,0-0.2-0.1C85.9,88.9,85.9,88.8,85.9,88.7L85.9,88.7C85.9,88.7,85.9,88.7,85.9,88.7C85.9,88.7,85.9,88.7,85.9,88.7z
							 M86.3,89.1C86.3,89.1,86.4,89.1,86.3,89.1c0.2,0.2,0.3,0.2,0.3,0.2s0,0.1-0.1,0.1c0,0-0.1,0-0.2,0c-0.1,0-0.2-0.1-0.2-0.1
							l0,0l-0.1,0.1l-0.1,0.1L86,89.5c0,0-0.1,0,0-0.1c0-0.1,0.1-0.2,0.2-0.2C86.2,89.1,86.3,89.1,86.3,89.1c-0.1-0.2,0-0.2,0-0.2
							v-0.1l0.1-0.1c0,0,0.1-0.1,0.1,0c0.1,0,0.1,0.1,0.1,0.1s0,0.1-0.1,0.2C86.4,88.9,86.4,89,86.3,89.1
							C86.3,89.1,86.3,89.1,86.3,89.1z M86.7,88.8C86.7,88.8,86.7,88.8,86.7,88.8C86.7,88.8,86.7,88.9,86.7,88.8
							c0.1,0.1,0.1,0.2,0,0.2c-0.1,0-0.1,0-0.2,0c0,0,0,0-0.1,0c0,0,0,0,0-0.1c0,0,0-0.1,0.1-0.1S86.7,88.8,86.7,88.8z M86.9,87.7
							c0,0,0.1,0.1,0.2,0.1c0,0,0,0.1,0,0.2c0,0.1,0,0.2-0.1,0.2c0,0-0.1,0.1-0.2,0.1s-0.1-0.1-0.1-0.2c0-0.2,0-0.2,0-0.3
							C86.8,87.7,86.8,87.7,86.9,87.7z"/>
						<path class="st22" d="M85.3,89.9c0.1,0,0.2,0,0.2,0.1c0.1,0.1,0.1,0.2,0.1,0.2c0,0.2,0,0.2-0.1,0.2c-0.1,0.1-0.1,0.1-0.2,0.1
							s-0.2-0.1-0.2-0.2c-0.1-0.2-0.2-0.2-0.2-0.3C85.2,90,85.2,89.9,85.3,89.9z M86,90.8L86,90.8c0.2,0.2,0.2,0.2,0.3,0.2
							c0.1,0.1,0.2,0.2,0.2,0.2c0,0.1-0.1,0.1-0.2,0.1c-0.1,0-0.2-0.1-0.2-0.2c-0.1-0.1-0.1-0.1-0.2-0.2c0,0.1-0.1,0.1-0.1,0.2
							c-0.1,0.1-0.1,0.1-0.2,0.1h-0.1h-0.1c-0.1,0-0.1,0-0.1-0.1c0-0.2,0.1-0.3,0.2-0.6c0.2-0.3,0.3-0.6,0.5-0.9l0.1-0.1
							c0.1,0,0.1,0,0.2,0s0.1,0,0.1,0.1c0,0.1,0,0.2,0,0.2c0,0.1-0.1,0.2-0.2,0.6C86.1,90.6,86.1,90.7,86,90.8z M86.9,90.2
							C86.9,90.2,87,90.2,86.9,90.2C87,90.3,87,90.3,86.9,90.2c0.1,0.2,0.1,0.2,0,0.2c0,0.1-0.1,0.1-0.1,0.2
							c-0.2,0.1-0.2,0.1-0.3,0.1c0,0,0,0-0.1,0c0,0,0-0.1-0.1-0.1c0,0,0,0-0.1-0.1c0,0,0,0,0-0.1c0-0.1,0.1-0.2,0.2-0.2
							c0,0,0.1,0,0.2-0.1c0.1,0,0.1,0,0.2,0C86.8,90.2,86.9,90.2,86.9,90.2z"/>
						<path class="st22" d="M85,92.1c0.1,0,0.1,0,0.2,0.1c0,0.1,0.1,0.1,0.1,0.2v0.1v0.1h-0.1c0,0-0.1,0-0.1-0.1
							c0,0-0.1-0.1-0.1-0.2V92.1C85,92.2,85,92.2,85,92.1C85,92.1,85,92.1,85,92.1z M85.4,92.7C85.4,92.7,85.4,92.8,85.4,92.7
							c0.2,0.1,0.2,0.2,0.2,0.2s0,0.1-0.1,0.1c0,0-0.1,0-0.2,0s-0.1,0-0.1-0.1c0,0,0,0.1-0.1,0.1L85.2,93h-0.1c0,0,0,0,0-0.1
							s0.1-0.2,0.2-0.4c0-0.1,0.1-0.2,0.1-0.2c0-0.1,0-0.1,0.1-0.2v-0.1l0.1-0.1c0,0,0.1-0.1,0.1,0c0.1,0,0.1,0,0.1,0.1
							c0,0.1,0,0.2-0.1,0.2C85.6,92.4,85.5,92.5,85.4,92.7C85.4,92.6,85.4,92.7,85.4,92.7z M85.6,92.3
							C85.6,92.3,85.6,92.4,85.6,92.3C85.7,92.3,85.7,92.4,85.6,92.3c0.1,0.2,0.1,0.2,0,0.2c-0.1,0-0.1,0.1-0.1,0.1s0,0-0.1,0
							c0,0,0,0,0-0.1C85.5,92.4,85.6,92.4,85.6,92.3C85.6,92.4,85.6,92.3,85.6,92.3z M86.3,93.1C86.3,93.2,86.3,93.2,86.3,93.1
							c-0.1,0.1-0.2,0.2-0.2,0.2c-0.1,0.1-0.2,0.1-0.2,0.1h-0.1c0,0,0,0,0-0.1c0-0.1,0.1-0.2,0.2-0.2c0.1,0,0.1-0.1,0.2-0.2l0,0
							c0,0-0.1,0-0.1-0.1c-0.1,0-0.1-0.1-0.1-0.1s0.1-0.1,0.2-0.1s0.2,0,0.3,0s0.2,0,0.3,0c0.1,0,0.2,0.1,0.2,0.2c0,0,0,0.1-0.1,0.1
							h-0.1l0,0v0.1c0,0.1,0,0.1-0.1,0.2c0,0.1,0,0.1,0.1,0.1c0.1,0,0.2,0,0.2,0.1c0,0.1-0.1,0.1-0.2,0.1c-0.1,0-0.2-0.1-0.2-0.2
							v-0.1c0,0,0-0.1,0.1-0.1C86.3,93.1,86.3,93.1,86.3,93.1L86.3,93.1z M86.5,92.4C86.5,92.3,86.5,92.3,86.5,92.4
							C86.6,92.3,86.6,92.3,86.5,92.4c0.1-0.1,0.2-0.1,0.2,0l0,0h0.1c0.1,0,0.2,0.1,0.2,0.2c0,0,0,0.1-0.1,0.1h-0.1h-0.1l0,0v0.1
							l0,0l-0.1,0.1c0,0-0.1,0-0.1-0.1l0,0l0,0c0,0,0,0,0-0.1c-0.1,0-0.2,0-0.2,0h-0.1v0.1c0,0,0,0,0,0.1h-0.1c0,0-0.1,0-0.1-0.1
							l0,0c0,0,0,0,0-0.1c0,0,0,0,0-0.1c0,0-0.1,0-0.1-0.1c-0.1,0-0.1-0.1-0.1-0.2c0,0,0.1-0.1,0.2-0.1h0.1l0,0c0-0.1,0-0.1,0-0.1
							c0.1,0,0.1,0,0.1,0s0.1,0,0.1,0.1l0,0c0.1,0,0.1,0,0.2,0C86.3,92.4,86.4,92.4,86.5,92.4z M86.3,91.7c0-0.1,0.1-0.2,0.1-0.2
							c0.1,0,0.1,0.1,0.1,0.2c0,0,0,0,0.1,0c0.2,0,0.2,0,0.2,0.1c0.1,0.1,0.1,0.1,0.1,0.2c0,0,0,0.1-0.1,0.1c-0.1,0-0.2,0.1-0.2,0.1
							l0,0v0.1c0,0.1,0,0.1-0.1,0.1c-0.1,0-0.1,0-0.1-0.1v-0.1c0,0,0,0,0-0.1c-0.1,0-0.1,0-0.2,0h-0.1c-0.1,0-0.1,0-0.1,0
							c-0.1,0-0.1-0.1-0.1-0.2l0.1-0.1C86.1,91.8,86.1,91.8,86.3,91.7C86.2,91.7,86.2,91.7,86.3,91.7z"/>
					</g>
				</g>
				<g>
					<g>
						<g>
							<g>
								<g>
									<g>
										<g>
											<path class="st22" d="M84.6,90.4L84.6,90.4L84.6,90.4z"/>
											<polygon class="st22" points="84.7,90.6 84.6,90.6 84.7,90.6 											"/>
											<path class="st22" d="M84.6,90.7L84.6,90.7L84.6,90.7L84.6,90.7C84.6,90.6,84.7,90.7,84.6,90.7z"/>
											<path class="st22" d="M84.6,90.8C84.6,90.8,84.6,90.9,84.6,90.8L84.6,90.8L84.6,90.8z"/>
											<path class="st22" d="M84.6,90.8C84.6,90.8,84.5,90.8,84.6,90.8L84.6,90.8z"/>
											<path class="st22" d="M84.6,90.9L84.6,90.9C84.5,90.9,84.5,90.9,84.6,90.9C84.5,90.9,84.5,90.9,84.6,90.9z"/>
											<path class="st22" d="M84.6,90.9L84.6,90.9L84.6,90.9z"/>
											<path class="st22" d="M84.6,90.9L84.6,90.9L84.6,90.9L84.6,90.9z"/>
											<path class="st22" d="M84.6,90.9C84.6,90.9,84.6,90.8,84.6,90.9C84.6,90.8,84.6,90.8,84.6,90.9z"/>
											<path class="st22" d="M84.7,90.7L84.7,90.7L84.7,90.7L84.7,90.7z"/>
											<path class="st22" d="M84.5,91L84.5,91L84.5,91L84.5,91z"/>
											<path class="st22" d="M84.6,91L84.6,91L84.6,91z"/>
											<polygon class="st22" points="84.6,90.9 84.6,90.9 84.6,90.9 											"/>
											<path class="st22" d="M84.5,91.1L84.5,91.1L84.5,91.1z"/>
											<path class="st22" d="M84.5,91.2L84.5,91.2L84.5,91.2L84.5,91.2z"/>
											<path class="st22" d="M84.5,91.3L84.5,91.3L84.5,91.3z"/>
											<path class="st22" d="M84.6,91.1C84.6,91.1,84.5,91.1,84.6,91.1L84.6,91.1L84.6,91.1z"/>
											<path class="st22" d="M84.6,91.1L84.6,91.1L84.6,91.1L84.6,91.1z"/>
											<path class="st22" d="M84.6,91.1L84.6,91.1L84.6,91.1z"/>
											<path class="st22" d="M84.6,90.9C84.6,90.9,84.6,91,84.6,90.9C84.6,90.9,84.6,91,84.6,90.9z"/>
											<path class="st22" d="M84.6,91L84.6,91L84.6,91L84.6,91z"/>
											<path class="st22" d="M84.6,91.1L84.6,91.1L84.6,91.1z"/>
											<path class="st22" d="M84.5,91.2C84.6,91.2,84.6,91.3,84.5,91.2C84.6,91.3,84.6,91.2,84.5,91.2
												C84.6,91.2,84.5,91.2,84.5,91.2z"/>
											<path class="st22" d="M84.6,91.2L84.6,91.2L84.6,91.2z"/>
											<path class="st22" d="M84.5,91.3L84.5,91.3L84.5,91.3z"/>
											<path class="st22" d="M84.6,91.2L84.6,91.2L84.6,91.2L84.6,91.2z"/>
											<path class="st22" d="M84.5,91.3L84.5,91.3L84.5,91.3z"/>
											<path class="st22" d="M84.6,91.2C84.6,91.2,84.5,91.2,84.6,91.2C84.5,91.2,84.5,91.2,84.6,91.2z"/>
											<path class="st22" d="M84.6,91.2L84.6,91.2L84.6,91.2L84.6,91.2z"/>
											<path class="st22" d="M84.7,91.4C84.7,91.4,84.6,91.4,84.7,91.4C84.7,91.3,84.6,91.3,84.7,91.4L84.7,91.4
												C84.6,91.4,84.6,91.3,84.7,91.4C84.6,91.4,84.6,91.4,84.7,91.4C84.6,91.4,84.6,91.5,84.7,91.4L84.7,91.4L84.7,91.4z"/>
											<path class="st22" d="M84.6,91.3L84.6,91.3C84.5,91.3,84.5,91.3,84.6,91.3C84.5,91.3,84.5,91.3,84.6,91.3L84.6,91.3
												L84.6,91.3z"/>
											<path class="st22" d="M84.6,91.3C84.6,91.3,84.6,91.3,84.6,91.3L84.6,91.3L84.6,91.3L84.6,91.3
												C84.6,91.3,84.5,91.3,84.6,91.3L84.6,91.3L84.6,91.3L84.6,91.3C84.5,91.3,84.5,91.3,84.6,91.3
												C84.5,91.3,84.5,91.3,84.6,91.3C84.5,91.3,84.6,91.3,84.6,91.3C84.5,91.3,84.5,91.3,84.6,91.3
												C84.5,91.3,84.5,91.3,84.6,91.3L84.6,91.3L84.6,91.3C84.6,91.3,84.6,91.3,84.6,91.3z"/>
											<path class="st22" d="M84.7,91L84.7,91L84.7,91z"/>
											<path class="st22" d="M84.7,91L84.7,91L84.7,91L84.7,91L84.7,91C84.7,91,84.6,91,84.7,91C84.6,91,84.7,91,84.7,91z"/>
											<path class="st22" d="M84.6,91.2L84.6,91.2L84.6,91.2L84.6,91.2L84.6,91.2z"/>
											<path class="st22" d="M84.5,91.4L84.5,91.4L84.5,91.4z"/>
											<path class="st22" d="M84.5,91.4L84.5,91.4L84.5,91.4z"/>
											<path class="st22" d="M85.3,93.9L85.3,93.9L85.3,93.9z"/>
											<path class="st22" d="M85.2,93.9L85.2,93.9L85.2,93.9z"/>
											<path class="st22" d="M84.4,92.8C84.4,92.8,84.4,92.8,84.4,92.8L84.4,92.8C84.4,92.8,84.4,92.8,84.4,92.8z"/>
											<path class="st22" d="M84.5,93.7L84.5,93.7L84.5,93.7L84.5,93.7z"/>
											<path class="st22" d="M84.6,93.7L84.6,93.7L84.6,93.7z"/>
											<path class="st22" d="M85.8,93.9L85.8,93.9L85.8,93.9z"/>
											<path class="st22" d="M84.5,92C84.5,92.1,84.5,92.1,84.5,92C84.5,92.1,84.5,92,84.5,92z"/>
											<path class="st22" d="M85.2,94C85.2,94,85.3,94,85.2,94L85.2,94z"/>
											<path class="st22" d="M84.5,92.1L84.5,92.1L84.5,92.1L84.5,92.1z"/>
											<path class="st22" d="M87.1,93.5L87.1,93.5L87.1,93.5z"/>
											<path class="st22" d="M87.3,92.9L87.3,92.9L87.3,92.9z"/>
											<path class="st22" d="M84.5,91.7L84.5,91.7L84.5,91.7z"/>
											<path class="st22" d="M84.6,91.6L84.6,91.6L84.6,91.6z"/>
											<path class="st22" d="M84.6,92.2L84.6,92.2L84.6,92.2z"/>
											<path class="st22" d="M84.5,91.7L84.5,91.7L84.5,91.7z"/>
											<path class="st22" d="M84.5,91.7L84.5,91.7L84.5,91.7z"/>
											<path class="st22" d="M84.5,91.7L84.5,91.7L84.5,91.7L84.5,91.7z"/>
											<path class="st22" d="M86.7,93.9L86.7,93.9L86.7,93.9z"/>
											<path class="st22" d="M84.6,93.1L84.6,93.1L84.6,93.1z"/>
											<path class="st22" d="M84.6,93.2L84.6,93.2L84.6,93.2L84.6,93.2z"/>
											<path class="st22" d="M85.6,93.9L85.6,93.9C85.6,93.8,85.6,93.8,85.6,93.9C85.6,93.9,85.5,93.8,85.6,93.9L85.6,93.9
												L85.6,93.9c-0.1,0-0.1,0-0.2,0l0,0l0,0l0,0h-0.1l0,0l0,0l0,0l0,0l0,0c0-0.1,0,0-0.1,0l0,0c0,0-0.1,0-0.1-0.1
												c0,0,0.1,0.1,0,0.1c0,0,0,0-0.1,0c0,0,0,0-0.1,0l0,0c0,0,0,0-0.1,0c0,0,0,0,0-0.1c-0.1,0,0,0,0,0h-0.1l0,0l0,0l0,0l0,0
												l0,0l0,0l0,0l0,0l0,0c0,0,0,0-0.1,0l0,0h-0.1l0,0c0,0,0,0,0-0.1l0,0l0,0l0,0l0,0h0.1l0,0l0,0l0,0l0,0l0,0l0,0l0,0
												c0,0-0.1-0.1-0.1-0.2c0,0,0,0,0.1,0v0.1l0,0v-0.1l0,0c-0.1,0,0-0.1,0-0.1l0,0c0,0-0.1-0.1,0-0.1l0,0v-0.1l0,0
												c0-0.1,0-0.2,0-0.2h0.1l-0.3-0.1h0.1c0,0,0,0,0-0.1h-0.1c0,0,0,0,0.1-0.1h-0.1h0.1l-0.1-0.1c0,0,0,0,0.1,0v-0.1l0,0
												c0-0.1-0.1-0.1-0.1-0.1h0.1c0,0-0.1-0.1-0.2-0.1l0,0l0,0c0,0,0.1,0.1,0.2,0.2l0,0l0,0v-0.1c0,0,0-0.1-0.1-0.1v0.1
												l-0.1-0.1h0.1v-0.1l0,0v-0.1l0,0h-0.2c0,0,0-0.1,0.1-0.1h0.1l0,0l0,0c0,0,0-0.1,0,0c0,0,0,0,0-0.1c0,0-0.1,0-0.1-0.1l0,0
												c0-0.1,0-0.1,0-0.2l0,0l0,0l0,0V92v0.1L84.4,92c0-0.1,0,0,0,0c0-0.1-0.1-0.1,0-0.2h0.1v0.1l0,0c0,0,0,0,0,0.1v-0.2l0,0
												l0,0l0,0v-0.1l0,0l0,0v-0.1l0,0v-0.1l0,0v0.1c0,0,0,0.1-0.1,0.1l0,0l0,0l0,0l0,0l0,0l0,0v0.1l0,0l0,0c0,0,0,0.1-0.1,0
												l0,0v0.1c0,0,0,0.1,0,0V92l0,0c0,0.1,0,0.1,0,0.2c0,0,0,0,0,0.1l0,0v0.1c-0.1,0,0,0.1,0,0.2l0,0v0.1l0,0c0,0,0,0.1,0,0.2
												l0,0c-0.1,0.1,0,0.2,0,0.2l0,0l0,0l0,0l0,0l0,0c0,0,0,0,0,0.1l0,0l0,0l0,0l0,0c0,0,0,0,0,0.1c0,0,0,0.1,0.1,0.1l0,0
												c0,0,0,0,0,0.1l0,0l0,0c0,0,0,0-0.1,0c0,0.1,0,0.1,0,0.1l0,0v0.1c0,0,0,0.2-0.1,0.2c0.1,0,0,0.1,0,0.1l0,0
												c0,0.1,0,0.1,0,0.1l0,0l0,0l0,0c0,0.1,0.1,0.1,0.1,0.1v0.1l0,0c0,0,0,0,0,0.1c0,0,0,0.1,0.1,0l0,0c0,0,0,0,0.1,0.1l0,0
												c0,0,0,0,0.1,0l0,0c0,0,0,0,0.1,0l0,0c0,0,0,0,0.1,0l0,0c0-0.1,0.1,0,0.1,0l0,0l0.1,0.1l0,0c0.1,0,0,0,0.1,0
												c0,0,0,0,0,0.1c0,0,0.1-0.1,0.2,0l0,0c0,0,0.1,0.1,0.1,0l0,0h0.1c0,0.1,0.2,0,0.2,0h0.1l0,0c0.1,0,0.1,0,0.1,0l0,0
												c0.1,0,0.1,0,0.2,0l0,0c0,0,0.1,0,0.2,0l0,0c0.1,0,0.2,0.1,0.2,0h0.1c-0.1,0,0,0,0-0.1c0,0,0.1,0,0,0l0,0
												c0,0,0.1,0,0.1,0.1c0.2,0,0.2,0,0.3,0.1l0,0l0,0l0,0h0.1c0.1,0,0,0,0,0l0,0l0,0c0,0,0,0,0.1,0l0,0l0,0h0.1l0,0
												c0,0,0.1,0,0,0l0,0l0,0c0,0,0,0,0.1,0c0,0,0,0,0.1,0c0.1,0,0.1-0.1,0.1-0.1s0-0.1,0.1-0.1l0,0c0.1,0.1,0.1-0.1,0.1-0.1
												s0,0,0-0.1c0,0,0-0.1,0,0l0,0c0,0,0,0,0-0.1v-0.1v-0.1l0,0l0,0c0,0-0.1,0,0-0.1l0,0c0.1-0.2,0-0.3,0.1-0.5l0,0l0,0v-0.1
												V93l0,0h-0.1c0,0-0.1,0.1,0,0.2l0,0c0,0,0,0,0,0.1l0,0c0,0.1,0,0.1,0,0.2l0,0l0,0c0,0,0-0.1,0,0c-0.1,0,0,0.2-0.1,0.2
												l0,0l0,0l0,0l0,0l0,0v0.1l0,0c0,0.1,0,0.1,0,0.2v0.1c0,0,0,0,0,0.1l0,0c0,0.1,0,0,0,0.1l0,0c0,0,0,0,0,0.1l0,0
												c0,0,0,0,0,0.1l0,0l0,0c0,0,0,0,0,0.1l0,0H87l0,0l0,0l0,0l0,0l0,0c0,0,0-0.1-0.1-0.1l0,0h-0.1c0,0,0,0-0.1,0h0.1
												c0,0-0.1,0.1-0.1,0l0,0c0,0,0,0-0.1,0h0.1h-0.1c0,0.1-0.1,0-0.1,0l0,0l0,0l0,0h-0.1c0.1,0,0,0,0,0.1
												c-0.1,0-0.1-0.1-0.2-0.1c0,0,0.1,0,0,0c0,0,0,0-0.1,0c-0.1,0,0,0,0,0s0,0-0.1,0l0,0c-0.1,0,0,0.1-0.1,0l0,0l0,0l0,0H86
												l0,0l0,0l0,0l0,0h-0.1l0,0h-0.1l0,0l0,0l0,0h-0.1l0,0h-0.1l0,0h-0.1l0,0c0,0,0,0,0,0.1C85.6,93.9,85.6,93.9,85.6,93.9
												L85.6,93.9C85.5,93.9,85.6,93.9,85.6,93.9z M85.1,93.9C85.1,93.9,85.1,93.8,85.1,93.9L85.1,93.9z M84.6,93.6L84.6,93.6
												C84.6,93.7,84.6,93.6,84.6,93.6z M84.5,91.8L84.5,91.8L84.5,91.8z M84.5,91.7L84.5,91.7L84.5,91.7L84.5,91.7z M86.7,94.1
												L86.7,94.1L86.7,94.1z"/>
											<path class="st22" d="M84.6,93.7L84.6,93.7L84.6,93.7z"/>
											<path class="st22" d="M85.8,93.9L85.8,93.9L85.8,93.9z"/>
											<path class="st22" d="M84.7,92.4L84.7,92.4L84.7,92.4z"/>
											<path class="st22" d="M84.5,91.5L84.5,91.5C84.5,91.6,84.5,91.6,84.5,91.5C84.5,91.6,84.5,91.6,84.5,91.5z"/>
											<path class="st22" d="M84.7,91.3L84.7,91.3L84.7,91.3L84.7,91.3z"/>
											<path class="st22" d="M84.6,91.5L84.6,91.5L84.6,91.5L84.6,91.5z"/>
											<path class="st22" d="M84.6,91.5L84.6,91.5L84.6,91.5z"/>
											<path class="st22" d="M84.5,91.7C84.5,91.7,84.5,91.7,84.5,91.7C84.5,91.7,84.5,91.7,84.5,91.7z"/>
											<polygon class="st22" points="84.7,91.5 84.6,91.5 84.6,91.5 											"/>
											<path class="st22" d="M84.6,91.7L84.6,91.7C84.6,91.7,84.6,91.6,84.6,91.7L84.6,91.7z"/>
											<path class="st22" d="M84.6,91.6L84.6,91.6L84.6,91.6z"/>
											<path class="st22" d="M84.7,91.6L84.7,91.6L84.7,91.6z"/>
											<path class="st22" d="M84.6,92L84.6,92L84.6,92L84.6,92z"/>
											<path class="st22" d="M84.7,91.9L84.7,91.9L84.7,91.9L84.7,91.9z"/>
											<path class="st22" d="M84.7,92L84.7,92C84.7,92,84.7,91.9,84.7,92z"/>
											<polygon class="st22" points="84.6,92.4 84.6,92.4 84.5,92.4 											"/>
											<path class="st22" d="M84.7,92.8C84.7,92.8,84.7,92.8,84.7,92.8C84.7,92.8,84.7,92.8,84.7,92.8L84.7,92.8z"/>
											<path class="st22" d="M84.6,92.8L84.6,92.8L84.6,92.8z"/>
											<path class="st22" d="M87.3,92.8L87.3,92.8L87.3,92.8z"/>
											<path class="st22" d="M87.3,92.8L87.3,92.8L87.3,92.8L87.3,92.8z"/>
											<path class="st22" d="M85,93.8L85,93.8L85,93.8L85,93.8z"/>
											<polygon class="st22" points="85.3,93.8 85.3,93.8 85.3,93.9 											"/>
											<path class="st22" d="M85.6,93.8L85.6,93.8C85.6,93.8,85.6,93.9,85.6,93.8z"/>
										</g>
									</g>
								</g>
							</g>
						</g>
					</g>
					<g>
						<g>
							<g>
								<g>
									<g>
										<g>
											<path class="st22" d="M87.3,92.8L87.3,92.8L87.3,92.8z"/>
											<path class="st22" d="M87.3,92.6L87.3,92.6L87.3,92.6z"/>
											<path class="st22" d="M87.3,92.4L87.3,92.4L87.3,92.4L87.3,92.4C87.3,92.5,87.3,92.4,87.3,92.4z"/>
											<path class="st22" d="M87.4,92.4L87.4,92.4L87.4,92.4L87.4,92.4z"/>
											<path class="st22" d="M87.4,92.4L87.4,92.4L87.4,92.4z"/>
											<path class="st22" d="M87.4,92.3L87.4,92.3L87.4,92.3L87.4,92.3z"/>
											<path class="st22" d="M87.4,92.3L87.4,92.3L87.4,92.3z"/>
											<path class="st22" d="M87.4,92.3L87.4,92.3C87.4,92.3,87.3,92.3,87.4,92.3L87.4,92.3z"/>
											<path class="st22" d="M87.4,92.4L87.4,92.4C87.3,92.4,87.4,92.4,87.4,92.4z"/>
											<path class="st22" d="M87.3,92.4L87.3,92.4L87.3,92.4L87.3,92.4z"/>
											<path class="st22" d="M87.4,92.2C87.4,92.1,87.4,92.2,87.4,92.2L87.4,92.2L87.4,92.2z"/>
											<path class="st22" d="M87.4,92.2L87.4,92.2L87.4,92.2z"/>
											<path class="st22" d="M87.3,92.3L87.3,92.3L87.3,92.3z"/>
											<path class="st22" d="M87.4,92.1L87.4,92.1L87.4,92.1z"/>
											<path class="st22" d="M87.4,92.1C87.4,92.1,87.4,92,87.4,92.1C87.4,92,87.4,92,87.4,92.1C87.4,92,87.4,92,87.4,92.1z"/>
											<path class="st22" d="M87.4,92L87.4,92L87.4,92z"/>
											<path class="st22" d="M87.4,92.1L87.4,92.1L87.4,92.1L87.4,92.1z"/>
											<path class="st22" d="M87.4,92.1L87.4,92.1C87.4,92.1,87.4,92.1,87.4,92.1C87.4,92.1,87.4,92.1,87.4,92.1z"/>
											<path class="st22" d="M87.4,92.1L87.4,92.1L87.4,92.1z"/>
											<path class="st22" d="M87.3,92.2C87.3,92.2,87.3,92.1,87.3,92.2L87.3,92.2z"/>
											<path class="st22" d="M87.4,92.1L87.4,92.1L87.4,92.1L87.4,92.1z"/>
											<polygon class="st22" points="87.3,92.1 87.4,92.1 87.4,92.1 											"/>
											<path class="st22" d="M87.4,92L87.4,92L87.4,92L87.4,92z"/>
											<path class="st22" d="M87.4,92.1L87.4,92.1L87.4,92.1z"/>
											<path class="st22" d="M87.4,91.8L87.4,91.8L87.4,91.8z"/>
											<path class="st22" d="M87.4,92C87.4,92,87.4,92.1,87.4,92C87.4,92.1,87.4,92,87.4,92L87.4,92z"/>
											<path class="st22" d="M87.4,91.9L87.4,91.9L87.4,91.9z"/>
											<path class="st22" d="M87.4,92.1L87.4,92.1L87.4,92.1z"/>
											<path class="st22" d="M87.4,92.1L87.4,92.1L87.4,92.1L87.4,92.1z"/>
											<path class="st22" d="M87.3,91.7C87.3,91.7,87.3,91.8,87.3,91.7C87.3,91.8,87.4,91.8,87.3,91.7L87.3,91.7
												C87.4,91.8,87.3,91.8,87.3,91.7C87.3,91.8,87.3,91.8,87.3,91.7C87.3,91.8,87.3,91.7,87.3,91.7L87.3,91.7L87.3,91.7z"/>
											<path class="st22" d="M87.4,91.9L87.4,91.9L87.4,91.9C87.4,91.8,87.4,91.8,87.4,91.9L87.4,91.9L87.4,91.9z"/>
											<path class="st22" d="M87.4,91.9L87.4,91.9C87.3,92,87.4,91.9,87.4,91.9S87.4,92,87.4,91.9C87.4,92,87.4,92,87.4,91.9
												C87.4,92,87.4,92,87.4,91.9L87.4,91.9L87.4,91.9L87.4,91.9C87.4,91.9,87.4,92,87.4,91.9L87.4,91.9L87.4,91.9L87.4,91.9
												L87.4,91.9L87.4,91.9L87.4,91.9L87.4,91.9z"/>
											<path class="st22" d="M87.3,92.1L87.3,92.1L87.3,92.1z"/>
											<path class="st22" d="M87.3,92.1L87.3,92.1C87.3,92.2,87.3,92.1,87.3,92.1C87.3,92.2,87.3,92.2,87.3,92.1L87.3,92.1
												L87.3,92.1L87.3,92.1z"/>
											<path class="st22" d="M87.3,92.1L87.3,92.1L87.3,92.1L87.3,92.1L87.3,92.1z"/>
											<path class="st22" d="M87.4,91.8L87.4,91.8L87.4,91.8z"/>
											<path class="st22" d="M87.4,91.7L87.4,91.7L87.4,91.7z"/>
											<path class="st22" d="M87.4,88.7L87.4,88.7L87.4,88.7z"/>
											<path class="st22" d="M87.4,88.8L87.4,88.8L87.4,88.8z"/>
											<path class="st22" d="M87.4,90.5C87.4,90.5,87.5,90.4,87.4,90.5L87.4,90.5L87.4,90.5z"/>
											<path class="st22" d="M87.4,89.5L87.4,89.5L87.4,89.5L87.4,89.5z"/>
											<path class="st22" d="M87.4,89.5L87.4,89.5L87.4,89.5z"/>
											<path class="st22" d="M87.4,88.3L87.4,88.3L87.4,88.3z"/>
											<path class="st22" d="M87.4,91.2L87.4,91.2C87.4,91.2,87.4,91.2,87.4,91.2z"/>
											<path class="st22" d="M87.6,88.8C87.5,88.8,87.5,88.8,87.6,88.8C87.5,88.8,87.5,88.8,87.6,88.8z"/>
											<path class="st22" d="M87.4,91.1L87.4,91.1C87.4,91.2,87.4,91.2,87.4,91.1C87.4,91.2,87.4,91.2,87.4,91.1z"/>
											<path class="st22" d="M87,87.1L87,87.1L87,87.1z"/>
											<path class="st22" d="M86.5,86.8L86.5,86.8L86.5,86.8z"/>
											<path class="st22" d="M87.4,91.6L87.4,91.6L87.4,91.6z"/>
											<path class="st22" d="M87.3,91.6L87.3,91.6L87.3,91.6z"/>
											<path class="st22" d="M87.3,91L87.3,91L87.3,91z"/>
											<path class="st22" d="M87.4,91.6L87.4,91.6L87.4,91.6z"/>
											<path class="st22" d="M87.4,91.6L87.4,91.6L87.4,91.6z"/>
											<path class="st22" d="M87.4,91.5C87.4,91.6,87.4,91.6,87.4,91.5C87.4,91.6,87.4,91.6,87.4,91.5
												C87.4,91.6,87.4,91.6,87.4,91.5z"/>
											<path class="st22" d="M87.5,87.5L87.5,87.5L87.5,87.5z"/>
											<path class="st22" d="M87.3,90.2L87.3,90.2L87.3,90.2z"/>
											<path class="st22" d="M87.3,90.1C87.3,90.2,87.3,90.2,87.3,90.1L87.3,90.1L87.3,90.1z"/>
											<path class="st22" d="M87.4,88.5L87.4,88.5L87.4,88.5C87.4,88.5,87.3,88.6,87.4,88.5L87.4,88.5L87.4,88.5
												c0,0.1,0,0.1,0,0.2l0,0l0,0l0,0v0.1l0,0l0,0l0,0l0,0l0,0c-0.1,0,0,0,0,0.1l0,0c0,0,0,0.1-0.1,0.1c0,0,0.1-0.1,0.1,0
												c0,0,0,0,0,0.1l0,0l0,0l0,0c0,0,0,0-0.1,0c0,0.1,0,0,0,0v0.1l0,0l0,0l0,0l0,0c0,0-0.1,0.1,0,0.1l0,0c0,0.1,0,0.1,0.1,0.1
												l0,0c0,0,0.1,0,0.1,0.1l0,0v0.1l0,0l0,0c0,0,0,0-0.1,0l0,0c0,0,0,0-0.1,0l0,0l0,0l0,0l0,0l0,0v0.1c0,0.1,0.1,0.1,0.1,0.2
												c0,0,0,0-0.1,0v-0.1l0,0v0.1l0,0c0.1,0,0,0.1,0,0.1l0,0c0,0,0.1,0.1,0,0.1l0,0v0.1l0,0c0,0.1,0,0.2,0,0.2h-0.1l0.1,0.1
												h-0.1c0,0,0,0,0,0.1h0.1c0,0,0,0-0.1,0.1h0.1h-0.1l0.1,0.1c0,0,0,0-0.1,0v0.1l0,0c0,0.1,0.1,0.1,0.1,0.1h-0.1
												c0,0,0.1,0.1,0.2,0.1l0,0l0,0c0,0-0.1-0.1-0.2-0.2l0,0l0,0v0.1c0,0,0,0.1,0.1,0.1v-0.1l0.1,0.1h-0.1v0.1l0,0v0.1l0,0h0.2
												c0,0,0,0.1-0.1,0.1h-0.1l0,0l0,0c0,0,0,0.1,0,0c0,0,0,0,0,0.1c0,0,0.1,0,0.1,0.1l0,0c0,0.1,0,0.1,0,0.2l0,0l0,0l0,0v0.1
												v-0.1l0.1,0.1c0,0.1,0,0,0,0c0,0.1,0.1,0.1,0,0.2h-0.1v-0.1l0,0c0,0,0,0,0-0.1v0.2l0,0l0,0l0,0v0.1l0,0l0,0v0.1l0,0v0.1
												l0,0v-0.1c0,0,0,0,0.1-0.1l0,0l0,0l0,0l0,0l0,0l0,0v-0.1l0,0l0,0c0,0,0-0.1,0.1,0l0,0v-0.1c0,0,0-0.1,0,0v-0.1l0,0
												c0-0.1,0-0.1,0-0.2c0,0,0,0,0-0.1l0,0v-0.1c0.1,0,0-0.1,0-0.2l0,0v-0.1l0,0c0,0,0-0.1,0-0.2l0,0c0.1-0.1,0-0.1,0-0.2l0,0
												l0,0l0,0l0,0l0,0l0,0l0,0l0,0l0,0l0,0c0,0,0,0,0-0.1c0,0,0-0.1-0.1-0.1l0,0c0,0,0,0,0-0.1l0,0l0,0c0,0,0,0,0.1,0
												c0-0.1,0-0.1,0-0.1l0,0v-0.1c0,0,0-0.2,0.1-0.2c-0.1,0,0,0,0-0.1l0,0c0-0.1,0-0.1,0-0.1l0,0l0,0l0,0c0-0.1,0-0.1-0.1-0.1
												c0,0,0,0,0-0.1l0,0v-0.1l0,0c0,0,0,0,0-0.1l0,0c0,0,0,0,0-0.1l0,0c0-0.1,0,0,0-0.1l0,0c-0.1,0,0-0.1,0-0.1l0,0l0.1-0.1
												l0,0c0-0.1,0,0,0-0.1l0,0c0,0-0.1-0.1,0-0.1l0,0c0,0,0.1-0.1,0-0.1l0,0v-0.1c0.1,0,0-0.2,0-0.2v-0.1l0,0
												c0-0.1,0-0.1,0-0.1l0,0c0-0.1,0-0.1,0-0.2l0,0c0,0,0-0.1,0-0.2l0,0c0-0.1,0.1-0.2,0-0.2v-0.1c0,0.1,0,0-0.1,0
												c0,0,0-0.1,0,0l0,0c0,0,0-0.1,0.1-0.1c0-0.1,0-0.2,0.1-0.3l0,0l0,0l0,0v-0.1l0,0l0,0l0,0l0,0c0,0,0,0,0-0.1l0,0l0,0v-0.1
												l0,0l0,0c0,0,0-0.1,0,0V87c0-0.1-0.1-0.1-0.1-0.1l-0.1-0.1l0,0c0,0,0,0,0-0.1c0,0-0.1,0-0.1-0.1c0,0,0,0-0.1,0
												c0,0-0.1,0,0,0l0,0c-0.1,0-0.2,0-0.2,0l0,0l0,0c0,0,0,0.1-0.1,0l0,0c-0.2-0.1-0.3,0-0.5-0.1l0,0l0,0h-0.1h-0.1l0,0v0.1
												c0,0,0.1,0.1,0.2,0l0,0c0,0,0,0,0.1,0l0,0c0.1,0,0.1,0,0.2,0l0,0l0,0c0,0-0.1,0,0,0c0,0.1,0.2,0,0.2,0.1l0,0l0,0l0,0l0,0
												l0,0h0.1l0,0c0.1,0,0.2,0,0.2,0l0,0l0,0l0,0l0,0l0,0l0,0l0,0l0,0l0,0l0,0l0,0c0,0,0,0,0.1,0l0,0v0.1c0,0,0,0,0,0.1
												c0.1,0,0-0.1,0-0.1l0,0l-0.1,0.1l0,0c0,0,0,0,0,0.1l0,0l0,0l0,0c0,0,0.1,0.1,0,0.1l0,0c0,0,0,0,0,0.1v-0.1v0.1
												c0.1,0,0,0.1,0,0.1l0,0l0,0l0,0v0.1c0-0.1,0,0,0.1,0c0,0.1-0.1,0-0.1,0.2c0,0,0-0.1,0,0c0,0,0,0,0,0.1s0,0,0,0s0,0,0,0.1
												l0,0c0,0.1,0.1,0,0,0.1l0,0l0,0l0,0v0.1l0,0l0,0l0,0l0,0v0.1l0,0v0.1l0,0l0,0l0,0V88l0,0v0.1l0,0v0.1l0,0c0,0,0,0,0.1,0
												C87.4,88.5,87.4,88.4,87.4,88.5C87.4,88.5,87.4,88.5,87.4,88.5C87.4,88.6,87.4,88.6,87.4,88.5z M87.4,89
												C87.4,89,87.4,88.9,87.4,89L87.4,89z M87.4,89.6L87.4,89.6L87.4,89.6z M87.4,91.4L87.4,91.4L87.4,91.4z M87.4,91.5
												L87.4,91.5C87.4,91.5,87.4,91.4,87.4,91.5C87.4,91.4,87.4,91.4,87.4,91.5z M87.7,87.3L87.7,87.3
												C87.6,87.3,87.6,87.3,87.7,87.3z"/>
											<path class="st22" d="M87.4,89.5L87.4,89.5L87.4,89.5z"/>
											<path class="st22" d="M87.4,88.3L87.4,88.3L87.4,88.3z"/>
											<path class="st22" d="M87.3,90.9L87.3,90.9L87.3,90.9z"/>
											<path class="st22" d="M87.4,91.7L87.4,91.7L87.4,91.7L87.4,91.7z"/>
											<path class="st22" d="M87.3,91.9L87.3,91.9L87.3,91.9L87.3,91.9z"/>
											<path class="st22" d="M87.4,91.7C87.3,91.7,87.3,91.7,87.4,91.7C87.3,91.7,87.3,91.7,87.4,91.7
												C87.4,91.7,87.4,91.7,87.4,91.7z"/>
											<path class="st22" d="M87.3,91.7L87.3,91.7C87.4,91.7,87.3,91.7,87.3,91.7z"/>
											<path class="st22" d="M87.4,91.5C87.4,91.5,87.4,91.5,87.4,91.5C87.4,91.5,87.4,91.5,87.4,91.5z"/>
											<path class="st22" d="M87.3,91.7L87.3,91.7L87.3,91.7z"/>
											<path class="st22" d="M87.3,91.6L87.3,91.6L87.3,91.6L87.3,91.6z"/>
											<path class="st22" d="M87.3,91.6L87.3,91.6L87.3,91.6z"/>
											<path class="st22" d="M87.3,91.7L87.3,91.7L87.3,91.7z"/>
											<path class="st22" d="M87.3,91.3L87.3,91.3L87.3,91.3L87.3,91.3z"/>
											<path class="st22" d="M87.3,91.3L87.3,91.3L87.3,91.3L87.3,91.3z"/>
											<path class="st22" d="M87.3,91.3C87.3,91.3,87.2,91.2,87.3,91.3L87.3,91.3z"/>
											<polygon class="st22" points="87.3,90.8 87.3,90.8 87.4,90.8 											"/>
											<path class="st22" d="M87.3,90.4C87.2,90.5,87.3,90.4,87.3,90.4C87.3,90.5,87.3,90.4,87.3,90.4L87.3,90.4z"/>
											<path class="st22" d="M87.3,90.5L87.3,90.5L87.3,90.5z"/>
											<path class="st22" d="M86.4,86.8L86.4,86.8L86.4,86.8z"/>
											<path class="st22" d="M86.3,86.8L86.3,86.8L86.3,86.8L86.3,86.8z"/>
											<path class="st22" d="M87.3,89.1L87.3,89.1C87.3,89.1,87.3,89,87.3,89.1L87.3,89.1z"/>
											<path class="st22" d="M87.4,88.7L87.4,88.7L87.4,88.7z"/>
											<path class="st22" d="M87.4,88.4C87.4,88.4,87.4,88.5,87.4,88.4L87.4,88.4z"/>
										</g>
									</g>
								</g>
							</g>
						</g>
					</g>
					<g>
						<g>
							<g>
								<g>
									<g>
										<g>
											<path class="st22" d="M86.3,86.8L86.3,86.8L86.3,86.8z"/>
											<path class="st22" d="M86.2,86.8L86.2,86.8L86.2,86.8z"/>
											<path class="st22" d="M86.1,86.8C86.1,86.9,86.1,86.8,86.1,86.8L86.1,86.8L86.1,86.8L86.1,86.8z"/>
											<path class="st22" d="M86,86.8L86,86.8L86,86.8L86,86.8z"/>
											<path class="st22" d="M86,86.8L86,86.8L86,86.8z"/>
											<path class="st22" d="M86,86.8L86,86.8L86,86.8L86,86.8z"/>
											<path class="st22" d="M85.9,86.8L85.9,86.8C86,86.8,86,86.8,85.9,86.8z"/>
											<path class="st22" d="M86,86.8L86,86.8C86,86.8,86,86.8,86,86.8C86,86.8,86,86.8,86,86.8z"/>
											<path class="st22" d="M86,86.8L86,86.8L86,86.8z"/>
											<path class="st22" d="M86.1,86.9L86.1,86.9L86.1,86.9C86.1,86.9,86.1,86.8,86.1,86.9z"/>
											<path class="st22" d="M85.9,86.8C85.9,86.8,85.9,86.8,85.9,86.8L85.9,86.8C85.9,86.8,85.9,86.8,85.9,86.8z"/>
											<path class="st22" d="M85.9,86.8L85.9,86.8C85.9,86.8,85.9,86.8,85.9,86.8z"/>
											<path class="st22" d="M85.9,86.8L85.9,86.8L85.9,86.8z"/>
											<path class="st22" d="M85.9,86.8L85.9,86.8L85.9,86.8z"/>
											<path class="st22" d="M85.8,86.8L85.8,86.8L85.8,86.8L85.8,86.8z"/>
											<path class="st22" d="M85.8,86.8L85.8,86.8L85.8,86.8z"/>
											<path class="st22" d="M85.9,86.8L85.9,86.8L85.9,86.8L85.9,86.8z"/>
											<path class="st22" d="M85.9,86.8L85.9,86.8L85.9,86.8L85.9,86.8z"/>
											<path class="st22" d="M85.9,86.8L85.9,86.8C85.9,86.8,85.9,86.8,85.9,86.8z"/>
											<path class="st22" d="M85.9,86.8C85.9,86.8,85.9,86.8,85.9,86.8L85.9,86.8z"/>
											<path class="st22" d="M85.9,86.8L85.9,86.8L85.9,86.8L85.9,86.8z"/>
											<path class="st22" d="M85.9,86.8L85.9,86.8L85.9,86.8z"/>
											<path class="st22" d="M85.8,86.8L85.8,86.8C85.8,86.8,85.8,86.8,85.8,86.8L85.8,86.8z"/>
											<path class="st22" d="M85.8,86.8L85.8,86.8L85.8,86.8z"/>
											<path class="st22" d="M85.6,86.8L85.6,86.8L85.6,86.8z"/>
											<path class="st22" d="M85.8,86.8L85.8,86.8L85.8,86.8L85.8,86.8z"/>
											<path class="st22" d="M85.7,86.8L85.7,86.8L85.7,86.8z"/>
											<path class="st22" d="M85.8,86.8L85.8,86.8L85.8,86.8z"/>
											<path class="st22" d="M85.8,86.8L85.8,86.8L85.8,86.8L85.8,86.8z"/>
											<path class="st22" d="M85.6,86.9C85.6,86.9,85.6,86.8,85.6,86.9C85.7,86.9,85.7,86.8,85.6,86.9L85.6,86.9
												C85.6,86.8,85.7,86.8,85.6,86.9C85.6,86.8,85.6,86.8,85.6,86.9C85.6,86.8,85.6,86.8,85.6,86.9L85.6,86.9L85.6,86.9z"/>
											<path class="st22" d="M85.7,86.8L85.7,86.8L85.7,86.8C85.6,86.8,85.6,86.8,85.7,86.8L85.7,86.8L85.7,86.8z"/>
											<path class="st22" d="M85.7,86.8C85.7,86.8,85.7,86.8,85.7,86.8C85.7,86.8,85.7,86.8,85.7,86.8
												C85.7,86.8,85.8,86.8,85.7,86.8C85.7,86.8,85.8,86.8,85.7,86.8C85.8,86.8,85.7,86.8,85.7,86.8L85.7,86.8L85.7,86.8
												L85.7,86.8L85.7,86.8L85.7,86.8L85.7,86.8L85.7,86.8L85.7,86.8L85.7,86.8L85.7,86.8L85.7,86.8z"/>
											<path class="st22" d="M85.9,86.9L85.9,86.9L85.9,86.9z"/>
											<path class="st22" d="M85.9,86.9C85.9,86.9,85.9,86.8,85.9,86.9C85.9,86.9,85.9,86.9,85.9,86.9
												C85.9,86.9,85.9,86.9,85.9,86.9L85.9,86.9C85.9,86.8,85.9,86.8,85.9,86.9C85.9,86.8,85.9,86.8,85.9,86.9z"/>
											<path class="st22" d="M85.8,86.8L85.8,86.8L85.8,86.8L85.8,86.8L85.8,86.8z"/>
											<path class="st22" d="M85.6,86.8L85.6,86.8L85.6,86.8z"/>
											<path class="st22" d="M85.6,86.8L85.6,86.8L85.6,86.8z"/>
											<path class="st22" d="M84.9,88.4L84.9,88.4L84.9,88.4z"/>
											<path class="st22" d="M84.9,88.3L84.9,88.3L84.9,88.3z"/>
											<path class="st22" d="M84.8,87.2C84.8,87.2,84.8,87.2,84.8,87.2L84.8,87.2L84.8,87.2z"/>
											<path class="st22" d="M84.9,87.9L84.9,87.9L84.9,87.9L84.9,87.9z"/>
											<path class="st22" d="M85,87.9L85,87.9L85,87.9z"/>
											<path class="st22" d="M84.9,88.7L84.9,88.7C85,88.7,84.9,88.7,84.9,88.7z"/>
											<path class="st22" d="M85.2,86.8L85.2,86.8L85.2,86.8z"/>
											<path class="st22" d="M84.8,88.4L84.8,88.4L84.8,88.4z"/>
											<path class="st22" d="M85.2,86.8L85.2,86.8L85.2,86.8L85.2,86.8z"/>
											<path class="st22" d="M84.8,89.9L84.8,89.9L84.8,89.9z"/>
											<path class="st22" d="M84.7,90.3C84.7,90.3,84.7,90.2,84.7,90.3C84.7,90.2,84.7,90.3,84.7,90.3z"/>
											<path class="st22" d="M85.5,86.8L85.5,86.8L85.5,86.8z"/>
											<path class="st22" d="M85.5,86.8L85.5,86.8L85.5,86.8z"/>
											<path class="st22" d="M85.1,86.9L85.1,86.9L85.1,86.9z"/>
											<path class="st22" d="M85.5,86.8L85.5,86.8L85.5,86.8z"/>
											<path class="st22" d="M85.5,86.8L85.5,86.8L85.5,86.8z"/>
											<path class="st22" d="M85.5,86.8L85.5,86.8L85.5,86.8L85.5,86.8z"/>
											<path class="st22" d="M84.8,89.3L84.8,89.3L84.8,89.3z"/>
											<path class="st22" d="M85,87.5L85,87.5L85,87.5z"/>
											<path class="st22" d="M85,87.5L85,87.5L85,87.5L85,87.5z"/>
											<path class="st22" d="M84.9,88.6L84.9,88.6C85,88.6,85,88.6,84.9,88.6C84.9,88.6,85,88.5,84.9,88.6L84.9,88.6L84.9,88.6
												c0-0.1,0-0.1,0-0.2l0,0l0,0l0,0l0,0l0,0l0,0l0,0l0,0l0,0c0.1,0,0,0,0-0.1l0,0c0,0,0,0,0.1-0.1c0,0-0.1,0.1-0.1,0l0,0l0,0
												l0,0l0,0c0,0,0,0,0.1,0l0,0v-0.1l0,0l0,0l0,0l0,0c0,0,0.1,0,0-0.1l0,0c0,0,0,0-0.1-0.1l0,0h-0.1l0,0l0,0l0,0l0,0
												c0,0,0,0,0.1,0l0,0c0,0,0,0,0.1,0l0,0l0,0l0,0l0,0l0,0v-0.1l-0.1-0.1c0,0,0,0,0.1,0c0,0,0,0,0,0.1l0,0v-0.1l0,0
												c-0.1,0,0,0,0-0.1l0,0c0,0-0.1,0,0-0.1l0,0c0,0,0-0.1,0,0l0,0v-0.1h0.1L85,87.6c0,0,0.1,0,0.2,0l0,0h-0.1c0,0,0,0,0.1,0
												h-0.1h0.1h-0.1c0,0,0,0,0.1,0l0,0l0,0l-0.1-0.1h0.1l-0.1-0.1l0,0l0,0l0,0l0.1,0.1l0,0l0,0l0,0l0,0c0,0,0,0-0.1-0.1l0,0
												l0,0L85,87.3h0.1l0,0l0,0v-0.1c0,0,0.1,0,0,0l-0.2-0.1l0,0c0,0,0,0,0.1,0c0,0,0,0.1,0.1,0.1l0,0l0,0l0,0l0,0v-0.1l0,0
												h0.1l0,0l0,0l0,0l0,0c0,0,0,0-0.1,0c0,0,0,0,0-0.1l0,0l0,0l0,0c0.1,0,0.1-0.1,0.1,0v0.1c0,0,0,0-0.1,0l0,0l0,0
												c0,0,0.1,0,0.2,0l0,0l0,0l0,0c0,0,0,0,0.1,0l0,0l0,0c0,0,0,0,0.1,0l0,0h0.1l0,0c0,0-0.1,0,0,0c0,0,0,0-0.1-0.1l0,0l0,0
												l0,0l0,0l0,0l0,0h-0.1l0,0l0,0c0,0,0,0,0-0.1l0,0c0,0,0,0-0.1,0l0,0l0,0l0,0c0,0,0,0-0.1,0c0,0,0,0-0.1,0c0,0,0,0-0.1,0
												c0,0,0,0-0.1,0l0,0c0,0-0.1,0-0.1,0.1h-0.1c0,0,0,0.1-0.1,0.1l0,0v0.1l0,0c0,0,0,0.1-0.1,0.1l0,0v0.1v0.1l0,0l0,0l0,0
												l0,0l0,0l0,0l0,0l0,0l0,0l0,0l0,0c0,0,0,0.1,0.1,0.1l0,0l0,0l0,0l0,0c0,0,0,0-0.1,0c0,0,0,0,0,0.1l0,0l0,0
												c0,0,0,0.1-0.1,0.2c0.1,0,0,0,0,0l0,0v0.1l0,0l0,0l0,0c0,0,0,0,0.1,0.1l0,0l0,0V88l0,0c0,0,0,0,0,0.1l0,0c0,0,0,0,0,0.1
												l0,0c0,0.1,0,0,0,0.1l0,0c0.1,0,0,0,0,0.1l0,0c0,0-0.1,0-0.1,0.1l0,0l0,0l0,0c0,0,0.1,0.1,0,0.1l0,0c0,0-0.1,0.1,0,0.1
												l0,0v0.1c-0.1,0,0,0.1,0,0.1v0.1l0,0v0.1l0,0c0,0.1,0,0.1,0,0.1l0,0v0.1l0,0c0,0.1-0.1,0.1,0,0.2l0,0c0-0.1,0,0,0.1,0
												c0,0,0,0.1,0,0l0,0c0,0,0,0.1-0.1,0.1c0,0.1,0,0.2,0,0.2l0,0l0,0l0,0l0,0l0,0l0,0l0,0l0,0l0,0l0,0l0,0l0,0l0,0
												c-0.1,0,0,0.2,0,0.2v0.1l0,0c-0.1,0,0,0-0.1,0.1c0,0,0,0.1,0.1,0.1l0,0c0,0.1,0,0.1,0,0.2l0,0l0,0c0,0,0.1,0,0,0l0,0
												c-0.1,0.1,0,0.2-0.1,0.3l0,0l0,0v0.1v0.1l0,0h0.1c0,0,0.1-0.1,0-0.1l0,0l0,0l0,0c0-0.1,0-0.1,0-0.2l0,0l0,0l0,0
												c0.1,0,0-0.1,0.1-0.1l0,0l0,0l0,0l0,0l0,0v-0.1l0,0c0-0.1,0-0.2,0-0.2l0,0c0-0.1,0,0,0-0.1l0,0l0,0l0,0
												c0-0.1,0,0-0.1-0.1l0,0l0,0c0,0,0,0,0.1,0c0-0.1,0-0.1,0-0.1c-0.1,0,0,0,0,0l0,0c0,0,0.1,0,0.1-0.1l0,0c0,0,0,0,0-0.1
												l0,0l0,0c0,0-0.1-0.1,0-0.1l0,0l0,0v0.1c0,0,0-0.1,0,0c-0.1,0,0,0,0-0.1l0,0l0,0l0,0c0,0,0,0,0-0.1c0,0.1,0,0-0.1,0
												c0-0.1,0.1,0,0.1-0.1l0,0l0,0l0,0l0,0l0,0c0-0.1-0.1,0,0-0.1l0,0l0,0l0,0c0,0,0,0,0-0.1l0,0l0,0l0,0l0,0c0,0,0,0,0-0.1
												l0,0v-0.1l0,0l0,0l0,0l0,0l0,0V89l0,0v-0.1l0,0C85,88.7,84.9,88.7,84.9,88.6L84.9,88.6L84.9,88.6L84.9,88.6z M84.9,88.3
												C84.9,88.3,85,88.3,84.9,88.3L84.9,88.3z M84.9,87.8L84.9,87.8C84.9,87.9,84.9,87.8,84.9,87.8z M85.4,86.8L85.4,86.8
												L85.4,86.8z M85.4,86.8L85.4,86.8L85.4,86.8L85.4,86.8z M84.7,89.4L84.7,89.4L84.7,89.4z"/>
											<path class="st22" d="M85,87.9C84.9,87.9,84.9,87.9,85,87.9C84.9,87.9,84.9,87.9,85,87.9z"/>
											<path class="st22" d="M84.9,88.7L84.9,88.7L84.9,88.7z"/>
											<path class="st22" d="M85.1,87L85.1,87L85.1,87z"/>
											<path class="st22" d="M85.6,86.8L85.6,86.8L85.6,86.8L85.6,86.8z"/>
											<path class="st22" d="M85.7,86.9L85.7,86.9L85.7,86.9C85.7,86.8,85.7,86.9,85.7,86.9z"/>
											<path class="st22" d="M85.6,86.8L85.6,86.8L85.6,86.8C85.6,86.8,85.6,86.8,85.6,86.8z"/>
											<path class="st22" d="M85.6,86.8L85.6,86.8L85.6,86.8z"/>
											<path class="st22" d="M85.5,86.8L85.5,86.8C85.5,86.8,85.4,86.8,85.5,86.8z"/>
											<polygon class="st22" points="85.6,86.9 85.6,86.8 85.6,86.8 											"/>
											<path class="st22" d="M85.5,86.8L85.5,86.8L85.5,86.8L85.5,86.8z"/>
											<path class="st22" d="M85.5,86.8C85.5,86.8,85.6,86.8,85.5,86.8C85.6,86.8,85.5,86.8,85.5,86.8z"/>
											<polygon class="st22" points="85.6,86.9 85.6,86.9 85.6,86.8 											"/>
											<path class="st22" d="M85.3,86.8L85.3,86.8C85.2,86.8,85.2,86.8,85.3,86.8C85.2,86.8,85.3,86.8,85.3,86.8z"/>
											<path class="st22" d="M85.3,86.9L85.3,86.9L85.3,86.9L85.3,86.9z"/>
											<path class="st22" d="M85.3,86.9C85.2,86.9,85.2,86.9,85.3,86.9C85.2,86.9,85.3,86.9,85.3,86.9z"/>
											<path class="st22" d="M85,87L85,87L85,87z"/>
											<path class="st22" d="M85.1,87.2C85.1,87.2,85,87.2,85.1,87.2C85,87.2,85,87.2,85.1,87.2C85,87.2,85,87.2,85.1,87.2z"/>
											<path class="st22" d="M85,87.2L85,87.2L85,87.2z"/>
											<path class="st22" d="M84.6,90.3L84.6,90.3L84.6,90.3z"/>
											<path class="st22" d="M84.7,90.4L84.7,90.4L84.7,90.4L84.7,90.4z"/>
											<path class="st22" d="M85,88.3L85,88.3L85,88.3L85,88.3z"/>
											<polygon class="st22" points="85,88.4 85,88.4 84.9,88.4 											"/>
											<path class="st22" d="M85,88.7C85,88.6,85,88.6,85,88.7C85,88.6,85,88.7,85,88.7z"/>
										</g>
									</g>
								</g>
							</g>
						</g>
					</g>
				</g>
			</g>
		</g>
	</g>
</g>
<g>
	<g>
		<path class="st23" d="M17,101.5l1,11.9c0,9.7,10.3,17.6,22.9,17.6c12.7,0,21.8-7.7,23.3-17.7l1.2-8.3C65.5,105,17.1,96.5,17,101.5
			z"/>
		<path class="st24" d="M65.8,101.5c0.1,10.2-10.9,18.5-24.4,18.5c-13.5,0-24.2-8.3-24.4-18.5c-0.2-10.7,11.1-19,24.6-19
			C55.1,82.5,65.7,90.8,65.8,101.5z"/>
		<path class="st25" d="M64.6,101.5c0,9.7-10.4,17.6-23.2,17.6c-12.8,0-23.2-7.9-23.2-17.6c0-9.7,10.4-17.6,23.2-17.6
			C54.2,83.9,64.6,91.8,64.6,101.5z"/>
		<g>
			<defs>
				<path id="SVGID_6_" d="M63.9,101.5c0,9.4-10.1,17-22.5,17c-12.4,0-22.5-7.6-22.5-17c0-9.4,10.1-17,22.5-17
					C53.8,84.5,63.9,92.1,63.9,101.5z"/>
			</defs>
			<linearGradient id="SVGID_7_" gradientUnits="userSpaceOnUse" x1="18.9004" y1="101.5079" x2="63.8814" y2="101.5079">
				<stop  offset="0" style="stop-color:#FFFFFF"/>
				<stop  offset="0.1208" style="stop-color:#D4D4D4"/>
				<stop  offset="0.2585" style="stop-color:#ABABAB"/>
				<stop  offset="0.3997" style="stop-color:#898989"/>
				<stop  offset="0.5428" style="stop-color:#6E6E6E"/>
				<stop  offset="0.6885" style="stop-color:#5B5B5B"/>
				<stop  offset="0.8387" style="stop-color:#505050"/>
				<stop  offset="1" style="stop-color:#4D4D4D"/>
			</linearGradient>
			<use xlink:href="#SVGID_6_"  style="overflow:visible;fill:url(#SVGID_7_);"/>
			<clipPath id="SVGID_8_">
				<use xlink:href="#SVGID_6_"  style="overflow:visible;"/>
			</clipPath>
			<path class="st26" d="M63.9,104.9c0,9.4-10.1,17-22.5,17c-12.4,0-22.5-7.6-22.5-17c0-9.4,10.1-17,22.5-17
				C53.8,87.8,63.9,95.5,63.9,104.9z"/>
		</g>
		<polygon class="st27" points="32,107.7 35.3,110.1 36,111.7 36.1,109.7 		"/>
		<polygon class="st27" points="42.7,105.5 40.8,107.6 41.1,109.1 41.5,107.5 		"/>
		<polygon class="st27" points="30.2,99 34.5,99.8 34.1,100.7 		"/>
		<polygon class="st27" points="26.9,107.6 30,104.8 28.9,103.2 26.8,103.1 29.5,102.8 30.3,104.2 30.3,105.5 		"/>
		<polygon class="st27" points="34.9,103.1 40.2,102.8 37.7,103.6 		"/>
		<polygon class="st27" points="40.6,96.6 45.9,96.2 43.3,97 		"/>
		<path class="st28" d="M45.3,112.4c0,0,8.9-3.3,9-6.9c0.1-3.6-1.7-6-2.6-8.7c-0.9-2.7,2.7-4.5,5.1-3.8c2.4,0.7,5.1,5.7,5.3,9.4
			c0.2,3.7-2.7,8.9-7.5,10.9c-4.8,2-6.6,1.8-8.1,1.7C45.1,114.8,43.9,113.7,45.3,112.4z"/>
		<linearGradient id="SVGID_9_" gradientUnits="userSpaceOnUse" x1="44.2651" y1="91.7814" x2="47.9261" y2="81.7227">
			<stop  offset="0" style="stop-color:#FFFFFF"/>
			<stop  offset="0.1208" style="stop-color:#D4D4D4"/>
			<stop  offset="0.2585" style="stop-color:#ABABAB"/>
			<stop  offset="0.3997" style="stop-color:#898989"/>
			<stop  offset="0.5428" style="stop-color:#6E6E6E"/>
			<stop  offset="0.6885" style="stop-color:#5B5B5B"/>
			<stop  offset="0.8387" style="stop-color:#505050"/>
			<stop  offset="1" style="stop-color:#4D4D4D"/>
		</linearGradient>
		<path class="st29" d="M66.1,98.8c-0.2,0.4-1.6,0.7-3-0.3c-1.5-1-29.9-12.3-29.9-12.3s-7.7-2.3-8.4-6.2c0,0-0.7-2.3,1.2-2.9
			c1.9-0.7,3.9-1.8,5.3-1.5c1.4,0.3,7,5.9,10,7.3c3,1.4,5,2.5,7.5,2.6c2.5,0.1,6.4,0.2,8.1,1c1.8,0.8,3.8,2.9,4.3,3.7
			C61.6,91,67.8,95.3,66.1,98.8z"/>
		<path class="st30" d="M29,76.1c0,0,1.2-1.2,3.7-0.1c2.6,1.1,10.4,3.9,10.4,3.9l7.8,3.2c0,0,6.2,2.3,8,4.6c0,0-11.2,0.3-13.7-1
			c-2.5-1.3-10.2-6.2-11.7-7.3C32.1,78.4,29,76.1,29,76.1z"/>
		<path class="st31" d="M56.7,67.5c0,0-2.7-1.9-5.6-2.6c-2.8-0.8-4.7,0.2-6.1,1.1c-1.2,0.8-1.9,2.5-1.9,2.5s-1.8,7-2.2,7.9
			c-0.4,1-0.5,3.2,0,4.3c0.5,1.1,2.2,2.7,2.2,2.7s1,0.8,1.7,0.8c0.7,0,1.9-0.4,2.8-0.7c1-0.3,2.1-0.8,2.6-1.4
			c0.5-0.6,6.3-7.4,6.6-7.7c0.3-0.3,1.2-1.5,1.3-3.6C58.2,68.7,56.7,67.5,56.7,67.5z M49.8,79.2c0,0-0.5,1.5-1.5,2.2l-0.7,0.2
			c0,0-2.5-1.8-4.7-2c0,0-0.6-1.8,0.6-3.3c0,0,1.3-2.1,4.4-1C47.8,75.2,50.5,76.6,49.8,79.2z M56.6,71.4c0,0-0.7,2.7-3.2,3.3
			c0,0-1.8,0.3-3.2-0.2c-1.5-0.5-3.8-1.7-3.8-1.7s-0.9-0.4-1.2-1.1c0,0-1.1-2.5,0-4c1.1-1.6,4.1-2.4,6.9-1.3
			C54.8,67.5,57,68.8,56.6,71.4z"/>
		<path class="st32" d="M56.4,67.2c0,0-2.7-1.9-5.6-2.6c-2.8-0.8-4.7,0.2-6.1,1.1c-1.2,0.8-1.9,2.5-1.9,2.5s-1.8,7-2.2,7.9
			c-0.4,1-0.5,3.2,0,4.3c0.5,1.1,2.2,2.6,2.2,2.6s1,0.8,1.7,0.8c0.7,0,1.9-0.4,2.8-0.7c1-0.3,2.1-0.8,2.6-1.4
			c0.5-0.6,6.3-7.4,6.6-7.7c0.3-0.3,1.2-1.5,1.3-3.6C57.9,68.4,56.4,67.2,56.4,67.2z M49.5,78.9c0,0-0.5,1.5-1.5,2.2l-0.7,0.2
			c0,0-2.5-1.8-4.7-2c0,0-0.6-1.8,0.6-3.3c0,0,1.3-2.1,4.4-1C47.5,74.9,50.2,76.3,49.5,78.9z M56.3,71.1c0,0-0.7,2.7-3.2,3.3
			c0,0-1.8,0.3-3.2-0.2c-1.5-0.5-3.8-1.7-3.8-1.7s-0.9-0.4-1.2-1.1c0,0-1.1-2.5,0-4c1.1-1.6,4.1-2.4,6.9-1.3
			C54.5,67.2,56.7,68.5,56.3,71.1z"/>
		<polygon class="st27" points="37.9,92 36.1,94 33.1,94.4 36,95.1 		"/>
		<polygon class="st27" points="45.2,102.5 49,103.5 49.8,107.1 48.4,103.9 		"/>
		<polygon class="st27" points="50.4,97.3 48.2,99.1 46.5,98.3 48,100.1 		"/>
		<polygon class="st33" points="59.9,100.1 57.8,101.9 56,101.1 57.6,102.9 		"/>
		<polygon class="st27" points="22.9,98.6 23,102.5 24.4,104.7 23.5,102.2 		"/>
		<polygon class="st27" points="27.3,96.2 30.9,95.8 33,96.7 30.1,96.3 		"/>
		<polygon class="st27" points="39.1,111.7 38,114.5 34.5,115.2 38.3,115.4 		"/>
		<polygon class="st33" points="53.5,109.6 52.4,112.4 48.9,113 52.7,113.3 		"/>
		<polygon class="st27" points="27.9,112.6 28.5,109.8 30.8,107.9 27.4,109 		"/>
		<path class="st27" d="M41.2,103.6c1,0.2,3.9,0.4,3.9,0.4l0.8,3.6l-1.1-3.1L41.2,103.6z"/>
		<polygon class="st27" points="46.3,93.1 49.4,95.4 52.2,95.8 49.4,94.8 		"/>
		<polygon class="st27" points="42.1,109.9 45.9,110.7 48.2,109.8 46,111.3 		"/>
		<polygon class="st27" points="44,115.6 42.3,117.3 44.7,116.3 		"/>
		<polygon class="st27" points="35.8,90.1 38.8,90 40.9,90.9 39,89.2 		"/>
		<polygon class="st27" points="39.7,98.5 41.6,99.8 43.3,100 41.2,100.6 		"/>
		<polygon class="st27" points="43.5,92 40.7,93.9 42.8,91.4 		"/>
		<polygon class="st27" points="30.6,90.9 30.6,92.4 33.5,92.8 29.8,93 		"/>
		<polygon class="st27" points="24.7,96.4 26.8,98.7 26,99.2 		"/>
		<polygon class="st27" points="20.2,104.1 22.3,106.1 25.2,106.8 22,106.8 		"/>
		<polygon class="st33" points="56.9,105.1 55,107.2 55.4,108.8 55.7,107.1 		"/>
		<path class="st34" d="M55,120.6c0.6,0.6-0.1,2.7-2.6,4.7c-2.4,2-6.5,4-11.3,3.9c-4.8,0.1-8.9-1.9-11.3-3.9c-2.4-2-3.1-4.1-2.6-4.7
			c1.3-1.3,7,2,13.8,1.9C48,122.6,53.6,119.3,55,120.6z"/>
		<path class="st35" d="M49.2,120.6C49.2,120.6,49.2,120.7,49.2,120.6c0.5,0.4,2.3,1.2,2.4,1.3c0,0,0.1-0.1,0.1-0.1
			c0.2-0.2,0.4-0.3,0.7-0.5c0,0,0.1,0,0.1,0c0.1,0.3,0.1,0.6,0.4,0.7c0.1,0.1,0.3,0.2,0.3,0.3c0.2,0.1,0.5,0.1,0.7,0.1
			c0.1,0,0.1,0,0.2,0c0,0,0.1,0,0.1,0c0.1-0.1,0.3-0.2,0.4-0.3l0.1-0.1c0.2,0,0.3,0.3,0.6,0.1c0.2-0.1,0.3,0.2,0.6-0.1
			c0.1-0.1,0.2,0.1,0.3,0c0.1-0.1,0.2-0.1,0.2-0.1c0.1,0,0.1,0.1,0.3,0.1c0,0,0.1,0,0.2,0c0.2-0.1,0.4-0.1,0.5-0.2
			c0.1-0.1,0.1-0.1,0.2-0.2c0.3-0.3,0.4-0.7,0.8-1c0.1-0.1,0.3-0.3,0.4-0.4l0,0c0.2-0.2,0.4-0.4,0.6-0.6c0,0,0.1-0.1,0.1,0
			c0,0.1,0.1,0.2,0,0.4c0,0.2-0.2,0.9-0.6,1.3c0.3,0,0.6,0.2,0.9,0.3c0.1,0,0.2,0.1,0.3,0.1c0,0.1-0.1,0.1-0.1,0.2
			c0,0-0.1,0.1-0.1,0.1c-0.2,0.1-0.4,0.3-0.7,0.3c-0.1,0-0.3,0.1-0.4,0c0,0-0.1,0-0.1,0c-0.3,0-0.6,0-0.9,0.2
			c-0.1,0-0.2,0.1-0.2,0.1c-0.5,0.3-1,0.6-1.5,0.9l0,0c-0.4,0.2-0.7,0.4-1.1,0.5c0,0-0.1,0-0.1,0.1c-0.7,0.3-1.4,0.6-2.1,0.7l0,0
			c-0.6,0.1-1.2,0.1-1.8,0c0,0.1-0.2,0.7-0.2,0.7c-0.3,0-0.4-0.5-0.5-0.7c-0.1-0.1-0.1-0.2-0.3-0.3c-0.1,0-0.2-0.1-0.3-0.1
			c-0.6-0.4-1.1-1.1-1.2-1.3c-0.2-0.3-0.2-0.6-0.3-1c0-0.1,0-0.3,0-0.4c0-0.1,0-0.2,0.1-0.3c0-0.3,0.2-0.6,0.3-0.8
			c0-0.1,1.2,1.3,0.4-0.1c0-0.1-0.2-0.2-0.1-0.3C48.8,120.5,49.1,120.6,49.2,120.6z"/>
		<path class="st36" d="M49.9,122c0,0.1-0.1,0.3-0.3,0.3c-0.1,0-0.3-0.1-0.3-0.3c0-0.1,0.1-0.3,0.3-0.3
			C49.8,121.7,49.9,121.9,49.9,122z"/>
		<g>
			<path class="st37" d="M34.1,123c-0.5-0.1-1.1-0.3-1.6-0.5c0.1,1.7,0.3,3.5,0.4,5.3c-0.4-0.1-0.7-0.3-1.1-0.4
				c-0.2-1.8-0.4-3.5-0.6-5.3c-0.5-0.2-1.1-0.4-1.6-0.6c0-0.4-0.1-0.7-0.1-1.1c1.5,0.6,3,1.1,4.5,1.5C34,122.3,34,122.6,34.1,123z"
				/>
			<path class="st37" d="M38.9,126.3c-0.1,1.8-0.8,2.6-1.8,2.4c-1.1-0.2-1.8-1.2-1.9-3c-0.1-1.2-0.1-2.4-0.2-3.6
				c0.4,0.1,0.7,0.1,1.1,0.2c0,1.2,0,2.5,0.1,3.7c0,1.1,0.4,1.6,0.9,1.7c0.5,0.1,0.8-0.3,0.8-1.4c0-1.2,0-2.5,0.1-3.8
				c0.4,0,0.7,0.1,1.1,0.1C39,123.9,38.9,125.1,38.9,126.3z"/>
			<path class="st37" d="M43.9,128.8c-0.3,0-0.6,0-0.9,0.1c-0.3-0.8-0.7-1.7-1-2.5c-0.3-0.6-0.6-1.4-0.8-2c0,0,0,0,0,0
				c0.1,0.8,0.1,1.6,0.2,2.7c0,0.6,0.1,1.3,0.1,1.9c-0.3,0-0.5,0-0.8,0c-0.2-2-0.3-4.1-0.4-6.1c0.4,0,0.8,0,1.1,0
				c0.4,0.8,0.8,1.6,1.1,2.5c0.3,0.6,0.5,1.3,0.7,2c0,0,0,0,0,0c0-0.8-0.1-1.7,0-2.7c0-0.6,0-1.2,0-1.9c0.3,0,0.6-0.1,0.9-0.1
				C44,124.6,43.9,126.7,43.9,128.8z"/>
			<path class="st37" d="M48.9,127.8c-0.3,0.1-0.5,0.2-0.8,0.2c-0.1-0.5-0.3-1-0.4-1.6c-0.4,0.1-0.8,0.2-1.2,0.3
				c0,0.6-0.1,1.1-0.1,1.7c-0.3,0-0.6,0.1-0.9,0.1c0.1-2.1,0.3-4.2,0.6-6.4c0.4-0.1,0.8-0.2,1.2-0.3
				C47.9,123.9,48.5,125.8,48.9,127.8z M47.5,125.6c-0.1-0.4-0.2-0.9-0.4-1.3c-0.1-0.4-0.2-0.8-0.3-1.2c0,0,0,0,0,0
				c0,0.4-0.1,0.9-0.1,1.3c-0.1,0.5-0.1,1-0.1,1.5C46.9,125.8,47.2,125.7,47.5,125.6z"/>
		</g>
		<g>
			<defs>
				<path id="SVGID_10_" d="M17,101.5l1,11.9c0,9.7,10.3,17.6,22.9,17.6c12.7,0,21.8-7.7,23.3-17.7l1.2-8.3
					C65.5,105,17.1,96.5,17,101.5z"/>
			</defs>
			<clipPath id="SVGID_11_">
				<use xlink:href="#SVGID_10_"  style="overflow:visible;"/>
			</clipPath>
			<path class="st38" d="M41.4,121.4c-6.7,0-13-2-17.8-5.6c-4.7-3.6-7.4-8.4-7.5-13.6c-0.1-4.4,1.7-8.5,5-12
				c4.8-4.9,12.4-7.8,20.4-7.8c6.7,0,13,2,17.7,5.6c4.7,3.7,7.3,8.7,7.4,14.1c0,4.2-1.7,8.2-5,11.5
				C56.9,118.5,49.3,121.4,41.4,121.4z M41.6,83.1c-7.8,0-15.3,2.8-19.9,7.6c-3.2,3.3-4.9,7.3-4.8,11.4c0.1,4.9,2.7,9.6,7.2,13.1
				c4.6,3.5,10.8,5.5,17.3,5.5c7.7,0,15.1-2.8,19.8-7.5c3.2-3.2,4.9-7,4.8-11c0-5.2-2.6-10-7.1-13.5C54.3,85.1,48.2,83.1,41.6,83.1z
				"/>
		</g>
	</g>
	<path class="st36" d="M48.4,81.5c-0.1,0-0.1,0-0.2,0c-0.2-0.1-0.4-0.4-0.2-0.6c0.4-1,1.6-1.6,1.8-1.7c0.2-0.1,0.5,0,0.6,0.2
		c0.1,0.2,0,0.5-0.2,0.6l0,0c-0.3,0.1-1.1,0.6-1.3,1.2C48.7,81.3,48.5,81.5,48.4,81.5z"/>
	<path class="st36" d="M51.6,80.5c-0.1,0-0.1,0-0.2,0c-0.2-0.1-0.4-0.4-0.3-0.6c0.4-1,1.6-1.6,1.8-1.7c0.2-0.1,0.5,0,0.6,0.2
		c0.1,0.2,0,0.5-0.2,0.6l0,0c-0.3,0.1-1.1,0.6-1.3,1.2C51.9,80.4,51.8,80.5,51.6,80.5z"/>
	<path class="st36" d="M47.3,84.3c-0.1,0-0.1,0-0.2,0c-0.2-0.1-0.4-0.4-0.3-0.6c0.4-1,1.6-1.6,1.8-1.7c0.2-0.1,0.5,0,0.6,0.2
		c0.1,0.2,0,0.5-0.2,0.6l0,0C48.8,83,48,83.5,47.7,84C47.6,84.2,47.5,84.3,47.3,84.3z"/>
	<path class="st36" d="M20.4,88.3c-0.1,0-0.1,0-0.2,0c-0.2-0.1-0.4-0.4-0.2-0.6c0.4-1,1.6-1.6,1.8-1.7c0.2-0.1,0.5,0,0.6,0.2
		c0.1,0.2,0,0.5-0.2,0.6l0,0c-0.3,0.1-1.1,0.6-1.3,1.2C20.7,88.2,20.5,88.3,20.4,88.3z"/>
	<path class="st36" d="M23.6,87.3c-0.1,0-0.1,0-0.2,0c-0.2-0.1-0.4-0.4-0.2-0.6c0.4-1,1.6-1.6,1.8-1.7c0.2-0.1,0.5,0,0.6,0.2
		c0.1,0.2,0,0.5-0.2,0.6l0,0C25.1,86,24.3,86.5,24,87C24,87.2,23.8,87.3,23.6,87.3z"/>
	<path class="st36" d="M19.3,91.1c-0.1,0-0.1,0-0.2,0c-0.2-0.1-0.4-0.4-0.2-0.6c0.4-1,1.6-1.6,1.8-1.7c0.2-0.1,0.5,0,0.6,0.2
		c0.1,0.2,0,0.5-0.2,0.6l0,0c-0.3,0.1-1.1,0.6-1.3,1.2C19.6,91,19.5,91.1,19.3,91.1z"/>
</g>
</svg>
