<?xml version="1.0" encoding="utf-8"?>
<!-- Generator: Adobe Illustrator 24.0.1, SVG Export Plug-In . SVG Version: 6.00 Build 0)  -->
<svg version="1.1" id="レイヤー_1" xmlns="http://www.w3.org/2000/svg" xmlns:xlink="http://www.w3.org/1999/xlink" x="0px"
	 y="0px" viewBox="0 0 141.7 141.7" style="enable-background:new 0 0 141.7 141.7;" xml:space="preserve">
<style type="text/css">
	.st0{fill:#FFFFFF;}
	.st1{fill:#9FA0A0;}
	.st2{fill:#CDA774;}
	.st3{fill:#DDB887;}
	.st4{fill:#F3EBDF;}
	.st5{fill:#F8F0E4;}
	.st6{fill:#ECECEC;}
	.st7{fill:url(#SVGID_1_);}
	.st8{fill:url(#SVGID_2_);}
	.st9{fill:#E60012;}
	.st10{fill:#036EB8;}
	.st11{fill:#EA5514;}
	.st12{clip-path:url(#SVGID_4_);}
	.st13{fill:url(#SVGID_5_);}
	.st14{fill:url(#SVGID_6_);}
	.st15{fill:url(#SVGID_7_);}
	.st16{fill:url(#SVGID_8_);}
	.st17{fill:url(#SVGID_9_);}
	.st18{fill:url(#SVGID_10_);}
	.st19{fill:url(#SVGID_11_);}
	.st20{fill:url(#SVGID_12_);}
	.st21{fill:url(#SVGID_13_);}
	.st22{fill:url(#SVGID_14_);}
	.st23{fill:url(#SVGID_15_);}
	.st24{fill:url(#SVGID_16_);}
	.st25{fill:url(#SVGID_17_);}
	.st26{fill:url(#SVGID_18_);}
	.st27{fill:url(#SVGID_19_);}
	.st28{fill:url(#SVGID_20_);}
	.st29{fill:url(#SVGID_21_);}
	.st30{fill:url(#SVGID_22_);}
	.st31{fill:url(#SVGID_23_);}
	.st32{fill:url(#SVGID_24_);}
	.st33{fill:url(#SVGID_25_);}
	.st34{fill:url(#SVGID_26_);}
	.st35{fill:url(#SVGID_27_);}
	.st36{fill:url(#SVGID_28_);}
	.st37{fill:url(#SVGID_29_);}
	.st38{fill:url(#SVGID_30_);}
	.st39{fill:url(#SVGID_31_);}
	.st40{fill:url(#SVGID_32_);}
	.st41{fill:url(#SVGID_33_);}
	.st42{fill:url(#SVGID_34_);}
	.st43{fill:url(#SVGID_35_);}
	.st44{fill:url(#SVGID_36_);}
	.st45{fill:url(#SVGID_37_);}
	.st46{fill:url(#SVGID_38_);}
	.st47{fill:url(#SVGID_39_);}
	.st48{clip-path:url(#SVGID_41_);}
	.st49{fill:#B28247;}
	.st50{fill:#FFF100;}
	.st51{fill:#8FC31F;}
	.st52{fill:none;stroke:#B28247;stroke-width:0.5288;stroke-linecap:round;stroke-linejoin:round;stroke-miterlimit:10;}
	.st53{fill:#EAE5E3;}
	.st54{fill:#BEB1AA;}
	.st55{clip-path:url(#SVGID_43_);}
	.st56{fill:url(#SVGID_44_);}
	.st57{fill:url(#SVGID_45_);}
	.st58{fill:url(#SVGID_46_);}
	.st59{fill:url(#SVGID_47_);}
	.st60{fill:url(#SVGID_48_);}
	.st61{fill:url(#SVGID_49_);}
	.st62{fill:url(#SVGID_50_);}
	.st63{fill:url(#SVGID_51_);}
	.st64{fill:url(#SVGID_52_);}
	.st65{fill:url(#SVGID_53_);}
	.st66{fill:url(#SVGID_54_);}
	.st67{fill:url(#SVGID_55_);}
	.st68{fill:url(#SVGID_56_);}
	.st69{fill:url(#SVGID_57_);}
	.st70{fill:url(#SVGID_58_);}
	.st71{fill:url(#SVGID_59_);}
	.st72{fill:none;}
	.st73{fill:url(#SVGID_60_);}
	.st74{fill:#DCDDDD;}
	.st75{fill:#EACE76;}
	.st76{clip-path:url(#SVGID_62_);}
	.st77{fill:#C9A063;}
	.st78{fill:#00913A;}
	.st79{fill:#3E3A39;}
	.st80{fill:#C6BA9A;}
	.st81{fill:#D6CCB5;}
	.st82{fill:#B5B5B6;}
	.st83{fill:#F0EFEF;}
	.st84{fill:#595857;}
	.st85{fill:#727171;}
	.st86{fill:#CCAC69;}
	.st87{fill:#C9CACA;}
	.st88{fill:#8A8A8A;}
	.st89{opacity:0.75;}
	.st90{fill:#B81C25;}
	.st91{fill:#DE551A;}
	.st92{fill:#E99413;}
	.st93{fill:#F7F9F9;}
	.st94{fill:#F7F9F9;stroke:#727171;stroke-width:0.2229;stroke-miterlimit:10;}
	.st95{fill:#C39717;}
	.st96{fill:#CC172C;}
	.st97{fill:#E83514;}
	.st98{fill:url(#SVGID_63_);}
	.st99{fill:url(#SVGID_64_);}
	.st100{fill:url(#SVGID_65_);}
	.st101{fill:url(#SVGID_66_);}
	.st102{fill:url(#SVGID_67_);}
	.st103{fill:url(#SVGID_68_);}
	.st104{fill:#E6E6E6;}
	.st105{fill:#D1EAF6;}
	.st106{fill:#359DD1;}
	.st107{fill:#44AFDB;}
	.st108{fill:url(#SVGID_69_);}
	.st109{fill:none;stroke:#221714;stroke-width:0.1546;}
	.st110{fill:url(#SVGID_70_);}
	.st111{fill:url(#SVGID_71_);}
	.st112{fill:url(#SVGID_72_);}
	.st113{fill:url(#SVGID_73_);}
	.st114{fill:url(#SVGID_74_);}
	.st115{fill:url(#SVGID_75_);}
	.st116{fill:url(#SVGID_76_);}
	.st117{fill:url(#SVGID_77_);}
	.st118{fill:url(#SVGID_78_);}
	.st119{fill:url(#SVGID_79_);}
	.st120{fill:url(#SVGID_80_);}
	.st121{fill:url(#SVGID_81_);}
	.st122{fill:url(#SVGID_82_);}
	.st123{fill:url(#SVGID_83_);}
	.st124{fill:url(#SVGID_84_);}
	.st125{fill:url(#SVGID_85_);}
	.st126{fill:url(#SVGID_86_);}
	.st127{fill:url(#SVGID_87_);}
	.st128{fill:url(#SVGID_88_);}
	.st129{fill:url(#SVGID_89_);}
	.st130{fill:url(#SVGID_90_);}
	.st131{fill:url(#SVGID_91_);}
	.st132{fill:url(#SVGID_92_);}
	.st133{fill:url(#SVGID_93_);}
	.st134{fill:url(#SVGID_94_);}
	.st135{fill:url(#SVGID_95_);}
	.st136{fill:url(#SVGID_96_);}
	.st137{fill:url(#SVGID_97_);}
	.st138{fill:url(#SVGID_98_);}
	.st139{fill:url(#SVGID_99_);}
	.st140{fill:url(#SVGID_100_);}
	.st141{fill:url(#SVGID_101_);}
	.st142{fill:url(#SVGID_102_);}
	.st143{fill:url(#SVGID_103_);}
	.st144{fill:url(#SVGID_104_);}
	.st145{fill:url(#SVGID_105_);}
	.st146{fill:url(#SVGID_106_);}
	.st147{fill:url(#SVGID_107_);}
	.st148{fill:url(#SVGID_108_);}
	.st149{fill:url(#SVGID_109_);}
	.st150{fill:url(#SVGID_110_);}
	.st151{fill:url(#SVGID_111_);}
	.st152{fill:url(#SVGID_112_);}
	.st153{fill:url(#SVGID_113_);}
	.st154{fill:url(#SVGID_114_);}
	.st155{fill:url(#SVGID_115_);}
	.st156{fill:url(#SVGID_116_);}
	.st157{fill:url(#SVGID_117_);}
	.st158{fill:url(#SVGID_118_);}
	.st159{fill:url(#SVGID_119_);}
	.st160{stroke:#000000;stroke-width:2.4516;stroke-linecap:round;stroke-linejoin:round;stroke-miterlimit:10;}
	.st161{fill:url(#SVGID_120_);stroke:#000000;stroke-width:0.8172;stroke-linecap:round;stroke-linejoin:round;}
	.st162{fill:url(#SVGID_121_);stroke:#000000;stroke-width:0.8172;stroke-linecap:round;stroke-linejoin:round;}
	.st163{fill:url(#SVGID_122_);stroke:#000000;stroke-width:0.8172;stroke-linecap:round;stroke-linejoin:round;}
	.st164{opacity:0.4;fill:#FFFFFF;}
	.st165{fill:#FFFEEE;}
	.st166{fill:none;stroke:#F7EFB8;stroke-width:0.4086;}
	.st167{fill:none;stroke:#F7EFB8;stroke-width:0.2043;stroke-miterlimit:10;}
	.st168{fill-rule:evenodd;clip-rule:evenodd;fill:none;stroke:#000000;stroke-width:0.1961;stroke-miterlimit:10;}
	.st169{fill:none;stroke:#000000;stroke-width:0.8172;stroke-linecap:round;stroke-linejoin:round;}
	.st170{fill-rule:evenodd;clip-rule:evenodd;}
	.st171{fill-rule:evenodd;clip-rule:evenodd;fill:none;stroke:#000000;stroke-width:0.4086;stroke-miterlimit:10;}
	.st172{fill-rule:evenodd;clip-rule:evenodd;fill:url(#SVGID_123_);}
	.st173{opacity:0.9;fill:#E60012;}
	.st174{fill:#DCDBDA;}
	.st175{opacity:0.9;fill:#FFFFFF;}
	.st176{opacity:0.3;fill:#FFFFFF;}
	.st177{fill:#7E7977;}
	.st178{fill:#EEEAD0;}
	.st179{fill:#DDD9C2;}
	.st180{fill:#D3A243;}
	.st181{fill:none;stroke:#E5E3DA;stroke-width:0.4086;stroke-linecap:round;stroke-linejoin:round;}
	.st182{fill:#C11920;}
	.st183{fill:url(#SVGID_124_);}
	.st184{fill:url(#SVGID_125_);}
	.st185{fill:#5D8AA2;}
	.st186{fill:#267EAF;}
	.st187{fill:none;stroke:#D9B556;stroke-width:0.6958;stroke-miterlimit:10;}
	.st188{fill:#D9B556;}
	.st189{fill:#0E2F8F;}
	.st190{fill:url(#SVGID_126_);}
	.st191{fill:url(#SVGID_127_);}
	.st192{fill:url(#SVGID_128_);}
	.st193{fill:#755F43;}
	.st194{fill:#CD6829;}
	.st195{fill:#E08030;}
	.st196{fill:#F7F8F8;}
	.st197{fill:#E60012;stroke:#000000;stroke-width:0.1945;stroke-miterlimit:10;}
	.st198{fill:none;stroke:#000000;stroke-width:0.1945;stroke-miterlimit:10;}
	.st199{fill:#FFF100;stroke:#000000;stroke-width:0.1945;stroke-miterlimit:10;}
	.st200{fill:#FFFFFF;stroke:#000000;stroke-width:0.1264;stroke-miterlimit:10;}
	.st201{fill:none;stroke:#9FA0A0;stroke-width:0.1853;stroke-linecap:round;stroke-linejoin:round;stroke-miterlimit:10;}
	.st202{fill:#722F1C;}
	.st203{fill:#E9C07F;}
	.st204{fill:#F2D39D;}
	.st205{fill:#D0542E;}
	.st206{fill:#DC643A;}
	.st207{fill:#6A3906;}
	.st208{fill:#674425;}
	.st209{fill:none;stroke:#E60012;stroke-width:0.1398;stroke-miterlimit:10;}
	.st210{fill:none;stroke:#E60012;stroke-width:0.1398;stroke-miterlimit:10;stroke-dasharray:0.7067,0.7067;}
	.st211{fill:none;stroke:#000000;stroke-width:0.1398;stroke-miterlimit:10;}
	.st212{fill:none;stroke:#000000;stroke-miterlimit:10;}
	.st213{fill:#C9A063;stroke:#000000;stroke-width:1.3629;stroke-miterlimit:10;}
	.st214{fill:#008ABD;}
	.st215{fill:#5CB9D3;}
	.st216{fill:#BFC0C0;}
	.st217{fill:#FBF8EA;}
	.st218{fill:none;stroke:#000000;stroke-width:0.6064;}
	.st219{fill:#B5B5B6;stroke:#000000;stroke-width:1.1444;stroke-miterlimit:10;}
	.st220{fill:#EA5514;stroke:#000000;stroke-width:1.1444;stroke-miterlimit:10;}
	.st221{fill:#C9A063;stroke:#000000;stroke-width:1.1444;stroke-miterlimit:10;}
	.st222{fill:none;stroke:#000000;stroke-width:1.1444;stroke-miterlimit:10;}
	.st223{fill:#DDB735;stroke:#000000;stroke-width:1.1444;stroke-miterlimit:10;}
	.st224{fill:none;stroke:#FFFFFF;stroke-width:2.546;stroke-miterlimit:10;}
	.st225{fill:#40220F;stroke:#000000;stroke-width:1.1444;stroke-miterlimit:10;}
</style>
<g>
	<polyline class="st0" points="81.3,122.9 39.1,113.4 60.5,18.8 102.6,28.3 81.3,122.9 	"/>
	<path class="st1" d="M81.3,122.9l0.1-0.3l-41.8-9.4l21.2-93.9l41.4,9.3l-21.2,94.2L81.3,122.9l0.1-0.3L81.3,122.9l0.3,0.1
		l21.3-94.6c0-0.1,0-0.2,0-0.3c-0.1-0.1-0.1-0.1-0.2-0.2l-42.1-9.5c-0.2,0-0.4,0.1-0.4,0.3l-21.3,94.6c0,0.2,0.1,0.4,0.3,0.4
		l42.1,9.5c0.1,0,0.2,0,0.3,0c0.1-0.1,0.1-0.1,0.2-0.2L81.3,122.9z"/>
	<polyline class="st2" points="79.1,122.5 41.2,113.9 62.6,19.3 100.5,27.8 79.1,122.5 	"/>
	<path class="st1" d="M79.1,122.5l0.1-0.3l-37.6-8.5l21.2-94l37.3,8.4l-21.3,94.3L79.1,122.5l0.1-0.3L79.1,122.5l0.3,0.1l21.3-94.6
		c0-0.1,0-0.2,0-0.3c0-0.1-0.1-0.1-0.2-0.2l-37.9-8.6c-0.2,0-0.4,0.1-0.4,0.3l-21.3,94.6c0,0.2,0.1,0.4,0.3,0.4l37.9,8.6
		c0.1,0,0.2,0,0.3,0c0.1,0,0.1-0.1,0.2-0.2L79.1,122.5z"/>
	<path class="st3" d="M72.3,120.4c-1,0.6-2.7-0.1-3.7-0.3c-0.1,0,3.5-15.4,3.9-16.6c1.5-4.5,2-8.8,3.1-13.6c1.2-5.3,2.8-11.4,4-16.8
		c0.9-4.1,1-6.8,2-10.8C83,56,85,50,85.8,43.6c0.2-1.5,3.5-18.3,4.2-18.1c0.4,0.1,3.9,0.9,4,0.9c0.2,0.1-1.8,7.4-1.9,8
		c-2.1,9.4-4.2,18.7-6.3,28c-1.1,4.7-2,9.4-3,14.1c-0.9,3.9-1.4,7.9-2.2,11.7c-0.7,3.3-1.4,6.6-2.6,9.7c-0.5,1.2-0.6,2.4-0.8,3.6
		c-0.5,4.2-2.3,7.8-3,12c-0.2,1.2-0.5,2.4-0.8,3.6c-0.2,0.7,0,2.1-0.4,2.7C72.7,120.1,72.5,120.3,72.3,120.4z"/>
	<path class="st1" d="M72.3,120.4l-0.2-0.3c-0.2,0.1-0.5,0.2-0.8,0.2c-0.4,0-0.9-0.1-1.3-0.2c-0.5-0.1-0.9-0.3-1.3-0.4l-0.1,0.4
		l0.1-0.3l-0.1,0.3l0.3-0.3c0,0-0.1-0.1-0.1-0.1l-0.1,0.3l0.3-0.3l-0.3,0.3l0.3-0.1c0,0,0-0.1-0.1-0.1l-0.3,0.3l0.3-0.1l-0.3,0.1
		l0.4,0c0,0,0,0,0-0.1l-0.3,0.1l0.4,0l-0.3,0H69c0,0,0,0,0,0l-0.3,0H69h-0.3l0.3,0l0,0h-0.3l0.3,0l-0.1,0l0.1,0v0l-0.1,0l0.1,0
		c0,0,0,0,0-0.1c0-0.2,0.1-0.6,0.2-1.1c0.4-1.8,1.2-5.4,2-8.7c0.4-1.6,0.8-3.2,1.1-4.4c0.1-0.6,0.3-1.1,0.4-1.5
		c0.1-0.2,0.1-0.4,0.1-0.5c0-0.1,0.1-0.2,0.1-0.3l0,0c1.5-4.6,2-8.9,3.1-13.6l0,0c1.2-5.3,2.8-11.4,4-16.8c0.5-2.1,0.7-3.8,1-5.5
		c0.3-1.7,0.5-3.4,1-5.4c1.4-6.2,3.4-12.3,4.2-18.7c0-0.2,0.1-0.6,0.2-1.2c0.4-2.1,1.2-6.3,2-10c0.4-1.9,0.8-3.6,1.2-4.8
		c0.2-0.6,0.3-1.1,0.4-1.5c0.1-0.2,0.1-0.3,0.2-0.4l0,0l0,0h0L90,25.6l0.1,0.1c0,0,0,0,0,0L90,25.6l0.1,0.1L90,25.5v0.3
		c0.1,0,0.1,0,0.2,0L90,25.5v0.3v-0.3l-0.1,0.3c0,0,0.1,0,0.1,0v-0.3l-0.1,0.3l0,0c0.1,0,0.2,0,0.3,0.1c0.5,0.1,1.4,0.3,2.2,0.5
		c0.4,0.1,0.8,0.2,1.1,0.2c0.1,0,0.2,0.1,0.3,0.1c0,0,0.1,0,0.1,0l0,0l0,0l0-0.2l0,0.2l0,0l0-0.2l0,0.2l0.1-0.3l-0.1,0.3l0,0
		l0.1-0.3l-0.1,0.3l0.1-0.3l-0.1,0.3c0,0,0,0,0,0l0.1-0.3l-0.1,0.3l0,0l0.1-0.3l-0.2,0.3c0,0,0.1,0.1,0.1,0.1l0.1-0.3l-0.2,0.3
		l0.2-0.3l-0.3,0.1c0,0,0,0.1,0.1,0.1l0.2-0.3l-0.3,0.1l0.3-0.1l-0.3,0c0,0,0,0,0,0.1l0.3-0.1l-0.3,0l0.1,0h-0.2l0,0l0.1,0h-0.2
		c0,0,0,0.1,0,0.1c0,0.1-0.1,0.4-0.1,0.7c-0.2,1-0.6,2.7-1,4.1c-0.2,0.7-0.4,1.4-0.5,1.9c-0.1,0.3-0.1,0.5-0.2,0.7
		c0,0.2-0.1,0.3-0.1,0.4c-2.1,9.4-4.2,18.7-6.3,28c-1.1,4.7-2,9.4-3,14.1c-0.9,3.9-1.4,7.9-2.2,11.7c-0.7,3.3-1.4,6.6-2.6,9.7
		c-0.5,1.2-0.6,2.5-0.8,3.7c-0.3,2.1-0.8,4-1.4,5.9c-0.6,1.9-1.2,3.9-1.6,6l0,0c-0.2,1.2-0.5,2.3-0.8,3.5l0,0c0,0.2-0.1,0.4-0.1,0.7
		c0,0.4,0,0.8-0.1,1.1c0,0.3-0.1,0.6-0.2,0.8l0,0c-0.1,0.2-0.2,0.3-0.4,0.4l0,0L72.3,120.4l0.2,0.3c0.3-0.2,0.5-0.4,0.7-0.7
		l-0.3-0.2l0.3,0.2c0.1-0.2,0.2-0.4,0.2-0.7c0.1-0.4,0.1-0.8,0.1-1.1c0-0.4,0-0.7,0.1-1l0,0c0.3-1.2,0.6-2.4,0.8-3.6l0,0
		c0.4-2,1-4,1.6-5.9c0.6-2,1.2-3.9,1.4-6.1c0.2-1.2,0.3-2.4,0.8-3.5c1.2-3.2,1.9-6.5,2.6-9.8c0.9-3.9,1.4-7.9,2.2-11.7
		c1.1-4.7,2-9.4,3-14.1c2.1-9.3,4.2-18.7,6.3-28c0-0.1,0.1-0.2,0.1-0.5c0.2-0.8,0.7-2.6,1.1-4.2c0.2-0.8,0.4-1.6,0.5-2.2
		c0.1-0.3,0.1-0.6,0.2-0.8c0-0.1,0-0.2,0-0.3c0-0.1,0-0.1,0-0.2c0,0,0-0.1,0-0.1c0,0,0-0.1,0-0.1c0,0,0-0.1-0.1-0.1
		c0,0-0.1-0.1-0.1-0.1L94,26.4l0.1-0.3c0,0,0,0,0,0c0,0,0,0,0,0c0,0,0,0-0.1,0c-0.3-0.1-1.1-0.3-2-0.5c-0.4-0.1-0.9-0.2-1.2-0.3
		c-0.2,0-0.3-0.1-0.4-0.1c-0.1,0-0.2,0-0.2-0.1L90,25.5l0.1-0.3c0,0-0.1,0-0.1,0c-0.1,0-0.2,0-0.2,0.1c-0.1,0-0.1,0.1-0.1,0.1
		c-0.1,0.1-0.1,0.1-0.1,0.2c-0.1,0.1-0.1,0.3-0.2,0.5c-0.1,0.4-0.3,1-0.5,1.6c-0.6,2.3-1.4,6-2.1,9.3c-0.3,1.6-0.6,3.1-0.9,4.3
		c-0.1,0.6-0.2,1.1-0.3,1.5c-0.1,0.4-0.1,0.7-0.1,0.8c-0.8,6.3-2.8,12.4-4.2,18.6c-0.5,2.1-0.7,3.8-1,5.4c-0.3,1.7-0.5,3.4-1,5.4
		c-1.2,5.4-2.8,11.4-4,16.8v0c-1.1,4.8-1.6,9-3.1,13.5l0,0c0,0.1-0.1,0.2-0.1,0.4c-0.2,0.7-0.5,2-0.9,3.6c-0.6,2.4-1.3,5.5-1.9,8
		c-0.3,1.3-0.5,2.4-0.7,3.2c-0.1,0.4-0.2,0.7-0.2,1c0,0.1,0,0.2-0.1,0.3c0,0,0,0.1,0,0.1l0,0c0,0,0,0,0,0.1c0,0,0,0,0,0.1
		c0,0,0,0.1,0,0.1c0,0,0,0.1,0.1,0.1c0,0,0.1,0.1,0.1,0.1l0,0c0.3,0.1,0.8,0.2,1.3,0.3c0.5,0.1,1,0.2,1.5,0.2c0.4,0,0.8-0.1,1.2-0.3
		l0,0L72.3,120.4z"/>
	<path class="st3" d="M76.9,121.4c-1,0.6-2.7-0.1-3.7-0.3c-0.1,0,3.5-15.4,3.9-16.6c1.5-4.5,2-8.8,3.1-13.6c1.2-5.3,2.8-11.4,4-16.8
		c0.9-4.1,1-6.8,2-10.8c1.4-6.2,3.4-12.3,4.2-18.7c0.2-1.5,3.5-18.3,4.2-18.1c0.4,0.1,3.9,0.9,4,0.9c0.2,0.1-1.8,7.4-1.9,8
		c-2.1,9.4-4.2,18.7-6.3,28c-1.1,4.7-2,9.4-3,14.1c-0.9,3.9-1.4,7.9-2.2,11.7c-0.7,3.3-1.4,6.6-2.6,9.7c-0.5,1.2-0.6,2.4-0.8,3.6
		c-0.5,4.2-2.3,7.8-3,12c-0.2,1.2-0.5,2.4-0.8,3.6c-0.2,0.7,0,2.1-0.4,2.7C77.3,121.1,77.1,121.3,76.9,121.4z"/>
	<path class="st1" d="M76.9,121.4l-0.2-0.3c-0.2,0.1-0.5,0.2-0.8,0.2c-0.4,0-0.9-0.1-1.3-0.2c-0.5-0.1-0.9-0.3-1.3-0.4l-0.1,0.4
		l0.1-0.3l-0.1,0.3l0.2-0.3c0,0-0.1-0.1-0.1-0.1l-0.1,0.3l0.2-0.3l-0.2,0.3l0.3-0.1c0,0,0-0.1-0.1-0.1l-0.2,0.3l0.3-0.1l-0.3,0.1
		l0.4,0c0,0,0,0,0-0.1l-0.3,0.1l0.4,0l-0.3,0h0.3c0,0,0,0,0,0l-0.3,0h0.3h-0.3l0.3,0l0,0h-0.3l0.3,0l-0.1,0l0.1,0v0l-0.1,0l0.1,0
		c0,0,0,0,0-0.1c0-0.2,0.1-0.6,0.2-1.1c0.4-1.8,1.2-5.4,2-8.7c0.4-1.6,0.8-3.2,1.1-4.4c0.1-0.6,0.3-1.1,0.4-1.5
		c0.1-0.2,0.1-0.4,0.1-0.5c0-0.1,0.1-0.2,0.1-0.3l0,0c1.5-4.6,2-8.9,3.1-13.6c1.2-5.3,2.8-11.4,4-16.8c0.5-2.1,0.7-3.8,1-5.5
		c0.3-1.7,0.5-3.4,1-5.4c1.4-6.2,3.4-12.3,4.2-18.7c0-0.2,0.1-0.6,0.2-1.2c0.4-2.1,1.2-6.3,2-10c0.4-1.9,0.8-3.6,1.1-4.8
		c0.2-0.6,0.3-1.1,0.4-1.5c0.1-0.2,0.1-0.3,0.2-0.4l0,0l0,0v0l-0.1-0.1l0.1,0.1c0,0,0,0,0,0l-0.1-0.1l0.1,0.1l-0.2-0.2v0.3
		c0.1,0,0.1,0,0.2,0l-0.2-0.2v0.3v-0.3l-0.1,0.3c0,0,0.1,0,0.1,0v-0.3l-0.1,0.3l0,0c0.1,0,0.2,0,0.3,0.1c0.5,0.1,1.4,0.3,2.2,0.5
		c0.4,0.1,0.8,0.2,1,0.2c0.1,0,0.2,0.1,0.3,0.1c0,0,0.1,0,0.1,0l0,0l0,0l0-0.2l0,0.2l0,0l0-0.2l0,0.2l0.1-0.3l-0.1,0.3l0,0l0.1-0.3
		l-0.1,0.3l0.1-0.3l-0.1,0.3l0.1-0.3l-0.2,0.3c0,0,0.1,0.1,0.1,0.1l0.1-0.3l-0.2,0.3l0.2-0.3l-0.3,0.1c0,0,0,0.1,0.1,0.1l0.2-0.3
		l-0.3,0.1l0.3-0.1l-0.3,0c0,0,0,0,0,0.1l0.3-0.1l-0.3,0l0.1,0h-0.1l0,0l0.1,0h-0.1c0,0,0,0.1,0,0.1c0,0.3-0.2,0.9-0.4,1.7
		c-0.3,1.1-0.6,2.5-1,3.7c-0.2,0.6-0.3,1.1-0.4,1.5c-0.1,0.2-0.1,0.4-0.1,0.5c0,0.1-0.1,0.2-0.1,0.3v0c-2.1,9.4-4.2,18.7-6.3,28
		c-1.1,4.7-2,9.4-3,14.1c-0.9,3.9-1.4,7.9-2.2,11.7c-0.7,3.3-1.4,6.6-2.6,9.7l0,0c-0.5,1.2-0.6,2.5-0.8,3.7c-0.3,2.1-0.8,4-1.4,5.9
		c-0.6,1.9-1.2,3.9-1.6,6c-0.2,1.2-0.5,2.3-0.8,3.5l0,0c0,0.2-0.1,0.4-0.1,0.7c0,0.4,0,0.8-0.1,1.1c0,0.3-0.1,0.6-0.2,0.8
		c-0.1,0.2-0.2,0.3-0.4,0.4l0,0L76.9,121.4l0.2,0.3c0.3-0.2,0.5-0.4,0.7-0.7c0.1-0.2,0.2-0.4,0.2-0.7c0.1-0.4,0.1-0.8,0.1-1.1
		c0-0.4,0-0.7,0.1-1v0c0.3-1.2,0.6-2.4,0.8-3.6c0.4-2,1-4,1.6-5.9c0.6-2,1.2-3.9,1.4-6.1c0.2-1.2,0.3-2.4,0.8-3.5l0,0
		c1.2-3.2,1.9-6.5,2.6-9.8c0.9-3.9,1.4-7.9,2.2-11.7c1.1-4.7,2-9.4,3-14.1c2.1-9.3,4.2-18.7,6.3-28v0c0-0.1,0.1-0.2,0.1-0.5
		c0.2-0.8,0.7-2.6,1.1-4.2c0.2-0.8,0.4-1.6,0.5-2.2c0.1-0.3,0.1-0.6,0.2-0.8c0-0.1,0-0.2,0-0.3c0-0.1,0-0.1,0-0.2c0,0,0-0.1,0-0.1
		c0,0,0-0.1,0-0.1c0,0,0-0.1-0.1-0.1c0,0-0.1-0.1-0.1-0.1l0,0l0,0c0,0,0,0-0.1,0c-0.2-0.1-1.1-0.3-2-0.5c-0.4-0.1-0.9-0.2-1.2-0.3
		c-0.2,0-0.3-0.1-0.4-0.1c-0.1,0-0.2-0.1-0.2-0.1l-0.1,0.4l0.1-0.3c0,0-0.1,0-0.1,0c-0.1,0-0.2,0-0.2,0.1c-0.1,0-0.1,0.1-0.1,0.1
		c-0.1,0.1-0.1,0.1-0.1,0.2c-0.1,0.1-0.1,0.3-0.2,0.5c-0.1,0.4-0.3,1-0.5,1.6c-0.6,2.3-1.4,6-2.1,9.3c-0.3,1.6-0.6,3.1-0.9,4.3
		c-0.1,0.6-0.2,1.1-0.3,1.5c-0.1,0.4-0.1,0.7-0.1,0.8c-0.8,6.3-2.8,12.4-4.2,18.6c-0.5,2.1-0.7,3.8-1,5.4c-0.3,1.7-0.5,3.4-1,5.4
		c-1.2,5.4-2.8,11.4-4,16.8c-1.1,4.8-1.6,9-3.1,13.5l0,0c0,0.1-0.1,0.2-0.1,0.4c-0.2,0.7-0.5,2-0.9,3.6c-0.6,2.4-1.3,5.5-1.9,8
		c-0.3,1.3-0.5,2.4-0.7,3.2c-0.1,0.4-0.2,0.7-0.2,1c0,0.1,0,0.2-0.1,0.3c0,0,0,0.1,0,0.1l0,0c0,0,0,0,0,0.1c0,0,0,0,0,0.1
		c0,0,0,0.1,0,0.1c0,0,0,0.1,0.1,0.1c0,0,0.1,0.1,0.1,0.1l0,0c0.3,0.1,0.8,0.2,1.3,0.4c0.5,0.1,1,0.2,1.5,0.2c0.4,0,0.8-0.1,1.2-0.3
		L76.9,121.4l0.2,0.3L76.9,121.4z"/>
	<path class="st3" d="M67.7,119.3c-1,0.6-2.7-0.1-3.7-0.3c-0.1,0,3.5-15.4,3.9-16.6c1.5-4.5,2-8.8,3.1-13.5c1.2-5.3,2.8-11.4,4-16.8
		c0.9-4.1,1-6.8,2-10.8c1.4-6.2,3.4-12.3,4.2-18.7c0.2-1.5,3.5-18.3,4.2-18.1c0.4,0.1,3.9,0.9,4,0.9c0.2,0.1-1.8,7.4-1.9,8
		c-2.1,9.4-4.2,18.7-6.3,28c-1.1,4.7-2,9.4-3,14.1c-0.9,3.9-1.4,7.9-2.3,11.7c-0.7,3.3-1.4,6.6-2.6,9.7c-0.5,1.2-0.6,2.4-0.8,3.6
		c-0.5,4.2-2.3,7.8-3,12c-0.2,1.2-0.5,2.4-0.8,3.6c-0.2,0.7,0,2.1-0.4,2.7C68.1,119,67.9,119.2,67.7,119.3z"/>
	<path class="st1" d="M67.7,119.3l-0.2-0.3c-0.2,0.1-0.5,0.2-0.8,0.2c-0.4,0-0.9-0.1-1.3-0.2c-0.5-0.1-0.9-0.3-1.3-0.4l0,0L64,119
		l0.2-0.3c0,0-0.1-0.1-0.2-0.1L64,119l0.2-0.3L64,119l0.3-0.1c0,0,0-0.1-0.1-0.1L64,119l0.3-0.1L64,119l0.4,0c0,0,0,0,0-0.1L64,119
		l0.4,0l-0.3,0h0.3c0,0,0,0,0,0l-0.3,0h0.3h-0.3l0.3,0l0,0h-0.3l0.3,0l-0.1,0l0.1,0l0,0l-0.1,0l0.1,0c0,0,0,0,0-0.1
		c0-0.2,0.1-0.6,0.2-1.1c0.4-1.8,1.2-5.4,2-8.7c0.4-1.6,0.8-3.2,1.1-4.4c0.1-0.6,0.3-1.1,0.4-1.5c0.1-0.2,0.1-0.4,0.1-0.5
		c0-0.1,0.1-0.2,0.1-0.3c1.5-4.6,2-8.9,3.1-13.6c1.2-5.3,2.8-11.4,4-16.8c0.5-2.1,0.7-3.8,1-5.5c0.3-1.7,0.5-3.4,1-5.4
		c1.4-6.2,3.4-12.3,4.2-18.7c0-0.2,0.1-0.6,0.2-1.2c0.4-2.1,1.2-6.3,2-10c0.4-1.9,0.8-3.6,1.1-4.8c0.2-0.6,0.3-1.1,0.4-1.5
		c0.1-0.2,0.1-0.3,0.2-0.4l0,0l0,0h0l-0.1-0.1l0.1,0.1c0,0,0,0,0,0l-0.1-0.1l0.1,0.1l-0.2-0.2v0.3c0.1,0,0.1,0,0.2,0l-0.2-0.2v0.3
		v-0.3l-0.1,0.3c0,0,0.1,0,0.1,0v-0.3l-0.1,0.3l0,0c0.1,0,0.2,0,0.3,0.1c0.5,0.1,1.4,0.3,2.2,0.5c0.4,0.1,0.8,0.2,1,0.2
		c0.1,0,0.2,0.1,0.3,0.1c0,0,0.1,0,0.1,0l0,0l0,0l0.1-0.2l-0.1,0.2l0,0l0.1-0.2l-0.1,0.2l0.1-0.3l-0.1,0.3l0,0l0.1-0.3l-0.1,0.3
		l0.1-0.3l-0.1,0.3l0,0l0.1-0.3l-0.1,0.3l0.1-0.3l-0.2,0.3c0,0,0,0,0,0l0.1-0.3l-0.2,0.3l0,0l0.1-0.3l-0.2,0.3c0,0,0.1,0.1,0.1,0.1
		l0.1-0.3l-0.2,0.3l0.2-0.3L89,25.5c0,0,0,0.1,0.1,0.1l0.2-0.3L89,25.5l0.3-0.1l-0.3,0c0,0,0,0,0,0.1l0.3-0.1l-0.3,0l0.1,0H89l0,0
		l0.1,0H89c0,0,0,0.1,0,0.1c0,0.3-0.2,0.9-0.4,1.7c-0.3,1.1-0.6,2.5-1,3.7c-0.2,0.6-0.3,1.1-0.4,1.5c-0.1,0.2-0.1,0.4-0.1,0.5
		c0,0.1-0.1,0.2-0.1,0.3c-2.1,9.4-4.2,18.7-6.3,28c-1.1,4.7-2,9.4-3,14.1c-0.9,3.9-1.4,7.9-2.3,11.7c-0.7,3.3-1.4,6.6-2.6,9.7
		c-0.5,1.2-0.6,2.5-0.8,3.7l0,0c-0.3,2.1-0.8,4-1.4,5.9c-0.6,1.9-1.2,3.9-1.6,6c-0.2,1.2-0.5,2.3-0.8,3.5c0,0.2-0.1,0.4-0.1,0.7
		c0,0.4,0,0.8-0.1,1.1c0,0.3-0.1,0.6-0.2,0.8l0,0c-0.1,0.2-0.2,0.3-0.4,0.4l0,0L67.7,119.3l0.2,0.3c0.3-0.2,0.5-0.4,0.7-0.7l0,0
		c0.1-0.2,0.2-0.4,0.2-0.7c0.1-0.4,0.1-0.8,0.1-1.1c0-0.4,0-0.7,0.1-1c0.3-1.2,0.6-2.3,0.8-3.6c0.4-2,1-4,1.6-5.9
		c0.6-2,1.2-3.9,1.4-6.1l0,0c0.2-1.2,0.3-2.4,0.8-3.5c1.2-3.2,1.9-6.5,2.6-9.8c0.9-3.9,1.4-7.9,2.3-11.7c1.1-4.7,2-9.4,3-14.1
		c2.1-9.3,4.2-18.7,6.3-28c0-0.1,0.1-0.2,0.1-0.5c0.2-0.8,0.7-2.6,1.1-4.2c0.2-0.8,0.4-1.6,0.5-2.2c0.1-0.3,0.1-0.6,0.2-0.8
		c0-0.1,0-0.2,0-0.3c0-0.1,0-0.1,0-0.2c0,0,0-0.1,0-0.1c0,0,0-0.1,0-0.1c0,0,0-0.1-0.1-0.1c0,0-0.1-0.1-0.1-0.1l-0.1,0.3l0.2-0.3
		c0,0,0,0,0,0l0,0l0,0c-0.1,0-0.3-0.1-0.7-0.2c-0.5-0.1-1.3-0.3-1.9-0.4c-0.3-0.1-0.6-0.1-0.9-0.2c-0.2-0.1-0.4-0.1-0.5-0.1
		l-0.1,0.4l0.1-0.3c0,0-0.1,0-0.1,0c-0.1,0-0.2,0-0.2,0.1c-0.1,0-0.1,0.1-0.1,0.1c-0.1,0.1-0.1,0.1-0.1,0.2
		c-0.1,0.1-0.1,0.3-0.2,0.5c-0.1,0.4-0.3,1-0.5,1.6c-0.6,2.3-1.4,6-2.1,9.3c-0.3,1.6-0.6,3.1-0.9,4.3c-0.1,0.6-0.2,1.1-0.3,1.5
		c-0.1,0.4-0.1,0.7-0.1,0.8c-0.8,6.3-2.8,12.4-4.2,18.6c-0.5,2.1-0.7,3.8-1,5.4c-0.3,1.7-0.5,3.4-1,5.4c-1.2,5.4-2.8,11.4-4,16.8
		c-1.1,4.8-1.6,9-3.1,13.5c0,0.1-0.1,0.2-0.1,0.4c-0.2,0.7-0.5,2-0.9,3.6c-0.6,2.4-1.3,5.5-1.9,8c-0.3,1.3-0.5,2.4-0.7,3.2
		c-0.1,0.4-0.2,0.7-0.2,1c0,0.1,0,0.2-0.1,0.3c0,0,0,0.1,0,0.1l0,0c0,0,0,0,0,0.1c0,0,0,0,0,0.1c0,0,0,0.1,0,0.1c0,0,0,0.1,0.1,0.1
		c0,0,0.1,0.1,0.2,0.1l0,0c0.3,0.1,0.8,0.2,1.3,0.4c0.5,0.1,1,0.2,1.5,0.2c0.4,0,0.8-0.1,1.2-0.3l0,0L67.7,119.3z"/>
	<path class="st3" d="M62.7,118.2c-1,0.6-2.7-0.1-3.7-0.4c-0.1,0,3.5-15.4,3.9-16.6c1.5-4.5,2-8.8,3.1-13.6c1.2-5.3,2.8-11.4,4-16.8
		c0.9-4.1,1-6.8,2-10.9c1.4-6.2,3.4-12.3,4.2-18.7c0.2-1.5,3.5-18.3,4.2-18.1c0.4,0.1,3.9,0.9,4,0.9c0.2,0.1-1.8,7.4-2,8
		c-2.1,9.3-4.2,18.7-6.3,28c-1.1,4.7-2,9.4-3,14.1c-0.9,3.9-1.4,7.9-2.3,11.7c-0.7,3.3-1.4,6.6-2.6,9.7c-0.5,1.2-0.6,2.4-0.8,3.6
		c-0.5,4.2-2.3,7.8-3,12c-0.2,1.2-0.5,2.4-0.8,3.6c-0.2,0.7,0,2.1-0.4,2.7C63.1,117.9,63,118.1,62.7,118.2z"/>
	<path class="st1" d="M62.7,118.2l-0.2-0.3c-0.2,0.1-0.5,0.2-0.8,0.2c-0.4,0-0.9-0.1-1.3-0.2c-0.5-0.1-0.9-0.3-1.3-0.4l-0.1,0.4
		l0.1-0.3l-0.1,0.3l0.2-0.3c0,0-0.1-0.1-0.1-0.1l-0.1,0.3l0.2-0.3l-0.2,0.3l0.3-0.1c0,0,0-0.1-0.1-0.1l-0.2,0.3l0.3-0.1l-0.3,0.1
		l0.4,0c0,0,0,0,0-0.1l-0.3,0.1l0.4,0l-0.3,0h0.3c0,0,0,0,0,0l-0.3,0h0.3h-0.3l0.3,0l0,0h-0.3l0.3,0l-0.1,0l0.1,0v0l-0.1,0l0.1,0
		c0,0,0,0,0-0.1c0-0.2,0.1-0.6,0.2-1.1c0.4-1.8,1.2-5.4,2-8.7c0.4-1.6,0.8-3.2,1.1-4.4c0.1-0.6,0.3-1.1,0.4-1.5
		c0.1-0.2,0.1-0.4,0.1-0.5c0-0.1,0.1-0.2,0.1-0.3c1.5-4.6,2-8.9,3.1-13.6c1.2-5.3,2.8-11.4,4-16.8c0.5-2.1,0.7-3.8,1-5.5
		c0.3-1.7,0.5-3.4,1-5.4c1.4-6.2,3.4-12.3,4.2-18.7c0-0.2,0.1-0.6,0.2-1.2c0.4-2.1,1.2-6.3,2-10c0.4-1.9,0.8-3.6,1.1-4.8
		c0.2-0.6,0.3-1.1,0.4-1.5c0.1-0.2,0.1-0.3,0.2-0.4l0,0l0,0l0,0l-0.1-0.1l0.1,0.1c0,0,0,0,0,0l-0.1-0.1l0.1,0.1l-0.2-0.2v0.3
		c0.1,0,0.1,0,0.2,0l-0.2-0.2v0.3v-0.3l-0.1,0.3c0,0,0.1,0,0.1,0v-0.3l-0.1,0.3l0,0c0.1,0,0.2,0,0.3,0.1c0.5,0.1,1.4,0.3,2.2,0.5
		c0.4,0.1,0.8,0.2,1.1,0.2c0.1,0,0.2,0.1,0.3,0.1c0,0,0.1,0,0.1,0l0,0l0,0l0-0.1l0,0.1l0,0l0-0.1l0,0.1l0.1-0.3l-0.1,0.3l0,0
		l0.1-0.3l-0.1,0.3l0.1-0.3l-0.1,0.3c0,0,0,0,0,0l0.1-0.3l-0.1,0.3l0,0l0.1-0.3l-0.2,0.3c0,0,0.1,0.1,0.1,0.1l0.1-0.3l-0.2,0.3
		l0.2-0.3l-0.3,0.1c0,0,0,0.1,0.1,0.1l0.2-0.3l-0.3,0.1l0.3-0.1l-0.3,0c0,0,0,0,0,0.1l0.3-0.1l-0.3,0l0.1,0H84l0,0l0.1,0H84
		c0,0,0,0.1,0,0.1c0,0.1-0.1,0.4-0.1,0.7c-0.2,1-0.6,2.7-1,4.1c-0.2,0.7-0.4,1.4-0.5,1.9c-0.1,0.3-0.1,0.5-0.2,0.7
		c0,0.2-0.1,0.3-0.1,0.4l0,0c-2.1,9.3-4.2,18.7-6.3,28c-1.1,4.7-2,9.4-3,14.1c-0.9,3.9-1.4,7.9-2.3,11.7c-0.7,3.3-1.4,6.6-2.6,9.7
		l0,0c-0.5,1.2-0.6,2.5-0.8,3.7c-0.3,2.1-0.8,4-1.4,5.9c-0.6,1.9-1.2,3.9-1.6,6v0c-0.2,1.2-0.5,2.3-0.8,3.5l0,0
		c0,0.2-0.1,0.4-0.1,0.7c0,0.4,0,0.8-0.1,1.1c0,0.3-0.1,0.6-0.2,0.8l0,0c-0.1,0.2-0.2,0.3-0.4,0.4l0,0L62.7,118.2l0.2,0.3
		c0.3-0.2,0.5-0.4,0.6-0.7l0,0c0.1-0.2,0.2-0.4,0.2-0.7c0.1-0.4,0.1-0.8,0.1-1.2c0-0.4,0-0.7,0.1-0.9l0,0c0.3-1.2,0.6-2.4,0.8-3.6v0
		c0.4-2,1-4,1.6-5.9c0.6-2,1.2-3.9,1.4-6.1c0.2-1.2,0.3-2.4,0.8-3.5l0,0c1.2-3.2,1.9-6.5,2.6-9.8c0.9-3.9,1.4-7.9,2.3-11.7
		c1.1-4.7,2-9.4,3-14.1c2.1-9.3,4.2-18.7,6.3-28l0,0c0-0.1,0.1-0.2,0.1-0.5c0.2-0.8,0.7-2.6,1.1-4.2c0.2-0.8,0.4-1.6,0.5-2.2
		c0.1-0.3,0.1-0.6,0.2-0.8c0-0.1,0-0.2,0-0.3c0-0.1,0-0.1,0-0.2c0,0,0-0.1,0-0.1c0,0,0-0.1,0-0.1c0,0,0-0.1-0.1-0.1
		c0,0-0.1-0.1-0.1-0.1l-0.1,0.3l0.1-0.3l0,0l0,0c0,0,0,0-0.1,0c-0.3-0.1-1.1-0.3-2-0.5c-0.4-0.1-0.9-0.2-1.2-0.3
		c-0.2,0-0.3-0.1-0.4-0.1c-0.1,0-0.2,0-0.2-0.1l-0.1,0.4l0.1-0.3c0,0-0.1,0-0.1,0c-0.1,0-0.2,0-0.2,0.1c-0.1,0-0.1,0.1-0.1,0.1
		c-0.1,0.1-0.1,0.1-0.1,0.2c-0.1,0.1-0.1,0.3-0.2,0.5c-0.1,0.4-0.3,1-0.5,1.6c-0.6,2.3-1.4,6-2.1,9.3c-0.3,1.6-0.6,3.1-0.9,4.3
		c-0.1,0.6-0.2,1.1-0.3,1.5c-0.1,0.4-0.1,0.7-0.1,0.8c-0.8,6.3-2.8,12.4-4.2,18.6c-0.5,2.1-0.7,3.8-1,5.4c-0.3,1.7-0.5,3.4-1,5.4
		c-1.2,5.3-2.8,11.4-4,16.8c-1.1,4.8-1.6,9-3.1,13.5c0,0.1-0.1,0.2-0.1,0.4c-0.2,0.7-0.5,2-0.9,3.6c-0.6,2.4-1.3,5.5-1.9,8
		c-0.3,1.3-0.5,2.4-0.7,3.2c-0.1,0.4-0.2,0.7-0.2,1c0,0.1,0,0.2-0.1,0.3c0,0,0,0.1,0,0.1l0,0c0,0,0,0,0,0.1c0,0,0,0,0,0.1
		c0,0,0,0.1,0,0.1c0,0,0,0.1,0.1,0.1c0,0,0.1,0.1,0.1,0.1l0,0c0.3,0.1,0.8,0.2,1.3,0.4c0.5,0.1,1,0.2,1.5,0.2c0.4,0,0.8-0.1,1.2-0.3
		l0,0L62.7,118.2z"/>
	<path class="st3" d="M58.9,117.4c-1,0.6-2.7-0.1-3.7-0.3c-0.1,0,3.5-15.4,3.9-16.6c1.5-4.5,2-8.8,3.1-13.6c1.2-5.3,2.8-11.4,4-16.8
		c0.9-4.1,1-6.8,2-10.8c1.4-6.2,3.4-12.3,4.2-18.7c0.2-1.5,3.5-18.3,4.2-18.1c0.4,0.1,3.9,0.9,4,0.9c0.2,0.1-1.8,7.4-1.9,8
		c-2.1,9.4-4.2,18.7-6.3,28c-1.1,4.7-2,9.4-3,14.1c-0.9,3.9-1.4,7.9-2.3,11.7c-0.7,3.3-1.4,6.6-2.6,9.7c-0.5,1.2-0.6,2.4-0.8,3.6
		c-0.5,4.2-2.3,7.8-3,12c-0.2,1.2-0.5,2.4-0.8,3.6c-0.2,0.7,0,2.1-0.4,2.7C59.3,117.1,59.1,117.2,58.9,117.4"/>
	<path class="st1" d="M58.9,117.4l-0.2-0.3c-0.2,0.1-0.5,0.2-0.8,0.2c-0.4,0-0.9-0.1-1.3-0.2c-0.5-0.1-0.9-0.3-1.3-0.4l-0.1,0.4
		l0.1-0.3l-0.1,0.3l0.2-0.3c0,0-0.1-0.1-0.1-0.1l-0.1,0.3l0.2-0.3l-0.2,0.3l0.3-0.1c0,0,0-0.1-0.1-0.1l-0.2,0.3l0.3-0.1l-0.3,0.1
		l0.4,0c0,0,0,0,0-0.1l-0.3,0.1l0.4,0l-0.3,0h0.3c0,0,0,0,0,0l-0.3,0h0.3h-0.3l0.3,0l0,0h-0.3l0.3,0l-0.1,0l0.1,0l0,0l-0.1,0l0.1,0
		c0,0,0,0,0-0.1c0-0.2,0.1-0.5,0.2-1.1c0.4-1.8,1.2-5.4,2-8.7c0.4-1.6,0.8-3.2,1.1-4.4c0.1-0.6,0.3-1.1,0.4-1.5
		c0.1-0.2,0.1-0.4,0.1-0.5c0-0.1,0.1-0.2,0.1-0.3c1.5-4.6,2-8.9,3.1-13.6c1.2-5.3,2.8-11.4,4-16.8c0.5-2.1,0.7-3.8,1-5.5
		c0.3-1.7,0.5-3.4,1-5.4c1.4-6.2,3.4-12.3,4.2-18.7v0c0-0.2,0.1-0.6,0.2-1.2c0.4-2.1,1.2-6.3,2-10c0.4-1.9,0.8-3.6,1.2-4.8
		c0.2-0.6,0.3-1.1,0.4-1.5c0.1-0.2,0.1-0.3,0.2-0.4l0,0l0,0l-0.1-0.1l0.1,0.1c0,0,0,0,0,0l-0.1-0.1l0.1,0.1l-0.2-0.2v0.3
		c0.1,0,0.1,0,0.2,0l-0.2-0.2v0.3v-0.3l-0.1,0.3c0,0,0.1,0,0.1,0v-0.3l-0.1,0.3l0,0c0.1,0,0.2,0,0.3,0.1c0.5,0.1,1.4,0.3,2.2,0.5
		c0.4,0.1,0.8,0.2,1,0.2c0.1,0,0.2,0.1,0.3,0.1c0,0,0.1,0,0.1,0l0,0l0,0l0.1-0.2l-0.1,0.2l0,0l0.1-0.2l-0.1,0.2l0.1-0.3l-0.1,0.3
		l0,0l0.1-0.3l-0.1,0.3l0.1-0.3l-0.1,0.3l0,0l0.1-0.3l-0.1,0.3l0.1-0.3l-0.2,0.3c0,0,0,0,0,0l0.1-0.3l-0.2,0.3l0,0l0.1-0.3l-0.2,0.3
		c0,0,0.1,0.1,0.1,0.1l0.1-0.3l-0.2,0.3l0.2-0.3l-0.3,0.1c0,0,0,0.1,0.1,0.1l0.2-0.3l-0.3,0.1l0.3-0.1l-0.3,0c0,0,0,0,0,0.1l0.3-0.1
		l-0.3,0l0.1,0h-0.1l0,0l0.1,0h-0.1c0,0,0,0.1,0,0.1c0,0.3-0.2,0.9-0.4,1.7c-0.3,1.1-0.6,2.5-1,3.7c-0.2,0.6-0.3,1.1-0.4,1.5
		c-0.1,0.2-0.1,0.4-0.1,0.5c0,0.1-0.1,0.2-0.1,0.3v0c-2.1,9.4-4.2,18.7-6.3,28c-1.1,4.7-2,9.4-3,14.1c-0.9,3.9-1.4,7.9-2.3,11.7
		c-0.7,3.3-1.4,6.6-2.6,9.7c-0.5,1.2-0.6,2.5-0.8,3.7c-0.3,2.1-0.8,4-1.4,5.9c-0.6,1.9-1.2,3.9-1.6,6l0,0c-0.2,1.2-0.5,2.3-0.8,3.5
		v0c0,0.2-0.1,0.4-0.1,0.7c0,0.4,0,0.8-0.1,1.1c0,0.3-0.1,0.6-0.2,0.8l0,0c-0.1,0.2-0.2,0.3-0.4,0.4l0,0L58.9,117.4l0.2,0.3
		c0.3-0.2,0.5-0.4,0.6-0.7l0,0c0.1-0.2,0.2-0.4,0.2-0.7c0.1-0.4,0.1-0.8,0.1-1.1c0-0.4,0-0.7,0.1-0.9v0c0.3-1.2,0.6-2.4,0.8-3.6l0,0
		c0.4-2,1-4,1.6-5.9c0.6-2,1.2-3.9,1.4-6.1c0.2-1.2,0.3-2.4,0.8-3.5c1.2-3.2,1.9-6.5,2.6-9.8c0.9-3.9,1.4-7.9,2.3-11.7
		c1.1-4.7,2-9.4,3-14.1c2.1-9.3,4.2-18.7,6.3-28v0c0-0.1,0.1-0.2,0.1-0.5c0.2-0.8,0.7-2.6,1.1-4.2c0.2-0.8,0.4-1.6,0.5-2.2
		c0.1-0.3,0.1-0.6,0.2-0.8c0-0.1,0-0.2,0-0.3c0-0.1,0-0.1,0-0.2c0,0,0-0.1,0-0.1c0,0,0-0.1,0-0.1c0,0,0-0.1-0.1-0.1
		c0,0-0.1-0.1-0.1-0.1l-0.1,0.3l0.2-0.3c0,0,0,0,0,0l0,0l0,0c-0.1,0-0.3-0.1-0.7-0.2c-0.5-0.1-1.3-0.3-1.9-0.4
		c-0.3-0.1-0.6-0.1-0.9-0.2c-0.2-0.1-0.4-0.1-0.5-0.1l-0.1,0.4l0.1-0.3c0,0-0.1,0-0.1,0c-0.1,0-0.2,0-0.2,0.1
		c-0.1,0-0.1,0.1-0.1,0.1c-0.1,0.1-0.1,0.1-0.1,0.2c-0.1,0.1-0.1,0.3-0.2,0.5c-0.1,0.4-0.3,1-0.5,1.6c-0.6,2.3-1.4,6-2.1,9.3
		c-0.3,1.6-0.6,3.1-0.9,4.3c-0.1,0.6-0.2,1.1-0.3,1.5c-0.1,0.4-0.1,0.7-0.1,0.8v0c-0.8,6.3-2.8,12.4-4.2,18.6
		c-0.5,2.1-0.7,3.8-1,5.4c-0.3,1.7-0.5,3.4-1,5.4c-1.2,5.3-2.8,11.4-4,16.8c-1.1,4.8-1.6,9-3.1,13.5c0,0.1-0.1,0.2-0.1,0.4
		c-0.2,0.7-0.5,2-0.9,3.6c-0.6,2.4-1.3,5.5-1.9,8c-0.3,1.3-0.5,2.4-0.7,3.2c-0.1,0.4-0.2,0.7-0.2,1c0,0.1,0,0.2-0.1,0.3
		c0,0,0,0.1,0,0.1l0,0c0,0,0,0,0,0.1c0,0,0,0,0,0.1c0,0,0,0.1,0,0.1c0,0,0,0.1,0.1,0.1c0,0,0.1,0.1,0.1,0.1l0,0
		c0.3,0.1,0.8,0.2,1.3,0.4c0.5,0.1,1,0.2,1.5,0.2c0.4,0,0.8-0.1,1.2-0.3l0,0L58.9,117.4"/>
	<path class="st3" d="M54.5,116.4c-1,0.6-2.7-0.1-3.7-0.3c-0.1,0,3.5-15.4,3.9-16.6c1.5-4.5,2-8.8,3.1-13.5c1.2-5.3,2.8-11.4,4-16.8
		c0.9-4.1,1-6.8,2-10.8c1.4-6.2,3.4-12.3,4.2-18.7c0.2-1.5,3.5-18.3,4.2-18.1c0.4,0.1,3.9,0.9,4,0.9c0.2,0.1-1.8,7.4-2,8
		c-2.1,9.4-4.2,18.7-6.3,28c-1.1,4.7-2,9.4-3,14.1c-0.9,3.9-1.4,7.9-2.2,11.7c-0.7,3.3-1.4,6.6-2.6,9.7c-0.4,1.2-0.6,2.4-0.8,3.6
		c-0.5,4.2-2.3,7.8-3,12c-0.2,1.2-0.5,2.4-0.8,3.6c-0.2,0.7,0,2.1-0.4,2.7C54.8,116.1,54.7,116.2,54.5,116.4"/>
	<path class="st1" d="M54.5,116.4l-0.2-0.3c-0.2,0.1-0.5,0.2-0.8,0.2c-0.4,0-0.9-0.1-1.3-0.2c-0.5-0.1-0.9-0.3-1.3-0.4l-0.1,0.4
		l0.1-0.3l-0.1,0.3l0.2-0.3c0,0-0.1-0.1-0.1-0.1l-0.1,0.3l0.2-0.3l-0.2,0.3l0.3-0.1c0,0,0-0.1-0.1-0.1l-0.2,0.3l0.3-0.1l-0.3,0.1
		l0.4,0c0,0,0,0,0-0.1l-0.3,0.1l0.4,0l-0.3,0h0.3c0,0,0,0,0,0l-0.3,0h0.3h-0.3l0.3,0l0,0h-0.3l0.3,0l-0.1,0l0.1,0l0,0l-0.1,0l0.1,0
		c0,0,0,0,0-0.1c0-0.2,0.1-0.6,0.2-1.1c0.4-1.8,1.2-5.4,2-8.7c0.4-1.6,0.8-3.2,1.1-4.4c0.1-0.6,0.3-1.1,0.4-1.5
		c0.1-0.2,0.1-0.4,0.1-0.5c0-0.1,0.1-0.2,0.1-0.3c1.5-4.6,2-8.9,3.1-13.6c1.2-5.3,2.8-11.4,4-16.8c0.5-2.1,0.7-3.8,1-5.5
		c0.3-1.7,0.5-3.4,1-5.4c1.4-6.2,3.4-12.3,4.2-18.7v0c0-0.2,0.1-0.6,0.2-1.2c0.4-2.1,1.2-6.3,2-10c0.4-1.9,0.8-3.6,1.2-4.8
		c0.2-0.6,0.3-1.1,0.4-1.5c0.1-0.2,0.1-0.3,0.2-0.4l0,0l0,0l0,0l-0.1-0.1l0.1,0.1c0,0,0,0,0,0l-0.1-0.1l0.1,0.1l-0.2-0.2v0.3
		c0.1,0,0.1,0,0.2,0l-0.2-0.2v0.3v-0.3L72,21.8c0,0,0.1,0,0.1,0v-0.3L72,21.8l0,0c0.1,0,0.2,0,0.3,0.1c0.5,0.1,1.4,0.3,2.2,0.5
		c0.4,0.1,0.8,0.2,1.1,0.2c0.1,0,0.3,0.1,0.3,0.1c0,0,0.1,0,0.1,0l0,0l0,0l0-0.1l0,0.1l0,0l0-0.1l0,0.1l0.1-0.3L76,22.7l0,0l0.1-0.3
		L76,22.7l0.1-0.3L76,22.7l0,0l0.1-0.3L76,22.7l0,0l0.1-0.3l-0.2,0.3c0,0,0.1,0.1,0.1,0.1l0.1-0.3l-0.2,0.3l0.2-0.3l-0.3,0.1
		c0,0,0,0.1,0.1,0.1l0.2-0.3l-0.3,0.1l0.3-0.1l-0.3,0c0,0,0,0,0,0.1l0.3-0.1l-0.3,0l0.1,0h-0.1l0,0l0.1,0h-0.1c0,0,0,0.1,0,0.1
		c0,0.1-0.1,0.4-0.1,0.7c-0.2,1-0.6,2.7-1,4.1c-0.2,0.7-0.4,1.4-0.5,1.9c-0.1,0.3-0.1,0.5-0.2,0.7c0,0.2-0.1,0.3-0.1,0.4
		c-2.1,9.4-4.2,18.7-6.3,28c-1.1,4.7-2,9.4-3,14.1c-0.9,3.9-1.4,7.9-2.2,11.7c-0.7,3.3-1.4,6.6-2.6,9.7l0,0
		c-0.5,1.2-0.6,2.5-0.8,3.7l0,0c-0.3,2.1-0.8,4-1.4,5.9c-0.6,1.9-1.2,3.9-1.6,6c-0.2,1.2-0.5,2.3-0.8,3.5c0,0.2-0.1,0.4-0.1,0.7
		c0,0.4,0,0.8-0.1,1.1c0,0.3-0.1,0.6-0.2,0.8l0.3,0.2l-0.3-0.2c-0.1,0.2-0.2,0.3-0.4,0.4l0,0L54.5,116.4l0.2,0.3
		c0.3-0.2,0.5-0.4,0.6-0.7l0,0c0.1-0.2,0.2-0.4,0.2-0.7c0.1-0.4,0.1-0.8,0.1-1.1c0-0.4,0-0.7,0.1-0.9c0.3-1.2,0.6-2.4,0.8-3.6
		c0.4-2,1-4,1.6-5.9c0.6-2,1.2-3.9,1.4-6.1l0,0c0.2-1.2,0.3-2.4,0.8-3.5l0,0c1.2-3.2,1.9-6.5,2.6-9.8c0.9-3.9,1.4-7.9,2.2-11.7
		c1.1-4.7,2-9.4,3-14.1c2.1-9.3,4.2-18.7,6.3-28c0-0.1,0.1-0.2,0.1-0.5c0.2-0.8,0.7-2.6,1.1-4.2c0.2-0.8,0.4-1.6,0.5-2.2
		c0.1-0.3,0.1-0.6,0.2-0.8c0-0.1,0-0.2,0-0.3c0-0.1,0-0.1,0-0.2c0,0,0-0.1,0-0.1c0,0,0-0.1,0-0.1c0,0,0-0.1-0.1-0.1
		c0,0-0.1-0.1-0.1-0.1l-0.1,0.3l0.1-0.3c0,0,0,0,0,0l0,0c-0.1,0-0.3-0.1-0.7-0.2c-0.5-0.1-1.3-0.3-1.9-0.5c-0.3-0.1-0.6-0.1-0.9-0.2
		c-0.2-0.1-0.4-0.1-0.5-0.1l-0.1,0.4l0.1-0.3c0,0-0.1,0-0.1,0c-0.1,0-0.2,0-0.2,0.1c-0.1,0-0.1,0.1-0.1,0.1
		c-0.1,0.1-0.1,0.1-0.1,0.2c-0.1,0.1-0.1,0.3-0.2,0.5c-0.1,0.4-0.3,1-0.5,1.6c-0.6,2.3-1.4,6-2.1,9.3c-0.3,1.6-0.6,3.1-0.9,4.3
		c-0.1,0.6-0.2,1.1-0.3,1.5c-0.1,0.4-0.1,0.7-0.1,0.8v0c-0.8,6.3-2.8,12.4-4.2,18.6c-0.5,2.1-0.7,3.8-1,5.4c-0.3,1.7-0.5,3.4-1,5.4
		c-1.2,5.3-2.8,11.4-4,16.8c-1.1,4.8-1.6,9-3.1,13.5c0,0.1-0.1,0.2-0.1,0.4c-0.2,0.7-0.5,2-0.9,3.6c-0.6,2.4-1.3,5.5-1.9,8
		c-0.3,1.3-0.5,2.4-0.7,3.2c-0.1,0.4-0.2,0.7-0.2,1c0,0.1,0,0.2-0.1,0.3c0,0,0,0.1,0,0.1l0,0c0,0,0,0,0,0.1c0,0,0,0,0,0.1
		c0,0,0,0.1,0,0.1c0,0,0,0.1,0.1,0.1c0,0,0.1,0.1,0.1,0.1l0,0c0.3,0.1,0.8,0.2,1.3,0.4c0.5,0.1,1,0.2,1.5,0.2c0.4,0,0.8-0.1,1.2-0.3
		l0,0L54.5,116.4"/>
	<path class="st3" d="M50.9,115.5c-1,0.6-2.7-0.1-3.7-0.3c-0.1,0,3.5-15.4,3.9-16.6c1.5-4.5,2-8.8,3.1-13.6c1.2-5.3,2.8-11.4,4-16.8
		c0.9-4.1,1-6.8,2-10.8c1.4-6.2,3.4-12.3,4.2-18.7c0.2-1.5,3.5-18.3,4.2-18.1c0.4,0.1,3.9,0.9,4,0.9c0.2,0.1-1.8,7.4-1.9,8
		c-2.1,9.3-4.2,18.7-6.3,28c-1.1,4.7-2,9.4-3,14.1c-0.9,3.9-1.4,7.9-2.3,11.7c-0.7,3.3-1.4,6.6-2.6,9.7c-0.5,1.2-0.6,2.4-0.8,3.6
		c-0.5,4.2-2.3,7.8-3,12c-0.2,1.2-0.5,2.4-0.8,3.6c-0.2,0.7,0,2.1-0.4,2.7C51.3,115.2,51.1,115.4,50.9,115.5"/>
	<path class="st1" d="M50.9,115.5l-0.2-0.3c-0.2,0.1-0.5,0.2-0.8,0.2c-0.4,0-0.9-0.1-1.3-0.2c-0.5-0.1-0.9-0.3-1.3-0.4l0,0l-0.1,0.4
		l0.2-0.3c0,0-0.1-0.1-0.1-0.1l-0.1,0.4l0.2-0.3l-0.2,0.3l0.3-0.1c0,0,0-0.1-0.1-0.1l-0.2,0.3l0.3-0.1l-0.3,0.1l0.4,0c0,0,0,0,0-0.1
		l-0.3,0.1l0.4,0l-0.3,0l0.3,0c0,0,0,0,0,0l-0.3,0l0.3,0h-0.3l0.3,0l0,0h-0.3l0.3,0l-0.1,0l0.1,0l0,0l-0.1,0l0.1,0c0,0,0,0,0-0.1
		c0-0.2,0.1-0.6,0.2-1.1c0.4-1.8,1.2-5.4,2-8.7c0.4-1.6,0.8-3.2,1.1-4.4c0.1-0.6,0.3-1.1,0.4-1.5c0.1-0.2,0.1-0.4,0.1-0.5
		c0-0.1,0.1-0.2,0.1-0.3l0,0c1.5-4.6,2-8.9,3.1-13.6c1.2-5.3,2.8-11.4,4-16.8c0.5-2.1,0.7-3.8,1-5.5c0.3-1.7,0.5-3.4,1-5.4
		c1.4-6.2,3.4-12.3,4.2-18.7c0-0.2,0.1-0.6,0.2-1.2c0.4-2.1,1.2-6.3,2-10c0.4-1.9,0.8-3.6,1.1-4.8c0.2-0.6,0.3-1.1,0.4-1.5
		c0.1-0.2,0.1-0.3,0.2-0.4l0,0l0,0v0l-0.1-0.1l0.1,0.1c0,0,0,0,0,0l-0.1-0.1l0.1,0.1l-0.2-0.2V21c0.1,0,0.1,0,0.2,0l-0.2-0.2V21
		v-0.3L68.5,21c0,0,0.1,0,0.1,0v-0.3L68.5,21l0,0c0.1,0,0.2,0,0.3,0.1c0.5,0.1,1.4,0.3,2.2,0.5c0.4,0.1,0.8,0.2,1.1,0.2
		c0.1,0,0.2,0.1,0.3,0.1c0,0,0.1,0,0.1,0l0,0l0,0l0-0.2l-0.1,0.2l0,0l0-0.2l-0.1,0.2l0.1-0.3l-0.1,0.3c0,0,0,0,0,0l0.1-0.3l-0.1,0.3
		l0.1-0.3l-0.1,0.3l0.1-0.3l-0.2,0.3c0,0,0.1,0.1,0.1,0.1l0.1-0.3l-0.2,0.3l0.2-0.3l-0.3,0.1c0,0,0,0.1,0.1,0.1l0.2-0.3l-0.3,0.1
		l0.3-0.1l-0.3,0c0,0,0,0,0,0.1l0.3-0.1l-0.3,0l0.1,0h-0.1l0,0l0.1,0h-0.1c0,0,0,0.1,0,0.1c0,0.3-0.2,0.9-0.4,1.7
		c-0.3,1.1-0.6,2.5-1,3.7c-0.2,0.6-0.3,1.1-0.4,1.6c-0.1,0.2-0.1,0.4-0.1,0.5c0,0.1-0.1,0.2-0.1,0.3l0,0c-2.1,9.3-4.2,18.7-6.3,28
		c-1.1,4.7-2,9.4-3,14.1c-0.9,3.9-1.4,7.9-2.3,11.7c-0.7,3.3-1.4,6.6-2.6,9.7c-0.5,1.2-0.6,2.5-0.8,3.7l0,0c-0.3,2.1-0.8,4-1.4,5.9
		c-0.6,1.9-1.2,3.9-1.6,6l0,0c-0.2,1.2-0.5,2.3-0.8,3.5c0,0.2-0.1,0.4-0.1,0.7c0,0.4,0,0.8-0.1,1.1c0,0.3-0.1,0.6-0.2,0.8l0,0
		c-0.1,0.2-0.2,0.3-0.4,0.4L50.9,115.5l-0.2-0.3L50.9,115.5l0.2,0.3c0.3-0.2,0.5-0.4,0.6-0.7l-0.3-0.2l0.3,0.2
		c0.1-0.2,0.2-0.4,0.2-0.7c0.1-0.4,0.1-0.8,0.1-1.1c0-0.4,0-0.7,0.1-0.9c0.3-1.2,0.6-2.3,0.8-3.6l0,0c0.4-2,1-4,1.6-5.9
		c0.6-2,1.2-3.9,1.4-6.1l0,0c0.2-1.2,0.3-2.4,0.8-3.5c1.2-3.2,1.9-6.5,2.6-9.8c0.9-3.9,1.4-7.9,2.3-11.7c1.1-4.7,2-9.4,3-14.1
		c2.1-9.3,4.2-18.7,6.3-28l0,0c0-0.1,0.1-0.2,0.1-0.5c0.2-0.8,0.7-2.6,1.1-4.2c0.2-0.8,0.4-1.6,0.5-2.2c0.1-0.3,0.1-0.6,0.2-0.8
		c0-0.1,0-0.2,0-0.3c0-0.1,0-0.1,0-0.2c0,0,0-0.1,0-0.1c0,0,0-0.1,0-0.1c0,0,0-0.1-0.1-0.1c0,0-0.1-0.1-0.1-0.1l0,0l0,0l0,0
		c0,0-0.1,0-0.2,0c-0.4-0.1-1.2-0.3-2.1-0.5c-0.4-0.1-0.8-0.2-1.1-0.3c-0.2,0-0.3-0.1-0.4-0.1c-0.1,0-0.2,0-0.2-0.1l-0.1,0.3
		l0.1-0.3c0,0-0.1,0-0.1,0c-0.1,0-0.2,0-0.2,0.1c-0.1,0-0.1,0.1-0.1,0.1c-0.1,0.1-0.1,0.1-0.1,0.2c-0.1,0.1-0.1,0.3-0.2,0.5
		c-0.1,0.4-0.3,1-0.5,1.6c-0.6,2.3-1.4,6-2.1,9.3c-0.3,1.6-0.6,3.1-0.9,4.3c-0.1,0.6-0.2,1.1-0.3,1.5c-0.1,0.4-0.1,0.7-0.1,0.8
		c-0.8,6.3-2.8,12.4-4.2,18.6c-0.5,2.1-0.7,3.8-1,5.4c-0.3,1.7-0.5,3.4-1,5.4c-1.2,5.4-2.8,11.4-4,16.8c-1.1,4.8-1.6,9-3.1,13.5v0
		c0,0.1-0.1,0.2-0.1,0.4c-0.2,0.7-0.5,2-0.9,3.6c-0.6,2.4-1.3,5.5-1.9,8c-0.3,1.3-0.5,2.4-0.7,3.2c-0.1,0.4-0.2,0.7-0.2,1
		c0,0.1,0,0.2-0.1,0.3c0,0,0,0.1,0,0.1l0,0c0,0,0,0,0,0.1c0,0,0,0,0,0.1c0,0,0,0.1,0,0.1c0,0,0,0.1,0.1,0.1c0,0,0.1,0.1,0.2,0.1l0,0
		c0.3,0.1,0.8,0.2,1.3,0.4c0.5,0.1,1,0.2,1.5,0.2c0.4,0,0.8-0.1,1.2-0.3l0,0L50.9,115.5"/>
	<path class="st3" d="M46.5,114.5c-1,0.6-2.7-0.1-3.7-0.3c-0.1,0,3.5-15.4,3.9-16.6c1.5-4.5,2-8.8,3.1-13.6c1.2-5.3,2.8-11.4,4-16.8
		c0.9-4.1,1-6.8,2-10.8c1.4-6.2,3.4-12.3,4.2-18.7c0.2-1.5,3.5-18.3,4.2-18.1c0.4,0.1,3.9,0.9,4,0.9c0.2,0.1-1.8,7.4-1.9,8
		c-2.1,9.3-4.2,18.7-6.3,28c-1.1,4.7-2,9.4-3,14.1c-0.9,3.9-1.4,7.9-2.2,11.7c-0.7,3.3-1.4,6.6-2.6,9.7c-0.5,1.2-0.6,2.4-0.8,3.6
		c-0.5,4.2-2.3,7.8-3,12c-0.2,1.2-0.5,2.4-0.8,3.6c-0.2,0.7,0,2.1-0.4,2.7C46.8,114.2,46.7,114.4,46.5,114.5"/>
	<path class="st1" d="M46.5,114.5l-0.2-0.3c-0.2,0.1-0.5,0.2-0.8,0.2c-0.4,0-0.9-0.1-1.3-0.2c-0.5-0.1-0.9-0.3-1.3-0.4l-0.1,0.4
		l0.1-0.3l-0.1,0.3l0.2-0.3c0,0-0.1-0.1-0.1-0.1l-0.1,0.3l0.2-0.3l-0.2,0.3l0.3-0.1c0,0,0-0.1-0.1-0.1l-0.2,0.3l0.3-0.1l-0.3,0.1
		l0.4,0c0,0,0,0,0-0.1l-0.3,0.1l0.4,0l-0.3,0h0.3c0,0,0,0,0,0l-0.3,0h0.3h-0.3l0.3,0l0,0h-0.3l0.3,0l-0.1,0l0.1,0v0l-0.1,0l0.1,0
		c0,0,0,0,0-0.1c0-0.2,0.1-0.6,0.2-1.1c0.4-1.8,1.2-5.4,2-8.7c0.4-1.6,0.8-3.2,1.1-4.4c0.1-0.6,0.3-1.1,0.4-1.5
		c0.1-0.2,0.1-0.4,0.1-0.5c0-0.1,0.1-0.2,0.1-0.3c1.5-4.6,2-8.9,3.1-13.6c1.2-5.3,2.8-11.4,4-16.8c0.5-2.1,0.7-3.8,1-5.5
		c0.3-1.7,0.5-3.4,1-5.4l0,0c1.4-6.2,3.4-12.3,4.2-18.7c0-0.2,0.1-0.6,0.2-1.2c0.4-2.1,1.2-6.3,2-10c0.4-1.9,0.8-3.6,1.1-4.8
		c0.2-0.6,0.3-1.1,0.4-1.5c0.1-0.2,0.1-0.3,0.2-0.4l0,0l0,0h0l-0.1-0.1l0.1,0.1c0,0,0,0,0,0l-0.1-0.1l0.1,0.1l-0.2-0.2V20
		c0.1,0,0.1,0,0.2,0l-0.2-0.2V20v-0.3L64,20c0,0,0.1,0,0.1,0v-0.3L64,20l0,0c0.1,0,0.2,0,0.3,0.1c0.5,0.1,1.4,0.3,2.2,0.5
		c0.4,0.1,0.8,0.2,1.1,0.2c0.1,0,0.2,0.1,0.3,0.1c0,0,0.1,0,0.1,0l0,0l0,0l0-0.1l0,0.1l0,0l0-0.1l0,0.1l0.1-0.3L68,20.9l0,0l0.1-0.3
		L68,20.9l0.1-0.3L68,20.9l0.1-0.3l-0.2,0.3c0,0,0.1,0.1,0.1,0.1l0.1-0.3l-0.2,0.3l0.2-0.3l-0.3,0.1c0,0,0,0.1,0.1,0.1l0.2-0.3
		l-0.3,0.1l0.3-0.1l-0.3,0c0,0,0,0,0,0.1l0.3-0.1l-0.3,0l0.1,0h-0.1l0,0l0.1,0h-0.1c0,0,0,0.1,0,0.1c0,0.3-0.2,0.9-0.4,1.7
		c-0.3,1.1-0.6,2.5-1,3.7c-0.2,0.6-0.3,1.1-0.4,1.5c-0.1,0.2-0.1,0.4-0.1,0.5c0,0.1-0.1,0.2-0.1,0.3l0,0c-2.1,9.3-4.2,18.7-6.3,28
		c-1.1,4.7-2,9.4-3,14.1v0c-0.9,3.9-1.4,7.9-2.2,11.7c-0.7,3.3-1.4,6.6-2.6,9.7c-0.5,1.2-0.6,2.5-0.8,3.7c-0.3,2.1-0.8,4-1.4,5.9
		c-0.6,1.9-1.2,3.9-1.6,6l0,0c-0.2,1.2-0.5,2.3-0.8,3.5l0,0c0,0.2-0.1,0.4-0.1,0.7c0,0.4,0,0.8-0.1,1.1c0,0.3-0.1,0.6-0.2,0.8l0,0
		c-0.1,0.2-0.2,0.3-0.4,0.4L46.5,114.5l0.2,0.3c0.3-0.2,0.5-0.4,0.7-0.7l0,0c0.1-0.2,0.2-0.4,0.2-0.7c0.1-0.4,0.1-0.8,0.1-1.1
		c0-0.4,0-0.7,0.1-1l0,0c0.3-1.2,0.6-2.4,0.8-3.6l0,0c0.4-2,1-4,1.6-5.9c0.6-2,1.2-3.9,1.4-6.1c0.2-1.2,0.3-2.4,0.8-3.5
		c1.2-3.2,1.9-6.5,2.6-9.8c0.9-3.9,1.4-7.9,2.2-11.7v0c1.1-4.7,2-9.4,3-14.1c2.1-9.3,4.2-18.7,6.3-28l0,0c0-0.1,0.1-0.2,0.1-0.5
		c0.2-0.8,0.7-2.6,1.1-4.2c0.2-0.8,0.4-1.6,0.5-2.2c0.1-0.3,0.1-0.6,0.2-0.8c0-0.1,0-0.2,0-0.3c0-0.1,0-0.1,0-0.2c0,0,0-0.1,0-0.1
		c0,0,0-0.1,0-0.1c0,0,0-0.1-0.1-0.1c0,0-0.1-0.1-0.1-0.1l0,0l0,0c0,0,0,0-0.1,0c-0.2-0.1-1.1-0.3-2-0.5c-0.4-0.1-0.9-0.2-1.2-0.3
		c-0.2,0-0.3-0.1-0.4-0.1c-0.1,0-0.2,0-0.2-0.1l-0.1,0.4l0.1-0.3c0,0-0.1,0-0.1,0c-0.1,0-0.2,0-0.2,0.1c-0.1,0-0.1,0.1-0.1,0.1
		c-0.1,0.1-0.1,0.1-0.1,0.2c-0.1,0.1-0.1,0.3-0.2,0.5c-0.1,0.4-0.3,1-0.5,1.6c-0.6,2.3-1.4,6-2.1,9.3c-0.3,1.6-0.6,3.1-0.9,4.3
		c-0.1,0.6-0.2,1.1-0.3,1.5c-0.1,0.4-0.1,0.7-0.1,0.8c-0.8,6.3-2.8,12.4-4.2,18.6v0c-0.5,2.1-0.7,3.8-1,5.4c-0.3,1.7-0.5,3.4-1,5.4
		c-1.2,5.3-2.8,11.4-4,16.8c-1.1,4.8-1.6,9-3.1,13.5c0,0.1-0.1,0.2-0.1,0.4c-0.2,0.7-0.5,2-0.9,3.6c-0.6,2.4-1.3,5.5-1.9,8
		c-0.3,1.3-0.5,2.4-0.7,3.2c-0.1,0.4-0.2,0.7-0.2,1c0,0.1,0,0.2-0.1,0.3c0,0,0,0.1,0,0.1l0,0c0,0,0,0,0,0.1c0,0,0,0,0,0.1
		c0,0,0,0.1,0,0.1c0,0,0,0.1,0.1,0.1c0,0,0.1,0.1,0.1,0.1l0,0c0.3,0.1,0.8,0.2,1.3,0.4c0.5,0.1,1,0.2,1.5,0.2c0.4,0,0.8-0.1,1.2-0.3
		L46.5,114.5"/>
	<path class="st4" d="M44.5,105c-0.2,0.8-0.5,1.7-0.6,2.6C44.1,106.7,44.3,105.9,44.5,105"/>
	<path class="st5" d="M56.3,113.7c-0.1,0.4-0.2,0.8-0.3,1.2c0.5,0.1,1,0.2,1.5,0.2c0.3,0,0.7,0,1-0.1c0,0,0-0.2,0-0.2
		C57.8,114.4,57,114.1,56.3,113.7"/>
	<path class="st6" d="M55.7,113.5c0,0.2,0,0.4-0.1,0.7c0,0.2,0,0.4,0,0.6c0.1,0,0.3,0.1,0.4,0.1c0.1-0.4,0.2-0.7,0.3-1.2
		C56.1,113.6,55.9,113.6,55.7,113.5"/>
	<path class="st5" d="M52.2,112.1c0,0.1,0,0.2-0.1,0.3c-0.1,0.2-0.1,0.6-0.1,0.9c0,0.1,0,0.2,0,0.3c0.3,0.1,0.6,0.2,1,0.3
		c0.6,0.2,1.2,0.4,1.9,0.7c0-0.3,0-0.5,0.1-0.8c0-0.2,0-0.4,0.1-0.5c-0.5-0.2-1.1-0.4-1.6-0.6C53,112.4,52.6,112.3,52.2,112.1"/>
	<path class="st6" d="M55,113.2c0,0.2,0,0.3-0.1,0.5c0,0.3,0,0.5-0.1,0.8c0.2,0.1,0.5,0.2,0.7,0.2c0-0.2,0-0.4,0-0.6
		c0-0.2,0-0.5,0.1-0.7C55.5,113.4,55.2,113.3,55,113.2"/>
	<path class="st5" d="M48.6,110.5c-0.2,0.8-0.4,1.6-0.5,2.2c0.8,0.2,1.5,0.3,1.6,0.4c0.5,0.1,1.1,0.2,1.6,0.4c0-0.2,0-0.3,0-0.5
		c0-0.2,0-0.5,0.1-0.7c0-0.2,0.1-0.3,0.1-0.5c-0.4-0.2-0.7-0.3-1.1-0.5C49.9,111,49.2,110.8,48.6,110.5"/>
	<path class="st6" d="M51.6,111.8c0,0.2-0.1,0.3-0.1,0.5c0,0.2-0.1,0.4-0.1,0.7c0,0.2,0,0.3,0,0.5c0.2,0.1,0.5,0.1,0.7,0.2
		c0-0.1,0-0.2,0-0.3c0-0.4,0-0.7,0.1-0.9c0-0.1,0-0.2,0.1-0.3C52,112,51.8,111.9,51.6,111.8 M48,110.2c-0.1,0.4-0.2,0.8-0.3,1.2l0,0
		c-0.1,0.2-0.1,0.6-0.1,1c0,0.1,0,0.2,0,0.3c0.2,0,0.3,0.1,0.5,0.1c0.2-0.7,0.3-1.4,0.5-2.2C48.4,110.4,48.2,110.3,48,110.2"/>
	<path class="st5" d="M50.8,81.6c-0.4,1.4-0.7,2.8-1.1,4.1c-0.8,4.1-1.4,7.9-2.7,12c0,0.1,0,0.2-0.1,0.3c0,0.1-0.1,0.3-0.1,0.5
		c-0.1,0.4-0.2,0.9-0.4,1.5c-0.3,1.2-0.7,2.8-1.1,4.4c-0.5,2.2-1.1,4.5-1.5,6.4c0.4,0.7,1.7,1.2,3,1.6c0-0.2,0-0.3,0-0.5
		c0-0.2,0-0.5,0.1-0.7l0,0c0.1-0.5,0.2-1,0.4-1.5c-0.7-0.6-1.2-1.4-0.9-2.6c0.3-1.2,1.8-8.9,1.9-10C49.1,92,50.2,86.7,50.8,81.6"/>
	<path class="st6" d="M47.4,109.7c-0.1,0.5-0.2,1-0.4,1.5l0,0c0,0.2-0.1,0.4-0.1,0.7c0,0.2,0,0.3,0,0.5c0.2,0.1,0.5,0.1,0.7,0.2
		c0-0.1,0-0.2,0-0.3c0-0.4,0-0.7,0.1-1l0,0c0.1-0.4,0.2-0.8,0.3-1.2C47.8,110,47.6,109.9,47.4,109.7 M49.8,85.7
		c-1.1,4-2.1,8.1-3.2,12.1c-0.6,2.2-1.2,4.4-1.9,6.6c0,0.2-0.1,0.3-0.1,0.5c-0.2,0.9-0.4,1.8-0.6,2.6c-0.2,1-0.3,2.1-0.1,2.9
		c0,0.1,0.1,0.2,0.1,0.3c0.4-1.9,1-4.2,1.5-6.4c0.4-1.6,0.8-3.2,1.1-4.4c0.1-0.6,0.3-1.1,0.4-1.5c0.1-0.2,0.1-0.4,0.1-0.5
		c0-0.1,0.1-0.2,0.1-0.3C48.4,93.7,48.9,89.8,49.8,85.7"/>
	<path class="st5" d="M65.5,22c-0.7,0-1.5,0.5-2,1.5c-0.2,0.3-0.3,0.7-0.5,1.1c-0.1,0.6-0.3,1.3-0.4,2c-0.8,3.7-1.6,7.9-2,10
		c-0.1,0.6-0.2,1-0.2,1.2c-0.7,5.8-2.5,11.4-3.8,17c-0.4,2-0.8,3.9-1.2,5.9c-0.1,0.4-0.1,0.8-0.2,1.3c-0.3,1.7-0.5,3.4-1,5.5
		c-0.4,2-0.9,4-1.4,6.1c-0.3,1.6-0.6,3.1-1,4.7c2.6-9.2,5-19.2,7.5-28.5c0.6-2,4-16.3,4.5-18.6c0.4-1.8,1.3-4.2,2.1-5.6
		C67.3,23.2,66.5,22,65.5,22"/>
	<path class="st6" d="M55.3,60.6c-0.9,4.3-1.7,8.5-2.6,12.8c0.5-2.1,1-4.1,1.4-6.1c0.5-2.1,0.7-3.8,1-5.5
		C55.2,61.5,55.2,61.1,55.3,60.6 M63,24.6c-1.1,2.9-2,7.2-2.5,9.9c-0.8,4.2-1.6,8.4-2.5,12.7c-0.5,2.5-1,5.1-1.5,7.6
		c1.4-5.6,3.1-11.2,3.8-17c0-0.2,0.1-0.6,0.2-1.2c0.4-2.1,1.2-6.3,2-10C62.7,25.9,62.8,25.3,63,24.6"/>
	
		<linearGradient id="SVGID_1_" gradientUnits="userSpaceOnUse" x1="-2576.0762" y1="-2665.082" x2="-2575.8811" y2="-2665.082" gradientTransform="matrix(149.6865 33.7596 33.7596 -149.6865 475636.0938 -311904)">
		<stop  offset="0" style="stop-color:#4C4948"/>
		<stop  offset="0.5163" style="stop-color:#282525"/>
		<stop  offset="0.9939" style="stop-color:#000000"/>
		<stop  offset="1" style="stop-color:#000000"/>
	</linearGradient>
	<polygon class="st7" points="82.8,91.5 53.6,84.9 66.8,26.1 96,32.7 	"/>
	
		<linearGradient id="SVGID_2_" gradientUnits="userSpaceOnUse" x1="-2577.405" y1="-2666.0769" x2="-2577.21" y2="-2666.0769" gradientTransform="matrix(60.1046 13.5557 13.5557 -60.1046 191122.9219 -125250.4219)">
		<stop  offset="0" style="stop-color:#E60012"/>
		<stop  offset="1" style="stop-color:#962529"/>
	</linearGradient>
	<polygon class="st8" points="76.2,75.2 64.4,72.5 72.5,36.5 84.3,39.2 	"/>
	<path class="st0" d="M71.7,48.7c0.3-0.2,0.6-0.4,0.9-0.7c0.3-0.3,0.5-0.6,0.6-0.9l0-0.2l0.2,0.1l0.3-0.4l-0.2,0l-0.9,0L72,45.8
		c0.4,0.2,0.7,0.2,1.1,0.2c0.3,0,0.7,0,1.1-0.1l0.2-0.4l-0.5-0.2c0.3-0.1,0.6-0.3,0.8-0.5c0.3-0.2,0.4-0.4,0.5-0.7l-0.1,0l0.8,0.1
		l0.5,0.3l0.5-0.9l-0.2-0.1c-0.3,0-0.6,0-0.8,0c-0.3,0-0.5-0.1-0.8-0.1l-0.6,1l-0.2,0l0-0.8L74,43.5l-1-0.2l-0.9-0.8l1.9,0.2l0-0.2
		L73.9,42l0.1,0l1.2,0.8l2.1,0.1l0.3-0.6L77.5,42l0.4,0.1c0.4,0.4,0.8,0.7,1.3,0.8c0.5,0.2,0.9,0.4,1.3,0.7l0,0.3l-0.1,0.1L79.4,44
		L78,43.6l-0.2,0l-0.1,0.2l-0.1,0l-0.3,0.4l-0.2,0l-0.3,0.3l-0.3,0.4l-1.4,0.3l0,0.1l0.2,0.1l-0.1,0.3l0.3,0.1l0.4-0.1l0.4-0.1
		l0.5,0.3l1-0.2c0.2,0.1,0.5,0.2,0.8,0.3c0.3,0.1,0.5,0.3,0.8,0.5l0,0.3l-2.4-0.4l-0.1,0.2c0.5,0.6,1.1,1.1,1.8,1.6
		c0.6,0.5,1.2,1,1.7,1.6l0,0.1l-0.3-0.1c-0.5-0.3-1-0.6-1.5-0.8c-0.5-0.3-1-0.6-1.5-0.8l-0.2,0c-0.2,0.2-0.3,0.3-0.4,0.6
		c-0.1,0.2-0.2,0.4-0.4,0.5c-0.3-0.1-0.6-0.1-0.9,0c-0.3,0.1-0.6,0.1-1-0.1l-0.5-0.2l-0.2,0l-0.1-1l-0.1,0L71.7,48.7z M71.4,53.2
		l-0.3-0.3c-0.2-0.5-0.3-1-0.2-1.5c0-0.5-0.1-1-0.4-1.5l0.1,0c0.2,0.1,0.4,0.3,0.6,0.5c0.1,0.2,0.3,0.4,0.4,0.6L72,52l-0.1,1.4
		L71.4,53.2z M77.5,56.1l-0.6-0.5l-0.2-1l0.2-0.4l0.6-0.1c0.3-0.4,0.6-0.8,0.7-1.3c0.2-0.5,0.3-1,0.4-1.5l0-0.3
		c-0.2-0.2-0.5-0.4-0.8-0.4c-0.3-0.1-0.6-0.2-0.9-0.2c-0.6,0.1-1.1,0.1-1.7,0.1c-0.6,0-1.1,0-1.7-0.1l-0.7-0.5l0-0.1
		c1,0,2.1,0,3.2,0.1c1.1,0.1,2.2,0.2,3.3,0.4l1,0.5c0,0.2,0,0.2,0.2,0.2c0.2,0,0.3,0.1,0.2,0.2l0.2,0.2l-0.1,0.3l-0.6,0.2
		c-0.5,0.7-0.9,1.4-1.3,2.1C78.4,54.7,78,55.4,77.5,56.1z M75.1,53.5c-0.1-0.2-0.3-0.4-0.5-0.4c-0.2,0-0.4-0.1-0.6-0.1l-0.5,0
		c-0.3-0.3-0.4-0.6-0.5-0.9c-0.1-0.4-0.2-0.7-0.4-1l0.3,0.1l0.6,0.5l0.5,0.8l0.9,0.2l0.4-0.8c-0.2-0.1-0.4-0.2-0.5-0.3
		c-0.2-0.1-0.3-0.2-0.5-0.4l0.8-0.1l0-0.1c0.2,0.1,0.3,0.1,0.5,0c0.1-0.1,0.3-0.1,0.4-0.2c0.1,0.2,0.3,0.3,0.4,0.4
		c0.2,0.1,0.3,0.2,0.5,0.3l0.2,0.6l-0.6,0l-0.6,1l-0.2,0l-0.4,0.5l0-0.1L75.1,53.5z M75.4,48.7l0.5-1c-0.3-0.1-0.6-0.1-0.8-0.2
		c-0.3-0.1-0.5-0.2-0.6-0.5l-0.5,0.7l0.3,0.8L74,48.7l0.2,0.1L75.4,48.7z M75.9,47.2l0.4-0.2l-0.6-0.7l-0.9,0.2l-0.4,0.5l0.5,0.3
		L75.9,47.2z"/>
	<path class="st0" d="M71.7,48.7l0.1,0.2c0.3-0.2,0.6-0.4,0.9-0.7L72.5,48l0.1,0.1c0.3-0.3,0.5-0.6,0.7-1c0,0,0-0.1,0-0.1l0-0.2
		l-0.2,0L73,47l0.2,0.1c0.1,0.1,0.2,0,0.3-0.1l0.3-0.4c0-0.1,0-0.1,0-0.2c0-0.1-0.1-0.1-0.1-0.1l-0.2,0l0,0l-0.8,0l-0.5-0.6L72,45.8
		L71.9,46c0.3,0.1,0.7,0.2,1,0.2c0,0,0.1,0,0.1,0c0.3,0,0.7,0,1-0.1c0.1,0,0.1,0,0.2-0.1l0.2-0.4c0-0.1,0-0.1,0-0.2
		c0-0.1-0.1-0.1-0.1-0.1l-0.5-0.2l-0.1,0.2l0.1,0.2c0.3-0.1,0.6-0.3,0.9-0.5l0,0c0.3-0.2,0.5-0.5,0.6-0.8c0-0.1,0-0.1,0-0.2
		c0-0.1-0.1-0.1-0.1-0.1l-0.1,0l0,0.2l0,0.2l0.7,0.1l0.5,0.3c0,0,0.1,0,0.2,0c0.1,0,0.1,0,0.1-0.1l0.5-0.9c0.1-0.1,0-0.2-0.1-0.3
		l-0.2-0.1c0,0-0.1,0-0.2,0c-0.1,0-0.3,0-0.4,0c-0.1,0-0.3,0-0.4,0l0,0.2l0-0.2c-0.3,0-0.6-0.1-0.8-0.1c-0.1,0-0.1,0-0.2,0.1
		l-0.6,0.9l-0.1,0l0,0.2l0.2,0l0-0.8c0-0.1,0-0.1-0.1-0.2l-0.2-0.1c0,0-0.1,0-0.1,0l-0.9-0.1l-0.4-0.4l1.3,0.1
		c0.1,0,0.2-0.1,0.2-0.2l0-0.2c0,0,0-0.1,0-0.1l-0.2-0.5L73.9,42l0,0.2l0,0l1.1,0.7c0,0,0.1,0,0.1,0l2.1,0.1c0.1,0,0.2,0,0.2-0.1
		l0.3-0.6c0,0,0-0.1,0-0.2l-0.1-0.2L77.5,42l0,0.2l0.4,0.1l0-0.2l-0.1,0.1c0.4,0.4,0.9,0.7,1.4,0.9l0,0c0.5,0.1,0.9,0.4,1.3,0.7
		l0.1-0.2l-0.2,0l0,0.2L80.3,44l0.2,0.1l0-0.2l-1-0.1l-1.3-0.4c0,0,0,0-0.1,0l-0.2,0c-0.1,0-0.2,0.1-0.2,0.1l-0.1,0.2l0.2,0.1
		l0.1-0.2l-0.1,0c-0.1,0-0.2,0-0.2,0.1L77.2,44l-0.1,0c0,0-0.1,0-0.1,0.1l-0.3,0.3l0,0l-0.3,0.3L75,45c-0.1,0-0.1,0.1-0.2,0.2l0,0.1
		c0,0.1,0,0.2,0.1,0.2l0.1,0l0,0.2c0,0.1,0,0.2,0.1,0.2l0.3,0.1c0,0,0.1,0,0.1,0l0.4-0.1l0.3-0.1l0.4,0.3c0,0,0.1,0,0.2,0l1-0.2
		l0-0.2l-0.1,0.2c0.2,0.1,0.5,0.2,0.8,0.3c0.3,0.1,0.5,0.2,0.7,0.4l0.1-0.1l-0.2,0l0,0.1l-2.2-0.3c-0.1,0-0.2,0-0.2,0.1l-0.1,0.2
		c0,0.1,0,0.1,0,0.2c0.6,0.6,1.1,1.1,1.8,1.6l0,0c0.6,0.5,1.2,1,1.7,1.6l0.2-0.1l-0.2,0l0,0.1l0.2,0l0.1-0.2l-0.3-0.1l-0.1,0.2
		l0.1-0.2c-0.5-0.3-1-0.6-1.5-0.8c-0.5-0.3-1-0.6-1.5-0.8c0,0-0.1,0-0.1,0l-0.2,0c0,0-0.1,0-0.1,0.1c-0.2,0.2-0.3,0.4-0.4,0.6
		l0.2,0.1l-0.2-0.1c-0.1,0.2-0.2,0.3-0.3,0.4l0.1,0.2l0-0.2c-0.1,0-0.3,0-0.4,0c-0.2,0-0.4,0-0.6,0.1l0.1,0.2L75,49
		c-0.1,0-0.2,0-0.3,0c-0.2,0-0.3,0-0.5-0.1l0,0l-0.5-0.2c0,0-0.1,0-0.1,0l-0.2,0l0,0.2l0.2,0l-0.1-1c0-0.1-0.1-0.2-0.2-0.2l-0.1,0
		c0,0-0.1,0-0.1,0l-1.6,0.7L71.7,48.7l0.1,0.2L71.7,48.7l0.1,0.2l1.5-0.7l0.1,0l0-0.2l-0.2,0l0.1,1c0,0.1,0,0.1,0.1,0.1
		c0,0,0.1,0,0.2,0l0.1,0l0.4,0.2l0.1-0.2L74,49.3c0.2,0.1,0.5,0.1,0.7,0.1c0.1,0,0.3,0,0.4-0.1l0,0c0.2,0,0.3-0.1,0.5-0.1
		c0.1,0,0.2,0,0.4,0c0,0,0.1,0,0.1,0c0.2-0.1,0.4-0.3,0.5-0.6l0,0c0.1-0.2,0.2-0.4,0.3-0.5l-0.1-0.1l0,0.2l0.2,0l0-0.2l-0.1,0.2
		c0.5,0.3,1,0.6,1.5,0.8c0.5,0.3,1,0.6,1.5,0.8l0,0l0.3,0.1c0.1,0,0.1,0,0.2,0c0,0,0.1-0.1,0.1-0.1l0-0.1c0-0.1,0-0.1,0-0.2
		C80,49,79.4,48.5,78.7,48l0,0c-0.6-0.5-1.2-1-1.7-1.6l-0.1,0.1l0.2,0.1l0.1-0.2l-0.2-0.1l0,0.2l2.4,0.4c0.1,0,0.1,0,0.2,0
		c0,0,0.1-0.1,0.1-0.2l0-0.3c0-0.1,0-0.1-0.1-0.1c-0.2-0.2-0.5-0.4-0.8-0.5c-0.3-0.1-0.5-0.2-0.7-0.3c0,0-0.1,0-0.1,0l-0.9,0.2
		l-0.4-0.3c-0.1,0-0.1,0-0.2,0l-0.4,0.1l0,0l-0.4,0.1l0,0l0-0.1c0-0.1,0-0.2-0.1-0.2l-0.2-0.1L75,45.4l0.2,0l0,0l1.3-0.2
		c0,0,0.1,0,0.1-0.1l0.3-0.4l0.3-0.3l0.2,0c0.1,0,0.1,0,0.1-0.1l0.3-0.4l-0.2-0.1L77.5,44l0.1,0c0.1,0,0.1,0,0.2,0
		c0,0,0.1-0.1,0.1-0.1l0-0.1l0.1,0l1.3,0.4l0,0l1.1,0.1c0.1,0,0.1,0,0.2-0.1l0.1-0.1c0,0,0-0.1,0-0.1l0-0.3c0-0.1,0-0.1-0.1-0.1
		c-0.4-0.4-0.9-0.6-1.4-0.8l0,0c-0.5-0.1-0.9-0.4-1.2-0.8c0,0-0.1-0.1-0.1-0.1l-0.4-0.1c-0.1,0-0.2,0-0.2,0.1c0,0.1-0.1,0.1,0,0.2
		l0,0.1l-0.2,0.4l-1.9-0.1l-1.1-0.7c0,0,0,0-0.1,0l-0.1,0c-0.1,0-0.1,0-0.2,0.1c0,0.1-0.1,0.1,0,0.2l0.2,0.5l0,0.2l0.2,0l0-0.2
		l-1.9-0.2c-0.1,0-0.2,0-0.2,0.1c0,0.1,0,0.2,0,0.2l0.9,0.8c0,0,0.1,0,0.1,0.1l0.9,0.1l0.1,0l0,0.7c0,0.1,0,0.1,0.1,0.1
		c0,0,0.1,0.1,0.2,0l0.2,0c0.1,0,0.1,0,0.1-0.1l0.6-1l-0.2-0.1l0,0.2c0.3,0,0.5,0,0.8,0.1l0,0c0.1,0,0.3,0,0.4,0c0.1,0,0.3,0,0.4,0
		l0-0.2l-0.1,0.2l0,0l-0.3,0.6L76,44c0,0-0.1,0-0.1,0l-0.8-0.1c-0.1,0-0.2,0.1-0.2,0.2c0,0.1,0.1,0.2,0.2,0.2l0.1,0l0-0.2L75,44
		c-0.1,0.2-0.2,0.5-0.5,0.6l0,0c-0.3,0.2-0.5,0.4-0.8,0.5c-0.1,0-0.1,0.1-0.1,0.2c0,0.1,0.1,0.2,0.1,0.2l0.3,0.1l-0.1,0.2l0.2,0.1
		l0-0.2c-0.4,0-0.7,0-1.1,0.1c0,0-0.1,0-0.1,0c-0.3,0-0.6-0.1-0.9-0.2c-0.1,0-0.2,0-0.2,0.1c-0.1,0.1-0.1,0.2,0,0.3l0.6,0.7
		c0,0,0.1,0.1,0.1,0.1l0.8,0l0.1,0l0-0.2l-0.2-0.1l-0.2,0.2l0,0c-0.1,0-0.2,0-0.2,0c-0.1,0-0.1,0.1-0.1,0.2l0,0.2l0.2,0L73,47
		c-0.1,0.3-0.3,0.6-0.6,0.8l0,0c-0.3,0.3-0.5,0.5-0.8,0.7c-0.1,0.1-0.1,0.2-0.1,0.3c0.1,0.1,0.2,0.1,0.3,0.1L71.7,48.7z M71.4,53.2
		l0.1-0.1l-0.3-0.3l-0.1,0.1l0.2-0.1c-0.2-0.4-0.2-0.7-0.2-1.1c0-0.1,0-0.2,0-0.3c0-0.1,0-0.2,0-0.2c0-0.5-0.1-0.9-0.4-1.4L70.5,50
		l0,0.2l0.1,0l0-0.2l-0.1,0.2c0.2,0.1,0.4,0.2,0.5,0.4c0.1,0.2,0.3,0.4,0.5,0.6l0.2-0.1l-0.2,0.1l0.4,0.8l-0.1,1.1L71.5,53
		L71.4,53.2l0.1-0.1L71.4,53.2l-0.1,0.2l0.4,0.1c0.1,0,0.1,0,0.2,0c0,0,0.1-0.1,0.1-0.2l0.1-1.4c0,0,0-0.1,0-0.1L71.7,51l0,0
		c-0.2-0.2-0.3-0.4-0.4-0.6c-0.2-0.2-0.4-0.4-0.6-0.6l0,0l-0.1,0c-0.1,0-0.2,0-0.2,0.1c0,0.1-0.1,0.2,0,0.2c0.2,0.4,0.4,0.8,0.4,1.2
		c0,0.1,0,0.1,0,0.2c0,0.1,0,0.2,0,0.3c0,0.4,0.1,0.9,0.3,1.3c0,0,0,0,0,0.1l0.3,0.3c0,0,0.1,0,0.1,0.1L71.4,53.2z M77.5,56.1
		l0.1-0.2l-0.5-0.5l-0.2-0.8l0.1-0.2l0.5-0.1c0.1,0,0.1,0,0.1-0.1c0.3-0.4,0.6-0.9,0.8-1.4l0,0c0.2-0.5,0.3-1,0.4-1.6l0,0l0-0.3
		c0-0.1,0-0.1-0.1-0.1c-0.2-0.2-0.5-0.4-0.9-0.5c-0.3-0.1-0.6-0.2-0.9-0.2c0,0-0.1,0-0.1,0c-0.5,0.1-1,0.1-1.6,0.1c0,0-0.1,0-0.1,0
		h0c-0.6,0-1.1,0-1.7-0.1l0,0.2l0.1-0.2l-0.7-0.5l-0.1,0.2l0.2,0l0-0.1l-0.2,0l0,0.2c0.1,0,0.1,0,0.2,0c1,0,1.9,0,2.9,0.1
		c1.1,0.1,2.1,0.2,3.2,0.4l0-0.2l-0.1,0.2l1,0.5l0.1-0.2l-0.2,0c0,0,0,0.1,0,0.1c0,0,0,0.1,0,0.1c0,0.1,0.1,0.1,0.2,0.2
		c0.1,0,0.1,0,0.2,0c0,0,0,0,0.1,0l0-0.2l0,0.2l0,0c0,0,0,0,0,0l0,0l0-0.1l-0.1,0c0,0,0,0,0,0l0-0.1l-0.1,0l0.1-0.1l-0.1,0l0,0
		l0.1-0.1l-0.1,0l0,0h0l0,0l0,0h0l0,0c0,0.1,0,0.1,0,0.2l0.1,0.1l0,0.1l-0.5,0.1c0,0-0.1,0-0.1,0.1c-0.5,0.7-0.9,1.4-1.3,2.1l0,0
		c-0.4,0.7-0.8,1.4-1.3,2.1L77.5,56.1l0.1-0.2L77.5,56.1l0.2,0.1c0.5-0.7,0.9-1.4,1.3-2.1l0,0c0.4-0.7,0.9-1.4,1.3-2.1l-0.2-0.1
		l0.1,0.2l0.6-0.2c0.1,0,0.1-0.1,0.1-0.2l0.1-0.3c0-0.1,0-0.1,0-0.2l-0.2-0.2l-0.2,0.1l0.2,0c0,0,0-0.1,0-0.1c0,0,0-0.1,0-0.1
		c0-0.1-0.1-0.1-0.2-0.2c-0.1,0-0.1,0-0.2,0c0,0,0,0-0.1,0l0,0l0,0c0,0,0,0,0,0l0,0l0,0l0,0l0,0l0,0l0,0.1l0.1,0l0,0l0,0.1l0.1,0
		l-0.1,0l0.1,0l0,0l-0.1,0l0.1,0l0,0l0,0l0,0l0,0l0,0l0,0h0v0l0,0h0l0,0c0-0.1,0-0.2-0.1-0.2l-1-0.5c0,0,0,0-0.1,0
		c-1.1-0.2-2.2-0.3-3.3-0.4c-1,0-2-0.1-3-0.1c-0.1,0-0.1,0-0.2,0c-0.1,0-0.2,0.1-0.2,0.2l0,0.1c0,0.1,0,0.2,0.1,0.2l0.7,0.5
		c0,0,0.1,0,0.1,0c0.6,0,1.1,0.1,1.7,0.1h0c0,0,0.1,0,0.1,0c0.6,0,1.1,0,1.6-0.1l0-0.2l-0.1,0.2c0.3,0.1,0.6,0.2,0.9,0.2
		c0.3,0.1,0.5,0.2,0.7,0.4l0.1-0.1l-0.2,0l0,0.3l0.2,0l-0.2,0c-0.1,0.5-0.2,1-0.4,1.5l0,0c-0.2,0.5-0.4,0.9-0.7,1.3l0.2,0.1l0-0.2
		L76.8,54c-0.1,0-0.1,0.1-0.2,0.1l-0.2,0.4c0,0,0,0.1,0,0.1l0.2,1c0,0,0,0.1,0.1,0.1l0.6,0.5c0,0,0.1,0.1,0.2,0.1
		c0.1,0,0.1,0,0.1-0.1L77.5,56.1z M75.1,53.5l0.2-0.1c-0.1-0.1-0.1-0.2-0.3-0.3c-0.1-0.1-0.2-0.1-0.4-0.2c-0.2,0-0.4-0.1-0.6-0.1
		l-0.1,0l-0.5,0l0,0.2l0.1-0.1c-0.2-0.2-0.4-0.5-0.5-0.8l0,0c-0.1-0.4-0.2-0.7-0.4-1l-0.2,0.1l0,0.2l0.2,0.1l0.5,0.4l0.5,0.8
		c0,0,0.1,0.1,0.1,0.1l0.9,0.2c0.1,0,0.2,0,0.2-0.1l0.4-0.8c0-0.1,0-0.2-0.1-0.2c-0.2-0.1-0.4-0.3-0.6-0.3l0,0
		c-0.1-0.1-0.3-0.2-0.4-0.3l-0.2,0.1l0,0.2l0.8-0.1c0.1,0,0.2-0.1,0.2-0.1l0-0.1l-0.2-0.1L75,51.1c0.1,0.1,0.2,0.1,0.4,0.1
		c0.1,0,0.2,0,0.3-0.1L75.6,51l0.1,0.2c0.1-0.1,0.3-0.1,0.4-0.2L76,50.7l-0.2,0.1c0.1,0.2,0.3,0.4,0.5,0.5l0,0
		c0.2,0.1,0.3,0.1,0.5,0.2l0.1-0.2l-0.2,0.1l0.1,0.3l-0.3,0c-0.1,0-0.1,0-0.2,0.1l-0.5,0.9l0,0c-0.1,0-0.1,0-0.2,0.1l-0.4,0.5
		l0.2,0.1l0.2-0.1l0-0.1c-0.1-0.1-0.2-0.1-0.3-0.1L75,53.3L75.1,53.5l0.2-0.1L75.1,53.5l0.1,0.2l0.2-0.1l-0.1-0.2L75.1,53.5
		L75.1,53.5c0.1,0.1,0.1,0.2,0.2,0.2c0.1,0,0.1,0,0.2-0.1l0.4-0.4l0,0c0.1,0,0.2,0,0.2-0.1l0.5-0.9l0.5,0c0.1,0,0.1,0,0.2-0.1
		c0-0.1,0-0.1,0-0.2l-0.2-0.6c0,0,0-0.1-0.1-0.1c-0.2-0.1-0.4-0.2-0.5-0.3l-0.1,0.2l0.1-0.2c-0.1,0-0.2-0.1-0.3-0.3
		c-0.1-0.1-0.2-0.1-0.3-0.1c-0.2,0.1-0.3,0.1-0.5,0.2l0,0c0,0-0.1,0-0.1,0c0,0-0.1,0-0.2-0.1c-0.1,0-0.1,0-0.2,0
		c-0.1,0-0.1,0.1-0.1,0.1l0,0l-0.6,0c-0.1,0-0.1,0-0.2,0.1c0,0.1,0,0.1,0,0.2c0.1,0.2,0.3,0.4,0.6,0.5l0.1-0.2l-0.1,0.2
		c0.2,0.1,0.3,0.2,0.5,0.3l0.1-0.2l-0.2-0.1l-0.3,0.7l-0.7-0.2l-0.5-0.8c0,0,0,0,0-0.1L73,51c0,0-0.1,0-0.1,0l-0.3-0.1
		c-0.1,0-0.2,0-0.2,0.1c0,0.1-0.1,0.2,0,0.2c0.2,0.3,0.3,0.6,0.4,0.9l0,0c0.1,0.4,0.3,0.7,0.6,1c0,0,0.1,0.1,0.2,0.1l0.5,0l0-0.2
		l0,0.2c0.2,0,0.4,0.1,0.6,0.1c0.1,0,0.1,0,0.2,0.1c0,0,0.1,0.1,0.1,0.2c0,0,0.1,0.1,0.1,0.1c0.1,0,0.1,0,0.2,0L75.1,53.5z
		 M75.4,48.7l0.2,0.1l0.5-1c0-0.1,0-0.1,0-0.2c0-0.1-0.1-0.1-0.1-0.1c-0.3-0.1-0.6-0.1-0.8-0.2l0,0.2l0.1-0.2
		c-0.2-0.1-0.4-0.2-0.5-0.4c0-0.1-0.1-0.1-0.2-0.1c-0.1,0-0.1,0-0.2,0.1l-0.5,0.7c0,0.1-0.1,0.1,0,0.2l0.2,0.7l-0.1,0.2
		c0,0.1,0,0.1,0,0.2c0,0.1,0.1,0.1,0.1,0.1l0.2,0.1c0,0,0,0,0.1,0l1.2-0.1c0.1,0,0.1-0.1,0.2-0.1L75.4,48.7l0-0.2l-1.1,0.1l-0.2,0
		l0,0.2l0.2,0.1l0.1-0.3c0,0,0-0.1,0-0.2l-0.2-0.7l0.5-0.6L74.4,47l-0.2,0.1c0.2,0.3,0.4,0.5,0.8,0.6l0,0c0.3,0.1,0.5,0.1,0.8,0.2
		l0.1-0.2l-0.2-0.1l-0.5,1L75.4,48.7l0-0.2L75.4,48.7z M75.9,47.2l0.1,0.2l0.4-0.2c0.1,0,0.1-0.1,0.1-0.1c0-0.1,0-0.1,0-0.2
		l-0.6-0.7c0-0.1-0.1-0.1-0.2-0.1l-0.9,0.2c0,0-0.1,0-0.1,0.1l-0.4,0.5c0,0-0.1,0.1,0,0.2c0,0.1,0,0.1,0.1,0.1l0.5,0.3
		c0,0,0.1,0,0.1,0l0.9,0c0,0,0.1,0,0.1,0L75.9,47.2l0-0.2L75,47l-0.2-0.1l0.2-0.2l0.7-0.1l0.3,0.4L75.8,47L75.9,47.2l0-0.2
		L75.9,47.2z"/>
	<path class="st0" d="M76.3,70.9c-0.5-0.1-1-0.3-1.4-0.5c-0.5-0.2-0.9-0.4-1.2-0.8l0-0.1c-0.3-0.3-0.7-0.7-1-1.1
		c-0.3-0.4-0.6-0.7-1-1.1l-1.1,0.8l-0.2,0.2c-0.3,0.1-0.6,0.1-0.9,0.2c-0.3,0.1-0.6,0.1-0.8,0.1l0-0.1c0.5-0.2,0.9-0.4,1.3-0.7
		c0.4-0.3,0.7-0.6,1.1-1l0.2-0.4l-0.1-0.3l-1.2-1l-0.1,0.3l-0.2-0.1c-0.2,0.4-0.5,0.7-0.8,1c-0.3,0.3-0.6,0.6-0.8,1l-0.4,0.2l-0.3,0
		L67,68l-0.2,0l0-0.1c0.7-0.6,1.4-1.3,1.9-2.1c0.5-0.8,1-1.6,1.3-2.5c0-0.1,0-0.2,0-0.3s0-0.2-0.1-0.3l-0.2-0.1l-0.5,0.1l0,0.1
		c-0.3,0-0.6,0-1,0.1c-0.3,0.1-0.6,0.1-0.9,0.1l-0.9-0.9l0-0.1c0.7-0.1,1.5-0.2,2.3-0.1c0.8,0,1.6,0.1,2.4,0.1l0.1-0.7l-0.1,0
		l-0.1,0.1l-0.4,0L70,61.2l0-0.1c-0.2-0.1-0.3-0.2-0.4-0.3c-0.1-0.1-0.2-0.3-0.4-0.5c0.4,0.1,0.8,0.1,1.2,0.2c0.4,0,0.8,0.1,1.2,0.1
		l0.1-0.5L71.6,60L71,60l-0.7-0.5l-0.6-0.7l0-0.1l0.5,0.1c0.1,0.1,0.2,0.2,0.4,0.2c0.2,0,0.4,0.1,0.5,0.1l0.9,0l0.5-2l0-0.2l0.1,0
		l0.9,0.9l0,1.1l0.3,0.1l0-0.1l0.2,0.1l0.3,0.1l0,0.1l0.3,0.2l0.1,0.4c-0.3,0-0.6,0-0.9,0c-0.3,0-0.6,0-0.9,0l-0.4,0.7l0.1,0
		c0.3,0,0.5,0,0.7-0.1c0.2,0,0.4,0,0.7,0.1l0.4,0.3l0.1,0.3c-0.4,0-0.8-0.1-1.2-0.2c-0.4-0.1-0.8-0.1-1.2,0L71.4,62l0.4,0.1l0.5,0
		l2.9,0.7l1,0.2l0-0.1l0.2,0.1l0.4,0.3l0,0.1c0.1,0.1,0.2,0.1,0.3,0.2c0.1,0.1,0.2,0.2,0.3,0.3l0,0.1l0.1,0l0,0.1L77,63.9l-3.2-1
		l-1.6-0.3l-0.2-0.1l-0.2,0l-0.2-0.1l-0.6,0l0,0.1l-0.6,0l0,0.1l0.5,0.7l0,0.1l0.2,0.2l0,0.3l-0.3,0.6l-0.1,0l-0.2,0.4
		c0.3,0.1,0.5,0.3,0.7,0.5c0.2,0.2,0.4,0.4,0.7,0.5l0.6-1.4L72,64.1l-0.2-0.3l0,0c0.2,0.1,0.4,0.1,0.6,0c0.2-0.1,0.4-0.1,0.6-0.1
		l0.9,0.9l0,0.2l-0.3,0.1c-0.1,0.2-0.2,0.4-0.4,0.6c-0.2,0.2-0.3,0.4-0.4,0.6l-0.2,0l-0.3,0.7l0.1,0.3l1.3,1.2l0,0.1
		c0.6,0.4,1.3,0.8,2,1.1c0.7,0.3,1.3,0.6,2,1.1l-0.1,0L77.3,71c-0.2,0-0.4,0-0.5,0C76.6,70.9,76.4,70.9,76.3,70.9z"/>
	<path class="st0" d="M76.3,70.9l0.1-0.2c-0.5-0.1-0.9-0.3-1.4-0.5c-0.4-0.2-0.8-0.4-1.1-0.7l-0.1,0.1l0.2,0l0-0.1
		c0-0.1,0-0.1-0.1-0.2c-0.3-0.3-0.7-0.7-1-1.1l0,0c-0.3-0.4-0.7-0.8-1-1.1c-0.1-0.1-0.2-0.1-0.3,0L70.5,68l0,0l-0.2,0.2l0.1,0.2
		l0-0.2c-0.3,0.1-0.6,0.1-0.9,0.2l0,0c-0.2,0.1-0.4,0.1-0.6,0.1c-0.1,0-0.1,0-0.2,0l0,0.2l0.2,0l0-0.1l-0.2,0l0.1,0.2
		c0.5-0.2,0.9-0.4,1.3-0.8L70,67.9l0.1,0.2c0.4-0.3,0.8-0.6,1.1-1l0,0l0.2-0.4c0,0,0-0.1,0-0.1l-0.1-0.3c0,0,0-0.1-0.1-0.1l-1.2-1
		c0,0-0.1-0.1-0.2,0c-0.1,0-0.1,0.1-0.1,0.1l-0.1,0.1l-0.1,0c-0.1,0-0.2,0-0.2,0.1c-0.2,0.4-0.4,0.7-0.7,1l0,0
		c-0.3,0.3-0.6,0.7-0.8,1l0.2,0.1l-0.1-0.2l-0.3,0.2l-0.2,0c0,0-0.1,0-0.1,0l-0.3,0.2l-0.1,0l0,0.2l0.2,0l0-0.1l-0.2,0L67,68
		c0.7-0.6,1.4-1.3,1.9-2.1l0,0c0.6-0.8,1-1.6,1.3-2.6c0,0,0-0.1,0-0.1c0,0,0,0,0-0.1c0,0,0-0.1,0-0.1l0,0c0,0,0-0.1,0-0.1
		c0-0.1,0-0.2-0.1-0.2c0-0.1-0.1-0.1-0.2-0.2c0,0,0,0-0.1,0l-0.2-0.1c0,0-0.1,0-0.1,0l-0.5,0.1c-0.1,0-0.1,0.1-0.2,0.2l0,0.1l0.2,0
		l0-0.2c-0.1,0-0.2,0-0.3,0c-0.2,0-0.5,0-0.7,0.1l0,0c-0.3,0.1-0.6,0.1-0.9,0.1l0,0.2l0.1-0.1L66.7,62l0,0l-0.2,0l0,0.2
		c0.6-0.1,1.2-0.1,1.8-0.1c0.2,0,0.3,0,0.5,0c0.8,0,1.6,0.1,2.4,0.1c0.1,0,0.2-0.1,0.2-0.2l0.1-0.7c0-0.1,0-0.2-0.2-0.2l-0.1,0
		c-0.1,0-0.2,0-0.2,0.1l0,0l-0.3,0L70.1,61L70,61.2l0.2,0l0-0.1c0-0.1,0-0.2-0.1-0.2c-0.1-0.1-0.2-0.2-0.3-0.3l0,0
		c-0.1-0.1-0.2-0.3-0.4-0.5l-0.2,0.1l0,0.2c0.4,0.1,0.8,0.2,1.2,0.2c0.4,0,0.8,0.1,1.2,0.1c0.1,0,0.2-0.1,0.2-0.2l0.1-0.5
		c0-0.1,0-0.2-0.2-0.2l-0.2-0.1c0,0,0,0-0.1,0l-0.4,0l-0.6-0.4l-0.6-0.7l-0.2,0.1l0.2,0l0-0.1l-0.2,0l0,0.2l0.5,0.1l0-0.2l-0.2,0.1
		c0.1,0.1,0.3,0.2,0.5,0.3l0,0c0.2,0,0.4,0.1,0.5,0.1l0,0l0.9,0c0.1,0,0.2-0.1,0.2-0.2l0.5-2c0,0,0,0,0-0.1l0-0.2l-0.2,0l0,0.2
		l0.1,0l0.8,0.8l0,1c0,0.1,0,0.2,0.1,0.2l0.3,0.1c0.1,0,0.1,0,0.2,0c0.1,0,0.1-0.1,0.1-0.1l0-0.1l-0.2,0l0,0.2l0.2,0l0.3,0.1
		l0.1-0.2l-0.2,0l0,0.1c0,0.1,0,0.2,0.1,0.2l0.3,0.2l0.1,0.3l0.2,0l0-0.2c-0.1,0-0.2,0-0.3,0c-0.2,0-0.4,0-0.6,0c-0.2,0-0.4,0-0.5,0
		c-0.1,0-0.2,0-0.3,0c-0.1,0-0.1,0-0.2,0.1l-0.4,0.7c0,0.1,0,0.1,0,0.2c0,0.1,0.1,0.1,0.1,0.1l0.1,0c0,0,0,0,0.1,0
		c0.3,0,0.5,0,0.7-0.1l0-0.2l0,0.2l0.1,0c0.2,0,0.4,0,0.6,0.1l0.1-0.2l-0.1,0.2l0.3,0.3l0,0.3l0.2,0l0-0.2c-0.4,0-0.8-0.1-1.2-0.2
		l0,0c-0.2,0-0.4-0.1-0.6-0.1c-0.2,0-0.5,0-0.7,0.1c0,0-0.1,0-0.1,0.1l-0.6,0.7c0,0.1-0.1,0.1,0,0.2c0,0.1,0.1,0.1,0.1,0.1l0.4,0.1
		l0.1,0l0.5,0l2.9,0.6l0,0l1,0.2c0.1,0,0.2,0,0.2-0.2l0-0.1l-0.2,0l0,0.2l0.2,0l0.4,0.3l0.1-0.2l-0.2,0l0,0.1c0,0.1,0,0.2,0.1,0.2
		c0.1,0.1,0.2,0.1,0.3,0.2l0.1-0.2l-0.1,0.2c0.1,0.1,0.2,0.1,0.3,0.2l0.1-0.1l-0.2,0l0,0.1c0,0.1,0,0.2,0.2,0.2l0.1,0l0-0.2l-0.2,0
		l0,0.1l0.2,0l0-0.2L77,63.7l-3.2-1l0,0l-1.6-0.2L72,62.3c0,0-0.1,0-0.1,0l-0.2,0l-0.2-0.1c0,0-0.1,0-0.1,0l-0.6,0
		c-0.1,0-0.2,0.1-0.2,0.2l0,0.1l0.2,0l0-0.2l-0.6,0c-0.1,0-0.2,0.1-0.2,0.2l0,0.1c0,0.1,0,0.1,0,0.2l0.5,0.6l0,0c0,0.1,0,0.1,0,0.2
		l0.1,0.2l0,0.2l-0.3,0.5l0.2,0.1l0-0.2l-0.1,0c-0.1,0-0.2,0-0.2,0.1l-0.2,0.4c0,0.1,0,0.1,0,0.2c0,0.1,0.1,0.1,0.1,0.1
		c0.2,0.1,0.5,0.2,0.7,0.4l0,0c0.2,0.2,0.5,0.4,0.7,0.6c0,0,0.1,0.1,0.2,0c0.1,0,0.1-0.1,0.1-0.1l0.6-1.4c0-0.1,0-0.2,0-0.2L72.1,64
		l-0.2-0.3l-0.2,0.1l0.2,0.1l0,0l-0.2-0.1l-0.1,0.2c0.1,0,0.3,0.1,0.4,0.1c0.1,0,0.3,0,0.4-0.1l0,0c0.1,0,0.2-0.1,0.3-0.1
		c0.1,0,0.1,0,0.2,0l0-0.2l-0.1,0.1l0.8,0.8v0l-0.1,0c-0.1,0-0.1,0.1-0.1,0.1c-0.1,0.2-0.2,0.4-0.4,0.5l0.1,0.1l-0.1-0.1
		c-0.2,0.2-0.3,0.4-0.5,0.6l0.2,0.1l0-0.2l-0.2,0c-0.1,0-0.1,0-0.2,0.1L72,66.7c0,0,0,0.1,0,0.1l0.1,0.3c0,0,0,0.1,0.1,0.1l1.3,1.2
		l0,0.1c0,0,0,0.1,0.1,0.1c0.6,0.4,1.3,0.8,2,1.1l0,0c0.7,0.3,1.3,0.6,1.9,1.1l0.1-0.2l0-0.2l-0.1,0c-0.1,0-0.2,0-0.2,0.1l-0.2,0.4
		l0.2,0.1l-0.1-0.2c-0.1,0-0.2,0-0.2,0c-0.1,0-0.1,0-0.2,0l0,0c-0.2,0-0.3-0.1-0.5-0.1L76.3,70.9l0.1-0.2L76.3,70.9l0,0.2
		c0.2,0,0.3,0.1,0.5,0.1l0-0.2l0,0.2c0.1,0,0.2,0,0.3,0c0.1,0,0.2,0,0.3,0c0.1,0,0.1-0.1,0.1-0.1l0.2-0.4l-0.2-0.1l0,0.2l0.1,0
		c0.1,0,0.2,0,0.2-0.1c0-0.1,0-0.2-0.1-0.3c-0.6-0.4-1.3-0.8-2-1.1l0,0c-0.7-0.3-1.3-0.6-1.9-1l-0.1,0.2l0.2-0.1l0-0.1
		c0,0,0-0.1-0.1-0.1L72.5,67l0-0.1l0.3-0.5l0.1,0c0.1,0,0.1,0,0.2-0.1c0.1-0.2,0.2-0.4,0.4-0.5l0,0c0.2-0.2,0.3-0.4,0.4-0.7
		l-0.2-0.1l0,0.2l0.3-0.1c0.1,0,0.2-0.1,0.2-0.2l0-0.2c0,0,0-0.1-0.1-0.1l-0.9-0.9c0,0-0.1,0-0.1-0.1c-0.1,0-0.2,0-0.2,0
		c-0.2,0-0.3,0-0.5,0.1l0.1,0.2l-0.1-0.2c-0.1,0-0.1,0-0.2,0c-0.1,0-0.2,0-0.3-0.1c-0.1,0-0.1,0-0.2,0c-0.1,0-0.1,0.1-0.1,0.1l0,0
		c0,0.1,0,0.1,0,0.2l0.2,0.3l0,0l0.3,0.3l-0.6,1.3l0.2,0.1l0.1-0.2c-0.2-0.2-0.4-0.3-0.7-0.5l0,0c-0.2-0.2-0.5-0.4-0.8-0.5l-0.1,0.2
		l0.2,0.1l0.2-0.4l-0.2-0.1l0,0.2l0.1,0c0.1,0,0.2,0,0.2-0.1l0.3-0.6c0,0,0-0.1,0-0.1l0-0.3c0,0,0-0.1,0-0.1L71,63.4l0,0
		c0-0.1,0-0.1,0-0.2l-0.5-0.6l0,0l-0.2,0l0,0.2l0.6,0c0.1,0,0.2-0.1,0.2-0.2l0-0.1l-0.2,0l0,0.2l0.5,0l0.2,0.1c0,0,0.1,0,0.1,0
		l0.1,0l0.1,0.1c0,0,0,0,0.1,0l1.6,0.3l3.2,1l0,0l0.6,0.1c0.1,0,0.2-0.1,0.2-0.2l0-0.1c0-0.1,0-0.2-0.1-0.2l-0.1,0l0,0.2l0.2,0
		l0-0.1c0-0.1,0-0.1-0.1-0.2c-0.1-0.1-0.2-0.2-0.4-0.3l0,0c-0.1-0.1-0.2-0.1-0.3-0.2l-0.1,0.2l0.2,0l0-0.1c0-0.1,0-0.2-0.1-0.2
		l-0.4-0.3c0,0,0,0-0.1,0l-0.2-0.1c-0.1,0-0.2,0-0.2,0.1l0,0.1l0.2,0l0-0.2l-1-0.2l-2.9-0.6l-0.1,0l-0.5,0l0,0l0.4-0.4L72,61.3
		l0,0.2c0.2,0,0.4-0.1,0.6-0.1c0.2,0,0.3,0,0.5,0l0,0c0.4,0.1,0.8,0.1,1.2,0.2c0.1,0,0.1,0,0.2-0.1c0,0,0.1-0.1,0.1-0.2l-0.1-0.3
		c0,0,0-0.1-0.1-0.1l-0.4-0.3c0,0,0,0-0.1,0c-0.3-0.1-0.5-0.2-0.7-0.2c0,0-0.1,0-0.1,0l0,0c-0.2,0-0.4,0-0.7,0.1l0,0.2l0-0.2l-0.1,0
		l0,0.2l0.2,0.1l0.4-0.7L72.9,60l0,0.2c0.1,0,0.2,0,0.3,0c0.2,0,0.4,0,0.6,0c0.2,0,0.4,0,0.5,0c0.1,0,0.2,0,0.3,0
		c0.1,0,0.1,0,0.2-0.1c0,0,0.1-0.1,0-0.2l-0.1-0.4c0-0.1,0-0.1-0.1-0.1l-0.3-0.2l-0.1,0.2l0.2,0l0-0.1c0-0.1,0-0.2-0.1-0.2L74,58.9
		l0,0l-0.2-0.1c-0.1,0-0.1,0-0.2,0c0,0-0.1,0.1-0.1,0.1l0,0.1l0.2,0l0.1-0.2l-0.2-0.1l0-0.9c0-0.1,0-0.1-0.1-0.1l-0.9-0.9
		c0,0-0.1-0.1-0.1-0.1l-0.1,0c-0.1,0-0.1,0-0.2,0c-0.1,0-0.1,0.1-0.1,0.2l0,0.2l-0.4,1.8l-0.7,0l0,0.2l0-0.2c-0.2,0-0.3-0.1-0.5-0.1
		l0,0c-0.2,0-0.3-0.1-0.3-0.2c0,0-0.1-0.1-0.1-0.1l-0.5-0.1c-0.1,0-0.1,0-0.2,0c0,0-0.1,0.1-0.1,0.1l0,0.1c0,0.1,0,0.1,0,0.2
		l0.6,0.7l0,0l0.7,0.5c0,0,0.1,0,0.1,0l0.5,0l0,0l-0.1,0.3l0.2,0l0-0.2c-0.4,0-0.8-0.1-1.2-0.1c-0.4,0-0.8-0.1-1.2-0.2
		c-0.1,0-0.2,0-0.2,0.1c0,0.1,0,0.2,0,0.2c0.1,0.2,0.2,0.3,0.4,0.5l0.2-0.1l-0.2,0.1c0.1,0.2,0.3,0.3,0.5,0.4l0.1-0.2l-0.2,0l0,0.1
		c0,0.1,0,0.2,0.1,0.2l0.6,0.2c0,0,0,0,0.1,0l0.4,0c0.1,0,0.1,0,0.2-0.1l0.1-0.1l-0.2-0.1l0,0.2l0.1,0l0-0.2l-0.2,0L71,61.9l0.2,0
		l0-0.2c-0.8,0-1.6-0.1-2.4-0.1c-0.2,0-0.3,0-0.5,0c-0.6,0-1.3,0.1-1.9,0.2c-0.1,0-0.1,0.1-0.2,0.2l0,0.1c0,0.1,0,0.1,0.1,0.2
		l0.9,0.9c0,0,0.1,0.1,0.2,0.1c0.3,0,0.6-0.1,0.9-0.1l0,0c0.2-0.1,0.4-0.1,0.6-0.1c0.1,0,0.2,0,0.3,0c0.1,0,0.2-0.1,0.2-0.2l0-0.1
		l-0.2,0l0,0.2l0.4-0.1l0.2,0l0-0.2l-0.1,0.2c0,0,0,0,0,0l0,0l0,0l0,0c0,0.1,0,0.2,0,0.2c0,0.1,0,0.1,0,0.2l0.2-0.1l-0.2-0.1
		c-0.3,0.9-0.7,1.7-1.2,2.5l0,0c-0.5,0.7-1.2,1.4-1.9,2c0,0-0.1,0.1-0.1,0.1l0,0.1c0,0.1,0,0.1,0,0.2c0,0,0.1,0.1,0.1,0.1l0.2,0
		c0.1,0,0.1,0,0.2,0l0.3-0.2l0.2,0c0,0,0.1,0,0.1,0l0.4-0.2c0,0,0,0,0.1-0.1c0.2-0.3,0.5-0.7,0.8-1l0,0c0.3-0.3,0.6-0.7,0.8-1.1
		l-0.2-0.1l0,0.2l0.2,0.1c0.1,0,0.2,0,0.2-0.1l0,0l1,0.8l0,0.1l-0.2,0.4l0.2,0.1l-0.1-0.1c-0.3,0.3-0.7,0.7-1,0.9l0,0
		c-0.4,0.3-0.8,0.5-1.2,0.7c-0.1,0-0.1,0.1-0.1,0.1l0,0.1c0,0.1,0,0.1,0,0.2c0,0,0.1,0.1,0.1,0.1c0.1,0,0.1,0,0.2,0
		c0.2,0,0.5,0,0.7-0.1l-0.1-0.2l0.1,0.2c0.3-0.1,0.5-0.1,0.8-0.2c0,0,0.1,0,0.1,0l0.2-0.2l1-0.8l-0.1-0.2l-0.1,0.1
		c0.3,0.3,0.7,0.7,1,1.1l0.2-0.1l-0.2,0.1c0.3,0.4,0.7,0.8,1,1.1l0.1-0.1l-0.2,0l0,0.1c0,0.1,0,0.1,0.1,0.2c0.4,0.4,0.8,0.6,1.3,0.8
		c0.5,0.2,0.9,0.3,1.4,0.5l0,0L76.3,70.9z"/>
	<path class="st9" d="M58.9,74.7c0.1-0.1,0.2-0.1,0.3-0.2c0.1-0.1,0.1-0.2,0.2-0.3l0-0.1l0.1,0l0.1-0.1l-0.1,0l-0.3,0l-0.3-0.2
		c0.1,0,0.3,0,0.4,0c0.1,0,0.2,0,0.4-0.1l0-0.1l-0.2,0c0.1-0.1,0.2-0.1,0.3-0.2c0.1-0.1,0.1-0.1,0.1-0.2h0l0.3,0l0.2,0.1l0.1-0.3
		l-0.1,0c-0.1,0-0.2,0-0.3,0s-0.2,0-0.3,0l-0.2,0.3l-0.1,0l-0.1-0.2l-0.1,0h-0.4L58.7,73l0.7,0l0-0.1l-0.1-0.1l0,0l0.5,0.2l0.8-0.1
		l0-0.2l0,0l0.1,0c0.2,0.1,0.3,0.2,0.5,0.2c0.2,0,0.4,0.1,0.5,0.1l0,0.1l0,0l-0.4,0l-0.5,0l-0.1,0l0,0.1l-0.1,0l-0.1,0.1l-0.1,0
		l-0.1,0.1l-0.1,0.1l-0.5,0.1l0,0l0.1,0l0,0.1l0.1,0l0.1-0.1l0.1,0l0.2,0.1l0.3-0.1c0.1,0,0.2,0,0.3,0.1c0.1,0,0.2,0,0.3,0.1l0,0.1
		l-0.9,0l0,0c0.2,0.1,0.5,0.3,0.7,0.4c0.3,0.1,0.5,0.2,0.7,0.4l0,0l-0.1,0c-0.2-0.1-0.4-0.1-0.6-0.2c-0.2-0.1-0.4-0.1-0.6-0.2
		l-0.1,0c0,0.1-0.1,0.1-0.1,0.2c0,0.1-0.1,0.1-0.1,0.2c-0.1,0-0.2,0-0.3,0c-0.1,0-0.2,0-0.3,0l-0.2,0l-0.1,0l-0.1-0.3l-0.1,0
		L58.9,74.7z M59.1,76L59,75.9c-0.1-0.1-0.2-0.3-0.2-0.4c0-0.1-0.1-0.3-0.2-0.4l0,0c0.1,0,0.2,0.1,0.2,0.1c0.1,0.1,0.1,0.1,0.2,0.2
		l0.2,0.2l0,0.4L59.1,76z M61.5,76.5l-0.2-0.1l-0.1-0.3l0-0.1l0.2,0c0.1-0.1,0.1-0.3,0.2-0.4c0-0.1,0-0.3,0-0.4l0-0.1
		c-0.1,0-0.2-0.1-0.3-0.1c-0.1,0-0.2,0-0.3,0c-0.2,0-0.4,0.1-0.6,0.1c-0.2,0-0.4,0-0.6,0.1L59.4,75l0,0c0.4,0,0.7-0.1,1.1-0.1
		c0.4,0,0.8,0,1.2,0l0.4,0.1c0,0,0,0.1,0.1,0.1c0.1,0,0.1,0,0.1,0l0.1,0l0,0.1l-0.2,0.1c-0.1,0.2-0.2,0.4-0.3,0.6
		C61.7,76.1,61.6,76.3,61.5,76.5z M60.5,75.9c-0.1-0.1-0.1-0.1-0.2-0.1c-0.1,0-0.1,0-0.2,0l-0.2,0c-0.1-0.1-0.2-0.1-0.2-0.2
		c-0.1-0.1-0.1-0.2-0.2-0.3l0.1,0l0.2,0.1l0.2,0.2l0.4,0l0.1-0.3c-0.1,0-0.1-0.1-0.2-0.1c-0.1,0-0.1,0-0.2-0.1l0.3-0.1l0,0
		c0.1,0,0.1,0,0.2,0c0,0,0.1-0.1,0.1-0.1c0.1,0,0.1,0.1,0.2,0.1c0.1,0,0.1,0,0.2,0l0.1,0.2l-0.2,0l-0.1,0.3h-0.1L60.5,75.9
		L60.5,75.9L60.5,75.9z M60.3,74.6l0.1-0.3c-0.1,0-0.2,0-0.3,0c-0.1,0-0.2,0-0.3-0.1l-0.1,0.2l0.1,0.2l0,0.1l0.1,0L60.3,74.6z
		 M60.3,74.1l0.2-0.1l-0.3-0.2L59.9,74l-0.1,0.2l0.2,0.1L60.3,74.1z"/>
	<path class="st9" d="M58.9,74.7L58.9,74.7c0.1,0,0.2-0.1,0.3-0.2l0,0l0,0c0.1-0.1,0.1-0.2,0.2-0.3l0,0l0-0.1l-0.1,0l0,0.1l0.1,0
		c0,0,0.1,0,0.1,0l0.1-0.1c0,0,0,0,0-0.1c0,0,0,0-0.1,0l-0.1,0h0l-0.3,0l-0.2-0.2l0,0.1l0,0.1c0.1,0,0.2,0,0.2,0c0.1,0,0.1,0,0.2,0
		c0.1,0,0.2,0,0.4-0.1c0,0,0,0,0.1,0l0-0.1c0,0,0,0,0-0.1c0,0,0,0,0,0l-0.2,0l0,0.1l0,0.1c0.1-0.1,0.2-0.1,0.3-0.2l0,0l0,0.1
		c0.1-0.1,0.1-0.2,0.2-0.3c0,0,0,0,0-0.1c0,0,0,0-0.1,0h0v0.1l0,0.1l0.3,0l0.2,0.1c0,0,0.1,0,0.1,0l0.1-0.3c0,0,0-0.1,0-0.1l-0.1,0
		l0,0c-0.1,0-0.2,0-0.3,0c-0.1,0-0.2,0-0.3,0c0,0,0,0-0.1,0l-0.1,0.3l-0.1,0l0,0.1l0.1,0l-0.1-0.2c0,0,0,0,0,0l-0.1,0l0,0h-0.3
		L58.9,73l0.4,0c0,0,0.1,0,0.1-0.1l0-0.1l0,0l-0.1-0.1l-0.1,0l0,0.1l0,0l0.5,0.2l0,0l0.8-0.1c0,0,0.1,0,0.1,0l0-0.2c0,0,0,0,0-0.1
		l0,0l0,0l0,0.1l0.1,0l0-0.1l0,0.1c0.2,0.1,0.4,0.2,0.6,0.2l0,0c0.2,0,0.3,0.1,0.5,0.1l0-0.1l-0.1,0l0,0.1l0,0l0.1,0l0-0.1l-0.4,0
		l-0.5,0l0,0l-0.1,0c0,0-0.1,0-0.1,0.1l0,0.1l0.1,0l0-0.1l-0.1,0c0,0-0.1,0-0.1,0l0,0.1l-0.1,0l0,0l-0.1,0.1l0,0l-0.1,0.1l-0.5,0.1
		c0,0,0,0,0,0.1l0,0c0,0,0,0.1,0,0.1l0,0l0,0c0,0,0,0.1,0.1,0.1l0.1,0l0,0l0.1-0.1l0-0.1l0,0.1l0.1,0l0.2,0.1l0,0l0.3-0.1l0-0.1
		l0,0.1c0.1,0,0.2,0,0.3,0.1l0,0c0.1,0,0.2,0,0.3,0.1l0-0.1l-0.1,0l0,0.1l0.1,0l0-0.1l-0.9,0c0,0-0.1,0-0.1,0.1l0,0c0,0,0,0.1,0,0.1
		c0.2,0.1,0.5,0.3,0.7,0.4l0-0.1l0,0.1c0.3,0.1,0.5,0.2,0.7,0.4l0-0.1l-0.1,0l0,0l0.1,0l0-0.1l-0.1,0l0,0.1l0-0.1
		c-0.2-0.1-0.4-0.1-0.6-0.2l0,0c-0.2-0.1-0.4-0.1-0.6-0.2l0,0l-0.1,0l0,0c0,0.1-0.1,0.1-0.1,0.2l0.1,0l-0.1,0c0,0,0,0.1-0.1,0.1
		l0,0.1l0-0.1c0,0,0,0-0.1,0c-0.1,0-0.2,0-0.3,0.1c-0.1,0-0.1,0-0.2,0c0,0-0.1,0-0.1,0l0,0l-0.2,0l0,0l-0.1,0l0,0.1l0.1,0l-0.1-0.3
		c0,0,0,0-0.1,0l-0.1,0l0,0L58.9,74.7L58.9,74.7L58.9,74.7L58.9,74.7L58.9,74.7l0.5-0.2l0,0l0-0.1l-0.1,0l0.1,0.3c0,0,0,0.1,0.1,0
		l0,0l0.2,0l0-0.1l0,0.1c0.1,0,0.1,0,0.2,0c0.1,0,0.2,0,0.2,0c0.1,0,0.2,0,0.2,0l0.1,0l0,0c0.1,0,0.1-0.1,0.1-0.2l0,0
		c0-0.1,0-0.1,0.1-0.2l-0.1,0l0,0.1l0.1,0l0-0.1l0,0.1c0.2,0.1,0.4,0.1,0.6,0.2l0-0.1l0,0.1c0.2,0.1,0.4,0.1,0.6,0.2l0,0l0.1,0
		c0,0,0.1,0,0.1-0.1l0,0c0,0,0-0.1,0-0.1c-0.2-0.1-0.5-0.3-0.7-0.4l0,0c-0.3-0.1-0.5-0.2-0.7-0.4l0,0.1l0.1,0l0,0l-0.1,0l0,0.1
		l0.9,0c0,0,0,0,0.1,0c0,0,0,0,0-0.1l0-0.1l0,0c-0.1-0.1-0.2-0.1-0.3-0.1l0,0.1l0-0.1c-0.1,0-0.2,0-0.3-0.1l0,0l-0.3,0.1l-0.2-0.1
		l0,0l-0.1,0l0,0l-0.1,0l0,0l0,0c0,0,0-0.1,0-0.1l-0.1,0l0,0.1l0.1,0l0,0l-0.1,0l0,0.1l0.5-0.1l0,0l0.1-0.1l0.1-0.1l0.1,0
		c0,0,0,0,0,0l0-0.1l0,0c0,0,0.1,0,0.1-0.1l0,0l0,0l0.5,0l0,0l0.4,0c0,0,0,0,0,0l0,0c0,0,0,0,0-0.1l0-0.1c0,0,0,0,0,0
		c-0.2-0.1-0.3-0.1-0.5-0.2l0,0.1l0-0.1c-0.2,0-0.3-0.1-0.5-0.2l0,0l-0.1,0c0,0-0.1,0-0.1,0c0,0,0,0.1,0,0.1l0,0l0,0.1l-0.7,0.1
		l-0.4-0.2l0,0l0,0c0,0-0.1,0-0.1,0c0,0,0,0.1,0,0.1l0.1,0.1l0,0l0.1,0l0-0.1l-0.7,0c0,0-0.1,0-0.1,0.1c0,0,0,0.1,0,0.1l0.4,0.2l0,0
		h0.3l0,0l0.1,0.2c0,0,0,0.1,0.1,0l0.1,0c0,0,0,0,0,0l0.2-0.3l-0.1,0l0,0.1c0.1,0,0.2,0,0.3,0c0.1,0,0.2,0,0.3,0l0-0.1l0,0.1l0,0
		l-0.1,0.2l-0.2-0.1l0,0l-0.3,0c0,0-0.1,0-0.1,0.1c0,0,0,0.1,0.1,0.1h0v-0.1l-0.1,0c0,0.1-0.1,0.1-0.1,0.2l0,0
		c-0.1,0.1-0.2,0.1-0.2,0.2c0,0,0,0,0,0.1c0,0,0,0,0.1,0.1l0.1,0l0,0.1l0.1,0l0-0.1c-0.1,0-0.3,0-0.4,0.1c0,0-0.1,0-0.2,0
		c-0.1,0-0.1,0-0.2,0c0,0-0.1,0-0.1,0c0,0,0,0.1,0,0.1l0.3,0.2l0,0l0.3,0l0,0l0-0.1l-0.1,0l0,0.1l0,0c0,0-0.1,0-0.1,0c0,0,0,0,0,0.1
		l0,0.1l0.1,0l-0.1,0c0,0.1-0.1,0.2-0.1,0.3l0,0C59.1,74.5,59,74.6,58.9,74.7C58.9,74.7,58.8,74.7,58.9,74.7
		C58.9,74.8,58.9,74.8,58.9,74.7L58.9,74.7z M59.1,76L59.1,76L59,75.9l0,0.1l0,0c-0.1-0.1-0.2-0.2-0.2-0.4l0,0
		c0-0.2-0.1-0.3-0.3-0.4l0,0l0,0.1l0,0l0-0.1l0,0.1c0.1,0,0.1,0,0.2,0.1c0.1,0.1,0.1,0.1,0.2,0.2l0-0.1l0,0l0.2,0.2L59.1,76L59.1,76
		L59.1,76L59.1,76L59.1,76L59.1,76l0.2,0.1c0,0,0,0,0.1,0c0,0,0,0,0-0.1l0-0.4l0,0l-0.2-0.2l0,0c-0.1,0-0.1-0.1-0.2-0.1
		c-0.1-0.1-0.2-0.1-0.3-0.1l0,0l0,0c0,0-0.1,0-0.1,0c0,0,0,0.1,0,0.1c0.1,0.1,0.2,0.2,0.2,0.4l0.1,0l-0.1,0c0,0.2,0.1,0.3,0.2,0.4
		l0,0L59.1,76L59.1,76L59.1,76z M61.5,76.5L61.5,76.5l-0.2-0.2l-0.1-0.2l0,0l0.2,0l0,0c0.1-0.1,0.1-0.3,0.2-0.4l0,0
		c0-0.1,0-0.3,0-0.4c0,0,0,0,0-0.1l0,0l0-0.1c0,0,0,0,0,0c-0.1-0.1-0.2-0.1-0.3-0.1c-0.1,0-0.2,0-0.3,0l0,0c-0.2,0-0.4,0.1-0.6,0.1
		l0,0.1l0-0.1c-0.2,0-0.4,0-0.6,0.1l0,0.1l0-0.1L59.4,75l0,0.1l0.1,0l0,0l-0.1,0l0,0.1c0.4,0,0.7-0.1,1.1-0.1c0.3,0,0.6,0,0.9,0
		c0.1,0,0.2,0,0.3,0l0-0.1l0,0.1l0.4,0.1l0-0.1H62c0,0,0,0.1,0,0.1c0,0,0.1,0,0.1,0l0,0l0,0l0,0l0,0l0,0l0,0l0,0l0,0l0,0l0,0l0,0
		l0,0l0,0l0,0l0,0h0l0,0l0,0h0v0c0,0,0,0,0,0.1l0,0v0l-0.2,0.1l0,0c-0.1,0.2-0.2,0.4-0.3,0.7l0.1,0l-0.1,0
		C61.7,76.1,61.6,76.3,61.5,76.5L61.5,76.5L61.5,76.5L61.5,76.5L61.5,76.5c0.2-0.2,0.3-0.4,0.4-0.6l0,0c0.1-0.2,0.2-0.4,0.3-0.6
		l-0.1,0l0,0.1l0.2-0.1c0,0,0,0,0-0.1l0-0.1c0,0,0,0,0-0.1l-0.1,0l0,0.1l0.1,0l0,0c0,0,0-0.1,0-0.1c0,0-0.1,0-0.1,0c0,0,0,0-0.1,0
		l0,0.1l0-0.1l0,0l0,0l0,0l0,0l0,0l0,0l0,0l0,0l0,0l0,0l0,0l0,0l0,0v0c0,0,0-0.1,0-0.1l-0.4-0.1l0,0c-0.1,0-0.2,0-0.3,0
		c-0.3,0-0.6,0-0.9,0c-0.4,0-0.8,0.1-1.1,0.1c0,0-0.1,0-0.1,0.1l0,0c0,0,0,0.1,0,0.1l0.3,0.1l0,0c0.2,0,0.4,0,0.6-0.1l0,0
		c0.2,0,0.4-0.1,0.6-0.1l0-0.1l0,0.1c0.1,0,0.2,0,0.3,0c0.1,0,0.2,0,0.3,0.1l0-0.1l-0.1,0l0,0.1l0.1,0l-0.1,0c0,0,0,0,0,0.1
		c0,0.1,0,0.2,0,0.4l0.1,0l-0.1,0c0,0.1-0.1,0.3-0.2,0.4l0.1,0l0-0.1l-0.2,0c0,0,0,0,0,0l0,0.1c0,0,0,0,0,0.1l0.1,0.3l0,0L61.5,76.5
		C61.5,76.6,61.5,76.6,61.5,76.5L61.5,76.5z M60.5,75.9L60.5,75.9c0-0.1-0.1-0.1-0.2-0.1l0,0l0,0.1v-0.1c-0.1,0-0.1,0-0.2,0l0,0
		l-0.2,0l0,0.1l0-0.1c-0.1-0.1-0.2-0.1-0.2-0.2l-0.1,0l0.1,0c-0.1-0.1-0.1-0.2-0.2-0.3l0,0l0,0.1l0.1,0l0.2,0.1l0.2,0.2l0,0l0.4,0
		c0,0,0.1,0,0.1,0l0.1-0.3c0,0,0-0.1,0-0.1c-0.1,0-0.2-0.1-0.2-0.1l0,0.1l0-0.1c-0.1,0-0.1,0-0.2-0.1l0,0l0,0.1l0.3-0.1
		c0,0,0,0,0.1,0l0,0l-0.1,0l0,0.1c0,0,0.1,0,0.1,0c0,0,0.1,0,0.1,0l0-0.1l0,0.1c0,0,0.1-0.1,0.1-0.1l0-0.1l0,0
		c0.1,0.1,0.1,0.1,0.2,0.1l0,0c0.1,0,0.1,0,0.2,0l0-0.1l-0.1,0l0,0.1l-0.1,0c0,0,0,0-0.1,0l-0.1,0.3l0,0c0,0,0,0-0.1,0L60.5,75.9
		L60.5,75.9l0.1-0.1l0,0C60.6,75.8,60.5,75.8,60.5,75.9L60.5,75.9L60.5,75.9L60.5,75.9L60.5,75.9L60.5,75.9L60.5,75.9L60.5,75.9
		L60.5,75.9L60.5,75.9C60.5,76,60.5,76,60.5,75.9c0.1,0.1,0.1,0,0.1,0l0.1-0.1h0c0,0,0.1,0,0.1,0l0.1-0.3l0.2,0c0,0,0,0,0.1,0
		c0,0,0,0,0-0.1L61,75.2l0,0c-0.1,0-0.1,0-0.2,0l0,0.1l0-0.1c0,0-0.1,0-0.1-0.1c0,0,0,0-0.1,0c-0.1,0-0.1,0.1-0.2,0.1l0,0
		c0,0,0,0-0.1,0c0,0,0,0-0.1,0c0,0-0.1,0-0.1,0l0,0l0.1,0l0-0.1L60,75.2c0,0,0,0-0.1,0c0,0,0,0,0,0.1c0.1,0.1,0.1,0.1,0.2,0.1l0,0
		c0.1,0,0.1,0,0.2,0.1l0-0.1l-0.1,0l-0.1,0.2l-0.3,0l-0.2-0.2l0,0l-0.2-0.1l0,0l-0.1,0c0,0-0.1,0-0.1,0c0,0,0,0.1,0,0.1
		c0.1,0.1,0.1,0.2,0.2,0.2l0,0c0.1,0.1,0.2,0.2,0.3,0.3l0,0l0.2,0l0-0.1v0.1c0.1,0,0.1,0,0.2,0l0,0l0,0
		C60.3,75.9,60.4,75.9,60.5,75.9C60.4,76,60.5,76,60.5,75.9L60.5,75.9z M60.3,74.6L60.3,74.6l0.2-0.3c0,0,0,0,0-0.1c0,0,0,0-0.1,0
		c-0.1,0-0.2,0-0.3,0c-0.1,0-0.2,0-0.2-0.1c0,0,0,0-0.1,0c0,0,0,0,0,0l-0.1,0.2c0,0,0,0.1,0,0.1l0.1,0.2l0,0.1c0,0,0,0,0,0.1
		c0,0,0,0,0,0l0.1,0l0,0L60.3,74.6C60.3,74.6,60.3,74.6,60.3,74.6L60.3,74.6L60.3,74.6l-0.4,0l-0.1,0l0,0.1l0.1,0l0-0.1
		c0,0,0,0,0-0.1l-0.1-0.2l0.1-0.2l-0.1,0l0,0c0.1,0.1,0.2,0.1,0.3,0.1c0.1,0,0.2,0,0.3,0l0-0.1l-0.1,0L60.3,74.6L60.3,74.6
		L60.3,74.6L60.3,74.6z M60.3,74.1L60.3,74.1l0.2,0c0,0,0,0,0-0.1c0,0,0,0,0-0.1l-0.3-0.2c0,0,0,0-0.1,0l-0.3,0.1l0,0l-0.1,0.2
		c0,0,0,0,0,0.1c0,0,0,0,0,0l0.2,0.1l0,0L60.3,74.1L60.3,74.1L60.3,74.1L60.3,74.1l-0.3,0l-0.1,0l0-0.1l0.3-0.1L60.3,74.1L60.3,74.1
		L60.3,74.1L60.3,74.1L60.3,74.1z"/>
	<path class="st9" d="M62.1,80.1c-0.2,0-0.4,0-0.5-0.1c-0.2,0-0.3-0.1-0.5-0.2v0c-0.1-0.1-0.3-0.2-0.4-0.3c-0.1-0.1-0.3-0.2-0.4-0.3
		l-0.3,0.3l-0.1,0.1c-0.1,0-0.2,0.1-0.3,0.1c-0.1,0-0.2,0.1-0.3,0.1l0,0c0.2-0.1,0.3-0.2,0.4-0.3c0.1-0.1,0.2-0.2,0.3-0.3l0-0.1
		l0-0.1l-0.5-0.2l0,0.1l-0.1,0c0,0.1-0.1,0.2-0.2,0.3c-0.1,0.1-0.2,0.2-0.2,0.3l-0.1,0.1l-0.1,0l-0.1,0.1h-0.1v0
		c0.2-0.2,0.4-0.4,0.5-0.7c0.1-0.2,0.2-0.5,0.3-0.8c0,0,0-0.1,0-0.1c0,0,0-0.1-0.1-0.1h-0.1l-0.2,0v0c-0.1,0-0.2,0-0.3,0.1
		c-0.1,0-0.2,0.1-0.3,0.1L58,78.1l0,0c0.3-0.1,0.5-0.1,0.8-0.1c0.3,0,0.6,0,0.9-0.1l0-0.2h0l0,0l-0.2,0l-0.2,0l0,0
		c-0.1,0-0.1,0-0.2-0.1c0,0-0.1-0.1-0.2-0.1c0.1,0,0.3,0,0.4,0c0.1,0,0.3,0,0.4,0l0-0.1l-0.1,0l-0.2,0l-0.3-0.1L58.9,77l0,0l0.2,0
		c0,0,0.1,0,0.2,0c0.1,0,0.1,0,0.2,0l0.3,0l0-0.6l0-0.1l0,0l0.4,0.2l0.1,0.3l0.1,0l0,0l0.1,0l0.1,0v0l0.1,0l0.1,0.1
		c-0.1,0-0.2,0-0.3,0c-0.1,0-0.2,0-0.3,0L60,77.4l0,0c0.1,0,0.2,0,0.2,0c0.1,0,0.2,0,0.3,0l0.2,0.1l0,0.1c-0.1,0-0.3,0-0.4,0
		c-0.1,0-0.3,0-0.4,0.1l-0.2,0.2l0.1,0l0.2,0l1.1,0l0.4,0v0l0.1,0l0.2,0.1l0,0c0,0,0.1,0,0.1,0c0,0,0.1,0,0.1,0.1l0,0h0l0,0l-0.2,0
		L60.6,78H60L60,78l-0.1,0l-0.1,0l-0.2,0l0,0l-0.2,0v0l0.2,0.2l0,0l0.1,0.1l0,0.1l-0.1,0.2h0l-0.1,0.1c0.1,0,0.2,0,0.3,0.1
		c0.1,0,0.2,0.1,0.3,0.1l0.1-0.4l-0.2-0.1L60,78.3v0c0.1,0,0.2,0,0.2,0c0.1,0,0.1,0,0.2,0l0.4,0.2l0,0.1l-0.1,0
		c0,0.1-0.1,0.1-0.1,0.2c0,0.1-0.1,0.1-0.1,0.2l-0.1,0l-0.1,0.2l0,0.1l0.5,0.3l0,0c0.3,0.1,0.5,0.2,0.8,0.2c0.3,0,0.5,0.1,0.8,0.2h0
		l0,0.1c-0.1,0-0.1,0-0.2,0C62.2,80.1,62.1,80.1,62.1,80.1z"/>
	<path class="st9" d="M62.1,80.1L62.1,80.1C61.9,80,61.7,80,61.5,80l0,0c-0.2,0-0.3-0.1-0.5-0.1l0,0.1h0.1v0c0,0,0,0,0-0.1
		c-0.1-0.1-0.3-0.2-0.4-0.3l0,0c-0.1-0.1-0.3-0.2-0.4-0.3c0,0-0.1,0-0.1,0l-0.3,0.3l0,0l-0.1,0.1l0,0l0-0.1c-0.1,0-0.2,0.1-0.3,0.1
		l0,0c-0.1,0-0.2,0.1-0.3,0.1l0,0.1l0.1,0l0,0l-0.1,0l0,0.1c0.2-0.1,0.3-0.2,0.4-0.3l0,0c0.1-0.1,0.2-0.2,0.3-0.3l0,0l0-0.1
		c0,0,0,0,0-0.1l0-0.1l0,0l-0.5-0.2l-0.1,0c0,0,0,0,0,0l0,0l0,0c0,0-0.1,0-0.1,0c0,0.1-0.1,0.2-0.2,0.3l0,0
		c-0.1,0.1-0.2,0.2-0.2,0.3l0.1,0l0-0.1l-0.1,0.1l-0.1,0l0,0l-0.1,0.1l0,0v0.1h0.1v0h-0.1l0,0c0.2-0.2,0.4-0.4,0.6-0.7l0,0
		c0.1-0.2,0.2-0.5,0.3-0.8l0,0c0,0,0,0,0-0.1l0,0l0,0c0,0,0-0.1,0-0.1c0,0,0,0-0.1,0l0,0h-0.1l0,0l-0.2,0c0,0,0,0,0,0.1v0H59l0-0.1
		c-0.1,0-0.2,0-0.4,0.1l0,0c-0.1,0-0.2,0.1-0.3,0.1l0,0.1l0-0.1L58,78l0,0.1l0.1,0l0,0L58,78l0,0.1c0.2-0.1,0.5-0.1,0.8-0.1
		c0.3,0,0.6,0,0.9-0.1c0,0,0.1,0,0.1-0.1l0-0.2c0,0,0,0,0,0c0,0,0,0,0,0h0c0,0,0,0-0.1,0l0,0l-0.1,0l-0.2,0l0,0.1l0.1,0l0,0
		c0,0,0-0.1-0.1-0.1c0,0-0.1,0-0.1-0.1l0,0c0,0-0.1-0.1-0.2-0.1l0,0.1l0,0.1c0.1,0,0.1,0,0.2,0c0.1,0,0.2,0,0.2,0l0,0
		c0.1,0,0.3,0,0.4,0c0,0,0.1,0,0.1-0.1l0-0.1c0,0,0-0.1-0.1-0.1l-0.1,0l0,0l-0.2,0l-0.3-0.1L59,77l0,0.1l0.1,0l0,0l-0.1,0l0,0.1
		l0.2,0l0-0.1l0,0.1c0.1,0,0.1,0,0.2,0c0.1,0,0.1,0,0.2,0l0,0l0.3,0c0,0,0.1,0,0.1-0.1l0-0.6l0,0l0-0.1l-0.1,0l0,0.1l0,0l0.3,0.2
		l0,0.3c0,0,0,0,0.1,0.1l0.1,0c0,0,0.1,0,0.1-0.1l0,0l-0.1,0l0,0.1l0.1,0l0.1,0l0-0.1h-0.1v0c0,0,0,0.1,0,0.1l0.1,0l0,0.1l0.1,0
		l0-0.1c-0.1,0-0.2,0-0.3,0l0,0c-0.1,0-0.2,0-0.3,0c0,0,0,0-0.1,0L60,77.4c0,0,0,0,0,0.1c0,0,0,0,0.1,0l0,0l0,0c0.1,0,0.2,0,0.2,0
		l0,0c0,0,0.1,0,0.1,0c0,0,0.1,0,0.2,0l0-0.1l0,0.1l0.1,0.1l0,0.1l0.1,0l0-0.1c-0.1,0-0.3,0-0.4,0v0.1l0-0.1l0,0
		c-0.1,0-0.3,0-0.4,0.1l0,0l-0.2,0.2c0,0,0,0,0,0.1c0,0,0,0,0.1,0l0.1,0l0,0l0.2,0l1.1,0l0,0l0.4,0l0,0l0,0v0h-0.1l0,0.1l0.1,0
		l0.2,0.1l0-0.1l-0.1,0l0,0c0,0,0,0.1,0,0.1c0.1,0,0.1,0,0.1,0l0,0c0,0,0.1,0,0.1,0.1l0-0.1L62,78l0,0c0,0,0,0,0,0.1c0,0,0,0,0,0h0
		v-0.1l-0.1,0l0,0l0.1,0l0-0.1l-0.2,0l-1.2-0.1l0,0H60l-0.1,0l0,0l-0.1,0l-0.1,0l0,0l-0.2,0c0,0-0.1,0-0.1,0.1l0,0l0.1,0l0-0.1
		l-0.2,0c0,0-0.1,0-0.1,0.1v0c0,0,0,0,0,0.1l0.2,0.2l0,0c0,0,0,0,0,0.1l0.1,0l0,0l-0.1,0.1l0.1,0v-0.1h0c0,0,0,0-0.1,0l-0.1,0.1
		c0,0,0,0,0,0.1c0,0,0,0,0,0c0.1,0,0.2,0,0.3,0.1l0,0c0.1,0,0.2,0.1,0.3,0.1l0.1,0c0,0,0,0,0,0l0.1-0.4c0,0,0-0.1,0-0.1l-0.2-0.1
		L60,78.3l0,0H60v0H60l0,0.1c0,0,0.1,0,0.1,0c0.1,0,0.1,0,0.2,0l0,0c0,0,0.1,0,0.1,0l0,0l0-0.1l0,0.1l0.3,0.2l0,0l0.1,0l0-0.1
		l-0.1,0c0,0,0,0,0,0c0,0.1,0,0.1-0.1,0.2l0.1,0l0,0c-0.1,0.1-0.1,0.1-0.1,0.2l0.1,0l0-0.1l-0.1,0c0,0,0,0,0,0l-0.1,0.2
		c0,0,0,0,0,0.1l0,0.1l0,0l0.5,0.3l0,0l0,0c0.3,0.1,0.5,0.2,0.8,0.2l0,0c0.3,0,0.5,0.1,0.8,0.2l0-0.1v-0.1h0c0,0-0.1,0-0.1,0l0,0.1
		l0.1,0l0-0.1c0,0-0.1,0-0.1,0l0,0C62.2,80,62.1,80,62.1,80.1L62.1,80.1L62.1,80.1L62.1,80.1L62.1,80.1c0.1,0.1,0.1,0.1,0.2,0.1l0,0
		c0.1,0,0.1,0,0.2,0c0,0,0,0,0,0l0-0.1l-0.1,0V80h0c0,0,0.1,0,0.1-0.1c0,0,0-0.1,0-0.1c-0.3-0.1-0.5-0.2-0.8-0.2l0,0.1l0-0.1
		c-0.3,0-0.5-0.1-0.8-0.2l0,0.1l0.1,0l0,0l0,0l-0.5-0.3l0,0l0.1-0.1l0,0c0,0,0,0,0,0c0-0.1,0.1-0.1,0.1-0.2l0,0
		c0-0.1,0.1-0.1,0.1-0.2l-0.1,0l0,0.1l0.1,0l0,0l0-0.1l0-0.1l0,0l-0.4-0.2l0,0l0,0c-0.1,0-0.1,0-0.2,0l0,0.1l0-0.1c0,0-0.1,0-0.1,0
		c0,0,0,0-0.1,0c0,0,0,0-0.1,0c0,0,0,0,0,0v0c0,0,0,0,0,0l0.1,0.1l0,0l0.1,0.1L60,78.9l0.1,0l0-0.1c-0.1,0-0.2-0.1-0.3-0.1l0,0.1
		l0-0.1c-0.1,0-0.2-0.1-0.3-0.1l0,0.1l0.1,0l0.1-0.1l-0.1,0v0.1h0c0,0,0,0,0.1,0l0.1-0.2l0,0l0-0.1l0,0l-0.1,0v0c0,0,0,0,0-0.1
		L59.4,78l0,0.1h0.1v0h-0.1l0,0.1l0.2,0c0,0,0.1,0,0.1-0.1l0,0l-0.1,0l0,0.1l0.2,0l0.1,0l0,0l0.1,0l0.1,0l0,0h0.6l1.2,0.1l0,0l0.2,0
		c0,0,0.1,0,0.1-0.1l0,0c0,0,0,0,0-0.1c0,0,0,0,0,0h0v0.1l0.1,0l0,0c0,0,0-0.1,0-0.1c0,0-0.1,0-0.1-0.1l0,0.1l0-0.1c0,0-0.1,0-0.1,0
		l0,0.1l0.1,0l0,0c0,0,0-0.1,0-0.1l-0.2-0.1l0,0l-0.1,0c0,0,0,0,0,0c0,0,0,0,0,0v0h0.1l0-0.1l-0.4,0l0,0.1l0-0.1l-1.1,0l0,0l-0.2,0
		h0l0.1-0.1l-0.1,0l0,0.1c0.1,0,0.2-0.1,0.4-0.1l0,0h0c0.2,0,0.3,0,0.4,0c0,0,0,0,0.1,0c0,0,0,0,0-0.1l0-0.1l0,0l-0.2-0.1l0,0
		c-0.1,0-0.1,0-0.2,0c0,0-0.1,0-0.1,0h0c-0.1,0-0.2,0-0.3,0.1l0,0.1l0-0.1l0,0l0,0.1l0.1,0l0.1-0.2l-0.1,0l0,0.1c0.1,0,0.2,0,0.3,0
		l0-0.1l0,0.1c0.1,0,0.2,0,0.3,0c0,0,0,0,0.1,0c0,0,0,0,0-0.1L60.8,77l0,0l-0.1,0l0,0.1h0.1v0c0,0,0-0.1-0.1-0.1l-0.1,0l0,0l-0.1,0
		c0,0-0.1,0-0.1,0.1l0,0l0.1,0l0-0.1l-0.1,0l0-0.3c0,0,0,0,0,0l-0.4-0.2l0,0l0,0c0,0,0,0-0.1,0c0,0,0,0,0,0.1l0,0l0,0.5l-0.3,0
		l0,0.1l0-0.1c-0.1,0-0.1,0-0.2,0c-0.1,0-0.1,0-0.1,0l0,0l-0.2,0c0,0-0.1,0-0.1,0.1l0,0c0,0,0,0.1,0,0.1l0.3,0.2l0,0l0.3,0.1l0,0
		l0.2,0l0,0l0,0.1l0.1,0l0-0.1c-0.1,0-0.3,0-0.4,0l0,0.1l0-0.1c-0.1,0-0.2,0-0.2,0c-0.1,0-0.1,0-0.2,0c0,0-0.1,0-0.1,0
		c0,0,0,0.1,0,0.1c0.1,0,0.1,0.1,0.2,0.1l0-0.1l0,0.1c0.1,0,0.1,0.1,0.2,0.1l0-0.1l-0.1,0l0,0l0,0l0,0l0.2,0l0,0l0.2,0c0,0,0,0,0,0
		l0,0h0v-0.1l-0.1,0l0,0.2l0.1,0l0-0.1c-0.3,0-0.6,0-0.9,0.1c-0.3,0-0.6,0.1-0.8,0.1c0,0,0,0,0,0.1l0,0c0,0,0,0,0,0.1l0.4,0.2l0,0
		c0.1,0,0.2,0,0.3-0.1l0-0.1l0,0.1c0.1,0,0.2-0.1,0.3-0.1c0,0,0.1,0,0.1-0.1v0H59l0,0.1l0.1,0h0.1v-0.1l0,0.1l0,0l0,0l0,0l0,0l0,0
		l0,0l0,0h0l0,0l0,0h0h0.1l-0.1,0l0,0c0,0,0,0.1,0,0.1l0.1,0l-0.1,0c0,0.3-0.1,0.5-0.3,0.7l0.1,0L59,79c-0.1,0.2-0.3,0.4-0.5,0.7
		c0,0,0,0,0,0v0l0,0l0,0h0.1l0,0l0.1-0.1l0.1,0l0,0l0.1-0.1l0,0c0.1-0.1,0.1-0.2,0.2-0.3l-0.1,0l0,0c0.1-0.1,0.2-0.2,0.2-0.3l-0.1,0
		l0,0.1l0.1,0c0,0,0.1,0,0.1,0l0,0l0.4,0.2l0,0l0,0.1l0.1,0l0,0c-0.1,0.1-0.2,0.2-0.3,0.3l0,0.1l0-0.1c-0.1,0.1-0.2,0.2-0.4,0.3
		c0,0,0,0,0,0.1l0,0c0,0,0,0,0,0.1c0,0,0,0,0.1,0c0.1,0,0.2,0,0.3-0.1l0-0.1l0,0.1c0.1,0,0.2-0.1,0.3-0.1l0,0l0.1-0.1l0.3-0.3l0,0
		l0,0.1c0.1,0.1,0.3,0.2,0.4,0.2l0-0.1l0,0.1c0.1,0.1,0.3,0.2,0.4,0.3l0-0.1H61v0c0,0,0,0,0,0.1c0.1,0.1,0.3,0.1,0.5,0.2l0-0.1
		l0,0.1C61.7,80.1,61.9,80.1,62.1,80.1L62.1,80.1L62.1,80.1z"/>
	<path class="st9" d="M63.4,74.7l0.5,0c0,0,0-0.1,0-0.1c0-0.2,0-0.3,0-0.5c0-0.1,0-0.3,0-0.4l-0.5,0l0.5,0c0-0.3,0-0.6-0.1-0.9v0
		c0-0.1,0-0.2,0-0.4c0-0.1,0-0.2,0-0.3c0-0.2,0-0.4-0.1-0.6c-0.1-0.1-0.1-0.2-0.2-0.3c-0.1-0.1-0.2-0.1-0.4-0.1l0,0.5l0.1-0.5
		c-0.3,0-0.5,0-0.7,0l0,0.5l0-0.5c-0.7,0-1.4-0.1-2.1-0.1l0,0l0,0c-0.2,0-0.3,0-0.4,0c-0.1,0-0.2,0-0.3,0.1l0.1,0.5l-0.1-0.5
		c-0.1,0-0.2,0-0.2,0.1c-0.1,0-0.1,0.1-0.2,0.1l0,0l0,0l0,0h0l0,0l0,0l0.1,0.2l0-0.2c0,0-0.1,0-0.1,0l0.1,0.2l0-0.2v0.3l0-0.3l0,0
		v0.3l0-0.3l0,0l0,0h0l0,0l0,0l0,0l0,0.5l0.2-0.4c0,0-0.1,0-0.1,0c0,0-0.1,0-0.1,0c0,0,0,0-0.1,0c0,0-0.1,0-0.1,0c0,0-0.1,0-0.1,0
		c-0.1,0-0.1,0-0.2,0.1c0,0-0.1,0.1-0.1,0.2c0,0.1,0,0.1,0,0.2c0,0,0,0.1,0,0.1l0.4-0.1l-0.5,0.1l0.4-0.1h-0.4c0,0,0,0.1,0,0.1
		l0.4-0.1h-0.4h0.4l-0.3-0.2c0,0,0,0.1,0,0.2h0.4l-0.3-0.2l0.3,0.2l-0.2-0.3c0,0-0.1,0.1-0.1,0.1l0.3,0.2l-0.2-0.3l0.2,0.3l0-0.4
		c-0.1,0-0.2,0-0.2,0.1l0.2,0.3l0-0.4v0.4l0.1-0.4c0,0-0.1,0-0.1,0v0.4l0.1-0.4l-0.1,0.5l0.5,0.1l0-0.1c0-0.2,0-0.3-0.2-0.5
		c-0.1-0.1-0.3-0.1-0.5,0l0,0l0,0l0,0l0,0l0,0l0,0c0,0-0.1,0-0.1,0c-0.1,0-0.2,0-0.4,0.1c-0.1,0.1-0.3,0.2-0.4,0.3l0.4,0.3l0.3-0.4
		l0,0c-0.1-0.1-0.2-0.1-0.4-0.1c-0.1,0-0.2,0.1-0.3,0.2c-0.1,0.2-0.2,0.5-0.3,0.7c-0.1,0.2-0.1,0.5-0.1,0.7c0,0,0,0.1,0,0.1l0.5,0
		l-0.4-0.2c0,0.1,0,0.1-0.1,0.2c0,0.1,0,0.1,0,0.2c0,0,0,0.1,0,0.1c0,0.1,0,0.1,0,0.1l0,0l0,0l0,0v0l0,0l0,0l0,0c0,0,0,0.1-0.1,0.2
		l0,0C57,74.3,57,74.6,57,74.8c0,0.4,0.1,0.8,0.1,1.1c0,0,0,0.1,0,0.1v0c0,0.4,0,0.9,0,1.3c0,0.1,0,0.3,0,0.4l0.5,0l-0.5,0
		c0,0.1,0,0.1,0,0.2c0,0.3,0,0.6,0,0.9c0,0.2,0,0.5,0.1,0.8l0,0c0,0.2,0.1,0.4,0.2,0.6c0.1,0.2,0.2,0.4,0.4,0.5l0,0
		c0.1,0.1,0.2,0.1,0.3,0.1c0.1,0,0.2,0,0.3,0c0,0,0.1,0,0.1,0l0,0l0,0l0.1-0.5L58.3,81l0.1-0.2L58.3,81l0,0l0.1-0.2L58.3,81l0-0.1
		l0,0.1l0,0l0-0.1l0,0.1c0,0,0,0,0.1,0c0,0,0.1,0,0.1,0c0,0,0.1,0,0.2,0c0.1,0,0.2,0,0.3-0.1c0,0,0.1,0,0.1-0.1l0,0l-0.1-0.1
		l0.1,0.1l0,0l-0.1-0.1l0.1,0.1l-0.2-0.3l0,0.3c0.1,0,0.1,0,0.2-0.1l-0.2-0.3l0,0.3l0,0c0,0,0.1,0,0.1,0c0.2,0,0.3,0,0.5,0.1
		c0.2,0,0.4,0.1,0.6,0.1l0,0c0.2,0,0.4,0.1,0.7,0.1l0,0c0,0,0,0,0.1,0c0.1,0,0.1,0,0.2,0c0.1,0,0.2,0,0.2,0c0.1,0,0.1,0,0.2,0l0,0
		l0-0.2l0,0.1c0,0,0,0,0,0l0-0.2l0,0.1l0.1-0.3l-0.2,0.3c0,0,0.1,0,0.1,0l0.1-0.3l-0.2,0.3c0.2,0.2,0.5,0.1,0.7-0.1
		c0.2-0.2,0.1-0.5-0.1-0.7l-0.3,0.4l0.4-0.2c0-0.1-0.1-0.1-0.1-0.2l-0.3,0.4l0.4-0.2l-0.4,0.2H62c0-0.1,0-0.1,0-0.2l-0.4,0.2H62
		h-0.4L62,81c0,0,0-0.1,0-0.2h-0.4L62,81l-0.4-0.1l0.3,0.3c0,0,0-0.1,0.1-0.1l-0.4-0.1l0.3,0.3l-0.3-0.3l0.2,0.3c0,0,0.1,0,0.1-0.1
		l-0.3-0.3l0.2,0.3l-0.2-0.4L61.1,81c0,0.1,0.1,0.1,0.2,0.2c0.1,0.1,0.2,0.1,0.3,0.1c0.1,0,0.2,0,0.2-0.1c0.1,0,0.1-0.1,0.1-0.1
		c0,0,0-0.1,0.1-0.1l0,0l-0.4-0.3l0.1,0.5l-0.1-0.4v0.4c0,0,0.1,0,0.1,0l-0.1-0.4v0.4v-0.4l-0.2,0.4c0.1,0,0.1,0,0.2,0v-0.4
		l-0.2,0.4l0.2-0.4l-0.4,0.2c0,0.1,0.1,0.2,0.2,0.2l0.2-0.4l-0.4,0.2l0.4-0.2l-0.4,0c0,0,0,0.1,0,0.2l0.4-0.2l-0.4,0h0.4l-0.4-0.2
		c0,0.1,0,0.1-0.1,0.2h0.4l-0.4-0.2l0.4,0.2l-0.3-0.3c0,0,0,0.1-0.1,0.1l0.4,0.2l-0.3-0.3l0.3,0.3l-0.2-0.4c-0.1,0-0.1,0.1-0.1,0.1
		l0.3,0.3l-0.2-0.4c-0.2,0.1-0.3,0.3-0.2,0.6c0.1,0.2,0.3,0.4,0.5,0.3c0.3,0,0.5-0.1,0.7-0.2c0.2,0,0.4-0.2,0.4-0.4l-0.4,0l0.4,0.2
		c0-0.1,0-0.1,0.1-0.2l-0.4,0l0.4,0.2l-0.4-0.2l0.3,0.3c0,0,0.1-0.1,0.1-0.1l-0.4-0.2l0.3,0.3l-0.2-0.3l0.1,0.4c0,0,0.1,0,0.1-0.1
		l-0.2-0.3l0.1,0.4l-0.1-0.2l0,0.2l0,0l-0.1-0.2l0,0.2c0,0,0,0,0,0c0,0,0,0,0.1,0c0,0,0.1,0,0.2-0.1c0,0,0.1-0.1,0.1-0.2
		c0-0.1,0-0.1,0-0.2h-0.5l0.3,0.4c0,0,0.1-0.1,0.1-0.1c0,0,0.1-0.1,0.2-0.1c0.1-0.1,0.1-0.1,0.2-0.2c0,0,0.1-0.1,0.1-0.1
		c0.1-0.2,0.1-0.4,0.2-0.5c0-0.1,0-0.2,0.1-0.4l0,0c0-0.3,0.1-0.5,0.1-0.7l0.1-1.3v0c0.1-0.9,0.1-1.6,0.2-2.7v0L63.4,74.7l-0.5,0
		c-0.1,1.1-0.1,1.8-0.2,2.6l0,0l-0.1,1.3c0,0.2,0,0.4-0.1,0.6l0.5,0.1l-0.5-0.1c0,0.2,0,0.3-0.1,0.4c0,0.1,0,0.2-0.1,0.4l0.4,0.2
		l-0.4-0.3c0,0.1-0.1,0.1-0.1,0.1c0,0,0,0-0.1,0.1c0,0-0.1,0.1-0.2,0.1c-0.1,0.1-0.2,0.2-0.2,0.4h0.4l-0.4-0.1c0,0,0,0.1,0,0.1h0.4
		l-0.4-0.1l0.4,0.1l-0.3-0.4c-0.1,0-0.1,0.1-0.2,0.2l0.4,0.1l-0.3-0.4l0.3,0.3l-0.1-0.4c0,0-0.1,0-0.1,0.1l0.3,0.3l-0.1-0.4l0.1,0.3
		l-0.1-0.3c0,0,0,0,0,0l0.1,0.3l-0.1-0.3l0,0.1l0-0.1l0,0l0,0.1l0-0.1c0,0,0,0,0,0c0,0-0.1,0-0.2,0.1c0,0-0.1,0.1-0.1,0.2
		c0,0.1,0,0.1-0.1,0.2l0.5,0l-0.1-0.5c-0.2,0.1-0.4,0.1-0.6,0.1l0.1,0.5l0.2,0.4c0.1,0,0.1-0.1,0.1-0.1c0.1-0.1,0.1-0.1,0.1-0.2
		c0-0.1,0-0.1,0-0.2c0,0,0-0.1,0-0.1c0-0.1-0.1-0.2-0.2-0.3c0,0-0.1-0.1-0.2-0.1c-0.1,0-0.1,0-0.1,0c0,0-0.1,0-0.1,0
		c-0.1,0-0.2,0.1-0.3,0.2l0.2,0.1l-0.2-0.1l0,0l0.2,0.1l-0.2-0.1l0.3,0.2l-0.2-0.3c0,0,0,0,0,0l0.3,0.2l-0.2-0.3l0.3,0.3l-0.2-0.4
		c0,0-0.1,0-0.1,0l0.3,0.3l-0.2-0.4l0.2,0.4v-0.5c-0.1,0-0.2,0-0.2,0.1l0.2,0.4v-0.5v0.5l0.3-0.4c-0.1-0.1-0.2-0.1-0.3-0.1v0.5
		l0.3-0.4l-0.3,0.4l0.4-0.2c0-0.1-0.1-0.1-0.2-0.2l-0.3,0.4l0.4-0.2c-0.1-0.1-0.2-0.2-0.3-0.2c-0.1,0-0.3,0-0.4,0
		c-0.1,0-0.1,0.1-0.2,0.1c0,0,0,0.1-0.1,0.1c0,0,0,0.1,0,0.2c0,0.1,0,0.1,0.1,0.2c0,0.1,0.1,0.1,0.1,0.2c0.1,0.1,0.2,0.1,0.3,0.1
		c0.1,0,0.2-0.1,0.3-0.2C62,81,62,80.9,62,80.8c0-0.1-0.1-0.2-0.2-0.3c-0.1-0.1-0.2-0.1-0.3-0.1c-0.1,0-0.1,0-0.2,0
		c-0.1,0-0.3,0-0.4,0c-0.1,0-0.1,0-0.1,0c0,0,0,0,0,0l0,0h0l0,0l0,0h0l0,0l0,0v0.1l0-0.1l0,0v0.1l0-0.1l0,0.5l0.1-0.5
		c-0.2,0-0.4-0.1-0.6-0.1l0,0c-0.2,0-0.4-0.1-0.6-0.2c-0.2,0-0.5-0.1-0.7-0.1c-0.1,0-0.2,0-0.2,0l0,0c-0.1,0-0.2,0-0.2,0.1
		c0,0-0.1,0-0.1,0.1l0,0l0,0l0,0h0l0,0l0,0l0.2,0.3l-0.1-0.3c0,0-0.1,0-0.1,0l0.2,0.3l-0.1-0.3l0.1,0.4v-0.4c-0.1,0-0.1,0-0.1,0
		l0.1,0.4v-0.4v0.3l0.1-0.3c0,0,0,0-0.1,0v0.3l0.1-0.3v0c0,0,0,0-0.1,0c0,0-0.1,0-0.1,0l0,0c-0.2,0-0.3,0-0.3,0l0,0l0,0l0,0.1
		l0.1-0.1l0,0l0,0.1l0.1-0.1l-0.3,0.4l0.3-0.4c0,0-0.1-0.1-0.1-0.2c0-0.1-0.1-0.2-0.1-0.4l0,0c0-0.2,0-0.4,0-0.6c0-0.3,0-0.6,0-0.9
		c0-0.1,0-0.2,0-0.3l0,0c0-0.1,0-0.3,0-0.4c0-0.4,0-0.8,0-1.3v0c0,0,0-0.1,0-0.1c0-0.4-0.1-0.8-0.1-1.1c0-0.2,0-0.3,0.1-0.5l0,0
		c0-0.1,0-0.1,0.1-0.2c0-0.1,0-0.2,0-0.3c0-0.1,0-0.2,0-0.2l-0.5,0.1l0.5,0c0,0,0-0.1,0-0.1c0,0,0-0.1,0-0.1c0-0.1,0-0.1,0-0.2
		c0,0,0,0,0-0.1c0-0.1,0-0.3,0.1-0.4c0-0.1,0.1-0.3,0.2-0.5l-0.4-0.2l-0.3,0.4l0,0c0.2,0.1,0.5,0.1,0.6-0.1c0-0.1,0.1-0.1,0.1-0.1
		c0,0,0.1,0,0.2,0c0,0,0.1,0,0.2,0c0.1,0,0.1,0,0.2-0.1l-0.2-0.4l-0.5-0.1l0,0.1c0,0.2,0.1,0.5,0.4,0.5c0,0,0.1,0,0.1,0
		c0.1,0,0.2,0,0.2,0c0.1,0,0.2-0.1,0.2-0.2c0.1-0.1,0.1-0.2,0.1-0.3c0,0,0-0.1,0-0.1l0,0l-0.4,0.1h0.5c0,0,0-0.1,0-0.1l-0.4,0.1h0.5
		h-0.5l0.4,0.3c0.1-0.1,0.1-0.2,0.1-0.3h-0.5l0.4,0.3l-0.4-0.3l0.2,0.4c0,0,0.1-0.1,0.1-0.1l-0.4-0.3l0.2,0.4l-0.2-0.4l0.1,0.4
		c0,0,0.1,0,0.2-0.1l-0.2-0.4l0.1,0.4l-0.1-0.4v0.4c0,0,0,0,0.1,0l-0.1-0.4v0.4v-0.3l-0.1,0.3c0,0,0,0,0.1,0v-0.3l-0.1,0.3l0-0.1
		l0,0.1l0,0l0-0.1l0,0.1l0,0c0,0,0,0,0.1,0l0,0l0,0l0,0l0-0.1l0,0.1h0l0-0.1l0,0.1c0.1,0,0.1,0,0.2,0c0,0,0,0,0,0c0.1,0,0.2,0,0.2,0
		c0.1,0,0.1-0.1,0.2-0.1l0,0l0-0.1l0,0.1l0,0l0-0.1l0,0.1l0-0.2l0,0.2l0,0l0-0.2l0,0.2l0,0c0.1,0,0.3,0,0.4-0.1c0.1,0,0.2,0,0.3,0
		V72l0,0.1h0V72l0,0.1l0,0l0-0.5l0,0.5c0.7,0,1.4,0.1,2.1,0.1l0,0c0.2,0,0.4,0,0.6,0l0,0l0-0.1l-0.1,0.1c0,0,0.1,0,0.1,0l0-0.1
		l-0.1,0.1l0.1-0.1l-0.1,0.1c0,0,0,0,0,0l0.1-0.1l-0.1,0.1l0,0l0,0l0,0l0,0l0,0c0,0,0,0,0,0.1c0,0.1,0,0.2,0,0.3c0,0.1,0,0.3,0,0.4
		v0c0,0.3,0.1,0.6,0.1,0.8v0c0,0.2,0,0.3,0,0.5c0,0.1,0,0.3,0,0.4c0,0,0,0,0,0v0L63.4,74.7z"/>
	<path class="st9" d="M59.4,71.7L59,71.8l0,0c0.1,0.2,0.3,0.4,0.5,0.4l0,0c0.2,0,0.4-0.2,0.4-0.5c0-0.2-0.2-0.4-0.4-0.5l0,0
		c-0.2,0-0.3,0-0.4,0.2C59,71.5,59,71.7,59,71.8L59.4,71.7l-0.1,0.5l0,0L59.4,71.7l0-0.5l0,0L59.4,71.7l0.5-0.1l0,0L59.4,71.7
		l-0.1,0.5L59.4,71.7z"/>
</g>
</svg>
