<?xml version="1.0" encoding="utf-8"?>
<!-- Generator: Adobe Illustrator 24.0.1, SVG Export Plug-In . SVG Version: 6.00 Build 0)  -->
<svg version="1.1" id="レイヤー_1" xmlns="http://www.w3.org/2000/svg" xmlns:xlink="http://www.w3.org/1999/xlink" x="0px"
	 y="0px" viewBox="0 0 141.7 141.7" style="enable-background:new 0 0 141.7 141.7;" xml:space="preserve">
<style type="text/css">
	.st0{fill:none;}
	.st1{fill:#FFFFFF;}
	.st2{fill:#F6AB00;}
	.st3{fill:#FFF9E8;}
	.st4{opacity:0.5;fill:url(#SVGID_1_);}
	.st5{clip-path:url(#SVGID_4_);}
	.st6{clip-path:url(#SVGID_5_);}
	.st7{fill:#FCE1B9;}
	.st8{fill:#DFCD8C;}
	.st9{fill:#EADDB0;}
	.st10{fill:#6C1317;}
	.st11{fill:#5C070C;}
	.st12{fill:#8A4000;}
	.st13{fill:#9C0109;}
	.st14{fill:#8A0001;}
	.st15{fill:url(#SVGID_6_);}
	.st16{fill:#231815;}
	.st17{opacity:0.5;fill:url(#SVGID_7_);}
	.st18{clip-path:url(#SVGID_10_);}
	.st19{clip-path:url(#SVGID_11_);}
	.st20{fill:#9C0109;stroke:#FFFFFF;stroke-miterlimit:10;}
	.st21{fill:url(#SVGID_12_);}
</style>
<pattern  y="141.7" width="56.7" height="56.7" patternUnits="userSpaceOnUse" id="新規パターンスウォッチ_30" viewBox="0 -56.7 56.7 56.7" style="overflow:visible;">
	<g>
		<rect x="0" y="-56.7" class="st0" width="56.7" height="56.7"/>
		<rect x="0" y="-56.7" class="st1" width="56.7" height="56.7"/>
		<g>
			<g>
				<rect y="-56.7" class="st0" width="56.7" height="56.7"/>
				<rect y="-56.7" class="st2" width="56.7" height="28.3"/>
				<rect x="0" y="-56.7" class="st2" width="28.3" height="56.7"/>
			</g>
		</g>
	</g>
</pattern>
<g>
	<g>
		<rect x="14.8" y="9.1" class="st3" width="74" height="103.8"/>
		
			<pattern  id="SVGID_1_" xlink:href="#譁ｰ隕上ヱ繧ｿ繝ｼ繝ｳ繧ｹ繧ｦ繧ｩ繝メ_30" patternTransform="matrix(0.1262 0 0 0.1262 -7098.5215 -7231.0815)">
		</pattern>
		<rect x="14.8" y="9.1" class="st4" width="74" height="103.9"/>
	</g>
	<g>
		<defs>
			<rect id="SVGID_2_" x="14.8" y="48.4" width="74" height="64.5"/>
		</defs>
		<defs>
			<rect id="SVGID_3_" x="14.8" y="48.4" width="74" height="64.5"/>
		</defs>
		<clipPath id="SVGID_4_">
			<use xlink:href="#SVGID_2_"  style="overflow:visible;"/>
		</clipPath>
		<clipPath id="SVGID_5_" class="st5">
			<use xlink:href="#SVGID_3_"  style="overflow:visible;"/>
		</clipPath>
		<g class="st6">
			<path class="st7" d="M97.1,91.2c0,14.1-20.1,25.6-44.9,25.6c-24.8,0-44.9-11.4-44.9-25.6s20.1-25.6,44.9-25.6
				C77,65.6,97.1,77.1,97.1,91.2z"/>
			<path class="st1" d="M97.1,89.6c0,14.1-20.1,25.6-44.9,25.6c-24.8,0-44.9-11.4-44.9-25.6c0-14.1,20.1-25.6,44.9-25.6
				C77,64.1,97.1,75.5,97.1,89.6z"/>
			<path class="st7" d="M52.2,113.3c-11.7,0-22.6-2.6-30.8-7.2c-7.9-4.5-12.2-10.3-12.2-16.5c0-6.1,4.3-12,12.2-16.5
				c8.2-4.7,19.1-7.2,30.8-7.2c11.7,0,22.6,2.6,30.8,7.2c7.9,4.5,12.2,10.3,12.2,16.5c0,6.1-4.3,12-12.2,16.5
				C74.8,110.7,63.9,113.3,52.2,113.3z M52.2,66.5c-11.6,0-22.4,2.5-30.5,7.2C14,78,9.8,83.7,9.8,89.6c0,5.9,4.2,11.6,11.9,16
				c8.1,4.6,19,7.2,30.5,7.2c11.6,0,22.4-2.5,30.5-7.2c7.7-4.4,11.9-10.1,11.9-16c0-5.9-4.2-11.6-11.9-16
				C74.7,69,63.8,66.5,52.2,66.5z"/>
			<path class="st8" d="M53.4,65c1.8-0.5,3.8-0.5,5.6-0.3c1.5,0.1,1.2,0.4,2.3,1c0.6,0.4,1,0.4,1.7,0.7c1.1,0.4,1.1,0.9,2,1.8
				c1.9,2.1,6.1,0.3,7.9,3.1c0.4,0.7,0,1.6,0.4,2.1c0.4,0.6,0.4,0.2,1,0.6c1,0.8,1.7,1.4,2.6,2.5c1.1,1.3,2.7,1.5,3.5,3.2
				c1,2,1.2,3.4,1.2,5.5c0,1.7,0.4,2.7,0.9,4.2c0.5,1.5,1.8,3.5,1.3,5.1c-0.5,1.6-2.5,2.7-3.2,4.1c-0.6,1.4-0.3,2.2-2,2.9
				c-1.8,0.6-4.2,0.2-5.9,0.8c-1.8,0.6-0.5,2.4-1.7,3.6c-1.4,1.4-5.5,1.4-7.3,1.3c-1.7-0.1-3.1-1-4.9-0.8c-1.4,0.1-1.8,0.8-2.9,1.6
				c-1.3,0.9-2.9,1.6-4.5,1.7c-2.5,0.2-5.2-0.9-7.6-1.5c-2.9-0.7-6-0.9-8.7-2.5c-1.8-1.1-2.6-2.3-4.8-2.4c-1.2,0-2,0.2-3-0.6
				c-2.1-1.6-0.4-3-0.8-4.9c-1.9,0.1-4.3-2.2-5-3.8c-0.7-1.5-1.9-4.1-1.6-5.7c0.2-0.9,0.6-1.2,0.9-1.9c0.4-0.9,0.2-1.6,0.3-2.6
				c0.4-2.6,2.5-3.7,4.6-4.6c2-0.9,1.2-1.5,2-3.1c1.3-2.5,4.4-1.9,6.6-2.3c2.9-0.5,2.2-3.8,4.3-4.8c1.7-0.9,2.9,0.8,4.1-0.9
				c0.5-0.7,0.2-1.1,1.2-1.9c1.1-0.9,2.4-1.5,3.9-1.3c0.4,0,0.6,0.6,1,0.6c0.5,0,0.8-0.4,1.2-0.6C51.2,64.5,52.1,64.1,53.4,65z"/>
			<path class="st9" d="M31.3,92c-1.1,0-2.1-0.3-2.8-1.3c-0.6-0.8-1.4-2.5-1-3.6c0.1-0.3,0.4-0.4,0.7-0.4c0.3,0.1,0.4,0.4,0.3,0.7
				c-0.2,0.6,0.3,1.8,0.8,2.6c1,1.4,3.2,0.7,4.9,0.2l0.2,0c1.7-0.5,3.4-1,4.8-1.8c1.2-0.7,1.9-1.9,2.6-3.2c0.3-0.6,0.6-1.2,1-1.8
				c0.6-1,1.1-2.1,1.7-3.1c0.2-0.3,0.3-0.6,0.5-1c0.2-0.5,0.4-1,0.7-1.4c0.2-0.3,0.5-0.3,0.8-0.1c0.3,0.2,0.3,0.5,0.1,0.8
				c-0.2,0.3-0.4,0.7-0.6,1.2c-0.2,0.4-0.3,0.8-0.5,1.1c-0.6,1-1.1,2-1.7,3.1c-0.3,0.6-0.6,1.2-1,1.8c-0.7,1.3-1.5,2.7-3,3.6
				c-1.5,0.9-3.3,1.4-4.9,1.9l-0.2,0.1C33.7,91.6,32.5,92,31.3,92z"/>
			<path class="st9" d="M31.7,88.6c-0.8,0-1.4-0.2-1.9-0.6c-0.3-0.3-0.7-0.9-0.4-2c0.6-2.4,2.8-2.8,4.7-3.1c2.2-0.4,3.5-0.7,3.9-2.3
				c0.1-0.3,0.4-0.5,0.7-0.4c0.3,0.1,0.5,0.4,0.4,0.7c-0.5,2.5-2.8,2.9-4.8,3.2c-2.1,0.4-3.5,0.7-3.8,2.3c-0.1,0.4-0.1,0.7,0.1,0.9
				c0.2,0.2,1.1,0.6,4.4-0.4c1.5-0.4,2.7-1.3,3.7-2.1c0.2-0.2,0.4-0.3,0.6-0.5c0.6-0.4,1.2-0.9,1.6-1.4c0.1-0.2,0.2-0.5,0.3-0.7
				c0.1-0.2,0.2-0.4,0.3-0.6c0.1-0.3,0.5-0.4,0.7-0.2c0.3,0.1,0.4,0.5,0.2,0.7c-0.1,0.2-0.1,0.3-0.2,0.5c-0.1,0.3-0.2,0.6-0.5,0.9
				c-0.5,0.7-1.2,1.2-1.9,1.7c-0.2,0.1-0.4,0.3-0.6,0.4c-1.1,0.9-2.5,1.8-4.1,2.3C34.2,88.3,32.9,88.6,31.7,88.6z"/>
			<path class="st10" d="M42.3,65.8c-1.8-0.1-3.8,0-4.3,2c-0.3,1.5-0.3,2.6-1.4,3.9c-0.7,0.8-1.6,1-2.5,1.7c-0.6,0.5,0,1.8-0.3,2.7
				c-0.3,0.9-1.6,1.3-1.4,2.1c0.2,1.1,1.3,5.4,3,5.3c0.7,0,1.5,1,2.3,1.3c0.4,0.2,1.1-0.5,1.4-0.3c0.4,0.2-0.3,1.2-0.1,1.5
				c0.3,0.3,1.2,0.6,1.5,0.8c0.7,0.6,1.7,0.5,1.9,1.3c0.3,1.1,0,2.4,0.3,3.6c0.4,1.4,0.5,1.2,1.9,1.5c1.4,0.3,1.7,0.9,2.9,1.7
				c1.9,1.2,1.8-1.7,3.7-2c1.2-0.2,4.4,2.9,5.5,2.8c1.5-0.1,2.9-0.4,4.4-0.4c0.4,0,1.8,0.2,2.1,0c0.6-0.4,0.2-1,0.5-1.4
				c0.6-0.8,1.7-0.5,2.9-0.6c0.1-1.8-0.1-2.9,1.1-4.3c1.3-1.6,1.1-2.3,1.1-4.3c0-1.8,1.2-1.5,2.2-2.8c2.4-2.9-2-4.8-3.1-6.8
				c-0.6-1.1,0.1-2.3-0.6-3.5c-0.8-1.1-2.1-2-3-3.1c-1.1-1.4-2-2.3-3.8-2.9c-1.1-0.4-1.7-0.5-2.6-1.2c-1-0.7-1-0.9-2.3-1
				c-1.5-0.1-3,0.8-4.5,0.8c-1.4,0.1-2.8-0.7-4.2-0.4c-0.9,0.2-1.9,0.6-2.8,0.7C43.7,64.7,42.8,64.1,42.3,65.8z"/>
			<g>
				<path class="st11" d="M39.5,79c-0.5,0-1-0.1-1.3-0.5c-0.3-0.4-0.4-0.9-0.2-1.5c0.1-0.3,0.4-0.5,0.7-0.4c0.3,0.1,0.5,0.4,0.4,0.7
					c-0.1,0.3,0,0.4,0,0.5c0,0,0.2,0.2,0.9,0.1c0.3,0,0.6,0.2,0.6,0.5c0,0.3-0.2,0.6-0.5,0.6C39.9,79,39.7,79,39.5,79z"/>
				<path class="st12" d="M45.1,77.9c-0.6,0-1-0.3-1.4-0.6c-0.2-0.1-0.3-0.2-0.5-0.3c-0.3-0.1-0.4-0.5-0.2-0.7
					c0.1-0.3,0.5-0.4,0.7-0.2c0.2,0.1,0.4,0.3,0.6,0.4c0.5,0.4,0.7,0.5,1.1,0.3c0.3-0.1,0.6,0,0.7,0.2c0.1,0.3,0,0.6-0.2,0.7
					C45.6,77.9,45.3,77.9,45.1,77.9z"/>
				<path class="st11" d="M49,80.1c-0.2,0-0.4,0-0.6-0.1c-0.3,0-0.5-0.3-0.5-0.6c0-0.3,0.3-0.5,0.6-0.5c0.8,0.1,1.1,0,1.3-0.7
					c0.1-0.3,0.4-0.5,0.7-0.4c0.3,0.1,0.4,0.4,0.4,0.7C50.6,79.7,50,80.1,49,80.1z"/>
				<path class="st11" d="M41.2,72.6c-0.2,0-0.4,0-0.6,0c-0.3,0-0.5-0.3-0.5-0.6c0-0.3,0.3-0.5,0.6-0.5c0.8,0.1,1.1,0,1.3-0.7
					c0.1-0.3,0.4-0.5,0.7-0.4c0.3,0.1,0.4,0.4,0.4,0.7C42.8,72.1,42.2,72.6,41.2,72.6z"/>
				<path class="st11" d="M46.6,85.9c-0.5,0-1-0.1-1.3-0.5C45,85,44.9,84.5,45,83.9c0.1-0.3,0.4-0.5,0.7-0.4
					c0.3,0.1,0.5,0.4,0.4,0.7c-0.1,0.3,0,0.4,0,0.5c0,0,0.2,0.2,0.9,0.1c0.3,0,0.6,0.2,0.6,0.5c0,0.3-0.2,0.6-0.5,0.6
					C47,85.9,46.8,85.9,46.6,85.9z"/>
				<path class="st11" d="M52.4,84.5c-0.6,0-1-0.3-1.4-0.6c-0.2-0.1-0.3-0.2-0.5-0.3c-0.3-0.1-0.4-0.5-0.2-0.7
					c0.1-0.3,0.5-0.4,0.7-0.2c0.2,0.1,0.4,0.3,0.6,0.4c0.5,0.4,0.7,0.5,1.1,0.3c0.3-0.1,0.6,0,0.7,0.2c0.1,0.3,0,0.6-0.2,0.7
					C52.9,84.4,52.7,84.5,52.4,84.5z"/>
				<path class="st11" d="M47.4,91.4c-0.6,0-1-0.3-1.4-0.6c-0.2-0.1-0.3-0.2-0.5-0.3c-0.3-0.1-0.4-0.5-0.2-0.7
					c0.1-0.3,0.5-0.4,0.7-0.2c0.2,0.1,0.4,0.3,0.6,0.4c0.5,0.4,0.7,0.5,1.1,0.3c0.3-0.1,0.6,0,0.7,0.2c0.1,0.3,0,0.6-0.2,0.7
					C48,91.3,47.7,91.4,47.4,91.4z"/>
				<path class="st11" d="M55.6,88.9c-0.2,0-0.4,0-0.6,0c-0.2,0-0.4,0-0.6,0c-0.3,0-0.6-0.2-0.6-0.5c0-0.3,0.2-0.6,0.5-0.6
					c0.2,0,0.5,0,0.7,0c0.6,0.1,0.9,0.1,1.1-0.3c0.2-0.3,0.5-0.3,0.8-0.2c0.3,0.2,0.3,0.5,0.2,0.8C56.7,88.8,56.1,88.9,55.6,88.9z"
					/>
				<path class="st12" d="M56.4,84.4c-0.2,0-0.4,0-0.6-0.1c-0.3,0-0.5-0.3-0.5-0.6c0-0.3,0.3-0.5,0.6-0.5c0.8,0.1,1.1,0,1.3-0.7
					c0.1-0.3,0.4-0.5,0.7-0.4c0.3,0.1,0.5,0.4,0.4,0.7C58.1,83.9,57.4,84.4,56.4,84.4z"/>
			</g>
			<g>
				<path class="st11" d="M48.8,71.8c-0.5,0-1-0.1-1.3-0.5c-0.3-0.4-0.4-0.9-0.2-1.5c0.1-0.3,0.4-0.5,0.7-0.4
					c0.3,0.1,0.5,0.4,0.4,0.7c-0.1,0.3,0,0.4,0,0.5c0,0,0.2,0.2,0.9,0.1c0.3,0,0.6,0.2,0.6,0.5c0,0.3-0.2,0.6-0.5,0.6
					C49.2,71.8,49,71.8,48.8,71.8z"/>
				<path class="st11" d="M53.3,74c-0.6,0-1-0.3-1.4-0.6c-0.2-0.1-0.3-0.2-0.5-0.3c-0.3-0.1-0.4-0.5-0.2-0.7
					c0.1-0.3,0.5-0.4,0.7-0.2c0.2,0.1,0.4,0.3,0.6,0.4c0.5,0.4,0.7,0.5,1.1,0.3c0.3-0.1,0.6,0,0.7,0.2c0.1,0.3,0,0.6-0.2,0.7
					C53.8,73.9,53.6,74,53.3,74z"/>
				<path class="st11" d="M57.7,70c-0.2,0-0.4,0-0.6-0.1c-0.3,0-0.5-0.3-0.5-0.6c0-0.3,0.3-0.5,0.6-0.5c0.8,0.1,1.1,0,1.3-0.7
					c0.1-0.3,0.4-0.5,0.7-0.4c0.3,0.1,0.4,0.4,0.4,0.7C59.3,69.5,58.7,70,57.7,70z"/>
				<path class="st11" d="M56,78.6c-0.5,0-1-0.1-1.3-0.5c-0.3-0.4-0.4-0.9-0.2-1.5c0.1-0.3,0.4-0.5,0.7-0.4c0.3,0.1,0.5,0.4,0.4,0.7
					c-0.1,0.3,0,0.4,0,0.5c0,0,0.2,0.2,0.9,0.1c0.3,0,0.6,0.2,0.6,0.5c0,0.3-0.2,0.6-0.5,0.6C56.4,78.6,56.2,78.6,56,78.6z"/>
				<path class="st12" d="M61.3,76.5c-0.6,0-1-0.3-1.4-0.6c-0.2-0.1-0.3-0.2-0.5-0.3c-0.3-0.1-0.4-0.5-0.2-0.7
					c0.1-0.3,0.5-0.4,0.7-0.2c0.2,0.1,0.4,0.3,0.6,0.4c0.5,0.4,0.7,0.5,1.1,0.3c0.3-0.1,0.6,0,0.7,0.2c0.1,0.3,0,0.6-0.2,0.7
					C61.8,76.4,61.6,76.5,61.3,76.5z"/>
				<path class="st11" d="M65.1,78.1c-0.2,0-0.4,0-0.6-0.1c-0.3,0-0.5-0.3-0.5-0.6c0-0.3,0.3-0.5,0.6-0.5c0.8,0.1,1.1,0,1.3-0.7
					c0.1-0.3,0.4-0.5,0.7-0.4c0.3,0.1,0.5,0.4,0.4,0.7C66.7,77.7,66.1,78.1,65.1,78.1z"/>
			</g>
			<path class="st1" d="M68.4,86.5c-1,0.1-1,1.1-1.2,1.7c-0.2,0.7-0.5,0.9-1.2,1c-0.5,0.1-0.5,0-0.8,0.5c-0.2,0.3-0.2,0.5-0.4,0.8
				c-0.6,0.6-1.9,1.2-2.4,0.3c0.4-0.1,1.4-0.7,1.6-1c0.3-0.5,0-1,0.6-1.3c0.2-0.1,0.5,0,0.7-0.1c0.4-0.1,0.7-0.4,1-0.7
				C66.8,87.2,67.1,86.5,68.4,86.5z"/>
			<g>
				<path class="st9" d="M65.7,101c-0.1,0-0.1,0-0.2,0c-0.3-0.1-0.5-0.4-0.4-0.7c0.3-0.9,1-1.3,1.8-1.7c0.5-0.3,1.1-0.6,1.3-1
					c0.7-1.1,0.8-2.8,0.9-4.3c0-0.5,0.1-0.9,0.1-1.4c0-0.3,0.3-0.5,0.6-0.5c0.3,0,0.5,0.3,0.5,0.6c0,0.4-0.1,0.8-0.1,1.3
					c-0.1,1.6-0.2,3.5-1,4.8c-0.4,0.7-1.1,1-1.7,1.4c-0.6,0.3-1.2,0.6-1.3,1.1C66.1,100.8,65.9,101,65.7,101z"/>
				<path class="st9" d="M31.1,97.4c-1,0-2-0.1-3-0.4c-1.6-0.6-3.6-1.7-3.9-4.2c0-0.2,0-0.3,0-0.4c0-0.3,0-0.5-0.2-0.7
					c-0.2-0.2-0.4-0.4-0.7-0.7c-0.4-0.3-0.8-0.6-1.1-1c-0.8-1.4,0.2-2.8,0.9-3.9l0.2-0.3c0.2-0.3,0.5-0.3,0.8-0.2
					c0.3,0.2,0.3,0.5,0.1,0.8L24,86.6c-0.8,1.1-1.3,2-0.9,2.7c0.2,0.3,0.5,0.5,0.8,0.7c0.4,0.3,0.8,0.5,1,1c0.3,0.5,0.3,0.9,0.4,1.2
					c0,0.1,0,0.2,0,0.4c0.2,1.5,1.2,2.5,3.2,3.3c1.2,0.5,2.6,0.4,3.9,0.3c0.4,0,0.9,0,1.3,0c0,0,0,0,0,0c0.2,0,0.5,0,0.7,0
					c0.8,0,2.1,0.1,2.4-0.4c0.2-0.2,0.5-0.3,0.8-0.1c0.2,0.2,0.3,0.5,0.1,0.8c-0.7,0.9-2.3,0.9-3.4,0.8c-0.2,0-0.5,0-0.7,0
					c0,0,0,0,0,0c-0.4,0-0.8,0-1.3,0C32.1,97.3,31.6,97.4,31.1,97.4z"/>
				<path class="st9" d="M26.2,83.9c-0.1,0-0.2,0-0.3-0.1c-0.3-0.2-0.3-0.5-0.2-0.8c0.3-0.4,0.7-0.6,1.1-0.8
					c0.2-0.1,0.4-0.2,0.5-0.3c0.4-0.3,0.6-0.8,0.9-1.3c0.1-0.3,0.3-0.6,0.4-0.8c0.1-0.2,0.3-0.4,0.4-0.6c0.3-0.3,0.5-0.6,0.5-0.9
					c0-0.3,0.3-0.5,0.6-0.5c0.3,0,0.5,0.3,0.5,0.6c-0.1,0.6-0.4,1.1-0.8,1.5c-0.1,0.2-0.3,0.3-0.4,0.5c-0.1,0.2-0.2,0.5-0.4,0.7
					c-0.3,0.6-0.6,1.2-1.2,1.7c-0.2,0.2-0.5,0.3-0.8,0.4c-0.2,0.1-0.5,0.2-0.5,0.3C26.5,83.9,26.3,83.9,26.2,83.9z"/>
				<path class="st9" d="M35.2,103.3c-0.5,0-1,0-1.5,0c-0.5,0-0.9,0-1.4,0c-0.3,0-0.6-0.2-0.6-0.6c0-0.3,0.2-0.6,0.6-0.6
					c0.5,0,0.9,0,1.4,0c1.3,0,2.7,0.1,3.9-0.2c1.6-0.4,3.1-2,4.3-3.2l0.8,0.8c-1.2,1.3-2.9,3.1-4.8,3.5
					C37,103.3,36.1,103.3,35.2,103.3z"/>
				<path class="st9" d="M45.8,106.4c-0.3,0-0.6-0.2-0.6-0.6c0-0.3,0.2-0.6,0.6-0.6c1,0,1.7-0.2,2.3-0.6c0.6-0.4,1-0.8,1.6-1.3
					c0.5-0.5,1-1,1.7-1.4c1.9-1.2,3.7-1.9,5.9-2.1c0.3,0,0.6,0.2,0.6,0.5c0,0.3-0.2,0.6-0.5,0.6c-2,0.2-3.6,0.8-5.4,1.9
					c-0.5,0.4-1,0.8-1.5,1.2c-0.5,0.5-1.1,1-1.7,1.4C47.9,106.2,47,106.4,45.8,106.4L45.8,106.4z"/>
				<path class="st9" d="M74.7,96.9c-0.4,0-0.8-0.1-1.2-0.3c-0.3-0.2-0.4-0.5-0.2-0.8c0.2-0.3,0.5-0.4,0.8-0.2
					c1.4,0.8,3.2-1.4,4-2.3c1.3-1.5,0.8-3.1,0.3-5l-0.2-0.7c-0.3-1-0.1-1.9,0.1-2.7c0.1-0.7,0.3-1.4,0.1-2.1
					c-0.2-0.8-1.6-2.5-2.2-2.4c-0.3,0-0.6-0.2-0.6-0.5c0-0.3,0.2-0.6,0.5-0.6c1.5-0.2,3.2,2.2,3.4,3.2c0.3,0.9,0.1,1.8-0.1,2.6
					c-0.1,0.7-0.3,1.4-0.1,2.2l0.2,0.7c0.6,2,1.2,4.1-0.5,6C78.2,95,76.5,96.9,74.7,96.9z"/>
				<path class="st9" d="M73.2,78.8c-0.2,0-0.5-0.2-0.5-0.4c-0.1-0.5-0.1-1-0.1-1.4c0-0.6,0-1.1-0.2-1.5c-0.1-0.3-0.2-0.3-0.6-0.4
					c-0.2-0.1-0.3-0.1-0.5-0.2c-1.2-0.5-1.4-0.8-1.6-1.7c0-0.2-0.1-0.4-0.1-0.6c-0.1-0.3,0.1-0.6,0.4-0.7c0.3-0.1,0.6,0.1,0.7,0.4
					c0.1,0.3,0.1,0.5,0.2,0.7c0.1,0.5,0.1,0.5,0.9,0.9c0.2,0.1,0.3,0.1,0.4,0.2c0.4,0.1,0.9,0.3,1.2,1c0.3,0.6,0.3,1.4,0.3,2
					c0,0.4,0,0.8,0.1,1.2c0.1,0.3-0.1,0.6-0.4,0.7C73.3,78.8,73.2,78.8,73.2,78.8z"/>
				<path class="st9" d="M63.1,106.5c-0.9,0-1.7-0.2-2.1-0.8c-0.2-0.2-0.1-0.6,0.1-0.8c0.3-0.2,0.6-0.1,0.8,0.1
					c0.4,0.6,2.9,0.2,4.9-0.5c1.1-0.4,1.9-0.8,2.4-1.2c0.3-0.2,0.5-0.5,0.8-0.9c0.4-0.5,0.8-1,1.4-1.3c0.7-0.4,1.6-0.4,2.5-0.4
					c0.5,0,1,0,1.3-0.1c2.6-0.6,3.6-2.5,4.9-4.7l0.5-0.8c0.2-0.3,0.5-0.4,0.8-0.2c0.3,0.2,0.4,0.5,0.2,0.8L81,96.5
					c-1.2,2.3-2.5,4.6-5.6,5.3c-0.5,0.1-1,0.1-1.6,0.1c-0.7,0-1.5,0-2,0.3c-0.4,0.2-0.7,0.6-1.1,1.1c-0.3,0.4-0.6,0.7-1,1
					c-0.6,0.5-1.5,0.9-2.7,1.4C66.9,105.7,64.8,106.5,63.1,106.5z"/>
			</g>
			<path class="st9" d="M73.7,97.4c-0.3,0-0.6,0-1-0.1c-2.5-0.3-2.9-1.1-2.9-3.5c0-0.3,0.2-0.5,0.6-0.5c0.3,0,0.5,0.3,0.5,0.6
				c-0.1,1.9,0,2.2,1.9,2.4c1.3,0.1,2.3,0,2.8-0.5c0.4-0.4,0.5-1,0.3-1.8c-0.2-1.1-1-1.7-1.9-2.4c-0.6-0.5-1.3-0.9-1.8-1.6
				C71,88.2,71,86.2,71,84.5c0-0.3,0.2-0.6,0.5-0.6c0,0,0,0,0,0c0.3,0,0.5,0.2,0.6,0.5c0,1.6,0,3.3,1.1,4.7c0.4,0.6,1,1,1.6,1.4
				c1,0.7,2.1,1.5,2.4,3.1c0.2,1.2,0,2.1-0.6,2.8C75.9,97.1,74.9,97.4,73.7,97.4z"/>
			<path class="st9" d="M58.8,102c-0.5,0-1.1-0.1-1.6-0.3c-0.3-0.1-0.5-0.4-0.4-0.7c0.1-0.3,0.4-0.5,0.7-0.4c1.7,0.5,3.1,0,4.5-1.6
				c0.4-0.4,0.7-0.9,1-1.4c0.5-0.7,1.1-1.5,1.8-2.2c0.3-0.3,0.7-0.5,1-0.8c0.5-0.3,0.9-0.7,1.1-1.1c0.1-0.3,0.4-0.4,0.7-0.3
				c0.3,0.1,0.4,0.4,0.3,0.7c-0.3,0.7-0.9,1.1-1.5,1.5c-0.3,0.2-0.6,0.4-0.8,0.7c-0.6,0.6-1.1,1.3-1.7,2.1c-0.4,0.5-0.7,1-1.1,1.5
				C61.7,101.3,60.3,102,58.8,102z"/>
			<path class="st9" d="M57.6,106.8c-0.6,0-1.2,0-1.8-0.1c-2.4-0.4-3.4-2.1-4.4-3.7c-0.4-0.7-0.8-1.3-1.3-1.9c-2-2.4-7.1-6.8-10-7.1
				c-0.3,0-0.5-0.3-0.5-0.6c0-0.3,0.3-0.5,0.6-0.5c3.4,0.4,8.8,5.2,10.8,7.5c0.6,0.7,1,1.4,1.4,2.1c0.9,1.5,1.7,2.9,3.6,3.2
				c2.5,0.4,5.3-0.2,6.8-1.4c0.2-0.2,0.6-0.2,0.8,0.1c0.2,0.2,0.1,0.6-0.1,0.8C62,106.1,59.8,106.8,57.6,106.8z"/>
		</g>
	</g>
	<polygon class="st13" points="88.8,42 14.4,48.8 14.4,20.6 88.8,13.8 	"/>
	<path class="st14" d="M75.7,18.1L88.8,17L88,39.8l-27.8,3.3c0,0,15.5-13.8,16-17.7C76.8,21.6,75.7,18.1,75.7,18.1z"/>
	<g>
		<path class="st1" d="M29.6,27.2c0,0,0.3,3.1,0.3,3.1l-1,0.1l-0.5-6l1-0.1l0.2,1.9c1.4,0.2,2.7,0.3,4,0.6l0.1,1
			C32.2,27.5,30.8,27.3,29.6,27.2z"/>
		<path class="st1" d="M37.8,27.9c0.5,0.5,0.9,1,1.2,1.5l-1.2,0.1c-0.8-1.1-1.9-2.3-2.8-3.2l1.2-0.1c0.3,0.3,0.6,0.7,1,1.1
			c1-0.6,1.6-1.4,1.8-2.5l-4.9,0.4L34,24.2l6.1-0.5l0,0.1C40.1,25.9,39.2,27.2,37.8,27.9z"/>
		<path class="st1" d="M42.8,26c0,0,0.3,3.1,0.3,3.1l-1,0.1l-0.5-6l1-0.1l0.2,1.9c1.4,0.2,2.7,0.3,4,0.6l0.1,1
			C45.5,26.4,44.1,26.2,42.8,26z"/>
		<path class="st1" d="M49.6,24.1c-0.1,1.5-0.3,2.8-0.6,4.3l-1,0.1c0.3-1.4,0.6-2.8,0.7-4.3l-1,0.1l-0.1-0.9l1.1-0.1
			c0-0.3,0-0.5,0-0.8l0.9-0.1c0,0.3,0,0.5-0.1,0.8l3.2-0.3l0.1,0.9L49.6,24.1z M52,28.3c-1.3,0.1-2-0.3-2.1-1.1
			c0-0.5,0.2-0.9,0.4-1.2l1-0.1c-0.2,0.2-0.5,0.7-0.5,1.1c0,0.3,0.4,0.5,1.2,0.4c0.6-0.1,1.3-0.2,1.8-0.4l0.1,0.9
			C53.4,28.1,52.8,28.2,52,28.3z M50.1,25.5l-0.1-0.8l3.4-0.3l0.1,0.8L50.1,25.5z"/>
		<path class="st1" d="M56.7,27.5c-0.1,0-0.2,0-0.3,0l-0.1-0.8c1.8-0.2,3-0.7,2.9-1.8c-0.1-0.6-0.5-1-1.6-0.9c-1,0.1-2,0.5-2.8,0.8
			L54.8,24c0.7-0.3,1.8-0.7,2.8-0.8c1.7-0.1,2.4,0.6,2.5,1.6C60.3,26.3,59.3,27.3,56.7,27.5z"/>
		<path class="st1" d="M62.3,27.1l-1,0.1c0.3-1.2,0.5-2.4,0.4-3.8l0.9-0.1C62.6,24.6,62.5,25.8,62.3,27.1z M64.4,23.6
			c0,0.1,0.3,0.3,0.5,0.5c0.4,0.3,0.9,0.7,0.9,1.4c0.1,1-0.6,1.7-1.7,1.8c-0.6,0.1-1.1-0.1-1.4-0.2l-0.1-1c0.4,0.2,0.8,0.4,1.3,0.3
			c0.6,0,0.9-0.4,0.9-0.9c0-0.4-0.3-0.7-0.8-1.1c-0.3-0.2-0.6-0.4-0.7-0.8c0-0.4,0.3-0.8,1-1.5l-2.3,0.2l-0.1-0.9l3.9-0.3L66,22
			C65,22.7,64.4,23.4,64.4,23.6z M66.9,26.6c-0.2-1-0.6-2.4-1.3-3.6l1-0.1c0.6,1.1,1.1,2.4,1.3,3.6L66.9,26.6z M66.9,22.4
			c-0.4,0-0.7-0.3-0.8-0.6c0-0.4,0.3-0.7,0.6-0.8c0.4,0,0.7,0.3,0.8,0.6C67.6,22,67.3,22.3,66.9,22.4z M66.8,21.3
			c-0.2,0-0.3,0.2-0.3,0.3c0,0.2,0.2,0.3,0.4,0.3c0.2,0,0.3-0.2,0.3-0.4C67.1,21.4,67,21.3,66.8,21.3z"/>
		<path class="st1" d="M70.2,26.7l-0.1-0.9c1.9-0.2,2.9-0.9,2.7-2.7c-0.1-0.7-0.4-1.7-1.3-1.6c-1,0.1-1.6,1.6-1.7,3.3L69,24.9
			c-0.1-1-0.2-2.5-0.3-3.9l0.9-0.1c0,0.4,0,0.9,0,1.4c0.1-0.3,0.6-1.5,1.9-1.6c1.4-0.1,2.1,1.1,2.2,2.4C74,25.3,73,26.5,70.2,26.7z"
			/>
		<path class="st1" d="M24.9,36.1c-0.1,0-0.2,0-0.3,0l-0.1-1.4c2.3-0.2,5-0.4,7.2-0.3l0.1,1.4C29.4,35.8,27.2,35.9,24.9,36.1z
			 M24.8,42.4L24.6,41c2.6-0.2,5.4-0.3,8-0.1l0.1,1.4C30.2,42.1,27.3,42.2,24.8,42.4z M25.1,39.1L25,37.8c2-0.1,4.3-0.3,6.5-0.2
			l0.1,1.4C29.4,38.9,27.3,38.9,25.1,39.1z"/>
		<path class="st1" d="M33.9,38.2l-0.1-1.3l8.4-0.7l0.1,1.3L33.9,38.2z"/>
		<path class="st1" d="M46.1,36.8c0,0,0.4,4.5,0.4,4.5L45,41.4l-0.8-8.7l1.4-0.1l0.2,2.8c2,0.2,4,0.5,5.8,0.8l0.1,1.4
			C49.9,37.3,47.9,37,46.1,36.8z"/>
		<path class="st1" d="M54.2,36.3c-0.5-1.2-1.1-2.6-1.8-3.9l1.5-0.1c0.7,1.1,1.3,2.5,1.8,3.9L54.2,36.3z M54.9,40.5l-0.1-1.3
			c3-1,4.8-3,4.6-7.4l1.5-0.1C61.1,36.9,58.8,39.5,54.9,40.5z"/>
		<path class="st1" d="M62.7,35.7l-0.1-1.3l8.4-0.7l0.1,1.3L62.7,35.7z"/>
		<path class="st1" d="M76.5,35.6c-1.3,1.7-3,2.8-4.7,3.4l-0.1-1.3c2.2-0.9,4.5-3,5-6l-5,0.4l-0.1-1.3l6.8-0.6c0,1.5-0.4,2.9-1,4.1
			c0.7,1.3,1.8,2.1,2.8,2.6l0.1,1.5C78.7,37.9,77.4,36.8,76.5,35.6z"/>
	</g>
	<path class="st13" d="M90.8,115H12.8V7h78.1V115z M16.8,110.9h69.9V11.1H16.8V110.9z"/>
	<linearGradient id="SVGID_6_" gradientUnits="userSpaceOnUse" x1="22.6021" y1="96.786" x2="32.5844" y2="106.7683">
		<stop  offset="0" style="stop-color:#D2BA7F"/>
		<stop  offset="0.3908" style="stop-color:#A67F00"/>
		<stop  offset="0.4183" style="stop-color:#AD8714"/>
		<stop  offset="0.5692" style="stop-color:#CFA878"/>
		<stop  offset="0.8258" style="stop-color:#AD8714"/>
		<stop  offset="1" style="stop-color:#D2BA7F"/>
	</linearGradient>
	<path class="st15" d="M34.7,101.8c0-3.9-3.2-7.1-7.1-7.1c-3.9,0-7.1,3.2-7.1,7.1c0,3.9,3.2,7.1,7.1,7.1
		C31.5,108.8,34.7,105.7,34.7,101.8z"/>
	<g>
		<path class="st16" d="M24,103.2c0.4,0,0.5-0.2,0.6-0.4l0.3,0l-0.4,1h-2.3l0.1-0.4c1.1-0.9,1.4-1.1,1.7-1.5
			c0.2-0.2,0.4-0.5,0.4-0.9c0.1-0.3,0-0.8-0.5-0.8c-0.1,0-0.5,0-0.9,0.7l-0.2-0.1c0.4-0.6,0.9-0.9,1.4-0.9c0.7,0,1,0.5,0.9,1.1
			c-0.1,0.4-0.3,0.9-1.2,1.5c-0.6,0.5-0.7,0.5-0.9,0.7H24z"/>
		<path class="st16" d="M26,100H28l-0.2,0.6h-1.6l-0.2,0.8c0.1,0,0.2,0,0.5,0c0.2,0,1.6,0,1.4,1.2c-0.1,0.7-0.9,1.3-1.9,1.3
			c-0.5,0-1-0.2-0.9-0.5c0-0.2,0.2-0.3,0.4-0.3c0.2,0,0.3,0.2,0.3,0.3c0,0.1,0.1,0.3,0.3,0.3c0.5,0,1-0.3,1.1-0.9
			c0.1-0.8-0.6-0.8-1-0.8c-0.3,0-0.5,0-0.7,0.1L26,100z"/>
		<path class="st16" d="M29.9,99.9c0.6,0,1.2,0.5,1,2c-0.3,1.4-1.1,2-1.7,2c-0.6,0-1.2-0.6-1-2C28.5,100.4,29.4,99.9,29.9,99.9z
			 M29.3,103.6c0.2,0,0.7,0,1-1.7c0.3-1.7-0.1-1.7-0.3-1.7c-0.2,0-0.7,0-1,1.7C28.7,103.6,29.1,103.6,29.3,103.6z"/>
		<path class="st16" d="M30.7,104.1c0.1-0.3,0.4-0.4,0.5-0.5c-0.1-0.1-0.2-0.2-0.1-0.2c0-0.2,0.3-0.3,0.4-0.4
			c-0.2-0.1-0.3-0.3-0.3-0.6c0.1-0.4,0.4-0.6,0.8-0.6c0.1,0,0.3,0,0.4,0.1c0.1-0.1,0.3-0.2,0.5-0.2c0.2,0,0.2,0.1,0.2,0.2
			c0,0.1-0.1,0.2-0.2,0.2c-0.1,0-0.1,0-0.1,0c0,0-0.1,0-0.1,0c-0.1,0-0.1,0-0.1,0c0.1,0.1,0.1,0.2,0.1,0.4c-0.1,0.4-0.4,0.6-0.8,0.6
			c0,0-0.3,0.1-0.3,0.2c0,0.1,0.1,0.1,0.3,0.1c0.4,0,0.9,0,0.8,0.5c-0.1,0.4-0.6,0.7-1.2,0.7C31,104.6,30.7,104.5,30.7,104.1z
			 M31.1,104.1c0,0.2,0.1,0.4,0.4,0.4c0.3,0,0.6-0.2,0.7-0.5c0-0.2-0.2-0.3-0.3-0.3c-0.1,0-0.1,0-0.4,0
			C31.3,103.8,31.1,103.9,31.1,104.1z M32.2,102.5c0-0.1,0.1-0.5-0.2-0.5c-0.2,0-0.3,0.1-0.4,0.4c0,0.1-0.1,0.5,0.2,0.5
			C31.9,102.9,32.1,102.8,32.2,102.5z"/>
	</g>
</g>
<g>
	<g>
		<rect x="56.9" y="32.4" class="st3" width="74" height="103.8"/>
		
			<pattern  id="SVGID_7_" xlink:href="#譁ｰ隕上ヱ繧ｿ繝ｼ繝ｳ繧ｹ繧ｦ繧ｩ繝メ_30" patternTransform="matrix(0.1262 0 0 0.1262 -7098.5215 -7231.0815)">
		</pattern>
		<rect x="56.9" y="32.4" class="st17" width="74" height="103.9"/>
	</g>
	<g>
		<defs>
			<rect id="SVGID_8_" x="56.9" y="71.8" width="74" height="64.5"/>
		</defs>
		<defs>
			<rect id="SVGID_9_" x="56.9" y="71.8" width="74" height="64.5"/>
		</defs>
		<clipPath id="SVGID_10_">
			<use xlink:href="#SVGID_8_"  style="overflow:visible;"/>
		</clipPath>
		<clipPath id="SVGID_11_" class="st18">
			<use xlink:href="#SVGID_9_"  style="overflow:visible;"/>
		</clipPath>
		<g class="st19">
			<path class="st7" d="M139.2,114.6c0,14.1-20.1,25.6-44.9,25.6c-24.8,0-44.9-11.4-44.9-25.6S69.5,89,94.3,89
				C119.1,89,139.2,100.4,139.2,114.6z"/>
			<path class="st1" d="M139.2,113c0,14.1-20.1,25.6-44.9,25.6c-24.8,0-44.9-11.4-44.9-25.6c0-14.1,20.1-25.6,44.9-25.6
				C119.1,87.4,139.2,98.9,139.2,113z"/>
			<path class="st7" d="M94.3,136.7c-11.7,0-22.6-2.6-30.8-7.2c-7.9-4.5-12.2-10.3-12.2-16.5c0-6.1,4.3-12,12.2-16.5
				c8.2-4.7,19.1-7.2,30.8-7.2c11.7,0,22.6,2.6,30.8,7.2c7.9,4.5,12.2,10.3,12.2,16.5c0,6.1-4.3,12-12.2,16.5
				C116.9,134.1,106,136.7,94.3,136.7z M94.3,89.8c-11.6,0-22.4,2.5-30.5,7.2c-7.7,4.4-11.9,10.1-11.9,16c0,5.9,4.2,11.6,11.9,16
				c8.1,4.6,19,7.2,30.5,7.2c11.6,0,22.4-2.5,30.5-7.2c7.7-4.4,11.9-10.1,11.9-16c0-5.9-4.2-11.6-11.9-16
				C116.7,92.4,105.9,89.8,94.3,89.8z"/>
			<path class="st8" d="M95.5,88.4c1.8-0.5,3.8-0.5,5.6-0.3c1.5,0.1,1.2,0.4,2.3,1c0.6,0.4,1,0.4,1.7,0.7c1.1,0.4,1.1,0.9,2,1.8
				c1.9,2.1,6.1,0.3,7.9,3.1c0.4,0.7,0,1.6,0.4,2.1c0.4,0.6,0.4,0.2,1,0.6c1,0.8,1.7,1.4,2.6,2.5c1.1,1.3,2.7,1.5,3.5,3.2
				c1,2,1.2,3.4,1.2,5.5c0,1.7,0.4,2.7,0.9,4.2c0.5,1.5,1.8,3.5,1.3,5.1c-0.5,1.6-2.5,2.7-3.2,4.1c-0.6,1.4-0.3,2.2-2,2.9
				c-1.8,0.6-4.2,0.2-5.9,0.8c-1.8,0.6-0.5,2.4-1.7,3.6c-1.4,1.4-5.5,1.4-7.3,1.3c-1.7-0.1-3.1-1-4.9-0.8c-1.4,0.1-1.8,0.8-2.9,1.6
				c-1.3,0.9-2.9,1.6-4.5,1.7c-2.5,0.2-5.2-0.9-7.6-1.5c-2.9-0.7-6-0.9-8.7-2.5c-1.8-1.1-2.6-2.3-4.8-2.4c-1.2,0-2,0.2-3-0.6
				c-2.1-1.6-0.4-3-0.8-4.9c-1.9,0.1-4.3-2.2-5-3.8c-0.7-1.5-1.9-4.1-1.6-5.7c0.2-0.9,0.6-1.2,0.9-1.9c0.4-0.9,0.2-1.6,0.3-2.6
				c0.4-2.6,2.5-3.7,4.6-4.6c2-0.9,1.2-1.5,2-3.1c1.3-2.5,4.4-1.9,6.6-2.3c2.9-0.5,2.2-3.8,4.3-4.8c1.7-0.9,2.9,0.8,4.1-0.9
				c0.5-0.7,0.2-1.1,1.2-1.9c1.1-0.9,2.4-1.5,3.9-1.3c0.4,0,0.6,0.6,1,0.6c0.5,0,0.8-0.4,1.2-0.6C93.2,87.9,94.2,87.4,95.5,88.4z"/>
			<path class="st9" d="M73.4,115.4c-1.1,0-2.1-0.3-2.8-1.3c-0.6-0.8-1.4-2.5-1-3.6c0.1-0.3,0.4-0.4,0.7-0.4
				c0.3,0.1,0.4,0.4,0.3,0.7c-0.2,0.6,0.3,1.8,0.8,2.6c1,1.4,3.2,0.7,4.9,0.2l0.2,0c1.7-0.5,3.4-1,4.8-1.8c1.2-0.7,1.9-1.9,2.6-3.2
				c0.3-0.6,0.6-1.2,1-1.8c0.6-1,1.1-2.1,1.7-3.1c0.2-0.3,0.3-0.6,0.5-1c0.2-0.5,0.4-1,0.7-1.4c0.2-0.3,0.5-0.3,0.8-0.1
				c0.3,0.2,0.3,0.5,0.1,0.8c-0.2,0.3-0.4,0.7-0.6,1.2c-0.2,0.4-0.3,0.8-0.5,1.1c-0.6,1-1.1,2-1.7,3.1c-0.3,0.6-0.6,1.2-1,1.8
				c-0.7,1.3-1.5,2.7-3,3.6c-1.5,0.9-3.3,1.4-4.9,1.9l-0.2,0.1C75.8,115,74.5,115.4,73.4,115.4z"/>
			<path class="st9" d="M73.8,112c-0.8,0-1.4-0.2-1.9-0.6c-0.3-0.3-0.7-0.9-0.4-2c0.6-2.4,2.8-2.8,4.7-3.1c2.2-0.4,3.5-0.7,3.9-2.3
				c0.1-0.3,0.4-0.5,0.7-0.4c0.3,0.1,0.5,0.4,0.4,0.7c-0.5,2.5-2.8,2.9-4.8,3.2c-2.1,0.4-3.5,0.7-3.8,2.3c-0.1,0.4-0.1,0.7,0.1,0.9
				c0.2,0.2,1.1,0.6,4.4-0.4c1.5-0.4,2.7-1.3,3.7-2.1c0.2-0.2,0.4-0.3,0.6-0.5c0.6-0.4,1.2-0.9,1.6-1.4c0.1-0.2,0.2-0.5,0.3-0.7
				c0.1-0.2,0.2-0.4,0.3-0.6c0.1-0.3,0.5-0.4,0.7-0.2c0.3,0.1,0.4,0.5,0.2,0.7c-0.1,0.2-0.1,0.3-0.2,0.5c-0.1,0.3-0.2,0.6-0.5,0.9
				c-0.5,0.7-1.2,1.2-1.9,1.7c-0.2,0.1-0.4,0.3-0.6,0.4c-1.1,0.9-2.5,1.8-4.1,2.3C76.3,111.6,74.9,112,73.8,112z"/>
			<path class="st10" d="M84.3,89.2c-1.8-0.1-3.8,0-4.3,2c-0.3,1.5-0.3,2.6-1.4,3.9c-0.7,0.8-1.6,1-2.5,1.7c-0.6,0.5,0,1.8-0.3,2.7
				c-0.3,0.9-1.6,1.3-1.4,2.1c0.2,1.1,1.3,5.4,3,5.3c0.7,0,1.5,1,2.3,1.3c0.4,0.2,1.1-0.5,1.4-0.3c0.4,0.2-0.3,1.2-0.1,1.5
				c0.3,0.3,1.2,0.6,1.5,0.8c0.7,0.6,1.7,0.5,1.9,1.3c0.3,1.1,0,2.4,0.3,3.6c0.4,1.4,0.5,1.2,1.9,1.5c1.4,0.3,1.7,0.9,2.9,1.7
				c1.9,1.2,1.8-1.7,3.7-2c1.2-0.2,4.4,2.9,5.5,2.8c1.5-0.1,2.9-0.4,4.4-0.4c0.4,0,1.8,0.2,2.1,0c0.6-0.4,0.2-1,0.5-1.4
				c0.6-0.8,1.7-0.5,2.9-0.6c0.1-1.8-0.1-2.9,1.1-4.3c1.3-1.6,1.1-2.3,1.1-4.3c0-1.8,1.2-1.5,2.2-2.8c2.4-2.9-2-4.8-3.1-6.8
				c-0.6-1.1,0.1-2.3-0.6-3.5c-0.8-1.1-2.1-2-3-3.1c-1.1-1.4-2-2.3-3.8-2.9c-1.1-0.4-1.7-0.5-2.6-1.2c-1-0.7-1-0.9-2.3-1
				c-1.5-0.1-3,0.8-4.5,0.8c-1.4,0.1-2.8-0.7-4.2-0.4c-0.9,0.2-1.9,0.6-2.8,0.7C85.8,88,84.9,87.5,84.3,89.2z"/>
			<g>
				<path class="st11" d="M81.6,102.4c-0.5,0-1-0.1-1.3-0.5c-0.3-0.4-0.4-0.9-0.2-1.5c0.1-0.3,0.4-0.5,0.7-0.4
					c0.3,0.1,0.5,0.4,0.4,0.7c-0.1,0.3,0,0.4,0,0.5c0,0,0.2,0.2,0.9,0.1c0.3,0,0.6,0.2,0.6,0.5c0,0.3-0.2,0.6-0.5,0.6
					C82,102.4,81.8,102.4,81.6,102.4z"/>
				<path class="st12" d="M87.2,101.3c-0.6,0-1-0.3-1.4-0.6c-0.2-0.1-0.3-0.2-0.5-0.3c-0.3-0.1-0.4-0.5-0.2-0.7
					c0.1-0.3,0.5-0.4,0.7-0.2c0.2,0.1,0.4,0.3,0.6,0.4c0.5,0.4,0.7,0.5,1.1,0.3c0.3-0.1,0.6,0,0.7,0.2c0.1,0.3,0,0.6-0.2,0.7
					C87.7,101.2,87.4,101.3,87.2,101.3z"/>
				<path class="st11" d="M91.1,103.5c-0.2,0-0.4,0-0.6-0.1c-0.3,0-0.5-0.3-0.5-0.6c0-0.3,0.3-0.5,0.6-0.5c0.8,0.1,1.1,0,1.3-0.7
					c0.1-0.3,0.4-0.5,0.7-0.4c0.3,0.1,0.4,0.4,0.4,0.7C92.7,103,92.1,103.5,91.1,103.5z"/>
				<path class="st11" d="M83.3,95.9c-0.2,0-0.4,0-0.6,0c-0.3,0-0.5-0.3-0.5-0.6c0-0.3,0.3-0.5,0.6-0.5c0.8,0.1,1.1,0,1.3-0.7
					c0.1-0.3,0.4-0.5,0.7-0.4c0.3,0.1,0.4,0.4,0.4,0.7C84.9,95.4,84.3,95.9,83.3,95.9z"/>
				<path class="st11" d="M88.7,109.2c-0.5,0-1-0.1-1.3-0.5c-0.3-0.4-0.4-0.9-0.2-1.5c0.1-0.3,0.4-0.5,0.7-0.4
					c0.3,0.1,0.5,0.4,0.4,0.7c-0.1,0.3,0,0.4,0,0.5c0,0,0.2,0.2,0.9,0.1c0.3,0,0.6,0.2,0.6,0.5c0,0.3-0.2,0.6-0.5,0.6
					C89.1,109.2,88.9,109.2,88.7,109.2z"/>
				<path class="st11" d="M94.5,107.8c-0.6,0-1-0.3-1.4-0.6c-0.2-0.1-0.3-0.2-0.5-0.3c-0.3-0.1-0.4-0.5-0.2-0.7
					c0.1-0.3,0.5-0.4,0.7-0.2c0.2,0.1,0.4,0.3,0.6,0.4c0.5,0.4,0.7,0.5,1.1,0.3c0.3-0.1,0.6,0,0.7,0.2c0.1,0.3,0,0.6-0.2,0.7
					C95,107.8,94.7,107.8,94.5,107.8z"/>
				<path class="st11" d="M89.5,114.7c-0.6,0-1-0.3-1.4-0.6c-0.2-0.1-0.3-0.2-0.5-0.3c-0.3-0.1-0.4-0.5-0.2-0.7
					c0.1-0.3,0.5-0.4,0.7-0.2c0.2,0.1,0.4,0.3,0.6,0.4c0.5,0.4,0.7,0.5,1.1,0.3c0.3-0.1,0.6,0,0.7,0.2c0.1,0.3,0,0.6-0.2,0.7
					C90,114.7,89.8,114.7,89.5,114.7z"/>
				<path class="st11" d="M97.7,112.3c-0.2,0-0.4,0-0.6,0c-0.2,0-0.4,0-0.6,0c-0.3,0-0.6-0.2-0.6-0.5c0-0.3,0.2-0.6,0.5-0.6
					c0.2,0,0.5,0,0.7,0c0.6,0.1,0.9,0.1,1.1-0.3c0.2-0.3,0.5-0.3,0.8-0.2c0.3,0.2,0.3,0.5,0.2,0.8C98.8,112.2,98.2,112.3,97.7,112.3
					z"/>
				<path class="st12" d="M98.5,107.7c-0.2,0-0.4,0-0.6-0.1c-0.3,0-0.5-0.3-0.5-0.6c0-0.3,0.3-0.5,0.6-0.5c0.8,0.1,1.1,0,1.3-0.7
					c0.1-0.3,0.4-0.5,0.7-0.4c0.3,0.1,0.5,0.4,0.4,0.7C100.1,107.2,99.5,107.7,98.5,107.7z"/>
			</g>
			<g>
				<path class="st11" d="M90.9,95.2c-0.5,0-1-0.1-1.3-0.5c-0.3-0.4-0.4-0.9-0.2-1.5c0.1-0.3,0.4-0.5,0.7-0.4
					c0.3,0.1,0.5,0.4,0.4,0.7c-0.1,0.3,0,0.4,0,0.5c0,0,0.2,0.2,0.9,0.1c0.3,0,0.6,0.2,0.6,0.5c0,0.3-0.2,0.6-0.5,0.6
					C91.3,95.1,91.1,95.2,90.9,95.2z"/>
				<path class="st11" d="M95.4,97.4c-0.6,0-1-0.3-1.4-0.6c-0.2-0.1-0.3-0.2-0.5-0.3c-0.3-0.1-0.4-0.5-0.2-0.7
					c0.1-0.3,0.5-0.4,0.7-0.2c0.2,0.1,0.4,0.3,0.6,0.4c0.5,0.4,0.7,0.5,1.1,0.3c0.3-0.1,0.6,0,0.7,0.2c0.1,0.3,0,0.6-0.2,0.7
					C95.9,97.3,95.6,97.4,95.4,97.4z"/>
				<path class="st11" d="M99.8,93.4c-0.2,0-0.4,0-0.6-0.1c-0.3,0-0.5-0.3-0.5-0.6c0-0.3,0.3-0.5,0.6-0.5c0.8,0.1,1.1,0,1.3-0.7
					c0.1-0.3,0.4-0.5,0.7-0.4c0.3,0.1,0.4,0.4,0.4,0.7C101.4,92.9,100.8,93.4,99.8,93.4z"/>
				<path class="st11" d="M98.1,102c-0.5,0-1-0.1-1.3-0.5c-0.3-0.4-0.4-0.9-0.2-1.5c0.1-0.3,0.4-0.5,0.7-0.4
					c0.3,0.1,0.5,0.4,0.4,0.7c-0.1,0.3,0,0.4,0,0.5c0,0,0.2,0.2,0.9,0.1c0.3,0,0.6,0.2,0.6,0.5c0,0.3-0.2,0.6-0.5,0.6
					C98.4,102,98.3,102,98.1,102z"/>
				<path class="st12" d="M103.4,99.8c-0.6,0-1-0.3-1.4-0.6c-0.2-0.1-0.3-0.2-0.5-0.3c-0.3-0.1-0.4-0.5-0.2-0.7
					c0.1-0.3,0.5-0.4,0.7-0.2c0.2,0.1,0.4,0.3,0.6,0.4c0.5,0.4,0.7,0.5,1.1,0.3c0.3-0.1,0.6,0,0.7,0.2c0.1,0.3,0,0.6-0.2,0.7
					C103.9,99.8,103.6,99.8,103.4,99.8z"/>
				<path class="st11" d="M107.2,101.5c-0.2,0-0.4,0-0.6-0.1c-0.3,0-0.5-0.3-0.5-0.6c0-0.3,0.3-0.5,0.6-0.5c0.8,0.1,1.1,0,1.3-0.7
					c0.1-0.3,0.4-0.5,0.7-0.4c0.3,0.1,0.5,0.4,0.4,0.7C108.8,101,108.2,101.5,107.2,101.5z"/>
			</g>
			<path class="st1" d="M110.4,109.9c-1,0.1-1,1.1-1.2,1.7c-0.2,0.7-0.5,0.9-1.2,1c-0.5,0.1-0.5,0-0.8,0.5c-0.2,0.3-0.2,0.5-0.4,0.8
				c-0.6,0.6-1.9,1.2-2.4,0.3c0.4-0.1,1.4-0.7,1.6-1c0.3-0.5,0-1,0.6-1.3c0.2-0.1,0.5,0,0.7-0.1c0.4-0.1,0.7-0.4,1-0.7
				C108.8,110.6,109.1,109.8,110.4,109.9z"/>
			<g>
				<path class="st9" d="M107.8,124.3c-0.1,0-0.1,0-0.2,0c-0.3-0.1-0.5-0.4-0.4-0.7c0.3-0.9,1-1.3,1.8-1.7c0.5-0.3,1.1-0.6,1.3-1
					c0.7-1.1,0.8-2.8,0.9-4.3c0-0.5,0.1-0.9,0.1-1.4c0-0.3,0.3-0.5,0.6-0.5c0.3,0,0.5,0.3,0.5,0.6c0,0.4-0.1,0.8-0.1,1.3
					c-0.1,1.6-0.2,3.5-1,4.8c-0.4,0.7-1.1,1-1.7,1.4c-0.6,0.3-1.2,0.6-1.3,1.1C108.2,124.2,108,124.3,107.8,124.3z"/>
				<path class="st9" d="M73.2,120.7c-1,0-2-0.1-3-0.4c-1.6-0.6-3.6-1.7-3.9-4.2c0-0.2,0-0.3,0-0.4c0-0.3,0-0.5-0.2-0.7
					c-0.2-0.2-0.4-0.4-0.7-0.7c-0.4-0.3-0.8-0.6-1.1-1c-0.8-1.4,0.2-2.8,0.9-3.9l0.2-0.3c0.2-0.3,0.5-0.3,0.8-0.2
					c0.3,0.2,0.3,0.5,0.1,0.8l-0.2,0.3c-0.8,1.1-1.3,2-0.9,2.7c0.2,0.3,0.5,0.5,0.8,0.7c0.4,0.3,0.8,0.5,1,1
					c0.3,0.5,0.3,0.9,0.4,1.2c0,0.1,0,0.2,0,0.4c0.2,1.5,1.2,2.5,3.2,3.3c1.2,0.5,2.6,0.4,3.9,0.3c0.4,0,0.9,0,1.3,0c0,0,0,0,0,0
					c0.2,0,0.5,0,0.7,0c0.8,0,2.1,0.1,2.4-0.4c0.2-0.2,0.5-0.3,0.8-0.1c0.2,0.2,0.3,0.5,0.1,0.8c-0.7,0.9-2.3,0.9-3.4,0.8
					c-0.2,0-0.5,0-0.7,0c0,0,0,0,0,0c-0.4,0-0.8,0-1.3,0C74.1,120.7,73.7,120.7,73.2,120.7z"/>
				<path class="st9" d="M68.2,107.3c-0.1,0-0.2,0-0.3-0.1c-0.3-0.2-0.3-0.5-0.2-0.8c0.3-0.4,0.7-0.6,1.1-0.8
					c0.2-0.1,0.4-0.2,0.5-0.3c0.4-0.3,0.6-0.8,0.9-1.3c0.1-0.3,0.3-0.6,0.4-0.8c0.1-0.2,0.3-0.4,0.4-0.6c0.3-0.3,0.5-0.6,0.5-0.9
					c0-0.3,0.3-0.5,0.6-0.5c0.3,0,0.5,0.3,0.5,0.6c-0.1,0.6-0.4,1.1-0.8,1.5c-0.1,0.2-0.3,0.3-0.4,0.5c-0.1,0.2-0.2,0.5-0.4,0.7
					c-0.3,0.6-0.6,1.2-1.2,1.7c-0.2,0.2-0.5,0.3-0.8,0.4c-0.2,0.1-0.5,0.2-0.5,0.3C68.6,107.2,68.4,107.3,68.2,107.3z"/>
				<path class="st9" d="M77.2,126.7c-0.5,0-1,0-1.5,0c-0.5,0-0.9,0-1.4,0c-0.3,0-0.6-0.2-0.6-0.6c0-0.3,0.2-0.6,0.6-0.6
					c0.5,0,0.9,0,1.4,0c1.3,0,2.7,0.1,3.9-0.2c1.6-0.4,3.1-2,4.3-3.2l0.8,0.8c-1.2,1.3-2.9,3.1-4.8,3.5
					C79.1,126.7,78.2,126.7,77.2,126.7z"/>
				<path class="st9" d="M87.8,129.8c-0.3,0-0.6-0.2-0.6-0.6c0-0.3,0.2-0.6,0.6-0.6c1,0,1.7-0.2,2.3-0.6c0.6-0.4,1-0.8,1.6-1.3
					c0.5-0.5,1-1,1.7-1.4c1.9-1.2,3.7-1.9,5.9-2.1c0.3,0,0.6,0.2,0.6,0.5c0,0.3-0.2,0.6-0.5,0.6c-2,0.2-3.6,0.8-5.4,1.9
					c-0.5,0.4-1,0.8-1.5,1.2c-0.5,0.5-1.1,1-1.7,1.4C89.9,129.5,89,129.8,87.8,129.8L87.8,129.8z"/>
				<path class="st9" d="M116.8,120.3c-0.4,0-0.8-0.1-1.2-0.3c-0.3-0.2-0.4-0.5-0.2-0.8c0.2-0.3,0.5-0.4,0.8-0.2
					c1.4,0.8,3.2-1.4,4-2.3c1.3-1.5,0.8-3.1,0.3-5l-0.2-0.7c-0.3-1-0.1-1.9,0.1-2.7c0.1-0.7,0.3-1.4,0.1-2.1
					c-0.2-0.8-1.6-2.5-2.2-2.4c-0.3,0-0.6-0.2-0.6-0.5c0-0.3,0.2-0.6,0.5-0.6c1.5-0.2,3.2,2.2,3.4,3.2c0.3,0.9,0.1,1.8-0.1,2.6
					c-0.1,0.7-0.3,1.4-0.1,2.2l0.2,0.7c0.6,2,1.2,4.1-0.5,6C120.2,118.3,118.6,120.3,116.8,120.3z"/>
				<path class="st9" d="M115.3,102.2c-0.2,0-0.5-0.2-0.5-0.4c-0.1-0.5-0.1-1-0.1-1.4c0-0.6,0-1.1-0.2-1.5c-0.1-0.3-0.2-0.3-0.6-0.4
					c-0.2-0.1-0.3-0.1-0.5-0.2c-1.2-0.5-1.4-0.8-1.6-1.7c0-0.2-0.1-0.4-0.1-0.6c-0.1-0.3,0.1-0.6,0.4-0.7c0.3-0.1,0.6,0.1,0.7,0.4
					c0.1,0.3,0.1,0.5,0.2,0.7c0.1,0.5,0.1,0.5,0.9,0.9c0.2,0.1,0.3,0.1,0.4,0.2c0.4,0.1,0.9,0.3,1.2,1c0.3,0.6,0.3,1.4,0.3,2
					c0,0.4,0,0.8,0.1,1.2c0.1,0.3-0.1,0.6-0.4,0.7C115.3,102.2,115.3,102.2,115.3,102.2z"/>
				<path class="st9" d="M105.2,129.9c-0.9,0-1.7-0.2-2.1-0.8c-0.2-0.2-0.1-0.6,0.1-0.8c0.3-0.2,0.6-0.1,0.8,0.1
					c0.4,0.6,2.9,0.2,4.9-0.5c1.1-0.4,1.9-0.8,2.4-1.2c0.3-0.2,0.5-0.5,0.8-0.9c0.4-0.5,0.8-1,1.4-1.3c0.7-0.4,1.6-0.4,2.5-0.4
					c0.5,0,1,0,1.3-0.1c2.6-0.6,3.6-2.5,4.9-4.7l0.5-0.8c0.2-0.3,0.5-0.4,0.8-0.2c0.3,0.2,0.4,0.5,0.2,0.8l-0.5,0.8
					c-1.2,2.3-2.5,4.6-5.6,5.3c-0.5,0.1-1,0.1-1.6,0.1c-0.7,0-1.5,0-2,0.3c-0.4,0.2-0.7,0.6-1.1,1.1c-0.3,0.4-0.6,0.7-1,1
					c-0.6,0.5-1.5,0.9-2.7,1.4C108.9,129.1,106.9,129.9,105.2,129.9z"/>
			</g>
			<path class="st9" d="M115.8,120.8c-0.3,0-0.6,0-1-0.1c-2.5-0.3-2.9-1.1-2.9-3.5c0-0.3,0.2-0.5,0.6-0.5c0.3,0,0.5,0.3,0.5,0.6
				c-0.1,1.9,0,2.2,1.9,2.4c1.3,0.1,2.3,0,2.8-0.5c0.4-0.4,0.5-1,0.3-1.8c-0.2-1.1-1-1.7-1.9-2.4c-0.6-0.5-1.3-0.9-1.8-1.6
				c-1.3-1.7-1.3-3.7-1.3-5.4c0-0.3,0.2-0.6,0.5-0.6c0,0,0,0,0,0c0.3,0,0.5,0.2,0.6,0.5c0,1.6,0,3.3,1.1,4.7c0.4,0.6,1,1,1.6,1.4
				c1,0.7,2.1,1.5,2.4,3.1c0.2,1.2,0,2.1-0.6,2.8C118,120.5,117,120.8,115.8,120.8z"/>
			<path class="st9" d="M100.9,125.4c-0.5,0-1.1-0.1-1.6-0.3c-0.3-0.1-0.5-0.4-0.4-0.7c0.1-0.3,0.4-0.5,0.7-0.4
				c1.7,0.5,3.1,0,4.5-1.6c0.4-0.4,0.7-0.9,1-1.4c0.5-0.7,1.1-1.5,1.8-2.2c0.3-0.3,0.7-0.5,1-0.8c0.5-0.3,0.9-0.7,1.1-1.1
				c0.1-0.3,0.4-0.4,0.7-0.3c0.3,0.1,0.4,0.4,0.3,0.7c-0.3,0.7-0.9,1.1-1.5,1.5c-0.3,0.2-0.6,0.4-0.8,0.7c-0.6,0.6-1.1,1.3-1.7,2.1
				c-0.4,0.5-0.7,1-1.1,1.5C103.7,124.7,102.4,125.4,100.9,125.4z"/>
			<path class="st9" d="M99.6,130.1c-0.6,0-1.2,0-1.8-0.1c-2.4-0.4-3.4-2.1-4.4-3.7c-0.4-0.7-0.8-1.3-1.3-1.9c-2-2.4-7.1-6.8-10-7.1
				c-0.3,0-0.5-0.3-0.5-0.6c0-0.3,0.3-0.5,0.6-0.5c3.4,0.4,8.8,5.2,10.8,7.5c0.6,0.7,1,1.4,1.4,2.1c0.9,1.5,1.7,2.9,3.6,3.2
				c2.5,0.4,5.3-0.2,6.8-1.4c0.2-0.2,0.6-0.2,0.8,0.1c0.2,0.2,0.1,0.6-0.1,0.8C104.1,129.5,101.9,130.1,99.6,130.1z"/>
		</g>
	</g>
	<polygon class="st13" points="130.9,65.4 56.5,72.2 56.5,43.9 130.9,37.1 	"/>
	<path class="st14" d="M117.8,41.4l13.1-1.1l-0.7,22.8l-27.8,3.3c0,0,15.5-13.8,16-17.7C118.9,44.9,117.8,41.4,117.8,41.4z"/>
	<g>
		<path class="st1" d="M71.6,50.6c0,0,0.3,3.1,0.3,3.1l-1,0.1l-0.5-6l1-0.1l0.2,1.9c1.4,0.2,2.7,0.3,4,0.6l0.1,1
			C74.3,50.9,72.9,50.7,71.6,50.6z"/>
		<path class="st1" d="M79.9,51.3c0.5,0.5,0.9,1,1.2,1.5l-1.2,0.1c-0.8-1.1-1.9-2.3-2.8-3.2l1.2-0.1c0.3,0.3,0.6,0.7,1,1.1
			c1-0.6,1.6-1.4,1.8-2.5l-4.9,0.4l-0.1-0.9l6.1-0.5l0,0.1C82.2,49.3,81.2,50.6,79.9,51.3z"/>
		<path class="st1" d="M84.9,49.4c0,0,0.3,3.1,0.3,3.1l-1,0.1l-0.5-6l1-0.1l0.2,1.9c1.4,0.2,2.7,0.3,4,0.6l0.1,1
			C87.6,49.8,86.2,49.6,84.9,49.4z"/>
		<path class="st1" d="M91.7,47.5c-0.1,1.5-0.3,2.8-0.6,4.3l-1,0.1c0.3-1.4,0.6-2.8,0.7-4.3l-1,0.1l-0.1-0.9l1.1-0.1
			c0-0.3,0-0.5,0-0.8l0.9-0.1c0,0.3,0,0.5-0.1,0.8l3.2-0.3l0.1,0.9L91.7,47.5z M94.1,51.6c-1.3,0.1-2-0.3-2.1-1.1
			c0-0.5,0.2-0.9,0.4-1.2l1-0.1c-0.2,0.2-0.5,0.7-0.5,1.1c0,0.3,0.4,0.5,1.2,0.4c0.6-0.1,1.3-0.2,1.8-0.4l0.1,0.9
			C95.5,51.4,94.8,51.6,94.1,51.6z M92.2,48.9L92.1,48l3.4-0.3l0.1,0.8L92.2,48.9z"/>
		<path class="st1" d="M98.8,50.9c-0.1,0-0.2,0-0.3,0l-0.1-0.8c1.8-0.2,3-0.7,2.9-1.8c-0.1-0.6-0.5-1-1.6-0.9c-1,0.1-2,0.5-2.8,0.8
			l-0.1-0.9c0.7-0.3,1.8-0.7,2.8-0.8c1.7-0.1,2.4,0.6,2.5,1.6C102.4,49.6,101.3,50.7,98.8,50.9z"/>
		<path class="st1" d="M104.4,50.4l-1,0.1c0.3-1.2,0.5-2.4,0.4-3.8l0.9-0.1C104.7,48,104.6,49.2,104.4,50.4z M106.5,47
			c0,0.1,0.3,0.3,0.5,0.5c0.4,0.3,0.9,0.7,0.9,1.4c0.1,1-0.6,1.7-1.7,1.8c-0.6,0.1-1.1-0.1-1.4-0.2l-0.1-1c0.4,0.2,0.8,0.4,1.3,0.3
			c0.6,0,0.9-0.4,0.9-0.9c0-0.4-0.3-0.7-0.8-1.1c-0.3-0.2-0.6-0.4-0.7-0.8c0-0.4,0.3-0.8,1-1.5l-2.3,0.2l-0.1-0.9l3.9-0.3l0.1,0.8
			C107.1,46.1,106.5,46.8,106.5,47z M109,50c-0.2-1-0.6-2.4-1.3-3.6l1-0.1c0.6,1.1,1.1,2.4,1.3,3.6L109,50z M109,45.7
			c-0.4,0-0.7-0.3-0.8-0.6c0-0.4,0.3-0.7,0.6-0.8c0.4,0,0.7,0.3,0.8,0.6C109.6,45.3,109.4,45.7,109,45.7z M108.9,44.7
			c-0.2,0-0.3,0.2-0.3,0.3c0,0.2,0.2,0.3,0.4,0.3c0.2,0,0.3-0.2,0.3-0.4C109.2,44.8,109.1,44.7,108.9,44.7z"/>
		<path class="st1" d="M112.3,50.1l-0.1-0.9c1.9-0.2,2.9-0.9,2.7-2.7c-0.1-0.7-0.4-1.7-1.3-1.6c-1,0.1-1.6,1.6-1.7,3.3l-0.9,0.1
			c-0.1-1-0.2-2.5-0.3-3.9l0.9-0.1c0,0.4,0,0.9,0,1.4c0.1-0.3,0.6-1.5,1.9-1.6c1.4-0.1,2.1,1.1,2.2,2.4
			C116.1,48.6,115.1,49.9,112.3,50.1z"/>
		<path class="st1" d="M67,59.5c-0.1,0-0.2,0-0.3,0l-0.1-1.4c2.3-0.2,5-0.4,7.2-0.3l0.1,1.4C71.5,59.2,69.3,59.3,67,59.5z
			 M66.8,65.8l-0.1-1.4c2.6-0.2,5.4-0.3,8-0.1l0.1,1.4C72.2,65.5,69.4,65.6,66.8,65.8z M67.2,62.5l-0.1-1.3c2-0.1,4.3-0.3,6.5-0.2
			l0.1,1.4C71.5,62.2,69.3,62.3,67.2,62.5z"/>
		<path class="st1" d="M75.9,61.6l-0.1-1.3l8.4-0.7l0.1,1.3L75.9,61.6z"/>
		<path class="st1" d="M88.1,60.2c0,0,0.4,4.5,0.4,4.5l-1.4,0.1l-0.8-8.7l1.4-0.1l0.2,2.8c2,0.2,4,0.5,5.8,0.8L94,61
			C92,60.7,90,60.4,88.1,60.2z"/>
		<path class="st1" d="M96.3,59.7c-0.5-1.2-1.1-2.6-1.8-3.9l1.5-0.1c0.7,1.1,1.3,2.5,1.8,3.9L96.3,59.7z M97,63.9l-0.1-1.3
			c3-1,4.8-3,4.6-7.4l1.5-0.1C103.2,60.2,100.9,62.8,97,63.9z"/>
		<path class="st1" d="M104.8,59.1l-0.1-1.3l8.4-0.7l0.1,1.3L104.8,59.1z"/>
		<path class="st1" d="M118.6,58.9c-1.3,1.7-3,2.8-4.7,3.4l-0.1-1.3c2.2-0.9,4.5-3,5-6l-5,0.4l-0.1-1.3l6.8-0.6c0,1.5-0.4,2.9-1,4.1
			c0.7,1.3,1.8,2.1,2.8,2.6l0.1,1.5C120.7,61.2,119.4,60.2,118.6,58.9z"/>
	</g>
	<path class="st20" d="M132.9,138.4H54.8v-108h78.1V138.4z M58.9,134.3h69.9V34.5H58.9V134.3z"/>
	<linearGradient id="SVGID_12_" gradientUnits="userSpaceOnUse" x1="64.6733" y1="120.1569" x2="74.6556" y2="130.1392">
		<stop  offset="0" style="stop-color:#D2BA7F"/>
		<stop  offset="0.3908" style="stop-color:#A67F00"/>
		<stop  offset="0.4183" style="stop-color:#AD8714"/>
		<stop  offset="0.5692" style="stop-color:#CFA878"/>
		<stop  offset="0.8258" style="stop-color:#AD8714"/>
		<stop  offset="1" style="stop-color:#D2BA7F"/>
	</linearGradient>
	<path class="st21" d="M76.7,125.1c0-3.9-3.2-7.1-7.1-7.1c-3.9,0-7.1,3.2-7.1,7.1c0,3.9,3.2,7.1,7.1,7.1
		C73.6,132.2,76.7,129,76.7,125.1z"/>
	<g>
		<path class="st16" d="M66.1,126.5c0.4,0,0.5-0.2,0.6-0.4l0.3,0l-0.4,1h-2.3l0.1-0.4c1.1-0.9,1.4-1.1,1.7-1.5
			c0.2-0.2,0.4-0.5,0.4-0.9c0.1-0.3,0-0.8-0.5-0.8c-0.1,0-0.5,0-0.9,0.7l-0.2-0.1c0.4-0.6,0.9-0.9,1.4-0.9c0.7,0,1,0.5,0.9,1.1
			c-0.1,0.4-0.3,0.9-1.2,1.5c-0.6,0.5-0.7,0.5-0.9,0.7H66.1z"/>
		<path class="st16" d="M68.1,123.3H70l-0.2,0.6h-1.6l-0.2,0.8c0.1,0,0.2,0,0.5,0c0.2,0,1.6,0,1.4,1.2c-0.1,0.7-0.9,1.3-1.9,1.3
			c-0.5,0-1-0.2-0.9-0.5c0-0.2,0.2-0.3,0.4-0.3c0.2,0,0.3,0.2,0.3,0.3c0,0.1,0.1,0.3,0.3,0.3c0.5,0,1-0.3,1.1-0.9
			c0.1-0.8-0.6-0.8-1-0.8c-0.3,0-0.5,0-0.7,0.1L68.1,123.3z"/>
		<path class="st16" d="M72,123.3c0.6,0,1.2,0.5,1,2c-0.3,1.4-1.1,2-1.7,2c-0.6,0-1.2-0.6-1-2C70.6,123.8,71.4,123.3,72,123.3z
			 M71.4,127c0.2,0,0.7,0,1-1.7c0.3-1.7-0.1-1.7-0.3-1.7c-0.2,0-0.7,0-1,1.7C70.7,126.9,71.1,127,71.4,127z"/>
		<path class="st16" d="M72.8,127.5c0.1-0.3,0.4-0.4,0.5-0.5c-0.1-0.1-0.2-0.2-0.1-0.2c0-0.2,0.3-0.3,0.4-0.4
			c-0.2-0.1-0.3-0.3-0.3-0.6c0.1-0.4,0.4-0.6,0.8-0.6c0.1,0,0.3,0,0.4,0.1c0.1-0.1,0.3-0.2,0.5-0.2c0.2,0,0.2,0.1,0.2,0.2
			c0,0.1-0.1,0.2-0.2,0.2c-0.1,0-0.1,0-0.1,0c0,0-0.1,0-0.1,0c-0.1,0-0.1,0-0.1,0c0.1,0.1,0.1,0.2,0.1,0.4c-0.1,0.4-0.4,0.6-0.8,0.6
			c0,0-0.3,0.1-0.3,0.2c0,0.1,0.1,0.1,0.3,0.1c0.4,0,0.9,0,0.8,0.5c-0.1,0.4-0.6,0.7-1.2,0.7C73,128,72.8,127.9,72.8,127.5z
			 M73.1,127.5c0,0.2,0.1,0.4,0.4,0.4c0.3,0,0.6-0.2,0.7-0.5c0-0.2-0.2-0.3-0.3-0.3c-0.1,0-0.1,0-0.4,0
			C73.4,127.1,73.2,127.3,73.1,127.5z M74.2,125.9c0-0.1,0.1-0.5-0.2-0.5c-0.2,0-0.3,0.1-0.4,0.4c0,0.1-0.1,0.5,0.2,0.5
			C74,126.3,74.2,126.2,74.2,125.9z"/>
	</g>
</g>
</svg>
