<?xml version="1.0" encoding="utf-8"?>
<!-- Generator: Adobe Illustrator 24.0.1, SVG Export Plug-In . SVG Version: 6.00 Build 0)  -->
<svg version="1.1" id="レイヤー_1" xmlns="http://www.w3.org/2000/svg" xmlns:xlink="http://www.w3.org/1999/xlink" x="0px"
	 y="0px" viewBox="0 0 141.7 141.7" style="enable-background:new 0 0 141.7 141.7;" xml:space="preserve">
<style type="text/css">
	.st0{fill:#FFFFFF;}
	.st1{fill:#9FA0A0;}
	.st2{fill:#CDA774;}
	.st3{fill:#DDB887;}
	.st4{fill:#F3EBDF;}
	.st5{fill:#F8F0E4;}
	.st6{fill:#ECECEC;}
	.st7{fill:url(#SVGID_1_);}
	.st8{fill:url(#SVGID_2_);}
	.st9{fill:#E60012;}
	.st10{fill:#036EB8;}
	.st11{fill:#EA5514;}
	.st12{clip-path:url(#SVGID_4_);}
	.st13{fill:url(#SVGID_5_);}
	.st14{fill:url(#SVGID_6_);}
	.st15{fill:url(#SVGID_7_);}
	.st16{fill:url(#SVGID_8_);}
	.st17{fill:url(#SVGID_9_);}
	.st18{fill:url(#SVGID_10_);}
	.st19{fill:url(#SVGID_11_);}
	.st20{fill:url(#SVGID_12_);}
	.st21{fill:url(#SVGID_13_);}
	.st22{fill:url(#SVGID_14_);}
	.st23{fill:url(#SVGID_15_);}
	.st24{fill:url(#SVGID_16_);}
	.st25{fill:url(#SVGID_17_);}
	.st26{fill:url(#SVGID_18_);}
	.st27{fill:url(#SVGID_19_);}
	.st28{fill:url(#SVGID_20_);}
	.st29{fill:url(#SVGID_21_);}
	.st30{fill:url(#SVGID_22_);}
	.st31{fill:url(#SVGID_23_);}
	.st32{fill:url(#SVGID_24_);}
	.st33{fill:url(#SVGID_25_);}
	.st34{fill:url(#SVGID_26_);}
	.st35{fill:url(#SVGID_27_);}
	.st36{fill:url(#SVGID_28_);}
	.st37{fill:url(#SVGID_29_);}
	.st38{fill:url(#SVGID_30_);}
	.st39{fill:url(#SVGID_31_);}
	.st40{fill:url(#SVGID_32_);}
	.st41{fill:url(#SVGID_33_);}
	.st42{fill:url(#SVGID_34_);}
	.st43{fill:url(#SVGID_35_);}
	.st44{fill:url(#SVGID_36_);}
	.st45{fill:url(#SVGID_37_);}
	.st46{fill:url(#SVGID_38_);}
	.st47{fill:url(#SVGID_39_);}
	.st48{clip-path:url(#SVGID_41_);}
	.st49{fill:#B28247;}
	.st50{fill:#FFF100;}
	.st51{fill:#8FC31F;}
	.st52{fill:none;stroke:#B28247;stroke-width:0.5288;stroke-linecap:round;stroke-linejoin:round;stroke-miterlimit:10;}
	.st53{fill:#EAE5E3;}
	.st54{fill:#BEB1AA;}
	.st55{clip-path:url(#SVGID_43_);}
	.st56{fill:url(#SVGID_44_);}
	.st57{fill:url(#SVGID_45_);}
	.st58{fill:url(#SVGID_46_);}
	.st59{fill:url(#SVGID_47_);}
	.st60{fill:url(#SVGID_48_);}
	.st61{fill:url(#SVGID_49_);}
	.st62{fill:url(#SVGID_50_);}
	.st63{fill:url(#SVGID_51_);}
	.st64{fill:url(#SVGID_52_);}
	.st65{fill:url(#SVGID_53_);}
	.st66{fill:url(#SVGID_54_);}
	.st67{fill:url(#SVGID_55_);}
	.st68{fill:url(#SVGID_56_);}
	.st69{fill:url(#SVGID_57_);}
	.st70{fill:url(#SVGID_58_);}
	.st71{fill:url(#SVGID_59_);}
	.st72{fill:none;}
	.st73{fill:url(#SVGID_60_);}
	.st74{fill:#DCDDDD;}
	.st75{fill:#EACE76;}
	.st76{clip-path:url(#SVGID_62_);}
	.st77{fill:#C9A063;}
	.st78{fill:#00913A;}
	.st79{fill:#3E3A39;}
	.st80{fill:#C6BA9A;}
	.st81{fill:#D6CCB5;}
	.st82{fill:#B5B5B6;}
	.st83{fill:#F0EFEF;}
	.st84{fill:#595857;}
	.st85{fill:#727171;}
	.st86{fill:#CCAC69;}
	.st87{fill:#C9CACA;}
	.st88{fill:#8A8A8A;}
	.st89{opacity:0.75;}
	.st90{fill:#B81C25;}
	.st91{fill:#DE551A;}
	.st92{fill:#E99413;}
	.st93{fill:#F7F9F9;}
	.st94{fill:#F7F9F9;stroke:#727171;stroke-width:0.2229;stroke-miterlimit:10;}
	.st95{fill:#C39717;}
	.st96{fill:#CC172C;}
	.st97{fill:#E83514;}
	.st98{fill:url(#SVGID_63_);}
	.st99{fill:url(#SVGID_64_);}
	.st100{fill:url(#SVGID_65_);}
	.st101{fill:url(#SVGID_66_);}
	.st102{fill:url(#SVGID_67_);}
	.st103{fill:url(#SVGID_68_);}
	.st104{fill:#E6E6E6;}
	.st105{fill:#D1EAF6;}
	.st106{fill:#359DD1;}
	.st107{fill:#44AFDB;}
	.st108{fill:url(#SVGID_69_);}
	.st109{fill:none;stroke:#221714;stroke-width:0.1546;}
	.st110{fill:url(#SVGID_70_);}
	.st111{fill:url(#SVGID_71_);}
	.st112{fill:url(#SVGID_72_);}
	.st113{fill:url(#SVGID_73_);}
	.st114{fill:url(#SVGID_74_);}
	.st115{fill:url(#SVGID_75_);}
	.st116{fill:url(#SVGID_76_);}
	.st117{fill:url(#SVGID_77_);}
	.st118{fill:url(#SVGID_78_);}
	.st119{fill:url(#SVGID_79_);}
	.st120{fill:url(#SVGID_80_);}
	.st121{fill:url(#SVGID_81_);}
	.st122{fill:url(#SVGID_82_);}
	.st123{fill:url(#SVGID_83_);}
	.st124{fill:url(#SVGID_84_);}
	.st125{fill:url(#SVGID_85_);}
	.st126{fill:url(#SVGID_86_);}
	.st127{fill:url(#SVGID_87_);}
	.st128{fill:url(#SVGID_88_);}
	.st129{fill:url(#SVGID_89_);}
	.st130{fill:url(#SVGID_90_);}
	.st131{fill:url(#SVGID_91_);}
	.st132{fill:url(#SVGID_92_);}
	.st133{fill:url(#SVGID_93_);}
	.st134{fill:url(#SVGID_94_);}
	.st135{fill:url(#SVGID_95_);}
	.st136{fill:url(#SVGID_96_);}
	.st137{fill:url(#SVGID_97_);}
	.st138{fill:url(#SVGID_98_);}
	.st139{fill:url(#SVGID_99_);}
	.st140{fill:url(#SVGID_100_);}
	.st141{fill:url(#SVGID_101_);}
	.st142{fill:url(#SVGID_102_);}
	.st143{fill:url(#SVGID_103_);}
	.st144{fill:url(#SVGID_104_);}
	.st145{fill:url(#SVGID_105_);}
	.st146{fill:url(#SVGID_106_);}
	.st147{fill:url(#SVGID_107_);}
	.st148{fill:url(#SVGID_108_);}
	.st149{fill:url(#SVGID_109_);}
	.st150{fill:url(#SVGID_110_);}
	.st151{fill:url(#SVGID_111_);}
	.st152{fill:url(#SVGID_112_);}
	.st153{fill:url(#SVGID_113_);}
	.st154{fill:url(#SVGID_114_);}
	.st155{fill:url(#SVGID_115_);}
	.st156{fill:url(#SVGID_116_);}
	.st157{fill:url(#SVGID_117_);}
	.st158{fill:url(#SVGID_118_);}
	.st159{fill:url(#SVGID_119_);}
	.st160{stroke:#000000;stroke-width:2.4516;stroke-linecap:round;stroke-linejoin:round;stroke-miterlimit:10;}
	.st161{fill:url(#SVGID_120_);stroke:#000000;stroke-width:0.8172;stroke-linecap:round;stroke-linejoin:round;}
	.st162{fill:url(#SVGID_121_);stroke:#000000;stroke-width:0.8172;stroke-linecap:round;stroke-linejoin:round;}
	.st163{fill:url(#SVGID_122_);stroke:#000000;stroke-width:0.8172;stroke-linecap:round;stroke-linejoin:round;}
	.st164{opacity:0.4;fill:#FFFFFF;}
	.st165{fill:#FFFEEE;}
	.st166{fill:none;stroke:#F7EFB8;stroke-width:0.4086;}
	.st167{fill:none;stroke:#F7EFB8;stroke-width:0.2043;stroke-miterlimit:10;}
	.st168{fill-rule:evenodd;clip-rule:evenodd;fill:none;stroke:#000000;stroke-width:0.1961;stroke-miterlimit:10;}
	.st169{fill:none;stroke:#000000;stroke-width:0.8172;stroke-linecap:round;stroke-linejoin:round;}
	.st170{fill-rule:evenodd;clip-rule:evenodd;}
	.st171{fill-rule:evenodd;clip-rule:evenodd;fill:none;stroke:#000000;stroke-width:0.4086;stroke-miterlimit:10;}
	.st172{fill-rule:evenodd;clip-rule:evenodd;fill:url(#SVGID_123_);}
	.st173{opacity:0.9;fill:#E60012;}
	.st174{fill:#DCDBDA;}
	.st175{opacity:0.9;fill:#FFFFFF;}
	.st176{opacity:0.3;fill:#FFFFFF;}
	.st177{fill:#7E7977;}
	.st178{fill:#EEEAD0;}
	.st179{fill:#DDD9C2;}
	.st180{fill:#D3A243;}
	.st181{fill:none;stroke:#E5E3DA;stroke-width:0.4086;stroke-linecap:round;stroke-linejoin:round;}
	.st182{fill:#C11920;}
	.st183{fill:url(#SVGID_124_);}
	.st184{fill:url(#SVGID_125_);}
	.st185{fill:#5D8AA2;}
	.st186{fill:#267EAF;}
	.st187{fill:none;stroke:#D9B556;stroke-width:0.6958;stroke-miterlimit:10;}
	.st188{fill:#D9B556;}
	.st189{fill:#0E2F8F;}
	.st190{fill:url(#SVGID_126_);}
	.st191{fill:url(#SVGID_127_);}
	.st192{fill:url(#SVGID_128_);}
	.st193{fill:#755F43;}
	.st194{fill:#CD6829;}
	.st195{fill:#E08030;}
	.st196{fill:#F7F8F8;}
	.st197{fill:#E60012;stroke:#000000;stroke-width:0.1945;stroke-miterlimit:10;}
	.st198{fill:none;stroke:#000000;stroke-width:0.1945;stroke-miterlimit:10;}
	.st199{fill:#FFF100;stroke:#000000;stroke-width:0.1945;stroke-miterlimit:10;}
	.st200{fill:#FFFFFF;stroke:#000000;stroke-width:0.1264;stroke-miterlimit:10;}
	.st201{fill:none;stroke:#9FA0A0;stroke-width:0.1853;stroke-linecap:round;stroke-linejoin:round;stroke-miterlimit:10;}
	.st202{fill:#722F1C;}
	.st203{fill:#E9C07F;}
	.st204{fill:#F2D39D;}
	.st205{fill:#D0542E;}
	.st206{fill:#DC643A;}
	.st207{fill:#6A3906;}
	.st208{fill:#674425;}
	.st209{fill:none;stroke:#E60012;stroke-width:0.1398;stroke-miterlimit:10;}
	.st210{fill:none;stroke:#E60012;stroke-width:0.1398;stroke-miterlimit:10;stroke-dasharray:0.7067,0.7067;}
	.st211{fill:none;stroke:#000000;stroke-width:0.1398;stroke-miterlimit:10;}
	.st212{fill:none;stroke:#000000;stroke-miterlimit:10;}
	.st213{fill:#C9A063;stroke:#000000;stroke-width:1.3629;stroke-miterlimit:10;}
	.st214{fill:#008ABD;}
	.st215{fill:#5CB9D3;}
	.st216{fill:#BFC0C0;}
	.st217{fill:#FBF8EA;}
	.st218{fill:none;stroke:#000000;stroke-width:0.6064;}
	.st219{fill:#B5B5B6;stroke:#000000;stroke-width:1.1444;stroke-miterlimit:10;}
	.st220{fill:#EA5514;stroke:#000000;stroke-width:1.1444;stroke-miterlimit:10;}
	.st221{fill:#C9A063;stroke:#000000;stroke-width:1.1444;stroke-miterlimit:10;}
	.st222{fill:none;stroke:#000000;stroke-width:1.1444;stroke-miterlimit:10;}
	.st223{fill:#DDB735;stroke:#000000;stroke-width:1.1444;stroke-miterlimit:10;}
	.st224{fill:none;stroke:#FFFFFF;stroke-width:2.546;stroke-miterlimit:10;}
	.st225{fill:#40220F;stroke:#000000;stroke-width:1.1444;stroke-miterlimit:10;}
</style>
<g>
	<g>
		<g>
			<path class="st83" d="M70.1,37.2c0-1.2-6.2-2.2-13.8-2.2c-7.6,0-13.8,1-13.8,2.2c0,0.1,0.1,0.2,0.2,0.3h-0.2v64.4
				c0,0,0,0.3,0,0.5c0,1.5,6.2,2.7,13.8,2.7c7.6,0,13.8-1.2,13.8-2.7c0-0.2,0-0.5,0-0.5V37.5h-0.2C70,37.4,70.1,37.3,70.1,37.2z"/>
			<path class="st1" d="M70.1,101.7L70.1,101.7c0,0.1,0,0.4,0,0.6c0,1.5-6.2,2.7-13.8,2.7c-7.6,0-13.8-1.2-13.8-2.7
				c0-0.2,0-0.5,0-0.5v-0.1c-0.4,0.5-0.6,0.8-0.6,1.1c0,1.5,6.3,3.3,14.4,3.3c8,0,14.4-1.8,14.4-3.3
				C70.7,102.5,70.4,102.1,70.1,101.7z"/>
			<path class="st1" d="M70.1,37.2c0,1.2-6.2,2.9-13.8,2.9c-7.6,0-13.8-1.6-13.8-2.9s6.2-2.2,13.8-2.2
				C63.9,34.9,70.1,35.9,70.1,37.2z"/>
			<path class="st97" d="M56.3,39.9c-5.2,0-9.9-0.7-13.8-1.8v22.1v14c3.8,1.1,8.6,2,13.8,2c5.2,0,9.9-0.9,13.8-2v-14V38.2
				C66.2,39.3,61.5,39.9,56.3,39.9z"/>
			<g>
				<path class="st82" d="M69.7,36.7L69.7,36.7c-0.1,0.1,0.1,0.3,0.1,0.4c0.1,1.5-6,2.7-13.5,2.7c-7.6,0-13.6-1.2-13.5-2.7
					c0-0.2,0.1-0.4,0.1-0.4l0-0.1c-0.4,0.4-0.8,0.8-0.8,1C42,39.2,48.3,41,56.3,41c8,0,14.3-1.9,14.2-3.3
					C70.4,37.4,70.1,37.2,69.7,36.7z"/>
				<g>
					<g>
						<linearGradient id="SVGID_1_" gradientUnits="userSpaceOnUse" x1="43.5564" y1="36.2416" x2="69.0174" y2="36.2416">
							<stop  offset="5.618000e-03" style="stop-color:#CACBCC"/>
							<stop  offset="0.2921" style="stop-color:#AAABAD"/>
							<stop  offset="0.6517" style="stop-color:#CECED0"/>
							<stop  offset="0.8652" style="stop-color:#AEAFB1"/>
							<stop  offset="1" style="stop-color:#B5B5B6"/>
							<stop  offset="1" style="stop-color:#D2D4D7"/>
						</linearGradient>
						<path class="st7" d="M68.4,35.8c-1.3-1.2-5.4-2.4-12.1-2.4c-6.7,0-10.8,0.6-12.1,2.4c0,0-0.7,0.6-0.7,0.9
							c0,1.3,5.7,2.4,12.7,2.4S69,38,69,36.7C69,36.4,68.4,35.8,68.4,35.8z"/>
						<linearGradient id="SVGID_2_" gradientUnits="userSpaceOnUse" x1="45.5205" y1="33.4425" x2="67.0535" y2="33.4425">
							<stop  offset="5.618000e-03" style="stop-color:#D1D1D2"/>
							<stop  offset="0.3596" style="stop-color:#9FA0A0"/>
							<stop  offset="0.5488" style="stop-color:#ACACAD"/>
							<stop  offset="0.6517" style="stop-color:#B5B5B6"/>
							<stop  offset="0.8652" style="stop-color:#B7B8B8"/>
							<stop  offset="1" style="stop-color:#B5B5B6"/>
							<stop  offset="1" style="stop-color:#DCDDDD"/>
						</linearGradient>
						<path class="st8" d="M67.1,35.3L67.1,35.3c0-0.1-2.3-3.9-2.3-3.9c-0.4-1.1-3.8-2-8.5-2c-4.7,0-7.7,0.7-8.5,2
							c0,0-2.3,3.8-2.3,3.9l0,0h0c0,0,0,0,0,0.1c0,1.2,4.8,2.2,10.8,2.2C62.2,37.5,67.1,36.5,67.1,35.3
							C67.1,35.3,67.1,35.3,67.1,35.3L67.1,35.3z"/>
						<path class="st85" d="M63,30.8c0,0.5-2.9,1.3-6.7,1.2c-3.7,0-6.7-0.7-6.7-1.2c0-0.6,2.9-0.1,6.7-0.1C60,30.7,63,30.3,63,30.8z
							"/>
					</g>
					<path class="st82" d="M63.1,29.6c0-0.6-3-1-6.8-1c-3.8,0-6.8,0.5-6.8,1c0,0.1,0,0.5,0,0.6c0,0.6,3,1,6.8,1c3.8,0,6.8-0.5,6.8-1
						C63.1,30,63.1,29.7,63.1,29.6z"/>
					<g>
						<path class="st97" d="M61.7,29c0-0.1-0.1-0.1-0.2-0.2v-6.6c0-0.3-2.3-0.6-5.2-0.6c-2.9,0-5.2,0.3-5.2,0.6v6.6
							c-0.1,0.1-0.2,0.1-0.2,0.2c0,0,0,0.2,0,0.3c0,0.3,2.4,0.6,5.4,0.6c3,0,5.4-0.3,5.4-0.6C61.7,29.2,61.7,29,61.7,29z"/>
						<g>
							<g>
								<path class="st74" d="M56.4,29.6c-0.1,0-0.2,0-0.3,0c0-2.1,0-4.2,0-6.3c0.1,0,0.2,0,0.3,0C56.4,25.5,56.4,27.6,56.4,29.6z"
									/>
								<path class="st74" d="M55.7,29.6c-0.1,0-0.2,0-0.3,0c0-2.1,0-4.2,0-6.3c0.1,0,0.2,0,0.3,0C55.7,25.4,55.7,27.5,55.7,29.6z"
									/>
								<path class="st74" d="M55,29.5c-0.1,0-0.2,0-0.3,0c0-2.1,0-4.2,0-6.3c0.1,0,0.2,0,0.3,0C55,25.4,55,27.4,55,29.5z"/>
								<path class="st74" d="M54.2,29.5c-0.1,0-0.2,0-0.3,0c0-2.1,0-4.2,0-6.3c0.1,0,0.2,0,0.3,0C54.2,25.3,54.2,27.4,54.2,29.5z"
									/>
								<path class="st74" d="M53.5,29.4c-0.1,0-0.2,0-0.3,0c0-2.1,0-4.2,0-6.3c0.1,0,0.2,0,0.3,0C53.5,25.2,53.5,27.3,53.5,29.4z"
									/>
								<path class="st74" d="M52.8,29.3c-0.1,0-0.2,0-0.3,0c0-2.1,0-4.2,0-6.3c0.1,0,0.2,0,0.3,0C52.8,25.1,52.8,27.2,52.8,29.3z"
									/>
								<path class="st74" d="M52,29.2c-0.1,0-0.2,0-0.3,0c0-2.1,0-4.2,0-6.3c0.1,0,0.2,0,0.3,0C52,25,52,27.1,52,29.2z"/>
							</g>
							<g>
								<path class="st74" d="M56.9,29.6c0.1,0,0.2,0,0.3,0c0-2.1,0-4.2,0-6.3c-0.1,0-0.2,0-0.3,0C56.9,25.5,56.9,27.5,56.9,29.6z"
									/>
								<path class="st74" d="M57.6,29.6c0.1,0,0.2,0,0.3,0c0-2.1,0-4.2,0-6.3c-0.1,0-0.2,0-0.3,0C57.6,25.4,57.6,27.5,57.6,29.6z"
									/>
								<path class="st74" d="M58.3,29.5c0.1,0,0.2,0,0.3,0c0-2.1,0-4.2,0-6.3c-0.1,0-0.2,0-0.3,0C58.3,25.3,58.3,27.4,58.3,29.5z"
									/>
								<path class="st74" d="M59.1,29.5c0.1,0,0.2,0,0.3,0c0-2.1,0-4.2,0-6.3c-0.1,0-0.2,0-0.3,0C59.1,25.3,59.1,27.4,59.1,29.5z"
									/>
								<path class="st74" d="M59.8,29.4c0.1,0,0.2,0,0.3,0c0-2.1,0-4.2,0-6.3c-0.1,0-0.2,0-0.3,0C59.8,25.2,59.8,27.3,59.8,29.4z"
									/>
								<path class="st74" d="M60.5,29.3c0.1,0,0.2,0,0.3,0c0-2.1,0-4.2,0-6.3c-0.1,0-0.2,0-0.3,0C60.5,25.1,60.5,27.2,60.5,29.3z"
									/>
							</g>
						</g>
						<path class="st0" d="M61.5,22.3c0,0.3-2.3,0.6-5.2,0.6c-2.9,0-5.2-0.3-5.2-0.6c0-0.3,2.3-0.6,5.2-0.6
							C59.2,21.7,61.5,21.9,61.5,22.3z"/>
					</g>
					<path class="st74" d="M56.3,30.5c-3.7,0-6.6-0.4-6.8-1c0,0,0,0,0,0c0,0.1,0,0.5,0,0.6c0,0.6,3,1,6.8,1c3.8,0,6.8-0.5,6.8-1
						c0-0.1,0-0.5,0-0.6c0,0,0,0,0,0C62.9,30.1,59.9,30.5,56.3,30.5z"/>
				</g>
			</g>
			<g>
				<path class="st83" d="M51.6,56.2c-0.6,0-1.2-0.1-1.8-0.1c-0.2-1.2-0.6-2-1.2-2.4c-0.6-0.4-1.2-0.4-1.7,0.2c-1,1.1-1.4,3-1.1,5.8
					c0.1,1.2,0.4,2.1,0.8,2.7c0.4,0.7,0.8,1,1.3,1c0.4,0,0.8-0.2,1.2-0.8c0.4-0.5,0.7-1.3,0.8-2.3c-0.6,0-1.2-0.1-1.9-0.1
					c0-0.7,0-1.5,0-2.2c1.3,0.1,2.5,0.2,3.8,0.2c0,2.6,0,5.2,0,7.8c-0.5,0-1.1,0-1.6-0.1c0-0.5,0-0.9,0-1.4c-0.3,0.6-0.8,1-1.4,1.3
					c-0.7,0.2-1.3,0.2-2-0.2c-0.9-0.5-1.6-1.4-2.1-2.8c-0.5-1.3-0.8-2.9-0.8-4.6c0-1.8,0.2-3.3,0.8-4.6c0.5-1.3,1.2-2.1,2.1-2.4
					c0.8-0.3,1.6-0.3,2.3,0.2c0.9,0.5,1.5,1.3,2,2.4C51.3,54.4,51.5,55.3,51.6,56.2z"/>
				<path class="st83" d="M53.3,66c1-4.9,1.9-9.7,2.9-14.6c0.7,0,1.5,0,2.2,0c0.9,4.9,1.9,9.7,2.8,14.5c-0.7,0-1.4,0.1-2.1,0.1
					c-0.2-1-0.3-2.1-0.5-3.1c-0.9,0-1.7,0-2.6,0c-0.2,1-0.4,2.1-0.5,3.1C54.7,66,54,66,53.3,66z M56.4,60.7c0.6,0,1.2,0,1.8,0
					c-0.3-1.8-0.6-3.5-0.9-5.3C57,57.1,56.7,58.9,56.4,60.7z"/>
				<path class="st83" d="M61.7,61c0.6,0,1.2-0.1,1.9-0.1c0.1,0.8,0.2,1.3,0.4,1.7c0.2,0.3,0.5,0.5,0.9,0.6c0.4,0.2,0.8,0.1,1.2-0.2
					c0.5-0.3,0.7-0.8,0.8-1.5c0-0.9-0.3-1.5-1-1.8c-0.7-0.3-1.4-0.5-2.1-0.8c-0.9-0.3-1.4-1-1.7-2c-0.5-1.5-0.3-3,0.5-4.4
					c0.6-1.1,1.4-1.7,2.3-1.9c0.9-0.2,1.6,0.1,2.3,0.8c0.8,0.7,1.2,1.9,1.3,3.6c-0.6,0.1-1.2,0.1-1.8,0.2c-0.1-1.2-0.5-1.9-1.2-2.1
					c-0.4-0.1-0.8,0-1.2,0.3c-0.5,0.4-0.6,1-0.5,1.7c0,0.5,0.2,0.8,0.3,1c0.3,0.1,0.6,0.3,1,0.4c0.6,0.3,1.2,0.5,1.8,0.8
					c1,0.4,1.6,1.4,1.6,3c0.1,1.9-0.3,3.4-1.2,4.3c-1,1-2.1,1.3-3.5,0.9C62.6,65.2,61.9,63.6,61.7,61z"/>
			</g>
		</g>
		<path class="st83" d="M64.5,104.5c3.4-0.5,5.7-1.3,5.7-2.2c0-0.2,0-0.4,0-0.4v-0.1v-0.1V38.4c-0.8,0.7-2.9,1.5-5.7,2V104.5z"/>
	</g>
	<g>
		<g>
			<path class="st83" d="M99.2,37.2c0-1.2-6.2-2.2-13.8-2.2c-7.6,0-13.8,1-13.8,2.2c0,0.1,0.1,0.2,0.2,0.3h-0.2v64.4
				c0,0,0,0.3,0,0.5c0,1.5,6.2,2.7,13.8,2.7c7.6,0,13.8-1.2,13.8-2.7c0-0.2,0-0.5,0-0.5V37.5h-0.2C99.2,37.4,99.2,37.3,99.2,37.2z"
				/>
			<path class="st1" d="M99.2,101.7L99.2,101.7c0,0.1,0,0.4,0,0.6c0,1.5-6.2,2.7-13.8,2.7c-7.6,0-13.8-1.2-13.8-2.7
				c0-0.2,0-0.5,0-0.5v-0.1c-0.4,0.5-0.6,0.8-0.6,1.1c0,1.5,6.3,3.3,14.4,3.3c8,0,14.4-1.8,14.4-3.3
				C99.8,102.5,99.6,102.1,99.2,101.7z"/>
			<path class="st1" d="M99.2,37.2c0,1.2-6.2,2.9-13.8,2.9c-7.6,0-13.8-1.6-13.8-2.9s6.2-2.2,13.8-2.2
				C93.1,34.9,99.2,35.9,99.2,37.2z"/>
			<path class="st97" d="M85.4,39.9c-5.2,0-9.9-0.7-13.8-1.8v22.1v14c3.8,1.1,8.6,2,13.8,2c5.2,0,9.9-0.9,13.8-2v-14V38.2
				C95.4,39.3,90.6,39.9,85.4,39.9z"/>
			<g>
				<path class="st82" d="M98.9,36.7L98.9,36.7C98.8,36.8,99,37,99,37.1c0.1,1.5-6,2.7-13.5,2.7c-7.6,0-13.6-1.2-13.5-2.7
					c0-0.2,0.1-0.4,0.1-0.4l0-0.1c-0.4,0.4-0.8,0.8-0.8,1c-0.1,1.5,6.1,3.3,14.2,3.3c8,0,14.3-1.9,14.2-3.3
					C99.6,37.4,99.3,37.2,98.9,36.7z"/>
				<g>
					<g>
						<linearGradient id="SVGID_4_" gradientUnits="userSpaceOnUse" x1="72.7153" y1="36.2416" x2="98.1761" y2="36.2416">
							<stop  offset="5.618000e-03" style="stop-color:#CACBCC"/>
							<stop  offset="0.2921" style="stop-color:#AAABAD"/>
							<stop  offset="0.6517" style="stop-color:#CECED0"/>
							<stop  offset="0.8652" style="stop-color:#AEAFB1"/>
							<stop  offset="1" style="stop-color:#B5B5B6"/>
							<stop  offset="1" style="stop-color:#D2D4D7"/>
						</linearGradient>
						<path style="fill:url(#SVGID_4_);" d="M97.5,35.8c-1.3-1.2-5.4-2.4-12.1-2.4c-6.7,0-10.8,0.6-12.1,2.4c0,0-0.7,0.6-0.7,0.9
							c0,1.3,5.7,2.4,12.7,2.4s12.7-1.1,12.7-2.4C98.2,36.4,97.5,35.8,97.5,35.8z"/>
						<linearGradient id="SVGID_5_" gradientUnits="userSpaceOnUse" x1="74.6796" y1="33.4425" x2="96.2122" y2="33.4425">
							<stop  offset="5.618000e-03" style="stop-color:#D1D1D2"/>
							<stop  offset="0.3596" style="stop-color:#9FA0A0"/>
							<stop  offset="0.5488" style="stop-color:#ACACAD"/>
							<stop  offset="0.6517" style="stop-color:#B5B5B6"/>
							<stop  offset="0.8652" style="stop-color:#B7B8B8"/>
							<stop  offset="1" style="stop-color:#B5B5B6"/>
							<stop  offset="1" style="stop-color:#DCDDDD"/>
						</linearGradient>
						<path class="st13" d="M96.2,35.3L96.2,35.3c0-0.1-2.3-3.9-2.3-3.9c-0.4-1.1-3.8-2-8.5-2c-4.7,0-7.7,0.7-8.5,2
							c0,0-2.3,3.8-2.3,3.9l0,0h0c0,0,0,0,0,0.1c0,1.2,4.8,2.2,10.8,2.2C91.4,37.5,96.2,36.5,96.2,35.3
							C96.2,35.3,96.2,35.3,96.2,35.3L96.2,35.3z"/>
						<path class="st85" d="M92.1,30.8c0,0.5-2.9,1.3-6.7,1.2c-3.7,0-6.7-0.7-6.7-1.2c0-0.6,2.9-0.1,6.7-0.1
							C89.2,30.7,92.1,30.3,92.1,30.8z"/>
					</g>
					<path class="st82" d="M92.3,29.6c0-0.6-3-1-6.8-1c-3.8,0-6.8,0.5-6.8,1c0,0.1,0,0.5,0,0.6c0,0.6,3,1,6.8,1c3.8,0,6.8-0.5,6.8-1
						C92.3,30,92.3,29.7,92.3,29.6z"/>
					<g>
						<path class="st97" d="M90.9,29c0-0.1-0.1-0.1-0.2-0.2v-6.6c0-0.3-2.3-0.6-5.2-0.6c-2.9,0-5.2,0.3-5.2,0.6v6.6
							C80.1,28.9,80,28.9,80,29c0,0,0,0.2,0,0.3c0,0.3,2.4,0.6,5.4,0.6c3,0,5.4-0.3,5.4-0.6C90.9,29.2,90.9,29,90.9,29z"/>
						<g>
							<g>
								<path class="st74" d="M85.6,29.6c-0.1,0-0.2,0-0.3,0c0-2.1,0-4.2,0-6.3c0.1,0,0.2,0,0.3,0C85.6,25.5,85.6,27.6,85.6,29.6z"
									/>
								<path class="st74" d="M84.9,29.6c-0.1,0-0.2,0-0.3,0c0-2.1,0-4.2,0-6.3c0.1,0,0.2,0,0.3,0C84.9,25.4,84.9,27.5,84.9,29.6z"
									/>
								<path class="st74" d="M84.1,29.5c-0.1,0-0.2,0-0.3,0c0-2.1,0-4.2,0-6.3c0.1,0,0.2,0,0.3,0C84.1,25.4,84.1,27.4,84.1,29.5z"
									/>
								<path class="st74" d="M83.4,29.5c-0.1,0-0.2,0-0.3,0c0-2.1,0-4.2,0-6.3c0.1,0,0.2,0,0.3,0C83.4,25.3,83.4,27.4,83.4,29.5z"
									/>
								<path class="st74" d="M82.7,29.4c-0.1,0-0.2,0-0.3,0c0-2.1,0-4.2,0-6.3c0.1,0,0.2,0,0.3,0C82.7,25.2,82.7,27.3,82.7,29.4z"
									/>
								<path class="st74" d="M81.9,29.3c-0.1,0-0.2,0-0.3,0c0-2.1,0-4.2,0-6.3c0.1,0,0.2,0,0.3,0C81.9,25.1,81.9,27.2,81.9,29.3z"
									/>
								<path class="st74" d="M81.2,29.2c-0.1,0-0.2,0-0.3,0c0-2.1,0-4.2,0-6.3c0.1,0,0.2,0,0.3,0C81.2,25,81.2,27.1,81.2,29.2z"/>
							</g>
							<g>
								<path class="st74" d="M86,29.6c0.1,0,0.2,0,0.3,0c0-2.1,0-4.2,0-6.3c-0.1,0-0.2,0-0.3,0C86,25.5,86,27.5,86,29.6z"/>
								<path class="st74" d="M86.8,29.6c0.1,0,0.2,0,0.3,0c0-2.1,0-4.2,0-6.3c-0.1,0-0.2,0-0.3,0C86.8,25.4,86.8,27.5,86.8,29.6z"
									/>
								<path class="st74" d="M87.5,29.5c0.1,0,0.2,0,0.3,0c0-2.1,0-4.2,0-6.3c-0.1,0-0.2,0-0.3,0C87.5,25.3,87.5,27.4,87.5,29.5z"
									/>
								<path class="st74" d="M88.2,29.5c0.1,0,0.2,0,0.3,0c0-2.1,0-4.2,0-6.3c-0.1,0-0.2,0-0.3,0C88.2,25.3,88.2,27.4,88.2,29.5z"
									/>
								<path class="st74" d="M89,29.4c0.1,0,0.2,0,0.3,0c0-2.1,0-4.2,0-6.3c-0.1,0-0.2,0-0.3,0C89,25.2,89,27.3,89,29.4z"/>
								<path class="st74" d="M89.7,29.3c0.1,0,0.2,0,0.3,0c0-2.1,0-4.2,0-6.3c-0.1,0-0.2,0-0.3,0C89.7,25.1,89.7,27.2,89.7,29.3z"
									/>
							</g>
						</g>
						<path class="st0" d="M90.7,22.3c0,0.3-2.3,0.6-5.2,0.6c-2.9,0-5.2-0.3-5.2-0.6c0-0.3,2.3-0.6,5.2-0.6
							C88.3,21.7,90.7,21.9,90.7,22.3z"/>
					</g>
					<path class="st74" d="M85.4,30.5c-3.7,0-6.6-0.4-6.8-1c0,0,0,0,0,0c0,0.1,0,0.5,0,0.6c0,0.6,3,1,6.8,1c3.8,0,6.8-0.5,6.8-1
						c0-0.1,0-0.5,0-0.6c0,0,0,0,0,0C92.1,30.1,89.1,30.5,85.4,30.5z"/>
				</g>
			</g>
			<g>
				<path class="st83" d="M80.7,56.2c-0.6,0-1.2-0.1-1.8-0.1c-0.2-1.2-0.6-2-1.2-2.4c-0.6-0.4-1.2-0.4-1.7,0.2c-1,1.1-1.4,3-1.1,5.8
					c0.1,1.2,0.4,2.1,0.8,2.7c0.4,0.7,0.8,1,1.3,1c0.4,0,0.8-0.2,1.2-0.8c0.4-0.5,0.7-1.3,0.8-2.3c-0.6,0-1.2-0.1-1.9-0.1
					c0-0.7,0-1.5,0-2.2c1.3,0.1,2.5,0.2,3.8,0.2c0,2.6,0,5.2,0,7.8c-0.5,0-1.1,0-1.6-0.1c0-0.5,0-0.9,0-1.4c-0.3,0.6-0.8,1-1.4,1.3
					c-0.7,0.2-1.3,0.2-2-0.2c-0.9-0.5-1.6-1.4-2.1-2.8c-0.5-1.3-0.8-2.9-0.8-4.6c0-1.8,0.3-3.3,0.8-4.6c0.5-1.3,1.2-2.1,2.1-2.4
					c0.8-0.3,1.6-0.3,2.3,0.2c0.9,0.5,1.5,1.3,2,2.4C80.5,54.4,80.7,55.3,80.7,56.2z"/>
				<path class="st83" d="M82.4,66c1-4.9,1.9-9.7,2.9-14.6c0.7,0,1.5,0,2.2,0c0.9,4.9,1.9,9.7,2.8,14.5c-0.7,0-1.4,0.1-2.1,0.1
					c-0.2-1-0.3-2.1-0.5-3.1c-0.9,0-1.7,0-2.6,0c-0.2,1-0.4,2.1-0.5,3.1C83.9,66,83.2,66,82.4,66z M85.5,60.7c0.6,0,1.2,0,1.8,0
					c-0.3-1.8-0.6-3.5-0.9-5.3C86.1,57.1,85.8,58.9,85.5,60.7z"/>
				<path class="st83" d="M90.9,61c0.6,0,1.2-0.1,1.9-0.1c0.1,0.8,0.2,1.3,0.4,1.7c0.2,0.3,0.5,0.5,0.9,0.6c0.4,0.2,0.8,0.1,1.2-0.2
					c0.5-0.3,0.7-0.8,0.8-1.5c0-0.9-0.3-1.5-1-1.8c-0.7-0.3-1.4-0.5-2.1-0.8c-0.9-0.3-1.4-1-1.7-2c-0.5-1.5-0.3-3,0.5-4.4
					c0.6-1.1,1.4-1.7,2.3-1.9c0.9-0.2,1.6,0.1,2.3,0.8c0.8,0.7,1.2,1.9,1.3,3.6c-0.6,0.1-1.2,0.1-1.8,0.2c-0.1-1.2-0.5-1.9-1.2-2.1
					c-0.4-0.1-0.8,0-1.2,0.3c-0.5,0.4-0.6,1-0.5,1.7c0,0.5,0.2,0.8,0.3,1c0.3,0.1,0.6,0.3,1,0.4c0.6,0.3,1.2,0.5,1.8,0.8
					c1,0.4,1.6,1.4,1.6,3c0.1,1.9-0.3,3.4-1.2,4.3c-1,1-2.1,1.3-3.5,0.9C91.8,65.2,91,63.6,90.9,61z"/>
			</g>
		</g>
		<path class="st83" d="M93.6,104.5c3.4-0.5,5.7-1.3,5.7-2.2c0-0.2,0-0.4,0-0.4v-0.1v-0.1V38.4c-0.8,0.7-2.9,1.5-5.7,2V104.5z"/>
	</g>
	<g>
		<g>
			<path class="st83" d="M85.6,51.2c0-1.2-6.2-2.2-13.8-2.2c-7.6,0-13.8,1-13.8,2.2c0,0.1,0.1,0.2,0.2,0.3H58v64.4c0,0,0,0.3,0,0.5
				c0,1.5,6.2,2.7,13.8,2.7c7.6,0,13.8-1.2,13.8-2.7c0-0.2,0-0.5,0-0.5V51.5h-0.2C85.5,51.4,85.6,51.3,85.6,51.2z"/>
			<path class="st1" d="M85.6,115.7L85.6,115.7c0,0.1,0,0.4,0,0.6c0,1.5-6.2,2.7-13.8,2.7c-7.6,0-13.8-1.2-13.8-2.7
				c0-0.2,0-0.5,0-0.5v-0.1c-0.4,0.5-0.6,0.8-0.6,1.1c0,1.5,6.3,3.3,14.4,3.3c8,0,14.4-1.8,14.4-3.3C86.2,116.5,86,116.2,85.6,115.7
				z"/>
			<path class="st1" d="M85.6,51.2c0,1.2-6.2,2.9-13.8,2.9C64.2,54,58,52.4,58,51.2c0-1.2,6.2-2.2,13.8-2.2
				C79.4,48.9,85.6,49.9,85.6,51.2z"/>
			<path class="st97" d="M71.8,53.9c-5.2,0-9.9-0.7-13.8-1.8v22.1v14c3.8,1.1,8.6,2,13.8,2c5.2,0,9.9-0.9,13.8-2v-14V52.2
				C81.8,53.3,77,53.9,71.8,53.9z"/>
			<g>
				<path class="st82" d="M85.3,50.7L85.3,50.7c-0.1,0.1,0.1,0.3,0.1,0.4c0.1,1.5-6,2.7-13.5,2.7c-7.6,0-13.6-1.2-13.5-2.7
					c0-0.2,0.1-0.4,0.1-0.4l0-0.1c-0.4,0.4-0.8,0.8-0.8,1c-0.1,1.5,6.1,3.3,14.2,3.3c8,0,14.3-1.9,14.2-3.3
					C86,51.4,85.7,51.2,85.3,50.7z"/>
				<g>
					<g>
						<linearGradient id="SVGID_6_" gradientUnits="userSpaceOnUse" x1="59.0834" y1="50.2552" x2="84.544" y2="50.2552">
							<stop  offset="5.618000e-03" style="stop-color:#CACBCC"/>
							<stop  offset="0.2921" style="stop-color:#AAABAD"/>
							<stop  offset="0.6517" style="stop-color:#CECED0"/>
							<stop  offset="0.8652" style="stop-color:#AEAFB1"/>
							<stop  offset="1" style="stop-color:#B5B5B6"/>
							<stop  offset="1" style="stop-color:#D2D4D7"/>
						</linearGradient>
						<path class="st14" d="M83.9,49.8c-1.3-1.2-5.4-2.4-12.1-2.4c-6.7,0-10.8,0.6-12.1,2.4c0,0-0.7,0.6-0.7,0.9
							c0,1.3,5.7,2.4,12.7,2.4c7,0,12.7-1.1,12.7-2.4C84.5,50.4,83.9,49.8,83.9,49.8z"/>
						<linearGradient id="SVGID_7_" gradientUnits="userSpaceOnUse" x1="61.0478" y1="47.4561" x2="82.5807" y2="47.4561">
							<stop  offset="5.618000e-03" style="stop-color:#D1D1D2"/>
							<stop  offset="0.3596" style="stop-color:#9FA0A0"/>
							<stop  offset="0.5488" style="stop-color:#ACACAD"/>
							<stop  offset="0.6517" style="stop-color:#B5B5B6"/>
							<stop  offset="0.8652" style="stop-color:#B7B8B8"/>
							<stop  offset="1" style="stop-color:#B5B5B6"/>
							<stop  offset="1" style="stop-color:#DCDDDD"/>
						</linearGradient>
						<path class="st15" d="M82.6,49.3L82.6,49.3c0-0.1-2.3-3.9-2.3-3.9c-0.4-1.1-3.8-2-8.5-2c-4.7,0-7.7,0.7-8.5,2
							c0,0-2.3,3.8-2.3,3.9l0,0h0c0,0,0,0,0,0c0,1.2,4.8,2.2,10.8,2.2C77.8,51.5,82.6,50.5,82.6,49.3C82.6,49.3,82.6,49.3,82.6,49.3
							L82.6,49.3z"/>
						<path class="st85" d="M78.5,44.8c0,0.5-2.9,1.3-6.7,1.2c-3.7,0-6.7-0.7-6.7-1.2c0-0.6,2.9-0.1,6.7-0.1
							C75.5,44.7,78.5,44.3,78.5,44.8z"/>
					</g>
					<path class="st82" d="M78.6,43.6c0-0.6-3-1-6.8-1c-3.8,0-6.8,0.5-6.8,1c0,0.1,0,0.5,0,0.6c0,0.6,3,1,6.8,1c3.8,0,6.8-0.5,6.8-1
						C78.6,44.1,78.6,43.7,78.6,43.6z"/>
					<g>
						<path class="st97" d="M77.3,43c0-0.1-0.1-0.1-0.2-0.2v-6.6c0-0.3-2.3-0.6-5.2-0.6c-2.9,0-5.2,0.3-5.2,0.6v6.6
							c-0.1,0.1-0.2,0.1-0.2,0.2c0,0,0,0.2,0,0.3c0,0.3,2.4,0.6,5.4,0.6c3,0,5.4-0.3,5.4-0.6C77.3,43.2,77.3,43,77.3,43z"/>
						<g>
							<g>
								<path class="st74" d="M72,43.7c-0.1,0-0.2,0-0.3,0c0-2.1,0-4.2,0-6.3c0.1,0,0.2,0,0.3,0C72,39.5,72,41.6,72,43.7z"/>
								<path class="st74" d="M71.2,43.6c-0.1,0-0.2,0-0.3,0c0-2.1,0-4.2,0-6.3c0.1,0,0.2,0,0.3,0C71.2,39.4,71.2,41.5,71.2,43.6z"
									/>
								<path class="st74" d="M70.5,43.6c-0.1,0-0.2,0-0.3,0c0-2.1,0-4.2,0-6.3c0.1,0,0.2,0,0.3,0C70.5,39.4,70.5,41.5,70.5,43.6z"
									/>
								<path class="st74" d="M69.8,43.5c-0.1,0-0.2,0-0.3,0c0-2.1,0-4.2,0-6.3c0.1,0,0.2,0,0.3,0C69.8,39.3,69.8,41.4,69.8,43.5z"
									/>
								<path class="st74" d="M69,43.4c-0.1,0-0.2,0-0.3,0c0-2.1,0-4.2,0-6.3c0.1,0,0.2,0,0.3,0C69,39.2,69,41.3,69,43.4z"/>
								<path class="st74" d="M68.3,43.3c-0.1,0-0.2,0-0.3,0c0-2.1,0-4.2,0-6.3c0.1,0,0.2,0,0.3,0C68.3,39.1,68.3,41.2,68.3,43.3z"
									/>
								<path class="st74" d="M67.6,43.2c-0.1,0-0.2,0-0.3,0c0-2.1,0-4.2,0-6.3c0.1,0,0.2,0,0.3,0C67.6,39.1,67.6,41.2,67.6,43.2z"
									/>
							</g>
							<g>
								<path class="st74" d="M72.4,43.7c0.1,0,0.2,0,0.3,0c0-2.1,0-4.2,0-6.3c-0.1,0-0.2,0-0.3,0C72.4,39.5,72.4,41.6,72.4,43.7z"
									/>
								<path class="st74" d="M73.1,43.6c0.1,0,0.2,0,0.3,0c0-2.1,0-4.2,0-6.3c-0.1,0-0.2,0-0.3,0C73.1,39.4,73.1,41.5,73.1,43.6z"
									/>
								<path class="st74" d="M73.9,43.5c0.1,0,0.2,0,0.3,0c0-2.1,0-4.2,0-6.3c-0.1,0-0.2,0-0.3,0C73.9,39.3,73.9,41.4,73.9,43.5z"
									/>
								<path class="st74" d="M74.6,43.5c0.1,0,0.2,0,0.3,0c0-2.1,0-4.2,0-6.3c-0.1,0-0.2,0-0.3,0C74.6,39.3,74.6,41.4,74.6,43.5z"
									/>
								<path class="st74" d="M75.3,43.4c0.1,0,0.2,0,0.3,0c0-2.1,0-4.2,0-6.3c-0.1,0-0.2,0-0.3,0C75.3,39.2,75.3,41.3,75.3,43.4z"
									/>
								<path class="st74" d="M76.1,43.3c0.1,0,0.2,0,0.3,0c0-2.1,0-4.2,0-6.3c-0.1,0-0.2,0-0.3,0C76.1,39.1,76.1,41.2,76.1,43.3z"
									/>
							</g>
						</g>
						<path class="st0" d="M77,36.3c0,0.3-2.3,0.6-5.2,0.6c-2.9,0-5.2-0.3-5.2-0.6c0-0.3,2.3-0.6,5.2-0.6C74.7,35.7,77,35.9,77,36.3
							z"/>
					</g>
					<path class="st74" d="M71.8,44.5c-3.7,0-6.6-0.4-6.8-1c0,0,0,0,0,0c0,0.1,0,0.5,0,0.6c0,0.6,3,1,6.8,1c3.8,0,6.8-0.5,6.8-1
						c0-0.1,0-0.5,0-0.6c0,0,0,0,0,0C78.4,44.1,75.5,44.5,71.8,44.5z"/>
				</g>
			</g>
			<g>
				<path class="st83" d="M67.1,70.2c-0.6,0-1.2-0.1-1.8-0.1c-0.2-1.2-0.6-2-1.2-2.4c-0.6-0.4-1.2-0.4-1.7,0.2c-1,1.1-1.4,3-1.1,5.8
					c0.1,1.2,0.4,2.1,0.8,2.7c0.4,0.7,0.8,1,1.3,1c0.4,0,0.8-0.2,1.2-0.8c0.4-0.5,0.7-1.3,0.8-2.3c-0.6,0-1.2-0.1-1.9-0.1
					c0-0.7,0-1.5,0-2.2c1.3,0.1,2.5,0.2,3.8,0.2c0,2.6,0,5.2,0,7.8c-0.5,0-1.1,0-1.6-0.1c0-0.5,0-0.9,0-1.4c-0.3,0.6-0.8,1-1.4,1.3
					c-0.7,0.2-1.3,0.2-2-0.2c-0.9-0.5-1.6-1.5-2.1-2.8c-0.5-1.3-0.8-2.9-0.8-4.6c0-1.8,0.3-3.3,0.8-4.6c0.5-1.3,1.2-2.1,2.1-2.4
					c0.8-0.3,1.6-0.3,2.3,0.2c0.9,0.5,1.5,1.3,2,2.4C66.8,68.5,67,69.3,67.1,70.2z"/>
				<path class="st83" d="M68.8,80c1-4.9,1.9-9.7,2.9-14.6c0.7,0,1.5,0,2.2,0c0.9,4.9,1.9,9.7,2.8,14.5C76,80,75.3,80,74.6,80
					c-0.2-1-0.3-2.1-0.5-3.1c-0.9,0-1.7,0-2.6,0c-0.2,1-0.4,2.1-0.5,3.1C70.2,80,69.5,80,68.8,80z M71.9,74.7c0.6,0,1.2,0,1.8,0
					c-0.3-1.8-0.6-3.5-0.9-5.3C72.5,71.2,72.2,72.9,71.9,74.7z"/>
				<path class="st83" d="M77.3,75c0.6,0,1.2-0.1,1.9-0.1c0.1,0.8,0.2,1.3,0.4,1.7c0.2,0.3,0.5,0.5,0.9,0.6c0.4,0.2,0.8,0.1,1.2-0.2
					c0.5-0.3,0.7-0.8,0.8-1.5c0-0.9-0.3-1.5-1-1.8c-0.7-0.3-1.4-0.5-2.1-0.8c-0.9-0.3-1.4-1-1.7-2c-0.5-1.5-0.3-3,0.5-4.4
					c0.6-1.1,1.4-1.7,2.3-1.9c0.9-0.2,1.6,0.1,2.3,0.8c0.8,0.7,1.2,1.9,1.3,3.6c-0.6,0.1-1.2,0.1-1.8,0.2c-0.1-1.2-0.5-1.9-1.2-2.1
					c-0.4-0.1-0.8,0-1.2,0.3c-0.5,0.4-0.6,1-0.5,1.8c0,0.5,0.2,0.8,0.3,1c0.3,0.1,0.6,0.3,1,0.4c0.6,0.3,1.2,0.5,1.8,0.8
					c1,0.4,1.6,1.4,1.6,3c0.1,1.9-0.3,3.4-1.2,4.3c-1,1-2.1,1.3-3.5,0.9C78.2,79.2,77.4,77.7,77.3,75z"/>
			</g>
		</g>
		<path class="st83" d="M80,118.5c3.4-0.5,5.7-1.3,5.7-2.2c0-0.2,0-0.4,0-0.4v-0.1v-0.1V52.4c-0.8,0.7-2.9,1.5-5.7,2V118.5z"/>
	</g>
</g>
</svg>
