<?xml version="1.0" encoding="utf-8"?>
<!-- Generator: Adobe Illustrator 24.0.1, SVG Export Plug-In . SVG Version: 6.00 Build 0)  -->
<svg version="1.1" id="レイヤー_1" xmlns="http://www.w3.org/2000/svg" xmlns:xlink="http://www.w3.org/1999/xlink" x="0px"
	 y="0px" viewBox="0 0 141.7 141.7" style="enable-background:new 0 0 141.7 141.7;" xml:space="preserve">
<style type="text/css">
	.st0{fill:#FFFFFF;}
	.st1{fill:#9FA0A0;}
	.st2{fill:#CDA774;}
	.st3{fill:#DDB887;}
	.st4{fill:#F3EBDF;}
	.st5{fill:#F8F0E4;}
	.st6{fill:#ECECEC;}
	.st7{fill:url(#SVGID_1_);}
	.st8{fill:url(#SVGID_2_);}
	.st9{fill:#E60012;}
	.st10{fill:#036EB8;}
	.st11{fill:#EA5514;}
	.st12{clip-path:url(#SVGID_4_);}
	.st13{fill:url(#SVGID_5_);}
	.st14{fill:url(#SVGID_6_);}
	.st15{fill:url(#SVGID_7_);}
	.st16{fill:url(#SVGID_8_);}
	.st17{fill:url(#SVGID_9_);}
	.st18{fill:url(#SVGID_10_);}
	.st19{fill:url(#SVGID_11_);}
	.st20{fill:url(#SVGID_12_);}
	.st21{fill:url(#SVGID_13_);}
	.st22{fill:url(#SVGID_14_);}
	.st23{fill:url(#SVGID_15_);}
	.st24{fill:url(#SVGID_16_);}
	.st25{fill:url(#SVGID_17_);}
	.st26{fill:url(#SVGID_18_);}
	.st27{fill:url(#SVGID_19_);}
	.st28{fill:url(#SVGID_20_);}
	.st29{fill:url(#SVGID_21_);}
	.st30{fill:url(#SVGID_22_);}
	.st31{fill:url(#SVGID_23_);}
	.st32{fill:url(#SVGID_24_);}
	.st33{fill:url(#SVGID_25_);}
	.st34{fill:url(#SVGID_26_);}
	.st35{fill:url(#SVGID_27_);}
	.st36{fill:url(#SVGID_28_);}
	.st37{fill:url(#SVGID_29_);}
	.st38{fill:url(#SVGID_30_);}
	.st39{fill:url(#SVGID_31_);}
	.st40{fill:url(#SVGID_32_);}
	.st41{fill:url(#SVGID_33_);}
	.st42{fill:url(#SVGID_34_);}
	.st43{fill:url(#SVGID_35_);}
	.st44{fill:url(#SVGID_36_);}
	.st45{fill:url(#SVGID_37_);}
	.st46{fill:url(#SVGID_38_);}
	.st47{fill:url(#SVGID_39_);}
	.st48{clip-path:url(#SVGID_41_);}
	.st49{fill:#B28247;}
	.st50{fill:#FFF100;}
	.st51{fill:#8FC31F;}
	.st52{fill:none;stroke:#B28247;stroke-width:0.5288;stroke-linecap:round;stroke-linejoin:round;stroke-miterlimit:10;}
	.st53{fill:#EAE5E3;}
	.st54{fill:#BEB1AA;}
	.st55{clip-path:url(#SVGID_43_);}
	.st56{fill:url(#SVGID_44_);}
	.st57{fill:url(#SVGID_45_);}
	.st58{fill:url(#SVGID_46_);}
	.st59{fill:url(#SVGID_47_);}
	.st60{fill:url(#SVGID_48_);}
	.st61{fill:url(#SVGID_49_);}
	.st62{fill:url(#SVGID_50_);}
	.st63{fill:url(#SVGID_51_);}
	.st64{fill:url(#SVGID_52_);}
	.st65{fill:url(#SVGID_53_);}
	.st66{fill:url(#SVGID_54_);}
	.st67{fill:url(#SVGID_55_);}
	.st68{fill:url(#SVGID_56_);}
	.st69{fill:url(#SVGID_57_);}
	.st70{fill:url(#SVGID_58_);}
	.st71{fill:url(#SVGID_59_);}
	.st72{fill:none;}
	.st73{fill:url(#SVGID_60_);}
	.st74{fill:#DCDDDD;}
	.st75{fill:#EACE76;}
	.st76{clip-path:url(#SVGID_62_);}
	.st77{fill:#C9A063;}
	.st78{fill:#00913A;}
	.st79{fill:#3E3A39;}
	.st80{fill:#C6BA9A;}
	.st81{fill:#D6CCB5;}
	.st82{fill:#B5B5B6;}
	.st83{fill:#F0EFEF;}
	.st84{fill:#595857;}
	.st85{fill:#727171;}
	.st86{fill:#CCAC69;}
	.st87{fill:#C9CACA;}
	.st88{fill:#8A8A8A;}
	.st89{opacity:0.75;}
	.st90{fill:#B81C25;}
	.st91{fill:#DE551A;}
	.st92{fill:#E99413;}
	.st93{fill:#F7F9F9;}
	.st94{fill:#F7F9F9;stroke:#727171;stroke-width:0.2229;stroke-miterlimit:10;}
	.st95{fill:#C39717;}
	.st96{fill:#CC172C;}
	.st97{fill:#E83514;}
	.st98{fill:url(#SVGID_63_);}
	.st99{fill:url(#SVGID_64_);}
	.st100{fill:url(#SVGID_65_);}
	.st101{fill:url(#SVGID_66_);}
	.st102{fill:url(#SVGID_67_);}
	.st103{fill:url(#SVGID_68_);}
	.st104{fill:#E6E6E6;}
	.st105{fill:#D1EAF6;}
	.st106{fill:#359DD1;}
	.st107{fill:#44AFDB;}
	.st108{fill:url(#SVGID_69_);}
	.st109{fill:none;stroke:#221714;stroke-width:0.1546;}
	.st110{fill:url(#SVGID_70_);}
	.st111{fill:url(#SVGID_71_);}
	.st112{fill:url(#SVGID_72_);}
	.st113{fill:url(#SVGID_73_);}
	.st114{fill:url(#SVGID_74_);}
	.st115{fill:url(#SVGID_75_);}
	.st116{fill:url(#SVGID_76_);}
	.st117{fill:url(#SVGID_77_);}
	.st118{fill:url(#SVGID_78_);}
	.st119{fill:url(#SVGID_79_);}
	.st120{fill:url(#SVGID_80_);}
	.st121{fill:url(#SVGID_81_);}
	.st122{fill:url(#SVGID_82_);}
	.st123{fill:url(#SVGID_83_);}
	.st124{fill:url(#SVGID_84_);}
	.st125{fill:url(#SVGID_85_);}
	.st126{fill:url(#SVGID_86_);}
	.st127{fill:url(#SVGID_87_);}
	.st128{fill:url(#SVGID_88_);}
	.st129{fill:url(#SVGID_89_);}
	.st130{fill:url(#SVGID_90_);}
	.st131{fill:url(#SVGID_91_);}
	.st132{fill:url(#SVGID_92_);}
	.st133{fill:url(#SVGID_93_);}
	.st134{fill:url(#SVGID_94_);}
	.st135{fill:url(#SVGID_95_);}
	.st136{fill:url(#SVGID_96_);}
	.st137{fill:url(#SVGID_97_);}
	.st138{fill:url(#SVGID_98_);}
	.st139{fill:url(#SVGID_99_);}
	.st140{fill:url(#SVGID_100_);}
	.st141{fill:url(#SVGID_101_);}
	.st142{fill:url(#SVGID_102_);}
	.st143{fill:url(#SVGID_103_);}
	.st144{fill:url(#SVGID_104_);}
	.st145{fill:url(#SVGID_105_);}
	.st146{fill:url(#SVGID_106_);}
	.st147{fill:url(#SVGID_107_);}
	.st148{fill:url(#SVGID_108_);}
	.st149{fill:url(#SVGID_109_);}
	.st150{fill:url(#SVGID_110_);}
	.st151{fill:url(#SVGID_111_);}
	.st152{fill:url(#SVGID_112_);}
	.st153{fill:url(#SVGID_113_);}
	.st154{fill:url(#SVGID_114_);}
	.st155{fill:url(#SVGID_115_);}
	.st156{fill:url(#SVGID_116_);}
	.st157{fill:url(#SVGID_117_);}
	.st158{fill:url(#SVGID_118_);}
	.st159{fill:url(#SVGID_119_);}
	.st160{stroke:#000000;stroke-width:2.4516;stroke-linecap:round;stroke-linejoin:round;stroke-miterlimit:10;}
	.st161{fill:url(#SVGID_120_);stroke:#000000;stroke-width:0.8172;stroke-linecap:round;stroke-linejoin:round;}
	.st162{fill:url(#SVGID_121_);stroke:#000000;stroke-width:0.8172;stroke-linecap:round;stroke-linejoin:round;}
	.st163{fill:url(#SVGID_122_);stroke:#000000;stroke-width:0.8172;stroke-linecap:round;stroke-linejoin:round;}
	.st164{opacity:0.4;fill:#FFFFFF;}
	.st165{fill:#FFFEEE;}
	.st166{fill:none;stroke:#F7EFB8;stroke-width:0.4086;}
	.st167{fill:none;stroke:#F7EFB8;stroke-width:0.2043;stroke-miterlimit:10;}
	.st168{fill-rule:evenodd;clip-rule:evenodd;fill:none;stroke:#000000;stroke-width:0.1961;stroke-miterlimit:10;}
	.st169{fill:none;stroke:#000000;stroke-width:0.8172;stroke-linecap:round;stroke-linejoin:round;}
	.st170{fill-rule:evenodd;clip-rule:evenodd;}
	.st171{fill-rule:evenodd;clip-rule:evenodd;fill:none;stroke:#000000;stroke-width:0.4086;stroke-miterlimit:10;}
	.st172{fill-rule:evenodd;clip-rule:evenodd;fill:url(#SVGID_123_);}
	.st173{opacity:0.9;fill:#E60012;}
	.st174{fill:#DCDBDA;}
	.st175{opacity:0.9;fill:#FFFFFF;}
	.st176{opacity:0.3;fill:#FFFFFF;}
	.st177{fill:#7E7977;}
	.st178{fill:#EEEAD0;}
	.st179{fill:#DDD9C2;}
	.st180{fill:#D3A243;}
	.st181{fill:none;stroke:#E5E3DA;stroke-width:0.4086;stroke-linecap:round;stroke-linejoin:round;}
	.st182{fill:#C11920;}
	.st183{fill:url(#SVGID_124_);}
	.st184{fill:url(#SVGID_125_);}
	.st185{fill:#5D8AA2;}
	.st186{fill:#267EAF;}
	.st187{fill:none;stroke:#D9B556;stroke-width:0.6958;stroke-miterlimit:10;}
	.st188{fill:#D9B556;}
	.st189{fill:#0E2F8F;}
	.st190{fill:url(#SVGID_126_);}
	.st191{fill:url(#SVGID_127_);}
	.st192{fill:url(#SVGID_128_);}
	.st193{fill:#755F43;}
	.st194{fill:#CD6829;}
	.st195{fill:#E08030;}
	.st196{fill:#F7F8F8;}
	.st197{fill:#E60012;stroke:#000000;stroke-width:0.1945;stroke-miterlimit:10;}
	.st198{fill:none;stroke:#000000;stroke-width:0.1945;stroke-miterlimit:10;}
	.st199{fill:#FFF100;stroke:#000000;stroke-width:0.1945;stroke-miterlimit:10;}
	.st200{fill:#FFFFFF;stroke:#000000;stroke-width:0.1264;stroke-miterlimit:10;}
	.st201{fill:none;stroke:#9FA0A0;stroke-width:0.1853;stroke-linecap:round;stroke-linejoin:round;stroke-miterlimit:10;}
	.st202{fill:#722F1C;}
	.st203{fill:#E9C07F;}
	.st204{fill:#F2D39D;}
	.st205{fill:#D0542E;}
	.st206{fill:#DC643A;}
	.st207{fill:#6A3906;}
	.st208{fill:#674425;}
	.st209{fill:none;stroke:#E60012;stroke-width:0.1398;stroke-miterlimit:10;}
	.st210{fill:none;stroke:#E60012;stroke-width:0.1398;stroke-miterlimit:10;stroke-dasharray:0.7067,0.7067;}
	.st211{fill:none;stroke:#000000;stroke-width:0.1398;stroke-miterlimit:10;}
	.st212{fill:none;stroke:#000000;stroke-miterlimit:10;}
	.st213{fill:#C9A063;stroke:#000000;stroke-width:1.3629;stroke-miterlimit:10;}
	.st214{fill:#008ABD;}
	.st215{fill:#5CB9D3;}
	.st216{fill:#BFC0C0;}
	.st217{fill:#FBF8EA;}
	.st218{fill:none;stroke:#000000;stroke-width:0.6064;}
	.st219{fill:#B5B5B6;stroke:#000000;stroke-width:1.1444;stroke-miterlimit:10;}
	.st220{fill:#EA5514;stroke:#000000;stroke-width:1.1444;stroke-miterlimit:10;}
	.st221{fill:#C9A063;stroke:#000000;stroke-width:1.1444;stroke-miterlimit:10;}
	.st222{fill:none;stroke:#000000;stroke-width:1.1444;stroke-miterlimit:10;}
	.st223{fill:#DDB735;stroke:#000000;stroke-width:1.1444;stroke-miterlimit:10;}
	.st224{fill:none;stroke:#FFFFFF;stroke-width:2.546;stroke-miterlimit:10;}
	.st225{fill:#40220F;stroke:#000000;stroke-width:1.1444;stroke-miterlimit:10;}
</style>
<g>
	<g>
		<path class="st10" d="M76,72.5V24.1H22.6v48.4c6.7-4.5,16.2-7.3,26.7-7.3C59.8,65.1,69.3,67.9,76,72.5z"/>
		<g>
			<path class="st0" d="M76,72.5c-6.7-4.5-16.2-7.3-26.7-7.3c-10.5,0-20,2.8-26.7,7.3v24H76V72.5z"/>
			<rect x="22.6" y="96.5" class="st11" width="53.4" height="5.4"/>
		</g>
		<g>
			<defs>
				<path id="SVGID_3_" d="M76,72.5c-6.7-4.5-16.2-7.3-26.7-7.3c-10.5,0-20,2.8-26.7,7.3v24H76V72.5z"/>
			</defs>
			<clipPath id="SVGID_1_">
				<use xlink:href="#SVGID_3_"  style="overflow:visible;"/>
			</clipPath>
			<g style="clip-path:url(#SVGID_1_);">
				<g>
					<g>
						<linearGradient id="SVGID_2_" gradientUnits="userSpaceOnUse" x1="66.4079" y1="85.4622" x2="67.3257" y2="80.2572">
							<stop  offset="0" style="stop-color:#FDD676"/>
							<stop  offset="1" style="stop-color:#F8B62D"/>
						</linearGradient>
						<path class="st8" d="M62,81.7c1-0.1,1.9,0.3,2.8-0.1c1.2-0.6,1.6-1.5,3.2-1.2c1.1,0.2,4.1,1.6,3.8,2.9c-0.3,1-1.6,1.5-1.8,2.6
							c-0.1,0.6-4.5-1.1-5-1.2C63.5,84.3,61.9,83.8,62,81.7z"/>
						<linearGradient id="SVGID_4_" gradientUnits="userSpaceOnUse" x1="44.1057" y1="82.1385" x2="52.9727" y2="82.1385">
							<stop  offset="0" style="stop-color:#FDD676"/>
							<stop  offset="1" style="stop-color:#F8B62D"/>
						</linearGradient>
						<path style="fill:url(#SVGID_4_);" d="M45.6,79.9c-0.7,0.5-1.5,1.9-1.5,2.7c2.1,0.3,7.1,4.1,8.7,1c0.6-1.2-0.9-3.1-1.9-3.6
							C49.7,79.4,46.8,79.1,45.6,79.9z"/>
						<linearGradient id="SVGID_5_" gradientUnits="userSpaceOnUse" x1="38.9462" y1="83.9252" x2="47.8133" y2="83.9252">
							<stop  offset="0" style="stop-color:#FDD676"/>
							<stop  offset="1" style="stop-color:#F8B62D"/>
						</linearGradient>
						<path class="st13" d="M40.5,81.7c-0.7,0.5-1.5,1.9-1.5,2.7c2.1,0.3,7.1,4.1,8.7,1c0.6-1.2-0.9-3.1-1.9-3.6
							C44.5,81.2,41.6,80.9,40.5,81.7z"/>
						<linearGradient id="SVGID_6_" gradientUnits="userSpaceOnUse" x1="71.1628" y1="92.0799" x2="71.1628" y2="86.6324">
							<stop  offset="0" style="stop-color:#FDD676"/>
							<stop  offset="1" style="stop-color:#F8B62D"/>
						</linearGradient>
						<path class="st14" d="M68.2,87.2c-0.7,0.5-1.5,1.9-1.5,2.7c2.1,0.3,7.1,4.1,8.7,1c0.6-1.2-0.9-3.1-1.9-3.6
							C72.3,86.6,69.4,86.3,68.2,87.2z"/>
						<linearGradient id="SVGID_7_" gradientUnits="userSpaceOnUse" x1="39.7893" y1="89.1349" x2="48.1723" y2="89.1349">
							<stop  offset="0" style="stop-color:#FDD676"/>
							<stop  offset="1" style="stop-color:#F8B62D"/>
						</linearGradient>
						<path class="st15" d="M40.6,86.5c1.9-1.8,4.4,2.1,5.7,0.2c0.9,1,2.4,2.3,1.6,3.8c-0.4,0.7-1.4,1.3-2.1,1.5
							c-0.8,0.2-2.4,0.3-3.2-0.1c-0.5-0.3-0.9-0.9-1.4-1.2c-0.5-0.4-0.9-0.4-1.3-1C39.5,88.7,39.9,87.2,40.6,86.5z"/>
						<linearGradient id="SVGID_8_" gradientUnits="userSpaceOnUse" x1="30.1163" y1="84.9347" x2="38.679" y2="84.9347">
							<stop  offset="0" style="stop-color:#FDD676"/>
							<stop  offset="1" style="stop-color:#F8B62D"/>
						</linearGradient>
						<path class="st16" d="M31.2,82.1c1.2-0.7,4.6,1,4.9-0.5c1.5,0.8,3.2,2.3,2.5,3.9c-0.1,0.2-0.5,0.5-0.7,0.8
							c-0.1,0.2,0.1,0.5,0,0.6c-0.2,0.4-0.5,0.8-0.9,1C34,89.4,27.6,84.3,31.2,82.1z"/>
						<linearGradient id="SVGID_9_" gradientUnits="userSpaceOnUse" x1="22.6347" y1="82.8391" x2="31.4197" y2="82.8391">
							<stop  offset="0" style="stop-color:#FDD676"/>
							<stop  offset="1" style="stop-color:#F8B62D"/>
						</linearGradient>
						<path class="st17" d="M31.4,82.1c0,0.3-0.3,1-0.4,1.4c-0.1,0.5-0.1,1.1-0.5,1.5c-0.7,0.7-2.5,0.4-3.4,0.6
							c-1,0.2-2.2,1.5-3.3,0.9c-0.7-0.4-1.2-2-1-2.7c0.3-1.1,1.7-1,2.5-1.9c0.8-0.8,1.1-1.6,2.1-2.2c1-0.6,1.7-0.9,2.7-0.3
							C30.8,79.9,31.5,81.1,31.4,82.1z"/>
						<linearGradient id="SVGID_10_" gradientUnits="userSpaceOnUse" x1="47.1211" y1="85.7485" x2="55.9053" y2="85.7485">
							<stop  offset="0" style="stop-color:#FDD676"/>
							<stop  offset="1" style="stop-color:#F8B62D"/>
						</linearGradient>
						<path class="st18" d="M55.9,85c0,0.3-0.3,1-0.4,1.4c-0.1,0.5-0.1,1.1-0.5,1.5c-0.7,0.7-2.5,0.4-3.4,0.6
							c-1,0.2-2.2,1.5-3.3,0.9c-0.7-0.4-1.2-2-1-2.7c0.3-1.1,1.7-1,2.5-1.9c0.8-0.8,1.1-1.6,2.1-2.2c1-0.6,1.7-0.9,2.7-0.3
							C55.3,82.8,56,84,55.9,85z"/>
						<linearGradient id="SVGID_11_" gradientUnits="userSpaceOnUse" x1="26.952" y1="90.9418" x2="26.952" y2="85.2636">
							<stop  offset="0" style="stop-color:#FDD676"/>
							<stop  offset="1" style="stop-color:#F8B62D"/>
						</linearGradient>
						<path class="st19" d="M22.1,86.7c1-0.1,1.9,0.3,2.8-0.1c1.2-0.6,1.6-1.5,3.2-1.2c1.1,0.2,4.1,1.6,3.8,2.9
							c-0.3,1-1.6,1.5-1.8,2.6c-0.1,0.6-4.5-1.1-5-1.2C23.5,89.3,21.9,88.8,22.1,86.7z"/>
						<linearGradient id="SVGID_12_" gradientUnits="userSpaceOnUse" x1="27.0668" y1="92.533" x2="35.5171" y2="92.533">
							<stop  offset="0" style="stop-color:#FDD676"/>
							<stop  offset="1" style="stop-color:#F8B62D"/>
						</linearGradient>
						<path class="st20" d="M29,90.9c0.3,0,0.8,0.1,1.1,0c0.5-0.1,0.8-0.7,1.2-0.9c0.9-0.5,1.2-0.5,1.9,0.2c0.6,0.6,2.1,2.4,2.3,3.3
							c0.5,2.5-3.4,2.2-4.8,1.9c-1-0.2-2.5-0.4-3.2-1.2C26.5,92.9,27.6,91.1,29,90.9z"/>
						<linearGradient id="SVGID_13_" gradientUnits="userSpaceOnUse" x1="64.2447" y1="89.8776" x2="72.695" y2="89.8776">
							<stop  offset="0" style="stop-color:#FDD676"/>
							<stop  offset="1" style="stop-color:#F8B62D"/>
						</linearGradient>
						<path class="st21" d="M66.2,88.2c0.3,0,0.8,0.1,1.1,0c0.5-0.1,0.8-0.7,1.2-0.9c0.9-0.5,1.2-0.5,1.9,0.2
							c0.6,0.6,2.1,2.4,2.3,3.3c0.5,2.5-3.4,2.2-4.8,1.9c-1-0.2-2.5-0.4-3.2-1.2C63.6,90.3,64.8,88.4,66.2,88.2z"/>
						<linearGradient id="SVGID_14_" gradientUnits="userSpaceOnUse" x1="56.9287" y1="85.7276" x2="65.3798" y2="85.7276">
							<stop  offset="0" style="stop-color:#FDD676"/>
							<stop  offset="1" style="stop-color:#F8B62D"/>
						</linearGradient>
						<path class="st22" d="M58.8,84.1c0.3,0,0.8,0.1,1.1,0c0.5-0.1,0.8-0.7,1.2-0.9c0.9-0.5,1.2-0.5,1.9,0.2
							c0.6,0.6,2.1,2.4,2.3,3.3c0.5,2.5-3.4,2.2-4.8,1.9c-1-0.2-2.5-0.4-3.2-1.2C56.3,86.1,57.5,84.3,58.8,84.1z"/>
						<linearGradient id="SVGID_15_" gradientUnits="userSpaceOnUse" x1="32.563" y1="90.0349" x2="41.0582" y2="90.0349">
							<stop  offset="0" style="stop-color:#FDD676"/>
							<stop  offset="1" style="stop-color:#F8B62D"/>
						</linearGradient>
						<path class="st23" d="M37.7,87.3c-0.6-0.1-1.6-0.2-2.1,0c-0.9,0.3-0.8,1.1-1.4,1.8c-0.4,0.6-1.9,1.1-1.6,2.2
							c0.3,0.9,1.9,0.8,2.7,0.9c1.1,0.1,2.2,0.7,3.3,0.6c0.8,0,1.5-0.2,1.8-0.8c0.6-0.9,0.8-2.7,0.2-3.7
							C40.1,87.5,38.8,87.4,37.7,87.3z"/>
						<linearGradient id="SVGID_16_" gradientUnits="userSpaceOnUse" x1="51.5204" y1="89.887" x2="60.9943" y2="89.887">
							<stop  offset="0" style="stop-color:#FDD676"/>
							<stop  offset="1" style="stop-color:#F8B62D"/>
						</linearGradient>
						<path class="st24" d="M54.2,87.6c-0.9,0.2-3.2,1.8-2.6,3.1c0.2,0.5,1.6,1,2.2,1.2c1,0.4,2.3,0.3,3.4,0.4
							c0.8,0.1,2.9,0.4,3.5-0.1c0.9-0.7-0.2-1.2-0.6-1.9c-0.7-1.1,0-2.2-1.5-2.7C57.3,87.1,55.5,87.3,54.2,87.6z"/>
						<linearGradient id="SVGID_17_" gradientUnits="userSpaceOnUse" x1="40.6231" y1="93.8928" x2="50.0967" y2="93.8928">
							<stop  offset="0" style="stop-color:#FDD676"/>
							<stop  offset="1" style="stop-color:#F8B62D"/>
						</linearGradient>
						<path class="st25" d="M43.3,91.6c-0.9,0.2-3.2,1.8-2.6,3.1c0.2,0.5,1.6,1,2.2,1.2c1,0.4,2.3,0.3,3.4,0.4
							c0.8,0.1,2.9,0.4,3.5-0.1c0.9-0.7-0.2-1.2-0.6-1.9c-0.7-1.1,0-2.2-1.5-2.7C46.5,91.2,44.6,91.3,43.3,91.6z"/>
						<linearGradient id="SVGID_18_" gradientUnits="userSpaceOnUse" x1="58.3242" y1="92.2147" x2="68.1156" y2="92.2147">
							<stop  offset="0" style="stop-color:#FDD676"/>
							<stop  offset="1" style="stop-color:#F8B62D"/>
						</linearGradient>
						<path class="st26" d="M58.3,90.8c1-0.1,1.9,0.3,2.8-0.1c1.2-0.6,1.6-1.5,3.2-1.2c1.1,0.2,4.1,1.6,3.8,2.9
							c-0.3,1-1.6,1.5-1.8,2.6c-0.1,0.6-4.5-1.1-5-1.2C59.8,93.4,58.2,92.9,58.3,90.8z"/>
						<linearGradient id="SVGID_19_" gradientUnits="userSpaceOnUse" x1="49.3411" y1="93.2634" x2="59.1313" y2="93.2634">
							<stop  offset="0" style="stop-color:#FDD676"/>
							<stop  offset="1" style="stop-color:#F8B62D"/>
						</linearGradient>
						<path class="st27" d="M49.3,91.8c1-0.1,1.9,0.3,2.8-0.1c1.2-0.6,1.6-1.5,3.2-1.2c1.1,0.2,4.1,1.6,3.8,2.9
							c-0.3,1-1.6,1.5-1.8,2.6c-0.1,0.6-4.5-1.1-5-1.2C50.8,94.4,49.2,93.9,49.3,91.8z"/>
					</g>
				</g>
				<g>
					<g>
						<linearGradient id="SVGID_20_" gradientUnits="userSpaceOnUse" x1="67.1743" y1="73.8212" x2="68.0918" y2="68.6174">
							<stop  offset="0" style="stop-color:#FDD676"/>
							<stop  offset="1" style="stop-color:#F8B62D"/>
						</linearGradient>
						<path class="st28" d="M62.8,70.1c1-0.1,1.9,0.3,2.8-0.1c1.2-0.6,1.6-1.5,3.2-1.2c1.1,0.2,4.1,1.6,3.8,2.9
							c-0.3,1-1.6,1.5-1.8,2.6c-0.1,0.6-4.5-1.1-5-1.2C64.2,72.7,62.7,72.2,62.8,70.1z"/>
						<linearGradient id="SVGID_21_" gradientUnits="userSpaceOnUse" x1="45.4639" y1="70.2978" x2="54.333" y2="70.2978">
							<stop  offset="0" style="stop-color:#FDD676"/>
							<stop  offset="1" style="stop-color:#F8B62D"/>
						</linearGradient>
						<path class="st29" d="M47,68.1c-0.7,0.5-1.5,1.9-1.5,2.7c2.1,0.3,7.1,4.1,8.7,1c0.6-1.2-0.9-3.1-1.9-3.6
							C51,67.6,48.1,67.3,47,68.1z"/>
						<linearGradient id="SVGID_22_" gradientUnits="userSpaceOnUse" x1="71.7307" y1="79.643" x2="71.7307" y2="74.1948">
							<stop  offset="0" style="stop-color:#FDD676"/>
							<stop  offset="1" style="stop-color:#F8B62D"/>
						</linearGradient>
						<path class="st30" d="M68.8,74.7c-0.7,0.5-1.5,1.9-1.5,2.7c2.1,0.3,7.1,4.1,8.7,1c0.6-1.2-0.9-3.1-1.9-3.6
							C72.8,74.2,70,73.9,68.8,74.7z"/>
						<linearGradient id="SVGID_23_" gradientUnits="userSpaceOnUse" x1="40.3316" y1="72.427" x2="48.7146" y2="72.427">
							<stop  offset="0" style="stop-color:#FDD676"/>
							<stop  offset="1" style="stop-color:#F8B62D"/>
						</linearGradient>
						<path class="st31" d="M41.2,69.8c1.9-1.8,4.4,2.1,5.7,0.2c0.9,1,2.4,2.3,1.6,3.8c-0.4,0.7-1.4,1.3-2.1,1.5
							c-0.9,0.2-2.4,0.3-3.2-0.1c-0.5-0.3-0.9-0.9-1.4-1.2c-0.5-0.3-1-0.4-1.3-1C40.1,72,40.4,70.5,41.2,69.8z"/>
						<linearGradient id="SVGID_24_" gradientUnits="userSpaceOnUse" x1="39.5855" y1="66.974" x2="47.9706" y2="66.974">
							<stop  offset="0" style="stop-color:#FDD676"/>
							<stop  offset="1" style="stop-color:#F8B62D"/>
						</linearGradient>
						<path class="st32" d="M40.4,64.4c1.9-1.8,4.4,2.1,5.7,0.2c0.9,1,2.4,2.3,1.6,3.8c-0.4,0.7-1.4,1.3-2.1,1.5
							c-0.9,0.2-2.4,0.3-3.2-0.1c-0.5-0.3-0.9-0.9-1.4-1.2c-0.5-0.3-0.9-0.4-1.3-1C39.3,66.6,39.7,65.1,40.4,64.4z"/>
						<linearGradient id="SVGID_25_" gradientUnits="userSpaceOnUse" x1="33.8583" y1="70.9111" x2="42.4209" y2="70.9111">
							<stop  offset="0" style="stop-color:#FDD676"/>
							<stop  offset="1" style="stop-color:#F8B62D"/>
						</linearGradient>
						<path class="st33" d="M34.9,68.1c1.2-0.7,4.6,1,4.9-0.4c1.5,0.8,3.2,2.3,2.5,3.9c-0.1,0.2-0.5,0.5-0.7,0.8
							c-0.1,0.2,0.1,0.5,0,0.6c-0.2,0.4-0.5,0.8-0.9,1C37.8,75.4,31.3,70.2,34.9,68.1z"/>
						<linearGradient id="SVGID_26_" gradientUnits="userSpaceOnUse" x1="26.9725" y1="75.7606" x2="35.7559" y2="75.7606">
							<stop  offset="0" style="stop-color:#FDD676"/>
							<stop  offset="1" style="stop-color:#F8B62D"/>
						</linearGradient>
						<path class="st34" d="M35.7,75c0,0.3-0.3,1-0.4,1.4c-0.1,0.5-0.1,1.1-0.5,1.5c-0.7,0.7-2.5,0.4-3.4,0.6
							c-1,0.2-2.2,1.5-3.3,0.9c-0.7-0.4-1.2-2-1-2.7c0.3-1.1,1.7-1,2.5-1.9c0.8-0.8,1.1-1.6,2.1-2.2c1-0.6,1.7-0.9,2.7-0.3
							C35.1,72.9,35.9,74,35.7,75z"/>
						<linearGradient id="SVGID_27_" gradientUnits="userSpaceOnUse" x1="23.2003" y1="70.9978" x2="31.9838" y2="70.9978">
							<stop  offset="0" style="stop-color:#FDD676"/>
							<stop  offset="1" style="stop-color:#F8B62D"/>
						</linearGradient>
						<path class="st35" d="M32,70.3c0,0.3-0.3,1-0.4,1.4c-0.1,0.5-0.1,1.1-0.5,1.5c-0.7,0.7-2.5,0.4-3.4,0.6
							c-1,0.2-2.2,1.5-3.3,0.9c-0.7-0.4-1.2-2-1-2.7c0.3-1.1,1.7-1,2.5-1.9c0.8-0.8,1.1-1.6,2.1-2.2c1-0.6,1.7-0.9,2.7-0.3
							C31.4,68.1,32.1,69.2,32,70.3z"/>
						<linearGradient id="SVGID_28_" gradientUnits="userSpaceOnUse" x1="49.2753" y1="73.7079" x2="58.058" y2="73.7079">
							<stop  offset="0" style="stop-color:#FDD676"/>
							<stop  offset="1" style="stop-color:#F8B62D"/>
						</linearGradient>
						<path class="st36" d="M58,73c0,0.3-0.3,1-0.4,1.4c-0.1,0.5-0.1,1.1-0.5,1.5c-0.7,0.7-2.5,0.4-3.4,0.6c-1,0.2-2.2,1.5-3.3,0.9
							c-0.7-0.3-1.2-2-1-2.7c0.3-1.1,1.7-1,2.5-1.9c0.8-0.8,1.1-1.6,2.1-2.2c1-0.6,1.7-0.9,2.7-0.3C57.4,70.8,58.2,71.9,58,73z"/>
						<linearGradient id="SVGID_29_" gradientUnits="userSpaceOnUse" x1="27.4836" y1="83.016" x2="27.4836" y2="77.3362">
							<stop  offset="0" style="stop-color:#FDD676"/>
							<stop  offset="1" style="stop-color:#F8B62D"/>
						</linearGradient>
						<path class="st37" d="M22.6,78.8c1-0.1,1.9,0.3,2.8-0.1c1.2-0.6,1.6-1.5,3.2-1.2c1.1,0.2,4.1,1.6,3.8,2.9
							c-0.3,1-1.6,1.5-1.8,2.6c-0.1,0.6-4.5-1.1-5-1.2C24,81.3,22.5,80.9,22.6,78.8z"/>
						<linearGradient id="SVGID_30_" gradientUnits="userSpaceOnUse" x1="33.9833" y1="77.1194" x2="42.4343" y2="77.1194">
							<stop  offset="0" style="stop-color:#FDD676"/>
							<stop  offset="1" style="stop-color:#F8B62D"/>
						</linearGradient>
						<path class="st38" d="M35.9,75.4c0.3,0,0.8,0.1,1.1,0c0.5-0.1,0.8-0.7,1.2-0.9c0.9-0.5,1.2-0.5,1.9,0.2
							c0.6,0.6,2.1,2.4,2.3,3.3c0.5,2.5-3.4,2.2-4.8,1.9c-1-0.2-2.5-0.4-3.2-1.2C33.4,77.5,34.5,75.6,35.9,75.4z"/>
						<linearGradient id="SVGID_31_" gradientUnits="userSpaceOnUse" x1="57.2958" y1="74.0852" x2="65.7477" y2="74.0852">
							<stop  offset="0" style="stop-color:#FDD676"/>
							<stop  offset="1" style="stop-color:#F8B62D"/>
						</linearGradient>
						<path class="st39" d="M59.2,72.4c0.3,0,0.8,0.1,1.1,0c0.5-0.1,0.8-0.7,1.2-0.9c0.9-0.5,1.2-0.5,1.9,0.1
							c0.6,0.6,2.1,2.4,2.3,3.3c0.5,2.5-3.4,2.2-4.8,1.9c-1-0.2-2.5-0.4-3.2-1.2C56.7,74.5,57.8,72.6,59.2,72.4z"/>
						<linearGradient id="SVGID_32_" gradientUnits="userSpaceOnUse" x1="38.2893" y1="79.9805" x2="46.7828" y2="79.9805">
							<stop  offset="0" style="stop-color:#FDD676"/>
							<stop  offset="1" style="stop-color:#F8B62D"/>
						</linearGradient>
						<path class="st40" d="M43.5,77.3c-0.6-0.1-1.6-0.2-2.1,0c-1,0.3-0.9,1.1-1.4,1.8c-0.4,0.6-1.9,1.1-1.6,2.2
							c0.3,0.9,1.9,0.8,2.7,0.9c1.1,0.1,2.2,0.7,3.3,0.6c0.8,0,1.5-0.2,1.8-0.8c0.6-0.9,0.8-2.7,0.2-3.7
							C45.8,77.4,44.5,77.4,43.5,77.3z"/>
						<linearGradient id="SVGID_33_" gradientUnits="userSpaceOnUse" x1="52.6876" y1="68.2324" x2="62.1617" y2="68.2324">
							<stop  offset="0" style="stop-color:#FDD676"/>
							<stop  offset="1" style="stop-color:#F8B62D"/>
						</linearGradient>
						<path class="st41" d="M55.4,65.9c-0.9,0.2-3.2,1.8-2.6,3.1c0.2,0.5,1.6,1,2.2,1.2c1,0.4,2.3,0.3,3.4,0.4
							c0.8,0.1,2.9,0.4,3.5-0.1c0.9-0.7-0.2-1.2-0.6-1.9c-0.7-1.1,0-2.2-1.5-2.7C58.5,65.5,56.6,65.7,55.4,65.9z"/>
						<linearGradient id="SVGID_34_" gradientUnits="userSpaceOnUse" x1="43.3721" y1="76.6939" x2="52.8464" y2="76.6939">
							<stop  offset="0" style="stop-color:#FDD676"/>
							<stop  offset="1" style="stop-color:#F8B62D"/>
						</linearGradient>
						<path class="st42" d="M46.1,74.4c-0.9,0.2-3.2,1.8-2.6,3.1c0.2,0.5,1.6,1,2.2,1.2c1,0.3,2.3,0.3,3.4,0.4
							c0.8,0.1,2.9,0.5,3.5-0.1c0.9-0.7-0.2-1.2-0.6-1.9c-0.7-1.1,0-2.2-1.5-2.7C49.2,74,47.3,74.1,46.1,74.4z"/>
						<linearGradient id="SVGID_35_" gradientUnits="userSpaceOnUse" x1="60.6763" y1="79.5796" x2="70.4675" y2="79.5796">
							<stop  offset="0" style="stop-color:#FDD676"/>
							<stop  offset="1" style="stop-color:#F8B62D"/>
						</linearGradient>
						<path class="st43" d="M60.7,78.2c1-0.1,1.9,0.3,2.8-0.1c1.2-0.6,1.6-1.5,3.2-1.2c1.1,0.2,4.1,1.6,3.8,2.9
							c-0.3,1-1.6,1.5-1.8,2.6c-0.1,0.6-4.5-1.1-5-1.2C62.1,80.7,60.6,80.3,60.7,78.2z"/>
						<linearGradient id="SVGID_36_" gradientUnits="userSpaceOnUse" x1="68.8119" y1="83.9468" x2="78.6033" y2="83.9468">
							<stop  offset="0" style="stop-color:#FDD676"/>
							<stop  offset="1" style="stop-color:#F8B62D"/>
						</linearGradient>
						<path class="st44" d="M68.8,82.5c1-0.1,1.9,0.3,2.8-0.1c1.2-0.6,1.6-1.5,3.2-1.2c1.1,0.2,4.1,1.6,3.8,2.9
							c-0.3,1-1.6,1.5-1.8,2.6c-0.1,0.6-4.5-1.1-5-1.2C70.2,85.1,68.7,84.6,68.8,82.5z"/>
						<linearGradient id="SVGID_37_" gradientUnits="userSpaceOnUse" x1="52.4862" y1="80.4313" x2="62.2777" y2="80.4313">
							<stop  offset="0" style="stop-color:#FDD676"/>
							<stop  offset="1" style="stop-color:#F8B62D"/>
						</linearGradient>
						<path class="st45" d="M52.5,79c1-0.1,1.9,0.3,2.8-0.1c1.2-0.6,1.6-1.5,3.2-1.2c1.1,0.2,4.1,1.6,3.8,2.9
							c-0.3,1-1.6,1.5-1.8,2.6c-0.1,0.6-4.5-1.1-5-1.2C53.9,81.6,52.4,81.1,52.5,79z"/>
					</g>
				</g>
			</g>
		</g>
		<g>
			<defs>
				<path id="SVGID_40_" d="M76,72.5V24.1H22.6v48.4c6.7-4.5,16.2-7.3,26.7-7.3C59.8,65.1,69.3,67.9,76,72.5z"/>
			</defs>
			<use xlink:href="#SVGID_40_"  style="overflow:visible;fill:#EA5514;"/>
			<clipPath id="SVGID_38_">
				<use xlink:href="#SVGID_40_"  style="overflow:visible;"/>
			</clipPath>
			<g style="clip-path:url(#SVGID_38_);">
				<path class="st49" d="M28.1,42.7c-0.1,0-0.3,0-0.3-0.1c0-0.1-1.1-2.1-1.7-4.9c-0.8-3.7-0.6-6.9,0.8-9.2c0.1-0.1,0.2-0.2,0.4-0.1
					c0.1,0.1,0.2,0.2,0.1,0.4c-3.2,5.3,0.9,13.5,0.9,13.6C28.3,42.4,28.3,42.6,28.1,42.7C28.1,42.7,28.1,42.7,28.1,42.7z"/>
				<path class="st49" d="M28,43c-0.1,0-0.3,0-0.3-0.2c0-0.1-0.7-2.3-1-5.1c-0.3-3.8,0.5-6.9,2.2-9c0.1-0.1,0.3-0.1,0.4,0
					c0.1,0.1,0.1,0.3,0,0.4c-3.9,4.8-1.1,13.5-1.1,13.6C28.2,42.8,28.1,43,28,43C28,43,28,43,28,43z"/>
				<path class="st49" d="M27.8,44.1C27.8,44.1,27.8,44.1,27.8,44.1c-0.2,0-0.3-0.1-0.3-0.2c0-0.1-0.3-2.4,0-5.2
					c0.4-3.8,1.7-6.7,3.8-8.4c0.1-0.1,0.3-0.1,0.4,0c0.1,0.1,0.1,0.3,0,0.4c-4.8,4-3.6,13.1-3.6,13.2C28,43.9,27.9,44.1,27.8,44.1z"
					/>
				<path class="st50" d="M31.1,84.3c0,0-10.4-32.1-3.7-43.5c0,0,13.6,7.7,21.9,37.7L31.1,84.3z"/>
				<path class="st51" d="M42.2,82c0,0-17.4-18.3-21.6-34.7c0,0,4.9,32.3,11.7,39.6L42.2,82z"/>
				<path class="st51" d="M38.2,83.2c0,0,4.2-24.9-1.5-40.8c0,0,14,29.5,12.4,39.4L38.2,83.2z"/>
				<path class="st49" d="M30.8,55c-2.5,0.7-4.1,0.4-4.2,0.4c-0.1,0-0.2-0.2-0.2-0.3c0-0.1,0.2-0.2,0.3-0.2c0.1,0,4.1,0.9,9-3.2
					c0.1-0.1,0.3-0.1,0.4,0c0.1,0.1,0.1,0.3,0,0.4C34.1,53.7,32.3,54.5,30.8,55z"/>
				<path class="st49" d="M29.7,51.6C28,52.1,26.7,52.1,26,52c-0.1,0-0.3-0.1-0.2-0.3c0-0.1,0.1-0.3,0.3-0.2
					c1.1,0.1,4.2,0.1,7.9-2.7c0.1-0.1,0.3-0.1,0.4,0.1c0.1,0.1,0.1,0.3-0.1,0.4C32.6,50.5,31,51.2,29.7,51.6z"/>
				<path class="st49" d="M31.7,58.2c-2.5,0.8-4.1,0.4-4.2,0.4c-0.1,0-0.2-0.2-0.2-0.3c0-0.1,0.2-0.2,0.3-0.2c0.1,0,4.1,0.8,9-3.2
					c0.1-0.1,0.3-0.1,0.4,0c0.1,0.1,0.1,0.3,0,0.4C35,56.8,33.2,57.7,31.7,58.2z"/>
				<path class="st49" d="M32.7,61.3c-2.5,0.7-4.1,0.4-4.2,0.4c-0.1,0-0.2-0.2-0.2-0.3c0-0.1,0.2-0.2,0.3-0.2c0.1,0,4.1,0.9,9-3.2
					c0.1-0.1,0.3-0.1,0.4,0c0.1,0.1,0.1,0.3,0,0.4C36,60,34.2,60.8,32.7,61.3z"/>
				<path class="st49" d="M33.6,64.5c-2.5,0.8-4.1,0.4-4.2,0.4c-0.1,0-0.2-0.2-0.2-0.3c0-0.1,0.2-0.2,0.3-0.2c0.1,0,4.1,0.9,9-3.2
					c0.1-0.1,0.3-0.1,0.4,0c0.1,0.1,0.1,0.3,0,0.4C36.9,63.1,35.1,64,33.6,64.5z"/>
				<path class="st49" d="M33.6,57.3c-0.1,0-0.3,0-0.3-0.2l-0.9-2.9c0-0.1,0-0.3,0.2-0.3c0.1,0,0.3,0,0.3,0.2l0.9,2.9
					C33.8,57.1,33.7,57.2,33.6,57.3z"/>
				<path class="st49" d="M32,61.4c-0.1,0-0.3,0-0.3-0.2l-0.9-2.8c0-0.1,0-0.3,0.2-0.3c0.1,0,0.3,0,0.3,0.2l0.9,2.8
					C32.2,61.2,32.1,61.4,32,61.4z"/>
				<path class="st49" d="M35.4,63.6c-0.1,0-0.3,0-0.3-0.2l-0.8-2.7c0-0.1,0-0.3,0.2-0.3c0.1,0,0.3,0,0.3,0.2l0.8,2.7
					C35.6,63.4,35.5,63.5,35.4,63.6z"/>
				<path class="st49" d="M28.9,58.6c-0.1,0-0.3,0-0.3-0.2l-0.9-3c0-0.1,0-0.3,0.2-0.3c0.1,0,0.3,0,0.3,0.2l0.9,3
					C29.1,58.4,29,58.5,28.9,58.6z"/>
				<path class="st49" d="M30.4,54.8c-0.1,0-0.3,0-0.3-0.2l-0.9-3c0-0.1,0-0.3,0.2-0.3c0.1,0,0.3,0,0.3,0.2l0.9,3
					C30.6,54.6,30.5,54.7,30.4,54.8z"/>
			</g>
		</g>
		<g>
			<g>
				<path d="M39.8,35.8c1.5-0.2,3.6-0.5,4.9-0.5c0.3,0,0.4,0,0.4,0.7c0,1.2-0.1,3.9-0.1,5.6c-1.9,0-3.8,0.1-5.5,0.2l-0.8,0l0.1,4.6
					l0.8-0.1c2-0.1,5.6-0.3,7.9-0.3h0.8l0.1-1.8c0.1-2.9,0.3-6.9,0.3-9.4c0-3.9-2.5-4.3-3.5-4.3c-2.4,0-4.6,0.3-5.8,0.5l-0.7,0.1
					l0.2,4.6L39.8,35.8z"/>
				<path d="M57.1,39.9h0.8v-4.7h-0.8c-2.3,0-5.5,0.1-7.4,0.3L49,35.7v4.7l0.9-0.1C51.6,40,54.9,39.9,57.1,39.9z"/>
				<path d="M58.3,44l2.1,4l0.8-0.9c1.9-2.3,4.9-5.7,7.1-7.9l0.4-0.4l-1.8-4.1L66,35.5c-2.1,2.1-5.1,5.5-7.4,8.1L58.3,44z"/>
				<path d="M61.4,37.2l0.8,1l1.8-4.3l-0.3-0.4c-1-1.2-2.6-2.6-3.8-3.4l-0.8-0.6l-1.5,4.2l0.5,0.4C59.1,34.9,60.6,36.2,61.4,37.2z"
					/>
				<path d="M70.2,47.7c-0.4,0-0.9,0-1.4,0.1l0.1-0.2l-3.3-1.3l-0.3,0.8c-0.6,1.8-1.6,4.4-2.3,6.6v-1.5h-0.8c-2.3,0-5.5,0.1-7.4,0.3
					L54,52.5v1l-1.6-3.2l-0.7,1.5c-2,4.5-3.5,6.4-4.1,6.8c-0.1-0.2-0.1-0.5-0.1-1.2c0-2.6,0.1-6,0.3-9.3l0-0.8l-3.5-0.3l0,0.8
					c0,0.9-0.1,2-0.1,3.3c-0.1-2.6-1.4-3.9-3.8-3.9c-2.1,0-4.5,0.3-6,0.6L33.7,48l0.3,4.8l0.9-0.1c1.7-0.3,3.9-0.6,5.3-0.6
					c0.2,0,0.4,0,0.4,0c0,0,0,0,0,0c0,1.6-2.1,5.9-4.2,8.6L36,61.2l2.7,3.3l0.6-0.8c1.8-2.4,4.5-7.5,4.9-11.3
					c-0.1,1.8-0.1,3.7-0.1,5.2c0,1.5,0,5.9,3.3,5.9c2,0,4.2-2.5,6.6-7.5v1.2l0.9-0.1c1.8-0.2,5.1-0.3,7.3-0.3H63v-0.5l2.4,1.4
					l0.3-0.9c0.4-1.2,0.9-2.8,1.5-4.3c0.8-0.1,1.7-0.3,2.3-0.3c0.1,0,0.2,0,0.2,0c0,0,0,0.1,0,0.1c0,1.3-2,5.8-4.2,9.1l-0.4,0.6
					l2.9,2.6l0.5-0.8c1.6-2.3,4.8-8.4,4.8-12.2C73.4,49.2,72.2,47.7,70.2,47.7z"/>
			</g>
			<path class="st0" d="M47.6,45.3c-2.3,0-6,0.1-8,0.3l0-3c2.1-0.1,4.2-0.2,6.2-0.2c0-1.5,0.1-4.9,0.1-6.3c0-1.1-0.5-1.5-1.2-1.5
				c-1.4,0-3.7,0.3-5,0.5l-0.1-3c1.6-0.3,3.6-0.5,5.6-0.5c1.8,0,2.7,1.2,2.7,3.5C47.9,37.7,47.7,42.3,47.6,45.3z"/>
			<path class="st0" d="M49.8,39.5v-3.1c2-0.2,5.2-0.3,7.4-0.3v3.1C55,39.1,51.6,39.2,49.8,39.5z"/>
			<path class="st0" d="M62.1,36.7c-0.9-1.1-2.4-2.5-3.5-3.3l1-2.7c1.1,0.8,2.6,2.1,3.6,3.3L62.1,36.7z M60.6,46.5l-1.3-2.4
				c2.1-2.4,5.2-5.9,7.3-8.1l1.1,2.5C65.6,40.7,62.5,44.2,60.6,46.5z"/>
			<path class="st0" d="M38.7,63.3L37,61.2c2.1-2.7,4.3-7.2,4.3-9.1c0-0.6-0.3-0.9-1.2-0.9c-1.5,0-3.9,0.4-5.4,0.6l-0.2-3.2
				c1.4-0.3,3.9-0.6,5.9-0.6c1.8,0,3.1,0.7,3.1,3.5C43.5,55.3,40.4,60.9,38.7,63.3z"/>
			<path class="st0" d="M47.4,62.8c-1.8,0-2.5-1.9-2.5-5.1c0-2.8,0.1-6.9,0.2-9.7l1.9,0.2c-0.2,2.8-0.3,6.5-0.3,9.4
				c0,1.5,0.3,2.1,0.8,2.1c1.1,0,3.1-3.2,4.9-7.3l1.3,2.6C52.3,57.9,49.6,62.8,47.4,62.8z"/>
			<path class="st0" d="M54.8,56.4v-3.1c2-0.2,5.2-0.3,7.4-0.3V56C60,56,56.7,56.1,54.8,56.4z"/>
			<path class="st0" d="M67.9,63.3l-1.7-1.6c1.8-2.7,4.3-7.7,4.3-9.5c0-0.6-0.2-0.9-1-0.9c-0.8,0-2.2,0.2-2.9,0.4
				c-0.6,1.7-1.2,3.4-1.6,4.8l-1.7-1c0.8-2.3,2-6,2.8-8.1l1.9,0.7c-0.1,0.2-0.2,0.4-0.3,0.7c0.7-0.1,1.8-0.2,2.6-0.2
				c1.7,0,2.4,1.3,2.4,3.1C72.6,55.3,69.3,61.2,67.9,63.3z"/>
		</g>
	</g>
	<g>
		<path class="st53" d="M94.5,94.9c0,3.4-6.6,22.8-26.6,22.8c-19.8,0-26.6-19.4-26.6-22.8c0-3.4,11.8-5.8,26.5-5.8
			C82.5,89.1,94.5,91.5,94.5,94.9z"/>
		<g>
			<path class="st54" d="M67.9,100.4c13.6,0,24.9-2.4,26.4-5.4c-1.5-3.1-12.8-5.4-26.4-5.4c-13.6,0-24.9,2.4-26.4,5.4
				C43,98,54.3,100.4,67.9,100.4z"/>
		</g>
		<g>
			<defs>
				<path id="SVGID_42_" d="M67.9,89.5c-13.6,0-24.9,2.4-26.4,5.4c1.5,3.1,12.8,5.4,26.4,5.4c13.6,0,24.9-2.4,26.4-5.4"/>
			</defs>
			<clipPath id="SVGID_39_">
				<use xlink:href="#SVGID_42_"  style="overflow:visible;"/>
			</clipPath>
			<g style="clip-path:url(#SVGID_39_);">
				<path class="st0" d="M93.1,99.1c0,3.1-10.8,5.5-24.2,5.5c-13.3,0-24.2-2.5-24.2-5.5c0-3.1,10.8-5.5,24.2-5.5
					C82.3,93.6,93.1,96.1,93.1,99.1z"/>
				<g>
					<linearGradient id="SVGID_41_" gradientUnits="userSpaceOnUse" x1="78.1929" y1="96.7076" x2="78.8863" y2="92.775">
						<stop  offset="0" style="stop-color:#FDD676"/>
						<stop  offset="1" style="stop-color:#F8B62D"/>
					</linearGradient>
					<path style="fill:url(#SVGID_41_);" d="M74.9,93.9c0.7-0.1,1.4,0.2,2.1-0.1c0.9-0.4,1.2-1.2,2.4-0.9c0.8,0.2,3.1,1.2,2.9,2.2
						c-0.2,0.8-1.2,1.2-1.4,2c-0.1,0.5-3.4-0.8-3.7-0.9C76,95.8,74.8,95.5,74.9,93.9z"/>
					<linearGradient id="SVGID_43_" gradientUnits="userSpaceOnUse" x1="62.5364" y1="94.6454" x2="69.2391" y2="94.6454">
						<stop  offset="0" style="stop-color:#FDD676"/>
						<stop  offset="1" style="stop-color:#F8B62D"/>
					</linearGradient>
					<path style="fill:url(#SVGID_43_);" d="M63.7,93c-0.5,0.4-1.1,1.4-1.1,2c1.6,0.2,5.4,3.1,6.6,0.7c0.5-0.9-0.7-2.4-1.5-2.7
						C66.7,92.6,64.6,92.3,63.7,93z"/>
					<linearGradient id="SVGID_44_" gradientUnits="userSpaceOnUse" x1="82.6866" y1="99.7567" x2="82.6866" y2="95.6408">
						<stop  offset="0" style="stop-color:#FDD676"/>
						<stop  offset="1" style="stop-color:#F8B62D"/>
					</linearGradient>
					<path class="st56" d="M80.5,96c-0.5,0.4-1.1,1.4-1.1,2c1.6,0.2,5.4,3.1,6.6,0.7c0.5-0.9-0.7-2.4-1.5-2.7
						C83.5,95.6,81.3,95.4,80.5,96z"/>
					<linearGradient id="SVGID_45_" gradientUnits="userSpaceOnUse" x1="60.026" y1="96.4823" x2="66.3626" y2="96.4823">
						<stop  offset="0" style="stop-color:#FDD676"/>
						<stop  offset="1" style="stop-color:#F8B62D"/>
					</linearGradient>
					<path class="st57" d="M60.7,94.5c1.5-1.4,3.4,1.6,4.3,0.2c0.7,0.8,1.8,1.7,1.2,2.9c-0.3,0.6-1,1-1.6,1.1
						c-0.6,0.2-1.8,0.2-2.4-0.1c-0.4-0.2-0.7-0.7-1-0.9c-0.4-0.3-0.7-0.3-1-0.8C59.8,96.2,60.1,95.1,60.7,94.5z"/>
					<linearGradient id="SVGID_46_" gradientUnits="userSpaceOnUse" x1="54.8164" y1="95.5583" x2="61.2867" y2="95.5583">
						<stop  offset="0" style="stop-color:#FDD676"/>
						<stop  offset="1" style="stop-color:#F8B62D"/>
					</linearGradient>
					<path class="st58" d="M55.6,93.4c0.9-0.6,3.5,0.8,3.7-0.3c1.1,0.6,2.4,1.8,1.9,2.9c-0.1,0.2-0.4,0.4-0.5,0.6
						c-0.1,0.1,0.1,0.3,0,0.5c-0.1,0.3-0.4,0.6-0.7,0.7C57.8,99,52.9,95.1,55.6,93.4z"/>
					<linearGradient id="SVGID_47_" gradientUnits="userSpaceOnUse" x1="47.214" y1="95.7739" x2="53.8515" y2="95.7739">
						<stop  offset="0" style="stop-color:#FDD676"/>
						<stop  offset="1" style="stop-color:#F8B62D"/>
					</linearGradient>
					<path class="st59" d="M53.8,95.2c0,0.2-0.3,0.7-0.3,1c-0.1,0.4,0,0.8-0.4,1.1c-0.6,0.5-1.9,0.3-2.6,0.4
						C49.8,98,48.9,99,48,98.5c-0.5-0.3-0.9-1.5-0.8-2.1c0.2-0.9,1.3-0.8,1.9-1.4c0.6-0.6,0.8-1.2,1.6-1.6c0.8-0.4,1.3-0.7,2-0.2
						C53.4,93.6,53.9,94.4,53.8,95.2z"/>
					<linearGradient id="SVGID_48_" gradientUnits="userSpaceOnUse" x1="66.4683" y1="96.1729" x2="73.1043" y2="96.1729">
						<stop  offset="0" style="stop-color:#FDD676"/>
						<stop  offset="1" style="stop-color:#F8B62D"/>
					</linearGradient>
					<path class="st60" d="M73.1,95.6c0,0.2-0.3,0.7-0.3,1c-0.1,0.4,0,0.8-0.4,1.1c-0.6,0.5-1.9,0.3-2.6,0.4
						c-0.8,0.1-1.6,1.2-2.5,0.7c-0.5-0.3-0.9-1.5-0.8-2.1c0.2-0.9,1.3-0.8,1.9-1.4c0.6-0.6,0.8-1.2,1.6-1.6c0.8-0.4,1.3-0.7,2-0.2
						C72.6,94,73.2,94.8,73.1,95.6z"/>
					<linearGradient id="SVGID_49_" gradientUnits="userSpaceOnUse" x1="50.6272" y1="100.2479" x2="50.6272" y2="95.9577">
						<stop  offset="0" style="stop-color:#FDD676"/>
						<stop  offset="1" style="stop-color:#F8B62D"/>
					</linearGradient>
					<path class="st61" d="M46.9,97c0.7-0.1,1.4,0.2,2.1-0.1c0.9-0.4,1.2-1.2,2.4-0.9c0.8,0.2,3.1,1.2,2.9,2.2
						c-0.2,0.8-1.2,1.2-1.4,2c-0.1,0.5-3.4-0.8-3.7-0.9C48,99,46.8,98.6,46.9,97z"/>
					<linearGradient id="SVGID_50_" gradientUnits="userSpaceOnUse" x1="52.8127" y1="98.4505" x2="59.2003" y2="98.4505">
						<stop  offset="0" style="stop-color:#FDD676"/>
						<stop  offset="1" style="stop-color:#F8B62D"/>
					</linearGradient>
					<path class="st62" d="M54.3,97.2c0.3,0,0.6,0.1,0.8,0c0.3-0.1,0.6-0.5,0.9-0.7c0.7-0.4,0.9-0.4,1.4,0.1
						c0.4,0.5,1.6,1.8,1.7,2.5c0.4,1.9-2.6,1.6-3.7,1.4c-0.7-0.1-1.9-0.3-2.4-0.9C52.4,98.7,53.2,97.3,54.3,97.2z"/>
					<linearGradient id="SVGID_51_" gradientUnits="userSpaceOnUse" x1="71.7791" y1="95.5579" x2="78.1653" y2="95.5579">
						<stop  offset="0" style="stop-color:#FDD676"/>
						<stop  offset="1" style="stop-color:#F8B62D"/>
					</linearGradient>
					<path class="st63" d="M73.2,94.3c0.3,0,0.6,0.1,0.8,0c0.3-0.1,0.6-0.5,0.9-0.7c0.7-0.4,0.9-0.4,1.4,0.1
						c0.4,0.5,1.6,1.8,1.7,2.5c0.4,1.9-2.6,1.6-3.7,1.4c-0.7-0.1-1.9-0.3-2.4-0.9C71.3,95.8,72.2,94.4,73.2,94.3z"/>
					<linearGradient id="SVGID_52_" gradientUnits="userSpaceOnUse" x1="57.4156" y1="98.3628" x2="63.8348" y2="98.3628">
						<stop  offset="0" style="stop-color:#FDD676"/>
						<stop  offset="1" style="stop-color:#F8B62D"/>
					</linearGradient>
					<path class="st64" d="M61.3,96.3c-0.5,0-1.2-0.1-1.6,0c-0.7,0.2-0.6,0.8-1,1.3c-0.3,0.4-1.5,0.9-1.2,1.6
						c0.2,0.7,1.4,0.6,2.1,0.7c0.8,0.1,1.7,0.5,2.5,0.5c0.6,0,1.1-0.2,1.4-0.6c0.5-0.7,0.6-2,0.2-2.8C63.1,96.4,62.1,96.4,61.3,96.3
						z"/>
					<linearGradient id="SVGID_53_" gradientUnits="userSpaceOnUse" x1="68.1405" y1="97.8011" x2="75.3008" y2="97.8011">
						<stop  offset="0" style="stop-color:#FDD676"/>
						<stop  offset="1" style="stop-color:#F8B62D"/>
					</linearGradient>
					<path class="st65" d="M70.2,96.1c-0.7,0.1-2.4,1.4-2,2.3c0.2,0.3,1.2,0.8,1.6,0.9c0.8,0.3,1.7,0.2,2.5,0.3
						c0.6,0.1,2.2,0.3,2.7-0.1c0.7-0.6-0.2-0.9-0.5-1.4c-0.5-0.8,0-1.7-1.1-2C72.5,95.7,71.1,95.9,70.2,96.1z"/>
					<linearGradient id="SVGID_54_" gradientUnits="userSpaceOnUse" x1="62.7579" y1="99.3282" x2="69.9144" y2="99.3282">
						<stop  offset="0" style="stop-color:#FDD676"/>
						<stop  offset="1" style="stop-color:#F8B62D"/>
					</linearGradient>
					<path class="st66" d="M64.8,97.6c-0.7,0.1-2.4,1.4-2,2.3c0.2,0.3,1.2,0.8,1.6,0.9c0.8,0.3,1.7,0.2,2.5,0.3
						c0.6,0.1,2.2,0.3,2.7-0.1c0.7-0.6-0.2-0.9-0.5-1.4c-0.5-0.8,0-1.7-1.1-2C67.2,97.3,65.7,97.4,64.8,97.6z"/>
					<linearGradient id="SVGID_55_" gradientUnits="userSpaceOnUse" x1="74.3315" y1="99.7097" x2="81.7319" y2="99.7097">
						<stop  offset="0" style="stop-color:#FDD676"/>
						<stop  offset="1" style="stop-color:#F8B62D"/>
					</linearGradient>
					<path class="st67" d="M74.3,98.6c0.7-0.1,1.4,0.2,2.1-0.1c0.9-0.4,1.2-1.2,2.4-0.9c0.8,0.2,3.1,1.2,2.9,2.2
						c-0.2,0.8-1.2,1.2-1.4,2c-0.1,0.5-3.4-0.8-3.7-0.9C75.4,100.6,74.2,100.2,74.3,98.6z"/>
					<linearGradient id="SVGID_56_" gradientUnits="userSpaceOnUse" x1="68.1433" y1="100.3525" x2="75.5422" y2="100.3525">
						<stop  offset="0" style="stop-color:#FDD676"/>
						<stop  offset="1" style="stop-color:#F8B62D"/>
					</linearGradient>
					<path class="st68" d="M68.1,99.3c0.7-0.1,1.4,0.2,2.1-0.1c0.9-0.4,1.2-1.2,2.4-0.9c0.8,0.2,3.1,1.2,2.9,2.2
						c-0.2,0.8-1.2,1.2-1.4,2c-0.1,0.5-3.4-0.8-3.7-0.9C69.2,101.2,68.1,100.9,68.1,99.3z"/>
				</g>
			</g>
		</g>
		<g>
			<path class="st53" d="M119,81.7l0.1,0c0.1-4.2-2.4-4.7-3-4.8C116.3,77.8,117,80,119,81.7z"/>
			<linearGradient id="SVGID_57_" gradientUnits="userSpaceOnUse" x1="102.4626" y1="90.4964" x2="99.7927" y2="85.4751">
				<stop  offset="0" style="stop-color:#898989"/>
				<stop  offset="0.4662" style="stop-color:#FFFFFF"/>
				<stop  offset="1" style="stop-color:#898989"/>
			</linearGradient>
			<path class="st69" d="M116.1,76.8C116.1,76.8,116,76.8,116.1,76.8L86.7,94c0,0-1.6,0.2-2.2,0.3c-0.6,0.1-0.6,1-0.6,1l1.9,3.1
				l1.1-0.2l1.1-1.1L119,81.7C117,80,116.3,77.8,116.1,76.8z"/>
		</g>
		<path class="st72" d="M67.9,89.5c-13.6,0-24.9,2.4-26.4,5.4c1.5,3.1,12.8,5.4,26.4,5.4c13.6,0,24.9-2.4,26.4-5.4"/>
	</g>
</g>
</svg>
