<?xml version="1.0" encoding="utf-8"?>
<!-- Generator: Adobe Illustrator 24.0.1, SVG Export Plug-In . SVG Version: 6.00 Build 0)  -->
<svg version="1.1" id="レイヤー_1" xmlns="http://www.w3.org/2000/svg" xmlns:xlink="http://www.w3.org/1999/xlink" x="0px"
	 y="0px" viewBox="0 0 141.7 141.7" style="enable-background:new 0 0 141.7 141.7;" xml:space="preserve">
<style type="text/css">
	.st0{fill:#FFFFFF;}
	.st1{fill:#9FA0A0;}
	.st2{fill:#CDA774;}
	.st3{fill:#DDB887;}
	.st4{fill:#F3EBDF;}
	.st5{fill:#F8F0E4;}
	.st6{fill:#ECECEC;}
	.st7{fill:url(#SVGID_1_);}
	.st8{fill:url(#SVGID_2_);}
	.st9{fill:#E60012;}
	.st10{fill:#036EB8;}
	.st11{fill:#EA5514;}
	.st12{clip-path:url(#SVGID_4_);}
	.st13{fill:url(#SVGID_5_);}
	.st14{fill:url(#SVGID_6_);}
	.st15{fill:url(#SVGID_7_);}
	.st16{fill:url(#SVGID_8_);}
	.st17{fill:url(#SVGID_9_);}
	.st18{fill:url(#SVGID_10_);}
	.st19{fill:url(#SVGID_11_);}
	.st20{fill:url(#SVGID_12_);}
	.st21{fill:url(#SVGID_13_);}
	.st22{fill:url(#SVGID_14_);}
	.st23{fill:url(#SVGID_15_);}
	.st24{fill:url(#SVGID_16_);}
	.st25{fill:url(#SVGID_17_);}
	.st26{fill:url(#SVGID_18_);}
	.st27{fill:url(#SVGID_19_);}
	.st28{fill:url(#SVGID_20_);}
	.st29{fill:url(#SVGID_21_);}
	.st30{fill:url(#SVGID_22_);}
	.st31{fill:url(#SVGID_23_);}
	.st32{fill:url(#SVGID_24_);}
	.st33{fill:url(#SVGID_25_);}
	.st34{fill:url(#SVGID_26_);}
	.st35{fill:url(#SVGID_27_);}
	.st36{fill:url(#SVGID_28_);}
	.st37{fill:url(#SVGID_29_);}
	.st38{fill:url(#SVGID_30_);}
	.st39{fill:url(#SVGID_31_);}
	.st40{fill:url(#SVGID_32_);}
	.st41{fill:url(#SVGID_33_);}
	.st42{fill:url(#SVGID_34_);}
	.st43{fill:url(#SVGID_35_);}
	.st44{fill:url(#SVGID_36_);}
	.st45{fill:url(#SVGID_37_);}
	.st46{fill:url(#SVGID_38_);}
	.st47{fill:url(#SVGID_39_);}
	.st48{clip-path:url(#SVGID_41_);}
	.st49{fill:#B28247;}
	.st50{fill:#FFF100;}
	.st51{fill:#8FC31F;}
	.st52{fill:none;stroke:#B28247;stroke-width:0.5288;stroke-linecap:round;stroke-linejoin:round;stroke-miterlimit:10;}
	.st53{fill:#EAE5E3;}
	.st54{fill:#BEB1AA;}
	.st55{clip-path:url(#SVGID_43_);}
	.st56{fill:url(#SVGID_44_);}
	.st57{fill:url(#SVGID_45_);}
	.st58{fill:url(#SVGID_46_);}
	.st59{fill:url(#SVGID_47_);}
	.st60{fill:url(#SVGID_48_);}
	.st61{fill:url(#SVGID_49_);}
	.st62{fill:url(#SVGID_50_);}
	.st63{fill:url(#SVGID_51_);}
	.st64{fill:url(#SVGID_52_);}
	.st65{fill:url(#SVGID_53_);}
	.st66{fill:url(#SVGID_54_);}
	.st67{fill:url(#SVGID_55_);}
	.st68{fill:url(#SVGID_56_);}
	.st69{fill:url(#SVGID_57_);}
	.st70{fill:url(#SVGID_58_);}
	.st71{fill:url(#SVGID_59_);}
	.st72{fill:none;}
	.st73{fill:url(#SVGID_60_);}
	.st74{fill:#DCDDDD;}
	.st75{fill:#EACE76;}
	.st76{clip-path:url(#SVGID_62_);}
	.st77{fill:#C9A063;}
	.st78{fill:#00913A;}
	.st79{fill:#3E3A39;}
	.st80{fill:#C6BA9A;}
	.st81{fill:#D6CCB5;}
	.st82{fill:#B5B5B6;}
	.st83{fill:#F0EFEF;}
	.st84{fill:#595857;}
	.st85{fill:#727171;}
	.st86{fill:#CCAC69;}
	.st87{fill:#C9CACA;}
	.st88{fill:#8A8A8A;}
	.st89{opacity:0.75;}
	.st90{fill:#B81C25;}
	.st91{fill:#DE551A;}
	.st92{fill:#E99413;}
	.st93{fill:#F7F9F9;}
	.st94{fill:#F7F9F9;stroke:#727171;stroke-width:0.2229;stroke-miterlimit:10;}
	.st95{fill:#C39717;}
	.st96{fill:#CC172C;}
	.st97{fill:#E83514;}
	.st98{fill:url(#SVGID_63_);}
	.st99{fill:url(#SVGID_64_);}
	.st100{fill:url(#SVGID_65_);}
	.st101{fill:url(#SVGID_66_);}
	.st102{fill:url(#SVGID_67_);}
	.st103{fill:url(#SVGID_68_);}
	.st104{fill:#E6E6E6;}
	.st105{fill:#D1EAF6;}
	.st106{fill:#359DD1;}
	.st107{fill:#44AFDB;}
	.st108{fill:url(#SVGID_69_);}
	.st109{fill:none;stroke:#221714;stroke-width:0.1546;}
	.st110{fill:url(#SVGID_70_);}
	.st111{fill:url(#SVGID_71_);}
	.st112{fill:url(#SVGID_72_);}
	.st113{fill:url(#SVGID_73_);}
	.st114{fill:url(#SVGID_74_);}
	.st115{fill:url(#SVGID_75_);}
	.st116{fill:url(#SVGID_76_);}
	.st117{fill:url(#SVGID_77_);}
	.st118{fill:url(#SVGID_78_);}
	.st119{fill:url(#SVGID_79_);}
	.st120{fill:url(#SVGID_80_);}
	.st121{fill:url(#SVGID_81_);}
	.st122{fill:url(#SVGID_82_);}
	.st123{fill:url(#SVGID_83_);}
	.st124{fill:url(#SVGID_84_);}
	.st125{fill:url(#SVGID_85_);}
	.st126{fill:url(#SVGID_86_);}
	.st127{fill:url(#SVGID_87_);}
	.st128{fill:url(#SVGID_88_);}
	.st129{fill:url(#SVGID_89_);}
	.st130{fill:url(#SVGID_90_);}
	.st131{fill:url(#SVGID_91_);}
	.st132{fill:url(#SVGID_92_);}
	.st133{fill:url(#SVGID_93_);}
	.st134{fill:url(#SVGID_94_);}
	.st135{fill:url(#SVGID_95_);}
	.st136{fill:url(#SVGID_96_);}
	.st137{fill:url(#SVGID_97_);}
	.st138{fill:url(#SVGID_98_);}
	.st139{fill:url(#SVGID_99_);}
	.st140{fill:url(#SVGID_100_);}
	.st141{fill:url(#SVGID_101_);}
	.st142{fill:url(#SVGID_102_);}
	.st143{fill:url(#SVGID_103_);}
	.st144{fill:url(#SVGID_104_);}
	.st145{fill:url(#SVGID_105_);}
	.st146{fill:url(#SVGID_106_);}
	.st147{fill:url(#SVGID_107_);}
	.st148{fill:url(#SVGID_108_);}
	.st149{fill:url(#SVGID_109_);}
	.st150{fill:url(#SVGID_110_);}
	.st151{fill:url(#SVGID_111_);}
	.st152{fill:url(#SVGID_112_);}
	.st153{fill:url(#SVGID_113_);}
	.st154{fill:url(#SVGID_114_);}
	.st155{fill:url(#SVGID_115_);}
	.st156{fill:url(#SVGID_116_);}
	.st157{fill:url(#SVGID_117_);}
	.st158{fill:url(#SVGID_118_);}
	.st159{fill:url(#SVGID_119_);}
	.st160{stroke:#000000;stroke-width:2.4516;stroke-linecap:round;stroke-linejoin:round;stroke-miterlimit:10;}
	.st161{fill:url(#SVGID_120_);stroke:#000000;stroke-width:0.8172;stroke-linecap:round;stroke-linejoin:round;}
	.st162{fill:url(#SVGID_121_);stroke:#000000;stroke-width:0.8172;stroke-linecap:round;stroke-linejoin:round;}
	.st163{fill:url(#SVGID_122_);stroke:#000000;stroke-width:0.8172;stroke-linecap:round;stroke-linejoin:round;}
	.st164{opacity:0.4;fill:#FFFFFF;}
	.st165{fill:#FFFEEE;}
	.st166{fill:none;stroke:#F7EFB8;stroke-width:0.4086;}
	.st167{fill:none;stroke:#F7EFB8;stroke-width:0.2043;stroke-miterlimit:10;}
	.st168{fill-rule:evenodd;clip-rule:evenodd;fill:none;stroke:#000000;stroke-width:0.1961;stroke-miterlimit:10;}
	.st169{fill:none;stroke:#000000;stroke-width:0.8172;stroke-linecap:round;stroke-linejoin:round;}
	.st170{fill-rule:evenodd;clip-rule:evenodd;}
	.st171{fill-rule:evenodd;clip-rule:evenodd;fill:none;stroke:#000000;stroke-width:0.4086;stroke-miterlimit:10;}
	.st172{fill-rule:evenodd;clip-rule:evenodd;fill:url(#SVGID_123_);}
	.st173{opacity:0.9;fill:#E60012;}
	.st174{fill:#DCDBDA;}
	.st175{opacity:0.9;fill:#FFFFFF;}
	.st176{opacity:0.3;fill:#FFFFFF;}
	.st177{fill:#7E7977;}
	.st178{fill:#EEEAD0;}
	.st179{fill:#DDD9C2;}
	.st180{fill:#D3A243;}
	.st181{fill:none;stroke:#E5E3DA;stroke-width:0.4086;stroke-linecap:round;stroke-linejoin:round;}
	.st182{fill:#C11920;}
	.st183{fill:url(#SVGID_124_);}
	.st184{fill:url(#SVGID_125_);}
	.st185{fill:#5D8AA2;}
	.st186{fill:#267EAF;}
	.st187{fill:none;stroke:#D9B556;stroke-width:0.6958;stroke-miterlimit:10;}
	.st188{fill:#D9B556;}
	.st189{fill:#0E2F8F;}
	.st190{fill:url(#SVGID_126_);}
	.st191{fill:url(#SVGID_127_);}
	.st192{fill:url(#SVGID_128_);}
	.st193{fill:#755F43;}
	.st194{fill:#CD6829;}
	.st195{fill:#E08030;}
	.st196{fill:#F7F8F8;}
	.st197{fill:#E60012;stroke:#000000;stroke-width:0.1945;stroke-miterlimit:10;}
	.st198{fill:none;stroke:#000000;stroke-width:0.1945;stroke-miterlimit:10;}
	.st199{fill:#FFF100;stroke:#000000;stroke-width:0.1945;stroke-miterlimit:10;}
	.st200{fill:#FFFFFF;stroke:#000000;stroke-width:0.1264;stroke-miterlimit:10;}
	.st201{fill:none;stroke:#9FA0A0;stroke-width:0.1853;stroke-linecap:round;stroke-linejoin:round;stroke-miterlimit:10;}
	.st202{fill:#722F1C;}
	.st203{fill:#E9C07F;}
	.st204{fill:#F2D39D;}
	.st205{fill:#D0542E;}
	.st206{fill:#DC643A;}
	.st207{fill:#6A3906;}
	.st208{fill:#674425;}
	.st209{fill:none;stroke:#E60012;stroke-width:0.1398;stroke-miterlimit:10;}
	.st210{fill:none;stroke:#E60012;stroke-width:0.1398;stroke-miterlimit:10;stroke-dasharray:0.7067,0.7067;}
	.st211{fill:none;stroke:#000000;stroke-width:0.1398;stroke-miterlimit:10;}
	.st212{fill:none;stroke:#000000;stroke-miterlimit:10;}
	.st213{fill:#C9A063;stroke:#000000;stroke-width:1.3629;stroke-miterlimit:10;}
	.st214{fill:#008ABD;}
	.st215{fill:#5CB9D3;}
	.st216{fill:#BFC0C0;}
	.st217{fill:#FBF8EA;}
	.st218{fill:none;stroke:#000000;stroke-width:0.6064;}
	.st219{fill:#B5B5B6;stroke:#000000;stroke-width:1.1444;stroke-miterlimit:10;}
	.st220{fill:#EA5514;stroke:#000000;stroke-width:1.1444;stroke-miterlimit:10;}
	.st221{fill:#C9A063;stroke:#000000;stroke-width:1.1444;stroke-miterlimit:10;}
	.st222{fill:none;stroke:#000000;stroke-width:1.1444;stroke-miterlimit:10;}
	.st223{fill:#DDB735;stroke:#000000;stroke-width:1.1444;stroke-miterlimit:10;}
	.st224{fill:none;stroke:#FFFFFF;stroke-width:2.546;stroke-miterlimit:10;}
	.st225{fill:#40220F;stroke:#000000;stroke-width:1.1444;stroke-miterlimit:10;}
</style>
<g>
	<g>
		<path class="st79" d="M25.9,95.4c0,0-0.8,0.5-3.1,0.1c-1.7-0.2-2.5-0.9-2.5-0.9l0.5-3.6l5.6,0.8L25.9,95.4z"/>
		<path class="st79" d="M103.9,109.8c0,0-0.8,0.5-3.1,0.1c-1.7-0.2-2.5-0.9-2.5-0.9l0.5-3.6l5.6,0.8L103.9,109.8z"/>
	</g>
	<g>
		<path class="st80" d="M110.8,109c-3.5,0.6-94.5-15.6-96.5-18c-2-2.4-2.4-12.8-2.4-12.8l102.2,12.7
			C114.2,90.9,114.3,108.4,110.8,109z"/>
		<path class="st81" d="M110.8,109c3.5-0.6,3.3-18.1,3.3-18.1L85,87.3l-2.4,17.5C97.7,107.4,109.6,109.2,110.8,109z"/>
	</g>
	<path class="st82" d="M112.4,107.7c0,0,1.5-3.7,0.6-9.8c-1-6.1-3.5-7-3.5-7l-23.9,0.4L62,90.9l-45.7-7.3l-3.6-2.9l-0.6-3.7
		c0,0,16.7-40.2,21.3-42.7c4.6-2.5,69.5,7.7,69.5,7.7l23.1-1c0,0,3.5,3.9,3.7,8c0.2,4.1,0,7.1,0,7.1L112.4,107.7z"/>
	<path class="st83" d="M129.7,55.9c0,0,0.2-3,0-7.1c-0.2-3.3-2.5-6.5-3.3-7.6c0,0.1,0,0.2,0,0.2L109.8,91c0.7,0.4,2.4,2,3.2,6.9
		c0.7,4.5,0.1,7.7-0.3,9.1L129.7,55.9z"/>
	<g>
		<g>
			<path class="st83" d="M125.5,52.6c-0.5-0.6-0.8-1.1-0.9-1c0,0-0.1,0.5-0.3,1c-0.2,0.5,0.1,1.4,0.6,2l2,4.2c0.3,0.7,0.7,1,0.8,0.6
				c0.1-0.4,0-1.2-0.3-2L125.5,52.6z"/>
		</g>
		<g>
			<path class="st83" d="M124.3,56.2c-0.5-0.6-0.8-1.1-0.9-1c0,0-0.1,0.5-0.3,1c-0.2,0.5,0.1,1.4,0.6,2l2,4.2c0.3,0.7,0.7,1,0.8,0.6
				c0.1-0.4,0-1.2-0.3-2L124.3,56.2z"/>
		</g>
		<g>
			<path class="st83" d="M123.1,59.9c-0.5-0.6-0.8-1.1-0.9-1c0,0-0.1,0.5-0.3,1c-0.2,0.5,0.1,1.4,0.6,2l2,4.2c0.3,0.7,0.7,1,0.8,0.6
				c0.1-0.4,0-1.2-0.3-2L123.1,59.9z"/>
		</g>
		<g>
			<path class="st83" d="M121.9,63.5c-0.5-0.6-0.8-1.1-0.9-1c0,0-0.1,0.5-0.3,1c-0.2,0.5,0.1,1.4,0.6,2l2,4.2c0.3,0.7,0.7,1,0.8,0.6
				c0.1-0.4,0-1.2-0.3-2L121.9,63.5z"/>
		</g>
		<g>
			<path class="st83" d="M120.6,67.1c-0.5-0.6-0.8-1.1-0.9-1c0,0.1-0.1,0.5-0.3,1c-0.2,0.5,0.1,1.4,0.6,2l2,4.2
				c0.3,0.7,0.7,1,0.8,0.6c0.1-0.4,0-1.2-0.3-2L120.6,67.1z"/>
		</g>
		<g>
			<path class="st83" d="M119.4,70.7c-0.5-0.6-0.8-1.1-0.9-1c0,0-0.1,0.5-0.3,1c-0.2,0.5,0.1,1.4,0.6,2l2,4.2c0.3,0.7,0.7,1,0.8,0.6
				c0.1-0.4,0-1.2-0.3-2L119.4,70.7z"/>
		</g>
		<g>
			<path class="st83" d="M118.2,74.3c-0.5-0.6-0.8-1.1-0.9-1c0,0-0.1,0.5-0.3,1c-0.2,0.5,0.1,1.4,0.6,2l2,4.2c0.3,0.7,0.7,1,0.8,0.6
				c0.1-0.4,0-1.2-0.3-2L118.2,74.3z"/>
		</g>
		<g>
			<path class="st83" d="M117,77.9c-0.5-0.6-0.8-1.1-0.9-1c0,0-0.1,0.5-0.3,1c-0.2,0.5,0.1,1.4,0.6,2l2,4.2c0.3,0.7,0.7,1,0.8,0.6
				c0.1-0.4,0-1.2-0.3-2L117,77.9z"/>
		</g>
		<g>
			<path class="st83" d="M115.8,81.5c-0.5-0.6-0.8-1.1-0.9-1c0,0-0.1,0.5-0.3,1c-0.2,0.5,0.1,1.4,0.6,2l2,4.2c0.3,0.7,0.7,1,0.8,0.6
				c0.1-0.4,0-1.2-0.3-2L115.8,81.5z"/>
		</g>
	</g>
	<path class="st84" d="M86.1,85.6c-0.7,1.5-2.5,2.6-4,2.4c-21.6-2.2-43.1-5.2-64.4-8.8c-1.5-0.3-2.4-1.6-1.8-3
		c5-12.7,11.9-25.6,19.3-38.6c0.8-1.4,2.7-2.4,4.3-2.3c19.7,2.1,39.4,4.8,58.9,8.1c1.5,0.3,2.5,1.7,2.1,3.2
		C97.1,59.6,92,72.5,86.1,85.6z"/>
	<path class="st85" d="M86,62.5c-1,9.2-13.6,15.4-28.1,13.8c-14.5-1.6-25.4-10.4-24.4-19.6c1-9.2,13.6-15.4,28.1-13.8
		C76.1,44.5,87,53.3,86,62.5z"/>
	<path class="st74" d="M62.8,47.5c12.4,1.4,22.1,8.4,22.9,16.2c0.1-0.4,0.2-0.8,0.2-1.2c1-9.2-9.9-18-24.4-19.6
		c-14.5-1.6-27,4.6-28.1,13.8c-0.4,4.1,1.4,8,4.8,11.3c-1.5-2.4-2.2-4.9-1.9-7.5C37.4,51.8,49.2,46,62.8,47.5z"/>
	<path class="st74" d="M72.9,61.8c-0.6,5.4-7,9.2-14.4,8.4c-7.3-0.8-12.8-5.9-12.2-11.3c0.6-5.4,7-9.2,14.4-8.4
		C68.1,51.2,73.5,56.3,72.9,61.8z"/>
	<path class="st85" d="M71.2,60.8c-0.5,4.1-6.1,6.3-12.5,5.6c-6.4-0.7-11.2-4.1-10.8-8.2c0.5-4.1,6-6.9,12.5-6.2
		C66.9,52.8,71.7,56.7,71.2,60.8z"/>
	<path class="st86" d="M72.1,58.1c-0.5,4.3-6.3,7.1-13,6.4c-6.7-0.7-11.8-4.8-11.3-9.1c0.5-4.3,6.3-7.1,13-6.4
		C67.5,49.8,72.6,53.8,72.1,58.1z"/>
	<path class="st74" d="M62.4,52.4c3.1,0.3,5.7,1.5,7.4,3.1c-1.2-2.6-4.8-4.7-9.1-5.2c-5.7-0.6-10.6,1.8-11,5.4
		c-0.2,1.7,0.6,3.3,2.1,4.6c-0.4-0.8-0.6-1.7-0.5-2.5C51.8,54.2,56.8,51.7,62.4,52.4z"/>
	<polygon class="st87" points="108.3,47.6 95.6,81.6 104.3,82.2 116.6,46.9 	"/>
	<polygon class="st74" points="116.3,47.7 116.5,47.1 108.3,47.8 95.6,81.8 96.6,81.8 109.1,48.4 	"/>
	<g>
		<g>
			<polygon class="st1" points="66.8,63.2 67.8,64.8 72.7,71.7 73.3,76.3 78.7,81.6 81.9,80.3 79.6,73.2 68.2,62.5 			"/>
			<polygon class="st83" points="79.7,73.3 78.3,73.7 66.9,63.2 68.2,62.5 			"/>
			<polygon class="st74" points="81.9,80.3 78.7,81.6 78.2,73.7 79.7,73.3 			"/>
		</g>
		<g>
			<polygon class="st88" points="43.1,57.5 42.9,58.3 33.3,64.8 33.1,68.7 24.7,72.2 21.7,69.4 25.2,62.8 42.3,56.8 			"/>
			<polygon class="st83" points="25.1,62.8 26,64 43.1,57.5 42.3,56.8 			"/>
			<polygon class="st74" points="21.7,69.4 24.7,72.2 26,64 25.1,62.8 			"/>
		</g>
		<g>
			<g>
				<polygon class="st85" points="84.3,49.3 83.2,48.7 82.3,46 83.9,46.3 				"/>
				<polygon class="st83" points="89.7,38.7 70.8,47.8 72.3,48 91.6,40 				"/>
				<polygon class="st88" points="91.6,40 94.1,46.8 84.3,49.3 82.8,46.3 71.8,49 72,48 				"/>
			</g>
			
				<rect x="70.8" y="47.8" transform="matrix(0.1364 -0.9907 0.9907 0.1364 13.6173 112.4904)" class="st87" width="1.1" height="1.2"/>
		</g>
		<g>
			<polygon class="st82" points="39.8,31.7 50.3,43 50.1,44.2 44.6,40.5 43.2,40.9 42.7,43.8 37.4,37.2 			"/>
			<polyline class="st83" points="39.8,31.7 50.3,43 51.5,43.2 41.3,31.9 40.3,31.7 			"/>
			
				<rect x="50.2" y="43.1" transform="matrix(0.1363 -0.9907 0.9907 0.1363 0.5873 88.0834)" class="st87" width="1.2" height="1.2"/>
		</g>
	</g>
	<g class="st89">
		<path class="st90" d="M91.8,105.7l-0.1-0.1l-0.1-0.2c-0.1-0.1-0.1-0.2-0.2-0.3l1.4-1.2c0.1,0.1,0.1,0.2,0.2,0.2l0.1,0.1l0.1,0.1
			L91.8,105.7z"/>
		<path class="st90" d="M91,104.4l-0.1-0.2l-0.1-0.2c-0.1-0.1-0.1-0.2-0.2-0.4l1.4-0.8c0,0.1,0.1,0.2,0.1,0.3l0.1,0.1l0.1,0.1
			L91,104.4z"/>
		<path class="st90" d="M90.4,102.9l0-0.2l-0.1-0.2c0-0.1-0.1-0.3-0.1-0.4l1.4-0.5c0,0.1,0.1,0.2,0.1,0.3l0.1,0.1l0.1,0.2
			L90.4,102.9z"/>
		<path class="st91" d="M90.1,101.3l0-0.2l0-0.2c0-0.1,0-0.3,0-0.4l1.3-0.1c0,0.1,0,0.2,0,0.3l0,0.2l0,0.2L90.1,101.3z"/>
		<path class="st91" d="M90.1,99.7l0-0.2l0-0.2c0-0.1,0-0.3,0.1-0.4l1.2,0.1c0,0.1,0,0.2,0,0.3l0,0.2l0,0.2L90.1,99.7z"/>
		<path class="st91" d="M90.3,98.2l0-0.2l0.1-0.2c0-0.1,0.1-0.3,0.1-0.4l1,0.3c0,0.1,0,0.2-0.1,0.3l0,0.2l0,0.2L90.3,98.2z"/>
		<path class="st91" d="M90.8,96.7l0.1-0.2l0.1-0.2c0.1-0.1,0.1-0.2,0.2-0.3l0.8,0.5c0,0.1-0.1,0.2-0.1,0.3l-0.1,0.2l-0.1,0.2
			L90.8,96.7z"/>
		<path class="st92" d="M91.6,95.4l0.1-0.1l0.1-0.2c0.1-0.1,0.2-0.2,0.2-0.3l0.6,0.5c-0.1,0.1-0.1,0.2-0.2,0.3l-0.1,0.1l-0.1,0.2
			L91.6,95.4z"/>
		<path class="st92" d="M92.5,94.2l0.1-0.1l0.1-0.1c0.1-0.1,0.2-0.2,0.3-0.2l0.4,0.6c-0.1,0.1-0.2,0.2-0.2,0.2l-0.1,0.1L93,94.8
			L92.5,94.2z"/>
		<path class="st92" d="M93.6,93.3l0.1-0.1l0.2-0.1c0.1-0.1,0.2-0.1,0.3-0.2l0.2,0.5c-0.1,0.1-0.2,0.1-0.3,0.2l-0.1,0.1l-0.1,0.1
			L93.6,93.3z"/>
	</g>
	<g>
		<path class="st79" d="M106.5,100.6c-0.6,4-4.1,6.8-7.8,6.3c-3.8-0.5-6.4-4.2-5.8-8.2c0.6-4,4.1-6.8,7.8-6.3
			C104.5,93,107.1,96.6,106.5,100.6z"/>
		<path class="st84" d="M106,100.3c-0.5,3.9-3.9,6.6-7.6,6.1c-3.7-0.5-6.2-4.1-5.7-8c0.5-3.9,3.9-6.6,7.6-6.1
			C103.9,92.8,106.5,96.4,106,100.3z"/>
		<polygon class="st79" points="98.8,106 96.2,106.6 95.7,97.3 98,93.9 		"/>
		<path class="st79" d="M100.2,104.7c-0.1,0.9-0.9,1.5-1.8,1.4l-0.7-0.1c-0.9-0.1-1.5-0.9-1.4-1.8l1.3-9.5c0.1-0.9,0.9-1.5,1.8-1.4
			l0.7,0.1c0.9,0.1,1.5,0.9,1.4,1.8L100.2,104.7z"/>
		<path class="st79" d="M97.6,105.5c-0.1,0.9-0.9,1.2-1.8,1.1l0,0c-0.9-0.1-1.2-0.9-1.1-1.8l0.9-7.2c0.1-0.9,0.8-1.4,1.6-1.2l0,0
			c0.9,0.1,1.5,0.9,1.4,1.8L97.6,105.5z"/>
		<path class="st84" d="M97.1,96.6c-0.8-0.1-1.4,0.4-1.5,1.3l-0.6,4.6l3.2-4.2C98.4,97.4,97.9,96.7,97.1,96.6z"/>
		<path class="st93" d="M101,95.1c0.2-0.2,0.4-0.3,0.6-0.3c-0.1-0.7-0.6-1.3-1.4-1.4l-0.7-0.1c-0.6-0.1-1.2,0.2-1.5,0.7l0,0l-2,2.8
			c0.3-0.3,0.8-0.4,1.2-0.3c0.1,0,0.2,0,0.3,0.1c0.3,0.1,0.5,0.3,0.7,0.5c0.1,0.1,0.2,0.2,0.2,0.3L101,95.1L101,95.1z"/>
	</g>
</g>
</svg>
