<?xml version="1.0" encoding="utf-8"?>
<!-- Generator: Adobe Illustrator 24.0.1, SVG Export Plug-In . SVG Version: 6.00 Build 0)  -->
<svg version="1.1" xmlns="http://www.w3.org/2000/svg" xmlns:xlink="http://www.w3.org/1999/xlink" x="0px" y="0px"
	 viewBox="0 0 522.3 208.8" style="enable-background:new 0 0 522.3 208.8;" xml:space="preserve">
<style type="text/css">
	.st0{fill:url(#SVGID_1_);}
	.st1{opacity:0.28;clip-path:url(#SVGID_3_);}
	.st2{fill:#FFFFFF;}
	.st3{fill:url(#SVGID_4_);}
	.st4{opacity:0.28;clip-path:url(#SVGID_6_);}
	.st5{fill:url(#SVGID_7_);}
	.st6{opacity:0.28;clip-path:url(#SVGID_9_);}
	.st7{fill:url(#SVGID_10_);}
	.st8{opacity:0.28;clip-path:url(#SVGID_12_);}
	.st9{fill:#040000;}
	.st10{fill:none;stroke:#040000;stroke-width:2.3936;stroke-miterlimit:10;}
	.st11{fill:#FDE2D6;}
	.st12{fill:#FFE5B0;}
	.st13{fill:#FF9DA6;}
	.st14{fill:#FF6F63;}
	.st15{fill:url(#SVGID_13_);}
	.st16{fill:url(#SVGID_14_);}
	.st17{fill:url(#SVGID_15_);}
	.st18{fill:url(#SVGID_16_);}
	.st19{fill:url(#SVGID_17_);}
	.st20{fill:url(#SVGID_18_);}
	.st21{fill:#FFEFDD;}
	.st22{fill:#000018;}
	.st23{fill:#0E0B01;}
	.st24{fill:#747474;}
	.st25{fill:#133C36;}
	.st26{enable-background:new    ;}
	.st27{fill:#FFE501;}
	.st28{fill:#E60000;}
	.st29{fill:#1E1D1D;}
	.st30{clip-path:url(#SVGID_20_);}
	.st31{fill:#450000;}
	.st32{fill:#FF4143;}
	.st33{fill:#A38A77;}
	.st34{clip-path:url(#SVGID_22_);}
	.st35{fill:none;stroke:#FFFFFF;stroke-width:2;stroke-miterlimit:10;}
	.st36{stroke:#FFFFFF;stroke-width:1.0406;stroke-miterlimit:10;}
	.st37{fill:#231815;}
	.st38{fill:#FF908D;}
	.st39{fill:#FF9FAA;}
</style>
<g id="レイヤー_2">
	
		<linearGradient id="SVGID_1_" gradientUnits="userSpaceOnUse" x1="261.15" y1="-2340.1863" x2="261.15" y2="-2131.3862" gradientTransform="matrix(1 0 0 -1 0 -2131.3862)">
		<stop  offset="0" style="stop-color:#FFEC00"/>
		<stop  offset="0.9879" style="stop-color:#FFCE52"/>
	</linearGradient>
	<rect y="0" class="st0" width="522.3" height="208.8"/>
	<g>
		<g>
			<g>
				<g>
					<defs>
						<rect id="SVGID_5_" y="0" width="522.3" height="208.8"/>
					</defs>
					<clipPath id="SVGID_3_">
						<use xlink:href="#SVGID_5_"  style="overflow:visible;"/>
					</clipPath>
					<g class="st1">
						<polygon class="st2" points="-25.3,165.6 -58.1,165.6 -5.9,43.2 27,43.2 						"/>
						<polygon class="st2" points="29.2,165.6 -3.6,165.6 48.6,43.2 81.4,43.2 						"/>
						<polygon class="st2" points="83.7,165.6 50.9,165.6 103.1,43.2 135.9,43.2 						"/>
						<polygon class="st2" points="138.2,165.6 105.3,165.6 157.6,43.2 190.4,43.2 						"/>
						<polygon class="st2" points="192.7,165.6 159.8,165.6 212.1,43.2 244.9,43.2 						"/>
						<polygon class="st2" points="247.2,165.6 214.3,165.6 266.6,43.2 299.4,43.2 						"/>
						<polygon class="st2" points="301.7,165.6 268.8,165.6 321,43.2 353.9,43.2 						"/>
						<polygon class="st2" points="356.2,165.6 323.3,165.6 375.5,43.2 408.4,43.2 						"/>
						<polygon class="st2" points="410.7,165.6 377.8,165.6 430,43.2 462.9,43.2 						"/>
						<polygon class="st2" points="465.2,165.6 432.3,165.6 484.5,43.2 517.4,43.2 						"/>
						<polygon class="st2" points="519.6,165.6 486.8,165.6 539,43.2 571.9,43.2 						"/>
					</g>
				</g>
			</g>
		</g>
	</g>
</g>
<g id="レイヤー_1">
	<g>
		<path class="st9" d="M455.5-0.7L445.8,9h10.6l16.2-16h-10.7l-6.3,6.2L455.5-0.7L455.5-0.7z M506.3-0.7L496.5,9H507l16.2-16h-10.7
			l-6.3,6.2L506.3-0.7L506.3-0.7z M487.3-7L471,9h10.7L498-7H487.3z M436.5-7L420.3,9H431l16.2-16H436.5z M151.2-0.7L141.4,9H152
			l16.2-16h-10.7l-6.3,6.2V-0.7z M132.2-7L116,9h10.7l16.2-16H132.2z M201.9-0.7L192.1,9h10.6l16.2-16h-10.7l-6.3,6.2L201.9-0.7
			L201.9-0.7z M182.9-7L166.7,9h10.7l16.2-16H182.9z M100.5-0.7L90.6,9h10.6l16.2-16h-10.7l-6.3,6.2v0.1
			C100.4-0.7,100.5-0.7,100.5-0.7z M49.7-0.7L39.9,9h10.6L66.7-7H56l-6.3,6.2V-0.7z M81.5-7L65.2,9h10.7L92.2-7H81.5z M335.1-7
			L318.9,9h10.7l16.2-16H335.1z M354.1-0.7L344.4,9H355l16.2-16h-10.7l-6.3,6.2L354.1-0.7L354.1-0.7z M404.8-0.7L395,9h10.6l16.2-16
			h-10.7l-6.3,6.2L404.8-0.7L404.8-0.7z M385.8-7L369.6,9h10.7l16.2-16H385.8z M233.6-7L217.4,9h10.7l16.2-16H233.6z M252.6-0.7
			L242.8,9h10.6l16.2-16h-10.7l-6.3,6.2L252.6-0.7L252.6-0.7z M303.4-0.7L293.6,9h10.6l16.2-16h-10.7l-6.3,6.2L303.4-0.7L303.4-0.7z
			 M284.4-7L268.2,9h10.7l16.2-16H284.4z M-1-0.8V9h0.8L16-7H5.3L-1-0.8z M30.7-7L14.5,9h10.7L41.4-7H30.7z"/>
	</g>
	<g>
		<path class="st25" d="M99.3,104H53.4c-3.5,0-6.6-1.8-8.3-4.8c-1.7-3-1.7-6.6,0-9.6l23-39.8c1.7-3,4.9-4.8,8.3-4.8s6.6,1.8,8.3,4.8
			l23,39.8c1.7,3,1.7,6.6,0,9.6C106,102.3,102.8,104,99.3,104z"/>
		<g>
			<g>
				<g class="st26">
					<path d="M129.5,48.4c0.2,0.9,0.7,1.3,1.9,1.3c1.1,0,1.7-0.4,1.7-1.1c0-0.2-0.1-0.6-0.4-0.7c-0.2-0.2-0.4-0.2-1.5-0.5
						c-1.2-0.2-1.5-0.4-2.1-0.6c-0.8-0.4-1.2-1.1-1.2-1.9c0-0.5,0.2-0.9,0.5-1.3c0.6-0.7,1.5-1.2,2.8-1.2c1.2,0,2.1,0.2,2.6,0.8
						c0.4,0.4,0.6,0.7,0.7,1.4l-1.9,0.2c-0.2-0.7-0.7-1.2-1.5-1.2c-0.8,0-1.5,0.4-1.5,0.9c0,0.2,0.2,0.5,0.5,0.7
						c0.2,0.2,0.6,0.2,1.4,0.4c1.4,0.2,2,0.5,2.5,0.8c0.6,0.4,0.8,0.9,0.8,1.8c0,0.6-0.2,1.2-0.7,1.6c-0.7,0.6-1.6,0.9-2.9,0.9
						c-1.4,0-2.6-0.5-3.1-1.2c-0.2-0.4-0.4-0.7-0.6-1.2L129.5,48.4z"/>
					<path d="M141.7,50.1c-0.6,0.6-0.9,0.7-1.5,0.8c-0.4,0.1-0.8,0.2-1.3,0.2c-1.7,0-2.7-0.8-2.7-2.4c0-0.9,0.7-1.9,1.6-2.2
						c0.9-0.3,2-0.6,4-0.6v-0.7c0-0.8-0.6-1.2-1.6-1.2c-0.6,0-1.2,0.2-1.5,0.4c-0.2,0.2-0.4,0.4-0.6,0.9l-1.8-0.2
						c0.2-0.8,0.6-1.2,1.2-1.6c0.7-0.5,1.5-0.7,2.7-0.7c1.3,0,2.1,0.2,2.8,0.8c0.5,0.5,0.7,0.9,0.7,2v3.8c0,0.7,0,1.2,0.1,1.8h-1.9
						L141.7,50.1L141.7,50.1z M141.7,47c-2.7,0.1-3.8,0.6-3.8,1.6c0,0.7,0.5,1.1,1.3,1.1c0.7,0,1.5-0.2,2-0.7
						c0.4-0.4,0.5-0.7,0.5-1.2V47z"/>
					<path d="M147.3,39.7c-0.1,0.6-0.1,1.1-0.1,1.9v4.6l2.1-2.1c0.7-0.7,0.8-0.9,1.2-1.2h2.6c-0.8,0.7-0.8,0.7-1.4,1.3l-2,1.9
						l2.4,3.3c0.9,1.3,0.9,1.3,1.3,1.6h-2.6c-0.2-0.5-0.4-0.7-0.9-1.6l-1.5-2.2l-1.2,1.2v0.9c0,0.9,0,1.2,0.1,1.8h-2.1
						c0.1-0.6,0.1-1.1,0.1-1.8v-7.5c0-0.8,0-1.3-0.1-1.9L147.3,39.7L147.3,39.7z"/>
					<path d="M162.1,42.8c-0.1,0.6-0.1,1.1-0.1,1.8V49c0,0.7,0,1.2,0.1,1.8h-1.9v-0.7c0-0.2,0-0.2,0-0.6c-0.7,1.2-1.5,1.5-2.9,1.5
						c-0.7,0-1.2-0.1-1.7-0.4c-0.7-0.5-1.2-1.3-1.2-2.5v-3.5c0-0.7,0-1.3-0.1-1.8h2.1c-0.1,0.7-0.1,1.2-0.1,1.8v3.1
						c0,0.8,0.2,1.3,0.7,1.6c0.2,0.1,0.5,0.2,0.7,0.2c1.1,0,1.8-0.7,2.5-2.1v-2.8c0-0.7,0-1.2-0.1-1.8
						C160.2,42.8,162.1,42.8,162.1,42.8z"/>
					<path d="M165.8,47.5c0.1,0.7,0.1,0.9,0.4,1.2c0.4,0.6,1.2,0.8,2.1,0.8c1.4,0,2.2-0.7,2.2-1.7c0-0.6-0.2-1.1-0.7-1.3
						c-0.4-0.2-0.5-0.2-2.5-0.7c-1.1-0.2-1.6-0.5-2.1-0.8c-0.7-0.6-1.2-1.3-1.2-2.2c0-2,1.6-3.2,4-3.2c1.6,0,2.8,0.5,3.5,1.4
						c0.4,0.5,0.6,0.8,0.7,1.6l-2,0.2c-0.1-0.5-0.2-0.7-0.4-1.1c-0.4-0.5-0.9-0.7-1.8-0.7c-1.2,0-2.1,0.7-2.1,1.5
						c0,0.6,0.2,1.1,0.9,1.3c0.2,0.1,0.4,0.2,2,0.5c1.2,0.2,1.8,0.5,2.2,0.8c0.8,0.6,1.2,1.4,1.2,2.5s-0.2,1.8-0.8,2.4
						c-0.7,0.7-1.9,1.1-3.4,1.1c-1.2,0-2.2-0.2-2.9-0.7c-0.6-0.4-0.9-0.9-1.2-1.6c-0.1-0.2-0.2-0.6-0.2-1.2L165.8,47.5z"/>
					<path d="M182,50.9c-0.1-0.5-0.2-1.1-0.4-1.5L181,48h-4.5l-0.6,1.5c-0.2,0.7-0.2,0.8-0.4,1.5h-2.4c0.2-0.4,0.5-1.1,0.7-1.7
						l3.1-8.1c0.2-0.7,0.4-1.1,0.5-1.4h2.5c0.1,0.4,0.2,0.6,0.5,1.4l3.1,8.1c0.4,0.9,0.6,1.3,0.7,1.7H182z M179.2,42.2
						c-0.1-0.2-0.1-0.2-0.2-0.7c-0.2,0.7-0.2,0.7-0.2,0.7l-1.5,4.1h3.5L179.2,42.2z"/>
					<path d="M193.9,49.1c0.8,1.2,1.1,1.3,1.4,1.8h-2.6c-0.2-0.4-0.6-1.1-0.8-1.5l-2.8-4l-1.5,1.5V49c0,0.8,0,1.2,0.1,1.8h-2.1
						c0.1-0.7,0.1-1.1,0.1-1.8v-7.6c0-0.7,0-1.2-0.1-1.8h2.1c-0.1,0.5-0.1,1.1-0.1,1.8v3.3l3.5-3.8c0.6-0.6,0.8-0.9,1.2-1.4h2.6
						c-0.4,0.4-0.8,0.8-1.5,1.5l-3.1,3.1L193.9,49.1z"/>
					<path d="M206.2,39.7c-0.1,0.6-0.1,1.1-0.1,1.9v5c0,2.9-1.7,4.5-4.8,4.5c-1.6,0-2.8-0.5-3.7-1.3c-0.7-0.7-1.1-1.8-1.1-3.2v-5
						c0-0.8,0-1.4-0.1-2h2.1c-0.1,0.5-0.1,1.1-0.1,2v5c0,1.9,0.9,2.9,2.9,2.9c1.9,0,2.8-1.1,2.8-2.9v-5c0-0.9,0-1.4-0.1-2
						L206.2,39.7L206.2,39.7z"/>
				</g>
				<g class="st26">
					<path d="M140.4,75.9c-0.1,5.5-0.4,10.5-0.8,14c-0.6,4.6-1.5,7.3-3.5,10.6c-0.8-1.2-1.9-2.4-3.1-3.4c0,1.6,0.1,2.2,0.2,3.7h-4.9
						c0.2-1.8,0.2-2.9,0.2-5.1v-12c0-1.6,0-3.1,0.1-5.6c-0.8,1.8-1.7,3.1-2.9,4.6c-0.8-2.8-0.8-2.8-1.9-5.2c2.4-2.6,4.2-5.8,5.9-9.6
						c1.2-2.7,1.9-5.1,2.1-7.1l4.6,1.2c-0.2,0.7-0.5,1.3-0.7,2.2c-0.8,2.8-1.4,4.3-2.7,6.9v24.9c1.2-1.9,1.6-3.2,2.1-5.8
						c0.7-3.3,0.9-7.5,0.9-14.3c0-1.6,0-2.9-0.2-4.3c1.4,0.2,2.4,0.2,4.5,0.2h19.2c2.4,0,3.4,0,4.7-0.2V76c-1.2-0.1-2.6-0.2-4.1-0.2
						L140.4,75.9C140.4,75.9,140.4,75.9,140.4,75.9z M142.3,63.8c0-1.3,0-1.9-0.2-2.6h4.7c-0.1,0.7-0.2,1.4-0.2,2.6v0.9h5.9v-0.9
						c0-1.3,0-1.9-0.2-2.6h4.7c-0.1,0.7-0.2,1.4-0.2,2.6v0.9h2.7c1.8,0,3.5-0.1,4.3-0.2v4.4c-1.2-0.1-2.2-0.2-4.3-0.2h-2.7v0.5
						c0,1.1,0,1.5,0.1,2.1h-4.7c0.1-0.7,0.1-1.3,0.1-2.1v-0.4h-5.9v0.4c0,1.1,0,1.5,0.1,2.1h-4.7c0.1-0.7,0.1-1.3,0.1-2.1v-0.5h-1.8
						c-2.2,0-3.1,0-4.2,0.2v-4.2c1.2,0.1,2.6,0.2,4.2,0.2h1.8v-0.9C141.9,63.8,142.3,63.8,142.3,63.8z M145.4,93.5v2.6
						c0,2.8,0,3.7,0.2,4.6H141c0.2-1.2,0.2-2.4,0.2-4.6V82.5c0-2.4,0-3.2-0.2-4.7c1.3,0.1,2.1,0.1,4.5,0.1h13c2.1,0,2.9,0,4.1-0.2
						c-0.1,0.9-0.2,2.2-0.2,4.6v14.6c0,2.8-0.9,3.5-4.9,3.5c-0.4,0-0.4,0-1.9,0c-0.2-1.7-0.4-2.4-0.8-3.8c0.9,0.1,1.9,0.2,2.6,0.2
						c0.7,0,0.9-0.2,0.9-0.9v-2.5h-4.7v2c0,2.5,0,3.7,0.2,4.7h-4.3c0.2-1.3,0.2-2.5,0.2-4.7v-2h-4.5L145.4,93.5L145.4,93.5z
						 M150,81.7h-4.6v2.4h4.6V81.7z M150,87.5h-4.6v2.4h4.6V87.5z M158.6,84v-2.4h-4.7V84H158.6z M158.6,89.9v-2.4h-4.7v2.4H158.6z"
						/>
					<path d="M178.2,63.5c0-0.8,0-1.5-0.2-2.4h4.8c-0.1,0.8-0.2,1.5-0.2,2.4v0.4h9.5v-0.4c0-0.8,0-1.5-0.2-2.4h4.8
						c-0.1,0.8-0.2,1.4-0.2,2.4v0.4h5.2c2.1,0,3.7-0.1,5-0.2v4.2c-1.3-0.2-2.6-0.2-5-0.2h-5.2c0,0.7,0,1.2,0.2,1.8H192
						c0-0.6,0.1-1.2,0.1-1.8h-9.5c0,0.7,0,1.2,0.1,1.8H178c0.1-0.7,0.1-1.2,0.1-1.8h-4.8c-2.4,0-3.7,0-5,0.2v-4.2
						c1.4,0.2,2.8,0.2,5,0.2h4.8L178.2,63.5L178.2,63.5z M196.7,76.4c-1.9,1.6-5.1,4-6.4,5c3.5-0.1,6.1-0.2,7.8-0.4
						c-0.9-0.7-1.3-1.1-2.6-2l3.3-2.4c3.5,2.6,5.6,4.5,8.6,7.4l-3.3,2.9c-1.2-1.5-1.7-2-2.6-2.9c-9.6,0.7-14.4,0.8-29.9,1.4
						c-1.1,0-1.8,0.1-2.6,0.2l-0.7-4.3c1.4,0.2,4,0.2,10.4,0.2c0.2,0,0.2,0,2.2,0c-1.6-0.7-5.6-2.6-7.8-3.4l2.8-2.9
						c2.1,0.9,2.6,1.2,4,1.8c1.1-0.7,1.6-1.2,2.8-2.4H174c-2.2,0-3.7,0-5,0.2v-4.2c1.2,0.2,2.7,0.2,5,0.2h11.1c0-1.1,0-1.6-0.1-2.4
						h4.6c-0.1,0.8-0.1,1.2-0.1,2.4h11.8c2.1,0,3.9-0.1,5-0.2v4.2c-1.1-0.1-2.7-0.2-5-0.2h-7.8L196.7,76.4z M172.4,90.2
						c0-1.6,0-2.8-0.1-4c1.2,0.1,2.1,0.1,4.2,0.1h22.3c2.2,0,3.1,0,4.2-0.2c-0.1,1.2-0.1,2-0.1,4.2v6.4c0,1.5,0.1,2.8,0.2,4.2h-4.7
						v-1.6h-21.6v1.6h-4.7c0.1-1.5,0.2-2.8,0.2-4.2v-6.5H172.4z M176.8,91.1h8.6v-1.8h-8.6V91.1z M176.8,95.9h8.6V94h-8.6V95.9z
						 M187.9,74.5c-1.4,1.4-3.1,2.8-4.5,4c1.2,0.7,1.5,0.8,2.6,1.4c2.6-1.8,5.1-3.8,6.5-5.3L187.9,74.5L187.9,74.5z M189.5,91.1h8.9
						v-1.8h-8.9V91.1z M189.5,95.9h8.9V94h-8.9V95.9z"/>
					<path d="M244,66.9c-0.5,0.1-0.5,0.1-3.5,1.2c-2.5,0.7-3.8,1.2-7.2,1.8c0,5.8,0,5.8-0.1,7.3h9.1c2.9,0,3.7,0,5.2-0.2v5.2
						c-1.6-0.2-2.4-0.2-5.2-0.2h-9.5c-0.5,4-1.4,6.9-2.8,9.3c-1.5,2.5-4,4.9-6.9,6.8c-1.2,0.7-2,1.2-4,2.1c-1.2-2.1-1.9-3.1-3.8-4.5
						c3.1-1.2,4.7-2,6.6-3.5c2.6-2.1,4.2-4.5,4.9-7.3c0.2-0.7,0.2-1.4,0.5-2.8h-10.6c-2.7,0-3.5,0-5.2,0.2V77
						c1.6,0.2,2.4,0.2,5.2,0.2h10.9c0.1-1.8,0.1-3.5,0.1-6.5c-3.5,0.5-4.8,0.7-11.9,0.9c-0.5-1.9-0.7-2.6-1.6-4.6
						c1.3,0.1,2,0.1,2.6,0.1c5.8,0,13.1-0.9,18.4-2.5c2.5-0.7,3.8-1.2,5.2-2L244,66.9z"/>
					<path d="M270.8,93.5h8.8c2,0,2.8,0,4-0.2v4.8c-1.2-0.1-2.1-0.2-4-0.2h-22c-1.9,0-2.8,0-4,0.2v-4.8c1.2,0.2,2,0.2,4,0.2h8.4
						V79.7h-5.8c-1.6,0-2.5,0-4,0.2v-4.9c1.2,0.2,2.1,0.2,3.9,0.2h16.8c1.8,0,2.7-0.1,4-0.2v4.8c-1.2-0.1-1.8-0.2-3.9-0.2h-6.1
						L270.8,93.5L270.8,93.5z"/>
					<path d="M295.5,72.6c1.8,3.3,2.6,5.4,4.2,10.2l-4.8,1.5c-1.2-4.3-2-6.6-3.9-10.4L295.5,72.6z M320.1,73.1
						c-0.2,0.7-0.4,0.8-0.6,2.1c-1.2,5.9-3.2,10.6-5.9,14.2c-3.2,4.3-6.7,7.1-13.1,10.4c-1.2-1.9-1.6-2.6-3.4-4.2
						c3.1-1.2,4.7-2.1,7.3-4c5-3.7,7.9-8,9.7-14.9c0.6-2.1,0.7-3.5,0.7-4.9L320.1,73.1z M304.6,71c2.2,4.2,3.1,6.1,4.1,9.9l-4.7,1.5
						c-0.8-3.3-2.1-6.6-3.9-10.1L304.6,71z"/>
					<path d="M359.1,69.9c-0.5,0.7-0.6,1.1-1.1,2.6c-2,6.5-5,12.3-8.8,16.6c-4,4.5-8.7,7.8-15.3,10.9c-1.2-2.1-1.8-2.8-3.7-4.5
						c4.2-1.8,6.7-3.1,9.4-5.1c6.1-4.5,10.2-10.5,12.5-18.1l-12.9,0.2c-2.6,4.1-5.9,7.8-10,10.9c-1.3-1.8-1.9-2.4-4.1-3.7
						c4.9-3.3,8-6.8,11.1-12.5c1.3-2.5,2-4.1,2.1-5.6l5.9,1.2c-0.2,0.4-0.2,0.4-0.7,1.3c-0.1,0.2-0.1,0.2-0.6,1.2
						c-0.1,0.2-0.1,0.2-0.6,1.2c-0.2,0.6-0.2,0.6-0.7,1.4c0.6,0,1.2-0.1,2.1-0.1l9.4-0.1c1.7,0,2.1-0.1,3.1-0.5L359.1,69.9z"/>
				</g>
			</g>
			<g>
				<path class="st27" d="M69.8,49.9l-23,39.8c-2.9,5.1,0.7,11.4,6.6,11.4h45.9c5.8,0,9.5-6.3,6.6-11.4L83,49.9
					C80,44.7,72.7,44.7,69.8,49.9z"/>
				<path class="st28" d="M99.2,102.9H53.3c-3.5,0-6.6-1.8-8.3-4.8c-1.7-3-1.7-6.6,0-9.6l23-39.8c1.7-3,4.9-4.8,8.3-4.8
					s6.6,1.8,8.3,4.8l23,39.8c1.7,3,1.7,6.6,0,9.6C105.9,101.1,102.7,102.9,99.2,102.9z M71.6,50.8l-23,39.8c-1,1.7-1,3.8,0,5.4
					c1,1.7,2.8,2.8,4.8,2.8h45.9c2,0,3.8-1,4.8-2.8c1-1.7,1-3.8,0-5.4l-23-39.8c-1-1.7-2.8-2.8-4.8-2.8C74.3,48,72.6,49.1,71.6,50.8
					L71.6,50.8z"/>
			</g>
			<g class="st26">
				<path class="st28" d="M77.4,80.9V82c0,1.7,0,2,0.1,2.5h-3.2c0.1-0.7,0.1-1.3,0.1-2.5v-6.8c-0.3,3.1-0.3,3.1-0.6,4.5
					c-0.3,2.1-0.7,3.2-1.5,4.8c-0.7-1-1.1-1.6-1.8-2.4c0,1,0,1.5,0.2,2.5h-3.5c0.1-1.2,0.2-1.5,0.2-2.6v-5.6c0-0.5,0-1,0.1-2.5
					c-0.3,0.6-0.7,1.1-1.1,1.5c-0.3-1.8-0.6-2.5-1.2-4.1c1.1-1.2,1.9-2.6,2.6-4.4c0.6-1.4,0.9-2.6,1.1-3.7l3.4,0.8
					c-0.1,0.3-0.1,0.4-0.2,0.7c0.7,0.1,1.3,0.1,2.1,0.1h0.3v-0.3c0-0.6,0-0.8-0.1-1.2h3.5c-0.1,0.3-0.1,0.7-0.1,1.1v0.3H80v-0.3
					c0-0.6,0-0.8-0.1-1.2h3.4c-0.1,0.3-0.1,0.7-0.1,1.1v0.3h0.7c1.1,0,2-0.1,2.4-0.2v3.1c-0.8-0.1-1.1-0.1-2.4-0.1h-0.7v1.2H84
					c1.3,0,1.8,0,2.6-0.1v3.1c-0.7-0.1-1.2-0.1-2.1-0.1h-9.8v0.7c0.6,0.1,1.2,0.1,2.2,0.1h7.2c1,0,1.5,0,2.1-0.1
					c-0.1,0.5-0.1,1.1-0.1,2.3v7.6c0,1.8-0.5,2.1-3.7,2.1c-0.2-1.1-0.2-1.6-0.6-2.5c0.3,0,0.6,0.1,0.8,0.1c0.3,0,0.4-0.1,0.4-0.4V81
					h-1.4v0.8c0,1.4,0,2,0.1,2.6h-3c0.1-0.7,0.1-1.3,0.1-2.6V81L77.4,80.9L77.4,80.9z M70.7,80.2c0.3-0.8,0.4-1.4,0.6-2.2
					c0.2-1.3,0.3-3.9,0.3-6.5c0-1.3,0-1.9-0.1-2.8c0.9,0.1,1.2,0.1,2.5,0.1h0.7v-1.1h-0.3c-1.3,0-1.7,0-2.4,0.1v-2.4
					c-0.4,1.4-0.7,2-1.3,3.3C70.7,68.7,70.7,80.2,70.7,80.2z M78.8,74.8h-1.4v0.9h1.4V74.8z M78.8,77.8h-1.4v1h1.4V77.8z M80.2,68.8
					v-1.1h-2.2v1.1H80.2z M83.1,75.7v-0.9h-1.4v0.9H83.1z M83.1,78.7v-0.9h-1.4v0.9H83.1z"/>
			</g>
			<g class="st26">
				<path class="st28" d="M75,57.2c0,0.3,0.1,0.5,0.2,0.7c0.2,0.3,0.7,0.5,1.2,0.5c0.7,0,1.2-0.3,1.2-0.9c0-0.3-0.2-0.6-0.4-0.7
					c-0.2-0.1-0.5-0.2-1.5-0.4c-0.9-0.2-1.2-0.3-1.6-0.6c-0.7-0.4-1-1.1-1-1.9c0-1.6,1.2-2.5,3.2-2.5c1.2,0,2.2,0.4,2.8,1.2
					c0.2,0.3,0.3,0.7,0.5,1.2L77.4,54c-0.1-0.7-0.5-0.9-1.2-0.9c-0.6,0-1.1,0.3-1.1,0.8c0,0.2,0.2,0.5,0.5,0.7
					c0.2,0.1,0.2,0.1,1.4,0.3c0.7,0.2,1.2,0.3,1.7,0.6c0.7,0.4,1.1,1.2,1.1,2.1c0,0.7-0.2,1.4-0.7,1.8c-0.6,0.6-1.5,0.8-2.6,0.8
					c-0.8,0-1.7-0.2-2.2-0.5c-0.5-0.2-0.8-0.7-1.1-1.2c-0.1-0.2-0.2-0.5-0.2-0.9L75,57.2z"/>
			</g>
			<polygon points="59,95.2 76.3,111.5 110.9,59.2 73.1,99.1 62.8,90.6 			"/>
			<g>
				<path class="st29" d="M172.7,131c0,0.3,0.2,0.4,1.5,0.4c1.2,0,1.6-0.1,1.7-0.6c0.2-0.5,0.2-1.3,0.2-2.7c1,0.4,1.4,0.6,2.3,0.8
					c-0.2,2.9-0.5,3.9-1.3,4.4c-0.5,0.3-1.6,0.4-3.4,0.4c-2.7,0-3.4-0.3-3.5-1.6c-0.9,0.6-1.3,0.9-2.4,1.5c-0.5-0.9-0.9-1.4-1.7-2.1
					c1.6-0.7,2.8-1.4,4-2.3v-5c0-0.7,0-1.1-0.1-1.7h2.6c-0.1,0.6-0.1,1.1-0.1,1.7v3.1c1.4-1.4,2.6-3.2,3.5-5c0.5-1,0.7-1.7,0.9-2.3
					l2.6,1c-0.2,0.5-0.2,0.5-0.7,1.4c-0.6,1.2-0.9,1.7-1.5,2.7l1.8-0.8c0.9,2,1.6,3.6,2.3,6.3l-2.3,1.2c-0.6-2.6-1.2-4.4-2.1-6.3
					c-1.4,2.1-2.6,3.5-4.5,5.2V131z M169.7,124c-0.2,2.8-0.6,4.3-1.2,6l-2.2-1.1c0.7-1.7,1-3.1,1.2-5.5L169.7,124z M171.2,118.7
					c2,0.7,3.1,1.2,4.5,2.1l-1.4,2.1c-1.1-0.8-2.5-1.5-4.6-2.3L171.2,118.7z"/>
				<path class="st29" d="M184.3,128.1c-0.7,0-1.3,0-1.7,0.1v-2.1c0.6,0.1,1.2,0.1,1.7,0.1h11.2c0.7,0,1.2,0,1.7-0.1v2.1
					c-0.5,0-1.1-0.1-1.7-0.1H191c-0.1,0.2-0.2,0.2-0.2,0.5h4.2c0.7,0,1.2,0,1.5-0.1c-0.1,0.3-0.1,0.7-0.1,1.2v2.2
					c0,1.4-0.4,1.8-1.8,1.8c-0.2,0-0.2,0-1.2-0.1c-0.1-1.1-0.2-1.5-0.4-2.1c0.3,0.1,0.7,0.1,0.8,0.1c0.2,0,0.3-0.1,0.3-0.2v-1.1
					h-1.4v1.8c0,0.7,0,1.1,0.1,1.5h-2.3c0.1-0.4,0.1-0.8,0.1-1.5v-1.8h-1.2v1.8c0,0.7,0,1.1,0.1,1.5h-2.3c0.1-0.4,0.1-0.8,0.1-1.5
					v-1.8H186v2c0,0.7,0,1.1,0.1,1.5h-2.5c0.1-0.6,0.1-1.1,0.1-1.7v-2.3c0-0.4,0-0.9-0.1-1.3c0.4,0,0.7,0.1,1.7,0.1h3
					c0.2-0.2,0.2-0.2,0.2-0.5L184.3,128.1L184.3,128.1L184.3,128.1z M185.3,120.9c-0.7,0-1.3,0-1.7,0.1V119c0.5,0.1,1.2,0.1,2,0.1
					h8.6c0.8,0,1.6,0,2-0.1v1.9c-0.5,0-1.1-0.1-1.7-0.1H191v0.4h3.9c1.2,0,1.7,0,2.2-0.1c-0.1,0.4-0.1,0.7-0.1,1.4v1.2
					c0,0.7,0,0.9,0.1,1.4h-2.3v-2.2H191v1.3c0,0.7,0,1.1,0.1,1.5h-2.6c0.1-0.5,0.1-0.8,0.1-1.5v-1.3h-3.6v2.2h-2.3
					c0.1-0.4,0.1-0.7,0.1-1.4v-1.2c0-0.7,0-1-0.1-1.4c0.5,0,0.9,0.1,2.2,0.1h3.7v-0.4H185.3z M185.3,123.3c0.2,0,0.3,0,0.7,0h1.3
					c0.4,0,0.5,0,0.7,0v1.1c-0.2,0-0.3,0-0.7,0h-1.3c-0.3,0-0.5,0-0.7,0V123.3z M185.3,124.7c0.2,0,0.2,0,0.7,0h1.3
					c0.4,0,0.6,0,0.7,0v1.1c-0.2,0-0.3,0-0.7,0h-1.3c-0.3,0-0.5,0-0.7,0V124.7z M191.5,123.3c0.2,0,0.2,0,0.7,0h1.6
					c0.4,0,0.5,0,0.7,0v1.1c-0.2,0-0.3,0-0.7,0h-1.6c-0.3,0-0.4,0-0.7,0V123.3z M191.5,124.7c0.2,0,0.2,0,0.7,0h1.6
					c0.4,0,0.5,0,0.7,0v1.1c-0.2,0-0.3,0-0.7,0h-1.6c-0.3,0-0.4,0-0.7,0V124.7z"/>
				<path class="st29" d="M198.6,133.8c0.1-0.5,0.1-0.9,0.1-1.8v-4.4c0-0.6,0-1-0.1-1.5c0.5,0.1,0.9,0.1,1.7,0.1h4
					c0.4,0,0.7,0,1.1-0.1c0,0.3,0,0.5,0,1.2v4.8c0,0.6,0,1,0.1,1.3H203v-0.4h-1.8v0.7L198.6,133.8L198.6,133.8z M200.7,120.7
					c0-0.6,0-1-0.1-1.5c0.4,0.1,1,0.1,1.8,0.1h6.8c0.9,0,1.4,0,1.8-0.1c-0.1,0.4-0.1,0.8-0.1,1.5v3.2c0,0.7,0,1.2,0.1,1.6
					c-0.4,0-0.7-0.1-1.7-0.1h-7.1c-0.8,0-1.2,0-1.7,0.1c0-0.4,0.1-0.9,0.1-1.6L200.7,120.7L200.7,120.7z M203,128.4h-1.9v2.5h1.9
					V128.4z M203.1,121.6v1.7h5.5v-1.7H203.1z M211.5,126.2c0.7,0,1.2,0,1.5-0.1c-0.1,0.5-0.1,0.8-0.1,1.5v4.4c0,0.9,0,1.3,0.1,1.8
					h-2.5v-0.7h-2v0.7h-2.4c0-0.4,0.1-0.7,0.1-1.3v-5c0-0.7,0-0.9,0-1.2c0.3,0,0.7,0.1,1.1,0.1L211.5,126.2L211.5,126.2z
					 M208.5,130.9h2.1v-2.5h-2.1V130.9z"/>
				<path class="st29" d="M227.9,119.6l-5.7,15.5h-2.9l5.8-15.5H227.9z"/>
				<path class="st29" d="M241.9,121.7c-1.2-0.6-2.3-1-3.7-1.5l1.7-1.7c1.7,0.5,2.9,1,4.5,1.7l-1.2,1.4h2.8c1,0,1.6,0,2.2-0.1v2.5
					c-0.7-0.1-1.2-0.1-2.2-0.1h-3.3v2.2h2.8c0.7,0,1.2,0,1.9-0.1v2.4c-0.6-0.1-1-0.1-1.8-0.1h-2.9v2.6h3.6c1,0,1.7,0,2.5-0.1v2.5
					c-0.8-0.1-1.4-0.1-2.4-0.1h-9.6c-1.2,0-1.8,0-2.6,0.1v-2.5c0.7,0.1,1.4,0.1,2.5,0.1h3.5v-2.6h-2.5c-0.9,0-1.4,0-2.1,0.1v-2.4
					c0.6,0.1,0.9,0.1,1.8,0.1h2.7V124H237c-1.3,0-1.7,0-2.2,0.1v-2.5c0.7,0.1,1.2,0.1,2.1,0.1H241.9z"/>
				<path class="st29" d="M264.2,129.4c-1.1,0.8-1.7,1.3-2.4,1.8c0.9,0.2,1.8,0.4,3.3,0.4c-0.5,0.9-0.7,1.4-1.1,2.4
					c-2.7-0.4-4.4-1-5.9-2.2v1.1c-2.1,0.4-3.6,0.7-6.4,1.1c-0.3,0.1-0.6,0.1-0.8,0.2l-0.3-2.6c0.2,0,0.2,0,0.4,0
					c0.1,0,0.9-0.1,1.5-0.1v-6.9c0-0.2,0-0.2,0-0.2c-0.6,0.3-0.9,0.4-1.7,0.7c-0.2-1-0.4-1.5-1-2.5c1.2-0.3,2.5-0.8,3.6-1.6
					c1.2-0.7,2-1.3,2.7-2.2h2.6c0.8,0.9,1.7,1.7,2.9,2.3c1.2,0.7,2.4,1.2,3.6,1.4c-0.5,0.9-0.7,1.5-1,2.5c-0.7-0.2-1.2-0.5-1.7-0.7
					v4c0,0.2,0,0.2,0,0.2L264.2,129.4z M254.7,125.2h5.4v-0.6h-5.4V125.2z M254.7,127.4h5.4v-0.6h-5.4V127.4z M254.7,129.2v2
					c0.1,0,0.1,0,0.2,0c0.7-0.1,1.7-0.2,2.1-0.2c-0.6-0.6-0.7-0.7-1.3-1.7L254.7,129.2L254.7,129.2z M256.2,122.3c0-0.2,0-0.3,0-0.5
					c-0.5,0.4-0.9,0.7-1.4,1h1.4V122.3z M258.3,121.7c-0.3-0.3-0.6-0.5-1-0.9c-0.4,0.4-0.6,0.6-0.9,0.9H258.3z M260,122.9
					c-0.7-0.5-1-0.7-1.4-1.1c0,0.2,0,0.3,0,0.6v0.5H260z M258.5,129.2c0.2,0.3,0.6,0.7,1,0.9c0.5-0.2,1-0.6,1.3-0.9H258.5z"/>
				<path class="st29" d="M279.6,119.6l-5.7,15.5H271l5.8-15.5H279.6z"/>
				<path class="st29" d="M293.6,121.7c-1.2-0.6-2.3-1-3.7-1.5l1.7-1.7c1.7,0.5,2.9,1,4.5,1.7l-1.2,1.4h2.8c1,0,1.6,0,2.2-0.1v2.5
					c-0.7-0.1-1.2-0.1-2.2-0.1h-3.3v2.2h2.8c0.7,0,1.2,0,1.9-0.1v2.4c-0.6-0.1-1-0.1-1.8-0.1h-2.9v2.6h3.6c1,0,1.7,0,2.5-0.1v2.5
					c-0.8-0.1-1.4-0.1-2.4-0.1h-9.6c-1.2,0-1.8,0-2.6,0.1v-2.5c0.7,0.1,1.4,0.1,2.5,0.1h3.5v-2.6h-2.5c-0.9,0-1.4,0-2.1,0.1v-2.4
					c0.6,0.1,0.9,0.1,1.8,0.1h2.7V124h-3.1c-1.3,0-1.7,0-2.2,0.1v-2.5c0.7,0.1,1.2,0.1,2.1,0.1H293.6z"/>
				<path class="st29" d="M303.8,129.4c-0.8,0-1.4,0-2,0.1v-2.3c0.5,0.1,1.1,0.1,2,0.1h0.3c-0.4-0.7-0.8-1.3-1.2-1.8l1.6-0.6
					c-0.2,0-0.3,0-0.5,0c-0.2,0-0.4,0-0.7,0c-0.2-0.7-0.5-1.2-1-2.1c1.8,0.1,2.6,0.1,3.7,0.1c1.7,0,3.5-0.1,5-0.2
					c1.4-0.1,2.1-0.2,3.4-0.5l1.6,1.9c-1,0.2-1.4,0.2-2.2,0.3l1.5,0.6c-0.8,1.2-1.2,1.7-1.7,2.2h0.8c0.9,0,1.5,0,2-0.1v2.3
					c-0.5-0.1-1.2-0.1-2-0.1h-2.5c1.2,1,2.7,1.6,4.7,2c-0.6,0.7-0.8,1.3-1.3,2.3c-1.2-0.3-2.1-0.7-3.1-1.4c-0.8-0.6-1.3-1-2.1-1.7
					c0,0.2,0,0.2,0,0.4c0,0.2,0,0.4,0,0.6v0.7c0,0.7,0,1.1,0.2,1.7h-2.7c0.1-0.6,0.2-1,0.2-1.7v-0.7c0-0.2,0-0.5,0-1
					c-1.2,1.4-2.6,2.4-4.9,3.1c-0.6-1.1-0.7-1.4-1.4-2.1c2-0.4,3.4-1.1,4.5-2.1L303.8,129.4L303.8,129.4L303.8,129.4z M305.1,119.5
					c0-0.2,0-0.5-0.1-0.7h2.5c0,0.3-0.1,0.5-0.1,0.7v0.2h3v-0.2c0-0.2,0-0.3-0.1-0.7h2.5c0,0.2-0.1,0.5-0.1,0.7v0.2h1.7
					c0.8,0,1.3,0,1.9-0.1v2.3c-0.5-0.1-1.1-0.1-1.9-0.1h-1.6c0,0.2,0,0.4,0.1,0.7h-2.5c0-0.2,0-0.4,0.1-0.7h-3c0,0.2,0,0.3,0.1,0.7
					h-2.5c0-0.2,0.1-0.4,0.1-0.7h-1.5c-0.8,0-1.4,0-1.9,0.1v-2.3c0.6,0.1,1.1,0.1,1.9,0.1h1.5v-0.2H305.1z M307.8,127.3
					c0-0.3,0-0.5-0.1-0.7h0.6c-0.3-0.7-0.4-0.7-0.8-1.3l1.2-0.4c-0.9,0.1-1.7,0.1-3.4,0.1c0.3,0.4,0.7,0.9,1.2,1.6l-1.9,0.8H307.8z
					 M313,127.3l-1.7-0.7c0.6-0.7,1-1.2,1.4-2c-0.6,0.1-1.6,0.1-3.1,0.2c0.4,0.5,0.6,0.7,0.8,1.2l-1.8,0.6h1.7
					c-0.1,0.3-0.1,0.5-0.1,0.7L313,127.3L313,127.3L313,127.3z"/>
			</g>
		</g>
	</g>
	<rect x="-6" y="145.1" width="534.1" height="41.3"/>
	<g>
		<path class="st2" d="M100.2,166.2c-1.2,0-1.9,0-2.7,0.1c0.1-0.7,0.1-1.4,0.1-2.5v-5.5c0-1.2,0-1.8-0.1-2.6
			c0.8,0.1,1.4,0.1,2.7,0.1h11.1c1.3,0,1.9,0,2.7-0.1c-0.1,0.7-0.1,1.3-0.1,2.5v5.6c0,1.2,0,1.8,0.1,2.5c-0.8,0-1.5-0.1-2.7-0.1h-4
			v1.6h5.5c1.5,0,2.3,0,3.1-0.1v3.3c-0.8-0.1-1.7-0.1-3.1-0.1h-5.5v1.9c0,1.3,0,2.3,0.1,3.1h-3.8c0.1-0.8,0.1-1.9,0.1-3.1v-1.9h-5.1
			c-1.4,0-2.2,0-3.1,0.1v-3.3c0.8,0.1,1.6,0.1,3.1,0.1h5.1v-1.6H100.2z M100.9,159.7h9.7v-1.1h-9.7V159.7z M100.9,163.4h9.7v-1.1
			h-9.7V163.4z"/>
		<path class="st2" d="M123.1,168.8c1.8-0.7,2.9-1.4,4.2-2.4H126c-1.1,0-1.5,0-2.2,0.1c0.1-0.7,0.1-1.1,0.1-2v-2.4
			c0-0.9,0-1.3-0.1-2c0.7,0.1,1.2,0.1,2.2,0.1h2.7v-0.8h-3.3c-0.8,0-1.3,0-1.8,0.1l-2.3,2.3c-1.2-1.6-2.3-2.8-4-4.3l2.5-2.4
			c1.5,1.3,2.5,2.3,3.5,3.5v-2.2c0.8,0.1,1.5,0.1,2.8,0.1h2.7v-0.3c0-0.4,0-0.9-0.1-1.2h3.4c-0.1,0.4-0.1,0.6-0.1,1v0.5h3.1
			c1.4,0,1.9,0,2.7-0.1v3.1c-0.7-0.1-1.1-0.1-2.1-0.1h-3.8v0.8h3.1c1,0,1.5,0,2.1-0.1c-0.1,0.7-0.1,1.1-0.1,2v2.4c0,0.9,0,1.3,0.1,2
			c-0.6-0.1-1.1-0.1-2.2-0.1h-1.3c1.3,1.1,2.6,1.8,4.7,2.4c-0.7,1.1-1,1.8-1.5,3.1c-2.1-0.9-3.4-1.7-5-3.3c0,0.3,0,0.6,0,1.1v0.9
			c0,0.5,0,0.9,0.1,1.2h-3.4c0.1-0.4,0.1-0.7,0.1-1.3v-0.9c0-0.5,0-0.6,0-1.1c-1.1,1.3-2.1,2.1-4,3.1c-0.6-1.1-1-1.8-1.7-2.6v1.5
			c0.5,0.5,0.7,0.8,1.1,1c0.7,0.4,1.7,0.6,3.6,0.6c5.1,0,8.3-0.1,10.7-0.5c-0.5,1.5-0.6,2-0.8,3.6c-2,0.1-4.9,0.1-7.4,0.1
			c-5.9,0-7-0.3-8.7-2.1c-0.8,0.8-1.5,1.2-2.7,2.1c-0.1,0.1-0.2,0.1-0.4,0.2l-1.4-3.5c0.6-0.2,1.8-0.9,2.8-1.7v-4.2h-0.9
			c-0.4,0-0.8,0-1.4,0.1v-3.3c0.7,0.1,1,0.1,1.8,0.1h2.1c0.7,0,1.1,0,1.7-0.1c-0.1,0.7-0.1,1.2-0.1,2.5V168.8z M127,162.7v1.2h1.7
			v-1.2H127z M131.9,163.9h1.9v-1.2h-1.9V163.9z"/>
		<path class="st2" d="M141.9,168c2.1,1.5,3.5,2.8,5.4,4.9l-2.8,2.8c-1.6-2.1-3-3.5-5.2-5.2L141.9,168z"/>
		<path class="st2" d="M161.9,172.3v1.1c0,1.6,0,2,0.1,2.4h-3.1c0.1-0.7,0.1-1.3,0.1-2.4v-6.6c-0.3,3-0.3,3-0.5,4.3
			c-0.4,2-0.7,3.1-1.5,4.7c-0.6-1-1-1.5-1.8-2.3c0,1,0,1.5,0.1,2.4h-3.5c0.1-1.1,0.1-1.5,0.1-2.5v-5.5c0-0.5,0-1,0-2.4
			c-0.4,0.6-0.7,1-1,1.5c-0.3-1.8-0.5-2.5-1.1-4.1c1.1-1.1,1.9-2.5,2.6-4.2c0.5-1.3,0.9-2.6,1.1-3.6l3.3,0.8
			c-0.1,0.3-0.1,0.4-0.2,0.7c0.6,0,1.3,0.1,2.1,0.1h0.4v-0.3c0-0.6,0-0.8-0.1-1.1h3.4c0,0.3-0.1,0.6-0.1,1.1v0.3h2.2v-0.3
			c0-0.6,0-0.8-0.1-1.1h3.3c0,0.3-0.1,0.6-0.1,1.1v0.3h0.7c1,0,2,0,2.4-0.1v3c-0.8-0.1-1-0.1-2.4-0.1h-0.7v1.1h0.8
			c1.3,0,1.8,0,2.5-0.1v3c-0.6-0.1-1.2-0.1-2-0.1h-9.8v0.6c0.6,0,1.2,0.1,2.2,0.1h7c0.9,0,1.5,0,2-0.1c-0.1,0.6-0.1,1.1-0.1,2.3v7.4
			c0,1.8-0.5,2.1-3.6,2.1c-0.1-1.1-0.2-1.5-0.5-2.4c0.3,0,0.5,0,0.8,0c0.3,0,0.4-0.1,0.4-0.4v-0.7h-1.4v0.8c0,1.3,0,1.9,0.1,2.5
			h-2.9c0.1-0.7,0.1-1.3,0.1-2.5v-0.8H161.9z M155.2,171.6c0.3-0.8,0.4-1.4,0.5-2.2c0.2-1.3,0.3-3.8,0.3-6.4c0-1.3,0-1.8-0.1-2.7
			c0.9,0.1,1.2,0.1,2.4,0.1h0.7v-1.1h-0.4c-1.3,0-1.7,0-2.3,0.1v-2.4c-0.4,1.4-0.6,1.9-1.3,3.2V171.6z M163.2,166.3h-1.3v0.9h1.3
			V166.3z M163.2,169.2h-1.3v0.9h1.3V169.2z M164.5,160.4v-1.1h-2.2v1.1H164.5z M167.3,167.2v-0.9h-1.4v0.9H167.3z M167.3,170.1
			v-0.9h-1.4v0.9H167.3z"/>
		<path class="st2" d="M177.3,156.1c0-0.4,0-0.7-0.1-1.1h3.4c0,0.4-0.1,0.6-0.1,1.1h4.2c0-0.4,0-0.7-0.1-1.1h3.4
			c-0.1,0.4-0.1,0.6-0.1,1.1h2.2c1.1,0,1.9,0,2.6-0.1v2.8c-0.8-0.1-1.4-0.1-2.6-0.1h-2.2c0,0.3,0,0.4,0.1,0.7H185c0-0.2,0-0.4,0-0.7
			h-4.7c0,0.4,0,0.4,0.1,0.7h-3.1c0-0.2,0-0.3,0.1-0.7h-1.9c-1.3,0-1.9,0-2.7,0.1V156c0.8,0.1,1.6,0.1,2.7,0.1H177.3z M187.7,163.2
			c-1.4,1.1-2.2,1.8-2.6,2c0.4,0,0.7,0,0.9,0c0.8,0,0.8,0,1.6-0.1c-0.3-0.3-0.4-0.4-0.8-0.7l2.4-1.6c1.6,1.3,2.8,2.4,4.1,3.9
			l-2.2,1.8c0,0.5,0,0.8,0,1.8v3.2c0,0.8,0,1.5,0.1,2.2h-3.4v-0.7h-10v0.7h-3.4c0.1-0.7,0.1-1.5,0.1-2.2v-3.3c0-0.8,0-1.5-0.1-2.1
			c0.8,0,1,0,2.3,0h12c0.9,0,1.2,0,1.6,0c-0.3-0.4-0.4-0.6-0.7-0.9c-6.2,0.4-6.2,0.4-15.1,0.7c-0.7,0-1.1,0.1-1.5,0.1l-0.4-2.9
			c0.8,0.1,1.6,0.1,4.8,0.2c-0.9-0.5-1.6-0.8-2.8-1.3l2-1.7h-1.1c-1.2,0-2,0-2.7,0.1v-2.8c0.7,0.1,1.5,0.1,2.7,0.1h5.4
			c0-0.4,0-0.5-0.1-0.8h3.3c0,0.2,0,0.4,0,0.8h5.7c1,0,2,0,2.7-0.1v2.8c-0.6-0.1-1.5-0.1-2.7-0.1h-4.1L187.7,163.2z M177.1,162.3
			c0.8,0.4,1.1,0.6,1.7,0.8c0.4-0.3,0.5-0.5,0.9-0.8H177.1z M177.8,170.8h3.4v-0.6h-3.4V170.8z M177.8,173.1h3.4v-0.7h-3.4V173.1z
			 M183.3,162.3c-0.6,0.6-1.4,1.3-2.4,2.1c0.5,0.3,0.5,0.3,0.7,0.4c0.9-0.6,2.2-1.7,3-2.5H183.3z M184.3,170.8h3.5v-0.6h-3.5V170.8z
			 M184.3,173.1h3.5v-0.7h-3.5V173.1z"/>
		<path class="st2" d="M195.3,157.4c0.9,0.2,2.3,0.3,4.6,0.3c0.1,0,0.4,0,0.6,0c0.4-1.1,0.6-1.7,0.7-2.4l4,0.3
			c-0.2,0.3-0.2,0.4-0.5,1c-0.3,0.6-0.4,1-0.4,1c0.2,0,0.2,0,1.3-0.1c2.2-0.1,4.4-0.4,5.6-0.7l0.1,3.5c-0.7,0.1-1.3,0.1-2,0.2
			c-1.6,0.2-4.3,0.3-6.6,0.4c-0.4,0.7-0.5,0.9-1.1,1.6c0.9-0.4,1.8-0.7,2.8-0.7c1.8,0,2.9,0.7,3.4,2.1c0.4-0.1,0.4-0.1,1.5-0.5
			c0.1,0,0.7-0.2,1.4-0.4c1.3-0.4,1.4-0.5,1.8-0.7l1.3,3.5c-1.1,0.2-3.5,0.8-5.6,1.5c0,0.6,0,0.6,0,1.6c0,1,0,1.3,0.1,1.9l-3.6,0.1
			c0.1-0.3,0.1-1,0.1-2.3l-0.2,0.1c-1,0.5-1.1,0.6-1.5,0.9c-0.4,0.3-0.6,0.7-0.6,1.1c0,0.8,0.8,1.2,2.9,1.2c2.6,0,5.2-0.4,7-1.1
			l0.2,4c-0.6,0-0.6,0-2,0.2c-1.8,0.2-3.6,0.3-5.3,0.3c-2.5,0-4-0.3-5.2-1c-1.1-0.6-1.7-1.8-1.7-3.1c0-1,0.3-1.9,1.1-2.8
			c0.8-0.9,1.8-1.7,3.2-2.4c0.5-0.3,0.7-0.4,1.6-0.7c-0.2-0.4-0.5-0.5-0.9-0.5c-1.1,0-2.6,0.8-4.2,2.1c-0.9,0.8-1.5,1.4-2.1,2.2
			l-2.8-2.8c0.7-0.5,1.6-1.4,2.3-2.3c0.5-0.6,1.4-1.9,1.7-2.4c0.3-0.6,0.3-0.6,0.4-0.7c-0.3,0-0.5,0-0.7,0c-0.9,0-0.9,0-1.9,0
			c-0.3,0-0.5,0-0.8,0c0,0-0.2,0-0.3,0L195.3,157.4z"/>
		<path class="st2" d="M233.6,158.6c-0.6,0.1-0.6,0.1-1.2,0.4c-1.3,0.4-2.5,0.7-4.3,1.1c0,1.1,0,2.5-0.1,3h3.6c1.7,0,2.5,0,3.5-0.2
			v3.6c-0.9-0.1-1.4-0.1-3.4-0.1h-3.9c-0.3,2-0.7,3.4-1.5,4.7c-0.8,1.3-2.1,2.6-3.7,3.5c-0.6,0.4-1.1,0.7-2.1,1.1
			c-0.8-1.5-1.4-2.2-2.7-3.3c2.7-1,4-1.8,5-3.1c0.6-0.8,0.9-1.6,1.1-2.9h-4.3c-2,0-2.5,0-3.4,0.1v-3.6c0.9,0.1,1.5,0.2,3.5,0.2h4.6
			c0-0.7,0-1.1,0-1.8v-0.6c-2.1,0.2-2.3,0.2-5.8,0.4c-0.2-1.2-0.5-2-1.1-3.3c0.7,0,1.1,0,1.5,0c2.9,0,7.1-0.5,9.6-1.1
			c1.1-0.3,1.9-0.6,2.8-1L233.6,158.6z"/>
		<path class="st2" d="M248,171.3h3.4c1.4,0,2.1,0,3-0.1v3.3c-0.8-0.1-1.4-0.1-3-0.1h-10.2c-1.6,0-1.9,0-3,0.1v-3.3
			c0.8,0.1,1.4,0.1,3,0.1h3.3v-6.6h-2c-1.5,0-1.9,0-2.9,0.1v-3.4c0.9,0.1,1.5,0.2,2.8,0.2h7.7c1.4,0,2,0,2.9-0.2v3.4
			c-0.6-0.1-1.5-0.1-2.9-0.1H248V171.3z"/>
		<path class="st2" d="M261,160.6c0.9,1.6,1.5,3.4,2.1,5.6l-3.4,1c-0.6-2.3-1-3.6-2-5.7L261,160.6z M273.8,161
			c-0.1,0.4-0.2,0.5-0.3,1.3c-0.7,3.1-1.5,5.3-2.8,7.2c-1.2,1.8-2.8,3.3-4.6,4.5c-0.8,0.5-1.4,0.8-2.7,1.5c-0.7-1.3-1.2-1.9-2.4-3.1
			c4.4-1.7,6.8-3.9,8.2-7.6c0.6-1.5,0.9-3.3,1-4.6L273.8,161z M265.9,159.7c1.2,2.3,1.6,3.3,2.1,5.4l-3.4,1c-0.4-1.8-1-3.5-2-5.5
			L265.9,159.7z"/>
		<path class="st2" d="M287.1,156c-0.1,0.2-0.2,0.3-0.3,0.5c0,0.1-0.1,0.2-0.2,0.3c-0.1,0.2-0.2,0.4-0.2,0.5
			c-0.3,0.6-0.3,0.6-0.4,0.9l5.5-0.1c0.9,0,1.1,0,1.6-0.2l1.8,1.8c-0.3,0.4-0.3,0.6-0.6,1.6c-1.1,3.7-2.6,6.5-4.6,8.7
			c-2,2.3-4.5,4-8.1,5.7c-0.7-1.4-1.4-2.3-2.6-3.3c3.1-1.1,5.4-2.6,7.3-4.5c1.6-1.7,2.9-3.7,3.7-6.2l-5.9,0.1
			c-1.4,2.3-2.9,3.9-5,5.5c-1.1-1.3-1.7-1.8-3.1-2.6c2.7-1.9,4.4-3.9,5.9-6.7c0.6-1.1,0.8-1.9,0.9-2.6L287.1,156z"/>
		<path class="st2" d="M301.6,169c0-0.4,0-0.6,0-1c0-0.4,0-0.4-0.1-1.7l-0.4-7c0-0.9-0.2-1.9-0.3-3h5.1c-0.1,0.5-0.2,2-0.3,3l-0.4,7
			c0,0.9-0.1,1.4-0.1,1.7c0,0.2,0,0.5,0,1H301.6z M301.2,174.6v-4.2h4.4v4.2H301.2z"/>
	</g>
	<g>
		<g>
			<path class="st21" d="M508.7,105.9c-0.9-3.1-3.5-3.9-6.2-3.2c-0.9,0.3-1.7,0.7-2.7,1.3c-0.2,0.4-0.5,0.7-0.9,0.9
				c-0.3,0.1-0.6,0.3-0.9,0.3c-0.6,0.1-1,0-1.5-0.3c-1.8-1.2-2.8-5.6-3.5-7.3c-1.3-3.1-2.5-6.3-3.6-9.5c-0.7-2-0.6-1.6-3.1-1.7
				c-3-0.1-6.1-0.6-9.1-1c-14.5-2-30.2-5.8-43.1-13.2c-5.2,3.9-7.5,11.6-9.2,17.5c-0.9,3.2-1.7,6.5-2.3,9.8
				c-0.3,2.2-0.6,4.4-1.2,6.5c-1,3.9-3.7,7.2-4.4,11.4c-0.5,2.8-0.5,5.7,0.3,8.5c0.2,0.6,0.3,1.2,0.5,1.7c0,0.1,0.1,0.2,0.1,0.3
				c0.2,0.5,0.4,1.1,0.7,1.6c0,0.1,0.1,0.2,0.1,0.2c0.2,0.5,0.5,0.9,0.8,1.4c0,0.1,0.1,0.1,0.1,0.2c0.3,0.5,0.6,0.9,1,1.4
				c0.1,0.1,0.1,0.2,0.2,0.2c0.7,0.9,1.5,1.8,2.4,2.6c0.1,0,0.1,0.1,0.2,0.1c0.4,0.4,0.9,0.8,1.4,1.1c0,0,0.1,0.1,0.1,0.1
				c0.5,0.4,1,0.7,1.5,1c0.4,0.2,0.8,0.5,1.2,0.7c0.4,0.2,0.8,0.4,1.2,0.6c0.4,0.2,0.7,0.3,1.1,0.5c0.6,0.3,1.2,0.5,1.8,0.7
				c0.2,0.1,0.5,0.2,0.7,0.3c0.4,0.1,0.8,0.3,1.1,0.4c0.3,0.1,0.6,0.2,0.9,0.3c0.3,0.1,0.6,0.2,1,0.3c0.3,0.1,0.7,0.2,1,0.3
				c0.3,0.1,0.6,0.2,0.9,0.2c0.4,0.1,0.8,0.2,1.2,0.3c0.3,0.1,0.5,0.1,0.8,0.2c0.4,0.1,0.9,0.2,1.3,0.2c0.2,0,0.4,0.1,0.7,0.1
				c0.5,0.1,0.9,0.1,1.4,0.2c0.2,0,0.4,0.1,0.6,0.1c0.5,0.1,1,0.1,1.5,0.2c0.2,0,0.3,0,0.5,0.1c0.5,0.1,1.1,0.1,1.6,0.1
				c0.1,0,0.2,0,0.4,0c0.6,0,1.1,0.1,1.7,0.1c0.1,0,0.2,0,0.3,0c0.6,0,1.2,0,1.8,0c0.1,0,0.1,0,0.2,0c0.6,0,1.2,0,1.9,0
				c0,0,0.1,0,0.1,0c0.6,0,1.3,0,1.9-0.1c0,0,0,0,0.1,0c0.7,0,1.3-0.1,1.9-0.1c0,0,0,0,0,0c0.6,0,1.3-0.1,1.9-0.2c0,0,0,0,0,0
				c0.6-0.1,1.3-0.1,1.9-0.2c0.1,0,0.1,0,0.2,0c0,0,0.1,0,0.1,0c0,0,0,0,0,0c0.1,0,0.1,0,0.2,0c0,0,0,0,0.1,0c0.1,0,0.1,0,0.2,0
				c0,0,0,0,0.1,0c0.1,0,0.2,0,0.3,0c0,0,0,0,0,0c0,0,0,0,0,0c0,0,0,0,0.1,0c0,0,0.1,0,0.1,0c0,0,0,0,0.1,0c0,0,0.1,0,0.1,0.1
				c0,0,0,0,0,0c0,0,0,0.1,0,0.1c0,1.1,0,2.3,0.1,3.4c0.1,0.2,0.3,0.3,0.4,0.5c0.8,1,1.6,2,2.3,3.1c0.6,0.8,1.1,1.6,1.6,2.4
				c0.4,0.6,0.8,1.3,1.1,1.9c0-0.5,0.1-1,0.2-1.5c0.4-2.9,1.2-5.8,2.1-8.5c-0.1-0.3-0.2-0.6-0.3-0.9c-0.1-0.2-0.1-0.4-0.2-0.6
				c-0.2-0.4-0.3-0.8-0.4-1.2c-0.1-0.2,0.4-0.4,0.5-0.5c10-3.3,20.8-8.4,26.3-17.9c1.6-2.8,3.1-6.3,2.9-9.7c0-0.6,1.4-0.7,1.8-0.6
				c0.2,0,0.4,0,0.6,0c0.2,0,0.4,0,0.6,0c0,0,0.1,0,0.1,0c0.2,0,0.4,0,0.6,0c0,0,0.1,0,0.1,0c0.5,0,0.9,0,1.4,0c0,0,0,0,0,0
				c0.2,0,0.4,0,0.6,0c0,0,0.1,0,0.1,0c0.2,0,0.4,0,0.6-0.1c0,0,0.1,0,0.1,0c0.2,0,0.4-0.1,0.6-0.1c0,0,0,0,0,0
				c0.4-0.1,0.8-0.3,1.2-0.5c0,0,0,0,0,0c0.2-0.1,0.3-0.2,0.5-0.3c0,0,0,0,0,0c0.2-0.1,0.3-0.3,0.4-0.4h0c0.1-0.2,0.3-0.4,0.4-0.6
				C509.4,109.8,509.2,107.4,508.7,105.9z"/>
			<path class="st21" d="M396.7,114.6c-0.1,0-0.3-0.1-0.5-0.1c-1.2-0.3-2.4-0.5-3.6-0.6c-0.9-0.1-1.8-0.2-2.8-0.3
				c-1.5-0.1-3.5-0.6-5.1-0.3c0,0.1,0.1,0.2,0.1,0.3c0.1,0.5-0.2,1.2-0.2,1.8c0,0.5,0.1,1,0.2,1.4c0.1,0.4,0.4,0.8,0.7,1.1
				c0.3,0.2,0.6,0.4,1.1,0.6c0.5,0.2,1.1,0.3,1.8,0.3c1,0.1,2.1,0.1,3,0.1c0.2,0,0.3,0,0.5,0c0.2,0,1.1,0.2,0.8,0.6
				c-1.2,1.9-1.7,4.1-1.6,6.4c0,0.9-3.2,1.3-3.3,0.5c-0.1-1.8,0.2-3.5,0.8-5.1c-0.7,0.6-1.5,1.3-2.2,1.9c-2.9,2.4-5.9,5.6-9.4,7.3
				c0,0,0,0,0,0c1.3,3.2,3.6,6.2,6.3,8.3c5.4-3,10-7.6,13.6-12.4c0.1-0.5,0.2-1.1,0.2-1.6c0.1-0.9,0.3-1.9,0.4-2.8
				c0.1-1.1,0.3-2.3,0.4-3.5c0-0.6,0-1.2,0-1.7C398,115.2,397.8,114.9,396.7,114.6z"/>
			<path class="st21" d="M387.1,119.9c-1.7-0.2-3.4-0.5-4.5-1.3c-0.5-0.3-0.8-0.7-1.1-1.1c-0.5-0.9-0.5-2.2,0.2-3.9
				c1.2-2.7,6.7-1.9,9.8-1.4c-0.5-0.7-1-1.3-1.5-1.9c-2.8-3.4-5.9-6.4-10.2-3.4c-2.9,2-5.4,4.6-7.7,7.4c-1.2,1.5-3.2,3.5-3.2,5.5
				c0,2.7,2.2,5.6,4,7.7c0.2,0.3,0.5,0.5,0.7,0.8c1.2,1.5,1.2,1.5,2.8,0.4c0.1-0.1,0.1-0.1,0.2-0.2c1-0.7,1.9-1.5,2.9-2.2
				C382,124.2,384.6,122.1,387.1,119.9z"/>
			<path class="st21" d="M487,152.4c-1.8-1.3-1.9-1.4-3.6-0.2c-3.3,2.3-5.7,6-3.8,10c0.9,1.9,2.4,3.6,4.1,4.9c2.1-1.3,4.1-2.7,6.2-4
				c0.2-2.2,0.2-4.6-0.3-6.8C489.2,154.3,488.5,153.4,487,152.4z"/>
		</g>
		<path class="st39" d="M468.6,110.8c-6.5,1.5-12.9,3.1-19.3,4.7c0.7,4,1.9,8.2,4.7,11.3c4.2,4.6,13.1,4.8,15.9-1.4
			C471.9,120.9,470.5,115.1,468.6,110.8z"/>
		<path class="st22" d="M470.8,109.9c-0.2-0.5-1.2-0.3-1.6-0.2c-7.1,1.6-14.1,3.4-21.2,5.1c-0.6,0.1-1.3,0.3-1.3,0.7
			c0.8,5,2.6,10.6,7,13.7c3.9,2.7,9.4,2.4,13.6,0.6C475.3,126.3,473.8,116.4,470.8,109.9z M468.6,110.8c1.9,4.3,3.3,10.2,1.3,14.6
			c-2.9,6.1-11.8,6-15.9,1.4c-2.8-3.1-4-7.3-4.7-11.3C455.7,113.8,462.1,112.2,468.6,110.8z"/>
		<path class="st22" d="M448.1,109.3c-2.2-0.1-4.7-1.9-6.1-3.6c0.5-0.2,1-0.5,1.6-0.7c0.9-0.4,2-0.6,2.8-1.2
			c2.1-1.4,1.7-5.4,1.6-7.6c0-0.6-2.6-0.4-2.5,0.4c0.1,1.7,0.1,3.6-0.3,5.3c-0.6,2.2-3.6,2.7-5.5,3.6c-0.2,0.1-0.4,0.3-0.3,0.5
			c1.9,2.2,4.6,4.2,7.6,4.3C447.7,110.3,449.7,109.4,448.1,109.3z"/>
		<path class="st22" d="M439.5,88.2c-3.3-4.6-9.2-3.7-12.6,0.2c-0.6,0.7,1.8,0.6,2.2,0.2c1.1-1.2,2.5-2.8,4.3-2.6
			c0.8,0.1,1.6,0.6,2.2,1.1c0.6,0.5,1.2,1.1,1.7,1.7C437.6,89.3,439.9,88.7,439.5,88.2z"/>
		<path class="st22" d="M471.8,81.5c-4.4-2.9-11.7-3.7-14,2.3c-0.2,0.6,2.1,0.5,2.4-0.1c0.3-0.9,0.9-1.7,1.5-2.3
			c2.4-2.4,5.5-0.7,8,0.9C470.3,82.6,472.5,82,471.8,81.5z"/>
		<g>
			<path class="st22" d="M432.1,97.8c-0.5,0.3-0.9,0.8-1.2,1.4c-0.4-0.2-0.7-0.6-0.9-0.9c-0.4-0.5-2.7,0-2.3,0.6
				c0.7,1,1.7,1.5,2.8,1.7c-0.2,0.7-0.3,1.5-0.3,2.3c-0.4-0.1-0.7-0.2-1-0.5c-0.4-0.5-2.7,0-2.3,0.6c0.6,0.8,2,1,2.9,1
				c0.1,0,0.2,0,0.4,0c0.2,3.2,1.6,6,4.1,4.6c2.3-0.8,2.8-5,2.6-6.9C436.8,99.1,435,96,432.1,97.8z"/>
			<path class="st22" d="M473.7,94c-0.5-0.1-1.3,0-1.7,0.2c-0.6,0.4-1.3,0.7-2,0.9c-0.1-0.6-0.3-1.1-0.6-1.6
				c1.2-0.9,2.5-1.9,3.2-3.3c0.3-0.5-2-0.5-2.4,0.1c-0.4,0.7-0.9,1.3-1.6,1.9c-1.1-1.5-2.7-2.3-4.6-1.2c-2.6,1.5-2.2,7.8-1,9.9
				c1.1,1.9,3.6,1.7,5.3,0.8c1.6-1,2.1-3.4,1.8-5.7c1.3-0.3,2.5-0.8,3.7-1.4C474.2,94.4,474.1,94.1,473.7,94z"/>
		</g>
		<g>
			<path class="st24" d="M497.7,200.4c-0.8-3-1.3-6.2-1.7-9.3c-5.9-5.9-10.9-13.1-15.8-19.9c-1,1.1-2,2.2-3,3.2
				c-1.1,1.1-2.4,3-4,3.6c-0.2,0.3-0.8,0.4-1.1,0.4c-2.8,0.4-6.6-3-8.7-4.3c-3.3-2-7.5-4.1-10.2-6.9c-0.1-0.1-0.1-0.2,0-0.2
				c0.4-0.6,1.5-2,2.3-3.3c-0.2,0-0.3-0.1-0.3-0.3c0-0.7,0.1-1.4,0.1-2.2c-1.1-0.7-3-1.7-3.6-2.1c-0.1-0.1-0.2-0.2-0.2-0.3
				c1-2.4,2-4.8,3-7.1c-2.6,0.5-5.2,0.6-7.8,0.7c-7.9,0.2-16.8-0.3-24.1-3.7c-7.8-3.6-14.8-9.8-20.3-16.7c-0.8-0.9-1.5-1.9-2.2-2.9
				c-0.3-0.5-0.7-0.9-1-1.4c-0.2,0.2-0.4,0.4-0.6,0.7c-0.7,0.8-1.3,1.5-2,2.3c-2.1,2.3-4.5,4.3-7,6.2c-1.1,0.8-2.3,1.6-3.5,2.2
				c-0.4,0.3-0.8,0.4-1,0.5c-0.9,0.4-0.6,0.1,0.5,1.1c0.5,0.4,0.9,0.7,1.4,1.1c0.4,0.4,0.8,0.7,1.2,1.1c3.1,2.9,6,6.1,9.5,8.7
				c2.1,1.6,4.3,3,6.5,4.3c13.6,8.1,28.4,13.8,44.3,15.4c0.2,0,0.9,0.1,0.9,0.4c0.2,8,1.1,16,2.6,23.9c0.7,3.4,2.1,7.1,1.8,10.7
				c-0.2,2.5-0.8,4.9-1.4,7.3c-0.1,0.2-0.2,1-0.4,1.4c0.6,0,1.8,0.3,2.2,0.3c6,0.6,16.3,1.2,17.8-6.4c0-0.1,0-0.2,0.1-0.2
				c0.3-0.7,3.4-1,3.2-0.3c0,0.1,0,0.1,0,0.2c0,0,0,0,0,0c-0.1,0.3,2.8,2.1,3.1,2.3c3.2,1.9,5.9,2.8,9.7,2.6c4.9-0.3,9.3-2,13.9-3.1
				c-0.4-0.4-0.6-1.3-0.9-1.8C499.5,206,498.4,203.2,497.7,200.4z"/>
			<path class="st24" d="M509.2,183.1c-0.4-2.8-2.3-5.9-3.3-8.5c-3.2-8-6.3-16-9.6-23.9c-0.3-0.6-0.6-2.1-1.1-2.5
				c-1-0.9-3.8-0.6-5.1-0.7c-3.2-0.2-6.4-0.3-9.6-0.3c0.2,0.2,0.4,0.4,0.6,0.7c0.8,0.9,1.5,1.9,2.3,2.8c0.1,0,0.2-0.1,0.3-0.1
				c2.6-1,5.5,0.4,7.2,2.5c1.5,1.9,1.7,5,1.6,7.7c0.6-0.3,1.8-0.5,2-0.1c3,4.8,6.2,9.6,9,14.5c0.4,0.6-2,1.1-2.3,0.6
				c-2.6-4.5-5.4-8.9-8.2-13.3c-0.2,0.2-0.5,0.3-0.7,0.5c-0.1,0.1-0.2,0.2-0.4,0.3c-0.7,0.4-1.3,0.8-2,1.3c-1.8,1.3-3.7,2.7-5.5,4
				c-0.2,0.1-0.3,0.3-0.5,0.4c-0.3,0.2-1.5,0.8-1.8,1.2c0.1,0,0.2,0.1,0.4,0.5c0.7,1.7,2.4,3.3,3.4,4.7c3.1,4.1,6.2,8.3,9.6,12.1
				c0.6,0.6,1.1,1.3,1.7,1.9c0.7,0.8,1.4,1.6,2.1,2.2c1.1,0.9,2.3,1.4,3.8,0.5c0.4-0.2,0.8-0.4,1.3-0.8c1.6-1.2,4.1-4.1,4.7-6.6
				C509.2,184.2,509.3,183.6,509.2,183.1z"/>
			<path class="st24" d="M481.1,167.4C481.1,167.4,481.1,167.4,481.1,167.4c-2.6-2.2-5.2-5.4-4.6-8.9c0.2-1.5,1-3,2.1-4.3
				c-0.7-0.1-1.4-0.1-2.1-0.1c-0.4,2.8-0.7,5.6-1.1,8.4c-0.3,2.6-0.6,5.2-1,7.8c-0.1,0.9-0.2,1.8-0.3,2.7c-0.1,0.6-0.4,1.7-0.5,2.7
				c0.7-0.7,1.3-1.4,2-2C477.4,171.6,479.3,169.6,481.1,167.4z"/>
			<path class="st24" d="M460.4,170.3c2.4,1.6,4.9,3.2,7.4,4.7c0.8,0.5,1.6,0.9,2.4,1.4c-0.2-0.5-0.5-1.1-0.8-1.6
				c-0.3-0.6-0.6-1.1-0.7-1.4c-1.4-3.1-2.8-6.3-4.2-9.4c-0.8-1.8-1.6-3.7-2.5-5.5c-0.7,0.8-1.5,1.5-2.2,2.3
				c-0.7,0.8-1.4,1.5-2.1,2.3c-1,1.3-2.3,3.2-2.2,3.9C455.7,167.8,459.7,169.8,460.4,170.3z"/>
			<path class="st24" d="M454,158.6c0,0,0.1,0.1,0.1,0.2c0.2,0.4,0.7,0.7,1.2,1c0.3-2.9,0.9-5.9,1.7-8.7c0.1-0.3,0.2-0.7,0.3-1
				c-0.2,0.3-0.4,0.7-0.6,1.1c-0.7,1.5-1.1,3.2-1.8,4.7c-0.3,0.6-0.9,1.6-0.9,2.3C454.1,158.4,454.1,158.6,454,158.6z"/>
		</g>
		<g>
			<path class="st2" d="M460.6,147.8c-0.1,0.2-0.1,0.3-0.2,0.5c-0.4,1.2-0.8,2.4-1.1,3.6c-0.7,2.7-1.2,5.6-1.5,8.4
				c1.1-1.3,2.3-2.7,3.6-3.6c0.3-0.2,0.6-0.4,0.9-0.6c0.4-0.2,0.9-0.4,1.3-0.4c0.9-0.1,1.7,0.1,2.6,0.5
				C464.6,153.3,462.7,150.4,460.6,147.8z"/>
			<path class="st2" d="M470.3,159c-0.3,0.3-2.2,0.8-2.3,0.1c0-0.1,0-0.3,0-0.4c-0.3,0-0.5,0-0.6-0.1c-0.6-0.3-2.2-0.7-3.1-1.2
				c0.9,2.1,1.8,4.1,2.8,6.2c1.4,3.1,2.8,6.3,4.2,9.4c0.1,0.2,0.2,0.4,0.4,0.7c0.1-0.3,0.1-0.5,0.1-0.7c0.4-3.4,0.8-6.7,1.3-10.1
				c0.3-2.5,0.6-5,1-7.5c-0.4,0.4-0.8,0.7-1.1,1.1C471.9,157.3,471.1,158.2,470.3,159z"/>
			<path class="st2" d="M480.8,151.8c-0.3-0.4-0.6-0.7-0.9-1c-0.1-0.1-0.3-0.3-0.4-0.4c-0.3-0.3-0.5-0.6-0.8-0.8
				c-0.1-0.1-0.2-0.3-0.4-0.4c-0.4-0.4-0.8-0.8-1.2-1.1c-0.4-0.3-0.8-0.7-1.2-1c-0.4-0.3-0.8-0.6-1.2-0.9c-0.7-0.5-1.4-1-2.1-1.5
				c0,0,0,0.1,0,0.1c-0.2,0.6-0.4,1.2-0.6,1.8c0,0.1,0,0.1-0.1,0.2c-0.2,0.6-0.4,1.2-0.5,1.8c-0.5,1.8-0.9,3.7-1,5.6
				c0,0,0,0.1,0,0.1c-0.1,0.6-0.1,1.2-0.1,1.8c0,0.1,0,0.2,0,0.4c0.5-0.5,1-1.1,1.5-1.5c0,0,0,0,0,0c0,0,0,0,0,0
				c0.2-0.1,0.3-0.3,0.5-0.4c0,0,0.1-0.1,0.1-0.1c0.1-0.1,0.3-0.2,0.4-0.3c0.1,0,0.1-0.1,0.2-0.1c0.1-0.1,0.3-0.2,0.4-0.2
				c0.1,0,0.1-0.1,0.2-0.1c0.2-0.1,0.4-0.2,0.6-0.2c0.1,0,0.3-0.1,0.4-0.1c0.7-0.1,1.3-0.2,2-0.2c0.5,0,1,0,1.5,0c0.1,0,0.1,0,0.2,0
				c0.4,0,0.9,0.1,1.3,0.1c0.4-0.4,0.9-0.8,1.4-1.1C481,152,480.9,151.9,480.8,151.8z"/>
		</g>
		<g>
			<path class="st23" d="M508.9,126.1c-0.7-3.6-1.3-8.2-2.5-12.2c-1.6,0.4-3.3,0.5-5,0.5c0,3.1-1.3,6.4-2.8,9
				c-3.8,6.7-10.3,11.4-17.1,14.7c-2.4,1.2-5,2.3-7.6,3.2c-1.8,0.6-2.2,0.6-2,1.4c0.2,0,0.4,0,0.6,0c0.2,0,0.3,0,0.4,0.1
				c1.4,0.8,2.8,1.7,4.1,2.6c1.3,0.2,1.9,0.4,2.4,0.8c0.1,0,0.2,0,0.3,0c4,0,8.1,0.1,12.1,0.4c2.4,0.2,4.8-0.1,6,2.1
				c0.9,1.6,1.6,3.2,2.4,4.9c1-1.3,1.8-2.9,2.4-4.1c0.3-0.6,0.7-2,1.4-2.3c0.3-0.2,2-0.6,2.1,0c0.4,2.5,1.3,4.9,2.1,7.3
				c1-1.6,1.6-3.4,2.1-5.1C512.4,141.9,510.4,133.6,508.9,126.1z"/>
			<path class="st23" d="M428.8,140.8c-0.1,2.7-0.3,5.3-0.6,8c5.1,1.7,10.5,2.3,16.1,2.4c3.3,0.1,7.8-0.1,10.8-0.8
				c0.6-1.6,1-2,3-2.9c0.1,0,0.2-0.1,0.4-0.2c0.2-0.5,0.4-1,0.6-1.5c0.1-0.2,0.5-0.4,1-0.5c0-0.4,0-0.8,0-1.1
				C450.1,145.2,438.3,144.9,428.8,140.8z"/>
			<path class="st23" d="M431.9,72.2C431.9,72.2,431.9,72.2,431.9,72.2C431.9,72.2,431.9,72.2,431.9,72.2c0.2-0.2,0.4-0.3,0.6-0.5
				c0.3-0.2,0.6-0.4,0.8-0.6c0.4-0.3,1.5-0.5,1.9-0.2c16.2,9.7,36.7,13.6,55.2,14.8c0.2,0,0.6,0.1,0.7,0.3
				c1.8,5.1,3.6,10.2,5.8,15.1c0.4,0.8,0.8,1.6,1.3,2.3c0.1-0.1,0.2-0.1,0.3-0.2c0.2-0.3,0.7-0.5,1.3-0.8c0,0,0,0,0,0
				c0.1,0,0.2-0.1,0.3-0.1c0,0,0,0,0,0c0.1,0,0.2-0.1,0.3-0.1c0,0,0,0,0,0c0.2-0.1,0.3-0.1,0.4-0.2c0.8-0.3,1.7-0.5,2.5-0.6
				c0,0,0,0,0,0c0.4,0,0.8-0.1,1.2-0.1c0,0,0,0,0,0c0.9,0,1.7,0,2.5,0.2c0-0.5,0.1-1,0.1-1.5c0-0.3,0-0.6,0-0.9c0-0.2,0-0.5,0-0.7
				c0-0.3,0-0.6,0-1c0-0.2,0-0.4,0-0.6c0-0.3,0-0.7,0-1c0-0.1,0-0.3,0-0.4c-0.1-1.8-0.3-3.7-0.5-5.5c-0.1-0.9-0.3-1.7-0.4-2.6
				c-0.1-0.7-0.3-1.3-0.4-1.9c0,0,0-0.1,0-0.1c-0.1-0.6-0.3-1.2-0.5-1.9c-0.5-1.7-1.1-3.5-1.7-5.1c0,0,0,0,0,0
				c-0.2-0.6-0.5-1.1-0.7-1.6c-0.5-1.1-1.1-2.2-1.7-3.3c-0.6-1-1.2-2-1.8-3c0,0,0,0,0,0c-0.3-0.5-0.7-0.9-1-1.4c0,0,0-0.1-0.1-0.1
				c-0.3-0.4-0.7-0.9-1-1.3c-0.1-0.1-0.1-0.1-0.2-0.2c-0.3-0.4-0.6-0.8-1-1.1c-0.1-0.1-0.2-0.2-0.3-0.3c-0.3-0.3-0.6-0.6-0.9-0.9
				c-0.2-0.2-0.4-0.4-0.6-0.6c-0.2-0.2-0.4-0.4-0.7-0.7c-0.4-0.4-0.9-0.8-1.4-1.2c-11.5-9.6-28.3-13.5-42.7-9.3
				c-5.1,1.5-10.1,3.9-14.2,7.3c-1.1,1-2.1,2.2-3.3,3c-1.2,0.8-2.7,1.3-4,2.2c-0.3,0.2-0.7,0.5-1,0.7c-0.1,0.1-0.2,0.2-0.3,0.3
				c-0.2,0.2-0.4,0.3-0.6,0.5c-0.1,0.1-0.2,0.2-0.4,0.3c-0.2,0.2-0.3,0.3-0.5,0.5c-0.1,0.1-0.3,0.3-0.4,0.4
				c-0.2,0.2-0.3,0.3-0.5,0.5c-0.1,0.1-0.3,0.3-0.4,0.4c-0.1,0.1-0.3,0.3-0.4,0.4c-0.1,0.2-0.3,0.3-0.4,0.5
				c-0.1,0.1-0.2,0.3-0.4,0.4c-0.1,0.2-0.2,0.3-0.4,0.5c-0.1,0.1-0.2,0.3-0.3,0.4c-0.1,0.2-0.2,0.4-0.4,0.5
				c-0.1,0.1-0.2,0.3-0.3,0.4c-0.1,0.2-0.2,0.4-0.4,0.6c-0.1,0.1-0.2,0.3-0.3,0.4c-0.1,0.2-0.2,0.4-0.3,0.6
				c-0.1,0.1-0.1,0.3-0.2,0.4c-0.1,0.2-0.2,0.4-0.3,0.7c-0.1,0.1-0.1,0.2-0.2,0.4c-0.1,0.2-0.2,0.5-0.3,0.7
				c-0.1,0.1-0.1,0.2-0.2,0.4c-0.1,0.2-0.2,0.5-0.3,0.7c0,0.1-0.1,0.2-0.1,0.3c-0.1,0.3-0.2,0.5-0.3,0.8c0,0.1-0.1,0.2-0.1,0.3
				c-0.1,0.3-0.2,0.5-0.2,0.8c0,0.1-0.1,0.2-0.1,0.3c-0.1,0.3-0.1,0.6-0.2,0.9c0,0.1,0,0.2-0.1,0.2c-0.1,0.3-0.1,0.6-0.2,0.9
				c0,0.1,0,0.1,0,0.2c-0.1,0.3-0.1,0.6-0.2,0.9c0,0.1,0,0.1,0,0.2c0,0.3-0.1,0.7-0.1,1c0,0.1,0,0.1,0,0.2c0,0.3-0.1,0.7-0.1,1
				c0,0,0,0.1,0,0.1c0,0.3,0,0.7,0,1.1c0,0,0,0.1,0,0.1c0,0.4,0,0.7,0,1.1c0,0,0,0,0,0.1c0,0.4,0,0.7,0,1.1c0,0,0,0,0,0
				c0,0.4,0.1,0.7,0.1,1.1c0,0,0,0,0,0c0,0.4,0.1,0.8,0.1,1.1c0,0,0,0,0,0c0.1,0.4,0.1,0.8,0.2,1.1c0,0,0,0,0,0
				c0.4,2.3,1.1,4.5,2.1,6.6c0.1,0.2,0.2,0.4,0.2,0.5c0.7-3.7,1.6-7.3,2.6-10.9c0.1-0.5,0.3-1,0.5-1.5c0-0.1,0.1-0.2,0.1-0.3
				c0.1-0.5,0.3-0.9,0.5-1.4c0-0.1,0-0.1,0.1-0.2c0.4-1.1,0.8-2.3,1.2-3.4c0,0,0,0,0,0C426.7,78.2,428.8,74.6,431.9,72.2z"/>
		</g>
		<path class="st22" d="M507.3,171.7c-2.1-5.3-3.9-11.1-6.2-16.5c0.8-0.7,1.5-1.6,2.1-2.5c0.3-0.4,0.8-1.4,1.3-2.5
			c0.6,2.2,1.4,4.3,2,6.5c0.2,0.7,1.9,0.2,2.3-0.1c8.1-6.2,4.3-21.6,2.8-29.6c-0.8-4.1-1.4-9.4-2.9-14c2.6-1.3,4-3.8,2.1-8.3
			c-0.3-0.8-0.8-1.5-1.4-1.9c2.3-16.3-4.7-34.1-18.5-43.3c-11.6-7.7-26.4-10.5-40-7.3c-5.2,1.2-10.2,3.3-14.7,6.2
			c-2.9,1.9-5,4.4-8,6c-13.7,7.4-17.3,25.9-8.9,38.6c-0.2,1.8-0.3,3.2-1.2,4.8c-2.4,4.7-4.2,9.7-3.9,15.1c0.4,6.1,3.8,11.6,8.9,15
			c1,0.7,2.1,1.3,3.2,1.8c0,2.8-0.2,5.6-0.4,8.3c-2.1-0.9-4.2-1.9-6.2-3.3c-7.4-5-13.9-11.9-18.9-19.3c-0.1-0.3-0.2-0.7-0.3-1
			c0.4-2.5,0.7-5.1,0.7-7.6c0-1.7,0-2.5-1.6-3.2c-1.3-0.6-2.8-0.8-4.3-1c-3.2-4.9-8-10.5-14.2-8.5c-3.6,1.2-6.7,4-9.3,6.6
			c-2.1,2.1-5.9,5.5-6.4,8.7c-0.5,3.1,3,7.9,5.1,9.8c1,0.9,2.1,1.4,3.2,1.6c1.5,3.5,4.2,6.7,7.2,9c-0.1,0.1-0.1,0.2,0,0.4
			c11.8,12.6,26.1,22.1,42.6,27.3c6.9,2.2,14.1,3.9,21.3,4.8c0.3,0,1.4,0,1.6,0.2c-0.4-0.3-0.6,3.2-0.6,3.5c0.1,1.7,0.2,3.5,0.4,5.2
			c0.5,5.1,1.2,10.2,2.2,15.3c0.5,2.8,1.6,5.7,1.8,8.5c0.2,3.4-1.1,7.3-1.9,10.6c-0.1,0.3,0.2,0.5,0.5,0.5c6.9,1.1,20.7,2.5,25-4.9
			c2.6,1.6,6.7,3,7.7,3.2c6.1,1,12.8-0.7,18.6-2.4c0.9-0.3,3.9-0.7,4.4-1.4c0.8-1.2-0.7-2.9-1.3-4.1c-1.9-4.1-3-8.5-3.7-13
			c1.1,0.4,2.4,0.3,3.9-0.3c0,0,0,0,0,0c1.6-0.5,3-1.7,4.2-3c1.4-1.3,2.6-2.8,3.2-4.2c0.7-1.2,1.1-2.3,0.6-3.9
			C510.3,178.7,508.6,175.2,507.3,171.7z M508.9,126.1c1.4,7.5,3.4,15.8,1.5,23.3c-0.4,1.6-1.1,3.5-2.1,5.1
			c-0.8-2.4-1.7-4.8-2.1-7.3c-0.1-0.7-1.8-0.2-2.1,0c-0.7,0.3-1.1,1.7-1.4,2.3c-0.6,1.2-1.4,2.8-2.4,4.1c-0.7-1.7-1.5-3.3-2.4-4.9
			c-1.2-2.2-3.6-1.9-6-2.1c-4-0.3-8.1-0.4-12.1-0.4c-0.1,0-0.2,0-0.3,0c-0.6-0.5-1.2-0.7-2.4-0.8c-1.3-1-2.7-1.9-4.1-2.6
			c-0.1-0.1-0.2-0.1-0.4-0.1c-0.2,0-0.4,0-0.6,0c-0.2-0.7,0.2-0.8,2-1.4c2.6-0.9,5.2-2,7.6-3.2c6.8-3.3,13.3-8.1,17.1-14.7
			c1.5-2.6,2.8-5.9,2.8-9c1.7,0,3.4-0.2,5-0.5C507.7,117.9,508.3,122.5,508.9,126.1z M462.6,150.6c1.3,1.8,2.4,3.6,3.4,5.5
			c0,0,0,0.1,0,0.1c0,0,0,0,0,0c-0.6-0.2-1.2-0.4-1.7-0.5c-0.3,0-0.6-0.1-0.8,0c-0.1,0-0.1,0-0.2,0c-0.4,0.1-0.7,0.2-1.1,0.4
			c-0.1,0-0.1,0.1-0.2,0.1c-0.2,0.1-0.5,0.3-0.7,0.5c-1.3,0.9-2.5,2.3-3.6,3.6c0.1-1,0.2-2.1,0.4-3.1c0-0.2,0-0.3,0.1-0.5
			c0-0.2,0-0.3,0.1-0.5c0,0,0-0.1,0-0.1c0.2-1.1,0.5-2.3,0.7-3.4c0.1-0.3,0.1-0.6,0.2-0.8c0.2-0.6,0.3-1.2,0.5-1.7
			c0.1-0.4,0.3-0.8,0.4-1.2c0.1-0.2,0.1-0.4,0.2-0.6c0,0,0-0.1,0-0.1c0.1-0.2,0.1-0.3,0.2-0.5c0.3,0.3,0.5,0.7,0.8,1
			c0.3,0.4,0.7,0.8,1,1.3C462.4,150.3,462.5,150.4,462.6,150.6L462.6,150.6z M459.1,145.8c-0.2,0.5-0.4,1-0.6,1.5
			c-0.2,0.1-0.3,0.1-0.4,0.2c-2,0.9-2.4,1.4-3,2.9c-3,0.7-7.5,0.9-10.8,0.8c-5.6-0.1-11-0.7-16.1-2.4c0.3-2.7,0.5-5.3,0.6-8
			c9.5,4.1,21.3,4.5,31.3,3.4c0,0.4,0,0.8,0,1.1C459.6,145.4,459.2,145.5,459.1,145.8z M454.7,156.6c0.1-0.2,0.2-0.5,0.3-0.7
			c0.6-1.5,1.1-3.2,1.8-4.7c0.2-0.4,0.4-0.8,0.6-1.1c-0.1,0.3-0.2,0.7-0.3,1c-0.5,1.7-0.9,3.5-1.2,5.3c0,0.2-0.1,0.3-0.1,0.5
			c0,0.1-0.1,0.3-0.1,0.4c-0.1,0.8-0.2,1.6-0.3,2.4c-0.6-0.3-1-0.7-1.2-1c-0.1-0.1-0.1-0.2-0.1-0.2c0-0.1,0-0.2,0.1-0.4
			c0-0.2,0.1-0.4,0.2-0.7c0.1-0.2,0.1-0.3,0.2-0.5C454.6,156.9,454.6,156.8,454.7,156.6z M457.8,163c0.7-0.8,1.4-1.5,2.1-2.3
			c0.7-0.8,1.5-1.5,2.2-2.3c0.8,1.8,1.6,3.7,2.5,5.5c1.4,3.1,2.8,6.3,4.2,9.4c0.1,0.3,0.4,0.8,0.7,1.4c0.3,0.5,0.6,1,0.8,1.6
			c-0.8-0.5-1.6-0.9-2.4-1.4c-2.5-1.5-5-3.1-7.4-4.7c-0.7-0.5-4.7-2.4-4.9-3.4C455.4,166.2,456.8,164.3,457.8,163z M467,163.6
			c-0.5-1-0.9-2-1.4-3c-0.5-1-0.9-2.1-1.4-3.1c0.5,0.3,1.2,0.5,1.8,0.7c0.1,0,0.2,0.1,0.3,0.1c0.4,0.1,0.7,0.3,1,0.4
			c0.1,0,0.3,0.1,0.6,0.1c0,0.1,0,0.3,0,0.4c0.1,0.7,2,0.2,2.3-0.1c0.4-0.4,0.9-0.9,1.3-1.3c0.3-0.3,0.5-0.5,0.8-0.8
			c0.1-0.1,0.3-0.3,0.4-0.4c0,0,0,0,0.1-0.1c0.2-0.2,0.3-0.3,0.5-0.5c0.2-0.2,0.4-0.4,0.6-0.6c0,0.2,0,0.4-0.1,0.6
			c0,0.2,0,0.3-0.1,0.5c0,0.2,0,0.3-0.1,0.5c-0.2,1.8-0.5,3.6-0.7,5.5c0,0.2,0,0.4-0.1,0.5c0,0.2,0,0.3-0.1,0.5
			c-0.4,3.2-0.8,6.4-1.2,9.6c0,0.2-0.1,0.4-0.1,0.7c-0.2-0.3-0.3-0.5-0.4-0.7C469.8,169.9,468.4,166.8,467,163.6z M474.1,173
			c0.1-0.9,0.2-1.8,0.3-2.7c0.3-2.6,0.6-5.2,1-7.8c0.2-1.9,0.5-3.8,0.7-5.6c0-0.2,0-0.3,0.1-0.5c0-0.2,0-0.3,0.1-0.5
			c0.1-0.6,0.2-1.2,0.2-1.8c0.7,0,1.4,0.1,2.1,0.1c-0.4,0.5-0.8,1.1-1.2,1.7c-0.1,0.2-0.2,0.3-0.2,0.5c-0.1,0.2-0.2,0.3-0.2,0.5
			c-0.2,0.5-0.4,1.1-0.5,1.6c-0.5,3.5,2,6.7,4.7,8.8c0,0,0,0-0.1,0.1c-1.8,2.1-3.7,4.2-5.6,6.2c-0.6,0.7-1.3,1.4-2,2
			C473.7,174.7,474,173.6,474.1,173z M479.6,162.1c-0.9-1.8-0.8-3.5-0.2-5.1c0.1-0.2,0.1-0.3,0.2-0.5c0.1-0.2,0.1-0.3,0.2-0.5
			c0.3-0.5,0.6-1,1-1.5c0.3-0.4,0.6-0.7,1-1c0.1-0.1,0.1-0.1,0.2-0.2c0.4-0.4,0.8-0.7,1.3-1.1c0,0,0.1-0.1,0.1-0.1
			c0.2-0.1,0.3-0.2,0.5-0.3c0.1-0.1,0.2-0.1,0.3-0.2c1.1-0.6,1.4-0.3,2.9,0.7c1.5,1,2.1,1.9,2.6,3.7c0,0,0,0.1,0,0.1
			c0,0.1,0,0.2,0.1,0.3c0,0.2,0.1,0.3,0.1,0.5c0.1,0.8,0.2,1.6,0.3,2.4c0,0.9,0,1.7,0,2.6c0,0.3,0,0.7-0.1,1
			c-0.9,0.6-1.9,1.2-2.8,1.8c-1.1,0.7-2.2,1.4-3.3,2.1c0,0-0.1,0.1-0.1,0.1c-0.2-0.2-0.4-0.4-0.6-0.6c-0.2-0.2-0.4-0.4-0.6-0.5
			C481.3,164.8,480.3,163.5,479.6,162.1z M479.6,153.2c-0.4,0-0.9-0.1-1.3-0.1c-0.1,0-0.1,0-0.2,0c-0.5,0-1,0-1.5,0
			c-0.4,0-0.8,0-1.2,0.1c-0.3,0-0.6,0.1-0.8,0.1c0,0-0.1,0-0.1,0c-0.1,0-0.2,0-0.3,0.1c-0.2,0.1-0.4,0.1-0.6,0.2
			c-0.1,0-0.1,0.1-0.2,0.1c-0.1,0.1-0.3,0.1-0.4,0.2c-0.1,0-0.1,0.1-0.2,0.1c-0.1,0.1-0.3,0.2-0.4,0.3c0,0-0.1,0.1-0.1,0.1
			c-0.2,0.1-0.3,0.3-0.5,0.4c0,0,0,0,0,0c0,0,0,0,0,0c-0.4,0.4-0.8,0.8-1.1,1.2c-0.1,0.1-0.2,0.2-0.3,0.4c0-0.1,0-0.2,0-0.4
			c0,0,0,0,0,0c0-0.6,0.1-1.2,0.1-1.8c0,0,0-0.1,0-0.1c0.2-1.9,0.6-3.8,1-5.6c0.2-0.6,0.3-1.2,0.5-1.8c0-0.1,0-0.1,0.1-0.2
			c0.2-0.6,0.4-1.2,0.6-1.8c0,0,0,0,0,0c0,0,0-0.1,0-0.1c0.7,0.5,1.4,1,2.1,1.5c0.4,0.3,0.8,0.6,1.2,0.9c0,0,0,0,0,0
			c0.4,0.3,0.8,0.7,1.2,1c0.4,0.4,0.8,0.8,1.2,1.1c0.1,0.1,0.2,0.3,0.4,0.4c0.3,0.3,0.5,0.6,0.8,0.8c0.1,0.1,0.3,0.3,0.4,0.4
			c0.3,0.3,0.6,0.7,0.9,1c0.1,0.1,0.1,0.2,0.2,0.3C480.5,152.4,480.1,152.8,479.6,153.2z M417.9,92.7
			C417.9,92.7,417.9,92.7,417.9,92.7c-0.1-0.4-0.1-0.8-0.2-1.1c0,0,0,0,0,0c-0.1-0.4-0.1-0.8-0.1-1.1c0,0,0,0,0,0
			c0-0.4-0.1-0.7-0.1-1.1c0,0,0,0,0,0c0-0.4,0-0.7,0-1.1c0,0,0,0,0-0.1c0-0.4,0-0.7,0-1.1c0,0,0-0.1,0-0.1c0-0.4,0-0.7,0-1.1
			c0,0,0-0.1,0-0.1c0-0.3,0-0.7,0.1-1c0-0.1,0-0.1,0-0.2c0-0.3,0.1-0.7,0.1-1c0-0.1,0-0.1,0-0.2c0-0.3,0.1-0.6,0.2-0.9
			c0-0.1,0-0.1,0-0.2c0.1-0.3,0.1-0.6,0.2-0.9c0-0.1,0-0.2,0.1-0.2c0.1-0.3,0.1-0.6,0.2-0.9c0-0.1,0.1-0.2,0.1-0.3
			c0.1-0.3,0.2-0.6,0.2-0.8c0-0.1,0.1-0.2,0.1-0.3c0.1-0.3,0.2-0.5,0.3-0.8c0-0.1,0.1-0.2,0.1-0.3c0.1-0.2,0.2-0.5,0.3-0.7
			c0-0.1,0.1-0.2,0.2-0.4c0.1-0.2,0.2-0.5,0.3-0.7c0.1-0.1,0.1-0.3,0.2-0.4c0.1-0.2,0.2-0.4,0.3-0.7c0.1-0.1,0.1-0.3,0.2-0.4
			c0.1-0.2,0.2-0.4,0.3-0.6c0.1-0.1,0.2-0.3,0.3-0.4c0.1-0.2,0.2-0.4,0.4-0.6c0.1-0.1,0.2-0.3,0.3-0.4c0.1-0.2,0.2-0.4,0.4-0.5
			c0.1-0.1,0.2-0.3,0.3-0.4c0.1-0.2,0.2-0.3,0.4-0.5c0.1-0.1,0.2-0.3,0.4-0.4c0.1-0.2,0.3-0.3,0.4-0.5c0.1-0.2,0.3-0.3,0.4-0.4
			c0.1-0.1,0.3-0.3,0.4-0.4c0.1-0.2,0.3-0.3,0.5-0.5c0.1-0.1,0.3-0.3,0.4-0.4c0.2-0.2,0.3-0.3,0.5-0.5c0.1-0.1,0.2-0.2,0.4-0.3
			c0.2-0.2,0.4-0.3,0.6-0.5c0.1-0.1,0.2-0.2,0.3-0.3c0.3-0.2,0.6-0.5,1-0.7c1.3-0.9,2.8-1.4,4-2.2c1.2-0.8,2.2-2.1,3.3-3
			c4.1-3.4,9.1-5.8,14.2-7.3c14.4-4.2,31.2-0.3,42.7,9.3c0.5,0.4,0.9,0.8,1.4,1.2c0.2,0.2,0.5,0.4,0.7,0.7c0.2,0.2,0.4,0.4,0.6,0.6
			c0.3,0.3,0.6,0.6,0.9,0.9c0.1,0.1,0.2,0.2,0.3,0.3c0.3,0.4,0.7,0.7,1,1.1c0.1,0.1,0.1,0.1,0.2,0.2c0.3,0.4,0.7,0.9,1,1.3
			c0,0,0,0.1,0.1,0.1c0.3,0.5,0.7,0.9,1,1.4c0,0,0,0,0,0c1.7,2.5,3.1,5.1,4.2,7.9c0,0,0,0,0,0c0.9,2.3,1.7,4.6,2.2,7
			c0,0,0,0.1,0,0.1c0.2,0.6,0.3,1.3,0.4,1.9c0.5,2.6,0.8,5.3,1,8c0,0.1,0,0.3,0,0.4c0,0.3,0,0.7,0,1c0,0.2,0,0.4,0,0.6
			c0,0.3,0,0.6,0,1c0,0.2,0,0.5,0,0.7c0,0.3,0,0.6,0,0.9c0,0.5-0.1,1-0.1,1.5c-0.8-0.2-1.7-0.2-2.5-0.2c0,0,0,0,0,0
			c-0.4,0-0.8,0-1.2,0.1c0,0,0,0,0,0c-0.4,0-0.8,0.1-1.2,0.2c-0.5,0.1-0.9,0.2-1.3,0.4c-0.1,0-0.1,0-0.2,0.1c-0.1,0-0.1,0.1-0.2,0.1
			c0,0,0,0,0,0c-0.1,0-0.2,0.1-0.3,0.1c0,0,0,0,0,0c-0.1,0-0.2,0.1-0.3,0.1c0,0,0,0,0,0c-0.5,0.2-1,0.5-1.2,0.7c0,0,0,0,0,0
			c-0.1,0.1-0.2,0.1-0.3,0.2c-0.4-0.8-0.9-1.5-1.3-2.3c-2.2-4.9-4-10-5.8-15.1c-0.1-0.3-0.4-0.3-0.7-0.3c-18.5-1.2-39-5.1-55.2-14.8
			c-0.5-0.3-1.5-0.1-1.9,0.2c-0.3,0.2-0.6,0.4-0.8,0.6c-0.2,0.2-0.4,0.3-0.6,0.5c0,0,0,0,0,0c-1.2,1-2.3,2.1-3.2,3.4
			c-1.4,1.9-2.5,4.2-3.5,6.5c0,0,0,0,0,0c-0.5,1.1-0.9,2.3-1.2,3.4c0,0.1,0,0.1-0.1,0.2c-0.2,0.5-0.3,1-0.5,1.4
			c0,0.1-0.1,0.2-0.1,0.3c-0.2,0.5-0.3,1-0.5,1.5c-1.1,3.6-2,7.2-2.6,10.9C419.1,97.5,418.3,95.1,417.9,92.7z M425,136.8
			c0,0-0.1-0.1-0.1-0.1c-0.5-0.4-0.9-0.7-1.4-1.1c-0.1,0-0.1-0.1-0.2-0.1c-0.9-0.8-1.7-1.6-2.4-2.6c-0.1-0.1-0.1-0.2-0.2-0.2
			c-0.3-0.5-0.7-0.9-1-1.4c0-0.1-0.1-0.1-0.1-0.2c-0.3-0.5-0.5-0.9-0.8-1.4c0-0.1-0.1-0.2-0.1-0.2c-0.2-0.5-0.5-1-0.7-1.6
			c0-0.1-0.1-0.2-0.1-0.3c-0.2-0.6-0.4-1.1-0.5-1.7c-0.7-2.8-0.7-5.7-0.3-8.5c0.7-4.2,3.3-7.5,4.4-11.4c0.6-2.1,0.9-4.3,1.2-6.5
			c0.6-3.3,1.4-6.6,2.3-9.8c1.7-5.9,4-13.6,9.2-17.5c12.9,7.4,28.6,11.2,43.1,13.2c3,0.4,6.1,0.9,9.1,1c2.4,0.1,2.3-0.3,3.1,1.7
			c1.2,3.2,2.3,6.4,3.6,9.5c0.7,1.8,1.8,6.2,3.5,7.3c0.5,0.3,0.9,0.3,1.5,0.3c0.4,0,0.6-0.2,0.9-0.3c0.4-0.2,0.7-0.5,0.9-0.9
			c0.9-0.6,1.8-1.1,2.7-1.3c2.7-0.6,5.3,0.1,6.2,3.2c0.4,1.5,0.7,3.9,0,5.3c-0.1,0.2-0.2,0.4-0.4,0.6h0c-0.1,0.2-0.3,0.3-0.4,0.4
			c0,0,0,0,0,0c-0.1,0.1-0.3,0.2-0.5,0.3c0,0,0,0,0,0c-0.4,0.2-0.7,0.4-1.2,0.5c0,0,0,0,0,0c0,0,0,0,0,0c-0.2,0.1-0.4,0.1-0.6,0.1
			c0,0-0.1,0-0.1,0c-0.2,0-0.4,0.1-0.6,0.1c0,0-0.1,0-0.1,0c-0.2,0-0.4,0-0.6,0c0,0,0,0,0,0c-0.5,0-0.9,0-1.4,0c0,0-0.1,0-0.1,0
			c-0.2,0-0.4,0-0.6,0c0,0-0.1,0-0.1,0c-0.2,0-0.4,0-0.6,0c-0.2,0-0.4,0-0.6,0c-0.4,0-1.8,0-1.8,0.6c0.2,3.3-1.3,6.9-2.9,9.7
			c-5.5,9.5-16.3,14.6-26.3,17.9c-0.1,0-0.6,0.2-0.5,0.5c0.1,0.4,0.3,0.8,0.4,1.2c0.1,0.2,0.1,0.4,0.2,0.6c0.1,0.3,0.2,0.6,0.3,0.9
			v0c-0.9,2.7-1.7,5.6-2.1,8.5c-0.1,0.5-0.1,1-0.2,1.5c-0.4-0.6-0.7-1.3-1.1-1.9c-0.5-0.8-1-1.6-1.6-2.4c-0.7-1.1-1.5-2.1-2.3-3.1
			c-0.1-0.2-0.3-0.3-0.4-0.5l0,0c0-1.1,0-2.3-0.1-3.4c0,0,0-0.1,0-0.1c0,0,0,0,0,0c0,0,0,0-0.1-0.1c0,0,0,0-0.1,0c0,0-0.1,0-0.1,0
			c0,0,0,0-0.1,0c0,0,0,0,0,0c-0.1,0-0.2,0-0.3,0c0,0,0,0-0.1,0c-0.1,0-0.1,0-0.2,0c0,0,0,0-0.1,0c-0.1,0-0.1,0-0.2,0c0,0,0,0,0,0
			c-0.1,0-0.1,0-0.1,0c-0.1,0-0.1,0-0.2,0c0,0,0,0,0,0c-0.6,0.1-1.3,0.1-1.9,0.2c0,0,0,0,0,0c-0.6,0.1-1.3,0.1-1.9,0.2c0,0,0,0,0,0
			c-0.6,0-1.3,0.1-1.9,0.1c0,0,0,0-0.1,0c-0.6,0-1.3,0-1.9,0.1c0,0-0.1,0-0.1,0c-0.6,0-1.2,0-1.9,0c-0.1,0-0.1,0-0.2,0
			c-0.6,0-1.2,0-1.8,0c-0.1,0-0.2,0-0.3,0c-0.6,0-1.1-0.1-1.7-0.1c-0.1,0-0.2,0-0.4,0c-0.5,0-1.1-0.1-1.6-0.1c-0.2,0-0.3,0-0.5-0.1
			c-0.5-0.1-1-0.1-1.5-0.2c-0.2,0-0.4-0.1-0.6-0.1c-0.5-0.1-1-0.1-1.4-0.2c-0.2,0-0.4-0.1-0.7-0.1c-0.4-0.1-0.9-0.2-1.3-0.2
			c-0.3-0.1-0.5-0.1-0.8-0.2c-0.4-0.1-0.8-0.2-1.2-0.3c-0.3-0.1-0.6-0.2-0.9-0.2c-0.4-0.1-0.7-0.2-1-0.3c-0.3-0.1-0.6-0.2-1-0.3
			c-0.3-0.1-0.6-0.2-0.9-0.3c-0.4-0.1-0.8-0.3-1.1-0.4c-0.2-0.1-0.5-0.2-0.7-0.3c-0.6-0.2-1.2-0.5-1.8-0.7c-0.4-0.2-0.7-0.3-1.1-0.5
			l0,0C427.5,138.4,426.2,137.6,425,136.8z M376.4,128.7c-1.5,1.1-1.5,1-2.8-0.4c-0.2-0.2-0.4-0.5-0.7-0.8c-1.8-2.1-4.1-5-4-7.7
			c0-2,2-4.1,3.2-5.5c2.2-2.7,4.8-5.3,7.7-7.4c4.3-3,7.3,0,10.2,3.4c0.5,0.6,1,1.3,1.5,1.9c-3.1-0.5-8.6-1.3-9.8,1.4
			c-0.7,1.7-0.7,2.9-0.2,3.9c0.2,0.5,0.6,0.8,1.1,1.1c1.2,0.8,2.9,1.1,4.5,1.3c-2.5,2.2-5,4.3-7.6,6.4c-0.9,0.8-1.9,1.5-2.9,2.2
			C376.5,128.6,376.4,128.7,376.4,128.7z M377.2,130.3C377.2,130.3,377.2,130.3,377.2,130.3c3.4-1.7,6.5-4.8,9.4-7.3
			c0.7-0.6,1.5-1.3,2.2-1.9c-0.7,1.6-0.9,3.4-0.8,5.1c0,0.8,3.3,0.5,3.3-0.5c-0.1-2.3,0.3-4.5,1.6-6.4c0.3-0.4-0.7-0.6-0.8-0.6
			c-0.2,0-0.3,0-0.5,0c-1,0-2,0-3-0.1c-0.6-0.1-1.2-0.2-1.8-0.3c-0.5-0.2-0.8-0.4-1.1-0.6c-0.4-0.3-0.6-0.7-0.7-1.1
			c-0.1-0.4-0.2-0.9-0.2-1.4c0-0.6,0.3-1.2,0.2-1.8c0-0.1,0-0.2-0.1-0.3c1.6-0.3,3.6,0.2,5.1,0.3c0.9,0.1,1.8,0.2,2.8,0.3
			c1.2,0.2,2.4,0.3,3.6,0.6c0.2,0,0.3,0.1,0.5,0.1c1.1,0.3,1.3,0.6,1.4,2c0,0.6,0,1.2,0,1.7c-0.1,1.2-0.2,2.4-0.4,3.5
			c-0.1,0.9-0.3,1.9-0.4,2.8c-0.1,0.5-0.2,1.1-0.2,1.6c-3.6,4.8-8.3,9.4-13.6,12.4C380.8,136.5,378.6,133.5,377.2,130.3z
			 M500.8,208.6c0.2,0.5,0.5,1.4,0.9,1.8c-4.7,1.1-9.1,2.8-13.9,3.1c-3.7,0.2-6.5-0.7-9.7-2.6c-0.3-0.2-3.2-2-3.1-2.3c0,0,0,0,0,0
			c0-0.1,0-0.1,0-0.2c0.1-0.7-2.9-0.4-3.2,0.3c0,0.1,0,0.2-0.1,0.2c-1.5,7.7-11.8,7-17.8,6.4c-0.4,0-1.6-0.3-2.2-0.3
			c0.2-0.4,0.3-1.2,0.4-1.4c0.6-2.4,1.2-4.9,1.4-7.3c0.3-3.5-1.1-7.2-1.8-10.7c-1.5-7.9-2.4-15.9-2.6-23.9c0-0.3-0.7-0.4-0.9-0.4
			c-15.9-1.6-30.7-7.3-44.3-15.4c-2.3-1.4-4.4-2.7-6.5-4.3c-3.4-2.6-6.3-5.9-9.5-8.7c-0.4-0.4-0.8-0.7-1.2-1.1
			c-0.4-0.4-0.9-0.8-1.4-1.1c-1.2-0.9-1.4-0.7-0.5-1.1c0.3-0.1,0.6-0.3,1-0.5c1.2-0.7,2.3-1.5,3.5-2.2c2.6-1.8,4.9-3.9,7-6.2
			c0.7-0.7,1.4-1.5,2-2.3c0.2-0.2,0.4-0.4,0.6-0.7c0.3,0.5,0.7,0.9,1,1.4c0.7,1,1.5,1.9,2.2,2.9c5.6,6.9,12.5,13.1,20.3,16.7
			c1.1,0.5,2.2,0.9,3.3,1.3c0.4,0.1,0.8,0.2,1.1,0.3c0.3,0.1,0.6,0.2,0.9,0.3c6.1,1.7,12.7,1.9,18.8,1.8c2.6-0.1,5.2-0.2,7.8-0.7
			c-0.7,1.7-1.4,3.3-2.1,5c-0.1,0.2-0.1,0.3-0.2,0.5c-0.1,0.2-0.1,0.3-0.2,0.5c-0.2,0.4-0.3,0.8-0.5,1.2c-0.1,0.2,0,0.2,0.2,0.3
			c0.6,0.4,2.5,1.4,3.6,2.1c-0.1,0.7-0.1,1.4-0.1,2.2c0,0.2,0.1,0.3,0.3,0.3c-0.8,1.2-2,2.7-2.3,3.3c0,0.1,0,0.2,0,0.2
			c2.7,2.8,6.9,4.8,10.2,6.9c2.1,1.3,5.9,4.7,8.7,4.3c0.3,0,0.9-0.1,1.1-0.4c1.6-0.6,3-2.5,4-3.6c1-1.1,2-2.1,3-3.2
			c4.9,6.9,9.8,14,15.8,19.9c0.4,3.1,1,6.2,1.7,9.3C498.4,203.2,499.5,206,500.8,208.6z M509.1,184.7c-0.6,2.4-3,5.3-4.7,6.6
			c-0.5,0.4-0.9,0.6-1.3,0.8c-1.6,0.9-2.7,0.5-3.8-0.5c-0.7-0.6-1.4-1.4-2.1-2.2c-0.6-0.6-1.1-1.3-1.7-1.9c-3.4-3.9-6.5-8-9.6-12.1
			c-1.1-1.4-2.7-3.1-3.4-4.7c-0.2-0.4-0.3-0.5-0.4-0.5c0.3-0.4,1.5-1,1.8-1.2c0.2-0.1,0.3-0.3,0.5-0.4c1.8-1.3,3.7-2.6,5.5-4
			c0.7-0.4,1.3-0.8,2-1.3c0.2-0.1,0.3-0.2,0.4-0.3c0.2-0.1,0.5-0.3,0.7-0.5c2.8,4.4,5.7,8.7,8.2,13.3c0.3,0.5,2.7,0.1,2.3-0.6
			c-2.8-4.9-6-9.7-9-14.5c-0.3-0.4-1.5-0.3-2,0.1c0.1-1.2,0-2.5-0.1-3.7c0-0.2-0.1-0.3-0.1-0.5c0-0.1,0-0.2,0-0.3
			c-0.2-1.2-0.6-2.3-1.3-3.2c-1.7-2.1-4.6-3.5-7.2-2.5c-0.1,0-0.2,0.1-0.3,0.1c-0.8-0.9-1.5-1.9-2.3-2.8c-0.2-0.3-0.4-0.5-0.6-0.7
			c3.2,0,6.4,0.1,9.6,0.3c1.2,0.1,4.1-0.2,5.1,0.7c0.5,0.5,0.8,1.9,1.1,2.5c0.7,1.6,1.3,3.2,2,4.8c0.1,0.2,0.2,0.4,0.2,0.6
			c0.1,0.1,0.1,0.3,0.2,0.4c2.4,6,4.8,12,7.2,18c1,2.6,2.9,5.7,3.3,8.5C509.3,183.6,509.2,184.2,509.1,184.7z"/>
		<path class="st22" d="M472.7,180.4c0-0.5-1.9-0.3-1.8,0.3c0.7,8.3,1.5,16.6,2.2,25c0,0.5,1.9,0.3,1.8-0.3
			C474.1,197,473.4,188.7,472.7,180.4z"/>
	</g>
	<g>
		<path class="st9" d="M455.5,207.1l-9.8,9.7h10.6l16.2-16h-10.7l-6.3,6.2L455.5,207.1L455.5,207.1z M506.3,207.1l-9.8,9.7H507
			l16.2-16h-10.7l-6.3,6.2L506.3,207.1L506.3,207.1z M487.3,200.8l-16.3,16h10.7l16.3-16H487.3z M436.5,200.8l-16.2,16H431l16.2-16
			H436.5z M151.2,207.1l-9.8,9.7H152l16.2-16h-10.7l-6.3,6.2V207.1z M132.2,200.8l-16.2,16h10.7l16.2-16H132.2z M201.9,207.1
			l-9.8,9.7h10.6l16.2-16h-10.7l-6.3,6.2V207.1z M182.9,200.8l-16.2,16h10.7l16.2-16H182.9z M100.5,207.1l-9.9,9.7h10.6l16.2-16
			h-10.7l-6.3,6.2v0.1C100.4,207.1,100.5,207.1,100.5,207.1z M49.7,207.1l-9.8,9.7h10.6l16.2-16H56l-6.3,6.2V207.1z M81.5,200.8
			l-16.3,16h10.7l16.3-16H81.5z M335.1,200.8l-16.2,16h10.7l16.2-16H335.1z M354.1,207.1l-9.8,9.7H355l16.2-16h-10.7l-6.3,6.2
			L354.1,207.1L354.1,207.1z M404.8,207.1l-9.8,9.7h10.6l16.2-16h-10.7l-6.3,6.2L404.8,207.1L404.8,207.1z M385.8,200.8l-16.2,16
			h10.7l16.2-16H385.8z M233.6,200.8l-16.2,16h10.7l16.2-16H233.6z M252.6,207.1l-9.8,9.7h10.6l16.2-16h-10.7l-6.3,6.2L252.6,207.1
			L252.6,207.1z M303.4,207.1l-9.8,9.7h10.6l16.2-16h-10.7l-6.3,6.2L303.4,207.1L303.4,207.1z M284.4,200.8l-16.2,16h10.7l16.2-16
			H284.4z M-1,207v9.8h0.8l16.2-16H5.3L-1,207z M30.7,200.8l-16.2,16h10.7l16.2-16H30.7z"/>
	</g>
	<line class="st35" x1="0" y1="208.8" x2="522.2" y2="208.8"/>
</g>
</svg>
