<?xml version="1.0" encoding="utf-8"?>
<!-- Generator: Adobe Illustrator 24.0.1, SVG Export Plug-In . SVG Version: 6.00 Build 0)  -->
<svg version="1.1" id="レイヤー_1" xmlns="http://www.w3.org/2000/svg" xmlns:xlink="http://www.w3.org/1999/xlink" x="0px"
	 y="0px" viewBox="0 0 420 41.2" style="enable-background:new 0 0 420 41.2;" xml:space="preserve">
<style type="text/css">
	.st0{fill:#E60000;}
	.st1{fill:none;stroke:#FFFFFF;stroke-width:0.4976;stroke-miterlimit:10;}
	.st2{fill:#FFFFFF;}
	.st3{fill:#E60000;stroke:#FFFFFF;stroke-width:0.4976;stroke-miterlimit:10;}
	.st4{enable-background:new    ;}
	.st5{fill:none;stroke:#FFFFFF;stroke-width:0.4967;stroke-miterlimit:10;}
	.st6{fill:#E4007F;}
	.st7{fill:#E60012;}
</style>
<g class="st4">
	<path d="M142.1,11.4c-1.4,0.2-1.9,0.3-3.3,0.5c-0.4-1.5-0.7-2.4-1.3-3.8c2.7-0.2,4.8-0.5,7.3-1.2c1.8-0.4,2.6-0.7,3.3-1.2l2.4,3.7
		c-0.1,0.1-0.1,0.1-0.6,0.2c-1.1,0.4-2.5,0.7-3.7,1v2.8h1.7c1,0,1.6,0,2.3-0.1v4c-0.7-0.1-1.4-0.1-2.3-0.1h-1.5
		c1.5,2.1,2.3,2.9,4.2,4.2c-0.8,1.3-1.3,2.4-1.9,3.9c-1.1-1.1-1.7-1.8-2.5-3.2c0.1,0.6,0.1,1.4,0.1,2.3v3.7c0,1.8,0,2.5,0.2,3.6
		h-4.5c0.1-1.1,0.2-2,0.2-3.6v-3.2c0-1.4,0-1.4,0.1-2.1c-0.9,2.1-1.7,3.5-3.3,5.1c-0.7-2-1.1-2.7-2-4.2c1.1-0.9,1.7-1.7,2.6-3.1
		c0.8-1.3,1.3-2.3,1.7-3.4H140c-1,0-1.7,0-2.4,0.1v-4.1c0.7,0.1,1.4,0.1,2.5,0.1h2V11.4z M155.5,8c-0.1,1-0.1,1.8-0.1,3.5v10.2
		c0,1.7,0,2.5,0.1,3.4h-4.4c0.1-0.8,0.1-1.4,0.1-3.2V11.5c0-1.6-0.1-2.5-0.1-3.5H155.5z M161.9,6.2c-0.1,1.3-0.2,2.3-0.2,4v17.3
		c0,1.8-0.4,2.9-1.4,3.4c-0.8,0.4-2.3,0.6-4.8,0.6c-0.5,0-0.9,0-1.9-0.1c-0.3-1.7-0.6-2.6-1.3-4.3c1.7,0.2,2.6,0.2,3.8,0.2
		c1.2,0,1.5-0.1,1.5-0.8V10.3c0-1.3-0.1-2.6-0.2-4H161.9z"/>
	<path d="M185.2,27.5c0,1.8,0,2.6,0.1,3.5H181c0.1-0.9,0.2-1.7,0.2-3.5v-3.9h-5.3c-0.4,3.5-1.1,5.8-2.6,8.3
		c-1.5-1.7-2.2-2.2-3.7-3.1c2.1-3.5,2.5-6.6,2.5-18.4c0-1.6-0.1-2.7-0.1-3.8c1,0.1,1.7,0.1,3.3,0.1h16c1.7,0,2.5,0,3.4-0.1
		c-0.1,1-0.1,1.7-0.1,3.5v17.9c0,2.6-1,3.4-4.4,3.4c-0.9,0-1.9,0-3-0.1c-0.2-1.5-0.4-2.4-1.1-4c1.2,0.1,2.3,0.2,3.1,0.2
		c1,0,1.2-0.1,1.2-0.6v-3.4h-5.1V27.5z M176.2,17.1c0,1.1,0,1.4-0.1,2.6h5v-2.6H176.2z M181.1,10.7h-4.8v2.6h4.8V10.7z M190.4,13.3
		v-2.6h-5.1v2.6H190.4z M185.2,19.8h5.1v-2.6h-5.1V19.8z"/>
	<path d="M210.8,19.9c1.2,1.8,2.2,2.9,4,4.2c-1.1,1.6-1.4,2.1-2.2,3.7c-1.4-1.3-2.1-2.2-2.9-3.5c-0.9,2.7-2.2,4.8-4.2,6.7
		c-1-1.5-1.7-2.2-2.9-3.4c2.3-1.9,3.6-4.2,4-7.7H206c-1,0-2,0.1-2.8,0.1v-4.1c0.9,0.1,1.5,0.1,2.6,0.1h1c0-0.1,0-1,0-2.7h-0.9
		c-0.8,0-1.4,0-2.4,0.1v-4c0.9,0.1,1.5,0.1,2.6,0.1h0.7c0-0.2,0-0.4,0-0.6c0-1.2-0.1-2-0.2-2.9h4.3c-0.1,0.8-0.1,1.1-0.1,3.5h0.4
		c1.1,0,1.7,0,2.6-0.1v4c-0.8-0.1-1.3-0.1-2.2-0.1h-0.7c0,1.1-0.1,1.6-0.1,2.7h0.7c1.1,0,1.7,0,2.6-0.1V20c-0.8-0.1-1.3-0.1-2.2-0.1
		H210.8z M220.2,22.9c-0.2,1.8-0.3,2.3-0.6,3.2c-0.9,2.6-2.3,4.4-5.2,6c-1.1-1.4-1.7-2.1-3-3.1c3.2-1.5,4.6-3.2,5-6.2
		c-0.2,0-0.8,0-1.7,0.1c0.1-1.1,0.1-1.6,0.1-2.8V9.4c0-1.4,0-1.9-0.1-2.7c0.6,0.1,1.2,0.1,2.7,0.1h7.6c1.5,0,2,0,2.7-0.1
		c-0.1,0.7-0.1,1.4-0.1,2.7v10.8c0,1.1,0,1.6,0.1,2.7c-0.3,0-0.5,0-0.7,0c-0.1,0-0.2,0-0.3,0c-0.1,0-0.2,0-0.2,0
		c-0.2,0-0.2,0-1.3-0.1h-0.2v4.4c0,0.3,0.1,0.4,0.4,0.4c0.4,0,0.6-0.1,0.6-0.4c0.1-0.5,0.1-1.6,0.1-3.2c1.1,0.8,1.7,1.1,3,1.5
		c-0.1,2.9-0.2,4.2-0.6,4.9c-0.5,0.9-1.6,1.3-4,1.3c-2.6,0-3.4-0.5-3.4-2.1v-6.6H220.2z M218.7,11.5h4.8v-1.2h-4.8V11.5z
		 M218.7,15.5h4.8v-1.2h-4.8V15.5z M218.7,19.5h4.8v-1.2h-4.8V19.5z"/>
	<path d="M239.8,22.1c-0.1,4.1-0.3,5.8-1,8.5l-3-1.4c0.6-2.1,0.9-4.3,1-7.4L239.8,22.1z M236.2,17.2c0.5,0.1,0.9,0.1,1.7,0.1
		c0.2,0,0.4,0,0.7,0c0.5-0.6,0.5-0.6,0.9-1.2c-1.4-1.9-1.8-2.4-3.5-4.2l1.9-3.4l0.8,0.9c0.7-1.1,1.6-2.9,1.8-3.8L244,7
		c-0.2,0.2-0.2,0.4-0.5,1c-0.6,1.2-1.7,3.1-2.5,4.2c0.3,0.4,0.3,0.4,0.7,0.9c1.3-2.1,2.3-3.7,2.7-4.5l3.3,1.8
		c-0.2,0.3-0.4,0.6-1,1.4c-1,1.6-3.1,4.3-4.2,5.6c1.1-0.1,1.5-0.1,2.4-0.1c-0.2-0.7-0.3-0.9-0.7-1.8l2.3-0.9
		c1.9-2.5,3.4-5.9,3.9-8.7l4.2,0.6c-0.2,0.4-0.2,0.4-0.6,1.8c-0.1,0.4-0.1,0.5-0.4,1.2h5.6c1.2,0,1.7,0,2.3-0.1
		c-0.1,1-0.1,1-0.2,5.4c0,3.5-0.2,8.2-0.5,10.5c-0.4,3.3-1,4.9-2.1,5.7c-0.8,0.5-2.1,0.8-4.4,0.8c-0.6,0-1.1,0-2.1-0.1
		c-0.2-1.6-0.4-2.4-1-4.3c1.2,0.2,2.8,0.3,3.5,0.3c1.2,0,1.5-0.3,1.8-2c0.4-2,0.6-6.2,0.6-12.1h-5.2c-0.9,1.7-1.5,2.6-2.6,4
		c-0.6-0.9-1.1-1.4-2.2-2.3c0.6,1.3,1.1,3,1.8,5.3l-2.9,1.1c-0.1-0.6-0.1-0.6-0.2-1.1c-0.7,0.1-1.2,0.1-1.5,0.1v8.3
		c0,1.6,0,2.1,0.2,3.1h-4.1c0.1-0.9,0.2-1.5,0.2-3.1v-8c-0.9,0.1-1.7,0.1-2.2,0.1c-1.3,0.1-1.4,0.1-1.8,0.2L236.2,17.2z M247.7,21.7
		c0.5,2.6,0.8,4.9,1,7.5l-3.2,0.4c-0.1-2.9-0.3-5.1-0.6-7.4L247.7,21.7z M251.8,24.8c-1-3.7-1.5-4.9-2.5-6.9l3.6-1.5
		c1.3,2.7,2,4.3,2.7,6.9L251.8,24.8z"/>
	<path d="M274.6,13.4c-0.8,2.3-1.4,6-1.5,9.7l1.5,0.5c-0.5,1.8-0.8,3.6-0.8,5.6c0,0.4,0,0.6,0.1,1l-3.4,0.2c0-0.4,0-0.5-0.1-1.1
		c-0.4-2.7-0.5-4.4-0.5-6.3c0-2.3,0.2-4.8,0.8-7.7c0.2-1.4,0.3-1.5,0.3-2.1L274.6,13.4z M280.1,22.2c-0.9,1.2-1.3,2-1.3,2.8
		c0,0.9,0.9,1.4,2.6,1.4c1.8,0,3.5-0.3,5-0.8l0.2,3.5c-0.5,0.1-0.5,0.1-1.7,0.2c-1.1,0.2-2.3,0.3-3.5,0.3c-1.9,0-3.1-0.3-4.1-0.8
		c-1.1-0.6-1.8-1.9-1.8-3.2c0-1,0.3-2.1,1-3.1c0.3-0.5,0.4-0.7,0.9-1.4L280.1,22.2z M276.2,14.9c0.9,0.2,2,0.3,3.6,0.3
		c2.7,0,4.6-0.2,6-0.5l0.1,3.4c-0.2,0-0.4,0-1.5,0.1c-1.4,0.1-2.8,0.2-4.2,0.2c-1.2,0-2.2,0-3.4-0.2c-0.2,0-0.3,0-0.6,0L276.2,14.9z
		"/>
	<path d="M292.1,16.4c0.8-0.1,1.3-0.2,2.6-0.5c4.1-0.8,5.6-1.1,7.6-1.1c2.1,0,3.8,0.4,5,1.3c1.6,1.1,2.5,2.9,2.5,5
		c0,2.9-1.7,5.5-4.7,6.9c-2,1-4,1.4-7.5,1.7c-0.5-1.8-0.6-2.2-1.4-3.6c2.5,0,4.2-0.2,5.7-0.7c1.6-0.5,2.7-1.2,3.4-2.2
		c0.4-0.6,0.6-1.2,0.6-2c0-0.8-0.2-1.4-0.7-1.9c-0.6-0.7-1.6-1-3-1c-2.1,0-4.5,0.4-7.7,1.4c-0.7,0.2-1.3,0.4-1.7,0.6L292.1,16.4z"/>
	<path d="M320.1,14.1c-0.1,0.9-0.2,2.2-0.2,3.6c0,4.5,0.6,7.9,1.5,7.9c0.2,0,0.4-0.3,0.6-0.8c0.4-1.1,0.8-2.3,1-3.5
		c0.9,1.1,1.5,1.6,2.8,2.5c-0.4,1.5-0.9,2.7-1.5,3.9c-0.7,1.3-1.8,2-3,2c-1.1,0-2.1-0.6-2.9-1.7c-1-1.5-1.6-3.5-1.8-6.7
		c-0.1-1.4-0.2-3.1-0.2-5.9c0-0.7,0-0.9-0.1-1.4H320.1z M329.3,14.9c2.6,3.1,4.1,6.8,4.6,11.6l-3.6,1.3c-0.2-4.5-1.6-8.4-4.1-11.6
		L329.3,14.9z"/>
	<path d="M338.6,14.7c0.3,0,0.6,0,0.8,0c0.5,0,1.2,0,3.4-0.2c3.1-0.2,4.6-0.3,10.7-0.5c1.7-0.1,1.8-0.1,2.2-0.2l0.2,3.6
		c-0.3,0-0.4,0-0.6,0c-1.4,0-3.2,0.5-4.6,1.4c-2,1.2-3.2,2.9-3.2,4.6c0,1.1,0.5,1.9,1.7,2.5c0.8,0.4,2.5,0.7,3.8,0.7
		c0.2,0,0.3,0,0.6,0l-0.5,3.8c-0.3-0.1-0.4-0.1-0.7-0.1c-2.3-0.2-3.8-0.5-5.1-1.1c-2.4-1.1-3.6-2.9-3.6-5.5c0-1.7,0.6-3.2,1.7-4.5
		c0.5-0.6,1-1,2-1.7l-6.9,0.6c-0.8,0.1-1,0.1-1.7,0.3L338.6,14.7z"/>
</g>
<g>
	<g>
		<g>
			<path class="st0" d="M40.5,10.5c-0.4-0.8-1.2-1.2-2.1-1.2c-0.9,0-1.7,0.4-2.1,1.2L26.1,28.3c-0.4,0.8-0.4,1.7,0,2.4
				c0.4,0.8,1.2,1.2,2.1,1.2l20.4-0.1c0.9,0,1.7-0.4,2.1-1.2c0.4-0.8,0.4-1.7,0-2.4L40.5,10.5z"/>
			<path class="st2" d="M28.2,32.5c-1.1,0-2.1-0.6-2.6-1.5c-0.5-0.9-0.5-2.1,0-3l10.1-17.7c0.5-1,1.5-1.5,2.6-1.5l0,0
				c1.1,0,2.1,0.6,2.6,1.5l10.3,17.6c0.5,0.9,0.5,2.1,0,3c-0.5,1-1.5,1.5-2.6,1.5L28.2,32.5C28.3,32.5,28.2,32.5,28.2,32.5z
				 M38.3,9.9L38.3,9.9c-0.7,0-1.3,0.3-1.6,0.9L26.6,28.6c-0.3,0.6-0.3,1.3,0,1.9c0.3,0.5,0.9,0.9,1.6,0.9l0,0l20.4-0.1
				c0.7,0,1.3-0.3,1.6-0.9c0.3-0.6,0.3-1.3,0-1.9L39.9,10.8C39.6,10.3,39,9.9,38.3,9.9z"/>
		</g>
		<path class="st0" d="M52.3,27.2L42,9.6c-0.8-1.3-2.2-2.2-3.7-2.1l0,0c-1.6,0-2.9,0.8-3.7,2.2L24.5,27.3c-0.8,1.3-0.8,2.9,0,4.3
			c0.8,1.3,2.2,2.2,3.7,2.1l20.4-0.1c1.6,0,2.9-0.8,3.7-2.2C53.1,30.2,53.1,28.6,52.3,27.2z M50.7,30.6c-0.4,0.8-1.2,1.2-2.1,1.2
			l-20.4,0.1c-0.9,0-1.7-0.4-2.1-1.2s-0.4-1.7,0-2.4l10.1-17.7c0.4-0.8,1.2-1.2,2.1-1.2s1.7,0.4,2.1,1.2l10.3,17.6
			C51.2,28.9,51.2,29.8,50.7,30.6z"/>
	</g>
	<g class="st4">
		<path class="st2" d="M35.8,17c0.4,0.1,0.7,0.1,1.3,0.1h1.4c0.8,0,0.9,0,1.3,0c-0.1,0.6-0.1,1-0.1,1.7v5.6c0,0.6,0,1.1,0.1,1.6
			h-2.3c0.1-0.5,0.1-1,0.1-1.6V19h-0.4c-0.4,0-0.8,0-1.3,0.1V17z"/>
	</g>
	<g>
		<path class="st2" d="M37.4,29.3v-1.7h2v1.7H37.4z"/>
	</g>
</g>
</svg>
