<?xml version="1.0" encoding="utf-8"?>
<!-- Generator: Adobe Illustrator 24.0.1, SVG Export Plug-In . SVG Version: 6.00 Build 0)  -->
<svg version="1.1" id="レイヤー_1" xmlns="http://www.w3.org/2000/svg" xmlns:xlink="http://www.w3.org/1999/xlink" x="0px"
	 y="0px" viewBox="0 0 420 41.2" style="enable-background:new 0 0 420 41.2;" xml:space="preserve">
<style type="text/css">
	.st0{fill:#E60000;}
	.st1{fill:none;stroke:#FFFFFF;stroke-width:0.4976;stroke-miterlimit:10;}
	.st2{fill:#FFFFFF;}
	.st3{fill:#E60000;stroke:#FFFFFF;stroke-width:0.4976;stroke-miterlimit:10;}
	.st4{enable-background:new    ;}
	.st5{fill:none;stroke:#FFFFFF;stroke-width:0.4967;stroke-miterlimit:10;}
	.st6{fill:#E4007F;}
	.st7{fill:#E60012;}
</style>
<g class="st4">
	<path d="M105.4,10.5c-0.4,0.4-0.5,0.6-0.9,1.4c-1.8,4.1-4.1,6.9-7.7,9.1c-1-1.2-1.9-2.1-3.1-3c-0.2,2.9-0.6,4.9-1.6,6.7
		c-1,1.8-2.4,3.3-4.3,4.7c-1.1,0.8-2.1,1.3-3.9,2.1c-1.1-2.2-1.5-2.8-3.1-4.5c3-1,5-2.2,6.3-3.8c1.3-1.7,1.8-3.7,1.8-7.3
		c0-0.9,0-1.3-0.2-1.9H94c-0.1,0.6-0.1,0.8-0.1,2.4c0,0,0,0.7,0,1c0.2-0.1,0.2-0.1,0.6-0.3c2-1,3.6-2.7,4.6-4.7H85.9
		c-2.1,0-3.1,0.1-4.4,0.2V7.7C82.8,7.9,83.7,8,86,8h14.4c1.5,0,1.7,0,2.4-0.3L105.4,10.5z"/>
	<path d="M110.9,8c3.5,2,5.3,3.3,7.6,5.4l-3.2,4.3c-2.4-2.5-4.7-4.3-7.5-5.8L110.9,8z M108,25.1c2.8-0.2,5.7-0.9,8.3-2
		c3.5-1.4,5.9-3.5,8.1-6.8c1.2-1.8,1.9-3.3,2.7-5.4c1.3,1.6,2,2.2,4,3.7c-2.5,5.4-5.1,8.7-9,11.1c-3,1.9-5.6,2.9-10.7,4.1
		c-1.1,0.2-1.2,0.3-2,0.5L108,25.1z"/>
	<path d="M151.4,15.6c-0.3,3.7-0.7,5.6-1.7,7.7c-1.1,2.3-2.7,4.2-4.9,5.8c-1.3,1-2.4,1.5-4.5,2.5c-1-2-1.6-2.8-3.2-4.3
		c4.2-1.4,6.6-3.2,8-5.8c0.8-1.5,1.2-3.1,1.4-5.7h-5.6c-1.6,2.6-2.4,3.6-4.4,5.4c-1.2-1.3-2.1-2-4-3.1c2.7-2.3,4.3-4.4,5.8-7.5
		c0.8-1.7,1.1-2.8,1.3-4l5.1,1c-0.2,0.6-0.4,0.8-0.7,1.7c-0.3,0.9-0.3,0.9-0.9,2.1h10.4c2.1,0,2.9,0,4.3-0.2v4.8
		c-1.3-0.1-2.4-0.2-4.4-0.2H151.4z"/>
	<path d="M160.2,16.1c1.3,0.2,2.8,0.2,5.6,0.2H179c2.8,0,3.8-0.1,5.6-0.2v5.3c-1.3-0.1-2.5-0.2-5.7-0.2h-13.1c-3.1,0-4,0-5.7,0.2
		V16.1z"/>
	<path d="M190.7,30.9c0.1-1.2,0.2-2,0.2-4.2v-16c0-2.2,0-2.5-0.2-4h5.3c-0.1,0.8-0.1,2.2-0.1,4v3.8c4.7,1.5,8.2,3.2,12.5,5.7
		l-2.6,4.7c-2.7-1.8-5.9-3.6-8.7-4.8c-1-0.4-1-0.4-1.2-0.5v7.2c0,1.8,0.1,3.2,0.2,4.2H190.7z"/>
	<path d="M216.6,13.4c-0.8,2.3-1.4,6-1.5,9.7l1.5,0.5c-0.5,1.8-0.8,3.6-0.8,5.6c0,0.4,0,0.6,0.1,1l-3.4,0.2c0-0.4,0-0.5-0.1-1.1
		c-0.4-2.7-0.5-4.4-0.5-6.3c0-2.3,0.2-4.8,0.8-7.7c0.2-1.4,0.3-1.5,0.3-2.1L216.6,13.4z M222.1,22.2c-0.9,1.2-1.3,2-1.3,2.8
		c0,0.9,0.9,1.4,2.6,1.4c1.8,0,3.5-0.3,5-0.8l0.2,3.5c-0.5,0.1-0.5,0.1-1.7,0.2c-1.1,0.2-2.3,0.3-3.5,0.3c-1.9,0-3.1-0.3-4.1-0.8
		c-1.1-0.6-1.8-1.9-1.8-3.2c0-1,0.3-2.1,1-3.1c0.3-0.5,0.4-0.7,0.9-1.4L222.1,22.2z M218.2,14.9c0.9,0.2,2,0.3,3.6,0.3
		c2.7,0,4.6-0.2,6-0.5l0.1,3.4c-0.2,0-0.4,0-1.5,0.1c-1.4,0.1-2.8,0.2-4.2,0.2c-1.2,0-2.2,0-3.4-0.2c-0.2,0-0.3,0-0.6,0L218.2,14.9z
		"/>
	<path d="M236.7,22.7c-1.2,0.9-1.8,1.7-1.8,2.5c0,1,1.3,1.5,4.3,1.5c2.4,0,5.2-0.4,6.5-0.9l0.2,3.8c-0.4,0-0.5,0-0.8,0
		c-0.1,0-0.3,0-0.6,0.1l-0.6,0.1c-1.7,0.2-3.3,0.3-5,0.3c-2.3,0-3.9-0.2-5.1-0.7c-1.8-0.7-2.7-1.9-2.7-3.6c0-1.8,0.9-3.2,2.9-4.8
		L236.7,22.7z M232.6,13.6c1.3,0.3,3.7,0.5,6.6,0.5c2.6,0,4.5-0.1,5.6-0.4l0.1,3.1c-1.3,0.6-4.1,2.4-5.6,3.5l-2.5-1.7
		c0.4-0.3,0.7-0.4,1-0.6l0.7-0.4c0.1-0.1,0.3-0.2,0.3-0.2l0.2-0.1c0,0,0.1-0.1,0.2-0.1c-0.7,0.1-1,0.1-1.6,0.1
		c-1.5,0-2.5-0.1-4.5-0.2c-0.4,0-0.4,0-0.7-0.1L232.6,13.6z M243.8,18.7c0.8,0.9,1.4,1.8,2,2.9l-1.8,1c-0.7-1.3-1.2-2-2-2.9
		L243.8,18.7z M246.3,17.3c0.7,0.8,1.3,1.6,2,2.8l-1.8,1c-0.7-1.3-1.2-2.1-2-2.9L246.3,17.3z"/>
	<path d="M264.8,13.7c0.8,0,1.4,0,2.1-0.1c-0.1,0.4-0.1,0.5-0.2,2.4c-0.1,2-0.4,3.2-1,3.8c-0.3,0.3-0.7,0.5-1.4,0.6
		c0,0.2-0.1,0.5-0.1,1h1.4c0.9,0,1.3,0,1.9-0.1c-0.1,0.6-0.1,0.6-0.1,3.5c-0.1,3.2-0.3,4.8-0.9,5.4c-0.4,0.5-1.1,0.7-2.3,0.7
		c-0.2,0-0.5,0-0.9,0c0-1-0.1-1.5-0.3-2.4c-0.4,1.1-0.8,1.6-1.6,2.6c-0.5-0.7-0.9-1.1-1.5-1.8c-0.4,1.2-0.9,1.5-2.5,1.5
		c-0.1,0-0.4,0-1,0c0-0.8-0.1-1.4-0.3-2.1c-0.4,1-0.7,1.5-1.4,2.3c-0.7-1.3-0.7-1.3-1.4-2c0,1.1,0,1.5,0.1,2.1h-3.2
		c0.1-0.7,0.1-1.6,0.1-2.8v-8.4c-0.7,0-1.1,0-1.6,0.1v-3c0.5,0.1,0.9,0.1,1.6,0.1v-2.5c0-1,0-1.6-0.1-2.3h3.2
		c-0.1,0.6-0.1,1.1-0.1,2.2v2.6c0.8,0,1,0,1.3-0.1v1.4c1.6-0.7,2.3-1.2,3-2.1H257c-0.9,0-1.4,0-1.9,0.1v-2.9
		c0.6,0.1,1.4,0.1,2.1,0.1h1.6c0-0.4,0-0.6,0-0.9c0-0.2,0-0.3,0-0.6l3.3,0.1c0,0.2,0,0.2-0.1,0.9c0,0.2,0,0.3-0.1,0.5H264.8z
		 M256.4,20.2c-0.4-0.6-0.7-0.9-1.5-1.6V20c-0.4-0.1-0.6-0.1-1.3-0.1v8.4c0.9-1.1,1.3-2.3,1.5-4.2h-0.2c-0.4,0-0.6,0-0.8,0v-2.8
		c0.3,0.1,0.4,0.1,1.1,0.1c0-0.7,0-0.9-0.1-1.2H256.4z M257.5,24.1c-0.2,1.6-0.4,2.8-0.9,4c0.2,0,0.6,0.1,0.8,0.1
		c0.3,0,0.4-0.1,0.5-0.6c0.1-0.8,0.2-1.7,0.2-3.5H257.5z M261,21.4c0.3,0,0.4,0,0.9,0.1c0-0.1,0-0.2,0-0.4c0-0.2,0-0.4,0-0.6
		c-0.4,0-0.4,0-0.9,0c-0.1-1.1-0.3-1.6-0.6-2.5c-0.7,1-1.5,1.7-2.6,2.4c0,0.2-0.1,0.4-0.1,1.2h1.1c0.9,0,1.3,0,1.9-0.1
		c0,0.4-0.1,0.8-0.1,1.4c0,2.7-0.1,4.3-0.3,5.6c0.8-1.1,1.2-2.3,1.5-4.3c-0.3,0-0.5,0-0.8,0V21.4z M261.2,16.4
		c-0.3,0.6-0.5,1-0.8,1.4c0.7,0.1,1.7,0.2,2.3,0.2c0.7,0,0.8-0.2,0.9-1.6H261.2z M264.2,24.1c-0.2,1.7-0.4,2.5-0.9,4
		c0.4,0.1,0.6,0.1,0.9,0.1c0.3,0,0.4-0.1,0.5-0.3c0.2-0.7,0.3-2.1,0.3-3.8H264.2z"/>
	<path d="M283.9,16.2c1.3,0,2,0,2.8-0.1c-0.1,0.8-0.1,1.1-0.1,2.1c-0.1,4.4-0.3,8.2-0.6,9.8c-0.2,1-0.7,1.8-1.3,2.2
		c-0.7,0.4-1.6,0.5-2.9,0.5c-0.7,0-1.3,0-2.6-0.1c-0.2-1.4-0.4-2.3-0.8-3.4c1.2,0.2,2,0.3,2.7,0.3c1.1,0,1.4-0.1,1.6-0.6
		c0.3-0.8,0.5-3.6,0.5-7.6h-4.6c-0.4,3.5-1.2,5.8-2.7,7.8c-1.1,1.5-2.6,2.7-4.8,4c-0.7-1.3-1.3-2.1-2.3-3c2.5-1.1,4.1-2.4,5.1-4.1
		c0.8-1.3,1.2-2.6,1.4-4.7h-3.1c-0.9,0-1.7,0-2.5,0.1V16c0.8,0.1,1.6,0.1,2.6,0.1h3.2c0-0.6,0-0.8,0-1.2c0-1.2,0-1.8-0.1-2.5h3.8
		c-0.1,0.6-0.1,0.6-0.2,2.9c0,0.2,0,0.3,0,0.7H283.9z"/>
	<path d="M300.8,18.3c-0.3,0-0.4,0-0.8,0.1c-0.8,0.1-2,0.3-3,0.4v1.8c1.2-0.3,1.9-0.3,2.9-0.3c2.5,0,4.3,0.6,5.5,1.8
		c0.9,0.9,1.4,2.2,1.4,3.5c0,2.8-2.1,4.9-5,4.9c-2.5,0-3.9-1.7-3.9-4.5c0-0.1,0-0.3,0-0.5c1.5-0.4,1.9-0.6,3-1.2c0,0.4,0,0.6,0,1.1
		c0,0.6,0,1,0.2,1.3c0.1,0.4,0.5,0.6,0.9,0.6c0.9,0,1.4-0.7,1.4-1.7c0-0.7-0.4-1.3-1-1.8c-0.5-0.3-1.3-0.5-2.4-0.5
		c-1,0-1.8,0.1-2.9,0.4l0,3.5v0.5c0,1.2-0.1,1.7-0.4,2.1c-0.4,0.6-1.1,0.9-2,0.9c-1.5,0-3.2-0.6-4.3-1.6c-0.8-0.7-1.3-1.6-1.3-2.6
		c0-1.1,0.7-2.3,1.9-3.3c0.8-0.7,1.6-1.2,3-1.8v-2.4l-1.5,0l-1.9,0c-0.1,0-0.2,0-0.4,0l0-3.1c0.6,0.1,1.5,0.2,2.7,0.2
		c0.1,0,0.1,0,0.8,0c0.3,0,0.3,0,0.4,0v-0.6c0-1.5,0-2-0.1-2.7h3.5c-0.1,0.7-0.1,1.2-0.1,2.5v0.6c1.4-0.1,2.6-0.4,3.7-0.7
		L300.8,18.3z M293.8,24.6c-0.9,0.4-1.7,1.2-1.7,1.8c0,0.2,0.1,0.4,0.4,0.6c0.3,0.2,0.7,0.3,0.9,0.3c0.3,0,0.3-0.1,0.3-0.8V24.6z
		 M305,20.2c-1-1.8-2.2-3.1-3.9-4.7l2.6-1.8c1.7,1.4,2.9,2.8,3.9,4.4L305,20.2z"/>
	<path d="M312.7,17.8c0-0.5,0-0.9-0.1-1.4c0.5,0.1,0.7,0.1,1.4,0.1c0.2-0.4,0.3-0.6,0.4-0.9h-2.2c0,5.5-0.1,8-0.4,10.4
		c-0.3,2.3-0.6,3.5-1.3,5c-0.9-1.4-1.2-1.8-2.1-2.7c0.5-1.3,0.7-2.1,0.9-3.8c0.2-2.4,0.3-5.2,0.3-8.9c0-1.3,0-2.1-0.1-2.9
		c0.7,0.1,1.2,0.1,2.3,0.1h4.3c1.1,0,1.7,0,2.4-0.1v2.9c-0.5,0-0.6,0-1.4-0.1c-0.2,0.4-0.2,0.6-0.4,0.9h0.4c0.6,0,1,0,1.4-0.1
		c0,0.4-0.1,0.8-0.1,1.4v4.7c0,0.8,0,1.2,0.1,1.6c-0.4,0-0.8-0.1-1.2-0.1h-0.6v4.6c0,1.9-0.4,2.3-2.2,2.3c-0.2,0-0.3,0-0.6,0
		c0-0.9-0.1-1.7-0.3-2.4c-0.1,0.7-0.2,1-0.5,1.9l-1.6-0.8c0.7-1.7,0.9-2.9,1.1-5.1l1.6,0.3c-0.2,1.6-0.2,2.1-0.4,3.3
		c0.4,0.1,0.4,0.1,0.5,0.1c0.3,0,0.3,0,0.3-0.3v-3.9H314c-0.5,0-1,0-1.4,0.1c0-0.5,0.1-0.9,0.1-1.6V17.8z M315,19.5h1.2v-0.9H315
		V19.5z M315,22.1h1.2v-0.9H315V22.1z M318.4,24.6c0.2,1,0.3,2.2,0.4,3.2l-1.6,0.3c0-1.4-0.1-2.2-0.3-3.3L318.4,24.6z M325,27.2
		c0.8,0.6,1.5,1,2.8,1.6c-0.8,1-1.2,1.6-1.8,2.5c-1.3-0.8-2.2-1.5-3.3-2.7c-1.2,1.2-2.3,2-3.9,2.8c-0.5-0.9-1-1.5-1.8-2.3
		c1.6-0.6,2.5-1.1,3.4-1.9c-0.7,0-1.1,0-1.5,0c0-0.6,0.1-1.3,0.1-1.8v-7c0-1,0-1.7-0.1-1.9c0.5,0,0.6,0,1.7,0h0.4
		c0.2-0.5,0.2-0.5,0.4-0.9h-0.7c-0.7,0-1.3,0-1.8,0.1v-2.9c0.6,0.1,1.1,0.1,2.3,0.1h4c1.2,0,1.8,0,2.4-0.1v2.9
		c-0.7-0.1-1.2-0.1-2.4-0.1h-0.7c-0.2,0.3-0.2,0.5-0.4,0.9h0.8c1.3,0,1.6,0,2.1,0c-0.1,0.6-0.1,1.2-0.1,1.9V25c0,0.8,0,1.6,0.1,2.2
		c-0.7,0-1.2-0.1-1.7-0.1H325z M322.6,28.3l1.2-1.1h-2.4L322.6,28.3z M321.8,19.5h2.3v-0.7h-2.3V19.5z M321.8,22.1h2.3v-0.8h-2.3
		V22.1z M321.8,24.8h2.3V24h-2.3V24.8z"/>
	<path d="M333.5,14.1c-0.1,0.9-0.2,2.2-0.2,3.6c0,4.5,0.6,7.9,1.5,7.9c0.2,0,0.4-0.3,0.6-0.8c0.4-1.1,0.8-2.3,1-3.5
		c0.9,1.1,1.5,1.6,2.8,2.5c-0.4,1.5-0.9,2.7-1.5,3.9c-0.7,1.3-1.8,2-3,2c-1.1,0-2.1-0.6-2.9-1.7c-1-1.5-1.6-3.5-1.8-6.7
		c-0.1-1.4-0.2-3.1-0.2-5.9c0-0.7,0-0.9-0.1-1.4H333.5z M342.7,14.9c2.6,3.1,4.1,6.8,4.6,11.6l-3.6,1.3c-0.2-4.5-1.6-8.4-4.1-11.6
		L342.7,14.9z"/>
	<path d="M354.5,13.1c-0.2,1.3-0.5,6.6-0.5,9.9c0,2,0.1,2.6,0.4,3.1c0.4,0.6,1.2,1,2.3,1c2.1,0,3.7-1.2,4.4-3.4
		c0.4-1.1,0.6-2.1,0.8-3.6c1.5,1.2,2.1,1.6,3.4,2.1c-0.8,3-1.4,4.5-2.5,5.7c-1.6,1.7-3.7,2.6-6.3,2.6c-2,0-3.6-0.5-4.6-1.5
		c-1.1-1.1-1.5-2.4-1.5-5.2c0-0.5,0-0.5,0.1-4.5c0-2,0.1-3.9,0.1-4.7c0-0.6,0-0.9-0.1-1.5L354.5,13.1z"/>
	<path d="M367.9,14.5c1.2,0.3,3.2,0.4,5.8,0.4c0.2,0,0.5,0,1.1,0c0-1.3,0-1.7-0.1-2.2h3.5c-0.1,0.5-0.1,0.7-0.2,2.1
		c2.7-0.2,4.5-0.4,5.7-0.7l0.1,3.1c-0.6,0-0.7,0-1.8,0.2c-1.3,0.2-2.5,0.3-4,0.3c0,0.5,0,0.5,0,1.3c2.3-0.1,3.8-0.3,5.2-0.6l0.1,3.1
		c-0.4,0-0.4,0-1.3,0.1c-0.9,0.1-2.8,0.2-3.9,0.3c0,0.9,0,0.9,0.1,1.8c1,0.3,1.7,0.5,2.7,1.1c1,0.5,1.3,0.7,2.7,1.7
		c0.3,0.2,0.4,0.3,0.8,0.5l-1.9,3.2c-0.6-0.6-0.6-0.6-1.4-1.3c-0.9-0.8-1.9-1.4-2.8-1.8c0,0.9-0.1,1.5-0.5,2c-0.7,1-2.2,1.6-4.4,1.6
		c-3.3,0-5.1-1.3-5.1-3.7c0-1.5,0.9-2.7,2.5-3.3c0.9-0.4,2.1-0.5,3.6-0.5c0.3,0,0.3,0,0.6,0c0-0.7,0-1.1,0-1.2c-0.4,0-1.2,0-1.5,0
		c-1.2,0-2.1,0-3.2-0.1c-0.9,0-1-0.1-1.6-0.1l0-3c0.9,0.2,2.9,0.3,4.9,0.3c0.4,0,0.7,0,1.3,0c0-0.1,0-0.2,0-0.3c0,0,0,0,0-0.5
		c0-0.3,0-0.3,0-0.5c-0.5,0-0.7,0-0.8,0c-1.1,0-1.4,0-3.7-0.1c-0.8,0-0.8,0-1.5-0.1c-0.3,0-0.5,0-0.5,0c-0.1,0-0.2,0-0.3,0
		L367.9,14.5z M373.7,25.9c-1.2,0-1.9,0.3-1.9,1c0,0.5,0.6,0.8,1.6,0.8c1.1,0,1.6-0.4,1.6-1.3c0-0.1,0-0.3,0-0.3
		C374.5,26,374.2,25.9,373.7,25.9z"/>
	<path d="M386,14.8c0.5,0,0.7,0.1,1.2,0.1c0.5,0,5.9-0.1,7.8-0.2c0-1.3,0-1.5-0.1-2.1h3.5c-0.1,0.7-0.1,0.9-0.1,2
		c3.3,0,4.8-0.1,5.6-0.1l0,3.3c-0.9-0.1-1.3-0.1-3.6-0.1c-1.1,0-1.2,0-2,0v2.5c0,0.1,0,0.2,0,0.4c0.6,1.1,0.8,2,0.8,3.3
		c0,2.2-1.2,4.2-3.3,5.5c-1,0.6-2.1,1.1-4,1.6c-0.6-1.4-1-2.2-1.9-3.2c2-0.3,3.2-0.6,4.1-1.2c0.7-0.4,1.2-0.9,1.5-1.6
		c-0.8,0.7-1.5,0.9-2.7,0.9c-2.3,0-4-1.5-4-3.7c0-2.3,1.9-3.8,4.6-3.8c0.6,0,1.1,0.1,1.6,0.2c0-0.2,0-0.2,0-0.6c0-0.3,0-0.3,0-0.5
		c-4.1,0.1-7.4,0.3-8.9,0.5L386,14.8z M392.3,22.3c0,0.6,0.6,1.1,1.3,1.1c0.9,0,1.5-0.5,1.5-1.2c0-0.6-0.5-1-1.3-1
		C392.9,21.1,392.3,21.6,392.3,22.3z"/>
	<path d="M411.2,27.3c0,2.1-1.7,3.8-3.8,3.8c-2.1,0-3.8-1.7-3.8-3.8c0-2.1,1.7-3.8,3.8-3.8S411.2,25.2,411.2,27.3z M405.7,27.3
		c0,1,0.8,1.7,1.7,1.7s1.7-0.8,1.7-1.7c0-1-0.8-1.7-1.7-1.7S405.7,26.4,405.7,27.3z"/>
</g>
<g>
	<g>
		<g>
			<path class="st0" d="M40.5,10.5c-0.4-0.8-1.2-1.2-2.1-1.2c-0.9,0-1.7,0.4-2.1,1.2L26.1,28.3c-0.4,0.8-0.4,1.7,0,2.4
				c0.4,0.8,1.2,1.2,2.1,1.2l20.4-0.1c0.9,0,1.7-0.4,2.1-1.2c0.4-0.8,0.4-1.7,0-2.4L40.5,10.5z"/>
			<path class="st2" d="M28.2,32.5c-1.1,0-2.1-0.6-2.6-1.5c-0.5-0.9-0.5-2.1,0-3l10.1-17.7c0.5-1,1.5-1.5,2.6-1.5l0,0
				c1.1,0,2.1,0.6,2.6,1.5l10.3,17.6c0.5,0.9,0.5,2.1,0,3c-0.5,1-1.5,1.5-2.6,1.5L28.2,32.5C28.3,32.5,28.2,32.5,28.2,32.5z
				 M38.3,9.9L38.3,9.9c-0.7,0-1.3,0.3-1.6,0.9L26.6,28.6c-0.3,0.6-0.3,1.3,0,1.9c0.3,0.5,0.9,0.9,1.6,0.9l0,0l20.4-0.1
				c0.7,0,1.3-0.3,1.6-0.9c0.3-0.6,0.3-1.3,0-1.9L39.9,10.8C39.6,10.3,39,9.9,38.3,9.9z"/>
		</g>
		<path class="st0" d="M52.3,27.2L42,9.6c-0.8-1.3-2.2-2.2-3.7-2.1l0,0c-1.6,0-2.9,0.8-3.7,2.2L24.5,27.3c-0.8,1.3-0.8,2.9,0,4.3
			c0.8,1.3,2.2,2.2,3.7,2.1l20.4-0.1c1.6,0,2.9-0.8,3.7-2.2C53.1,30.2,53.1,28.6,52.3,27.2z M50.7,30.6c-0.4,0.8-1.2,1.2-2.1,1.2
			l-20.4,0.1c-0.9,0-1.7-0.4-2.1-1.2s-0.4-1.7,0-2.4l10.1-17.7c0.4-0.8,1.2-1.2,2.1-1.2s1.7,0.4,2.1,1.2l10.3,17.6
			C51.2,28.9,51.2,29.8,50.7,30.6z"/>
	</g>
	<g class="st4">
		<path class="st2" d="M36.3,26.1c-1,0-1.2,0-1.6,0c0-0.5,0.1-0.8,0.2-1.3c0.3-0.9,0.8-1.7,1.5-2.4c0.4-0.4,0.8-0.7,1.9-1.4
			c0.9-0.6,1.2-0.9,1.2-1.4c0-0.5-0.5-0.9-1.2-0.9c-0.5,0-0.9,0.2-1.1,0.5c-0.2,0.2-0.2,0.5-0.3,0.9l-2.3-0.2
			c0.2-0.9,0.4-1.4,0.8-1.9c0.6-0.7,1.6-1.1,2.9-1.1c1.5,0,2.6,0.5,3.1,1.4c0.2,0.4,0.4,0.8,0.4,1.3c0,0.8-0.3,1.5-1,2
			c-0.4,0.3-0.5,0.4-1.6,1.2c-0.9,0.6-1.3,1-1.6,1.5h2.5c0.8,0,1.3,0,1.7-0.1v2c-0.6-0.1-1.1-0.1-1.8-0.1H36.3z"/>
	</g>
	<g>
		<path class="st2" d="M37.4,29.3v-1.7h2v1.7H37.4z"/>
	</g>
</g>
</svg>
