<?xml version="1.0" encoding="utf-8"?>
<!-- Generator: Adobe Illustrator 24.0.1, SVG Export Plug-In . SVG Version: 6.00 Build 0)  -->
<svg version="1.1" id="レイヤー_1" xmlns="http://www.w3.org/2000/svg" xmlns:xlink="http://www.w3.org/1999/xlink" x="0px"
	 y="0px" viewBox="0 0 420 66.2" style="enable-background:new 0 0 420 66.2;" xml:space="preserve">
<style type="text/css">
	.st0{fill:#E60000;}
	.st1{fill:none;stroke:#FFFFFF;stroke-width:0.4976;stroke-miterlimit:10;}
	.st2{fill:#FFFFFF;}
	.st3{fill:#E60000;stroke:#FFFFFF;stroke-width:0.4976;stroke-miterlimit:10;}
	.st4{enable-background:new    ;}
	.st5{fill:none;stroke:#FFFFFF;stroke-width:0.4967;stroke-miterlimit:10;}
	.st6{fill:#E4007F;}
	.st7{fill:#E60012;}
</style>
<g class="st4">
	<path d="M141.2,14.4c-0.2,0.4-0.4,0.9-0.6,1.4c1.2,0.4,2,0.8,2.8,1.5c1.5,1.3,2.3,3.1,2.3,5.2c0,3.3-1.8,6-5.2,7.5
		c-1.5,0.7-3,1-5.6,1.3c-0.4-1.5-0.9-2.6-1.5-3.6c-1.9,1.8-4.3,2.9-6.4,2.9c-3.2,0-5.3-2.2-5.3-5.6c0-2.3,1-4.6,2.8-6.4
		c1.1-1.1,2.1-1.8,3.8-2.5c0-0.9,0-1.2,0-2.4c-1.2,0-1.2,0-3.2-0.1c-0.4,0-0.9,0-1.3,0c-0.4,0-0.5,0-0.9,0l-0.1-4.3
		c1.6,0.3,3,0.4,5.1,0.4h0.2l0.4,0c0-0.4,0-0.4,0.1-1.2c0-0.3,0-0.6,0-0.9c0-0.6,0-0.8-0.1-1.2l4.7,0.2c-0.2,0.8-0.3,1.3-0.4,2.9
		c4.5-0.2,8.1-0.7,10.3-1.4l0.2,4.5c-0.4,0-0.6,0-1.2,0.1c-2.6,0.4-6.8,0.7-9.6,0.8c0,0.3,0,0.3-0.1,0.7c0,0.2,0,0.2,0,0.8
		c1.2-0.2,1.7-0.2,2.7-0.2c0.5,0,0.7,0,1.3,0.1c0.2-0.6,0.3-1,0.4-1.6L141.2,14.4z M126,24.5c0,1,0.4,1.6,1.2,1.6
		c0.5,0,1-0.2,1.5-0.5c-0.2-1.4-0.4-3-0.4-5C126.8,21.6,126,23,126,24.5z M132.6,22.7c1-1.3,2.1-2.9,2.6-4.2c-0.2,0-0.3,0-0.6,0
		c-0.8,0-1.4,0.1-2.2,0.3C132.4,20.5,132.5,21.3,132.6,22.7z M138.4,25.9c1.6-0.7,2.6-2.2,2.6-3.7c0-1.2-0.5-2-1.8-2.6
		c-1.3,2.9-2.8,5.2-4.8,7.2C136.2,26.6,137.3,26.4,138.4,25.9z"/>
	<path d="M159.5,6.6c-0.2,0.5-0.2,0.5-0.5,2.2c-0.1,0.7-0.2,0.9-0.3,1.5c1.8-0.2,2.9-0.4,3.8-0.7l0.1,4.5c-0.7,0.1-0.7,0.1-2,0.2
		c-0.7,0.1-2.3,0.2-2.9,0.3c-1,3.2-1.7,5.1-3,8c-0.6,1.3-0.8,1.8-1.9,3.9c-0.4,0.7-0.4,0.7-0.5,1.1l-4.5-2.4c2-2.6,3.9-6.5,5.1-10.4
		c-0.5,0-0.5,0-1.5,0c-0.6,0-0.6,0-1.3,0c-0.1,0-0.2,0-1.1,0v-4.4c1,0.2,2.3,0.3,4,0.3c0.3,0,0.4,0,1,0c0-0.2,0-0.2,0.2-1.2
		c0.2-0.9,0.4-2.3,0.4-3.3L159.5,6.6z M171.3,29.8c-1-1.2-2.1-2.1-3.6-3c-0.1,1.3-0.4,2.1-1.2,2.9c-1.1,1.1-3,1.7-5.2,1.7
		s-4.1-0.7-5.2-1.8c-0.9-0.9-1.4-2.1-1.4-3.4c0-3.2,2.7-5.4,6.5-5.4c0.6,0,1,0,1.9,0.2c-0.1-1-0.1-1.6-0.1-2.2c0-1.1,0.1-2,0.2-3.2
		l4.5,0.2c-0.2,1-0.3,1.8-0.3,3.1c0,1,0.1,1.8,0.2,3.2c1.7,0.7,3,1.5,4.2,2.4c0.1,0.1,0.5,0.4,1.3,1.1L171.3,29.8z M161.5,24.6
		c-1.3,0-2.1,0.6-2.1,1.4c0,0.8,0.8,1.3,2,1.3c1.4,0,2.1-0.6,2.1-1.8c0-0.2,0-0.6-0.1-0.6C162.6,24.7,162.2,24.6,161.5,24.6z
		 M171.6,16.9c-2.6-1.6-5.3-2.9-8.6-4l2.3-3.8c3.5,1.2,5.7,2.2,8.3,3.7L171.6,16.9z"/>
	<path d="M190.3,13.8c2.6-0.3,3.8-0.4,7.3-0.4c0.2,0,0.8,0,1.3,0l0.1,4.7c-1.3-0.2-2.1-0.2-3.6-0.2c-3,0-5,0.2-7.7,0.7l-0.3-3.9
		c-1.3,0.1-1.7,0.2-2.5,0.2c-0.5,2.6-1,4.6-1.7,7.5c-0.7,2.4-0.9,3-2,6.6c-0.4,1.3-0.4,1.3-0.6,2l-5.1-1.8c1.8-3.5,3.6-9,4.6-14.1
		c-0.2,0-0.3,0-0.4,0c-0.9,0-1.5,0-2.6-0.1c0,0-0.1,0-0.3,0c-0.2,0-0.3,0-0.6,0l0.1-4.5c1.1,0.2,2.5,0.3,4.2,0.3c0.1,0,0.3,0,0.5,0
		c0.4-2.2,0.5-3.3,0.5-4.1c0-0.1,0-0.2,0-0.4l5.1,0.4c-0.2,0.6-0.2,0.8-0.4,1.6c0,0.2-0.2,1-0.4,2.4c1.9-0.2,3-0.4,4.5-0.7
		L190.3,13.8z M191.2,21.4c-1,1.2-1.5,2.1-1.5,3c0,1.3,1.1,1.9,3.4,1.9c2.1,0,4.8-0.4,6.5-1.1L200,30c-0.6,0.1-0.8,0.1-1.5,0.2
		c-2.6,0.4-3.7,0.4-5.4,0.4c-5.4,0-8.1-1.7-8.1-5.2c0-1.6,0.6-3.1,2.1-5.3L191.2,21.4z"/>
	<path d="M214.6,23.8c-1.6,3.5-3.4,5.1-5.9,5.1c-3.7,0-6.3-3.5-6.3-8.6c0-3.2,1.1-6.1,3.2-8.4c2.4-2.6,5.9-4,10-4
		c3.7,0,6.9,1.2,9,3.4c1.8,1.9,2.7,4.5,2.7,7.7c0,3.6-1.3,6.8-3.7,8.9c-1.9,1.7-4,2.6-7.9,3.2c-0.7-2-1.2-3-2.3-4.5
		c2.6-0.2,4.3-0.6,5.8-1.4c2.1-1.1,3.3-3.4,3.3-6.4c0-2.3-0.8-4.2-2.4-5.4c-0.7-0.5-1.3-0.8-2.3-1C217.1,17,216.1,20.5,214.6,23.8z
		 M209.9,13.7c-1.8,1.5-3,4.1-3,6.6c0,2,0.7,3.5,1.7,3.5c0.7,0,1.4-1,2.2-3.1c1-2.5,1.8-5.7,2.1-8.4
		C211.8,12.5,210.9,12.9,209.9,13.7z"/>
	<path d="M243.6,27.3v1.4c0,2,0,2.5,0.1,3.1h-3.9c0.1-0.8,0.1-1.7,0.1-3.1v-8.3c-0.4,3.7-0.4,3.7-0.7,5.4c-0.4,2.5-0.9,3.9-1.8,5.9
		c-0.8-1.2-1.3-1.9-2.2-2.9c0,1.2,0,1.8,0.2,3h-4.4c0.1-1.4,0.2-1.8,0.2-3.2v-6.9c0-0.6,0-1.2,0.1-3.1c-0.4,0.7-0.9,1.3-1.3,1.8
		c-0.4-2.2-0.7-3.1-1.4-5.1c1.3-1.4,2.4-3.1,3.3-5.3c0.7-1.7,1.2-3.2,1.3-4.5l4.2,1c-0.1,0.4-0.1,0.5-0.3,0.9
		c0.8,0.1,1.6,0.1,2.7,0.1h0.4V7.3c0-0.7,0-1-0.1-1.4h4.2c-0.1,0.4-0.1,0.8-0.1,1.3v0.4h2.8V7.3c0-0.7,0-1-0.1-1.4h4.2
		C251,6.3,251,6.7,251,7.3v0.4h0.8c1.3,0,2.5-0.1,2.9-0.2v3.8c-1-0.1-1.3-0.1-2.9-0.1H251v1.3h1c1.6,0,2.2,0,3.1-0.1v3.8
		c-0.8-0.1-1.5-0.1-2.6-0.1h-12.2v0.8c0.7,0.1,1.5,0.1,2.8,0.1h8.8c1.2,0,1.8,0,2.6-0.1c-0.1,0.7-0.1,1.4-0.1,2.9V29
		c0,2.2-0.6,2.6-4.5,2.7c-0.2-1.3-0.3-1.9-0.7-3c0.4,0,0.7,0.1,1,0.1c0.4,0,0.5-0.1,0.5-0.6v-0.8h-1.7v1c0,1.7,0,2.4,0.1,3.1h-3.7
		c0.1-0.9,0.1-1.7,0.1-3.1v-1H243.6z M235.3,26.5c0.4-1,0.5-1.7,0.7-2.7c0.2-1.7,0.4-4.8,0.4-8c0-1.6,0-2.3-0.1-3.4
		c1.1,0.1,1.5,0.1,3,0.1h0.9v-1.3h-0.4c-1.6,0-2.1,0-2.9,0.1V8.3c-0.5,1.7-0.8,2.4-1.6,4V26.5z M245.3,19.8h-1.7V21h1.7V19.8z
		 M245.3,23.5h-1.7v1.2h1.7V23.5z M247,12.5v-1.3h-2.8v1.3H247z M250.5,21v-1.1h-1.7V21H250.5z M250.5,24.6v-1.2h-1.7v1.2H250.5z"/>
	<path d="M263,7.1c0-0.6,0-0.8-0.1-1.3h4.2c-0.1,0.5-0.1,0.8-0.1,1.3h5.3c0-0.5,0-0.9-0.1-1.3h4.2c-0.1,0.5-0.1,0.8-0.1,1.3h2.7
		c1.4,0,2.4-0.1,3.3-0.2v3.4c-1-0.1-1.8-0.1-3.3-0.1h-2.7c0,0.4,0,0.4,0.1,0.9h-3.9c0-0.3,0.1-0.5,0.1-0.9h-5.9c0,0.5,0,0.5,0.1,0.9
		h-3.9c0.1-0.3,0.1-0.4,0.1-0.9h-2.4c-1.6,0-2.4,0-3.3,0.1V7c1,0.1,2,0.2,3.3,0.2H263z M276,16c-1.7,1.4-2.8,2.2-3.2,2.6
		c0.5,0,0.9-0.1,1.2-0.1c1,0,1,0,2-0.1c-0.4-0.3-0.6-0.5-1-0.9l3-2c2.1,1.7,3.5,3,5.1,4.9l-2.7,2.2c-0.1,0.6-0.1,1-0.1,2.2v4
		c0,1,0.1,1.8,0.1,2.8h-4.2v-0.9h-12.5v0.9h-4.2c0.1-0.9,0.1-1.8,0.1-2.8v-4.2c0-1,0-1.8-0.1-2.6c1,0.1,1.2,0.1,2.9,0.1h15
		c1.1,0,1.5,0,2,0c-0.4-0.5-0.5-0.7-0.9-1.2c-7.8,0.5-7.8,0.5-18.8,0.9c-0.9,0.1-1.3,0.1-1.8,0.1l-0.4-3.6c1,0.1,2,0.2,6,0.2
		c-1.2-0.6-2-1-3.5-1.7l2.5-2.1H261c-1.5,0-2.4,0-3.4,0.1v-3.5c0.9,0.1,1.9,0.1,3.4,0.1h6.7c0-0.5,0-0.6-0.1-1h4.1
		c-0.1,0.3-0.1,0.5-0.1,1h7.1c1.3,0,2.5-0.1,3.4-0.1v3.5c-0.7-0.1-1.8-0.1-3.4-0.1h-5.1L276,16z M262.7,14.9c1,0.5,1.4,0.7,2.1,1
		c0.5-0.4,0.7-0.6,1.2-1H262.7z M263.6,25.6h4.3v-0.8h-4.3V25.6z M263.6,28.4h4.3v-0.8h-4.3V28.4z M270.4,14.9
		c-0.8,0.8-1.7,1.6-2.9,2.6c0.6,0.3,0.6,0.3,0.9,0.5c1.1-0.8,2.8-2.2,3.7-3.1H270.4z M271.8,25.6h4.3v-0.8h-4.3V25.6z M271.8,28.4
		h4.3v-0.8h-4.3V28.4z"/>
	<path d="M285,14.4c0.9,0.2,2.1,0.3,4.1,0.3c0.1,0,0.3,0,0.6,0c0.4-1,0.5-1.5,0.6-2.2l3.7,0.3c-0.2,0.3-0.2,0.3-0.4,0.9
		c-0.3,0.6-0.4,0.9-0.4,0.9c0.2,0,0.2,0,1.2-0.1c2-0.1,4-0.4,5.1-0.6l0.1,3.2c-0.6,0.1-1.2,0.1-1.8,0.2c-1.4,0.1-3.9,0.3-6,0.3
		c-0.3,0.6-0.5,0.8-1,1.5c0.9-0.4,1.7-0.6,2.5-0.6c1.7,0,2.7,0.6,3.1,1.9c0.3-0.1,0.3-0.1,1.4-0.5c0.1,0,0.6-0.2,1.2-0.4
		c1.1-0.4,1.3-0.4,1.6-0.6l1.2,3.2c-1,0.1-3.2,0.7-5.1,1.4c0,0.5,0,0.6,0,1.4c0,0.9,0,1.2,0.1,1.7l-3.3,0.1c0.1-0.3,0.1-0.9,0.1-2.1
		l-0.2,0.1c-0.9,0.4-1,0.5-1.4,0.8c-0.3,0.3-0.5,0.7-0.5,1c0,0.8,0.7,1.1,2.7,1.1c2.4,0,4.7-0.4,6.4-1l0.2,3.6c-0.6,0-0.6,0-1.8,0.2
		c-1.6,0.2-3.3,0.3-4.8,0.3c-2.3,0-3.7-0.3-4.8-0.9c-1-0.6-1.6-1.6-1.6-2.8c0-0.9,0.3-1.7,1-2.5c0.7-0.9,1.6-1.5,2.9-2.1
		c0.5-0.2,0.7-0.3,1.5-0.7c-0.2-0.3-0.4-0.5-0.8-0.5c-1,0-2.4,0.7-3.8,1.9c-0.8,0.7-1.4,1.3-1.9,2l-2.5-2.5c0.6-0.5,1.5-1.3,2.1-2.1
		c0.4-0.5,1.2-1.7,1.5-2.2c0.3-0.5,0.3-0.5,0.4-0.6c-0.3,0-0.5,0-0.6,0c-0.9,0-0.9,0-1.7,0c-0.3,0-0.4,0-0.7,0c0,0-0.2,0-0.3,0
		L285,14.4z"/>
	<path d="M319.7,15.4c-0.5,0.1-0.5,0.1-1.1,0.3c-1.2,0.4-2.3,0.7-3.9,1c0,1,0,2.3-0.1,2.7h3.3c1.5,0,2.3,0,3.2-0.1v3.3
		c-0.8-0.1-1.3-0.1-3.1-0.1h-3.6c-0.2,1.8-0.6,3.1-1.3,4.2c-0.7,1.2-1.9,2.3-3.3,3.2c-0.6,0.4-1,0.6-1.9,1c-0.8-1.3-1.3-2-2.5-3
		c2.4-0.9,3.7-1.7,4.5-2.9c0.5-0.7,0.8-1.4,1-2.6h-3.9c-1.8,0-2.3,0-3.1,0.1v-3.3c0.8,0.1,1.3,0.1,3.2,0.1h4.2c0-0.6,0-1,0-1.7v-0.6
		c-1.9,0.2-2.1,0.2-5.3,0.3c-0.2-1.1-0.4-1.8-1-3c0.7,0,1,0,1.3,0c2.7,0,6.5-0.5,8.8-1c1-0.3,1.8-0.5,2.5-0.9L319.7,15.4z"/>
	<path d="M332.8,27h3.1c1.3,0,1.9,0,2.7-0.1v3c-0.7-0.1-1.3-0.1-2.7-0.1h-9.3c-1.5,0-1.8,0-2.7,0.1v-3c0.7,0.1,1.2,0.1,2.7,0.1h3v-6
		h-1.8c-1.3,0-1.7,0-2.6,0.1V18c0.8,0.1,1.4,0.1,2.6,0.1h7c1.3,0,1.8,0,2.6-0.1v3.1c-0.6-0.1-1.4-0.1-2.6-0.1h-1.9V27z"/>
	<path d="M344.7,17.3c0.8,1.5,1.4,3.1,1.9,5.1l-3.1,0.9c-0.5-2.1-0.9-3.3-1.8-5.2L344.7,17.3z M356.3,17.6c-0.1,0.4-0.1,0.4-0.3,1.2
		c-0.6,2.8-1.4,4.9-2.5,6.5c-1.1,1.6-2.5,3-4.2,4.1c-0.7,0.4-1.2,0.7-2.4,1.3c-0.7-1.2-1.1-1.7-2.2-2.8c4-1.6,6.2-3.6,7.4-6.9
		c0.5-1.4,0.9-3,0.9-4.2L356.3,17.6z M349.1,16.5c1.1,2.1,1.4,3,1.9,4.9l-3.1,0.9c-0.4-1.7-0.9-3.2-1.8-5L349.1,16.5z"/>
	<path d="M368.4,13.1c-0.1,0.2-0.1,0.2-0.2,0.5c0,0.1-0.1,0.2-0.1,0.3c-0.1,0.2-0.1,0.3-0.2,0.4c-0.3,0.6-0.3,0.6-0.4,0.9l5-0.1
		c0.8,0,1,0,1.5-0.2l1.7,1.6c-0.2,0.4-0.3,0.5-0.6,1.4c-1,3.3-2.4,5.9-4.1,7.9c-1.8,2.1-4.1,3.7-7.4,5.2c-0.7-1.3-1.3-2.1-2.4-3
		c2.8-1,4.9-2.3,6.7-4.1c1.5-1.5,2.6-3.4,3.3-5.7l-5.3,0.1c-1.3,2.1-2.6,3.5-4.5,5c-1-1.2-1.5-1.6-2.8-2.4c2.4-1.7,4-3.5,5.3-6.1
		c0.5-1,0.8-1.7,0.9-2.4L368.4,13.1z"/>
</g>
<g>
	<g>
		<g>
			<path class="st0" d="M40.5,10.5c-0.4-0.8-1.2-1.2-2.1-1.2c-0.9,0-1.7,0.4-2.1,1.2L26.1,28.3c-0.4,0.8-0.4,1.7,0,2.4
				c0.4,0.8,1.2,1.2,2.1,1.2l20.4-0.1c0.9,0,1.7-0.4,2.1-1.2c0.4-0.8,0.4-1.7,0-2.4L40.5,10.5z"/>
			<path class="st2" d="M28.2,32.5c-1.1,0-2.1-0.6-2.6-1.5c-0.5-0.9-0.5-2.1,0-3l10.1-17.7c0.5-1,1.5-1.5,2.6-1.5l0,0
				c1.1,0,2.1,0.6,2.6,1.5l10.3,17.6c0.5,0.9,0.5,2.1,0,3c-0.5,1-1.5,1.5-2.6,1.5L28.2,32.5C28.3,32.5,28.2,32.5,28.2,32.5z
				 M38.3,9.9L38.3,9.9c-0.7,0-1.3,0.3-1.6,0.9L26.6,28.6c-0.3,0.6-0.3,1.3,0,1.9c0.3,0.5,0.9,0.9,1.6,0.9l0,0l20.4-0.1
				c0.7,0,1.3-0.3,1.6-0.9c0.3-0.6,0.3-1.3,0-1.9L39.9,10.8C39.6,10.3,39,9.9,38.3,9.9z"/>
		</g>
		<path class="st0" d="M52.3,27.2L42,9.6c-0.8-1.3-2.2-2.2-3.7-2.1l0,0c-1.6,0-2.9,0.8-3.7,2.2L24.5,27.3c-0.8,1.3-0.8,2.9,0,4.3
			c0.8,1.3,2.2,2.2,3.7,2.1l20.4-0.1c1.6,0,2.9-0.8,3.7-2.2C53.1,30.2,53.1,28.6,52.3,27.2z M50.7,30.6c-0.4,0.8-1.2,1.2-2.1,1.2
			l-20.4,0.1c-0.9,0-1.7-0.4-2.1-1.2s-0.4-1.7,0-2.4l10.1-17.7c0.4-0.8,1.2-1.2,2.1-1.2s1.7,0.4,2.1,1.2l10.3,17.6
			C51.2,28.9,51.2,29.8,50.7,30.6z"/>
	</g>
	<g class="st4">
		<path class="st2" d="M36.9,23.3c0.1,0.4,0.1,0.5,0.3,0.7c0.3,0.3,0.7,0.5,1.2,0.5c0.8,0,1.4-0.4,1.4-1.1c0-0.4-0.2-0.8-0.6-0.9
			c-0.2-0.1-0.6-0.1-1-0.1c-0.4,0-0.9,0-1.3,0.1v-1.9c0.4,0,0.7,0.1,1.1,0.1c1,0,1.5-0.3,1.5-1c0-0.6-0.4-0.9-1.1-0.9
			c-0.8,0-1.2,0.3-1.3,1l-2.3-0.3c0.2-0.7,0.4-1,0.7-1.4c0.7-0.7,1.6-1.1,3-1.1c1.2,0,2.1,0.3,2.8,0.9c0.4,0.4,0.6,0.9,0.6,1.5
			c0,1.1-0.6,1.9-1.9,2.1c0.7,0.1,1,0.2,1.4,0.6c0.5,0.4,0.7,1,0.7,1.6c0,0.5-0.2,1.1-0.4,1.4c-0.2,0.3-0.6,0.6-1,0.8
			c-0.6,0.3-1.4,0.4-2.2,0.4c-1,0-1.9-0.2-2.5-0.6c-0.5-0.3-0.9-0.8-1.1-1.4c-0.1-0.2-0.1-0.3-0.2-0.6L36.9,23.3z"/>
	</g>
	<g>
		<path class="st2" d="M37.4,29.3v-1.7h2v1.7H37.4z"/>
	</g>
</g>
<path class="st7" d="M312.2,58.5H184.5c-5.5,0-9.9-4.4-9.9-9.9l0,0c0-5.5,4.4-9.9,9.9-9.9h127.6c5.5,0,9.9,4.4,9.9,9.9l0,0
	C322,54,317.6,58.5,312.2,58.5z"/>
<g class="st4">
	<path class="st2" d="M187.5,41.9c0.5,0.1,0.9,0.1,1.6,0.1h1.7c1,0,1.2,0,1.7-0.1c-0.1,0.7-0.1,1.3-0.1,2.2v7.2c0,0.8,0,1.4,0.1,2.1
		h-3c0.1-0.6,0.1-1.3,0.1-2.1v-7h-0.5c-0.5,0-1.1,0-1.7,0.1V41.9z"/>
	<path class="st2" d="M200.8,49.7c0.6-1.3,0.7-2.4,0.7-6.4c0-0.9,0-1.3-0.1-1.7c0.5,0.1,0.7,0.1,1.6,0.1h5.2c0.9,0,1.1,0,1.5-0.1
		c0,0.4-0.1,0.6-0.1,1.6v7.1c0,0.5-0.1,0.9-0.4,1.1c-0.3,0.3-0.8,0.4-1.7,0.4c-0.2,0-0.3,0-0.9,0c0-0.4,0-0.5-0.1-0.7h-2.4
		c-0.3,0-0.5,0-0.9,0c0-0.3,0-0.5,0-1v-1.5c0-0.3,0-0.4,0-0.9c0.4,0,0.5,0,0.7,0h2.5c0.3,0,0.5,0,0.8,0c0,0.4,0,0.5,0,0.9V50
		c0.4,0,0.4,0,0.4-0.3v-2.5h-4.4c-0.1,1.9-0.5,3.1-1.2,4.6c-0.5-0.5-0.8-0.9-1.3-1.3v0.6c0.2,0.3,0.3,0.4,0.5,0.5
		c0.2,0.2,0.4,0.2,0.7,0.3c0.6,0.1,1.3,0.2,2.2,0.2c2.8,0,4.6-0.1,6.4-0.3c-0.3,0.8-0.4,1.2-0.5,2.1c-1.1,0.1-3.1,0.1-4.6,0.1
		c-3.7,0-4.5-0.2-5.6-1.3c-0.5,0.5-1.2,1-1.8,1.4l-0.9-2.2c0.4-0.1,1.1-0.6,1.7-1v-2.6h-0.6c-0.3,0-0.5,0-0.9,0.1v-2.1
		c0.4,0.1,0.6,0.1,1.1,0.1h1.3c0.4,0,0.7,0,1-0.1c0,0.3,0,0.6,0,1.6V49.7z M198.9,41.3c1.1,0.9,1.7,1.5,2.6,2.5l-1.6,1.6
		c-0.9-1.1-1.4-1.7-2.5-2.7L198.9,41.3z M204.7,45.3h-1.2c0,0.2,0,0.2,0,0.5h1.2V45.3z M204.6,43.4h-1.2v0.5h1.2V43.4z M205,49.6
		h0.8V49H205V49.6z M207.8,43.9v-0.5h-1.3v0.5H207.8z M207.8,45.9v-0.5h-1.3v0.5H207.8z"/>
	<path class="st2" d="M213.6,52.3c0,0.9,0,1.4,0.1,1.8h-2.2c0.1-0.4,0.1-0.9,0.1-1.9v-9.1c0-0.8,0-1.1-0.1-1.6
		c0.4,0,0.7,0.1,1.4,0.1h2.9c0.7,0,1,0,1.4-0.1c0,0.4,0,0.7,0,1.3v2.5c0,0.7,0,0.9,0,1.2c-0.3,0-0.7,0-1.1,0h-2.4V52.3z M213.6,43.6
		h1.6v-0.5h-1.6V43.6z M213.6,45.2h1.6v-0.5h-1.6V45.2z M220.5,51.8c0,0.2,0,0.2,0,0.3c0.1,0,0.2,0,0.2,0c0.7,0,0.8,0,0.8-0.3v-5.2
		h-2.6c-0.4,0-0.8,0-1.1,0c0-0.4,0-0.5,0-1.2v-2.5c0-0.5,0-0.9,0-1.3c0.4,0,0.7,0.1,1.4,0.1h3c0.7,0,1,0,1.4-0.1
		c0,0.5-0.1,0.8-0.1,1.6v8.9c0,1.6-0.4,2-2.5,2c-0.2,0-0.2,0-1,0c-0.1-0.6-0.1-0.8-0.2-1.2c-0.2,0-0.3,0-0.5,0h-2.9v0.6h-2
		c0-0.4,0.1-0.9,0.1-1.5v-3.7c0-0.5,0-0.8,0-1.2c0.4,0,0.7,0,1.2,0h3.6c0.5,0,0.8,0,1.2,0c0,0.3,0,0.6,0,1.2V51.8z M216.5,49.3h2.1
		v-0.5h-2.1V49.3z M216.5,51.3h2.1v-0.6h-2.1V51.3z M219.8,43.6h1.7v-0.5h-1.7V43.6z M219.8,45.2h1.7v-0.5h-1.7V45.2z"/>
	<path class="st2" d="M228.7,47.7c-0.4,0-0.6,0-0.9,0.1V47c-0.7,0.7-1,1-1.7,1.5c-0.4-0.8-0.8-1.3-1.4-1.9c1.6-1.1,2.7-2.3,3.5-3.9
		c0.3-0.5,0.4-0.9,0.5-1.3l2.3,0.8c-0.1,0.2-0.2,0.4-0.4,0.7c-0.4,0.8-1.1,2-1.7,2.9h5.2c-0.7-0.9-1.3-1.9-1.8-3
		c-0.1-0.2-0.2-0.4-0.3-0.6l2-0.8c0.1,0.4,0.2,0.6,0.6,1.3c0.8,1.5,2,2.7,3.5,3.7c-0.7,0.8-0.8,1.1-1.4,2.1
		c-0.6-0.4-0.8-0.6-1.2-0.9c0,2.8-0.2,4.6-0.5,5.4c-0.4,0.8-1,1.1-2.7,1.1c-0.1,0-0.1,0-1,0c-0.1-0.8-0.2-1.3-0.6-2.2
		c0.6,0.1,1.1,0.1,1.5,0.1c0.7,0,0.9-0.1,1-0.7c0.1-0.5,0.2-1.9,0.2-3.5h-2.1c-0.2,1.5-0.5,2.4-1.1,3.5c-0.5,0.9-1.3,1.6-2.2,2.3
		c-0.4,0.3-0.7,0.5-1.4,0.8c-0.4-0.8-0.7-1.2-1.4-1.9c1.6-0.6,2.6-1.4,3.2-2.5c0.4-0.7,0.5-1.3,0.6-2.1H228.7z"/>
	<path class="st2" d="M245.1,53.3l-1.6-1.6l2.5-2.5l-2.5-2.5l1.6-1.6l2.5,2.5l2.5-2.5l1.6,1.6l-2.5,2.5l2.5,2.5l-1.6,1.6l-2.5-2.5
		L245.1,53.3z"/>
	<path class="st2" d="M259,43.3c0-0.7,0-1.3-0.1-1.8h2.2c-0.1,0.5-0.1,1-0.1,1.8v1h1.8V43c0-0.6,0-1.1-0.1-1.6h2.2
		c-0.1,0.5-0.1,0.9-0.1,1.6v1.3h1.7v-1.3c0-0.7,0-1.1-0.1-1.5h2.2c-0.1,0.5-0.1,0.9-0.1,1.6v1.3h0.1c0.7,0,1.2,0,1.6-0.1v2.1
		c-0.5-0.1-0.9-0.1-1.6-0.1h-0.1V49c0,0.4,0,0.9,0.1,1.4c-0.4,0-0.7,0-1.2,0h-3.5c-0.5,0-0.8,0-1.3,0c0-0.4,0-0.8,0-1.2v-3h-1.8v5.5
		h6.8c0.8,0,1.3,0,2-0.1v2.1c-0.7-0.1-1.3-0.1-2-0.1h-6.8v0.6h-2.2c0.1-0.7,0.1-1.4,0.1-2.2v-5.9c-0.8,0-1.1,0-1.6,0.1v-2.1
		c0.5,0.1,0.8,0.1,1.6,0.1V43.3z M264.9,46.2v2.3h1.7v-2.3H264.9z"/>
	<path class="st2" d="M280.5,42.1c0-0.4,0-0.5-0.1-0.8h2.1c0,0.3,0,0.4-0.1,0.8c0.8,0,1.3,0,1.7-0.1v2.1c-0.5-0.1-0.9-0.1-1.7-0.1
		v1.2c0,0.5,0,0.7,0,1c-0.4,0-0.6,0-1.5,0h-6.7c-0.3,0-0.8,0-1.5,0c0-0.3,0.1-0.6,0.1-1.1V44c-0.8,0-1.1,0-1.6,0.1V42
		c0.5,0.1,0.8,0.1,1.6,0.1c0-0.3,0-0.5-0.1-0.8h2.1c0,0.2-0.1,0.4-0.1,0.8h1.7c0-0.4,0-0.6-0.1-0.8h2.2c0,0.3-0.1,0.4-0.1,0.8H280.5
		z M278.7,52.6c0,0.8,0,1.3,0.1,1.7h-2.2c0.1-0.4,0.1-0.9,0.1-1.7v-1.8h-1.6V52c0,0.8,0,1.2,0.1,1.6h-2.2c0.1-0.5,0.1-0.9,0.1-1.6
		v-2h-1.6c0.1-0.3,0.1-0.6,0.1-1.1v-1.3c0-0.5,0-0.8-0.1-1.1c0.6,0,0.9,0.1,1.6,0.1h9.4c0.7,0,1.2,0,1.6-0.1c0,0.3,0,0.6,0,1.1V49
		c0,0.4,0,0.7,0.1,1h-1.6v2c0,0.6-0.2,1-0.5,1.2c-0.4,0.2-0.8,0.3-1.7,0.3c-0.1,0-0.2,0-0.3,0c-0.1,0-0.2,0-0.4,0
		c-0.1-0.7-0.3-1.1-0.5-1.7c0.4,0,0.7,0.1,0.9,0.1c0.4,0,0.5,0,0.5-0.3v-0.8h-1.7V52.6z M276.7,48.4h-3.1v0.5c0.4,0,0.5,0,0.9,0h2.3
		V48.4z M276.7,44H275v0.6h1.7V44z M280.5,44.6V44h-1.8v0.6H280.5z M281.3,49c0.3,0,0.4,0,0.7,0v-0.5h-3.2V49H281.3z"/>
	<path class="st2" d="M292.6,41.5c-0.1,0.2-0.1,0.6-0.1,1.1c0,1.5,0.2,3.1,0.6,4.1c0.5,1.4,1.4,2.8,2.6,3.8c0.8,0.7,1.4,1.1,2.4,1.6
		c-0.6,0.7-0.9,1.2-1.4,2.2c-1.5-0.9-2.5-1.7-3.4-2.8c-0.8-1-1.4-2-1.9-3.4c-0.6,1.8-1.2,2.8-2.3,4c-0.9,0.9-1.7,1.6-3,2.3
		c-0.4-0.9-0.7-1.2-1.4-2c2-1,3.2-2,4-3.5c0.9-1.5,1.3-3.6,1.3-6.1c0-0.5,0-0.7-0.1-1.1H292.6z"/>
	<path class="st2" d="M311.8,45.3c-0.3,0-0.4,0-0.7,0c-0.1,2.3-0.5,3.8-1.3,5.3c0.6,0.7,1.3,1.3,2.2,1.7c-0.5,0.7-0.8,1.2-1.1,2
		c-0.9-0.5-1.6-1.2-2.3-2c-0.8,0.9-1.6,1.5-2.7,2c-0.3-0.6-0.5-0.9-0.8-1.3l-0.5,0.9c-0.6-0.5-0.8-0.6-1.5-1
		c-0.9,0.7-1.8,1.1-3.2,1.4c-0.3-0.8-0.5-1.1-1-1.8c1-0.1,1.6-0.2,2.4-0.6c-0.7-0.3-1-0.4-2-0.8c0.5-0.6,0.6-0.9,0.9-1.3
		c-0.6,0-0.8,0-1.2,0.1v-1.9c0.3,0.1,0.6,0.1,1.2,0.1h0.9c0.1-0.3,0.1-0.4,0.3-0.7l2,0.3c-0.1,0.1-0.1,0.3-0.2,0.4h1.8
		c0.3,0,0.5,0,0.8,0c-0.2-0.4-0.4-0.7-0.7-1c-0.1,0.2-0.1,0.2-0.2,0.5c-0.7-0.5-0.9-0.7-1.2-1.3c0,0.2,0,0.4,0,0.5v0.2
		c0,0.2,0,0.3,0,0.4h-2c0-0.1,0-0.1,0-0.2c0,0,0,0,0-0.2v-0.2c0-0.1,0-0.3,0-0.5c-0.7,0.9-1,1.1-1.9,1.7c-0.3-0.7-0.6-1.1-1.1-1.6
		c0.8-0.3,1.3-0.7,1.9-1.2h-0.4c-0.5,0-0.9,0-1.2,0.1v-1.7c0.3,0,0.6,0.1,1.1,0.1c-0.3-0.7-0.6-1.1-1.1-1.6l1.6-0.7
		c0.5,0.6,0.7,0.9,1,1.4v-0.6c0-0.4,0-0.7-0.1-0.9h2.1c-0.1,0.2-0.1,0.4-0.1,0.9V43c0.4-0.6,0.7-1.1,0.9-1.7l1.7,0.7
		c-0.4,0.7-0.6,1.1-0.9,1.6c0.4,0,0.5,0,0.7,0v1.6c0.5-1.2,1-3.1,1-4l2.1,0.4c0,0.1,0,0.1-0.1,0.3c0,0,0,0.1-0.1,0.2
		c0,0.1-0.1,0.2-0.1,0.3c-0.1,0.4-0.1,0.5-0.2,0.9h2c0.7,0,1,0,1.3-0.1V45.3z M301.6,43.1l-1.3,0.6h1.3V43.1z M302.1,49.9
		c-0.1,0.2-0.2,0.3-0.3,0.5c0.4,0.1,0.5,0.2,0.8,0.3c0.2-0.3,0.3-0.5,0.4-0.8H302.1z M304.7,43.7l-1.2-0.5v0.5H304.7z M306,50
		c-0.3,0-0.5,0-0.9-0.1c-0.2,0.7-0.3,1-0.6,1.5c0.4,0.2,0.6,0.3,1.2,0.6c0.7-0.5,1.3-0.9,1.8-1.5c-0.4-0.9-0.7-1.4-0.9-2.5
		c-0.2,0.2-0.2,0.3-0.5,0.6V50z M304.5,45.3c0.2,0.2,0.4,0.4,1,0.7c0.1-0.2,0.2-0.4,0.4-0.7c-0.2,0-0.4,0-0.8,0H304.5z M307.9,45.3
		c-0.1,0.2-0.1,0.2-0.2,0.4c0.2,1.3,0.4,1.9,0.8,2.9c0.4-1,0.5-1.9,0.5-3.3H307.9z"/>
</g>
</svg>
