<?xml version="1.0" encoding="utf-8"?>
<!-- Generator: Adobe Illustrator 24.0.1, SVG Export Plug-In . SVG Version: 6.00 Build 0)  -->
<svg version="1.1" id="レイヤー_1" xmlns="http://www.w3.org/2000/svg" xmlns:xlink="http://www.w3.org/1999/xlink" x="0px"
	 y="0px" viewBox="0 0 522.3 78" style="enable-background:new 0 0 522.3 78;" xml:space="preserve">
<style type="text/css">
	.st0{fill:url(#SVGID_1_);}
	.st1{opacity:0.28;clip-path:url(#SVGID_3_);}
	.st2{fill:#FFFFFF;}
	.st3{fill:#CF000E;}
	.st4{fill:#133C36;}
	.st5{fill:#FFE501;}
	.st6{fill:#E60000;}
	.st7{enable-background:new    ;}
	.st8{fill:#003705;}
	.st9{fill:#040000;}
	.st10{fill:none;stroke:#FFFFFF;stroke-width:1.9361;stroke-miterlimit:10;}
</style>
<g id="レイヤー_2_1_">
	
		<linearGradient id="SVGID_1_" gradientUnits="userSpaceOnUse" x1="261.15" y1="2545.8699" x2="261.15" y2="2468.1514" gradientTransform="matrix(1 0 0 1 0 -2468)">
		<stop  offset="0" style="stop-color:#FFEC00"/>
		<stop  offset="0.9879" style="stop-color:#FFCE52"/>
	</linearGradient>
	<rect y="0.2" class="st0" width="522.3" height="77.7"/>
	<g>
		<g>
			<g>
				<g>
					<g>
						<g>
							<g>
								<defs>
									<rect id="SVGID_2_" y="0.2" width="522.3" height="77.7"/>
								</defs>
								<clipPath id="SVGID_3_">
									<use xlink:href="#SVGID_2_"  style="overflow:visible;"/>
								</clipPath>
								<g class="st1">
									<polygon class="st2" points="-25.3,68.3 -58.1,68.3 -5.9,7.6 27,7.6 									"/>
									<polygon class="st2" points="29.2,68.3 -3.6,68.3 48.6,7.6 81.4,7.6 									"/>
									<polygon class="st2" points="83.7,68.3 50.9,68.3 103.1,7.6 135.9,7.6 									"/>
									<polygon class="st2" points="138.2,68.3 105.3,68.3 157.6,7.6 190.4,7.6 									"/>
									<polygon class="st2" points="192.7,68.3 159.8,68.3 212.1,7.6 244.9,7.6 									"/>
									<polygon class="st2" points="247.2,68.3 214.3,68.3 266.6,7.6 299.4,7.6 									"/>
									<polygon class="st2" points="301.7,68.3 268.8,68.3 321,7.6 353.9,7.6 									"/>
									<polygon class="st2" points="356.2,68.3 323.3,68.3 375.5,7.6 408.4,7.6 									"/>
									<polygon class="st2" points="410.7,68.3 377.8,68.3 430,7.6 462.9,7.6 									"/>
									<polygon class="st2" points="465.2,68.3 432.3,68.3 484.5,7.6 517.4,7.6 									"/>
									<polygon class="st2" points="519.6,68.3 486.8,68.3 539,7.6 571.9,7.6 									"/>
								</g>
							</g>
						</g>
					</g>
				</g>
			</g>
		</g>
	</g>
</g>
<rect x="160.5" y="52.1" class="st3" width="263.9" height="19.6"/>
<g>
	<path class="st4" d="M117.8,67.6H71.3c-3.5,0-6.7-1.8-8.4-4.8c-1.8-3-1.8-6.7,0-9.7l23.3-40.3c1.8-3,4.9-4.8,8.4-4.8
		c3.5,0,6.7,1.8,8.4,4.8l23.1,40.3c1.8,3,1.8,6.7,0,9.7C124.5,65.8,121.2,67.6,117.8,67.6z"/>
	<g>
		<path class="st5" d="M87.8,12.8L64.7,53.1c-2.9,5.2,0.6,11.5,6.7,11.5h46.4c5.8,0,9.6-6.3,6.7-11.5l-23.2-40.3
			C98.2,7.6,90.8,7.6,87.8,12.8z"/>
		<path class="st6" d="M117.7,66.4H71.2c-3.5,0-6.7-1.8-8.4-4.8c-1.8-3-1.8-6.7,0-9.7l23.3-40.3c1.8-3,4.9-4.8,8.4-4.8
			c3.5,0,6.7,1.8,8.4,4.8l23.3,40.3c1.8,3,1.8,6.7,0,9.7C124.5,64.7,121.1,66.4,117.7,66.4z M89.7,13.8L66.5,54.1
			c-1,1.8-1,3.8,0,5.5c1,1.8,2.8,2.8,4.8,2.8h46.4c1.9,0,3.8-1,4.8-2.8c1-1.8,1-3.8,0-5.5L99.4,13.8c-1-1.8-2.8-2.8-4.8-2.8
			C92.5,11,90.7,12.1,89.7,13.8L89.7,13.8z"/>
	</g>
	<g class="st7">
		<path class="st6" d="M95.6,44.2v1.2c0,1.7,0,1.9,0.1,2.5h-3.3c0.1-0.6,0.1-1.3,0.1-2.5v-6.8c-0.3,3.1-0.3,3.1-0.6,4.5
			c-0.3,2.1-0.8,3.3-1.5,4.8c-0.6-1-1.1-1.6-1.8-2.4c0,1,0,1.5,0.2,2.5h-3.6c0.1-1.2,0.2-1.5,0.2-2.6v-5.6c0-0.5,0-1,0.1-2.5
			c-0.3,0.6-0.6,1.1-1.1,1.5c-0.3-1.8-0.6-2.5-1.2-4.2c1.1-1.2,1.9-2.6,2.7-4.4c0.6-1.4,0.9-2.7,1.1-3.8l3.4,0.8
			c-0.1,0.3-0.1,0.4-0.3,0.8c0.6,0.1,1.3,0.1,2.2,0.1h0.3v-0.3c0-0.6,0-0.8-0.1-1.2h3.5c0.1,0.3,0.1,0.8,0.1,1.2v0.3h2.3v-0.3
			c0-0.6,0-0.8-0.1-1.2h3.4c-0.1,0.3-0.1,0.6-0.1,1.1V28h0.6c1.1,0,1.9-0.1,2.4-0.2v3c-0.8-0.1-1.1-0.1-2.4-0.1h-0.6V32h0.8
			c1.3,0,1.8,0,2.6-0.1V35c-0.6-0.1-1.3-0.1-2.1-0.1h-10v0.6c0.6,0.1,1.2,0.1,2.3,0.1h7.3c1,0,1.5,0,2.1-0.1
			c-0.1,0.5-0.1,1.1-0.1,2.3v7.7c0,1.8-0.5,2.2-3.8,2.2c-0.2-1.1-0.3-1.6-0.6-2.5c0.3,0,0.6,0.1,0.8,0.1c0.3,0,0.4-0.1,0.4-0.4v-0.7
			h-1.4V45c0,1.4,0,1.9,0.1,2.6h-3c0.1-0.8,0.1-1.3,0.1-2.6v-0.8H95.6L95.6,44.2z M88.8,43.6c0.3-0.8,0.4-1.4,0.6-2.3
			c0.2-1.3,0.3-3.9,0.3-6.6c0-1.3,0-1.9-0.1-2.8c0.9,0.1,1.3,0.1,2.5,0.1h0.8v-1.2h-0.3c-1.3,0-1.7,0-2.4,0.1v-2.4
			c-0.4,1.4-0.6,1.9-1.3,3.3C88.8,31.8,88.8,43.6,88.8,43.6z M97,38h-1.4v0.9H97V38z M97,41.1h-1.4v1H97V41.1z M98.4,32v-1.1h-2.3
			V32H98.4z M101.3,38.9V38h-1.4v0.9H101.3z M101.3,42v-0.9h-1.4V42H101.3z"/>
	</g>
	<g class="st7">
		<path class="st6" d="M93.1,20.2c0,0.3,0.1,0.5,0.3,0.8c0.3,0.3,0.6,0.5,1.2,0.5c0.8,0,1.3-0.3,1.3-0.9c0-0.3-0.2-0.6-0.4-0.6
			c-0.3-0.1-0.5-0.2-1.5-0.4c-0.9-0.2-1.3-0.3-1.6-0.6c-0.6-0.4-1-1.1-1-1.9c0-1.6,1.3-2.5,3.3-2.5c1.3,0,2.3,0.4,2.8,1.2
			c0.3,0.3,0.3,0.6,0.5,1.2l-2.3,0.2c-0.1-0.6-0.5-0.9-1.3-0.9c-0.6,0-1.1,0.3-1.1,0.8c0,0.3,0.2,0.5,0.5,0.6
			c0.2,0.1,0.2,0.1,1.4,0.3c0.8,0.2,1.3,0.3,1.7,0.6c0.8,0.4,1.1,1.2,1.1,2.1c0,0.8-0.3,1.4-0.6,1.8c-0.6,0.6-1.5,0.8-2.7,0.8
			c-0.8,0-1.7-0.2-2.3-0.5c-0.5-0.3-0.8-0.8-1.1-1.3c-0.1-0.3-0.2-0.5-0.3-0.9L93.1,20.2z"/>
	</g>
	<polygon points="77,58.6 94.4,75.2 129.5,22.2 91.3,62.5 80.8,54 	"/>
</g>
<g>
	<path class="st8" d="M414.8,45.4h-90c-5.3,0-9.6-4.3-9.6-9.6l0,0c0-5.3,4.3-9.6,9.6-9.6h90c5.3,0,9.6,4.3,9.6,9.6l0,0
		C424.4,41.1,420.1,45.4,414.8,45.4z"/>
	<g>
		<g class="st7">
			<path d="M163.9,13.9c0.2,0.6,0.4,0.8,1.3,0.8c0.7,0,1.1-0.3,1.1-0.7c0-0.2-0.1-0.4-0.3-0.4c-0.2-0.1-0.3-0.1-0.9-0.3
				c-0.8-0.2-0.9-0.3-1.3-0.4c-0.5-0.3-0.8-0.7-0.8-1.3c0-0.3,0.1-0.6,0.3-0.8c0.4-0.4,0.9-0.8,1.8-0.8c0.8,0,1.3,0.2,1.7,0.5
				c0.3,0.3,0.4,0.4,0.4,0.9l-1.3,0.2c-0.1-0.4-0.4-0.8-0.9-0.8c-0.6,0-0.9,0.3-0.9,0.6c0,0.2,0.1,0.3,0.3,0.4
				c0.2,0.1,0.4,0.2,0.9,0.3c0.9,0.2,1.3,0.3,1.6,0.5c0.4,0.3,0.5,0.6,0.5,1.2c0,0.4-0.2,0.8-0.4,1c-0.4,0.4-1,0.6-1.9,0.6
				c-0.9,0-1.6-0.3-2-0.8c-0.2-0.3-0.3-0.4-0.4-0.8L163.9,13.9z"/>
			<path d="M171.6,15c-0.4,0.4-0.6,0.4-0.9,0.5c-0.3,0.1-0.5,0.1-0.8,0.1c-1.1,0-1.8-0.5-1.8-1.5c0-0.6,0.4-1.3,1-1.4
				c0.6-0.3,1.3-0.4,2.5-0.4v-0.4c0-0.5-0.4-0.8-1-0.8c-0.4,0-0.8,0.1-0.9,0.3c-0.2,0.1-0.3,0.3-0.4,0.6l-1.2-0.2
				c0.2-0.5,0.4-0.8,0.8-1c0.4-0.3,0.9-0.4,1.8-0.4s1.4,0.2,1.8,0.5c0.3,0.3,0.4,0.6,0.4,1.3v2.4c0,0.4,0,0.8,0.1,1.2h-1.3V15
				L171.6,15z M171.6,13c-1.8,0.1-2.4,0.4-2.4,1c0,0.4,0.3,0.7,0.8,0.7c0.4,0,0.9-0.2,1.3-0.4c0.3-0.3,0.3-0.4,0.3-0.8L171.6,13
				L171.6,13z"/>
			<path d="M175.2,8.3c-0.1,0.4-0.1,0.7-0.1,1.3v2.9l1.3-1.3c0.4-0.4,0.5-0.6,0.8-0.8h1.7c-0.5,0.4-0.5,0.4-0.9,0.8l-1.3,1.3
				l1.5,2.1c0.6,0.8,0.6,0.8,0.8,1h-1.6c-0.1-0.3-0.3-0.4-0.6-1l-0.9-1.4l-0.8,0.8v0.6c0,0.6,0,0.8,0.1,1.2H174
				c0.1-0.4,0.1-0.7,0.1-1.2V9.7c0-0.5,0-0.8-0.1-1.3L175.2,8.3L175.2,8.3z"/>
			<path d="M184.7,10.3c-0.1,0.4-0.1,0.7-0.1,1.2v2.8c0,0.4,0,0.8,0.1,1.2h-1.3v-0.4c0-0.1,0-0.2,0-0.4c-0.4,0.8-0.9,0.9-1.9,0.9
				c-0.4,0-0.8-0.1-1.1-0.3c-0.4-0.3-0.8-0.8-0.8-1.6v-2.3c0-0.4,0-0.8-0.1-1.2h1.3c-0.1,0.4-0.1,0.8-0.1,1.2v2c0,0.5,0.1,0.8,0.4,1
				c0.1,0.1,0.3,0.1,0.4,0.1c0.7,0,1.2-0.4,1.6-1.3v-1.8c0-0.4,0-0.8-0.1-1.2C183.4,10.3,184.7,10.3,184.7,10.3z"/>
			<path d="M187,13.3c0.1,0.4,0.1,0.6,0.3,0.8c0.3,0.4,0.8,0.5,1.3,0.5c0.9,0,1.4-0.4,1.4-1.1c0-0.4-0.2-0.7-0.4-0.8
				c-0.3-0.1-0.3-0.2-1.6-0.4c-0.7-0.2-1-0.3-1.4-0.5c-0.4-0.4-0.8-0.8-0.8-1.4c0-1.3,1-2.1,2.6-2.1c1,0,1.8,0.3,2.2,0.9
				c0.3,0.3,0.4,0.5,0.4,1l-1.3,0.2c-0.1-0.3-0.1-0.4-0.3-0.7c-0.3-0.3-0.6-0.4-1.2-0.4c-0.8,0-1.3,0.4-1.3,0.9
				c0,0.4,0.2,0.7,0.6,0.8c0.2,0.1,0.3,0.1,1.3,0.3c0.8,0.2,1.2,0.3,1.4,0.5c0.5,0.4,0.8,0.9,0.8,1.6c0,0.7-0.2,1.2-0.5,1.5
				c-0.4,0.4-1.3,0.7-2.1,0.7c-0.8,0-1.4-0.2-1.9-0.4c-0.4-0.3-0.6-0.6-0.8-1c-0.1-0.2-0.1-0.4-0.2-0.8L187,13.3z"/>
			<path d="M197.3,15.5c-0.1-0.3-0.2-0.7-0.3-0.9l-0.4-0.9h-2.9l-0.4,0.9c-0.2,0.4-0.2,0.5-0.3,0.9h-1.5c0.1-0.3,0.3-0.7,0.4-1.1
				l2-5.1c0.2-0.4,0.3-0.7,0.3-0.9h1.6c0.1,0.3,0.1,0.4,0.3,0.9l2,5.1c0.3,0.6,0.4,0.8,0.4,1.1H197.3z M195.5,9.9
				c-0.1-0.1-0.1-0.2-0.2-0.4c-0.1,0.4-0.1,0.4-0.2,0.4l-0.9,2.6h2.2L195.5,9.9z"/>
			<path d="M204.8,14.3c0.5,0.8,0.7,0.8,0.9,1.2H204c-0.1-0.3-0.4-0.7-0.5-0.9l-1.8-2.5l-0.9,0.9v1.3c0,0.5,0,0.8,0.1,1.2h-1.3
				c0.1-0.4,0.1-0.7,0.1-1.2V9.5c0-0.4,0-0.8-0.1-1.2h1.3c-0.1,0.3-0.1,0.7-0.1,1.2v2.1l2.3-2.4c0.4-0.4,0.5-0.6,0.8-0.9h1.7
				c-0.3,0.3-0.5,0.5-0.9,0.9l-1.9,2L204.8,14.3z"/>
			<path d="M212.7,8.3c-0.1,0.4-0.1,0.7-0.1,1.3v3.1c0,1.9-1.1,2.9-3,2.9c-1,0-1.8-0.3-2.4-0.8c-0.4-0.4-0.7-1.2-0.7-2.1V9.6
				c0-0.5,0-0.9-0.1-1.3h1.3c-0.1,0.3-0.1,0.7-0.1,1.3v3.1c0,1.3,0.6,1.9,1.9,1.9c1.3,0,1.8-0.7,1.8-1.9V9.6c0-0.6,0-0.9-0.1-1.3
				L212.7,8.3L212.7,8.3z"/>
		</g>
		<g class="st7">
			<path d="M170.9,31.4c-0.1,3.5-0.3,6.7-0.5,8.9c-0.4,2.9-0.9,4.6-2.2,6.8c-0.5-0.8-1.3-1.5-2-2.1c0,1,0.1,1.4,0.1,2.4h-3.1
				c0.1-1.2,0.2-1.9,0.2-3.3v-7.6c0-1,0-2,0.1-3.6c-0.5,1.2-1.1,2-1.9,2.9c-0.5-1.8-0.5-1.8-1.3-3.3c1.5-1.7,2.7-3.7,3.8-6.1
				c0.8-1.8,1.3-3.3,1.4-4.6l2.9,0.8c-0.1,0.4-0.3,0.8-0.4,1.4c-0.5,1.8-0.9,2.8-1.8,4.4v15.9c0.8-1.3,1-2.1,1.3-3.7
				c0.4-2.1,0.6-4.8,0.6-9.1c0-1,0-1.9-0.1-2.8c0.9,0.1,1.5,0.1,2.9,0.1h12.2c1.5,0,2.1,0,2.9-0.1v2.7c-0.8-0.1-1.6-0.1-2.6-0.1
				L170.9,31.4C170.9,31.3,170.9,31.4,170.9,31.4z M172,23.7c0-0.8,0-1.3-0.1-1.6h2.9c-0.1,0.4-0.1,0.9-0.1,1.6v0.6h3.8v-0.6
				c0-0.8,0-1.3-0.1-1.6h2.9c-0.1,0.4-0.1,0.9-0.1,1.6v0.6h1.8c1.2,0,2.2-0.1,2.8-0.2v2.8c-0.8-0.1-1.4-0.1-2.8-0.1h-1.8v0.3
				c0,0.7,0,0.9,0.1,1.3h-2.9c0.1-0.4,0.1-0.8,0.1-1.3v-0.3h-3.8v0.3c0,0.7,0,0.9,0.1,1.3h-2.9c0.1-0.4,0.1-0.8,0.1-1.3v-0.3h-1.2
				c-1.4,0-1.9,0-2.7,0.1v-2.7c0.8,0.1,1.7,0.1,2.7,0.1h1.2v-0.6C171.8,23.7,172,23.7,172,23.7z M174,42.6v1.6c0,1.8,0,2.4,0.1,2.9
				h-2.9c0.1-0.8,0.2-1.5,0.2-2.9v-8.7c0-1.5,0-2.1-0.1-2.9c0.8,0.1,1.4,0.1,2.9,0.1h8.3c1.3,0,1.9,0,2.6-0.1
				c-0.1,0.6-0.1,1.4-0.1,2.9v9.3c0,1.8-0.6,2.2-3.1,2.2c-0.3,0-0.3,0-1.3,0c-0.1-1.1-0.3-1.5-0.5-2.4c0.6,0.1,1.3,0.1,1.6,0.1
				c0.4,0,0.6-0.1,0.6-0.6v-1.6h-2.9v1.3c0,1.6,0,2.4,0.1,2.9h-2.8c0.1-0.8,0.2-1.6,0.2-2.9v-1.3L174,42.6L174,42.6L174,42.6z
				 M176.9,35.1H174v1.5h2.9V35.1z M176.9,38.7H174v1.5h2.9V38.7z M182.4,36.6v-1.5h-2.9v1.5H182.4z M182.4,40.2v-1.5h-2.9v1.5
				H182.4z"/>
			<path d="M194.8,23.4c0-0.5,0-0.9-0.1-1.5h3c-0.1,0.5-0.1,0.9-0.1,1.5v0.3h6.1v-0.3c0-0.5,0-0.9-0.1-1.5h3
				c-0.1,0.5-0.1,0.9-0.1,1.5v0.3h3.3c1.4,0,2.4-0.1,3.1-0.2v2.7c-0.8-0.1-1.7-0.1-3.1-0.1h-3.3c0,0.4,0,0.8,0.1,1.2h-2.9
				c0-0.4,0.1-0.8,0.1-1.2h-6.1c0,0.4,0,0.8,0.1,1.2h-2.9c0.1-0.4,0.1-0.8,0.1-1.2h-3c-1.5,0-2.4,0-3.1,0.1v-2.7
				c0.9,0.1,1.8,0.2,3.1,0.2h3L194.8,23.4L194.8,23.4z M206.7,31.7c-1.3,1-3.3,2.6-4.1,3.1c2.2-0.1,3.9-0.2,5-0.3
				c-0.6-0.4-0.8-0.7-1.7-1.3l2.1-1.5c2.2,1.6,3.6,2.9,5.4,4.7l-2.1,1.9c-0.8-0.9-1.1-1.3-1.6-1.9c-6.1,0.4-9.2,0.5-19,0.9
				c-0.7,0-1.2,0.1-1.6,0.1l-0.4-2.8c0.9,0.1,2.5,0.2,6.6,0.2c0.1,0,0.1,0,1.4,0c-1-0.4-3.6-1.6-4.9-2.1l1.8-1.9
				c1.3,0.6,1.6,0.8,2.5,1.2c0.7-0.4,1-0.8,1.8-1.5h-5.6c-1.4,0-2.4,0-3.1,0.1v-2.7c0.8,0.1,1.8,0.2,3.1,0.2h7.1c0-0.7,0-1-0.1-1.5
				h2.9c-0.1,0.5-0.1,0.8-0.1,1.5h7.5c1.3,0,2.4-0.1,3.1-0.2v2.7c-0.7-0.1-1.8-0.1-3.1-0.1h-4.9L206.7,31.7z M191.2,40.4
				c0-1,0-1.8-0.1-2.6c0.8,0.1,1.3,0.1,2.7,0.1H208c1.4,0,1.9,0,2.7-0.1c-0.1,0.8-0.1,1.3-0.1,2.7v4.1c0,0.9,0.1,1.8,0.1,2.7h-3v-1
				H194v1H191c0.1-0.9,0.1-1.8,0.1-2.7V40.4L191.2,40.4z M194,41h5.4v-1.2H194V41z M194,44.1h5.4v-1.3H194V44.1z M201,30.5
				c-0.9,0.9-1.9,1.8-2.9,2.5c0.8,0.4,0.9,0.5,1.6,0.9c1.7-1.2,3.3-2.4,4.1-3.4H201L201,30.5z M202.1,41h5.6v-1.2h-5.6V41z
				 M202.1,44.1h5.6v-1.3h-5.6V44.1z"/>
			<path d="M236.7,25.7c-0.3,0.1-0.3,0.1-2.3,0.8c-1.6,0.4-2.4,0.8-4.6,1.2c0,3.7,0,3.7-0.1,4.6h5.8c1.9,0,2.4,0,3.3-0.2v3.3
				c-1-0.1-1.5-0.1-3.3-0.1h-6c-0.3,2.5-0.9,4.4-1.8,5.9c-0.9,1.6-2.5,3.1-4.4,4.3c-0.8,0.4-1.3,0.8-2.5,1.4
				c-0.8-1.4-1.3-1.9-2.4-2.9c2-0.8,2.9-1.3,4.2-2.3c1.6-1.3,2.7-2.9,3.1-4.6c0.1-0.4,0.2-0.9,0.3-1.8h-6.8c-1.8,0-2.3,0-3.3,0.1
				v-3.3c1,0.2,1.5,0.2,3.3,0.2h6.9c0.1-1.2,0.1-2.2,0.1-4.1c-2.2,0.3-3,0.4-7.6,0.6c-0.3-1.3-0.4-1.6-1-2.9
				c0.8,0.1,1.3,0.1,1.7,0.1c3.7,0,8.3-0.6,11.7-1.6c1.6-0.4,2.4-0.8,3.3-1.3L236.7,25.7z"/>
			<path d="M253.8,42.6h5.6c1.3,0,1.8,0,2.5-0.2v3c-0.8-0.1-1.3-0.1-2.5-0.1h-14c-1.3,0-1.8,0-2.5,0.1v-3c0.8,0.1,1.3,0.2,2.5,0.2
				h5.4v-8.8H247c-1,0-1.6,0-2.5,0.2v-3.1c0.8,0.1,1.4,0.2,2.4,0.2h10.7c1.2,0,1.8-0.1,2.5-0.2v3c-0.8-0.1-1.2-0.1-2.4-0.1h-3.9
				L253.8,42.6L253.8,42.6z"/>
			<path d="M269.4,29.2c1.2,2.1,1.7,3.4,2.7,6.4l-3,0.9c-0.8-2.8-1.3-4.2-2.4-6.6L269.4,29.2z M285.1,29.6c-0.2,0.4-0.3,0.5-0.4,1.4
				c-0.8,3.8-2.1,6.8-3.8,9c-2.1,2.8-4.3,4.6-8.3,6.6c-0.8-1.3-1-1.6-2.1-2.7c1.9-0.8,2.9-1.3,4.6-2.5c3.1-2.4,5.1-5.1,6.2-9.4
				c0.4-1.3,0.4-2.3,0.4-3.1L285.1,29.6z M275.3,28.2c1.4,2.7,2,3.9,2.6,6.3l-2.9,0.9c-0.5-2.1-1.3-4.2-2.4-6.4L275.3,28.2z"/>
			<path d="M309.9,27.6c-0.3,0.4-0.4,0.7-0.7,1.6c-1.3,4.1-3.1,7.8-5.6,10.5c-2.5,2.9-5.5,5-9.7,6.9c-0.8-1.4-1.2-1.8-2.4-2.9
				c2.7-1.2,4.3-1.9,6-3.3c3.9-2.9,6.4-6.7,7.9-11.5l-8.2,0.1c-1.7,2.6-3.8,5-6.3,6.9c-0.8-1.2-1.3-1.5-2.6-2.4
				c3.1-2.1,5.1-4.3,7.1-7.9c0.8-1.6,1.3-2.6,1.4-3.6l3.8,0.8c-0.2,0.3-0.2,0.3-0.4,0.8c-0.1,0.1-0.1,0.1-0.4,0.8
				c-0.1,0.2-0.1,0.2-0.4,0.8c-0.2,0.4-0.2,0.4-0.4,0.9c0.4,0,0.8-0.1,1.3-0.1l6-0.1c1.1,0,1.4-0.1,2-0.3L309.9,27.6z"/>
		</g>
	</g>
	<g>
		<path class="st2" d="M325.8,38.1c0,0.3,0.2,0.3,0.9,0.3c0.8,0,1-0.1,1.1-0.4s0.2-0.8,0.2-1.8c0.6,0.3,0.9,0.4,1.4,0.5
			c-0.2,1.9-0.3,2.4-0.8,2.8c-0.3,0.3-1,0.3-2.1,0.3c-1.8,0-2.1-0.3-2.3-1c-0.6,0.4-0.8,0.6-1.5,0.9c-0.3-0.6-0.6-0.9-1.1-1.4
			c1-0.4,1.8-0.9,2.6-1.4v-3.2c0-0.4,0-0.7-0.1-1.1h1.7c-0.1,0.4-0.1,0.7-0.1,1.1v2.1c0.9-0.9,1.7-2.1,2.3-3.2
			c0.3-0.6,0.4-1.1,0.6-1.4l1.6,0.6c-0.2,0.3-0.2,0.3-0.4,0.9c-0.4,0.8-0.6,1.1-0.9,1.8l1.2-0.5c0.6,1.3,1,2.3,1.4,4l-1.4,0.8
			c-0.4-1.6-0.8-2.8-1.3-4c-0.9,1.4-1.7,2.3-2.9,3.3L325.8,38.1L325.8,38.1z M323.9,33.7c-0.2,1.8-0.4,2.8-0.8,3.8l-1.4-0.7
			c0.4-1.1,0.6-2,0.8-3.5L323.9,33.7z M324.8,30.4c1.3,0.4,1.9,0.8,2.9,1.3l-0.9,1.4c-0.7-0.5-1.6-0.9-2.9-1.4L324.8,30.4z"/>
		<path class="st2" d="M333.1,36.3c-0.4,0-0.8,0-1.1,0.1v-1.3c0.4,0.1,0.8,0.1,1.1,0.1h7.1c0.4,0,0.8,0,1.1-0.1v1.3
			c-0.3,0-0.7-0.1-1.1-0.1h-2.9c-0.1,0.1-0.1,0.2-0.2,0.3h2.7c0.4,0,0.8,0,0.9-0.1c-0.1,0.3-0.1,0.4-0.1,0.8v1.4
			c0,0.9-0.3,1.2-1.2,1.2c-0.1,0-0.1,0-0.8-0.1c-0.1-0.7-0.1-0.9-0.3-1.4c0.3,0.1,0.4,0.1,0.5,0.1c0.2,0,0.3-0.1,0.3-0.2v-0.7h-0.9
			v1.3c0,0.4,0,0.7,0.1,0.9h-1.4c0.1-0.3,0.1-0.5,0.1-0.9v-1.2h-0.8v1.2c0,0.4,0,0.7,0.1,0.9h-1.4c0.1-0.3,0.1-0.5,0.1-0.9v-1.2
			h-0.8v1.3c0,0.4,0,0.7,0.1,0.9h-1.6c0.1-0.4,0.1-0.7,0.1-1.1v-1.4c0-0.3,0-0.6-0.1-0.8c0.3,0,0.4,0.1,1.1,0.1h1.9
			c0.1-0.2,0.1-0.2,0.2-0.3L333.1,36.3L333.1,36.3L333.1,36.3z M333.8,31.7c-0.4,0-0.8,0-1.1,0.1v-1.3c0.3,0.1,0.8,0.1,1.3,0.1h5.4
			c0.5,0,1,0,1.3-0.1v1.3c-0.3,0-0.7-0.1-1.1-0.1h-2.2V32h2.4c0.8,0,1.1,0,1.4-0.1c-0.1,0.3-0.1,0.4-0.1,0.9v0.8
			c0,0.4,0,0.6,0.1,0.9h-1.4v-1.4h-2.4v0.8c0,0.4,0,0.7,0.1,0.9h-1.6c0.1-0.3,0.1-0.5,0.1-0.9v-0.8h-2.3v1.4H332
			c0.1-0.3,0.1-0.4,0.1-0.9v-0.8c0-0.4,0-0.6-0.1-0.9c0.3,0,0.6,0.1,1.4,0.1h2.4v-0.3L333.8,31.7L333.8,31.7z M333.8,33.2
			c0.1,0,0.3,0,0.4,0h0.8c0.3,0,0.3,0,0.4,0v0.7c-0.1,0-0.3,0-0.4,0h-0.8c-0.3,0-0.3,0-0.4,0V33.2z M333.8,34.2c0.1,0,0.2,0,0.4,0
			h0.8c0.3,0,0.4,0,0.4,0v0.7c-0.1,0-0.3,0-0.4,0h-0.8c-0.3,0-0.3,0-0.4,0V34.2z M337.7,33.2c0.1,0,0.2,0,0.4,0h1c0.3,0,0.3,0,0.4,0
			v0.7c-0.1,0-0.3,0-0.4,0h-1c-0.3,0-0.3,0-0.4,0V33.2z M337.7,34.2c0.1,0,0.2,0,0.4,0h1c0.3,0,0.3,0,0.4,0v0.7c-0.1,0-0.3,0-0.4,0
			h-1c-0.3,0-0.3,0-0.4,0V34.2z"/>
		<path class="st2" d="M342.3,39.9c0.1-0.3,0.1-0.6,0.1-1.2v-2.8c0-0.4,0-0.6-0.1-0.9c0.3,0.1,0.6,0.1,1.1,0.1h2.5
			c0.3,0,0.4,0,0.7-0.1c0,0.3,0,0.3,0,0.8v3c0,0.4,0,0.6,0.1,0.8h-1.5v-0.3h-1.2v0.4L342.3,39.9L342.3,39.9z M343.6,31.6
			c0-0.4,0-0.6-0.1-0.9c0.3,0.1,0.6,0.1,1.2,0.1h4.3c0.6,0,0.9,0,1.2-0.1c-0.1,0.3-0.1,0.5-0.1,0.9v2.1c0,0.4,0,0.8,0.1,1
			c-0.3,0-0.4-0.1-1.1-0.1h-4.6c-0.5,0-0.8,0-1.1,0.1c0-0.3,0.1-0.6,0.1-1L343.6,31.6L343.6,31.6z M345.1,36.4h-1.3V38h1.3V36.4z
			 M345.1,32.1v1.1h3.5v-1.1H345.1z M350.5,35.1c0.4,0,0.8,0,0.9-0.1c-0.1,0.3-0.1,0.5-0.1,0.9v2.8c0,0.6,0,0.8,0.1,1.2h-1.6v-0.4
			h-1.3V40h-1.4c0-0.3,0.1-0.4,0.1-0.8V36c0-0.4,0-0.6,0-0.8c0.3,0,0.4,0.1,0.7,0.1L350.5,35.1L350.5,35.1z M348.5,38.1h1.3v-1.6
			h-1.3V38.1z"/>
		<path class="st2" d="M360.9,30.9l-3.6,9.8h-1.9l3.7-9.9C359.1,30.9,360.9,30.9,360.9,30.9z"/>
		<path class="st2" d="M369.8,32.2c-0.8-0.4-1.4-0.6-2.4-0.9l1.1-1.1c1.1,0.3,1.9,0.6,2.9,1.1l-0.8,0.9h1.8c0.6,0,1,0,1.4-0.1v1.6
			c-0.4-0.1-0.8-0.1-1.4-0.1h-2.1V35h1.8c0.4,0,0.8,0,1.3-0.1v1.5c-0.4-0.1-0.6-0.1-1.2-0.1h-1.9V38h2.3c0.6,0,1.1,0,1.6-0.1v1.6
			c-0.5-0.1-0.9-0.1-1.5-0.1h-6.1c-0.8,0-1.2,0-1.6,0.1v-1.6c0.4,0.1,0.9,0.1,1.6,0.1h2.2v-1.6h-1.6c-0.6,0-0.9,0-1.3,0.1V35
			c0.4,0.1,0.6,0.1,1.2,0.1h1.8v-1.4h-2c-0.8,0-1.1,0-1.4,0.1v-1.6c0.4,0.1,0.8,0.1,1.4,0.1L369.8,32.2L369.8,32.2z"/>
		<path class="st2" d="M384,37.1c-0.7,0.5-1.1,0.8-1.5,1.2c0.6,0.2,1.2,0.3,2.1,0.3c-0.3,0.6-0.4,0.9-0.7,1.5
			c-1.8-0.3-2.8-0.6-3.8-1.4v0.7c-1.4,0.3-2.3,0.4-4.1,0.7c-0.3,0.1-0.4,0.1-0.5,0.1l-0.3-1.6c0.1,0,0.2,0,0.3,0
			c0.1,0,0.6-0.1,0.9-0.1v-4.4c0-0.1,0-0.1,0-0.1c-0.4,0.3-0.6,0.3-1.1,0.4c-0.2-0.6-0.3-0.9-0.6-1.6c0.8-0.3,1.6-0.5,2.3-1
			c0.8-0.4,1.3-0.8,1.8-1.4h1.7c0.5,0.6,1.1,1.1,1.9,1.4c0.8,0.4,1.5,0.8,2.3,0.9c-0.3,0.6-0.4,0.9-0.6,1.6
			c-0.4-0.2-0.8-0.3-1.1-0.4v2.5c0,0.1,0,0.1,0,0.1L384,37.1z M377.9,34.5h3.4v-0.4h-3.4V34.5z M377.9,35.9h3.4v-0.4h-3.4V35.9z
			 M377.9,37v1.3c0.1,0,0.1,0,0.1,0c0.4-0.1,1.1-0.2,1.4-0.2c-0.4-0.4-0.4-0.4-0.8-1.1H377.9L377.9,37z M378.9,32.6
			c0-0.2,0-0.3,0-0.3c-0.3,0.3-0.6,0.4-0.9,0.6h0.9V32.6z M380.2,32.2c-0.3-0.3-0.4-0.3-0.6-0.6c-0.3,0.3-0.4,0.4-0.6,0.6H380.2z
			 M381.3,33c-0.4-0.3-0.6-0.4-0.9-0.7c0,0.1,0,0.3,0,0.4V33H381.3L381.3,33z M380.3,37c0.2,0.3,0.4,0.4,0.6,0.6
			c0.3-0.2,0.6-0.4,0.8-0.6H380.3z"/>
		<path class="st2" d="M393.8,30.9l-3.6,9.8h-1.9l3.7-9.9L393.8,30.9L393.8,30.9z"/>
		<path class="st2" d="M402.7,32.2c-0.8-0.4-1.4-0.6-2.4-0.9l1.1-1.1c1.1,0.3,1.9,0.6,2.9,1.1l-0.8,0.9h1.8c0.6,0,1,0,1.4-0.1v1.6
			c-0.4-0.1-0.8-0.1-1.4-0.1h-2.1V35h1.8c0.4,0,0.8,0,1.3-0.1v1.5c-0.4-0.1-0.6-0.1-1.2-0.1h-1.9V38h2.3c0.6,0,1.1,0,1.6-0.1v1.6
			c-0.5-0.1-0.9-0.1-1.5-0.1h-6.1c-0.8,0-1.2,0-1.6,0.1v-1.6c0.4,0.1,0.9,0.1,1.6,0.1h2.2v-1.6H400c-0.6,0-0.9,0-1.3,0.1V35
			c0.4,0.1,0.6,0.1,1.2,0.1h1.8v-1.4h-2c-0.8,0-1.1,0-1.4,0.1v-1.6c0.4,0.1,0.8,0.1,1.4,0.1L402.7,32.2L402.7,32.2z"/>
		<path class="st2" d="M409.2,37.1c-0.5,0-0.9,0-1.3,0.1v-1.4c0.3,0.1,0.7,0.1,1.3,0.1h0.3c-0.3-0.4-0.5-0.8-0.8-1.2l1-0.4
			c-0.2,0-0.3,0-0.3,0c-0.1,0-0.3,0-0.4,0c-0.2-0.4-0.3-0.8-0.6-1.3c1.2,0.1,1.7,0.1,2.4,0.1c1.1,0,2.3-0.1,3.1-0.1
			c0.9-0.1,1.4-0.2,2.1-0.3l1,1.3c-0.6,0.1-0.9,0.2-1.4,0.3l0.9,0.4c-0.5,0.8-0.8,1.1-1.1,1.4h0.5c0.6,0,0.9,0,1.3-0.1v1.4
			c-0.3-0.1-0.8-0.1-1.3-0.1h-1.6c0.8,0.6,1.8,1,2.9,1.3c-0.4,0.4-0.5,0.8-0.8,1.4c-0.8-0.3-1.3-0.4-1.9-0.9
			c-0.5-0.4-0.8-0.6-1.3-1.1c0,0.1,0,0.1,0,0.3c0,0.1,0,0.3,0,0.4v0.4c0,0.4,0,0.7,0.1,1.1h-1.8c0.1-0.4,0.1-0.6,0.1-1.1v-0.4
			c0-0.2,0-0.3,0-0.6c-0.8,0.9-1.7,1.5-3.1,1.9c-0.4-0.7-0.4-0.9-0.9-1.4c1.3-0.3,2.1-0.7,2.9-1.3L409.2,37.1L409.2,37.1L409.2,37.1
			z M410,30.9c0-0.2,0-0.3-0.1-0.4h1.6c0,0.3-0.1,0.3-0.1,0.4V31h1.9v-0.1c0-0.2,0-0.3-0.1-0.4h1.6c0,0.2-0.1,0.3-0.1,0.4V31h1.1
			c0.5,0,0.8,0,1.3-0.1v1.4c-0.3-0.1-0.7-0.1-1.3-0.1h-1c0,0.2,0,0.3,0.1,0.4h-1.6c0-0.2,0-0.3,0.1-0.4h-1.9c0,0.2,0,0.3,0.1,0.4
			h-1.6c0-0.2,0.1-0.3,0.1-0.4h-0.9c-0.5,0-0.9,0-1.3,0.1v-1.4c0.4,0.1,0.7,0.1,1.3,0.1h0.9v-0.1H410z M411.7,35.8
			c0-0.3,0-0.3-0.1-0.4h0.4c-0.3-0.4-0.3-0.4-0.5-0.8l0.8-0.3c-0.6,0.1-1.1,0.1-2.1,0.1c0.3,0.3,0.4,0.6,0.8,1l-1.3,0.5L411.7,35.8
			L411.7,35.8z M415,35.8l-1.1-0.4c0.4-0.4,0.6-0.8,0.9-1.3c-0.4,0.1-1,0.1-1.9,0.1c0.3,0.3,0.4,0.4,0.5,0.8l-1.2,0.4h1.1
			c-0.1,0.3-0.1,0.3-0.1,0.4L415,35.8L415,35.8L415,35.8z"/>
	</g>
</g>
<g>
	<path class="st2" d="M228.5,60.1c-0.1,0.1-0.1,0.3-0.2,0.5c0.5,0.1,0.8,0.3,1.1,0.6c0.6,0.5,0.9,1.2,0.9,2c0,1.3-0.7,2.4-2,3
		c-0.6,0.3-1.2,0.4-2.2,0.5c-0.2-0.6-0.4-1-0.6-1.4c-0.8,0.7-1.7,1.1-2.5,1.1c-1.3,0-2.1-0.9-2.1-2.2c0-1,0.4-1.8,1.1-2.5
		c0.4-0.4,0.9-0.7,1.5-1c0-0.4,0-0.5,0-1c-0.5,0-0.5,0-1.3,0c-0.1,0-0.3,0-0.5,0c-0.1,0-0.2,0-0.3,0v-1.7c0.6,0.1,1.2,0.1,2,0.1h0
		h0.1c0-0.1,0-0.1,0-0.5c0-0.1,0-0.2,0-0.3c0-0.2,0-0.3,0-0.5l1.9,0.1c-0.1,0.3-0.1,0.5-0.2,1.1c1.8-0.1,3.2-0.3,4.1-0.6l0.1,1.8
		c-0.2,0-0.2,0-0.5,0c-1,0.1-2.7,0.3-3.8,0.3c0,0.1,0,0.1,0,0.3c0,0,0,0.1,0,0.3c0.5-0.1,0.7-0.1,1-0.1c0.2,0,0.3,0,0.5,0
		c0.1-0.2,0.1-0.4,0.1-0.6L228.5,60.1z M222.4,64.1c0,0.4,0.1,0.6,0.5,0.6c0.2,0,0.4,0,0.6-0.2c-0.1-0.6-0.1-1.2-0.1-2
		C222.8,63,222.4,63.5,222.4,64.1z M225.1,63.4c0.4-0.5,0.8-1.2,1-1.7c-0.1,0-0.1,0-0.2,0c-0.3,0-0.6,0-0.9,0.1
		C225,62.5,225,62.8,225.1,63.4z M227.3,64.6c0.6-0.3,1-0.9,1-1.5c0-0.5-0.2-0.8-0.7-1c-0.5,1.2-1.1,2-1.9,2.9
		C226.5,64.9,226.9,64.8,227.3,64.6z"/>
	<path class="st2" d="M236.8,57c0,0.2-0.1,0.2-0.2,0.9c0,0.3-0.1,0.4-0.1,0.6c0.7-0.1,1.2-0.1,1.5-0.3l0,1.8c-0.3,0-0.3,0-0.8,0.1
		c-0.3,0-0.9,0.1-1.2,0.1c-0.4,1.3-0.7,2-1.2,3.2c-0.2,0.5-0.3,0.7-0.8,1.6c-0.1,0.3-0.1,0.3-0.2,0.4l-1.8-1c0.8-1,1.5-2.6,2-4.1
		c-0.2,0-0.2,0-0.6,0c-0.2,0-0.2,0-0.5,0c0,0-0.1,0-0.4,0v-1.8c0.4,0.1,0.9,0.1,1.6,0.1c0.1,0,0.2,0,0.4,0c0-0.1,0-0.1,0.1-0.5
		c0.1-0.4,0.1-0.9,0.1-1.3L236.8,57z M241.5,66.2c-0.4-0.5-0.8-0.8-1.4-1.2c0,0.5-0.1,0.8-0.5,1.1c-0.4,0.4-1.2,0.7-2,0.7
		s-1.6-0.3-2-0.7c-0.4-0.4-0.5-0.9-0.5-1.4c0-1.3,1-2.1,2.6-2.1c0.2,0,0.4,0,0.8,0c0-0.4,0-0.6,0-0.9c0-0.4,0-0.8,0-1.3l1.8,0.1
		c-0.1,0.4-0.1,0.7-0.1,1.2c0,0.4,0,0.7,0.1,1.3c0.7,0.3,1.2,0.6,1.7,1c0,0,0.2,0.1,0.5,0.4L241.5,66.2z M237.6,64.1
		c-0.5,0-0.9,0.2-0.9,0.6c0,0.3,0.3,0.5,0.8,0.5c0.5,0,0.8-0.2,0.8-0.7c0-0.1,0-0.2,0-0.2C238.1,64.2,237.9,64.1,237.6,64.1z
		 M241.6,61.1c-1-0.7-2.1-1.1-3.4-1.6l0.9-1.5c1.4,0.5,2.3,0.9,3.3,1.5L241.6,61.1z"/>
	<path class="st2" d="M250.1,59.8c1-0.1,1.5-0.1,2.9-0.1c0.1,0,0.3,0,0.5,0l0,1.9c-0.5,0-0.8-0.1-1.4-0.1c-1.2,0-2,0-3.1,0.3
		l-0.1-1.6c-0.5,0-0.7,0-1,0.1c-0.2,1-0.4,1.9-0.7,3c-0.3,1-0.3,1.2-0.8,2.6c-0.2,0.5-0.2,0.5-0.2,0.8l-2-0.7
		c0.7-1.4,1.4-3.6,1.9-5.6c-0.1,0-0.1,0-0.2,0c-0.3,0-0.6,0-1,0c0,0,0,0-0.1,0c-0.1,0-0.1,0-0.2,0l0-1.8c0.4,0,1,0.1,1.7,0.1
		c0,0,0.1,0,0.2,0c0.1-0.9,0.2-1.3,0.2-1.6c0,0,0-0.1,0-0.1l2,0.1c0,0.2-0.1,0.3-0.1,0.6c0,0-0.1,0.4-0.2,1c0.8-0.1,1.2-0.1,1.8-0.3
		L250.1,59.8z M250.5,62.8c-0.4,0.5-0.6,0.9-0.6,1.2c0,0.5,0.4,0.8,1.4,0.8c0.9,0,1.9-0.2,2.6-0.4l0.1,1.9c-0.2,0-0.3,0-0.6,0
		c-1,0.1-1.5,0.2-2.1,0.2c-2.1,0-3.2-0.7-3.2-2c0-0.6,0.2-1.2,0.9-2.1L250.5,62.8z"/>
	<path class="st2" d="M260.9,63.8c-0.6,1.4-1.4,2-2.4,2c-1.5,0-2.5-1.4-2.5-3.4c0-1.3,0.4-2.4,1.2-3.3c1-1,2.3-1.6,3.9-1.6
		c1.5,0,2.8,0.5,3.6,1.3c0.7,0.8,1.1,1.8,1.1,3c0,1.4-0.5,2.7-1.5,3.5c-0.8,0.7-1.6,1-3.1,1.2c-0.3-0.8-0.5-1.2-1-1.8
		c1-0.1,1.7-0.2,2.3-0.6c0.9-0.4,1.3-1.4,1.3-2.5c0-1-0.3-1.7-1-2.1c-0.3-0.2-0.5-0.3-0.9-0.4C261.9,61.1,261.5,62.5,260.9,63.8z
		 M259,59.8c-0.7,0.6-1.2,1.6-1.2,2.6c0,0.8,0.3,1.4,0.7,1.4c0.3,0,0.6-0.4,0.9-1.2c0.4-1,0.7-2.2,0.8-3.3
		C259.7,59.3,259.4,59.5,259,59.8z"/>
	<path class="st2" d="M273.5,65.2v0.6c0,0.8,0,1,0,1.2H272c0-0.3,0-0.7,0-1.2v-3.3c-0.1,1.5-0.1,1.5-0.3,2.1c-0.2,1-0.4,1.6-0.7,2.3
		c-0.3-0.5-0.5-0.8-0.9-1.1c0,0.5,0,0.7,0,1.2h-1.8c0-0.6,0-0.7,0-1.2v-2.7c0-0.2,0-0.5,0-1.2c-0.2,0.3-0.3,0.5-0.5,0.7
		c-0.1-0.9-0.3-1.2-0.5-2c0.5-0.6,1-1.2,1.3-2.1c0.3-0.7,0.5-1.3,0.5-1.8L271,57c0,0.1,0,0.2-0.1,0.4c0.3,0,0.6,0,1,0h0.2v-0.1
		c0-0.3,0-0.4,0-0.6h1.7c0,0.1,0,0.3,0,0.5v0.1h1.1v-0.1c0-0.3,0-0.4,0-0.6h1.7c0,0.1,0,0.3,0,0.5v0.1h0.3c0.5,0,1,0,1.2,0v1.5
		c-0.4,0-0.5,0-1.2,0h-0.3v0.5h0.4c0.7,0,0.9,0,1.2,0v1.5c-0.3,0-0.6,0-1,0h-4.8V61c0.3,0,0.6,0,1.1,0h3.5c0.5,0,0.7,0,1,0
		c0,0.3,0,0.6,0,1.1v3.7c0,0.9-0.2,1-1.8,1c0-0.5-0.1-0.8-0.3-1.2c0.1,0,0.3,0,0.4,0c0.1,0,0.2,0,0.2-0.2v-0.3h-0.7v0.4
		c0,0.7,0,1,0,1.2H274c0-0.4,0-0.7,0-1.2v-0.4L273.5,65.2L273.5,65.2z M270.2,64.9c0.1-0.4,0.2-0.7,0.3-1.1c0.1-0.7,0.1-1.9,0.1-3.1
		c0-0.7,0-0.9,0-1.3c0.4,0,0.6,0,1.2,0h0.3v-0.5H272c-0.7,0-0.8,0-1.1,0v-1.2c-0.2,0.7-0.3,1-0.6,1.6V64.9z M274.2,62.2h-0.7v0.4
		h0.7V62.2z M274.2,63.7h-0.7v0.5h0.7V63.7z M274.8,59.3v-0.5h-1.1v0.5H274.8z M276.2,62.7v-0.4h-0.7v0.4H276.2z M276.2,64.2v-0.5
		h-0.7v0.5H276.2z"/>
	<path class="st2" d="M282.3,57.2c0-0.2,0-0.3,0-0.5h1.7c0,0.2,0,0.3,0,0.5h2.1c0-0.2,0-0.3,0-0.5h1.7c0,0.2,0,0.3,0,0.5h1.1
		c0.6,0,1,0,1.3,0v1.4c-0.4,0-0.7,0-1.3,0h-1c0,0.1,0,0.2,0,0.3h-1.6c0-0.1,0-0.2,0-0.3h-2.3c0,0.2,0,0.2,0,0.3h-1.6
		c0-0.1,0-0.1,0-0.3h-1c-0.6,0-1,0-1.3,0v-1.4c0.4,0,0.8,0,1.3,0H282.3z M287.5,60.7c-0.7,0.6-1.1,0.9-1.3,1c0.2,0,0.4,0,0.5,0
		c0.4,0,0.4,0,0.8,0c-0.1-0.1-0.2-0.2-0.4-0.3l1.2-0.8c0.8,0.7,1.4,1.2,2,1.9l-1.1,0.9c0,0.2,0,0.4,0,0.9v1.6c0,0.4,0,0.7,0,1.1
		h-1.7v-0.4h-5V67h-1.7c0-0.3,0-0.7,0-1.1v-1.7c0-0.4,0-0.7,0-1c0.4,0,0.5,0,1.1,0h5.9c0.4,0,0.6,0,0.8,0c-0.1-0.2-0.2-0.3-0.4-0.5
		c-3.1,0.2-3.1,0.2-7.5,0.4c-0.4,0-0.5,0-0.7,0l-0.2-1.4c0.4,0,0.8,0,2.4,0.1c-0.5-0.2-0.8-0.4-1.4-0.7l1-0.9h-0.6c-0.6,0-1,0-1.3,0
		v-1.4c0.4,0,0.8,0,1.3,0h2.7c0-0.2,0-0.2,0-0.4h1.6c0,0.1,0,0.2,0,0.4h2.8c0.5,0,1,0,1.3,0v1.4c-0.3,0-0.7,0-1.3,0h-2L287.5,60.7z
		 M282.2,60.3c0.4,0.2,0.6,0.3,0.8,0.4c0.2-0.1,0.3-0.2,0.5-0.4H282.2z M282.5,64.5h1.7v-0.3h-1.7V64.5z M282.5,65.6h1.7v-0.3h-1.7
		V65.6z M285.2,60.3c-0.3,0.3-0.7,0.6-1.2,1c0.2,0.1,0.2,0.1,0.4,0.2c0.4-0.3,1.1-0.9,1.5-1.2H285.2z M285.8,64.5h1.7v-0.3h-1.7
		V64.5z M285.8,65.6h1.7v-0.3h-1.7V65.6z"/>
	<path class="st2" d="M295.3,65.8c0,0.6,0,0.8,0,1.2h-1.8c0-0.4,0-0.8,0-1.4v-1.9c-0.3,0.2-0.5,0.4-1,0.7c-0.1,0.1-0.3,0.2-0.4,0.2
		l-0.7-1.7c0.4-0.1,1.1-0.5,2-1v-1.3l-1,0.6c-0.3-1-0.4-1.5-0.9-2.4L293,58c0.3,0.7,0.4,0.9,0.6,1.5v-1.6c0-0.5,0-0.8,0-1.2h1.8
		c0,0.4,0,0.6,0,1.2v7.6c1.4-1,2.1-2.4,2.3-4.5h-0.8c-0.5,0-0.9,0-1.2,0v-1.7c0.3,0,0.7,0,1.2,0h0.9c0-0.7,0-1.2,0-1.7
		c0-0.5,0-0.7,0-1h1.8c0,0.2,0,0.2,0,0.8l1.2-0.7c0.6,0.7,0.8,1,1.2,1.9l-1.2,0.7h0.1c0.5,0,1,0,1.2,0V61c-0.4,0-0.7,0-1.2,0h-1.2
		c0.2,1,0.5,1.9,1,2.8c0.4,0.7,0.9,1.2,1.6,1.7c-0.4,0.5-0.7,0.9-1.1,1.6c-0.7-0.6-1.2-1.1-1.6-1.8c-0.4-0.6-0.6-1.2-0.9-1.9
		c-0.5,1.5-1.2,2.6-2.4,3.6c-0.4-0.6-0.6-1-1-1.3L295.3,65.8L295.3,65.8z M300.5,59.4c-0.3-0.8-0.5-1.1-1-1.9c0,0.1,0,0.1,0,0.9
		c0,0,0,0.2,0,0.5c0,0.1,0,0.3,0,0.5L300.5,59.4L300.5,59.4z"/>
	<path class="st2" d="M304.8,59.4c0.9,0.5,1.3,0.8,2,1.3l-1,1.4c-0.8-0.7-1.2-1-2-1.5L304.8,59.4z M309.9,61.8c0,0.1,0,0.1,0,0.3
		c0,1.3-0.3,2.4-0.9,3.2c-0.4,0.7-1,1.2-2.1,1.7c-0.3-0.6-0.6-0.9-1-1.4c-0.2,0.5-0.3,0.7-0.6,1.3l-1.5-1.2c0.2-0.3,0.4-0.6,0.7-1.1
		c0.3-0.6,0.5-1.1,0.8-2.2l1.4,1c-0.3,1.1-0.5,1.6-0.7,2.2c0.7-0.3,1.1-0.6,1.5-1c0.5-0.6,0.8-1.3,0.8-2.7h-0.2c-0.3,0-0.6,0-0.9,0
		c0-0.4,0-0.4,0-1V58c0-0.5,0-0.6,0-1c0.3,0,0.5,0,1.1,0h4.3c0.6,0,0.8,0,1.1,0c0,0.3,0,0.5,0,1v2.8c0,0.5,0,0.7,0,1
		c-0.3,0-0.6,0-1,0H312v3.4c0,0.1,0,0.2,0.2,0.2c0.2,0,0.3,0,0.3-0.2c0-0.1,0.1-0.8,0.1-1.9c0.5,0.3,0.9,0.4,1.5,0.6
		c0,1.6-0.1,2.1-0.3,2.5c-0.1,0.2-0.3,0.4-0.6,0.5c-0.2,0-0.6,0.1-1.1,0.1c-1.5,0-1.8-0.2-1.8-1v-4.1L309.9,61.8L309.9,61.8z
		 M305.2,56.7c0.9,0.5,1.2,0.8,2,1.4l-1,1.3c-0.7-0.7-1.2-1-2-1.5L305.2,56.7z M308.9,60.3h3v-1.6h-3V60.3z"/>
	<path class="st2" d="M319.1,57.2c-0.1,0.2-0.2,0.6-0.3,1.1c-0.3,1.5-0.5,2.7-0.5,4.2l0.9,0.3c-0.3,1-0.5,1.9-0.5,3.3
		c0,0,0,0.2,0,0.4l-1.9,0.1c0-0.2,0-0.2-0.1-0.9c-0.2-1.5-0.2-2.1-0.2-3.3c0-1.5,0.1-2.5,0.4-4.4c0.1-0.5,0.1-0.8,0.1-1v0
		L319.1,57.2z M319.4,59c0.4,0.1,1.2,0.2,2,0.2c0.2,0,0.4,0,0.8,0c0-0.7,0-0.7,0-1.4c0-0.3,0-0.4,0-0.6h1.9c0,0.3-0.1,0.8-0.1,1.9
		c0.7-0.1,1.3-0.2,1.8-0.3l0,1.8c-0.1,0-0.2,0-0.4,0c-0.3,0.1-0.8,0.1-1.4,0.2c0,0.9,0,1.1,0.1,2.3c0.8,0.3,1.1,0.6,1.8,1
		c0,0,0.1,0.1,0.2,0.1l-0.7,1.9c-0.2-0.3-0.7-0.7-1.3-1c0,0,0,0.1,0,0.1c0,1-1,1.6-2.3,1.6c-1.6,0-2.6-0.8-2.6-2
		c0-0.7,0.3-1.2,0.8-1.6c0.4-0.3,1-0.4,1.7-0.4c0.2,0,0.4,0,0.6,0c0-0.3,0-0.4,0-0.9c0-0.4,0-0.5,0-0.9c-0.2,0-0.4,0-0.6,0
		c-0.3,0-1,0-1.9,0c-0.1,0-0.2,0-0.2,0s-0.1,0-0.1,0L319.4,59z M322.4,64.2c-0.3-0.1-0.4-0.1-0.7-0.1c-0.5,0-0.8,0.2-0.8,0.5
		c0,0.3,0.3,0.5,0.7,0.5c0.5,0,0.8-0.2,0.8-0.6V64.2z"/>
	<path class="st2" d="M331.4,62.4c-0.7,0.5-1,1-1,1.3c0,0.6,0.7,0.8,2.4,0.8c1.3,0,2.9-0.2,3.6-0.5l0.1,2.1c-0.3,0-0.3,0-1.1,0.1
		c-0.9,0.1-1.8,0.2-2.7,0.2c-1.2,0-2.1-0.1-2.8-0.4c-1-0.4-1.5-1-1.5-2s0.5-1.8,1.6-2.6L331.4,62.4z M329.2,57.4
		c0.7,0.2,2,0.3,3.6,0.3c1.4,0,2.5,0,3-0.2l0,1.7c-0.7,0.3-2,1.2-3,1.9l-1.3-1c0.3-0.2,0.3-0.2,0.9-0.5c0.1-0.1,0.1-0.1,0.3-0.1
		c0.1,0,0.1,0,0.2-0.1c-0.4,0-0.5,0-0.9,0c-0.8,0-1.4,0-2.5-0.1c-0.2,0-0.2,0-0.4,0L329.2,57.4z"/>
	<path class="st2" d="M339.1,58.3c0.5,0.1,1.2,0.2,2.4,0.2c0.2-0.8,0.2-1.2,0.2-1.7l2,0.1c-0.1,0.4-0.1,0.4-0.4,1.5
		c2.1-0.1,3.4-0.2,4.1-0.4l0.1,1.9c-0.3,0-0.4,0-0.8,0c-1.5,0.1-2.5,0.2-3.8,0.2c-0.2,0.6-0.4,1.1-0.6,1.6c0.8-0.3,1.5-0.5,2.4-0.5
		c1,0,1.8,0.2,2.4,0.6c0.6,0.4,0.9,1.1,0.9,1.9c0,1.8-1.7,2.9-4.4,2.9c-1,0-1.9-0.1-2.8-0.3c0-0.8,0-1.1-0.2-1.9
		c1.1,0.3,2,0.5,2.9,0.5c1.5,0,2.4-0.4,2.4-1.1c0-0.5-0.5-0.8-1.5-0.8c-0.9,0-1.6,0.1-2.2,0.5c-0.4,0.2-0.5,0.3-0.7,0.6l-1.9-0.6
		c0.4-0.6,1.1-2.3,1.4-3.3c-0.1,0-0.1,0-0.4,0c-0.2,0-0.2,0-1.1,0c-0.1,0-0.3,0-0.4,0c0,0,0,0-0.1,0L339.1,58.3z"/>
	<path class="st2" d="M353.2,59.2c-0.1,0.6-0.3,1.6-0.5,2.7c0.9-0.6,1.9-0.9,3.1-0.9c1.9,0,3.2,1,3.2,2.6c0,1-0.4,1.8-1.2,2.3
		c-0.8,0.6-1.8,0.8-3.1,0.8c-0.9,0-1.7-0.1-2.8-0.3c0-0.9-0.1-1.2-0.2-1.9c1.1,0.3,2.1,0.5,2.9,0.5c1.4,0,2.4-0.5,2.4-1.3
		c0-0.6-0.6-0.9-1.6-0.9c-0.8,0-1.7,0.2-2.4,0.7c-0.3,0.1-0.4,0.2-0.6,0.5l-1.8-0.1c0-0.1,0-0.1,0-0.2c0-0.5,0.3-2.3,0.5-3.8
		c0-0.2,0-0.4,0-0.7L353.2,59.2z M353,56.8c0.5,0.3,1.2,0.5,2.2,0.8c0.8,0.2,1.7,0.4,2.2,0.5l-0.6,1.8c-2-0.4-3.4-0.9-4.7-1.4
		L353,56.8z"/>
	<path class="st2" d="M361.9,63.5c0-0.2,0-0.3,0-0.6c0-0.1,0-0.1,0-0.8l-0.2-3.5c0-0.6-0.1-1.1-0.1-1.5h2.6c0,0.4-0.1,0.9-0.1,1.5
		l-0.2,3.5c0,0.4,0,0.7,0,0.9c0,0.1,0,0.2,0,0.5H361.9z M361.7,66.4v-2h2.2v2H361.7z"/>
</g>
<g>
	<path class="st9" d="M455.5-5l-9.7,9.1h10.6l16.2-15h-10.7l-6.3,5.8L455.5-5L455.5-5z M506.3-5l-9.8,9.1H507l16.2-15h-10.7L506.3-5
		L506.3-5L506.3-5z M487.3-10.9L471,4.1h10.7l16.3-15H487.3z M436.5-10.9l-16.2,15H431l16.2-15H436.5z M151.2-5l-9.8,9.1H152
		l16.2-15h-10.7L151.2-5L151.2-5z M132.2-10.9L116,4.1h10.7l16.2-15H132.2z M201.9-5l-9.8,9.1h10.6l16.2-15h-10.7L201.9-5L201.9-5
		L201.9-5z M182.9-10.9l-16.2,15h10.7l16.2-15H182.9z M100.5-5l-9.9,9.1h10.6l16.2-15h-10.7l-6.3,5.8V-5C100.4-5,100.5-5,100.5-5z
		 M49.7-5l-9.8,9.1h10.6l16.2-15H56L49.7-5L49.7-5z M81.5-10.9l-16.3,15h10.7l16.3-15H81.5z M335.1-10.9l-16.2,15h10.7l16.2-15
		H335.1z M354.1-5l-9.7,9.1H355l16.2-15h-10.7l-6.3,5.8L354.1-5L354.1-5z M404.8-5L395,4.1h10.6l16.2-15h-10.7L404.8-5L404.8-5
		L404.8-5z M385.8-10.9l-16.2,15h10.7l16.2-15H385.8z M233.6-10.9l-16.2,15h10.7l16.2-15H233.6z M252.6-5l-9.8,9.1h10.6l16.2-15
		h-10.7L252.6-5L252.6-5L252.6-5z M303.4-5l-9.8,9.1h10.6l16.2-15h-10.7L303.4-5L303.4-5L303.4-5z M284.4-10.9l-16.2,15H279l16.2-15
		H284.4z M-1-5.1v9.2h0.8l16.2-15H5.3L-1-5.1z M30.7-10.9l-16.2,15h10.7l16.2-15H30.7z"/>
</g>
<g>
	<path class="st9" d="M446.3,79.9l-9.8,9.1h10.6l16.2-15h-10.7L446.3,79.9L446.3,79.9L446.3,79.9z M497.1,79.9l-9.8,9.1h10.5L514,74
		h-10.7L497.1,79.9L497.1,79.9L497.1,79.9z M478.1,74l-16.3,15h10.7l16.3-15H478.1z M427.3,74l-16.2,15h10.7L438,74H427.3z
		 M142,79.9l-9.8,9.1h10.6L159,74h-10.7L142,79.9L142,79.9z M123,74l-16.2,15h10.7l16.2-15H123z M192.7,79.9l-9.8,9.1h10.6l16.2-15
		H199L192.7,79.9L192.7,79.9z M173.7,74l-16.2,15h10.7l16.2-15H173.7z M91.3,79.9L81.4,89H92l16.2-15H97.5l-6.3,5.8v0.1
		C91.2,79.9,91.3,79.9,91.3,79.9z M40.5,79.9L30.7,89h10.6l16.2-15H46.8L40.5,79.9L40.5,79.9z M72.3,74L56,89h10.7L83,74H72.3z
		 M325.9,74l-16.2,15h10.7l16.2-15H325.9z M344.9,79.9l-9.8,9.1h10.7L362,74h-10.7l-6.3,5.8L344.9,79.9L344.9,79.9z M395.6,79.9
		l-9.8,9.1h10.6l16.2-15h-10.7L395.6,79.9L395.6,79.9L395.6,79.9z M376.6,74l-16.2,15h10.7l16.2-15H376.6z M224.4,74l-16.2,15h10.7
		l16.2-15H224.4z M243.4,79.9l-9.8,9.1h10.6l16.2-15h-10.7L243.4,79.9L243.4,79.9L243.4,79.9z M294.2,79.9l-9.8,9.1H295l16.2-15
		h-10.7L294.2,79.9L294.2,79.9L294.2,79.9z M275.2,74L259,89h10.7l16.2-15H275.2z M-10.2,79.8V89h0.8L6.8,74H-3.9L-10.2,79.8z
		 M21.5,74L5.3,89H16l16.2-15H21.5z"/>
</g>
<line class="st10" x1="0" y1="77.5" x2="522.2" y2="77.5"/>
</svg>
