<?xml version="1.0" encoding="utf-8"?>
<!-- Generator: Adobe Illustrator 24.0.1, SVG Export Plug-In . SVG Version: 6.00 Build 0)  -->
<svg version="1.1" id="レイヤー_1" xmlns="http://www.w3.org/2000/svg" xmlns:xlink="http://www.w3.org/1999/xlink" x="0px"
	 y="0px" viewBox="0 0 522.3 78" style="enable-background:new 0 0 522.3 78;" xml:space="preserve">
<style type="text/css">
	.st0{fill:url(#SVGID_1_);}
	.st1{opacity:0.28;clip-path:url(#SVGID_3_);}
	.st2{fill:#FFFFFF;}
	.st3{fill:#040000;}
	.st4{fill:none;stroke:#FFFFFF;stroke-width:1.9361;stroke-miterlimit:10;}
	.st5{fill:#133C36;}
	.st6{fill:#FFE501;}
	.st7{fill:#E60000;}
	.st8{enable-background:new    ;}
	.st9{fill:none;stroke:#FFFFFF;stroke-width:0.6733;stroke-miterlimit:10;}
</style>
<g id="レイヤー_2_1_">
	
		<linearGradient id="SVGID_1_" gradientUnits="userSpaceOnUse" x1="261.15" y1="-2468.0103" x2="261.15" y2="-2390.3103" gradientTransform="matrix(1 0 0 -1 0 -2390.1104)">
		<stop  offset="0" style="stop-color:#FFEC00"/>
		<stop  offset="0.9879" style="stop-color:#FFCE52"/>
	</linearGradient>
	<rect y="0.2" class="st0" width="522.3" height="77.7"/>
	<g>
		<g>
			<g>
				<g>
					<g>
						<g>
							<g>
								<g>
									<defs>
										<rect id="SVGID_2_" y="0.2" width="522.3" height="77.7"/>
									</defs>
									<clipPath id="SVGID_3_">
										<use xlink:href="#SVGID_2_"  style="overflow:visible;"/>
									</clipPath>
									<g class="st1">
										<polygon class="st2" points="-25.3,68.3 -58.1,68.3 -5.9,7.6 27,7.6 										"/>
										<polygon class="st2" points="29.2,68.3 -3.6,68.3 48.6,7.6 81.4,7.6 										"/>
										<polygon class="st2" points="83.7,68.3 50.9,68.3 103.1,7.6 135.9,7.6 										"/>
										<polygon class="st2" points="138.2,68.3 105.3,68.3 157.6,7.6 190.4,7.6 										"/>
										<polygon class="st2" points="192.7,68.3 159.8,68.3 212.1,7.6 244.9,7.6 										"/>
										<polygon class="st2" points="247.2,68.3 214.3,68.3 266.6,7.6 299.4,7.6 										"/>
										<polygon class="st2" points="301.7,68.3 268.8,68.3 321,7.6 353.9,7.6 										"/>
										<polygon class="st2" points="356.2,68.3 323.3,68.3 375.5,7.6 408.4,7.6 										"/>
										<polygon class="st2" points="410.7,68.3 377.8,68.3 430,7.6 462.9,7.6 										"/>
										<polygon class="st2" points="465.2,68.3 432.3,68.3 484.5,7.6 517.4,7.6 										"/>
										<polygon class="st2" points="519.6,68.3 486.8,68.3 539,7.6 571.9,7.6 										"/>
									</g>
								</g>
							</g>
						</g>
					</g>
				</g>
			</g>
		</g>
	</g>
</g>
<rect x="99.9" y="52.1" width="322.5" height="19.6"/>
<g>
	<path class="st3" d="M455.5-5l-9.7,9.1h10.6l16.2-15h-10.7l-6.3,5.8L455.5-5L455.5-5z M506.3-5l-9.8,9.1H507l16.2-15h-10.7L506.3-5
		L506.3-5L506.3-5z M487.3-10.9L471,4.1h10.7l16.3-15H487.3z M436.5-10.9l-16.2,15H431l16.2-15H436.5z M151.2-5l-9.8,9.1H152
		l16.2-15h-10.7L151.2-5L151.2-5z M132.2-10.9L116,4.1h10.7l16.2-15H132.2z M201.9-5l-9.8,9.1h10.6l16.2-15h-10.7L201.9-5L201.9-5
		L201.9-5z M182.9-10.9l-16.2,15h10.7l16.2-15H182.9z M100.5-5l-9.9,9.1h10.6l16.2-15h-10.7l-6.3,5.8V-5C100.4-5,100.5-5,100.5-5z
		 M49.7-5l-9.8,9.1h10.6l16.2-15H56L49.7-5L49.7-5z M81.5-10.9l-16.3,15h10.7l16.3-15H81.5z M335.1-10.9l-16.2,15h10.7l16.2-15
		H335.1z M354.1-5l-9.7,9.1H355l16.2-15h-10.7l-6.3,5.8L354.1-5L354.1-5z M404.8-5L395,4.1h10.6l16.2-15h-10.7L404.8-5L404.8-5
		L404.8-5z M385.8-10.9l-16.2,15h10.7l16.2-15H385.8z M233.6-10.9l-16.2,15h10.7l16.2-15H233.6z M252.6-5l-9.8,9.1h10.6l16.2-15
		h-10.7L252.6-5L252.6-5L252.6-5z M303.4-5l-9.8,9.1h10.6l16.2-15h-10.7L303.4-5L303.4-5L303.4-5z M284.4-10.9l-16.2,15H279l16.2-15
		H284.4z M-1-5.1v9.2h0.8l16.2-15H5.3L-1-5.1z M30.7-10.9l-16.2,15h10.7l16.2-15H30.7z"/>
</g>
<g>
	<path class="st3" d="M455.5,79.9l-9.8,9.1h10.6l16.2-15h-10.7L455.5,79.9L455.5,79.9L455.5,79.9z M506.4,79.9l-9.8,9.1h10.5
		l16.2-15h-10.7L506.4,79.9L506.4,79.9L506.4,79.9z M487.4,74l-16.3,15h10.7l16.3-15H487.4z M436.5,74l-16.2,15H431l16.2-15H436.5z
		 M151.2,79.9l-9.8,9.1h10.6l16.2-15h-10.7L151.2,79.9L151.2,79.9z M132.2,74L116,89h10.7l16.2-15H132.2z M201.9,79.9l-9.8,9.1h10.6
		l16.2-15h-10.7L201.9,79.9L201.9,79.9z M182.9,74l-16.2,15h10.7l16.2-15H182.9z M100.5,79.9L90.6,89h10.6l16.2-15h-10.7l-6.3,5.8
		v0.1H100.5z M49.7,79.9L39.9,89h10.6l16.2-15H56L49.7,79.9L49.7,79.9z M81.5,74L65.2,89h10.7l16.3-15H81.5z M335.1,74l-16.2,15
		h10.7l16.2-15H335.1z M354.1,79.9l-9.8,9.1h10.7l16.2-15h-10.7l-6.3,5.8L354.1,79.9L354.1,79.9z M404.9,79.9l-9.8,9.1h10.6l16.2-15
		h-10.7L404.9,79.9L404.9,79.9L404.9,79.9z M385.9,74l-16.2,15h10.7l16.2-15H385.9z M233.6,74l-16.2,15h10.7l16.2-15H233.6z
		 M252.6,79.9l-9.8,9.1h10.6l16.2-15h-10.7L252.6,79.9L252.6,79.9L252.6,79.9z M303.5,79.9l-9.8,9.1h10.6l16.2-15h-10.7L303.5,79.9
		L303.5,79.9L303.5,79.9z M284.5,74l-16.2,15H279l16.2-15H284.5z M-1,79.8V89h0.8L16,74H5.3L-1,79.8z M30.7,74L14.5,89h10.7l16.2-15
		H30.7z"/>
</g>
<line class="st4" x1="0" y1="77.5" x2="522.2" y2="77.5"/>
<text transform="matrix(1 0 0 1 297.6377 420.9449)" style="font-family:'KozGoPr6N-Regular-83pv-RKSJ-H'; font-size:12px;">9.031 mm</text>
<g>
	<path class="st2" d="M190,60.2c-0.1,0.2-0.2,0.3-0.2,0.5c0.5,0.2,0.8,0.3,1.1,0.6c0.6,0.5,0.9,1.2,0.9,2c0,1.3-0.7,2.4-2,3
		c-0.6,0.3-1.2,0.4-2.2,0.5c-0.2-0.6-0.4-1-0.6-1.4c-0.8,0.7-1.7,1.1-2.5,1.1c-1.3,0-2.1-0.9-2.1-2.2c0-0.9,0.4-1.8,1.1-2.5
		c0.4-0.4,0.8-0.7,1.5-1c0-0.4,0-0.5,0-0.9c-0.5,0-0.5,0-1.3,0c-0.2,0-0.3,0-0.5,0c-0.2,0-0.2,0-0.3,0l0-1.7c0.6,0.1,1.2,0.2,2,0.2
		h0.1l0.2,0c0-0.1,0-0.1,0-0.5c0-0.1,0-0.2,0-0.3c0-0.2,0-0.3,0-0.5l1.9,0.1c-0.1,0.3-0.1,0.5-0.2,1.1c1.8-0.1,3.2-0.3,4.1-0.5
		l0.1,1.8c-0.2,0-0.2,0-0.5,0c-1,0.2-2.7,0.3-3.8,0.3c0,0.1,0,0.1,0,0.3c0,0.1,0,0.1,0,0.3c0.5-0.1,0.7-0.1,1.1-0.1
		c0.2,0,0.3,0,0.5,0c0.1-0.3,0.1-0.4,0.1-0.6L190,60.2z M184,64.2c0,0.4,0.2,0.6,0.5,0.6c0.2,0,0.4-0.1,0.6-0.2
		c-0.1-0.6-0.2-1.2-0.2-2C184.3,63.1,184,63.6,184,64.2z M186.6,63.5c0.4-0.5,0.8-1.2,1-1.7c-0.1,0-0.1,0-0.2,0
		c-0.3,0-0.6,0-0.9,0.1C186.5,62.6,186.6,62.9,186.6,63.5z M188.9,64.8c0.6-0.3,1-0.9,1-1.5c0-0.5-0.2-0.8-0.7-1
		c-0.5,1.2-1.1,2-1.9,2.8C188,65,188.5,64.9,188.9,64.8z"/>
	<path class="st2" d="M197.3,57.1c-0.1,0.2-0.1,0.2-0.2,0.9c-0.1,0.3-0.1,0.4-0.1,0.6c0.7-0.1,1.2-0.2,1.5-0.3l0,1.8
		c-0.3,0-0.3,0-0.8,0.1c-0.3,0-0.9,0.1-1.2,0.1c-0.4,1.3-0.7,2-1.2,3.2c-0.2,0.5-0.3,0.7-0.8,1.5c-0.1,0.3-0.1,0.3-0.2,0.4l-1.8-1
		c0.8-1,1.5-2.6,2-4.1c-0.2,0-0.2,0-0.6,0c-0.3,0-0.3,0-0.5,0c0,0-0.1,0-0.4,0v-1.7c0.4,0.1,0.9,0.1,1.6,0.1c0.1,0,0.2,0,0.4,0
		c0-0.1,0-0.1,0.1-0.5c0.1-0.4,0.2-0.9,0.2-1.3L197.3,57.1z M202,66.3c-0.4-0.5-0.8-0.8-1.4-1.2c0,0.5-0.2,0.8-0.5,1.1
		c-0.4,0.4-1.2,0.7-2.1,0.7s-1.6-0.3-2.1-0.7c-0.4-0.4-0.5-0.8-0.5-1.4c0-1.3,1.1-2.1,2.6-2.1c0.2,0,0.4,0,0.8,0.1
		c0-0.4,0-0.6,0-0.9c0-0.4,0-0.8,0.1-1.3l1.8,0.1c-0.1,0.4-0.1,0.7-0.1,1.2c0,0.4,0,0.7,0.1,1.3c0.7,0.3,1.2,0.6,1.7,1
		c0,0,0.2,0.2,0.5,0.4L202,66.3z M198.1,64.2c-0.5,0-0.8,0.2-0.8,0.6c0,0.3,0.3,0.5,0.8,0.5c0.5,0,0.8-0.2,0.8-0.7
		c0-0.1,0-0.2,0-0.2C198.5,64.3,198.3,64.2,198.1,64.2z M202.1,61.2c-1-0.6-2.1-1.1-3.4-1.6l0.9-1.5c1.4,0.5,2.3,0.9,3.3,1.5
		L202.1,61.2z"/>
	<path class="st2" d="M209.5,60c1-0.1,1.5-0.2,2.9-0.2c0.1,0,0.3,0,0.5,0l0,1.8c-0.5-0.1-0.8-0.1-1.4-0.1c-1.2,0-2,0.1-3.1,0.3
		l-0.1-1.5c-0.5,0.1-0.7,0.1-1,0.1c-0.2,1-0.4,1.8-0.7,3c-0.3,1-0.3,1.2-0.8,2.6c-0.2,0.5-0.2,0.5-0.3,0.8l-2-0.7
		c0.7-1.4,1.4-3.6,1.8-5.6c-0.1,0-0.1,0-0.2,0c-0.3,0-0.6,0-1,0c0,0-0.1,0-0.1,0c-0.1,0-0.1,0-0.3,0l0-1.8c0.4,0.1,1,0.1,1.7,0.1
		c0,0,0.1,0,0.2,0c0.1-0.9,0.2-1.3,0.2-1.6c0,0,0-0.1,0-0.2l2,0.2c-0.1,0.2-0.1,0.3-0.1,0.6c0,0.1-0.1,0.4-0.2,0.9
		c0.8-0.1,1.2-0.1,1.8-0.3L209.5,60z M209.8,63c-0.4,0.5-0.6,0.9-0.6,1.2c0,0.5,0.4,0.7,1.4,0.7c0.9,0,1.9-0.2,2.6-0.4l0.1,1.9
		c-0.2,0-0.3,0-0.6,0.1c-1,0.1-1.5,0.2-2.1,0.2c-2.1,0-3.2-0.7-3.2-2.1c0-0.6,0.3-1.2,0.9-2.1L209.8,63z"/>
	<path class="st2" d="M214.2,59.6C214.3,59.6,214.3,59.6,214.2,59.6c0.4,0,1.5-0.1,2.2-0.2c0.2-1.1,0.3-1.8,0.3-2.1c0,0,0-0.1,0-0.2
		l2,0.2c0,0.1-0.1,0.2-0.1,0.3c0,0,0,0.1,0,0.2l-0.1,0.4c-0.1,0.6-0.2,1-0.2,1.2c0.2,0,0.3,0,0.5,0c0.7,0,1.2,0.1,1.5,0.4
		c0.6,0.4,0.8,1.1,0.8,2.3c0,1.7-0.3,3.1-0.7,3.9c-0.2,0.3-0.4,0.5-0.7,0.6c-0.2,0.1-0.5,0.2-0.9,0.2c-0.5,0-1-0.1-1.7-0.3
		c0-0.3,0-0.4,0-0.6c0-0.5,0-0.8-0.2-1.3c0.6,0.3,1.2,0.4,1.5,0.4c0.2,0,0.4-0.1,0.5-0.5c0.2-0.5,0.3-1.6,0.3-2.4
		c0-0.5-0.1-0.7-0.2-0.9c-0.1-0.1-0.3-0.2-0.7-0.2c-0.1,0-0.2,0-0.4,0c-0.4,1.8-1,3.7-1.9,5.5c-0.1,0.2-0.1,0.2-0.2,0.4l-1.8-0.9
		c0.7-0.9,1.6-3.1,2-4.8c-0.7,0.1-1.4,0.2-1.7,0.3L214.2,59.6z M221.4,57.3c0.4,0.5,0.8,1,1.1,1.6l-1,0.5c-0.4-0.7-0.6-1.1-1.1-1.6
		L221.4,57.3z M222.9,59.2c0.7,1,1.3,2.4,1.7,3.9l-1.8,0.8c-0.2-1.4-0.9-3.1-1.5-4L222.9,59.2z M222.9,56.7c0.4,0.4,0.7,0.9,1.1,1.5
		l-1,0.5c-0.4-0.7-0.7-1.1-1.1-1.6L222.9,56.7z"/>
	<path class="st2" d="M225.1,60.8c0.3,0,0.5,0.1,0.9,0.1h1.1c0.3,0,0.6,0,0.8,0c0,0.3,0,0.6,0,1.2v2.4c0.2,0.3,0.4,0.5,0.7,0.7
		c0.4,0.2,1,0.2,2.4,0.2c2,0,3.4-0.1,4.5-0.2c-0.3,0.7-0.3,1-0.4,1.7c-1,0-1.6,0-2.3,0c-2.8,0-3.5,0-4.2-0.2c-0.6-0.2-1-0.4-1.4-0.9
		c-0.6,0.5-0.9,0.8-1.6,1.3l-0.7-1.8c0.3-0.1,0.9-0.4,1.4-0.8v-2h-0.5c-0.2,0-0.4,0-0.7,0.1V60.8z M226.3,56.9c0.9,0.8,1.3,1.2,2,2
		l-1.3,1.3c-0.7-0.9-1.1-1.4-1.9-2.2L226.3,56.9z M230.3,57.7c0.2-0.4,0.4-0.6,0.5-1l1.8,0.2c-0.2,0.3-0.3,0.5-0.5,0.8h1.7
		c0.3,0,0.6,0,0.8,0c0,0.3,0,0.5,0,0.8v1.7c0,0.4,0,0.7,0,0.9c-0.3,0-0.4,0-0.7,0h-3.7v0.4h4c0.3,0,0.5,0,0.7,0c0,0.2,0,0.5,0,0.8
		v1.9c0,0.3,0,0.6,0,0.8c-0.2,0-0.4,0-0.7,0h-4.9c-0.3,0-0.5,0-0.7,0c0-0.2,0-0.5,0-0.8v-5.7c0-0.3,0-0.5,0-0.8c0.3,0,0.5,0,0.8,0
		H230.3z M230.2,59.7h2.8v-0.6h-2.8V59.7z M230.2,63.5h3v-0.6h-3V63.5z"/>
	<path class="st2" d="M240,58.6c0.6,0,0.9,0,1.3,0c0,0.3,0,0.5,0,1.1c-0.1,6.6-0.3,7.3-2,7.3c-0.2,0-0.5,0-0.9,0
		c0-0.6-0.1-1-0.3-1.6c0.3,0.1,0.7,0.1,0.8,0.1c0.3,0,0.4-0.1,0.5-0.8c0.2-1,0.2-2,0.2-4.4h-0.6c-0.1,1.8-0.3,2.9-0.6,4.1
		c-0.3,1.1-0.7,1.9-1.4,2.9c-0.4-0.7-0.7-1.1-1.2-1.6c0.5-0.7,0.9-1.4,1.2-2.2c0.3-0.8,0.4-1.7,0.5-3.2h-0.4c-0.5,0-0.7,0-1,0.1
		v-1.7c0.3,0,0.6,0.1,1.2,0.1h0.3c0-0.3,0-0.4,0-0.6c0-0.5,0-0.8-0.1-1.1h1.8c0,0.3-0.1,0.4-0.1,1.1c0,0.3,0,0.4,0,0.6H240z
		 M243.3,66.9h-1.7c0-0.3,0.1-0.8,0.1-1.3v-6.7c0-0.5,0-0.8-0.1-1.1c0.3,0,0.6,0,1,0h2.3c0.5,0,0.8,0,1,0c0,0.3-0.1,0.7-0.1,1.1v6.6
		c0,0.6,0,1,0.1,1.4h-1.7v-0.8h-1V66.9z M243.3,64.6h1v-5.2h-1V64.6z"/>
	<path class="st2" d="M250.1,57.3c-0.1,0.7-0.3,3.6-0.3,5.4c0,1.1,0,1.4,0.2,1.7c0.2,0.3,0.7,0.5,1.3,0.5c1.1,0,2-0.7,2.4-1.8
		c0.2-0.6,0.3-1.2,0.4-2c0.8,0.6,1.2,0.9,1.9,1.1c-0.4,1.6-0.8,2.4-1.4,3.1c-0.9,0.9-2,1.4-3.4,1.4c-1.1,0-1.9-0.3-2.5-0.8
		c-0.6-0.6-0.8-1.3-0.8-2.8c0-0.3,0-0.3,0.1-2.5c0-1.1,0-2.1,0-2.6c0-0.3,0-0.5-0.1-0.8L250.1,57.3z"/>
	<path class="st2" d="M262.8,60c1-0.1,1.5-0.2,2.9-0.2c0.1,0,0.3,0,0.5,0l0,1.8c-0.5-0.1-0.8-0.1-1.4-0.1c-1.2,0-2,0.1-3.1,0.3
		l-0.1-1.5c-0.5,0.1-0.7,0.1-1,0.1c-0.2,1-0.4,1.8-0.7,3c-0.3,1-0.3,1.2-0.8,2.6c-0.2,0.5-0.2,0.5-0.3,0.8l-2-0.7
		c0.7-1.4,1.4-3.6,1.8-5.6c-0.1,0-0.1,0-0.2,0c-0.3,0-0.6,0-1,0c0,0-0.1,0-0.1,0c-0.1,0-0.1,0-0.3,0l0-1.8c0.4,0.1,1,0.1,1.7,0.1
		c0,0,0.1,0,0.2,0c0.1-0.9,0.2-1.3,0.2-1.6c0,0,0-0.1,0-0.2l2,0.2c-0.1,0.2-0.1,0.3-0.1,0.6c0,0.1-0.1,0.4-0.2,0.9
		c0.8-0.1,1.2-0.1,1.8-0.3L262.8,60z M263.2,63c-0.4,0.5-0.6,0.9-0.6,1.2c0,0.5,0.4,0.7,1.4,0.7c0.9,0,1.9-0.2,2.6-0.4l0.1,1.9
		c-0.2,0-0.3,0-0.6,0.1c-1,0.1-1.5,0.2-2.1,0.2c-2.1,0-3.2-0.7-3.2-2.1c0-0.6,0.3-1.2,0.9-2.1L263.2,63z"/>
	<path class="st2" d="M271.8,65.2c0,0.2,0.2,0.3,1,0.3c0.9,0,1.1-0.1,1.2-0.4c0.1-0.3,0.2-0.9,0.2-1.9c0.7,0.3,1,0.4,1.6,0.6
		c-0.1,2-0.3,2.6-0.9,3c-0.4,0.2-1.1,0.3-2.3,0.3c-1.8,0-2.3-0.2-2.4-1.1c-0.6,0.4-0.9,0.6-1.7,1c-0.4-0.6-0.6-1-1.1-1.5
		c1.1-0.5,1.9-1,2.7-1.6v-3.4c0-0.5,0-0.8-0.1-1.2h1.8c0,0.4-0.1,0.7-0.1,1.1v2.1c0.9-1,1.8-2.2,2.4-3.5c0.3-0.7,0.5-1.2,0.6-1.6
		l1.7,0.7c-0.2,0.3-0.2,0.3-0.5,1c-0.4,0.8-0.6,1.2-1,1.9l1.3-0.6c0.6,1.4,1.1,2.5,1.6,4.3l-1.6,0.8c-0.4-1.7-0.8-3-1.4-4.3
		c-1,1.5-1.8,2.4-3.1,3.5V65.2z M269.8,60.4c-0.2,1.9-0.4,2.9-0.9,4.1l-1.5-0.7c0.4-1.1,0.7-2.1,0.9-3.8L269.8,60.4z M271,56.8
		c1.4,0.5,2.1,0.8,3.1,1.4l-1,1.5c-0.8-0.5-1.7-1-3.2-1.6L271,56.8z"/>
	<path class="st2" d="M279.7,63.2c-0.5,0-0.9,0-1.2,0v-1.4c0.4,0,0.8,0.1,1.2,0.1h7.7c0.4,0,0.8,0,1.2-0.1v1.4c-0.3,0-0.7,0-1.2,0
		h-3.1c-0.1,0.1-0.1,0.2-0.2,0.3h2.9c0.5,0,0.8,0,1,0c0,0.2,0,0.4,0,0.8v1.5c0,1-0.3,1.2-1.3,1.2c-0.1,0-0.1,0-0.8,0
		c-0.1-0.7-0.1-1-0.3-1.5c0.2,0,0.4,0.1,0.6,0.1c0.2,0,0.2,0,0.2-0.2v-0.7h-0.9v1.2c0,0.5,0,0.7,0,1h-1.6c0-0.3,0-0.6,0-1v-1.2h-0.8
		v1.2c0,0.5,0,0.7,0,1h-1.6c0-0.3,0-0.6,0-1v-1.2h-0.8V66c0,0.4,0,0.7,0,1h-1.7c0-0.4,0.1-0.7,0.1-1.1v-1.6c0-0.3,0-0.6,0-0.9
		c0.3,0,0.5,0,1.1,0h2c0.1-0.1,0.1-0.2,0.2-0.3H279.7z M280.4,58.3c-0.5,0-0.9,0-1.2,0V57c0.3,0,0.8,0.1,1.4,0.1h5.8
		c0.6,0,1.1,0,1.4-0.1v1.3c-0.3,0-0.7,0-1.2,0h-2.3v0.3h2.6c0.9,0,1.2,0,1.5,0c0,0.3,0,0.5,0,1v0.8c0,0.5,0,0.6,0.1,0.9h-1.6v-1.5
		h-2.6v0.9c0,0.5,0,0.7,0,1h-1.7c0-0.3,0-0.6,0-1v-0.9h-2.5v1.5h-1.6c0-0.3,0.1-0.5,0.1-0.9v-0.8c0-0.5,0-0.7,0-1c0.3,0,0.6,0,1.5,0
		h2.5v-0.3H280.4z M280.5,59.9c0.1,0,0.2,0,0.5,0h0.9c0.3,0,0.3,0,0.5,0v0.7c-0.1,0-0.2,0-0.5,0h-0.9c-0.3,0-0.3,0-0.5,0V59.9z
		 M280.5,60.9c0.1,0,0.2,0,0.5,0h0.9c0.3,0,0.4,0,0.5,0v0.7c-0.1,0-0.2,0-0.5,0h-0.9c-0.2,0-0.3,0-0.5,0V60.9z M284.6,59.9
		c0.1,0,0.2,0,0.5,0h1c0.3,0,0.3,0,0.5,0v0.7c-0.1,0-0.2,0-0.5,0h-1c-0.2,0-0.3,0-0.5,0V59.9z M284.6,60.9c0.1,0,0.2,0,0.5,0h1
		c0.3,0,0.3,0,0.5,0v0.7c-0.1,0-0.2,0-0.5,0h-1c-0.2,0-0.3,0-0.5,0V60.9z"/>
	<path class="st2" d="M289.6,67.1c0-0.4,0.1-0.6,0.1-1.2v-3c0-0.4,0-0.7,0-1c0.3,0,0.6,0,1.1,0h2.7c0.3,0,0.5,0,0.8,0
		c0,0.2,0,0.3,0,0.9V66c0,0.4,0,0.7,0,0.9h-1.6v-0.3h-1.3v0.5H289.6z M290.9,58.1c0-0.4,0-0.7,0-1c0.3,0,0.7,0,1.2,0h4.6
		c0.6,0,1,0,1.3,0c0,0.3,0,0.6,0,1v2.2c0,0.5,0,0.8,0,1.1c-0.3,0-0.5,0-1.1,0H292c-0.6,0-0.8,0-1.1,0c0-0.3,0-0.6,0-1.1V58.1z
		 M292.5,63.4h-1.3v1.7h1.3V63.4z M292.6,58.7v1.1h3.8v-1.1H292.6z M298.3,61.9c0.5,0,0.8,0,1,0c0,0.3,0,0.6,0,1v3
		c0,0.6,0,0.9,0.1,1.2h-1.7v-0.5h-1.4v0.5h-1.6c0-0.3,0-0.5,0-0.9v-3.5c0-0.5,0-0.6,0-0.9c0.2,0,0.4,0,0.8,0H298.3z M296.3,65.1h1.4
		v-1.7h-1.4V65.1z"/>
	<path class="st2" d="M303.4,57.3c-0.1,0.2-0.2,0.6-0.3,1.1c-0.3,1.5-0.5,2.7-0.5,4.2l0.8,0.3c-0.3,1.1-0.5,1.9-0.5,3.3
		c0,0.1,0,0.2,0,0.4l-1.8,0.1c0-0.2,0-0.2-0.1-0.9c-0.2-1.5-0.2-2.1-0.2-3.3c0-1.5,0.1-2.5,0.4-4.4c0.1-0.5,0.1-0.8,0.1-0.9
		c0,0,0,0,0-0.1L303.4,57.3z M303.7,59.1c0.4,0.1,1.2,0.2,2,0.2c0.2,0,0.4,0,0.8,0c0-0.7,0-0.7,0-1.4c0-0.3,0-0.4-0.1-0.6l1.9,0
		c-0.1,0.3-0.1,0.8-0.1,1.9c0.7-0.1,1.3-0.2,1.7-0.3l0.1,1.7c-0.1,0-0.2,0-0.4,0.1c-0.3,0.1-0.8,0.1-1.4,0.2c0,0.9,0,1.1,0.1,2.3
		c0.8,0.3,1.1,0.6,1.8,1c0.1,0,0.1,0.1,0.2,0.1l-0.7,1.9c-0.3-0.3-0.7-0.6-1.3-1c0,0,0,0.1,0,0.1c0,0.9-0.9,1.5-2.3,1.5
		c-1.6,0-2.6-0.8-2.6-2c0-0.7,0.3-1.2,0.8-1.6c0.4-0.3,1-0.4,1.7-0.4c0.2,0,0.4,0,0.6,0.1c0-0.3,0-0.4,0-0.9c0-0.4,0-0.5,0-0.9
		c-0.3,0-0.4,0-0.6,0c-0.3,0-1,0-1.9-0.1c-0.1,0-0.2,0-0.3,0c0,0-0.1,0-0.1,0L303.7,59.1z M306.7,64.3c-0.3-0.1-0.4-0.1-0.7-0.1
		c-0.5,0-0.8,0.2-0.8,0.5c0,0.3,0.3,0.5,0.7,0.5c0.5,0,0.8-0.2,0.8-0.6L306.7,64.3z"/>
	<path class="st2" d="M314.6,62.5c-0.6,0.5-1,0.9-1,1.3c0,0.6,0.7,0.8,2.4,0.8c1.3,0,2.8-0.2,3.6-0.5l0.1,2.1c-0.3,0-0.3,0-1.1,0.1
		c-0.9,0.1-1.8,0.2-2.7,0.2c-1.2,0-2.1-0.1-2.8-0.4c-1-0.4-1.5-1.1-1.5-2c0-1,0.5-1.8,1.6-2.6L314.6,62.5z M312.4,57.5
		c0.7,0.2,2,0.3,3.6,0.3c1.4,0,2.5-0.1,3-0.2l0,1.7c-0.7,0.3-2,1.2-3,1.9l-1.3-0.9c0.3-0.2,0.3-0.2,0.9-0.5c0.1-0.1,0.2-0.1,0.3-0.2
		c0.1,0,0.1,0,0.2-0.1c-0.4,0-0.5,0-0.9,0c-0.8,0-1.4,0-2.5-0.1c-0.2,0-0.2,0-0.4,0L312.4,57.5z"/>
	<path class="st2" d="M321.1,58.4c0.5,0.1,1.2,0.2,2.4,0.2c0.2-0.8,0.2-1.2,0.3-1.6l2,0.2c-0.1,0.4-0.1,0.4-0.4,1.5
		c2.1-0.1,3.4-0.2,4.1-0.4l0.1,1.9c-0.3,0-0.4,0-0.8,0.1c-1.5,0.2-2.5,0.2-3.8,0.3c-0.2,0.6-0.4,1.1-0.6,1.6
		c0.7-0.3,1.4-0.5,2.4-0.5c1,0,1.8,0.2,2.4,0.6c0.6,0.4,0.9,1.1,0.9,1.8c0,1.8-1.7,2.9-4.4,2.9c-0.9,0-1.9-0.1-2.8-0.3
		c0-0.8,0-1.1-0.2-1.9c1.1,0.3,2,0.5,2.9,0.5c1.5,0,2.4-0.4,2.4-1.2c0-0.5-0.5-0.8-1.5-0.8c-0.8,0-1.6,0.2-2.2,0.5
		c-0.4,0.2-0.5,0.3-0.7,0.6l-1.8-0.6c0.4-0.6,1.1-2.3,1.4-3.3c-0.1,0-0.1,0-0.4,0c-0.2,0-0.2,0-1.1-0.1c-0.2,0-0.3,0-0.4,0
		c0,0-0.1,0-0.1,0L321.1,58.4z"/>
	<path class="st2" d="M334.1,59.3c-0.2,0.6-0.3,1.6-0.5,2.6c0.9-0.6,1.9-0.9,3.1-0.9c1.9,0,3.2,1,3.2,2.6c0,0.9-0.4,1.8-1.2,2.3
		c-0.8,0.5-1.8,0.8-3.1,0.8c-0.9,0-1.7-0.1-2.7-0.3c0-0.9-0.1-1.3-0.3-1.9c1.1,0.3,2.1,0.5,2.9,0.5c1.4,0,2.4-0.5,2.4-1.3
		c0-0.6-0.6-0.9-1.5-0.9c-0.8,0-1.6,0.2-2.4,0.7c-0.3,0.2-0.4,0.3-0.6,0.5l-1.8-0.1c0-0.1,0-0.1,0-0.2c0.1-0.5,0.3-2.3,0.5-3.8
		c0-0.2,0.1-0.4,0.1-0.7L334.1,59.3z M333.9,56.9c0.5,0.3,1.2,0.5,2.2,0.8c0.7,0.2,1.7,0.4,2.2,0.5l-0.6,1.8c-2-0.4-3.4-0.8-4.7-1.4
		L333.9,56.9z"/>
</g>
<g>
	<path class="st5" d="M69.5,65.8H25.2c-3.3,0-6.4-1.7-8-4.6c-1.7-2.9-1.7-6.4,0-9.2l22.2-38.4c1.7-2.9,4.7-4.6,8-4.6
		c3.3,0,6.4,1.7,8,4.6l22,38.4c1.7,2.9,1.7,6.4,0,9.2C75.8,64.1,72.7,65.8,69.5,65.8z"/>
	<g>
		<path class="st6" d="M40.9,13.6L18.9,52c-2.8,5,0.6,11,6.4,11h44.2c5.5,0,9.1-6,6.4-11L53.7,13.6C50.8,8.6,43.7,8.6,40.9,13.6z"/>
		<path class="st7" d="M69.4,64.6H25.1c-3.3,0-6.4-1.7-8-4.6c-1.7-2.9-1.7-6.4,0-9.2l22.2-38.4c1.7-2.9,4.7-4.6,8-4.6
			c3.3,0,6.4,1.7,8,4.6l22.2,38.4c1.7,2.9,1.7,6.4,0,9.2C75.8,63,72.6,64.6,69.4,64.6z M42.7,14.5L20.6,52.9c-1,1.7-1,3.6,0,5.2
			c1,1.7,2.7,2.7,4.6,2.7h44.2c1.8,0,3.6-1,4.6-2.7c1-1.7,1-3.6,0-5.2l-22-38.4c-1-1.7-2.7-2.7-4.6-2.7
			C45.4,11.9,43.7,12.9,42.7,14.5L42.7,14.5z"/>
	</g>
	<g class="st8">
		<path class="st7" d="M48.3,43.5v1.1c0,1.6,0,1.8,0.1,2.4h-3.1c0.1-0.6,0.1-1.2,0.1-2.4v-6.5c-0.3,3-0.3,3-0.6,4.3
			c-0.3,2-0.8,3.1-1.4,4.6c-0.6-1-1-1.5-1.7-2.3c0,1,0,1.4,0.2,2.4h-3.4c0.1-1.1,0.2-1.4,0.2-2.5v-5.3c0-0.5,0-1,0.1-2.4
			c-0.3,0.6-0.6,1-1,1.4c-0.3-1.7-0.6-2.4-1.1-4c1-1.1,1.8-2.5,2.6-4.2c0.6-1.3,0.9-2.6,1-3.6l3.2,0.8c-0.1,0.3-0.1,0.4-0.3,0.8
			c0.6,0.1,1.2,0.1,2.1,0.1h0.3v-0.3c0-0.6,0-0.8-0.1-1.1h3.3c0.1,0.3,0.1,0.8,0.1,1.1v0.3H51v-0.3c0-0.6,0-0.8-0.1-1.1h3.2
			C54,27,54,27.3,54,27.8v0.3h0.6c1,0,1.8-0.1,2.3-0.2v2.9c-0.8-0.1-1-0.1-2.3-0.1H54v1.2h0.8c1.2,0,1.7,0,2.5-0.1v3
			c-0.6-0.1-1.2-0.1-2-0.1h-9.5v0.6c0.6,0.1,1.1,0.1,2.2,0.1h7c1,0,1.4,0,2-0.1c-0.1,0.5-0.1,1-0.1,2.2v7.3c0,1.7-0.5,2.1-3.6,2.1
			c-0.2-1-0.3-1.5-0.6-2.4c0.3,0,0.6,0.1,0.8,0.1c0.3,0,0.4-0.1,0.4-0.4v-0.7h-1.3v0.8c0,1.3,0,1.8,0.1,2.5h-2.9
			c0.1-0.8,0.1-1.2,0.1-2.5v-0.8H48.3L48.3,43.5z M41.8,42.9c0.3-0.8,0.4-1.3,0.6-2.2c0.2-1.2,0.3-3.7,0.3-6.3c0-1.2,0-1.8-0.1-2.7
			c0.9,0.1,1.2,0.1,2.4,0.1h0.8v-1.1h-0.3c-1.2,0-1.6,0-2.3,0.1v-2.3c-0.4,1.3-0.6,1.8-1.2,3.1C41.8,31.7,41.8,42.9,41.8,42.9z
			 M49.7,37.6h-1.3v0.9h1.3V37.6z M49.7,40.5h-1.3v1h1.3V40.5z M51,31.9v-1h-2.2v1H51z M53.7,38.5v-0.9h-1.3v0.9H53.7z M53.7,41.4
			v-0.9h-1.3v0.9H53.7z"/>
	</g>
	<g class="st8">
		<path class="st7" d="M45.9,20.6c0,0.3,0.1,0.5,0.3,0.8c0.3,0.3,0.6,0.5,1.1,0.5c0.8,0,1.2-0.3,1.2-0.9c0-0.3-0.2-0.6-0.4-0.6
			c-0.3-0.1-0.5-0.2-1.4-0.4c-0.9-0.2-1.2-0.3-1.5-0.6c-0.6-0.4-1-1-1-1.8c0-1.5,1.2-2.4,3.1-2.4c1.2,0,2.2,0.4,2.7,1.1
			c0.3,0.3,0.3,0.6,0.5,1.1l-2.2,0.2c-0.1-0.6-0.5-0.9-1.2-0.9c-0.6,0-1,0.3-1,0.8c0,0.3,0.2,0.5,0.5,0.6c0.2,0.1,0.2,0.1,1.3,0.3
			c0.8,0.2,1.2,0.3,1.6,0.6c0.8,0.4,1,1.1,1,2c0,0.8-0.3,1.3-0.6,1.7c-0.6,0.6-1.4,0.8-2.6,0.8c-0.8,0-1.6-0.2-2.2-0.5
			c-0.5-0.3-0.8-0.8-1-1.2c-0.1-0.3-0.2-0.5-0.3-0.9L45.9,20.6z"/>
	</g>
	<polygon points="30.6,57.2 47.2,73 80.6,22.5 44.2,60.9 34.2,52.8 	"/>
</g>
<g>
	<path class="st7" d="M488.9,43.3c0,2-1.6,3.7-3.7,3.7h-28.1c-2,0-3.7-1.6-3.7-3.7V15.1c0-2,1.6-3.7,3.7-3.7h28.1
		c2,0,3.7,1.6,3.7,3.7C488.9,15.1,488.9,43.3,488.9,43.3z"/>
	<path class="st9" d="M486.7,41.6c0,1.8-1.5,3.3-3.3,3.3h-24.7c-1.8,0-3.3-1.5-3.3-3.3V16.7c0-1.8,1.5-3.3,3.3-3.3h24.9
		c1.8,0,3.3,1.5,3.3,3.3L486.7,41.6L486.7,41.6z"/>
	<g>
		<g>
			<path class="st2" d="M465.3,29.8h-3.1v-4.2H458v-3.1h4.2v-4.2h3.1v4.2h4.2v3.1h-4.2V29.8z"/>
		</g>
		<g>
			<path class="st2" d="M480,34.7c0,0.3,0,0.4,0,0.5c0,1.1,0.1,1.4,0.5,1.4c0.4,0,1.1-0.4,1.6-1.1l1.4,2.4c-0.7,0.7-1.1,0.9-1.8,1.4
				c-0.8,0.3-1.6,0.5-2.3,0.5c-0.8,0-1.4-0.1-1.9-0.5c-0.3-0.3-0.5-0.5-0.7-1.2c-0.8,0.7-1.1,1.1-1.8,1.4c-0.8,0.4-1.6,0.5-2.6,0.5
				c-3.4,0-5.3-1.9-5.3-5.3c0-4.9,3.3-8.4,7.7-8.4c1.5,0,2.6,0.4,3.3,1.1c0.4,0.4,0.5,0.8,0.8,2l0.4-0.8c0.3-0.5,0.5-1.2,0.7-1.8
				h4.1c-0.3,0.5-0.5,1.1-1.4,2.4L480,34.7z M476.3,31.9c0-1.6-0.5-2.3-1.6-2.3c-1.1,0-2.2,0.7-2.8,2c-0.4,0.8-0.7,1.9-0.7,3
				c0,1.5,0.7,2.3,2.2,2.3c0.5,0,1.1-0.1,1.6-0.5c0.3-0.3,0.5-0.4,0.8-0.8c0.3-0.3,0.7-0.8,0.7-0.8
				C476.3,33.8,476.3,32.6,476.3,31.9z"/>
		</g>
	</g>
</g>
<g>
	<g>
		<g>
			<g class="st8">
				<path d="M249.7,25.9c-0.1,4.6-0.4,8.7-0.7,11.6c-0.5,3.8-1.2,6-2.9,8.9c-0.7-1-1.7-2-2.6-2.7c0,1.3,0.1,1.8,0.1,3.1h-4
					c0.1-1.6,0.3-2.5,0.3-4.3v-9.9c0-1.3,0-2.6,0.1-4.7c-0.7,1.6-1.4,2.6-2.5,3.8c-0.7-2.3-0.7-2.3-1.7-4.3c2-2.2,3.5-4.8,5-8
					c1-2.3,1.7-4.3,1.8-6l3.8,1c-0.1,0.5-0.4,1-0.5,1.8c-0.7,2.3-1.2,3.7-2.3,5.7v20.8c1-1.7,1.3-2.7,1.7-4.8
					c0.5-2.7,0.8-6.3,0.8-11.9c0-1.3,0-2.5-0.1-3.7c1.2,0.1,2,0.1,3.8,0.1h15.9c2,0,2.7,0,3.8-0.1v3.5c-1-0.1-2.1-0.1-3.4-0.1
					L249.7,25.9C249.7,25.8,249.7,25.9,249.7,25.9z M251.1,15.9c0-1,0-1.7-0.1-2.1h3.8c-0.1,0.5-0.1,1.2-0.1,2.1v0.8h5v-0.8
					c0-1,0-1.7-0.1-2.1h3.8c-0.1,0.5-0.1,1.2-0.1,2.1v0.8h2.3c1.6,0,2.9-0.1,3.7-0.3V20c-1-0.1-1.8-0.1-3.7-0.1h-2.3v0.4
					c0,0.9,0,1.2,0.1,1.7h-3.8c0.1-0.5,0.1-1,0.1-1.7v-0.4h-5v0.4c0,0.9,0,1.2,0.1,1.7H251c0.1-0.5,0.1-1,0.1-1.7v-0.4h-1.6
					c-1.8,0-2.5,0-3.5,0.1v-3.5c1,0.1,2.2,0.1,3.5,0.1h1.6V15.9C250.8,15.9,251.1,15.9,251.1,15.9z M253.7,40.5v2.1
					c0,2.3,0,3.1,0.1,3.8h-3.8c0.1-1,0.3-2,0.3-3.8V31.3c0-2,0-2.7-0.1-3.8c1,0.1,1.8,0.1,3.8,0.1h10.8c1.7,0,2.5,0,3.4-0.1
					c-0.1,0.8-0.1,1.8-0.1,3.8v12.1c0,2.3-0.8,2.9-4,2.9c-0.4,0-0.4,0-1.7,0c-0.1-1.4-0.4-2-0.7-3.1c0.8,0.1,1.7,0.1,2.1,0.1
					c0.5,0,0.8-0.1,0.8-0.8v-2.1h-3.8v1.7c0,2.1,0,3.1,0.1,3.8h-3.7c0.1-1,0.3-2.1,0.3-3.8v-1.7L253.7,40.5L253.7,40.5L253.7,40.5z
					 M257.5,30.7h-3.8v2h3.8V30.7z M257.5,35.4h-3.8v2h3.8V35.4z M264.7,32.7v-2h-3.8v2H264.7z M264.7,37.4v-2h-3.8v2H264.7z"/>
				<path d="M280.9,15.5c0-0.7,0-1.2-0.1-2h3.9c-0.1,0.7-0.1,1.2-0.1,2v0.4h8v-0.4c0-0.7,0-1.2-0.1-2h3.9c-0.1,0.7-0.1,1.2-0.1,2
					v0.4h4.3c1.8,0,3.1-0.1,4-0.3v3.5c-1-0.1-2.2-0.1-4-0.1h-4.3c0,0.5,0,1,0.1,1.6h-3.8c0-0.5,0.1-1,0.1-1.6h-8c0,0.5,0,1,0.1,1.6
					H281c0.1-0.5,0.1-1,0.1-1.6h-3.9c-2,0-3.1,0-4,0.1v-3.5c1.2,0.1,2.3,0.3,4,0.3h3.9L280.9,15.5L280.9,15.5z M296.4,26.3
					c-1.7,1.3-4.3,3.4-5.4,4c2.9-0.1,5.1-0.3,6.5-0.4c-0.8-0.5-1-0.9-2.2-1.7l2.7-2c2.9,2.1,4.7,3.8,7,6.1l-2.7,2.5
					c-1-1.2-1.4-1.7-2.1-2.5c-8,0.5-12,0.7-24.8,1.2c-0.9,0-1.6,0.1-2.1,0.1l-0.5-3.7c1.2,0.1,3.3,0.3,8.6,0.3c0.1,0,0.1,0,1.8,0
					c-1.3-0.5-4.7-2.1-6.4-2.7l2.3-2.5c1.7,0.8,2.1,1,3.3,1.6c0.9-0.5,1.3-1,2.3-2h-7.3c-1.8,0-3.1,0-4,0.1v-3.5
					c1,0.1,2.3,0.3,4,0.3h9.3c0-0.9,0-1.3-0.1-2h3.8c-0.1,0.7-0.1,1-0.1,2h9.8c1.7,0,3.1-0.1,4-0.3v3.5c-0.9-0.1-2.3-0.1-4-0.1h-6.4
					L296.4,26.3z M276.2,37.6c0-1.3,0-2.3-0.1-3.4c1,0.1,1.7,0.1,3.5,0.1h18.5c1.8,0,2.5,0,3.5-0.1c-0.1,1-0.1,1.7-0.1,3.5v5.4
					c0,1.2,0.1,2.3,0.1,3.5h-3.9v-1.3h-17.9v1.3h-3.9c0.1-1.2,0.1-2.3,0.1-3.5v-5.5H276.2z M279.8,38.4h7v-1.6h-7V38.4z M279.8,42.5
					h7v-1.7h-7V42.5z M288.9,24.7c-1.2,1.2-2.5,2.3-3.8,3.3c1,0.5,1.2,0.7,2.1,1.2c2.2-1.6,4.3-3.1,5.4-4.4L288.9,24.7L288.9,24.7z
					 M290.4,38.4h7.3v-1.6h-7.3V38.4z M290.4,42.5h7.3v-1.7h-7.3V42.5z"/>
				<path d="M335.5,18.5c-0.4,0.1-0.4,0.1-3,1c-2.1,0.5-3.1,1-6,1.6c0,4.8,0,4.8-0.1,6h7.6c2.5,0,3.1,0,4.3-0.3v4.3
					c-1.3-0.1-2-0.1-4.3-0.1h-7.8c-0.4,3.3-1.2,5.7-2.3,7.7c-1.2,2.1-3.3,4-5.7,5.6c-1,0.5-1.7,1-3.3,1.8c-1-1.8-1.7-2.5-3.1-3.8
					c2.6-1,3.8-1.7,5.5-3c2.1-1.7,3.5-3.8,4-6c0.1-0.5,0.3-1.2,0.4-2.3h-8.9c-2.3,0-3,0-4.3,0.1v-4.3c1.3,0.3,2,0.3,4.3,0.3h9
					c0.1-1.6,0.1-2.9,0.1-5.4c-2.9,0.4-3.9,0.5-9.9,0.8c-0.4-1.7-0.5-2.1-1.3-3.8c1,0.1,1.7,0.1,2.2,0.1c4.8,0,10.8-0.8,15.3-2.1
					c2.1-0.5,3.1-1,4.3-1.7L335.5,18.5z"/>
				<path d="M357.9,40.5h7.3c1.7,0,2.3,0,3.3-0.3v3.9c-1-0.1-1.7-0.1-3.3-0.1h-18.3c-1.7,0-2.3,0-3.3,0.1v-3.9
					c1,0.1,1.7,0.3,3.3,0.3h7V29h-5c-1.3,0-2.1,0-3.3,0.3v-4c1,0.1,1.8,0.3,3.1,0.3h14c1.6,0,2.3-0.1,3.3-0.3v3.9
					c-1-0.1-1.6-0.1-3.1-0.1h-5.1L357.9,40.5L357.9,40.5z"/>
				<path d="M378.2,23c1.6,2.7,2.2,4.4,3.5,8.4l-3.9,1.2c-1-3.7-1.7-5.5-3.1-8.6L378.2,23z M398.7,23.6c-0.3,0.5-0.4,0.7-0.5,1.8
					c-1,5-2.7,8.9-5,11.7c-2.7,3.7-5.6,6-10.8,8.6c-1-1.7-1.3-2.1-2.7-3.5c2.5-1,3.8-1.7,6-3.3c4-3.1,6.7-6.7,8.1-12.3
					c0.5-1.7,0.5-3,0.5-4L398.7,23.6z M385.9,21.7c1.8,3.5,2.6,5.1,3.4,8.2l-3.8,1.2c-0.7-2.7-1.7-5.5-3.1-8.4L385.9,21.7z"/>
				<path d="M431.1,20.9c-0.4,0.5-0.5,0.9-0.9,2.1c-1.7,5.4-4,10.2-7.3,13.7c-3.3,3.8-7.2,6.5-12.7,9c-1-1.8-1.6-2.3-3.1-3.8
					c3.5-1.6,5.6-2.5,7.8-4.3c5.1-3.8,8.4-8.7,10.3-15l-10.7,0.1c-2.2,3.4-5,6.5-8.2,9c-1-1.6-1.7-2-3.4-3.1c4-2.7,6.7-5.6,9.3-10.3
					c1-2.1,1.7-3.4,1.8-4.7l5,1c-0.3,0.4-0.3,0.4-0.5,1c-0.1,0.1-0.1,0.1-0.5,1c-0.1,0.3-0.1,0.3-0.5,1c-0.3,0.5-0.3,0.5-0.5,1.2
					c0.5,0,1-0.1,1.7-0.1l7.8-0.1c1.4,0,1.8-0.1,2.6-0.4L431.1,20.9z"/>
			</g>
		</g>
	</g>
	<g>
		<path d="M113,26c0.2,1,0.8,1.4,2.1,1.4c1.1,0,1.8-0.3,1.8-0.9c0-0.3-0.2-0.5-0.4-0.7c-0.3-0.2-0.5-0.2-1.6-0.4
			c-1.5-0.3-2.2-0.5-2.8-0.7c-0.9-0.3-1.6-0.8-1.9-1.4c-0.3-0.5-0.5-1.2-0.5-1.8c0-2.3,1.9-3.7,5.1-3.7c1.8,0,3.2,0.4,4.1,1.2
			c0.6,0.6,0.9,1.1,1.2,2.2l-3.7,0.4c-0.1-0.8-0.6-1.1-1.6-1.1c-1,0-1.6,0.3-1.6,0.8c0,0.5,0.4,0.7,2.3,1.1c1.9,0.4,2.5,0.6,3.1,0.9
			c1.2,0.6,1.8,1.6,1.8,2.9c0,1-0.3,1.9-1,2.5c-0.9,0.9-2.5,1.4-4.5,1.4c-2.4,0-4.1-0.7-5-1.9c-0.4-0.5-0.6-1-0.8-1.9L113,26z"/>
		<path d="M129.8,21.9c0-0.9-0.6-1.3-1.8-1.3c-1.2,0-1.9,0.4-2.2,1.3l-3.7-0.6c0.4-1.1,0.8-1.7,1.6-2.3c1-0.7,2.5-1.1,4.3-1.1
			c1.4,0,2.8,0.3,3.5,0.7c1.2,0.7,1.8,1.7,1.8,3.4v5.2c0,1.2,0,1.9,0.1,2.7h-3.7v-0.9c-1.1,0.8-2.1,1.1-3.7,1.1
			c-1.5,0-2.5-0.3-3.3-1.1c-0.7-0.6-1.1-1.6-1.1-2.6c0-1.2,0.5-2.2,1.4-2.8c1-0.7,2.3-1.1,4-1.2c0.7-0.1,1.3-0.1,2.7-0.1V21.9z
			 M129.8,24.8c-1.7,0-2.5,0.1-3.3,0.4c-0.7,0.2-1.1,0.7-1.1,1.3c0,0.7,0.6,1.1,1.6,1.1c0.8,0,1.6-0.3,2.2-0.7
			c0.4-0.4,0.7-0.9,0.7-1.5V24.8z"/>
		<path d="M139.5,14c-0.1,0.8-0.2,1.6-0.2,2.9v5.4l2.1-2.1c0.9-0.9,1.3-1.4,1.7-1.9h5.1c-0.7,0.7-1,0.9-2,1.9l-2.8,2.7l3.2,4.7
			c1.2,1.7,1.2,1.8,1.8,2.5h-4.9c-0.3-0.8-0.7-1.6-1.3-2.6l-1.5-2.4l-1.4,1.4v0.8c0,1.6,0,2,0.2,2.8h-3.9c0.1-0.9,0.2-1.6,0.2-2.9
			V16.9c0-1.3-0.1-2.2-0.2-2.9H139.5z"/>
		<path d="M161.7,18.3c-0.1,0.9-0.2,1.7-0.2,2.9v5.9c0,1.3,0,2.1,0.2,2.9h-3.8v-0.8c0-0.1,0-0.4,0-0.5c-1.3,1.2-2.4,1.6-4,1.6
			c-1.3,0-2.3-0.4-3-1.1c-0.8-0.8-1.1-1.7-1.1-3.2v-4.8c0-1.1-0.1-2.1-0.2-2.9h4c-0.1,0.9-0.2,1.7-0.2,2.9v3.9
			c0,0.8,0.1,1.1,0.3,1.4c0.3,0.3,0.7,0.5,1.2,0.5c1.1,0,2.1-0.7,2.9-2v-3.9c0-1.1,0-1.9-0.2-2.9H161.7z"/>
		<path d="M167.4,24.8c0.1,0.7,0.2,1,0.5,1.4c0.5,0.6,1.3,0.9,2.2,0.9c1.5,0,2.4-0.7,2.4-1.7c0-0.6-0.3-1.1-0.8-1.3
			c-0.4-0.2-0.9-0.3-2.9-0.8c-1.8-0.4-2.4-0.6-3.1-1.1c-1.2-0.8-1.9-2.1-1.9-3.7c0-2.9,2.4-4.8,6.1-4.8c2.4,0,4.3,0.7,5.3,2.2
			c0.5,0.6,0.7,1.2,1,2.3l-4.1,0.4c-0.2-1.2-0.9-1.8-2.4-1.8c-1.2,0-2,0.6-2,1.5c0,0.5,0.3,0.9,0.9,1.2c0.4,0.2,0.4,0.2,2.6,0.6
			c1.5,0.3,2.4,0.6,3.1,1.1c1.4,0.9,2.1,2.1,2.1,3.9c0,1.4-0.5,2.7-1.3,3.5c-1.1,1.1-2.8,1.6-5,1.6c-1.6,0-3.2-0.3-4.3-0.9
			c-1-0.5-1.7-1.4-2.1-2.5c-0.2-0.5-0.3-0.9-0.4-1.8L167.4,24.8z"/>
		<path d="M189.4,30c-0.2-0.9-0.3-1.4-0.5-2.1l-0.5-1.6h-5.5l-0.5,1.6c-0.2,0.8-0.4,1.4-0.5,2.1h-4.5c0.3-0.6,0.5-1,0.9-2.3
			l4.1-11.5c0.3-0.9,0.5-1.5,0.6-2.1h5c0.1,0.6,0.3,1.1,0.7,2.1l4.2,11.5c0.4,1,0.7,1.8,0.9,2.3H189.4z M185.6,17.3l-1.8,5.7h3.6
			L185.6,17.3z"/>
		<path d="M208.3,27.1c1.1,1.7,1.4,2,2,2.8h-5c-0.3-0.6-0.8-1.6-1.3-2.4l-3-4.8l-1.9,1.9v2.4c0,1.2,0,1.8,0.2,2.8h-4.1
			c0.1-1,0.2-1.7,0.2-2.8V16.9c0-1.2,0-1.9-0.2-2.8h4.1c-0.1,1-0.2,1.6-0.2,2.8v3.4l3.8-4.1c0.7-0.8,1.2-1.4,1.7-2.1h5.2
			c-0.3,0.3-0.5,0.5-0.7,0.8c-1,1-1,1-1.3,1.3l-4,4.2L208.3,27.1z"/>
		<path d="M226.3,14c-0.1,0.8-0.2,1.5-0.2,2.9v6.6c0,4.4-2.6,6.8-7.2,6.8c-2.4,0-4.3-0.7-5.5-1.9c-1.1-1.2-1.7-2.9-1.7-5v-6.6
			c0-1.3,0-2.2-0.2-2.9h4.1c-0.1,0.7-0.2,1.5-0.2,2.9v6.6c0,2.4,1.1,3.6,3.3,3.6c2.3,0,3.4-1.1,3.4-3.6v-6.6c0-1.4,0-2-0.2-2.9
			H226.3z"/>
	</g>
</g>
</svg>
