<?xml version="1.0" encoding="utf-8"?>
<!-- Generator: Adobe Illustrator 24.0.1, SVG Export Plug-In . SVG Version: 6.00 Build 0)  -->
<svg version="1.1" xmlns="http://www.w3.org/2000/svg" xmlns:xlink="http://www.w3.org/1999/xlink" x="0px" y="0px"
	 viewBox="0 0 522.3 208.8" style="enable-background:new 0 0 522.3 208.8;" xml:space="preserve">
<style type="text/css">
	.st0{fill:url(#SVGID_1_);}
	.st1{opacity:0.28;clip-path:url(#SVGID_3_);}
	.st2{fill:#FFFFFF;}
	.st3{fill:url(#SVGID_4_);}
	.st4{opacity:0.28;clip-path:url(#SVGID_6_);}
	.st5{fill:url(#SVGID_7_);}
	.st6{opacity:0.28;clip-path:url(#SVGID_9_);}
	.st7{fill:url(#SVGID_10_);}
	.st8{opacity:0.28;clip-path:url(#SVGID_12_);}
	.st9{fill:#040000;}
	.st10{fill:none;stroke:#040000;stroke-width:2.3936;stroke-miterlimit:10;}
	.st11{fill:#FDE2D6;}
	.st12{fill:#FFE5B0;}
	.st13{fill:#FF9DA6;}
	.st14{fill:#FF6F63;}
	.st15{fill:url(#SVGID_13_);}
	.st16{fill:url(#SVGID_14_);}
	.st17{fill:url(#SVGID_15_);}
	.st18{fill:url(#SVGID_16_);}
	.st19{fill:url(#SVGID_17_);}
	.st20{fill:url(#SVGID_18_);}
	.st21{fill:#FFEFDD;}
	.st22{fill:#000018;}
	.st23{fill:#0E0B01;}
	.st24{fill:#747474;}
	.st25{fill:#133C36;}
	.st26{enable-background:new    ;}
	.st27{fill:#FFE501;}
	.st28{fill:#E60000;}
	.st29{fill:#1E1D1D;}
	.st30{clip-path:url(#SVGID_20_);}
	.st31{fill:#450000;}
	.st32{fill:#FF4143;}
	.st33{fill:#A38A77;}
	.st34{clip-path:url(#SVGID_22_);}
	.st35{fill:none;stroke:#FFFFFF;stroke-width:2;stroke-miterlimit:10;}
	.st36{stroke:#FFFFFF;stroke-width:1.0406;stroke-miterlimit:10;}
	.st37{fill:#231815;}
	.st38{fill:#FF908D;}
	.st39{fill:#FF9FAA;}
</style>
<g id="レイヤー_2">
	
		<linearGradient id="SVGID_1_" gradientUnits="userSpaceOnUse" x1="261.15" y1="-2881.2603" x2="261.15" y2="-2672.4604" gradientTransform="matrix(1 0 0 -1 0 -2672.4604)">
		<stop  offset="0" style="stop-color:#FFEC00"/>
		<stop  offset="0.9879" style="stop-color:#FFCE52"/>
	</linearGradient>
	<rect y="0" class="st0" width="522.3" height="208.8"/>
	<g>
		<g>
			<g>
				<g>
					<defs>
						<rect id="SVGID_2_" y="0" width="522.3" height="208.8"/>
					</defs>
					<clipPath id="SVGID_3_">
						<use xlink:href="#SVGID_2_"  style="overflow:visible;"/>
					</clipPath>
					<g class="st1">
						<polygon class="st2" points="-25.3,165.6 -58.1,165.6 -5.9,43.2 27,43.2 						"/>
						<polygon class="st2" points="29.2,165.6 -3.6,165.6 48.6,43.2 81.4,43.2 						"/>
						<polygon class="st2" points="83.7,165.6 50.9,165.6 103.1,43.2 135.9,43.2 						"/>
						<polygon class="st2" points="138.2,165.6 105.3,165.6 157.6,43.2 190.4,43.2 						"/>
						<polygon class="st2" points="192.7,165.6 159.8,165.6 212.1,43.2 244.9,43.2 						"/>
						<polygon class="st2" points="247.2,165.6 214.3,165.6 266.6,43.2 299.4,43.2 						"/>
						<polygon class="st2" points="301.7,165.6 268.8,165.6 321,43.2 353.9,43.2 						"/>
						<polygon class="st2" points="356.2,165.6 323.3,165.6 375.5,43.2 408.4,43.2 						"/>
						<polygon class="st2" points="410.7,165.6 377.8,165.6 430,43.2 462.9,43.2 						"/>
						<polygon class="st2" points="465.2,165.6 432.3,165.6 484.5,43.2 517.4,43.2 						"/>
						<polygon class="st2" points="519.6,165.6 486.8,165.6 539,43.2 571.9,43.2 						"/>
					</g>
				</g>
			</g>
		</g>
	</g>
</g>
<g id="レイヤー_1">
	<g>
		<path class="st9" d="M455.5-0.7L445.8,9h10.6l16.2-16h-10.7l-6.3,6.2L455.5-0.7L455.5-0.7z M506.3-0.7L496.5,9H507l16.2-16h-10.7
			l-6.3,6.2L506.3-0.7L506.3-0.7z M487.3-7L471,9h10.7L498-7H487.3z M436.5-7L420.3,9H431l16.2-16H436.5z M151.2-0.7L141.4,9H152
			l16.2-16h-10.7l-6.3,6.2V-0.7z M132.2-7L116,9h10.7l16.2-16H132.2z M201.9-0.7L192.1,9h10.6l16.2-16h-10.7l-6.3,6.2L201.9-0.7
			L201.9-0.7z M182.9-7L166.7,9h10.7l16.2-16H182.9z M100.5-0.7L90.6,9h10.6l16.2-16h-10.7l-6.3,6.2v0.1
			C100.4-0.7,100.5-0.7,100.5-0.7z M49.7-0.7L39.9,9h10.6L66.7-7H56l-6.3,6.2V-0.7z M81.5-7L65.2,9h10.7L92.2-7H81.5z M335.1-7
			L318.9,9h10.7l16.2-16H335.1z M354.1-0.7L344.4,9H355l16.2-16h-10.7l-6.3,6.2L354.1-0.7L354.1-0.7z M404.8-0.7L395,9h10.6l16.2-16
			h-10.7l-6.3,6.2L404.8-0.7L404.8-0.7z M385.8-7L369.6,9h10.7l16.2-16H385.8z M233.6-7L217.4,9h10.7l16.2-16H233.6z M252.6-0.7
			L242.8,9h10.6l16.2-16h-10.7l-6.3,6.2L252.6-0.7L252.6-0.7z M303.4-0.7L293.6,9h10.6l16.2-16h-10.7l-6.3,6.2L303.4-0.7L303.4-0.7z
			 M284.4-7L268.2,9h10.7l16.2-16H284.4z M-1-0.8V9h0.8L16-7H5.3L-1-0.8z M30.7-7L14.5,9h10.7L41.4-7H30.7z"/>
	</g>
	<g>
		<path d="M523,1.9c0,26.1-0.1,52.1-0.1,78.2c0,2.2-0.1,4.4-0.1,6.6c0,2.1-0.2,4,2,5.7c2.7,2.1,1.9,9.3-0.6,11.6
			c-0.6,0.5-1,1.4-1,2.2c-0.2,2.3-0.1,4.5-0.1,6.8c0,2,0,3.6,1.8,5.3c2.9,2.8,1.8,9.5-1.5,11.9c-0.4,0.3-0.9,1-0.9,1.5
			c0,4.7,0.1,9.4,0.1,14.1c-0.8,0-1.6,0-2.4,0c0.1-4.5,0.2-8.9,0.2-13.4c0-0.8-0.8-1.7-1.3-2.5c-3.4-5.2-8.9-8.8-10.8-15
			c-1.2-4-0.7-5.9,2.4-8.6c1.8-1.6,3.9-2.6,4.3-5.5c0.4-2.8-1.5-5.6-4.4-5.2c-7.4,0.9-14.7,1.1-22-1c-9.3-2.7-12.7-9.4-9.6-18.6
			c0.5-1.6,1.2-3.2,1.6-4.8c0.4-1.2,0-2-1.4-2.5c-4.8-1.6-7.1-5.6-3.7-11c0.5-0.8,0.5-2.1,0.2-3c-3.3-11.1,0-18.7,10.3-23.5
			c2.6-1.2,4.8-2.4,6.6-5.1c3.3-4.9,9.7-6.3,16.2-4c1.6,0.6,2.6,0.3,4.1-0.5c2.3-1.3,5-1.9,8.2-3.1c0-4.9,0-10.7,0-16.4
			C521.7,1.9,522.4,1.9,523,1.9z M515.8,96.3c1.1-1.6,1.9-3.5,3.3-4.6c1.1-0.9,1.4-1.7,1.4-3c0-8.8,0-17.7,0.1-26.5
			c0-2.9,0-5.8,0-8.9c-4.4-0.3-5.7-3.3-5.8-6.6c-4.1,0.3-7.9,1-11.6,0.8c-4.4-0.2-6.8-3.3-7.6-8c-1.6,1.2-2.8,2.1-3.9,3.1
			c-6.6,6.4-9.5,14.4-9.2,23.5c0.1,3.5-0.3,6.7-1.5,9.9c-3.2,8.5,0.1,14.9,8.8,17.5c6.8,2,13.8,1.7,20.8,1.1
			C512.7,94.5,514.8,94,515.8,96.3z M511.8,107.3c-3.9,2.8-1.6,11.6,4.1,15.6c0.7-1.8,1.5-3.6,2.2-5.3
			C516.1,114.2,514,110.8,511.8,107.3z M524.3,97.6c-0.2-1.1-0.2-2.6-0.7-3.9c-0.7-1.9-2.6-2.2-3.8-0.8c-1.8,2.1-1.7,7.9,0.1,9.9
			c1.6,1.7,3.4,1.3,4-0.9C524.2,100.5,524.1,99.2,524.3,97.6z M524.4,123.5c-0.3-1.3-0.3-2.8-0.9-4c-0.8-1.9-2.8-2-3.9-0.6
			c-1.6,2.1-1.5,7.5,0.1,9.5c1.4,1.7,3.2,1.5,3.9-0.6C524,126.4,524.1,125,524.4,123.5z M515.2,104.4c-1.7,1.9,0.9,8,4.6,11
			C520.8,110.6,519.7,108.1,515.2,104.4z"/>
		<path class="st11" d="M515.8,96.3c-1-2.3-3.1-1.8-5.2-1.6c-7,0.6-13.9,0.9-20.8-1.1c-8.7-2.5-12.1-9-8.8-17.5
			c1.2-3.3,1.7-6.4,1.5-9.9c-0.3-9.1,2.6-17.1,9.2-23.5c1.1-1.1,2.4-1.9,3.9-3.1c0.8,4.6,3.2,7.7,7.6,8c3.7,0.2,7.5-0.5,11.6-0.8
			c0.1,3.2,1.3,6.2,5.8,6.6c0,3.1,0,6,0,8.9c0,8.8-0.1,17.7-0.1,26.5c0,1.3-0.3,2.1-1.4,3C517.7,92.8,516.9,94.7,515.8,96.3z
			 M497.9,85.9c4.3,0.2,8.3,0.5,12.2,0.6c1.8,0.1,2.5-0.7,1.8-2.6c-0.8-2.1-1.4-4.3-2-6.5c-0.4-1.3-1.1-1.7-2.5-1.5
			c-2.6,0.4-5.3,0.6-7.9,1c-0.6,0.1-1.5,1-1.5,1.6C497.8,80.8,497.9,83.1,497.9,85.9z M515.5,65.3c0-1.9-1.3-3.3-3-3.4
			c-1.9-0.1-3.7,1.5-3.7,3.4c0,1.5,1.7,3.3,3.3,3.3C513.9,68.7,515.5,67.2,515.5,65.3z M493.2,67.3c-0.5-0.4-1.3-1.7-2.3-1.9
			c-1.7-0.5-3.5,1.3-3.6,3.1c0,1.5,0.4,2.7,2.2,2.8C491.5,71.3,493.2,69.9,493.2,67.3z M496.7,71.3c1.7-0.9,3.5-1.2,4-2.2
			c0.6-1.2,0.2-3,0-4.4c-0.1-0.5-0.9-0.9-1.3-1.3c-0.3,0.5-0.7,1-0.7,1.5c-0.1,0.7,0.1,1.4,0.2,2.2c0.2,1.5-0.1,2.4-1.8,2.8
			c-0.8,0.2-1.4,1.1-2.1,1.7c0.7,0.8,1.2,1.7,2,2.3c0.7,0.5,1.6,0.4,2.5,0.6c0-0.2,0.1-0.4,0.1-0.6C498.6,73,497.7,72.2,496.7,71.3z
			 M513,56.6c-2.4-0.7-4.2,0.1-6,0.9c-1.3,0.7-2.3,0.8-3.4-0.6c-0.3-0.5-1.3-0.5-2.4-0.8c1.4,3,2.6,3.6,5.1,2.8
			C508.4,58.2,510.5,57.5,513,56.6z M491,61.7c2.1-0.8,3.7-1.1,5-1.9c0.5-0.3,0.8-1.6,0.7-2.3c-0.1-0.4-1.3-0.6-2-0.9
			C496.1,60.4,492.2,59.4,491,61.7z M488.7,83.8c-0.3,0-0.6,0-0.9,0c0,1.6-0.1,3.3,0.1,4.9c0,0.4,0.9,0.7,1.4,1
			c0.4-0.9,0.9-1.9,1.3-2.8c0-0.1-0.3-0.3-0.6-0.5c-0.3,0.6-0.6,1.2-0.8,1.7c-0.1,0-0.3-0.1-0.4-0.1
			C488.7,86.5,488.7,85.2,488.7,83.8z M484.1,81.9c-0.3,0-0.6,0-0.9,0c0.1,1.1,0.2,2.3,0.5,3.3c0.1,0.2,1.5,0.4,1.6,0.2
			c0.5-0.8,0.7-1.8,0.9-2.7c-0.2-0.1-0.5-0.1-0.7-0.2c-0.2,0.6-0.5,1.2-1,2.5C484.2,83.5,484.2,82.7,484.1,81.9z"/>
		<path class="st12" d="M511.8,107.3c2.2,3.5,4.2,6.9,6.3,10.3c-0.7,1.7-1.4,3.5-2.2,5.3C510.2,118.9,508,110.1,511.8,107.3z"/>
		<path class="st11" d="M524.3,97.6c-0.2,1.6-0.2,3-0.5,4.2c-0.6,2.2-2.4,2.6-4,0.9c-1.8-2-1.9-7.8-0.1-9.9c1.2-1.4,3.1-1.1,3.8,0.8
			C524.1,95,524.1,96.5,524.3,97.6z"/>
		<path class="st11" d="M524.4,123.5c-0.3,1.6-0.4,3-0.8,4.3c-0.7,2.1-2.5,2.3-3.9,0.6c-1.6-2-1.7-7.4-0.1-9.5
			c1.1-1.5,3.1-1.3,3.9,0.6C524.1,120.7,524.1,122.2,524.4,123.5z"/>
		<path class="st13" d="M515.2,104.4c4.5,3.7,5.5,6.2,4.6,11C516.1,112.4,513.6,106.4,515.2,104.4z"/>
		<path d="M497.9,85.9c0-2.8-0.1-5.1,0.1-7.4c0-0.6,0.9-1.4,1.5-1.6c2.6-0.5,5.3-0.6,7.9-1c1.4-0.2,2.1,0.2,2.5,1.5
			c0.6,2.2,1.2,4.4,2,6.5c0.7,1.9-0.1,2.7-1.8,2.6C506.1,86.4,502.2,86.1,497.9,85.9z M509.7,85.3c-0.9-2.8-1.5-4.9-2.2-7
			c-0.1-0.3-0.5-0.8-0.8-0.8c-2,0.2-4.1,0.2-5.9,0.9c-0.6,0.2-0.4,2.5-0.5,3.8c0,0.3-0.1,0.7,0,0.9c0.4,0.5,0.8,1.3,1.3,1.3
			C504.1,84.9,506.6,85,509.7,85.3z"/>
		<path d="M515.5,65.3c0,1.9-1.6,3.4-3.5,3.3c-1.6-0.1-3.3-1.8-3.3-3.3c0-1.9,1.8-3.4,3.7-3.4C514.2,62,515.5,63.4,515.5,65.3z"/>
		<path d="M493.2,67.3c-0.1,2.6-1.8,4-3.7,3.9c-1.8-0.1-2.3-1.3-2.2-2.8c0-1.8,1.8-3.5,3.6-3.1C491.9,65.6,492.7,66.8,493.2,67.3z"
			/>
		<path d="M496.7,71.3c1.1,1,1.9,1.8,2.8,2.6c0,0.2-0.1,0.4-0.1,0.6c-0.8-0.2-1.8-0.2-2.5-0.6c-0.8-0.6-1.3-1.5-2-2.3
			c0.7-0.6,1.3-1.5,2.1-1.7c1.7-0.4,2-1.4,1.8-2.8c-0.1-0.7-0.3-1.5-0.2-2.2c0.1-0.5,0.5-1,0.7-1.5c0.5,0.4,1.2,0.8,1.3,1.3
			c0.2,1.5,0.6,3.3,0,4.4C500.2,70.1,498.4,70.4,496.7,71.3z"/>
		<path d="M513,56.6c-2.5,0.9-4.6,1.6-6.7,2.3c-2.5,0.8-3.8,0.2-5.1-2.8c1.1,0.4,2.1,0.4,2.4,0.8c1,1.3,2,1.2,3.4,0.6
			C508.7,56.7,510.6,55.9,513,56.6z"/>
		<path d="M491,61.7c1.2-2.3,5.1-1.2,3.7-5.2c0.7,0.3,1.9,0.5,2,0.9c0.2,0.7-0.1,2-0.7,2.3C494.7,60.5,493.1,60.9,491,61.7z"/>
		<path d="M488.7,83.8c0,1.4,0,2.8,0,4.1c0.1,0,0.3,0.1,0.4,0.1c0.3-0.5,0.5-1.1,0.8-1.7c0.3,0.3,0.6,0.5,0.6,0.5
			c-0.4,0.9-0.9,1.9-1.3,2.8c-0.5-0.3-1.3-0.6-1.4-1c-0.2-1.6-0.1-3.3-0.1-4.9C488.1,83.8,488.4,83.8,488.7,83.8z"/>
		<path d="M484.1,81.9c0.1,0.8,0.2,1.6,0.3,3c0.5-1.2,0.7-1.9,1-2.5c0.2,0.1,0.5,0.1,0.7,0.2c-0.3,0.9-0.5,1.9-0.9,2.7
			c-0.1,0.2-1.5,0-1.6-0.2c-0.3-1.1-0.3-2.2-0.5-3.3C483.4,81.9,483.8,81.9,484.1,81.9z"/>
		<path class="st14" d="M509.7,85.3c-3.1-0.3-5.6-0.4-8.1-0.8c-0.5-0.1-0.9-0.8-1.3-1.3c-0.2-0.2-0.1-0.6,0-0.9
			c0.1-1.3-0.1-3.6,0.5-3.8c1.8-0.7,3.9-0.7,5.9-0.9c0.2,0,0.7,0.4,0.8,0.8C508.2,80.4,508.8,82.5,509.7,85.3z"/>
	</g>
	<g>
		<path class="st25" d="M99.3,104H53.4c-3.5,0-6.6-1.8-8.3-4.8c-1.7-3-1.7-6.6,0-9.6l23-39.8c1.7-3,4.9-4.8,8.3-4.8s6.6,1.8,8.3,4.8
			l23,39.8c1.7,3,1.7,6.6,0,9.6C106,102.3,102.8,104,99.3,104z"/>
		<g>
			<g>
				<g class="st26">
					<path d="M129.5,48.4c0.2,0.9,0.7,1.3,1.9,1.3c1.1,0,1.7-0.4,1.7-1.1c0-0.2-0.1-0.6-0.4-0.7c-0.2-0.2-0.4-0.2-1.5-0.5
						c-1.2-0.2-1.5-0.4-2.1-0.6c-0.8-0.4-1.2-1.1-1.2-1.9c0-0.5,0.2-0.9,0.5-1.3c0.6-0.7,1.5-1.2,2.8-1.2c1.2,0,2.1,0.2,2.6,0.8
						c0.4,0.4,0.6,0.7,0.7,1.4l-1.9,0.2c-0.2-0.7-0.7-1.2-1.5-1.2c-0.8,0-1.5,0.4-1.5,0.9c0,0.2,0.2,0.5,0.5,0.7
						c0.2,0.2,0.6,0.2,1.4,0.4c1.4,0.2,2,0.5,2.5,0.8c0.6,0.4,0.8,0.9,0.8,1.8c0,0.6-0.2,1.2-0.7,1.6c-0.7,0.6-1.6,0.9-2.9,0.9
						c-1.4,0-2.6-0.5-3.1-1.2c-0.2-0.4-0.4-0.7-0.6-1.2L129.5,48.4z"/>
					<path d="M141.7,50.1c-0.6,0.6-0.9,0.7-1.5,0.8c-0.4,0.1-0.8,0.2-1.3,0.2c-1.7,0-2.7-0.8-2.7-2.4c0-0.9,0.7-1.9,1.6-2.2
						c0.9-0.3,2-0.6,4-0.6v-0.7c0-0.8-0.6-1.2-1.6-1.2c-0.6,0-1.2,0.2-1.5,0.4c-0.2,0.2-0.4,0.4-0.6,0.9l-1.8-0.2
						c0.2-0.8,0.6-1.2,1.2-1.6c0.7-0.5,1.5-0.7,2.7-0.7c1.3,0,2.1,0.2,2.8,0.8c0.5,0.5,0.7,0.9,0.7,2v3.8c0,0.7,0,1.2,0.1,1.8h-1.9
						L141.7,50.1L141.7,50.1z M141.7,47c-2.7,0.1-3.8,0.6-3.8,1.6c0,0.7,0.5,1.1,1.3,1.1c0.7,0,1.5-0.2,2-0.7
						c0.4-0.4,0.5-0.7,0.5-1.2V47z"/>
					<path d="M147.3,39.7c-0.1,0.6-0.1,1.1-0.1,1.9v4.6l2.1-2.1c0.7-0.7,0.8-0.9,1.2-1.2h2.6c-0.8,0.7-0.8,0.7-1.4,1.3l-2,1.9
						l2.4,3.3c0.9,1.3,0.9,1.3,1.3,1.6h-2.6c-0.2-0.5-0.4-0.7-0.9-1.6l-1.5-2.2l-1.2,1.2v0.9c0,0.9,0,1.2,0.1,1.8h-2.1
						c0.1-0.6,0.1-1.1,0.1-1.8v-7.5c0-0.8,0-1.3-0.1-1.9L147.3,39.7L147.3,39.7z"/>
					<path d="M162.1,42.8c-0.1,0.6-0.1,1.1-0.1,1.8V49c0,0.7,0,1.2,0.1,1.8h-1.9v-0.7c0-0.2,0-0.2,0-0.6c-0.7,1.2-1.5,1.5-2.9,1.5
						c-0.7,0-1.2-0.1-1.7-0.4c-0.7-0.5-1.2-1.3-1.2-2.5v-3.5c0-0.7,0-1.3-0.1-1.8h2.1c-0.1,0.7-0.1,1.2-0.1,1.8v3.1
						c0,0.8,0.2,1.3,0.7,1.6c0.2,0.1,0.5,0.2,0.7,0.2c1.1,0,1.8-0.7,2.5-2.1v-2.8c0-0.7,0-1.2-0.1-1.8
						C160.2,42.8,162.1,42.8,162.1,42.8z"/>
					<path d="M165.8,47.5c0.1,0.7,0.1,0.9,0.4,1.2c0.4,0.6,1.2,0.8,2.1,0.8c1.4,0,2.2-0.7,2.2-1.7c0-0.6-0.2-1.1-0.7-1.3
						c-0.4-0.2-0.5-0.2-2.5-0.7c-1.1-0.2-1.6-0.5-2.1-0.8c-0.7-0.6-1.2-1.3-1.2-2.2c0-2,1.6-3.2,4-3.2c1.6,0,2.8,0.5,3.5,1.4
						c0.4,0.5,0.6,0.8,0.7,1.6l-2,0.2c-0.1-0.5-0.2-0.7-0.4-1.1c-0.4-0.5-0.9-0.7-1.8-0.7c-1.2,0-2.1,0.7-2.1,1.5
						c0,0.6,0.2,1.1,0.9,1.3c0.2,0.1,0.4,0.2,2,0.5c1.2,0.2,1.8,0.5,2.2,0.8c0.8,0.6,1.2,1.4,1.2,2.5s-0.2,1.8-0.8,2.4
						c-0.7,0.7-1.9,1.1-3.4,1.1c-1.2,0-2.2-0.2-2.9-0.7c-0.6-0.4-0.9-0.9-1.2-1.6c-0.1-0.2-0.2-0.6-0.2-1.2L165.8,47.5z"/>
					<path d="M182,50.9c-0.1-0.5-0.2-1.1-0.4-1.5L181,48h-4.5l-0.6,1.5c-0.2,0.7-0.2,0.8-0.4,1.5h-2.4c0.2-0.4,0.5-1.1,0.7-1.7
						l3.1-8.1c0.2-0.7,0.4-1.1,0.5-1.4h2.5c0.1,0.4,0.2,0.6,0.5,1.4l3.1,8.1c0.4,0.9,0.6,1.3,0.7,1.7H182z M179.2,42.2
						c-0.1-0.2-0.1-0.2-0.2-0.7c-0.2,0.7-0.2,0.7-0.2,0.7l-1.5,4.1h3.5L179.2,42.2z"/>
					<path d="M193.9,49.1c0.8,1.2,1.1,1.3,1.4,1.8h-2.6c-0.2-0.4-0.6-1.1-0.8-1.5l-2.8-4l-1.5,1.5V49c0,0.8,0,1.2,0.1,1.8h-2.1
						c0.1-0.7,0.1-1.1,0.1-1.8v-7.6c0-0.7,0-1.2-0.1-1.8h2.1c-0.1,0.5-0.1,1.1-0.1,1.8v3.3l3.5-3.8c0.6-0.6,0.8-0.9,1.2-1.4h2.6
						c-0.4,0.4-0.8,0.8-1.5,1.5l-3.1,3.1L193.9,49.1z"/>
					<path d="M206.2,39.7c-0.1,0.6-0.1,1.1-0.1,1.9v5c0,2.9-1.7,4.5-4.8,4.5c-1.6,0-2.8-0.5-3.7-1.3c-0.7-0.7-1.1-1.8-1.1-3.2v-5
						c0-0.8,0-1.4-0.1-2h2.1c-0.1,0.5-0.1,1.1-0.1,2v5c0,1.9,0.9,2.9,2.9,2.9c1.9,0,2.8-1.1,2.8-2.9v-5c0-0.9,0-1.4-0.1-2
						L206.2,39.7L206.2,39.7z"/>
				</g>
				<g class="st26">
					<path d="M140.4,75.9c-0.1,5.5-0.4,10.5-0.8,14c-0.6,4.6-1.5,7.3-3.5,10.6c-0.8-1.2-1.9-2.4-3.1-3.4c0,1.6,0.1,2.2,0.2,3.7h-4.9
						c0.2-1.8,0.2-2.9,0.2-5.1v-12c0-1.6,0-3.1,0.1-5.6c-0.8,1.8-1.7,3.1-2.9,4.6c-0.8-2.8-0.8-2.8-1.9-5.2c2.4-2.6,4.2-5.8,5.9-9.6
						c1.2-2.7,1.9-5.1,2.1-7.1l4.6,1.2c-0.2,0.7-0.5,1.3-0.7,2.2c-0.8,2.8-1.4,4.3-2.7,6.9v24.9c1.2-1.9,1.6-3.2,2.1-5.8
						c0.7-3.3,0.9-7.5,0.9-14.3c0-1.6,0-2.9-0.2-4.3c1.4,0.2,2.4,0.2,4.5,0.2h19.2c2.4,0,3.4,0,4.7-0.2V76c-1.2-0.1-2.6-0.2-4.1-0.2
						L140.4,75.9C140.4,75.9,140.4,75.9,140.4,75.9z M142.3,63.8c0-1.3,0-1.9-0.2-2.6h4.7c-0.1,0.7-0.2,1.4-0.2,2.6v0.9h5.9v-0.9
						c0-1.3,0-1.9-0.2-2.6h4.7c-0.1,0.7-0.2,1.4-0.2,2.6v0.9h2.7c1.8,0,3.5-0.1,4.3-0.2v4.4c-1.2-0.1-2.2-0.2-4.3-0.2h-2.7v0.5
						c0,1.1,0,1.5,0.1,2.1h-4.7c0.1-0.7,0.1-1.3,0.1-2.1v-0.4h-5.9v0.4c0,1.1,0,1.5,0.1,2.1h-4.7c0.1-0.7,0.1-1.3,0.1-2.1v-0.5h-1.8
						c-2.2,0-3.1,0-4.2,0.2v-4.2c1.2,0.1,2.6,0.2,4.2,0.2h1.8v-0.9C141.9,63.8,142.3,63.8,142.3,63.8z M145.4,93.5v2.6
						c0,2.8,0,3.7,0.2,4.6H141c0.2-1.2,0.2-2.4,0.2-4.6V82.5c0-2.4,0-3.2-0.2-4.7c1.3,0.1,2.1,0.1,4.5,0.1h13c2.1,0,2.9,0,4.1-0.2
						c-0.1,0.9-0.2,2.2-0.2,4.6v14.6c0,2.8-0.9,3.5-4.9,3.5c-0.4,0-0.4,0-1.9,0c-0.2-1.7-0.4-2.4-0.8-3.8c0.9,0.1,1.9,0.2,2.6,0.2
						c0.7,0,0.9-0.2,0.9-0.9v-2.5h-4.7v2c0,2.5,0,3.7,0.2,4.7h-4.3c0.2-1.3,0.2-2.5,0.2-4.7v-2h-4.5L145.4,93.5L145.4,93.5z
						 M150,81.7h-4.6v2.4h4.6V81.7z M150,87.5h-4.6v2.4h4.6V87.5z M158.6,84v-2.4h-4.7V84H158.6z M158.6,89.9v-2.4h-4.7v2.4H158.6z"
						/>
					<path d="M178.2,63.5c0-0.8,0-1.5-0.2-2.4h4.8c-0.1,0.8-0.2,1.5-0.2,2.4v0.4h9.5v-0.4c0-0.8,0-1.5-0.2-2.4h4.8
						c-0.1,0.8-0.2,1.4-0.2,2.4v0.4h5.2c2.1,0,3.7-0.1,5-0.2v4.2c-1.3-0.2-2.6-0.2-5-0.2h-5.2c0,0.7,0,1.2,0.2,1.8H192
						c0-0.6,0.1-1.2,0.1-1.8h-9.5c0,0.7,0,1.2,0.1,1.8H178c0.1-0.7,0.1-1.2,0.1-1.8h-4.8c-2.4,0-3.7,0-5,0.2v-4.2
						c1.4,0.2,2.8,0.2,5,0.2h4.8L178.2,63.5L178.2,63.5z M196.7,76.4c-1.9,1.6-5.1,4-6.4,5c3.5-0.1,6.1-0.2,7.8-0.4
						c-0.9-0.7-1.3-1.1-2.6-2l3.3-2.4c3.5,2.6,5.6,4.5,8.6,7.4l-3.3,2.9c-1.2-1.5-1.7-2-2.6-2.9c-9.6,0.7-14.4,0.8-29.9,1.4
						c-1.1,0-1.8,0.1-2.6,0.2l-0.7-4.3c1.4,0.2,4,0.2,10.4,0.2c0.2,0,0.2,0,2.2,0c-1.6-0.7-5.6-2.6-7.8-3.4l2.8-2.9
						c2.1,0.9,2.6,1.2,4,1.8c1.1-0.7,1.6-1.2,2.8-2.4H174c-2.2,0-3.7,0-5,0.2v-4.2c1.2,0.2,2.7,0.2,5,0.2h11.1c0-1.1,0-1.6-0.1-2.4
						h4.6c-0.1,0.8-0.1,1.2-0.1,2.4h11.8c2.1,0,3.9-0.1,5-0.2v4.2c-1.1-0.1-2.7-0.2-5-0.2h-7.8L196.7,76.4z M172.4,90.2
						c0-1.6,0-2.8-0.1-4c1.2,0.1,2.1,0.1,4.2,0.1h22.3c2.2,0,3.1,0,4.2-0.2c-0.1,1.2-0.1,2-0.1,4.2v6.4c0,1.5,0.1,2.8,0.2,4.2h-4.7
						v-1.6h-21.6v1.6h-4.7c0.1-1.5,0.2-2.8,0.2-4.2v-6.5H172.4z M176.8,91.1h8.6v-1.8h-8.6V91.1z M176.8,95.9h8.6V94h-8.6V95.9z
						 M187.9,74.5c-1.4,1.4-3.1,2.8-4.5,4c1.2,0.7,1.5,0.8,2.6,1.4c2.6-1.8,5.1-3.8,6.5-5.3L187.9,74.5L187.9,74.5z M189.5,91.1h8.9
						v-1.8h-8.9V91.1z M189.5,95.9h8.9V94h-8.9V95.9z"/>
					<path d="M244,66.9c-0.5,0.1-0.5,0.1-3.5,1.2c-2.5,0.7-3.8,1.2-7.2,1.8c0,5.8,0,5.8-0.1,7.3h9.1c2.9,0,3.7,0,5.2-0.2v5.2
						c-1.6-0.2-2.4-0.2-5.2-0.2h-9.5c-0.5,4-1.4,6.9-2.8,9.3c-1.5,2.5-4,4.9-6.9,6.8c-1.2,0.7-2,1.2-4,2.1c-1.2-2.1-1.9-3.1-3.8-4.5
						c3.1-1.2,4.7-2,6.6-3.5c2.6-2.1,4.2-4.5,4.9-7.3c0.2-0.7,0.2-1.4,0.5-2.8h-10.6c-2.7,0-3.5,0-5.2,0.2V77
						c1.6,0.2,2.4,0.2,5.2,0.2h10.9c0.1-1.8,0.1-3.5,0.1-6.5c-3.5,0.5-4.8,0.7-11.9,0.9c-0.5-1.9-0.7-2.6-1.6-4.6
						c1.3,0.1,2,0.1,2.6,0.1c5.8,0,13.1-0.9,18.4-2.5c2.5-0.7,3.8-1.2,5.2-2L244,66.9z"/>
					<path d="M270.8,93.5h8.8c2,0,2.8,0,4-0.2v4.8c-1.2-0.1-2.1-0.2-4-0.2h-22c-1.9,0-2.8,0-4,0.2v-4.8c1.2,0.2,2,0.2,4,0.2h8.4
						V79.7h-5.8c-1.6,0-2.5,0-4,0.2v-4.9c1.2,0.2,2.1,0.2,3.9,0.2h16.8c1.8,0,2.7-0.1,4-0.2v4.8c-1.2-0.1-1.8-0.2-3.9-0.2h-6.1
						L270.8,93.5L270.8,93.5z"/>
					<path d="M295.5,72.6c1.8,3.3,2.6,5.4,4.2,10.2l-4.8,1.5c-1.2-4.3-2-6.6-3.9-10.4L295.5,72.6z M320.1,73.1
						c-0.2,0.7-0.4,0.8-0.6,2.1c-1.2,5.9-3.2,10.6-5.9,14.2c-3.2,4.3-6.7,7.1-13.1,10.4c-1.2-1.9-1.6-2.6-3.4-4.2
						c3.1-1.2,4.7-2.1,7.3-4c5-3.7,7.9-8,9.7-14.9c0.6-2.1,0.7-3.5,0.7-4.9L320.1,73.1z M304.6,71c2.2,4.2,3.1,6.1,4.1,9.9l-4.7,1.5
						c-0.8-3.3-2.1-6.6-3.9-10.1L304.6,71z"/>
					<path d="M359.1,69.9c-0.5,0.7-0.6,1.1-1.1,2.6c-2,6.5-5,12.3-8.8,16.6c-4,4.5-8.7,7.8-15.3,10.9c-1.2-2.1-1.8-2.8-3.7-4.5
						c4.2-1.8,6.7-3.1,9.4-5.1c6.1-4.5,10.2-10.5,12.5-18.1l-12.9,0.2c-2.6,4.1-5.9,7.8-10,10.9c-1.3-1.8-1.9-2.4-4.1-3.7
						c4.9-3.3,8-6.8,11.1-12.5c1.3-2.5,2-4.1,2.1-5.6l5.9,1.2c-0.2,0.4-0.2,0.4-0.7,1.3c-0.1,0.2-0.1,0.2-0.6,1.2
						c-0.1,0.2-0.1,0.2-0.6,1.2c-0.2,0.6-0.2,0.6-0.7,1.4c0.6,0,1.2-0.1,2.1-0.1l9.4-0.1c1.7,0,2.1-0.1,3.1-0.5L359.1,69.9z"/>
				</g>
			</g>
			<g>
				<path class="st27" d="M69.8,49.9l-23,39.8c-2.9,5.1,0.7,11.4,6.6,11.4h45.9c5.8,0,9.5-6.3,6.6-11.4L83,49.9
					C80,44.7,72.7,44.7,69.8,49.9z"/>
				<path class="st28" d="M99.2,102.9H53.3c-3.5,0-6.6-1.8-8.3-4.8c-1.7-3-1.7-6.6,0-9.6l23-39.8c1.7-3,4.9-4.8,8.3-4.8
					s6.6,1.8,8.3,4.8l23,39.8c1.7,3,1.7,6.6,0,9.6C105.9,101.1,102.7,102.9,99.2,102.9z M71.6,50.8l-23,39.8c-1,1.7-1,3.8,0,5.4
					c1,1.7,2.8,2.8,4.8,2.8h45.9c2,0,3.8-1,4.8-2.8c1-1.7,1-3.8,0-5.4l-23-39.8c-1-1.7-2.8-2.8-4.8-2.8C74.3,48,72.6,49.1,71.6,50.8
					L71.6,50.8z"/>
			</g>
			<g class="st26">
				<path class="st28" d="M77.4,80.9V82c0,1.7,0,2,0.1,2.5h-3.2c0.1-0.7,0.1-1.3,0.1-2.5v-6.8c-0.3,3.1-0.3,3.1-0.6,4.5
					c-0.3,2.1-0.7,3.2-1.5,4.8c-0.7-1-1.1-1.6-1.8-2.4c0,1,0,1.5,0.2,2.5h-3.5c0.1-1.2,0.2-1.5,0.2-2.6v-5.6c0-0.5,0-1,0.1-2.5
					c-0.3,0.6-0.7,1.1-1.1,1.5c-0.3-1.8-0.6-2.5-1.2-4.1c1.1-1.2,1.9-2.6,2.6-4.4c0.6-1.4,0.9-2.6,1.1-3.7l3.4,0.8
					c-0.1,0.3-0.1,0.4-0.2,0.7c0.7,0.1,1.3,0.1,2.1,0.1h0.3v-0.3c0-0.6,0-0.8-0.1-1.2h3.5c-0.1,0.3-0.1,0.7-0.1,1.1v0.3H80v-0.3
					c0-0.6,0-0.8-0.1-1.2h3.4c-0.1,0.3-0.1,0.7-0.1,1.1v0.3h0.7c1.1,0,2-0.1,2.4-0.2v3.1c-0.8-0.1-1.1-0.1-2.4-0.1h-0.7v1.2H84
					c1.3,0,1.8,0,2.6-0.1v3.1c-0.7-0.1-1.2-0.1-2.1-0.1h-9.8v0.7c0.6,0.1,1.2,0.1,2.2,0.1h7.2c1,0,1.5,0,2.1-0.1
					c-0.1,0.5-0.1,1.1-0.1,2.3v7.6c0,1.8-0.5,2.1-3.7,2.1c-0.2-1.1-0.2-1.6-0.6-2.5c0.3,0,0.6,0.1,0.8,0.1c0.3,0,0.4-0.1,0.4-0.4V81
					h-1.4v0.8c0,1.4,0,2,0.1,2.6h-3c0.1-0.7,0.1-1.3,0.1-2.6V81L77.4,80.9L77.4,80.9z M70.7,80.2c0.3-0.8,0.4-1.4,0.6-2.2
					c0.2-1.3,0.3-3.9,0.3-6.5c0-1.3,0-1.9-0.1-2.8c0.9,0.1,1.2,0.1,2.5,0.1h0.7v-1.1h-0.3c-1.3,0-1.7,0-2.4,0.1v-2.4
					c-0.4,1.4-0.7,2-1.3,3.3C70.7,68.7,70.7,80.2,70.7,80.2z M78.8,74.8h-1.4v0.9h1.4V74.8z M78.8,77.8h-1.4v1h1.4V77.8z M80.2,68.8
					v-1.1h-2.2v1.1H80.2z M83.1,75.7v-0.9h-1.4v0.9H83.1z M83.1,78.7v-0.9h-1.4v0.9H83.1z"/>
			</g>
			<g class="st26">
				<path class="st28" d="M75,57.2c0,0.3,0.1,0.5,0.2,0.7c0.2,0.3,0.7,0.5,1.2,0.5c0.7,0,1.2-0.3,1.2-0.9c0-0.3-0.2-0.6-0.4-0.7
					c-0.2-0.1-0.5-0.2-1.5-0.4c-0.9-0.2-1.2-0.3-1.6-0.6c-0.7-0.4-1-1.1-1-1.9c0-1.6,1.2-2.5,3.2-2.5c1.2,0,2.2,0.4,2.8,1.2
					c0.2,0.3,0.3,0.7,0.5,1.2L77.4,54c-0.1-0.7-0.5-0.9-1.2-0.9c-0.6,0-1.1,0.3-1.1,0.8c0,0.2,0.2,0.5,0.5,0.7
					c0.2,0.1,0.2,0.1,1.4,0.3c0.7,0.2,1.2,0.3,1.7,0.6c0.7,0.4,1.1,1.2,1.1,2.1c0,0.7-0.2,1.4-0.7,1.8c-0.6,0.6-1.5,0.8-2.6,0.8
					c-0.8,0-1.7-0.2-2.2-0.5c-0.5-0.2-0.8-0.7-1.1-1.2c-0.1-0.2-0.2-0.5-0.2-0.9L75,57.2z"/>
			</g>
			<polygon points="59,95.2 76.3,111.5 110.9,59.2 73.1,99.1 62.8,90.6 			"/>
			<g>
				<path class="st29" d="M172.7,131c0,0.3,0.2,0.4,1.5,0.4c1.2,0,1.6-0.1,1.7-0.6c0.2-0.5,0.2-1.3,0.2-2.7c1,0.4,1.4,0.6,2.3,0.8
					c-0.2,2.9-0.5,3.9-1.3,4.4c-0.5,0.3-1.6,0.4-3.4,0.4c-2.7,0-3.4-0.3-3.5-1.6c-0.9,0.6-1.3,0.9-2.4,1.5c-0.5-0.9-0.9-1.4-1.7-2.1
					c1.6-0.7,2.8-1.4,4-2.3v-5c0-0.7,0-1.1-0.1-1.7h2.6c-0.1,0.6-0.1,1.1-0.1,1.7v3.1c1.4-1.4,2.6-3.2,3.5-5c0.5-1,0.7-1.7,0.9-2.3
					l2.6,1c-0.2,0.5-0.2,0.5-0.7,1.4c-0.6,1.2-0.9,1.7-1.5,2.7l1.8-0.8c0.9,2,1.6,3.6,2.3,6.3l-2.3,1.2c-0.6-2.6-1.2-4.4-2.1-6.3
					c-1.4,2.1-2.6,3.5-4.5,5.2V131z M169.7,124c-0.2,2.8-0.6,4.3-1.2,6l-2.2-1.1c0.7-1.7,1-3.1,1.2-5.5L169.7,124z M171.2,118.7
					c2,0.7,3.1,1.2,4.5,2.1l-1.4,2.1c-1.1-0.8-2.5-1.5-4.6-2.3L171.2,118.7z"/>
				<path class="st29" d="M184.3,128.1c-0.7,0-1.3,0-1.7,0.1v-2.1c0.6,0.1,1.2,0.1,1.7,0.1h11.2c0.7,0,1.2,0,1.7-0.1v2.1
					c-0.5,0-1.1-0.1-1.7-0.1H191c-0.1,0.2-0.2,0.2-0.2,0.5h4.2c0.7,0,1.2,0,1.5-0.1c-0.1,0.3-0.1,0.7-0.1,1.2v2.2
					c0,1.4-0.4,1.8-1.8,1.8c-0.2,0-0.2,0-1.2-0.1c-0.1-1.1-0.2-1.5-0.4-2.1c0.3,0.1,0.7,0.1,0.8,0.1c0.2,0,0.3-0.1,0.3-0.2v-1.1
					h-1.4v1.8c0,0.7,0,1.1,0.1,1.5h-2.3c0.1-0.4,0.1-0.8,0.1-1.5v-1.8h-1.2v1.8c0,0.7,0,1.1,0.1,1.5h-2.3c0.1-0.4,0.1-0.8,0.1-1.5
					v-1.8H186v2c0,0.7,0,1.1,0.1,1.5h-2.5c0.1-0.6,0.1-1.1,0.1-1.7v-2.3c0-0.4,0-0.9-0.1-1.3c0.4,0,0.7,0.1,1.7,0.1h3
					c0.2-0.2,0.2-0.2,0.2-0.5L184.3,128.1L184.3,128.1L184.3,128.1z M185.3,120.9c-0.7,0-1.3,0-1.7,0.1V119c0.5,0.1,1.2,0.1,2,0.1
					h8.6c0.8,0,1.6,0,2-0.1v1.9c-0.5,0-1.1-0.1-1.7-0.1H191v0.4h3.9c1.2,0,1.7,0,2.2-0.1c-0.1,0.4-0.1,0.7-0.1,1.4v1.2
					c0,0.7,0,0.9,0.1,1.4h-2.3v-2.2H191v1.3c0,0.7,0,1.1,0.1,1.5h-2.6c0.1-0.5,0.1-0.8,0.1-1.5v-1.3h-3.6v2.2h-2.3
					c0.1-0.4,0.1-0.7,0.1-1.4v-1.2c0-0.7,0-1-0.1-1.4c0.5,0,0.9,0.1,2.2,0.1h3.7v-0.4H185.3z M185.3,123.3c0.2,0,0.3,0,0.7,0h1.3
					c0.4,0,0.5,0,0.7,0v1.1c-0.2,0-0.3,0-0.7,0h-1.3c-0.3,0-0.5,0-0.7,0V123.3z M185.3,124.7c0.2,0,0.2,0,0.7,0h1.3
					c0.4,0,0.6,0,0.7,0v1.1c-0.2,0-0.3,0-0.7,0h-1.3c-0.3,0-0.5,0-0.7,0V124.7z M191.5,123.3c0.2,0,0.2,0,0.7,0h1.6
					c0.4,0,0.5,0,0.7,0v1.1c-0.2,0-0.3,0-0.7,0h-1.6c-0.3,0-0.4,0-0.7,0V123.3z M191.5,124.7c0.2,0,0.2,0,0.7,0h1.6
					c0.4,0,0.5,0,0.7,0v1.1c-0.2,0-0.3,0-0.7,0h-1.6c-0.3,0-0.4,0-0.7,0V124.7z"/>
				<path class="st29" d="M198.6,133.8c0.1-0.5,0.1-0.9,0.1-1.8v-4.4c0-0.6,0-1-0.1-1.5c0.5,0.1,0.9,0.1,1.7,0.1h4
					c0.4,0,0.7,0,1.1-0.1c0,0.3,0,0.5,0,1.2v4.8c0,0.6,0,1,0.1,1.3H203v-0.4h-1.8v0.7L198.6,133.8L198.6,133.8z M200.7,120.7
					c0-0.6,0-1-0.1-1.5c0.4,0.1,1,0.1,1.8,0.1h6.8c0.9,0,1.4,0,1.8-0.1c-0.1,0.4-0.1,0.8-0.1,1.5v3.2c0,0.7,0,1.2,0.1,1.6
					c-0.4,0-0.7-0.1-1.7-0.1h-7.1c-0.8,0-1.2,0-1.7,0.1c0-0.4,0.1-0.9,0.1-1.6L200.7,120.7L200.7,120.7z M203,128.4h-1.9v2.5h1.9
					V128.4z M203.1,121.6v1.7h5.5v-1.7H203.1z M211.5,126.2c0.7,0,1.2,0,1.5-0.1c-0.1,0.5-0.1,0.8-0.1,1.5v4.4c0,0.9,0,1.3,0.1,1.8
					h-2.5v-0.7h-2v0.7h-2.4c0-0.4,0.1-0.7,0.1-1.3v-5c0-0.7,0-0.9,0-1.2c0.3,0,0.7,0.1,1.1,0.1L211.5,126.2L211.5,126.2z
					 M208.5,130.9h2.1v-2.5h-2.1V130.9z"/>
				<path class="st29" d="M227.9,119.6l-5.7,15.5h-2.9l5.8-15.5H227.9z"/>
				<path class="st29" d="M241.9,121.7c-1.2-0.6-2.3-1-3.7-1.5l1.7-1.7c1.7,0.5,2.9,1,4.5,1.7l-1.2,1.4h2.8c1,0,1.6,0,2.2-0.1v2.5
					c-0.7-0.1-1.2-0.1-2.2-0.1h-3.3v2.2h2.8c0.7,0,1.2,0,1.9-0.1v2.4c-0.6-0.1-1-0.1-1.8-0.1h-2.9v2.6h3.6c1,0,1.7,0,2.5-0.1v2.5
					c-0.8-0.1-1.4-0.1-2.4-0.1h-9.6c-1.2,0-1.8,0-2.6,0.1v-2.5c0.7,0.1,1.4,0.1,2.5,0.1h3.5v-2.6h-2.5c-0.9,0-1.4,0-2.1,0.1v-2.4
					c0.6,0.1,0.9,0.1,1.8,0.1h2.7V124H237c-1.3,0-1.7,0-2.2,0.1v-2.5c0.7,0.1,1.2,0.1,2.1,0.1H241.9z"/>
				<path class="st29" d="M264.2,129.4c-1.1,0.8-1.7,1.3-2.4,1.8c0.9,0.2,1.8,0.4,3.3,0.4c-0.5,0.9-0.7,1.4-1.1,2.4
					c-2.7-0.4-4.4-1-5.9-2.2v1.1c-2.1,0.4-3.6,0.7-6.4,1.1c-0.3,0.1-0.6,0.1-0.8,0.2l-0.3-2.6c0.2,0,0.2,0,0.4,0
					c0.1,0,0.9-0.1,1.5-0.1v-6.9c0-0.2,0-0.2,0-0.2c-0.6,0.3-0.9,0.4-1.7,0.7c-0.2-1-0.4-1.5-1-2.5c1.2-0.3,2.5-0.8,3.6-1.6
					c1.2-0.7,2-1.3,2.7-2.2h2.6c0.8,0.9,1.7,1.7,2.9,2.3c1.2,0.7,2.4,1.2,3.6,1.4c-0.5,0.9-0.7,1.5-1,2.5c-0.7-0.2-1.2-0.5-1.7-0.7
					v4c0,0.2,0,0.2,0,0.2L264.2,129.4z M254.7,125.2h5.4v-0.6h-5.4V125.2z M254.7,127.4h5.4v-0.6h-5.4V127.4z M254.7,129.2v2
					c0.1,0,0.1,0,0.2,0c0.7-0.1,1.7-0.2,2.1-0.2c-0.6-0.6-0.7-0.7-1.3-1.7L254.7,129.2L254.7,129.2z M256.2,122.3c0-0.2,0-0.3,0-0.5
					c-0.5,0.4-0.9,0.7-1.4,1h1.4V122.3z M258.3,121.7c-0.3-0.3-0.6-0.5-1-0.9c-0.4,0.4-0.6,0.6-0.9,0.9H258.3z M260,122.9
					c-0.7-0.5-1-0.7-1.4-1.1c0,0.2,0,0.3,0,0.6v0.5H260z M258.5,129.2c0.2,0.3,0.6,0.7,1,0.9c0.5-0.2,1-0.6,1.3-0.9H258.5z"/>
				<path class="st29" d="M279.6,119.6l-5.7,15.5H271l5.8-15.5H279.6z"/>
				<path class="st29" d="M293.6,121.7c-1.2-0.6-2.3-1-3.7-1.5l1.7-1.7c1.7,0.5,2.9,1,4.5,1.7l-1.2,1.4h2.8c1,0,1.6,0,2.2-0.1v2.5
					c-0.7-0.1-1.2-0.1-2.2-0.1h-3.3v2.2h2.8c0.7,0,1.2,0,1.9-0.1v2.4c-0.6-0.1-1-0.1-1.8-0.1h-2.9v2.6h3.6c1,0,1.7,0,2.5-0.1v2.5
					c-0.8-0.1-1.4-0.1-2.4-0.1h-9.6c-1.2,0-1.8,0-2.6,0.1v-2.5c0.7,0.1,1.4,0.1,2.5,0.1h3.5v-2.6h-2.5c-0.9,0-1.4,0-2.1,0.1v-2.4
					c0.6,0.1,0.9,0.1,1.8,0.1h2.7V124h-3.1c-1.3,0-1.7,0-2.2,0.1v-2.5c0.7,0.1,1.2,0.1,2.1,0.1H293.6z"/>
				<path class="st29" d="M303.8,129.4c-0.8,0-1.4,0-2,0.1v-2.3c0.5,0.1,1.1,0.1,2,0.1h0.3c-0.4-0.7-0.8-1.3-1.2-1.8l1.6-0.6
					c-0.2,0-0.3,0-0.5,0c-0.2,0-0.4,0-0.7,0c-0.2-0.7-0.5-1.2-1-2.1c1.8,0.1,2.6,0.1,3.7,0.1c1.7,0,3.5-0.1,5-0.2
					c1.4-0.1,2.1-0.2,3.4-0.5l1.6,1.9c-1,0.2-1.4,0.2-2.2,0.3l1.5,0.6c-0.8,1.2-1.2,1.7-1.7,2.2h0.8c0.9,0,1.5,0,2-0.1v2.3
					c-0.5-0.1-1.2-0.1-2-0.1h-2.5c1.2,1,2.7,1.6,4.7,2c-0.6,0.7-0.8,1.3-1.3,2.3c-1.2-0.3-2.1-0.7-3.1-1.4c-0.8-0.6-1.3-1-2.1-1.7
					c0,0.2,0,0.2,0,0.4c0,0.2,0,0.4,0,0.6v0.7c0,0.7,0,1.1,0.2,1.7h-2.7c0.1-0.6,0.2-1,0.2-1.7v-0.7c0-0.2,0-0.5,0-1
					c-1.2,1.4-2.6,2.4-4.9,3.1c-0.6-1.1-0.7-1.4-1.4-2.1c2-0.4,3.4-1.1,4.5-2.1L303.8,129.4L303.8,129.4L303.8,129.4z M305.1,119.5
					c0-0.2,0-0.5-0.1-0.7h2.5c0,0.3-0.1,0.5-0.1,0.7v0.2h3v-0.2c0-0.2,0-0.3-0.1-0.7h2.5c0,0.2-0.1,0.5-0.1,0.7v0.2h1.7
					c0.8,0,1.3,0,1.9-0.1v2.3c-0.5-0.1-1.1-0.1-1.9-0.1h-1.6c0,0.2,0,0.4,0.1,0.7h-2.5c0-0.2,0-0.4,0.1-0.7h-3c0,0.2,0,0.3,0.1,0.7
					h-2.5c0-0.2,0.1-0.4,0.1-0.7h-1.5c-0.8,0-1.4,0-1.9,0.1v-2.3c0.6,0.1,1.1,0.1,1.9,0.1h1.5v-0.2H305.1z M307.8,127.3
					c0-0.3,0-0.5-0.1-0.7h0.6c-0.3-0.7-0.4-0.7-0.8-1.3l1.2-0.4c-0.9,0.1-1.7,0.1-3.4,0.1c0.3,0.4,0.7,0.9,1.2,1.6l-1.9,0.8H307.8z
					 M313,127.3l-1.7-0.7c0.6-0.7,1-1.2,1.4-2c-0.6,0.1-1.6,0.1-3.1,0.2c0.4,0.5,0.6,0.7,0.8,1.2l-1.8,0.6h1.7
					c-0.1,0.3-0.1,0.5-0.1,0.7L313,127.3L313,127.3L313,127.3z"/>
			</g>
		</g>
	</g>
	<rect x="-6" y="145.1" width="534.1" height="41.3"/>
	<g>
		<path class="st2" d="M114.3,162c-0.2,0.3-0.3,0.7-0.5,1.1c0.9,0.3,1.6,0.6,2.2,1.2c1.2,1.1,1.8,2.5,1.8,4.1c0,2.7-1.5,4.8-4.1,6
			c-1.2,0.5-2.4,0.8-4.4,1c-0.4-1.2-0.7-2.1-1.2-2.9c-1.5,1.4-3.4,2.3-5.1,2.3c-2.6,0-4.2-1.7-4.2-4.5c0-1.9,0.8-3.7,2.2-5.1
			c0.9-0.9,1.7-1.4,3.1-2c0-0.7,0-1,0-1.9c-0.9,0-0.9,0-2.6,0c-0.3,0-0.7,0-1.1,0c-0.3,0-0.4,0-0.7,0l0-3.5c1.3,0.2,2.4,0.3,4.1,0.3
			h0.1l0.3,0c0-0.3,0-0.3,0.1-0.9c0-0.2,0-0.5,0-0.7c0-0.4,0-0.6,0-0.9l3.8,0.2c-0.2,0.7-0.2,1-0.4,2.3c3.6-0.2,6.5-0.6,8.3-1.1
			l0.2,3.6c-0.4,0-0.4,0-0.9,0.1c-2.1,0.3-5.5,0.6-7.7,0.7c0,0.2,0,0.2,0,0.6c0,0.1,0,0.2,0,0.7c1-0.2,1.4-0.2,2.1-0.2
			c0.4,0,0.6,0,1,0c0.2-0.5,0.2-0.8,0.3-1.3L114.3,162z M102.1,170c0,0.8,0.3,1.3,0.9,1.3c0.4,0,0.8-0.1,1.2-0.4
			c-0.2-1.1-0.3-2.4-0.3-4C102.8,167.7,102.1,168.8,102.1,170z M107.4,168.5c0.8-1,1.7-2.4,2.1-3.4c-0.2,0-0.3,0-0.5,0
			c-0.6,0-1.1,0.1-1.7,0.2C107.3,166.8,107.3,167.4,107.4,168.5z M112,171.1c1.3-0.6,2.1-1.7,2.1-2.9c0-1-0.4-1.6-1.4-2.1
			c-1,2.4-2.2,4.1-3.9,5.7C110.3,171.7,111.2,171.5,112,171.1z"/>
		<path class="st2" d="M128.9,155.7c-0.1,0.4-0.2,0.4-0.4,1.8c-0.1,0.5-0.2,0.7-0.3,1.2c1.4-0.2,2.4-0.3,3.1-0.5l0.1,3.6
			c-0.5,0-0.5,0-1.6,0.2c-0.6,0.1-1.8,0.2-2.4,0.2c-0.8,2.6-1.4,4.1-2.4,6.4c-0.5,1-0.7,1.4-1.5,3.1c-0.3,0.6-0.3,0.6-0.4,0.9
			l-3.6-2c1.6-2.1,3.1-5.2,4.1-8.3c-0.4,0-0.4,0-1.2,0c-0.5,0-0.5,0-1,0c-0.1,0-0.2,0-0.9,0v-3.5c0.8,0.2,1.8,0.2,3.2,0.2
			c0.2,0,0.4,0,0.8,0c0-0.2,0-0.2,0.2-0.9c0.2-0.7,0.3-1.8,0.3-2.6L128.9,155.7z M138.3,174.2c-0.8-0.9-1.6-1.7-2.8-2.4
			c-0.1,1-0.3,1.7-0.9,2.3c-0.9,0.9-2.4,1.4-4.2,1.4s-3.3-0.5-4.2-1.5c-0.7-0.7-1.1-1.7-1.1-2.7c0-2.6,2.1-4.3,5.2-4.3
			c0.5,0,0.8,0,1.5,0.1c-0.1-0.8-0.1-1.3-0.1-1.8c0-0.9,0-1.6,0.1-2.6l3.6,0.2c-0.2,0.8-0.2,1.4-0.2,2.5c0,0.8,0,1.5,0.2,2.6
			c1.3,0.6,2.4,1.2,3.4,2c0.1,0,0.4,0.3,1.1,0.9L138.3,174.2z M130.5,170.1c-1,0-1.7,0.4-1.7,1.1c0,0.6,0.6,1.1,1.6,1.1
			c1.1,0,1.7-0.5,1.7-1.4c0-0.2,0-0.5,0-0.5C131.4,170.2,131,170.1,130.5,170.1z M138.6,163.9c-2.1-1.3-4.2-2.3-6.8-3.2l1.8-3
			c2.8,1,4.6,1.8,6.6,3L138.6,163.9z"/>
		<path class="st2" d="M153.5,161.5c2.1-0.3,3.1-0.3,5.8-0.3c0.2,0,0.6,0,1.1,0l0.1,3.7c-1.1-0.1-1.7-0.2-2.9-0.2
			c-2.4,0-4,0.1-6.2,0.5l-0.2-3.1c-1.1,0.1-1.3,0.1-2,0.2c-0.4,2.1-0.8,3.7-1.4,6c-0.6,1.9-0.7,2.4-1.6,5.3
			c-0.4,1.1-0.4,1.1-0.5,1.6l-4-1.5c1.5-2.8,2.9-7.2,3.7-11.3c-0.2,0-0.3,0-0.4,0c-0.7,0-1.2,0-2.1-0.1c0,0-0.1,0-0.2,0
			c-0.2,0-0.3,0-0.5,0l0.1-3.6c0.9,0.1,2,0.2,3.3,0.2c0.1,0,0.2,0,0.4,0c0.3-1.8,0.4-2.6,0.4-3.3c0-0.1,0-0.2,0-0.3l4.1,0.3
			c-0.1,0.4-0.2,0.7-0.3,1.3c0,0.1-0.2,0.8-0.4,1.9c1.5-0.2,2.4-0.3,3.6-0.6L153.5,161.5z M154.2,167.5c-0.8,1-1.2,1.7-1.2,2.4
			c0,1,0.9,1.5,2.8,1.5c1.7,0,3.9-0.4,5.2-0.9l0.3,3.9c-0.4,0-0.6,0.1-1.2,0.1c-2.1,0.3-2.9,0.4-4.3,0.4c-4.3,0-6.5-1.4-6.5-4.2
			c0-1.3,0.5-2.5,1.7-4.3L154.2,167.5z"/>
		<path class="st2" d="M173,169.4c-1.3,2.8-2.8,4-4.8,4c-2.9,0-5-2.8-5-6.8c0-2.6,0.9-4.9,2.5-6.7c1.9-2.1,4.7-3.2,8-3.2
			c2.9,0,5.5,1,7.2,2.7c1.4,1.5,2.2,3.6,2.2,6.1c0,2.9-1.1,5.5-2.9,7.1c-1.5,1.3-3.2,2-6.3,2.5c-0.5-1.6-0.9-2.4-1.9-3.6
			c2.1-0.2,3.4-0.5,4.6-1.1c1.7-0.9,2.6-2.8,2.6-5.1c0-1.9-0.7-3.4-1.9-4.3c-0.6-0.4-1.1-0.6-1.8-0.8
			C174.9,164,174.1,166.8,173,169.4z M169.2,161.4c-1.5,1.2-2.4,3.3-2.4,5.2c0,1.6,0.6,2.8,1.4,2.8c0.6,0,1.1-0.8,1.8-2.4
			c0.8-2,1.4-4.5,1.7-6.7C170.6,160.4,169.9,160.7,169.2,161.4z"/>
		<path class="st2" d="M187.5,168c-0.1,3.3-0.2,4.7-0.7,6.8l-2.2-1.2c0.5-1.5,0.7-3.1,0.7-5.9L187.5,168z M184.7,164.1
			c0.7,0.1,0.9,0.1,1.6,0.1c0,0,0.3,0,0.5,0c0.3-0.4,0.3-0.5,0.5-0.7c-1-1.4-1.6-2.1-2.8-3.3l1.5-2.7l0.6,0.7
			c0.5-0.9,1.2-2.5,1.4-3.3l2.9,1.1c-0.2,0.2-0.2,0.4-0.4,0.8c-0.7,1.3-1.4,2.7-2,3.5c0.2,0.3,0.3,0.3,0.5,0.7
			c1.3-2.2,1.5-2.5,2-3.7l2.5,1.4c-0.3,0.5-0.4,0.5-0.9,1.4c-0.4,0.5-0.9,1.3-1.6,2.4l2.1-0.7c0.5,1.5,0.8,2.2,1.1,3.3v-2.8
			c0.7,0.1,1.5,0.1,2.6,0.1h0.9v-1.7h-1.4c-1.2,0-1.9,0-2.6,0.1v-3.2c0.7,0.1,1.5,0.1,2.6,0.1h1.4v-0.8c0-0.5,0-1-0.1-1.5h3.5
			c-0.1,0.5-0.1,1-0.1,1.6v0.8h1.9c1.2,0,1.9,0,2.6-0.1v3.2c-0.8-0.1-1.6-0.1-2.6-0.1h-1.9v1.7h1.5c1,0,1.8,0,2.6-0.1v3.2
			c-0.7-0.1-1.5-0.1-2.5-0.1h-5.8c-0.8,0-1.3,0-2.4,0.1c0.1,0.4,0.1,0.4,0.2,1.1c0.5,0,1.1,0,1.9,0h6c1,0,1.6,0,2.1-0.1
			c-0.1,0.5-0.1,1.1-0.1,2.2v4.7c0,1,0,1.7,0.1,2.5h-3.4v-0.9h-3.7v0.9h-3.3c0.1-0.7,0.1-1.3,0.1-2.2v-5c0-0.9,0-1.4,0-1.7l-2,0.7
			c-0.1-0.4-0.1-0.5-0.2-0.8c-0.7,0.1-0.7,0.1-1.1,0.1v6.6c0,1.3,0,1.7,0.1,2.4h-3.2c0.1-0.7,0.1-1.2,0.1-2.4v-6.4
			c-0.3,0-0.5,0-0.7,0c-0.4,0-1.2,0.1-2.3,0.2L184.7,164.1z M189.7,164.2c0.8,0,1,0,1.7-0.1c-0.2-0.5-0.2-0.6-0.5-1.5
			C190.3,163.4,190.2,163.5,189.7,164.2z M193.3,167.7c0.3,2.8,0.3,2.8,0.4,5.6l-2.1,0.3c0-0.4,0-0.8,0-1c0-1.7-0.1-2.9-0.3-4.6
			L193.3,167.7z M197.5,171.9h3.7v-2.4h-3.7V171.9z"/>
		<path class="st2" d="M211.5,165.1c-1.1,0-1.9,0-2.7,0.1c0.1-0.6,0.1-1.2,0.1-2.6v-4.7c0-1.1,0-1.6-0.1-2.3
			c0.7,0.1,1.4,0.1,2.7,0.1h11.1c1.3,0,1.9,0,2.7-0.1c-0.1,0.6-0.1,1.1-0.1,2.6v4.3c0,1.5,0,1.9,0.1,2.6c-0.8-0.1-1.5-0.1-2.7-0.1
			h-4v0.9h5.7c1.5,0,2.1,0,2.8-0.1v3.3c-0.8-0.1-1.6-0.1-2.7-0.1h-3.5c1.7,1.6,3.9,2.6,6.8,3.3c-0.8,1.2-1.2,2-1.7,3.3
			c-3.1-1.1-5.4-2.6-7.4-4.8c0,0.2,0,0.2,0,0.5c0,0.1,0,0.8,0,0.9v1.3c0,1,0,1.6,0.2,2.4h-3.6c0.1-0.7,0.2-1.3,0.2-2.4v-1.3
			c0-0.3,0-0.4,0.1-1.4c-2.1,2.2-4,3.6-7.2,4.9c-0.5-1.3-0.9-2.1-1.7-3.2c2.6-0.7,5-2,6.4-3.5h-3.1c-1.2,0-2,0-2.7,0.1v-3.3
			c0.7,0.1,1.3,0.1,2.7,0.1h5.5v-0.9H211.5z M212.2,158.5v0.9h3v-0.9H212.2z M212.2,161.7v0.9h3v-0.9H212.2z M218.6,159.4h3.3v-0.9
			h-3.3V159.4z M218.6,162.6h3.3v-0.9h-3.3V162.6z"/>
		<path class="st2" d="M229.6,157.4c0.9,0.2,2.3,0.3,4.6,0.3c0.1,0,0.4,0,0.6,0c0.4-1.1,0.6-1.7,0.7-2.4l4,0.3
			c-0.2,0.3-0.2,0.4-0.5,1c-0.3,0.6-0.4,1-0.4,1c0.2,0,0.2,0,1.3-0.1c2.2-0.1,4.4-0.4,5.6-0.7l0.1,3.5c-0.7,0.1-1.3,0.1-2,0.2
			c-1.6,0.2-4.3,0.3-6.6,0.4c-0.4,0.7-0.5,0.9-1.1,1.6c0.9-0.4,1.8-0.7,2.8-0.7c1.8,0,2.9,0.7,3.4,2.1c0.4-0.1,0.4-0.1,1.5-0.5
			c0.1,0,0.7-0.2,1.4-0.4c1.3-0.4,1.4-0.5,1.8-0.7l1.3,3.5c-1.1,0.2-3.5,0.8-5.6,1.5c0,0.6,0,0.6,0,1.6c0,1,0,1.3,0.1,1.9l-3.6,0.1
			c0.1-0.3,0.1-1,0.1-2.3l-0.2,0.1c-1,0.5-1.1,0.6-1.5,0.9c-0.4,0.3-0.6,0.7-0.6,1.1c0,0.8,0.8,1.2,2.9,1.2c2.6,0,5.2-0.4,7-1.1
			l0.2,4c-0.6,0-0.6,0-2,0.2c-1.8,0.2-3.6,0.3-5.3,0.3c-2.5,0-4-0.3-5.2-1c-1.1-0.6-1.7-1.8-1.7-3.1c0-1,0.3-1.9,1.1-2.8
			c0.8-0.9,1.8-1.7,3.2-2.4c0.5-0.3,0.7-0.4,1.6-0.7c-0.2-0.4-0.5-0.5-0.9-0.5c-1.1,0-2.6,0.8-4.2,2.1c-0.9,0.8-1.5,1.4-2.1,2.2
			l-2.8-2.8c0.7-0.5,1.6-1.4,2.3-2.3c0.5-0.6,1.4-1.9,1.7-2.4c0.3-0.6,0.3-0.6,0.4-0.7c-0.3,0-0.5,0-0.7,0c-0.9,0-0.9,0-1.9,0
			c-0.3,0-0.5,0-0.8,0c0,0-0.2,0-0.3,0L229.6,157.4z"/>
		<path class="st2" d="M255.8,164.8c-0.5,0-0.7,0-1.1,0.1v-0.8c-1.2,0.7-2,1.1-3.4,1.7c-0.4-1.2-0.8-1.8-1.7-2.9
			c1.3-0.4,2-0.7,3.4-1.4c-1-1.2-1.8-1.9-2.9-2.8l2.5-1.8c0.6,0.5,0.8,0.7,1.2,1.1v-2.6c0.6,0.1,1,0.1,2,0.1h3.8c1,0,1.3,0,1.8-0.1
			c0.3,0.8,0.5,1.1,1,1.8c0.7-0.7,1.2-1.3,1.6-1.9l2.8,1.5c-0.1,0.1-0.2,0.2-0.3,0.4c-0.6,0.7-1.3,1.4-2,2.1
			c0.4,0.3,0.5,0.4,0.8,0.6c0.9-0.9,1.6-1.6,2.1-2.4l2.8,1.4c-0.2,0.2-0.2,0.2-0.9,1c-0.3,0.4-0.9,1-1.5,1.5
			c1.1,0.5,1.7,0.8,2.9,1.1c-0.7,1-1,1.7-1.5,3.1c-1.5-0.6-2.3-1-3.3-1.6v0.7c-0.6-0.1-1-0.1-1.8-0.1v1.7h3c1.2,0,1.7,0,2.5-0.1v3.2
			c-0.8-0.1-1.4-0.1-2.5-0.1h-3v2.5c0,0.6,0.2,0.7,1.3,0.7c0.9,0,1.3-0.1,1.4-0.4c0.1-0.1,0.1-0.4,0.2-0.9c0-0.1,0-0.2,0-0.6
			c0-0.1,0-0.3,0-0.5c1.2,0.5,2.1,0.7,3.3,0.9c-0.2,2.1-0.4,2.9-0.8,3.4c-0.6,0.7-1.8,1-4.5,1c-1.7,0-2.7-0.1-3.3-0.4
			c-0.7-0.4-0.9-0.7-0.9-1.8v-4h-2c-0.3,1.8-1.1,3.1-2.5,4.4c-1.1,0.9-2,1.4-4.1,2.2c-0.6-1.3-1.1-2.1-2.1-3.1
			c1.7-0.4,2.7-0.8,3.7-1.5c0.8-0.5,1.3-1.1,1.6-2H253c-1.1,0-1.7,0-2.4,0.1v-3.2c0.7,0.1,1.2,0.1,2.4,0.1h2.8V164.8z M254.9,158.5
			c-0.3,0-0.5,0-0.8,0c0.6,0.6,0.9,0.9,1.3,1.4c0.9-0.6,1.1-0.8,1.6-1.5H254.9z M262.7,162c-1.1-0.9-1.6-1.4-2.5-2.5
			c-0.9,1.1-1.5,1.7-2.5,2.5H262.7z M259,166.5h1.8v-1.7h-1.8L259,166.5z"/>
		<path class="st2" d="M285.1,174.1c-2.6,0.6-5,1-8.7,1.5c-0.4,0-0.7,0.1-1.1,0.2l-0.7-3.3c0.9,0,1.1,0,2.8-0.2v-2
			c-1.3,0.8-2.4,1.3-4.2,2c-0.6-1.5-0.9-2-1.8-3.1c2.2-0.5,4.6-1.6,6.2-2.8h-3c-1.1,0-1.9,0-2.7,0.1v-3.1c0.7,0.1,1.3,0.1,2.6,0.1
			h5.7v-0.8h-4.1c-1.3,0-1.8,0-2.6,0.1v-2.7c0.7,0.1,1.3,0.1,2.6,0.1h4.1v-0.9h-5c-1.3,0-2,0-2.6,0.1v-3c0.7,0.1,1.6,0.1,2.8,0.1
			h4.8c0-0.7,0-1-0.1-1.5h3.7c-0.1,0.5-0.1,0.8-0.1,1.5h5.1c1.2,0,2.1,0,2.8-0.1v3c-0.6-0.1-1.3-0.1-2.6-0.1h-5.3v0.9h4.4
			c1.3,0,1.9,0,2.6-0.1v2.7c-0.7-0.1-1.3-0.1-2.6-0.1h-4.4v0.8h5.9c1.3,0,2,0,2.6-0.1v3.1c-0.7-0.1-1.6-0.1-2.6-0.1h-0.9l2.8,1.7
			c-0.1,0.2-0.1,0.2-0.5,0.6c-0.5,0.5-1.3,1.3-2.1,1.9c1.3,0.8,2.2,1.3,3.9,1.8c-0.8,1-1.1,1.6-1.9,3.2c-2.6-1.1-4.3-2.2-5.9-4
			V174.1z M280.8,171.9c1.9-0.3,2.1-0.4,3.9-0.7c-1-1.3-1.9-2.9-2.5-4.5c-0.4,0.4-0.7,0.7-1.3,1.3V171.9z M285.3,166.5
			c0.3,0.7,0.7,1.3,1.2,2c0.8-0.7,1.7-1.6,2-2H285.3z"/>
		<path class="st2" d="M298.8,169c0-0.4,0-0.6,0-1c0-0.4,0-0.4-0.1-1.7l-0.4-7c0-0.9-0.2-1.9-0.3-3h5.1c-0.1,0.5-0.2,2-0.3,3l-0.4,7
			c0,0.9-0.1,1.4-0.1,1.7c0,0.2,0,0.5,0,1H298.8z M298.4,174.6v-4.2h4.4v4.2H298.4z"/>
	</g>
	<path class="st36" d="M487.7,143.3c5.7-9,6.6-18.9,4.2-29c-2.9-11.8-10-20.8-19.7-27.8c-6.7-4.9-14.3-7.7-22.6-8.2
		c-9.2-0.5-17.5,2.1-25.2,7c-0.3,0.2-0.7,0.3-0.9,0.2c-5.2-1.7-9.9-0.4-14.1,2.8c-9.1,6.7-12.2,20-7.4,30.2c0.2,0.3,0.4,0.7,0.3,1
		c-0.6,2.3-1,4.8-2,6.9c-2,3.9-4.1,7.6-5.1,12c-0.2-0.2-0.3-0.3-0.4-0.4c-5-6.8-9.6-13.8-12.7-21.7c-0.3-0.6-0.4-1.4-0.5-2
		c-0.2-3.5-1.5-6.5-3.2-9.5c-0.4-0.7-1-1.5-1.7-1.7c-1.9-0.5-2.5-2.1-3.4-3.5c-0.6-1-1.1-2.1-1.9-3c-0.5-0.6-1.2-1.2-1.9-1.5
		c-2.2-0.8-7.2,1.8-8.1,4c-0.1,0.3-0.5,0.6-0.8,0.7c-1.9,0.7-3.6,1.8-4.4,3.7c-0.4,0.8,0,2,0,3.1c-1.5,0.3-2.7,1.4-3.7,2.9
		c-1.4,2.1,0.8,3.1,1.5,4.6c-1.8-0.1-2.9,0.7-4.4,2.9c-0.1,0.3-0.1,0.6-0.2,0.8c1.4,1.3,2.8,2.7,4.3,4c0.3,0.3,0.7,0.5,0.9,0.9
		c1.2,2.8,3.1,5,5.4,7c0.7,0.6,1.2,1.4,1.8,2.1c3.3,4.7,6.3,9.7,10,14.1c13.8,16.9,30.9,28.5,52.5,33.1c0.2,0,0.5,0.6,0.5,0.8
		c-0.3,2.3-0.8,4.6-1.1,6.9c-0.9,8-0.8,16,1.4,23.7c0.5,1.7,1.5,3.7,2.9,4.7c2.7,1.8,3.8,4.3,4.5,7.2c0.1,0.5,0.4,1,0.5,1.5
		c0.1,0.3,0.1,0.7-0.1,0.9c-0.7,1.3-1.6,2.5-2.3,3.8c-1.3,2.5-0.2,4.4,2.6,4.8c3.4,0.4,8.3-3.4,8.6-6.8c0.2-1.8,0.2-3.7,0.3-5.5
		c0-0.2,0.3-0.5,0.5-0.5c1.8-0.2,3.6-0.4,5.4-0.6c0.2,0,0.6,0.1,0.6,0.3c0.9,4.1,3.8,7.7,3.3,12.1c-0.1,0.6,0.1,1.2,0.3,1.8
		c0.6,2.6,2.2,3.9,4.9,4c3.1,0.1,5.3-2,4.6-4.8c-0.7-2.8-1.1-5.5-1.1-8.4c-0.1-2.9-0.7-5.9-1.1-8.8c0-0.3,0.1-0.8,0.2-0.9
		c3.5-1.9,3.8-4.8,2.8-8.2c-0.6-1.8-1-3.7-1.5-5.6c1.1-0.1,2.1-0.2,3.1-0.3c1-0.2,2.1-0.4,3-0.8c2.8-1.1,4-3.4,3.4-6.3
		c-0.3-1.2-0.7-2.5-1.1-3.7c-2.7-6.6-7.6-11.5-13.1-15.8c-1.3-1-2.6-1.9-3.7-2.8c2.9-1,5.9-1.8,8.8-3c2.9-1.1,5.5-3,7.6-5.5
		c0.2,0.4,0.4,0.7,0.5,1c2.9,6.7,2.6,13.6,1,20.5c-0.3,1.4-0.2,1.6,1.2,1.4c0.4,0,0.7-0.1,1-0.3c1.7-1.2,3.5-2.2,5-3.5
		c6.8-6.2,8.4-15.4,4.1-22.7c-0.4-0.6-0.3-0.9,0.2-1.4c2.9-2.3,4.9-7.5,2.9-10.9c-0.1-0.2,0.1-0.6,0.2-0.8
		C486,145.5,487,144.5,487.7,143.3z"/>
	<g>
		<g>
			<path class="st37" d="M481.5,145c0.7,0.4,1.1,0.3,1.6-0.3c6.1-8.7,7.9-18.3,5.9-28.6c-2.5-12.5-9.8-22-20.1-29.4
				c-6.4-4.6-13.5-7.4-21.5-7.3c-7.9,0.1-14.8,3-21.3,7.4c-1.1,0.8-2.2,0.8-3.2,0.2c-3.3-1.9-6.4-1.2-9.2,0.8
				c-6.1,4.3-9.7,10.3-10.5,17.7c-0.4,3.3-0.1,6.5,0.9,9.5c1.7-2.5,3.2-5,5-7.4c3.7-4.9,8.3-8.8,14-11.3c1.8-0.8,2.9-0.5,4,1.1
				c0.5,0.8,1.1,1.6,1.7,2.3c6.5,7.6,14.4,13.4,23,18.3c6.7,3.8,13.7,6.8,20.9,9.3c0.4,0.2,1,0.8,1,1.2c-0.2,3.2-0.6,6.5-0.8,9.7
				c-0.1,2.1,0.1,4.1,0.2,6.4C476.2,143.5,478.9,143.7,481.5,145z"/>
			<path class="st37" d="M480,160.8c-0.2-0.3-0.7-0.6-1-0.5c-2.4,0.8-4.8,0.8-7.2,0c-0.3-0.1-0.9-0.1-1,0c-0.2,0.6-0.6,1.3-0.3,1.7
				c2,3.3,3.1,6.8,3.2,10.5c0.1,3.8-0.2,7.6-0.3,11.4c0.8-0.7,1.9-1.6,2.9-2.5C482.2,175.6,483.6,167.6,480,160.8z"/>
		</g>
		<path class="st38" d="M457.7,201.3c-2.5-0.1-5-1.5-7.6-0.2c-0.5,0.3-1.2,0.3-1.8,0.2c-1-0.2-2.1-0.5-2.8-1.1
			c-1.5-1.4-1.6-3.7-3.1-5.1c-0.2-0.2-0.1-0.8-0.2-1.1c0-0.2,0.1-0.5,0-0.7c-1-1.9-1-2.9,0.8-4.2c3.2-2.3,6.5-4.7,11-1.7
			c-1.9-5.2-3.6-10-5.4-14.8c-0.1-0.2-0.7-0.3-1.1-0.3c-0.2,0-0.4,0.4-0.5,0.6c-0.2,2.5-0.3,5-0.4,7.5c-0.1,2.1-0.8,3-2.6,2.9
			c-3.7-0.2-7.4-0.6-11.1-1c-1.1-0.1-1.7-0.8-1.7-1.9c0-2.7,0-5.5-0.1-8.2c0-0.3-0.4-0.8-0.7-1c-0.7-0.3-1,0-1.2,0.7
			c-1.1,5.5-2.4,11-3.2,16.5c-0.9,7.3-0.5,14.5,1.4,21.6c0.4,1.5,1.1,3.1,2.1,4.2c2.2,2.5,5.1,4.1,8.4,4.8c7.5,1.4,14-1.3,20.2-5.1
			c1.3-0.8,2.1-2.3,1.8-3.8c-0.5-2.8-1.4-5.6-2.1-8.4C458.1,201.4,457.8,201.3,457.7,201.3z"/>
		<g>
			<path class="st21" d="M446.4,188.5c-0.6,0.3-1.2,0.6-1.6,1.1c-0.5,0.6-0.7,1.4-1,2.1c0.7-0.1,1.1-0.4,1.6-0.5
				c0.9-0.3,1.8-0.6,2.7-0.8c0.2,0,0.4,0.3,0.7,0.4c-0.2,0.2-0.3,0.4-0.5,0.5c-0.9,0.6-2,1-2.8,1.7c-0.5,0.4-0.8,1.2-1.2,1.9
				c0.1,0.1,0.3,0.2,0.4,0.3c0.6-0.3,1.2-0.7,1.8-0.9c0.7-0.3,1.5-0.4,2.3-0.6c0.2,0,0.5,0.2,0.7,0.4c-0.2,0.2-0.3,0.4-0.6,0.6
				c-0.8,0.5-1.6,0.8-2.3,1.4c-0.4,0.4-0.6,1.1-0.9,1.9c2-0.3,3.3-2.2,5.2-0.7c-0.9,0.4-1.8,0.7-2.5,1.2c-0.4,0.3-0.6,0.8-0.8,1.3
				c0.5,0.2,1,0.5,1.5,0.4c1.6-0.1,3.1-0.4,4.7-0.6c0.2,0,0.4-0.2,0.6-0.3c2.4-2.4,2.6-6.7,0.4-9.6
				C452.7,187,449.6,186.6,446.4,188.5z"/>
			<path class="st21" d="M479.7,146.3c-1.9-1-3.8-0.8-5.6,0.5c-1.2,0.8-3,0.4-3.6-0.9c-0.5-1.1-0.9-2.3-0.9-3.4
				c0.1-4.1,0.4-8.1,0.7-12.2c0.1-1.4-0.2-2.1-1.5-2.6c-4.1-1.6-8.2-3-12.1-4.9c-12.5-6.1-24.2-13.2-32.8-24.6
				c-0.2,0.1-0.5,0.2-0.8,0.4c-5.5,3-9.7,7.5-13.1,12.7c-2.2,3.4-4.2,6.9-5.3,10.8c-0.5,1.9-1.1,3.8-1.8,5.6
				c-1.3,3.3-3.2,6.3-4.2,9.7c-2.4,8.1-0.9,15.4,5.3,21.5c4.2,4,9.2,6.7,14.7,8.1c6,1.5,12.1,2.6,18.2,3.6
				c7.5,1.2,14.8-0.1,21.8-2.9c4.3-1.7,7.7-4.5,9.2-9c0.3-0.9,0.8-1.3,1.7-1.2c0.7,0.1,1.4,0.3,2,0.7c2.3,1.6,4.7,1.8,6.7,0.2
				c2.2-1.7,3.4-4,3.8-6.7C482.5,149.3,482,147.4,479.7,146.3z M422.4,131.5c-0.9,2.3-2.8,3-4.9,2.3c-2.2-0.7-3.4-2.5-3.1-5
				c0.1-0.5,0.2-0.9,0.2-1.3c-0.1,0-0.2-0.1-0.3-0.1c0.7-1.6,1.3-3.2,2.2-4.7c1-1.6,2.8-2.1,4.8-1.5c1.7,0.5,2.4,1.9,2.3,3.4
				C423.4,127,423.2,129.4,422.4,131.5z M426.3,111.1c-0.5-0.5-0.8-0.8-1-1c-0.1-0.2-0.2-0.4-0.3-0.6c-1.5-3-3.4-3.3-5.7-0.8
				c-0.6,0.7-1.2,1.5-1.8,2.2c-0.2,0.2-0.4,0.5-0.6,0.5c-0.5,0-1.1-0.2-1.6-0.2c0.2-0.4,0.3-0.9,0.6-1.2c1.1-1.1,2.2-2.4,3.5-3.2
				c3.1-1.9,7.1-0.3,8.1,3.2C427.5,110.1,426.7,110.6,426.3,111.1z M427.2,132.9c0.9-0.3,1.8-0.5,2.7-0.6c1.4-0.2,2.2-1,2.6-2.4
				c0.4-1.4,0.7-2.9,1-4.3c0.2-1.1,1-0.9,1.8-0.9c0.8,0.1,1.1,0.4,0.9,1.2c-0.4,1.7-0.7,3.3-1.2,5c-0.5,1.5-1.6,2.2-3.3,2.2
				c-0.8,0-1.6,0.1-2.5,0.2c0.8,1.5,1.6,2.8,2.2,4.1c0.2,0.4,0.2,0.9,0.3,1.4c-0.8-0.1-2,0.2-2.3-0.3c-1.1-1.5-2-3.3-2.9-5
				C426.6,133.5,427,133,427.2,132.9z M452.7,151.4c-1.7,3.7-4.8,5.7-8.5,6.9c-3.1,1-6.2,1.2-9.5,0.7c-5.1-1.1-9-3.9-11.1-9
				c-0.2-0.4-0.1-1.3,0.1-1.4c0.9-0.2,1.9-0.5,2.3,0.7c1,2.9,2.8,5.2,5.3,6.8c6.2,4.1,15.7,1.5,18.8-5.2c0.4-0.8,2.1-1.1,2.6-0.5
				C452.9,150.6,452.8,151.1,452.7,151.4z M461.6,139.2c-1,0.3-2,0.4-2.8-0.8c-1-1.4-2.1-2.9-3.3-4.1c-1.4-1.3-2.7-1.2-4.1,0.2
				c-0.9,0.9-1.6,2-2.3,3c-0.5,0.7-2.2,1-2.7,0.3c-0.1-0.1-0.1-0.4-0.1-0.5c0.8-3.1,5.1-5.7,8.2-5c3.5,0.9,5.5,3.5,7.3,6.3
				C461.9,138.8,461.7,139.2,461.6,139.2z"/>
			<path class="st21" d="M357.4,118.7c-1-1-2-1.9-3.1-2.8c-0.5-0.5-1-0.8-1.4,0c-0.4,0.8-1.8,1.4-0.7,2.5c1,1,2.2,1.9,3.3,2.8
				c1,0.8,2.1,0.3,2.4-1.3C357.9,119.6,357.7,119,357.4,118.7z"/>
			<path class="st21" d="M364.1,113.1c0.1,0.2,1-0.1,1.5-0.4c0.2-0.1,0.3-0.8,0.2-1c-0.7-1.3-1-2.5-0.4-3.9c0.1-0.2,0.1-0.6,0-0.8
				c-1.2-1.9-2.4-3.9-3.7-5.8c-0.1-0.1-0.4-0.3-0.4-0.3c-1.1,1-2.3,2-3.3,2.9c0.2,0.7,0.2,1.2,0.4,1.4
				C360.2,107.9,362.1,110.5,364.1,113.1z"/>
			<path class="st21" d="M378.5,115.8c0.4-4.4-1.1-8.2-3.5-11.7c-0.2-0.2-0.8-0.5-0.9-0.4c-1.8,1.1-3.7,2.1-5.3,3.5
				c-1.5,1.2-1.5,2.5-0.5,4.1c0.2,0.3,0.9,0.5,1.2,0.3c0.8-0.4,1.3-1.2,2.1-1.6c0.8-0.3,1.8-0.2,2.7-0.3c0,0,0.2,0.5,0.1,0.6
				c-1.7,1-3.4,2.3-5.2,3c-1.7,0.7-3.5,0.7-5.3,1.1c0.4,2.3-0.8,3.5-3.8,4.4c0.4,1.6-0.2,2.8-1.8,3.7c-0.2,0.1-0.5,0.8-0.3,1
				c1.3,1.7,2.6,3.4,4,5.1c1.4,1.7,3.3,2.3,5.5,2.2c5.8-0.2,9.9-3.4,10.6-8.6C378.2,120.1,378.3,118,378.5,115.8z"/>
			<path class="st21" d="M367.1,105.4c1.6-0.8,3.1-1.5,4.6-2.3c0.2-0.1,0.4-0.7,0.3-0.9c-0.6-1.2-1.3-2.3-2-3.5
				c-1.6-2.8-2.1-2.8-4.6-0.8c-0.1,0.1-0.2,0.2-0.3,0.3c-0.9,0.8-1.1,1.6-0.5,2.6C365.3,102.4,366.2,103.9,367.1,105.4z"/>
			<path class="st21" d="M359.8,117.6c2.2-1.7,2.5-2.2,1.4-3.7c-1.3-1.9-2.8-3.8-4.3-5.6c-0.1-0.2-0.4-0.3-0.5-0.3
				c-1.3,0.1-2.5,2.8-1.7,3.8C356.4,113.8,358.1,115.7,359.8,117.6z"/>
		</g>
		<g>
			<path class="st2" d="M441.5,177c-0.9-1.5-1.7-3-2.7-4.5c-1,1.2-1.9,2.3-2.9,3.4c-0.5,0.5-1.2,0.9-2.1,1.5c0,0.7,0,1.8,0,2.9
				c0,0.9,0.4,1.3,1.2,1.3c2.6,0.2,5.2,0.3,7.8,0.4c0.3,0,0.9-0.5,0.9-0.9c0.2-1.3,0.3-2.7,0.4-4.2
				C443.2,178.6,442.4,178.6,441.5,177z"/>
			<path class="st2" d="M467.8,195.3c0.1-2.5-1-4.5-2.1-6.6c-3.4-6.3-8.3-11.3-14.2-15.4c0,0-0.1-0.1-0.1-0.1c0,0,0,0.1,0,0.1
				c0.7,1.6,1.6,3.2,2.2,4.9c1.1,3,2,6.1,3,9.2c0.1,0.4,0.7,0.9,1.1,1c1.3,0.3,2.6,0.5,3.9,0.7c0.2,0,0.4,0.2,0.6,0.4
				c-0.2,0.2-0.4,0.5-0.6,0.5c-0.6,0.1-1.1,0-1.7,0c-0.8-0.1-1.6-0.3-2.6-0.5c2.2,3.8,2.1,7.2-0.7,10.4c2.2,0.8,6.4,0.6,8.4-0.4
				C466.8,198.6,467.7,197.3,467.8,195.3z"/>
			<path class="st2" d="M444.3,172.3c-1.3,0-2.5,0-3.8-0.1c0.8,1.3,1.4,2.5,2.2,3.8C443.2,174.7,443.7,173.6,444.3,172.3z"/>
			<path class="st2" d="M437.1,172c-0.8-0.1-1.4-0.3-2.1-0.4c-0.2,0-0.5,0.3-0.5,0.4c0.1,0.8,0.3,1.7,0.5,2.7
				C435.7,173.7,436.4,172.9,437.1,172z"/>
			<path class="st2" d="M426.3,170.3c-1.9-0.5-3.7-0.8-5.6-1.3c-5.4-1.4-10.6-3.2-15.2-6.3c-7-4.7-11.4-10.9-11-19.8
				c0-0.4-0.2-0.8-0.5-1.1c-2.6-3.7-5.4-7.2-7.9-11c-1.7-2.6-3.1-5.4-4.7-8.1c-2.4,8.1-8.7,9.5-16,9.4c0.1,0.2,0.1,0.3,0.1,0.4
				c1.9,2.8,3.6,5.6,5.6,8.3c9.8,13.4,21.9,24.2,37.2,31.2c5.1,2.3,10.4,4.3,15.9,5.4c0.3,0.1,0.9-0.2,1-0.4c0.6-2,1.1-4,1.6-6
				C426.8,170.9,426.5,170.4,426.3,170.3z"/>
		</g>
		<g>
			<path d="M482,158.4c2.9-2.3,4.9-7.5,2.9-10.9c-0.1-0.2,0.1-0.6,0.2-0.8c0.9-1.1,1.9-2.2,2.6-3.4c5.7-9,6.6-18.9,4.2-29
				c-2.9-11.8-10-20.8-19.7-27.8c-6.7-4.9-14.3-7.7-22.6-8.2c-9.2-0.5-17.5,2.1-25.2,7c-0.3,0.2-0.7,0.3-0.9,0.2
				c-5.2-1.7-9.9-0.4-14.1,2.8c-9.1,6.7-12.2,20-7.4,30.2c0.2,0.3,0.4,0.7,0.3,1c-0.6,2.3-1,4.8-2,6.9c-2,3.9-4.1,7.6-5.1,12
				c-0.2-0.2-0.3-0.3-0.4-0.4c-5-6.8-9.6-13.8-12.7-21.7c-0.3-0.6-0.4-1.4-0.5-2c-0.2-3.5-1.5-6.5-3.2-9.5c-0.4-0.7-1-1.5-1.7-1.7
				c-1.9-0.5-2.5-2.1-3.4-3.5c-0.6-1-1.1-2.1-1.9-3c-0.5-0.6-1.2-1.2-1.9-1.5c-2.2-0.8-7.2,1.8-8.1,4c-0.1,0.3-0.5,0.6-0.8,0.7
				c-1.9,0.7-3.6,1.8-4.4,3.7c-0.4,0.8,0,2,0,3.1c-1.5,0.3-2.7,1.4-3.7,2.9c-1.4,2.1,0.8,3.1,1.5,4.6c-1.8-0.1-2.9,0.7-4.4,2.9
				c-0.1,0.3-0.1,0.6-0.2,0.8c1.4,1.3,2.8,2.7,4.3,4c0.3,0.3,0.7,0.5,0.9,0.9c1.2,2.8,3.1,5,5.4,7c0.7,0.6,1.2,1.4,1.8,2.1
				c3.3,4.7,6.3,9.7,10,14.1c13.8,16.9,30.9,28.5,52.5,33.1c0.2,0,0.5,0.6,0.5,0.8c-0.3,2.3-0.8,4.6-1.1,6.9c-0.9,8-0.8,16,1.4,23.7
				c0.5,1.7,1.5,3.7,2.9,4.7c2.7,1.8,3.8,4.3,4.5,7.2c0.1,0.5,0.4,1,0.5,1.5c0.1,0.3,0.1,0.7-0.1,0.9c-0.7,1.3-1.6,2.5-2.3,3.8
				c-1.3,2.5-0.2,4.4,2.6,4.8c3.4,0.4,8.3-3.4,8.6-6.8c0.2-1.8,0.2-3.7,0.3-5.5c0-0.2,0.3-0.5,0.5-0.5c1.8-0.2,3.6-0.4,5.4-0.6
				c0.2,0,0.6,0.1,0.6,0.3c0.9,4.1,3.8,7.7,3.3,12.1c-0.1,0.6,0.1,1.2,0.3,1.8c0.6,2.6,2.2,3.9,4.9,4c3.1,0.1,5.3-2,4.6-4.8
				c-0.7-2.8-1.1-5.5-1.1-8.4c-0.1-2.9-0.7-5.9-1.1-8.8c0-0.3,0.1-0.8,0.2-0.9c3.5-1.9,3.8-4.8,2.8-8.2c-0.6-1.8-1-3.7-1.5-5.6
				c1.1-0.1,2.1-0.2,3.1-0.3c1-0.2,2.1-0.4,3-0.8c2.8-1.1,4-3.4,3.4-6.3c-0.3-1.2-0.7-2.5-1.1-3.7c-2.7-6.6-7.6-11.5-13.1-15.8
				c-1.3-1-2.6-1.9-3.7-2.8c2.9-1,5.9-1.8,8.8-3c2.9-1.1,5.5-3,7.6-5.5c0.2,0.4,0.4,0.7,0.5,1c2.9,6.7,2.6,13.6,1,20.5
				c-0.3,1.4-0.2,1.6,1.2,1.4c0.4,0,0.7-0.1,1-0.3c1.7-1.2,3.5-2.2,5-3.5c6.8-6.2,8.4-15.4,4.1-22.7
				C481.4,159.1,481.4,158.8,482,158.4z M403.1,105.6c0.8-7.5,4.4-13.4,10.5-17.7c2.8-2,5.9-2.6,9.2-0.8c1,0.6,2.1,0.5,3.2-0.2
				c6.4-4.4,13.4-7.3,21.3-7.4c8-0.1,15.1,2.7,21.5,7.3c10.3,7.3,17.5,16.8,20.1,29.4c2.1,10.3,0.2,19.9-5.9,28.6
				c-0.5,0.7-0.8,0.7-1.6,0.3c-2.6-1.4-5.3-1.5-8.5-0.3c-0.1-2.2-0.3-4.3-0.2-6.4c0.2-3.2,0.6-6.5,0.8-9.7c0-0.4-0.5-1-1-1.2
				c-7.2-2.6-14.2-5.6-20.9-9.3c-8.6-4.9-16.6-10.7-23-18.3c-0.6-0.7-1.1-1.5-1.7-2.3c-1.1-1.6-2.2-1.9-4-1.1
				c-5.7,2.5-10.3,6.4-14,11.3c-1.8,2.4-3.3,4.9-5,7.4C403.1,112.1,402.8,108.8,403.1,105.6z M364.9,98.2c0.1-0.1,0.2-0.2,0.3-0.3
				c2.6-2.1,3-2,4.6,0.8c0.7,1.2,1.4,2.3,2,3.5c0.1,0.2-0.1,0.8-0.3,0.9c-1.5,0.8-3,1.6-4.6,2.3c-0.9-1.5-1.7-3-2.6-4.5
				C363.9,99.8,364.1,99,364.9,98.2z M361.2,101c0,0,0.3,0.1,0.4,0.3c1.2,1.9,2.5,3.8,3.7,5.8c0.1,0.2,0.1,0.6,0,0.8
				c-0.6,1.4-0.3,2.6,0.4,3.9c0.1,0.3,0,0.9-0.2,1c-0.4,0.3-1.3,0.5-1.5,0.4c-2-2.6-3.9-5.2-5.8-7.8c-0.2-0.3-0.2-0.7-0.4-1.4
				C358.9,102.9,360.1,101.9,361.2,101z M356.4,108c0.2,0,0.4,0.2,0.5,0.3c1.4,1.9,2.9,3.7,4.3,5.6c1,1.5,0.8,2-1.4,3.7
				c-1.7-1.9-3.5-3.8-5.1-5.8C353.9,110.8,355.1,108.1,356.4,108z M355.6,121.1c-1.1-0.9-2.3-1.8-3.3-2.8c-1.1-1.1,0.3-1.7,0.7-2.5
				c0.4-0.8,0.9-0.5,1.4,0c1,1,2.1,1.9,3.1,2.8c0.3,0.3,0.5,0.9,0.6,1.1C357.6,121.5,356.6,121.9,355.6,121.1z M361.9,128.7
				c-1.4-1.7-2.7-3.4-4-5.1c-0.1-0.2,0.1-0.9,0.3-1c1.6-0.9,2.2-2.1,1.8-3.7c3.1-0.8,4.2-2.1,3.8-4.4c1.8-0.3,3.7-0.4,5.3-1.1
				c1.9-0.7,3.5-2,5.2-3c0.1,0-0.1-0.6-0.1-0.6c-0.9,0.1-1.9,0-2.7,0.3c-0.8,0.3-1.4,1.1-2.1,1.6c-0.3,0.2-1-0.1-1.2-0.3
				c-1.1-1.7-1.1-2.9,0.5-4.1c1.6-1.3,3.5-2.4,5.3-3.5c0.2-0.1,0.8,0.1,0.9,0.4c2.3,3.5,3.9,7.3,3.5,11.7c-0.2,2.2-0.3,4.3-0.6,6.5
				c-0.7,5.1-4.8,8.3-10.6,8.6C365.2,130.9,363.3,130.4,361.9,128.7z M425.2,177.1c-0.1,0.2-0.7,0.4-1,0.4c-5.5-1.1-10.8-3-15.9-5.4
				c-15.3-7-27.3-17.8-37.2-31.2c-2-2.7-3.7-5.5-5.6-8.3c-0.1-0.1-0.1-0.2-0.1-0.4c7.3,0.1,13.6-1.3,16-9.4c1.6,2.8,3,5.5,4.7,8.1
				c2.5,3.7,5.3,7.3,7.9,11c0.2,0.3,0.5,0.8,0.5,1.1c-0.3,8.8,4,15.1,11,19.8c4.7,3.1,9.8,5,15.2,6.3c1.9,0.5,3.7,0.8,5.6,1.3
				c0.2,0.1,0.6,0.5,0.5,0.7C426.3,173.1,425.8,175.1,425.2,177.1z M433.6,219.3c1.9,0.3,3.7,0.7,5.5,1c0.2,0,0.4,0.1,0.4,0.2
				c0,1.2,0.2,2.6-0.3,3.6c-0.3,0.6-1.8,0.7-2.7,0.8c-0.4,0-1.1-0.5-1.2-1C434.6,222.4,434.1,220.7,433.6,219.3z M434.2,232.2
				c-1.2,0.2-2.3-0.6-1.9-1.7c0.6-1.6,1.5-3.2,2.4-4.7c0.1-0.2,0.9,0,1.4,0c0,0.1,0,0.1,0,0.2c0.9,0,1.7,0,2.6,0.1
				c0.2,0,0.6,0.4,0.6,0.6C439.1,228.7,436.2,231.8,434.2,232.2z M458.5,229.9c0.4,1.6,0.8,3.2,1.1,4.3c-0.5,1.7-1,2.7-2.3,2.9
				c-1.4,0.2-2.2-0.8-2.4-1.9c-0.4-1.4-0.5-2.9-0.6-4.4c0-0.2,0.4-0.6,0.6-0.6c1-0.2,2.1-0.3,3.1-0.4
				C458.1,229.7,458.5,229.8,458.5,229.9z M458.2,226.2c0.1,1.6-0.8,2.5-2.5,2.8c-1.5,0.3-2-0.7-2.4-1.8c-0.9-2.4-1.7-4.8-2.5-7.3
				c-0.1-0.2,0-0.7,0.2-0.8c2-0.8,4.1-1.6,6.3-2.4C457.6,219.9,458,223.1,458.2,226.2z M460.2,210c0.3,1.6-0.5,3-1.8,3.8
				c-6.2,3.8-12.7,6.5-20.2,5.1c-3.3-0.6-6.2-2.3-8.4-4.8c-1-1.1-1.7-2.7-2.1-4.2c-1.9-7.1-2.3-14.4-1.4-21.6
				c0.7-5.5,2.1-11,3.2-16.5c0.1-0.7,0.5-1.1,1.2-0.7c0.3,0.2,0.7,0.6,0.7,1c0.1,2.7,0,5.5,0.1,8.2c0,1.1,0.6,1.8,1.7,1.9
				c3.7,0.4,7.4,0.8,11.1,1c1.9,0.1,2.6-0.8,2.6-2.9c0.1-2.5,0.2-5,0.4-7.5c0-0.2,0.3-0.6,0.5-0.6c0.4,0,1,0.1,1.1,0.3
				c1.8,4.8,3.5,9.6,5.4,14.8c-4.5-3-7.8-0.5-11,1.7c-1.8,1.3-1.8,2.3-0.8,4.2c0.1,0.2,0,0.5,0,0.7c0,0.4,0,0.9,0.2,1.1
				c1.5,1.5,1.6,3.8,3.1,5.1c0.7,0.6,1.8,0.9,2.8,1.1c0.5,0.1,1.3,0.1,1.8-0.2c2.6-1.3,5.1,0.1,7.6,0.2c0.1,0,0.3,0.2,0.4,0.3
				C458.8,204.4,459.6,207.2,460.2,210z M441.5,177c0.9,1.6,1.7,1.6,2.7-0.1c-0.1,1.5-0.2,2.9-0.4,4.2c-0.1,0.4-0.6,0.9-0.9,0.9
				c-2.6-0.1-5.2-0.2-7.8-0.4c-0.8,0-1.2-0.5-1.2-1.3c0.1-1.1,0-2.3,0-2.9c0.9-0.6,1.6-0.9,2.1-1.5c1-1,1.8-2.2,2.9-3.4
				C439.7,174.1,440.6,175.5,441.5,177z M440.5,172.2c1.3,0,2.5,0,3.8,0.1c-0.5,1.3-1,2.4-1.6,3.7
				C441.9,174.7,441.2,173.5,440.5,172.2z M434.9,174.7c-0.2-1-0.4-1.8-0.5-2.7c0-0.1,0.3-0.4,0.5-0.4c0.7,0.1,1.3,0.2,2.1,0.4
				C436.4,172.9,435.7,173.7,434.9,174.7z M445.7,197.9c0.4-0.8,0.5-1.5,0.9-1.9c0.7-0.6,1.5-1,2.3-1.4c0.2-0.1,0.4-0.4,0.6-0.6
				c-0.2-0.1-0.5-0.4-0.7-0.4c-0.8,0.1-1.5,0.3-2.3,0.6c-0.6,0.2-1.2,0.6-1.8,0.9c-0.1-0.1-0.3-0.2-0.4-0.3c0.4-0.6,0.6-1.4,1.2-1.9
				c0.8-0.7,1.9-1.1,2.8-1.7c0.2-0.1,0.4-0.3,0.5-0.5c-0.2-0.1-0.5-0.5-0.7-0.4c-0.9,0.2-1.8,0.5-2.7,0.8c-0.4,0.2-0.8,0.5-1.6,0.5
				c0.3-0.7,0.5-1.5,1-2.1c0.4-0.5,1-0.8,1.6-1.1c3.2-1.9,6.3-1.4,8.3,1.2c2.2,2.9,2,7.2-0.4,9.6c-0.1,0.1-0.4,0.3-0.6,0.3
				c-1.6,0.2-3.1,0.4-4.7,0.6c-0.5,0-1-0.3-1.5-0.4c0.3-0.4,0.5-1,0.8-1.3c0.7-0.5,1.6-0.8,2.5-1.2
				C449,195.7,447.7,197.5,445.7,197.9z M465.7,188.7c1.1,2.1,2.3,4.1,2.1,6.6c-0.1,1.9-1,3.3-2.7,4.2c-2,1-6.1,1.2-8.4,0.4
				c2.8-3.2,2.9-6.6,0.7-10.4c1,0.2,1.8,0.4,2.6,0.5c0.6,0.1,1.1,0.1,1.7,0c0.2,0,0.4-0.3,0.6-0.5c-0.2-0.1-0.4-0.3-0.6-0.4
				c-1.3-0.3-2.6-0.4-3.9-0.7c-0.4-0.1-1-0.6-1.1-1c-1.1-3-2-6.1-3-9.2c-0.6-1.7-1.4-3.3-2.2-4.9c0,0,0-0.1,0-0.1
				c0,0,0.1,0.1,0.1,0.1C457.4,177.4,462.3,182.4,465.7,188.7z M469.6,157.3c-0.9-0.2-1.4,0.2-1.7,1.2c-1.5,4.6-5,7.3-9.2,9
				c-7,2.8-14.3,4.1-21.8,2.9c-6.1-1-12.2-2.1-18.2-3.6c-5.5-1.4-10.5-4.1-14.7-8.1c-6.2-6-7.7-13.4-5.3-21.5c1-3.3,2.8-6.4,4.2-9.7
				c0.7-1.8,1.3-3.7,1.8-5.6c1.1-3.9,3.1-7.4,5.3-10.8c3.4-5.2,7.6-9.6,13.1-12.7c0.3-0.2,0.6-0.3,0.8-0.4
				c8.6,11.4,20.3,18.5,32.8,24.6c3.9,1.9,8.1,3.3,12.1,4.9c1.3,0.5,1.6,1.3,1.5,2.6c-0.3,4.1-0.6,8.1-0.7,12.2
				c0,1.1,0.4,2.3,0.9,3.4c0.6,1.4,2.4,1.8,3.6,0.9c1.8-1.2,3.7-1.4,5.6-0.5c2.2,1.1,2.7,3,2.4,5.3c-0.4,2.7-1.6,5-3.8,6.7
				c-2.1,1.6-4.4,1.4-6.7-0.2C471,157.6,470.3,157.5,469.6,157.3z M476.2,181.4c-1,0.9-2.1,1.8-2.9,2.5c0.1-3.8,0.4-7.6,0.3-11.4
				c-0.1-3.7-1.3-7.3-3.2-10.5c-0.2-0.4,0.1-1.2,0.3-1.7c0-0.1,0.7-0.1,1,0c2.4,0.8,4.8,0.8,7.2,0c0.3-0.1,0.8,0.2,1,0.5
				C483.6,167.6,482.2,175.6,476.2,181.4z"/>
			<path d="M421.4,121.3c-2-0.6-3.8-0.2-4.8,1.5c-0.9,1.4-1.5,3.1-2.2,4.7c0.1,0,0.2,0.1,0.3,0.1c-0.1,0.4-0.2,0.9-0.2,1.3
				c-0.3,2.4,0.8,4.3,3.1,5c2.1,0.7,4.1,0,4.9-2.3c0.8-2.1,1-4.5,1.2-6.8C423.7,123.2,423.1,121.8,421.4,121.3z"/>
			<path d="M450.1,150.9c-3.1,6.7-12.7,9.3-18.8,5.2c-2.5-1.7-4.3-4-5.3-6.8c-0.4-1.2-1.5-0.9-2.3-0.7c-0.1,0-0.2,1-0.1,1.4
				c2.1,5.1,6,7.9,11.1,9c3.4,0.5,6.5,0.3,9.5-0.7c3.7-1.2,6.8-3.2,8.5-6.9c0.1-0.3,0.2-0.7,0.1-0.9
				C452.2,149.8,450.5,150.1,450.1,150.9z"/>
			<path d="M429.5,138.6c0.3,0.4,1.5,0.2,2.3,0.3c-0.1-0.5-0.1-1-0.3-1.4c-0.7-1.3-1.4-2.6-2.2-4.1c1-0.1,1.8-0.2,2.5-0.2
				c1.6,0,2.8-0.7,3.3-2.2c0.5-1.6,0.8-3.3,1.2-5c0.2-0.8-0.1-1.2-0.9-1.2c-0.8-0.1-1.6-0.3-1.8,0.9c-0.3,1.4-0.7,2.9-1,4.3
				c-0.3,1.3-1.1,2.2-2.6,2.4c-0.9,0.1-1.8,0.4-2.7,0.6c-0.2,0.1-0.6,0.6-0.5,0.7C427.6,135.3,428.4,137.1,429.5,138.6z"/>
			<path d="M454.6,132.3c-3.1-0.7-7.5,1.9-8.2,5c0,0.2,0,0.4,0.1,0.5c0.5,0.7,2.2,0.4,2.7-0.3c0.7-1,1.4-2.1,2.3-3
				c1.4-1.4,2.6-1.5,4.1-0.2c1.3,1.2,2.4,2.6,3.3,4.1c0.8,1.1,1.7,1,2.8,0.8c0.1,0,0.3-0.5,0.3-0.6
				C460,135.8,458.1,133.2,454.6,132.3z"/>
			<path d="M419.3,106.6c-1.3,0.8-2.4,2.1-3.5,3.2c-0.3,0.3-0.4,0.8-0.6,1.2c0.5,0.1,1.1,0.2,1.6,0.2c0.2,0,0.5-0.3,0.6-0.5
				c0.6-0.7,1.1-1.5,1.8-2.2c2.3-2.5,4.2-2.2,5.7,0.8c0.1,0.2,0.2,0.4,0.3,0.6c0.2,0.3,0.5,0.5,1,1c0.4-0.5,1.2-1,1.1-1.2
				C426.4,106.3,422.5,104.7,419.3,106.6z"/>
		</g>
	</g>
	<g>
		<path class="st9" d="M455.5,207.1l-9.8,9.7h10.6l16.2-16h-10.7l-6.3,6.2L455.5,207.1L455.5,207.1z M506.3,207.1l-9.8,9.7H507
			l16.2-16h-10.7l-6.3,6.2L506.3,207.1L506.3,207.1z M487.3,200.8l-16.3,16h10.7l16.3-16H487.3z M436.5,200.8l-16.2,16H431l16.2-16
			H436.5z M151.2,207.1l-9.8,9.7H152l16.2-16h-10.7l-6.3,6.2V207.1z M132.2,200.8l-16.2,16h10.7l16.2-16H132.2z M201.9,207.1
			l-9.8,9.7h10.6l16.2-16h-10.7l-6.3,6.2V207.1z M182.9,200.8l-16.2,16h10.7l16.2-16H182.9z M100.5,207.1l-9.9,9.7h10.6l16.2-16
			h-10.7l-6.3,6.2v0.1C100.4,207.1,100.5,207.1,100.5,207.1z M49.7,207.1l-9.8,9.7h10.6l16.2-16H56l-6.3,6.2V207.1z M81.5,200.8
			l-16.3,16h10.7l16.3-16H81.5z M335.1,200.8l-16.2,16h10.7l16.2-16H335.1z M354.1,207.1l-9.8,9.7H355l16.2-16h-10.7l-6.3,6.2
			L354.1,207.1L354.1,207.1z M404.8,207.1l-9.8,9.7h10.6l16.2-16h-10.7l-6.3,6.2L404.8,207.1L404.8,207.1z M385.8,200.8l-16.2,16
			h10.7l16.2-16H385.8z M233.6,200.8l-16.2,16h10.7l16.2-16H233.6z M252.6,207.1l-9.8,9.7h10.6l16.2-16h-10.7l-6.3,6.2L252.6,207.1
			L252.6,207.1z M303.4,207.1l-9.8,9.7h10.6l16.2-16h-10.7l-6.3,6.2L303.4,207.1L303.4,207.1z M284.4,200.8l-16.2,16h10.7l16.2-16
			H284.4z M-1,207v9.8h0.8l16.2-16H5.3L-1,207z M30.7,200.8l-16.2,16h10.7l16.2-16H30.7z"/>
	</g>
	<line class="st35" x1="0" y1="208.8" x2="522.2" y2="208.8"/>
</g>
</svg>
