<?xml version="1.0" encoding="utf-8"?>
<!-- Generator: Adobe Illustrator 24.0.1, SVG Export Plug-In . SVG Version: 6.00 Build 0)  -->
<svg version="1.1" id="レイヤー_1" xmlns="http://www.w3.org/2000/svg" xmlns:xlink="http://www.w3.org/1999/xlink" x="0px"
	 y="0px" viewBox="0 0 572.3 86.8" style="enable-background:new 0 0 572.3 86.8;" xml:space="preserve">
<style type="text/css">
	.st0{fill:#E60012;}
	.st1{fill:#040000;}
	.st2{fill:#E60000;}
	.st3{fill:#FFFFFF;}
	.st4{enable-background:new    ;}
	.st5{fill:#FFE501;}
	.st6{fill:#1E1D1D;}
</style>
<path class="st0" d="M546.4,465.2h-195c-8.4,0-15.1-6.8-15.1-15.1l0,0c0-8.4,6.8-15.1,15.1-15.1h195c8.4,0,15.1,6.8,15.1,15.1l0,0
	C561.5,458.4,554.7,465.2,546.4,465.2z"/>
<polygon class="st1" points="-746.3,603.5 -759,616 -752.5,616 -739.8,603.5 "/>
<polygon class="st1" points="-735.5,603.5 -748.2,616 -741.6,616 -729,603.5 "/>
<polygon class="st1" points="-724.7,603.5 -737.3,616 -730.8,616 -718.1,603.5 "/>
<polygon class="st1" points="-713.8,603.5 -726.5,616 -720,616 -707.3,603.5 "/>
<polygon class="st1" points="-703,603.5 -715.6,616 -709.1,616 -696.5,603.5 "/>
<polygon class="st1" points="-692.1,603.5 -704.8,616 -698.3,616 -685.6,603.5 "/>
<polygon class="st1" points="-681.3,603.5 -693.9,616 -687.4,616 -674.8,603.5 "/>
<polygon class="st1" points="-670.4,603.5 -683.1,616 -676.6,616 -663.9,603.5 "/>
<polygon class="st1" points="-659.6,603.5 -672.2,616 -665.7,616 -653.1,603.5 "/>
<polygon class="st1" points="-648.7,603.5 -661.4,616 -654.9,616 -642.2,603.5 "/>
<polygon class="st1" points="-637.9,603.5 -650.5,616 -644,616 -631.4,603.5 "/>
<polygon class="st1" points="-627,603.5 -639.7,616 -633.2,616 -620.5,603.5 "/>
<polygon class="st1" points="-616.2,603.5 -628.8,616 -622.3,616 -609.7,603.5 "/>
<polygon class="st1" points="-605.3,603.5 -618,616 -611.5,616 -598.8,603.5 "/>
<polygon class="st1" points="-594.5,603.5 -607.1,616 -600.6,616 -588,603.5 "/>
<polygon class="st1" points="-583.6,603.5 -596.3,616 -589.8,616 -577.1,603.5 "/>
<polygon class="st1" points="-572.8,603.5 -585.5,616 -578.9,616 -566.3,603.5 "/>
<polygon class="st1" points="-562,603.5 -574.6,616 -568.1,616 -555.4,603.5 "/>
<polygon class="st1" points="-551.1,603.5 -563.8,616 -557.3,616 -544.6,603.5 "/>
<polygon class="st1" points="-540.3,603.5 -552.9,616 -546.4,616 -533.8,603.5 "/>
<polygon class="st1" points="-529.4,603.5 -542.1,616 -535.6,616 -522.9,603.5 "/>
<polygon class="st1" points="-518.6,603.5 -531.2,616 -524.7,616 -512.1,603.5 "/>
<polygon class="st1" points="-507.7,603.5 -520.4,616 -513.9,616 -501.2,603.5 "/>
<polygon class="st1" points="-496.9,603.5 -509.5,616 -503,616 -490.4,603.5 "/>
<polygon class="st1" points="-486,603.5 -498.7,616 -492.2,616 -479.5,603.5 "/>
<polygon class="st1" points="-475.2,603.5 -487.8,616 -481.3,616 -468.7,603.5 "/>
<polygon class="st1" points="-464.3,603.5 -477,616 -470.5,616 -457.8,603.5 "/>
<polygon class="st1" points="-453.5,603.5 -466.1,616 -459.6,616 -447,603.5 "/>
<polygon class="st1" points="-442.6,603.5 -455.3,616 -448.8,616 -436.1,603.5 "/>
<polygon class="st1" points="-431.8,603.5 -444.5,616 -437.9,616 -425.3,603.5 "/>
<polygon class="st1" points="-420.9,603.5 -433.6,616 -427.1,616 -414.4,603.5 "/>
<polygon class="st1" points="-410.1,603.5 -422.8,616 -416.3,616 -403.6,603.5 "/>
<polygon class="st1" points="-399.3,603.5 -411.9,616 -405.4,616 -392.7,603.5 "/>
<polygon class="st1" points="-388.4,603.5 -401.1,616 -394.6,616 -381.9,603.5 "/>
<polygon class="st1" points="-377.6,603.5 -390.2,616 -383.7,616 -371.1,603.5 "/>
<polygon class="st1" points="-366.7,603.5 -379.4,616 -372.9,616 -360.2,603.5 "/>
<polygon class="st1" points="-355.9,603.5 -368.5,616 -362,616 -349.4,603.5 "/>
<polygon class="st1" points="-345,603.5 -357.7,616 -351.2,616 -338.5,603.5 "/>
<polygon class="st1" points="-334.2,603.5 -346.8,616 -340.3,616 -327.7,603.5 "/>
<polygon class="st1" points="-323.3,603.5 -336,616 -329.5,616 -316.8,603.5 "/>
<polygon class="st1" points="-312.5,603.5 -325.1,616 -318.6,616 -306,603.5 "/>
<polygon class="st1" points="-301.6,603.5 -314.3,616 -307.8,616 -295.1,603.5 "/>
<polygon class="st1" points="-290.8,603.5 -303.4,616 -296.9,616 -284.3,603.5 "/>
<polygon class="st1" points="-279.9,603.5 -292.6,616 -286.1,616 -273.4,603.5 "/>
<polygon class="st1" points="-269.1,603.5 -281.8,616 -275.2,616 -262.6,603.5 "/>
<polygon class="st1" points="-258.3,603.5 -270.9,616 -264.4,616 -251.7,603.5 "/>
<polygon class="st1" points="-247.4,603.5 -260.1,616 -253.6,616 -240.9,603.5 "/>
<polygon class="st1" points="-236.6,603.5 -249.2,616 -242.7,616 -230.1,603.5 "/>
<polygon class="st1" points="-225.7,603.5 -238.4,616 -231.9,616 -219.2,603.5 "/>
<polygon class="st1" points="-214.9,603.5 -227.5,616 -221,616 -208.4,603.5 "/>
<polygon class="st1" points="-204,603.5 -216.7,616 -210.2,616 -197.5,603.5 "/>
<polygon class="st1" points="-193.2,603.5 -205.8,616 -199.3,616 -186.7,603.5 "/>
<text transform="matrix(1 0 0 1 -674.9133 580.5923)" style="font-family:'HiraKakuStd-W8-83pv-RKSJ-H'; font-size:27.528px;">出典情報の詳細はこちらからどうぞ。</text>
<g>
	<g>
		<path class="st2" d="M-722.8,545.7c-0.9-1.6-2.5-2.5-4.3-2.5s-3.4,0.9-4.3,2.5l-20.8,36.3c-0.9,1.6-0.9,3.4,0,5s2.5,2.5,4.3,2.5
			l41.7-0.2c1.8,0,3.4-0.9,4.3-2.5c0.9-1.6,0.9-3.4,0-5L-722.8,545.7z"/>
		<path class="st3" d="M-747.9,590.7c-2.2,0-4.3-1.2-5.4-3.1c-1.1-1.9-1.1-4.3,0-6.2l20.7-36.2c1.1-2,3.1-3.1,5.4-3.1l0,0
			c2.2,0,4.3,1.2,5.4,3.1l21,36.1c1.1,1.9,1.1,4.3,0,6.2c-1.1,2-3.1,3.1-5.4,3.1L-747.9,590.7C-747.8,590.7-747.9,590.7-747.9,590.7
			z M-727.2,544.5L-727.2,544.5c-1.4,0-2.6,0.7-3.3,1.9l-20.6,36.2c-0.7,1.2-0.7,2.6,0,3.8c0.7,1.1,1.9,1.8,3.2,1.8l0,0l41.7-0.2
			c1.4,0,2.6-0.7,3.2-1.9c0.7-1.2,0.7-2.6,0-3.8l-20.9-36C-724.6,545.2-725.8,544.5-727.2,544.5z"/>
	</g>
	<path class="st2" d="M-698.6,579.9l-21-36.1c-1.6-2.7-4.4-4.4-7.6-4.3l0,0c-3.2,0-6,1.7-7.6,4.4l-20.7,36.2c-1.6,2.7-1.6,6,0,8.7
		s4.4,4.4,7.6,4.3l41.7-0.2c3.2,0,6-1.7,7.6-4.4C-697,585.9-697,582.6-698.6,579.9z M-701.8,586.8c-0.9,1.6-2.5,2.5-4.3,2.5
		l-41.7,0.2c-1.8,0-3.4-0.9-4.3-2.5c-0.9-1.6-0.9-3.4,0-5l20.7-36.2c0.9-1.6,2.5-2.5,4.3-2.5s3.4,0.9,4.3,2.5l21,36.1
		C-700.9,583.3-700.9,585.2-701.8,586.8z"/>
</g>
<text transform="matrix(1 0 0 1 -735.5957 576.7914)" class="st3" style="font-family:'HiraKakuStd-W8-83pv-RKSJ-H'; font-size:22px;">5</text>
<g>
	<path class="st3" d="M-729.1,584.1v-3.5h4v3.5H-729.1z"/>
</g>
<polygon class="st1" points="-746.3,486.8 -759,499.3 -752.5,499.3 -739.8,486.8 "/>
<polygon class="st1" points="-735.5,486.8 -748.2,499.3 -741.6,499.3 -729,486.8 "/>
<polygon class="st1" points="-724.7,486.8 -737.3,499.3 -730.8,499.3 -718.1,486.8 "/>
<polygon class="st1" points="-713.8,486.8 -726.5,499.3 -720,499.3 -707.3,486.8 "/>
<polygon class="st1" points="-703,486.8 -715.6,499.3 -709.1,499.3 -696.5,486.8 "/>
<polygon class="st1" points="-692.1,486.8 -704.8,499.3 -698.3,499.3 -685.6,486.8 "/>
<polygon class="st1" points="-681.3,486.8 -693.9,499.3 -687.4,499.3 -674.8,486.8 "/>
<polygon class="st1" points="-670.4,486.8 -683.1,499.3 -676.6,499.3 -663.9,486.8 "/>
<polygon class="st1" points="-659.6,486.8 -672.2,499.3 -665.7,499.3 -653.1,486.8 "/>
<polygon class="st1" points="-648.7,486.8 -661.4,499.3 -654.9,499.3 -642.2,486.8 "/>
<polygon class="st1" points="-637.9,486.8 -650.5,499.3 -644,499.3 -631.4,486.8 "/>
<polygon class="st1" points="-627,486.8 -639.7,499.3 -633.2,499.3 -620.5,486.8 "/>
<polygon class="st1" points="-616.2,486.8 -628.8,499.3 -622.3,499.3 -609.7,486.8 "/>
<polygon class="st1" points="-605.3,486.8 -618,499.3 -611.5,499.3 -598.8,486.8 "/>
<polygon class="st1" points="-594.5,486.8 -607.1,499.3 -600.6,499.3 -588,486.8 "/>
<polygon class="st1" points="-583.6,486.8 -596.3,499.3 -589.8,499.3 -577.1,486.8 "/>
<polygon class="st1" points="-572.8,486.8 -585.5,499.3 -578.9,499.3 -566.3,486.8 "/>
<polygon class="st1" points="-562,486.8 -574.6,499.3 -568.1,499.3 -555.4,486.8 "/>
<polygon class="st1" points="-551.1,486.8 -563.8,499.3 -557.3,499.3 -544.6,486.8 "/>
<polygon class="st1" points="-540.3,486.8 -552.9,499.3 -546.4,499.3 -533.8,486.8 "/>
<polygon class="st1" points="-529.4,486.8 -542.1,499.3 -535.6,499.3 -522.9,486.8 "/>
<polygon class="st1" points="-518.6,486.8 -531.2,499.3 -524.7,499.3 -512.1,486.8 "/>
<polygon class="st1" points="-507.7,486.8 -520.4,499.3 -513.9,499.3 -501.2,486.8 "/>
<polygon class="st1" points="-496.9,486.8 -509.5,499.3 -503,499.3 -490.4,486.8 "/>
<polygon class="st1" points="-486,486.8 -498.7,499.3 -492.2,499.3 -479.5,486.8 "/>
<polygon class="st1" points="-475.2,486.8 -487.8,499.3 -481.3,499.3 -468.7,486.8 "/>
<polygon class="st1" points="-464.3,486.8 -477,499.3 -470.5,499.3 -457.8,486.8 "/>
<polygon class="st1" points="-453.5,486.8 -466.1,499.3 -459.6,499.3 -447,486.8 "/>
<polygon class="st1" points="-442.6,486.8 -455.3,499.3 -448.8,499.3 -436.1,486.8 "/>
<polygon class="st1" points="-431.8,486.8 -444.5,499.3 -437.9,499.3 -425.3,486.8 "/>
<polygon class="st1" points="-420.9,486.8 -433.6,499.3 -427.1,499.3 -414.4,486.8 "/>
<polygon class="st1" points="-410.1,486.8 -422.8,499.3 -416.3,499.3 -403.6,486.8 "/>
<polygon class="st1" points="-399.3,486.8 -411.9,499.3 -405.4,499.3 -392.7,486.8 "/>
<polygon class="st1" points="-388.4,486.8 -401.1,499.3 -394.6,499.3 -381.9,486.8 "/>
<polygon class="st1" points="-377.6,486.8 -390.2,499.3 -383.7,499.3 -371.1,486.8 "/>
<polygon class="st1" points="-366.7,486.8 -379.4,499.3 -372.9,499.3 -360.2,486.8 "/>
<polygon class="st1" points="-355.9,486.8 -368.5,499.3 -362,499.3 -349.4,486.8 "/>
<polygon class="st1" points="-345,486.8 -357.7,499.3 -351.2,499.3 -338.5,486.8 "/>
<polygon class="st1" points="-334.2,486.8 -346.8,499.3 -340.3,499.3 -327.7,486.8 "/>
<polygon class="st1" points="-323.3,486.8 -336,499.3 -329.5,499.3 -316.8,486.8 "/>
<polygon class="st1" points="-312.5,486.8 -325.1,499.3 -318.6,499.3 -306,486.8 "/>
<polygon class="st1" points="-301.6,486.8 -314.3,499.3 -307.8,499.3 -295.1,486.8 "/>
<polygon class="st1" points="-290.8,486.8 -303.4,499.3 -296.9,499.3 -284.3,486.8 "/>
<polygon class="st1" points="-279.9,486.8 -292.6,499.3 -286.1,499.3 -273.4,486.8 "/>
<polygon class="st1" points="-269.1,486.8 -281.8,499.3 -275.2,499.3 -262.6,486.8 "/>
<polygon class="st1" points="-258.3,486.8 -270.9,499.3 -264.4,499.3 -251.7,486.8 "/>
<polygon class="st1" points="-247.4,486.8 -260.1,499.3 -253.6,499.3 -240.9,486.8 "/>
<polygon class="st1" points="-236.6,486.8 -249.2,499.3 -242.7,499.3 -230.1,486.8 "/>
<polygon class="st1" points="-225.7,486.8 -238.4,499.3 -231.9,499.3 -219.2,486.8 "/>
<polygon class="st1" points="-214.9,486.8 -227.5,499.3 -221,499.3 -208.4,486.8 "/>
<polygon class="st1" points="-204,486.8 -216.7,499.3 -210.2,499.3 -197.5,486.8 "/>
<polygon class="st1" points="-193.2,486.8 -205.8,499.3 -199.3,499.3 -186.7,486.8 "/>
<text transform="matrix(1 0 0 1 -700.8571 462.2667)" style="font-family:'HiraKakuStd-W8-83pv-RKSJ-H'; font-size:27.528px;">これまでの集計</text>
<text transform="matrix(1 0 0 1 -508.1571 463.41)" style="font-family:'HiraKakuStd-W8-83pv-RKSJ-H'; font-size:18px;">（オープンデータ）</text>
<text transform="matrix(1 0 0 1 -346.1571 462.2667)" style="font-family:'HiraKakuStd-W8-83pv-RKSJ-H'; font-size:27.528px;">を見てみる。</text>
<g>
	<g>
		<path class="st2" d="M-722.8,429c-0.9-1.6-2.5-2.5-4.3-2.5s-3.4,0.9-4.3,2.5l-20.8,36.3c-0.9,1.6-0.9,3.4,0,5s2.5,2.5,4.3,2.5
			l41.7-0.2c1.8,0,3.4-0.9,4.3-2.5c0.9-1.6,0.9-3.4,0-5L-722.8,429z"/>
		<path class="st3" d="M-747.9,474c-2.2,0-4.3-1.2-5.4-3.1c-1.1-1.9-1.1-4.3,0-6.2l20.7-36.2c1.1-2,3.1-3.1,5.4-3.1l0,0
			c2.2,0,4.3,1.2,5.4,3.1l21,36.1c1.1,1.9,1.1,4.3,0,6.2c-1.1,2-3.1,3.1-5.4,3.1L-747.9,474C-747.8,474-747.9,474-747.9,474z
			 M-727.2,427.8L-727.2,427.8c-1.4,0-2.6,0.7-3.3,1.9l-20.6,36.2c-0.7,1.2-0.7,2.6,0,3.8c0.7,1.1,1.9,1.8,3.2,1.8l0,0l41.7-0.2
			c1.4,0,2.6-0.7,3.2-1.9c0.7-1.2,0.7-2.6,0-3.8l-20.9-36C-724.6,428.5-725.8,427.8-727.2,427.8z"/>
	</g>
	<path class="st2" d="M-698.6,463.2l-21-36.1c-1.6-2.7-4.4-4.4-7.6-4.3l0,0c-3.2,0-6,1.7-7.6,4.4l-20.7,36.2c-1.6,2.7-1.6,6,0,8.7
		s4.4,4.4,7.6,4.3l41.7-0.2c3.2,0,6-1.7,7.6-4.4C-697,469.2-697,465.9-698.6,463.2z M-701.8,470.1c-0.9,1.6-2.5,2.5-4.3,2.5
		l-41.7,0.2c-1.8,0-3.4-0.9-4.3-2.5c-0.9-1.6-0.9-3.4,0-5l20.7-36.2c0.9-1.6,2.5-2.5,4.3-2.5s3.4,0.9,4.3,2.5l21,36.1
		C-700.9,466.6-700.9,468.5-701.8,470.1z"/>
</g>
<text transform="matrix(1 0 0 1 -735.5957 460.0668)" class="st3" style="font-family:'HiraKakuStd-W8-83pv-RKSJ-H'; font-size:22px;">4</text>
<g>
	<path class="st3" d="M-729.1,467.4v-3.5h4v3.5H-729.1z"/>
</g>
<polygon class="st1" points="-746.3,365.7 -759,378.2 -752.5,378.2 -739.8,365.7 "/>
<polygon class="st1" points="-735.5,365.7 -748.2,378.2 -741.6,378.2 -729,365.7 "/>
<polygon class="st1" points="-724.7,365.7 -737.3,378.2 -730.8,378.2 -718.1,365.7 "/>
<polygon class="st1" points="-713.8,365.7 -726.5,378.2 -720,378.2 -707.3,365.7 "/>
<polygon class="st1" points="-703,365.7 -715.6,378.2 -709.1,378.2 -696.5,365.7 "/>
<polygon class="st1" points="-692.1,365.7 -704.8,378.2 -698.3,378.2 -685.6,365.7 "/>
<polygon class="st1" points="-681.3,365.7 -693.9,378.2 -687.4,378.2 -674.8,365.7 "/>
<polygon class="st1" points="-670.4,365.7 -683.1,378.2 -676.6,378.2 -663.9,365.7 "/>
<polygon class="st1" points="-659.6,365.7 -672.2,378.2 -665.7,378.2 -653.1,365.7 "/>
<polygon class="st1" points="-648.7,365.7 -661.4,378.2 -654.9,378.2 -642.2,365.7 "/>
<polygon class="st1" points="-637.9,365.7 -650.5,378.2 -644,378.2 -631.4,365.7 "/>
<polygon class="st1" points="-627,365.7 -639.7,378.2 -633.2,378.2 -620.5,365.7 "/>
<polygon class="st1" points="-616.2,365.7 -628.8,378.2 -622.3,378.2 -609.7,365.7 "/>
<polygon class="st1" points="-605.3,365.7 -618,378.2 -611.5,378.2 -598.8,365.7 "/>
<polygon class="st1" points="-594.5,365.7 -607.1,378.2 -600.6,378.2 -588,365.7 "/>
<polygon class="st1" points="-583.6,365.7 -596.3,378.2 -589.8,378.2 -577.1,365.7 "/>
<polygon class="st1" points="-572.8,365.7 -585.5,378.2 -578.9,378.2 -566.3,365.7 "/>
<polygon class="st1" points="-562,365.7 -574.6,378.2 -568.1,378.2 -555.4,365.7 "/>
<polygon class="st1" points="-551.1,365.7 -563.8,378.2 -557.3,378.2 -544.6,365.7 "/>
<polygon class="st1" points="-540.3,365.7 -552.9,378.2 -546.4,378.2 -533.8,365.7 "/>
<polygon class="st1" points="-529.4,365.7 -542.1,378.2 -535.6,378.2 -522.9,365.7 "/>
<polygon class="st1" points="-518.6,365.7 -531.2,378.2 -524.7,378.2 -512.1,365.7 "/>
<polygon class="st1" points="-507.7,365.7 -520.4,378.2 -513.9,378.2 -501.2,365.7 "/>
<polygon class="st1" points="-496.9,365.7 -509.5,378.2 -503,378.2 -490.4,365.7 "/>
<polygon class="st1" points="-486,365.7 -498.7,378.2 -492.2,378.2 -479.5,365.7 "/>
<polygon class="st1" points="-475.2,365.7 -487.8,378.2 -481.3,378.2 -468.7,365.7 "/>
<polygon class="st1" points="-464.3,365.7 -477,378.2 -470.5,378.2 -457.8,365.7 "/>
<polygon class="st1" points="-453.5,365.7 -466.1,378.2 -459.6,378.2 -447,365.7 "/>
<polygon class="st1" points="-442.6,365.7 -455.3,378.2 -448.8,378.2 -436.1,365.7 "/>
<polygon class="st1" points="-431.8,365.7 -444.5,378.2 -437.9,378.2 -425.3,365.7 "/>
<polygon class="st1" points="-420.9,365.7 -433.6,378.2 -427.1,378.2 -414.4,365.7 "/>
<polygon class="st1" points="-410.1,365.7 -422.8,378.2 -416.3,378.2 -403.6,365.7 "/>
<polygon class="st1" points="-399.3,365.7 -411.9,378.2 -405.4,378.2 -392.7,365.7 "/>
<polygon class="st1" points="-388.4,365.7 -401.1,378.2 -394.6,378.2 -381.9,365.7 "/>
<polygon class="st1" points="-377.6,365.7 -390.2,378.2 -383.7,378.2 -371.1,365.7 "/>
<polygon class="st1" points="-366.7,365.7 -379.4,378.2 -372.9,378.2 -360.2,365.7 "/>
<polygon class="st1" points="-355.9,365.7 -368.5,378.2 -362,378.2 -349.4,365.7 "/>
<polygon class="st1" points="-345,365.7 -357.7,378.2 -351.2,378.2 -338.5,365.7 "/>
<polygon class="st1" points="-334.2,365.7 -346.8,378.2 -340.3,378.2 -327.7,365.7 "/>
<polygon class="st1" points="-323.3,365.7 -336,378.2 -329.5,378.2 -316.8,365.7 "/>
<polygon class="st1" points="-312.5,365.7 -325.1,378.2 -318.6,378.2 -306,365.7 "/>
<polygon class="st1" points="-301.6,365.7 -314.3,378.2 -307.8,378.2 -295.1,365.7 "/>
<polygon class="st1" points="-290.8,365.7 -303.4,378.2 -296.9,378.2 -284.3,365.7 "/>
<polygon class="st1" points="-279.9,365.7 -292.6,378.2 -286.1,378.2 -273.4,365.7 "/>
<polygon class="st1" points="-269.1,365.7 -281.8,378.2 -275.2,378.2 -262.6,365.7 "/>
<polygon class="st1" points="-258.3,365.7 -270.9,378.2 -264.4,378.2 -251.7,365.7 "/>
<polygon class="st1" points="-247.4,365.7 -260.1,378.2 -253.6,378.2 -240.9,365.7 "/>
<polygon class="st1" points="-236.6,365.7 -249.2,378.2 -242.7,378.2 -230.1,365.7 "/>
<polygon class="st1" points="-225.7,365.7 -238.4,378.2 -231.9,378.2 -219.2,365.7 "/>
<polygon class="st1" points="-214.9,365.7 -227.5,378.2 -221,378.2 -208.4,365.7 "/>
<polygon class="st1" points="-204,365.7 -216.7,378.2 -210.2,378.2 -197.5,365.7 "/>
<polygon class="st1" points="-193.2,365.7 -205.8,378.2 -199.3,378.2 -186.7,365.7 "/>
<text transform="matrix(1 0 0 1 -688.6769 342.7932)" style="font-family:'HiraKakuStd-W8-83pv-RKSJ-H'; font-size:27.528px;">早速、あなたのお宅の備蓄をチェック！</text>
<g>
	<g>
		<path class="st2" d="M-722.8,307.9c-0.9-1.6-2.5-2.5-4.3-2.5s-3.4,0.9-4.3,2.5l-20.8,36.3c-0.9,1.6-0.9,3.4,0,5s2.5,2.5,4.3,2.5
			l41.7-0.2c1.8,0,3.4-0.9,4.3-2.5c0.9-1.6,0.9-3.4,0-5L-722.8,307.9z"/>
		<path class="st3" d="M-747.9,352.9c-2.2,0-4.3-1.2-5.4-3.1c-1.1-1.9-1.1-4.3,0-6.2l20.7-36.2c1.1-2,3.1-3.1,5.4-3.1l0,0
			c2.2,0,4.3,1.2,5.4,3.1l21,36.1c1.1,1.9,1.1,4.3,0,6.2c-1.1,2-3.1,3.1-5.4,3.1L-747.9,352.9C-747.8,352.9-747.9,352.9-747.9,352.9
			z M-727.2,306.7L-727.2,306.7c-1.4,0-2.6,0.7-3.3,1.9l-20.6,36.2c-0.7,1.2-0.7,2.6,0,3.8c0.7,1.1,1.9,1.8,3.2,1.8l0,0l41.7-0.2
			c1.4,0,2.6-0.7,3.2-1.9c0.7-1.2,0.7-2.6,0-3.8l-20.9-36C-724.6,307.4-725.8,306.7-727.2,306.7z"/>
	</g>
	<path class="st2" d="M-698.6,342.1l-21-36.1c-1.6-2.7-4.4-4.4-7.6-4.3l0,0c-3.2,0-6,1.7-7.6,4.4l-20.7,36.2c-1.6,2.7-1.6,6,0,8.7
		s4.4,4.4,7.6,4.3l41.7-0.2c3.2,0,6-1.7,7.6-4.4C-697,348.1-697,344.8-698.6,342.1z M-701.8,349c-0.9,1.6-2.5,2.5-4.3,2.5l-41.7,0.2
		c-1.8,0-3.4-0.9-4.3-2.5c-0.9-1.6-0.9-3.4,0-5l20.7-36.2c0.9-1.6,2.5-2.5,4.3-2.5s3.4,0.9,4.3,2.5l21,36.1
		C-700.9,345.5-700.9,347.4-701.8,349z"/>
</g>
<text transform="matrix(1 0 0 1 -735.5957 338.9924)" class="st3" style="font-family:'HiraKakuStd-W8-83pv-RKSJ-H'; font-size:22px;">3</text>
<g>
	<path class="st3" d="M-729.1,346.3v-3.5h4v3.5H-729.1z"/>
</g>
<polygon class="st1" points="12.7,480.5 0,493 6.5,493 19.2,480.5 "/>
<polygon class="st1" points="23.5,480.5 10.8,493 17.4,493 30,480.5 "/>
<polygon class="st1" points="34.3,480.5 21.7,493 28.2,493 40.9,480.5 "/>
<polygon class="st1" points="45.2,480.5 32.5,493 39,493 51.7,480.5 "/>
<polygon class="st1" points="56,480.5 43.4,493 49.9,493 62.5,480.5 "/>
<polygon class="st1" points="66.9,480.5 54.2,493 60.7,493 73.4,480.5 "/>
<polygon class="st1" points="77.7,480.5 65.1,493 71.6,493 84.2,480.5 "/>
<polygon class="st1" points="88.6,480.5 75.9,493 82.4,493 95.1,480.5 "/>
<polygon class="st1" points="99.4,480.5 86.8,493 93.3,493 105.9,480.5 "/>
<polygon class="st1" points="110.3,480.5 97.6,493 104.1,493 116.8,480.5 "/>
<polygon class="st1" points="121.1,480.5 108.5,493 115,493 127.6,480.5 "/>
<polygon class="st1" points="132,480.5 119.3,493 125.8,493 138.5,480.5 "/>
<polygon class="st1" points="142.8,480.5 130.2,493 136.7,493 149.3,480.5 "/>
<polygon class="st1" points="153.7,480.5 141,493 147.5,493 160.2,480.5 "/>
<polygon class="st1" points="164.5,480.5 151.9,493 158.4,493 171,480.5 "/>
<polygon class="st1" points="175.4,480.5 162.7,493 169.2,493 181.9,480.5 "/>
<polygon class="st1" points="186.2,480.5 173.5,493 180.1,493 192.7,480.5 "/>
<polygon class="st1" points="197,480.5 184.4,493 190.9,493 203.6,480.5 "/>
<polygon class="st1" points="207.9,480.5 195.2,493 201.7,493 214.4,480.5 "/>
<polygon class="st1" points="218.7,480.5 206.1,493 212.6,493 225.2,480.5 "/>
<polygon class="st1" points="229.6,480.5 216.9,493 223.4,493 236.1,480.5 "/>
<polygon class="st1" points="240.4,480.5 227.8,493 234.3,493 246.9,480.5 "/>
<polygon class="st1" points="251.3,480.5 238.6,493 245.1,493 257.8,480.5 "/>
<polygon class="st1" points="262.1,480.5 249.5,493 256,493 268.6,480.5 "/>
<polygon class="st1" points="273,480.5 260.3,493 266.8,493 279.5,480.5 "/>
<polygon class="st1" points="283.8,480.5 271.2,493 277.7,493 290.3,480.5 "/>
<polygon class="st1" points="294.7,480.5 282,493 288.5,493 301.2,480.5 "/>
<polygon class="st1" points="305.5,480.5 292.9,493 299.4,493 312,480.5 "/>
<polygon class="st1" points="316.4,480.5 303.7,493 310.2,493 322.9,480.5 "/>
<polygon class="st1" points="327.2,480.5 314.5,493 321.1,493 333.7,480.5 "/>
<polygon class="st1" points="338.1,480.5 325.4,493 331.9,493 344.6,480.5 "/>
<polygon class="st1" points="348.9,480.5 336.2,493 342.7,493 355.4,480.5 "/>
<polygon class="st1" points="359.7,480.5 347.1,493 353.6,493 366.3,480.5 "/>
<polygon class="st1" points="370.6,480.5 357.9,493 364.4,493 377.1,480.5 "/>
<polygon class="st1" points="381.4,480.5 368.8,493 375.3,493 387.9,480.5 "/>
<polygon class="st1" points="392.3,480.5 379.6,493 386.1,493 398.8,480.5 "/>
<polygon class="st1" points="403.1,480.5 390.5,493 397,493 409.6,480.5 "/>
<polygon class="st1" points="414,480.5 401.3,493 407.8,493 420.5,480.5 "/>
<polygon class="st1" points="424.8,480.5 412.2,493 418.7,493 431.3,480.5 "/>
<polygon class="st1" points="435.7,480.5 423,493 429.5,493 442.2,480.5 "/>
<polygon class="st1" points="446.5,480.5 433.9,493 440.4,493 453,480.5 "/>
<polygon class="st1" points="457.4,480.5 444.7,493 451.2,493 463.9,480.5 "/>
<polygon class="st1" points="468.2,480.5 455.6,493 462.1,493 474.7,480.5 "/>
<polygon class="st1" points="479.1,480.5 466.4,493 472.9,493 485.6,480.5 "/>
<polygon class="st1" points="489.9,480.5 477.2,493 483.8,493 496.4,480.5 "/>
<polygon class="st1" points="500.7,480.5 488.1,493 494.6,493 507.3,480.5 "/>
<polygon class="st1" points="511.6,480.5 498.9,493 505.4,493 518.1,480.5 "/>
<polygon class="st1" points="522.4,480.5 509.8,493 516.3,493 528.9,480.5 "/>
<polygon class="st1" points="533.3,480.5 520.6,493 527.1,493 539.8,480.5 "/>
<polygon class="st1" points="544.1,480.5 531.5,493 538,493 550.6,480.5 "/>
<polygon class="st1" points="555,480.5 542.3,493 548.8,493 561.5,480.5 "/>
<polygon class="st1" points="565.8,480.5 553.2,493 559.7,493 572.3,480.5 "/>
<text transform="matrix(1 0 0 1 73.4476 457.6435)" style="font-family:'HiraKakuStd-W8-83pv-RKSJ-H'; font-size:27.528px;">家庭備蓄をチェック!</text>
<text transform="matrix(1 0 0 1 351.4628 456.8422)" class="st3" style="font-family:'HiraKakuStd-W8-83pv-RKSJ-H'; font-size:21px;">１週間分 × 世帯人数</text>
<g>
	<g>
		<path class="st2" d="M36.2,422.7c-0.9-1.6-2.5-2.5-4.3-2.5s-3.4,0.9-4.3,2.5L6.8,459c-0.9,1.6-0.9,3.4,0,5s2.5,2.5,4.3,2.5
			l41.7-0.2c1.8,0,3.4-0.9,4.3-2.5c0.9-1.6,0.9-3.4,0-5L36.2,422.7z"/>
		<path class="st3" d="M11.1,467.7c-2.2,0-4.3-1.2-5.4-3.1s-1.1-4.3,0-6.2l20.7-36.2c1.1-2,3.1-3.1,5.4-3.1l0,0
			c2.2,0,4.3,1.2,5.4,3.1l21,36.1c1.1,1.9,1.1,4.3,0,6.2c-1.1,2-3.1,3.1-5.4,3.1L11.1,467.7C11.2,467.7,11.1,467.7,11.1,467.7z
			 M31.8,421.5L31.8,421.5c-1.4,0-2.6,0.7-3.3,1.9L7.9,459.6c-0.7,1.2-0.7,2.6,0,3.8c0.7,1.1,1.9,1.8,3.2,1.8l0,0l41.7-0.2
			c1.4,0,2.6-0.7,3.2-1.9c0.7-1.2,0.7-2.6,0-3.8l-20.9-36C34.4,422.2,33.2,421.5,31.8,421.5z"/>
	</g>
	<path class="st2" d="M60.4,456.9l-21-36.1c-1.6-2.7-4.4-4.4-7.6-4.3l0,0c-3.2,0-6,1.7-7.6,4.4L3.5,457.1c-1.6,2.7-1.6,6,0,8.7
		s4.4,4.4,7.6,4.3l41.7-0.2c3.2,0,6-1.7,7.6-4.4C62,462.9,62,459.6,60.4,456.9z M57.2,463.8c-0.9,1.6-2.5,2.5-4.3,2.5l-41.7,0.2
		c-1.8,0-3.4-0.9-4.3-2.5s-0.9-3.4,0-5l20.7-36.2c0.9-1.6,2.5-2.5,4.3-2.5c1.8,0,3.4,0.9,4.3,2.5l21,36.1
		C58.1,460.3,58.1,462.2,57.2,463.8z"/>
</g>
<text transform="matrix(1 0 0 1 23.4043 453.8427)" class="st3" style="font-family:'HiraKakuStd-W8-83pv-RKSJ-H'; font-size:22px;">2</text>
<g>
	<path class="st3" d="M29.9,461.1v-3.5h4v3.5H29.9z"/>
</g>
<polygon class="st1" points="-1.8,612.6 -14.5,625.1 -8,625.1 4.7,612.6 "/>
<polygon class="st1" points="9,612.6 -3.7,625.1 2.9,625.1 15.5,612.6 "/>
<polygon class="st1" points="19.8,612.6 7.2,625.1 13.7,625.1 26.4,612.6 "/>
<polygon class="st1" points="30.7,612.6 18,625.1 24.5,625.1 37.2,612.6 "/>
<polygon class="st1" points="41.5,612.6 28.9,625.1 35.4,625.1 48,612.6 "/>
<polygon class="st1" points="52.4,612.6 39.7,625.1 46.2,625.1 58.9,612.6 "/>
<polygon class="st1" points="63.2,612.6 50.6,625.1 57.1,625.1 69.7,612.6 "/>
<polygon class="st1" points="74.1,612.6 61.4,625.1 67.9,625.1 80.6,612.6 "/>
<polygon class="st1" points="84.9,612.6 72.3,625.1 78.8,625.1 91.4,612.6 "/>
<polygon class="st1" points="95.8,612.6 83.1,625.1 89.6,625.1 102.3,612.6 "/>
<polygon class="st1" points="106.6,612.6 94,625.1 100.5,625.1 113.1,612.6 "/>
<polygon class="st1" points="117.5,612.6 104.8,625.1 111.3,625.1 124,612.6 "/>
<polygon class="st1" points="128.3,612.6 115.7,625.1 122.2,625.1 134.8,612.6 "/>
<polygon class="st1" points="139.2,612.6 126.5,625.1 133,625.1 145.7,612.6 "/>
<polygon class="st1" points="150,612.6 137.4,625.1 143.9,625.1 156.5,612.6 "/>
<polygon class="st1" points="160.9,612.6 148.2,625.1 154.7,625.1 167.4,612.6 "/>
<polygon class="st1" points="171.7,612.6 159,625.1 165.6,625.1 178.2,612.6 "/>
<polygon class="st1" points="182.5,612.6 169.9,625.1 176.4,625.1 189.1,612.6 "/>
<polygon class="st1" points="193.4,612.6 180.7,625.1 187.2,625.1 199.9,612.6 "/>
<polygon class="st1" points="204.2,612.6 191.6,625.1 198.1,625.1 210.7,612.6 "/>
<polygon class="st1" points="215.1,612.6 202.4,625.1 208.9,625.1 221.6,612.6 "/>
<polygon class="st1" points="225.9,612.6 213.3,625.1 219.8,625.1 232.4,612.6 "/>
<polygon class="st1" points="236.8,612.6 224.1,625.1 230.6,625.1 243.3,612.6 "/>
<polygon class="st1" points="247.6,612.6 235,625.1 241.5,625.1 254.1,612.6 "/>
<polygon class="st1" points="258.5,612.6 245.8,625.1 252.3,625.1 265,612.6 "/>
<polygon class="st1" points="269.3,612.6 256.7,625.1 263.2,625.1 275.8,612.6 "/>
<polygon class="st1" points="280.2,612.6 267.5,625.1 274,625.1 286.7,612.6 "/>
<polygon class="st1" points="291,612.6 278.4,625.1 284.9,625.1 297.5,612.6 "/>
<polygon class="st1" points="301.9,612.6 289.2,625.1 295.7,625.1 308.4,612.6 "/>
<polygon class="st1" points="312.7,612.6 300,625.1 306.6,625.1 319.2,612.6 "/>
<polygon class="st1" points="323.6,612.6 310.9,625.1 317.4,625.1 330.1,612.6 "/>
<polygon class="st1" points="334.4,612.6 321.7,625.1 328.2,625.1 340.9,612.6 "/>
<polygon class="st1" points="345.2,612.6 332.6,625.1 339.1,625.1 351.8,612.6 "/>
<polygon class="st1" points="356.1,612.6 343.4,625.1 349.9,625.1 362.6,612.6 "/>
<polygon class="st1" points="366.9,612.6 354.3,625.1 360.8,625.1 373.4,612.6 "/>
<polygon class="st1" points="377.8,612.6 365.1,625.1 371.6,625.1 384.3,612.6 "/>
<polygon class="st1" points="388.6,612.6 376,625.1 382.5,625.1 395.1,612.6 "/>
<polygon class="st1" points="399.5,612.6 386.8,625.1 393.3,625.1 406,612.6 "/>
<polygon class="st1" points="410.3,612.6 397.7,625.1 404.2,625.1 416.8,612.6 "/>
<polygon class="st1" points="421.2,612.6 408.5,625.1 415,625.1 427.7,612.6 "/>
<polygon class="st1" points="432,612.6 419.4,625.1 425.9,625.1 438.5,612.6 "/>
<polygon class="st1" points="442.9,612.6 430.2,625.1 436.7,625.1 449.4,612.6 "/>
<polygon class="st1" points="453.7,612.6 441.1,625.1 447.6,625.1 460.2,612.6 "/>
<polygon class="st1" points="464.6,612.6 451.9,625.1 458.4,625.1 471.1,612.6 "/>
<polygon class="st1" points="475.4,612.6 462.7,625.1 469.3,625.1 481.9,612.6 "/>
<polygon class="st1" points="486.2,612.6 473.6,625.1 480.1,625.1 492.8,612.6 "/>
<polygon class="st1" points="497.1,612.6 484.4,625.1 490.9,625.1 503.6,612.6 "/>
<polygon class="st1" points="507.9,612.6 495.3,625.1 501.8,625.1 514.4,612.6 "/>
<polygon class="st1" points="518.8,612.6 506.1,625.1 512.6,625.1 525.3,612.6 "/>
<polygon class="st1" points="529.6,612.6 517,625.1 523.5,625.1 536.1,612.6 "/>
<polygon class="st1" points="540.5,612.6 527.8,625.1 534.3,625.1 547,612.6 "/>
<polygon class="st1" points="551.3,612.6 538.7,625.1 545.2,625.1 557.8,612.6 "/>
<g class="st4">
	<path d="M203,569.4c0-1.3-0.1-2.2-0.2-3h4.7c-0.1,0.9-0.2,1.6-0.2,3v5.1h4.6v-3.8c0-1,0-1.6-0.1-2.3h4.5c-0.1,0.9-0.1,1.5-0.1,2.6
		v5.5c0,0.9,0,1.6,0.1,2.1c-0.6-0.1-1.3-0.1-2.2-0.1h-6.8v8.2h5.5v-4c0-0.9,0-1.7-0.1-2.4h4.5c-0.1,0.8-0.1,1.7-0.1,2.8v5.6
		c0,1.6,0.1,2.4,0.2,3.2h-4.4v-1.2h-15v1.2h-4.4c0.1-0.9,0.2-1.8,0.2-3.2v-5.6c0-1.1-0.1-2.2-0.1-2.9h4.5c-0.1,0.6-0.1,1.2-0.1,2.4
		v3.9h5.1v-8.2h-6.3c-1,0-1.6,0-2.3,0.1c0.1-0.6,0.1-1.3,0.1-2.1v-5.4c0-0.5-0.1-2.1-0.1-2.7h4.5c-0.1,0.6-0.1,1.3-0.1,2.3v3.8h4.2
		L203,569.4L203,569.4z"/>
	<path d="M230.8,569c0-1.4,0-1.9-0.2-2.6h4.2c-0.1,0.7-0.1,1.1-0.1,2.4v0.4h2c0-1.8,0-2-0.1-2.7h4.2c-0.1,0.9-0.2,1.2-0.2,2.7h3.4
		c1.3,0,2,0,2.8-0.1c-0.1,0.7-0.1,1.4-0.1,2.5v9.9c0.7,0,1.1-0.1,1.7-0.2v4.2c-1-0.1-2.1-0.2-3.7-0.2h-4c2.2,1.6,4.4,2.4,8,3.1
		c-1,1.4-1.5,2.3-2.2,3.9c-2.3-0.6-3.6-1.1-5.2-1.9c-1.5-0.8-2.5-1.5-4.5-3.1l2.3-2.1h-7.7l2.5,2c-1.8,1.5-2.8,2.2-4.4,3.1
		c-1.5,0.8-2.5,1.2-4.7,1.9c-0.9-1.8-1.4-2.6-2.5-3.9c3.6-0.7,5.5-1.5,7.6-3.1h-3.5c-1.5,0-2.7,0.1-3.6,0.2v-4.2
		c0.6,0.1,0.9,0.1,1.7,0.2v-10c0-1,0-1.7-0.1-2.5c0.9,0.1,1.7,0.1,2.8,0.1h3.4v0H230.8z M230.8,573h-2v2.2h2V573z M230.8,579h-2v2.6
		h2V579z M236.7,575.2V573h-2v2.2H236.7z M236.7,581.5V579h-2v2.6L236.7,581.5L236.7,581.5z M242.6,575.2V573h-2v2.2H242.6z
		 M242.6,581.5V579h-2v2.6L242.6,581.5L242.6,581.5z"/>
	<path d="M252.7,578.9c0.4-2.1,0.6-3.8,0.6-5.9c0-0.3,0-0.7,0-1.3l2.3,0.4c0,0.5,0,0.9,0,1.1c0,2.4-0.2,4.8-0.6,6.7L252.7,578.9z
		 M260.1,588.9c0,1.5,0,2.3,0.1,3.2h-4.3c0.1-1,0.2-2.3,0.2-3.8v-19.1c0-1.4,0-2.1-0.2-3.1h4.3c-0.1,0.9-0.1,1.6-0.1,3.1v2.5
		l1.4-0.5c0.7,1.3,1,2.4,1.4,3.6c0.5,0,0.9,0,1.6,0h3.5V574h-3c-1,0-1.4,0-2.1,0.1v-2.6c0.7,0.1,1.1,0.1,2.1,0.1h3v-0.7h-3
		c-1.7,0-2.1,0-2.9,0.1v-3.1c0.9,0.1,1.5,0.1,3.1,0.1h2.8c0-0.8,0-1.1-0.1-1.7h4.2c-0.1,0.6-0.1,0.9-0.1,1.7h3.4c1.6,0,2.1,0,3-0.1
		v3.1c-0.8-0.1-1.5-0.1-2.9-0.1h-3.4v0.7h3.5c1.1,0,1.4,0,2-0.1v2.6c-0.6-0.1-1-0.1-2.1-0.1h-3.4v0.8h4.1c1.4,0,1.9,0,2.7-0.1v3.2
		c-0.9-0.1-1.4-0.1-2.7-0.1h-11.5c-1.4,0-1.9,0-2.7,0.1v-2.2l-0.9,0.4c-0.2-1.1-0.4-1.8-0.7-2.6v15.4H260.1z M266.4,588.8
		c0,1.3,0.1,2.3,0.1,3.3h-4.3c0.1-0.9,0.2-1.6,0.2-3.3v-8.1c0-0.8,0-1.5-0.1-2.3c0.7,0.1,0.9,0.1,1.8,0.1H275c1.2,0,1.8,0,2.4-0.1
		c-0.1,0.7-0.1,1.5-0.1,2.7v7.7c0,2.5-1,3.2-4.5,3.2c-0.5,0-1,0-2.1-0.1c-0.1-1.3-0.3-2.1-0.8-3.4c0.9,0.1,1.8,0.2,2.4,0.2
		c0.9,0,1-0.1,1-0.6v-0.6h-6.9V588.8z M273.3,582v-0.8h-6.9v0.8H273.3z M273.3,585.2v-0.8h-6.9v0.8H273.3z"/>
	<path d="M293,573.3c1.2,0,1.8,0,2.6-0.1v3.9c-0.4-0.1-0.7-0.1-1.2-0.1c-0.3,1.3-0.4,1.5-0.6,2.2c0.8,0,1.3,0,1.9-0.1v3.9
		c-0.9-0.1-1.4-0.1-2.6-0.1h-1.3v1.5h1.2c1.1,0,1.8,0,2.5-0.1v3.9c-0.8-0.1-1.4-0.1-2.5-0.1h-1.2v1.3c0,1.4,0,2.2,0.2,3.1h-4.2
		c0.1-1,0.2-1.6,0.2-3.1v-1.3h-1.2c-1.2,0-1.7,0-2.5,0.1v-3.9c0.8,0.1,1.4,0.1,2.5,0.1h1.2v-1.5h-1.6c-1.1,0-1.8,0-2.6,0.1v-4
		c0.7,0.1,1.1,0.1,2.1,0.1c-0.2-0.9-0.3-1.5-0.6-2.3c-0.6,0-1,0.1-1.5,0.1V573c0.8,0.1,1.4,0.1,2.6,0.1h1.6V572h-1.1
		c-1,0-1.7,0-2.5,0.1v-3.9c0.8,0.1,1.3,0.1,2.5,0.1h1.1v-0.2c0-0.8-0.1-1.4-0.1-1.8h4.2c-0.1,0.5-0.2,1-0.2,1.8v0.2h1
		c1.2,0,1.7,0,2.5-0.1v3.9c-0.9-0.1-1.5-0.1-2.5-0.1h-1v1.3H293z M290.2,579.1c0.2-0.8,0.4-1.3,0.6-2.3h-2.2
		c0.2,0.9,0.4,1.4,0.5,2.3H290.2z M308.9,577.8c-0.1,0.4-0.2,0.6-0.3,1.3c-0.5,2.3-1.2,4.7-2,6.4c1,1,1.7,1.4,3.2,2.3
		c-1.1,1.7-1.6,2.6-2.2,4.2c-1.4-1.1-1.9-1.6-3.1-3c-0.9,1.2-1.5,1.9-2.8,3c-0.6-1.2-0.9-1.9-1.5-2.8c0,1.2,0.1,1.9,0.2,2.8H296
		c0.1-1.2,0.2-2.1,0.2-3.8V570c0-0.9-0.1-2.3-0.1-3c0.8,0.1,1.5,0.1,2.5,0.1h7.2c1.3,0,2.3-0.1,2.8-0.1c-0.1,1-0.1,1-0.2,2.7
		c-0.2,3.3-0.4,4.1-0.9,4.8c-0.5,0.6-1.3,0.8-3.2,0.8c-0.6,0-1.2,0-2.4-0.1c-0.1-1.1-0.3-2.1-0.7-3.3c1.2,0.2,1.9,0.2,2.5,0.2
		s0.7-0.2,0.7-1.3h-4.3v5.1h4.2c1.6,0,2.3,0,3-0.1L308.9,577.8z M300.1,588c0.7-0.6,1.4-1.3,2-2.1c-0.9-1.6-1.5-3.1-2-4.9V588z
		 M302.9,579.4c0.3,1,0.6,1.9,1.2,2.9c0.4-1,0.5-1.5,0.8-2.9H302.9z"/>
	<path d="M321.6,567.8c-1.1,3.1-1.9,8.3-2.1,13.3l2.1,0.7c-0.7,2.5-1.1,5-1.1,7.7c0,0.5,0,0.8,0.1,1.3l-4.7,0.2c0-0.5,0-0.7-0.1-1.5
		c-0.5-3.7-0.7-6.1-0.7-8.7c0-3.2,0.3-6.6,1-10.6c0.3-1.9,0.4-2.1,0.4-2.9L321.6,567.8z M329.2,579.9c-1.3,1.6-1.8,2.8-1.8,3.8
		c0,1.3,1.2,2,3.6,2c2.5,0,4.8-0.4,6.9-1.1l0.3,4.9c-0.7,0.1-0.7,0.1-2.3,0.3c-1.5,0.2-3.2,0.4-4.8,0.4c-2.6,0-4.3-0.4-5.7-1.2
		c-1.5-0.9-2.5-2.6-2.5-4.4c0-1.3,0.5-2.9,1.3-4.3c0.4-0.6,0.6-0.9,1.3-2L329.2,579.9z M323.8,569.9c1.3,0.3,2.8,0.4,4.9,0.4
		c3.7,0,6.4-0.2,8.2-0.7l0.2,4.7c-0.2,0-0.5,0-2,0.2c-1.9,0.2-3.9,0.3-5.8,0.3c-1.7,0-3.1-0.1-4.7-0.2c-0.2,0-0.4,0-0.8-0.1
		L323.8,569.9z"/>
	<path d="M342.9,572c1.1-0.1,1.8-0.2,3.6-0.6c5.6-1.2,7.7-1.5,10.5-1.5c2.9,0,5.2,0.6,6.8,1.7c2.1,1.5,3.4,4,3.4,6.8
		c0,4-2.4,7.5-6.4,9.5c-2.8,1.3-5.5,2-10.3,2.4c-0.7-2.5-0.9-3-2-5c3.4,0,5.8-0.3,7.8-1c2.2-0.6,3.7-1.7,4.7-3.1
		c0.6-0.8,0.9-1.7,0.9-2.8s-0.3-2-1-2.7c-0.9-0.9-2.1-1.3-4.1-1.3c-2.9,0-6.2,0.6-10.6,2c-1,0.3-1.7,0.6-2.4,0.9L342.9,572z"/>
	<path d="M378.8,568.8c-0.2,1.2-0.3,3-0.3,5c0,6.2,0.9,10.8,2,10.8c0.3,0,0.6-0.4,0.9-1.1c0.6-1.5,1.1-3.1,1.4-4.8
		c1.3,1.5,2,2.1,3.8,3.5c-0.6,2.1-1.2,3.8-2.1,5.3c-1,1.8-2.5,2.8-4.2,2.8c-1.5,0-2.9-0.8-3.9-2.4c-1.4-2-2.2-4.8-2.5-9.2
		c-0.1-1.9-0.2-4.2-0.3-8.1c0-0.9,0-1.2-0.1-2h5.3V568.8z M391.5,569.8c3.6,4.3,5.6,9.4,6.4,16l-4.9,1.8c-0.3-6.2-2.2-11.6-5.6-15.9
		L391.5,569.8z"/>
	<path d="M401.4,569.6c0.5,0,0.8,0,1,0c0.7,0,1.7-0.1,4.7-0.2c4.3-0.3,6.3-0.4,14.7-0.7c2.3-0.1,2.5-0.1,3-0.2l0.2,5
		c-0.4-0.1-0.5-0.1-0.8-0.1c-1.9,0-4.4,0.7-6.3,1.9c-2.8,1.7-4.4,4-4.4,6.3c0,1.6,0.7,2.6,2.3,3.4c1.1,0.6,3.5,1,5.3,1
		c0.3,0,0.4,0,0.8-0.1l-0.6,5.3c-0.4-0.1-0.5-0.1-1-0.1c-3.1-0.3-5.2-0.7-7-1.5c-3.2-1.5-4.9-4-4.9-7.5c0-2.3,0.8-4.3,2.3-6.2
		c0.7-0.9,1.4-1.4,2.7-2.3l-9.5,0.9c-1.1,0.1-1.3,0.1-2.4,0.4L401.4,569.6z"/>
</g>
<g>
	<g>
		<path class="st2" d="M21.7,554.8c-0.9-1.6-2.5-2.5-4.3-2.5s-3.4,0.9-4.3,2.5l-20.8,36.3c-0.9,1.6-0.9,3.4,0,5s2.5,2.5,4.3,2.5
			l41.7-0.2c1.8,0,3.4-0.9,4.3-2.5c0.9-1.6,0.9-3.4,0-5L21.7,554.8z"/>
		<path class="st3" d="M-3.4,599.8c-2.2,0-4.3-1.2-5.4-3.1s-1.1-4.3,0-6.2l20.7-36.2c1.1-2,3.1-3.1,5.4-3.1l0,0
			c2.2,0,4.3,1.2,5.4,3.1l21,36.1c1.1,1.9,1.1,4.3,0,6.2c-1.1,2-3.1,3.1-5.4,3.1L-3.4,599.8C-3.3,599.8-3.4,599.8-3.4,599.8z
			 M17.3,553.6L17.3,553.6c-1.4,0-2.6,0.7-3.3,1.9l-20.6,36.2c-0.7,1.2-0.7,2.6,0,3.8c0.7,1.1,1.9,1.8,3.2,1.8l0,0l41.7-0.2
			c1.4,0,2.6-0.7,3.2-1.9c0.7-1.2,0.7-2.6,0-3.8l-20.9-36C19.9,554.3,18.7,553.6,17.3,553.6z"/>
	</g>
	<path class="st2" d="M45.9,589l-21-36.1c-1.6-2.7-4.4-4.4-7.6-4.3l0,0c-3.2,0-6,1.7-7.6,4.4L-11,589.2c-1.6,2.7-1.6,6,0,8.7
		s4.4,4.4,7.6,4.3l41.7-0.2c3.2,0,6-1.7,7.6-4.4C47.5,595,47.5,591.7,45.9,589z M42.7,595.9c-0.9,1.6-2.5,2.5-4.3,2.5l-41.7,0.2
		c-1.8,0-3.4-0.9-4.3-2.5s-0.9-3.4,0-5l20.7-36.2c0.9-1.6,2.5-2.5,4.3-2.5s3.4,0.9,4.3,2.5l21,36.1
		C43.6,592.4,43.6,594.3,42.7,595.9z"/>
</g>
<g class="st4">
	<path class="st3" d="M14.3,581c0.1,0.7,0.3,1,0.6,1.4c0.6,0.6,1.5,0.9,2.5,0.9c1.7,0,2.8-0.9,2.8-2.2c0-0.9-0.4-1.6-1.2-1.9
		c-0.5-0.2-1.2-0.3-2-0.3c-0.9,0-1.8,0-2.7,0.1v-3.8c0.7,0.1,1.5,0.1,2.3,0.1c2.1,0,3.1-0.7,3.1-2.1c0-1.2-0.8-1.9-2.3-1.9
		c-1.6,0-2.4,0.6-2.7,2l-4.8-0.7c0.4-1.4,0.8-2,1.5-2.8c1.3-1.5,3.4-2.2,6.1-2.2c2.4,0,4.4,0.7,5.6,1.9c0.8,0.8,1.2,1.9,1.2,3.1
		c0,2.3-1.3,3.8-3.8,4.4c1.3,0.2,2.1,0.5,2.8,1.2c0.9,0.8,1.5,2,1.5,3.3c0,1.1-0.3,2.2-0.9,2.9c-0.5,0.7-1.3,1.3-2.1,1.7
		c-1.1,0.5-2.9,0.9-4.6,0.9c-2,0-4-0.5-5.1-1.2c-1-0.7-1.8-1.6-2.3-2.8c-0.1-0.3-0.2-0.6-0.4-1.2L14.3,581z"/>
</g>
<g>
	<path class="st3" d="M15.4,593.2v-3.5h4v3.5H15.4z"/>
</g>
<polygon class="st1" points="12.7,192.1 0,204.6 6.5,204.6 19.2,192.1 "/>
<polygon class="st1" points="23.5,192.1 10.8,204.6 17.4,204.6 30,192.1 "/>
<polygon class="st1" points="34.3,192.1 21.7,204.6 28.2,204.6 40.9,192.1 "/>
<polygon class="st1" points="45.2,192.1 32.5,204.6 39,204.6 51.7,192.1 "/>
<polygon class="st1" points="56,192.1 43.4,204.6 49.9,204.6 62.5,192.1 "/>
<polygon class="st1" points="66.9,192.1 54.2,204.6 60.7,204.6 73.4,192.1 "/>
<polygon class="st1" points="77.7,192.1 65.1,204.6 71.6,204.6 84.2,192.1 "/>
<polygon class="st1" points="88.6,192.1 75.9,204.6 82.4,204.6 95.1,192.1 "/>
<polygon class="st1" points="99.4,192.1 86.8,204.6 93.3,204.6 105.9,192.1 "/>
<polygon class="st1" points="110.3,192.1 97.6,204.6 104.1,204.6 116.8,192.1 "/>
<polygon class="st1" points="121.1,192.1 108.5,204.6 115,204.6 127.6,192.1 "/>
<polygon class="st1" points="132,192.1 119.3,204.6 125.8,204.6 138.5,192.1 "/>
<polygon class="st1" points="142.8,192.1 130.2,204.6 136.7,204.6 149.3,192.1 "/>
<polygon class="st1" points="153.7,192.1 141,204.6 147.5,204.6 160.2,192.1 "/>
<polygon class="st1" points="164.5,192.1 151.9,204.6 158.4,204.6 171,192.1 "/>
<polygon class="st1" points="175.4,192.1 162.7,204.6 169.2,204.6 181.9,192.1 "/>
<polygon class="st1" points="186.2,192.1 173.5,204.6 180.1,204.6 192.7,192.1 "/>
<polygon class="st1" points="197,192.1 184.4,204.6 190.9,204.6 203.6,192.1 "/>
<polygon class="st1" points="207.9,192.1 195.2,204.6 201.7,204.6 214.4,192.1 "/>
<polygon class="st1" points="218.7,192.1 206.1,204.6 212.6,204.6 225.2,192.1 "/>
<polygon class="st1" points="229.6,192.1 216.9,204.6 223.4,204.6 236.1,192.1 "/>
<polygon class="st1" points="240.4,192.1 227.8,204.6 234.3,204.6 246.9,192.1 "/>
<polygon class="st1" points="251.3,192.1 238.6,204.6 245.1,204.6 257.8,192.1 "/>
<polygon class="st1" points="262.1,192.1 249.5,204.6 256,204.6 268.6,192.1 "/>
<polygon class="st1" points="273,192.1 260.3,204.6 266.8,204.6 279.5,192.1 "/>
<polygon class="st1" points="283.8,192.1 271.2,204.6 277.7,204.6 290.3,192.1 "/>
<polygon class="st1" points="294.7,192.1 282,204.6 288.5,204.6 301.2,192.1 "/>
<polygon class="st1" points="305.5,192.1 292.9,204.6 299.4,204.6 312,192.1 "/>
<polygon class="st1" points="316.4,192.1 303.7,204.6 310.2,204.6 322.9,192.1 "/>
<polygon class="st1" points="327.2,192.1 314.5,204.6 321.1,204.6 333.7,192.1 "/>
<polygon class="st1" points="338.1,192.1 325.4,204.6 331.9,204.6 344.6,192.1 "/>
<polygon class="st1" points="348.9,192.1 336.2,204.6 342.7,204.6 355.4,192.1 "/>
<polygon class="st1" points="359.7,192.1 347.1,204.6 353.6,204.6 366.3,192.1 "/>
<polygon class="st1" points="370.6,192.1 357.9,204.6 364.4,204.6 377.1,192.1 "/>
<polygon class="st1" points="381.4,192.1 368.8,204.6 375.3,204.6 387.9,192.1 "/>
<polygon class="st1" points="392.3,192.1 379.6,204.6 386.1,204.6 398.8,192.1 "/>
<polygon class="st1" points="403.1,192.1 390.5,204.6 397,204.6 409.6,192.1 "/>
<polygon class="st1" points="414,192.1 401.3,204.6 407.8,204.6 420.5,192.1 "/>
<polygon class="st1" points="424.8,192.1 412.2,204.6 418.7,204.6 431.3,192.1 "/>
<polygon class="st1" points="435.7,192.1 423,204.6 429.5,204.6 442.2,192.1 "/>
<polygon class="st1" points="446.5,192.1 433.9,204.6 440.4,204.6 453,192.1 "/>
<polygon class="st1" points="457.4,192.1 444.7,204.6 451.2,204.6 463.9,192.1 "/>
<polygon class="st1" points="468.2,192.1 455.6,204.6 462.1,204.6 474.7,192.1 "/>
<polygon class="st1" points="479.1,192.1 466.4,204.6 472.9,204.6 485.6,192.1 "/>
<polygon class="st1" points="489.9,192.1 477.2,204.6 483.8,204.6 496.4,192.1 "/>
<polygon class="st1" points="500.7,192.1 488.1,204.6 494.6,204.6 507.3,192.1 "/>
<polygon class="st1" points="511.6,192.1 498.9,204.6 505.4,204.6 518.1,192.1 "/>
<polygon class="st1" points="522.4,192.1 509.8,204.6 516.3,204.6 528.9,192.1 "/>
<polygon class="st1" points="533.3,192.1 520.6,204.6 527.1,204.6 539.8,192.1 "/>
<polygon class="st1" points="544.1,192.1 531.5,204.6 538,204.6 550.6,192.1 "/>
<polygon class="st1" points="555,192.1 542.3,204.6 548.8,204.6 561.5,192.1 "/>
<polygon class="st1" points="565.8,192.1 553.2,204.6 559.7,204.6 572.3,192.1 "/>
<text transform="matrix(1 0 0 1 391.9875 -195.2408)" style="font-family:'HiraKakuStd-W8-83pv-RKSJ-H'; font-size:27.528px;">回答者さまについて教えてください。</text>
<polygon class="st1" points="12.7,327.1 0,339.6 6.5,339.6 19.2,327.1 "/>
<polygon class="st1" points="23.5,327.1 10.8,339.6 17.4,339.6 30,327.1 "/>
<polygon class="st1" points="34.3,327.1 21.7,339.6 28.2,339.6 40.9,327.1 "/>
<polygon class="st1" points="45.2,327.1 32.5,339.6 39,339.6 51.7,327.1 "/>
<polygon class="st1" points="56,327.1 43.4,339.6 49.9,339.6 62.5,327.1 "/>
<polygon class="st1" points="66.9,327.1 54.2,339.6 60.7,339.6 73.4,327.1 "/>
<polygon class="st1" points="77.7,327.1 65.1,339.6 71.6,339.6 84.2,327.1 "/>
<polygon class="st1" points="88.6,327.1 75.9,339.6 82.4,339.6 95.1,327.1 "/>
<polygon class="st1" points="99.4,327.1 86.8,339.6 93.3,339.6 105.9,327.1 "/>
<polygon class="st1" points="110.3,327.1 97.6,339.6 104.1,339.6 116.8,327.1 "/>
<polygon class="st1" points="121.1,327.1 108.5,339.6 115,339.6 127.6,327.1 "/>
<polygon class="st1" points="132,327.1 119.3,339.6 125.8,339.6 138.5,327.1 "/>
<polygon class="st1" points="142.8,327.1 130.2,339.6 136.7,339.6 149.3,327.1 "/>
<polygon class="st1" points="153.7,327.1 141,339.6 147.5,339.6 160.2,327.1 "/>
<polygon class="st1" points="164.5,327.1 151.9,339.6 158.4,339.6 171,327.1 "/>
<polygon class="st1" points="175.4,327.1 162.7,339.6 169.2,339.6 181.9,327.1 "/>
<polygon class="st1" points="186.2,327.1 173.5,339.6 180.1,339.6 192.7,327.1 "/>
<polygon class="st1" points="197,327.1 184.4,339.6 190.9,339.6 203.6,327.1 "/>
<polygon class="st1" points="207.9,327.1 195.2,339.6 201.7,339.6 214.4,327.1 "/>
<polygon class="st1" points="218.7,327.1 206.1,339.6 212.6,339.6 225.2,327.1 "/>
<polygon class="st1" points="229.6,327.1 216.9,339.6 223.4,339.6 236.1,327.1 "/>
<polygon class="st1" points="240.4,327.1 227.8,339.6 234.3,339.6 246.9,327.1 "/>
<polygon class="st1" points="251.3,327.1 238.6,339.6 245.1,339.6 257.8,327.1 "/>
<polygon class="st1" points="262.1,327.1 249.5,339.6 256,339.6 268.6,327.1 "/>
<polygon class="st1" points="273,327.1 260.3,339.6 266.8,339.6 279.5,327.1 "/>
<polygon class="st1" points="283.8,327.1 271.2,339.6 277.7,339.6 290.3,327.1 "/>
<polygon class="st1" points="294.7,327.1 282,339.6 288.5,339.6 301.2,327.1 "/>
<polygon class="st1" points="305.5,327.1 292.9,339.6 299.4,339.6 312,327.1 "/>
<polygon class="st1" points="316.4,327.1 303.7,339.6 310.2,339.6 322.9,327.1 "/>
<polygon class="st1" points="327.2,327.1 314.5,339.6 321.1,339.6 333.7,327.1 "/>
<polygon class="st1" points="338.1,327.1 325.4,339.6 331.9,339.6 344.6,327.1 "/>
<polygon class="st1" points="348.9,327.1 336.2,339.6 342.7,339.6 355.4,327.1 "/>
<polygon class="st1" points="359.7,327.1 347.1,339.6 353.6,339.6 366.3,327.1 "/>
<polygon class="st1" points="370.6,327.1 357.9,339.6 364.4,339.6 377.1,327.1 "/>
<polygon class="st1" points="381.4,327.1 368.8,339.6 375.3,339.6 387.9,327.1 "/>
<polygon class="st1" points="392.3,327.1 379.6,339.6 386.1,339.6 398.8,327.1 "/>
<polygon class="st1" points="403.1,327.1 390.5,339.6 397,339.6 409.6,327.1 "/>
<polygon class="st1" points="414,327.1 401.3,339.6 407.8,339.6 420.5,327.1 "/>
<polygon class="st1" points="424.8,327.1 412.2,339.6 418.7,339.6 431.3,327.1 "/>
<polygon class="st1" points="435.7,327.1 423,339.6 429.5,339.6 442.2,327.1 "/>
<polygon class="st1" points="446.5,327.1 433.9,339.6 440.4,339.6 453,327.1 "/>
<polygon class="st1" points="457.4,327.1 444.7,339.6 451.2,339.6 463.9,327.1 "/>
<polygon class="st1" points="468.2,327.1 455.6,339.6 462.1,339.6 474.7,327.1 "/>
<polygon class="st1" points="479.1,327.1 466.4,339.6 472.9,339.6 485.6,327.1 "/>
<polygon class="st1" points="489.9,327.1 477.2,339.6 483.8,339.6 496.4,327.1 "/>
<polygon class="st1" points="500.7,327.1 488.1,339.6 494.6,339.6 507.3,327.1 "/>
<polygon class="st1" points="511.6,327.1 498.9,339.6 505.4,339.6 518.1,327.1 "/>
<polygon class="st1" points="522.4,327.1 509.8,339.6 516.3,339.6 528.9,327.1 "/>
<polygon class="st1" points="533.3,327.1 520.6,339.6 527.1,339.6 539.8,327.1 "/>
<polygon class="st1" points="544.1,327.1 531.5,339.6 538,339.6 550.6,327.1 "/>
<polygon class="st1" points="555,327.1 542.3,339.6 548.8,339.6 561.5,327.1 "/>
<polygon class="st1" points="565.8,327.1 553.2,339.6 559.7,339.6 572.3,327.1 "/>
<text transform="matrix(1 0 0 1 216.317 304.2435)" style="font-family:'HiraKakuStd-W8-83pv-RKSJ-H'; font-size:27.528px; letter-spacing:2;">運営者について</text>
<g class="st4">
	<path d="M126.7,31.5c-0.2,0.5-0.5,1.1-0.7,1.7c1.5,0.5,2.4,1,3.4,1.9c1.9,1.7,2.8,3.8,2.8,6.4c0,4.1-2.3,7.4-6.4,9.2
		c-1.8,0.8-3.7,1.3-6.9,1.6c-0.5-1.8-1.1-3.2-1.9-4.5c-2.3,2.2-5.3,3.5-7.9,3.5c-4,0-6.6-2.7-6.6-6.9c0-2.9,1.2-5.7,3.4-7.9
		c1.4-1.4,2.6-2.2,4.7-3.1c0-1.2,0-1.5,0-3c-1.5,0-1.5,0-4-0.1c-0.5,0-1.1,0-1.7,0c-0.5,0-0.6,0-1.1,0l-0.1-5.4
		c2,0.4,3.7,0.5,6.3,0.5h0.2l0.5,0c0-0.4,0-0.4,0.1-1.5c0-0.3,0-0.7,0-1.1c0-0.7,0-1-0.1-1.4l5.8,0.2c-0.3,1-0.3,1.6-0.5,3.6
		c5.5-0.3,10-0.9,12.7-1.7l0.2,5.5c-0.5,0-0.7,0-1.5,0.1c-3.3,0.5-8.4,0.9-11.8,1c0,0.3,0,0.3-0.1,0.9c0,0.2,0,0.3,0,1
		c1.5-0.2,2.1-0.3,3.3-0.3c0.6,0,0.9,0,1.6,0.1c0.3-0.8,0.4-1.3,0.4-1.9L126.7,31.5z M107.9,44c0,1.3,0.5,2,1.5,2
		c0.6,0,1.2-0.2,1.9-0.6c-0.3-1.7-0.5-3.7-0.5-6.2C108.9,40.4,107.9,42.1,107.9,44z M116.1,41.7c1.3-1.6,2.5-3.6,3.2-5.2
		c-0.3,0-0.4,0-0.7,0c-1,0-1.8,0.1-2.7,0.4C115.9,39,115.9,40,116.1,41.7z M123.2,45.7c2-0.9,3.2-2.7,3.2-4.6c0-1.5-0.6-2.5-2.2-3.3
		c-1.6,3.6-3.4,6.4-5.9,8.9C120.5,46.6,121.9,46.3,123.2,45.7z"/>
	<path d="M151,21.8c-0.2,0.6-0.2,0.6-0.6,2.7c-0.2,0.8-0.2,1.1-0.4,1.9c2.2-0.2,3.6-0.5,4.7-0.8l0.1,5.5c-0.8,0.1-0.8,0.1-2.5,0.3
		c-0.9,0.1-2.8,0.3-3.6,0.3c-1.2,4-2.1,6.4-3.7,9.9c-0.7,1.6-1,2.2-2.3,4.8c-0.4,0.8-0.4,0.8-0.6,1.3l-5.5-3
		c2.4-3.2,4.8-8.1,6.3-12.9c-0.6,0-0.6,0-1.9,0c-0.8,0-0.8,0-1.6,0c-0.1,0-0.3,0-1.3,0v-5.4c1.3,0.2,2.9,0.3,5,0.3
		c0.4,0,0.5,0,1.2,0c0-0.3,0-0.3,0.3-1.4c0.3-1.2,0.5-2.8,0.5-4L151,21.8z M165.6,50.5c-1.3-1.5-2.5-2.5-4.4-3.7
		c-0.1,1.6-0.5,2.6-1.4,3.5c-1.3,1.3-3.7,2.1-6.4,2.1s-5-0.8-6.4-2.2c-1.1-1.2-1.7-2.6-1.7-4.2c0-3.9,3.3-6.7,8-6.7
		c0.7,0,1.3,0,2.4,0.2c-0.1-1.3-0.1-1.9-0.1-2.7c0-1.4,0.1-2.5,0.2-4l5.6,0.2c-0.3,1.2-0.4,2.2-0.4,3.8c0,1.2,0.1,2.2,0.3,3.9
		c2.1,0.9,3.7,1.8,5.2,3c0.1,0.1,0.6,0.5,1.7,1.3L165.6,50.5z M153.4,44.1c-1.6,0-2.6,0.7-2.6,1.7c0,1,1,1.6,2.4,1.6
		c1.7,0,2.6-0.7,2.6-2.2c0-0.2,0-0.7-0.1-0.7C154.8,44.2,154.3,44.1,153.4,44.1z M165.9,34.6c-3.2-2-6.5-3.5-10.6-4.9l2.8-4.7
		c4.3,1.5,7.1,2.8,10.2,4.6L165.9,34.6z"/>
	<path d="M190.7,30.8c3.2-0.4,4.7-0.5,9-0.5c0.2,0,1,0,1.7,0l0.1,5.7c-1.6-0.2-2.6-0.2-4.5-0.2c-3.7,0-6.2,0.2-9.6,0.8l-0.3-4.8
		c-1.6,0.2-2,0.2-3.1,0.3c-0.6,3.2-1.2,5.7-2.1,9.2c-0.9,3-1.1,3.7-2.5,8.1c-0.5,1.6-0.5,1.6-0.8,2.4l-6.3-2.3
		c2.2-4.4,4.5-11.1,5.7-17.4c-0.2,0-0.4,0-0.5,0c-1.1,0-1.8,0-3.3-0.1c0,0-0.2,0-0.3,0c-0.3,0-0.4,0-0.8,0l0.1-5.5
		c1.3,0.2,3.1,0.3,5.2,0.3c0.1,0,0.3,0,0.6,0c0.4-2.7,0.6-4,0.6-5.1c0-0.1,0-0.3,0-0.5l6.4,0.5c-0.2,0.7-0.3,1-0.4,2
		c0,0.2-0.2,1.2-0.5,2.9c2.3-0.2,3.7-0.4,5.6-0.9L190.7,30.8z M191.9,40.1c-1.3,1.5-1.8,2.7-1.8,3.7c0,1.6,1.4,2.3,4.2,2.3
		c2.7,0,5.9-0.5,8-1.3l0.4,5.9c-0.7,0.1-1,0.1-1.8,0.2c-3.2,0.4-4.6,0.5-6.6,0.5c-6.7,0-10-2.1-10-6.4c0-2,0.8-3.9,2.7-6.6
		L191.9,40.1z"/>
	<path d="M222.5,43.1c-2,4.4-4.2,6.3-7.3,6.3c-4.6,0-7.8-4.4-7.8-10.6c0-4,1.4-7.6,3.9-10.4c3-3.3,7.3-5,12.3-5
		c4.6,0,8.6,1.5,11.1,4.2c2.2,2.3,3.3,5.6,3.3,9.5c0,4.4-1.7,8.4-4.5,11c-2.3,2.1-5,3.2-9.8,3.9c-0.8-2.4-1.5-3.7-2.9-5.6
		c3.2-0.2,5.3-0.8,7.1-1.7c2.6-1.4,4.1-4.2,4.1-7.9c0-2.9-1-5.2-3-6.7c-0.9-0.7-1.6-1-2.9-1.2C225.5,34.7,224.3,39.1,222.5,43.1z
		 M216.6,30.6c-2.2,1.9-3.7,5.1-3.7,8.1c0,2.4,0.9,4.3,2.1,4.3c0.9,0,1.7-1.2,2.8-3.8c1.2-3.1,2.2-7,2.5-10.4
		C218.9,29.1,217.8,29.6,216.6,30.6z"/>
	<path d="M260,47.4v1.7c0,2.4,0,3,0.2,3.8h-4.8c0.1-1,0.2-2,0.2-3.8V39c-0.4,4.6-0.4,4.6-0.9,6.7c-0.5,3.1-1.1,4.9-2.2,7.2
		c-1-1.5-1.6-2.4-2.7-3.6c0,1.5,0,2.3,0.2,3.7h-5.4c0.2-1.8,0.2-2.3,0.2-3.9v-8.5c0-0.7,0-1.5,0.1-3.8c-0.5,0.9-1.1,1.6-1.6,2.2
		c-0.5-2.8-0.8-3.8-1.7-6.3c1.6-1.7,2.9-3.8,4-6.6c0.8-2.1,1.4-4,1.6-5.6l5.1,1.2c-0.1,0.4-0.2,0.6-0.4,1.2c1,0.1,1.9,0.1,3.3,0.1
		h0.5v-0.4c0-0.9,0-1.2-0.1-1.7h5.2c-0.1,0.5-0.1,1-0.1,1.7v0.5h3.4v-0.4c0-0.9,0-1.3-0.1-1.7h5.2c-0.1,0.5-0.1,1-0.1,1.7v0.5h1
		c1.6,0,3-0.1,3.6-0.2v4.7c-1.2-0.1-1.6-0.1-3.6-0.1h-1v1.6h1.2c2,0,2.7,0,3.8-0.1v4.7c-1-0.1-1.9-0.1-3.2-0.1h-15.1v1
		c0.9,0.1,1.8,0.1,3.4,0.1H270c1.5,0,2.2,0,3.2-0.1c-0.1,0.8-0.1,1.7-0.1,3.6v11.5c0,2.7-0.8,3.2-5.6,3.3c-0.2-1.7-0.4-2.3-0.8-3.7
		c0.4,0,0.8,0.1,1.2,0.1c0.5,0,0.6-0.1,0.6-0.7v-1h-2.1v1.3c0,2.1,0,3,0.1,3.8h-4.5c0.1-1.1,0.2-2,0.2-3.8v-1.3H260z M249.7,46.4
		c0.4-1.3,0.6-2.1,0.8-3.4c0.3-2,0.5-5.9,0.5-9.8c0-2,0-2.9-0.1-4.2c1.4,0.1,1.9,0.1,3.7,0.1h1.1v-1.6h-0.5c-2,0-2.5,0-3.6,0.1V24
		c-0.6,2.1-1,3-1.9,5V46.4z M262.1,38.2H260v1.4h2.1V38.2z M262.1,42.7H260v1.4h2.1V42.7z M264.1,29.2v-1.6h-3.4v1.6H264.1z
		 M268.4,39.6v-1.4h-2.1v1.4H268.4z M268.4,44.1v-1.4h-2.1v1.4H268.4z"/>
	<path d="M285.6,22.5c0-0.7,0-1-0.1-1.6h5.2c-0.1,0.6-0.1,1-0.1,1.6h6.6c0-0.6,0-1.1-0.1-1.6h5.2c-0.1,0.6-0.1,1-0.1,1.6h3.3
		c1.8,0,3-0.1,4.1-0.2v4.2c-1.2-0.1-2.2-0.2-4.1-0.2h-3.3c0,0.4,0,0.5,0.1,1.1h-4.9c0-0.3,0.1-0.6,0.1-1.1h-7.2c0,0.6,0,0.6,0.1,1.1
		h-4.9c0.1-0.4,0.1-0.5,0.1-1.1h-3c-1.9,0-2.9,0-4.1,0.2v-4.2c1.2,0.1,2.4,0.2,4.1,0.2H285.6z M301.6,33.5c-2.1,1.7-3.5,2.8-4,3.2
		c0.6,0,1.2-0.1,1.5-0.1c1.3,0,1.3,0,2.4-0.1c-0.5-0.4-0.7-0.6-1.3-1.1l3.7-2.4c2.5,2,4.3,3.7,6.4,6.1l-3.4,2.8
		c-0.1,0.7-0.1,1.3-0.1,2.7v5c0,1.3,0.1,2.3,0.2,3.5h-5.2v-1.2h-15.5V53h-5.2c0.1-1.1,0.2-2.3,0.2-3.5v-5.1c0-1.2,0-2.2-0.1-3.2
		c1.3,0.1,1.5,0.1,3.6,0.1h18.5c1.4,0,1.8,0,2.4,0c-0.5-0.6-0.7-0.9-1.1-1.4c-9.6,0.6-9.6,0.6-23.3,1.1c-1.1,0.1-1.6,0.1-2.2,0.2
		l-0.5-4.5c1.2,0.2,2.5,0.2,7.4,0.2c-1.5-0.7-2.4-1.2-4.3-2.1l3.1-2.6h-1.7c-1.9,0-3,0-4.1,0.2V28c1.1,0.1,2.4,0.2,4.1,0.2h8.3
		c0-0.6,0-0.7-0.1-1.2h5.1c-0.1,0.3-0.1,0.6-0.1,1.2h8.7c1.6,0,3.1-0.1,4.1-0.2v4.3c-0.9-0.1-2.2-0.2-4.1-0.2h-6.4L301.6,33.5z
		 M285.2,32.1c1.3,0.6,1.8,0.9,2.5,1.3c0.6-0.5,0.8-0.7,1.5-1.3H285.2z M286.3,45.3h5.3v-1h-5.3V45.3z M286.3,48.8h5.3v-1h-5.3V48.8
		z M294.8,32.1c-1,1-2.1,1.9-3.6,3.2c0.7,0.4,0.7,0.4,1.1,0.6c1.4-1,3.4-2.7,4.6-3.8H294.8z M296.4,45.3h5.4v-1h-5.4V45.3z
		 M296.4,48.8h5.4v-1h-5.4V48.8z"/>
	<path d="M324.4,49.3c0,1.8,0,2.4,0.2,3.7h-5.5c0.1-1.3,0.2-2.4,0.2-4.4v-5.8c-1.1,0.7-1.6,1.1-3,2c-0.5,0.3-0.9,0.6-1.1,0.8l-2-5.3
		c1.3-0.4,3.5-1.5,6.2-3.2V33l-3.3,1.7c-0.9-3.2-1.4-4.6-2.8-7.5l4.1-2.1c1,2.2,1.3,2.8,1.9,4.6v-5.1c0-1.7,0-2.5-0.2-3.7h5.5
		c-0.1,1.2-0.2,1.8-0.2,3.7v23.5c4.2-3.2,6.5-7.4,7.2-13.9h-2.4c-1.6,0-2.8,0.1-3.9,0.2v-5.2c1.1,0.1,2.3,0.2,3.9,0.2h2.8
		c0-2,0.1-3.7,0.1-5.2c0-1.7,0-2.3-0.2-3.2h5.6c-0.1,0.7-0.1,0.8-0.2,2.5l3.8-2.1c1.7,2.1,2.5,3.3,3.8,5.9l-3.8,2.1h0.5
		c1.7,0,2.9-0.1,3.9-0.2v5.2c-1.2-0.1-2.3-0.2-3.9-0.2h-3.9c0.5,3.1,1.7,6.1,3.3,8.6c1.4,2.2,2.8,3.7,5,5.2c-1.4,1.6-2.3,2.9-3.4,5
		c-2.3-1.9-3.6-3.4-5-5.5c-1.2-2-2-3.7-2.6-5.7c-1.6,4.8-3.8,8.2-7.5,11.2c-1.1-1.8-1.9-2.9-3.2-4.2V49.3z M340.5,29.5
		c-1-2.3-1.6-3.3-3.3-5.7c0,0.4,0,0.4,0,2.6c0,0.1,0,0.7,0,1.6c0,0.3,0,0.9-0.1,1.6H340.5z"/>
	<path d="M352.1,29.4c2.7,1.5,3.9,2.3,6.4,4.2l-3,4.4c-2.4-2-3.7-3-6.4-4.6L352.1,29.4z M368,36.8c0,0.3,0,0.3,0,0.9
		c-0.1,4.2-1,7.3-2.7,9.9c-1.4,2-3.3,3.6-6.6,5.4c-1-1.8-1.7-2.9-3.1-4.3c-0.6,1.6-0.8,2-1.9,4.2l-4.5-3.8c0.7-0.8,1.3-1.8,2.1-3.6
		c1-2,1.5-3.6,2.4-6.9l4.3,3c-1,3.5-1.5,4.9-2.2,6.8c2.1-1,3.5-1.9,4.7-3.2c1.7-1.9,2.3-4,2.5-8.3h-0.5c-1.1,0-1.7,0-2.8,0.1
		c0.1-1.2,0.1-1.4,0.1-3.1v-8.7c0-1.6,0-1.9-0.1-3c1,0.1,1.6,0.1,3.4,0.1h13.4c1.8,0,2.4,0,3.4-0.1c-0.1,0.8-0.1,1.5-0.1,3.2v8.5
		c0,1.7,0,2.3,0.1,3.1c-1.1-0.1-1.8-0.1-3.2-0.1h-2v10.4c0,0.4,0.2,0.6,0.7,0.6c0.7,0,0.8-0.1,1.1-0.5c0.2-0.4,0.3-2.5,0.3-6
		c1.6,1,2.7,1.4,4.8,1.8c-0.1,4.9-0.3,6.5-0.8,7.6c-0.3,0.7-1.1,1.3-1.9,1.6c-0.6,0.2-1.9,0.3-3.5,0.3c-4.6,0-5.7-0.6-5.7-3V36.8
		H368z M353.3,20.8c2.6,1.5,3.8,2.4,6.3,4.4l-3.3,4.2c-2.2-2-3.7-3.2-6.2-4.8L353.3,20.8z M365.1,32h9.3v-4.9h-9.3V32z"/>
	<path d="M394.8,22.6c-0.3,0.7-0.6,1.8-1,3.4c-1.1,4.6-1.5,8.5-1.6,13.2l2.6,0.9c-1.1,3.3-1.4,6.1-1.4,10.4c0,0.2,0,0.6,0.1,1.4
		l-5.7,0.2c0-0.6,0-0.6-0.3-2.7c-0.6-4.8-0.7-6.6-0.7-10.3c0-4.8,0.3-7.8,1.4-13.7c0.3-1.5,0.4-2.4,0.4-3c0,0,0-0.1,0-0.2
		L394.8,22.6z M396.1,28.1c1.4,0.3,3.8,0.5,6.4,0.5c0.7,0,1.3,0,2.4,0c0-2,0-2,0-4.4c0-0.8-0.1-1.4-0.2-1.9l5.9,0
		c-0.2,1.1-0.3,2.6-0.3,6c2.1-0.2,4.1-0.6,5.4-1.1l0.2,5.4c-0.4,0-0.5,0.1-1.3,0.2c-1.1,0.2-2.6,0.4-4.3,0.6c0,2.7,0.1,3.3,0.3,7.2
		c2.3,1.1,3.6,1.7,5.5,3.1c0.2,0.1,0.3,0.2,0.6,0.4l-2.1,5.8c-0.8-1-2.1-2-4-3.2c0,0.1,0,0.2,0,0.3c0,2.9-3,4.8-7.3,4.8
		c-5,0-8-2.4-8-6.3c0-2,0.9-3.8,2.6-5c1.3-0.9,3.1-1.4,5.2-1.4c0.7,0,1.2,0.1,2,0.2c0-1,0-1.1-0.1-2.7c0-1.2,0-1.6-0.1-2.8
		c-0.8,0-1.3,0-1.9,0c-1,0-3-0.1-5.8-0.2c-0.4,0-0.7,0-0.8,0c-0.1,0-0.2,0-0.4,0L396.1,28.1z M405.2,44.3c-0.8-0.3-1.4-0.4-2.1-0.4
		c-1.6,0-2.5,0.6-2.5,1.6c0,0.9,0.9,1.5,2.2,1.5c1.6,0,2.4-0.6,2.4-2L405.2,44.3z"/>
	<path d="M431.6,38.6c-2,1.5-3.1,3-3.1,4.2c0,1.8,2.2,2.5,7.4,2.5c4,0,8.9-0.7,11.1-1.6l0.4,6.5c-0.9,0-0.9,0-3.4,0.3
		c-2.9,0.4-5.7,0.5-8.5,0.5c-3.8,0-6.6-0.4-8.6-1.2c-3-1.2-4.6-3.3-4.6-6.2c0-3,1.5-5.5,4.9-8.2L431.6,38.6z M424.6,23.2
		c2.2,0.6,6.4,0.9,11.3,0.9c4.4,0,7.7-0.2,9.5-0.6l0.1,5.2c-2.1,1-6.4,3.7-9.5,6l-4.2-2.9c1-0.7,1.1-0.7,2.7-1.7
		c0.4-0.3,0.5-0.3,0.8-0.5c0.2-0.1,0.3-0.1,0.5-0.3c-1.1,0.1-1.6,0.1-2.8,0.1c-2.6,0-4.3-0.1-7.6-0.4c-0.6-0.1-0.7-0.1-1.2-0.1
		L424.6,23.2z"/>
	<path d="M453.6,26c1.5,0.4,3.8,0.5,7.3,0.6c0.5-2.5,0.7-3.7,0.8-5.1l6.3,0.5c-0.4,1.2-0.4,1.2-1.2,4.6c6.7-0.3,10.6-0.7,12.6-1.4
		l0.2,5.8c-0.9,0-1.2,0-2.4,0.2c-4.8,0.5-7.9,0.7-11.8,0.8c-0.6,1.9-1.2,3.5-2,5.1c2.3-1.1,4.5-1.5,7.4-1.5c3.2,0,5.5,0.6,7.3,1.8
		c1.8,1.3,2.9,3.4,2.9,5.7c0,5.5-5.2,8.9-13.6,8.9c-2.9,0-5.8-0.4-8.6-1.1c0-2.5-0.1-3.4-0.6-5.9c3.4,1.1,6.4,1.6,9.1,1.6
		c4.6,0,7.4-1.4,7.4-3.6c0-1.6-1.7-2.5-4.8-2.5c-2.6,0-4.9,0.5-6.9,1.6c-1.1,0.6-1.6,1-2.2,1.8l-5.7-1.8c1.3-1.9,3.5-7.1,4.4-10.2
		c-0.3,0-0.3,0-1.3,0c-0.7,0-0.7,0-3.4-0.2c-0.5,0-0.8,0-1.1,0c-0.1,0-0.2,0-0.4,0L453.6,26z"/>
	<path d="M495.9,28.7c-0.5,1.8-1.1,5-1.5,8.3c2.9-1.8,5.8-2.7,9.7-2.7c6.1,0,10.1,3.2,10.1,8c0,2.9-1.4,5.5-3.8,7.2
		c-2.4,1.7-5.5,2.4-9.7,2.4c-2.8,0-5.2-0.3-8.5-1c-0.1-2.8-0.2-3.9-0.8-6.1c3.4,1.1,6.5,1.6,9.1,1.6c4.5,0,7.5-1.6,7.5-4
		c0-1.8-1.8-2.9-4.8-2.9c-2.5,0-5.1,0.7-7.4,2c-0.9,0.5-1.2,0.8-1.9,1.5l-5.6-0.2c0.1-0.3,0.1-0.3,0.1-0.7c0.2-1.6,0.9-7.1,1.6-11.8
		c0.1-0.7,0.2-1.3,0.2-2.2L495.9,28.7z M495.3,21.2c1.7,0.8,3.7,1.6,6.9,2.4c2.3,0.6,5.2,1.2,6.8,1.5l-1.8,5.5
		c-6.2-1.3-10.7-2.6-14.7-4.5L495.3,21.2z"/>
	<path d="M526.7,42.4c0.1-0.7,0.1-1,0.1-1.5c0-0.6,0-0.6-0.1-2.7l-0.7-10.8c-0.1-1.4-0.2-2.9-0.4-4.6h7.9c-0.1,0.8-0.3,3.2-0.4,4.6
		l-0.7,10.8c-0.1,1.4-0.1,2.1-0.1,2.6c0,0.3,0,0.7,0,1.6H526.7z M526.1,51.1v-6.4h6.8v6.4H526.1z"/>
</g>
<text transform="matrix(1 0 0 1 89.7232 -53.1101)" style="font-family:'HiraKakuStd-W8-83pv-RKSJ-H'; font-size:34px; letter-spacing:1;">あなたの備蓄状況はこちら！</text>
<g>
	<g>
		<path class="st2" d="M36.2,269.3c-0.9-1.6-2.5-2.5-4.3-2.5s-3.4,0.9-4.3,2.5L6.8,305.6c-0.9,1.6-0.9,3.4,0,5s2.5,2.5,4.3,2.5
			l41.7-0.2c1.8,0,3.4-0.9,4.3-2.5c0.9-1.6,0.9-3.4,0-5L36.2,269.3z"/>
		<path class="st3" d="M11.1,314.3c-2.2,0-4.3-1.2-5.4-3.1s-1.1-4.3,0-6.2l20.7-36.2c1.1-2,3.1-3.1,5.4-3.1l0,0
			c2.2,0,4.3,1.2,5.4,3.1l21,36.1c1.1,1.9,1.1,4.3,0,6.2c-1.1,2-3.1,3.1-5.4,3.1L11.1,314.3C11.2,314.3,11.1,314.3,11.1,314.3z
			 M31.8,268.1L31.8,268.1c-1.4,0-2.6,0.7-3.3,1.9L7.9,306.2c-0.7,1.2-0.7,2.6,0,3.8c0.7,1.1,1.9,1.8,3.2,1.8l0,0l41.7-0.2
			c1.4,0,2.6-0.7,3.2-1.9c0.7-1.2,0.7-2.6,0-3.8l-20.9-36C34.4,268.8,33.2,268.1,31.8,268.1z"/>
	</g>
	<path class="st2" d="M60.4,303.5l-21-36.1c-1.6-2.7-4.4-4.4-7.6-4.3l0,0c-3.2,0-6,1.7-7.6,4.4L3.5,303.7c-1.6,2.7-1.6,6,0,8.7
		c1.6,2.7,4.4,4.4,7.6,4.3l41.7-0.2c3.2,0,6-1.7,7.6-4.4C62,309.5,62,306.2,60.4,303.5z M57.2,310.4c-0.9,1.6-2.5,2.5-4.3,2.5
		l-41.7,0.2c-1.8,0-3.4-0.9-4.3-2.5s-0.9-3.4,0-5l20.7-36.2c0.9-1.6,2.5-2.5,4.3-2.5c1.8,0,3.4,0.9,4.3,2.5l21,36.1
		C58.1,306.9,58.1,308.8,57.2,310.4z"/>
</g>
<text transform="matrix(1 0 0 1 23.4044 300.4426)" class="st3" style="font-family:'HiraKakuStd-W8-83pv-RKSJ-H'; font-size:22px;">6</text>
<g>
	<path class="st3" d="M29.9,307.7v-3.5h4v3.5H29.9z"/>
</g>
<polygon class="st1" points="-746.3,249.7 -759,262.2 -752.5,262.2 -739.8,249.7 "/>
<polygon class="st1" points="-735.5,249.7 -748.2,262.2 -741.6,262.2 -729,249.7 "/>
<polygon class="st1" points="-724.7,249.7 -737.3,262.2 -730.8,262.2 -718.1,249.7 "/>
<polygon class="st1" points="-713.8,249.7 -726.5,262.2 -720,262.2 -707.3,249.7 "/>
<polygon class="st1" points="-703,249.7 -715.6,262.2 -709.1,262.2 -696.5,249.7 "/>
<polygon class="st1" points="-692.1,249.7 -704.8,262.2 -698.3,262.2 -685.6,249.7 "/>
<polygon class="st1" points="-681.3,249.7 -693.9,262.2 -687.4,262.2 -674.8,249.7 "/>
<polygon class="st1" points="-670.4,249.7 -683.1,262.2 -676.6,262.2 -663.9,249.7 "/>
<polygon class="st1" points="-659.6,249.7 -672.2,262.2 -665.7,262.2 -653.1,249.7 "/>
<polygon class="st1" points="-648.7,249.7 -661.4,262.2 -654.9,262.2 -642.2,249.7 "/>
<polygon class="st1" points="-637.9,249.7 -650.5,262.2 -644,262.2 -631.4,249.7 "/>
<polygon class="st1" points="-627,249.7 -639.7,262.2 -633.2,262.2 -620.5,249.7 "/>
<polygon class="st1" points="-616.2,249.7 -628.8,262.2 -622.3,262.2 -609.7,249.7 "/>
<polygon class="st1" points="-605.3,249.7 -618,262.2 -611.5,262.2 -598.8,249.7 "/>
<polygon class="st1" points="-594.5,249.7 -607.1,262.2 -600.6,262.2 -588,249.7 "/>
<polygon class="st1" points="-583.6,249.7 -596.3,262.2 -589.8,262.2 -577.1,249.7 "/>
<polygon class="st1" points="-572.8,249.7 -585.5,262.2 -578.9,262.2 -566.3,249.7 "/>
<polygon class="st1" points="-562,249.7 -574.6,262.2 -568.1,262.2 -555.4,249.7 "/>
<polygon class="st1" points="-551.1,249.7 -563.8,262.2 -557.3,262.2 -544.6,249.7 "/>
<polygon class="st1" points="-540.3,249.7 -552.9,262.2 -546.4,262.2 -533.8,249.7 "/>
<polygon class="st1" points="-529.4,249.7 -542.1,262.2 -535.6,262.2 -522.9,249.7 "/>
<polygon class="st1" points="-518.6,249.7 -531.2,262.2 -524.7,262.2 -512.1,249.7 "/>
<polygon class="st1" points="-507.7,249.7 -520.4,262.2 -513.9,262.2 -501.2,249.7 "/>
<polygon class="st1" points="-496.9,249.7 -509.5,262.2 -503,262.2 -490.4,249.7 "/>
<polygon class="st1" points="-486,249.7 -498.7,262.2 -492.2,262.2 -479.5,249.7 "/>
<polygon class="st1" points="-475.2,249.7 -487.8,262.2 -481.3,262.2 -468.7,249.7 "/>
<polygon class="st1" points="-464.3,249.7 -477,262.2 -470.5,262.2 -457.8,249.7 "/>
<polygon class="st1" points="-453.5,249.7 -466.1,262.2 -459.6,262.2 -447,249.7 "/>
<polygon class="st1" points="-442.6,249.7 -455.3,262.2 -448.8,262.2 -436.1,249.7 "/>
<polygon class="st1" points="-431.8,249.7 -444.5,262.2 -437.9,262.2 -425.3,249.7 "/>
<polygon class="st1" points="-420.9,249.7 -433.6,262.2 -427.1,262.2 -414.4,249.7 "/>
<polygon class="st1" points="-410.1,249.7 -422.8,262.2 -416.3,262.2 -403.6,249.7 "/>
<polygon class="st1" points="-399.3,249.7 -411.9,262.2 -405.4,262.2 -392.7,249.7 "/>
<polygon class="st1" points="-388.4,249.7 -401.1,262.2 -394.6,262.2 -381.9,249.7 "/>
<polygon class="st1" points="-377.6,249.7 -390.2,262.2 -383.7,262.2 -371.1,249.7 "/>
<polygon class="st1" points="-366.7,249.7 -379.4,262.2 -372.9,262.2 -360.2,249.7 "/>
<polygon class="st1" points="-355.9,249.7 -368.5,262.2 -362,262.2 -349.4,249.7 "/>
<polygon class="st1" points="-345,249.7 -357.7,262.2 -351.2,262.2 -338.5,249.7 "/>
<polygon class="st1" points="-334.2,249.7 -346.8,262.2 -340.3,262.2 -327.7,249.7 "/>
<polygon class="st1" points="-323.3,249.7 -336,262.2 -329.5,262.2 -316.8,249.7 "/>
<polygon class="st1" points="-312.5,249.7 -325.1,262.2 -318.6,262.2 -306,249.7 "/>
<polygon class="st1" points="-301.6,249.7 -314.3,262.2 -307.8,262.2 -295.1,249.7 "/>
<polygon class="st1" points="-290.8,249.7 -303.4,262.2 -296.9,262.2 -284.3,249.7 "/>
<polygon class="st1" points="-279.9,249.7 -292.6,262.2 -286.1,262.2 -273.4,249.7 "/>
<polygon class="st1" points="-269.1,249.7 -281.8,262.2 -275.2,262.2 -262.6,249.7 "/>
<polygon class="st1" points="-258.3,249.7 -270.9,262.2 -264.4,262.2 -251.7,249.7 "/>
<polygon class="st1" points="-247.4,249.7 -260.1,262.2 -253.6,262.2 -240.9,249.7 "/>
<polygon class="st1" points="-236.6,249.7 -249.2,262.2 -242.7,262.2 -230.1,249.7 "/>
<polygon class="st1" points="-225.7,249.7 -238.4,262.2 -231.9,262.2 -219.2,249.7 "/>
<polygon class="st1" points="-214.9,249.7 -227.5,262.2 -221,262.2 -208.4,249.7 "/>
<polygon class="st1" points="-204,249.7 -216.7,262.2 -210.2,262.2 -197.5,249.7 "/>
<polygon class="st1" points="-193.2,249.7 -205.8,262.2 -199.3,262.2 -186.7,249.7 "/>
<text transform="matrix(1 0 0 1 -685.5524 226.7936)" style="font-family:'HiraKakuStd-W8-83pv-RKSJ-H'; font-size:27.528px;">会員登録不要 ・ カンタン3分チェック！</text>
<g>
	<g>
		<path class="st2" d="M-722.8,191.9c-0.9-1.6-2.5-2.5-4.3-2.5s-3.4,0.9-4.3,2.5l-20.8,36.3c-0.9,1.6-0.9,3.4,0,5s2.5,2.5,4.3,2.5
			l41.7-0.2c1.8,0,3.4-0.9,4.3-2.5c0.9-1.6,0.9-3.4,0-5L-722.8,191.9z"/>
		<path class="st3" d="M-747.9,236.9c-2.2,0-4.3-1.2-5.4-3.1c-1.1-1.9-1.1-4.3,0-6.2l20.7-36.2c1.1-2,3.1-3.1,5.4-3.1l0,0
			c2.2,0,4.3,1.2,5.4,3.1l21,36.1c1.1,1.9,1.1,4.3,0,6.2c-1.1,2-3.1,3.1-5.4,3.1L-747.9,236.9C-747.8,236.9-747.9,236.9-747.9,236.9
			z M-727.2,190.7L-727.2,190.7c-1.4,0-2.6,0.7-3.3,1.9l-20.6,36.2c-0.7,1.2-0.7,2.6,0,3.8c0.7,1.1,1.9,1.8,3.2,1.8l0,0l41.7-0.2
			c1.4,0,2.6-0.7,3.2-1.9c0.7-1.2,0.7-2.6,0-3.8l-20.9-36C-724.6,191.4-725.8,190.7-727.2,190.7z"/>
	</g>
	<path class="st2" d="M-698.6,226.1l-21-36.1c-1.6-2.7-4.4-4.4-7.6-4.3l0,0c-3.2,0-6,1.7-7.6,4.4l-20.7,36.2c-1.6,2.7-1.6,6,0,8.7
		s4.4,4.4,7.6,4.3l41.7-0.2c3.2,0,6-1.7,7.6-4.4C-697,232.1-697,228.8-698.6,226.1z M-701.8,233c-0.9,1.6-2.5,2.5-4.3,2.5l-41.7,0.2
		c-1.8,0-3.4-0.9-4.3-2.5c-0.9-1.6-0.9-3.4,0-5l20.7-36.2c0.9-1.6,2.5-2.5,4.3-2.5s3.4,0.9,4.3,2.5l21,36.1
		C-700.9,229.5-700.9,231.4-701.8,233z"/>
</g>
<text transform="matrix(1 0 0 1 -735.5957 222.9927)" class="st3" style="font-family:'HiraKakuStd-W8-83pv-RKSJ-H'; font-size:22px;">2</text>
<g>
	<path class="st3" d="M-729.1,230.3v-3.5h4v3.5H-729.1z"/>
</g>
<g>
	<polygon class="st1" points="-746.3,142.4 -759,154.9 -752.5,154.9 -739.8,142.4 	"/>
	<polygon class="st1" points="-735.5,142.4 -748.2,154.9 -741.6,154.9 -729,142.4 	"/>
	<polygon class="st1" points="-724.7,142.4 -737.3,154.9 -730.8,154.9 -718.1,142.4 	"/>
	<polygon class="st1" points="-713.8,142.4 -726.5,154.9 -720,154.9 -707.3,142.4 	"/>
	<polygon class="st1" points="-703,142.4 -715.6,154.9 -709.1,154.9 -696.5,142.4 	"/>
	<polygon class="st1" points="-692.1,142.4 -704.8,154.9 -698.3,154.9 -685.6,142.4 	"/>
	<polygon class="st1" points="-681.3,142.4 -693.9,154.9 -687.4,154.9 -674.8,142.4 	"/>
	<polygon class="st1" points="-670.4,142.4 -683.1,154.9 -676.6,154.9 -663.9,142.4 	"/>
	<polygon class="st1" points="-659.6,142.4 -672.2,154.9 -665.7,154.9 -653.1,142.4 	"/>
	<polygon class="st1" points="-648.7,142.4 -661.4,154.9 -654.9,154.9 -642.2,142.4 	"/>
	<polygon class="st1" points="-637.9,142.4 -650.5,154.9 -644,154.9 -631.4,142.4 	"/>
	<polygon class="st1" points="-627,142.4 -639.7,154.9 -633.2,154.9 -620.5,142.4 	"/>
	<polygon class="st1" points="-616.2,142.4 -628.8,154.9 -622.3,154.9 -609.7,142.4 	"/>
	<polygon class="st1" points="-605.3,142.4 -618,154.9 -611.5,154.9 -598.8,142.4 	"/>
	<polygon class="st1" points="-594.5,142.4 -607.1,154.9 -600.6,154.9 -588,142.4 	"/>
	<polygon class="st1" points="-583.6,142.4 -596.3,154.9 -589.8,154.9 -577.1,142.4 	"/>
	<polygon class="st1" points="-572.8,142.4 -585.5,154.9 -578.9,154.9 -566.3,142.4 	"/>
	<polygon class="st1" points="-562,142.4 -574.6,154.9 -568.1,154.9 -555.4,142.4 	"/>
	<polygon class="st1" points="-551.1,142.4 -563.8,154.9 -557.3,154.9 -544.6,142.4 	"/>
	<polygon class="st1" points="-540.3,142.4 -552.9,154.9 -546.4,154.9 -533.8,142.4 	"/>
	<polygon class="st1" points="-529.4,142.4 -542.1,154.9 -535.6,154.9 -522.9,142.4 	"/>
	<polygon class="st1" points="-518.6,142.4 -531.2,154.9 -524.7,154.9 -512.1,142.4 	"/>
	<polygon class="st1" points="-507.7,142.4 -520.4,154.9 -513.9,154.9 -501.2,142.4 	"/>
	<polygon class="st1" points="-496.9,142.4 -509.5,154.9 -503,154.9 -490.4,142.4 	"/>
	<polygon class="st1" points="-486,142.4 -498.7,154.9 -492.2,154.9 -479.5,142.4 	"/>
	<polygon class="st1" points="-475.2,142.4 -487.8,154.9 -481.3,154.9 -468.7,142.4 	"/>
	<polygon class="st1" points="-464.3,142.4 -477,154.9 -470.5,154.9 -457.8,142.4 	"/>
	<polygon class="st1" points="-453.5,142.4 -466.1,154.9 -459.6,154.9 -447,142.4 	"/>
	<polygon class="st1" points="-442.6,142.4 -455.3,154.9 -448.8,154.9 -436.1,142.4 	"/>
	<polygon class="st1" points="-431.8,142.4 -444.5,154.9 -437.9,154.9 -425.3,142.4 	"/>
	<polygon class="st1" points="-420.9,142.4 -433.6,154.9 -427.1,154.9 -414.4,142.4 	"/>
	<polygon class="st1" points="-410.1,142.4 -422.8,154.9 -416.3,154.9 -403.6,142.4 	"/>
	<polygon class="st1" points="-399.3,142.4 -411.9,154.9 -405.4,154.9 -392.7,142.4 	"/>
	<polygon class="st1" points="-388.4,142.4 -401.1,154.9 -394.6,154.9 -381.9,142.4 	"/>
	<polygon class="st1" points="-377.6,142.4 -390.2,154.9 -383.7,154.9 -371.1,142.4 	"/>
	<polygon class="st1" points="-366.7,142.4 -379.4,154.9 -372.9,154.9 -360.2,142.4 	"/>
	<polygon class="st1" points="-355.9,142.4 -368.5,154.9 -362,154.9 -349.4,142.4 	"/>
	<polygon class="st1" points="-345,142.4 -357.7,154.9 -351.2,154.9 -338.5,142.4 	"/>
	<polygon class="st1" points="-334.2,142.4 -346.8,154.9 -340.3,154.9 -327.7,142.4 	"/>
	<polygon class="st1" points="-323.3,142.4 -336,154.9 -329.5,154.9 -316.8,142.4 	"/>
	<polygon class="st1" points="-312.5,142.4 -325.1,154.9 -318.6,154.9 -306,142.4 	"/>
	<polygon class="st1" points="-301.6,142.4 -314.3,154.9 -307.8,154.9 -295.1,142.4 	"/>
	<polygon class="st1" points="-290.8,142.4 -303.4,154.9 -296.9,154.9 -284.3,142.4 	"/>
	<polygon class="st1" points="-279.9,142.4 -292.6,154.9 -286.1,154.9 -273.4,142.4 	"/>
	<polygon class="st1" points="-269.1,142.4 -281.8,154.9 -275.2,154.9 -262.6,142.4 	"/>
	<polygon class="st1" points="-258.3,142.4 -270.9,154.9 -264.4,154.9 -251.7,142.4 	"/>
	<polygon class="st1" points="-247.4,142.4 -260.1,154.9 -253.6,154.9 -240.9,142.4 	"/>
	<polygon class="st1" points="-236.6,142.4 -249.2,154.9 -242.7,154.9 -230.1,142.4 	"/>
	<polygon class="st1" points="-225.7,142.4 -238.4,154.9 -231.9,154.9 -219.2,142.4 	"/>
	<polygon class="st1" points="-214.9,142.4 -227.5,154.9 -221,154.9 -208.4,142.4 	"/>
	<polygon class="st1" points="-204,142.4 -216.7,154.9 -210.2,154.9 -197.5,142.4 	"/>
	<polygon class="st1" points="-193.2,142.4 -205.8,154.9 -199.3,154.9 -186.7,142.4 	"/>
</g>
<text transform="matrix(1 0 0 1 -699.0266 119.494)" style="font-family:'HiraKakuStd-W8-83pv-RKSJ-H'; font-size:27.528px;">ようこそ！sakuSaku防災チェックへ！</text>
<g>
	<g>
		<path class="st2" d="M-722.8,84.6c-0.9-1.6-2.5-2.5-4.3-2.5s-3.4,0.9-4.3,2.5l-20.8,36.3c-0.9,1.6-0.9,3.4,0,5s2.5,2.5,4.3,2.5
			l41.7-0.2c1.8,0,3.4-0.9,4.3-2.5c0.9-1.6,0.9-3.4,0-5L-722.8,84.6z"/>
		<path class="st3" d="M-747.9,129.6c-2.2,0-4.3-1.2-5.4-3.1c-1.1-1.9-1.1-4.3,0-6.2l20.7-36.2c1.1-2,3.1-3.1,5.4-3.1l0,0
			c2.2,0,4.3,1.2,5.4,3.1l21,36.1c1.1,1.9,1.1,4.3,0,6.2c-1.1,2-3.1,3.1-5.4,3.1L-747.9,129.6C-747.8,129.6-747.9,129.6-747.9,129.6
			z M-727.2,83.4L-727.2,83.4c-1.4,0-2.6,0.7-3.3,1.9l-20.6,36.2c-0.7,1.2-0.7,2.6,0,3.8c0.7,1.1,1.9,1.8,3.2,1.8l0,0l41.7-0.2
			c1.4,0,2.6-0.7,3.2-1.9c0.7-1.2,0.7-2.6,0-3.8l-20.9-36C-724.6,84.1-725.8,83.4-727.2,83.4z"/>
	</g>
	<path class="st2" d="M-698.6,118.8l-21-36.1c-1.6-2.7-4.4-4.4-7.6-4.3l0,0c-3.2,0-6,1.7-7.6,4.4l-20.7,36.2c-1.6,2.7-1.6,6,0,8.7
		c1.6,2.7,4.4,4.4,7.6,4.3l41.7-0.2c3.2,0,6-1.7,7.6-4.4C-697,124.8-697,121.5-698.6,118.8z M-701.8,125.7c-0.9,1.6-2.5,2.5-4.3,2.5
		l-41.7,0.2c-1.8,0-3.4-0.9-4.3-2.5c-0.9-1.6-0.9-3.4,0-5l20.7-36.2c0.9-1.6,2.5-2.5,4.3-2.5s3.4,0.9,4.3,2.5l21,36.1
		C-700.9,122.2-700.9,124.1-701.8,125.7z"/>
</g>
<text transform="matrix(1 0 0 1 -735.5957 115.6931)" class="st3" style="font-family:'HiraKakuStd-W8-83pv-RKSJ-H'; font-size:22px;">1</text>
<g>
	<path class="st3" d="M-729.1,123v-3.5h4v3.5H-729.1z"/>
</g>
<g>
	<polygon class="st1" points="-746.3,3.2 -759,15.7 -752.5,15.7 -739.8,3.2 	"/>
	<polygon class="st1" points="-735.5,3.2 -748.2,15.7 -741.6,15.7 -729,3.2 	"/>
	<polygon class="st1" points="-724.7,3.2 -737.3,15.7 -730.8,15.7 -718.1,3.2 	"/>
	<polygon class="st1" points="-713.8,3.2 -726.5,15.7 -720,15.7 -707.3,3.2 	"/>
	<polygon class="st1" points="-703,3.2 -715.6,15.7 -709.1,15.7 -696.5,3.2 	"/>
	<polygon class="st1" points="-692.1,3.2 -704.8,15.7 -698.3,15.7 -685.6,3.2 	"/>
	<polygon class="st1" points="-681.3,3.2 -693.9,15.7 -687.4,15.7 -674.8,3.2 	"/>
	<polygon class="st1" points="-670.4,3.2 -683.1,15.7 -676.6,15.7 -663.9,3.2 	"/>
	<polygon class="st1" points="-659.6,3.2 -672.2,15.7 -665.7,15.7 -653.1,3.2 	"/>
	<polygon class="st1" points="-648.7,3.2 -661.4,15.7 -654.9,15.7 -642.2,3.2 	"/>
	<polygon class="st1" points="-637.9,3.2 -650.5,15.7 -644,15.7 -631.4,3.2 	"/>
	<polygon class="st1" points="-627,3.2 -639.7,15.7 -633.2,15.7 -620.5,3.2 	"/>
	<polygon class="st1" points="-616.2,3.2 -628.8,15.7 -622.3,15.7 -609.7,3.2 	"/>
	<polygon class="st1" points="-605.3,3.2 -618,15.7 -611.5,15.7 -598.8,3.2 	"/>
	<polygon class="st1" points="-594.5,3.2 -607.1,15.7 -600.6,15.7 -588,3.2 	"/>
	<polygon class="st1" points="-583.6,3.2 -596.3,15.7 -589.8,15.7 -577.1,3.2 	"/>
	<polygon class="st1" points="-572.8,3.2 -585.5,15.7 -578.9,15.7 -566.3,3.2 	"/>
	<polygon class="st1" points="-562,3.2 -574.6,15.7 -568.1,15.7 -555.4,3.2 	"/>
	<polygon class="st1" points="-551.1,3.2 -563.8,15.7 -557.3,15.7 -544.6,3.2 	"/>
	<polygon class="st1" points="-540.3,3.2 -552.9,15.7 -546.4,15.7 -533.8,3.2 	"/>
	<polygon class="st1" points="-529.4,3.2 -542.1,15.7 -535.6,15.7 -522.9,3.2 	"/>
	<polygon class="st1" points="-518.6,3.2 -531.2,15.7 -524.7,15.7 -512.1,3.2 	"/>
	<polygon class="st1" points="-507.7,3.2 -520.4,15.7 -513.9,15.7 -501.2,3.2 	"/>
	<polygon class="st1" points="-496.9,3.2 -509.5,15.7 -503,15.7 -490.4,3.2 	"/>
	<polygon class="st1" points="-486,3.2 -498.7,15.7 -492.2,15.7 -479.5,3.2 	"/>
	<polygon class="st1" points="-475.2,3.2 -487.8,15.7 -481.3,15.7 -468.7,3.2 	"/>
	<polygon class="st1" points="-464.3,3.2 -477,15.7 -470.5,15.7 -457.8,3.2 	"/>
	<polygon class="st1" points="-453.5,3.2 -466.1,15.7 -459.6,15.7 -447,3.2 	"/>
	<polygon class="st1" points="-442.6,3.2 -455.3,15.7 -448.8,15.7 -436.1,3.2 	"/>
	<polygon class="st1" points="-431.8,3.2 -444.5,15.7 -437.9,15.7 -425.3,3.2 	"/>
	<polygon class="st1" points="-420.9,3.2 -433.6,15.7 -427.1,15.7 -414.4,3.2 	"/>
	<polygon class="st1" points="-410.1,3.2 -422.8,15.7 -416.3,15.7 -403.6,3.2 	"/>
	<polygon class="st1" points="-399.3,3.2 -411.9,15.7 -405.4,15.7 -392.7,3.2 	"/>
	<polygon class="st1" points="-388.4,3.2 -401.1,15.7 -394.6,15.7 -381.9,3.2 	"/>
	<polygon class="st1" points="-377.6,3.2 -390.2,15.7 -383.7,15.7 -371.1,3.2 	"/>
	<polygon class="st1" points="-366.7,3.2 -379.4,15.7 -372.9,15.7 -360.2,3.2 	"/>
	<polygon class="st1" points="-355.9,3.2 -368.5,15.7 -362,15.7 -349.4,3.2 	"/>
	<polygon class="st1" points="-345,3.2 -357.7,15.7 -351.2,15.7 -338.5,3.2 	"/>
	<polygon class="st1" points="-334.2,3.2 -346.8,15.7 -340.3,15.7 -327.7,3.2 	"/>
	<polygon class="st1" points="-323.3,3.2 -336,15.7 -329.5,15.7 -316.8,3.2 	"/>
	<polygon class="st1" points="-312.5,3.2 -325.1,15.7 -318.6,15.7 -306,3.2 	"/>
	<polygon class="st1" points="-301.6,3.2 -314.3,15.7 -307.8,15.7 -295.1,3.2 	"/>
	<polygon class="st1" points="-290.8,3.2 -303.4,15.7 -296.9,15.7 -284.3,3.2 	"/>
	<polygon class="st1" points="-279.9,3.2 -292.6,15.7 -286.1,15.7 -273.4,3.2 	"/>
	<polygon class="st1" points="-269.1,3.2 -281.8,15.7 -275.2,15.7 -262.6,3.2 	"/>
	<polygon class="st1" points="-258.3,3.2 -270.9,15.7 -264.4,15.7 -251.7,3.2 	"/>
	<polygon class="st1" points="-247.4,3.2 -260.1,15.7 -253.6,15.7 -240.9,3.2 	"/>
	<polygon class="st1" points="-236.6,3.2 -249.2,15.7 -242.7,15.7 -230.1,3.2 	"/>
	<polygon class="st1" points="-225.7,3.2 -238.4,15.7 -231.9,15.7 -219.2,3.2 	"/>
	<polygon class="st1" points="-214.9,3.2 -227.5,15.7 -221,15.7 -208.4,3.2 	"/>
	<polygon class="st1" points="-204,3.2 -216.7,15.7 -210.2,15.7 -197.5,3.2 	"/>
	<polygon class="st1" points="-193.2,3.2 -205.8,15.7 -199.3,15.7 -186.7,3.2 	"/>
</g>
<text transform="matrix(1 0 0 1 -699.0266 -19.7057)" style="font-family:'HiraKakuStd-W8-83pv-RKSJ-H'; font-size:27.528px;">ようこそ！sakuSaku防災チェックへ！</text>
<g>
	<g>
		<path class="st2" d="M-722.8-54.6c-0.9-1.6-2.5-2.5-4.3-2.5s-3.4,0.9-4.3,2.5l-20.8,36.3c-0.9,1.6-0.9,3.4,0,5s2.5,2.5,4.3,2.5
			l41.7-0.2c1.8,0,3.4-0.9,4.3-2.5c0.9-1.6,0.9-3.4,0-5L-722.8-54.6z"/>
		<path class="st3" d="M-747.9-9.6c-2.2,0-4.3-1.2-5.4-3.1c-1.1-1.9-1.1-4.3,0-6.2l20.7-36.2c1.1-2,3.1-3.1,5.4-3.1l0,0
			c2.2,0,4.3,1.2,5.4,3.1l21,36.1c1.1,1.9,1.1,4.3,0,6.2c-1.1,2-3.1,3.1-5.4,3.1L-747.9-9.6C-747.8-9.6-747.9-9.6-747.9-9.6z
			 M-727.2-55.8L-727.2-55.8c-1.4,0-2.6,0.7-3.3,1.9l-20.6,36.2c-0.7,1.2-0.7,2.6,0,3.8c0.7,1.1,1.9,1.8,3.2,1.8l0,0l41.7-0.2
			c1.4,0,2.6-0.7,3.2-1.9c0.7-1.2,0.7-2.6,0-3.8l-20.9-36C-724.6-55.1-725.8-55.8-727.2-55.8z"/>
	</g>
	<path class="st2" d="M-698.6-20.4l-21-36.1c-1.6-2.7-4.4-4.4-7.6-4.3l0,0c-3.2,0-6,1.7-7.6,4.4l-20.7,36.2c-1.6,2.7-1.6,6,0,8.7
		s4.4,4.4,7.6,4.3l41.7-0.2c3.2,0,6-1.7,7.6-4.4C-697-14.4-697-17.7-698.6-20.4z M-701.8-13.5c-0.9,1.6-2.5,2.5-4.3,2.5l-41.7,0.2
		c-1.8,0-3.4-0.9-4.3-2.5c-0.9-1.6-0.9-3.4,0-5l20.7-36.2c0.9-1.6,2.5-2.5,4.3-2.5s3.4,0.9,4.3,2.5l21,36.1
		C-700.9-17-700.9-15.1-701.8-13.5z"/>
</g>
<text transform="matrix(1 0 0 1 -735.5957 -23.5065)" class="st3" style="font-family:'HiraKakuStd-W8-83pv-RKSJ-H'; font-size:22px;">1</text>
<g>
	<path class="st3" d="M-729.1-16.2v-3.5h4v3.5H-729.1z"/>
</g>
<g>
	<g class="st4">
		<path d="M104.3,146.2c0.3,1,0.8,1.5,2.2,1.5c1.2,0,2-0.5,2-1.2c0-0.3-0.1-0.7-0.5-0.8c-0.3-0.2-0.5-0.2-1.7-0.6
			c-1.3-0.3-1.7-0.5-2.4-0.7c-0.9-0.5-1.4-1.2-1.4-2.2c0-0.6,0.2-1,0.6-1.5c0.7-0.8,1.7-1.3,3.2-1.3c1.3,0,2.4,0.3,3,0.9
			c0.5,0.5,0.7,0.8,0.8,1.6l-2.2,0.3c-0.2-0.8-0.8-1.3-1.7-1.3c-0.9,0-1.7,0.5-1.7,1c0,0.3,0.2,0.6,0.6,0.8c0.3,0.2,0.7,0.3,1.6,0.5
			c1.6,0.3,2.3,0.6,2.8,0.9c0.7,0.5,0.9,1,0.9,2.1c0,0.7-0.3,1.4-0.8,1.8c-0.8,0.7-1.8,1-3.3,1c-1.6,0-2.9-0.6-3.6-1.4
			c-0.3-0.5-0.5-0.8-0.7-1.4H104.3z"/>
		<path d="M118.2,148.2c-0.7,0.7-1,0.8-1.7,0.9c-0.5,0.1-0.9,0.2-1.5,0.2c-2,0-3.1-0.9-3.1-2.7c0-1,0.8-2.2,1.8-2.5
			c1-0.4,2.3-0.7,4.5-0.7v-0.8c0-0.9-0.7-1.4-1.8-1.4c-0.7,0-1.3,0.2-1.7,0.5c-0.3,0.2-0.5,0.5-0.7,1l-2.1-0.3
			c0.3-0.9,0.7-1.4,1.3-1.8c0.8-0.6,1.7-0.8,3.1-0.8c1.5,0,2.4,0.3,3.2,0.9c0.6,0.6,0.8,1,0.8,2.3v4.3c0,0.8,0,1.3,0.1,2.1h-2.2
			L118.2,148.2L118.2,148.2z M118.2,144.7c-3.1,0.1-4.3,0.7-4.3,1.8c0,0.8,0.6,1.2,1.5,1.2c0.8,0,1.7-0.3,2.3-0.8
			c0.5-0.5,0.6-0.8,0.6-1.4L118.2,144.7L118.2,144.7z"/>
		<path d="M124.6,136.3c-0.1,0.7-0.1,1.2-0.1,2.2v5.3l2.4-2.4c0.8-0.8,0.9-1,1.3-1.4h3c-0.9,0.8-0.9,0.8-1.6,1.5l-2.3,2.2l2.7,3.8
			c1,1.5,1,1.5,1.5,1.8h-2.9c-0.2-0.6-0.5-0.8-1-1.8l-1.7-2.5l-1.3,1.3v1c0,1,0,1.4,0.1,2.1h-2.4c0.1-0.7,0.1-1.2,0.1-2.1v-8.6
			c0-0.9,0-1.5-0.1-2.2L124.6,136.3L124.6,136.3z"/>
		<path d="M141.6,139.9c-0.1,0.7-0.1,1.2-0.1,2.1v5c0,0.8,0,1.4,0.1,2.1h-2.2v-0.8c0-0.2,0-0.3,0-0.7c-0.8,1.3-1.7,1.7-3.3,1.7
			c-0.8,0-1.4-0.1-2-0.5c-0.8-0.6-1.3-1.5-1.3-2.8v-4c0-0.8,0-1.5-0.1-2.1h2.4c-0.1,0.8-0.1,1.3-0.1,2.1v3.6c0,0.9,0.2,1.5,0.8,1.8
			c0.2,0.1,0.6,0.2,0.8,0.2c1.2,0,2.1-0.8,2.8-2.4V142c0-0.8,0-1.4-0.1-2.1C139.3,139.9,141.6,139.9,141.6,139.9z"/>
		<path d="M145.7,145.2c0.1,0.8,0.1,1,0.5,1.4c0.5,0.7,1.3,0.9,2.4,0.9c1.6,0,2.5-0.8,2.5-2c0-0.7-0.3-1.2-0.8-1.5
			c-0.5-0.2-0.6-0.3-2.8-0.8c-1.2-0.3-1.8-0.6-2.4-0.9c-0.8-0.7-1.3-1.5-1.3-2.5c0-2.3,1.8-3.7,4.6-3.7c1.8,0,3.2,0.6,4,1.6
			c0.5,0.6,0.7,0.9,0.8,1.8l-2.3,0.3c-0.1-0.6-0.2-0.8-0.5-1.2c-0.5-0.6-1-0.8-2.1-0.8c-1.4,0-2.4,0.8-2.4,1.7c0,0.7,0.3,1.2,1,1.5
			c0.3,0.1,0.5,0.2,2.3,0.6c1.3,0.3,2.1,0.6,2.5,0.9c0.9,0.7,1.3,1.6,1.3,2.8c0,1.2-0.3,2.1-0.9,2.7c-0.8,0.8-2.2,1.2-3.9,1.2
			c-1.3,0-2.5-0.3-3.3-0.8c-0.7-0.5-1-1-1.4-1.8c-0.1-0.3-0.2-0.7-0.3-1.3L145.7,145.2z"/>
		<path d="M164.3,149.1c-0.1-0.6-0.3-1.2-0.5-1.7l-0.7-1.7h-5.2l-0.7,1.7c-0.3,0.8-0.3,0.9-0.5,1.7H154c0.2-0.5,0.6-1.2,0.8-2
			l3.6-9.2c0.3-0.8,0.5-1.2,0.6-1.6h2.8c0.1,0.5,0.2,0.7,0.6,1.6l3.6,9.2c0.5,1,0.7,1.5,0.8,2H164.3z M161,139.2
			c-0.1-0.2-0.1-0.3-0.3-0.8c-0.2,0.8-0.2,0.8-0.3,0.8l-1.7,4.7h4L161,139.2z"/>
		<path d="M177.8,147.1c0.9,1.3,1.2,1.5,1.6,2.1h-3c-0.2-0.5-0.7-1.2-0.9-1.7l-3.2-4.5l-1.7,1.7v2.4c0,0.9,0,1.4,0.1,2.1h-2.4
			c0.1-0.8,0.1-1.2,0.1-2.1v-8.7c0-0.8,0-1.4-0.1-2.1h2.4c-0.1,0.6-0.1,1.2-0.1,2.1v3.8l4-4.3c0.7-0.7,0.9-1,1.3-1.6h3
			c-0.5,0.5-0.9,0.9-1.7,1.7l-3.5,3.6L177.8,147.1z"/>
		<path d="M191.8,136.3c-0.1,0.7-0.1,1.2-0.1,2.2v5.6c0,3.3-2,5.2-5.5,5.2c-1.8,0-3.2-0.6-4.2-1.5c-0.8-0.8-1.2-2.1-1.2-3.7v-5.6
			c0-0.9,0-1.6-0.1-2.3h2.4c-0.1,0.6-0.1,1.2-0.1,2.3v5.6c0,2.2,1,3.3,3.3,3.3c2.2,0,3.2-1.2,3.2-3.3v-5.6c0-1,0-1.6-0.1-2.3
			L191.8,136.3L191.8,136.3z"/>
	</g>
	<g class="st4">
		<path d="M219.9,150c-0.1,6.3-0.5,12-0.9,16c-0.7,5.3-1.7,8.4-4,12c-0.9-1.3-2.2-2.7-3.6-3.9c0,1.8,0.1,2.5,0.2,4.2H206
			c0.2-2.1,0.3-3.3,0.3-5.8v-13.6c0-1.8,0-3.6,0.1-6.4c-0.9,2.1-2,3.6-3.3,5.3c-0.9-3.2-0.9-3.2-2.2-5.9c2.7-3,4.8-6.6,6.7-10.9
			c1.3-3.1,2.2-5.8,2.4-8.1l5.3,1.3c-0.2,0.8-0.6,1.5-0.8,2.5c-0.9,3.2-1.6,4.9-3.1,7.9V173c1.3-2.2,1.8-3.7,2.4-6.6
			c0.8-3.8,1-8.6,1-16.3c0-1.8,0-3.3-0.2-4.9c1.6,0.2,2.7,0.2,5.2,0.2h21.9c2.7,0,3.9,0,5.4-0.2v4.8c-1.4-0.1-2.9-0.2-4.7-0.2
			L219.9,150C219.9,149.9,219.9,150,219.9,150z M222.1,136.1c0-1.5,0-2.2-0.2-2.9h5.4c-0.1,0.8-0.2,1.6-0.2,2.9v1h6.7v-1
			c0-1.5,0-2.2-0.2-2.9h5.4c-0.1,0.8-0.2,1.6-0.2,2.9v1h3.1c2.1,0,4-0.1,4.9-0.3v5c-1.4-0.1-2.5-0.2-4.9-0.2h-3.1v0.6
			c0,1.2,0,1.7,0.1,2.4h-5.4c0.1-0.8,0.1-1.5,0.1-2.4v-0.4h-6.7v0.5c0,1.2,0,1.7,0.1,2.4h-5.4c0.1-0.8,0.1-1.5,0.1-2.4v-0.6h-2.1
			c-2.5,0-3.5,0-4.8,0.2v-4.8c1.4,0.1,3,0.2,4.8,0.2h2.1v-1C221.6,136.1,222.1,136.1,222.1,136.1z M225.5,170v2.9
			c0,3.2,0,4.2,0.2,5.3h-5.2c0.2-1.3,0.3-2.7,0.3-5.3v-15.5c0-2.7,0-3.7-0.2-5.4c1.5,0.1,2.4,0.1,5.2,0.1h14.8c2.4,0,3.3,0,4.7-0.2
			c-0.1,1-0.2,2.5-0.2,5.3v16.7c0,3.2-1,4-5.6,4c-0.5,0-0.5,0-2.2,0c-0.2-2-0.5-2.7-0.9-4.3c1,0.1,2.2,0.2,2.9,0.2c0.8,0,1-0.2,1-1
			v-3h-5.4v2.3c0,2.8,0,4.2,0.2,5.4h-4.9c0.2-1.5,0.3-2.8,0.3-5.4v-2.3h-5.2L225.5,170L225.5,170z M230.8,156.6h-5.3v2.7h5.3V156.6z
			 M230.8,163.2h-5.3v2.7h5.3V163.2z M240.6,159.2v-2.7h-5.4v2.7H240.6z M240.6,165.9v-2.7h-5.4v2.7H240.6z"/>
		<path d="M262.9,135.8c0-0.9,0-1.7-0.2-2.7h5.5c-0.1,0.9-0.2,1.7-0.2,2.7v0.5h10.8v-0.5c0-0.9,0-1.7-0.2-2.7h5.5
			c-0.1,0.9-0.2,1.6-0.2,2.7v0.5h5.9c2.4,0,4.2-0.1,5.6-0.3v4.8c-1.5-0.2-3-0.2-5.6-0.2h-5.9c0,0.8,0,1.3,0.2,2.1h-5.4
			c0-0.7,0.1-1.4,0.1-2.1H268c0,0.8,0,1.3,0.1,2.1h-5.4c0.1-0.8,0.1-1.3,0.1-2.1h-5.5c-2.7,0-4.2,0-5.6,0.2V136
			c1.6,0.2,3.2,0.3,5.6,0.3h5.5L262.9,135.8L262.9,135.8z M284.1,150.4c-2.2,1.8-5.8,4.6-7.3,5.6c4-0.1,7-0.3,8.9-0.5
			c-1-0.8-1.5-1.2-3-2.3l3.8-2.7c4,2.9,6.4,5.1,9.8,8.5l-3.8,3.3c-1.4-1.7-2-2.3-2.9-3.3c-10.9,0.8-16.5,0.9-34.1,1.6
			c-1.2,0-2.1,0.1-2.9,0.2l-0.8-4.9c1.6,0.2,4.5,0.3,11.9,0.3c0.2,0,0.2,0,2.5,0c-1.8-0.8-6.4-2.9-8.8-3.9l3.2-3.3
			c2.4,1,2.9,1.3,4.5,2.1c1.2-0.8,1.8-1.4,3.2-2.7h-10.1c-2.5,0-4.2,0-5.6,0.2v-4.8c1.4,0.2,3.1,0.3,5.6,0.3h12.7
			c0-1.2,0-1.8-0.1-2.7h5.3c-0.1,0.9-0.1,1.4-0.1,2.7h13.5c2.4,0,4.4-0.1,5.6-0.3v4.8c-1.2-0.1-3.1-0.2-5.6-0.2h-8.8L284.1,150.4z
			 M256.3,166.3c0-1.8,0-3.2-0.1-4.6c1.4,0.1,2.4,0.1,4.8,0.1h25.4c2.5,0,3.5,0,4.8-0.2c-0.1,1.3-0.1,2.3-0.1,4.8v7.3
			c0,1.7,0.1,3.2,0.2,4.8H286v-1.8h-24.7v1.8h-5.4c0.1-1.7,0.2-3.2,0.2-4.8v-7.4C256.1,166.3,256.3,166.3,256.3,166.3z M261.3,167.3
			h9.8v-2.1h-9.8V167.3z M261.3,172.8h9.8v-2.2h-9.8V172.8z M274,148.4c-1.6,1.6-3.5,3.2-5.2,4.5c1.4,0.8,1.7,0.9,2.9,1.6
			c3-2.1,5.8-4.3,7.4-6L274,148.4L274,148.4z M275.8,167.3H286v-2.1h-10.2V167.3z M275.8,172.8H286v-2.2h-10.2V172.8z"/>
		<path d="M337.9,139.7c-0.6,0.1-0.6,0.1-4,1.3c-2.8,0.8-4.3,1.3-8.2,2.1c0,6.6,0,6.6-0.1,8.3H336c3.3,0,4.2,0,5.9-0.3v5.9
			c-1.8-0.2-2.7-0.2-5.9-0.2h-10.8c-0.6,4.5-1.6,7.8-3.2,10.6c-1.7,2.8-4.5,5.6-7.9,7.7c-1.4,0.8-2.3,1.4-4.5,2.4
			c-1.4-2.4-2.2-3.5-4.3-5.2c3.6-1.3,5.4-2.3,7.5-4c2.9-2.4,4.8-5.2,5.6-8.3c0.2-0.8,0.3-1.6,0.6-3.2h-12c-3.1,0-4,0-5.9,0.2v-5.9
			c1.8,0.3,2.7,0.3,5.9,0.3h12.4c0.1-2.1,0.1-4,0.1-7.4c-4,0.6-5.5,0.8-13.6,1c-0.6-2.2-0.8-2.9-1.8-5.3c1.5,0.1,2.3,0.1,3,0.1
			c6.6,0,15-1,21-2.8c2.8-0.8,4.3-1.4,5.9-2.3L337.9,139.7z"/>
		<path d="M368.5,170h10c2.3,0,3.2,0,4.5-0.3v5.5c-1.4-0.1-2.4-0.2-4.5-0.2h-25.1c-2.2,0-3.2,0-4.5,0.2v-5.5
			c1.4,0.2,2.3,0.3,4.5,0.3h9.6v-15.7h-6.6c-1.8,0-2.8,0-4.5,0.3V149c1.3,0.2,2.4,0.3,4.4,0.3h19.2c2.1,0,3.1-0.1,4.5-0.3v5.5
			c-1.3-0.1-2.1-0.2-4.4-0.2h-7L368.5,170L368.5,170z"/>
		<path d="M396.6,146.2c2.1,3.8,3,6.1,4.8,11.6l-5.5,1.7c-1.3-4.9-2.3-7.5-4.4-11.9L396.6,146.2z M424.7,146.7
			c-0.3,0.8-0.5,0.9-0.7,2.4c-1.4,6.7-3.7,12-6.8,16.2c-3.7,4.9-7.6,8.1-15,11.9c-1.3-2.2-1.8-2.9-3.9-4.8c3.5-1.3,5.4-2.4,8.3-4.5
			c5.6-4.2,9-9.1,11.1-16.9c0.7-2.4,0.8-4,0.8-5.6L424.7,146.7z M407.1,144.3c2.5,4.8,3.6,7,4.7,11.3l-5.4,1.7
			c-0.9-3.8-2.4-7.5-4.4-11.5L407.1,144.3z"/>
		<path d="M469.2,143.1c-0.6,0.8-0.7,1.2-1.2,2.9c-2.3,7.4-5.6,14-10,18.9c-4.5,5.2-9.9,8.9-17.4,12.4c-1.4-2.4-2.1-3.2-4.2-5.2
			c4.8-2.1,7.6-3.5,10.7-5.8c7-5.2,11.6-12,14.3-20.6l-14.7,0.2c-3,4.7-6.8,8.9-11.4,12.4c-1.5-2.1-2.2-2.7-4.7-4.2
			c5.6-3.8,9.1-7.7,12.7-14.2c1.5-2.8,2.3-4.7,2.4-6.4l6.7,1.3c-0.3,0.5-0.3,0.5-0.8,1.5c-0.1,0.2-0.1,0.2-0.7,1.4
			c-0.1,0.3-0.1,0.3-0.7,1.3c-0.3,0.7-0.3,0.7-0.8,1.6c0.7,0,1.4-0.1,2.4-0.1l10.7-0.1c2,0,2.4-0.1,3.6-0.6L469.2,143.1z"/>
	</g>
</g>
<g>
	<g>
		<path class="st5" d="M37,133.2l-19.8,34.2c-2.5,4.4,0.6,9.8,5.7,9.8h39.4c5,0,8.1-5.4,5.7-9.8l-19.7-34.2
			C45.7,128.8,39.4,128.8,37,133.2z"/>
		<path class="st2" d="M62.3,178.8H22.8c-3,0-5.7-1.5-7.2-4.1c-1.5-2.6-1.5-5.7,0-8.2l19.7-34.2c1.5-2.6,4.2-4.1,7.2-4.1
			s5.7,1.5,7.2,4.1l19.7,34.2c1.5,2.6,1.5,5.7,0,8.2C68,177.2,65.3,178.8,62.3,178.8z M38.5,134l-19.7,34.2c-0.9,1.5-0.9,3.3,0,4.7
			c0.9,1.5,2.4,2.4,4.1,2.4h39.4c1.7,0,3.3-0.9,4.1-2.4c0.9-1.5,0.9-3.3,0-4.7L46.7,134c-0.9-1.5-2.4-2.4-4.1-2.4
			C40.8,131.6,39.4,132.6,38.5,134L38.5,134z"/>
	</g>
	<g class="st4">
		<path class="st2" d="M43.8,159.9v1c0,1.4,0,1.7,0.1,2.1h-2.7c0.1-0.6,0.1-1.2,0.1-2.1v-5.8c-0.3,2.6-0.3,2.6-0.5,3.8
			c-0.3,1.7-0.6,2.8-1.3,4.1c-0.5-0.9-0.9-1.4-1.5-2c0,0.9,0,1.3,0.1,2.1H35c0.1-1,0.1-1.3,0.1-2.2v-4.8c0-0.4,0-0.9,0-2.1
			c-0.3,0.5-0.6,0.9-0.9,1.3c-0.3-1.6-0.5-2.2-1-3.6c0.9-1,1.7-2.2,2.3-3.7c0.5-1.2,0.8-2.3,0.9-3.2l2.9,0.7
			c-0.1,0.3-0.1,0.3-0.2,0.7c0.5,0,1.1,0.1,1.9,0.1h0.3v-0.5c0-0.5,0-0.7-0.1-1h3c0,0.3-0.1,0.6-0.1,0.9v0.3H46v-0.2
			c0-0.5,0-0.7-0.1-1H49c0,0.3-0.1,0.5-0.1,0.9v0.3h0.6c0.9,0,1.7,0,2.1-0.1v2.7c-0.7-0.1-0.9-0.1-2.1-0.1H49v0.9h0.7
			c1.1,0,1.5,0,2.2-0.1v2.6c-0.5-0.1-1.1-0.1-1.8-0.1h-8.6v0.6c0.5,0,1,0.1,1.9,0.1h6.2c0.8,0,1.3,0,1.8-0.1c-0.1,0.5-0.1,1-0.1,2
			v6.5c0,1.5-0.4,1.8-3.2,1.9c-0.1-0.9-0.2-1.3-0.5-2.1c0.3,0,0.5,0,0.7,0c0.3,0,0.3-0.1,0.3-0.4v-0.6h-1.2v0.7c0,1.2,0,1.7,0.1,2.2
			h-2.6c0.1-0.6,0.1-1.2,0.1-2.2v-0.7h-1.2V159.9z M37.9,159.3c0.3-0.7,0.4-1.2,0.5-1.9c0.2-1.2,0.3-3.3,0.3-5.6
			c0-1.1,0-1.6-0.1-2.4c0.8,0.1,1.1,0.1,2.1,0.1h0.6v-0.9H41c-1.1,0-1.5,0-2,0.1v-2.1c-0.4,1.2-0.6,1.7-1.1,2.8V159.3z M45,154.6
			h-1.2v0.8H45V154.6z M45,157.2h-1.2v0.8H45V157.2z M46.1,149.5v-0.9h-1.9v0.9H46.1z M48.6,155.4v-0.8h-1.2v0.8H48.6z M48.6,158
			v-0.8h-1.2v0.8H48.6z"/>
	</g>
	<g class="st4">
		<path class="st2" d="M41.4,139.5c0,0.3,0.1,0.5,0.2,0.6c0.2,0.3,0.6,0.4,1,0.4c0.7,0,1.1-0.3,1.1-0.8c0-0.3-0.1-0.5-0.4-0.6
			c-0.2-0.1-0.4-0.1-1.3-0.4c-0.8-0.2-1.1-0.3-1.4-0.5c-0.5-0.4-0.8-0.9-0.8-1.6c0-1.3,1.1-2.1,2.7-2.1c1.1,0,1.9,0.3,2.4,1
			c0.2,0.3,0.3,0.5,0.4,1l-1.8,0.2c-0.1-0.6-0.4-0.8-1.1-0.8c-0.5,0-0.9,0.3-0.9,0.7c0,0.2,0.1,0.4,0.4,0.5c0.2,0.1,0.2,0.1,1.2,0.3
			c0.7,0.1,1.1,0.3,1.4,0.5c0.6,0.4,0.9,1,0.9,1.7c0,0.6-0.2,1.2-0.6,1.6c-0.5,0.5-1.2,0.7-2.3,0.7c-0.7,0-1.4-0.2-1.9-0.4
			c-0.4-0.2-0.7-0.6-0.9-1.1c-0.1-0.2-0.1-0.4-0.2-0.8L41.4,139.5z"/>
	</g>
	<polygon points="27.7,172.2 42.5,186.2 72.3,141.2 39.9,175.5 31,168.1 	"/>
</g>
<polygon class="st1" points="12.7,73.3 0,85.8 6.5,85.8 19.2,73.3 "/>
<polygon class="st1" points="23.5,73.3 10.8,85.8 17.4,85.8 30,73.3 "/>
<polygon class="st1" points="34.3,73.3 21.7,85.8 28.2,85.8 40.9,73.3 "/>
<polygon class="st1" points="45.2,73.3 32.5,85.8 39,85.8 51.7,73.3 "/>
<polygon class="st1" points="56,73.3 43.4,85.8 49.9,85.8 62.5,73.3 "/>
<polygon class="st1" points="66.9,73.3 54.2,85.8 60.7,85.8 73.4,73.3 "/>
<polygon class="st1" points="77.7,73.3 65.1,85.8 71.6,85.8 84.2,73.3 "/>
<polygon class="st1" points="88.6,73.3 75.9,85.8 82.4,85.8 95.1,73.3 "/>
<polygon class="st1" points="99.4,73.3 86.8,85.8 93.3,85.8 105.9,73.3 "/>
<polygon class="st1" points="110.3,73.3 97.6,85.8 104.1,85.8 116.8,73.3 "/>
<polygon class="st1" points="121.1,73.3 108.5,85.8 115,85.8 127.6,73.3 "/>
<polygon class="st1" points="132,73.3 119.3,85.8 125.8,85.8 138.5,73.3 "/>
<polygon class="st1" points="142.8,73.3 130.2,85.8 136.7,85.8 149.3,73.3 "/>
<polygon class="st1" points="153.7,73.3 141,85.8 147.5,85.8 160.2,73.3 "/>
<polygon class="st1" points="164.5,73.3 151.9,85.8 158.4,85.8 171,73.3 "/>
<polygon class="st1" points="175.4,73.3 162.7,85.8 169.2,85.8 181.9,73.3 "/>
<polygon class="st1" points="186.2,73.3 173.5,85.8 180.1,85.8 192.7,73.3 "/>
<polygon class="st1" points="197,73.3 184.4,85.8 190.9,85.8 203.6,73.3 "/>
<polygon class="st1" points="207.9,73.3 195.2,85.8 201.7,85.8 214.4,73.3 "/>
<polygon class="st1" points="218.7,73.3 206.1,85.8 212.6,85.8 225.2,73.3 "/>
<polygon class="st1" points="229.6,73.3 216.9,85.8 223.4,85.8 236.1,73.3 "/>
<polygon class="st1" points="240.4,73.3 227.8,85.8 234.3,85.8 246.9,73.3 "/>
<polygon class="st1" points="251.3,73.3 238.6,85.8 245.1,85.8 257.8,73.3 "/>
<polygon class="st1" points="262.1,73.3 249.5,85.8 256,85.8 268.6,73.3 "/>
<polygon class="st1" points="273,73.3 260.3,85.8 266.8,85.8 279.5,73.3 "/>
<polygon class="st1" points="283.8,73.3 271.2,85.8 277.7,85.8 290.3,73.3 "/>
<polygon class="st1" points="294.7,73.3 282,85.8 288.5,85.8 301.2,73.3 "/>
<polygon class="st1" points="305.5,73.3 292.9,85.8 299.4,85.8 312,73.3 "/>
<polygon class="st1" points="316.4,73.3 303.7,85.8 310.2,85.8 322.9,73.3 "/>
<polygon class="st1" points="327.2,73.3 314.5,85.8 321.1,85.8 333.7,73.3 "/>
<polygon class="st1" points="338.1,73.3 325.4,85.8 331.9,85.8 344.6,73.3 "/>
<polygon class="st1" points="348.9,73.3 336.2,85.8 342.7,85.8 355.4,73.3 "/>
<polygon class="st1" points="359.7,73.3 347.1,85.8 353.6,85.8 366.3,73.3 "/>
<polygon class="st1" points="370.6,73.3 357.9,85.8 364.4,85.8 377.1,73.3 "/>
<polygon class="st1" points="381.4,73.3 368.8,85.8 375.3,85.8 387.9,73.3 "/>
<polygon class="st1" points="392.3,73.3 379.6,85.8 386.1,85.8 398.8,73.3 "/>
<polygon class="st1" points="403.1,73.3 390.5,85.8 397,85.8 409.6,73.3 "/>
<polygon class="st1" points="414,73.3 401.3,85.8 407.8,85.8 420.5,73.3 "/>
<polygon class="st1" points="424.8,73.3 412.2,85.8 418.7,85.8 431.3,73.3 "/>
<polygon class="st1" points="435.7,73.3 423,85.8 429.5,85.8 442.2,73.3 "/>
<polygon class="st1" points="446.5,73.3 433.9,85.8 440.4,85.8 453,73.3 "/>
<polygon class="st1" points="457.4,73.3 444.7,85.8 451.2,85.8 463.9,73.3 "/>
<polygon class="st1" points="468.2,73.3 455.6,85.8 462.1,85.8 474.7,73.3 "/>
<polygon class="st1" points="479.1,73.3 466.4,85.8 472.9,85.8 485.6,73.3 "/>
<polygon class="st1" points="489.9,73.3 477.2,85.8 483.8,85.8 496.4,73.3 "/>
<polygon class="st1" points="500.7,73.3 488.1,85.8 494.6,85.8 507.3,73.3 "/>
<polygon class="st1" points="511.6,73.3 498.9,85.8 505.4,85.8 518.1,73.3 "/>
<polygon class="st1" points="522.4,73.3 509.8,85.8 516.3,85.8 528.9,73.3 "/>
<polygon class="st1" points="533.3,73.3 520.6,85.8 527.1,85.8 539.8,73.3 "/>
<polygon class="st1" points="544.1,73.3 531.5,85.8 538,85.8 550.6,73.3 "/>
<polygon class="st1" points="555,73.3 542.3,85.8 548.8,85.8 561.5,73.3 "/>
<polygon class="st1" points="565.8,73.3 553.2,85.8 559.7,85.8 572.3,73.3 "/>
<g>
	<g>
		<path class="st5" d="M37,14.4L17.2,48.6c-2.5,4.4,0.6,9.8,5.7,9.8h39.4c5,0,8.1-5.4,5.7-9.8L48.3,14.4C45.7,10,39.4,10,37,14.4z"
			/>
		<path class="st2" d="M62.3,60H22.8c-3,0-5.7-1.5-7.2-4.1s-1.5-5.7,0-8.2l19.7-34.2c1.5-2.6,4.2-4.1,7.2-4.1s5.7,1.5,7.2,4.1
			l19.7,34.2c1.5,2.6,1.5,5.7,0,8.2C68,58.4,65.3,60,62.3,60z M38.5,15.2L18.8,49.4c-0.9,1.5-0.9,3.3,0,4.7c0.9,1.5,2.4,2.4,4.1,2.4
			h39.4c1.7,0,3.3-0.9,4.1-2.4c0.9-1.5,0.9-3.3,0-4.7L46.7,15.2c-0.9-1.5-2.4-2.4-4.1-2.4C40.8,12.8,39.4,13.8,38.5,15.2L38.5,15.2z
			"/>
	</g>
	<g class="st4">
		<path class="st2" d="M43.8,41.1v1c0,1.4,0,1.7,0.1,2.1h-2.7c0.1-0.6,0.1-1.2,0.1-2.1v-5.8c-0.3,2.6-0.3,2.6-0.5,3.8
			c-0.3,1.7-0.6,2.8-1.3,4.1c-0.5-0.9-0.9-1.4-1.5-2c0,0.9,0,1.3,0.1,2.1H35c0.1-1,0.1-1.3,0.1-2.2v-4.8c0-0.4,0-0.9,0-2.1
			c-0.3,0.5-0.6,0.9-0.9,1.3c-0.3-1.6-0.5-2.2-1-3.6c0.9-1,1.7-2.2,2.3-3.7c0.5-1.2,0.8-2.3,0.9-3.2l2.9,0.7
			c-0.1,0.3-0.1,0.3-0.2,0.7c0.5,0,1.1,0.1,1.9,0.1h0.3V27c0-0.5,0-0.7-0.1-1h3c0,0.3-0.1,0.6-0.1,0.9v0.3H46V27c0-0.5,0-0.7-0.1-1
			H49c0,0.3-0.1,0.5-0.1,0.9v0.3h0.6c0.9,0,1.7,0,2.1-0.1v2.7c-0.7-0.1-0.9-0.1-2.1-0.1H49v0.9h0.7c1.1,0,1.5,0,2.2-0.1v2.6
			C51.4,33,50.8,33,50.1,33h-8.6v0.6c0.5,0,1,0.1,1.9,0.1h6.2c0.8,0,1.3,0,1.8-0.1c-0.1,0.5-0.1,1-0.1,2v6.5c0,1.5-0.4,1.8-3.2,1.9
			c-0.1-0.9-0.2-1.3-0.5-2.1c0.3,0,0.5,0,0.7,0c0.3,0,0.3-0.1,0.3-0.4v-0.6h-1.2v0.7c0,1.2,0,1.7,0.1,2.2h-2.6
			c0.1-0.6,0.1-1.2,0.1-2.2v-0.7h-1.2V41.1z M37.9,40.5c0.3-0.7,0.4-1.2,0.5-1.9c0.2-1.2,0.3-3.3,0.3-5.6c0-1.1,0-1.6-0.1-2.4
			c0.8,0.1,1.1,0.1,2.1,0.1h0.6v-0.9H41c-1.1,0-1.5,0-2,0.1v-2.1c-0.4,1.2-0.6,1.7-1.1,2.8V40.5z M45,35.8h-1.2v0.8H45V35.8z
			 M45,38.4h-1.2v0.8H45V38.4z M46.1,30.7v-0.9h-1.9v0.9H46.1z M48.6,36.6v-0.8h-1.2v0.8H48.6z M48.6,39.2v-0.8h-1.2v0.8H48.6z"/>
	</g>
	<g class="st4">
		<path class="st2" d="M41.4,20.7c0,0.3,0.1,0.5,0.2,0.6c0.2,0.3,0.6,0.4,1,0.4c0.7,0,1.1-0.3,1.1-0.8c0-0.3-0.1-0.5-0.4-0.6
			c-0.2-0.1-0.4-0.1-1.3-0.4c-0.8-0.2-1.1-0.3-1.4-0.5c-0.5-0.4-0.8-0.9-0.8-1.6c0-1.3,1.1-2.1,2.7-2.1c1.1,0,1.9,0.3,2.4,1
			c0.2,0.3,0.3,0.5,0.4,1l-1.8,0.2c-0.1-0.6-0.4-0.8-1.1-0.8c-0.5,0-0.9,0.3-0.9,0.7c0,0.2,0.1,0.4,0.4,0.5c0.2,0.1,0.2,0.1,1.2,0.3
			c0.7,0.1,1.1,0.3,1.4,0.5c0.6,0.4,0.9,1,0.9,1.7c0,0.6-0.2,1.2-0.6,1.6c-0.5,0.5-1.2,0.7-2.3,0.7c-0.7,0-1.4-0.2-1.9-0.4
			c-0.4-0.2-0.7-0.6-0.9-1.1c-0.1-0.2-0.1-0.4-0.2-0.8L41.4,20.7z"/>
	</g>
	<polygon points="27.7,53.4 42.5,67.4 72.3,22.4 39.9,56.7 31,49.3 	"/>
</g>
<g>
	<path class="st6" d="M292.7-117.5c0,0.4,0.3,0.5,1.8,0.5s1.9-0.1,2.1-0.7s0.3-1.6,0.3-3.3c1.2,0.5,1.7,0.7,2.8,1
		c-0.3,3.5-0.6,4.7-1.6,5.3c-0.6,0.4-1.9,0.5-4.1,0.5c-3.3,0-4.1-0.4-4.3-1.9c-1.1,0.7-1.6,1.1-2.9,1.8c-0.6-1.1-1.1-1.7-2-2.6
		c1.9-0.9,3.4-1.7,4.9-2.8v-6.1c0-0.9,0-1.3-0.1-2.1h3.2c-0.1,0.7-0.1,1.3-0.1,2v3.7c1.7-1.7,3.2-3.9,4.3-6.1
		c0.6-1.2,0.9-2.1,1.1-2.8l3.1,1.2c-0.3,0.6-0.3,0.6-0.9,1.7c-0.7,1.5-1.1,2.1-1.8,3.3l2.2-1c1.1,2.4,1.9,4.4,2.8,7.6l-2.8,1.5
		c-0.7-3.1-1.4-5.3-2.5-7.6c-1.7,2.6-3.2,4.3-5.5,6.3V-117.5z M289.1-126c-0.3,3.4-0.7,5.2-1.5,7.3l-2.7-1.3c0.8-2,1.2-3.8,1.5-6.7
		L289.1-126z M291.3-132.4c2.4,0.9,3.7,1.5,5.5,2.5l-1.7,2.6c-1.3-1-3-1.8-5.6-2.8L291.3-132.4z"/>
	<path class="st6" d="M306.7-121c-0.9,0-1.6,0-2.1,0.1v-2.5c0.7,0.1,1.4,0.1,2.1,0.1h13.6c0.8,0,1.5,0,2.1-0.1v2.5
		c-0.6,0-1.3-0.1-2.1-0.1h-5.5c-0.1,0.2-0.2,0.3-0.3,0.6h5.1c0.8,0,1.4,0,1.8-0.1c-0.1,0.4-0.1,0.8-0.1,1.4v2.7
		c0,1.7-0.5,2.2-2.2,2.2c-0.2,0-0.2,0-1.5-0.1c-0.1-1.3-0.2-1.8-0.5-2.6c0.4,0.1,0.8,0.1,1,0.1c0.3,0,0.4-0.1,0.4-0.3v-1.3h-1.7v2.2
		c0,0.9,0,1.3,0.1,1.8h-2.8c0.1-0.5,0.1-1,0.1-1.8v-2.2h-1.4v2.2c0,0.8,0,1.3,0.1,1.8h-2.8c0.1-0.5,0.1-1,0.1-1.8v-2.2h-1.4v2.4
		c0,0.8,0,1.3,0.1,1.8h-3c0.1-0.7,0.1-1.3,0.1-2v-2.8c0-0.5,0-1.1-0.1-1.6c0.5,0,0.9,0.1,2,0.1h3.6c0.2-0.3,0.2-0.3,0.3-0.6h-5.1
		L306.7-121L306.7-121z M308-129.8c-0.9,0-1.6,0-2.1,0.1v-2.3c0.6,0.1,1.4,0.1,2.4,0.1h10.4c1,0,1.9,0,2.4-0.1v2.3
		c-0.6,0-1.3-0.1-2.1-0.1h-4.2v0.5h4.7c1.5,0,2.1,0,2.7-0.1c-0.1,0.5-0.1,0.8-0.1,1.7v1.4c0,0.8,0,1.1,0.1,1.7h-2.8v-2.7h-4.6v1.6
		c0,0.9,0,1.3,0.1,1.8h-3.1c0.1-0.6,0.1-1,0.1-1.8v-1.6h-4.4v2.7h-2.8c0.1-0.5,0.1-0.9,0.1-1.7v-1.4c0-0.8,0-1.2-0.1-1.7
		c0.6,0,1.1,0.1,2.7,0.1h4.5v-0.5H308z M308-126.8c0.2,0,0.4,0,0.9,0h1.6c0.5,0,0.6,0,0.8,0v1.3c-0.2,0-0.4,0-0.8,0h-1.6
		c-0.4,0-0.6,0-0.9,0V-126.8z M308-125.1c0.2,0,0.3,0,0.9,0h1.6c0.5,0,0.7,0,0.8,0v1.3c-0.2,0-0.4,0-0.8,0h-1.6c-0.4,0-0.6,0-0.9,0
		V-125.1z M315.4-126.8c0.2,0,0.3,0,0.8,0h1.9c0.5,0,0.6,0,0.8,0v1.3c-0.2,0-0.4,0-0.8,0h-1.9c-0.4,0-0.5,0-0.8,0V-126.8z
		 M315.4-125.1c0.2,0,0.3,0,0.8,0h1.9c0.5,0,0.6,0,0.8,0v1.3c-0.2,0-0.4,0-0.8,0h-1.9c-0.4,0-0.5,0-0.8,0V-125.1z"/>
	<path class="st6" d="M324.1-114.1c0.1-0.6,0.1-1.1,0.1-2.2v-5.3c0-0.7,0-1.2-0.1-1.8c0.6,0.1,1.1,0.1,2,0.1h4.8
		c0.5,0,0.9,0,1.3-0.1c0,0.4,0,0.6,0,1.5v5.8c0,0.7,0,1.2,0.1,1.6h-2.9v-0.5h-2.2v0.8L324.1-114.1L324.1-114.1z M326.6-130
		c0-0.7,0-1.2-0.1-1.8c0.5,0.1,1.2,0.1,2.2,0.1h8.2c1.1,0,1.7,0,2.2-0.1c-0.1,0.5-0.1,1-0.1,1.8v3.9c0,0.9,0,1.4,0.1,1.9
		c-0.5,0-0.9-0.1-2-0.1h-8.6c-1,0-1.4,0-2,0.1c0-0.5,0.1-1.1,0.1-1.9L326.6-130L326.6-130z M329.4-120.7h-2.3v3h2.3V-120.7z
		 M329.5-128.9v2h6.7v-2H329.5z M339.7-123.3c0.9,0,1.4,0,1.8-0.1c-0.1,0.6-0.1,1-0.1,1.8v5.3c0,1.1,0,1.6,0.1,2.2h-3v-0.8h-2.4v0.8
		h-2.9c0-0.5,0.1-0.9,0.1-1.6v-6.1c0-0.9,0-1.1,0-1.5c0.4,0,0.8,0.1,1.3,0.1L339.7-123.3L339.7-123.3z M336-117.6h2.5v-3H336V-117.6
		z"/>
	<path class="st6" d="M359.6-131.3l-6.9,18.8h-3.5l7-18.8H359.6z"/>
	<path class="st6" d="M376.5-128.8c-1.5-0.7-2.8-1.2-4.5-1.8l2.1-2c2.1,0.6,3.5,1.2,5.4,2.1l-1.5,1.7h3.4c1.2,0,1.9,0,2.7-0.1v3
		c-0.8-0.1-1.4-0.1-2.7-0.1h-4v2.7h3.4c0.9,0,1.5,0,2.3-0.1v2.9c-0.7-0.1-1.2-0.1-2.2-0.1h-3.5v3.1h4.4c1.2,0,2,0,3-0.1v3
		c-1-0.1-1.7-0.1-2.9-0.1h-11.6c-1.4,0-2.2,0-3.1,0.1v-3c0.8,0.1,1.7,0.1,3,0.1h4.2v-3.1h-3c-1.1,0-1.7,0-2.5,0.1v-2.9
		c0.7,0.1,1.1,0.1,2.2,0.1h3.3v-2.7h-3.8c-1.6,0-2.1,0-2.7,0.1v-3c0.8,0.1,1.4,0.1,2.6,0.1H376.5z"/>
	<path class="st6" d="M403.5-119.5c-1.3,1-2,1.6-2.9,2.2c1.1,0.3,2.2,0.5,4,0.5c-0.6,1.1-0.9,1.7-1.3,2.9c-3.3-0.5-5.3-1.2-7.2-2.7
		v1.3c-2.6,0.5-4.4,0.8-7.7,1.3c-0.4,0.1-0.7,0.1-1,0.2l-0.4-3.1c0.2,0,0.3,0,0.5,0c0.1,0,1.1-0.1,1.8-0.1v-8.4c0-0.2,0-0.2,0-0.2
		c-0.7,0.4-1.1,0.5-2,0.9c-0.3-1.2-0.5-1.8-1.2-3c1.5-0.4,3-1,4.4-1.9c1.5-0.9,2.4-1.6,3.3-2.7h3.2c1,1.1,2,2,3.5,2.8
		s2.9,1.4,4.4,1.7c-0.6,1.1-0.9,1.8-1.2,3c-0.8-0.3-1.5-0.6-2.1-0.9v4.8c0,0.2,0,0.2,0,0.2L403.5-119.5z M392-124.5h6.5v-0.7H392
		V-124.5z M392-121.9h6.5v-0.7H392V-121.9z M392-119.7v2.4c0.1,0,0.1,0,0.2,0c0.8-0.1,2-0.3,2.6-0.3c-0.7-0.7-0.9-0.9-1.6-2
		L392-119.7L392-119.7z M393.8-128c0-0.3,0-0.4,0-0.6c-0.6,0.5-1.1,0.9-1.7,1.2h1.7V-128z M396.4-128.8c-0.4-0.4-0.7-0.6-1.2-1.1
		c-0.5,0.5-0.7,0.7-1.1,1.1H396.4z M398.4-127.3c-0.9-0.6-1.2-0.9-1.7-1.3c0,0.2,0,0.4,0,0.7v0.6
		C396.7-127.3,398.4-127.3,398.4-127.3z M396.6-119.7c0.3,0.4,0.7,0.8,1.2,1.1c0.6-0.3,1.2-0.7,1.6-1.1H396.6z"/>
	<path class="st6" d="M422.2-131.3l-6.9,18.8h-3.5l7-18.8H422.2z"/>
	<path class="st6" d="M439.1-128.8c-1.5-0.7-2.8-1.2-4.5-1.8l2.1-2c2.1,0.6,3.5,1.2,5.4,2.1l-1.5,1.7h3.4c1.2,0,1.9,0,2.7-0.1v3
		c-0.8-0.1-1.4-0.1-2.7-0.1h-4v2.7h3.4c0.9,0,1.5,0,2.3-0.1v2.9c-0.7-0.1-1.2-0.1-2.2-0.1H440v3.1h4.4c1.2,0,2,0,3-0.1v3
		c-1-0.1-1.7-0.1-2.9-0.1h-11.6c-1.4,0-2.2,0-3.1,0.1v-3c0.8,0.1,1.7,0.1,3,0.1h4.2v-3.1h-3c-1.1,0-1.7,0-2.5,0.1v-2.9
		c0.7,0.1,1.1,0.1,2.2,0.1h3.3v-2.7h-3.8c-1.6,0-2.1,0-2.7,0.1v-3c0.8,0.1,1.4,0.1,2.6,0.1H439.1z"/>
	<path class="st6" d="M451.5-119.5c-1,0-1.7,0-2.4,0.1v-2.8c0.6,0.1,1.3,0.1,2.4,0.1h0.4c-0.5-0.8-1-1.6-1.5-2.2l1.9-0.7
		c-0.3,0-0.4,0-0.6,0s-0.5,0-0.9,0c-0.3-0.9-0.6-1.5-1.2-2.5c2.2,0.1,3.2,0.1,4.5,0.1c2,0,4.3-0.1,6-0.2s2.6-0.3,4.1-0.6l1.9,2.3
		c-1.2,0.2-1.7,0.3-2.7,0.4l1.8,0.7c-1,1.4-1.4,2-2.1,2.7h1c1.1,0,1.8,0,2.4-0.1v2.8c-0.6-0.1-1.4-0.1-2.4-0.1h-3
		c1.5,1.2,3.3,1.9,5.7,2.4c-0.7,0.9-1,1.6-1.6,2.8c-1.4-0.4-2.5-0.9-3.7-1.7c-1-0.7-1.6-1.2-2.5-2.1c0,0.2,0,0.2,0,0.5
		c0,0.2,0,0.5,0,0.7v0.8c0,0.8,0,1.3,0.2,2h-3.3c0.1-0.7,0.2-1.2,0.2-2v-0.9c0-0.3,0-0.6,0-1.2c-1.4,1.7-3.2,2.9-5.9,3.7
		c-0.7-1.3-0.9-1.7-1.7-2.6c2.4-0.5,4.1-1.3,5.5-2.5L451.5-119.5L451.5-119.5L451.5-119.5z M453.1-131.4c0-0.3,0-0.6-0.1-0.9h3
		c0,0.4-0.1,0.6-0.1,0.9v0.2h3.6v-0.2c0-0.3,0-0.4-0.1-0.9h3c0,0.3-0.1,0.6-0.1,0.9v0.2h2.1c1,0,1.6,0,2.3-0.1v2.8
		c-0.6-0.1-1.3-0.1-2.3-0.1h-1.9c0,0.3,0,0.5,0.1,0.8h-3c0-0.3,0-0.5,0.1-0.8h-3.6c0,0.3,0,0.4,0.1,0.8h-3c0-0.3,0.1-0.5,0.1-0.8
		h-1.8c-1,0-1.7,0-2.3,0.1v-2.8c0.7,0.1,1.3,0.1,2.3,0.1h1.8v-0.2H453.1z M456.3-122c0-0.4,0-0.6-0.1-0.9h0.7
		c-0.4-0.8-0.5-0.9-1-1.6l1.4-0.5c-1.1,0.1-2,0.1-4.1,0.1c0.4,0.5,0.9,1.1,1.4,1.9l-2.3,1H456.3z M462.6-122l-2-0.9
		c0.7-0.9,1.2-1.5,1.7-2.4c-0.7,0.1-1.9,0.1-3.7,0.2c0.5,0.6,0.7,0.9,1,1.4l-2.2,0.7h2c-0.1,0.4-0.1,0.6-0.1,0.9h3.3L462.6-122
		L462.6-122z"/>
</g>
</svg>
