<?xml version="1.0" encoding="utf-8"?>
<!-- Generator: Adobe Illustrator 24.0.1, SVG Export Plug-In . SVG Version: 6.00 Build 0)  -->
<svg version="1.1" id="レイヤー_1" xmlns="http://www.w3.org/2000/svg" xmlns:xlink="http://www.w3.org/1999/xlink" x="0px"
	 y="0px" viewBox="0 0 226.8 226.8" style="enable-background:new 0 0 226.8 226.8;" xml:space="preserve">
<style type="text/css">
	.st0{fill:none;}
	.st1{fill:#FEE30B;}
	.st2{fill:#070304;}
	.st3{fill:#F8E522;}
</style>
<g id="グループ_87" transform="translate(0 -0.392)">
	<rect id="長方形_35" x="13.9" y="14.8" class="st0" width="199" height="198"/>
	<g id="グループ_62" transform="translate(1.5 3.133)">
		<g id="グループ_56" transform="translate(0 0)">
			<path id="パス_143" class="st1" d="M32.1,25.8c-2.2,8-5.9,16.3-12.6,18.7c6.4,3.1,10,10.4,12.2,18.1c1.3-6.9,3.8-13.5,8.4-18.1
				c1.3-1.2,2.7-2.1,4.2-3c-0.1-0.4-4.5-3-4.8-3.3C35.9,34.9,33.3,30.6,32.1,25.8z"/>
			<path id="パス_144" class="st2" d="M48.5,40.6c-10-3.7-13.3-16.2-14-25.6c0-0.1,0-0.2-0.2-0.3c-0.7-0.7-4.1-0.2-4,0.9
				c-1.2,6.3-5.3,28-13.8,28c-0.4,0-3.6,1-2.2,1.5c12.3,4.2,15.1,23.7,16,34.3c0.1,1.1,4.2,0.6,4.2-0.6
				c-0.1-12.2,1.6-31.2,13.8-37.3C48.7,41.4,49.2,40.8,48.5,40.6z M31.7,62.6c-2.1-7.6-5.8-14.9-12.2-18.1
				c6.7-2.4,10.4-10.8,12.6-18.7c1.2,4.7,3.8,9.1,7.4,12.4c0.3,0.3,4.7,2.9,4.8,3.3c-1.5,0.8-2.9,1.8-4.2,3
				C35.5,49.1,33,55.7,31.7,62.6L31.7,62.6z"/>
		</g>
		<g id="グループ_57" transform="translate(30.767 32.779)">
			<path id="パス_145" class="st3" d="M28.9,25c-1.8,5.9-4.6,11.6-9.6,13.7c4.6,2.4,7.5,7.4,9.2,12.9c1.1-5,3-9.6,6.3-12.8
				c1.3-1.2,3.5-2.6,3.5-2.4c0-0.2-3.4-2.2-3.6-2.4C32,31.6,30,28.5,28.9,25z"/>
			<path id="パス_146" class="st2" d="M42.5,35.5c-8-3-10.6-13-11.2-20.5c0-0.1,0-0.2-0.2-0.3c-0.7-0.7-4.1-0.2-4,0.9
				c-0.9,4.8-4.2,22.1-10.6,22.3c-0.4,0-3.6,1-2.2,1.5c9.9,3.4,12,19,12.8,27.5c0.1,1.1,4.2,0.6,4.2-0.6c0-9.8,1.3-24.8,11-29.8
				C42.7,36.3,43.2,35.7,42.5,35.5z M34.9,38.9c-3.3,3.1-5.2,7.8-6.3,12.8c-1.8-5.5-4.6-10.5-9.2-12.9c5-2.1,7.8-7.8,9.6-13.7
				c1.1,3.5,3.1,6.6,5.8,9c0.2,0.2,3.6,2.2,3.6,2.4C38.3,36.3,36.1,37.7,34.9,38.9L34.9,38.9z"/>
		</g>
		<path id="パス_147" class="st1" d="M106.6,113.8c-0.2,0-0.3-0.1-0.5-0.1c-2.9-0.6-5-3.2-5-6.2c0-1-0.5-1-1.2-0.9
			c-1,0.1-0.7,0.9-0.7,1.4c0.2,2.5-1.1,4.9-3.2,6.2c-1.3,0.6-2.8,1-4.2,1.3c-0.3,0.1-0.7,0.1-0.8,0.2c-0.7,0.8,0.1,3,1.2,3.2
			c1.2,0.2,2.4,0.5,3.5,0.9c1.6,0.6,2.5,2.4,2,4.1c0,0.3-0.1,0.5-0.1,0.8c-0.1,0.5,0,0.7,0.6,0.7c0.3,0,0.5,0,0.7-0.1
			c0.3,0,0.4,0,0.6,0c1.9,0,2-0.1,1.8-2c-0.4-3,0.9-4.9,3.8-5.6c0.9-0.1,1.7-0.2,2.6-0.2c0.3,0,0.6-0.2,0.7-0.3
			C109,115.3,108.5,114.3,106.6,113.8z"/>
		<path id="パス_148" class="st1" d="M167.4,106.2C167.4,106.2,167.5,106.1,167.4,106.2l-0.3-0.1l0,0
			C167.2,106.1,167.3,106.2,167.4,106.2z"/>
		<path id="パス_149" class="st1" d="M160.9,115.2c-2.2-0.4-3.9-2.3-4-4.6c0-0.8-0.2-1.6-0.5-2.3c-0.3-0.4-0.7-0.7-1.2-0.8
			c-0.2-0.1-0.7,0.3-0.8,0.5c-1.6,3.1-4.7,5.2-8.2,5.5c-0.2,0-0.7,0.3-0.7,0.4c0.1,0.9,0.3,1.8,0.7,2.6c0.2,0.3,0.9,0.5,1.4,0.5
			c1.7,0.1,3.2,1.1,4,2.6c0.6,1.3,1.1,2.7,1.5,4.1c0.1,0.4,0.1,0.9,0.3,1.2c0.3,0.3,0.8,0.5,1.2,0.5c0.1,0,0.4-0.5,0.5-0.8
			c0.7-3.3,2.6-5.3,6-5.7c0.5-0.1,0.9-0.2,1.4-0.2c1.7-0.2,2.1-0.7,2.3-2.4c0.1-0.9,0-0.8-0.8-0.9C163,115.5,162,115.4,160.9,115.2z
			"/>
		<path id="パス_150" class="st1" d="M191.7,144.3c3.2,1.1,5.6,0,6.8-3.2c0.6-1.6,1-3.3,1.2-5.1c0.4-2.9,0.1-5.8-0.9-8.5
			c-0.7-1.6-1.7-2.9-3.5-3c-2.6-0.3-5.2,0.8-6.9,2.8c-0.9,1.1-2.3,1.6-3.6,1.4c-0.8,0-1-0.5-1-1.3c0.1-1.3,0.1-2.6,0.1-3.9
			c-0.2-3-0.5-6-0.6-9c-0.1-3.6-0.5-4.3-3.9-5.3s-6.9-1.8-10.4-2.8c-0.5-0.1-0.6,0.1-0.6,0.5c-0.2,4.8-0.5,9.5-0.7,14.3
			c-0.1,2-0.3,4-0.6,6c-0.1,1.2-1.2,2.1-2.4,2c-0.6,0.1-1.1,0.1-1.7,0c-2.1-0.3-4.1-0.7-6.2-0.9c-4-0.4-8.1-0.7-12.1-1
			c-1-0.1-1.4-0.5-1.4-1.4c-0.1-3.7-0.2-7.4-0.3-11.1c-0.1-3.2-0.2-6.4-0.3-9.6c0-0.6-0.1-1-0.8-1c-0.3,0-0.5-0.2-0.8-0.3
			c0.3-0.1,0.6-0.4,0.9-0.4c0.7,0,1.5,0,2.2,0.1c1.3,0.1,2.5,0.3,3.8,0.4c6.4,0.7,12.7,1.5,19.1,2.2c-0.4-0.3-0.9-0.5-1.3-0.7
			c-9.2-3.2-18.4-6.3-27.5-9.7c-12.1-4.6-24.2-9.3-35.6-15.6c-0.4-0.3-1-0.2-1.4,0.2c-7.3,6-13.4,13.5-18.1,21.8
			c-0.3,0.4-0.5,0.9-0.6,1.4c-0.6,3.7-1.2,7.3-1.6,11c-0.6,5.1-1.1,10.1-2.8,15c-0.7,2-1.2,4.1-1.8,6.2c-1.2,4.2-1.4,8.7-0.5,12.9
			c1.7,7.7,6.2,13.3,12.8,17.4c5.7,3.3,11.9,5.5,18.4,6.6c9.9,1.9,19.9,2.2,30,2.1c0.6,0,1.1,0,1.7,0c0.7,0,1,0.3,1,1.1
			c-0.1,1.6,0,3.2-0.2,4.8c-0.3,1.2,0.2,2.5,1.3,3.3c0.4,0.3,0.5,0.3,0.8,0c1-0.8,2-1.4,3-2c0.6-0.2,0.9-0.8,0.7-1.4
			c-0.2-1.4-0.4-2.8-0.5-4.2c-0.2-1.9-0.1-2,1.9-2.4c3.6-0.8,7.2-1.4,10.7-2.4c6.3-1.6,12.2-4.6,17.4-8.5c5.8-4.6,9.3-10.4,9.2-18.1
			c0-2.3,0.4-2.7,2.7-2.6c0.6,0.1,1.2,0.2,1.7,0.5C189.5,143.3,190.6,143.9,191.7,144.3z M80.8,140.2c-0.1,0.4-1.7,0.5-1.6,0.1
			c0.8-2.2,1.6-4.5,2.3-6.7c0.1-0.4,1.7-0.5,1.6-0.1C82.4,135.8,81.6,138,80.8,140.2z M120.2,124.2c0.3-0.1,0.6-0.1,0.9-0.1
			c1.9-0.2,2.5-0.6,2.4-2.6c0-1.4-0.2-2.9-0.5-4.3c-0.2-0.6,0.1-1.2,0.6-1.4c0.1,0,0.2-0.1,0.2-0.1c1.7-0.5,2.4-0.1,2.7,1.6
			c0.1,0.5,0.2,1,0.3,1.5c0.1,0.5,0.1,1,0.1,1.4h0.2c-0.2,1-0.4,1.9-0.7,2.9c-0.5,1-1.4,1.7-2.5,1.9c-0.4,0.1-0.8,0.1-1.2,0.2
			c-2.7,0.6-3.5,2.4-2.2,4.9c0.2,0.3,0.4,0.6,0.6,0.9c0.7,1,0.7,1.1-0.4,1.5c-1.5,0.5-2.2,0.3-3.1-1c-0.3-0.4-0.5-0.9-0.7-1.4
			C115.6,127,116.8,124.7,120.2,124.2z M96.1,96.6c0.4-0.2,0.9-0.3,1.4-0.3c0.9,0,1.7,0,2.6,0l0,0c0.9,0,1.8,0,2.7,0
			c2-0.1,2.8-0.7,3.3-2.6c0.3-1.4,0.6-2.7,0.8-4.1c0.2-1.2,1.4-1.9,2.6-1.7c0.2,0,0.3,0.1,0.5,0.2c0.3,0.3,0.4,0.6,0.4,1
			c-0.1,1-0.3,2.1-0.5,3.1c-0.8,3.6-2.3,5.1-6,5.5c-2.5,0.2-5,0.1-7.6,0.1c-0.3,0-0.6-0.3-0.8-0.4C95.6,97,95.8,96.7,96.1,96.6
			L96.1,96.6z M86.4,139.6c-0.1,0.4-1.7,0.5-1.6,0.1l2.3-7.1c0.1-0.4,1.7-0.5,1.6-0.1L86.4,139.6z M91.7,139.2
			c-0.2,0.4-1.8,0.4-1.6,0.1c0.8-1.9,1.6-3.7,2.4-5.6c0.2-0.4,1.8-0.4,1.6-0.1L91.7,139.2z M112.3,105c-0.3,2.2-0.7,4.5-1,6.7
			c-0.6,4.1-1.3,8.3-1.9,12.4c-0.4,2.5-0.1,2.1-2.5,2.3c-3.7,0.3-7.4,0.5-11.1,0.8c-1.5,0.1-3,0.5-4.5,0.6c-2.4,0.2-3-0.4-3.2-2.9
			c0-0.3,0-0.7,0-1H88c0.3-2.4,0.6-4.8,0.9-7.3c0.3-3.1,0.5-6.3,0.8-9.4c0.2-1.9,0.1-1.9,2-2.1c6.9-0.9,13.8-1.8,20.7-2.8
			c0.3-0.1,0.7-0.1,1-0.1c0.1,0,0.2,0.1,0.3,0.2c0,0.1-0.1,0.3-0.1,0.3C112.2,103,112.4,104,112.3,105L112.3,105z M145,164.3
			c-2,1.9-4.7,3.2-7.5,3.5c-3.8,0.5-7.7,0.1-11.4-1.2c-2.7-1-4.9-3-6.1-5.6c-2.7-5.3-4.2-11.2-4.4-17.2c0-0.6-0.2-1.4,0.6-1.5
			c0.8-0.2,1.6-0.2,2.4-0.1c0.2,0,0.4,0.7,0.4,1.1c0,4.4,0.9,8.8,2.4,12.9c0.5,1.3,1,2.5,1.6,3.7c1.8,4.1,5.2,5.9,9.4,6.4
			c1.4,0.1,2.9,0.2,4.3,0.1c3.2-0.1,6.1-1.9,7.7-4.7c2.2-3.8,3.4-8.2,3.5-12.6c0-0.5,0-1,0-1.6h0.2c-0.2-1.9-0.4-3.7-0.8-5.5
			c-0.4-1.8-1-2.1-2.8-2c-9.6,0.6-19.2,1.2-28.9,1.8c-0.5,0-1,0-1.6,0c-0.2,0-0.5-0.2-0.5-0.3c0-0.2,0.1-0.5,0.3-0.6
			c0.5-0.2,1-0.4,1.5-0.4c3.5-0.2,7.1-0.3,10.6-0.5c7.1-0.4,14.3-0.8,21.4-1.2c1.9-0.1,2-0.1,2.7,1.7
			C153.4,147.9,151.1,158.7,145,164.3L145,164.3z M169.1,130.7c-0.5,1.3-1,2.6-1.6,3.8c-0.2,0.4-0.5,0.7-1,0.9
			c-0.8,0.3-1.1-0.1-0.8-0.9c0.6-1.5,1.3-3,1.9-4.6c0.2-0.6,0.9-0.9,1.5-0.7c0.2,0,0.3,0.2,0.4,0.3
			C169.4,130.1,169.3,130.4,169.1,130.7z M174.8,129.8c-0.8,1.4-1.6,2.9-2.5,4.3c-0.3,0.4-0.7,0.7-1,1c-0.8-0.2-1-0.4-0.7-1
			c0.9-1.5,1.7-3,2.6-4.5c0.2-0.3,0.5-0.5,0.9-0.7c0.2-0.1,0.6,0.1,0.9,0.1C175,129.3,174.9,129.6,174.8,129.8L174.8,129.8z
			 M178.7,131.3c-0.5,1.3-0.9,2.6-1.4,3.9c-0.1,0.4-0.6,0.6-0.9,0.9c-0.8-0.1-0.9-0.4-0.7-1c0.4-1.3,0.9-2.5,1.3-3.8
			c0.2-0.6,0.6-0.7,1.2-0.7C178.6,130.6,178.9,130.7,178.7,131.3L178.7,131.3z"/>
		<g id="グループ_58" transform="translate(61.792 35.632)">
			<path id="パス_151" d="M126.9,88.2c2-1.1,4.3-1.5,6.6-1.3c0.9,0.2,1.8-0.3,2.1-1.2c2.2-4,2.9-8.3,2.9-13.6
				c-0.1-1-0.2-2.9-0.4-4.7c-0.8-5.7-2.3-11.3-4.3-16.7C130,39.4,122.3,29.9,112,24c-12.8-7.7-27.7-10.9-42.5-9.2
				c-11.2,1.1-21.4,4.9-30,12.4c-0.9,0.7-2,1.2-3.1,1.5c-3.9,0.8-7.7,2.1-11.2,3.8c-5.2,2.7-9.1,6.6-10.5,12.4
				c-1.9,7.4,0.3,14.2,3.4,20.9c0.2,0.4,0.4,0.4,0.6,0c0.1-0.2,0.2-0.5,0.4-0.7c5-8.5,11.6-16,19.3-22.2c1.1-1,2.7-1.1,3.9-0.3
				c3.8,2,7.6,4,11.6,5.8c21.7,9.9,44.1,17.8,67,24.6c3.5,1.1,3.5,1,3.9,4.7c0.3,3.3,0.6,6.5,0.8,9.8
				C125.6,88.9,125.6,88.9,126.9,88.2z"/>
			<path id="パス_152" d="M140.6,124.3c-0.6-4.9-3-9.3-6.8-12.5c-0.5-0.5-1.2-0.7-1.9-0.8c-1.4-0.1-2.9-0.2-4.3-0.5
				c-0.7-0.1-1-0.1-1.1,0.7c-0.3,1.9-0.8,3.8-1.2,5.8c0,0.4,0.1,0.7,0.3,1c0.9,1.1,1.8,2.1,2.7,3.2c4.3,5.6,7.9,11.6,10.7,18.1
				c0.1,0.2,0.3,0.5,0.5,0.7c0.1-0.2,0.2-0.5,0.3-0.7c0.5-3.3,1-6.5,1.3-9.1C140.9,127.6,140.8,125.9,140.6,124.3z"/>
		</g>
		<g id="グループ_59" transform="translate(113.256 167.392)">
			<path id="パス_153" class="st1" d="M22.7,25.8c0.6-0.9,1.1-1.9,1.7-2.8c2.1-4,1.8-5.1-1.9-7.7c-0.1,0-0.1-0.1-0.2-0.2
				c-0.4-0.4-1-0.4-1.4-0.1c-0.2,0.2-0.3,0.4-0.3,0.5c-0.5,1.1-0.9,2.3-1.2,3c0.3,2.6,1.2,5.1,2.5,7.4
				C22.3,26.5,22.5,26.1,22.7,25.8z"/>
			<path id="パス_154" class="st1" d="M42.4,34.1c-1.4-3.7-2.8-7.3-4.2-11c-0.1-0.2-0.2-0.3-0.4-0.4c-0.1,0.1-0.2,0.3-0.3,0.4
				c-0.6,1.3-1.2,2.7-1.9,4c-0.4,1.3-1.8,1.9-3,1.5c-0.4-0.1-0.8-0.4-1-0.7c-0.6-0.6-1.1-1.2-1.5-2c-0.7-1.2-1.2-2.5-1.7-3.8
				c-0.2-0.3-0.3-0.7-0.5-1c-0.3,0.3-0.5,0.7-0.7,1c-0.4,0.9-0.7,1.8-1.2,2.6c-0.6,1.2-1.4,2.2-2.2,3.2c-1.4,1.4-3,1.1-4.1-0.5
				c-0.4-0.6-0.7-1.2-1-1.9c-0.2-0.5-0.4-0.5-0.7,0c-1.3,2.8-2.7,5.5-3.8,8.3c-0.9,2.2,0.1,3.5,2.5,3.7c1.6,0.1,3.3,0,5,0v-0.1
				c1.8,0.1,3.6,0.2,5.4,0.2c3.5,0.1,7,0.3,10.5,0.4c1.3,0,2.6-0.3,3.9-0.3c0.9,0,1.3-0.4,1.3-1.2C42.7,35.9,42.6,35,42.4,34.1z"/>
			<path id="パス_155" class="st1" d="M33.1,25.4c0.3,0.5,0.5,0.5,0.7-0.1c0.9-2.1,1.9-4.1,2.8-6.2c0.2-0.5,0.3-1,0.4-1.6
				c-0.3-0.8-0.5-1.7-0.9-2.5c-0.1-0.5-0.7-0.7-1.1-0.6c-0.1,0-0.2,0.1-0.3,0.1c-1.1,0.6-2.2,1.1-3.2,1.7c-1.5,1-1.9,2-1.1,3.7
				C31.2,21.8,32.2,23.6,33.1,25.4z"/>
		</g>
		<path id="パス_156" d="M167.1,106.1L167.1,106.1L167.1,106.1L167.1,106.1z"/>
		<path id="パス_157" class="st1" d="M118.6,142.1c0.2,0,0.4,0.7,0.4,1.1c0,4.4,0.9,8.8,2.4,12.9c0.5,1.3,1,2.5,1.6,3.7
			c1.8,4.1,5.2,5.9,9.4,6.4c1.4,0.1,2.9,0.2,4.3,0.1c3.2-0.1,6.1-1.9,7.7-4.7c2.2-3.8,3.4-8.2,3.5-12.6c0-0.5,0-1,0-1.6h0.2
			c-0.2-1.9-0.4-3.7-0.8-5.5c-0.4-1.8-1-2.1-2.8-2c-9.4,0.6-18.7,1.1-28.1,1.7v0.6C117.1,142.1,117.9,142.1,118.6,142.1z"/>
		<g id="グループ_60" transform="translate(57.146 34.462)">
			<path id="パス_158" d="M148,122.5c-1-4.1-3.2-7.8-6.5-10.5c-0.5-0.4-0.8-0.6,0-1.1c2.6-1.5,4.3-4.1,4.8-7
				c0.8-3.1,0.8-6.3,0.2-9.3c-0.4-2.2-1.7-4.2-3.6-5.4c-0.5-0.3-0.6-0.5-0.3-1c3.2-4.7,4-10.1,3.7-15.6c-0.5-10.1-3.3-19.9-8-28.8
				c-6.5-12.6-16.9-20.8-30.5-24.9c-7.1-2.2-14.4-3.7-21.8-4.3c-0.3,0-0.5-0.1-0.7-0.2H75.2c-2.3,0.3-4.7,0.6-7,1
				c-7.3,1.3-14.4,4-20.8,8c-1,0.6-2,1.4-2.9,2.2c-2.3,2.2-5.3,3.7-8.4,4.3c-4.6,0.9-9,2.8-12.8,5.6c-7.4,5.5-9.9,12.7-8,21.6
				c1,4.3,2.7,8.5,5,12.3c0.3,0.5,0.5,1.1,0.4,1.7c-0.9,6.5-1.9,13-2.9,19.4c-0.3,1.5-0.7,2.9-1.2,4.3c-1.3,3.2-2.1,6.6-2.5,10.1
				c0,0.2-0.1,0.3-0.2,0.5v5.5c0.3,1.5,0.5,3,0.9,4.5c2,7.9,6.8,13.7,13.7,17.8c6.2,3.5,13,6,20,7.2c9.1,1.6,18.3,2.3,27.5,2.1
				c0.5,0,1,0,1.4,0c0.7,0,1,0.2,0.8,0.9c0,0.2-0.1,0.4,0,0.7c0.1,1.4-0.1,2.4-1.9,2.8c-2.3,0.8-3.8,3-3.5,5.4
				c0.1,1.7-0.3,3.4-1.3,4.8c-1.4,2.5-2.8,5-4,7.7c-0.6,1.4-0.9,2.8-1,4.3c-0.2,1.4,0.8,2.8,2.2,3c0.1,0,0.2,0,0.2,0
				c0.9,0.1,1.8,0.2,2.7,0.2c4.4,0.1,8.8,0.2,13.2,0.3c0.1,0,0.1,0.1,0.2,0.1h10.5c1-0.1,2.1-0.2,3.1-0.4c2.7-0.5,3.8-2,3.1-4.7
				c-0.8-3-1.8-5.9-2.9-8.8c-0.7-1.8-1.5-3.5-2.4-5.2c-0.6-1-0.9-2.2-0.8-3.3c0.2-1.5-0.7-2.8-2.1-3.3c-0.7-0.2-1.2-0.9-1.1-1.7
				c0-1-0.2-1.9-0.4-2.9c-0.2-0.9,0.1-1.2,1-1.4c3.3-0.7,6.7-1.4,9.9-2.4c6.4-1.8,12.5-4.7,17.9-8.7c2.7-2,5-4.4,6.8-7.2
				c0.5-0.8,0.7-0.8,1.3-0.1c4.3,5.3,7.9,11.1,10.6,17.4c0.9,2.1,1.8,4.3,2.6,6.4c0.3,0.9,0.7,1.4,1.8,1.4c1.3-0.1,1.8-0.4,2.2-1.6
				c1.2-3.8,2-7.7,2.4-11.6c0-0.2,0.1-0.4,0.2-0.6v-6.8C148.6,125.4,148.4,124,148,122.5z M19.2,46c1.5-5.8,5.4-9.7,10.5-12.4
				c3.6-1.8,7.3-3.1,11.2-3.8c1.1-0.2,2.2-0.7,3.1-1.5c8.7-7.4,18.8-11.2,30-12.4c14.8-1.7,29.7,1.6,42.5,9.2
				c10.3,5.9,18,15.4,21.8,26.7c2,5.4,3.4,11,4.3,16.7c0.2,1.9,0.3,3.7,0.4,4.7c0,5.3-0.7,9.7-2.9,13.6c-0.3,0.9-1.2,1.4-2.1,1.2
				c-2.3-0.2-4.6,0.2-6.6,1.3c-1.3,0.6-1.3,0.6-1.4-0.8c-0.3-3.3-0.5-6.5-0.8-9.8c-0.3-3.6-0.4-3.6-3.9-4.7
				c-22.8-6.8-45.3-14.7-67-24.6c-3.9-1.8-7.7-3.8-11.6-5.8c-1.2-0.8-2.8-0.7-3.9,0.3c-7.7,6.2-14.3,13.7-19.3,22.2
				c0,0.3-0.1,0.6-0.2,0.8c-0.2,0.4-0.4,0.4-0.6,0C19.5,60.2,17.4,53.4,19.2,46L19.2,46z M76.7,148.4c0.2-0.5,0.7-0.8,1.3-0.6
				c0.1,0.1,0.3,0.1,0.4,0.3c0.1,0.1,0.1,0.1,0.2,0.2c3.7,2.5,4,3.7,1.9,7.7c-0.5,1-1.1,1.9-1.7,2.8c-0.2,0.3-0.4,0.7-0.7,0.1
				c-1.3-2.3-2.2-4.8-2.5-7.4C75.8,150.7,76.2,149.5,76.7,148.4L76.7,148.4z M93.9,155.7c0.1,0.1,0.3,0.3,0.4,0.4
				c1.4,3.7,2.9,7.3,4.2,11c0.2,0.8,0.3,1.7,0.3,2.6c0,0.8-0.4,1.2-1.3,1.2c-1.3,0-2.6,0.3-3.9,0.3c-3.5-0.1-7-0.2-10.5-0.4
				c-1.8-0.1-3.6-0.2-5.4-0.2v0.1c-1.7,0-3.3,0.1-5,0c-2.4-0.2-3.4-1.5-2.5-3.7c1.1-2.8,2.5-5.5,3.8-8.3c0.2-0.5,0.4-0.5,0.7,0
				c0.3,0.6,0.6,1.3,1,1.9c1.1,1.6,2.7,1.9,4.1,0.5c0.9-1,1.6-2,2.2-3.2c0.5-0.8,0.8-1.8,1.2-2.6c0.2-0.4,0.4-0.7,0.7-1
				c0.2,0.3,0.3,0.7,0.5,1c0.6,1.3,1.1,2.6,1.7,3.8c0.4,0.7,0.9,1.4,1.5,2c0.9,1,2.4,1.1,3.4,0.2c0.3-0.3,0.6-0.6,0.7-1
				c0.6-1.3,1.2-2.7,1.9-4C93.7,155.9,93.8,155.8,93.9,155.7L93.9,155.7z M92.3,148c0.4,0.9,0.6,1.8,0.9,2.5
				c-0.1,0.5-0.3,1.1-0.4,1.6c-0.9,2.1-1.9,4.1-2.8,6.2c-0.2,0.5-0.4,0.6-0.7,0.1c-0.9-1.8-1.9-3.5-2.7-5.4
				c-0.7-1.7-0.4-2.7,1.1-3.7c1-0.7,2.1-1.2,3.2-1.7c0.4-0.3,1-0.2,1.3,0.2C92.2,147.8,92.2,147.9,92.3,148L92.3,148z M126.9,110.6
				c0.2,7.7-3.4,13.5-9.2,18.1c-5.2,4-11.1,6.9-17.4,8.5c-3.5,1-7.1,1.6-10.7,2.4c-2,0.4-2.1,0.5-1.9,2.4c0.2,1.4,0.3,2.8,0.5,4.2
				c0.2,0.6-0.2,1.2-0.7,1.4c-1.1,0.6-2.1,1.3-3,2c-0.3,0.3-0.5,0.3-0.8,0c-1-0.7-1.6-2-1.3-3.3c0.2-1.6,0.1-3.2,0.2-4.8
				c0-0.7-0.3-1.1-1-1.1c-0.6,0-1.1,0-1.7,0c-10.1,0.1-20.1-0.2-30-2.1c-6.5-1.1-12.7-3.3-18.4-6.6c-6.6-4.1-11.1-9.7-12.8-17.4
				c-0.8-4.3-0.6-8.7,0.6-12.9c0.5-2.1,1.1-4.1,1.8-6.2c1.7-4.9,2.2-9.9,2.8-15c0.4-3.7,1-7.3,1.6-11c0.1-0.5,0.3-1,0.6-1.4
				c4.6-8.4,10.7-15.8,18.1-21.9c0.3-0.4,0.9-0.5,1.4-0.2C57,52,69,56.7,81.2,61.3c9.1,3.4,18.3,6.5,27.5,9.7
				c0.5,0.2,0.9,0.4,1.3,0.7l0,0h0.4h-0.1c-0.1,0-0.2,0-0.3-0.1l0,0l0,0c-6.4-0.7-12.7-1.5-19.1-2.2c-1.3-0.1-2.5-0.3-3.8-0.4
				c-0.7-0.1-1.5-0.1-2.2-0.1c-0.3,0-0.6,0.3-0.9,0.4c0.3,0.1,0.5,0.3,0.8,0.3c0.8,0,0.8,0.4,0.8,1c0.1,3.2,0.2,6.4,0.3,9.6
				c0.1,3.7,0.2,7.4,0.3,11.1c0,1,0.4,1.4,1.4,1.4c4,0.3,8.1,0.6,12.1,1c2.1,0.2,4.1,0.6,6.2,0.9c0.6,0,1.1,0,1.7,0
				c1.2,0,2.2-0.8,2.4-2c0.3-2,0.5-4,0.6-6c0.3-4.7,0.5-9.5,0.7-14.3c0-0.4,0.1-0.6,0.6-0.5c3.5,0.9,6.9,1.7,10.4,2.8
				c3.5,1,3.8,1.7,3.9,5.3c0.1,3,0.4,6,0.6,9c0.1,1.3,0,2.6-0.1,3.9c-0.1,0.8,0.1,1.3,1,1.3c1.4,0.2,2.8-0.3,3.6-1.4
				c1.6-2.1,4.2-3.1,6.9-2.9c1.8,0.1,2.8,1.4,3.5,3c1,2.7,1.3,5.6,0.9,8.5c-0.2,1.7-0.6,3.4-1.2,5.1c-1.2,3.2-3.5,4.3-6.8,3.2
				c-1.1-0.4-2.1-1-3.2-1.4c-0.5-0.3-1.1-0.4-1.7-0.5C127.2,107.9,126.8,108.3,126.9,110.6L126.9,110.6z M107.7,82
				c-0.1,1.7-0.6,2.2-2.3,2.4c-0.5,0.1-0.9,0.2-1.4,0.2c-3.5,0.4-5.4,2.4-6,5.7c-0.1,0.3-0.4,0.8-0.5,0.8c-0.5,0-0.9-0.2-1.2-0.5
				c-0.3-0.3-0.2-0.8-0.3-1.2c-0.4-1.4-0.9-2.8-1.5-4.1c-0.8-1.5-2.3-2.5-4-2.6c-0.5,0-1.2-0.2-1.4-0.5c-0.3-0.8-0.6-1.7-0.7-2.6
				c0-0.1,0.4-0.4,0.7-0.4c3.5-0.3,6.6-2.4,8.2-5.5c0.2-0.3,0.6-0.6,0.8-0.5c0.5,0.1,0.9,0.4,1.2,0.8c0.3,0.7,0.4,1.5,0.5,2.3
				c0.2,2.3,1.8,4.1,4,4.6c1,0.2,2,0.4,3.1,0.4C107.7,81.1,107.7,81.1,107.7,82L107.7,82z M144.4,140.4c-0.1,0.2-0.2,0.5-0.3,0.7
				c-0.2-0.2-0.3-0.4-0.5-0.7c-2.8-6.5-6.4-12.5-10.7-18.1c-0.9-1.1-1.8-2.1-2.7-3.2c-0.2-0.3-0.3-0.6-0.3-1
				c0.4-1.9,0.9-3.8,1.2-5.8c0.1-0.8,0.5-0.8,1.1-0.7c1.4,0.3,2.8,0.4,4.3,0.5c0.7,0,1.4,0.3,1.9,0.8c3.7,3.2,6.2,7.6,6.8,12.5
				c0.3,1.7,0.3,3.4,0.5,5.8C145.4,133.8,144.9,137.1,144.4,140.4L144.4,140.4z"/>
			<path id="パス_159" d="M56.6,68c-0.1-0.1-0.2-0.2-0.3-0.2c-0.3,0-0.7,0-1,0.1c-6.9,0.9-13.8,1.9-20.7,2.8
				c-1.9,0.2-1.8,0.2-2,2.1c-0.3,3.1-0.5,6.3-0.8,9.4c-0.2,2.4-0.6,4.8-0.9,7.3H31c0,0.3,0,0.7,0,1c0.1,2.4,0.7,3,3.2,2.9
				c1.5-0.1,3-0.4,4.5-0.6c3.7-0.3,7.4-0.5,11.1-0.8c2.3-0.2,2.1,0.2,2.5-2.3c0.6-4.1,1.3-8.3,1.9-12.4c0.3-2.2,0.7-4.5,1-6.7
				c0.1-1-0.1-2,1.3-2.3C56.5,68.3,56.6,68,56.6,68z M51.1,82.7C51,82.9,50.6,83,50.4,83c-0.9,0-1.7,0.1-2.6,0.2
				c-2.9,0.7-4.2,2.6-3.8,5.6c0.2,1.9,0.2,2-1.8,2c-0.2,0-0.3,0-0.6,0c-0.2,0-0.4,0-0.7,0.1c-0.5,0.1-0.7-0.2-0.6-0.7
				c0.1-0.3,0.1-0.5,0.1-0.8c0.5-1.7-0.4-3.4-2-4.1c-1.1-0.4-2.3-0.7-3.5-0.9c-1-0.2-1.9-2.4-1.2-3.2c0.2-0.2,0.6-0.2,0.8-0.2
				c1.4-0.3,2.9-0.7,4.2-1.3c2.2-1.3,3.4-3.7,3.2-6.2c0-0.6-0.3-1.3,0.7-1.4c0.7-0.1,1.2-0.1,1.2,0.9c0,3,2.1,5.6,5,6.2
				c0.2,0,0.3,0.1,0.5,0.1C51.3,79.8,51.8,80.9,51.1,82.7z"/>
			<path id="パス_160" d="M90.1,104.1c-7.1,0.4-14.3,0.8-21.4,1.2c-3.2,0.2-6.3,0.3-9.5,0.5c-0.4,0-0.7,0-1.1,0.1
				c-0.5,0.1-1,0.2-1.5,0.4c-0.2,0.2-0.3,0.4-0.3,0.6c0,0.1,0.3,0.3,0.5,0.3c0.5,0,1,0,1.6,0h0.8c9.4-0.6,18.7-1.1,28.1-1.7
				c1.8-0.1,2.4,0.2,2.8,2s0.5,3.7,0.8,5.6h-0.2c0,0.5,0,1.1,0,1.6c-0.1,4.4-1.3,8.8-3.5,12.6c-1.5,2.8-4.5,4.6-7.7,4.7
				c-1.4,0.1-2.9,0.1-4.3-0.1c-4.2-0.5-7.6-2.3-9.4-6.4c-0.5-1.2-1.1-2.5-1.6-3.7c-1.5-4.1-2.4-8.5-2.4-12.9c0-0.4-0.2-1.1-0.4-1.1
				c-0.7-0.1-1.5,0-2.2,0.1c-0.1,0-0.1,0-0.2,0c-0.8,0.2-0.6,0.9-0.6,1.5c0,2.3,0.3,4.6,0.8,6.8c0.8,3.6,2,7.1,3.6,10.4
				c1.2,2.6,3.4,4.6,6.1,5.6c3.6,1.3,7.5,1.7,11.4,1.2c2.8-0.3,5.4-1.5,7.5-3.5c6.1-5.6,8.4-16.4,5-24.1
				C92.1,104,92.1,104,90.1,104.1z"/>
			<path id="パス_161" d="M60.5,97.1c0.9,1.3,1.6,1.5,3.1,1c1.1-0.4,1.1-0.5,0.4-1.5c-0.2-0.3-0.4-0.6-0.6-0.9
				c-1.3-2.4-0.5-4.3,2.2-4.9c0.4-0.1,0.8-0.1,1.2-0.2c1.1-0.2,2.1-0.9,2.5-1.9c0.3-0.9,0.5-1.9,0.7-2.9h-0.2c0-0.5,0-1-0.1-1.4
				c-0.1-0.5-0.2-1-0.3-1.5c-0.4-1.7-1.1-2.2-2.7-1.6c-0.6,0.1-1,0.6-0.9,1.2c0,0.1,0,0.2,0.1,0.2c0.3,1.4,0.5,2.8,0.5,4.3
				c0,2-0.5,2.5-2.4,2.6c-0.3,0-0.6,0-0.9,0.1c-3.4,0.6-4.6,2.9-3.3,6C59.9,96.2,60.2,96.6,60.5,97.1z"/>
			<path id="パス_162" d="M46.7,63.1c3.7-0.3,5.2-1.9,6-5.5c0.2-1,0.4-2.1,0.5-3.1c0-0.4-0.1-0.7-0.4-1c-1.1-0.5-2.4,0-2.9,1
				c-0.1,0.2-0.1,0.3-0.2,0.5c-0.2,1.4-0.4,2.7-0.8,4.1c-0.5,1.9-1.3,2.5-3.3,2.6c-0.9,0.1-1.8,0-2.7,0l0,0c-0.9,0-1.7,0-2.6,0
				c-0.5,0-0.9,0.1-1.4,0.3c-0.3,0.1-0.4,0.5-0.7,0.7c0.3,0.1,0.6,0.4,0.8,0.4C41.6,63.2,44.2,63.3,46.7,63.1z"/>
		</g>
		<g id="グループ_61" transform="translate(65.346 114.474)">
			<path id="パス_163" d="M27.1,19.1c-0.8,1.9-1.6,3.7-2.4,5.6c-0.2,0.4,1.4,0.4,1.6-0.1l2.4-5.6C28.9,18.7,27.3,18.7,27.1,19.1z"
				/>
			<path id="パス_164" d="M21.8,18.1l-2.3,7.1c-0.1,0.4,1.5,0.4,1.6-0.1l2.3-7C23.5,17.6,21.9,17.7,21.8,18.1z"/>
			<path id="パス_165" d="M16.2,19.1c-0.7,2.3-1.5,4.5-2.3,6.7c-0.1,0.4,1.4,0.4,1.6-0.1c0.8-2.2,1.6-4.5,2.3-6.7
				C18,18.7,16.4,18.7,16.2,19.1z"/>
			<path id="パス_166" d="M103.8,14.9c-0.6-0.2-1.3,0.1-1.5,0.7c-0.6,1.5-1.3,3-1.9,4.6c-0.3,0.8,0,1.1,0.8,0.9
				c0.4-0.2,0.8-0.5,1-0.9c0.6-1.3,1.1-2.6,1.6-3.8c0.1-0.3,0.3-0.6,0.4-1.1C104.1,15.1,103.9,14.9,103.8,14.9z"/>
			<path id="パス_167" d="M108.8,14.4c-0.4,0.1-0.7,0.4-0.9,0.7c-0.9,1.5-1.8,3-2.6,4.5c-0.4,0.6-0.2,0.9,0.7,1
				c0.4-0.3,0.7-0.6,1-1c0.9-1.4,1.7-2.8,2.5-4.3c0.1-0.3,0.2-0.5,0.2-0.8C109.4,14.5,109,14.3,108.8,14.4z"/>
			<path id="パス_168" d="M112.8,16.1c-0.6,0-1,0.1-1.2,0.7c-0.4,1.3-0.9,2.6-1.3,3.8c-0.2,0.5,0,0.9,0.7,1
				c0.3-0.3,0.8-0.5,0.9-0.9c0.5-1.3,0.9-2.6,1.4-3.9C113.5,16.3,113.3,16.1,112.8,16.1z"/>
		</g>
	</g>
</g>
</svg>
