<?xml version="1.0" encoding="utf-8"?>
<!-- Generator: Adobe Illustrator 24.0.1, SVG Export Plug-In . SVG Version: 6.00 Build 0)  -->
<svg version="1.1" id="レイヤー_1" xmlns="http://www.w3.org/2000/svg" xmlns:xlink="http://www.w3.org/1999/xlink" x="0px"
	 y="0px" viewBox="0 0 226.8 226.8" style="enable-background:new 0 0 226.8 226.8;" xml:space="preserve">
<style type="text/css">
	.st0{fill:#CF131B;}
	.st1{fill:#F3DB27;}
	.st2{fill:#040000;}
	.st3{fill:#1A2F5C;}
	.st4{fill:#FFFFFF;stroke:#FFFFFF;stroke-width:0.5;stroke-miterlimit:10;}
	.st5{fill:none;stroke:#FFFFFF;stroke-miterlimit:10;}
</style>
<g id="グループ_86" transform="translate(-0.108 -0.392)">
	<rect id="長方形_34" x="14.5" y="14.8" class="st0" width="198" height="198"/>
	<g id="グループ_41" transform="translate(25.139 11.963)">
		<g id="グループ_36" transform="translate(61.907 146.944)">
			<path id="パス_104" class="st1" d="M50.1,36.6h0.5c0.6-1,1.3-2.1,1.8-3.1c2-3.8,1.7-5-1.8-7.4c0,0-0.1,0-0.1-0.1
				c-0.8-0.6-1.3-0.3-1.7,0.4c-0.8,1.2-1.1,2.7-0.8,4.1C48.6,32.5,49.4,34.5,50.1,36.6z"/>
			<path id="パス_105" class="st1" d="M61,36.1l0.3-0.1c1-2.2,2.1-4.5,3-6.8c0.4-1.2,0.2-2.6-0.6-3.6c-0.3-0.2-0.7-0.3-1.2-0.2
				c-1.2,0.5-2.3,1.2-3.4,1.9c-1,0.5-1.5,1.8-1,2.8C59.1,32.1,60.1,34.1,61,36.1z"/>
			<path id="パス_106" class="st1" d="M70.1,45.6c-0.9-4.4-3-8.3-4.7-12.4c-0.7,1.2-1.3,2.5-1.9,3.8c-1,2.3-3,2.7-4.6,0.7
				c-0.9-1.2-1.6-2.5-2.2-3.9c-0.3-0.7-0.6-1.4-1-2.4c-0.4,0.9-0.8,1.8-1.2,2.7c-0.8,1.5-1.7,2.9-2.7,4.2c-1.2,1.3-2.8,1-3.8-0.5
				c-0.5-0.7-0.8-1.4-1.4-2.5c-1.4,3-2.8,5.8-3.9,8.6c-0.8,2.1,0.1,3.3,2.3,3.6c0.3,0,0.6,0.1,0.9,0.1c4.7,0.1,9.5,0.4,14.2,0.4
				c3,0,6-0.1,9-0.3c0.4-0.1,0.7-0.3,0.9-0.7C70.2,46.6,70.2,46.1,70.1,45.6z"/>
		</g>
		<path id="パス_107" class="st1" d="M166.4,136c3.1,1,5.4,0,6.5-3c0.6-1.9,1-3.9,1.2-5.9c0.3-2.6-0.1-5.2-1.1-7.5
			c-0.7-1.5-1.8-2.7-3.5-2.7c-2.6-0.1-5,1.1-6.5,3.1c-0.6,0.9-3.1,1.5-3.9,0.8c-0.2-0.2-0.3-0.6-0.3-0.9c0-1.5,0.1-3,0-4.5
			c-0.2-3.4-0.5-6.8-0.7-10.2c0-1-0.7-2-1.7-2.3c-1.2-0.5-2.3-0.9-3.5-1.3c-2.5-0.7-5.2-1.1-7.7-2c-7.6-2.5-15.2-4.9-22.7-7.7
			c-14.2-5-28.4-10.3-41.7-17.5c-0.5-0.3-1.1-0.2-1.4,0.2c-7.1,5.9-13,13.1-17.4,21.2c-0.2,0.3-0.3,0.7-0.4,1
			c-0.5,3.3-1.1,6.6-1.5,9.9c-0.5,4.6-0.9,9.3-2.3,13.7c-1.2,3.5-2.1,7.2-2.8,10.8c-1.5,8.5,1.2,15.8,7.3,21.7
			c4.2,4.1,9.4,6.6,14.9,8.3c9.4,3,19.1,3.8,28.8,4c3,0.1,6,0,9.1,0c1,0,1.6,0.3,1.5,1.5c-0.1,1.3-0.1,2.6-0.2,3.9
			c-0.2,1.6-0.1,2.9,1.5,3.7c1.1-0.7,2.2-1.5,3.4-2.2c0.6-0.2,0.9-0.8,0.7-1.4l0,0c-0.2-1-0.3-2-0.4-3c-0.3-3.1-0.3-3,2.8-3.5
			c7.6-1.2,14.8-3.4,21.4-7.3c8.2-4.8,13.8-11.3,13.3-21.6c0.1-0.5,0.4-0.9,0.9-1.1c1.1-0.5,2.4-0.4,3.5,0.2
			C164.3,135.2,165.3,135.7,166.4,136z M116.6,102.1c1.1-0.9,2.5-1.3,3.9-1.2c4.8,0,9.6,0,14.3,0c1.2,0,2.4,0.1,3.6,0.3
			c0.4,0.1,1.2-0.1,1.1,0.9c0.3,0.2,0.5,0.3,0.8,0.3c0.7,0.1,1.4,0.2,2.3,0.3c-0.7,0.9-1.9,1.4-3,1.2c-2.8-0.2-5.6-0.3-8.4-0.4
			c-0.3,0-0.5,0.1-0.8,0.1l9.8,0.6c-0.5,0.9-1.6,1.4-2.7,1.3c-3.4-0.2-6.8-0.4-10.2-0.6c-3.4-0.2-6.9-0.4-10.3-0.6
			c-0.4-0.1-0.8-0.2-1.1-0.3C116.8,103.5,115.7,102.8,116.6,102.1z M97.9,117.9c2.5-0.1,3.1-0.9,2.9-3.5c-0.1-1-0.2-2.1-0.5-3.1
			c-0.2-0.9,0.1-1.3,1-1.5c1.3-0.3,2.1-0.1,2.3,0.8c0.3,1.3,0.5,2.5,0.7,3.8c-0.1,3-1,4.1-3.9,4.7c-3.1,0.6-3.9,2.9-1.9,5.4
			c0.8,1.1,0.7,1.4-0.6,1.7c-1,0.4-2.1,0-2.6-0.9c-0.2-0.4-0.5-0.9-0.7-1.3C93.1,120.7,94.4,118.1,97.9,117.9z M70.8,97.7
			c5-2.2,10-4.3,15-6.4c0.8-0.2,1.6-0.4,2.4-0.3c0.2,0,0.4,0.2,0.5,0.4c0,0.1-0.2,0.3-0.3,0.5c-0.2,0.1-0.4,0.2-0.7,0.3
			c-5.1,2.2-10.2,4.4-15.2,6.5c-1,0.5-2.2,0.4-3.2-0.2C70,98.1,70.4,97.8,70.8,97.7L70.8,97.7z M67.2,107.1c0.4-0.1,0.8-0.2,1.1-0.2
			c-0.4-0.3-1.6,0-1.1-1.1c-0.1-0.1-0.3-0.2-0.4-0.2l-1-0.6c0.3-0.3,0.7-0.5,1.1-0.7c2.2-0.4,4.4-0.8,6.6-1
			c4.6-0.4,9.2-0.7,13.8-0.9c0.6,0,1.1,0.5,1.7,0.7c0.9,0.2,0.6,0.7,0.8,1.3c0.3,1.2-0.6,1.1-1.1,1.2c-3,0.5-6,0.9-9,1.3
			c-4.1,0.6-8.1,1.1-12.2,1.6c-0.6,0.1-1.8-0.2-1.9-0.3C65.5,107,66.6,107.3,67.2,107.1L67.2,107.1z M88,123.6
			c-1.3,0.3-2.7,0.6-4.1,0.8c-5.5,0.6-11.1,1.1-16.6,1.6c-0.4,0-0.8,0-1.1,0c-0.5-0.1-0.7-0.3-0.4-0.9c0.3-0.6,0.7-1.4-0.5-1.6
			c-0.6-0.1-0.5-0.6-0.1-0.9c0.4-0.2,0.9-0.3,1.3-0.4c6.6-1.1,13.3-1.7,20-1.9c0.2,0,0.3,0,0.5,0c0.3,0.1,0.6,0.3,0.9,0.5
			c-0.2,0.2-0.4,0.5-0.7,0.7c-0.3,0.3-0.7,0.6-1.2,1.1c0.6,0,1.3,0.1,1.9,0.1c0.3,0,0.5,0.3,0.7,0.4C88.4,123.2,88.2,123.6,88,123.6
			L88,123.6z M119.1,153.7c-1.3,0.2-2.7,0.2-4,0.3v-0.2c-5.3,0-10.7,0-16,0c-1.3,0-2.6,0.1-3.9,0.1c-2.6,0-4-1-5-3.4
			c-0.9-2.5-1.1-5.3-0.6-7.9c0.3-2.4,0.9-4.7,1.4-7c0.1-0.9,0.9-1.6,1.8-1.5c5-0.3,10-0.6,15.1-0.8c2.8-0.2,5.7-0.3,8.5-0.4
			c1.9-0.2,3.6,1,4.1,2.9c1.1,4.2,2.2,8.4,3,12.7C124,151.5,122.3,153.2,119.1,153.7L119.1,153.7z M141.2,122.6
			c-5.7-0.1-11.3-0.2-17-0.4c-2.1-0.1-4.3-0.4-6.4-0.6c-0.3,0-0.6-0.3-0.9-0.5c0.3-0.2,0.5-0.6,0.8-0.7c0.7-0.1,1.4-0.2,2.1-0.2
			c0.3,0,0.6,0,0.9,0v-0.4c-0.2,0-0.4-0.1-0.5-0.1c-0.3-0.1-0.6-0.3-0.9-0.4c0.3-0.2,0.5-0.6,0.8-0.7c1.1-0.3,2.1-0.4,3.2-0.4
			c5.9,0.1,11.8,0.3,17.7,0.4c0.3,0,0.6,0.1,0.9,0.2c-0.5,0.8-0.9,1.5-1.4,2.2l3.2,0.2C143.2,122.2,142.2,122.6,141.2,122.6
			L141.2,122.6z"/>
		<path id="パス_108" class="st1" d="M117,136.6c-0.6-1.9-1-2.2-3-2.1c-6.3,0.2-12.7,0.6-19,0.8c-0.7,0-0.9,0.3-1,0.9
			c-0.4,2.2-0.9,4.4-1.1,6.6c-0.3,2.5,0,5,0.9,7.3c0.8,1.9,1.9,2.5,4,2.4c2-0.1,3.9-0.2,5.9-0.3c2.5,0,5,0,7.5,0v0.2
			c1.1,0,2.2,0,3.3,0c1.1,0,2.3-0.1,3.4-0.3c1.7-0.2,2.2-0.7,2.2-2.4c0.1-0.9,0-1.8-0.2-2.8C118.9,143.5,118,140,117,136.6z"/>
		<g id="グループ_37" transform="translate(5.127 1.326)">
			<path id="パス_109" class="st2" d="M158.4,115c1.7-0.9,3.6-1.4,5.6-1.2c1.7,0.2,2.5-0.5,3.1-1.9c0.1-0.3,0.3-0.7,0.5-1
				c2.1-4.9,2.2-10,1.6-15.1c-0.8-5.9-2.3-11.7-4.4-17.3c-3.4-10-10.2-18.6-19.2-24.2c-12.9-8.2-27.1-11.3-42.3-9.8
				c-10.8,1-20.6,4.7-28.9,11.8c-0.9,0.7-1.9,1.2-3,1.5c-3.1,1-6.3,1.8-9.3,3c-2.9,1.2-5.6,3-7.7,5.4c-3.3,3.6-4.9,8.4-4.6,13.3
				c0.2,5.1,1.8,9.7,4.1,14.4c0.3-0.5,0.5-0.8,0.7-1.2c4.8-8.1,11.1-15.3,18.5-21.2c1-0.9,2.6-1,3.7-0.3c3.9,2,7.7,4,11.7,5.9
				c21.2,9.7,43.2,17.3,65.5,23.9c1.1,0.2,1.9,1.1,1.8,2.2c0.2,2.7,0.5,5.3,0.8,8c0.1,1.4,0.2,2.9,0.4,4.5
				C157.7,115.3,158.1,115.2,158.4,115z"/>
			<path id="パス_110" class="st2" d="M171.5,149.7c-0.6-4.5-2.7-8.6-6-11.6c-0.8-0.8-1.8-1.2-2.9-1.2c-1.2,0-2.3-0.2-3.5-0.4
				c-0.7-0.1-1,0-1.1,0.8c-0.3,1.7-0.6,3.4-1,5c-0.2,0.5-0.1,1.1,0.3,1.4c4.3,4.9,8,10.3,10.8,16.2c0.8,1.6,1.5,3.2,2.4,5
				c0.1-0.2,0.2-0.4,0.2-0.6C171.9,159.6,172.1,154.6,171.5,149.7z"/>
		</g>
		<g id="グループ_38" transform="translate(14.626 34.38)">
			<path id="パス_111" class="st3" d="M139,67.7v19.9c0,0.4,1.6,0.2,1.6-0.2V68.2C140.1,68,139.6,67.8,139,67.7z"/>
			<path id="パス_112" class="st3" d="M135.2,87c0,0.4,1.6,0.2,1.6-0.2V67c-0.5-0.1-1-0.2-1.6-0.4V87z"/>
			<path id="パス_113" class="st3" d="M130.6,65.4l-0.2-0.1c0.4,7.2,0.4,14.4-0.1,21.6c0,0.3,1.5,0.3,1.6-0.2
				c0.4-7,0.5-14,0.1-20.9C131.5,65.7,131,65.6,130.6,65.4z"/>
			<path id="パス_114" class="st3" d="M126.7,68.2c0-1.3-0.1-2.7-0.1-4c-0.5-0.2-1-0.3-1.6-0.5c0,1.4,0.1,2.8,0.1,4.2
				c0.2,0.1,0.4,0.1,0.6,0.2C126.1,68.1,126.4,68.1,126.7,68.2z"/>
			<path id="パス_115" class="st3" d="M125.2,69.5v0.3h0.6c-0.2,0.2-0.3,0.4-0.5,0.6c0.1,5.1,0.2,10.1,0.3,15.2
				c0,0.4,1.6,0.2,1.6-0.2c-0.1-5.4-0.2-10.8-0.3-16.1C126.3,69.5,125.7,69.6,125.2,69.5z"/>
			<path id="パス_116" class="st3" d="M117.8,66.6c0.5,0,1,0,1.6,0v-4.8c-0.5-0.2-1-0.4-1.6-0.5V66.6z"/>
			<path id="パス_117" class="st3" d="M110.6,58.7c0.1,2.6,0.1,5.2,0.2,7.8c0.5,0,1,0,1.6,0l-0.2-7.2
				C111.6,59.1,111.1,58.9,110.6,58.7z"/>
			<path id="パス_118" class="st3" d="M105.5,56.9c0,3.2,0.1,6.4,0.1,9.6c0.1,0,0.2,0,0.3,0c0.4,0,0.8,0,1.3,0c0-3-0.1-6-0.1-9.1
				L105.5,56.9z"/>
			<path id="パス_119" class="st3" d="M101.5,69.6c0.6-0.5-0.4-1.2,0.5-1.9c0.1-0.1,0.2-0.1,0.3-0.2c-0.1-4-0.2-8-0.3-12
				c-0.5-0.2-1.1-0.4-1.6-0.6c0.3,10.7,0.5,21.3,0.8,32c0,0.4,1.6,0.2,1.6-0.2c-0.1-5.6-0.3-11.3-0.4-16.9
				C102.1,69.8,101.8,69.7,101.5,69.6z"/>
			<path id="パス_120" class="st3" d="M95.5,53.1c0.3,11,0.6,22,0.8,33.1c0,0.4,1.6,0.2,1.6-0.2c-0.1-10.7-0.4-21.5-0.8-32.2
				C96.6,53.6,96.1,53.3,95.5,53.1z"/>
			<path id="パス_121" class="st3" d="M91.1,51.4c0.2,11.6,0.5,23.1,0.5,34.7c0,0.4,1.6,0.2,1.6-0.2c0-11.3-0.3-22.6-0.5-33.8
				C92.1,51.8,91.6,51.6,91.1,51.4z"/>
			<path id="パス_122" class="st3" d="M85.5,49.1c0.2,9.7,0.5,19.5,0.7,29.2c0,0.4,1.6,0.2,1.6-0.2c-0.2-9.4-0.5-18.9-0.7-28.3
				C86.6,49.6,86,49.3,85.5,49.1z"/>
			<path id="パス_123" class="st3" d="M80,46.8c0.3,11.5,0.6,23,0.9,34.5c0,0.4,1.6,0.2,1.6-0.2l-0.8-33.6
				C81.1,47.2,80.5,47,80,46.8z"/>
			<path id="パス_124" class="st3" d="M75.1,44.5c0.1,14.4,0,28.8,0.8,43.2c0,0.4,1.6,0.2,1.6-0.2c-0.8-14-0.8-28.1-0.8-42.2
				C76.1,45,75.6,44.7,75.1,44.5z"/>
			<path id="パス_125" class="st3" d="M69.9,68.1c0.5,0,1-0.1,1.6-0.1c-0.1-8.4,0.2-16.7,0.5-25.1c-0.5-0.3-1-0.5-1.5-0.8
				C70.1,50.8,69.8,59.5,69.9,68.1z"/>
			<path id="パス_126" class="st3" d="M65.9,39.9c-0.4-0.1-0.9,0-1.2,0.3c-0.1,0.1-0.3,0.2-0.4,0.3c0,9.3,0,18.6,0.2,27.9
				c0.5,0,1-0.1,1.6-0.1C65.9,58.8,65.9,49.4,65.9,39.9z"/>
			<path id="パス_127" class="st3" d="M59.1,45.5c0,7.8,0,15.5,0.2,23.3c0.5,0,1-0.1,1.6-0.1c-0.2-8.2-0.2-16.5-0.2-24.7
				C60.2,44.5,59.6,45,59.1,45.5z"/>
			<path id="パス_128" class="st3" d="M53.9,69.6c0.5-0.1,1-0.2,1.6-0.3c0-6.6,0.1-13.3,0.2-19.9c-0.5,0.6-1.1,1.3-1.6,1.9
				C54,57.4,53.9,63.5,53.9,69.6z"/>
			<path id="パス_129" class="st3" d="M50,56.9c-0.5,0.8-1,1.6-1.5,2.4c0.1,2.5,0.2,4.9,0.2,7.3c0,7.2,0.2,14.4,0,21.6
				c0,0.3,1.5,0.2,1.6-0.2c0.2-7.2,0-14.4,0-21.6C50.3,63.4,50.1,60.1,50,56.9z"/>
		</g>
		<g id="グループ_39" transform="translate(18.283 67.993)">
			<path id="パス_130" class="st1" d="M67.8,37.9c-0.5,0.1-1,0.2-1.6,0.2c-1.2,0.2-2.5,0.3-3.7,0.5l-1.1,0.2L61,38.9l-3.7,0.5
				l-1.6,0.2c-1.3,0.2-2.7,0.3-4,0.5c-0.5,0.1-1,0.1-1.6,0.2c-0.1,0-0.2,0-0.4,0c-0.8,2.4-1.8,6.9-1.8,13.8H48
				c6.5-1,13-1.7,19.5-1.9c0.5-4.8,0.6-9.6,0.6-14.4L67.8,37.9z"/>
			<path id="パス_131" class="st1" d="M51.8,38.7l0.5-0.1h-1v0.2L51.8,38.7z"/>
			<path id="パス_132" class="st1" d="M57.3,38L57.3,38L57.3,38v-0.3L55.8,38l-3,0.6l3-0.4L57.3,38z"/>
			<path id="パス_133" class="st1" d="M115.7,35.8l4.7,0.3c0-0.1,0-0.2,0-0.3c-1.6-0.1-3.2-0.2-4.8-0.2c-0.5,0-1-0.1-1.6-0.1
				c-0.4,0-0.7,0-1.1-0.1c-0.3,0-0.5,0.1-0.8,0.1l1.9,0.1L115.7,35.8z"/>
			<path id="パス_134" class="st1" d="M120.4,37.5c-0.3,0.1-0.6,0.1-0.9,0.1c-1.2-0.1-2.5-0.1-3.7-0.2c-0.5,0-1-0.1-1.6-0.1
				c-1.6-0.1-3.2-0.2-4.9-0.3c-0.1,0-0.3,0-0.4,0c-0.5,0-1-0.1-1.6-0.1c-1.2-0.1-2.4-0.2-3.7-0.2c-0.5,0-1-0.1-1.6-0.1l-1.5-0.2
				c0.3,4.2,1.3,10.9,1.9,14c0.9-0.2,1.7-0.3,2.6-0.3c5.2,0.1,10.4,0.2,15.6,0.4C120.3,43.9,120.3,39.7,120.4,37.5z"/>
		</g>
		<g id="グループ_40">
			<path id="パス_135" class="st2" d="M120.4,135.6c-0.4-1.9-2.2-3.1-4.1-2.9c-2.8,0.1-5.7,0.3-8.5,0.4c-5,0.3-10,0.6-15.1,0.8
				c-0.9-0.1-1.7,0.6-1.8,1.5c-0.4,2.4-1.1,4.7-1.4,7c-0.5,2.7-0.2,5.4,0.6,7.9c1,2.5,2.4,3.5,5,3.4c1.3,0,2.6-0.1,3.9-0.1
				c5.3,0,10.7,0,16,0v0.2c1.3-0.1,2.7-0.2,4-0.3c3.3-0.4,4.9-2.2,4.4-5.4C122.7,144,121.5,139.8,120.4,135.6z M120,149.7
				c0,1.7-0.4,2.2-2.2,2.4c-1.1,0.1-2.3,0.2-3.4,0.3c-1.1,0-2.2,0-3.3,0v-0.2c-2.5,0-5,0-7.5,0c-2,0-3.9,0.1-5.9,0.3
				c-2.1,0.1-3.2-0.5-4-2.4c-0.9-2.3-1.2-4.8-0.9-7.3c0.2-2.2,0.7-4.4,1.1-6.6c0.1-0.6,0.3-0.9,1-0.9c6.3-0.3,12.7-0.6,19-0.8
				c2-0.1,2.5,0.2,3,2.1c1,3.4,2,6.8,2.9,10.3C120,147.8,120,148.8,120,149.7L120,149.7z"/>
			<path id="パス_136" class="st2" d="M179,147.1c-1-3.5-3-6.6-5.8-9c-0.2-0.2-0.4-0.4-0.7-0.6c0.7-0.5,1.3-0.9,1.9-1.3
				c1.8-1.4,3-3.5,3.3-5.8c0.4-2.6,0.6-5.2,0.4-7.7c0-2.9-1.7-5.6-4.2-6.9c4.3-6.3,4.5-13.2,3.5-20.2c-1-8.1-3.5-15.9-7.3-23.2
				C163.4,59.8,153,51.9,139.3,48c-6.3-1.9-12.7-3.1-19.3-3.6c-0.3,0-0.6-0.1-0.9-0.2h-9.7c-2.7,0.4-5.5,0.7-8.2,1.2
				c-6.5,1.3-12.7,3.7-18.4,7.2c-0.7,0.4-1.4,0.9-2,1.5c-3.1,3.1-6.9,4.6-11.1,5.5c-4.5,1-8.7,3.2-12.1,6.3
				c-6,5.3-7.5,12.1-5.7,19.7c1,4,2.6,7.8,4.6,11.4c0.4,0.7,0.6,1.6,0.4,2.4c-0.8,5.5-1.6,10.9-2.5,16.4c-0.2,1.4-0.5,2.8-0.9,4.2
				c-1.4,3.6-2.5,7.4-3.1,11.2v6.6c0.4,1.6,0.6,3.2,1.1,4.7c2.3,7.6,7.3,12.9,14.1,16.6c6.5,3.4,13.5,5.6,20.7,6.6
				c8.1,1.2,16.2,1.7,24.3,1.5c1.4,0,1.4,0,1.4,1.4c0,0.3,0,0.6,0,0.9c0.1,1-0.2,1.4-1.3,1.7c-2.5,0.7-4.2,3.2-3.9,5.8
				c0.2,1,0,2-0.5,2.9c-1.4,2.6-2.9,5.2-4.2,7.9c-0.7,1.6-1.1,3.2-1.3,4.9c-0.2,1.8,0.8,2.8,2.6,3c0.8,0.1,1.7,0.1,2.5,0.1
				c4.3,0.1,8.5,0.3,12.8,0.4h10.1c1-0.1,2-0.2,3-0.4c2.5-0.5,3.5-1.9,3-4.4c-1-4.3-2.5-8.5-4.5-12.5c-0.7-1.5-1.6-3-1.4-4.8
				c0.1-1.4-0.9-2.3-2.2-2.8c-0.6-0.2-0.9-0.7-0.9-1.3c0-0.9-0.2-1.8-0.4-2.7c-0.2-1,0-1.3,1-1.5c5-0.9,9.8-2.2,14.5-4.1
				c5.9-2.3,11.4-5.3,15.7-9.9c1.3-1.3,2.3-2.8,3.6-4.3c0.4,0.4,0.8,0.9,1.2,1.3c5.2,6.6,9.2,14,12.1,22c0.3,0.9,0.7,1.6,1.8,1.5
				s1.9-0.4,2.2-1.7c0.7-3.7,1.5-7.5,2.3-11.2c0.1-0.4,0.1-0.8,0.2-1.2v-5.3C179.9,151,179.6,149,179,147.1z M54.9,80.7
				c-0.4-4.9,1.3-9.7,4.6-13.3c2.1-2.4,4.7-4.2,7.7-5.4s6.2-1.9,9.3-3c1.1-0.3,2.1-0.8,3-1.5c8.3-7.1,18.1-10.8,28.9-11.8
				c15.2-1.5,29.4,1.6,42.3,9.8c9,5.6,15.8,14.2,19.2,24.2c2.1,5.6,3.6,11.4,4.4,17.3c0.6,5.1,0.5,10.2-1.6,15.1
				c-0.1,0.3-0.3,0.7-0.5,1c-0.5,1.4-1.3,2.2-3.1,1.9c-1.9-0.2-3.9,0.3-5.6,1.2c-0.4,0.2-0.7,0.3-1.3,0.6c-0.1-1.6-0.2-3.1-0.4-4.5
				c-0.3-2.7-0.6-5.3-0.8-8c0-1.1-0.8-2.1-1.8-2.2c-1.4-0.4-2.7-0.8-4.1-1.2c-0.5-0.2-1-0.3-1.6-0.5c-0.8-0.2-1.5-0.5-2.3-0.7
				c-0.5-0.2-1-0.3-1.6-0.5c-1.1-0.3-2.2-0.7-3.3-1.1c-0.5-0.2-1.1-0.3-1.6-0.5c-1.2-0.4-2.4-0.8-3.6-1.2c-0.5-0.2-1-0.3-1.6-0.5
				c-1.9-0.6-3.8-1.3-5.7-1.9c-0.5-0.2-1-0.4-1.6-0.5c-1.9-0.7-3.8-1.3-5.7-2c-0.5-0.2-1.1-0.4-1.6-0.6c-1.2-0.4-2.3-0.9-3.5-1.3
				c-0.5-0.2-1-0.4-1.6-0.6c-1.2-0.4-2.4-0.9-3.6-1.4c-0.5-0.2-1.1-0.4-1.6-0.6c-1.1-0.4-2.2-0.9-3.3-1.3c-0.5-0.2-1.1-0.4-1.6-0.6
				c-1-0.4-1.9-0.8-2.9-1.2c-0.5-0.2-1.1-0.4-1.6-0.7c-1.3-0.6-2.7-1.1-4-1.7c-0.5-0.2-1.1-0.5-1.6-0.7c-1.3-0.6-2.6-1.1-3.9-1.7
				c-0.5-0.2-1.1-0.5-1.6-0.7c-0.3-0.1-0.5-0.2-0.8-0.4c-0.8-0.4-1.7-0.8-2.5-1.2c-0.5-0.3-1-0.5-1.6-0.8c-2.6-1.3-5.1-2.6-7.6-3.9
				c-1.2-0.7-2.7-0.6-3.7,0.3c-1,0.8-2,1.7-3,2.6c-0.5,0.5-1,0.9-1.6,1.4c-1.2,1.1-2.4,2.2-3.5,3.4c-0.5,0.6-1.1,1.1-1.6,1.7
				c-1.4,1.6-2.8,3.2-4.1,4.9c-0.5,0.7-1.1,1.4-1.6,2.1c-1.1,1.6-2.2,3.3-3.3,5.1c-0.2,0.3-0.4,0.7-0.7,1.2
				C56.8,90.4,55.1,85.8,54.9,80.7L54.9,80.7z M110.6,173.3c0.4-0.7,1-1,1.7-0.4l0.1,0.1c3.6,2.4,3.9,3.5,1.8,7.4
				c-0.6,1.1-1.2,2.1-1.8,3.1h-0.5c-0.7-2-1.5-4.1-2.2-6.1C109.5,176,109.8,174.5,110.6,173.3L110.6,173.3z M127.4,180.2
				c1.7,4.1,3.8,8.1,4.7,12.4c0.1,0.5,0.1,0.9-0.1,1.4c-0.2,0.4-0.5,0.6-0.9,0.7c-3,0.1-6,0.3-9,0.3c-4.7-0.1-9.5-0.3-14.2-0.4
				c-0.3,0-0.6,0-0.9-0.1c-2.2-0.3-3.1-1.5-2.3-3.6c1.1-2.8,2.5-5.6,3.9-8.6c0.6,1,0.9,1.8,1.4,2.5c1,1.5,2.6,1.8,3.8,0.5
				c1-1.3,2-2.7,2.7-4.2c0.5-0.9,0.9-1.8,1.2-2.7c0.4,1,0.6,1.7,1,2.4c0.6,1.4,1.3,2.7,2.2,3.9c1.6,2,3.5,1.6,4.6-0.7
				C126,182.7,126.7,181.4,127.4,180.2L127.4,180.2z M125.7,172.7c0.8,1,1,2.4,0.6,3.6c-1,2.3-2,4.5-3,6.8l-0.3,0.1
				c-1-2-2-4-2.9-6.1c-0.5-1.1-0.1-2.3,1-2.8c1.1-0.7,2.2-1.3,3.4-1.9C124.9,172.2,125.4,172.3,125.7,172.7L125.7,172.7z
				 M159.9,134.4c-0.5,0.2-0.8,0.6-0.9,1.1c0.5,10.3-5.1,16.7-13.3,21.6c-6.6,3.9-13.9,6.1-21.4,7.3c-3.1,0.5-3.1,0.4-2.8,3.5
				c0.1,1,0.2,2,0.4,3c0.2,0.6-0.1,1.2-0.7,1.4l0,0c-1.2,0.6-2.3,1.4-3.4,2.2c-1.6-0.8-1.7-2.1-1.5-3.7c0.2-1.3,0.1-2.6,0.2-3.9
				c0.1-1.2-0.4-1.5-1.5-1.5c-3,0-6,0.1-9.1,0c-9.8-0.2-19.4-1-28.8-4c-5.5-1.8-10.7-4.2-14.9-8.3c-6.1-6-8.8-13.3-7.3-21.7
				c0.7-3.7,1.7-7.3,2.8-10.8c1.4-4.5,1.8-9.1,2.3-13.7c0.4-3.3,1-6.6,1.5-9.9c0.1-0.4,0.2-0.7,0.4-1c0.4-0.7,0.8-1.4,1.2-2.1
				c0.5-0.8,1-1.6,1.5-2.4c1.2-1.9,2.6-3.8,4-5.6c0.5-0.7,1-1.3,1.6-1.9c1.1-1.3,2.3-2.6,3.5-3.9c0.5-0.5,1-1,1.6-1.6
				c1.2-1.2,2.4-2.3,3.7-3.4c0.1-0.1,0.3-0.2,0.4-0.3c0.3-0.3,0.8-0.5,1.2-0.3c0.1,0,0.2,0.1,0.2,0.1c1.4,0.8,2.8,1.5,4.2,2.2
				c0.5,0.3,1,0.5,1.5,0.8c1,0.5,2.1,1,3.1,1.5c0.5,0.2,1,0.5,1.6,0.7c1.1,0.5,2.3,1,3.4,1.5c0.5,0.2,1.1,0.5,1.6,0.7
				c1.3,0.6,2.6,1.1,3.9,1.7c0.5,0.2,1.1,0.4,1.6,0.7c1.3,0.5,2.6,1.1,4,1.6c0.5,0.2,1,0.4,1.6,0.6c1,0.4,1.9,0.8,2.9,1.1
				c0.5,0.2,1.1,0.4,1.6,0.6c1.1,0.4,2.2,0.8,3.3,1.2c0.5,0.2,1.1,0.4,1.6,0.6c1.2,0.4,2.4,0.9,3.5,1.3l1.6,0.6l0.7,0.3
				c0.9,0.3,1.9,0.7,2.8,1c0.5,0.2,1.1,0.4,1.6,0.6c1.9,0.7,3.7,1.3,5.6,1.9c0.5,0.2,1,0.4,1.6,0.5c1.9,0.6,3.8,1.3,5.7,1.9l1.6,0.5
				l3.7,1.2l0.2,0.1c0.5,0.1,0.9,0.3,1.4,0.4c1.1,0.3,2.1,0.6,3.2,0.8c0.5,0.1,1,0.2,1.6,0.4c0.5,0.1,1,0.2,1.5,0.4
				c0.3,0.1,0.5,0.2,0.8,0.3c0.5,0.2,1,0.3,1.6,0.5c0.4,0.2,0.8,0.3,1.2,0.5c1,0.4,1.6,1.3,1.7,2.3c0.2,3.4,0.5,6.8,0.7,10.2
				c0.1,1.5,0,3,0,4.5c0,0.3,0.1,0.6,0.3,0.9c0.8,0.7,3.2,0.1,3.9-0.8c1.5-2.1,4-3.2,6.5-3.1c1.7,0,2.8,1.1,3.5,2.7
				c1,2.4,1.4,5,1.1,7.5c-0.2,2-0.6,4-1.2,5.9c-1.1,3-3.4,4-6.5,3c-1-0.3-2-0.8-3-1.3C162.3,134.1,161,134,159.9,134.4L159.9,134.4z
				 M175.8,165.7c-0.1,0.2-0.1,0.4-0.2,0.6c-0.8-1.7-1.6-3.4-2.4-5c-2.8-5.9-6.5-11.3-10.8-16.2c-0.4-0.4-0.5-1-0.3-1.4
				c0.4-1.7,0.8-3.3,1-5c0.1-0.8,0.4-0.9,1.1-0.8c1.1,0.3,2.3,0.4,3.5,0.4c1.1,0,2.1,0.4,2.9,1.2c3.3,3,5.4,7.2,6,11.6
				C177.3,156,177,160.9,175.8,165.7L175.8,165.7z"/>
			<path id="パス_137" class="st2" d="M67.5,108.4c0.2,0,0.4-0.1,0.7-0.1c0.1,0,0.2,0,0.4,0c0.5-0.1,1-0.1,1.6-0.2
				c1.3-0.2,2.7-0.3,4-0.5l1.6-0.2l3.7-0.5l0.4-0.1l1.1-0.2c1.2-0.2,2.5-0.3,3.7-0.5c0.5-0.1,1-0.2,1.6-0.2l0.5-0.1
				c0.7-0.1,1.4-0.2,2.1-0.3c0.6-0.1,1.4,0,1.1-1.2c-0.1-0.6,0.1-1.2-0.8-1.3c-0.6-0.1-1.2-0.7-1.7-0.7c-0.4,0-0.8,0.1-1.3,0.1
				s-1,0.1-1.6,0.1c-1.2,0.1-2.5,0.1-3.7,0.2c-0.5,0-1,0.1-1.6,0.1c-1.2,0.1-2.5,0.2-3.7,0.3c-0.5,0-1,0.1-1.6,0.1
				c-0.1,0-0.3,0-0.4,0c-1.2,0.1-2.3,0.3-3.5,0.5c-0.5,0.1-1,0.2-1.6,0.3c-0.5,0.1-1,0.2-1.6,0.3c-0.4,0.2-0.8,0.4-1.1,0.7l1,0.6
				c0.1,0.1,0.3,0.2,0.4,0.2c-0.5,1.2,0.6,0.8,1.1,1.1c-0.4,0-0.8,0.1-1.1,0.2c-0.6,0.2-1.6-0.1-1.5,1
				C65.6,108.2,66.8,108.5,67.5,108.4z M70,106.6h0.5h0.1h0.3l3-0.6l1.5-0.3v0.2v0.1l0,0l-1.6,0.2l-3,0.4l-0.3,0.1h-0.1L70,106.6
				l-0.4,0.2v-0.2H70z"/>
			<path id="パス_138" class="st2" d="M86.1,122.4c0.5-0.4,0.8-0.7,1.2-1.1c0.2-0.2,0.5-0.5,0.7-0.7c-0.3-0.2-0.6-0.3-0.9-0.5
				c-0.2,0-0.3,0-0.5,0s-0.3,0-0.5,0c-6.5,0.2-13.1,0.9-19.5,1.9h-0.1c-0.4,0.1-0.8,0.2-1.2,0.4c-0.5,0.3-0.5,0.8,0.1,0.9
				c1.2,0.3,0.8,1,0.5,1.6c-0.3,0.6-0.1,0.8,0.4,0.9c0.4,0.1,0.7,0.1,1.1,0c5.5-0.5,11.1-1,16.6-1.6c1.4-0.2,2.7-0.4,4.1-0.8
				c0.3-0.1,0.5-0.4,0.7-0.6c-0.2-0.2-0.5-0.4-0.7-0.4C87.3,122.5,86.7,122.5,86.1,122.4z"/>
			<path id="パス_139" class="st2" d="M95.3,125.2c0.5,0.9,1.6,1.3,2.6,0.9c1.3-0.3,1.4-0.6,0.6-1.7c-2-2.6-1.2-4.8,1.9-5.4
				c2.9-0.6,3.8-1.7,3.9-4.7c-0.2-1.3-0.4-2.6-0.7-3.8c-0.2-0.9-1-1.1-2.3-0.8c-0.8,0.2-1.2,0.6-1,1.5c0.2,1,0.4,2.1,0.5,3.1
				c0.2,2.6-0.4,3.4-2.9,3.5c-3.5,0.2-4.8,2.8-3.4,6C94.7,124.3,95,124.8,95.3,125.2z"/>
			<path id="パス_140" class="st2" d="M72.5,98.7c5.1-2.2,10.2-4.4,15.2-6.5c0.2-0.1,0.5-0.2,0.7-0.3c0.2-0.1,0.4-0.4,0.3-0.5
				c-0.1-0.2-0.3-0.4-0.5-0.4c-0.8,0-1.6,0.1-2.4,0.3c-5,2.1-10,4.3-15,6.4c-0.4,0.1-0.8,0.4-1.4,0.7C70.3,99.1,71.5,99.2,72.5,98.7
				z"/>
			<path id="パス_141" class="st2" d="M116.9,104.3c0.1,0,0.2,0,0.3,0.1c0.5,0,1,0.1,1.5,0.1l1.5,0.1c0.5,0,1,0.1,1.6,0.1
				c1.2,0.1,2.4,0.2,3.7,0.2c0.5,0,1,0.1,1.6,0.1c0.1,0,0.3,0,0.4,0c1.6,0.1,3.2,0.2,4.9,0.3c0.5,0,1,0.1,1.6,0.1
				c1.2,0.1,2.5,0.1,3.7,0.2c0.3,0,0.6,0,0.9-0.1c0.4-0.1,0.9-0.3,1.2-0.6c0.2-0.2,0.4-0.4,0.5-0.6h-0.6l-1.1-0.1l-4.7-0.3l-1.6-0.1
				l-1.9-0.1c0.2-0.1,0.5-0.1,0.8-0.1c0.4,0,0.7,0,1.1,0.1c0.5,0,1,0.1,1.6,0.1c1.6,0.1,3.2,0.2,4.8,0.2c0.3,0,0.7,0,1,0.1h0.1
				c0.5,0,1.1,0,1.6-0.2s1-0.6,1.3-1c-0.5-0.1-0.9-0.1-1.3-0.2c-0.3,0-0.6-0.1-0.9-0.1c-0.2,0-0.4-0.1-0.6-0.2
				c-0.1,0-0.2-0.1-0.2-0.1c0.1-0.9-0.6-0.8-1.1-0.9c-1.2-0.2-2.4-0.3-3.6-0.3c-0.3,0-0.6,0-0.9,0c-0.5,0-1,0-1.6,0
				c-1.8,0-3.6,0-5.4,0c-0.5,0-1,0-1.6,0c-1.2,0-2.4,0-3.6,0c-0.4,0-0.8,0-1.3,0c-0.1,0-0.2,0-0.3,0c-1.2,0-2.4,0.3-3.4,1
				c-0.1,0.1-0.2,0.1-0.3,0.2c-0.9,0.7,0.1,1.4-0.5,1.9C116.4,104.1,116.7,104.2,116.9,104.3z"/>
			<path id="パス_142" class="st2" d="M141.9,118.8c-0.3-0.1-0.6-0.2-0.9-0.2l-2.2-0.1c-5.2-0.1-10.4-0.3-15.6-0.4
				c-0.9,0-1.7,0.1-2.6,0.3c-0.2,0-0.4,0.1-0.6,0.1c-0.3,0.1-0.5,0.5-0.8,0.7c0.3,0.1,0.6,0.3,0.9,0.4c0.2,0.1,0.3,0.1,0.5,0.1v0.4
				c-0.3,0-0.6,0-0.9,0c-0.7,0-1.4,0.1-2.1,0.2c-0.3,0.1-0.5,0.4-0.8,0.7c0.3,0.2,0.6,0.5,0.9,0.5c2.1,0.2,4.3,0.5,6.4,0.6
				c5.7,0.2,11.3,0.3,17,0.4c1,0.1,2-0.4,2.6-1.3l-3.2-0.2C141,120.3,141.4,119.6,141.9,118.8z"/>
		</g>
	</g>
</g>
<g>
	<path class="st4" d="M36.9,88l3.3,1.5c0.2-0.4,0.5-0.9,0.7-1.3c0.9-1.9,1.9-4.5,2.3-5.8c0-0.1,0-0.1,0.1-0.2
		c0.2-0.5,0.7-0.6,1.1-0.4c0.5,0.2,1,0.9,0.9,1.5c-0.5,1.6-1.5,3.8-2.4,5.8c-1.4,3.2-3.6,5.4-6.9,6.1c1.1,1,2,2.2,2.7,3.5
		c0.2,0.3,0.2,0.6,0,0.8c-0.3,0.6-1.2,1-1.7,0.7c-0.1-0.1-0.3-0.2-0.4-0.3c-1.3-2.3-2.9-3.8-5.4-5.5c-0.4-0.3-0.4-0.8-0.2-1.3
		c0.2-0.5,0.8-1,1.4-0.7l0.1,0.1c0.5,0.4,1.1,0.7,1.5,1.1c2-0.2,3.5-0.9,4.7-2l-7.4-3.3L29,93.4c-0.4,1-1.3,1.3-2.2,0.9l-4.1-1.8
		c-1-0.4-1.3-1.3-0.9-2.2l5.6-12.8c0.4-1,1.3-1.3,2.2-0.9l4.1,1.8c1,0.4,1.3,1.3,0.9,2.2l-2.3,5.2L35,87l2.7-6.1
		c0.3-0.6,0.9-0.6,1.3-0.4c0.5,0.2,0.8,0.7,0.6,1.3L36.9,88z M29.4,79c-0.2-0.1-0.3,0-0.4,0.2l-4.9,10.7c-0.1,0.2,0,0.3,0.2,0.4
		l2.7,1.2c0.2,0.1,0.3,0,0.4-0.2l4.9-10.8c0.1-0.2,0-0.3-0.2-0.4L29.4,79z"/>
	<path class="st4" d="M51.3,76.5c-0.6,0.7-1.3,0.6-1.8,0.2c-0.4-0.4-0.6-1.1-0.2-1.5l0.1-0.1c4.6-5.5,2.4-8.8-1.3-11.8
		c-3.9-3.2-6-3.3-6.9-2.2c-0.3,0.4-0.5,1-0.7,1.6c-0.4,2.2,1.8,7.3,4.3,10.9c0.3,0.5,0.2,1.1-0.1,1.5c-0.4,0.5-1.1,0.7-1.8,0.2
		c-1.1-0.8-2.2-1.6-3.1-2.4c-2-1.7-3.8-3.3-5.7-5.4c-0.5-0.5-0.4-1.1,0-1.5c0.4-0.5,1.1-0.7,1.7-0.3c0.1,0,0.1,0.1,0.2,0.2
		c1.4,1.7,3,3.3,5,5.1c-2.1-4-3.8-8.3-1.3-11.3c1.5-1.8,4.5-2.6,9.9,2C53.6,64.9,57.1,69.5,51.3,76.5L51.3,76.5z"/>
	<path class="st4" d="M57.8,45.9c0.5-0.4,1.1-0.2,1.4,0.2c0.3,0.4,0.4,1-0.1,1.4c-1.1,1-2.2,1.9-3.2,2.8c1.2,3,2.2,6.3,2.7,10.3
		c0.1,0.4-0.1,0.8-0.4,1c-0.5,0.4-1.4,0.3-1.8-0.2c-0.1-0.2-0.2-0.4-0.2-0.7c-0.3-3.5-1-6.3-2.1-9c-0.6,0.5-1.3,1-1.9,1.4
		c-0.5,0.4-1.1,0.1-1.4-0.3c-0.3-0.4-0.4-1,0.1-1.3c0.4-0.3,0.8-0.6,1.2-0.9c0.4-0.3,0.8-0.6,1.1-0.9c-0.3-0.6-0.6-1.2-0.9-1.8
		c-0.2-0.4,0-0.9,0.4-1.2c0.5-0.3,1.1-0.5,1.5,0c0,0,0,0.1,0.1,0.1c0.2,0.5,0.5,0.9,0.7,1.4c0.9-0.7,1.8-1.5,2.7-2.3H57.8z
		 M69.4,53.2c2.1,2.8,0.9,5-1.3,6.6c-2.3,1.8-5.3,2-6.9,0c-1.6-2.1-0.8-4.7,2-6.7c0.6-0.4,1.3-0.9,2.3-1.2c-0.8-0.9-1.6-1.9-2.7-3.2
		c-0.2-0.3-0.5-0.6-0.7-1c-0.4-0.5-0.1-1.1,0.3-1.4c0.4-0.3,1.1-0.4,1.5,0.1v0.1c0.5,0.7,0.9,1.3,1.3,1.8c0.9,1.2,1.7,2.1,2.4,2.9
		c1.5-0.4,3.1-0.7,4.6-0.7c0.4,0,0.7,0.2,0.9,0.4c0.4,0.5,0.4,1.3-0.1,1.7c-0.2,0.1-0.4,0.2-0.6,0.2c-1.1,0-2.1,0.1-3.2,0.3
		L69.4,53.2z M66.1,43.9c-1.7,0.1-3.8,0.4-5.4,0.9c-0.4,0.1-0.8,0-1-0.3c-0.3-0.4-0.3-1.1,0.2-1.5c0.6-0.5,4.2-1.2,5.9-1.2
		c0.4,0,0.8,0.1,1,0.4c0.3,0.5,0.3,1.2-0.1,1.6C66.5,43.9,66.3,43.9,66.1,43.9z M64.5,54.8c-1.8,1.4-2.3,2.6-1.4,3.7
		c0.7,0.9,2.3,0.6,3.6-0.4c1.3-1,1.9-2.2,0.7-3.8c-0.2-0.2-0.3-0.5-0.5-0.7C65.9,53.9,65.1,54.3,64.5,54.8z"/>
	<path class="st4" d="M73.7,44c-1.2-2.4-2.2-5.7-2.4-7.9c-0.1-0.7,0.3-1.2,0.7-1.4c0.5-0.3,1.2-0.1,1.5,0.4c0.1,0.1,0.1,0.2,0.1,0.4
		c0.3,2.4,1.1,5.2,2.2,7.6c1.9,3.8,3.9,5.2,5.1,4.6c1-0.5,1.4-1.9,1-5c-0.1-0.6,0.2-1,0.6-1.2c0.5-0.3,1.3-0.1,1.7,0.6
		c0.1,0.1,0.1,0.3,0.1,0.5c0.6,4.5-0.2,6.5-2.3,7.5C79.1,51.4,76.1,48.8,73.7,44z M90.3,41.4c-2-4-4.6-7-8.2-8.7
		c-0.2-0.1-0.4-0.3-0.5-0.5c-0.3-0.5,0-1.2,0.6-1.4c0.3-0.1,0.7-0.2,1.1,0c4,1.8,7.1,5.2,9.1,9.5c0.4,0.8,0,1.4-0.6,1.7
		C91.4,42.2,90.7,42.1,90.3,41.4z"/>
	<path class="st4" d="M112.9,29.3c1.3,4.9-0.8,8.8-5.4,10.9c-0.1,0-0.2,0.1-0.2,0.1c-0.8,0.2-1.5-0.3-1.7-0.8c-0.1-0.5,0-1,0.6-1.3
		c4.3-2,5.2-5.3,4.5-8.1l-0.1-0.2c-1-3.3-3.6-4.9-6.8-4.6c0.6,6.4-0.3,11.5-3,14.9c-0.4,0.6-1,1-1.7,1.2c-1.2,0.3-4.1,0.2-5.4-4.3
		c-1.8-5.9,2-11.6,8.2-13.4c4.6-1.4,9.4,0.4,10.8,5.4L112.9,29.3z M95.9,36.6c0,0.1,0.1,0.3,0.1,0.4c0.5,1.4,1.5,2.3,2.4,2
		c1.6-0.5,3.9-5.9,3.2-13.2C96.9,27.6,94.6,32.3,95.9,36.6z"/>
	<path class="st4" d="M119.6,27.7c-0.2-1,0.5-1.9,1.4-2c0.9-0.2,1.8,0.5,2,1.5s-0.5,1.9-1.4,2C120.6,29.3,119.7,28.6,119.6,27.7z"/>
	<path class="st4" d="M134.5,25.7c-0.1-1,0.6-1.8,1.5-1.9c0.9-0.1,1.8,0.7,1.8,1.6c0.1,1-0.6,1.8-1.6,1.9
		C135.4,27.4,134.6,26.6,134.5,25.7z"/>
	<path class="st4" d="M149.5,25c0-1,0.8-1.8,1.7-1.7c0.9,0,1.7,0.8,1.7,1.8s-0.8,1.8-1.7,1.7C150.2,26.7,149.5,25.9,149.5,25z"/>
</g>
<path class="st5" d="M19.5,104.7c2.5,5,28.4,5.4,39.9-4.6s14-5,14-5s-5.2-3.6-2.2-11.5c3-8,12-36.1,60.5-44.5s36-11.7,37.1-15.3"/>
</svg>
