<?xml version="1.0" encoding="utf-8"?>
<!-- Generator: Adobe Illustrator 24.0.1, SVG Export Plug-In . SVG Version: 6.00 Build 0)  -->
<svg version="1.1" id="レイヤー_1" xmlns="http://www.w3.org/2000/svg" xmlns:xlink="http://www.w3.org/1999/xlink" x="0px"
	 y="0px" viewBox="0 0 498 41.2" style="enable-background:new 0 0 498 41.2;" xml:space="preserve">
<style type="text/css">
	.st0{fill:#E60000;}
	.st1{fill:none;stroke:#FFFFFF;stroke-width:0.4976;stroke-miterlimit:10;}
	.st2{fill:#FFFFFF;}
	.st3{fill:#E60000;stroke:#FFFFFF;stroke-width:0.4976;stroke-miterlimit:10;}
	.st4{enable-background:new    ;}
	.st5{fill:none;stroke:#FFFFFF;stroke-width:0.4967;stroke-miterlimit:10;}
</style>
<g>
	<path class="st0" d="M33.6,31c0,1.5-1.2,2.7-2.7,2.7H10.2c-1.5,0-2.7-1.2-2.7-2.7V10.2c0-1.5,1.2-2.7,2.7-2.7h20.7
		c1.5,0,2.7,1.2,2.7,2.7V31z"/>
	<path class="st1" d="M32.1,29.8c0,1.3-1.1,2.4-2.4,2.4H11.3C10,32.2,9,31.1,9,29.8V11.4C9,10.1,10,9,11.3,9h18.5
		c1.3,0,2.4,1.1,2.4,2.4L32.1,29.8L32.1,29.8z"/>
	<g>
		<path class="st2" d="M27.3,12.7c0.2,0,0.4,0,0.4,0.2l0,0c0,0.2,0.2,0.4,0.4,0.4c0.2,0,0.3,0.2,0.3,0.4v0.1c0,0.2,0.1,0.4,0.2,0.5
			c0.1,0.1,0.2,0.3,0.1,0.5l0,0.2c0,0.2,0,0.5,0,0.6s0.1,0.4,0,0.6l-0.1,0.2c-0.1,0.2-0.1,0.5-0.1,0.7l0,0c0,0.2,0,0.5-0.2,0.6
			L28.2,18c-0.1,0.1-0.3,0.4-0.3,0.6v0.1c0,0.2-0.2,0.5-0.3,0.6l-0.1,0c-0.2,0.1-0.4,0.3-0.4,0.5l0,0.2c0,0.2-0.3,0.4-0.5,0.4l0,0
			c-0.2,0-0.4,0.2-0.5,0.4l-0.1,0.2c-0.1,0.2-0.3,0.3-0.5,0.3c-0.2,0-0.4,0.1-0.6,0.2l-0.1,0.1c-0.1,0.1-0.4,0.2-0.5,0.1
			c-0.1-0.1-0.4-0.1-0.6,0l-0.1,0c-0.2,0.1-0.4,0.1-0.5-0.1c-0.1-0.1-0.3-0.2-0.5-0.2l0,0c-0.2,0-0.4,0-0.4-0.2l0,0
			c0-0.2-0.2-0.4-0.4-0.4c-0.2,0-0.3-0.2-0.3-0.4v-0.1c0-0.2-0.1-0.4-0.2-0.5c-0.1-0.1-0.2-0.3-0.1-0.5l0-0.2c0-0.2,0-0.5,0-0.6
			c-0.1-0.1-0.1-0.4,0-0.6l0.1-0.2c0.1-0.2,0.1-0.5,0.1-0.7l0,0c0-0.2,0-0.5,0.2-0.6l0.1-0.1c0.1-0.1,0.3-0.4,0.3-0.6v-0.1
			c0-0.2,0.2-0.5,0.3-0.6l0.1,0c0.2-0.1,0.4-0.3,0.4-0.5l0-0.2c0-0.2,0.3-0.4,0.5-0.4l0,0c0.2,0,0.4-0.2,0.5-0.4l0.1-0.2
			c0.1-0.2,0.3-0.3,0.5-0.3c0.2,0,0.4-0.1,0.6-0.2l0.1-0.1c0.1-0.1,0.4-0.2,0.5-0.1s0.4,0.1,0.6,0l0.1,0c0.2-0.1,0.4-0.1,0.5,0.1
			S27.1,12.8,27.3,12.7L27.3,12.7z"/>
		<g>
			<path class="st2" d="M12.2,27.6c0,1.1,2.4,1.9,5.5,1.9s5.5-0.9,5.5-1.9v-5.3c0-1.1-2.4-1.9-5.5-1.9s-5.5,0.9-5.5,1.9V27.6z"/>
			<path class="st3" d="M23.1,22.3c0,1.1-2.4,1.9-5.5,1.9s-5.5-0.9-5.5-1.9c0-1.1,2.4-1.9,5.5-1.9S23.1,21.3,23.1,22.3z"/>
		</g>
	</g>
</g>
<g class="st4">
	<path d="M57,12.8c-2.1-1-3.9-1.7-6.4-2.5l3-2.8c2.9,0.9,4.9,1.7,7.7,2.9l-2.1,2.4H64c1.7,0,2.6-0.1,3.8-0.2v4.2
		c-1.1-0.1-2-0.1-3.8-0.1h-5.7v3.9h4.8c1.3,0,2.2,0,3.2-0.1v4.2c-1-0.1-1.7-0.1-3.1-0.1h-5V29h6.3c1.8,0,2.9-0.1,4.3-0.2v4.3
		c-1.4-0.1-2.4-0.2-4.2-0.2H48.1c-2,0-3.2,0.1-4.5,0.2v-4.3c1.2,0.1,2.4,0.2,4.3,0.2h5.9v-4.4h-4.2c-1.5,0-2.4,0-3.5,0.1v-4.2
		c1,0.1,1.6,0.1,3.1,0.1h4.7v-3.9h-5.3c-2.3,0-3,0-3.9,0.1v-4.2c1.1,0.1,1.9,0.2,3.8,0.2H57z"/>
	<path d="M103.5,26c-1.4,0-2.4,0.1-3.4,0.2v-3.9c0.9,0.1,1.8,0.2,3.4,0.2h0.6c-0.7-1.2-1.5-2.3-2.1-3.1l2.7-1c-0.4,0-0.6,0-0.8,0
		c-0.3,0-0.7,0-1.3,0c-0.5-1.3-0.9-2.2-1.7-3.6c3.2,0.1,4.5,0.1,6.4,0.1c2.9,0,6.1-0.1,8.6-0.3c2.4-0.2,3.6-0.4,5.9-0.9l2.7,3.3
		c-1.7,0.3-2.4,0.4-3.9,0.6l2.6,1c-1.4,2-2,2.8-3,3.9h1.5c1.6,0,2.6-0.1,3.4-0.2v3.9c-0.9-0.1-2-0.2-3.4-0.2h-4.3
		c2.1,1.7,4.7,2.8,8.2,3.4c-0.9,1.3-1.5,2.3-2.3,3.9c-2-0.6-3.6-1.3-5.3-2.5c-1.5-1-2.3-1.7-3.6-3c0,0.2,0,0.2,0,0.7
		c0,0.3,0,0.7,0,1v1.2c0,1.1,0.1,1.9,0.2,2.9h-4.7c0.2-1,0.2-1.8,0.2-2.8v-1.2c0-0.4,0-0.9,0.1-1.7c-2,2.5-4.5,4.1-8.3,5.3
		c-0.9-1.8-1.3-2.5-2.4-3.7c3.4-0.7,5.9-1.8,7.9-3.6L103.5,26L103.5,26z M105.8,9.1c0-0.4,0-0.8-0.1-1.3h4.2
		c-0.1,0.5-0.1,0.8-0.1,1.3v0.3h5.1V9.1c0-0.4,0-0.6-0.1-1.3h4.2c-0.1,0.4-0.1,0.8-0.1,1.3v0.3h3c1.5,0,2.3-0.1,3.3-0.2v4
		c-0.9-0.1-1.9-0.2-3.3-0.2h-3c0,0.5,0,0.7,0.1,1.1h-4.2c0.1-0.5,0.1-0.7,0.1-1.1h-5.1c0,0.5,0,0.6,0.1,1.2h-4.2
		c0.1-0.4,0.1-0.7,0.1-1.2h-2.5c-1.4,0-2.4,0.1-3.3,0.2V9.3c1,0.1,1.9,0.2,3.3,0.2h2.5V9.1z M110.3,22.4c0-0.6-0.1-0.8-0.1-1.3h1
		c-0.6-1.2-0.7-1.2-1.5-2.3l2-0.7c-1.6,0.1-2.8,0.1-5.9,0.1c0.6,0.7,1.2,1.5,2,2.7l-3.2,1.4L110.3,22.4L110.3,22.4z M119.3,22.4
		l-2.8-1.3c1-1.2,1.7-2.2,2.4-3.4c-1,0.1-2.8,0.2-5.3,0.3c0.7,0.9,0.9,1.2,1.4,2l-3.1,1h2.8c-0.1,0.5-0.1,0.8-0.1,1.3h4.7
		L119.3,22.4L119.3,22.4z"/>
	<path d="M127.8,16.3c0.9,0.2,2.1,0.3,4.1,0.3c0.1,0,0.3,0,0.6,0c0.4-1,0.5-1.5,0.6-2.2l3.7,0.3c-0.2,0.3-0.2,0.3-0.4,0.9
		c-0.3,0.6-0.4,0.9-0.4,0.9c0.2,0,0.2,0,1.2-0.1c2-0.1,4-0.4,5.1-0.6l0.1,3.2c-0.6,0.1-1.2,0.1-1.8,0.2c-1.4,0.1-3.9,0.3-6,0.3
		c-0.3,0.6-0.5,0.8-1,1.5c0.9-0.4,1.7-0.6,2.5-0.6c1.7,0,2.7,0.6,3.1,1.9c0.3-0.1,0.3-0.1,1.4-0.5c0.1,0,0.6-0.2,1.2-0.4
		c1.1-0.4,1.3-0.4,1.6-0.6l1.2,3.2c-1,0.1-3.2,0.7-5.1,1.4c0,0.5,0,0.6,0,1.4c0,0.9,0,1.2,0.1,1.7l-3.3,0.1c0.1-0.3,0.1-0.9,0.1-2.1
		l-0.2,0.1c-0.9,0.4-1,0.5-1.4,0.8c-0.3,0.3-0.5,0.7-0.5,1c0,0.8,0.7,1.1,2.7,1.1c2.4,0,4.7-0.4,6.4-1l0.2,3.6c-0.6,0-0.6,0-1.8,0.2
		c-1.6,0.2-3.3,0.3-4.8,0.3c-2.3,0-3.7-0.3-4.8-0.9c-1-0.6-1.6-1.6-1.6-2.8c0-0.9,0.3-1.7,1-2.5c0.7-0.9,1.6-1.5,2.9-2.1
		c0.5-0.2,0.7-0.3,1.5-0.7c-0.2-0.3-0.4-0.5-0.8-0.5c-1,0-2.4,0.7-3.8,1.9c-0.8,0.7-1.4,1.3-1.9,2l-2.5-2.5c0.6-0.5,1.5-1.3,2.1-2.1
		c0.4-0.5,1.2-1.7,1.5-2.2s0.3-0.5,0.4-0.6c-0.3,0-0.5,0-0.6,0c-0.9,0-0.9,0-1.7,0c-0.3,0-0.4,0-0.7,0c0,0-0.2,0-0.3,0L127.8,16.3z"
		/>
	<path d="M162.6,17.4c-0.5,0.1-0.5,0.1-1.1,0.3c-1.2,0.4-2.3,0.7-3.9,1c0,1,0,2.3-0.1,2.7h3.3c1.5,0,2.3,0,3.2-0.1v3.3
		c-0.8-0.1-1.3-0.1-3.1-0.1h-3.6c-0.2,1.8-0.6,3.1-1.3,4.2c-0.7,1.2-1.9,2.3-3.3,3.2c-0.6,0.4-1,0.6-1.9,1c-0.8-1.3-1.3-2-2.5-3
		c2.4-0.9,3.7-1.7,4.5-2.9c0.5-0.7,0.8-1.4,1-2.6h-3.9c-1.8,0-2.3,0-3.1,0.1v-3.3c0.8,0.1,1.3,0.1,3.2,0.1h4.2c0-0.6,0-1,0-1.7V19
		c-1.9,0.2-2.1,0.2-5.3,0.3c-0.2-1.1-0.4-1.8-1-3c0.7,0,1,0,1.3,0c2.7,0,6.5-0.5,8.8-1c1-0.3,1.8-0.5,2.5-0.9L162.6,17.4z"/>
	<path d="M175.7,28.9h3.1c1.3,0,1.9,0,2.7-0.1v3c-0.7-0.1-1.3-0.1-2.7-0.1h-9.3c-1.5,0-1.8,0-2.7,0.1v-3c0.7,0.1,1.2,0.1,2.7,0.1h3
		v-6h-1.8c-1.3,0-1.7,0-2.6,0.1v-3.1c0.8,0.1,1.4,0.1,2.6,0.1h7c1.3,0,1.8,0,2.6-0.1V23c-0.6-0.1-1.4-0.1-2.6-0.1h-1.9v6H175.7z"/>
	<path d="M187.6,19.2c0.8,1.5,1.4,3.1,1.9,5.1l-3.1,0.9c-0.5-2.1-0.9-3.3-1.8-5.2L187.6,19.2z M199.2,19.6c-0.1,0.4-0.1,0.4-0.3,1.2
		c-0.6,2.8-1.4,4.9-2.5,6.5s-2.5,3-4.2,4.1c-0.7,0.4-1.2,0.7-2.4,1.3c-0.7-1.2-1.1-1.7-2.2-2.8c4-1.6,6.2-3.6,7.4-6.9
		c0.5-1.4,0.9-3,0.9-4.2L199.2,19.6z M192,18.4c1.1,2.1,1.4,3,1.9,4.9l-3.1,0.9c-0.4-1.7-0.9-3.2-1.8-5L192,18.4z"/>
	<path d="M211.2,15c-0.1,0.2-0.1,0.2-0.2,0.5c0,0.1-0.1,0.2-0.1,0.3c-0.1,0.2-0.1,0.3-0.2,0.4c-0.3,0.6-0.3,0.6-0.4,0.9l5-0.1
		c0.8,0,1,0,1.5-0.2l1.7,1.6c-0.2,0.4-0.3,0.5-0.6,1.4c-1,3.3-2.4,5.9-4.1,7.9c-1.8,2.1-4.1,3.7-7.4,5.2c-0.7-1.3-1.3-2.1-2.4-3
		c2.8-1,4.9-2.3,6.7-4.1c1.5-1.5,2.6-3.4,3.3-5.7l-5.3,0.1c-1.3,2.1-2.6,3.5-4.5,5c-1-1.2-1.5-1.6-2.8-2.4c2.4-1.7,4-3.5,5.3-6.1
		c0.5-1,0.8-1.7,0.9-2.4L211.2,15z"/>
	<path d="M224.4,26.8c0-0.4,0-0.6,0-0.9c0-0.4,0-0.4-0.1-1.6l-0.4-6.3c0-0.8-0.1-1.7-0.2-2.7h4.7c-0.1,0.5-0.2,1.9-0.2,2.7l-0.4,6.3
		c0,0.8-0.1,1.2-0.1,1.5c0,0.2,0,0.4,0,0.9h-3.3V26.8z M224.1,31.9v-3.7h4V32L224.1,31.9L224.1,31.9z"/>
</g>
<g>
	<path class="st0" d="M255.2,21.7c-0.1,0.3-0.1,0.5-0.1,0.7c0,1.1,0.2,1.9,0.8,2.6c1,1.3,2.3,2,4.7,2.6c-0.6,0.9-0.9,1.4-1.3,2.6
		c-1.4-0.5-2.4-1-3.5-1.8c-1-0.7-1.5-1.4-2-2.4c-0.4,1-0.9,1.7-1.8,2.3c-1,0.8-2.1,1.3-3.7,1.8c-0.3-0.9-0.6-1.5-1-2.2
		c-0.3,0.8-0.5,1.4-1,2.2c-0.7-0.9-1.2-1.4-2.1-2.1c1.1-1.8,1.4-3.5,1.4-7.4c0-1,0-1.3-0.1-1.9c0.6,0.1,1,0.1,1.9,0.1h10.9
		c1,0,1.4,0,1.8-0.1v2.5c-0.5-0.1-1-0.1-1.8-0.1h-10.1v1.2c0,1.8-0.3,3.5-0.8,5.4c1.5-0.3,2.6-0.8,3.4-1.4c0.7-0.6,1.1-1.2,1.3-2.1
		c0.2-0.5,0.3-1.2,0.3-1.7c0-0.3,0-0.5-0.1-0.8C252.3,21.7,255.2,21.7,255.2,21.7z M251.5,15.2c0-0.4,0-0.7-0.1-1.1h2.8
		c-0.1,0.3-0.1,0.6-0.1,1.1v0.9h3v-0.6c0-0.3,0-0.6-0.1-0.9h2.6c-0.1,0.3-0.1,0.6-0.1,1v1.7c0,0.4,0,0.9,0.1,1.2
		c-0.5,0-0.9-0.1-1.5-0.1h-10.6c-0.8,0-1,0-1.5,0c0.1-0.5,0.1-0.8,0.1-1.2v-1.7c0-0.3,0-0.6-0.1-1h2.6c0,0.2-0.1,0.5-0.1,0.9v0.7
		h2.9v-0.9C251.4,15.2,251.5,15.2,251.5,15.2z M248.4,25c0.8-1.3,1.1-1.8,1.4-3.2l2.4,0.7c-0.5,1.5-0.9,2.2-1.6,3.4L248.4,25z
		 M255.7,24.6c0.8-1,1.1-1.6,1.7-2.8l2.5,0.9c-0.7,1.3-1.1,1.9-1.9,3.1L255.7,24.6z"/>
	<path class="st0" d="M268.4,19.2c-0.1,0.4-0.2,0.5-0.4,1.2c-0.6,2.1-1.1,3.5-2,5c-0.8,1.3-1.5,2.2-2.8,3.3
		c-0.6-0.9-1.1-1.5-1.9-2.3c1.1-0.8,1.7-1.5,2.4-2.5c0.8-1.1,1.2-2,1.6-3.5h-1.6c-0.7,0-1.3,0-1.8,0.1v-2.7c0.5,0.1,1,0.1,2,0.1h1.7
		c0.7,0,1.1,0,1.4-0.1L268.4,19.2z M277.2,18.2c-0.1,0.1-0.1,0.1-0.3,0.3c-0.1,0.1-0.1,0.1-0.7,0.8c-0.7,0.8-1.8,1.9-2.8,2.8
		c0.5,0.6,1,1.2,1.6,1.8c1,0.9,1.7,1.5,2.9,2.1c-0.8,0.9-1.1,1.4-1.7,2.7c-1.4-1-2.3-1.8-3.2-3c-0.7-1-1.3-1.9-1.9-3.1
		c0,0.8,0,0.8,0,1c0,0.7,0,0.7,0,1.1v3.1c0,1.7-0.6,2.1-2.7,2.1c-0.7,0-1.4,0-2.1-0.1c-0.1-1.1-0.2-1.6-0.7-2.6
		c1,0.1,1.6,0.2,2.2,0.2c0.5,0,0.6-0.1,0.6-0.4V16c0-0.8,0-1.3-0.1-1.9h2.9c-0.1,0.5-0.1,1.1-0.1,1.9v1.3c0.3,1,0.5,1.6,0.9,2.5
		c1.3-1.2,2.2-2.3,2.7-3.4L277.2,18.2z"/>
	<path class="st0" d="M280.9,23.8c0-0.1,0-0.7,0-1.7c-0.3,0.4-0.9,1.1-1.3,1.6c-0.3-1.2-0.5-1.9-1.1-3c1-0.8,1.5-1.5,2.1-2.6
		c0.8-1.4,1.5-3,1.6-4.1l2.7,0.8c-0.3,0.8-0.3,0.8-0.5,1.5c-0.2,0.6-0.5,1.3-0.9,2.2v9.3c0,0.7,0,1.5,0.1,2.3h-2.8
		c0.1-0.7,0.1-1.5,0.1-2.3L280.9,23.8L280.9,23.8z M288.6,26.8c0,0.3,0.3,0.5,1.2,0.5c1,0,1.5-0.1,1.7-0.3c0.3-0.3,0.4-1.2,0.4-3.2
		c1,0.5,1.6,0.7,2.5,0.8c-0.1,2.8-0.3,3.7-1,4.4c-0.3,0.3-0.6,0.4-1.1,0.5c-0.6,0.1-1.8,0.2-3.2,0.2c-2.7,0-3.3-0.4-3.3-2.1V16.5
		c0-1,0-1.7-0.1-2.2h2.9c-0.1,0.5-0.1,1.2-0.1,2.2v2.8c1.6-0.9,3.1-2,3.9-3l2,2.1c-0.1,0.1-0.1,0.1-0.2,0.2
		c-0.5,0.4-1.5,1.2-1.9,1.5c-1.2,0.8-1.9,1.3-3.8,2.3v4.4H288.6z"/>
	<path class="st0" d="M307.8,18.6c-0.6,1.5-1.1,2.6-1.9,3.8c-1,1.4-1.9,2.4-3.2,3.5c-0.4-0.8-0.6-1.1-1-1.6
		c-0.1,0.1-0.1,0.1-0.3,0.1l-0.5,0.2V28c0,0.8,0,1.5,0.1,2.1h-2.7c0.1-0.6,0.1-1.3,0.1-2.1v-2.5c-0.8,0.3-0.9,0.3-1.6,0.5
		c-0.3,0.1-0.4,0.1-0.7,0.3l-0.4-2.7c0.6,0,1.5-0.2,2.8-0.6v-3.3h-0.6c-0.1,1-0.2,1.6-0.5,2.5c-0.6-0.5-1.1-0.7-1.8-1
		c0.4-1.3,0.7-3.1,0.7-4.7c0-0.3,0-0.5-0.1-0.9l2,0.2c0,0.3,0,0.8-0.1,1.5h0.4v-1.8c0-0.5,0-0.9-0.1-1.4h2.7
		c-0.1,0.4-0.1,0.8-0.1,1.4v1.8c0.6,0,0.9,0,1.2-0.1v1.1c0.9-1.2,1.6-2.9,1.8-4.3l2.8,0.4c-0.2,0.4-0.2,0.4-0.5,1.3
		c-0.1,0.4-0.2,0.5-0.2,0.6h4.2c0.7,0,1.1,0,1.4-0.1c-0.1,0.6-0.1,0.7-0.1,1.9c-0.1,6-0.3,8.8-0.7,10c-0.4,1.3-1.3,1.9-3,1.9
		c-0.3,0-0.9,0-1.7-0.1c-0.1-0.8-0.2-1.5-0.4-2.2c-0.7,0.8-1.4,1.4-2.4,2.2c-0.5-0.9-0.8-1.3-1.6-2.1c1.6-1,3-2.3,4.2-3.9
		c1.2-1.6,2.1-3.2,2.7-5.3C308.7,18.6,307.8,18.6,307.8,18.6z M302.2,23c0.7-0.6,1.4-1.3,1.9-2c0.6-0.7,0.7-1,1.3-2.4h-0.6
		c-0.7,1.2-1.3,2.1-2.2,2.9c-0.4-0.8-0.8-1.3-1.3-1.9h-0.1h-0.3v2.6c0.6-0.2,0.7-0.2,1.3-0.4V23z M305.9,27.4
		c0.8,0.1,1.2,0.2,1.6,0.2c0.7,0,0.9-0.3,1.1-1.4c0.1-0.8,0.3-2.1,0.3-3.6C308.2,24.2,307.2,25.9,305.9,27.4z"/>
</g>
</svg>
