<?xml version="1.0" encoding="utf-8"?>
<!-- Generator: Adobe Illustrator 24.0.1, SVG Export Plug-In . SVG Version: 6.00 Build 0)  -->
<svg version="1.1" id="レイヤー_1" xmlns="http://www.w3.org/2000/svg" xmlns:xlink="http://www.w3.org/1999/xlink" x="0px"
	 y="0px" viewBox="0 0 498 41.2" style="enable-background:new 0 0 498 41.2;" xml:space="preserve">
<style type="text/css">
	.st0{fill:#E60000;}
	.st1{fill:none;stroke:#FFFFFF;stroke-width:0.4967;stroke-miterlimit:10;}
	.st2{fill:#FFFFFF;}
</style>
<path class="st0" d="M33.6,33.4c0,1.5-1.2,2.7-2.7,2.7H10.2c-1.5,0-2.7-1.2-2.7-2.7V12.6c0-1.5,1.2-2.7,2.7-2.7h20.7
	c1.5,0,2.7,1.2,2.7,2.7C33.6,12.6,33.6,33.4,33.6,33.4z"/>
<path class="st1" d="M32,32.2c0,1.3-1.1,2.4-2.4,2.4H11.4c-1.3,0-2.4-1.1-2.4-2.4V13.8c0-1.3,1.1-2.4,2.4-2.4h18.4
	c1.3,0,2.4,1.1,2.4,2.4L32,32.2L32,32.2z"/>
<g>
	<g>
		<path class="st2" d="M16.2,23.5h-2.3v-3.1h-3.1v-2.3h3.1V15h2.3v3.1h3.1v2.3h-3.1V23.5z"/>
	</g>
	<g>
		<path class="st2" d="M27,27.1c0,0.2,0,0.3,0,0.4c0,0.8,0.1,1,0.4,1c0.3,0,0.8-0.3,1.2-0.8l1,1.8c-0.5,0.5-0.8,0.7-1.3,1
			c-0.6,0.2-1.2,0.4-1.7,0.4c-0.6,0-1-0.1-1.4-0.4c-0.2-0.2-0.4-0.4-0.5-0.9c-0.6,0.5-0.8,0.8-1.3,1c-0.6,0.3-1.2,0.4-1.9,0.4
			c-2.5,0-3.9-1.4-3.9-3.9c0-3.6,2.4-6.2,5.7-6.2c1.1,0,1.9,0.3,2.4,0.8c0.3,0.3,0.4,0.6,0.6,1.5l0.3-0.6c0.2-0.4,0.4-0.9,0.5-1.3h3
			c-0.2,0.4-0.4,0.8-1,1.8L27,27.1z M24.3,25c0-1.2-0.4-1.7-1.2-1.7c-0.8,0-1.6,0.5-2.1,1.5c-0.3,0.6-0.5,1.4-0.5,2.2
			c0,1.1,0.5,1.7,1.6,1.7c0.4,0,0.8-0.1,1.2-0.4c0.2-0.2,0.4-0.3,0.6-0.6c0.2-0.2,0.5-0.6,0.5-0.6C24.3,26.4,24.3,25.5,24.3,25z"/>
	</g>
</g>
<g>
	<path d="M63,18.6c-0.2,0.4-0.4,0.8-0.6,1.4c1.2,0.4,1.9,0.8,2.8,1.5c1.5,1.3,2.2,3.1,2.2,5.1c0,3.3-1.8,6-5.1,7.4
		c-1.5,0.7-3,1-5.5,1.3c-0.4-1.5-0.9-2.6-1.5-3.6c-1.9,1.8-4.3,2.8-6.3,2.8c-3.2,0-5.3-2.2-5.3-5.6c0-2.3,1-4.6,2.7-6.3
		c1.1-1.1,2.1-1.8,3.8-2.5c0-0.9,0-1.2,0-2.4c-1.2,0-1.2,0-3.2-0.1c-0.4,0-0.8,0-1.3,0c-0.4,0-0.5,0-0.9,0l-0.1-4.3
		c1.6,0.3,3,0.4,5.1,0.4h0.2l0.4,0c0-0.4,0-0.4,0.1-1.2c0-0.3,0-0.6,0-0.9c0-0.5,0-0.8-0.1-1.1l4.7,0.2c-0.2,0.8-0.3,1.3-0.4,2.9
		c4.4-0.2,8-0.7,10.3-1.4l0.2,4.4c-0.4,0-0.5,0-1.2,0.1c-2.6,0.4-6.8,0.7-9.5,0.8c0,0.3,0,0.3-0.1,0.7c0,0.2,0,0.2,0,0.8
		c1.2-0.2,1.7-0.2,2.7-0.2c0.5,0,0.7,0,1.3,0.1c0.2-0.6,0.3-1,0.4-1.6L63,18.6z M47.9,28.6c0,1,0.4,1.6,1.2,1.6c0.5,0,1-0.2,1.5-0.5
		c-0.2-1.4-0.4-3-0.4-5C48.7,25.7,47.9,27.1,47.9,28.6z M54.5,26.8c1-1.3,2.1-2.9,2.6-4.2c-0.2,0-0.3,0-0.6,0
		c-0.8,0-1.4,0.1-2.2,0.3C54.3,24.6,54.3,25.4,54.5,26.8z M60.2,30c1.6-0.7,2.6-2.2,2.6-3.7c0-1.2-0.5-2-1.8-2.6
		c-1.3,2.9-2.8,5.1-4.8,7.1C58,30.7,59.1,30.4,60.2,30z"/>
	<path d="M81.2,10.8C81,11.3,81,11.3,80.7,13c-0.1,0.7-0.2,0.9-0.3,1.5c1.8-0.2,2.9-0.4,3.8-0.7l0.1,4.4c-0.7,0.1-0.7,0.1-2,0.2
		c-0.7,0.1-2.2,0.2-2.9,0.3c-1,3.2-1.7,5.1-3,7.9c-0.6,1.3-0.8,1.8-1.9,3.9c-0.4,0.7-0.4,0.7-0.5,1.1l-4.5-2.4
		c1.9-2.6,3.8-6.5,5.1-10.3c-0.5,0-0.5,0-1.5,0c-0.6,0-0.6,0-1.3,0c-0.1,0-0.2,0-1.1,0v-4.4c1,0.2,2.3,0.3,4,0.3c0.3,0,0.4,0,1,0
		c0-0.2,0-0.2,0.2-1.1c0.2-0.9,0.4-2.3,0.4-3.3L81.2,10.8z M93,33.8c-1-1.2-2.1-2.1-3.5-3c-0.1,1.3-0.4,2.1-1.1,2.8
		c-1.1,1.1-3,1.7-5.2,1.7s-4-0.7-5.2-1.8c-0.9-0.9-1.4-2.1-1.4-3.4c0-3.2,2.7-5.4,6.5-5.4c0.6,0,1,0,1.9,0.2c-0.1-1-0.1-1.6-0.1-2.2
		c0-1.1,0.1-2,0.2-3.2l4.5,0.2c-0.2,1-0.3,1.8-0.3,3.1c0,1,0.1,1.8,0.2,3.2c1.7,0.7,3,1.5,4.2,2.4c0.1,0.1,0.5,0.4,1.3,1.1L93,33.8z
		 M83.2,28.7c-1.3,0-2.1,0.5-2.1,1.4c0,0.8,0.8,1.3,1.9,1.3c1.4,0,2.1-0.6,2.1-1.8c0-0.2,0-0.6-0.1-0.6
		C84.3,28.8,83.8,28.7,83.2,28.7z M93.2,21c-2.6-1.6-5.3-2.8-8.5-3.9l2.3-3.8c3.4,1.2,5.7,2.2,8.2,3.7L93.2,21z"/>
	<path d="M111.8,18c2.6-0.3,3.8-0.4,7.3-0.4c0.2,0,0.8,0,1.3,0l0.1,4.6c-1.3-0.2-2.1-0.2-3.6-0.2c-3,0-5,0.2-7.7,0.7l-0.3-3.9
		c-1.3,0.1-1.6,0.2-2.5,0.2c-0.5,2.6-1,4.6-1.7,7.4c-0.7,2.4-0.8,3-2,6.5c-0.4,1.3-0.4,1.3-0.6,2l-5-1.8c1.8-3.5,3.6-8.9,4.6-14
		c-0.2,0-0.3,0-0.4,0c-0.9,0-1.5,0-2.6-0.1c0,0-0.1,0-0.3,0c-0.2,0-0.3,0-0.6,0l0.1-4.5c1.1,0.2,2.5,0.3,4.2,0.3c0.1,0,0.3,0,0.5,0
		c0.4-2.2,0.5-3.3,0.5-4.1c0-0.1,0-0.2,0-0.4l5.1,0.4c-0.2,0.5-0.2,0.8-0.4,1.6c0,0.2-0.2,1-0.4,2.4c1.9-0.2,3-0.4,4.5-0.7L111.8,18
		z M112.7,25.5c-1,1.2-1.5,2.1-1.5,3c0,1.3,1.1,1.9,3.4,1.9c2.1,0,4.8-0.4,6.5-1.1l0.3,4.8c-0.5,0.1-0.8,0.1-1.5,0.2
		c-2.6,0.4-3.7,0.4-5.3,0.4c-5.4,0-8-1.7-8-5.2c0-1.6,0.6-3.1,2.1-5.3L112.7,25.5z"/>
	<path d="M126.9,15.2c-1.3,0-2,0-3,0.1v-3.8c0.9,0.1,1.6,0.2,3.1,0.2h7.1c0-0.7-0.1-1-0.2-1.6h4.4c-0.1,0.6-0.1,1-0.2,1.6h7.4
		c1.5,0,2.2,0,3.1-0.2v3.8c-0.9-0.1-1.7-0.1-3-0.1h-7.5V16h5.6c1.6,0,2.1,0,2.9-0.1c-0.1,0.9-0.1,1.4-0.1,2.4v5c0,1.1,0,1.6,0.1,2.4
		c-0.7-0.1-1-0.1-2.4-0.1v0.9h1.3c1.5,0,2.2,0,3.1-0.2v3.8c-1-0.1-2-0.1-3-0.1h-1.4v2.7c0,2.3-1.1,3-5,3c-0.5,0-1.2,0-2.1-0.1
		c-0.3-1.6-0.6-2.6-1.1-3.8c1.2,0.1,2.2,0.2,3.1,0.2c0.9,0,1.1-0.1,1.1-0.6v-1.5h-8c1.3,1,2.3,1.9,3.3,3.1l-3.4,2.6
		c-1.5-1.8-2.5-2.7-4-4l2.4-1.7h-3.7c-1,0-2,0.1-3,0.1v-3.8c0.9,0.1,1.6,0.2,3.1,0.2h13.3v-0.9h-11.5c-1.5,0-2.1,0-2.9,0.1
		c0.1-0.9,0.1-1.4,0.1-2.4v-5c0-1,0-1.5-0.1-2.4c0.8,0.1,1.3,0.1,2.9,0.1h5.3v-0.8H126.9z M130.1,18.7v1h4v-1H130.1z M130.1,22.1v1
		h4v-1H130.1z M138.2,19.7h4.3v-1h-4.3V19.7z M138.2,23.1h4.3v-1h-4.3V23.1z"/>
	<path d="M166.1,31.5c0,1.8,0,2.6,0.1,3.5h-4.4c0.1-0.9,0.2-1.7,0.2-3.5v-3.9h-5.2c-0.4,3.4-1.1,5.8-2.6,8.3
		c-1.5-1.6-2.2-2.2-3.7-3.1c2.1-3.5,2.5-6.6,2.5-18.3c0-1.6-0.1-2.7-0.1-3.7c1,0.1,1.7,0.1,3.3,0.1h16c1.7,0,2.5,0,3.4-0.1
		c-0.1,1-0.1,1.7-0.1,3.5v17.8c0,2.5-1,3.3-4.3,3.3c-0.9,0-1.9,0-3-0.1c-0.2-1.5-0.4-2.4-1.1-3.9c1.2,0.1,2.3,0.2,3,0.2
		c1,0,1.2-0.1,1.2-0.6v-3.4h-5.1V31.5z M157.2,21.3c0,1.1,0,1.4-0.1,2.6h5v-2.6H157.2z M162,14.9h-4.8v2.6h4.8V14.9z M171.2,17.5
		v-2.6h-5.1v2.6H171.2z M166.1,23.9h5.1v-2.6h-5.1V23.9z"/>
	<path d="M190.7,27.9c-1.6,3.5-3.4,5-5.9,5c-3.7,0-6.2-3.5-6.2-8.5c0-3.2,1.1-6.1,3.1-8.3c2.4-2.6,5.9-4,9.9-4
		c3.7,0,6.9,1.2,8.9,3.4c1.8,1.9,2.7,4.5,2.7,7.6c0,3.6-1.3,6.8-3.6,8.8c-1.9,1.7-4,2.5-7.9,3.1c-0.7-2-1.2-3-2.3-4.5
		c2.6-0.2,4.3-0.6,5.7-1.4c2.1-1.1,3.3-3.4,3.3-6.3c0-2.3-0.8-4.2-2.4-5.4c-0.7-0.5-1.3-0.8-2.3-1C193.1,21.1,192.2,24.6,190.7,27.9
		z M186,17.9c-1.8,1.5-3,4.1-3,6.5c0,1.9,0.7,3.5,1.7,3.5c0.7,0,1.4-1,2.2-3c1-2.5,1.8-5.6,2.1-8.3C187.8,16.6,186.9,17,186,17.9z"
		/>
	<path d="M216.1,31c0,0.6,0.4,0.7,2.6,0.7c2.2,0,2.7-0.2,3-1c0.3-0.9,0.4-2.3,0.4-4.7c1.6,0.8,2.5,1,4,1.4c-0.4,5-0.9,6.6-2.3,7.4
		c-0.9,0.5-2.7,0.7-5.8,0.7c-4.6,0-5.8-0.5-6-2.7c-1.5,1-2.3,1.5-4.2,2.6c-0.9-1.6-1.5-2.4-2.8-3.7c2.7-1.2,4.9-2.4,6.9-4v-8.6
		c0-1.2,0-1.9-0.1-3h4.5c-0.1,0.9-0.1,1.8-0.1,2.8v5.2c2.4-2.4,4.6-5.6,6.1-8.7c0.8-1.7,1.3-3,1.6-4l4.3,1.7
		c-0.4,0.8-0.4,0.8-1.2,2.4c-1,2.1-1.6,3-2.6,4.7l3.2-1.5c1.6,3.4,2.7,6.3,3.9,10.7l-4,2.1c-1-4.4-2-7.5-3.5-10.7
		c-2.4,3.7-4.5,6.1-7.8,8.9V31z M211,19c-0.5,4.8-1,7.4-2.2,10.4l-3.8-1.8c1.1-2.8,1.7-5.4,2.1-9.5L211,19z M214.1,9.9
		c3.4,1.3,5.3,2.1,7.8,3.5l-2.4,3.7c-1.9-1.4-4.2-2.5-7.9-4L214.1,9.9z"/>
	<path d="M235.9,26c-1.2,0-2.2,0-3,0.1v-3.5c0.9,0.1,1.9,0.1,3,0.1h19.3c1.1,0,2.1-0.1,3-0.1v3.5c-0.8-0.1-1.8-0.1-3-0.1h-7.9
		c-0.2,0.3-0.2,0.4-0.4,0.8h7.2c1.2,0,1.9,0,2.5-0.1c-0.1,0.6-0.1,1.1-0.1,1.9v3.9c0,2.4-0.7,3.1-3.1,3.1c-0.2,0-0.3,0-2.1-0.1
		c-0.2-1.8-0.3-2.5-0.8-3.7c0.6,0.1,1.1,0.2,1.5,0.2c0.4,0,0.5-0.1,0.5-0.4v-1.8h-2.4v3.1c0,1.2,0,1.8,0.1,2.5h-4
		c0.1-0.7,0.1-1.5,0.1-2.6v-3.1h-2v3.1c0,1.1,0,1.8,0.1,2.5h-4c0.1-0.7,0.1-1.5,0.1-2.6v-3.1h-2v3.4c0,1.1,0,1.8,0.1,2.5h-4.2
		c0.1-1,0.2-1.8,0.2-2.8v-4c0-0.8,0-1.5-0.1-2.2c0.8,0.1,1.3,0.1,2.8,0.1h5.1c0.2-0.4,0.3-0.5,0.4-0.8H235.9z M237.7,13.6
		c-1.2,0-2.2,0-3,0.1v-3.3c0.8,0.1,2,0.2,3.4,0.2h14.7c1.5,0,2.7-0.1,3.4-0.2v3.3c-0.8-0.1-1.8-0.1-3-0.1h-5.9v0.7h6.6
		c2.2,0,2.9,0,3.8-0.1c-0.1,0.7-0.1,1.2-0.1,2.4v2c0,1.2,0,1.5,0.1,2.4h-3.9v-3.8h-6.5v2.3c0,1.3,0,1.9,0.1,2.6h-4.4
		c0.1-0.8,0.1-1.5,0.1-2.6v-2.3H237V21h-3.9c0.1-0.8,0.1-1.3,0.1-2.4v-2c0-1.2,0-1.7-0.1-2.4c0.9,0.1,1.6,0.1,3.8,0.1h6.3v-0.7
		H237.7z M237.8,17.8c0.3,0.1,0.5,0.1,1.2,0.1h2.3c0.7,0,0.9,0,1.2-0.1v1.8c-0.3-0.1-0.5-0.1-1.2-0.1H239c-0.6,0-0.8,0-1.2,0.1V17.8
		z M237.8,20.2c0.3,0.1,0.5,0.1,1.2,0.1h2.3c0.7,0,1,0,1.2-0.1V22c-0.3-0.1-0.6-0.1-1.2-0.1H239c-0.6,0-0.8,0-1.2,0.1V20.2z
		 M248.2,17.8c0.3,0.1,0.5,0.1,1.2,0.1h2.6c0.7,0,0.9,0,1.2-0.1v1.8c-0.3-0.1-0.5-0.1-1.2-0.1h-2.6c-0.6,0-0.7,0-1.2,0.1V17.8z
		 M248.2,20.2c0.3,0.1,0.5,0.1,1.2,0.1h2.6c0.7,0,0.9,0,1.2-0.1V22c-0.3-0.1-0.6-0.1-1.2-0.1h-2.6c-0.5,0-0.7,0-1.2,0.1V20.2z"/>
	<path d="M260.6,35.8c0.1-0.9,0.2-1.6,0.2-3.1v-7.4c0-0.9,0-1.7-0.1-2.5c0.9,0.1,1.6,0.1,2.8,0.1h6.8c0.7,0,1.3,0,1.9-0.1
		c-0.1,0.5-0.1,0.9-0.1,2.2v8.2c0,1,0,1.6,0.1,2.2h-4.1v-0.8h-3.2v1.2H260.6z M264.1,13.3c0-1,0-1.7-0.1-2.5
		c0.8,0.1,1.7,0.1,3.1,0.1h11.7c1.5,0,2.4,0,3.1-0.1c-0.1,0.7-0.1,1.4-0.1,2.5v5.5c0,1.2,0,1.9,0.1,2.7c-0.8-0.1-1.3-0.1-2.8-0.1
		h-12.4c-1.5,0-2,0-2.8,0.1c0.1-0.7,0.1-1.6,0.1-2.7V13.3z M268.1,26.5h-3.2v4.3h3.2V26.5z M268.2,14.8v2.8h9.4v-2.8H268.2z
		 M282.6,22.8c1.2,0,1.9,0,2.5-0.1c-0.1,0.8-0.1,1.5-0.1,2.6v7.4c0,1.5,0,2.3,0.2,3.1h-4.3v-1.2h-3.4v1.2h-4.1
		c0.1-0.7,0.1-1.3,0.1-2.2v-8.7c0-1.3,0-1.5-0.1-2.1c0.6,0.1,1.1,0.1,1.9,0.1H282.6z M277.4,30.8h3.5v-4.3h-3.5V30.8z"/>
</g>
<g>
	<path d="M290.5,20.2c0.8,0.2,2,0.3,4,0.3c0.1,0,0.3,0,0.5,0c0.4-0.9,0.5-1.5,0.6-2.2l3.6,0.3c-0.2,0.3-0.2,0.3-0.4,0.9
		c-0.3,0.6-0.4,0.9-0.4,0.9c0.2,0,0.2,0,1.2-0.1c1.9-0.1,3.9-0.4,4.9-0.6l0.1,3.1c-0.6,0.1-1.2,0.1-1.8,0.2
		c-1.4,0.1-3.8,0.3-5.8,0.3c-0.3,0.6-0.5,0.8-0.9,1.4c0.8-0.4,1.6-0.6,2.5-0.6c1.6,0,2.6,0.6,3,1.9c0.3-0.1,0.3-0.1,1.4-0.5
		c0.1,0,0.6-0.2,1.2-0.4c1.1-0.4,1.2-0.4,1.6-0.6l1.2,3.1c-1,0.1-3.1,0.7-5,1.3c0,0.5,0,0.5,0,1.4c0,0.9,0,1.2,0.1,1.7l-3.2,0.1
		c0.1-0.3,0.1-0.9,0.1-2.1l-0.2,0.1c-0.9,0.4-1,0.5-1.4,0.8c-0.3,0.3-0.5,0.6-0.5,1c0,0.7,0.7,1,2.6,1c2.3,0,4.6-0.4,6.2-1l0.2,3.5
		c-0.6,0-0.6,0-1.7,0.2c-1.6,0.2-3.2,0.3-4.7,0.3c-2.2,0-3.6-0.3-4.6-0.9c-1-0.6-1.5-1.6-1.5-2.8c0-0.9,0.3-1.7,1-2.5
		c0.7-0.8,1.6-1.5,2.8-2.1c0.5-0.2,0.7-0.3,1.4-0.7c-0.2-0.3-0.4-0.5-0.8-0.5c-1,0-2.3,0.7-3.7,1.9c-0.8,0.7-1.3,1.3-1.9,2l-2.5-2.5
		c0.6-0.5,1.4-1.3,2.1-2c0.4-0.5,1.2-1.7,1.5-2.1c0.3-0.5,0.3-0.5,0.4-0.6c-0.3,0-0.5,0-0.6,0c-0.8,0-0.8,0-1.7,0
		c-0.3,0-0.4,0-0.7,0c0,0-0.2,0-0.3,0L290.5,20.2z"/>
	<path d="M308.6,25.3c0.6,0.1,0.8,0.1,1.6,0.1h2c0.6,0,1,0,1.5-0.1c-0.1,0.6-0.1,1.1-0.1,2.2v4.3c0.3,0.6,0.7,0.9,1.3,1.2
		c0.8,0.3,1.7,0.4,4.2,0.4c3.5,0,6-0.1,8-0.3c-0.4,1.2-0.6,1.8-0.7,3c-1.8,0.1-2.9,0.1-4.1,0.1c-5.1,0-6.3-0.1-7.4-0.4
		c-1-0.3-1.8-0.8-2.6-1.6c-1,1-1.6,1.4-2.8,2.3l-1.2-3.2c0.6-0.2,1.5-0.8,2.5-1.5v-3.6h-0.9c-0.4,0-0.7,0-1.2,0.1V25.3z M310.6,18.2
		c1.6,1.4,2.3,2.2,3.5,3.7l-2.3,2.3c-1.2-1.7-2-2.6-3.5-3.9L310.6,18.2z M317.7,19.7c0.4-0.6,0.6-1.1,0.9-1.8l3.2,0.4
		c-0.3,0.6-0.6,1-0.9,1.4h3.1c0.6,0,1,0,1.4-0.1c0,0.4-0.1,0.9-0.1,1.4v3c0,0.7,0,1.2,0.1,1.6c-0.6,0-0.8,0-1.2,0h-6.7v0.8h7.1
		c0.6,0,0.9,0,1.3-0.1c0,0.4-0.1,0.8-0.1,1.4v3.4c0,0.5,0,1,0.1,1.4c-0.4,0-0.8-0.1-1.3-0.1h-8.7c-0.5,0-0.9,0-1.3,0.1
		c0-0.4,0.1-0.9,0.1-1.4V21.1c0-0.5,0-0.9-0.1-1.4c0.5,0.1,0.9,0.1,1.5,0.1H317.7z M317.6,23.2h4.9v-1h-4.9V23.2z M317.6,30h5.4
		v-1.1h-5.4V30z"/>
	<path d="M335.2,21.3c1.1,0,1.7,0,2.3-0.1c-0.1,0.6-0.1,0.9-0.1,2c-0.1,11.7-0.4,12.9-3.5,12.9c-0.4,0-0.9,0-1.6-0.1
		c-0.1-1.1-0.2-1.8-0.5-2.9c0.6,0.1,1.2,0.2,1.5,0.2c0.6,0,0.7-0.2,0.9-1.4c0.3-1.8,0.4-3.7,0.4-7.9h-1c-0.2,3.2-0.5,5.1-1.1,7.3
		c-0.6,1.9-1.3,3.4-2.5,5.2c-0.7-1.3-1.3-2-2.2-2.9c0.9-1.2,1.6-2.5,2.1-3.9c0.5-1.5,0.7-3.1,0.9-5.7h-0.7c-0.8,0-1.3,0-1.9,0.1v-3
		c0.5,0.1,1.1,0.1,2.1,0.1h0.5c0-0.5,0-0.8,0-1.1c0-1,0-1.5-0.1-2h3.2c-0.1,0.5-0.1,0.8-0.1,2c0,0.5,0,0.6,0,1.1H335.2z M341,36.1
		h-3c0.1-0.6,0.1-1.3,0.1-2.3v-12c0-0.9,0-1.4-0.1-2c0.6,0.1,1,0.1,1.8,0.1h4.1c0.9,0,1.3,0,1.8-0.1c-0.1,0.6-0.1,1.2-0.1,2v11.8
		c0,1.1,0,1.8,0.1,2.4h-3v-1.4H341V36.1z M341,32h1.8v-9.3H341V32z"/>
	<path d="M351.8,30.4c0-0.4,0-0.6,0-0.9c0-0.4,0-0.4-0.1-1.5l-0.4-6.2c0-0.8-0.1-1.7-0.2-2.6h4.5c-0.1,0.4-0.2,1.8-0.2,2.6L355,28
		c0,0.8-0.1,1.2-0.1,1.5c0,0.2,0,0.4,0,0.9H351.8z M351.4,35.4v-3.7h3.9v3.7H351.4z"/>
</g>
</svg>
