<?xml version="1.0" encoding="utf-8"?>
<!-- Generator: Adobe Illustrator 24.0.1, SVG Export Plug-In . SVG Version: 6.00 Build 0)  -->
<svg version="1.1" id="レイヤー_1" xmlns="http://www.w3.org/2000/svg" xmlns:xlink="http://www.w3.org/1999/xlink" x="0px"
	 y="0px" viewBox="0 0 498 41.2" style="enable-background:new 0 0 498 41.2;" xml:space="preserve">
<style type="text/css">
	.st0{fill:#E60000;}
	.st1{fill:none;stroke:#FFFFFF;stroke-width:0.4976;stroke-miterlimit:10;}
	.st2{fill:#FFFFFF;}
	.st3{fill:#E60000;stroke:#FFFFFF;stroke-width:0.4976;stroke-miterlimit:10;}
	.st4{enable-background:new    ;}
	.st5{fill:none;stroke:#FFFFFF;stroke-width:0.4967;stroke-miterlimit:10;}
</style>
<g class="st4">
	<path d="M54.9,31.2c0,0.6,0.4,0.7,2.6,0.7s2.7-0.2,3-1c0.3-0.9,0.4-2.3,0.4-4.7c1.7,0.8,2.5,1,4,1.4c-0.4,5-0.9,6.7-2.3,7.5
		c-0.9,0.5-2.7,0.7-5.9,0.7c-4.7,0-5.8-0.5-6.1-2.8c-1.5,1-2.3,1.5-4.2,2.6c-0.9-1.6-1.5-2.5-2.8-3.7c2.8-1.2,4.9-2.5,6.9-4v-8.7
		c0-1.2,0-1.9-0.1-3h4.5c-0.1,0.9-0.1,1.8-0.1,2.8v5.2c2.4-2.4,4.6-5.6,6.1-8.8c0.9-1.7,1.3-3,1.6-4l4.3,1.7
		c-0.4,0.8-0.4,0.8-1.2,2.4c-1,2.1-1.6,3-2.6,4.7l3.2-1.5c1.6,3.4,2.7,6.3,3.9,10.8l-4,2.1c-1-4.4-2-7.5-3.5-10.8
		c-2.5,3.7-4.5,6.1-7.8,8.9L54.9,31.2L54.9,31.2z M49.8,19.1c-0.5,4.8-1,7.4-2.2,10.5l-3.8-1.8c1.1-2.8,1.7-5.4,2.1-9.5L49.8,19.1z
		 M53,9.9c3.5,1.3,5.3,2.1,7.9,3.6l-2.4,3.7c-1.9-1.4-4.2-2.6-8-4L53,9.9z"/>
	<path d="M74.8,26.2c-1.2,0-2.2,0-3.1,0.1v-3.6c0.9,0.1,1.9,0.1,3.1,0.1h19.4c1.1,0,2.1-0.1,3-0.1v3.6c-0.8-0.1-1.8-0.1-3-0.1h-7.9
		c-0.2,0.3-0.2,0.4-0.4,0.8h7.2c1.2,0,1.9,0,2.6-0.1c-0.1,0.6-0.1,1.1-0.1,1.9v3.9c0,2.4-0.7,3.1-3.2,3.1c-0.2,0-0.3,0-2.1-0.1
		c-0.2-1.8-0.3-2.5-0.8-3.7c0.6,0.1,1.1,0.2,1.5,0.2s0.5-0.1,0.5-0.4V30h-2.4v3.1c0,1.2,0,1.8,0.1,2.6h-4c0.1-0.7,0.1-1.5,0.1-2.6
		V30h-2v3.1c0,1.2,0,1.8,0.1,2.6h-4c0.1-0.7,0.1-1.5,0.1-2.6V30h-2v3.4c0,1.1,0,1.8,0.1,2.5h-4.2c0.1-1,0.2-1.8,0.2-2.8v-4
		c0-0.8,0-1.5-0.1-2.2c0.8,0.1,1.3,0.1,2.8,0.1h5.1c0.2-0.4,0.3-0.5,0.4-0.8L74.8,26.2L74.8,26.2z M76.7,13.7c-1.2,0-2.2,0-3.1,0.1
		v-3.3c0.9,0.1,2,0.2,3.5,0.2h14.8c1.5,0,2.7-0.1,3.5-0.2v3.3c-0.8-0.1-1.8-0.1-3-0.1h-5.9v0.7h6.7c2.2,0,2.9,0,3.8-0.1
		c-0.1,0.7-0.1,1.2-0.1,2.4v2c0,1.2,0,1.5,0.1,2.4h-3.9v-3.8h-6.6v2.3c0,1.3,0,1.9,0.1,2.6h-4.4c0.1-0.9,0.1-1.5,0.1-2.6v-2.3h-6.2
		v3.8h-3.9c0.1-0.8,0.1-1.3,0.1-2.4v-2c0-1.2,0-1.7-0.1-2.4c0.9,0.1,1.6,0.1,3.8,0.1h6.4v-0.7H76.7z M76.8,17.9
		C77.1,18,77.3,18,78,18h2.3c0.7,0,0.9,0,1.2-0.1v1.8c-0.3-0.1-0.5-0.1-1.2-0.1H78c-0.6,0-0.8,0-1.2,0.1V17.9z M76.8,20.3
		c0.3,0.1,0.5,0.1,1.2,0.1h2.3c0.7,0,1,0,1.2-0.1v1.8C81.2,22,80.9,22,80.3,22H78c-0.6,0-0.8,0-1.2,0.1V20.3z M87.2,17.9
		c0.3,0.1,0.5,0.1,1.2,0.1H91c0.7,0,0.9,0,1.2-0.1v1.8c-0.3-0.1-0.5-0.1-1.2-0.1h-2.6c-0.6,0-0.7,0-1.2,0.1V17.9z M87.2,20.3
		c0.3,0.1,0.5,0.1,1.2,0.1H91c0.7,0,0.9,0,1.2-0.1v1.8C91.9,22,91.6,22,91,22h-2.6c-0.6,0-0.7,0-1.2,0.1V20.3z"/>
	<path d="M99.7,36c0.1-0.9,0.2-1.6,0.2-3.1v-7.5c0-0.9,0-1.7-0.1-2.6c0.9,0.1,1.6,0.1,2.8,0.1h6.8c0.7,0,1.3,0,1.9-0.1
		c-0.1,0.5-0.1,0.9-0.1,2.2v8.3c0,1,0,1.7,0.1,2.3h-4.1v-0.8H104V36L99.7,36L99.7,36z M103.2,13.4c0-1,0-1.7-0.1-2.5
		c0.8,0.1,1.7,0.1,3.1,0.1h11.7c1.5,0,2.4,0,3.2-0.1c-0.1,0.7-0.1,1.4-0.1,2.5v5.5c0,1.2,0,2,0.1,2.7c-0.8-0.1-1.3-0.1-2.8-0.1
		h-12.4c-1.5,0-2,0-2.8,0.1c0.1-0.7,0.1-1.6,0.1-2.7V13.4z M107.2,26.7H104V31h3.2V26.7z M107.4,14.9v2.8h9.5v-2.8H107.4z
		 M121.8,22.9c1.2,0,1.9,0,2.6-0.1c-0.1,0.8-0.1,1.5-0.1,2.6v7.5c0,1.5,0,2.3,0.2,3.1h-4.3v-1.2h-3.5V36h-4.1
		c0.1-0.7,0.1-1.3,0.1-2.3v-8.8c0-1.3,0-1.5-0.1-2.1c0.6,0.1,1.1,0.1,1.9,0.1H121.8z M116.6,31h3.5v-4.3h-3.5V31z"/>
	<path d="M127.2,18.6c0.9,0.2,2.1,0.3,4.1,0.3c0.1,0,0.3,0,0.6,0c0.4-1,0.5-1.5,0.6-2.2l3.7,0.3c-0.2,0.3-0.2,0.3-0.4,0.9
		c-0.3,0.6-0.4,0.9-0.4,0.9c0.2,0,0.2,0,1.2-0.1c2-0.1,4-0.4,5.1-0.6l0.1,3.2c-0.6,0.1-1.2,0.1-1.8,0.2c-1.4,0.1-3.9,0.3-6,0.3
		c-0.3,0.6-0.5,0.8-1,1.5c0.9-0.4,1.7-0.6,2.5-0.6c1.7,0,2.7,0.6,3.1,1.9c0.3-0.1,0.3-0.1,1.4-0.5c0.1,0,0.6-0.2,1.2-0.4
		c1.1-0.4,1.3-0.4,1.6-0.6l1.2,3.2c-1,0.1-3.2,0.7-5.1,1.4c0,0.5,0,0.6,0,1.4c0,0.9,0,1.2,0.1,1.7l-3.3,0.1c0.1-0.3,0.1-0.9,0.1-2.1
		l-0.2,0.1c-0.9,0.4-1,0.5-1.4,0.8c-0.3,0.3-0.5,0.7-0.5,1c0,0.8,0.7,1.1,2.7,1.1c2.4,0,4.7-0.4,6.4-1l0.2,3.6c-0.6,0-0.6,0-1.8,0.2
		c-1.6,0.2-3.3,0.3-4.8,0.3c-2.3,0-3.7-0.3-4.8-0.9c-1-0.6-1.6-1.6-1.6-2.8c0-0.9,0.3-1.7,1-2.5c0.7-0.9,1.6-1.5,2.9-2.1
		c0.5-0.2,0.7-0.3,1.5-0.7c-0.2-0.3-0.4-0.5-0.8-0.5c-1,0-2.4,0.7-3.8,1.9c-0.8,0.7-1.4,1.3-1.9,2l-2.5-2.5c0.6-0.5,1.5-1.3,2.1-2.1
		c0.4-0.5,1.2-1.7,1.5-2.2s0.3-0.5,0.4-0.6c-0.3,0-0.5,0-0.6,0c-0.9,0-0.9,0-1.7,0c-0.3,0-0.4,0-0.7,0c0,0-0.2,0-0.3,0L127.2,18.6z"
		/>
	<path d="M162,19.7c-0.5,0.1-0.5,0.1-1.1,0.3c-1.2,0.4-2.3,0.7-3.9,1c0,1,0,2.3-0.1,2.7h3.3c1.5,0,2.3,0,3.2-0.1v3.3
		c-0.8-0.1-1.3-0.1-3.1-0.1h-3.6c-0.2,1.8-0.6,3.1-1.3,4.2c-0.7,1.2-1.9,2.3-3.3,3.2c-0.6,0.4-1,0.6-1.9,1c-0.8-1.3-1.3-2-2.5-3
		c2.4-0.9,3.7-1.7,4.5-2.9c0.5-0.7,0.8-1.4,1-2.6h-3.9c-1.8,0-2.3,0-3.1,0.1v-3.3c0.8,0.1,1.3,0.1,3.2,0.1h4.2c0-0.6,0-1,0-1.7v-0.6
		c-1.9,0.2-2.1,0.2-5.3,0.3c-0.2-1.1-0.4-1.8-1-3c0.7,0,1,0,1.3,0c2.7,0,6.5-0.5,8.8-1c1-0.3,1.8-0.5,2.5-0.9L162,19.7z"/>
	<path d="M175.1,31.2h3.1c1.3,0,1.9,0,2.7-0.1v3c-0.7-0.1-1.3-0.1-2.7-0.1h-9.3c-1.5,0-1.8,0-2.7,0.1v-3c0.7,0.1,1.2,0.1,2.7,0.1h3
		v-6h-1.8c-1.3,0-1.7,0-2.6,0.1v-3.1c0.8,0.1,1.4,0.1,2.6,0.1h7c1.3,0,1.8,0,2.6-0.1v3.1c-0.6-0.1-1.4-0.1-2.6-0.1h-1.9v6H175.1z"/>
	<path d="M187,21.5c0.8,1.5,1.4,3.1,1.9,5.1l-3.1,0.9c-0.5-2.1-0.9-3.3-1.8-5.2L187,21.5z M198.6,21.9c-0.1,0.4-0.1,0.4-0.3,1.2
		c-0.6,2.8-1.4,4.9-2.5,6.5s-2.5,3-4.2,4.1c-0.7,0.4-1.2,0.7-2.4,1.3c-0.7-1.2-1.1-1.7-2.2-2.8c4-1.6,6.2-3.6,7.4-6.9
		c0.5-1.4,0.9-3,0.9-4.2L198.6,21.9z M191.4,20.7c1.1,2.1,1.4,3,1.9,4.9l-3.1,0.9c-0.4-1.7-0.9-3.2-1.8-5L191.4,20.7z"/>
	<path d="M210.6,17.3c-0.1,0.2-0.1,0.2-0.2,0.5c0,0.1-0.1,0.2-0.1,0.3c-0.1,0.2-0.1,0.3-0.2,0.4c-0.3,0.6-0.3,0.6-0.4,0.9l5-0.1
		c0.8,0,1,0,1.5-0.2l1.7,1.6c-0.2,0.4-0.3,0.5-0.6,1.4c-1,3.3-2.4,5.9-4.1,7.9c-1.8,2.1-4.1,3.7-7.4,5.2c-0.7-1.3-1.3-2.1-2.4-3
		c2.8-1,4.9-2.3,6.7-4.1c1.5-1.5,2.6-3.4,3.3-5.7l-5.3,0.1c-1.3,2.1-2.6,3.5-4.5,5c-1-1.2-1.5-1.6-2.8-2.4c2.4-1.7,4-3.5,5.3-6.1
		c0.5-1,0.8-1.7,0.9-2.4L210.6,17.3z"/>
	<path d="M223.9,29.1c0-0.4,0-0.6,0-0.9c0-0.4,0-0.4-0.1-1.6l-0.4-6.3c0-0.8-0.1-1.7-0.2-2.7h4.7c-0.1,0.5-0.2,1.9-0.2,2.7l-0.4,6.3
		c0,0.8-0.1,1.2-0.1,1.5c0,0.2,0,0.4,0,0.9h-3.3V29.1z M223.5,34.3v-3.8h4v3.8H223.5z"/>
</g>
<g>
	<path class="st0" d="M33.6,33.4c0,1.5-1.2,2.7-2.7,2.7H10.2c-1.5,0-2.7-1.2-2.7-2.7V12.6c0-1.5,1.2-2.7,2.7-2.7h20.7
		c1.5,0,2.7,1.2,2.7,2.7V33.4z"/>
	<path class="st5" d="M32.1,32.2c0,1.3-1.1,2.4-2.4,2.4H11.4c-1.3,0-2.4-1.1-2.4-2.4V13.8c0-1.3,1.1-2.4,2.4-2.4h18.4
		c1.3,0,2.4,1.1,2.4,2.4L32.1,32.2L32.1,32.2z"/>
	<g>
		<path class="st2" d="M22.3,15.8c0,0.3-0.2,0.6-0.6,0.6h-2.3c-0.3,0-0.6-0.2-0.6-0.6v-1.9c0-0.3,0.2-0.6,0.6-0.6h2.3
			c0.3,0,0.6,0.2,0.6,0.6V15.8z"/>
		<path class="st2" d="M24.4,20.9c0-2.1-1.7-3.8-3.8-3.8c-2.1,0-3.8,1.7-3.8,3.8v10.7l0,0c0,0,0,0,0,0.1c0,0.5,0.4,0.8,0.8,0.8h5.9
			c0.5,0,0.8-0.4,0.8-0.8c0,0,0,0,0-0.1l0,0L24.4,20.9L24.4,20.9z"/>
		<rect x="16.2" y="24.4" class="st0" width="8.7" height="0.5"/>
		<rect x="16.2" y="20.7" class="st0" width="8.7" height="0.5"/>
	</g>
</g>
</svg>
