<?xml version="1.0" encoding="utf-8"?>
<!-- Generator: Adobe Illustrator 24.0.1, SVG Export Plug-In . SVG Version: 6.00 Build 0)  -->
<svg version="1.1" id="レイヤー_1" xmlns="http://www.w3.org/2000/svg" xmlns:xlink="http://www.w3.org/1999/xlink" x="0px"
	 y="0px" viewBox="0 0 498 41.2" style="enable-background:new 0 0 498 41.2;" xml:space="preserve">
<style type="text/css">
	.st0{fill:#E60000;}
	.st1{fill:none;stroke:#FFFFFF;stroke-width:0.4976;stroke-miterlimit:10;}
	.st2{fill:#FFFFFF;}
	.st3{fill:#E60000;stroke:#FFFFFF;stroke-width:0.4976;stroke-miterlimit:10;}
	.st4{enable-background:new    ;}
	.st5{fill:none;stroke:#FFFFFF;stroke-width:0.4967;stroke-miterlimit:10;}
</style>
<g class="st4">
	<path d="M57,12.7c-2.1-1-3.9-1.7-6.4-2.5l3-2.8c2.9,0.9,4.9,1.7,7.7,2.9l-2.1,2.4H64c1.7,0,2.6-0.1,3.8-0.2v4.2
		c-1.1-0.1-2-0.1-3.8-0.1h-5.7v3.9h4.8c1.3,0,2.2,0,3.2-0.1v4.2c-1-0.1-1.7-0.1-3.1-0.1h-5v4.4h6.3c1.8,0,2.9-0.1,4.3-0.2V33
		c-1.4-0.1-2.4-0.2-4.2-0.2H48.1c-2,0-3.2,0.1-4.5,0.2v-4.3c1.2,0.1,2.4,0.2,4.3,0.2h5.9v-4.4h-4.2c-1.5,0-2.4,0-3.5,0.1v-4.2
		c1,0.1,1.6,0.1,3.1,0.1h4.7v-3.9h-5.3c-2.3,0-3,0-3.9,0.1v-4.2c1.1,0.1,1.9,0.2,3.8,0.2H57z"/>
	<path d="M124.2,25.8c-1.8,1.5-2.9,2.3-4.1,3.1c1.6,0.4,3.1,0.7,5.7,0.8c-0.9,1.5-1.3,2.4-1.8,4.1c-4.7-0.7-7.6-1.8-10.3-3.9v1.9
		c-3.6,0.7-6.3,1.2-11,1.8c-0.6,0.1-0.9,0.2-1.5,0.2l-0.6-4.4c0.3,0,0.4,0,0.7,0c0.2,0,1.6-0.1,2.5-0.2V17.3c0-0.2,0-0.2,0-0.3
		c-1,0.5-1.6,0.8-2.9,1.3c-0.5-1.8-0.8-2.6-1.7-4.3c2.2-0.6,4.2-1.5,6.2-2.7c2.1-1.3,3.4-2.3,4.7-3.8h4.6c1.4,1.6,2.8,2.8,4.9,4
		c2.1,1.2,4.1,1.9,6.2,2.4c-0.8,1.6-1.2,2.6-1.7,4.3c-1.1-0.4-2.2-0.9-3.1-1.3v6.8c0,0.2,0,0.2,0,0.3L124.2,25.8z M107.8,18.7h9.2
		v-1h-9.2C107.8,17.7,107.8,18.7,107.8,18.7z M107.8,22.5h9.2v-1h-9.2C107.8,21.5,107.8,22.5,107.8,22.5z M107.8,25.6v3.5
		c0.1,0,0.1,0,0.3-0.1c1.2-0.1,2.8-0.4,3.7-0.5c-0.9-0.9-1.2-1.3-2.3-2.9H107.8z M110.4,13.8c0-0.4,0-0.5-0.1-0.9
		c-0.9,0.7-1.6,1.3-2.4,1.8h2.4v-0.9H110.4z M114,12.6c-0.6-0.6-0.9-0.9-1.7-1.6c-0.7,0.8-1,1-1.6,1.6H114z M116.9,14.7
		c-1.2-0.8-1.8-1.2-2.5-1.8c0,0.3,0,0.5,0,0.9v0.9H116.9z M114.4,25.6c0.4,0.6,1,1.1,1.8,1.6c0.9-0.5,1.7-1,2.3-1.6H114.4z"/>
	<path d="M127.8,16.2c0.9,0.2,2.1,0.3,4.1,0.3c0.1,0,0.3,0,0.6,0c0.4-1,0.5-1.5,0.6-2.2l3.7,0.3c-0.2,0.3-0.2,0.3-0.4,0.9
		c-0.3,0.6-0.4,0.9-0.4,0.9c0.2,0,0.2,0,1.2-0.1c2-0.1,4-0.4,5.1-0.6l0.1,3.2c-0.6,0.1-1.2,0.1-1.8,0.2c-1.4,0.1-3.9,0.3-6,0.3
		c-0.3,0.6-0.5,0.8-1,1.5c0.9-0.4,1.7-0.6,2.5-0.6c1.7,0,2.7,0.6,3.1,1.9c0.3-0.1,0.3-0.1,1.4-0.5c0.1,0,0.6-0.2,1.2-0.4
		c1.1-0.4,1.3-0.4,1.6-0.6l1.2,3.2c-1,0.1-3.2,0.7-5.1,1.4c0,0.5,0,0.6,0,1.4c0,0.9,0,1.2,0.1,1.7l-3.3,0.1c0.1-0.3,0.1-0.9,0.1-2.1
		l-0.2,0.1c-0.9,0.4-1,0.5-1.4,0.8c-0.3,0.3-0.5,0.7-0.5,1c0,0.8,0.7,1.1,2.7,1.1c2.4,0,4.7-0.4,6.4-1l0.2,3.6c-0.6,0-0.6,0-1.8,0.2
		c-1.6,0.2-3.3,0.3-4.8,0.3c-2.3,0-3.7-0.3-4.8-0.9c-1-0.6-1.6-1.6-1.6-2.8c0-0.9,0.3-1.7,1-2.5c0.7-0.9,1.6-1.5,2.9-2.1
		c0.5-0.2,0.7-0.3,1.5-0.7c-0.2-0.3-0.4-0.5-0.8-0.5c-1,0-2.4,0.7-3.8,1.9c-0.8,0.7-1.4,1.3-1.9,2l-2.5-2.5c0.6-0.5,1.5-1.3,2.1-2.1
		c0.4-0.5,1.2-1.7,1.5-2.2s0.3-0.5,0.4-0.6c-0.3,0-0.5,0-0.6,0c-0.9,0-0.9,0-1.7,0c-0.3,0-0.4,0-0.7,0c0,0-0.2,0-0.3,0L127.8,16.2z"
		/>
	<path d="M162.6,17.2c-0.5,0.1-0.5,0.1-1.1,0.3c-1.2,0.4-2.3,0.7-3.9,1c0,1,0,2.3-0.1,2.7h3.3c1.5,0,2.3,0,3.2-0.1v3.3
		c-0.8-0.1-1.3-0.1-3.1-0.1h-3.6c-0.2,1.8-0.6,3.1-1.3,4.2c-0.7,1.2-1.9,2.3-3.3,3.2c-0.6,0.4-1,0.6-1.9,1c-0.8-1.3-1.3-2-2.5-3
		c2.4-0.9,3.7-1.7,4.5-2.9c0.5-0.7,0.8-1.4,1-2.6h-3.9c-1.8,0-2.3,0-3.1,0.1V21c0.8,0.1,1.3,0.1,3.2,0.1h4.2c0-0.6,0-1,0-1.7v-0.6
		c-1.9,0.2-2.1,0.2-5.3,0.3c-0.2-1.1-0.4-1.8-1-3c0.7,0,1,0,1.3,0c2.7,0,6.5-0.5,8.8-1c1-0.3,1.8-0.5,2.5-0.9L162.6,17.2z"/>
	<path d="M175.7,28.8h3.1c1.3,0,1.9,0,2.7-0.1v3c-0.7-0.1-1.3-0.1-2.7-0.1h-9.3c-1.5,0-1.8,0-2.7,0.1v-3c0.7,0.1,1.2,0.1,2.7,0.1h3
		v-6h-1.8c-1.3,0-1.7,0-2.6,0.1v-3.1c0.8,0.1,1.4,0.1,2.6,0.1h7c1.3,0,1.8,0,2.6-0.1v3.1c-0.6-0.1-1.4-0.1-2.6-0.1h-1.9v6H175.7z"/>
	<path d="M187.6,19.1c0.8,1.5,1.4,3.1,1.9,5.1l-3.1,0.9c-0.5-2.1-0.9-3.3-1.8-5.2L187.6,19.1z M199.2,19.4c-0.1,0.4-0.1,0.4-0.3,1.2
		c-0.6,2.8-1.4,4.9-2.5,6.5s-2.5,3-4.2,4.1c-0.7,0.4-1.2,0.7-2.4,1.3c-0.7-1.2-1.1-1.7-2.2-2.8c4-1.6,6.2-3.6,7.4-6.9
		c0.5-1.4,0.9-3,0.9-4.2L199.2,19.4z M192,18.3c1.1,2.1,1.4,3,1.9,4.9l-3.1,0.9c-0.4-1.7-0.9-3.2-1.8-5L192,18.3z"/>
	<path d="M211.2,14.9c-0.1,0.2-0.1,0.2-0.2,0.5c0,0.1-0.1,0.2-0.1,0.3c-0.1,0.2-0.1,0.3-0.2,0.4c-0.3,0.6-0.3,0.6-0.4,0.9l5-0.1
		c0.8,0,1,0,1.5-0.2l1.7,1.6c-0.2,0.4-0.3,0.5-0.6,1.4c-1,3.3-2.4,5.9-4.1,7.9c-1.8,2.1-4.1,3.7-7.4,5.2c-0.7-1.3-1.3-2.1-2.4-3
		c2.8-1,4.9-2.3,6.7-4.1c1.5-1.5,2.6-3.4,3.3-5.7l-5.3,0.1c-1.3,2.1-2.6,3.5-4.5,5c-1-1.2-1.5-1.6-2.8-2.4c2.4-1.7,4-3.5,5.3-6.1
		c0.5-1,0.8-1.7,0.9-2.4L211.2,14.9z"/>
	<path d="M224.4,26.7c0-0.4,0-0.6,0-0.9c0-0.4,0-0.4-0.1-1.6l-0.4-6.3c0-0.8-0.1-1.7-0.2-2.7h4.7c-0.1,0.5-0.2,1.9-0.2,2.7l-0.4,6.3
		c0,0.8-0.1,1.2-0.1,1.5c0,0.2,0,0.4,0,0.9L224.4,26.7L224.4,26.7z M224.1,31.8V28h4v3.8H224.1z"/>
</g>
<g>
	<path class="st0" d="M253.2,25.7h3.3c1.5,0,2,0,2.8-0.1v3c-0.6-0.1-1.5-0.1-2.8-0.1h-9.6c-1.5,0-2,0-2.7,0.1v-3
		c0.8,0.1,1.4,0.1,2.8,0.1h3.1v-6.4h-1.9c-1.6,0-2,0-2.8,0.1v-2.9c0.9,0.1,1.4,0.1,2.8,0.1h6.9c1.4,0,2,0,2.8-0.1v2.9
		c-0.8-0.1-1.2-0.1-2.8-0.1h-1.9V25.7z"/>
	<path class="st0" d="M266.6,30.2c0.1-0.7,0.1-1.2,0.1-2.4v-3.1c-1.3,0.7-2.7,1.3-4.9,2c-0.5-1.2-0.7-1.7-1.4-2.6
		c1.8-0.4,3.6-0.9,5.1-1.6c1.7-0.8,2.9-1.5,4.3-2.8h-5.2c-1.5,0-1.7,0-2.4,0.1v-2.7c0.8,0.1,1.5,0.1,2.5,0.1h2v-0.9
		c0-0.8,0-1-0.1-1.6h3.2c-0.1,0.5-0.1,0.9-0.1,1.5v1h2.7c0.5,0,0.8-0.1,1.1-0.2l1.3,1.5c-0.3,0.2-0.3,0.2-0.8,0.8
		c-0.9,1-1.1,1.2-3.1,2.9c2.2,0.8,3.8,1.6,5.5,2.7l-1.7,2.5c-1.4-1.1-3-2-5-2.8v3.3c0,1.3,0,1.5,0.1,2.4L266.6,30.2L266.6,30.2z"/>
	<path class="st0" d="M283,15.5c-0.1,0.6-0.1,0.6-0.2,3.9c-0.1,3.6-0.4,5.4-1.3,7.3c-0.6,1.3-1.2,2.2-2.4,3.4
		c-0.9-1.1-1.3-1.6-2.4-2.4c1-0.9,1.5-1.6,2-2.7c0.8-1.7,1.1-3.8,1.1-8.2c0-0.7,0-1.1-0.1-1.6L283,15.5z M287.8,15.3
		c-0.1,0.7-0.1,1-0.1,2l-0.1,8.9c0.9-0.6,1.5-1.1,2-1.9c0.6-0.9,1-1.8,1.3-2.9c0.8,1.1,1.3,1.5,2.3,2.2c-0.8,1.9-1.6,3.2-2.9,4.3
		c-1,0.9-1.9,1.3-3.6,1.9c-0.5,0.2-0.6,0.2-0.8,0.4l-1.5-1.5c0.2-0.4,0.2-0.7,0.2-1.4l0.1-10.1v-0.6c0-0.5,0-0.9-0.1-1.3H287.8z"/>
	<path class="st0" d="M307.2,19.7c-0.6,0.1-0.7,0.1-2.3,0.3l-2.3,0.4l0.4,2.1l3.1-0.5c1.2-0.2,1.8-0.3,2.4-0.5l0.5,2.9
		c-0.5,0-0.6,0.1-0.9,0.1c-0.1,0-0.6,0.1-1.5,0.2l-3.2,0.5l0.5,2.4c0.3,1.5,0.3,1.7,0.5,2.3l-3.2,0.5c0-0.5-0.1-0.9-0.3-2.4
		l-0.4-2.4l-3.3,0.5c-1.2,0.2-1.2,0.2-2.3,0.5l-0.5-2.9c0.6,0,1.3-0.1,2.4-0.3l3.2-0.5l-0.4-2.1l-2.3,0.4c-1.5,0.2-1.9,0.3-2.5,0.5
		l-0.5-2.9c0.6,0,1.3-0.1,2.5-0.3l2.4-0.4l-0.2-0.9c-0.2-1.3-0.3-1.4-0.4-1.9l3.1-0.5c0,0.4,0.1,0.9,0.2,1.9l0.2,0.9l2.3-0.3
		l1.2-0.2c-0.3-0.6-0.6-1.1-1-1.6l1.7-0.5c0.6,0.8,1,1.6,1.4,2.6l-0.8,0.3L307.2,19.7z M308.7,14.2c0.5,0.7,1,1.5,1.4,2.5l-1.6,0.6
		c-0.5-1.1-0.9-1.9-1.4-2.6L308.7,14.2z"/>
	<path class="st0" d="M310.9,20.8c0.8,0.1,1.7,0.2,3.5,0.2h8.1c1.7,0,2.3,0,3.5-0.2v3.3c-0.8-0.1-1.6-0.1-3.5-0.1h-8.1
		c-1.9,0-2.5,0-3.5,0.1V20.8z"/>
	<path class="st0" d="M333.8,22.5c0,1.4-1.2,2.6-2.6,2.6c-1.4,0-2.6-1.2-2.6-2.6s1.2-2.6,2.6-2.6C332.7,19.9,333.8,21,333.8,22.5z"
		/>
	<path class="st0" d="M346.5,22.1c-0.1,0.3-0.1,0.5-0.1,0.7c0,1.1,0.2,1.9,0.8,2.6c1,1.3,2.3,2,4.7,2.6c-0.6,0.9-0.9,1.4-1.3,2.6
		c-1.4-0.5-2.4-1-3.5-1.8c-1-0.7-1.5-1.4-2-2.4c-0.4,1-0.9,1.7-1.8,2.3c-1,0.8-2.1,1.3-3.7,1.8c-0.3-0.9-0.6-1.5-1-2.2
		c-0.3,0.8-0.5,1.4-1,2.2c-0.7-0.9-1.2-1.4-2.1-2.1c1.1-1.8,1.4-3.5,1.4-7.4c0-1,0-1.3-0.1-1.9c0.6,0.1,1,0.1,1.9,0.1h10.9
		c1,0,1.4,0,1.8-0.1v2.5c-0.5-0.1-1-0.1-1.8-0.1h-10.1v1.1c0,1.8-0.3,3.5-0.8,5.4c1.5-0.3,2.6-0.8,3.4-1.4c0.7-0.6,1.1-1.2,1.3-2.1
		c0.2-0.5,0.3-1.2,0.3-1.7c0-0.3,0-0.5-0.1-0.8h2.9L346.5,22.1L346.5,22.1z M342.8,15.6c0-0.4,0-0.7-0.1-1.1h2.8
		c-0.1,0.3-0.1,0.6-0.1,1.1v0.9h3v-0.6c0-0.3,0-0.6-0.1-0.9h2.6c-0.1,0.3-0.1,0.6-0.1,1v1.7c0,0.4,0,0.9,0.1,1.2
		c-0.5,0-0.9-0.1-1.5-0.1h-10.6c-0.8,0-1,0-1.5,0c0.1-0.5,0.1-0.8,0.1-1.2v-1.7c0-0.3,0-0.6-0.1-1h2.6c0,0.2-0.1,0.5-0.1,0.9v0.7
		h2.9v-0.9H342.8z M339.7,25.4c0.8-1.3,1.1-1.8,1.4-3.2l2.4,0.7c-0.5,1.5-0.9,2.2-1.6,3.4L339.7,25.4z M347,25
		c0.8-1,1.1-1.6,1.7-2.8l2.5,0.9c-0.7,1.3-1.1,1.9-1.9,3.1L347,25z"/>
	<path class="st0" d="M359.7,19.6c-0.1,0.4-0.2,0.5-0.4,1.2c-0.6,2.1-1.1,3.5-2,5c-0.8,1.3-1.5,2.2-2.8,3.3
		c-0.6-0.9-1.1-1.5-1.9-2.3c1.1-0.8,1.7-1.5,2.4-2.5c0.8-1.1,1.2-2,1.6-3.5H355c-0.7,0-1.3,0-1.8,0.1v-2.8c0.5,0.1,1,0.1,2,0.1h1.7
		c0.7,0,1.1,0,1.4-0.1L359.7,19.6z M368.5,18.6c-0.1,0.1-0.1,0.1-0.3,0.3c-0.1,0.1-0.1,0.1-0.7,0.8c-0.7,0.8-1.8,1.9-2.8,2.8
		c0.5,0.6,1,1.2,1.6,1.8c1,0.9,1.7,1.5,2.9,2.1c-0.8,0.9-1.1,1.4-1.7,2.7c-1.4-1-2.3-1.8-3.2-3c-0.7-1-1.3-1.9-1.9-3.1
		c0,0.8,0,0.8,0,1c0,0.7,0,0.7,0,1.1v3.1c0,1.7-0.6,2.1-2.7,2.1c-0.7,0-1.4,0-2.1-0.1c-0.1-1.1-0.2-1.6-0.7-2.6
		c1,0.1,1.6,0.2,2.2,0.2c0.5,0,0.6-0.1,0.6-0.4V16.5c0-0.8,0-1.3-0.1-1.9h2.9c-0.1,0.5-0.1,1.1-0.1,1.9v1.2c0.3,1,0.5,1.6,0.9,2.5
		c1.3-1.2,2.2-2.3,2.7-3.4L368.5,18.6z"/>
	<path class="st0" d="M372.2,24.2c0-0.1,0-0.7,0-1.7c-0.3,0.4-0.8,1.1-1.3,1.6c-0.3-1.2-0.5-1.9-1.1-3c1-0.8,1.5-1.5,2.1-2.6
		c0.8-1.4,1.5-3,1.6-4.1l2.7,0.8c-0.3,0.8-0.3,0.8-0.5,1.5c-0.2,0.6-0.5,1.3-0.9,2.2v9.3c0,0.7,0,1.5,0.1,2.3h-2.8
		c0.1-0.7,0.1-1.5,0.1-2.3L372.2,24.2L372.2,24.2z M379.9,27.3c0,0.3,0.3,0.5,1.2,0.5c1,0,1.5-0.1,1.7-0.3c0.3-0.3,0.4-1.2,0.4-3.2
		c1,0.5,1.6,0.7,2.5,0.8c-0.1,2.8-0.3,3.7-1,4.4c-0.3,0.3-0.6,0.4-1.1,0.5c-0.6,0.1-1.8,0.2-3.2,0.2c-2.7,0-3.3-0.4-3.3-2.1V17
		c0-1,0-1.7-0.1-2.2h2.9c-0.1,0.5-0.1,1.2-0.1,2.2v2.8c1.6-0.9,3.1-2,3.9-3l2,2.1c-0.1,0.1-0.1,0.1-0.2,0.2
		c-0.5,0.4-1.5,1.2-1.9,1.5c-1.2,0.8-1.9,1.3-3.8,2.3v4.4C379.8,27.3,379.9,27.3,379.9,27.3z"/>
	<path class="st0" d="M399.1,19c-0.6,1.5-1.1,2.6-1.9,3.8c-1,1.4-1.9,2.4-3.2,3.5c-0.4-0.8-0.6-1.1-1-1.6c-0.1,0.1-0.1,0.1-0.3,0.1
		l-0.5,0.2v3.4c0,0.8,0,1.5,0.1,2.1h-2.7c0.1-0.6,0.1-1.3,0.1-2.1v-2.5c-0.8,0.3-0.9,0.3-1.6,0.5c-0.3,0.1-0.4,0.1-0.7,0.3L387,24
		c0.6,0,1.5-0.2,2.8-0.6v-3.3h-0.6c-0.1,1-0.2,1.6-0.5,2.5c-0.6-0.5-1.1-0.7-1.8-1c0.4-1.3,0.7-3.1,0.7-4.7c0-0.3,0-0.5-0.1-0.9
		l2,0.2c0,0.3,0,0.8-0.1,1.5h0.4v-1.8c0-0.5,0-0.9-0.1-1.4h2.7c-0.1,0.4-0.1,0.8-0.1,1.4v1.8c0.6,0,0.9,0,1.2-0.1v1.1
		c0.9-1.2,1.6-2.9,1.8-4.3l2.8,0.4c-0.2,0.4-0.2,0.4-0.5,1.3c-0.1,0.4-0.2,0.5-0.2,0.6h4.2c0.7,0,1.1,0,1.4-0.1
		c-0.1,0.6-0.1,0.7-0.1,1.9c-0.1,6-0.3,8.8-0.7,10c-0.4,1.3-1.3,1.9-3,1.9c-0.3,0-0.9,0-1.7-0.1c-0.1-0.8-0.2-1.5-0.4-2.2
		c-0.7,0.8-1.4,1.4-2.4,2.2c-0.5-0.9-0.8-1.3-1.6-2.1c1.6-1,3-2.3,4.2-3.9s2.1-3.2,2.7-5.3C400,19,399.1,19,399.1,19z M393.5,23.4
		c0.7-0.6,1.4-1.3,1.9-2c0.6-0.7,0.7-1,1.3-2.4h-0.6c-0.7,1.2-1.3,2.1-2.2,2.9c-0.4-0.8-0.8-1.3-1.3-1.9h-0.1h-0.3v2.6
		c0.6-0.2,0.7-0.2,1.3-0.4V23.4z M397.2,27.8c0.8,0.1,1.2,0.2,1.6,0.2c0.7,0,0.9-0.3,1.1-1.4c0.1-0.8,0.3-2.1,0.3-3.6
		C399.5,24.7,398.5,26.3,397.2,27.8z"/>
</g>
<g>
	<path class="st0" d="M33.6,31c0,1.5-1.2,2.7-2.7,2.7H10.2c-1.5,0-2.7-1.2-2.7-2.7V10.2c0-1.5,1.2-2.7,2.7-2.7h20.7
		c1.5,0,2.7,1.2,2.7,2.7V31z"/>
	<path class="st1" d="M32.1,29.8c0,1.3-1.1,2.4-2.4,2.4H11.3C10,32.2,9,31.2,9,29.8V11.4C9,10.1,10,9,11.3,9h18.5
		c1.3,0,2.4,1.1,2.4,2.4L32.1,29.8L32.1,29.8z"/>
	<g>
		<g>
			<path class="st2" d="M17.4,15c1.7-3,4.5-3,6.2,0l4.6,8c1.7,3,0.3,5.4-3.1,5.4H16c-3.4,0-4.8-2.4-3.1-5.4L17.4,15z"/>
		</g>
		<rect x="17" y="20.8" class="st0" width="7.2" height="7.6"/>
	</g>
</g>
</svg>
