<?xml version="1.0" encoding="utf-8"?>
<!-- Generator: Adobe Illustrator 24.0.1, SVG Export Plug-In . SVG Version: 6.00 Build 0)  -->
<svg version="1.1" id="レイヤー_1" xmlns="http://www.w3.org/2000/svg" xmlns:xlink="http://www.w3.org/1999/xlink" x="0px"
	 y="0px" viewBox="0 0 503.7 471.5" style="enable-background:new 0 0 503.7 471.5;" xml:space="preserve">
<style type="text/css">
	.st0{fill:#E1CF9F;}
	.st1{fill:#E6F4FD;}
	.st2{fill:#F5E328;}
	.st3{fill:#040000;}
	.st4{fill:#FDE5CB;}
	.st5{fill:#EC6C61;}
	.st6{fill:#F7E98B;}
	.st7{fill:#E78E00;}
	.st8{fill:#080204;}
	.st9{fill:#FFFFFF;}
	.st10{fill:none;stroke:#FFFFFF;stroke-width:2;stroke-miterlimit:10.0052;}
	.st11{fill:none;stroke:#080204;stroke-width:3;stroke-miterlimit:10.0052;}
	.st12{fill:#E60012;}
	.st13{fill:#E60012;stroke:#E60012;stroke-width:3.4519;stroke-miterlimit:10;}
	.st14{fill:#DC0000;}
	.st15{fill:#FDE2D6;}
	.st16{fill:#4CC2FF;}
	.st17{fill:#481D1A;}
	.st18{fill:#FFEFDD;}
	.st19{fill:#000018;}
	.st20{fill:#0E0B01;}
	.st21{fill:#747474;}
</style>
<circle id="楕円形_9_1_" class="st0" cx="273.7" cy="238.6" r="223.1"/>
<circle id="楕円形_9" class="st1" cx="266.7" cy="231.6" r="223.1"/>
<g>
	<path d="M291.5,55.8c0.1-0.3,0.2-0.7,0.3-1.1c0.8-4.4-1.9-8.7-6.3-10c-4.4-1.2-9.4-3-12.2-4.4c-0.1,0-0.1-0.1-0.2-0.1
		c-0.9-0.4-1.7-0.6-2.1-0.6c-0.5-0.1-1-0.1-1.5-0.1c-3.3,0-6.3,1.9-7.8,5c-0.1,0.1-0.1,0.3-0.2,0.4c-0.1,0.3-0.4,0.9-0.6,1.8
		c0,0.1,0,0.2-0.1,0.3c0,0,0,0-0.1,0.1c-2.3-2.2-5.2-4.5-8-6.2c-0.1-0.1-0.2-0.1-0.3-0.2c-0.9-0.5-1.8-0.8-2.8-1
		c-0.5-0.1-1.1-0.1-1.6-0.1c-0.5,0-1.1,0-1.6,0.1c-0.4-3-2.4-5.5-5.4-6.7c-0.7-0.3-1.4-0.4-1.8-0.5c-0.5-0.1-1.1-0.2-1.6-0.2
		c-3.5,0-6.5,2.1-7.8,5.3l-0.7-0.1c-0.1,0-0.1,0-0.2,0c-1.3-2.9-4-4.9-7.7-5.6l-5.8-1.1c-1.1-2.3-3.3-4.1-6.3-4.6
		c-0.6-0.1-1.2-0.2-1.8-0.2c-2.2,0-4.2,0.8-5.7,2.2l-5.4-1c-0.7-0.1-1.4-0.2-2.1-0.2c-0.4-0.8-0.9-1.6-1.4-2.3
		c-0.1-0.1-0.1-0.1-0.2-0.2c-1.4-1.8-3.1-2.9-5.2-3.3c-0.5-0.1-1-0.1-1.5-0.1c-1.8,0-3.5,0.6-4.8,1.6c-2.3,0.1-4.4,1.2-5.8,2.8
		c-0.8-2.4-2.8-4.4-5.6-5.2c-0.1,0-0.2-0.1-0.3-0.1c-0.3-0.1-0.6-0.2-1-0.2c-0.6-0.1-1.1-0.2-1.7-0.2c-3.7,0-6.9,2.3-8,6
		c-0.1,0.4-0.3,0.7-0.4,1.1c-0.8,0-1.5-0.1-2.2-0.1c-0.1-0.2-0.2-0.4-0.2-0.6c0,0,0-0.1-0.1-0.1c-1-2.2-2.5-4.6-4.1-6.5
		c-1.3-1.7-3.2-2.8-5.2-3.2c-0.4-0.1-0.7-0.1-1.1-0.1c-1.1-0.9-2.5-1.5-4-1.8c-0.6-0.1-1.2-0.2-1.7-0.2c-0.4,0-0.8,0-1.2,0.1
		c-0.7-0.3-1.4-0.5-2.1-0.7c-0.5-0.1-1.1-0.1-1.6-0.1c-0.7,0-1.5,0.1-2.2,0.3c-2.2,0.5-5.3,0.9-8.5,0.9c-0.8,0-1.5,0-2.2-0.1
		c-0.1,0-0.2,0-0.4,0c-4.1,0-7.5,2.8-8.3,6.9l0,0.2c-0.1,0.4-0.1,0.7-0.1,1.1c0,0.4,0,0.8,0,1.1c-1,1.1-1.6,2.5-1.9,4.1
		c-0.3,1.9-0.1,3.7,0.6,5.3c-1.2,1.2-2.1,2.8-2.5,4.6c-0.1,0.6-0.2,1.2-0.1,1.8c0,1.8,0.6,3.5,1.6,4.9c-0.1,0.2-0.3,0.5-0.4,0.7
		c0,0.1-0.1,0.1-0.1,0.2c-0.4,0.8-0.5,1.5-0.6,2.1c-0.7,4,1.4,7.9,5.2,9.5c1.4,0.6,3.1,1,4.6,1.3c1,0.2,2,0.3,2.8,0.3
		c0.5,0,1.4,0,2.5-0.3c0.6,0.3,1.2,0.4,1.8,0.6c0.5,0.1,1,0.1,1.5,0.1c0.7,0,1.4-0.1,2.2-0.3c1.6-0.4,3.1-0.8,4.7-1.4
		c0.3,0.4,0.5,0.7,0.8,1.1c1.9,2.2,4.2,3.7,6.7,4.1c0.6,0.1,1.2,0.2,1.8,0.2c1.4,0,2.7-0.3,3.9-0.9c0.8,0.5,1.7,0.8,2.7,1
		c0.5,0.1,1,0.1,1.5,0.1c1.3,0,2.7-0.3,3.9-0.9c2,1.4,4.5,2.4,7,2.9c0.9,0.2,1.9,0.3,2.8,0.3c2.9,0,8.4-1,11.8-7.8
		c0-0.1,0.1-0.2,0.1-0.3c0.5,0.3,1,0.5,1.5,0.7c-0.2,0.5-0.4,1.1-0.5,1.6c-0.2,0.9-0.2,1.6-0.1,1.9c0,0.3,0,0.7,0.1,1
		c0.6,3.6,3.3,6.4,6.8,7.1c0.5,0.1,1,0.1,1.6,0.1c0.2,0,0.5,0,0.7,0c0.1,0,0.2,0,0.4,0c0.7-0.1,1.4-0.2,2-0.3c0.8,1.1,2,2,3.3,2.6
		c1.5,0.7,3.2,1.2,5.2,1.5c1,0.2,2,0.3,2.8,0.3c3.6,0,6.1-1.4,7.8-3.3c0.6,0.6,1.2,1.2,1.8,1.7c1.3,1.1,2.8,1.9,4.4,2.2
		c0.5,0.1,1.1,0.1,1.6,0.1c2.2,0,4.3-0.8,5.9-2.3c0,0,0.1-0.1,0.1-0.1c0.2-0.2,0.4-0.5,0.7-0.7c0.3,0,0.5,0,0.8,0c0.2,0,0.4,0,0.7,0
		c1.9,3.9,5.9,6.9,11.2,7.9c1.4,0.3,2.7,0.4,4,0.4c2.7,0,5-0.6,7-1.7c0.9,0.5,1.8,0.9,2.8,1.1c0.5,0.1,1,0.1,1.5,0.1
		c1.2,0,2.3-0.3,3.4-0.7c0.8,1.3,1.9,2.4,3.4,3.2c2.5,1.4,6.3,2.6,10,3.3c2.1,0.4,4.2,0.6,6.1,0.6c9.5,0,16.3-5,17.8-13
		c0.9-4.9-0.5-9.5-3.7-12.8C290.3,58.5,291.1,57.3,291.5,55.8z"/>
	<path d="M480.3,88.5c0.5-2.3,0.1-4.7-1.2-6.7c-1.4-2.1-3.5-3.4-6.1-3.9c-0.6-0.1-1.2-0.2-1.8-0.2c-4.4,0-8,3-8.8,7.2
		c0,0-0.9,5.4-1.6,10.4c0.2-3.6-0.3-6.9-1.7-9.6c-2.1-4.3-5.9-7.1-10.7-8c-1.1-0.2-2.2-0.3-3.2-0.3c-0.7,0-1.3,0-2,0.1
		c0-3.8-2.7-7.2-6.7-8.1c-0.1,0-0.4-0.1-0.4-0.1c-0.6-0.1-1.1-0.2-1.7-0.2c-3.8,0-6.9,2.3-8,5.8c0,0,0,0-0.1,0
		c-1.7,0-3.3,0.5-4.6,1.4c-1-1.8-1.7-3.7-2.2-5.6c-0.8-3.3-3.4-5.7-6.6-6.3c-0.5-0.1-1-0.1-1.5-0.1c-0.7,0-1.3,0.1-1.8,0.2
		c-0.2,0-0.4,0.1-0.5,0.1c-0.3,0.1-0.7,0.2-1,0.3c-0.3-0.3-0.6-0.5-1-0.7c-1.1-0.7-2.2-1.2-3.4-1.4c-0.5-0.1-1-0.1-1.6-0.1
		c-2.8,0-5.4,1.4-7.1,3.8c-2.3,3.4-5.9,6.4-9.6,8.1c0,0-0.1,0-0.1,0c-2.5,1.1-4.3,3.5-4.8,6.2c-0.4,2.2,0,4.5,1.2,6.3
		c1.1,1.7,2.8,3,4.7,3.6c-0.4,0.1-0.8,0.3-1.2,0.4c-3.1,0.9-5.3,3.5-5.9,6.7c-0.3,1.7-0.1,3.5,0.6,5.1c1.2,2.6,3.5,4.5,6.3,5
		c0.5,0.1,1.1,0.2,1.6,0.2c0.9,0,1.8-0.1,2.7-0.4c1.4-0.4,2.7-0.9,4-1.5c0.8,1,1.7,1.8,2.9,2.4c1.7,0.9,3.6,1.5,6.2,2
		c0.9,0.2,1.8,0.3,2.7,0.3c2.6,0,7.3-0.8,10.2-6.4c1,1.2,2.2,2,3.5,2.6c0.1,1.8,0.7,3.5,1.8,4.9c1.3,1.7,3.2,2.8,5.3,3.2
		c0.5,0.1,1.1,0.2,1.7,0.2c1.9,0,3.7-0.6,5.1-1.7c1.8,1.3,4,2.3,6.4,2.7c1.1,0.2,2.3,0.3,3.4,0.3c1.8,0,3.5-0.3,5.1-0.9
		c0.9,0.6,1.9,1,3,1.2c0.5,0.1,1,0.1,1.6,0.1c1.8,0,3.5-0.6,5-1.7c1.3,2.5,3.8,4.4,6.8,5c0.6,0.1,1.2,0.2,1.8,0.2
		c4.7,0,8.6-3.3,9.5-7.9c0.3-1.7,0.2-3.3-0.3-4.8c0.1-0.3,0.2-0.6,0.3-1C476.4,106.9,480.3,88.5,480.3,88.5z M459.8,101.2
		c-0.1,0.4-0.1,0.8-0.2,1.1c0,0,0-0.1-0.1-0.1C459.7,101.9,459.8,101.6,459.8,101.2z"/>
</g>
<g id="グループ_26" transform="translate(184.431 129.341)">
	<path id="パス_23" class="st2" d="M176.8,216.7c13.2-1.9,25.5-2.9,37.6-5.4c10-1.9,18.8-8,24.1-16.6c1.8-2.6,4.4-4.4,7.3-5.2
		c9.9-2.7,14.8-9.1,14-19.4c0-2,0.3-4,0.9-6c0.8-3.9,1.8-7.8,2.7-11.7c0.4-1.9,0.4-4.4,1.5-5.8c10-14.1,10.1-16.4,0.1-29.8
		c7.9-10.7,8.7-22.5,4.9-34.7c-5-15.8-14.2-29.1-26.6-40c-18.5-16.3-39.5-19.2-62-9.5c-5.3,2.2-9.1,2.4-14.4-0.5
		c-25-13.7-40.9-7.7-51.4,18.7c-32.2,3-48.2,41.1-30.7,69.4c-2.2,4.4-5,8-5.6,11.9c-1.3,9,4.3,15.5,10.6,21c-1.5,2.3-2.8,4-3.7,5.9
		c-5.4,10.7-8.1,22.4,0.9,31.4c8.2,8.2,9.4,17.5,10.8,27.5c1,6.5,0.3,13.2-2.1,19.4c-2.9,7.6-3.9,16.2-4.1,24.4
		c-0.4,11.7,7.3,17.4,19,14.7c5.6-1.3,10.9-3.6,17.4-5.8c-3.8,14.2-7.2,27.5-10.9,41.7c30.2,0.8,59.4,1.5,88.7,2
		c1.4,0,4.1-1.2,4.2-1.9c0-5.9,5-5.8,8.5-7.8c2.9-1.6,5.4-3.9,7.3-6.5c4.1-6.5,2.1-10.2-5.4-10.9c-1-0.1-2.8-0.6-2.9-1.2
		c-0.3-1.3,0-2.6,0.7-3.7c1.3-1.9,3.3-3.4,4.8-5.3c7.6-9.9,8-16.8-1.5-24.9c-12.8-11-26.8-20.5-40.2-30.7
		C179.2,220.1,178,218.1,176.8,216.7z M271.9,233.1c-3.1-1.9-8.6-3.5-11.4-7.2c-3-4-3.6-9.8-5.3-14.9l-1.9-0.6
		c-1.7,4.8-2.3,10.5-5.4,14.1c-3.4,4-9.1,6-13.9,8.9c13,0.5,15.9,10.8,18.5,22.1c2.9-5,3.5-10.7,6.7-14.4
		C262.4,237.1,267.9,235.4,271.9,233.1L271.9,233.1z M260.1,255.8c11.4,1.1,12.5,9.8,15.3,18.2c2.5-8.8,4.6-16.8,15.7-17.8
		c-11.3-1.3-12.6-9.7-14.7-18.2C273.3,246.5,271.7,255.2,260.1,255.8L260.1,255.8z"/>
	<path id="パス_24" class="st3" d="M176.8,216.7c1.2,1.4,2.4,3.4,4.2,4.8c13.4,10.2,27.4,19.8,40.2,30.7c9.5,8.2,9.2,15,1.5,24.9
		c-1.4,1.9-3.4,3.4-4.8,5.3c-0.7,1.1-0.9,2.4-0.7,3.7c0.1,0.6,1.8,1.1,2.9,1.2c7.4,0.7,9.5,4.4,5.4,10.9c-1.9,2.7-4.4,4.9-7.3,6.5
		c-3.4,2.1-8.5,2-8.5,7.8c0,0.7-2.8,1.9-4.2,1.9c-29.2-0.6-58.5-1.3-88.7-2c3.8-14.3,7.2-27.6,10.9-41.7c-6.4,2.2-11.8,4.6-17.4,5.8
		c-11.6,2.7-19.3-2.9-19-14.7c0.2-8.2,1.2-16.9,4.1-24.4c2.4-6.1,3.2-12.9,2.1-19.4c-1.4-10-2.7-19.3-10.8-27.5
		c-9-9-6.2-20.8-0.9-31.4c1-1.9,2.3-3.6,3.7-5.9c-6.4-5.5-11.9-12-10.6-21c0.5-3.9,3.4-7.5,5.6-11.9c-17.7-28.3-1.7-66.3,30.6-69.4
		C126,24.3,141.9,18.3,166.9,32c5.1,2.8,9.1,2.8,14.4,0.5c22.5-9.7,43.4-6.7,62,9.5c12.4,10.9,21.6,24.1,26.6,40
		c3.8,12.2,3,24-4.9,34.7c10,13.4,9.9,15.7-0.1,29.8c-1.1,1.5-1.1,3.9-1.5,5.8c-0.9,3.9-1.9,7.8-2.7,11.7c-0.5,2-0.9,4-0.9,6
		c0.8,10.3-3.9,16.8-14,19.4c-2.9,0.8-5.6,2.7-7.3,5.2c-5.3,8.7-14.1,14.7-24.1,16.6C202.4,213.8,190,214.8,176.8,216.7z
		 M171.8,212.7c3.5,0.1,6.3,0.1,9.1,0.3c12.8,0.6,25.3-0.5,37.2-5.5c12.9-5.5,19.1-15.2,18.9-29.1c-0.1-3.2-0.3-6.5-0.5-10.3
		c2.2,0.1,3.8,0.1,5.3,0.4c10.3,1.9,17-3.6,16.9-13.8c-0.1-7.2-4.1-10.1-10.7-7.5c-2.3,0.9-4.7,1.9-6.6,2.7L228,124.7
		c-7.9-3.2-17-4.6-22.6-9.9c-5.7-5.4-7.7-14.4-11.7-22.7c-19.9,1.4-39.1-2.2-50.3-24.2c-24.4,14.9-40.3,35-45.6,62.7
		c-2.3,12.2-2.4,24.6-9.2,36.2c-4.9,8.2-2.8,18.9,4.9,24.6c1.6-2,3.2-5.5,5.1-5.7c2.3-0.3,5.5,1.6,7.1,3.4c2.3,2.9,3.7,6.6,5,10.1
		c1.5,3.5,2.1,6.9,7.4,3.7c1.9-1.2,5.9,0.9,8.7,2c2.2,0.8,4,3.2,6.2,3.5c9.9,1.5,19.7,2.6,29.8,3.9l-0.3,10.3l10.2,0.3
		C172.5,219.5,172.2,216.7,171.8,212.7z M153.8,224.9l-3.1-0.9c-13.1,27-18.7,56.3-27.3,85.8l81.5,2c-7.9-29.2-15.5-56.9-23.1-84.7
		c-2,5.1-1.8,10.2-3.1,14.8c-0.7,2.4-4.1,5.1-6.6,5.5c-4.9,0.6-10-0.5-14.9-0.8c-5.3-0.4-6.8-3.7-6-8.4
		C151.9,233.6,152.9,229.3,153.8,224.9L153.8,224.9z M100.8,236.4c-5.2,9-7,18.7-4.2,28.6c1,3.7,5,7.7,8.6,9.3
		c5.9,2.5,23.5-7.4,25.7-13.6c3.2-9.6,6.3-19.3,9.9-30.5c-9,5.5-20,6.9-18.9,20.3c0.1,1.3-2,2.8-3.1,4.1l-1.6-1
		c0.4-5,0.8-10.2,1.2-15.1L100.8,236.4z M204.9,286.1c9.8-1.9,13.1-9.8,16.7-16.7c1.5-2.9,1.4-8.9-0.6-11
		c-9.3-9.5-19.4-18-29.3-26.9l-2.1,1.9c6,11,2.8,26,15.7,34.6l-5.1,1.5L204.9,286.1z M102.7,190.4l-2.4,0.5
		c-0.3,1.1-0.4,2.2-0.4,3.3c1.1,12.1,2.1,24.1,3.6,36.1c0.2,1.8,3.8,4.2,6,4.4c3.1,0.3,9-0.7,9.2-2c0.8-5.8,0.4-11.8,0-17.7
		c-0.1-0.7-3.3-1.2-5-1.6c-1.3-0.3-2.6-0.4-4.1-0.5L102.7,190.4z M124.9,234.8c10-4.7,20.7-9.7,31.2-14.9c1.2-0.6,2.4-3,2-4
		c-0.8-1.5-2.2-2.6-4-3c-7.6-0.9-15.2-1.3-22.8-2.2c-4.8-0.6-5.9,2-6,5.7C125.1,222.5,125,228.6,124.9,234.8L124.9,234.8z
		 M172.1,243.4l1.5-16.9c-15.1-1.8-17.3,0.8-15,16.6L172.1,243.4z M222.2,289.7l-6.5,3l-3.9-5.6l-7,2.7c4,4.8-0.2,13.4,7.9,14.4
		C217.8,305,222.2,297.4,222.2,289.7L222.2,289.7z"/>
	<path id="パス_25" class="st3" d="M271.9,233.1c-3.9,2.3-9.5,4.2-12.7,8c-3.1,3.7-3.7,9.4-6.7,14.4c-2.5-11.2-5.5-21.5-18.5-22.1
		c4.8-2.9,10.4-4.9,13.9-8.9c3.1-3.6,3.7-9.3,5.4-14.1l1.9,0.6c1.7,5.1,2.3,10.9,5.3,14.9C263.2,229.5,268.7,231.2,271.9,233.1z
		 M244.2,232.4l9.2,7.7l9.5-6.8l-9.5-7.7C250.4,227.9,247.3,230.2,244.2,232.4L244.2,232.4z"/>
	<path id="パス_26" class="st3" d="M260.1,255.8c11.6-0.5,13.1-9.3,16.3-17.8c2.1,8.6,3.4,16.9,14.7,18.2
		c-11,1.1-13.3,9-15.7,17.8C272.6,265.7,271.5,256.9,260.1,255.8z M275.8,250.6l-6.8,5.1c2.4,2,4.6,3.9,6.8,5.9l6.6-5.2L275.8,250.6
		z"/>
	<path id="パス_27" class="st4" d="M171.8,212.7c0.4,4,0.7,6.8,1,10.1l-10.3-0.3l0.3-10.3c-10.1-1.3-20.1-2.4-29.8-3.9
		c-2.1-0.3-3.9-2.7-6.2-3.5c-2.8-1.1-6.9-3.1-8.7-2c-5.4,3.2-5.9-0.2-7.4-3.7c-1.5-3.5-2.8-7.2-5-10.1c-1.6-2-4.9-3.8-7.1-3.4
		c-1.9,0.3-3.3,3.7-5.1,5.7c-7.7-5.7-9.9-16.4-4.9-24.6c6.7-11.6,6.9-23.9,9.2-36.2c5.3-27.7,21.2-47.8,45.6-62.7
		c11.2,21.9,30.5,25.6,50.3,24.2c4.1,8.3,6.1,17.5,11.7,22.7c5.5,5.3,14.7,6.6,22.6,9.9l13.3,25.2c1.9-0.8,4.3-1.9,6.6-2.7
		c6.6-2.6,10.8,0.2,10.7,7.5c0.1,10.2-6.6,15.7-16.9,13.8c-1.5-0.3-3.1-0.2-5.3-0.4c0.2,3.8,0.5,7.1,0.5,10.3
		c0.2,13.9-6,23.7-18.9,29.1c-11.9,5.1-24.4,6.1-37.2,5.5C178.1,212.8,175.3,212.7,171.8,212.7z M185.7,133.4
		c5.1,0.5,10.1,1.4,15.3,1.4c1.8,0,3.5-2.4,5.3-3.6c-1.5-1.5-2.8-4-4.6-4.3c-3.6-0.8-7.5-0.6-11.3-0.8
		C184.8,125.5,184,128.3,185.7,133.4L185.7,133.4z M138.6,157.2c10.8,17.4,35.7,15.7,47.4-2.9c-5,2.3-9.9,5-14.5,8.1
		c-9.2,6.3-17.7,5.6-26-1.7C143.5,159.1,140.9,158.4,138.6,157.2z M121.1,133.4c5.9,0.1,11.7,0.5,17.3,0.3c1.2-0.1,3.3-2.4,3.1-3.4
		c-0.3-1.6-2-3.7-3.3-4c-4-0.6-8.1-0.3-12.1-0.5C121,125.7,119,127.7,121.1,133.4z M215.6,136c-5,2.4-12.9,5-12.7,6.4
		c1,7,7.9,5.5,12.6,5.1c4.1-0.2,8.1-3,12.2-4.7L215.6,136z M162.9,132.2l-15.5,9.6c0,6.9,3,10.2,9.4,8.7c-1.5-2.7-3.2-5.5-4.9-8.5
		C163.6,141.1,163.8,141,162.9,132.2L162.9,132.2z M135.9,107.4c13.5,3.2,16.8,2.4,17.4-3.2c0.4-3,1.6-7.4-4-7.6
		c-0.9,3.5-0.6,8.2-2.7,9.7C144,108,139.6,107.2,135.9,107.4z M197.9,147.7l-10.7-0.2l-0.2,1l4.6,1.4l-0.2,7.7l2.3,0.7
		C195,155.3,196.1,152.2,197.9,147.7L197.9,147.7z M190.7,107.5l0.4-2.7c-2.5,0.3-5.1,0.3-7.6,0.3c-1.6-0.3-3.3-0.9-4.6-1.9
		c-1.1-0.7-1.7-2.2-2.5-3.2c-0.8,1.1-2.3,2.2-2.2,3c0.3,1.6,1.6,4,2.7,4.1C181.5,107.6,186.1,107.4,190.7,107.5z"/>
	<path id="パス_28" class="st5" d="M153.8,224.9c-0.8,4.4-1.9,8.7-2.5,13.1c-0.8,4.7,0.7,8,6,8.4c4.9,0.4,10,1.4,14.9,0.8
		c2.5-0.3,5.9-3.1,6.6-5.5c1.3-4.5,1.1-9.6,3.1-14.8c7.6,27.8,15.1,55.6,23.1,84.7l-81.5-2c8.5-29.5,14.3-58.9,27.3-85.8
		L153.8,224.9z"/>
	<path id="パス_29" class="st6" d="M100.8,236.4l17.4,2c-0.4,4.9-0.8,10.1-1.2,15.1l1.6,1c1.1-1.4,3.2-2.9,3.1-4.1
		c-1.1-13.4,9.9-14.8,18.9-20.3c-3.6,11.1-6.5,20.9-9.9,30.5c-2.1,6.3-19.7,16.2-25.7,13.6c-3.6-1.5-7.6-5.6-8.6-9.3
		C93.8,255.1,95.6,245.3,100.8,236.4z"/>
	<path id="パス_30" class="st6" d="M204.9,286.1l-4.7-16.5l5.1-1.5c-12.9-8.8-9.7-23.7-15.7-34.6l2.1-1.9
		c9.9,8.8,20,17.4,29.3,26.9c2,2,2.2,8.1,0.6,11C218,276.3,214.6,284.3,204.9,286.1z"/>
	<path id="パス_31" class="st4" d="M102.7,190.4l6.9,22.6c1.3,0.1,2.7,0.3,4.1,0.5c1.8,0.4,5,0.9,5,1.6c0.5,5.9,1,11.9,0,17.7
		c-0.2,1.1-6,2.2-9.2,2c-2.2-0.2-5.7-2.6-6-4.4c-1.7-12-2.6-24.1-3.6-36.1c0-1.1,0.2-2.2,0.4-3.3L102.7,190.4z"/>
	<path id="パス_32" class="st1" d="M124.9,234.8c0.1-6.1,0.2-12.2,0.4-18.2c0.1-3.7,1.2-6.3,6-5.7c7.5,1,15.2,1.3,22.8,2.2
		c1.7,0.4,3.1,1.5,4,3c0.4,0.9-0.8,3.4-2,4C145.6,225.1,135,230,124.9,234.8z"/>
	<path id="パス_33" class="st6" d="M172.1,243.4l-13.5-0.3c-2.3-15.7-0.1-18.3,15-16.6L172.1,243.4z"/>
	<path id="パス_34" class="st4" d="M222.2,289.7c0,7.7-4.3,15.3-9.4,14.6c-8.1-1-3.9-9.6-7.9-14.4l7-2.7l3.9,5.6L222.2,289.7z"/>
	<path id="パス_35" class="st2" d="M244.2,232.4c3-2.3,6.2-4.5,9.2-6.9l9.5,7.7l-9.5,6.8L244.2,232.4z"/>
	<path id="パス_36" class="st2" d="M275.8,250.6l6.6,5.8l-6.6,5.2c-2.3-1.9-4.4-3.9-6.8-5.9L275.8,250.6z"/>
	<path id="パス_37" class="st3" d="M185.7,133.4c-1.7-5.1-0.8-7.9,4.7-7.5c3.7,0.3,7.6,0,11.3,0.8c1.7,0.5,3,2.9,4.6,4.3
		c-1.8,1.3-3.5,3.7-5.3,3.6C195.8,134.8,190.7,133.9,185.7,133.4z"/>
	<path id="パス_38" class="st3" d="M138.6,157.2c2.3,1.2,5,1.9,6.8,3.6c8.3,7.2,16.9,7.9,26,1.7c4.7-3.1,9.5-5.8,14.5-8.1
		C174.3,172.9,149.5,174.6,138.6,157.2z"/>
	<path id="パス_39" class="st3" d="M121.1,133.4c-2.1-5.8,0-7.8,5-7.6c4,0.2,8.1-0.2,12.1,0.5c1.3,0.2,3,2.5,3.3,4
		c0.2,0.9-2,3.3-3.1,3.4C132.7,133.9,127.1,133.6,121.1,133.4z"/>
	<path id="パス_40" class="st3" d="M215.6,136l12,6.7c-4.1,1.6-8,4.4-12.2,4.7c-4.7,0.3-11.6,1.8-12.6-5.1
		C202.7,141,210.7,138.4,215.6,136z M208.1,141.4l-0.1,2.7l14,0.4l0.1-2.7L208.1,141.4z"/>
	<path id="パス_41" class="st3" d="M162.9,132.2c0.8,8.9,0.7,9.1-10.9,9.7c1.8,3.1,3.3,5.9,4.9,8.5c-6.4,1.5-9.4-1.6-9.4-8.7
		L162.9,132.2z"/>
	<path id="パス_42" class="st3" d="M135.9,107.4c3.6-0.3,8.1,0.6,10.6-1.2c2.1-1.5,1.9-6.2,2.7-9.7c5.6,0.2,4.3,4.6,4,7.6
		C152.7,109.8,149.4,110.6,135.9,107.4z"/>
	<path id="パス_43" class="st3" d="M197.9,147.7c-1.7,4.6-2.9,7.7-4.1,10.8l-2.3-0.7l0.2-7.7l-4.6-1.4l0.2-1L197.9,147.7z"/>
	<path id="パス_44" class="st3" d="M190.7,107.5c-4.6-0.1-9.2,0.1-13.8-0.5c-1.1-0.1-2.3-2.5-2.7-4.1c-0.2-0.8,1.3-2,2.2-3
		c0.8,1.1,1.4,2.5,2.5,3.2c1.4,1,2.9,1.7,4.6,1.9c2.5,0.1,5.1,0,7.6-0.3L190.7,107.5z"/>
	<path id="パス_45" class="st7" d="M208.1,141.4l14.1,0.4l-0.1,2.7l-14-0.4L208.1,141.4z"/>
</g>
<path id="パス_46" class="st8" d="M763.3,471c-5.4-1-9-6.1-8-11.5c0.8-4.5,4.6-7.9,9.2-8.1c-1.7-2.1-2.5-4.9-2.1-7.6
	c0.2-2.2,1.2-4.2,2.6-5.8c-2.8-2.2-4.3-5.7-3.8-9.2c0.4-5.2,5-9.1,10.2-8.7c0.1,0,0.1,0,0.2,0l4.2,0.5c0-0.3,0-0.6,0.1-0.9
	c0.7-5.5,5.6-9.4,11.2-9c1.2,0.2,2.4,0.5,3.5,1.1c4.1,2.1,8,4.7,11.5,7.7c1.4,1.2,2.5,2.8,3.1,4.5l6.6,0.8c5.2,0.7,8.9,5.5,8.2,10.7
	c0,0.1,0,0.1,0,0.2c-0.4,3.5-2.6,6.6-5.8,8c1.1,1.9,1.5,4.1,1.2,6.3c-0.3,2.7-1.7,5.2-3.8,6.9c5.2,1.6,8.2,7.1,6.7,12.3
	c-1.3,4.4-5.5,7.3-10.1,7.1L763.3,471z"/>
<path id="パス_47" class="st8" d="M837.9,482.1c-4.1-0.4-7.5-3.4-8.4-7.5c-3.4,1.3-7,2.2-10.6,2.8l-0.3,0.1h-0.3
	c-0.8,0.1-1.5,0.1-2.3,0c-4.1-0.5-7.4-3.5-8.3-7.4l-0.1-0.4c-0.2-1.1-0.3-2.2-0.2-3.4c0.3-2.5,1.6-4.8,3.6-6.4
	c-1.2-1.9-1.6-4.1-1.4-6.3c0.3-3.8,3-7.1,6.7-8.2v-0.1c-1.5-1.9-2.2-4.3-2-6.7v-0.4c0.1-0.7,0.3-1.5,0.5-2.2
	c-2.2-2.1-3.2-5.1-2.8-8.1c0.4-5.1,4.8-8.9,9.9-8.5c0.1,0,0.3,0,0.4,0l6.1,0.7c3.6-4.3,10-4.8,14.3-1.2c0.9,0.7,1.6,1.6,2.2,2.6
	c2.2-2.3,5.3-3.4,8.5-3c3.4,0.3,6.4,2.4,7.9,5.5l6.3,0.8c5,0.6,8.7,5.2,8.1,10.2c0,0.1,0,0.3-0.1,0.4c-0.3,3.3-2.4,6.2-5.4,7.6
	c-0.4,1.5-1.2,2.8-2.3,3.9l0,0c-0.2,1.4-0.6,2.8-1.4,4c3.9,1.7,6.1,5.8,5.5,9.9c-0.2,2.2-1.2,4.2-2.7,5.8c1.6,2,2.2,4.5,1.9,7
	c-0.1,1.1-0.5,2.2-1,3.2c-1.8,3.8-5.8,6.1-10,5.6c-0.8-0.1-1.5-0.3-2.3-0.5l-0.3-0.1l-0.3-0.1c-3.3-1.4-6.5-3.1-9.5-5
	C846,480.7,842,482.8,837.9,482.1z"/>
<path id="パス_48" class="st8" d="M811.9,580.4c-5.4,0.8-10.5-2.9-11.3-8.3c-0.7-4.5,1.8-8.9,6.1-10.7c-2.3-1.5-3.9-3.8-4.5-6.5
	c-0.5-2.1-0.3-4.4,0.6-6.4c-3.4-1.1-5.9-4-6.5-7.5c-1.3-5.1,1.8-10.2,6.9-11.5c0.1,0,0.1,0,0.2,0l4.2-0.9c-0.1-0.3-0.2-0.6-0.2-0.8
	c-1.1-5.4,2.3-10.7,7.7-12.1c1.2-0.3,2.4-0.3,3.7,0c4.6,0.7,9.1,1.9,13.4,3.5c1.7,0.7,3.2,1.8,4.4,3.3l6.5-1.4
	c5.2-1,10.2,2.3,11.2,7.5c0,0.1,0,0.1,0,0.2c0.8,3.4-0.3,7-2.9,9.4c1.6,1.5,2.8,3.4,3.2,5.6c0.6,2.7,0.1,5.5-1.4,7.8
	c5.5-0.2,10.1,4,10.3,9.5c0.2,4.6-2.8,8.7-7.3,9.9L811.9,580.4z"/>
<path id="パス_49" class="st8" d="M865.8,571.1c-4.7,1-9.5-1.6-11.1-6.2l-0.2-0.5l-0.2-0.9c-1-4.2,1-8.5,4.8-10.5l-2.8-13
	c-3.8,0.5-7.5-1.3-9.5-4.6c-0.6-1-1.1-2.1-1.3-3.3c-0.9-4.1,0.9-8.3,4.5-10.3c7.2-4.1,11.4-7.7,14.1-12.2c1.8-3,4.8-5.2,8.2-5.9
	c3.4-0.7,7,0,9.9,2c5.8,4.1,13.7,5.1,17.9,5.3c4.4,0.2,8.1,3.3,8.9,7.6c0.2,1.1,0.3,2.3,0.2,3.5c-0.4,4-3.3,7.4-7.2,8.4l0.1,0.5
	l0.3,0.1l0.5,0.3c2.4,1.3,4.2,3.7,4.8,6.4c0.4,1.8,0.2,3.6-0.4,5.3c3.8,0.7,6.7,3.7,7.5,7.4c0.2,0.8,0.3,1.6,0.2,2.5
	c0,4.6-3.2,8.5-7.7,9.4c-0.8,0.2-1.5,0.3-2.3,0.3c-5.2,0.1-10.4-0.7-15.4-2.2c-0.5,0.4-1,0.8-1.6,1.1l-0.2,0.1
	c-6.6,3.6-13.5,6.7-20.5,9.3l-0.5,0.2L865.8,571.1z"/>
<path id="パス_50" class="st8" d="M786.2,365.5c-3.2-1.1-8.9-3.2-11.6-7.6c-0.7,0.1-1.4,0.3-2.2,0.4c-1.8,0.4-3.6,0.3-5.3-0.3
	c-3.2-1.1-5.7-3.8-6.4-7.2c-0.4-1.9-0.3-3.8,0.3-5.6c0.4-1.3,1.1-2.4,2-3.4c-0.5-1.8-0.4-3.7,0.2-5.5c0.4-1.2,1-2.3,1.9-3.3l0.3-0.3
	l0.3-0.3c3.5-3.5,6.4-7.6,8.7-12l0.2-0.3c2.2-3.9,6.9-5.7,11.2-4.3c0.4-0.5,0.9-0.9,1.5-1.3c-0.4-1.8-0.4-3.6,0.2-5.3
	c0.5-1.3,1.2-2.5,2.1-3.6l0.2-0.2l0.2-0.2c2.6-2.7,6.6-3.6,10.1-2.4c1.2,0.4,2.3,1.1,3.3,1.9c3.5,2.9,6.8,6.1,9.8,9.5
	c2.3-1.1,4.9-1.2,7.3-0.4c1.3,0.4,2.5,1.1,3.5,2.1c3.1,2.6,4.2,6.8,2.9,10.5c-0.5,1.4-1.2,2.6-2.2,3.7c-0.6,0.7-1.3,1.3-1.9,2
	c0.4,0.8,0.7,1.6,0.9,2.5c1.4,6.5,2,13.2,1.9,19.9c0,1.2-0.2,2.3-0.5,3.5c-1.3,3.9-4.9,6.7-9.1,6.8c-1.3,0-2.6-0.1-3.9-0.6
	c-0.6-0.2-1.2-0.5-1.7-0.8c-0.6,0.7-1.2,1.3-1.9,1.9c-1.9,1.5-4.1,2.5-6.5,2.8h-0.2c-3.3,0.5-7.6-0.2-13.7-2.3L786.2,365.5z"/>
<path id="パス_51" class="st8" d="M819.4,378c-5-1.5-7.8-6.7-6.4-11.7c0-0.1,0-0.1,0.1-0.2l3.8-11.2c0.2-0.6,0.5-1.2,0.8-1.8
	c-1.7-2.5-2.1-5.6-1.1-8.5c0.6-1.7,1.6-3.2,2.9-4.4c0-1.1,0.2-2.1,0.5-3.1l2-5.9c0.9-3.1,3.1-5.6,6-7c0-0.1,0-0.1,0.1-0.2
	c1.5-4.8,6.5-7.5,11.3-6c0.1,0,0.3,0.1,0.4,0.1l34.8,11.8c4.8,1.6,7.4,6.7,5.8,11.4c0,0.1-0.1,0.3-0.1,0.4c0,0.1,0,0.1-0.1,0.2
	c1.4,2.9,1.6,6.2,0.5,9.2l-2,5.9c-0.3,1-0.8,1.9-1.4,2.7c0.4,1.8,0.3,3.6-0.3,5.3c-0.9,2.8-3.1,5.1-5.9,6c-0.1,0.7-0.3,1.4-0.5,2
	l-2.7,8c-2.4,7-8.6,9.9-15.9,7.4c-1.7-0.6-3.4-1.3-5-2.2l-0.2-0.1c-0.5-0.3-0.9-0.6-1.3-0.9c-1-0.1-2-0.2-2.9-0.6
	c-2-0.7-3.8-2-5.1-3.7c-2,0.6-4.2,0.5-6.2-0.2c-1.8-0.6-3.4-1.7-4.6-3.1C824.3,378.8,821.8,378.8,819.4,378z"/>
<path id="パス_52" class="st8" d="M893.8,401.5c-2.4-0.7-4.5-2.1-6.1-4c-2.4,0.5-4.9,0.3-7.3-0.5l-10.2-3.5
	c-7.1-2.4-10.3-8.7-7.9-15.7l4.2-12.4c1.8-5.3,6-8.4,11.1-8.4c0.1-0.9,0.3-1.7,0.6-2.5l3-8.9c2.4-7.1,8.9-10.2,16.1-7.8l20.1,6.8
	c7.2,2.4,10.4,8.9,8,16l-3,8.9c-0.3,0.8-0.6,1.6-1,2.4c4,3.1,5.4,8,3.6,13.4l-4.2,12.4c-2.4,6.9-8.7,10-15.8,7.6L893.8,401.5z"/>
<g id="グループ_27" transform="translate(39.25 228.745)">
	<path id="パス_53" class="st9" d="M731,203.2c-0.9-0.1-1.4-1.1-1.3-2.2c0.1-1.1,0.8-2,1.8-1.9l40.1,4.8c1,0.1,1.5,1.1,1.3,2.2
		c-0.1,1.2-0.8,2-1.8,1.9l-18.4-2.2l-1.3,10.6l15.7,1.9c0.9,0.1,1.4,1.1,1.2,2.2c-0.2,1.1-0.8,2-1.7,1.9l-15.6-1.9l-1.6,12.8
		l20.8,2.5c0.9,0.1,1.4,1.1,1.3,2.2c-0.1,1.2-0.8,2-1.8,1.9l-44.8-5.4c-0.9-0.1-1.4-1.1-1.3-2.2c0.1-1.1,0.8-2,1.8-1.9l19.8,2.4
		l1.5-12.9l-14.7-1.8c-0.9-0.1-1.4-1.1-1.2-2.2c0.1-1.1,0.8-2,1.7-1.9l14.7,1.8l1.3-10.5L731,203.2z M757.8,196.8
		c0.5,0.4,0.8,1.1,0.8,1.7c-0.1,0.5-0.3,0.9-0.6,1.3c-0.5,0.6-1.3,0.8-2,0.7c-0.4,0-0.8-0.2-1.2-0.5c-3-2.4-6.2-4.5-9.5-6.3
		c-0.6-0.3-1-1-0.9-1.8c0.1-0.4,0.2-0.8,0.4-1.1c0.4-0.7,1.2-1.1,2-1.1c0.2,0,0.5,0.1,0.7,0.2C751.2,191.9,754.6,194.1,757.8,196.8
		L757.8,196.8z"/>
	<path id="パス_54" class="st9" d="M779.4,227.7c-0.9-0.1-1.4-0.9-1.3-1.9c0.1-1.1,0.7-1.7,1.7-1.6l20.1,2.4l0.2-1.9
		c0.1-0.9,0.9-1.4,2.1-1.2c1.3,0.1,1.9,0.8,1.8,1.7l-0.2,1.9l20,2.4c0.9,0.1,1.4,0.9,1.3,2c-0.1,1-0.7,1.7-1.7,1.6l-17.6-2.1
		c4.8,5.1,10.7,9,17.2,11.5c0.8,0.2,1.3,1,1.2,1.9c0,0.3-0.1,0.5-0.3,0.8c-0.3,0.8-1.2,1.4-2.1,1.2c-0.3,0-0.5-0.1-0.8-0.2
		c-7.6-3.2-14.1-7.7-18.5-14.3c0.2,1.3,0.2,2.6,0.1,3.9l-1,8.6c-0.1,0.9-0.9,1.5-2.1,1.3c-1.2-0.1-1.8-0.9-1.7-1.8l1-8.6
		c0.2-1.3,0.5-2.6,0.9-3.8c-6.1,5.1-13.5,8.5-21.4,9.6c-0.2,0-0.5,0-0.7,0c-0.9-0.1-1.5-0.8-1.7-1.6c-0.1-0.3-0.1-0.6-0.1-0.9
		c0.1-0.8,0.8-1.5,1.6-1.5c6.9-1,13.5-3.5,19.4-7.2L779.4,227.7z M797.8,206.9c-0.1,1-0.8,1.5-2.1,1.3c-1.2-0.1-1.8-0.8-1.7-1.8
		l0.3-2.8l-12.4-1.5c-0.9-0.1-1.3-0.8-1.2-1.8c0.1-1.1,0.7-1.7,1.6-1.6l12.5,1.5l0.4-3c0.1-1,0.9-1.4,2.1-1.3
		c1.3,0.1,1.8,0.7,1.7,1.7l-0.4,3l12.3,1.5l0.4-3c0.1-1,0.9-1.4,2.1-1.3c1.3,0.2,1.8,0.7,1.7,1.7l-0.4,3l12.8,1.5
		c0.9,0.1,1.3,0.9,1.2,2c-0.1,1-0.7,1.6-1.6,1.5l-12.9-1.6l-0.2,1.9c-0.1,1.1-0.8,1.5-2.1,1.3c-1.2-0.1-1.8-0.7-1.7-1.8l0.2-1.9
		l-12.2-1.4L797.8,206.9z M784.7,212.5c-1,0-1.7-0.8-1.7-1.7c0-0.1,0-0.2,0-0.3v-0.1c0-0.9,0.8-1.6,1.6-1.6c0.1,0,0.2,0,0.4,0
		c8.6,1,17.8,1.6,24,1.7c4,0.1,8-0.1,12-0.6c0.3,0,0.6,0,0.9,0c0.8,0.1,1.4,0.6,1.6,1.4c0.3,0.9-0.2,1.9-1.1,2.2
		c-0.2,0.1-0.4,0.1-0.5,0.1c-4.3,0.5-8.6,0.6-12.9,0.6C802.5,214.1,793,213.5,784.7,212.5L784.7,212.5z M787.1,214.2
		c0.6,0.1,1.2,0.4,1.5,1c1.2,1.8,2.2,3.6,3,5.6c0.1,0.4,0.2,0.8,0.2,1.2c-0.1,0.7-0.5,1.2-1.2,1.4c-0.3,0.2-0.7,0.2-1.1,0.2
		c-0.7-0.1-1.3-0.7-1.5-1.4c-0.8-1.8-1.8-3.6-2.8-5.4c-0.2-0.3-0.3-0.7-0.3-1.1c0.1-0.6,0.5-1.1,1.1-1.3
		C786.4,214.2,786.7,214.2,787.1,214.2L787.1,214.2z M801,214.8c0.6,0.1,1.1,0.4,1.4,1c0.8,1.3,1.5,2.8,1.9,4.3
		c0.1,0.3,0.1,0.6,0.1,1c0,0.7-0.5,1.2-1.1,1.4c-0.4,0.1-0.7,0.2-1.1,0.1c-0.7,0-1.3-0.5-1.5-1.1c-0.4-1.4-1-2.8-1.7-4.1
		c-0.2-0.3-0.3-0.7-0.2-1.1c0.1-0.6,0.6-1.2,1.2-1.3C800.4,214.8,800.7,214.7,801,214.8L801,214.8z M820.9,217.5
		c-0.1,0.4-0.2,0.8-0.5,1.1c-1.9,2.7-4.1,5.2-6.5,7.5c-0.5,0.4-1.1,0.7-1.7,0.6c-0.4-0.1-0.8-0.3-1.2-0.6s-0.7-0.9-0.6-1.5
		c0.1-0.4,0.3-0.9,0.7-1.1c2.3-2.2,4.4-4.6,6.1-7.3c0.3-0.6,1-1,1.7-0.9c0.3,0,0.6,0.1,0.9,0.3C820.5,216,820.9,216.7,820.9,217.5
		L820.9,217.5z"/>
</g>
<g id="グループ_28" transform="translate(78.198 294.626)">
	<path id="パス_55" class="st9" d="M727.7,246.5c-0.9,0.2-1.7-0.6-1.9-1.7s0.1-2.1,1.1-2.3l39.5-8.4c1-0.2,1.7,0.6,2,1.7
		c0.2,1.1-0.1,2.1-1.1,2.3l-18.2,3.8l2.2,10.4l15.4-3.3c0.9-0.2,1.6,0.6,1.9,1.7c0.2,1.1-0.1,2.1-1,2.3l-15.4,3.4l2.7,12.7l20.5-4.3
		c0.9-0.2,1.7,0.6,1.9,1.7c0.2,1.1-0.1,2.1-1.1,2.3l-44.1,9.4c-0.9,0.2-1.7-0.6-1.9-1.7s0.1-2.1,1.1-2.3l19.5-4.1l-2.7-12.9
		l-14.5,3.1c-0.9,0.2-1.6-0.6-1.9-1.7s0.1-2.1,1-2.3l14.5-3.1l-2.2-10.4L727.7,246.5z M751,231.7c0.6,0.2,1.1,0.7,1.3,1.4
		c0.1,0.5,0,0.9-0.1,1.4c-0.3,0.7-0.9,1.2-1.7,1.3c-0.4,0.1-0.8,0.1-1.3-0.1c-3.5-1.2-7.2-2.2-11-2.9c-0.7-0.1-1.3-0.7-1.4-1.4
		c-0.2-1.2,0.5-2.4,1.7-2.8c0.2,0,0.5,0,0.7,0C743.2,229.2,747.2,230.3,751,231.7L751,231.7z"/>
	<path id="パス_56" class="st9" d="M796.4,220.2c-0.4,0.1-0.7,0.4-0.8,0.8c-3.5,5.8-9.8,11.7-17.4,16.2c-0.3,0.2-0.5,0.3-0.8,0.3
		c-0.8,0.2-1.7-0.2-2.1-1c-0.2-0.2-0.3-0.5-0.3-0.7c-0.2-0.8,0.1-1.6,0.8-2c6.8-4,12.8-8.4,16.7-15c0.7-1.2,1.8-2,3.1-2.3
		c1.3-0.3,2.7,0,3.8,0.8c6.6,4.7,15.3,6.3,21.9,6.6c0.8,0,1.6,0.6,1.7,1.4c0.1,0.3,0.1,0.6,0,1c0,0.9-0.7,1.6-1.5,1.7
		c-0.3,0.1-0.6,0.1-1,0c-7.5-0.9-16.3-2.7-23.1-7.6C797.2,220.3,796.8,220.1,796.4,220.2z M803.1,248.3c2.1,2,4.4,3.6,7.1,4.8
		c3-2.7,5.6-5.8,7.9-9.2c0.3-0.4,0.7-0.7,1.2-0.8c0.5-0.1,1,0,1.5,0.2s0.9,0.7,1,1.2c0.1,0.5,0,1-0.4,1.4c-2.2,3.1-4.8,5.9-7.6,8.4
		c4.2,1.1,8.5,1.7,12.9,1.5c1-0.2,1.9,0.4,2.1,1.4l0,0c0,0.2,0.1,0.4,0.1,0.6c0.1,1-0.5,1.9-1.5,2c-0.2,0.1-0.4,0.1-0.6,0.1
		c-10.1,0-20.5-2.9-27.7-10.8l-7.9,1.7l2.3,10.9c3.7-1.5,7.3-3.3,10.3-4.9c0.2-0.1,0.4-0.2,0.6-0.2c0.8-0.2,1.6,0.2,1.9,0.9
		c0.1,0.2,0.2,0.4,0.2,0.6c0.1,0.7-0.2,1.5-0.9,1.8c-6.3,3.4-12.8,6.3-19.4,8.8l-0.3,0.1c-1,0.2-1.9-0.4-2.2-1.3l-0.1-0.4
		c-0.3-0.9,0.2-1.8,1.1-2.1c1.6-0.6,3.3-1.1,5.1-1.8l-5.5-25.9c-0.6-2.8,0.8-4.5,3.9-5.2l8.4-1.8l-0.9-4.1c-0.2-0.8,0.5-1.5,1.6-1.7
		c1.1-0.2,2,0.1,2.2,0.9l0.9,4.1l8.8-1.9c2.9-0.6,4.8,0.4,5.4,3.2l2.1,10c0.6,2.8-0.8,4.6-3.6,5.2L803.1,248.3z M811.6,235.1
		l-0.6-2.9c-0.1-0.8-0.9-1.4-1.7-1.3c-0.1,0-0.2,0-0.4,0.1l-19.2,4.1c-1.1,0.2-1.6,0.8-1.4,1.9l0.6,2.9L811.6,235.1z M811.5,243.2
		c0.8,0,1.5-0.8,1.4-1.6c0-0.1,0-0.2,0-0.3l-0.6-3l-22.7,4.8l1,4.6L811.5,243.2z"/>
</g>
<g id="グループ_29" transform="translate(34.036 142.146)">
	<path id="パス_57" class="st9" d="M749.4,181.3c0.1,0,0.2,0.1,0.3,0.2c1.1,0.6,1.5,1.4,1.2,2.3c0,0.2-0.1,0.3-0.2,0.4
		c-2.8,5.4-6.4,10.4-10.6,14.8c-0.5,0.6-1.3,0.7-2,0.5c-0.4-0.1-0.7-0.3-1-0.6c-0.6-0.5-0.8-1.4-0.6-2.1c0.1-0.3,0.2-0.5,0.4-0.7
		c4.1-4.1,7.5-8.8,10.2-13.9C747.5,181.3,748.5,180.9,749.4,181.3z M754.5,199.7c2-0.9,4-2,6.5-3.3c7.8-4.3,14.8-9.9,20.7-16.6
		c0.5-0.6,1.3-0.8,2-0.5c0.4,0.1,0.7,0.3,1,0.6c0.6,0.5,0.9,1.3,0.6,2.1c-0.1,0.3-0.3,0.6-0.5,0.8c-6.6,7.2-14.4,13.2-23,17.8
		c-2.9,1.5-5.9,2.9-9,4.1l-1.2,3.5c-0.6,1.8-0.3,2.5,6.4,4.7c5.9,2,7.7,1.8,8.7,0.9c1.3-1.1,2.4-3.7,3.5-6.8
		c0.3-0.9,1.3-1.4,2.2-1.1c0.1,0,0.2,0.1,0.2,0.1l0.2,0.1c1,0.2,1.6,1.2,1.4,2.2c0,0.1,0,0.2-0.1,0.2v0.1c-1.4,3.7-3,7.1-4.9,8.6
		c-0.9,0.6-1.8,1-2.9,1.1c-1.9,0.3-5.3-0.4-10.1-2l-1.5-0.5c-7.8-2.6-8.6-4.2-7.5-7.6l0.9-2.4c-3.7,1.1-7.4,2.1-11.2,2.8
		c-0.4,0.1-0.9,0.1-1.3-0.1c-0.7-0.2-1.2-0.8-1.4-1.5c-0.1-0.5-0.1-0.9,0.1-1.4c0.2-0.6,0.8-1.1,1.4-1.2c4.8-0.6,9.5-1.8,14-3.5
		l7.2-21.2c0.3-0.9,1.2-1.3,2.5-0.9c1.3,0.5,1.7,1.3,1.4,2.2L754.5,199.7z M774.8,179.5c0.5,0.5,0.7,1.3,0.5,1.9
		c-0.2,0.5-0.5,0.9-0.9,1.2c-0.5,0.5-1.3,0.7-1.9,0.5c-0.5-0.2-0.9-0.5-1.1-0.9c-3-3.8-6.3-7.3-10-10.5c-0.6-0.4-0.8-1.2-0.6-1.9
		c0.1-0.3,0.3-0.6,0.5-0.9c0.5-0.6,1.4-0.8,2.2-0.6c0.3,0.1,0.5,0.2,0.7,0.4C768,171.9,771.6,175.5,774.8,179.5z M780.5,192.8
		c0.6,0.2,1.1,0.8,1.2,1.4c1.3,6.1,1.9,12.2,1.8,18.4c0,0.3,0,0.6-0.1,0.9c-0.2,0.8-1,1.4-1.8,1.5c-0.4,0-0.8,0-1.2-0.1
		c-0.9-0.3-1.4-1.1-1.3-2c0.4-6-0.1-12.1-1.3-18c-0.1-0.3,0-0.6,0.1-0.9c0.3-0.7,0.9-1.2,1.7-1.3
		C779.7,192.6,780.1,192.7,780.5,192.8L780.5,192.8z"/>
	<path id="パス_58" class="st9" d="M826.3,223.3c2.8,1,3.7,2.6,2.8,5.3l-2.7,8c-1,2.9-2.7,3.6-6,2.5c-1.3-0.4-2.5-1-3.7-1.6
		c-0.8-0.3-1.2-1.3-0.9-2.1l0,0c0-0.1,0.1-0.3,0.2-0.4c0.3-0.8,1.1-1.2,1.9-0.9c0.1,0,0.3,0.1,0.4,0.2c0.8,0.4,1.6,0.8,2.5,1.1
		c1.3,0.5,1.8,0.3,2.3-0.9l2.3-6.8c0.3-1-0.1-1.5-1.1-1.8l-7.1-2.4l-3.8,11.1c-0.4,1-1.3,1.2-2.3,0.8c-1-0.4-1.7-1-1.3-2.1l3.8-11.1
		l-7.7-2.6l-3.7,11c-0.4,1-1.2,1.2-2.3,0.8c-1-0.4-1.7-1-1.3-2.1l3.8-11l-6.2-2.1c-0.9-0.3-1.6-0.2-1.9,0.8l-4,10.8
		c-0.3,0.9-1.3,1.1-2.4,0.7c-1-0.4-1.7-1.1-1.4-2l3.8-11.2c0.9-2.6,2.6-3.3,5.4-2.4l10.6,3.6c1.2-0.9,2.4-1.9,3.5-3l-19-6.5
		c-0.8-0.3-1.2-1.1-0.9-1.9c0-0.1,0-0.1,0.1-0.2c0.3-1,1.1-1.5,1.9-1.2l42.9,14.6c0.8,0.3,1.2,1.2,0.8,2c0,0,0,0.1-0.1,0.1
		c-0.3,1-1.1,1.4-1.9,1.1l-20-6.7c-1,1.1-2.2,2.1-3.4,3L826.3,223.3z M802.3,186.5c-0.7-0.3-1.1-1-0.8-2s1-1.3,1.8-1.1l34.8,11.8
		c0.8,0.3,1.1,0.9,0.8,1.9c-0.4,1-1,1.4-1.8,1.2l-15.9-5.4l-1,3l16.4,5.6c2.7,0.9,3.7,2.5,2.8,5l-2,5.9c-0.4,1.1-1.3,1.2-2.4,0.9
		c-1.1-0.4-1.7-1-1.3-2.1l1.8-5.3c0.3-0.9-0.3-1.4-1.2-1.8l-15.2-5.1l-3.3,9.6c-0.4,1.2-1.2,1.3-2.3,0.9c-1.1-0.4-1.8-0.9-1.4-2.1
		l3.3-9.6l-14.6-5c-0.9-0.3-1.6-0.2-1.9,0.7l-1.8,5.3c-0.4,1.1-1.3,1.2-2.4,0.9c-1.1-0.3-1.7-1-1.3-2.1l2-5.9
		c0.9-2.5,2.6-3.2,5.3-2.3l15.7,5.4l1-3L802.3,186.5z M801.2,198.6c-0.7-0.3-0.9-1.1-0.6-1.7c0,0,0,0,0-0.1c0.3-0.8,0.9-1.3,1.6-1
		l8.9,3c0.7,0.2,0.8,1,0.6,1.8c-0.3,0.7-0.8,1.3-1.5,1L801.2,198.6z M799.6,203.4c-0.7-0.3-0.9-1.1-0.7-1.7c0,0,0,0,0-0.1
		c0.3-0.8,0.9-1.3,1.6-1l8.8,3c0.7,0.2,0.8,1,0.6,1.8c-0.3,0.7-0.8,1.3-1.5,1L799.6,203.4z M821.4,205.4c-0.7-0.3-0.9-1-0.6-1.8
		s0.8-1.3,1.6-1l9.2,3.2c0.7,0.2,0.8,1,0.6,1.8c-0.3,0.7-0.8,1.3-1.5,1L821.4,205.4z M819.7,210.3c-0.7-0.3-0.9-1-0.6-1.8
		c0.3-0.8,0.8-1.3,1.6-1l9.2,3.1c0.7,0.2,0.8,1,0.6,1.8c-0.3,0.7-0.8,1.3-1.5,1L819.7,210.3z"/>
	<path id="パス_59" class="st9" d="M854.8,244.7c-1,2.9-2.9,3.7-5.9,2.7l-10.2-3.5c-3-1-4.1-2.8-3.1-5.8l4.3-12.3
		c1-3,2.9-3.7,5.9-2.7l10.3,3.5c2.9,1,4,2.7,3,5.6L854.8,244.7z M845.4,226.8c-1-0.4-1.7-0.2-2.1,0.9l-3.8,11c-0.4,1.1,0,1.7,1.1,2
		l8.5,2.9c1.1,0.4,1.8,0.2,2.2-0.9l3.8-11c0.4-1.1-0.1-1.6-1.2-2L845.4,226.8z M880.8,209.9c3.2,1.1,4.2,3,3.1,6.1l-3,8.9
		c-1,3-3,4-6.2,2.9l-20.1-6.8c-3.1-1.1-4.2-3-3.1-6l3-8.9c1-3,3-4,6.2-2.9L880.8,209.9z M875.3,224c1,0.3,1.6,0.2,2-0.9l2.7-7.9
		c0.4-1.1,0-1.6-1-2l-18.8-6.4c-1-0.3-1.7-0.2-2,0.9l-2.7,7.9c-0.4,1,0.1,1.6,1.1,1.9L875.3,224z M879.2,253c-1,3-2.9,3.7-5.9,2.7
		l-11-3.8c-2.9-1-4-2.8-3-5.8l4.3-12.5c1-2.9,2.9-3.7,5.8-2.7l11.1,3.8c3,1,4.1,2.8,3.1,5.8L879.2,253z M869.1,234.8
		c-1.1-0.4-1.8-0.2-2.1,0.9l-3.8,11c-0.4,1.1,0,1.7,1.1,2.1l9.3,3.2c1.1,0.4,1.7,0.2,2.1-1l3.8-11c0.4-1.1,0-1.6-1.1-2L869.1,234.8z
		"/>
</g>
<path id="パス_62" class="st8" d="M841.6,72.9c-2.8-0.4-5.4-2-6.9-4.4c-2.3,0.5-4.6,0.5-6.9,0.1c-8.3-1.3-13.4-8.7-12-17.6
	c1-5.6,4-10.6,8.5-14c-4.3-3.5-4.9-9.9-1.3-14.1c2.2-2.7,5.7-4,9.2-3.5l1.3,0.2c2.1-3.6,6.2-5.5,10.2-4.7l0.6,0.1l0.3,0.1
	c3.5,0.8,6.3,3.4,7.3,6.9c2.9,0.2,5.5,0.4,7.9,0.4h0.6l0.9,0.2c5,0.7,8.6,5.1,8.4,10.1v0.6l-0.1,0.9c-0.3,2.3-1.5,4.4-3.3,6
	c3.3,4.3,4.6,9.9,3.6,15.2c-2,11.8-13.7,19.3-27.9,17.6h-0.2L841.6,72.9z"/>
<path id="パス_63" class="st8" d="M882.2,78.6c-12.2-2-17.3-9.7-17.1-16.6c-4-2-6.3-6.3-5.6-10.8c0.6-3.6,3.1-6.7,6.5-8
	c1.5-0.6,3.2-1.4,4.9-2.2c-4.2-3.8-4.4-10.2-0.7-14.4c2.2-2.5,5.5-3.7,8.8-3.2c6.3,1,14.1,2,19.8,2.5h0.3l0.7,0.1
	c3.8,0.5,7.1,3.1,8.5,6.7c0.7,1.8,0.9,3.8,0.6,5.7c-0.4,2.5-1.7,4.7-3.5,6.4c5.2,4.1,7.7,10.7,6.6,17.2
	C910.3,72.4,900.4,81.5,882.2,78.6z"/>
<path id="パス_64" class="st8" d="M927.3,84.9c-3-0.4-5.6-2.2-7.2-4.8c-1.5,0.2-3.1,0.1-4.6-0.1c-8.3-1.3-15.6-9.7-13.5-23.2
	c2.6-16.2,16.6-26,33.2-23.3c15.2,2.4,24.5,14.9,22.1,29.6c-1.5,9.1-6.7,16-14.8,19.5c-4.2,1.7-8.8,2.6-13.3,2.4
	C928.6,85,928,85,927.3,84.9z"/>
<path id="パス_65" class="st8" d="M959.7,92.3c-4.9-0.8-8.5-4.9-8.5-9.9c-2.2-0.6-4.1-2-5.4-3.8c-1.6-2.2-2.3-4.9-1.9-7.6
	c0.4-2.3,1.5-4.4,3.2-6c1.3-1.2,2.8-2.5,4.4-3.9c-2.9-2.1-4.4-5.6-3.9-9.1l0.1-0.4c0.6-5.1,5.1-8.9,10.2-8.6
	c1.1-5.2,6.2-8.5,11.4-7.6l0.5,0.1c4.9,0.9,8.3,5.3,8,10.3c2.5-0.5,5-0.5,7.5-0.1c8.7,1.4,17.8,9,15.1,26c-0.2,1.4-0.5,2.9-0.9,4.2
	c0.6,0.8,1.1,1.6,1.6,2.4c1.3,2.1,1.9,4.6,1.4,7c-0.4,2.4-1.6,4.6-3.4,6.1c-2.2,2-5.2,2.8-8.1,2.3c-1.4-0.2-2.7-0.7-3.8-1.5
	c-3.4,1.4-7.2,1.7-10.8,1.1c-3-0.5-5.9-1.7-8.4-3.5C965.8,91.9,962.7,92.8,959.7,92.3z"/>
<g id="グループ_31" transform="translate(256.431 358.297)">
	<path id="パス_72" class="st9" d="M86.6,50.7c-1.5-0.3-2-1.9-1.6-3.2c0.4-1.4,1.5-2.6,3-2.1l3.2,1c0.2,0,0.4,0.1,0.6,0.2
		c6,1.6,10.6-0.6,12-5.8c1.3-4.8-1.6-8.6-7.4-10.1c-5.4-1.4-8.7,0.1-11.2,3.5c-0.6,0.9-1.7,1.3-2.8,0.9c-0.4-0.1-0.9-0.3-1.3-0.6
		c-1-0.5-1.5-1.6-1.3-2.7c0.1-0.4,0.3-0.8,0.5-1.1c3-4,8.2-7.3,17.5-4.8c8.8,2.3,13.5,8.6,11.6,15.9c-1.6,6-5.5,9-11.9,8.9
		c6.7,2.8,9,7.8,7.2,14.8c-2.1,7.9-9.8,11.8-20.3,9c-9.1-2.4-13.1-7.6-13.8-13.6c-0.1-0.4,0-0.8,0.1-1.2c0.4-1.2,1.5-2,2.8-1.8
		c0.4,0,0.8,0,1.2,0.1c1.2,0.2,2,1.2,2.1,2.4c0.5,4.4,3,7.5,9.2,9.1c6.3,1.7,11.7-0.5,13.2-6c1.5-5.7-1.8-9.9-8.9-11.8l-0.4-0.1
		L86.6,50.7z"/>
</g>
<path id="パス_73" class="st10" d="M91.4,34.5c0,0,9.4,54.1,83,77.7s78.6,39.9,78.6,39.9s-10.1-14,5.3-21
	c15.4-7,31.8-22.5,103.2-7.8c71.5,14.7,113.4,12,127.3-11"/>
<path id="パス_74" class="st11" d="M89.2,25.9c0,0,8.2,54.3,81.4,79.3s77.7,41.5,77.7,41.5s-9.8-14.2,5.8-20.9
	c15.5-6.7,32.2-21.8,103.4-5.7s113.1,14.3,127.5-8.4"/>
<path id="パス_60" class="st9" d="M734.4,56.6c-12.9-1.4-22.1-8.4-25.2-19.2c-0.5-1.8-0.7-3.6-0.5-5.5c0.7-6.2,5.5-11.1,11.7-12
	c0.1,0,0.3-0.1,0.5-0.1c0-0.7,0-1.4,0.1-2.1c0-0.5,0.1-0.9,0.2-1.4c-5.2-2.4-8.2-7.8-7.7-13.5c0.2-1.8,0.8-3.6,1.6-5.2
	c3.1-5.7,10.7-15,27.5-13.2C757.8-14,767.8-3,766.4,10.6c-0.3,3.6-1.5,7.1-3.4,10.3c2.1,4.3,2.9,9.2,2.3,13.9
	C763.7,49.4,751,58.4,734.4,56.6z"/>
<path id="パス_61" class="st9" d="M779.3,60.5c-6.8-1.1-11.1-6.6-10.3-13.2V47c0.8-6.4,6.6-10.9,13-10.1c0.2,0,0.4,0.1,0.6,0.1
	c5.5,0.9,11.6,0.9,14.6,0.1c2.3-0.6,2.8-1.6,3.1-3.3c0.1-0.3,0.1-0.5,0-0.8c-0.8-0.4-1.8-0.7-2.7-0.8c-7-1-14.2-0.9-21.2,0.3
	c-1.5,0.3-3,0.3-4.4,0.1c-5.3-0.8-9.4-5.2-9.8-10.6v-0.5c0-0.9,0-1.8,0.1-2.6c0.8-5,4.6-8.9,9.6-9.8l0.4-0.1
	c9.5-1.5,19.3-1.5,28.8-0.1c15.8,2.5,24.9,14.1,22.6,28.6c-1.5,11-9.7,19.9-20.5,22.5C795.6,62,785.9,61.5,779.3,60.5z"/>
<path id="パス_66" class="st12" d="M733,22.2c-2-0.1-2.8-2-2.6-3.8c0.2-1.9,1.4-3.5,3.4-3.2l4.3,0.6l0.8,0.1
	c7.9,0.8,13.2-2.8,14-9.7c0.7-6.3-3.7-10.5-11.3-11.3c-7-0.7-11,1.9-13.4,6.7c-0.6,1.2-1.9,1.9-3.3,1.7c-0.6-0.1-1.2-0.3-1.7-0.5
	c-1.4-0.7-2.4-1.8-2.2-3.2c0.1-0.5,0.2-1,0.5-1.5c3-5.7,8.9-10.8,21.1-9.5c11.6,1.2,18.8,8.2,17.8,17.8c-0.8,7.9-5.2,12.5-13.3,13.5
	c9,2.2,12.9,8.1,11.9,17.2c-1.1,10.4-10.1,16.7-23.8,15.3c-11.9-1.3-18-7-20.1-14.4c-0.2-0.5-0.2-1-0.2-1.5c0.2-1.6,1.6-2.8,3.2-2.9
	c0.5-0.1,1-0.1,1.5-0.1c1.5,0.1,2.8,1.2,3.1,2.6c1.5,5.4,5.2,8.9,13.3,9.7c8.3,0.9,14.7-2.9,15.5-10.2c0.8-7.5-4.2-12.1-13.6-13.1
	h-0.5L733,22.2z"/>
<path id="パス_67" class="st13" d="M814.3,36c-0.9,7.3-6.3,13.2-13.5,14.8c-5.3,1.4-13.3,1.4-20,0.3c-1.7-0.3-2.5-1.2-2.3-2.7
	v-0.2c0.1-1.2,1.1-2.1,2.2-2c0.1,0,0.3,0,0.4,0.1c6.4,1,13.8,1.2,18.7-0.2c5.3-1.2,9.2-5.5,9.9-10.9c1-6.2-2.5-11.2-10.5-12.5
	c-8.1-1.2-16.4-1-24.5,0.4c-0.4,0.1-0.7,0.1-1.1,0c-1-0.1-1.8-1-1.8-2c0-0.3,0-0.5,0-0.8c0.2-1.1,1-1.9,2.1-2
	c8.6-1.3,17.3-1.3,25.8-0.1C811,20.1,815.7,27.2,814.3,36z"/>
<path id="パス_68" class="st2" d="M829.1,60.5c-3.6-0.6-5.8-3.6-5.1-8.1c1-6.1,6.5-10.9,13.4-12.7c0.1-0.7,0.2-1.3,0.3-2
	c0.3-1.8,0.6-3.7,1-5.5c-2.6-0.4-5.4-0.8-8.2-1.2c-0.9-0.1-1.6-0.8-1.5-1.7c0-0.1,0-0.2,0.1-0.3c0.1-0.9,0.8-1.5,1.7-1.4
	c0.1,0,0.1,0,0.2,0l2.4,0.4c2,0.3,4,0.6,6.1,0.9c0.3-1.6,0.7-3.2,1-4.6c0.2-0.9,1.1-1.4,2-1.2l0,0h0.2c1.1,0.3,1.5,0.9,1.3,1.7V25
	c-0.4,1.3-0.7,2.7-1,4.3c5.6,0.7,11.2,1.1,16.8,1.2l0.3,0.1c0.9,0.1,1.5,0.9,1.4,1.8l0,0l-0.1,0.3c-0.1,0.9-0.9,1.5-1.8,1.4
	c0,0,0,0-0.1,0c-5.2-0.1-11.1-0.7-17.5-1.4c-0.3,1.7-0.6,3.4-0.9,5.1l-0.2,1.3c2.7-0.3,5.4-0.2,8,0.3c0.3-0.8,0.6-1.4,0.7-2
	c0.2-0.7,1-1.1,1.7-0.9c0.1,0,0.2,0.1,0.4,0.1c0.8,0.1,1.4,0.9,1.2,1.7l0,0v0.3c-0.2,0.5-0.4,1.1-0.6,1.7c7.3,2.4,10.4,7.5,9.4,13.6
	c-1.2,7.5-8.7,12.2-18.7,11h-0.1c-1-0.1-1.7-1-1.6-2c0,0,0,0,0-0.1v-0.1c0.1-0.9,0.9-1.5,1.8-1.5h0.1c8.3,0.9,13.7-2.6,14.6-8.2
	c0.7-4.6-1.6-8.4-6.9-9.9c-2.3,5.2-5.7,9.8-10.1,13.4c0.1,0.6,0.3,1.2,0.5,2c0.1,0.3,0.1,0.6,0.1,1c-0.1,0.7-0.6,1.2-1.3,1.4
	c-0.3,0.1-0.6,0.1-1,0.1c-0.5-0.1-1-0.5-1.2-1c-0.1-0.4-0.2-0.9-0.4-1.3C834.2,60.6,831.5,60.9,829.1,60.5z M837,43.1
	c-5.5,1.9-8.9,5.8-9.5,9.6c-0.4,2.5,0.7,4,2.6,4.3c1.7,0.3,4.1-0.2,7-2C836.6,51,836.5,47,837,43.1L837,43.1z M847.8,42.2
	c-2.4-0.4-4.9-0.5-7.3,0c-0.5,3.5-0.6,7.1-0.2,10.6C843.5,49.7,846,46.2,847.8,42.2L847.8,42.2z"/>
<path id="パス_69" class="st2" d="M881.5,48.8c3.4-1,7.1-1.3,10.6-0.8c8.3,1.3,12.6,6.5,11.6,12.8c-1.2,7.7-9.1,11.5-20.3,9.7
	c-6.8-1.1-10.8-4.7-10.1-8.9c0.6-3.6,4-5.7,8.5-5c5,0.8,8.6,4.4,8.4,10.7c4.9-0.3,8.8-2.7,9.5-7c0.7-4.4-2.4-8.1-8.9-9.2
	c-6.1-1-12,0.1-20.3,3.6c-0.4,0.2-0.9,0.2-1.3,0.1c-0.7-0.1-1.2-0.5-1.5-1.1c-0.2-0.3-0.2-0.7-0.2-1.1c0.1-0.7,0.6-1.3,1.3-1.6
	c9.1-3.8,17.9-8.3,26.4-13.5c-5.1-0.4-12.2-1.2-18.1-2.1c-0.9-0.1-1.6-1-1.4-1.9c0-0.1,0-0.1,0-0.2c0.2-1.1,0.9-1.8,1.9-1.6
	c6.2,1,14.1,2,20.3,2.6l0.4,0.1c0.9,0.1,1.8,0.7,2.1,1.5c0.2,0.4,0.2,0.9,0.2,1.4c-0.1,0.7-0.6,1.3-1.2,1.7
	c-4.3,2.9-8.8,5.4-13.5,7.5c-1.4,0.7-3.2,1.5-4.6,2L881.5,48.8z M881.2,59.6c-2.4-0.4-4,0.6-4.2,2.3c-0.3,2.1,2.1,4.3,6.2,5
	c1.1,0.2,2.3,0.4,3.4,0.4C886.9,62.9,884.4,60.1,881.2,59.6L881.2,59.6z"/>
<path id="パス_70" class="st2" d="M928.4,63.1c-2.4,4.5-4,6.3-5.9,7.6c-1.6,1.1-3.7,1.5-5.6,1.2c-4.8-0.8-7.9-6-6.6-13.8
	c1.8-11.5,11.2-18.5,23.7-16.4c10.9,1.7,16.9,10,15.3,20.1c-1,6.5-4.6,11-9.9,13.2c-3.2,1.3-6.7,1.9-10.2,1.8c-0.2,0-0.3,0-0.5,0
	c-1-0.1-1.7-0.9-1.7-1.9c0-0.2,0-0.3,0-0.5c0.1-0.9,1-1.6,1.9-1.5c3.3,0.2,6.7-0.5,9.7-1.8c3.7-2,6.2-5.7,6.7-9.9
	c1.3-7.8-2.9-14.3-11-15.8C933.1,51.4,931.1,57.4,928.4,63.1z M914,58.7c-0.9,5.5,1,8.8,3.4,9.2c1.2,0.2,2.4-0.1,3.3-0.8
	c1.2-0.8,2.5-2.6,4.2-5.8c2.6-5.2,4.4-10.8,5.6-16.5C922,44.2,915.4,49.7,914,58.7L914,58.7z"/>
<path id="パス_71" class="st2" d="M967.5,56.1c-0.2,0.9-0.3,1.8-0.4,2.3c-0.1,0.7-0.3,1.5-0.5,2.2c0.4-0.4,0.8-0.8,1.3-1.2
	c7-4.9,11.7-6.4,16.2-5.7c6.6,1.1,9.8,6.9,8.2,16.5c-0.4,2.5-1,4.9-2,7.3c1.5,1.5,2.8,3.2,3.9,5.1c0.3,0.4,0.4,0.9,0.3,1.4
	c-0.1,0.5-0.3,0.9-0.7,1.3c-0.4,0.3-0.9,0.5-1.3,0.4c-0.5-0.1-1-0.4-1.2-0.9c-0.8-1.3-1.6-2.6-2.6-3.8c-2.6,3.8-6.3,5-10.8,4.3
	c-4.9-0.8-8.1-4.2-7.4-8.2c0.6-4,4.6-6.5,9.5-5.7c2.7,0.5,5.3,1.7,7.4,3.5c0.6-1.8,1-3.6,1.3-5.4c1.1-6.8-0.7-11.4-5.3-12.1
	c-3.8-0.6-8.2,0.6-17.4,7.5c-0.9,5.8-1.8,11.6-2.8,17.8c-0.2,0.9-1.1,1.6-2,1.4c-0.1,0-0.1,0-0.2,0c-1-0.1-1.7-1-1.6-2l0,0l0.6-3.6
	c0.5-2.9,1-5.8,1.4-8.1c0.2-1,0.4-2,0.7-3c-0.6,0.7-1.2,1.4-1.9,2c-1.6,1.4-3.5,3.3-5,4.6c-0.4,0.4-1,0.5-1.5,0.5
	c-0.5-0.1-0.9-0.4-1.2-0.8c-0.3-0.4-0.5-1-0.4-1.5c0.1-0.5,0.4-1,0.7-1.3c2.4-2.3,6-5.3,9.8-8.2c0.5-2.5,0.9-5,1.4-7.6
	c-2-0.2-4.6-0.4-6.6-0.4h-0.2c-0.9-0.1-1.5-0.9-1.3-1.8c0,0,0,0,0-0.1v-0.1c0-0.9,0.8-1.6,1.7-1.6h0.1c2.2,0.1,4.9,0.3,7,0.5
	c0.4-2.1,0.9-4.4,1.4-6.8c0.1-0.9,0.9-1.5,1.8-1.4c0.1,0,0.2,0,0.2,0h0.1c1,0.2,1.6,0.9,1.5,1.8v0.2c-0.5,2.1-0.9,4.3-1.3,6.4
	c0.8,0.1,1.4,0.8,1.4,1.6c0,0.1,0,0.1,0,0.2c-0.1,0.6-0.5,1.1-0.9,1.5L967.5,56.1z M979.3,74.6c-2.9-0.5-5.1,0.9-5.4,3
	c-0.3,2,1.5,3.8,4.2,4.3c3.2,0.5,6.1-0.4,7.8-3.8C984.2,76.2,981.9,75,979.3,74.6z"/>
<g>
	<path class="st9" d="M137.4,31.4c0.3-2.7,0.8-5.7,1.4-9c0.1-0.8,0.8-1,1.6-0.9c0.8,0.1,1.3,0.6,1.2,1.4c-0.6,3.3-1.1,6.3-1.4,9
		l10.6,1.9c0.7,0.1,0.9,0.7,0.8,1.5c-0.1,0.8-0.6,1.2-1.3,1.1l-10.4-1.8c-0.2,2.3-0.2,4.5,0,6.5c0.1,0.8,0.2,1.6,0.3,2.4
		c1.9-1.5,3.5-3.2,4.9-5.2c0.3-0.5,0.8-0.6,1.2-0.5c0.3,0,0.5,0.2,0.6,0.3c0.4,0.4,0.6,0.8,0.6,1.2c0,0.2-0.2,0.4-0.3,0.6
		c-1.8,2.4-4,4.5-6.4,6.4c0.7,2.3,1.5,4.3,2.6,5.6c0.3,0.4,0.6,0.6,0.8,0.6c0.3,0.1,0.5-0.1,0.8-0.5c0.4-0.5,1-1.7,1.4-3.2
		c0.3-0.8,0.8-1.1,1.4-0.9c0.1,0,0.1,0,0.2,0c0.7,0.2,1.1,0.7,0.9,1.5c0,0.1,0,0.1,0,0.2c-0.5,1.7-1.4,3.6-2.4,4.8
		c-0.8,1-1.7,1.4-2.7,1.2c-0.8-0.2-1.7-0.7-2.5-1.7c-1.3-1.5-2.3-3.6-3.1-6c-3,1.8-6.2,3.2-9.5,4c-0.3,0.1-0.5,0.1-0.8,0
		c-0.5-0.1-0.8-0.4-1-0.9c-0.1-0.3-0.1-0.6-0.1-0.8c0.1-0.5,0.4-0.8,1-1c3.5-0.8,6.8-2.1,9.7-4c-0.3-1.1-0.5-2.3-0.6-3.5
		c-0.2-2.3-0.3-4.8,0-7.7l-8.6-1.6l-1,5.5c2-0.1,3.8-0.3,5.4-0.5c0.1,0,0.3,0,0.4,0c0.5,0.1,0.8,0.5,0.8,1.1c0,0.2,0,0.3,0,0.4
		c-0.1,0.5-0.4,0.9-1,1c-1.8,0.3-3.9,0.5-6.1,0.6l-1.4,7.8c-0.5,2.6-1.6,3.5-4.6,2.9c-1.1-0.2-2.3-0.6-3.2-0.9
		c-0.7-0.3-0.9-0.8-0.8-1.5c0-0.1,0.1-0.3,0.1-0.4c0.3-0.6,0.8-0.9,1.3-0.8c0.1,0,0.3,0,0.4,0.1c0.8,0.3,1.7,0.7,2.5,0.8
		c1.1,0.2,1.4,0,1.6-1.2l1.2-6.6c-2.1,0.1-4.3,0.1-6.3,0.2c-0.1,0-0.2,0-0.3,0c-0.6-0.1-1-0.6-1-1.4c0-0.1,0-0.2,0-0.3
		c0.1-0.7,0.6-1,1.3-1c2.2,0,4.5,0,6.7-0.1l1.1-6.1l-6.6-1.2c-0.6-0.1-0.9-0.7-0.8-1.4c0.1-0.8,0.6-1.2,1.2-1.1l6.6,1.2l0.9-5.1
		c-1.8,0.1-3.7,0.1-5.4,0c-0.1,0-0.2,0-0.3,0c-0.7-0.1-1.1-0.6-1.1-1.3c0-0.1,0-0.1,0-0.2c0.1-0.7,0.6-1,1.2-1
		c4.3,0.2,9.2-0.1,12.9-1c0.2-0.1,0.5-0.1,0.7,0c0.5,0.1,0.8,0.4,1,1c0.1,0.2,0.1,0.5,0,0.7c-0.1,0.5-0.5,0.9-1.1,1.1
		c-1.6,0.3-3.3,0.5-5.1,0.7l-1.1,5.7L137.4,31.4z M149.6,29.2c0.2,0.4,0.3,0.8,0.2,1.1c-0.1,0.4-0.3,0.7-0.7,0.9
		c-0.3,0.1-0.6,0.2-0.9,0.1c-0.4-0.1-0.8-0.3-1-0.8c-0.8-1.7-2-3.7-3-5c-0.3-0.4-0.4-0.7-0.3-1c0.1-0.4,0.3-0.6,0.7-0.9
		c0.2-0.1,0.6-0.2,0.8-0.1c0.4,0.1,0.7,0.3,1,0.6C147.6,25.6,148.8,27.5,149.6,29.2z"/>
	<path class="st9" d="M165.7,28.1c0.3-0.9,0.9-1.1,1.6-1c0.1,0,0.2,0.1,0.4,0.1c0.8,0.3,1.2,0.8,1,1.5c0,0.1,0,0.2-0.1,0.3
		c-0.7,2-1.5,4-2.4,5.9c1,0.2,1.9,0.3,2.8,0.4c4.9,0.9,6.6,3.8,5.6,9.4c-0.6,3.4-1.8,6.9-3,9.4c-1.7,3.3-3.9,4.2-6.8,3.7
		c-1.7-0.3-3.6-1.2-5-2.3c-0.4-0.4-0.6-0.9-0.5-1.5c0-0.3,0.2-0.5,0.3-0.7c0.3-0.5,0.8-0.7,1.3-0.6c0.3,0.1,0.6,0.2,0.9,0.4
		c0.9,0.7,2.3,1.4,3.6,1.6c1.5,0.3,2.6-0.2,3.6-2.4c0.9-1.9,2-5.2,2.6-8.4c0.7-4-0.1-5.5-3.4-6.1c-1.2-0.2-2.2-0.3-3.1-0.4
		c-1,2-2,4-3.1,5.9c-2.6,4.5-5.3,8.5-8.2,11.7c-0.5,0.5-1,0.7-1.5,0.7c-0.3-0.1-0.6-0.2-0.8-0.4c-0.4-0.4-0.6-0.9-0.6-1.4
		c0.1-0.3,0.2-0.6,0.5-0.9c2.8-3,5.5-6.8,8-11c0.9-1.6,1.8-3.2,2.6-4.9c-1.9-0.2-4.5-0.3-6.6-0.4c-0.1,0-0.2,0-0.3,0
		c-0.6-0.1-1-0.6-1-1.4c0-0.1,0-0.2,0-0.3c0.1-0.7,0.7-1.1,1.5-1.1c2.2,0.1,5.3,0.3,7.6,0.5C164.2,32.4,165,30.2,165.7,28.1z
		 M177.2,35.6c0.1-0.5,0.5-0.9,1-1.1c0.3-0.1,0.6-0.1,0.8-0.1c0.5,0.1,0.9,0.4,1.2,0.9c2,4,3.6,9.7,4.1,14c0,0.2,0,0.5,0,0.7
		c-0.1,0.6-0.5,1.1-1.1,1.1c-0.3,0-0.5,0.1-0.7,0c-0.6-0.1-1.1-0.6-1.2-1.4c-0.5-4.1-1.9-9.4-3.9-13.4
		C177.2,36.2,177.2,35.9,177.2,35.6z M181.9,30c0.4,0.1,0.6,0.2,0.9,0.6c0.9,1.3,1.9,3.3,2.3,4.6c0.1,0.2,0.2,0.5,0.1,1
		c-0.1,0.5-0.7,0.9-1.4,0.8c-0.4-0.1-0.7-0.3-0.8-0.8c-0.5-1.5-1.3-3.1-2.1-4.4c-0.2-0.3-0.3-0.6-0.2-0.9
		C180.8,30.3,181.3,29.9,181.9,30z M186.3,28.4c0.4,0.1,0.6,0.3,0.9,0.6c0.8,1.1,1.8,3.2,2.2,4.5c0.1,0.2,0.1,0.5,0,0.9
		c-0.1,0.4-0.6,0.9-1.3,0.8c-0.4-0.1-0.6-0.3-0.8-0.7c-0.5-1.5-1.2-3.1-2-4.3c-0.3-0.4-0.3-0.6-0.3-1
		C185.1,28.7,185.8,28.3,186.3,28.4z"/>
	<path class="st9" d="M203.6,52c-4.6,2-9.3,3.1-14.2,3.5c-0.1,0-0.3,0-0.4,0c-0.6-0.1-1-0.5-1.1-1.2c0-0.2,0-0.3,0-0.4
		c0.1-0.6,0.5-1,1.1-1.1c4.3-0.2,9.6-1.2,13.8-3.1c-0.4-0.9-0.8-1.8-1.4-2.6c-3.3,1-6.7,1.6-10.1,1.8c-0.1,0-0.3,0-0.4,0
		c-0.6-0.1-0.9-0.5-0.9-1.2c0-0.2,0-0.3,0-0.4c0.1-0.6,0.6-0.9,1.2-1c4.1-0.1,8.6-0.8,11.9-2.2l-7.9-1.5c-0.6-0.1-0.8-0.6-0.7-1.3
		c0.1-0.7,0.5-1.1,1.1-0.9l21.8,4c0.6,0.1,0.8,0.6,0.7,1.3c-0.1,0.6-0.5,1.1-1.1,0.9l-6.4-1.2c0,2.3,0.2,4.5,0.6,6.7
		c2-1,4-2.2,5.6-3.5c0.3-0.2,0.6-0.3,0.9-0.2c0.3,0.1,0.7,0.2,0.9,0.6c0.3,0.4,0.4,0.8,0.3,1.1c0,0.3-0.2,0.5-0.5,0.7
		c-1.7,1.3-4.1,2.6-6.7,3.8c1.3,4,3.4,7.3,6.6,10c0.4,0.4,0.6,0.9,0.5,1.4c-0.1,0.3-0.2,0.6-0.4,0.8c-0.4,0.4-0.9,0.5-1.4,0.4
		c-0.3-0.1-0.6-0.2-0.8-0.5c-5.7-5.1-8.2-12.6-8.2-21.9l-1.1-0.2c-1.1,0.5-2.2,1-3.3,1.5c1.4,2,2.2,4.3,2.7,6.4
		c0.5,2.6,0.5,5.4-0.1,8.4c-0.9,5-2.7,5.9-5.9,5.3c-1.5-0.3-2.6-0.6-3.6-1c-0.5-0.3-0.9-0.8-0.8-1.4c0-0.1,0-0.3,0.1-0.4
		c0.3-0.6,0.8-0.9,1.4-0.8c0.1,0,0.2,0,0.3,0.1c0.8,0.4,1.8,0.7,2.7,0.9c2.1,0.4,2.7,0.2,3.3-3.3c0.2-1,0.3-2,0.4-2.9
		c-4.9,2.6-10.8,4.2-16.4,4.9c-0.2,0-0.3,0-0.5,0c-0.5-0.1-1-0.5-1.1-1.1c0-0.2,0-0.4,0-0.6c0.1-0.6,0.6-1,1.2-1.1
		c5.4-0.4,11.6-2,16.7-4.8c-0.1-0.9-0.2-1.8-0.4-2.6L203.6,52z M220.1,39c2.1,0.4,2.9,1.4,2.6,3.4l-0.6,3.4c-0.1,0.7-0.7,1-1.6,0.8
		s-1.3-0.6-1.2-1.3l0.5-2.9c0.1-0.7-0.2-1-1-1.1L195.5,37c-0.8-0.1-1.2,0-1.3,0.7l-0.5,2.9c-0.1,0.7-0.8,1-1.6,0.8
		c-0.9-0.2-1.3-0.6-1.2-1.3l0.6-3.4c0.4-2,1.5-2.6,3.6-2.2l10.9,2l0.4-2.3c0.1-0.7,0.7-0.9,1.6-0.7c0.9,0.2,1.3,0.6,1.1,1.3
		l-0.4,2.3L220.1,39z"/>
	<path class="st9" d="M226.3,63.5c-0.5,0.5-1,0.8-1.5,0.7c-0.3-0.1-0.6-0.2-0.9-0.5c-0.4-0.4-0.5-0.8-0.5-1.3c0.1-0.3,0.2-0.7,0.5-1
		c3.3-3.7,6.6-8.4,9-13c-1.3-0.2-2.8-0.4-4.2-0.7c-0.4-0.1-0.9-0.2-1.4-0.3c-0.8-0.2-1.2-0.8-1-1.6c0.2-0.9,0.8-1.3,1.6-1.2
		c0.5,0.1,1,0.2,1.5,0.3c1.5,0.3,3.2,0.6,4.7,0.8c0.8-1.7,1.6-3.4,2.3-5.1c0.2-0.8,0.8-1.1,1.5-0.9c0.1,0,0.2,0,0.4,0.1
		c0.8,0.3,1.2,0.8,1,1.5c0,0.1-0.1,0.3-0.1,0.5c-0.6,1.4-1.2,2.9-1.9,4.4c1.8,0.2,3.5,0.4,5.1,0.4c0.1,0,0.2,0,0.3,0
		c0.7,0.1,1.1,0.6,1.1,1.4c0,0.1,0,0.1,0,0.2c-0.1,0.7-0.7,1.1-1.5,1.1c-1.9-0.1-4.1-0.3-6.3-0.5C233.3,54.1,229.9,59.3,226.3,63.5z
		 M253.3,69.4c0.3,0.4,0.4,0.9,0.3,1.3c-0.1,0.4-0.3,0.7-0.6,0.9c-0.4,0.3-0.8,0.4-1.1,0.3c-0.4-0.1-0.7-0.3-1-0.7
		c-1.1-1.7-2.6-3.5-4-4.6c0,0.4-0.1,0.9-0.2,1.2c-0.9,3.9-3.8,5.2-8.6,4.3c-4.5-0.8-7-3.8-6.4-7.1c0.6-3.4,4.2-5.4,8.6-4.5
		c1.5,0.3,2.9,0.8,4.3,1.4c0.2-2.1,0.5-4.9,0.9-7.3c0.2-1,0.9-1.4,1.7-1.2c0.9,0.2,1.4,0.7,1.2,1.7c-0.6,3.1-0.9,5.6-1.1,8.2
		C249.6,65.1,251.9,67.3,253.3,69.4z M240,63.1c-2.9-0.5-5,0.5-5.4,2.5c-0.4,2,1.2,3.4,4.1,4c3.1,0.6,4.9-0.3,5.4-2.8
		c0.1-0.6,0.2-1.1,0.3-1.8C243.1,64,241.5,63.4,240,63.1z M256,52.4c0.4,0.4,0.6,1,0.5,1.5c-0.1,0.3-0.2,0.6-0.4,0.8
		c-0.4,0.4-0.9,0.5-1.3,0.5c-0.3-0.1-0.6-0.2-0.8-0.5c-1.8-1.9-4.3-3.8-6.8-5.3c-0.4-0.3-0.6-0.7-0.5-1.2c0.1-0.3,0.2-0.6,0.4-0.8
		c0.4-0.4,0.9-0.6,1.5-0.5c0.2,0,0.4,0.1,0.6,0.2C251.6,48.6,254.2,50.7,256,52.4z"/>
	<path class="st9" d="M263.8,63.6c3.7-2.3,8.3-3.5,13.7-2.5c6.1,1.1,9.3,5.3,8.4,10c-1.1,5.7-6.8,8.3-15.6,6.7c-3-0.6-6-1.5-7.9-2.5
		c-0.6-0.3-1-0.9-0.9-1.7c0-0.1,0.1-0.3,0.1-0.4c0.3-0.7,0.9-0.9,1.5-0.8c0.2,0,0.3,0.1,0.5,0.2c1.8,0.9,4.6,1.8,7.2,2.3
		c6.6,1.2,11.2-0.4,12-4.4c0.5-2.7-1.4-5.7-6-6.5c-5-0.9-9.4,0.1-13,2.7c-0.8,0.5-1.4,0.8-2,0.6c-0.2,0-0.4-0.1-0.5-0.2
		c-0.8-0.3-1.2-0.9-1-2c0-0.1,0.1-0.3,0.1-0.4c1.1-3.7,2.6-7.5,4.1-10.8c0.3-0.7,0.9-1.1,1.6-1c0.1,0,0.2,0,0.3,0.1
		c0.7,0.2,1.1,0.8,1,1.4c0,0.1-0.1,0.3-0.1,0.4c-1.2,2.6-2.3,5.4-2.7,6.5c-0.3,0.8-0.5,1.5-0.9,2.2L263.8,63.6z M283.6,51.7
		c0.8,0.2,1.3,1,1.2,1.7c0,0.1,0,0.1,0,0.2c-0.3,0.8-1,1.3-1.9,1.1c0,0-0.1,0-0.1,0c-4.4-1.1-10.1-3.2-13.9-5
		c-0.6-0.3-0.9-0.9-0.8-1.6c0-0.2,0.1-0.3,0.2-0.5c0.3-0.6,0.9-1,1.5-0.9c0.1,0,0.3,0,0.4,0.1C273.6,48.6,279.3,50.5,283.6,51.7z"/>
	<path class="st14" d="M322,94.6c-2.3,0-4.6-0.2-7-0.7c-17.2-3.2-21.9-14-23.1-20.3c-0.3-1.4-0.3-2.8-0.1-4.2
		c0.9-4.6,4.6-7.8,9.6-8.2c0.4,0,0.8-0.1,1.2-0.1c0.7,0,1.4,0.1,2.1,0.2c4.3,0.8,7.3,3.8,8.3,8.1c0,0.1,0,0.1,0,0.2
		c0.3,1.5,0.6,3.2,5.8,4.2c0.8,0.1,1.5,0.2,2.2,0.2h0c3.8,0,4.2-2,4.3-2.7c0.2-1.3,0.6-3.4-5.8-4.6l-0.4-0.1l-3.8-0.6
		c-2.6-0.4-4.9-1.8-6.4-3.9c-1.6-2.3-2.2-5.2-1.7-8.2c0.4-2.3,1.5-4.3,3-5.8c-0.4,0-0.9-0.1-1.3-0.2c-1.4-0.3-2.5-0.8-3.4-1.2
		c-0.2-0.1-0.3-0.2-0.5-0.3c-4-2.4-6-6.4-5.2-10.5c0.3-1.4,0.8-2.7,1.6-3.9c4.6-7.2,11.7-11,20.7-11c2.1,0,4.4,0.2,6.7,0.7
		c14.6,2.7,23.1,13.4,20.7,26c-0.9,4.9-3,8.9-6.1,11.8c2.9,4.4,3.8,9.9,2.6,16.3C344.1,87.4,334.8,94.6,322,94.6z M323.6,46.6
		c0.7,0.1,1.3,0.2,1.9,0.2c2.6,0,3-1,3.2-2.4c0.2-0.9,0-1.2-0.2-1.3c-0.4-0.5-1.6-1.2-3.6-1.5c-0.7-0.1-1.4-0.2-2-0.2
		c-1.5,0-2.3,0.3-3.3,2c0,0.1-0.1,0.1-0.1,0.2c-0.4,0.7-1,1.3-1.5,1.8c0.4,0,0.9,0.1,1.3,0.2l3.7,0.8L323.6,46.6z"/>
	<path class="st2" d="M316.5,59c-1.8-0.3-2.5-2-2.1-3.7c0.3-1.7,1.5-3.1,3.3-2.7l3.9,0.9c0.2,0,0.5,0.1,0.7,0.1
		c7.2,1.3,12.3-1.6,13.5-7.9c1.1-5.7-2.6-9.9-9.5-11.2c-6.4-1.2-10.2,0.9-12.8,5.1c-0.8,1.3-2,1.6-3.2,1.3c-0.5-0.1-1.1-0.3-1.5-0.6
		c-1.3-0.8-2-1.8-1.8-3.1c0.1-0.4,0.2-0.8,0.5-1.3c3.2-5,8.9-9.3,20.1-7.2c10.6,2,16.6,8.9,15,17.7c-1.3,7.2-5.7,11.1-13.1,11.5
		c8.1,2.7,11.2,8.4,9.7,16.7c-1.8,9.5-10.4,14.6-23,12.3c-10.9-2-16-7.7-17.4-14.7c-0.1-0.5-0.1-1,0-1.4c0.3-1.4,1.5-2.3,3.1-2.4
		c0.5-0.1,1,0,1.4,0c1.4,0.3,2.3,1,2.6,2.6c1,5.1,4.1,8.5,11.5,9.9c7.5,1.4,13.7-1.6,14.9-8.2c1.3-6.8-2.9-11.4-11.5-13
		c-0.1,0-0.3-0.1-0.4-0.1L316.5,59z"/>
	<path class="st14" d="M380.2,105.9c-0.5,0-1.1,0-1.6-0.1c-1.5-0.3-3-1-4.2-2c-0.1-0.1-0.1-0.1-0.2-0.2c-3.5-3.1-6.3-6.7-8.3-10.6
		c-3.3,2.9-7.2,5.2-11.8,7c-0.1,0-0.2,0.1-0.3,0.1c-1,0.3-2,0.5-3,0.5c-0.5,0-1.1,0-1.6-0.1c-3.2-0.6-5.8-2.9-6.7-6
		c-0.5-1.5-0.6-3-0.3-4.4c0.6-3.2,2.9-5.8,6.1-6.7c3.6-1.1,6.8-3.4,8.9-6.3c2.4-3.4,3.8-6.2,5.1-13.3c0.7-4,4.2-6.8,8.4-6.8
		c0.6,0,1.2,0.1,1.8,0.2c4.8,0.9,7.9,5.2,7,9.9c-1.3,7-1,9.9,0.1,13.8c1,3.4,3.5,7.1,6.5,9.6c2.4,1.9,3.5,5.1,2.9,8.3
		c-0.3,1.5-1,3-2,4.2c-0.1,0.1-0.2,0.3-0.4,0.4C384.8,104.9,382.6,105.9,380.2,105.9z"/>
	<path class="st2" d="M351.4,93.3c-0.4,0.1-0.7,0.2-1,0.1c-0.5-0.1-1-0.4-1.2-1.1c-0.1-0.4-0.2-0.7-0.1-1c0.1-0.5,0.5-1,1.1-1.2
		c5.4-1.7,9.8-5,12.6-9c3.1-4.4,4.9-8.2,6.3-16.2c0.1-0.8,0.9-1.1,1.8-0.9c0.8,0.2,1.4,0.7,1.3,1.5c-1.5,7.9-1.2,11.9,0.3,17.1
		c1.3,4.6,4.6,9.6,8.9,13.2c0.4,0.3,0.5,0.8,0.4,1.4c-0.1,0.3-0.2,0.7-0.5,1c-0.5,0.5-1,0.6-1.5,0.5c-0.3-0.1-0.7-0.2-1-0.5
		c-5.6-5-10.1-12.6-10.1-22.1C365.2,85.5,359,90.3,351.4,93.3z"/>
	<path class="st9" d="M395.4,84.3c-0.7-0.1-1-0.7-0.8-1.5c0.1-0.8,0.6-1.2,1.3-1.1l15,2.8c2.6,0.5,3.6,1.6,3.2,4
		c-1,5.2-2.4,10-3.7,12.6c-1.2,2.3-2.7,3-5.3,2.5c-1.8-0.3-3.1-0.7-4.2-1.3c-0.7-0.4-0.9-1-0.8-1.5c0-0.1,0.1-0.3,0.2-0.4
		c0.3-0.7,0.9-1,1.4-0.9c0.2,0,0.4,0.1,0.5,0.2c0.8,0.4,1.9,0.9,3,1.1c1.4,0.3,2.2,0,2.8-1.2c1.1-2.1,2.4-6.6,3.3-11.3
		c0.1-0.8-0.3-1-1-1.2l-7.3-1.4c-2.1,8.2-7.1,13-14.3,15.2c-0.4,0.1-0.7,0.1-1,0.1c-0.5-0.1-0.9-0.4-1.1-0.9
		c-0.1-0.3-0.2-0.6-0.1-0.9c0.1-0.5,0.4-1,1-1.1c2.5-0.8,4.8-1.8,6.9-3.4c3-2.4,4.7-5.8,5.7-9.5L395.4,84.3z M403.7,71.7
		c0,0.2-0.1,0.4-0.3,0.6c-3.3,4.8-8.6,9.1-13.7,11.6c-0.3,0.2-0.8,0.2-1.1,0.2c-0.4-0.1-0.8-0.3-1-0.7c-0.2-0.3-0.2-0.7-0.2-1.1
		c0.1-0.5,0.3-0.9,0.8-1c5-2.2,9.7-6.1,12.7-10.6c0.4-0.5,0.8-0.7,1.4-0.6c0.3,0,0.5,0.2,0.7,0.3C403.6,70.7,403.8,71.2,403.7,71.7z
		 M411.5,71.6c0.5,0.1,0.8,0.5,1,1c1.3,5.3,4.3,10.7,8.4,14.5c0.4,0.4,0.5,0.9,0.4,1.4c-0.1,0.3-0.2,0.6-0.4,0.8
		c-0.4,0.4-0.9,0.5-1.4,0.4c-0.3-0.1-0.7-0.2-1-0.6c-4.1-4.2-7.4-10.1-8.9-15.9c-0.1-0.2-0.1-0.5,0-0.7c0.1-0.5,0.5-0.9,1.1-1
		C411,71.6,411.3,71.6,411.5,71.6z"/>
	<path class="st9" d="M434.1,86.3c-0.2,0.7-0.3,1.4-0.4,1.8c-0.1,0.5-0.2,1-0.4,1.7c0.4-0.4,0.8-0.7,1.1-0.9
		c5.6-3.7,9.3-4.8,12.8-4.1c5.2,1,7.5,5.6,6.2,13.1c-0.4,2-1,4.2-1.7,5.7c1.1,1.2,2.2,2.7,2.9,4c0.2,0.3,0.3,0.7,0.2,1.1
		c-0.1,0.4-0.3,0.7-0.6,1c-0.3,0.3-0.7,0.4-1.1,0.3c-0.4-0.1-0.8-0.3-0.9-0.7c-0.6-1-1.2-2.1-2-3c-2.1,2.9-5.1,3.8-8.5,3.2
		c-3.8-0.7-6.2-3.5-5.7-6.6s3.7-5,7.6-4.3c2,0.4,4.1,1.5,5.7,2.9c0.5-1.3,0.8-2.7,1.1-4.2c1-5.3-0.4-8.9-3.9-9.6
		c-3-0.6-6.5,0.3-13.7,5.6c-0.8,4.6-1.6,9.1-2.5,13.9c-0.2,0.8-0.9,1.2-1.7,1.1c-0.8-0.1-1.3-0.8-1.2-1.6c0.2-0.9,0.4-1.9,0.5-2.8
		c0.4-2.3,0.9-4.5,1.2-6.3c0.1-0.8,0.3-1.5,0.6-2.3c-0.4,0.5-1.1,1.1-1.5,1.5c-1.3,1.1-2.8,2.5-4,3.5c-0.4,0.3-0.8,0.4-1.2,0.3
		c-0.4-0.1-0.7-0.3-0.9-0.6c-0.3-0.4-0.3-0.8-0.3-1.2s0.3-0.7,0.6-1c2-1.7,4.8-4,7.8-6.2c0.4-2,0.8-3.9,1.2-5.9
		c-1.6-0.2-3.6-0.4-5.2-0.5c0,0-0.1,0-0.1,0c-0.7-0.1-1.1-0.8-1-1.5c0,0,0-0.1,0-0.1c0.1-0.8,0.7-1.3,1.4-1.2
		c1.8,0.1,3.8,0.3,5.4,0.5c0.4-1.7,0.8-3.5,1.2-5.3c0.2-0.9,0.8-1.2,1.6-1c0,0,0.1,0,0.1,0c0.8,0.2,1.2,0.7,1.1,1.5c0,0,0,0.1,0,0.1
		c-0.4,1.7-0.8,3.4-1.2,5c0.8,0.1,1.2,0.8,1,1.4c-0.1,0.4-0.3,0.8-0.8,1.1L434.1,86.3z M443,101c-2.3-0.4-4,0.6-4.3,2.3
		c-0.3,1.5,1.1,3,3.2,3.4c2.5,0.5,4.8-0.2,6.2-2.8C446.6,102.3,445,101.4,443,101z"/>
	<path class="st9" d="M469.4,111.4c-0.3,1.5-1.6,2.3-2.9,2c-1.4-0.3-2.3-1.4-2-2.9c0.3-1.5,1.5-2.3,2.9-2
		C468.7,108.7,469.6,109.9,469.4,111.4z M469.5,86.3c0.2-1,1.1-1.5,2.3-1.3c1.1,0.2,1.8,1,1.6,2l-3.9,18.3c-0.2,0.8-0.9,1.1-1.7,1
		c-0.8-0.1-1.4-0.7-1.2-1.5L469.5,86.3z"/>
</g>
<circle class="st0" cx="135.6" cy="222.7" r="64"/>
<circle class="st0" cx="194.3" cy="369.3" r="55.9"/>
<g>
	<g>
		<path class="st15" d="M181.7,192.2c-0.5-2.2-1.5-3.5-3.3-3.7c-0.7,0.3-1.6,0.5-2.1,0.7c-1.3,0.6-2.6,1.3-3.9,1.9
			c-0.3,0.2-2.1,0.6-2.2,0c-1.2-8.8-2.4-17.6-3.7-26.5c-0.1-0.4,0-0.9-0.2-1.3c-0.1,0-0.2-0.1-0.4-0.1c-2.1-0.8-4.4-1.2-6.6-1.9
			c-3.1-0.9-6.2-1.8-9.4-2.7c0.4,0.5,0.8,1,1.2,1.5c0.4,0.6-1.5,0.8-1.7,0.8c-8.4-0.6-19.2-1-26.9-5.4c-0.9,2.6-1.7,5.2-2.5,7.7
			c-4.2,13.8-8.2,29.5-6,44c0.9,5.9,3.4,12.4,9.4,14.9c2.3,1,5.1,0.7,7.5,0.8c4.5,0.2,9,0.5,13.5,0.2c0.1,0,1,0,1,0.3
			c-0.2,0.8-0.3,1.7-0.5,2.5c0,0.2-0.1,0.4-0.1,0.7c0,0,0,0.1,0,0.1c-0.1,0.6-0.3,1.2-0.4,1.9c1.4,0.3,2.8,0.4,4.2,0.2
			c0.3-0.6,0.7-1.2,1-1.8c0-0.1,0.1-0.1,0.1-0.2c0-0.1-0.1-0.2-0.1-0.3c0-0.2-0.1-0.3-0.1-0.5c-0.2-0.8-0.4-1.7-0.6-2.5
			c-0.1-0.5,1.3-0.7,1.5-0.7c5.2-0.2,12.2-0.2,16.8-2.9c6.3-3.7,4.9-13.7,4.9-19.8c0-0.7,1.6-0.7,2.1-0.6c2.6,0.6,6.1,0.8,7.3-2.1
			C182.1,196,182,193.7,181.7,192.2z"/>
		<path class="st15" d="M93,206.1c-0.9-1.6-1.1-4-1.5-5.7c-0.9-3.2-1.7-6.3-2.8-9.5c-0.3-0.8-0.5-1.9-1-2.5c-1.2-1.4-4.1-1-4.4,1
			c-0.3,1.4,0.8,4,1,5.4c1,4.6,2,9.2,3.2,13.8c0.1,0,0.2,0,0.3,0.1c0.1,0,0.2,0,0.2,0.1c2.1,1.1,4.5,3,6,5.3
			c1.8,0.2,3.6,0.7,5.2,1.4c0.8,0.4-1.7,1.1-2.3,0.8c-0.7-0.3-1.4-0.6-2.2-0.8c-1-0.3-2-0.5-3-0.5c-0.2,0-0.5,0-0.7,0
			c-2.5,0.2-7.1,3.1-3.7,5.2c1.4-0.1,2.6,0.1,4,0.4c0,0,0.1,0,0.2,0c0.1,0,0.2,0,0.3,0c0.2,0,0.5,0,0.7,0c0.6,0,1.3,0.1,1.9,0.1
			c0,0,0,0,0,0c1.4,0.1,0.2,0.8-0.7,1c-1.6,1.9-4,3.8-5.5,4.9c-2.2,1.7-4.7,2.7-7.5,3c0,0,0,0,0,0c0.7,0.6,1.5,1.3,2.2,1.9
			c2.7,2.1,4.6,2.8,7.9,1.5c3.3-1.4,7-3.1,9-6.1c0,0,0-0.1,0.1-0.1c0,0,0,0,0,0c4.1-4,1.1-12.5-2.2-15.8
			C96.3,209.4,94,207.8,93,206.1z"/>
		<path class="st15" d="M85.4,226.8c2-1.4,3.9-3.4,5.6-5.2c0,0,0,0,0,0c-1.6-0.1-3.1-0.3-4.6-0.3c-1.9,0-3.9-1.8-2.7-3.8
			c1.4-2.3,4.7-3.3,7.4-3.6c-1.1-1.6-2.7-3-4.4-4c-0.1-0.1-0.3-0.2-0.4-0.2c-0.9,0.2-1.9,0.6-2.9,1.1c-3.6,1.8-7.3,4.9-8.8,8.1
			c-1.1,2.2-0.4,4.3,1.1,6.1c0,0.1,0.1,0.1,0.1,0.1c0.9,1.1,1.9,1.9,2.9,2.4C80.7,228.6,83,228.5,85.4,226.8z"/>
	</g>
	<g>
		<path class="st16" d="M149.2,233.6c0.4,0,0.7,0.1,1.1,0.2c1.1,0.4,1.9,1.3,3,1.9c0.3,0.1,0.5,0.3,0.8,0.4c0.5-2.7,0.8-5.8-0.4-8
			c-0.3-0.6-0.8-1.1-1.3-1.6c0,0.1-0.1,0.2-0.1,0.3c0,0.1-0.1,0.1-0.1,0.2c0,0,0,0,0,0c0,0.1-0.1,0.1-0.1,0.2
			c-0.2,0.4-0.4,0.7-0.6,1.1c-0.1,0.2-0.3,0.5-0.4,0.7c-0.2,0.3-0.3,0.5-0.5,0.8c-0.1,0.2-0.2,0.4-0.4,0.6c-0.5,0.9-1.1,1.7-1.6,2.6
			c-0.1,0.2-0.3,0.4-0.4,0.6c0,0.1-0.1,0.1-0.1,0.2C148.4,233.5,148.8,233.5,149.2,233.6z"/>
		<path class="st16" d="M135.7,238.2c-0.1-2.5-0.2-5.2,0.4-7.6c-2.5,1.5-5.1,2.9-7.7,4.1c-4,1.8-8.4,3.5-12.8,3.8
			c-4.4,0.2-8.4-4.2-11.2-7.1c-1.1-1.1-2.1-2.3-3.1-3.5c-2,2.3-4.8,3.7-7.5,5c-1.4,0.6-2.9,1.4-4.5,1.8c1.1,1.1,2.2,2.2,3.3,3.2
			c5.6,4.9,12,8.7,18.7,11.9c1.4,0.7,2.8,1.5,4.4,1.5c2,0,4.4-0.9,6.3-1.7c1.3-0.5,2.9-1.1,4-2.1c0.3-0.3,2.5-0.8,2.3,0
			c-2.4,9.1-1.9,19.3,1,28.2c4.9,0,9.8,0,14.6,0c-1-13.5-0.2-27.2,0.9-40.6c0-0.1,0.1-0.2,0.2-0.3c-2.5,0.4-4.8,1.8-6.9,3.2
			C137.7,238.3,135.7,238.9,135.7,238.2z"/>
		<path class="st16" d="M143.4,234.3c0.1,0,0.2-0.1,0.4-0.1c-0.6-0.9-1-1.9-1.5-2.9c-0.2-0.4-0.3-0.8-0.5-1.2c0,0,0,0,0,0
			c-0.2-0.5-0.4-1.1-0.5-1.6c-0.1-0.2-0.2-0.5-0.2-0.7c-0.1-0.2-0.1-0.4-0.2-0.6c-0.1-0.2-0.1-0.4-0.2-0.6c-0.3,0.3-0.6,0.5-0.8,0.9
			c-0.3,0.4-0.6,0.9-0.8,1.4c0,0,0,0.1-0.1,0.1c-0.9,2.2-0.9,5.1-0.8,7.5C139.8,235.5,141.5,234.7,143.4,234.3z"/>
		<path class="st16" d="M173.7,247c-4-6.6-10.6-11.9-16.8-16.6c0.2,2.1-0.2,4.5-0.7,6.7c-0.1,0.6-1.7,0.6-2,0.5
			c-0.9-0.3-1.9-0.6-2.7-1c-1.4-0.7-2.8-2.3-4.4-1.9c0.1,0.1,0.2,0.1,0.1,0.2c-1.1,13.6-1.9,27.4-0.9,41c6,0,11.9,0,17.9,0
			c2.5-10.5,1.8-22.2-1.1-32.6c-0.2-0.6,2.3-1,2.5-0.3c2.2,8,3.2,16.7,2.3,25.1C174,262.5,178.4,254.8,173.7,247z"/>
	</g>
	<path class="st17" d="M161.7,147.9c-7.8-2.5-16.1-4.2-24.3-4.4c-5.6-0.1-14.1,0.3-16.3,6.6c-0.6,1.4,1.3,3.1,2.4,3.8
		c2.6,1.8,5.8,2.6,8.8,3.4c5.2,1.3,10.6,1.9,15.9,2.3c-0.6-0.7-1.1-1.5-1.7-2.2c-0.5-0.6,1.7-0.8,2-0.7c6.7,1.9,13.3,3.8,20,5.6
		c0.1,0,0.4,0.1,0.4,0.3c1.2,8.9,2.5,17.9,3.7,26.8c1.6-0.9,3.5-2,5-2.2c0-0.1,0-0.2,0-0.3c-0.1-0.5,0.2-1.5,0.3-2
		c0.2-1.9,0.4-3.8,0.5-5.8c0.3-4.4,0.4-8.8,0.2-13.2c-0.2-3.2-0.1-7.6-2-10.3C173.8,151.4,166.3,149.4,161.7,147.9z"/>
	<path class="st9" d="M145.9,233.2c0.7-1,1.3-2,1.9-3c-1.1,0-2.2,0-3.4,0C144.8,231.3,145.3,232.3,145.9,233.2z"/>
	<g>
		<path class="st17" d="M152.3,170.4c-1.8-0.3-3.8,0.1-5.6,0.4c-2.4,0.5-7.5,1.3-5.1,4.9c0.2,0.3,1,0.2,1.6,0c0,0,0.1,0,0.1,0
			c3-1.2,6.3-2.4,9.6-2.4c0.2,0,1.5-0.2,1.3-0.6C153.7,171.4,153.8,170.7,152.3,170.4z"/>
		<path class="st17" d="M129,174.9c0.4,0,0.8-0.2,1-0.3c2.8-3.1-1.6-4.5-4-5.3c-1.4-0.5-2.9-0.8-4.4-0.6c-1.5,0.2-1.7,0.9-2.3,2.1
			c-0.1,0.2,0.2,0.4,0.4,0.4c2.9,0.5,5.7,2.1,8.2,3.7C128.1,175,128.6,175,129,174.9z"/>
		<path class="st17" d="M146.4,186.2c1.6,0,2.3-1.1,2.3-2.5c0-1.4-0.7-2.9-2.4-2.8c-1.3,0.1-2.5,1.1-2.7,2.5c0,0.8,0.2,2,0.9,2.5
			C145.1,186.1,145.8,186.2,146.4,186.2z"/>
		<path class="st17" d="M128.3,183.3c0-1.4-0.7-2.9-2.4-2.8c-1.3,0.1-2.5,1.1-2.7,2.5c0,0.8,0.2,2,0.9,2.5c0.5,0.3,1.2,0.4,1.8,0.4
			C127.5,185.8,128.2,184.8,128.3,183.3z"/>
		<path class="st17" d="M135.1,194.8c-1.8,0.1-6.4,0.7-6.8-1.8c-0.2-1.3,1-2.7,2.2-2.8c0.5,0,1,0.3,1.5,0.5c0.5,0.3,2.1,0.2,2.3-0.6
			c0.5-2.7,0.9-5.3,1.2-8c0.1-0.5-2.4-0.4-2.5,0.3c-0.3,2.3-0.6,4.5-1,6.8c-2.2-0.4-4.6,0.2-5.6,2.1c-2.6,4.9,5.7,4.4,8.3,4.3
			C135.6,195.7,136.8,194.7,135.1,194.8z"/>
		<path class="st17" d="M153.3,196.9c-1.3-0.1-2.5-0.2-3.8-0.3c-0.5,0-1.3,0-1.7,0.4c-0.3,0.4,0.2,0.5,0.5,0.6c1,0.1,2,0.2,3.1,0.3
			c-0.1,1.1-0.2,2.2-0.2,3.3c0,0.5,2.4,0.4,2.5-0.3c0.1-1.2,0.2-2.4,0.3-3.6C154,197,153.5,196.9,153.3,196.9z"/>
		<path class="st17" d="M147.4,200.5c-0.5,0-1.1,0.1-1.5,0.5c-1,1.3-3.1,2.6-5,2.9c-0.3,0-1.2,0.2-1.2,0.6c0.1,0.4,1.1,0.3,1.3,0.3
			c2.8-0.4,5.5-1.7,7.3-3.9C148.7,200.6,147.6,200.5,147.4,200.5z"/>
	</g>
	<g>
		<path class="st17" d="M131.2,246c0,0-0.1,0-0.1,0c-0.5,0-1.1,0.2-1.1,0.5c-0.4,2.6-0.4,5.2,0,7.8c0,0.3,0.6,0.3,0.8,0.3
			c3,0,6.1,0,9.1,0c0.3,0,1.3-0.1,1.3-0.6c0-1.2,0-2.4,0-3.5c0-1.1,0.1-3.2-0.6-4.1c-0.6-0.8-2.2-0.6-3.1-0.6
			C135.4,245.8,133.3,245.8,131.2,246z M138.8,247.6c0.4,2,0.4,4.1,0.3,6.2c-2.4,0-4.7,0-7.1,0c-0.3-2.3-0.4-4.7,0-7
			c1.3-0.1,2.5-0.1,3.8-0.1c0.6,0,1.8-0.2,2.4,0C138.7,246.9,138.7,247,138.8,247.6z"/>
		<path class="st17" d="M151.2,245.8c-0.5,0-1.1,0.2-1.1,0.5c-0.4,2.6-0.4,5.2,0,7.8c0,0.3,0.6,0.3,0.8,0.3c3,0,6.1,0,9.1,0
			c0.3,0,1.3-0.1,1.3-0.6c0-1.4,0-2.7,0-4.1c0-1,0.1-3.3-0.9-3.9c-1.1-0.7-3.4-0.3-4.6-0.3c-1.5,0-2.9,0.1-4.4,0.2
			C151.3,245.7,151.2,245.7,151.2,245.8z M152.1,246.5c0.7,0,1.4-0.1,2-0.1c0.9,0,3.8-0.5,4.5,0.1c0.7,0.7,0.5,3.3,0.6,4.2
			c0,0.9,0,1.9,0,2.8c-2.4,0-4.7,0-7.1,0C151.8,251.2,151.7,248.8,152.1,246.5z"/>
		<path class="st17" d="M181.9,188.1c-0.6-0.4-1.3-0.7-2-0.8c0.8-1.6,0.6-5.2,0.7-6.6c0.4-5,0.6-10,0.3-15.1
			c-0.2-3.3-0.1-7.9-2.2-10.7c-3.4-4.7-11.5-6.8-16.6-8.3c-8.4-2.6-17.4-4.3-26.2-4.1c-6,0.1-15.1,1-17.4,7.7c-0.6,1.5,0.8,3,2,4
			c-3.5,9.5-6.1,19.4-7.9,29.4c-2,11.5-5.1,32.1,7.7,38.8c2.7,1.4,5.6,1.3,8.6,1.4c4.6,0.2,9.2,0.5,13.8,0.3
			c-0.1,0.3-0.1,0.6-0.2,0.9c-0.4-0.3-1.5-0.1-1.8,0.1c-2,0.7-3.3,1.9-4,3.4c-2.7,1.8-5.5,3.4-8.4,4.8c-3.3,1.6-6.9,3.2-10.5,3.9
			c-4,0.8-7.1-2.4-9.9-5c-1.9-1.9-3.8-3.9-5.4-6.1c1.1-1.6,1.5-3.8,1.4-5.7c-0.1-4.5-1.7-7.9-4.8-10.9c-1.8-1.8-3.6-3.1-4.3-5.5
			c-1-3.9-2.1-7.8-3.3-11.7c-0.7-2.3-1.1-4.6-3.5-5.6c-2.4-1-6.2-0.4-7.3,2.3c-0.7,1.7,0.4,4.3,0.7,6.1c0.5,2.5,1.1,5.1,1.7,7.6
			c0.4,1.8,0.9,3.6,1.3,5.4c0.1,0.5,0.1,0.8,0.1,1c-4.9,1.5-9.8,5.1-12.5,9.3c-2.3,3.7,0.7,8.5,4.5,10.3c2.6,2.8,6,5.7,9.6,6.1
			c0.1,0,0.2,0,0.3,0c6.4,6.9,14.8,11.9,23.3,15.9c1.3,0.6,2.7,1.5,4.2,1.6c2.2,0.1,5-0.9,7.1-1.6c1.3-0.4,2.8-0.9,4.1-1.5
			c-2,8.8-1.3,18.5,1.4,27.1c0.1,0.3,0.7,0.3,1,0.3c12.4,0,24.8,0,37.2,0c0.3,0,1.4-0.1,1.5-0.5c0.5-2.1,0.9-4.3,1.2-6.6
			c0.4,0,0.7-0.1,0.9-0.3c5.7-4.6,11.5-11.5,9.1-19.3c-2.2-7.1-9.2-12.6-14.7-17.3c-2.3-1.9-4.6-4-7.1-5.7c-0.6-1-1.6-1.8-3-2.5
			c-0.3-0.1-0.7-0.2-1.2-0.1c-0.1-0.3-0.1-0.6-0.2-0.9c5.6-0.2,12.1-0.6,17-3.1c7-3.6,6.2-13,6-19.8c3.8,0.4,8.5-0.2,9.5-4.2
			C184.8,193.8,184.5,189.8,181.9,188.1z M121.1,150.2c2.2-6.4,10.7-6.7,16.3-6.6c8.2,0.2,16.5,1.9,24.3,4.4
			c4.6,1.5,12,3.5,14.9,7.8c1.8,2.7,1.8,7.2,2,10.3c0.2,4.4,0.1,8.8-0.2,13.2c-0.1,1.9-0.3,3.8-0.5,5.8c-0.1,0.5-0.4,1.5-0.3,2
			c0,0.1,0,0.2,0,0.3c0,0,0,0,0,0c-1.2,0.2-2.5,0.8-3.7,1.5c-0.4,0.2-0.8,0.4-1.2,0.7c0,0-0.1,0-0.1,0.1c-1.2-8.9-2.5-17.9-3.7-26.8
			c0-0.2-0.3-0.2-0.4-0.3c-6.7-1.9-13.3-3.8-20-5.6c-0.3-0.1-2.5,0.1-2,0.7c0.6,0.7,1.1,1.5,1.7,2.2c-5.3-0.5-10.7-1.1-15.9-2.3
			c-3-0.7-6.2-1.6-8.8-3.4c-0.1,0-0.1-0.1-0.2-0.2c-0.3-0.2-0.6-0.5-0.9-0.8c-0.3-0.3-0.5-0.5-0.7-0.8
			C121.1,151.6,120.8,150.9,121.1,150.2z M138.9,229c0,0,0-0.1,0.1-0.1c0.2-0.5,0.5-1,0.8-1.4c0.2-0.3,0.5-0.6,0.8-0.9
			c0.1,0.2,0.1,0.4,0.2,0.6c0.1,0.2,0.1,0.4,0.2,0.6c0.1,0.2,0.2,0.5,0.2,0.7c0.2,0.5,0.3,1.1,0.5,1.6c0,0,0,0,0,0
			c0.2,0.4,0.3,0.8,0.5,1.2c0.4,1,0.9,2,1.5,2.9c-0.1,0-0.2,0.1-0.4,0.1c-1.9,0.5-3.6,1.3-5.3,2.2C138,234.1,138,231.2,138.9,229z
			 M75.7,225.1c0,0-0.1-0.1-0.1-0.1c-1.5-1.8-2.2-3.9-1.1-6.1c1.5-3.1,5.2-6.3,8.8-8.1c1-0.5,2-0.9,2.9-1.1c0.1,0.1,0.3,0.2,0.4,0.2
			c1.7,1,3.3,2.4,4.4,4c-2.7,0.2-6.1,1.3-7.4,3.6c-1.2,2,0.8,3.7,2.7,3.8c1.5,0,3.1,0.2,4.6,0.3c0,0,0,0,0,0
			c-1.6,1.9-3.5,3.8-5.6,5.2c-2.4,1.7-4.7,1.8-6.8,0.7C77.5,227,76.6,226.2,75.7,225.1z M86.8,233.5c-0.7-0.1-1.4-0.4-2.1-0.9
			c-0.6-0.3-1.1-0.7-1.7-1.2c-0.8-0.6-1.5-1.2-2.2-1.9c0,0,0,0,0,0c2.8-0.3,5.3-1.3,7.5-3c1.4-1.1,3.9-3,5.5-4.9
			c0.9-0.2,2.1-0.9,0.7-1c0,0,0,0,0,0c-0.6,0-1.3-0.1-1.9-0.1c-0.2,0-0.5,0-0.7,0c-0.1,0-0.2,0-0.3,0c-0.1,0-0.2,0-0.2,0
			c-1.4-0.3-2.6-0.5-4-0.4c-3.4-2.1,1.2-5,3.7-5.2c0.2,0,0.5,0,0.7,0c1,0,2,0.2,3,0.5c0.8,0.2,1.5,0.5,2.2,0.8
			c0.6,0.3,3.1-0.4,2.3-0.8c-1.6-0.8-3.4-1.3-5.2-1.4c-1.5-2.3-3.9-4.2-6-5.3c-0.1,0-0.1,0-0.2-0.1c-0.1,0-0.2-0.1-0.3-0.1
			c-1.1-4.6-2.2-9.2-3.2-13.8c-0.3-1.4-1.3-4-1-5.4c0.4-2,3.2-2.4,4.4-1c0.5,0.6,0.8,1.7,1,2.5c1.1,3.1,1.9,6.3,2.8,9.5
			c0.5,1.7,0.7,4.1,1.5,5.7c1,1.7,3.3,3.4,4.7,4.8c2.7,2.8,5.3,9.1,3.7,13.5c-0.1,0.4-0.3,0.8-0.5,1.1c-0.2,0.3-0.4,0.6-0.7,0.9
			c-0.1,0.1-0.2,0.2-0.3,0.3c0,0,0,0,0,0c0,0-0.1,0.1-0.1,0.1c-2,3-5.7,4.8-9,6.1c-0.9,0.4-1.8,0.6-2.5,0.7
			C87.8,233.6,87.3,233.6,86.8,233.5z M144.7,235.2c-1.1,13.4-1.9,27.2-0.9,40.6c-4.9,0-9.8,0-14.6,0c-2.8-9-3.4-19.2-1-28.2
			c0.2-0.8-2-0.3-2.3,0c-1.1,1-2.6,1.5-4,2.1c-1.9,0.7-4.2,1.6-6.3,1.7c-1.6,0-2.9-0.8-4.4-1.5c-6.7-3.2-13.1-7-18.7-11.9
			c-1.2-1-2.3-2.1-3.3-3.2c1.6-0.4,3.1-1.2,4.5-1.8c2.7-1.2,5.5-2.7,7.5-5c1,1.2,2,2.4,3.1,3.5c2.8,2.9,6.8,7.3,11.2,7.1
			c4.4-0.2,8.8-2,12.8-3.8c2.7-1.2,5.2-2.6,7.7-4.1c-0.6,2.4-0.5,5.1-0.4,7.6c0,0.7,2.1,0.1,2.3-0.1c2.1-1.4,4.4-2.8,6.9-3.2
			C144.8,235,144.8,235.1,144.7,235.2z M144.4,230.2c1.1,0,2.2,0,3.4,0c-0.6,1-1.2,2.1-1.9,3C145.3,232.3,144.8,231.3,144.4,230.2z
			 M156.3,237.1c0.5-2.2,0.9-4.5,0.7-6.7c6.1,4.7,12.8,10,16.8,16.6c4.7,7.8,0.3,15.4-5.8,21c0.8-8.4-0.1-17.1-2.3-25.1
			c-0.2-0.7-2.6-0.2-2.5,0.3c2.9,10.4,3.6,22.1,1.1,32.6c-6,0-11.9,0-17.9,0c-1-13.6-0.2-27.4,0.9-41c0-0.1-0.1-0.1-0.1-0.2
			c1.6-0.4,3.1,1.2,4.4,1.9c0.9,0.4,1.8,0.8,2.7,1C154.6,237.7,156.2,237.6,156.3,237.1z M152,227c0-0.1,0.1-0.1,0.1-0.2
			c0,0,0,0,0,0c0-0.1,0.1-0.1,0.1-0.2c0-0.1,0.1-0.2,0.1-0.3c0.6,0.5,1,1,1.3,1.6c1.2,2.3,1,5.3,0.4,8c-0.3-0.1-0.5-0.2-0.8-0.4
			c-1.1-0.6-1.8-1.5-3-1.9c-0.3-0.1-0.7-0.2-1.1-0.2c-0.4,0-0.8,0-1.3,0c0-0.1,0.1-0.1,0.1-0.2c0.1-0.2,0.3-0.4,0.4-0.6
			c0.6-0.8,1.1-1.7,1.6-2.6c0.1-0.2,0.2-0.4,0.4-0.6c0.2-0.3,0.3-0.5,0.5-0.8c0.1-0.2,0.3-0.5,0.4-0.7
			C151.6,227.7,151.8,227.3,152,227z M181.5,197.5c-1.2,2.9-4.7,2.7-7.3,2.1c-0.4-0.1-2.1-0.1-2.1,0.6c0,6.1,1.4,16-4.9,19.8
			c-4.6,2.7-11.6,2.7-16.8,2.9c-0.2,0-1.6,0.2-1.5,0.7c0.2,0.8,0.4,1.7,0.6,2.5c0,0.2,0.1,0.3,0.1,0.5c0,0.1,0.1,0.2,0.1,0.3
			c0,0.1-0.1,0.1-0.1,0.2c-0.3,0.6-0.7,1.2-1,1.8c-1.3,0.1-2.8,0-4.2-0.2c0.1-0.6,0.2-1.2,0.4-1.7c0,0,0-0.1,0-0.1
			c0.2-1.1,0.4-2.2,0.7-3.3c0.1-0.3-0.9-0.3-1-0.3c-4.5,0.3-9,0.1-13.5-0.2c-2.5-0.1-5.2,0.1-7.5-0.8c-5.9-2.5-8.5-8.9-9.4-14.9
			c-2.2-14.5,1.9-30.2,6-44c0.8-2.6,1.6-5.2,2.5-7.7c7.7,4.4,18.5,4.7,26.9,5.4c0.3,0,2.2-0.2,1.7-0.8c-0.4-0.5-0.8-1-1.2-1.5
			c3.1,0.9,6.2,1.8,9.4,2.7c2.2,0.6,4.5,1,6.6,1.9c0.2,0.1,0.3,0.1,0.4,0.1c0.1,0.4,0.1,1,0.2,1.3c1.2,8.8,2.4,17.6,3.7,26.5
			c0.1,0.7,1.8,0.2,2.2,0c1.3-0.7,2.6-1.3,3.9-1.9c0.5-0.2,1.4-0.4,2.1-0.7c1.7,0.2,2.8,1.5,3.3,3.7
			C182,193.7,182.1,196,181.5,197.5z"/>
	</g>
</g>
<g>
	<g>
		<path class="st18" d="M208.7,340.2c0.2-0.1,0.4-0.2,0.6-0.3c0.3-0.1,0.5-0.3,0.7-0.4c1.6-1.1,2.3-2.9,0.9-5
			c-0.4-0.6-0.9-1-1.3-1.2c-1.7-0.1-2.8,2.5-4.5,1.5c-1.1-0.6-1.8-2.8-2.4-3.9c-1.1-2.1-2.1-4.1-3.1-6.2c-0.3-0.5-0.5-1.6-0.9-2
			c-0.7-0.7-3.2-0.4-4.4-0.5c-10.8-0.9-21.8-2.4-32.3-5c-3.8,6.6-6.4,14.5-6.4,22.1c0,0.1,0,0.1-0.1,0.1c0,0.1,0,0.2,0,0.2
			c0.1,1.1,0.4,2.3,0.3,3.4c-0.1,2-1.7,3.8-2,5.9c-0.6,4,1.1,7.5,4.5,9.5c0.2,0.1,0.5,0.3,0.7,0.4c0,0,0,0,0,0
			c0.2,0.1,0.5,0.2,0.7,0.3c5.9,2.7,13.9,2.1,19.8,0.9c0.1,0,1.1-0.2,1,0.1c0,0.7,0,1.4,0,2c0.2,0.7,0.3,1.4,0.4,2.2
			c0.1,0.3,0.1,0.7,0.2,1c0,0.2,0.1,0.4,0.1,0.6c0.1,1.1,0.2,2.1,0.3,3.2c0,0,0,0,0,0c0,0,0,0,0,0c0.3-1.3,0.8-2.5,1.4-3.7
			c0.2-0.4,0.4-0.8,0.6-1.2c0.2-0.3,0.4-0.7,0.6-1c0.3-0.5,0.6-1,0.9-1.5c-0.2-0.7-0.5-1.4-0.7-2.1c-0.1-0.3,0.6-0.4,0.8-0.4
			c8.1-1.5,21.1-6.8,20.4-17c0-0.2,0-0.4-0.1-0.6c0-0.2,0-0.4-0.1-0.6c0-0.1,0-0.2,0-0.3c-0.1-0.3,0.7-0.4,0.9-0.4c0,0,0,0,0,0
			c0.3,0,0.5,0,0.8,0c0.3,0,0.6-0.1,1-0.1C208.3,340.3,208.5,340.2,208.7,340.2z"/>
		<path class="st18" d="M217.1,407c0.2,0.3,0.5,0.6,0.7,0.9c0,0,0,0,0,0c0.4,0.3,1,0.9,1.5,1c0.2-0.3,0.2-0.5,0-0.7
			c-0.1-0.2-0.4-0.4-0.6-0.5c-0.9-0.7-2-1.3-2.7-2.3c-0.5-0.7-1-1.5-1.5-2.2c-2.3,0.7-4.7,1.2-7,1.5c0,0.6,0,1.2,0,1.9
			c0,0.9,0,1.7-0.2,2.6c-0.1,0.6-0.5,1.3,0.1,1.5c0.5-0.9,0.9-1.7,1.1-2.7c0.1-0.3,1-0.4,1.2-0.2c1.2,2,3.4,5.2,5.9,5.9
			c0.9-1.7-1.8-2.1-2.6-3.6c-0.1-0.2,1-0.5,1.2-0.2c0.6,1.2,3.1,1.8,2.9,3.2c0,0,0,0,0,0c0.3-0.2,0.8-0.6,0.8-0.8
			c0.1-0.5-1.3-1.4-1.6-1.7c-0.5-0.5-2-1.5-2-2.3c0-0.3,1.2-0.5,1.2-0.2c0,0.4,0.7,1,0.9,1.2c0.6,0.6,1.2,1.1,1.7,1.6
			c0.2,0.2,0.5,0.4,0.7,0.7c0.2-0.2,0.3-0.4,0.3-0.7c0-0.2,0-0.1,0-0.2c-0.2-0.4-0.8-0.7-1.1-1.1c-0.7-0.8-1.4-1.6-2.1-2.5
			C215.8,407,216.9,406.7,217.1,407z"/>
		<path class="st18" d="M148.3,358.6c0-0.5,0.6-3.3-0.5-3.5c-1.3-0.1-1.5,3.3-1.5,4.3c0,0.2-0.3,0.2-0.4,0.3c-1,0.3-1.5,0.2-2.2-0.4
			c-0.4-0.3-0.7-1.1-1.2-1.5c-0.9-0.8-2-1.6-3.1-2.1c0,0-5-1.8-4.3-0.3c0,0,0,0,0,0c0.1,0.1,0.5,0.2,0.9,0.3
			c0.2,0.1,0.4,0.1,0.5,0.1c1.7,0.6,3.4,1.4,4.4,2.9c0,0,0,0.1,0,0.1c0,0.2-1,0.4-1.2,0.2c-1-1.4-2.6-2.3-4.3-2.9
			c-0.5-0.2-1.1-0.4-1.5-0.5c-0.1,0-0.1,0-0.2,0c-0.8,0-1.2,0.8-0.7,1.3c0,0,0,0,0,0c2.2,0.4,4.5,2.1,5.5,3.6c0,0,0,0,0,0
			c0.1,0.3-1,0.5-1.2,0.3c-0.5-0.7-1.1-1.3-1.8-1.7c-0.4-0.3-2.3-1.4-3.5-1.6c-0.6-0.1-1,0-0.9,0.6c0.1,0.7,1.5,1.3,2.2,1.7
			c1.4,0.5,2.7,1.8,3.7,2.8c1.8-0.7,4-1.1,5.6-0.1c0.4,0.2-0.8,0.5-1,0.4c-1.4-0.8-3.2-0.3-4.6,0.3c-0.2,0.1-0.7,0.2-0.9,0
			c-0.1-0.1-0.4-0.4-0.6-0.7c-0.2-0.2-0.4-0.4-0.6-0.6c-0.3-0.3-0.5-0.5-0.8-0.7c-0.5-0.4-0.9-0.7-1.3-0.9c-0.4-0.2-0.8-0.2-1,0
			c-0.6,0.7,2.1,3,2.4,3.3c2.3,2.2,4.4,4.3,7.1,5.8c1.9-2,4.2-3.6,6.8-4.3C148.4,363.1,148.2,360.8,148.3,358.6z"/>
	</g>
	<g>
		<path class="st19" d="M173.7,341.3c-1.1-1.1-2-2.5-2.5-3.9c1.2,0,2.5,0,3.1-0.8c0.8-1,0.3-3.2,0.2-4.4c-0.1-0.4-1.6-0.2-1.6,0.2
			c0.1,0.9,0.2,1.8,0.2,2.6c0,0.6,0,1.3-0.5,1.6c-0.5,0.2-1.4,0.1-1.9,0c-0.2,0-1.3,0.1-1.2,0.4c0.6,1.7,1.6,3.3,2.8,4.6
			C172.5,342,174,341.6,173.7,341.3z"/>
		<path class="st19" d="M192.9,332c-0.3-0.1-0.8,0-1.1,0.2c-0.4,0.2-0.8,0.4-1.3,0.5c0,0,0,0,0,0c-0.1-0.2-0.1-0.3-0.2-0.5
			c0.1,0,0.2-0.1,0.3-0.1c0.8-0.5,1.6-1.2,2.1-2c0.1-0.3-0.5-0.3-0.6-0.3c-0.3,0-0.8,0.1-0.9,0.3c-0.3,0.5-0.7,1-1.2,1.4
			c-1.1-1.5-2.7-2.3-4.3-0.9c-0.6,0.6-0.6,1.6-0.6,2.4c0,1.3,0.3,2.9,0.9,4.1c0.9,1.5,2.8,1.2,4.1,0.5c0,0,0,0,0,0c0,0,0,0,0,0
			c1.1-1,1.1-2.7,0.6-4.3c0.8-0.1,1.6-0.4,2.3-0.8C193.2,332.2,193.2,332,192.9,332z"/>
		<path class="st19" d="M161.5,330.5c0.3-1.1,0.9-3.8,2.5-3.5c0.6,0.1,1.2,0.5,1.7,0.8c0.4,0.3,1.8-0.2,1.5-0.4
			c-0.8-0.7-2-1.1-3.1-1.1c-2.5,0-3.7,2-4.2,4.3C159.8,331,161.4,330.9,161.5,330.5z"/>
		<path class="st19" d="M188.7,324.1c0.4,0.3,1.8-0.2,1.5-0.4c-1.8-1.4-4.4-2.9-6.7-1.6c-1,0.5-1.6,1.6-1.7,2.7
			c0,0.3,1.5,0.3,1.6-0.2c0.1-0.5,0.3-1.1,0.7-1.6C185.3,321.4,187.5,323.2,188.7,324.1z"/>
		<path class="st19" d="M181.9,344.7c-0.3,0.8-0.6,1.7-1,2.5c-0.4,0.8-1.3,3.4-2.3,3.7c-1.3,0.3-3.8-3-4.7-4
			c-0.3-0.3-1.8,0.1-1.5,0.4c1.4,1.7,3.8,5,6.3,4.4c2.6-0.6,3.9-4.8,4.7-7C183.6,344.2,182.1,344.2,181.9,344.7z"/>
		<path class="st19" d="M159.1,340.3c-0.4,0.4,1.1,0.4,1.4,0.1c1.1-1.2,2.4-2,4.1-1.4c0.4,0.2,0.9,0.4,1.2,0.7
			c0.4,0.3,1.8-0.2,1.5-0.4C164.7,337.3,161.2,338,159.1,340.3z"/>
	</g>
	<g>
		<path class="st9" d="M190.7,368.7c-0.2-0.4-0.3-0.8-0.5-1.2c-0.1-0.2-0.2-0.4-0.3-0.6c-0.7-1.4-1.7-2.7-2.7-3.9
			c-0.3-0.3-0.6-0.7-0.9-1c-0.1,0.2-0.2,0.3-0.3,0.5c-1.4,2.2-2.7,4.7-3.2,7.2c0.7-0.5,1.4-1,2.1-1.3c0.5-0.2,1-0.4,1.4-0.4
			c0.1,0,0.2,0,0.2,0c1.1,0.1,2.2,0.4,3.4,0.9c0.4,0.2,0.8,0.3,1.2,0.5C190.8,369.2,190.7,369,190.7,368.7z"/>
		<path class="st9" d="M180.2,368.9c-0.1-2.3-0.5-4.6-1.1-6.8c-1,0.9-1.9,1.9-2.7,3c-1.1,1.4-2.2,3-3,4.6c0.1-0.1,0.3-0.1,0.4-0.2
			c1.3-0.5,2.6-1.1,4-1.4c0.1,0,0.1,0,0.2,0c0.4-0.1,0.8-0.1,1.1,0C179.5,368.2,179.9,368.5,180.2,368.9z"/>
		<path class="st9" d="M181.2,370.9c-0.3,0.1-0.8,0.1-0.9,0c-0.4-0.5-0.8-0.9-1.1-1.3c0.1,1.6,0.2,3.2,0.3,4.7
			c0.1,1.9,0.2,3.9,0.3,5.8c0.7-1.7,1.5-3.5,2.2-5.2c0.7-1.7,1.5-3.4,2.2-5.1c-0.6,0.4-1.2,0.8-1.9,1.1
			C182.2,371,181.3,371.2,181.2,370.9z"/>
	</g>
	<g>
		<path class="st20" d="M162.1,316.4c12.3,3.1,25,4.7,37.6,5.5c0.2,0,0.4,0,0.4,0.2c1.5,3.2,2.9,6.3,4.6,9.4
			c0.4,0.7,0.9,1.5,1.3,2.2c0,0,0.1,0.1,0.1,0.2c0.1-0.2,0.4-0.3,0.6-0.5c1-0.9,2.5-1.1,3.8-0.7c0.6-3.4,0.3-7.1-0.5-10.4
			c-4.7-18.5-28.6-25.9-44.1-16c-1.5,0.9-2.9,2-4,3.4c-0.5,0.6-0.7,1.3-1.3,1.8c-0.6,0.4-1.5,0.6-2.1,1c-1.6,0.9-3.1,2.2-4.2,3.6
			c-4.2,5.3-5.9,17.2-0.2,22.3c0.3-7.5,2.9-15.1,6.8-21.5C161,316.4,161.7,316.3,162.1,316.4z"/>
		<path class="st20" d="M211.6,351.1c-0.6-3.1-1-7.3-2.6-10.4c-0.6,0.2-1.3,0.3-1.9,0.4c0,0-0.1,0-0.1,0c0,0,0,0,0,0.1
			c0.4,2.8-0.6,5.8-2,8.1c-3.9,6.5-11.9,9.1-18.9,10.5c0.1,0.4,0.3,0.8,0.5,1.2c0.1,0,0.2,0,0.3,0.1c0.2,0.2,0.5,0.5,0.7,0.7
			c0.8,0,1.2,0.1,2,0.7c0.1,0.1,0.3,0.2,0.4,0.3c3.8,0.6,8,1,11.7,2.4c1.3,0.5,1.5,1.3,2.1,2.5c0.4,0.8,0.7,1.7,1,2.5
			c0,0,0.1,0,0.1-0.1c1.3-0.7,2.2-2.7,2.8-3.9c0.2-0.4,0.5-1.3,0.9-1.5c0.2-0.1,1.3-0.4,1.4,0c0.3,1.6,0.8,3.2,1.3,4.7
			c0.7-1,1.1-2.2,1.3-3.3C213.8,361.3,212.5,356,211.6,351.1z"/>
		<path class="st20" d="M159.6,360.4c-0.1,1.1-0.3,2.2-0.5,3.3c-0.4,2.5-0.7,5.6-2.1,7.9c1.6-0.4,3.4-1.2,4-2.7
			c0.2-0.4,1.4-0.5,1.6-0.1c0.4,0.8,0.7,1.6,0.9,2.5c0.1,0.3,0.1,0.6,0.1,0.9c1.2-1,2.4-2.1,3.6-3c1.3-1,2.5-2.2,4-2.9
			c1.3-0.6,2.7-1,4.1-1.3c1.1-1.4,2.3-2.7,3.7-3.8c0,0,0,0,0.1-0.1c0,0,0-0.1,0-0.1C173.1,362,165.5,362.6,159.6,360.4z"/>
	</g>
	<g>
		<path class="st21" d="M213.8,402.2c-0.8-1.3-1.2-3.3-1.7-4.7c-2.5-7-5-14-7.6-21c-0.6-1.7-1.2-3.5-1.9-5.3c0-0.1-0.1-0.3-0.1-0.4
			c0,0,0-0.1,0-0.1c-0.1-0.3-0.2-0.6-0.3-0.9c-0.7-1.9-1-3.6-3-4.1c-2.5-0.6-5.1-1.1-7.6-1.6c0.6,0.5,1.2,0.9,1.8,1.4
			c0.1,0.1-0.1,0.2-0.1,0.3c-0.7,0.4-1.3,0.8-2,1.2c0,0,0,0,0,0c0.5,1,1,2.1,1.3,3.1c0,0.1,0,0.1,0,0.1c0.1,0.1,0.3,0.2,0.4,0.3
			c0.1,0.1,0.3,0.2,0.4,0.3c0,0,0.1,0.1,0.1,0.1c0.1,0.1,0,0.1,0,0.2c0,0,0,0,0,0c-2.3,2.4-5,4.5-7.4,6.6c-1.5,1.3-3,2.6-4.5,3.8
			c-0.6,0.5-1.2,1.2-1.9,1.4c-0.1,0-0.8,0.2-0.8-0.1c0,0,0-0.1,0-0.1c-1.3-0.6-2.5-3.2-3.3-4.3c-1.1-1.6-2.4-3.2-3.2-5
			c0-0.1,0-0.1,0.1-0.1c0.4-0.4,2.4-1.5,2.4-2c0-0.1-0.7-0.6-1.4-1c-0.2,0.1-0.3,0.1-0.5,0.2c-0.1,0-0.7,0.1-0.9,0
			c-0.1,0-0.1-0.1-0.1-0.2c0-0.1,0.1-0.2,0.1-0.3c0.1-0.1,0.2-0.3,0.2-0.4c0.7-1.3,1.5-2.6,2.4-3.8c-0.7,0.2-1.5,0.5-2.1,0.8
			c-1.7,0.9-3.2,2.4-4.6,3.6c-0.6,0.5-1.2,1-1.8,1.5c-0.2,0.2-0.4,0.3-0.5,0.5c-0.2,0.2-0.4,0.3-0.6,0.5c-1.9,1.7-3.9,3.4-5.8,5.1
			c-0.3,0.3-1.6,0.6-1.9,0.2c-2.9-4-5.8-7.9-8.7-11.9c-1.6,0.6-2.9,1.7-4.2,2.8c-0.4,0.4-1.8,1.5-1.8,1.9c0,0,1.1,1.6,1.5,2
			c2.5,3.6,5.1,7.2,7.8,10.6c1.1,1.4,2.2,2.9,3.6,4.1c1.3,1.2,1.8,0.3,3.6-0.7c3.2-1.8,6.2-4,9.2-6.1c0.1,0,0.3-0.1,0.5-0.2
			c0.1-2,0.4-4.1,0.8-6c0.1-0.5,1.6-0.5,1.6-0.2c-0.5,2.3-0.7,4.7-0.8,7.1c0,0,0,0.1,0,0.1c0,2.8-0.1,5.6-0.3,8.3
			c-0.4,4.1-1.5,8.2-1.9,12.3c-0.1,1.2-0.6,3-0.4,4.2c0,0.2-0.1,0.6,0,0.7c0.3,0.4,3.5-0.3,4.1-0.5c2.2-0.8,4.4-2.4,5.8-4.4
			c0.3-0.5,1.6-0.7,2-0.3c4.1,3.6,9.6,5.4,15,5.3c1,0,3.9,0,4.5-0.9c0.5-0.7-0.3-3.2-0.4-4c-0.6-3.6-1.4-7.1-2.2-10.6
			c-0.1-0.6-0.5-1.5-0.5-2.2c0-1.8,1.1-4,1.4-5.8c0.1-0.6,1.7-0.8,2-0.4c0.7,1,1.1,2.3,1.6,3.4c1,2.3,2,4.7,2.9,7
			c1.4,3.3,2.7,6.7,4,10c2.1-0.3,4.2-1.2,6.3-1.4c0.1,0,0.2,0,0.2,0C214.1,402.5,214,402.4,213.8,402.2z"/>
		<path class="st21" d="M175.9,371.1c0.1,0.1,0,0.2,0,0.2c-0.5,0.4-2.4,1.6-2.5,2.1c-0.1,0.7,1.4,2.2,1.8,2.8
			c0.6,0.9,1.3,1.9,1.9,2.8c0.3,0.4,0.6,0.9,0.9,1.3c0,0.1,0.1,0.1,0.1,0.2c0.1,0.2,0.3,0.5,0.5,0.8c0-0.2,0-0.4-0.1-0.6
			c-0.1-0.5-0.1-0.9-0.2-1.2c-0.1-1.9-0.2-3.8-0.3-5.7c-0.1-1.5-0.2-3-0.3-4.5c0-0.3,0-0.5,0-0.8c-0.2,0.1-0.3,0.1-0.5,0.2
			c-1.1,0.4-2.1,0.8-3.2,1.2C174.7,370.4,175.7,370.9,175.9,371.1z"/>
		<path class="st21" d="M182.5,379.6c1.9-1.7,3.9-3.4,5.8-5c0.6-0.6,3.6-2.5,3.7-3.4c0,0,0,0,0,0c0-0.1-0.1-0.2-0.2-0.3
			c-0.1-0.1-0.2-0.2-0.3-0.3c0,0-0.1-0.1-0.1-0.1c0,0-0.1,0-0.1,0c-0.7-0.2-1.4-0.5-2.1-0.7c-0.5-0.2-1.3-0.3-2-0.5
			c-0.1,0-0.2-0.1-0.3-0.1c-0.1,0-0.3-0.1-0.4-0.1c-0.2-0.1-0.4-0.2-0.5-0.3c0,0,0,0,0,0c-0.1,0-0.1,0.1-0.2,0.1c0,0,0,0.1-0.1,0.1
			c0,0,0,0.1-0.1,0.1c0,0.1-0.1,0.2-0.1,0.3c-0.1,0.2-0.2,0.4-0.2,0.5c0,0.1-0.1,0.2-0.1,0.3c-0.1,0.2-0.2,0.4-0.3,0.6
			c0,0.1-0.1,0.2-0.1,0.3c-0.5,1.1-0.9,2.1-1.4,3.2c-0.8,1.9-1.6,3.8-2.4,5.6c0,0,0,0,0,0.1c-0.2,0.4-0.5,1-0.8,1.6c0,0,0,0,0,0
			C181,380.9,181.8,380.3,182.5,379.6z"/>
		<path class="st21" d="M190.9,366.4c0.1-0.1,0.3-0.2,0.4-0.2c1-0.5,0.9-0.3,0-0.9c-0.7-0.5-1.3-1-1.9-1.4c-0.2-0.2-0.4-0.3-0.6-0.5
			c0.1,0.1,0.2,0.3,0.3,0.4C189.8,364.6,190.4,365.4,190.9,366.4z"/>
	</g>
	<g>
		<path class="st19" d="M178.6,383.8c-0.4,5.4-1.2,11-0.7,16.4c0,0.3,1.2,0.2,1.2-0.2c-0.5-5.4,0.3-11,0.7-16.4
			C179.8,383.4,178.6,383.4,178.6,383.8z"/>
		<path class="st19" d="M197.8,370.5c-0.4,3.8-0.4,7.7,0,11.5c0,0.3,1.2,0.2,1.2-0.2c-0.4-3.8-0.4-7.7,0-11.5
			C199,370.1,197.8,370.1,197.8,370.5z"/>
		<path class="st19" d="M219.6,407.2c-1.3-1-2.2-1.8-3.1-3.2c-0.3-0.4-0.5-0.8-0.8-1.2c0.1-0.1,0.5-0.2,0.5-0.4
			c-0.5-2.6-1.8-5.2-2.7-7.7c-1.6-4.4-3.2-8.8-4.8-13.2c-0.8-2.2-1.6-4.4-2.4-6.7c-0.5-1.3-0.9-2.6-1.4-4c0.1,0,0.2-0.1,0.3-0.1
			c1.2-0.4,2-1.5,2.7-2.5c0.2-0.3,0.5-0.9,0.8-1.6c0.4,1.4,0.9,2.8,1.3,4.2c0.1,0.5,1.3,0.1,1.5-0.1c5.3-4.1,2.8-14.1,1.8-19.3
			c-0.6-3.4-1.1-8.2-2.9-11.5c2.6-1.3,4.3-3.6,1.6-6.7c0,0-0.1-0.1-0.1-0.1c0,0,0,0,0-0.1c3-12.8-5.8-25.1-17.3-29.9
			c-8.5-3.5-18.5-3.1-26.8,0.8c-2.9,1.3-6.1,3.2-7.9,6c-0.6,0.9-0.3,0.8-1.4,1.3c-1.4,0.7-2.8,1.5-4,2.6c-6.3,5.5-8.9,20.6-0.6,25.6
			c0,0.7,0.1,1.5,0.1,2.2c0.2,1.9,0.1,1.9-0.8,3.7c-2.1,4.4-1.5,9.8,2.6,12.8c0.7,0.5,1.5,1,2.3,1.4c-0.1,1.2-0.3,2.4-0.5,3.6
			c-0.4,2.8-0.7,6.5-2.5,8.8c0.1,0.1,0.1,0.2,0.2,0.3c0.3,0,0.7,0,0.8,0c1.7-0.3,4-0.9,5.4-2.2c0.2,0.6,0.4,1.2,0.5,1.8
			c0.1,0.6-0.2,0.9,0.3,1.2c0,0,0,0,0,0c-1.3,1.1-2.6,2.3-3.9,3.5c-1-1.4-2.1-2.9-3.1-4.3c-0.2,0-0.4-0.1-0.2-0.2c0,0,0,0,0-0.1
			c-1.7-2.3-3.3-4.5-5-6.8c-0.1-0.1-0.2-0.2-0.4-0.2c-0.1-1.7-0.4-3.3-0.3-5c0-1.2,0.8-3.9,0-5c-0.4-0.6-1.5-0.8-2.2-0.6
			c-1.5,0.4-1.8,2-2,3.3c0,0.3,0,1-0.1,1.2c0,0.1-0.1,0.1-0.1,0.1c0-0.1,0-0.2-0.2-0.3c-0.4-0.4-0.7-1-1.1-1.4
			c-1.3-1.3-3-2.2-4.7-2.8c-1.3-0.4-4.4-1.3-4.9,0.6c-0.2,0-0.5,0-0.7,0.1c-0.8,0.1-2.1,0.8-1.6,1.7c-0.3,0-0.6,0.1-0.8,0.2
			c-1.3,0.6-0.7,1.5,0.2,2.1c0.2,0.1,0.4,0.2,0.5,0.3c-0.8,0.2-1.1,0.9-0.6,1.9c1.1,2.2,3.7,4,5.5,5.6c1.3,1.2,2.8,2.2,4.4,3
			c-0.3,0.3-0.5,0.6-0.8,0.9c0,0.1,0,0.1,0,0.2c1.8,2.6,3.6,5.2,5.5,7.7c2.3,3.1,4.7,7.3,7.9,9.6c2.2,1.6,5.1-0.4,7.1-1.6
			c2.4-1.4,4.8-3,7.1-4.6c-0.1,4-0.3,7.9-1,11.9c-0.8,4.4-1.5,8.8-1.7,13.2c0,0.2,0.4,0.2,0.6,0.3c4.6,0.6,9.5-0.9,12.6-4.4
			c3.9,3,8.8,4.5,13.7,4.7c1.9,0.1,7.9,0.3,8.8-2c0.5-1.3-0.4-3.8-0.6-5c-0.4-2.4-0.9-4.9-1.5-7.3c-0.3-1.3-0.9-2.9-1-4.2
			c0-0.9,0.2-2,0.5-3c0.2,0.4,0.3,0.8,0.5,1.2c1,2.3,1.9,4.6,2.9,6.9c1.3,3.3,2.7,6.6,4,9.9c0.1,0.2,0.4,0.3,0.6,0.3
			c0,0.6,0,1.3,0,1.9c0,0.9,0,1.7-0.2,2.6c-0.1,0.4-0.4,1-0.3,1.3c0.3,0.7,1.7,0.8,2.2,0.5c0.5-0.3,0.9-1.1,1.2-1.9
			c1.5,2.2,3.8,4.9,6.2,5c0.5,0,1-0.2,1.3-0.6c0.6-0.1,1.2-0.3,1.7-0.8c0.2-0.2,0.5-0.4,0.5-0.7c0.6-0.2,1.1-0.5,1.3-1.1
			c0.2-0.5,0-0.6-0.4-0.9c-0.2-0.2-0.4-0.4-0.7-0.7c0.2,0,0.4,0,0.5-0.1C221.3,408.9,220.4,407.9,219.6,407.2z M211.6,351.1
			c0.9,4.9,2.2,10.3,1,15.2c-0.3,1.1-0.7,2.3-1.3,3.3c-0.5-1.6-1.1-3.1-1.3-4.7c-0.1-0.4-1.2-0.1-1.4,0c-0.5,0.2-0.7,1.1-0.9,1.5
			c-0.7,1.2-1.6,3.2-2.8,3.9c0,0-0.1,0-0.1,0.1c-0.3-0.9-0.6-1.7-1-2.5c-0.5-1.2-0.8-2.1-2.1-2.5c-3.6-1.3-7.8-1.7-11.7-2.4
			c-0.1-0.1-0.3-0.2-0.4-0.3c-0.8-0.6-1.2-0.7-2-0.7c-0.2-0.2-0.5-0.5-0.7-0.7c-0.1-0.1-0.2-0.1-0.3-0.1c-0.2-0.4-0.3-0.8-0.5-1.2
			c7.1-1.4,15-4,18.9-10.5c1.4-2.3,2.4-5.4,2-8.1c0,0,0,0,0-0.1c0,0,0.1,0,0.1,0c0.6-0.1,1.3-0.2,1.9-0.4
			C210.5,343.8,211,348,211.6,351.1z M175.9,371.1c-0.3-0.2-1.3-0.7-1.8-1.1c1-0.4,2.1-0.8,3.2-1.2c0.2-0.1,0.3-0.1,0.5-0.2
			c0,0.3,0,0.5,0,0.8c0.1,1.5,0.2,3,0.3,4.5c0.1,1.9,0.2,3.8,0.3,5.7c0,0.2,0.1,0.7,0.2,1.2c0,0.2,0.1,0.4,0.1,0.6
			c-0.2-0.3-0.3-0.6-0.5-0.8c0-0.1-0.1-0.1-0.1-0.2c-0.3-0.4-0.6-0.9-0.9-1.3c-0.6-0.9-1.3-1.8-1.9-2.8c-0.4-0.5-1.8-2.1-1.8-2.8
			c0-0.5,2-1.7,2.5-2.1C175.9,371.2,176,371.1,175.9,371.1z M177.9,368c0,0-0.1,0-0.1,0c0,0,0,0,0,0c-1.3,0.4-2.7,0.9-4,1.4
			c-0.1,0.1-0.3,0.1-0.4,0.2c0,0,0-0.1,0.1-0.1c0.1-0.1,0.2-0.3,0.3-0.4c0.7-1.2,1.5-2.4,2.3-3.5c0.1-0.1,0.2-0.3,0.3-0.4
			c0,0,0-0.1,0.1-0.1c0.1-0.2,0.3-0.3,0.4-0.5c0.7-0.8,1.4-1.6,2.2-2.4c0.1-0.1,0.1-0.1,0.2-0.2c0.2,0.8,0.4,1.5,0.5,2.3
			c0,0,0,0,0,0.1c0,0.1,0,0.1,0,0.2c0,0,0,0.1,0,0.1c0.1,0.4,0.1,0.8,0.2,1.2c0,0.2,0,0.3,0.1,0.5c0,0.2,0,0.3,0.1,0.5
			c0.1,0.6,0.1,1.2,0.2,1.7c0,0.1,0,0.2,0,0.3c-0.3-0.4-0.7-0.7-1.2-0.9c-0.1,0-0.1,0-0.2-0.1C178.6,367.9,178.2,367.9,177.9,368z
			 M180.3,370.9c0.1,0.1,0.6,0.2,0.9,0c0.1,0.3,1,0,1.1,0c0.4-0.3,0.9-0.5,1.3-0.8c0.1,0,0.1-0.1,0.2-0.1c0.1-0.1,0.2-0.1,0.4-0.2
			c0,0.1-0.1,0.1-0.1,0.2c-0.1,0.3-0.2,0.6-0.4,0.9c-0.6,1.3-1.2,2.7-1.7,4c-0.8,1.7-1.5,3.5-2.2,5.2c-0.1-1.9-0.2-3.9-0.3-5.8
			c-0.1-1.6-0.2-3.2-0.3-4.7C179.5,370,179.9,370.4,180.3,370.9z M181,380C181,380,181,380,181,380c0.8-1.9,1.6-3.8,2.5-5.7
			c0.5-1.1,0.9-2.1,1.4-3.2c0-0.1,0.1-0.2,0.1-0.3c0.1-0.2,0.2-0.4,0.3-0.6c0-0.1,0.1-0.2,0.1-0.3c0.1-0.2,0.2-0.4,0.2-0.5
			c0-0.1,0.1-0.2,0.1-0.3c0,0,0-0.1,0.1-0.1c0,0,0-0.1,0.1-0.1c0.1,0,0.1-0.1,0.2-0.1c0,0,0,0,0,0c0.1,0.1,0.3,0.2,0.5,0.3
			c0.1,0,0.2,0.1,0.4,0.1c0.1,0,0.2,0.1,0.3,0.1c0.7,0.2,1.5,0.3,2,0.5c0.7,0.2,1.4,0.5,2.1,0.7c0,0,0,0,0.1,0c0,0,0.1,0.1,0.1,0.1
			c0.1,0.1,0.2,0.2,0.3,0.3c0.1,0.1,0.2,0.3,0.2,0.3c0,0,0,0,0,0c-0.1,0.9-3.1,2.8-3.7,3.4c-1.9,1.7-3.8,3.4-5.8,5
			c-0.8,0.7-1.5,1.3-2.3,2c0,0,0,0,0,0C180.5,381,180.8,380.4,181,380z M189.8,368.9c-0.7-0.3-1.5-0.6-2.2-0.7
			c-0.3-0.1-0.6-0.1-0.9-0.1c-0.1,0-0.2,0-0.3,0c-0.1,0-0.2,0-0.2,0c-0.1,0-0.2,0-0.3,0c-0.3,0-0.6,0.1-0.9,0.3
			c-0.1,0-0.2,0.1-0.2,0.1c-0.2,0.1-0.3,0.2-0.5,0.3c-0.2,0.1-0.5,0.3-0.7,0.5c0,0-0.1,0-0.1,0.1c-0.2,0.1-0.3,0.2-0.5,0.3
			c-0.1,0.1-0.2,0.1-0.3,0.2c0-0.1,0-0.1,0-0.2c0-0.1,0.1-0.2,0.1-0.3c0.1-0.5,0.3-1.1,0.5-1.6c0.2-0.5,0.4-1,0.6-1.5
			c0.2-0.4,0.4-0.9,0.6-1.3c0.2-0.5,0.5-0.9,0.8-1.4c0.1-0.1,0.1-0.3,0.2-0.4c0.1-0.2,0.3-0.5,0.4-0.7c0.1-0.1,0.1-0.2,0.2-0.3
			c0-0.1,0.1-0.2,0.1-0.2c0.1,0.1,0.2,0.2,0.3,0.4c0.2,0.2,0.4,0.4,0.6,0.6c0.1,0.1,0.2,0.2,0.2,0.3c0.9,1.1,1.8,2.3,2.4,3.6
			c0.1,0.2,0.2,0.4,0.3,0.6c0.2,0.4,0.4,0.8,0.5,1.2c0.1,0.2,0.2,0.4,0.3,0.7C190.5,369.2,190.2,369.1,189.8,368.9z M190.9,366.4
			c-0.5-0.9-1.1-1.8-1.8-2.6c-0.1-0.1-0.2-0.3-0.3-0.4c0.2,0.2,0.4,0.3,0.6,0.5c0.6,0.5,1.2,1,1.9,1.4c0.9,0.6,1,0.4,0,0.9
			C191.2,366.2,191.1,366.3,190.9,366.4z M154,338.2c-0.1-0.1-0.1-0.1-0.2-0.2c-5.5-5.2-3.8-16.9,0.4-22.1c1.2-1.5,2.6-2.7,4.2-3.6
			c0.6-0.4,1.5-0.6,2.1-1c0.6-0.4,0.8-1.2,1.3-1.8c1.1-1.4,2.5-2.5,4-3.4c15.5-9.9,39.5-2.5,44.1,16c0.8,3.2,1.2,6.9,0.6,10.3
			c0,0,0,0.1,0,0.1c-1.3-0.3-2.8-0.2-3.8,0.7c-0.2,0.2-0.5,0.4-0.6,0.5c0,0,0-0.1,0-0.1c0,0,0-0.1-0.1-0.1c-0.2-0.3-0.4-0.7-0.6-1
			c-0.2-0.4-0.5-0.8-0.7-1.2c-1.7-3.1-3.1-6.2-4.6-9.4c-0.1-0.2-0.3-0.2-0.4-0.2c-12.6-0.8-25.4-2.4-37.6-5.5
			c-0.3-0.1-1.1,0-1.3,0.3c-2.3,3.8-4.1,8-5.3,12.4c-0.4,1.4-0.7,2.8-0.9,4.2C154.2,335,154.1,336.6,154,338.2z M153.8,349
			c0.3-2.1,1.9-3.9,2-5.9c0.1-1.1-0.2-2.3-0.3-3.4c0-0.1,0-0.2,0-0.2c0,0,0.1-0.1,0.1-0.1c0.1-7.7,2.6-15.5,6.4-22.1
			c10.6,2.6,21.5,4.1,32.3,5c1.2,0.1,3.7-0.2,4.4,0.5c0.4,0.4,0.7,1.4,0.9,2c1,2.1,2,4.2,3.1,6.2c0.6,1.1,1.3,3.2,2.4,3.9
			c1.7,1,2.8-1.6,4.5-1.5c0.5,0.2,1,0.6,1.3,1.2c1.4,2.1,0.7,4-0.9,5c-0.2,0.2-0.5,0.3-0.7,0.4c-0.2,0.1-0.4,0.2-0.6,0.3
			c-0.2,0.1-0.4,0.1-0.7,0.2c-0.3,0.1-0.6,0.1-1,0.1c-0.3,0-0.5,0-0.8,0c0,0,0,0,0,0c-0.2,0-1,0.1-0.9,0.4c0,0.1,0,0.2,0,0.3
			c0,0.2,0,0.4,0.1,0.6c0,0.2,0.1,0.4,0.1,0.6c0.7,10.3-12.3,15.5-20.4,17c-0.1,0-0.8,0.2-0.8,0.4c0.3,0.8,0.5,1.4,0.7,2.1
			c-0.3,0.5-0.6,1-0.9,1.5c-0.1,0.1-0.2,0.3-0.3,0.5c-0.1,0.2-0.2,0.4-0.3,0.6c-0.2,0.4-0.4,0.8-0.6,1.2c-0.6,1.2-1.1,2.5-1.4,3.7
			c0,0,0,0,0,0c0,0,0,0,0,0c0-1.1-0.1-2.1-0.3-3.2c0-0.2-0.1-0.4-0.1-0.6c-0.1-0.3-0.1-0.7-0.2-1c0-0.1,0-0.2-0.1-0.3
			c-0.1-0.6-0.2-1.2-0.4-1.8c0-0.7,0-1.4,0-2c0-0.3-0.9-0.2-1-0.1c-6,1.2-13.9,1.8-19.8-0.9c-0.2-0.1-0.5-0.2-0.7-0.3c0,0,0,0,0,0
			c-0.3-0.1-0.5-0.3-0.7-0.4C154.9,356.5,153.2,353,153.8,349z M161,368.9c-0.6,1.5-2.4,2.2-4,2.7c1.4-2.2,1.7-5.4,2.1-7.9
			c0.2-1.1,0.3-2.2,0.5-3.3c5.9,2.3,13.5,1.6,19.4,0.5c0,0,0,0.1,0,0.1c0,0-0.1,0-0.1,0.1c-1.3,1.1-2.5,2.4-3.7,3.8
			c-1.4,0.3-2.8,0.7-4.1,1.3c-1.5,0.7-2.8,1.9-4,2.9c-1.2,1-2.4,2-3.6,3c0-0.3,0-0.6-0.1-0.9c-0.2-0.9-0.5-1.7-0.9-2.5
			C162.4,368.4,161.2,368.5,161,368.9z M134.6,363.8c-0.3-0.3-3-2.6-2.4-3.3c0.2-0.2,0.5-0.2,1,0c0.4,0.2,0.9,0.5,1.3,0.9
			c0.3,0.2,0.6,0.5,0.8,0.7c0.2,0.2,0.4,0.4,0.6,0.6c0.3,0.3,0.5,0.5,0.6,0.7c0.2,0.2,0.7,0.1,0.9,0c1.4-0.6,3.2-1.2,4.6-0.3
			c0.3,0.2,1.4-0.1,1-0.4c-1.6-1-3.8-0.6-5.6,0.1c-1-1-2.3-2.3-3.7-2.8c-0.7-0.4-2.1-1-2.2-1.7c-0.1-0.6,0.3-0.7,0.9-0.6
			c1.2,0.2,3.1,1.3,3.5,1.6c0.7,0.5,1.3,1.1,1.8,1.7c0.2,0.3,1.3,0,1.2-0.3c0,0,0,0,0,0c-1-1.5-3.4-3.2-5.5-3.6c0,0,0,0,0,0
			c-0.6-0.6-0.1-1.3,0.7-1.3c0.1,0,0.1,0,0.2,0c0.5,0,1,0.2,1.5,0.5c1.7,0.6,3.3,1.4,4.3,2.9c0.2,0.2,1.1,0,1.2-0.2c0,0,0-0.1,0-0.1
			c-1-1.5-2.7-2.3-4.4-2.9c0,0-0.2-0.1-0.5-0.1c-0.4-0.1-0.8-0.2-0.9-0.3c0,0,0,0,0,0c-0.7-1.6,4.2,0.3,4.3,0.3
			c1.1,0.5,2.2,1.2,3.1,2.1c0.4,0.4,0.8,1.1,1.2,1.5c0.7,0.6,1.2,0.6,2.2,0.4c0.1,0,0.4-0.1,0.4-0.3c0-1,0.2-4.4,1.5-4.3
			c1.1,0.1,0.5,2.9,0.5,3.5c-0.1,2.3,0.1,4.5,0.3,6.8c-2.6,0.7-4.9,2.3-6.8,4.3C139,368.1,136.8,366,134.6,363.8z M203.6,393.9
			c-1-2.3-1.9-4.7-2.9-7c-0.5-1.1-0.9-2.5-1.6-3.4c-0.3-0.4-2-0.2-2,0.4c-0.3,1.9-1.4,4-1.4,5.8c0,0.7,0.4,1.5,0.5,2.2
			c0.8,3.5,1.6,7.1,2.2,10.6c0.1,0.8,0.9,3.2,0.4,4c-0.6,0.9-3.5,0.9-4.5,0.9c-5.4,0.1-10.9-1.6-15-5.3c-0.4-0.4-1.7-0.2-2,0.3
			c-1.4,2-3.5,3.6-5.8,4.4c-0.6,0.2-3.8,0.9-4.1,0.5c-0.1-0.1,0.1-0.6,0-0.7c-0.2-1.2,0.3-3,0.4-4.2c0.5-4.1,1.6-8.2,1.9-12.3
			c0.2-2.7,0.3-5.5,0.3-8.3c0,0,0-0.1,0-0.1c0.1-2.3,0.4-4.8,0.8-7.1c0.1-0.3-1.5-0.3-1.6,0.2c-0.4,1.9-0.6,4-0.8,6
			c-0.2,0.1-0.4,0.1-0.5,0.2c-3,2.2-6,4.3-9.2,6.1c-1.8,1-2.3,1.9-3.6,0.7c-1.3-1.2-2.5-2.7-3.6-4.1c-2.7-3.4-5.3-7-7.8-10.6
			c-0.3-0.4-1.5-2-1.5-2c0-0.1,0-0.1,0.1-0.2c0-0.1,0.1-0.2,0.2-0.3c0.1-0.1,0.2-0.2,0.3-0.3c0.5-0.5,1.1-0.9,1.3-1.2
			c1.2-1.2,2.6-2.2,4.2-2.8c0.1,0.1,0.1,0.1,0.2,0.2c0.1,0.1,0.1,0.2,0.2,0.2c0.1,0.1,0.2,0.2,0.3,0.4c2.7,3.7,5.4,7.4,8.1,11.1
			c0.3,0.4,1.6,0.1,1.9-0.2c1.9-1.7,3.8-3.4,5.8-5.1c0.2-0.2,0.4-0.3,0.6-0.5c0.2-0.2,0.4-0.3,0.5-0.5c0.6-0.5,1.2-1,1.8-1.5
			c1.4-1.2,2.9-2.7,4.6-3.6c0.6-0.3,1.4-0.6,2.1-0.8c-0.9,1.2-1.7,2.5-2.4,3.8c-0.1,0.1-0.2,0.3-0.2,0.4c0,0.1-0.1,0.2-0.1,0.3
			c0,0.1,0,0.1,0.1,0.2c0.2,0.1,0.8,0,0.9,0c0.2-0.1,0.3-0.1,0.5-0.2c0.6,0.4,1.4,0.9,1.4,1c-0.1,0.5-2,1.6-2.4,2
			c0,0-0.1,0.1-0.1,0.1c0.8,1.8,2.1,3.4,3.2,5c0.8,1.1,2,3.7,3.3,4.3c0,0,0,0.1,0,0.1c0,0.3,0.7,0.1,0.8,0.1
			c0.7-0.2,1.4-0.9,1.9-1.4c1.5-1.3,3-2.6,4.5-3.8c2.5-2.2,5.1-4.3,7.4-6.6c0,0,0,0,0,0c0,0,0.1-0.1,0-0.2c0,0-0.1-0.1-0.1-0.1
			c-0.1-0.1-0.2-0.2-0.4-0.3c-0.1-0.1-0.3-0.2-0.4-0.3c0,0,0.1-0.1,0-0.1c-0.3-1.1-0.8-2.1-1.3-3.1c0,0,0,0,0,0
			c0.7-0.4,1.3-0.8,2-1.2c0.1,0,0.3-0.2,0.1-0.3c-0.6-0.5-1.2-0.9-1.8-1.4c2.6,0.4,5.1,0.9,7.6,1.6c2.1,0.5,2.3,2.2,3,4.1
			c0.1,0.3,0.2,0.6,0.3,0.9c0,0,0,0.1,0,0.1c0,0.1,0.1,0.3,0.1,0.4c0.6,1.8,1.2,3.5,1.9,5.3c2.6,7,5.1,14,7.6,21
			c0.3,0.8,0.5,1.8,0.8,2.8c0.2,0.7,0.5,1.4,0.8,1.9c0.1,0.2,0.2,0.3,0.3,0.3c0,0-0.1,0-0.1,0c0,0,0,0,0,0c0,0-0.1,0-0.1,0
			c-2.1,0.2-4.2,1.1-6.3,1.4c-0.1-0.2-0.1-0.3-0.2-0.5c0-0.1-0.1-0.2-0.1-0.3c0-0.1-0.1-0.1-0.1-0.2
			C206,399.9,204.8,396.9,203.6,393.9z M219.3,408.9c-0.5-0.1-1.1-0.7-1.5-1c0,0,0,0,0,0c-0.2-0.3-0.5-0.6-0.7-0.9
			c-0.2-0.3-1.3,0-1.1,0.3c0.7,0.8,1.4,1.7,2.1,2.5c0.3,0.3,0.8,0.7,1.1,1.1c0,0.1,0,0,0,0.2c0,0.2-0.1,0.5-0.3,0.7
			c-0.2-0.3-0.5-0.5-0.7-0.7c-0.6-0.5-1.2-1.1-1.7-1.6c-0.2-0.3-0.9-0.8-0.9-1.2c0-0.3-1.2-0.2-1.2,0.2c0.1,0.8,1.5,1.9,2,2.3
			c0.3,0.3,1.7,1.2,1.6,1.7c0,0.2-0.5,0.6-0.8,0.8c0,0,0,0,0,0c0.2-1.4-2.3-2-2.9-3.2c-0.2-0.3-1.3,0-1.2,0.2c0.8,1.5,3.5,2,2.6,3.6
			c-2.5-0.7-4.7-3.9-5.9-5.9c-0.1-0.2-1.1-0.1-1.2,0.2c-0.2,1-0.7,1.8-1.1,2.7c-0.5-0.3-0.1-1-0.1-1.5c0.1-0.9,0.2-1.7,0.2-2.6
			c0-0.6,0-1.2,0-1.9c2.4-0.3,4.8-0.8,7-1.5c0.5,0.8,1,1.5,1.5,2.2c0.7,0.9,1.8,1.5,2.7,2.3c0.2,0.1,0.5,0.3,0.6,0.5
			C219.5,408.4,219.5,408.7,219.3,408.9z"/>
	</g>
</g>
</svg>
