<?xml version="1.0" encoding="utf-8"?>
<!-- Generator: Adobe Illustrator 24.0.1, SVG Export Plug-In . SVG Version: 6.00 Build 0)  -->
<svg version="1.1" id="レイヤー_1" xmlns="http://www.w3.org/2000/svg" xmlns:xlink="http://www.w3.org/1999/xlink" x="0px"
	 y="0px" viewBox="0 0 596.2 328.2" style="enable-background:new 0 0 596.2 328.2;" xml:space="preserve">
<style type="text/css">
	.st0{fill:#FFFFFF;stroke:#000000;stroke-miterlimit:10;}
	.st1{fill:#FFF100;}
	.st2{fill:none;stroke:#000000;stroke-miterlimit:10;}
	.st3{fill:#FFFFFF;}
	.st4{fill:#FF0000;}
</style>
<rect y="-0.6" class="st0" width="596.2" height="328.8"/>
<rect x="285" y="0" class="st1" width="311.2" height="328.2"/>
<line class="st2" x1="285" y1="328.2" x2="285" y2="0"/>
<g>
	<path d="M366.9,49.2c-1,0-1.5-0.8-1.5-1.5c0-0.6,0.4-1.2,1.1-1.3c9.1-1,12.3-4.3,12.3-7.6c0-3.4-2-5-6.5-5c-3.1,0-6.5,0.9-10.4,2.5
		c-0.2,0.1-0.5,0.2-0.5,0.2c-0.9,0-1.5-0.9-1.5-1.7c0-0.5,0.3-1,0.8-1.3c3.9-1.5,8.4-2.3,11.6-2.3c6.1,0,9.4,2.6,9.4,7.7
		c0,5.6-5.1,9.5-14.6,10.5h-0.3v-0.2H366.9z M377.5,28.8c-5.3-0.2-8.7-0.5-13.1-1.1c-0.7-0.1-1.1-0.7-1.1-1.4c0-0.7,0.5-1.5,1.3-1.5
		c0.1,0,0.2,0,0.3,0c4.1,0.6,7.8,1,12.9,1.1c0.8,0,1.2,0.6,1.2,1.3C378.9,28.1,378.4,28.8,377.5,28.8L377.5,28.8z"/>
	<path d="M379.5,55.5c0.8,0,1.3,0.7,1.3,1.4s-0.4,1.3-1.2,1.4c-4.3,0.5-8.4,0.7-12.4,0.8c-0.5,1.9-1.1,3.9-1.9,6.2
		c3-1.9,6.2-2.6,8.7-2.6c5.5,0,8.5,2.4,8.5,6.5c0,5.9-5,8.4-16.1,8.4c-1.1,0-1.7-0.8-1.7-1.6c0-0.6,0.5-1.4,1.5-1.4
		c9.8,0,13.4-2,13.4-5.5c0-2.5-1.7-3.8-5.7-3.8c-3.3,0-6.8,1.4-9.9,4.1c-0.4,0.3-0.7,0.5-1.2,0.5c-0.9,0-1.7-0.6-1.7-1.6
		c0-0.3,0.1-0.5,0.2-0.8c1.4-2.8,2.3-5.6,2.9-8.3c-1.7,0-3.4,0-5-0.1c-0.7-0.1-1.1-0.7-1.1-1.5s0.4-1.4,1.1-1.4h0.1
		c1.7,0.1,3.5,0.2,5.5,0.2c0.2-1,0.4-2,0.5-3c0.1-0.7,0.7-1.1,1.5-1.1c0.7,0,1.5,0.5,1.5,1.3c0,0.1,0,0.2,0,0.3
		c-0.2,0.8-0.3,1.6-0.5,2.5c3.7-0.1,7.6-0.4,11.5-0.9H379.5L379.5,55.5L379.5,55.5z"/>
	<path d="M362.8,94.3c0,3,0.2,5.8,0.9,8c0.1,0.2,0.1,0.5,0.1,0.6c0,1-0.8,1.5-1.6,1.5c-0.6,0-1.4-0.4-1.5-1.4
		c-0.5-2.3-0.7-5.3-0.7-8.3c0-2,0-6.9,1.5-13c0.2-0.7,0.9-1.1,1.5-1.1c0.7,0,1.5,0.5,1.5,1.2c0,0.1,0,0.2-0.1,0.4
		c-1.2,4-1.5,7.1-1.5,10.4L362.8,94.3L362.8,94.3z M382.2,85.3c0.7,0,1.1,0.6,1.1,1.4c0,0.6-0.3,1.2-1,1.3c-1.3,0.2-2.7,0.3-4.4,0.3
		c0,0.2,0.2,5.9,0.2,8.7c1.7,0.8,3.5,1.8,4.6,2.6c0.5,0.4,0.7,0.8,0.7,1.3c0,0.8-0.5,1.5-1.4,1.5c-0.3,0-0.5-0.1-0.9-0.4
		c-0.9-0.6-1.9-1.4-3.1-2.1c-0.4,4.1-2.9,5.1-6.3,5.1c-3.7,0-6.5-2.2-6.5-5.4c0-2.9,2.5-4.7,6.2-4.7c1.2,0,2.5,0.3,3.7,0.7
		c-0.1-2.2-0.1-4.9-0.2-7.5H373c-2.1,0-4.2,0-6.4-0.1c-0.9,0-1.4-0.7-1.4-1.5c0-0.6,0.5-1.3,1.3-1.3h0.2c2.3,0.2,4.5,0.2,6.8,0.2
		h1.3c0-1.5-0.1-3-0.1-4.2v-0.1c0-0.7,0.7-1.2,1.5-1.2c0.6,0,1.4,0.4,1.4,1.2c0,1.1,0.1,2.5,0.1,4.1c1.6-0.1,3-0.2,4.2-0.3h0.2
		L382.2,85.3L382.2,85.3z M375.3,98.7c-1.3-0.5-2.5-0.9-3.7-0.9c-2.1,0-3.2,0.8-3.2,2.2c0,1.5,1.3,2.5,3.5,2.5s3.5-0.7,3.5-3.4
		C375.3,99.1,375.3,98.7,375.3,98.7z"/>
	<path d="M372.6,117.8c1,4.3,4.5,9.5,10.2,13.1c0.5,0.3,0.7,0.7,0.7,1.2c0,0.8-0.7,1.6-1.5,1.6c-0.2,0-0.5-0.1-0.6-0.2
		c-5.6-3.5-8.7-8.7-10.4-12.1c-3.2,7.9-10.1,12.3-11.3,12.3c-0.7,0-1.5-0.8-1.5-1.6c0-0.5,0.2-0.8,0.7-1.1
		c6.4-3.3,9.4-8.9,10.2-13.2h-9.8c-0.7,0-1.2-0.7-1.2-1.4c0-0.7,0.4-1.4,1.2-1.4h10v-5.5c0-0.8,0.7-1.2,1.4-1.2
		c0.6,0,1.4,0.4,1.4,1.2v5.5h10.1c0.8,0,1.2,0.7,1.2,1.4c0,0.7-0.4,1.4-1.2,1.4H372.6z"/>
	<path d="M381.7,161.6c-4.4,0-8-1.4-11-3.5c-3,1.9-6.7,2.9-10.7,3.5c-0.1,0-0.2,0-0.2,0c-0.8,0-1.4-0.7-1.4-1.5
		c0-0.5,0.4-1.2,1.2-1.3c3.5-0.5,6.5-1.3,8.8-2.6c-2.9-2.9-4.8-6.5-5.3-10.1V146c0-0.7,0.7-1.2,1.4-1.2c0.5,0,1.1,0.3,1.2,1
		c0.7,3.5,2.5,6.5,4.9,8.8c2.4-2.3,3.7-5.6,3.8-10.7h-14.8c-0.7,0-1.2-0.6-1.2-1.4c0-0.6,0.4-1.4,1.2-1.4h14.8v-3.4
		c0-0.8,0.7-1.2,1.5-1.2c0.7,0,1.5,0.4,1.5,1.2v3.4h5c0.8,0,1.2,0.6,1.2,1.4c0,0.6-0.4,1.4-1.2,1.4h-5c-0.1,5.9-1.7,9.9-4.4,12.5
		c2.5,1.5,5.5,2.5,8.9,2.6c0.9,0,1.3,0.6,1.3,1.3s-0.5,1.5-1.3,1.5h-0.2L381.7,161.6L381.7,161.6z"/>
	<path d="M372.7,178.8c1.6,3.1,4.2,6.5,9.8,8.1c0.6,0.2,0.9,0.7,0.9,1.3c0,0.8-0.6,1.7-1.5,1.7c-0.2,0-7-1.3-11.1-9.1
		c-1.8,4.3-5.4,7.1-10.8,9.1c-0.2,0.1-0.3,0.1-0.4,0.1c-0.8,0-1.5-0.9-1.5-1.7c0-0.5,0.3-0.9,0.9-1.2c5.5-2,8.3-4.5,9.4-8.3h-8.9
		c-0.7,0-1.2-0.6-1.2-1.4c0-0.7,0.4-1.4,1.2-1.4h9.5c0.1-1,0.2-2,0.2-3.1v-2h-8.4c-0.7,0-1.2-0.6-1.2-1.4c0-0.6,0.4-1.4,1.2-1.4h8.4
		v-2.5c0-0.8,0.7-1.2,1.5-1.2c0.7,0,1.5,0.4,1.5,1.2v2.5h8.5c0.8,0,1.2,0.6,1.2,1.4c0,0.6-0.4,1.4-1.2,1.4h-8.5v2
		c0,1.1-0.1,2.1-0.2,3.1h9.9c0.8,0,1.2,0.6,1.2,1.4c0,0.7-0.4,1.4-1.2,1.4L372.7,178.8L372.7,178.8z"/>
	<path d="M368.6,198.3c0-1.3,1-2.3,2.2-2.3s2.2,1,2.2,2.3s-1,2.3-2.2,2.3S368.6,199.6,368.6,198.3z"/>
	<path d="M368.6,212.4c0-1.3,1-2.3,2.2-2.3s2.2,1,2.2,2.3s-1,2.3-2.2,2.3C369.6,214.6,368.6,213.6,368.6,212.4z"/>
	<path d="M368.6,226.4c0-1.3,1-2.3,2.2-2.3s2.2,1,2.2,2.3s-1,2.3-2.2,2.3S368.6,227.7,368.6,226.4z"/>
	<path d="M363.6,241.9c0.1-3.8,2.6-6.4,7.4-6.4s7.1,2.8,7.1,5.9c0,0.6-0.1,1.3-0.3,1.9c-1.1,4.3-5.5,4.3-5.5,8c0,1-0.6,1.5-1.4,1.5
		c-0.7,0-1.4-0.5-1.4-1.5c0-5.3,4.2-5.3,5.3-8.4c0.2-0.4,0.2-0.8,0.2-1.2c0-1.7-1.4-3.5-4.1-3.5c-2.6,0-4.5,1.1-4.5,3.8
		c-0.1,0.8-0.7,1.3-1.5,1.3C364.3,243.4,363.6,242.9,363.6,241.9L363.6,241.9z M369.2,256.4c0-1.1,0.7-2,1.7-2s1.7,0.9,1.7,2
		s-0.7,2-1.7,2C369.9,258.4,369.2,257.5,369.2,256.4z"/>
</g>
<g>
	<path d="M545.9,0c16.8,0,33.5,0,50.3,0c0,97.1,0,194.1,0,291.2c-17.1,0-34.2,0-51.4,0c-0.1-9.5-0.3-19-0.2-28.5
		c0-1.1,0.9-2.4,1.8-3c6.7-5,9-18.5,2.9-24.1c-3.5-3.5-3.6-6.7-3.6-10.7c0.1-4.6-0.1-9.2,0.3-13.8c0.1-1.5,1-3.4,2.1-4.3
		c5.1-4.7,6.7-19.3,1.2-23.5c-4.4-3.5-4.1-7.3-4.1-11.5c0-4.4,0.2-8.9,0.2-13.3C545.7,105.5,545.8,52.8,545.9,0z"/>
	<path d="M545.9,0c-0.1,52.8-0.2,105.5-0.3,158.3c0,4.4-0.2,8.9-0.2,13.3c0,4.3-0.4,8.1,4.1,11.5c5.4,4.3,3.9,18.8-1.2,23.5
		c-1.2,1.1-2,2.8-2.1,4.3c-0.4,4.6-0.2,9.2-0.3,13.8c-0.1,4,0,7.3,3.6,10.7c5.9,5.7,3.7,19.2-2.9,24.1c-0.9,0.6-1.8,2-1.8,3
		c-0.1,9.5,0.1,19,0.2,28.5c-1.7,0-3.3,0-5,0c0.2-9.1,0.4-18.1,0.4-27.2c0-1.7-1.7-3.4-2.8-5c-6.8-10.5-17.9-17.8-21.8-30.4
		c-2.5-8.1-1.4-12,4.9-17.5c3.5-3.1,7.8-5.3,8.7-11.2c0.9-5.8-3.1-11.3-9-10.6c-14.9,1.9-29.9,2.2-44.5-2
		c-18.8-5.4-25.8-19.1-19.4-37.7c1.2-3.3,2.3-6.5,3.3-9.8c0.7-2.5,0.1-4.2-2.8-5.1c-9.8-3.3-14.5-11.4-7.5-22.3c1-1.5,1-4.2,0.4-6
		c-6.7-22.4,0-38,20.9-47.6c5.3-2.5,9.8-4.9,13.4-10.3c6.6-10,19.6-12.8,32.9-8.2c3.3,1.2,5.3,0.7,8.3-1.1c4.6-2.7,10-3.9,16.6-6.4
		c0-9.9,0-21.6,0-33.2C543.2,0,544.6,0,545.9,0z M531.2,191.1c2.2-3.2,3.8-7,6.7-9.3c2.3-1.9,2.8-3.5,2.8-6
		c0-17.9,0.1-35.8,0.2-53.8c0-5.9,0-11.8,0-18c-9.1-0.6-11.4-6.7-11.7-13.3c-8.3,0.6-15.9,2-23.5,1.7c-9-0.5-13.8-6.7-15.4-16.1
		c-3.1,2.5-5.8,4.3-7.9,6.4c-13.5,13-19.3,29.2-18.6,47.6c0.3,7.1-0.6,13.5-3.1,20.1c-6.6,17.1,0.3,30.2,17.9,35.3
		c13.8,4,28,3.5,42.1,2.2C524.9,187.5,529.2,186.5,531.2,191.1z M523.2,213.5c-7.8,5.6-3.2,23.6,8.3,31.5c1.5-3.6,3-7.3,4.4-10.6
		C531.8,227.4,527.6,220.7,523.2,213.5z M548.6,193.8c-0.4-2.2-0.4-5.2-1.5-7.9c-1.4-3.8-5.3-4.4-7.8-1.7c-3.6,4.2-3.5,16,0.2,20
		c3.2,3.5,6.8,2.7,8.1-1.9C548.2,199.7,548.1,197.1,548.6,193.8z M548.6,246.2c-0.5-2.6-0.6-5.6-1.8-8.2c-1.7-3.7-5.6-4.1-7.8-1.2
		c-3.3,4.3-3.1,15.3,0.2,19.3c2.8,3.5,6.4,2.9,7.8-1.2C547.9,252.2,548,249.4,548.6,246.2z M530.1,207.6c-3.4,3.9,1.8,16.1,9.3,22.4
		C541.4,220.2,539.1,215,530.1,207.6z"/>
	<path class="st3" d="M531.2,191.1c-2-4.6-6.4-3.6-10.6-3.3c-14.1,1.2-28.2,1.9-42.1-2.2c-17.7-5.1-24.5-18.2-17.9-35.3
		c2.5-6.6,3.4-13,3.1-20.1c-0.6-18.4,5.1-34.6,18.6-47.6c2.2-2.1,4.8-3.9,7.9-6.4c1.6,9.4,6.4,15.6,15.4,16.1
		c7.5,0.4,15.3-1,23.5-1.7c0.3,6.6,2.8,12.6,11.7,13.3c0,6.2,0,12.2,0,18c-0.1,17.9-0.2,35.8-0.2,53.8c0,2.6-0.5,4.2-2.8,6
		C535.1,184.1,533.5,187.9,531.2,191.1z M495,170.1c8.8,0.4,16.8,1,24.8,1.2c3.5,0.1,5.1-1.5,3.6-5.3c-1.6-4.3-2.8-8.7-4.1-13.1
		c-0.8-2.7-2.1-3.5-5.1-3c-5.3,0.9-10.7,1.2-16.1,2c-1.2,0.2-3,2-3.1,3.1C494.7,159.7,495,164.5,495,170.1z M530.6,128.4
		c0.1-3.8-2.6-6.7-6.1-6.9c-3.9-0.2-7.5,3-7.5,6.8c0,3.1,3.5,6.6,6.6,6.7C527.4,135.2,530.6,132.2,530.6,128.4z M485.6,132.4
		c-1-0.9-2.7-3.4-4.8-3.9c-3.5-1-7.1,2.6-7.2,6.2c-0.1,3.1,0.8,5.5,4.5,5.7C482,140.5,485.5,137.6,485.6,132.4z M492.5,140.4
		c3.5-1.8,7.1-2.4,8.2-4.4c1.2-2.4,0.4-5.9,0-9c-0.1-1-1.7-1.8-2.7-2.6c-0.5,1.1-1.3,2-1.5,3.1c-0.2,1.4,0.2,2.9,0.4,4.4
		c0.4,2.9-0.2,5-3.6,5.7c-1.6,0.4-2.9,2.2-4.3,3.4c1.3,1.6,2.4,3.5,4.1,4.6c1.3,0.9,3.4,0.9,5.1,1.2c0.1-0.4,0.2-0.8,0.2-1.2
		C496.4,144.1,494.6,142.5,492.5,140.4z M525.6,110.7c-4.8-1.5-8.6,0.1-12.2,1.9c-2.8,1.3-4.7,1.6-6.8-1.2c-0.7-1-2.6-1-4.9-1.7
		c2.8,6.1,5.2,7.3,10.4,5.7C516.3,114.1,520.5,112.5,525.6,110.7z M481,121c4.2-1.5,7.5-2.3,10.2-3.9c1.1-0.6,1.7-3.3,1.4-4.8
		c-0.2-0.9-2.6-1.2-4-1.9C491.4,118.5,483.4,116.5,481,121z M476.4,165.8c-0.6,0-1.2,0-1.9,0c0,3.3-0.2,6.7,0.1,9.9
		c0.1,0.8,1.8,1.4,2.8,2c0.9-1.9,1.8-3.7,2.7-5.7c0.1-0.1-0.6-0.5-1.2-1.2c-0.6,1.3-1.2,2.4-1.7,3.5c-0.3-0.1-0.5-0.2-0.8-0.3
		C476.4,171.4,476.4,168.7,476.4,165.8z M467,162c-0.6,0-1.2,0-2,0c0.3,2.3,0.4,4.6,0.9,6.7c0.1,0.4,3,0.8,3.3,0.4
		c0.9-1.7,1.3-3.6,2-5.5c-0.5-0.2-1-0.3-1.5-0.4c-0.5,1.2-1,2.5-2,5.1C467.4,165.2,467.2,163.6,467,162z"/>
	<path class="st3" d="M523.2,213.5c4.4,7.2,8.6,14,12.8,20.9c-1.4,3.4-2.9,7-4.4,10.6C520,237,515.4,219.1,523.2,213.5z"/>
	<path class="st3" d="M548.6,193.8c-0.4,3.4-0.4,6-1,8.5c-1.2,4.5-4.9,5.3-8.1,1.9c-3.7-4-3.8-15.8-0.2-20c2.5-2.8,6.3-2.2,7.8,1.7
		C548,188.5,548.1,191.6,548.6,193.8z"/>
	<path class="st3" d="M548.6,246.2c-0.5,3.2-0.7,6-1.6,8.6c-1.4,4.3-5,4.7-7.8,1.2c-3.4-4-3.5-15-0.2-19.3c2.2-2.9,6.2-2.6,7.8,1.2
		C548,240.6,548.1,243.6,548.6,246.2z"/>
	<path class="st3" d="M530.1,207.6c9.1,7.4,11.3,12.6,9.3,22.4C531.9,223.8,526.7,211.5,530.1,207.6z"/>
	<path d="M495,170.1c0-5.6-0.2-10.3,0.2-15.1c0.1-1.2,1.9-2.9,3.1-3.1c5.3-0.9,10.7-1.2,16.1-2c2.9-0.5,4.3,0.4,5.1,3
		c1.2,4.4,2.5,8.9,4.1,13.1c1.4,3.8-0.1,5.4-3.6,5.3C511.6,171.1,503.7,170.5,495,170.1z M518.9,168.9c-1.8-5.6-3.1-9.9-4.5-14.2
		c-0.2-0.6-1.1-1.6-1.6-1.5c-4,0.4-8.3,0.4-11.9,1.9c-1.2,0.5-0.8,5.1-1.1,7.7c-0.1,0.6-0.3,1.5,0.1,2c0.7,1.1,1.6,2.6,2.7,2.7
		C507.6,168,512.5,168.3,518.9,168.9z"/>
	<path d="M530.6,128.4c-0.1,3.8-3.3,6.8-7,6.7c-3.2-0.2-6.7-3.7-6.6-6.7c0-3.7,3.5-7,7.5-6.8C528.1,121.6,530.7,124.6,530.6,128.4z"
		/>
	<path d="M485.6,132.4c-0.1,5.2-3.5,8.2-7.5,8c-3.7-0.2-4.6-2.7-4.5-5.7c0.1-3.6,3.6-7.1,7.2-6.2
		C482.9,129.1,484.6,131.5,485.6,132.4z"/>
	<path d="M492.5,140.4c2.1,2,3.9,3.5,5.7,5.1c-0.1,0.4-0.2,0.8-0.2,1.2c-1.7-0.4-3.7-0.4-5.1-1.2c-1.6-1.2-2.8-3-4.1-4.6
		c1.4-1.2,2.8-3,4.3-3.4c3.5-0.8,4.1-2.8,3.6-5.7c-0.2-1.4-0.5-2.9-0.4-4.4c0.2-1.1,1-2,1.5-3.1c0.9,0.9,2.5,1.6,2.7,2.6
		c0.4,3,1.2,6.7,0,9C499.6,138.1,495.9,138.8,492.5,140.4z"/>
	<path d="M525.6,110.7c-5,1.8-9.2,3.4-13.6,4.7c-5.1,1.6-7.6,0.4-10.4-5.7c2.3,0.7,4.2,0.8,4.9,1.7c2,2.8,4.1,2.5,6.8,1.2
		C517,110.9,520.8,109.2,525.6,110.7z"/>
	<path d="M481,121c2.4-4.5,10.4-2.5,7.5-10.6c1.4,0.6,3.8,1,4,1.9c0.3,1.5-0.3,4.1-1.4,4.8C488.5,118.7,485.2,119.5,481,121z"/>
	<path d="M476.4,165.8c0,2.8,0,5.6,0,8.4c0.3,0.1,0.5,0.2,0.8,0.3c0.5-1.1,1.1-2.1,1.7-3.5c0.6,0.5,1.3,1,1.2,1.2
		c-0.8,2-1.8,3.8-2.7,5.7c-1-0.7-2.7-1.3-2.8-2c-0.4-3.3-0.1-6.7-0.1-9.9C475.2,165.8,475.8,165.8,476.4,165.8z"/>
	<path d="M467,162c0.2,1.6,0.4,3.3,0.7,6.1c1-2.5,1.5-3.7,2-5.1c0.5,0.2,1,0.3,1.5,0.4c-0.6,1.9-1,3.8-2,5.5
		c-0.2,0.4-3.1,0.1-3.3-0.4c-0.6-2.2-0.7-4.5-0.9-6.7C465.7,161.9,466.3,162,467,162z"/>
	<path class="st3" d="M518.9,168.9c-6.4-0.5-11.4-0.9-16.3-1.5c-1-0.2-1.9-1.7-2.7-2.7c-0.3-0.4-0.1-1.2-0.1-2
		c0.3-2.7-0.2-7.2,1.1-7.7c3.6-1.5,7.9-1.5,11.9-1.9c0.5-0.1,1.3,0.9,1.6,1.5C515.9,159,517.1,163.3,518.9,168.9z"/>
</g>
<rect y="276.9" class="st4" width="596.2" height="51.3"/>
<g>
	<path d="M68.1,58.3c0-0.8,0-1.5-0.1-2.2c-10.1,9.1-19.9,10.4-20.3,10.4c-1.4,0-2.2-1.3-2.2-2.5c0-0.9,0.5-1.9,1.6-2.1
		C53,60.6,61.3,57.3,67.2,51c-0.2-1-0.5-1.9-0.9-2.7c-8.8,7.5-17.3,9-17.7,9c-1.4,0-2.2-1.2-2.2-2.5c0-1,0.5-2,1.7-2.2
		c5.5-1.1,11.1-3.4,16.4-7.8c-0.5-0.6-1.2-1.4-1.7-1.9c-6.8,4-12.7,5.5-13.5,5.5c-1.3,0-2.2-1.3-2.2-2.5c0-1,0.5-1.9,1.7-2.1
		c4.9-0.9,9.4-2.4,13.9-5.2h-9.6c-1.3,0-2-1.1-2-2.2c0-1.1,0.7-2.2,2-2.2h29.2c1.4,0,2,1.1,2,2.2c0,1.1-0.6,2.2-2,2.2H76
		c0.2,3,1,6.3,2,9.8c2.4-1.4,5-3.7,6.7-6c0.4-0.5,0.9-0.8,1.3-0.8c1.2,0,2.3,1.4,2.3,2.7c0,0.4-0.1,0.8-0.4,1.1
		c-2.6,2.8-4.9,4.6-8.5,6.8c2.1,4.6,4.9,6.9,9.5,9.9c0.7,0.4,1,1.1,1,1.8c0,1.3-1.1,2.7-2.4,2.7c-0.3,0-0.6-0.1-0.9-0.3
		c-11-6.9-13.5-17.6-15-27.9h-2.9c-0.7,0.8-1.6,1.5-2.5,2.2c2.7,3,6,9.1,6,18.1c0,5.6-1,9.7-6.4,9.7c-1.3,0-2.8-0.2-4.7-0.7
		c-0.8-0.2-1.3-1.2-1.3-2.2c0-1.1,0.5-2.2,1.7-2.2c0.1,0,0.3,0,0.5,0c1.3,0.3,2.3,0.5,3.1,0.5c2.8,0,2.6-2,2.8-5.1v-0.4H68.1z
		 M89,34c0,1.1-1.1,1.7-2.2,1.7s-2.2-0.6-2.2-1.7v-2c0-0.5-0.5-0.7-1-0.7H51.8c-0.5,0-0.7,0.2-0.7,0.7v2c0,1.1-1.1,1.7-2.2,1.7
		c-1.1,0-2.2-0.6-2.2-1.7v-3.5c0-2.4,1.2-3.6,3.6-3.6h14.8v-1.2c0-1.4,1.4-2,2.8-2s2.8,0.6,2.8,2V27h15c2.4,0,3.6,1.2,3.6,3.6V34H89
		z"/>
	<path d="M103,31.5c-0.5,0-0.7,0.2-0.7,0.7v4.2c0,17-0.1,22.8-2.8,30.6c-0.3,0.9-1,1.3-1.8,1.3c-1.2,0-2.6-1-2.6-2.5
		c0-0.2,0-0.5,0.1-0.8c2.4-6.5,2.5-12.3,2.5-28.7v-5.9c0-2.4,1.2-3.6,3.6-3.6h14.9v-1.2c0-1.4,1.3-2,2.6-2c1.3,0,2.6,0.6,2.6,2V27
		h15.4c1.3,0,2,1.1,2,2.2s-0.6,2.2-2,2.2L103,31.5L103,31.5z M137.9,62.7c1.3,0,2,1.1,2,2.3c0,1.3-0.8,2.6-2.6,2.7
		c-2.1,0.1-5.5,0.2-8.7,0.2c-7.8,0-12.4-0.3-16.8-3.6c-2.1,2.1-5.3,4.1-6.5,4.1c-1.4,0-2.5-1.4-2.5-2.7c0-0.7,0.3-1.3,1-1.7
		c1.9-1,3.4-2.1,4.6-3.1c-1.5-2-3.4-5.2-3.4-6.3c0-1.3,1.4-2.4,2.6-2.4c0.7,0,1.4,0.3,1.7,1.2c0.5,1.5,1.2,2.8,1.9,3.9
		c0.9-1.8,1.2-3.9,1.2-6.6c0-0.1-0.1-0.4-0.4-0.4h-4.7c-1.7,0-2.7-1.2-2.7-2.6c0-0.7,0.3-1.5,0.9-2.2c1.7-2,5.7-6.4,5.7-6.4h-5.5
		c-1.3,0-2-1.1-2-2.2c0-1.1,0.7-2.2,2-2.2h8c2.6,0,3.4,1.1,3.4,2.4c0,0.8-0.3,1.6-0.8,2.2c-1.4,1.7-5.7,6.7-5.7,6.7h3.3
		c2.5,0,3.3,1.3,3.3,3.1v0.3c-0.2,4.8-1,8.5-2.7,11.5c2.7,1.9,6.2,2.6,10.1,2.6h0.4c4.3,0,9.1-0.3,12.4-0.7L137.9,62.7L137.9,62.7z
		 M121.5,60.1c-1.3,0-2-1.1-2-2.2c0-1.1,0.7-2.2,2-2.2h5.3v-6.3h-6.3c-1.3,0-2-1.1-2-2.2c0-1.1,0.7-2.2,2-2.2h6.3v-5.5
		c-1.7,0.1-3.5,0.3-5.6,0.3h-0.1c-1.3,0-2.2-1.4-2.2-2.6c0-0.9,0.5-1.7,1.7-1.7c7.6-0.3,13-1.3,15.3-1.8c0.1,0,0.2,0,0.3,0
		c1.3,0,2.3,1.4,2.3,2.6c0,1.4-0.6,1.8-7.2,2.7v6.1h6.5c1.4,0,2,1.1,2,2.2c0,1.1-0.6,2.2-2,2.2h-6.5v6.3h5.6c1.4,0,2,1.1,2,2.2
		c0,1.1-0.6,2.2-2,2.2L121.5,60.1L121.5,60.1z"/>
	<path d="M148.3,34.4c-1.8,0-2.7-1.3-2.7-2.6c0-1.2,0.8-2.4,2.3-2.5c9.8-0.6,21.2-1.3,38.8-1.4c1.7,0,2.7,1.4,2.7,2.8
		c0,1.2-0.8,2.5-2.4,2.7c-18.6,2.4-28.7,12.3-28.7,20.2c0,5.3,4.4,9.6,14.3,9.6c2.2,0,4.7-0.2,7.4-0.7c0.2,0,0.3,0,0.5,0
		c1.6,0,2.6,1.3,2.6,2.7c0,1.2-0.7,2.4-2.4,2.7c-3.1,0.5-6,0.8-8.5,0.8c-13.4,0-19.2-7.1-19.2-14.8c0-9.7,9-17.6,19.6-21
		c-9.1,0.4-16.7,1-24,1.6h-0.3V34.4z M179.6,48.3c-0.5,0-1.1-0.2-1.5-0.8c-1.1-1.8-2.5-3.7-3.7-5c-0.3-0.3-0.4-0.7-0.4-1.1
		c0-0.9,0.9-1.8,1.8-1.8c0.4,0,0.9,0.2,1.3,0.6c1.9,2,4.5,5.2,4.5,6.2S180.6,48.3,179.6,48.3z M184.3,45.1c-0.5,0-1-0.2-1.4-0.8
		c-1.1-1.6-2.4-3.2-3.5-4.3c-0.4-0.4-0.6-0.8-0.6-1.2c0-0.9,0.8-1.6,1.8-1.6c0.4,0,0.9,0.2,1.3,0.5c1.2,1.2,4.2,4.4,4.2,5.7
		C186.1,44.3,185.2,45.1,184.3,45.1z"/>
	<path d="M240.4,47.5c-0.2,11.4-7.4,18.5-18.6,20.2c-0.2,0-0.4,0-0.6,0c-1.9,0-3-1.5-3-2.9c0-1.1,0.6-2.1,2.1-2.3
		c10.5-1.7,14.7-8,14.9-14.8v-0.5c0-7.7-4.7-13-11.7-14.3c-2.7,14.2-8.1,24.7-16,30.4c-1.3,1-2.8,1.5-4.4,1.5
		c-2.7,0-8.9-2.2-8.9-12.9c0-14,11.8-23.8,26.3-23.8c10.8,0,20,6.9,20,18.7v0.7H240.4z M199.1,52.4c0,0.3,0,0.6,0,1
		c0.2,3.4,1.8,5.9,4,5.9c3.8,0,12.1-10.2,15.4-26.5C206.9,33.7,199.1,42.3,199.1,52.4z"/>
	<path d="M66.9,95.1c-1,0.8-5.7,3.2-7.2,3.2c-1.6,0-2.5-1.3-2.5-2.7c0-1,0.5-2,1.7-2.4c2.4-0.8,5.9-2.6,8-4.3c0.5-0.4,1.3-0.6,2-0.6
		c1.6,0,3.4,1,3.4,3.1v34.7c0,1.5-1.4,2.3-2.7,2.3c-1.4,0-2.8-0.8-2.8-2.3L66.9,95.1L66.9,95.1z"/>
	<path d="M134.4,125.3c1.1,0,1.6,1,1.6,2.1c0,1.4-0.8,3-2.4,3.1c-4.5,0.2-8.5,0.4-12.2,0.4c-10.6,0-17.7-1.2-21.7-4.6
		c-3.3,4.1-5.3,5.3-5.9,5.3c-1.3,0-2.7-1.5-2.7-3c0-0.7,0.3-1.4,1-1.9c2.3-1.7,3.4-3.1,4-4.1v-14.8c0-0.4-0.2-0.6-0.6-0.6h-2.4
		c-1.4,0-2.2-1.2-2.2-2.3c0-1.2,0.7-2.4,2.2-2.4H98c1.9,0,2.9,0.9,2.9,2.9v15.8c2.4,3.6,7.8,5,17.3,5c4.4,0,9.7-0.3,15.9-0.8
		L134.4,125.3L134.4,125.3z M98.1,97.4c-0.7,0-1.4-0.3-1.8-1.1c-0.7-1.3-2.2-3.6-4-5.6c-0.4-0.5-0.6-1-0.6-1.5
		c0-1.3,1.3-2.3,2.6-2.3c0.7,0,1.4,0.2,1.9,0.9c1.4,1.6,4.5,5.6,4.5,7.2C100.6,96.4,99.3,97.4,98.1,97.4z M129.4,92.9
		c0-0.4-0.2-0.6-0.6-0.6h-20.2c-0.4,0-0.6,0.2-0.6,0.6v7.7c0,7.4,0,14.4-1.8,21c-0.3,1.2-1.1,1.6-2,1.6c-1.3,0-2.7-1.1-2.7-2.6
		c0-0.2,0-0.5,0.1-0.7c1.8-6,1.8-10.6,1.8-18.1v-11c0-1.9,0.9-2.9,2.9-2.9h24.9c1.9,0,2.9,0.9,2.9,2.9v29.1c0,3.4-1.1,5.2-5.3,5.2
		c-5.2,0-5.6-1.1-5.6-2.6c0-0.2,0-0.5,0-0.7h-11c-1.5,0-2.2-0.7-2.2-2.2V111c0-1.5,0.7-2.2,2.2-2.2h12.6c1.5,0,2.2,0.7,2.2,2.2v8.6
		c0,0.2,0,0.5,0,0.7h0.4c1.8,0,1.9-0.9,1.9-2V92.9H129.4z M110.5,106.6c-1.2,0-1.8-1-1.8-2s0.6-2,1.8-2h5.8v-3.3h-4.5
		c-1.2,0-1.8-0.9-1.8-1.9c0-0.9,0.6-1.9,1.8-1.9h4.5v-1.2c0-0.9,1.1-1.3,2.3-1.3c1.1,0,2.3,0.4,2.3,1.3v1.2h4.8
		c1.2,0,1.9,0.9,1.9,1.9s-0.6,1.9-1.9,1.9h-4.8v3.3h6.1c1.2,0,1.9,1,1.9,2s-0.6,2-1.9,2H110.5z M122.7,112.8c0-0.3-0.1-0.4-0.4-0.4
		H115c-0.3,0-0.4,0.1-0.4,0.4v4.7c0,0.3,0.1,0.5,0.4,0.5h7.3c0.3,0,0.4-0.1,0.4-0.5V112.8z"/>
	<path d="M142.2,91c0-1.9,0.9-2.9,2.9-2.9h13.8c1.9,0,2.9,0.9,2.9,2.9v11c0,1.9-0.9,2.7-2.9,2.7h-12.1v24.9c0,1.4-1.1,2-2.3,2
		c-1.1,0-2.3-0.6-2.3-2L142.2,91L142.2,91z M157.3,92.8c0-0.4-0.2-0.6-0.6-0.6h-9.3c-0.4,0-0.6,0.2-0.6,0.6v1.7h10.5L157.3,92.8
		L157.3,92.8z M157.3,98.2h-10.5v2.5h9.9c0.4,0,0.6-0.2,0.6-0.6V98.2z M180.1,104.7H168c-1.9,0-2.9-0.7-2.9-2.7V91
		c0-1.9,0.9-2.9,2.9-2.9h13.8c1.9,0,2.9,0.9,2.9,2.9v35.6c0,3.4-1.3,5-5.2,5c-1.4,0-3.1-0.1-5.1-0.5c-1.4-0.2-2-1.3-2-2.4
		c0-0.3,0.1-0.7,0.2-1H155c-1.9,0-3.4-1.4-3.4-3.4v-14c0-2.1,1.1-3.4,3.4-3.4h16.7c1.9,0,3.4,1.4,3.4,3.4v14c0,0.6-0.1,1.6-0.3,2
		c1.6,0.2,2.8,0.4,3.6,0.4c1.3,0,1.7-0.3,1.7-1.2L180.1,104.7L180.1,104.7z M170.6,111.8c0-0.4-0.2-0.6-0.6-0.6h-13.3
		c-0.4,0-0.6,0.2-0.6,0.6v2.9h14.5L170.6,111.8L170.6,111.8z M170.6,119.1h-14.5v3.6c0,0.4,0.2,0.6,0.6,0.6H170
		c0.4,0,0.6-0.2,0.6-0.6V119.1z M180.1,92.8c0-0.4-0.2-0.6-0.6-0.6h-9.3c-0.4,0-0.6,0.2-0.6,0.6v1.7h10.5L180.1,92.8L180.1,92.8z
		 M180.1,98.2h-10.5v1.9c0,0.4,0.2,0.6,0.6,0.6h9.9V98.2z"/>
	<path d="M236.4,110.5c-0.2,11.4-7.4,18.5-18.6,20.2c-0.2,0-0.4,0-0.6,0c-1.9,0-3-1.5-3-2.9c0-1.1,0.6-2.1,2.1-2.3
		c10.5-1.7,14.7-8,14.9-14.8v-0.5c0-7.7-4.7-13-11.7-14.3c-2.7,14.2-8.1,24.7-16,30.4c-1.3,1-2.8,1.5-4.4,1.5
		c-2.7,0-8.9-2.2-8.9-12.9c0-14,11.8-23.8,26.3-23.8c10.8,0,20,6.9,20,18.7v0.7H236.4z M195.1,115.4c0,0.3,0.1,0.6,0.1,1
		c0.2,3.4,1.8,5.9,4,5.9c3.8,0,12.1-10.2,15.4-26.5C202.9,96.7,195.1,105.3,195.1,115.4z"/>
	<path d="M49.9,169.5l-0.9,1.2c-0.4,0.5-0.8,0.7-1.2,0.7c-1.2,0-2.5-1.8-2.5-3.3c0-0.5,0.1-1,0.4-1.3c2.8-3.4,5.4-9.5,6.8-15.5
		c0.2-1,1.2-1.5,2.2-1.5c1.2,0,2.4,0.7,2.4,2c0,1-1.1,5.1-2.5,8.6v32.1c0,1.4-1.1,2-2.2,2c-1.2,0-2.4-0.7-2.4-2L49.9,169.5
		L49.9,169.5z M62.3,164.8c-0.4,0-0.5,0.3-0.5,0.6v9.4c0,4.9-0.1,11.1-1.5,16.4c-0.3,1.1-1,1.5-1.8,1.5c-1.3,0-2.8-1.1-2.8-2.7
		c0-0.2,0-0.5,0.1-0.7c1.3-4.3,1.4-10.3,1.4-15v-9.1c0-3.6,1.5-4.6,4.6-4.6h3.7c-0.9-0.2-1.7-0.8-1.7-1.9v-1.2h-4.9
		c-1.3,0-2-1.1-2-2.1c0-1.1,0.7-2.1,2-2.1h4.9v-1.4c0-1.4,1.2-2,2.4-2c1.1,0,2.3,0.6,2.3,2v1.4h8.9v-1.4c0-1.4,1.2-2,2.4-2
		c1.1,0,2.3,0.6,2.3,2v1.4H87c1.4,0,2,1,2,2.1c0,1-0.6,2.1-2,2.1h-4.9v1.4c0,1-0.8,1.5-1.8,1.7h7.9c1.4,0,2,1,2,2.1s-0.6,2.1-2,2.1
		H62.3z M84.4,184.9h-6.1v6.4c0,1.2-1.1,1.8-2.2,1.8s-2.2-0.6-2.2-1.8v-6.4h-5.8v8c0,1.1-1.1,1.7-2.2,1.7s-2.2-0.5-2.2-1.7V170
		c0-1.9,0.9-2.9,2.9-2.9h19.5c1.9,0,2.9,0.9,2.9,2.9v19c0,3-0.5,5.1-4.6,5.1c-3.6,0-5.2-0.6-5.2-2.5c0-1.1,0.7-2.2,2-2.2
		c0.2,0,0.3,0,0.5,0c0.7,0.1,1.2,0.2,1.6,0.2c0.8,0,1-0.4,1-1.3L84.4,184.9L84.4,184.9z M77.3,157.4h-8.9v1.2c0,1.1-0.7,1.7-1.7,1.9
		h12.4c-0.9-0.2-1.7-0.8-1.7-1.8v-1.3H77.3z M73.9,171.3h-5.2c-0.4,0-0.6,0.2-0.6,0.6v2.3h5.8C73.9,174.2,73.9,171.3,73.9,171.3z
		 M73.9,177.9h-5.8v3.4h5.8V177.9z M84.4,171.9c0-0.4-0.2-0.6-0.6-0.6h-5.5v2.9h6.1V171.9z M84.4,177.9h-6.1v3.4h6.1V177.9z"/>
	<path d="M119,162.9c-1.9,1.4-4.3,3.1-6.4,4.5c1.4,0.7,2.6,1.3,3.3,1.7c3-1.6,7-4.1,9.1-5.7c0.3-0.2,0.6-0.3,1-0.3
		c1.2,0,2.5,1,2.5,2.2c0,0.5-0.2,1-0.9,1.4c-1.7,1.1-4.4,2.5-6.6,3.3c3.9-0.1,7.7-0.3,10-0.4c-0.3-0.4-0.8-0.8-1.2-1.2
		s-0.6-0.8-0.6-1.2c0-1.1,1.3-2.1,2.4-2.1c0.3,0,0.7,0.1,1,0.3c2.7,2.2,5.1,4.9,6.7,6.8c0.4,0.4,0.5,0.9,0.5,1.4
		c0,1.2-1.1,2.3-2.3,2.3c-0.5,0-1.1-0.2-1.5-0.8c-0.5-0.7-1.1-1.4-1.7-2c-4.7,0.3-20.7,1.1-34.7,1.1h-2.4c-1.4,0-2.2-1.2-2.2-2.3
		c0-1,0.6-1.9,1.9-1.9H97c4.7,0.1,9.6,0.2,13.6,0.2c-2.8-1.2-5.4-2.1-8.1-3c-0.9-0.3-1.3-0.9-1.3-1.5c0-1.1,1.2-2.4,2.5-2.4
		c0.2,0,0.5,0,5,2.2c1.1-0.6,2.4-1.5,3.8-2.5h-15c-1.3,0-2-1-2-2s0.7-2,2-2h17.4v-0.3c0-1.4,1.2-2,2.5-2c1.2,0,2.5,0.6,2.5,2v0.3
		h17.4c1.3,0,2,1,2,2s-0.6,2-2,2H119V162.9z M129.4,156.3v0.4c0,1.3-1.1,2-2.2,2c-1.1,0-2.2-0.7-2.2-2v-0.4h-14.8v0.4
		c0,1.3-1.1,2-2.2,2s-2.2-0.7-2.2-2v-0.4h-8.6c-1.3,0-1.9-1-1.9-2.1c0-1,0.6-2,1.9-2h8.6v-0.4c0-1.4,1.1-2,2.2-2s2.2,0.6,2.2,2v0.4
		H125v-0.4c0-1.4,1.1-2,2.2-2c1.1,0,2.2,0.6,2.2,2v0.4h8.7c1.3,0,1.9,1,1.9,2s-0.6,2.1-1.9,2.1H129.4z M101.3,193.5
		c-2.4,0-3.6-1.2-3.6-3.6v-10.8c0-2.4,1.2-3.6,3.6-3.6h32.6c2.4,0,3.6,1.2,3.6,3.6v10.8c0,2.4-1.2,3.6-3.6,3.6H101.3z M115.3,179.7
		h-12.4c-0.5,0-0.7,0.2-0.7,0.7v2h13.1V179.7z M115.3,186.2h-13.1v2.3c0,0.5,0.2,0.7,0.7,0.7h12.4V186.2z M133,180.5
		c0-0.5-0.2-0.7-0.7-0.7h-12.5v2.7H133V180.5z M133,186.2h-13.2v3h12.5c0.5,0,0.7-0.2,0.7-0.7V186.2z"/>
	<path d="M146.7,168.2c-1.1,0-1.7-0.9-1.7-1.8c0-0.9,0.6-1.8,1.7-1.8h41.4c1.2,0,1.7,0.9,1.7,1.8c0,0.9-0.5,1.8-1.7,1.8H146.7z
		 M146.8,193.3c-1.2,0-1.8-0.9-1.8-1.8c0-0.9,0.6-1.8,1.8-1.8H165v-1.9h-16.5c-1.1,0-1.7-0.8-1.7-1.7s0.6-1.7,1.7-1.7H165v-1.8h-14
		c-1.9,0-2.9-0.9-2.9-2.9v-7c0-1.9,0.9-2.9,2.9-2.9h33c1.9,0,2.9,0.9,2.9,2.9v7c0,1.9-0.9,2.9-2.9,2.9h-14.4v1.8h16.9
		c1.1,0,1.7,0.8,1.7,1.7c0,0.8-0.5,1.6-1.7,1.6h-16.9v1.9h18.3c1.2,0,1.9,0.9,1.9,1.8c0,0.9-0.6,1.8-1.9,1.8L146.8,193.3
		L146.8,193.3z M151.8,163.1c-1.9,0-3-0.8-3-2.7v-6.6c0-1.9,0.9-2.9,2.9-2.9h31.7c1.9,0,2.9,0.9,2.9,2.9v6.6c0,1.9-0.9,2.7-2.9,2.7
		H151.8z M165,172.7h-11.6c-0.4,0-0.6,0.2-0.6,0.6v1.4H165V172.7z M165,177.5h-12.2v1.4c0,0.4,0.2,0.6,0.6,0.6H165V177.5z
		 M181.6,154.8c0-0.4-0.2-0.6-0.6-0.6h-27c-0.4,0-0.6,0.2-0.6,0.6v0.9h28.2L181.6,154.8L181.6,154.8z M181.6,158.3h-28.2v1
		c0,0.4,0.2,0.6,0.6,0.6h27c0.4,0,0.6-0.2,0.6-0.6L181.6,158.3L181.6,158.3z M182.2,173.3c0-0.4-0.2-0.6-0.6-0.6h-12.1v2h12.7
		L182.2,173.3L182.2,173.3z M182.2,177.5h-12.7v2h12.1c0.4,0,0.6-0.2,0.6-0.6L182.2,177.5L182.2,177.5z"/>
	<path d="M222.5,183.1v-6.2c-7.6,3.4-10.4,6.6-10.4,9.2c0,2.7,2.9,3.4,12,3.4c3.9,0,6.9-0.3,10.2-0.7c0.1,0,0.2,0,0.4,0
		c1.3,0,2.1,1.1,2.1,2.3s-0.7,2.5-2.3,2.7c-3.6,0.4-6.2,0.6-10.4,0.6c-12.8,0-17.1-2.4-17.1-7.7c0-5.9,5.9-10.5,15.4-14.6
		c-0.5-2.4-2-3.5-4-3.5c-6.2,0-12.2,5.3-17.2,12.3c-0.6,0.9-1.4,1.2-2.2,1.2c-1.5,0-2.8-1.3-2.8-2.7c0-0.5,0.2-1.1,0.7-1.6
		c5.5-6.2,9-11.7,11.5-17.7c-2.9,0-5.8,0-8.6,0c-1.4,0-2.1-1.2-2.1-2.4c0-1.1,0.6-2.2,1.9-2.2h0.1c2.5,0,5,0.1,7.5,0.1h2.8
		c0.4-1.3,0.8-2.7,1.2-4.1c0.2-1,1.2-1.5,2.2-1.5c1.3,0,2.8,0.8,2.8,2.2c0,0.5-0.4,1.7-0.9,3.2c5.6-0.2,11.2-0.6,16.7-1.1h0.2
		c1.4,0,2.2,1.2,2.2,2.4c0,1.1-0.6,2.1-1.9,2.2c-4,0.3-11.5,0.9-19,1c-1,2.3-2.1,4.7-3.6,7.1c2.6-1.9,5.8-2.9,8.3-2.9
		c4.4,0,7.6,1.8,8.7,6.2c2.5-0.9,5.3-1.9,8.3-2.8c0.3-0.1,0.6-0.1,0.9-0.1c1.5,0,2.3,1.3,2.3,2.5c0,0.9-0.5,1.8-1.5,2.1
		c-3.6,1-6.8,2-9.6,3v8.3c0,1.4-1.3,2.1-2.6,2.1S222.5,184.5,222.5,183.1L222.5,183.1z"/>
	<path d="M81,236c-0.3,9.7-4.1,18.2-15.8,21.2c-0.3,0-0.5,0.1-0.8,0.1c-1.7,0-2.8-1.4-2.8-2.9c0-1,0.6-2.1,1.9-2.4
		c9-2.3,11.9-7.6,12.2-16H56.2c-1.5,0-2.2-1.2-2.2-2.4s0.7-2.4,2.2-2.4h19.4v-9.9c-4.2,0.2-8.8,0.3-13.9,0.3c-1.7,0-2.5-1.2-2.5-2.4
		s0.8-2.4,2.3-2.4c13.5,0,22.6-0.7,29.2-2c0.2,0,0.4,0,0.5,0c1.5,0,2.4,1.3,2.4,2.6c0,1-0.5,2-1.7,2.2c-3.1,0.6-6.8,1.1-11,1.4v10.3
		h16.3c1.4,0,2.2,1.2,2.2,2.4s-0.7,2.4-2.2,2.4H81V236z"/>
	<path d="M105.9,255.6c-1.2,0-1.9-1.1-1.9-2.3c0-1.1,0.6-2.3,1.9-2.3h13.7v-20.1H109c-1.3,0-2-1.1-2-2.2c0-1.1,0.7-2.2,2-2.2h26.3
		c1.3,0,2,1.1,2,2.2c0,1.1-0.7,2.2-2,2.2h-10.8V251h13.7c1.3,0,1.9,1.1,1.9,2.3c0,1.1-0.6,2.3-1.9,2.3H105.9z"/>
	<path d="M152.9,240.1c-0.8,0-1.6-0.4-2-1.4c-1.3-3.8-2.8-6.9-4.6-9.6c-0.2-0.4-0.3-0.8-0.3-1.2c0-1.3,1.2-2.4,2.5-2.4
		c0.7,0,1.4,0.3,2,1.2c3.8,5.7,5.1,10.7,5.1,11.1C155.6,239.1,154.2,240.1,152.9,240.1z M180.2,227c-0.8,13.2-5.7,24.8-22.4,30
		c-0.4,0.1-0.8,0.2-1.2,0.2c-1.6,0-2.5-1.2-2.5-2.5c0-1,0.5-2,1.7-2.3c15.6-4.6,18.9-14.4,19.7-25.9c0-1.3,1.1-2,2.3-2
		s2.5,0.8,2.5,2.3v0.2H180.2z M163.3,238c-1,0-1.9-0.5-2.1-1.6c-0.7-3.7-1.8-7.6-3.1-10.5c-0.1-0.3-0.2-0.6-0.2-0.9
		c0-1.2,1.3-2.1,2.6-2.1c0.9,0,1.9,0.4,2.3,1.5c1.1,2.9,2.1,6.1,3,11c0,0.1,0,0.3,0,0.5C165.9,237.1,164.6,238,163.3,238z"/>
	<path d="M205.1,224.1c-3.5,4.7-10.9,11-13.3,11c-1.6,0-2.8-1.4-2.8-2.8c0-0.8,0.4-1.6,1.3-2.1c6.4-3.6,12-10.1,14.2-15.8
		c0.4-1,1.4-1.4,2.4-1.4c1.4,0,2.9,0.8,2.9,2.3c0,1.1-1.2,3.4-1.6,4.1h16.5c3.7,0,5.6,2,5.6,5.2c0,0.4-0.1,0.9-0.1,1.3
		c-2.2,15.7-10.5,28.6-32.5,30.9c-0.1,0-0.3,0-0.4,0c-1.8,0-2.8-1.4-2.8-2.8c0-1.2,0.7-2.4,2.3-2.6c16.9-1.9,25.9-10.9,28-25.7
		c0.1-0.2,0.1-0.4,0.1-0.6c0-0.7-0.3-0.9-1.2-0.9h-18.6V224.1z"/>
</g>
<g>
	<path class="st3" d="M72.1,318.2c-1.7,0-3-1.4-3-3v-21.9c0-1.7,1.4-3,3-3h20.3c1.6,0,3,1.3,3,3v21.9c0,1.7-1.3,3-3,3H72.1z
		 M92.1,294.5c0-0.6-0.5-1.1-1.1-1.1H73.5c-0.6,0-1.1,0.5-1.1,1.1v3.6H92L92.1,294.5L92.1,294.5z M92.1,301.3H72.4v5.1H92
		L92.1,301.3L92.1,301.3z M92.1,309.6H72.4v4.4c0,0.6,0.5,1.1,1.1,1.1H91c0.6,0,1.1-0.5,1.1-1.1V309.6z"/>
	<path class="st3" d="M126.1,302.7c-1.5,3.9-3.3,7-5.8,9.5c2.7,1,5.5,2.2,8.6,3.5c0.6,0.2,0.8,0.7,0.8,1.3c0,1-0.8,2.1-1.8,2.1
		c-0.2,0-0.4,0-0.5-0.1c-3.2-1.6-6.5-3-9.9-4.4c-3.4,2.4-8,3.8-14.2,4.5H103c-1.1,0-1.8-0.9-1.8-1.8c0-0.8,0.5-1.5,1.5-1.6
		c4.3-0.3,7.8-1.2,10.7-2.6c-2.2-0.8-4.5-1.5-6.8-2.2c-1.5-0.4-2.2-1.4-2.2-2.4c0-0.7,0.3-1.4,0.9-2c1.1-1.2,2.1-2.5,3-3.7H102
		c-0.9,0-1.4-0.8-1.4-1.5s0.5-1.5,1.4-1.5h8.5c0.8-1.3,1.6-2.7,2.3-4.1c0.3-0.6,0.8-0.8,1.4-0.8c1,0,2,0.7,2,1.6
		c0,0.5-0.3,1-1.7,3.3h14.8c0.9,0,1.4,0.8,1.4,1.5c0,0.8-0.4,1.5-1.4,1.5L126.1,302.7L126.1,302.7z M126.7,295
		c0-0.3-0.4-0.5-0.7-0.5h-21.2c-0.3,0-0.5,0.2-0.5,0.5v2.3c0,0.7-0.7,1.1-1.5,1.1c-0.7,0-1.5-0.4-1.5-1.1v-3.5
		c0-1.6,0.8-2.4,2.4-2.4h9.9v-1.1c0-0.8,0.9-1.2,1.7-1.2c0.9,0,1.7,0.4,1.7,1.2v1.1h10.3c1.6,0,2.4,0.8,2.4,2.4v3.4
		c0,0.7-0.7,1.1-1.5,1.1c-0.7,0-1.5-0.4-1.5-1.1V295z M112.3,302.7c-1.1,1.5-2.3,3.1-3.8,4.7c-0.2,0.2-0.2,0.3-0.2,0.4
		c0,0.2,0.2,0.4,0.4,0.5c2.8,0.8,5.4,1.6,8,2.6c2.5-2,4.4-4.7,5.8-8.2H112.3z"/>
	<path class="st3" d="M136.2,318.4c-0.9,0-1.4-0.7-1.4-1.5s0.5-1.5,1.4-1.5h10.9v-2.9h-5.7c-0.8,0-1.2-0.8-1.2-1.5v-0.2
		c-2,1.8-4.3,3.1-4.8,3.1c-0.8,0-1.6-1-1.6-1.9c0-0.5,0.2-1,0.8-1.2c2.2-1,4.1-2.3,5.8-4.1h-5.5c-0.8,0-1.2-0.7-1.2-1.4
		c0-0.7,0.4-1.4,1.2-1.4h2.9v-10.2h-2c-0.9,0-1.3-0.7-1.3-1.4c0-0.7,0.4-1.4,1.3-1.4h2v-0.5c0-0.8,0.8-1.2,1.6-1.2s1.6,0.4,1.6,1.2
		v0.5h15.3v-0.5c0-0.8,0.8-1.2,1.6-1.2s1.6,0.4,1.6,1.2v0.5h2.1c0.9,0,1.3,0.7,1.3,1.4c0,0.7-0.4,1.4-1.3,1.4h-2.1v10.2h3
		c0.8,0,1.2,0.7,1.2,1.4c0,0.7-0.4,1.4-1.2,1.4h-5.4c1.7,1.8,3.6,3.1,5.8,4.1c0.6,0.2,0.8,0.7,0.8,1.2c0,0.9-0.8,1.9-1.6,1.9
		s-3.1-1.9-4.7-3.1v0.2c0,0.7-0.4,1.5-1.2,1.5h-6.1v2.9h11.2c0.9,0,1.4,0.7,1.4,1.5c0,0.7-0.4,1.5-1.4,1.5H136.2z M156.5,293.6
		h-15.3v1.6h15.3V293.6z M156.5,297.7h-15.3v1.7h15.3V297.7z M156.5,301.8h-15.3v2h15.3V301.8z M144.1,306.7
		c-0.8,1.1-1.8,2.2-2.6,3.1h5.7v-1.3c0-0.9,0.8-1.4,1.6-1.4s1.6,0.4,1.6,1.4v1.3h6.1c-0.9-0.9-1.9-2-2.7-3.1H144.1z"/>
	<path class="st3" d="M168.1,296.4c-0.5-0.3-0.7-0.8-0.7-1.3c0-0.8,0.6-1.6,1.5-1.6c0.3,0,0.5,0.1,0.8,0.2c3.5,2.1,3.6,2.1,3.6,3
		c0,0.8-0.7,1.7-1.5,1.7C171.4,298.4,171.3,298.3,168.1,296.4z M167.4,306.8c0-0.4,0.1-0.7,0.5-1c2-1.7,3.5-3.4,4.6-4.8
		c0.3-0.4,0.7-0.6,1.1-0.6c0.8,0,1.6,0.8,1.6,1.7c0,0.3-0.1,0.6-0.3,0.8c-0.8,1.3-4.3,5.7-5.7,5.7
		C168.3,308.6,167.4,307.7,167.4,306.8z M183.9,313.4v4.3c0,0.9-0.8,1.4-1.6,1.4s-1.7-0.4-1.7-1.4v-4.3H169c-0.9,0-1.4-0.8-1.4-1.5
		c0-0.8,0.5-1.5,1.4-1.5h11.5v-1.1c0-0.7,0.4-1.1,1-1.3h-2.4c-1.6,0-2.4-0.8-2.4-2.4v-6.9c0,0.1-0.7,0.9-1.6,0.9
		c-0.9,0-1.6-0.6-1.6-1.4c0-0.3,0.1-0.6,0.4-0.9c1.9-2,4.2-4.4,5.1-7.2c0.3-0.8,0.9-1.2,1.5-1.2c0.8,0,1.7,0.6,1.7,1.4
		c0,0.1-0.2,0.8-0.4,1.3h5c0.4-0.5,0.7-1,1.1-1.7c0.4-0.7,1.1-1,1.8-1c0.9,0,1.6,0.5,1.6,1.2c0,0.3-0.4,0.9-0.8,1.6h4.3
		c0.9,0,1.3,0.7,1.3,1.3c0,0.7-0.4,1.4-1.3,1.4h-5.3v1.9h4.7c0.8,0,1.2,0.6,1.2,1.3s-0.4,1.3-1.2,1.3h-4.7v1.8h4.7
		c0.8,0,1.2,0.6,1.2,1.3c0,0.6-0.4,1.3-1.2,1.3h-4.7v1.9h5.9c0.8,0,1.2,0.8,1.2,1.5s-0.4,1.4-1.2,1.4H183c0.5,0.2,1,0.6,1,1.3v1.1
		h11.6c0.9,0,1.4,0.7,1.4,1.5c0,0.7-0.4,1.5-1.4,1.5L183.9,313.4L183.9,313.4z M173.8,294c-0.2,0-0.4,0-0.6-0.2
		c-3.5-2.1-3.8-2.4-3.8-3.2c0-0.8,0.7-1.5,1.5-1.5c0.3,0,0.5,0.1,0.8,0.2c3.6,2.2,3.7,2.6,3.7,3.1C175.4,293.3,174.6,294,173.8,294z
		 M186.1,294.5h-5.7c-0.2,0.2-0.3,0.5-0.5,0.7v1.2h6.2V294.5z M186.1,298.9h-6.2v1.8h6.2V298.9z M186.1,303.2h-6.2v1.4
		c0,0.3,0.2,0.5,0.5,0.5h5.7V303.2z"/>
	<path class="st3" d="M229,296.9c-0.2,5.6-1,10.5-3.3,14.6c1.1,1.7,2.5,3.3,4.2,4.6c0.5,0.4,0.7,0.8,0.7,1.3c0,0.9-0.8,1.7-1.7,1.7
		c-0.3,0-0.7-0.1-1-0.4c-1.5-1.4-2.8-2.9-3.9-4.5c-2.3,2.8-5.9,4.9-6.6,4.9c-0.6,0-1.1-0.4-1.4-0.9c-0.2,0.1-0.4,0.2-0.6,0.2
		c-0.2,0-0.3-0.1-0.5-0.2c-1.3-0.8-2.8-1.6-4.4-2.4c-2,1.5-4.6,2.7-8,3.3c-0.1,0-0.1,0-0.2,0c-0.9,0-1.6-1.1-1.6-2
		c0-0.6,0.4-1.2,1.2-1.3c2.3-0.3,4.1-0.9,5.5-1.6c-1.5-0.7-2.9-1.3-4.1-1.8c-0.7-0.3-1-0.8-1-1.5c0-0.4,0.1-0.8,0.4-1.2
		c0.5-0.8,1-1.6,1.4-2.3H202c-0.9,0-1.3-0.7-1.3-1.5c0-0.7,0.5-1.5,1.3-1.5h3.7c0.3-0.7,0.6-1.4,0.9-2.1c0.2-0.6,0.8-0.9,1.4-0.9
		v-4.1c-1.1,2.2-2.8,4.1-4.6,5.6c-0.3,0.2-0.5,0.3-0.8,0.3c-0.8,0-1.6-1-1.6-1.8c0-0.4,0.2-0.8,0.6-1c1.5-0.9,2.9-2.1,4.1-3.3h-3.5
		c-0.8,0-1.2-0.7-1.2-1.4s0.4-1.4,1.2-1.4h2.5c-0.5-0.7-1.3-1.8-2.1-2.5c-0.3-0.3-0.4-0.6-0.4-0.9c0-0.7,0.8-1.4,1.5-1.4
		c0.3,0,0.6,0.1,0.8,0.4c2.1,2.1,2.2,2.9,2.2,3.2c0,0.6-0.4,1.2-1,1.3h2.3v-4.2c0-0.8,0.7-1.2,1.5-1.2s1.5,0.4,1.5,1.2v4.2h2.6
		c-0.7-0.2-1.2-0.8-1.2-1.4c0-0.3,0.1-0.5,0.3-0.8c0.7-0.7,1.4-1.4,1.9-2.2c0.2-0.4,0.6-0.6,1-0.6c0.7,0,1.5,0.6,1.5,1.4
		c0,0.2-0.1,0.5-0.2,0.7c-0.6,1-1.5,2.1-2.4,2.8h2.1c0.8,0,1.2,0.7,1.2,1.4c0,0.7-0.4,1.4-1.2,1.4h-3.4c1,0.7,1.9,1.4,2.9,2.2
		c0.3,0.2,0.4,0.5,0.4,0.9c0,0.8-0.8,1.8-1.6,1.8c-0.3,0-0.6-0.2-0.9-0.6c-0.9-1.4-1.9-2.6-3-3.8v4.1c0,0.9-0.7,1.4-1.4,1.4
		c-0.1,0.4-0.3,0.9-0.5,1.3h8c0.9,0,1.3,0.7,1.3,1.5c0,0.7-0.4,1.5-1.3,1.5h-1.3c-0.7,2.3-1.6,4.3-3,6c3.3,1.6,3.7,1.8,3.9,2.3
		c2.4-1.3,4.2-2.9,5.5-4.7c-1.3-2.7-2.1-5.7-2.7-9.2c-0.9,1.6-1.3,2.3-2.1,2.3s-1.6-0.7-1.6-1.6c0-0.3,0.1-0.6,0.3-0.9
		c2.3-3.4,3.7-8,4.1-11.5c0.1-0.8,0.7-1.1,1.4-1.1c0.8,0,1.7,0.5,1.7,1.4c0,0.1,0,0.2,0,0.3c-0.2,1-0.4,2-0.7,3.2h6.6
		c1,0,1.5,0.8,1.5,1.6c0,0.7-0.4,1.4-1.3,1.4L229,296.9L229,296.9z M207.5,307.5c-0.5,0.8-1,1.6-1.6,2.4c-0.1,0.1-0.1,0.2-0.1,0.3
		c0,0.1,0.1,0.3,0.3,0.3c1.2,0.5,2.5,1.1,3.9,1.7c1.2-1.3,2-2.9,2.6-4.7L207.5,307.5L207.5,307.5z M221.7,296.9
		c0.2,4.4,1,8,2.3,11.2c1.3-3.1,1.9-6.8,2.1-11.2H221.7z"/>
	<path class="st3" d="M249.3,297.3c0-1.3,0.9-2.4,2.1-2.4c1.2,0,2.1,1,2.1,2.4c0,1.3-0.9,2.4-2.1,2.4
		C250.2,299.7,249.3,298.7,249.3,297.3z M249.3,311.1c0-1.4,0.9-2.4,2.1-2.4c1.2,0,2.1,1,2.1,2.4c0,1.3-0.9,2.4-2.1,2.4
		S249.3,312.5,249.3,311.1z"/>
	<path class="st3" d="M289.3,300.3c1.2,5,5.2,11.3,12.1,15.5c0.6,0.4,0.8,0.9,0.8,1.4c0,1-0.8,2-1.7,2c-0.3,0-0.5-0.1-0.7-0.2
		c-6.7-4.1-10.4-10.3-12.3-14.4c-3.7,9.4-12,14.6-13.4,14.6c-0.9,0-1.8-1-1.8-1.9c0-0.5,0.3-1,0.9-1.3c7.5-3.9,11.1-10.5,12.1-15.6
		h-11.6c-0.9,0-1.4-0.8-1.4-1.7c0-0.8,0.5-1.7,1.4-1.7h11.9v-6.5c0-0.9,0.8-1.4,1.7-1.4s1.7,0.4,1.7,1.4v6.5h12
		c0.9,0,1.4,0.8,1.4,1.7c0,0.8-0.4,1.7-1.4,1.7h-11.7V300.3z"/>
	<path class="st3" d="M318.9,290.4c0-0.9,0.9-1.4,1.8-1.4s1.7,0.5,1.7,1.4v6.2c0,6.7,5.7,14.9,12.4,19c0.5,0.3,0.7,0.8,0.7,1.4
		c0,1-0.7,2-1.7,2c-1.6,0-9.6-5.9-12.9-14.9c-1.9,6.3-6.4,11.7-13.1,14.8c-0.2,0.1-0.3,0.1-0.5,0.1c-0.9,0-1.7-1-1.7-1.9
		c0-0.5,0.2-0.9,0.8-1.2c9.3-4.8,12.5-13.6,12.5-19.3L318.9,290.4L318.9,290.4z"/>
	<path class="st3" d="M347.5,295.1c-0.6,0.6-2.9,1.9-3.5,1.9c-1,0-1.7-1-1.7-1.9c0-0.6,0.3-1.1,0.9-1.4c1.2-0.6,3.1-1.8,4.2-2.8
		c0.4-0.4,1-0.6,1.5-0.6c1.1,0,2.2,0.8,2.2,2.1v23.2c0,1-0.9,1.5-1.8,1.5s-1.8-0.5-1.8-1.5L347.5,295.1L347.5,295.1z"/>
	<path class="st3" d="M373.9,290.4c0-0.9,0.9-1.4,1.8-1.4s1.7,0.5,1.7,1.4v6.2c0,6.7,5.7,14.9,12.4,19c0.5,0.3,0.7,0.8,0.7,1.4
		c0,1-0.7,2-1.7,2c-1.6,0-9.6-5.9-12.9-14.9c-1.9,6.3-6.4,11.7-13.1,14.8c-0.2,0.1-0.3,0.1-0.5,0.1c-0.9,0-1.7-1-1.7-1.9
		c0-0.5,0.2-0.9,0.8-1.2c9.3-4.8,12.5-13.6,12.5-19.3L373.9,290.4L373.9,290.4z"/>
	<path class="st3" d="M398.1,304.1c0-1.5,1.2-2.7,2.5-2.7c1.4,0,2.6,1.2,2.6,2.7s-1.2,2.7-2.6,2.7
		C399.2,306.8,398.1,305.6,398.1,304.1z"/>
	<path class="st3" d="M419.2,295.1c-0.6,0.6-2.9,1.9-3.5,1.9c-1,0-1.7-1-1.7-1.9c0-0.6,0.3-1.1,0.9-1.4c1.2-0.6,3.1-1.8,4.2-2.8
		c0.4-0.4,1-0.6,1.5-0.6c1.1,0,2.2,0.8,2.2,2.1v23.2c0,1-0.9,1.5-1.8,1.5s-1.8-0.5-1.8-1.5L419.2,295.1L419.2,295.1z"/>
	<path class="st3" d="M461.2,314.9c0.7,0,1.1,0.7,1.1,1.4c0,0.9-0.5,2-1.6,2.1c-3,0.2-5.7,0.3-8.1,0.3c-7.1,0-11.8-0.8-14.5-3.1
		c-2.2,2.7-3.6,3.5-4,3.5c-0.9,0-1.8-1-1.8-2c0-0.5,0.2-0.9,0.7-1.3c1.5-1.1,2.3-2.1,2.7-2.8v-9.9c0-0.3-0.1-0.4-0.4-0.4h-1.6
		c-1,0-1.5-0.8-1.5-1.6c0-0.8,0.5-1.6,1.5-1.6h3.2c1.3,0,1.9,0.6,1.9,1.9V312c1.6,2.4,5.2,3.4,11.6,3.4c2.9,0,6.5-0.2,10.7-0.6h0.1
		V314.9z M436.9,296.3c-0.5,0-0.9-0.2-1.2-0.7c-0.5-0.9-1.5-2.4-2.7-3.7c-0.3-0.3-0.4-0.7-0.4-1c0-0.9,0.9-1.5,1.8-1.5
		c0.5,0,0.9,0.2,1.3,0.6c1,1.1,3,3.8,3,4.8C438.6,295.6,437.8,296.3,436.9,296.3z M457.9,293.2c0-0.3-0.1-0.4-0.4-0.4H444
		c-0.3,0-0.4,0.1-0.4,0.4v5.2c0,5,0,9.6-1.2,14.1c-0.2,0.8-0.8,1.1-1.3,1.1c-0.9,0-1.8-0.7-1.8-1.7c0-0.2,0-0.3,0.1-0.5
		c1.2-4,1.2-7.1,1.2-12.1V292c0-1.3,0.6-1.9,1.9-1.9h16.7c1.3,0,1.9,0.6,1.9,1.9v19.4c0,2.3-0.8,3.5-3.5,3.5c-3.5,0-3.8-0.7-3.8-1.7
		c0-0.2,0-0.3,0-0.5h-7.3c-1,0-1.5-0.5-1.5-1.5v-5.8c0-1,0.5-1.5,1.5-1.5h8.4c1,0,1.5,0.5,1.5,1.5v5.8c0,0.2,0,0.3,0,0.5h0.3
		c1.2,0,1.3-0.6,1.3-1.4v-17.1H457.9z M445.2,302.4c-0.8,0-1.2-0.7-1.2-1.4c0-0.7,0.4-1.3,1.2-1.3h3.9v-2.2h-3
		c-0.8,0-1.2-0.6-1.2-1.3c0-0.6,0.4-1.3,1.2-1.3h3v-0.8c0-0.6,0.8-0.9,1.5-0.9s1.5,0.3,1.5,0.9v0.8h3.2c0.8,0,1.3,0.6,1.3,1.3
		c0,0.7-0.4,1.3-1.3,1.3h-3.2v2.2h4.1c0.8,0,1.3,0.7,1.3,1.3c0,0.7-0.4,1.4-1.3,1.4H445.2z M453.4,306.6c0-0.2-0.1-0.3-0.3-0.3h-4.9
		c-0.2,0-0.3,0.1-0.3,0.3v3.1c0,0.2,0.1,0.3,0.3,0.3h4.9c0.2,0,0.3-0.1,0.3-0.3V306.6z"/>
	<path class="st3" d="M466.4,292c0-1.3,0.6-1.9,1.9-1.9h9.2c1.3,0,1.9,0.6,1.9,1.9v7.3c0,1.3-0.6,1.8-1.9,1.8h-8.1v16.7
		c0,0.9-0.8,1.4-1.5,1.4s-1.5-0.4-1.5-1.4V292z M476.5,293.2c0-0.3-0.1-0.4-0.4-0.4h-6.2c-0.3,0-0.4,0.1-0.4,0.4v1.1h7V293.2z
		 M476.5,296.8h-7v1.7h6.6c0.3,0,0.4-0.1,0.4-0.4V296.8z M491.8,301.1h-8.1c-1.3,0-1.9-0.5-1.9-1.8V292c0-1.3,0.6-1.9,1.9-1.9h9.2
		c1.3,0,1.9,0.6,1.9,1.9v23.8c0,2.3-0.9,3.3-3.5,3.3c-0.9,0-2.1-0.1-3.4-0.4c-0.9-0.2-1.3-0.9-1.3-1.6c0-0.2,0.1-0.5,0.1-0.7H475
		c-1.3,0-2.3-1-2.3-2.3v-9.4c0-1.4,0.8-2.3,2.3-2.3h11.2c1.3,0,2.3,1,2.3,2.3v9.4c0,0.4-0.1,1.1-0.2,1.4c1.1,0.2,1.9,0.3,2.4,0.3
		c0.9,0,1.2-0.2,1.2-0.8v-13.9H491.8z M485.4,305.9c0-0.3-0.1-0.4-0.4-0.4h-8.9c-0.3,0-0.4,0.1-0.4,0.4v2h9.7L485.4,305.9
		L485.4,305.9z M485.4,310.7h-9.7v2.4c0,0.3,0.1,0.4,0.4,0.4h8.9c0.3,0,0.4-0.1,0.4-0.4L485.4,310.7L485.4,310.7z M491.8,293.2
		c0-0.3-0.1-0.4-0.4-0.4h-6.2c-0.3,0-0.4,0.1-0.4,0.4v1.1h7V293.2z M491.8,296.8h-7v1.3c0,0.3,0.1,0.4,0.4,0.4h6.6V296.8z"/>
	<path class="st3" d="M500.8,304.1c-1,0-1.9-1-1.9-1.9c0-0.5,0.2-0.9,0.7-1.3c3.1-2,6.4-5.9,8.1-10.9c0.2-0.6,0.8-0.9,1.4-0.9
		c0.9,0,2,0.6,2,1.5c0,0.6-2.8,8.4-9.4,13.2C501.4,304,501.1,304.1,500.8,304.1z M521,304.8c0-0.2-0.2-0.3-0.3-0.3H513
		c0,4.3-1.2,11.2-10,14.5c-0.2,0.1-0.5,0.1-0.7,0.1c-1,0-1.7-0.9-1.7-1.8c0-0.6,0.3-1.2,1.1-1.5c7.2-2.5,8.1-7.1,8.2-11.3h-4.3
		c-0.9,0-1.4-0.8-1.4-1.6s0.5-1.6,1.4-1.6h16.8c1.3,0,2,0.9,2,2.1v5.2c0,7.2-0.4,10-5.8,10c-1.2,0-2.6-0.1-4.4-0.4
		c-0.8-0.1-1.2-0.9-1.2-1.6c0-0.8,0.5-1.7,1.5-1.7c0.1,0,0.2,0,0.3,0c1.7,0.2,2.9,0.4,3.8,0.4c2.3,0,2.5-1.1,2.5-5.5L521,304.8
		L521,304.8z M526.2,303.7c-7.8-5.7-9.6-12.6-9.6-13.1c0-0.9,0.9-1.5,1.8-1.5c0.6,0,1.2,0.2,1.4,0.8c1.8,4.9,5.5,9,8.4,11
		c0.5,0.3,0.7,0.8,0.7,1.2c0,0.9-0.8,1.9-1.8,1.9C526.9,304.1,526.5,304,526.2,303.7z"/>
</g>
</svg>
