<?xml version="1.0" encoding="utf-8"?>
<!-- Generator: Adobe Illustrator 24.0.1, SVG Export Plug-In . SVG Version: 6.00 Build 0)  -->
<svg version="1.1" id="レイヤー_1" xmlns="http://www.w3.org/2000/svg" xmlns:xlink="http://www.w3.org/1999/xlink" x="0px"
	 y="0px" viewBox="0 0 154.9 177.2" style="enable-background:new 0 0 154.9 177.2;" xml:space="preserve">
<style type="text/css">
	.st0{fill:#B5B5B6;stroke:#B5B5B6;stroke-width:3.2288;stroke-linejoin:round;stroke-miterlimit:10;}
	.st1{fill:#FFE800;stroke:#040000;stroke-width:3.2288;stroke-linejoin:round;stroke-miterlimit:10;}
	.st2{fill:#E60012;}
	.st3{stroke:#FFFFFF;stroke-width:2;stroke-miterlimit:10;}
	.st4{fill:none;stroke:#FFFFFF;stroke-width:2;stroke-miterlimit:10;}
</style>
<g>
	<path class="st0" d="M104.5,10.3H51.3c-23.6,0-42.8,19.2-42.8,42.8v53.2c0,23.6,19.2,42.8,42.8,42.8h14.4l12.2,21.2l12.2-21.2h14.4
		c23.6,0,42.8-19.2,42.8-42.8V53.1C147.4,29.5,128.2,10.3,104.5,10.3z"/>
	<path class="st1" d="M103.6,6.9H50.4C26.7,6.9,7.5,26,7.5,49.7v53.2c0,23.6,19.2,42.8,42.8,42.8h14.4L77,166.9l12.2-21.2h14.4
		c23.6,0,42.8-19.2,42.8-42.8V49.7C146.4,26,127.2,6.9,103.6,6.9z"/>
</g>
<polygon class="st2" points="47.9,133.7 21.5,90.3 40.8,78.6 54,102.6 130.6,27.5 133.4,30.1 "/>
<g>
	<g>
		<path class="st3" d="M37.1,56.7v1.4c0,2,0,2.5,0.1,3.1h-4c0.1-0.8,0.1-1.7,0.1-3.1v-8.4c-0.4,3.8-0.4,3.8-0.7,5.5
			c-0.4,2.5-0.9,4-1.9,6c-0.8-1.3-1.3-2-2.2-3c0,1.2,0,1.9,0.2,3.1h-4.5c0.1-1.5,0.2-1.9,0.2-3.2v-7c0-0.6,0-1.2,0.1-3.1
			c-0.4,0.7-0.9,1.3-1.3,1.9c-0.4-2.3-0.7-3.1-1.4-5.2c1.3-1.4,2.4-3.1,3.3-5.4c0.7-1.7,1.2-3.3,1.3-4.6l4.2,1
			c-0.1,0.4-0.1,0.5-0.3,1c0.8,0.1,1.6,0.1,2.7,0.1h0.4v-0.4c0-0.7,0-1-0.1-1.4h4.3c-0.1,0.4-0.1,0.8-0.1,1.4v0.4h2.8v-0.4
			c0-0.8,0-1.1-0.1-1.4h4.3c-0.1,0.4-0.1,0.8-0.1,1.4v0.4h0.8c1.3,0,2.5-0.1,3-0.2v3.9c-1-0.1-1.3-0.1-3-0.1h-0.8v1.3h1
			c1.7,0,2.2,0,3.1-0.1v3.8c-0.8-0.1-1.5-0.1-2.6-0.1H33.6v0.8c0.7,0.1,1.5,0.1,2.8,0.1h8.9c1.2,0,1.8,0,2.6-0.1
			c-0.1,0.7-0.1,1.4-0.1,2.9v9.4c0,2.2-0.6,2.6-4.6,2.7c-0.2-1.4-0.3-1.9-0.7-3.1c0.4,0,0.7,0.1,1,0.1c0.4,0,0.5-0.1,0.5-0.6v-0.8
			h-1.8v1.1c0,1.7,0,2.4,0.1,3.2h-3.7c0.1-0.9,0.1-1.7,0.1-3.2v-1.1H37.1z M28.6,55.9c0.4-1.1,0.5-1.7,0.7-2.8
			c0.3-1.7,0.4-4.8,0.4-8.1c0-1.7,0-2.4-0.1-3.4c1.1,0.1,1.6,0.1,3.1,0.1h0.9v-1.3h-0.4c-1.7,0-2.1,0-2.9,0.1v-3
			c-0.5,1.8-0.8,2.5-1.6,4.1V55.9z M38.8,49.1h-1.7v1.2h1.7V49.1z M38.8,52.8h-1.7V54h1.7V52.8z M40.4,41.6v-1.3h-2.8v1.3H40.4z
			 M44,50.2v-1.2h-1.8v1.2H44z M44,54v-1.2h-1.8V54H44z"/>
		<path class="st3" d="M56.8,36.2c0-0.6,0-0.8-0.1-1.3H61c-0.1,0.5-0.1,0.8-0.1,1.3h5.4c0-0.5,0-0.9-0.1-1.3h4.3
			c-0.1,0.5-0.1,0.8-0.1,1.3h2.7c1.5,0,2.4-0.1,3.4-0.2v3.5c-1-0.1-1.8-0.1-3.4-0.1h-2.7c0,0.4,0,0.4,0.1,0.9h-4
			c0-0.3,0.1-0.5,0.1-0.9h-6c0,0.5,0,0.5,0.1,0.9h-4c0.1-0.3,0.1-0.4,0.1-0.9h-2.4c-1.6,0-2.4,0-3.4,0.1V36c1,0.1,2,0.2,3.4,0.2
			H56.8z M70,45.2c-1.7,1.4-2.9,2.3-3.3,2.6c0.5,0,1-0.1,1.2-0.1c1,0,1,0,2-0.1c-0.4-0.3-0.6-0.5-1.1-0.9l3.1-2
			c2.1,1.7,3.5,3.1,5.2,5l-2.8,2.3c-0.1,0.6-0.1,1.1-0.1,2.2v4.1c0,1,0.1,1.9,0.1,2.9h-4.3v-1H57.4v1h-4.3c0.1-0.9,0.1-1.9,0.1-2.9
			v-4.2c0-1,0-1.9-0.1-2.6c1,0.1,1.2,0.1,3,0.1h15.3c1.1,0,1.5,0,2,0c-0.4-0.5-0.6-0.7-0.9-1.2c-7.9,0.5-7.9,0.5-19.2,0.9
			c-0.9,0.1-1.3,0.1-1.8,0.1L51,47.8c1,0.1,2.1,0.2,6.1,0.2c-1.2-0.6-2-1-3.5-1.7l2.6-2.2h-1.4c-1.5,0-2.5,0-3.4,0.1v-3.5
			c0.9,0.1,2,0.1,3.4,0.1h6.8c0-0.5,0-0.6-0.1-1h4.2c-0.1,0.3-0.1,0.5-0.1,1h7.2c1.3,0,2.6-0.1,3.4-0.1v3.5
			c-0.7-0.1-1.8-0.1-3.4-0.1h-5.2L70,45.2z M56.4,44.1c1,0.5,1.5,0.7,2.1,1.1c0.5-0.4,0.7-0.6,1.2-1.1H56.4z M57.4,54.9h4.4v-0.8
			h-4.4V54.9z M57.4,57.8h4.4V57h-4.4V57.8z M64.3,44.1c-0.8,0.8-1.7,1.6-3,2.6c0.6,0.3,0.6,0.3,0.9,0.5c1.1-0.8,2.8-2.2,3.8-3.2
			H64.3z M65.7,54.9h4.4v-0.8h-4.4V54.9z M65.7,57.8h4.4V57h-4.4V57.8z"/>
		<path class="st3" d="M87.4,58.3c0,1.5,0,2,0.1,3H83c0.1-1.1,0.2-2,0.2-3.6v-4.8c-0.9,0.6-1.3,0.9-2.5,1.7
			c-0.4,0.3-0.7,0.5-0.9,0.6L78,50.8c1-0.3,2.9-1.3,5.1-2.6v-3.4l-2.7,1.4c-0.7-2.7-1.1-3.8-2.3-6.2l3.4-1.7
			c0.8,1.8,1.1,2.3,1.6,3.8v-4.2c0-1.4,0-2.1-0.2-3h4.5c-0.1,1-0.1,1.5-0.1,3v19.4c3.5-2.6,5.3-6.1,5.9-11.5h-2
			c-1.3,0-2.3,0.1-3.2,0.2v-4.3c0.9,0.1,1.9,0.2,3.2,0.2h2.3c0-1.7,0.1-3.1,0.1-4.3c0-1.4,0-1.9-0.1-2.6h4.6C98,35.5,98,35.6,98,37
			l3.2-1.7c1.4,1.7,2,2.7,3.1,4.8l-3.1,1.7h0.4c1.4,0,2.4-0.1,3.2-0.2V46c-1-0.1-1.9-0.2-3.2-0.2h-3.2c0.4,2.6,1.4,5,2.7,7.1
			c1.1,1.9,2.3,3.1,4.1,4.3c-1.1,1.3-1.9,2.4-2.8,4.1c-1.9-1.5-3-2.8-4.1-4.6c-1-1.6-1.6-3-2.2-4.7C94.9,56,93,58.8,90,61.3
			c-0.9-1.5-1.6-2.4-2.6-3.4V58.3z M100.7,41.9c-0.8-1.9-1.3-2.7-2.7-4.7c0,0.3,0,0.3,0,2.2c0,0.1,0,0.6,0,1.3c0,0.3,0,0.7-0.1,1.3
			H100.7z"/>
		<path class="st3" d="M108.8,41.8c2.2,1.3,3.3,1.9,5.2,3.4l-2.5,3.6c-2-1.7-3.1-2.5-5.2-3.8L108.8,41.8z M122,47.9
			c0,0.3,0,0.3,0,0.7c-0.1,3.4-0.8,6.1-2.2,8.2c-1.1,1.7-2.7,3-5.4,4.4c-0.8-1.5-1.4-2.4-2.6-3.5c-0.5,1.3-0.7,1.7-1.6,3.4l-3.7-3.2
			c0.6-0.7,1.1-1.5,1.8-2.9c0.8-1.6,1.2-2.9,2-5.7l3.5,2.4c-0.8,2.9-1.2,4-1.8,5.6c1.8-0.8,2.9-1.6,3.8-2.7c1.4-1.6,1.9-3.3,2-6.8
			h-0.4c-0.9,0-1.4,0-2.3,0.1c0.1-1,0.1-1.1,0.1-2.5v-7.2c0-1.3,0-1.6-0.1-2.5c0.8,0.1,1.3,0.1,2.8,0.1h11c1.5,0,2,0,2.8-0.1
			c-0.1,0.7-0.1,1.2-0.1,2.6v7c0,1.4,0,1.9,0.1,2.6c-0.9-0.1-1.5-0.1-2.6-0.1h-1.6v8.6c0,0.4,0.1,0.5,0.6,0.5c0.6,0,0.7-0.1,0.9-0.4
			c0.1-0.3,0.2-2,0.2-4.9c1.3,0.8,2.2,1.1,3.9,1.5c-0.1,4-0.3,5.4-0.7,6.3c-0.3,0.6-0.9,1.1-1.6,1.3c-0.5,0.2-1.6,0.3-2.9,0.3
			c-3.8,0-4.7-0.5-4.7-2.5V47.9H122z M109.8,34.7c2.2,1.3,3.2,2,5.2,3.6l-2.7,3.4c-1.8-1.7-3.1-2.6-5.1-3.9L109.8,34.7z M119.5,44
			h7.7v-4h-7.7V44z"/>
		<path class="st3" d="M66.3,70.5c1.2,0.3,2.9,0.4,5.8,0.4c0.2,0,0.4,0,0.8,0c0.6-1.3,0.8-2.1,0.9-3.1l5.1,0.4
			c-0.2,0.4-0.3,0.4-0.6,1.3c-0.4,0.8-0.5,1.3-0.6,1.3c0.3,0,0.3,0,1.7-0.1c2.7-0.1,5.6-0.5,7.1-0.9l0.2,4.5
			c-0.9,0.1-1.7,0.2-2.5,0.3c-2,0.2-5.5,0.4-8.4,0.5c-0.5,0.8-0.7,1.2-1.3,2.1c1.2-0.6,2.4-0.8,3.6-0.8c2.3,0,3.7,0.9,4.3,2.7
			c0.5-0.2,0.5-0.2,2-0.7c0.1,0,0.8-0.3,1.7-0.6c1.6-0.5,1.8-0.6,2.2-0.8l1.7,4.4c-1.5,0.2-4.5,1-7.1,1.9c0,0.8,0,0.8,0,2
			c0,1.3,0,1.7,0.1,2.4l-4.6,0.1c0.1-0.4,0.1-1.3,0.1-3L78.2,85c-1.3,0.6-1.5,0.7-2,1.2c-0.5,0.4-0.7,0.9-0.7,1.4
			c0,1.1,1,1.5,3.8,1.5c3.4,0,6.6-0.5,9-1.4l0.3,5c-0.8,0-0.8,0-2.5,0.3c-2.2,0.3-4.6,0.4-6.8,0.4c-3.2,0-5.2-0.4-6.7-1.3
			c-1.4-0.8-2.2-2.3-2.2-4c0-1.3,0.4-2.4,1.4-3.5c1-1.2,2.3-2.1,4-3c0.7-0.3,1-0.4,2.1-1c-0.3-0.5-0.6-0.7-1.1-0.7
			c-1.4,0-3.4,1-5.3,2.7c-1.2,1-1.9,1.8-2.7,2.8l-3.6-3.5c0.9-0.7,2.1-1.8,3-2.9c0.6-0.8,1.7-2.4,2.2-3.1c0.4-0.7,0.4-0.7,0.5-0.9
			c-0.4,0-0.7,0-0.9,0c-1.2,0-1.2,0-2.4,0c-0.4,0-0.6,0-1,0c-0.1,0-0.2,0-0.4,0L66.3,70.5z"/>
		<path class="st3" d="M45.8,104.7c-0.7,0.2-0.7,0.2-1.6,0.5c-1.7,0.5-3.2,0.9-5.4,1.3c0,1.4-0.1,3.2-0.1,3.8h4.6
			c2.2,0,3.2-0.1,4.4-0.2v4.6c-1.1-0.1-1.8-0.1-4.3-0.1h-5c-0.3,2.6-0.9,4.3-1.9,5.9c-1,1.6-2.7,3.3-4.7,4.5
			c-0.8,0.5-1.4,0.8-2.7,1.4c-1.1-1.9-1.8-2.8-3.5-4.2c3.4-1.2,5.1-2.3,6.3-4c0.8-1,1.1-2,1.4-3.6h-5.5c-2.6,0-3.2,0-4.4,0.1v-4.6
			c1.2,0.2,1.9,0.2,4.5,0.2h5.9c0.1-0.8,0.1-1.4,0.1-2.4v-0.8c-2.7,0.3-2.9,0.3-7.4,0.5c-0.3-1.6-0.6-2.6-1.4-4.3
			c1,0.1,1.5,0.1,1.9,0.1c3.7,0,9.1-0.6,12.3-1.5c1.4-0.4,2.5-0.8,3.5-1.3L45.8,104.7z"/>
		<path class="st3" d="M65.8,120.9h4.4c1.8,0,2.7,0,3.8-0.2v4.3c-1-0.1-1.8-0.1-3.8-0.1h-13c-2,0-2.5,0-3.8,0.1v-4.3
			c1,0.1,1.7,0.2,3.8,0.2h4.2v-8.4h-2.6c-1.9,0-2.4,0-3.6,0.1v-4.3c1.1,0.1,1.9,0.2,3.6,0.2h9.8c1.8,0,2.6-0.1,3.7-0.2v4.3
			c-0.8-0.1-1.9-0.1-3.7-0.1h-2.7V120.9z"/>
		<path class="st3" d="M85.3,107.4c1.1,2.1,2,4.4,2.7,7.1l-4.4,1.3c-0.7-2.9-1.3-4.6-2.5-7.3L85.3,107.4z M101.6,107.8
			c-0.2,0.5-0.2,0.6-0.4,1.7c-0.8,4-1.9,6.8-3.5,9.1c-1.5,2.2-3.5,4.1-5.9,5.7c-1,0.6-1.7,1-3.4,1.9c-1-1.7-1.5-2.4-3.1-4
			c5.6-2.2,8.7-5,10.4-9.6c0.7-2,1.2-4.3,1.2-5.9L101.6,107.8z M91.4,106.2c1.5,2.9,2,4.1,2.7,6.8l-4.3,1.3c-0.5-2.3-1.3-4.4-2.5-7
			L91.4,106.2z"/>
		<path class="st3" d="M121.2,101.4c-0.1,0.3-0.2,0.3-0.3,0.7c-0.1,0.1-0.1,0.3-0.2,0.4c-0.1,0.3-0.2,0.5-0.3,0.6
			c-0.4,0.8-0.4,0.8-0.6,1.2l7-0.1c1.1,0,1.4-0.1,2.1-0.3l2.3,2.3c-0.3,0.6-0.4,0.7-0.8,2c-1.4,4.7-3.3,8.3-5.8,11.1
			c-2.6,2.9-5.7,5.1-10.3,7.2c-0.9-1.8-1.8-2.9-3.4-4.3c4-1.5,6.9-3.3,9.4-5.7c2.1-2.1,3.6-4.7,4.7-8l-7.5,0.1
			c-1.8,2.9-3.7,4.9-6.4,7c-1.4-1.6-2.1-2.2-4-3.4c3.4-2.4,5.6-5,7.5-8.5c0.7-1.5,1.1-2.4,1.2-3.4L121.2,101.4z"/>
	</g>
</g>
<g>
	<g>
		<path d="M37.1,56.7v1.4c0,2,0,2.5,0.1,3.1h-4c0.1-0.8,0.1-1.7,0.1-3.1v-8.4c-0.4,3.8-0.4,3.8-0.7,5.5c-0.4,2.5-0.9,4-1.9,6
			c-0.8-1.3-1.3-2-2.2-3c0,1.2,0,1.9,0.2,3.1h-4.5c0.1-1.5,0.2-1.9,0.2-3.2v-7c0-0.6,0-1.2,0.1-3.1c-0.4,0.7-0.9,1.3-1.3,1.9
			c-0.4-2.3-0.7-3.1-1.4-5.2c1.3-1.4,2.4-3.1,3.3-5.4c0.7-1.7,1.2-3.3,1.3-4.6l4.2,1c-0.1,0.4-0.1,0.5-0.3,1
			c0.8,0.1,1.6,0.1,2.7,0.1h0.4v-0.4c0-0.7,0-1-0.1-1.4h4.3c-0.1,0.4-0.1,0.8-0.1,1.4v0.4h2.8v-0.4c0-0.8,0-1.1-0.1-1.4h4.3
			c-0.1,0.4-0.1,0.8-0.1,1.4v0.4h0.8c1.3,0,2.5-0.1,3-0.2v3.9c-1-0.1-1.3-0.1-3-0.1h-0.8v1.3h1c1.7,0,2.2,0,3.1-0.1v3.8
			c-0.8-0.1-1.5-0.1-2.6-0.1H33.6v0.8c0.7,0.1,1.5,0.1,2.8,0.1h8.9c1.2,0,1.8,0,2.6-0.1c-0.1,0.7-0.1,1.4-0.1,2.9v9.4
			c0,2.2-0.6,2.6-4.6,2.7c-0.2-1.4-0.3-1.9-0.7-3.1c0.4,0,0.7,0.1,1,0.1c0.4,0,0.5-0.1,0.5-0.6v-0.8h-1.8v1.1c0,1.7,0,2.4,0.1,3.2
			h-3.7c0.1-0.9,0.1-1.7,0.1-3.2v-1.1H37.1z M28.6,55.9c0.4-1.1,0.5-1.7,0.7-2.8c0.3-1.7,0.4-4.8,0.4-8.1c0-1.7,0-2.4-0.1-3.4
			c1.1,0.1,1.6,0.1,3.1,0.1h0.9v-1.3h-0.4c-1.7,0-2.1,0-2.9,0.1v-3c-0.5,1.8-0.8,2.5-1.6,4.1V55.9z M38.8,49.1h-1.7v1.2h1.7V49.1z
			 M38.8,52.8h-1.7V54h1.7V52.8z M40.4,41.6v-1.3h-2.8v1.3H40.4z M44,50.2v-1.2h-1.8v1.2H44z M44,54v-1.2h-1.8V54H44z"/>
		<path d="M56.8,36.2c0-0.6,0-0.8-0.1-1.3H61c-0.1,0.5-0.1,0.8-0.1,1.3h5.4c0-0.5,0-0.9-0.1-1.3h4.3c-0.1,0.5-0.1,0.8-0.1,1.3h2.7
			c1.5,0,2.4-0.1,3.4-0.2v3.5c-1-0.1-1.8-0.1-3.4-0.1h-2.7c0,0.4,0,0.4,0.1,0.9h-4c0-0.3,0.1-0.5,0.1-0.9h-6c0,0.5,0,0.5,0.1,0.9h-4
			c0.1-0.3,0.1-0.4,0.1-0.9h-2.4c-1.6,0-2.4,0-3.4,0.1V36c1,0.1,2,0.2,3.4,0.2H56.8z M70,45.2c-1.7,1.4-2.9,2.3-3.3,2.6
			c0.5,0,1-0.1,1.2-0.1c1,0,1,0,2-0.1c-0.4-0.3-0.6-0.5-1.1-0.9l3.1-2c2.1,1.7,3.5,3.1,5.2,5l-2.8,2.3c-0.1,0.6-0.1,1.1-0.1,2.2v4.1
			c0,1,0.1,1.9,0.1,2.9h-4.3v-1H57.4v1h-4.3c0.1-0.9,0.1-1.9,0.1-2.9v-4.2c0-1,0-1.9-0.1-2.6c1,0.1,1.2,0.1,3,0.1h15.3
			c1.1,0,1.5,0,2,0c-0.4-0.5-0.6-0.7-0.9-1.2c-7.9,0.5-7.9,0.5-19.2,0.9c-0.9,0.1-1.3,0.1-1.8,0.1L51,47.8c1,0.1,2.1,0.2,6.1,0.2
			c-1.2-0.6-2-1-3.5-1.7l2.6-2.2h-1.4c-1.5,0-2.5,0-3.4,0.1v-3.5c0.9,0.1,2,0.1,3.4,0.1h6.8c0-0.5,0-0.6-0.1-1h4.2
			c-0.1,0.3-0.1,0.5-0.1,1h7.2c1.3,0,2.6-0.1,3.4-0.1v3.5c-0.7-0.1-1.8-0.1-3.4-0.1h-5.2L70,45.2z M56.4,44.1c1,0.5,1.5,0.7,2.1,1.1
			c0.5-0.4,0.7-0.6,1.2-1.1H56.4z M57.4,54.9h4.4v-0.8h-4.4V54.9z M57.4,57.8h4.4V57h-4.4V57.8z M64.3,44.1c-0.8,0.8-1.7,1.6-3,2.6
			c0.6,0.3,0.6,0.3,0.9,0.5c1.1-0.8,2.8-2.2,3.8-3.2H64.3z M65.7,54.9h4.4v-0.8h-4.4V54.9z M65.7,57.8h4.4V57h-4.4V57.8z"/>
		<path d="M87.4,58.3c0,1.5,0,2,0.1,3H83c0.1-1.1,0.2-2,0.2-3.6v-4.8c-0.9,0.6-1.3,0.9-2.5,1.7c-0.4,0.3-0.7,0.5-0.9,0.6L78,50.8
			c1-0.3,2.9-1.3,5.1-2.6v-3.4l-2.7,1.4c-0.7-2.7-1.1-3.8-2.3-6.2l3.4-1.7c0.8,1.8,1.1,2.3,1.6,3.8v-4.2c0-1.4,0-2.1-0.2-3h4.5
			c-0.1,1-0.1,1.5-0.1,3v19.4c3.5-2.6,5.3-6.1,5.9-11.5h-2c-1.3,0-2.3,0.1-3.2,0.2v-4.3c0.9,0.1,1.9,0.2,3.2,0.2h2.3
			c0-1.7,0.1-3.1,0.1-4.3c0-1.4,0-1.9-0.1-2.6h4.6C98,35.5,98,35.6,98,37l3.2-1.7c1.4,1.7,2,2.7,3.1,4.8l-3.1,1.7h0.4
			c1.4,0,2.4-0.1,3.2-0.2V46c-1-0.1-1.9-0.2-3.2-0.2h-3.2c0.4,2.6,1.4,5,2.7,7.1c1.1,1.9,2.3,3.1,4.1,4.3c-1.1,1.3-1.9,2.4-2.8,4.1
			c-1.9-1.5-3-2.8-4.1-4.6c-1-1.6-1.6-3-2.2-4.7C94.9,56,93,58.8,90,61.3c-0.9-1.5-1.6-2.4-2.6-3.4V58.3z M100.7,41.9
			c-0.8-1.9-1.3-2.7-2.7-4.7c0,0.3,0,0.3,0,2.2c0,0.1,0,0.6,0,1.3c0,0.3,0,0.7-0.1,1.3H100.7z"/>
		<path d="M108.8,41.8c2.2,1.3,3.3,1.9,5.2,3.4l-2.5,3.6c-2-1.7-3.1-2.5-5.2-3.8L108.8,41.8z M122,47.9c0,0.3,0,0.3,0,0.7
			c-0.1,3.4-0.8,6.1-2.2,8.2c-1.1,1.7-2.7,3-5.4,4.4c-0.8-1.5-1.4-2.4-2.6-3.5c-0.5,1.3-0.7,1.7-1.6,3.4l-3.7-3.2
			c0.6-0.7,1.1-1.5,1.8-2.9c0.8-1.6,1.2-2.9,2-5.7l3.5,2.4c-0.8,2.9-1.2,4-1.8,5.6c1.8-0.8,2.9-1.6,3.8-2.7c1.4-1.6,1.9-3.3,2-6.8
			h-0.4c-0.9,0-1.4,0-2.3,0.1c0.1-1,0.1-1.1,0.1-2.5v-7.2c0-1.3,0-1.6-0.1-2.5c0.8,0.1,1.3,0.1,2.8,0.1h11c1.5,0,2,0,2.8-0.1
			c-0.1,0.7-0.1,1.2-0.1,2.6v7c0,1.4,0,1.9,0.1,2.6c-0.9-0.1-1.5-0.1-2.6-0.1h-1.6v8.6c0,0.4,0.1,0.5,0.6,0.5c0.6,0,0.7-0.1,0.9-0.4
			c0.1-0.3,0.2-2,0.2-4.9c1.3,0.8,2.2,1.1,3.9,1.5c-0.1,4-0.3,5.4-0.7,6.3c-0.3,0.6-0.9,1.1-1.6,1.3c-0.5,0.2-1.6,0.3-2.9,0.3
			c-3.8,0-4.7-0.5-4.7-2.5V47.9H122z M109.8,34.7c2.2,1.3,3.2,2,5.2,3.6l-2.7,3.4c-1.8-1.7-3.1-2.6-5.1-3.9L109.8,34.7z M119.5,44
			h7.7v-4h-7.7V44z"/>
		<path d="M66.3,70.5c1.2,0.3,2.9,0.4,5.8,0.4c0.2,0,0.4,0,0.8,0c0.6-1.3,0.8-2.1,0.9-3.1l5.1,0.4c-0.2,0.4-0.3,0.4-0.6,1.3
			c-0.4,0.8-0.5,1.3-0.6,1.3c0.3,0,0.3,0,1.7-0.1c2.7-0.1,5.6-0.5,7.1-0.9l0.2,4.5c-0.9,0.1-1.7,0.2-2.5,0.3c-2,0.2-5.5,0.4-8.4,0.5
			c-0.5,0.8-0.7,1.2-1.3,2.1c1.2-0.6,2.4-0.8,3.6-0.8c2.3,0,3.7,0.9,4.3,2.7c0.5-0.2,0.5-0.2,2-0.7c0.1,0,0.8-0.3,1.7-0.6
			c1.6-0.5,1.8-0.6,2.2-0.8l1.7,4.4c-1.5,0.2-4.5,1-7.1,1.9c0,0.8,0,0.8,0,2c0,1.3,0,1.7,0.1,2.4l-4.6,0.1c0.1-0.4,0.1-1.3,0.1-3
			L78.2,85c-1.3,0.6-1.5,0.7-2,1.2c-0.5,0.4-0.7,0.9-0.7,1.4c0,1.1,1,1.5,3.8,1.5c3.4,0,6.6-0.5,9-1.4l0.3,5c-0.8,0-0.8,0-2.5,0.3
			c-2.2,0.3-4.6,0.4-6.8,0.4c-3.2,0-5.2-0.4-6.7-1.3c-1.4-0.8-2.2-2.3-2.2-4c0-1.3,0.4-2.4,1.4-3.5c1-1.2,2.3-2.1,4-3
			c0.7-0.3,1-0.4,2.1-1c-0.3-0.5-0.6-0.7-1.1-0.7c-1.4,0-3.4,1-5.3,2.7c-1.2,1-1.9,1.8-2.7,2.8l-3.6-3.5c0.9-0.7,2.1-1.8,3-2.9
			c0.6-0.8,1.7-2.4,2.2-3.1c0.4-0.7,0.4-0.7,0.5-0.9c-0.4,0-0.7,0-0.9,0c-1.2,0-1.2,0-2.4,0c-0.4,0-0.6,0-1,0c-0.1,0-0.2,0-0.4,0
			L66.3,70.5z"/>
		<path d="M45.8,104.7c-0.7,0.2-0.7,0.2-1.6,0.5c-1.7,0.5-3.2,0.9-5.4,1.3c0,1.4-0.1,3.2-0.1,3.8h4.6c2.2,0,3.2-0.1,4.4-0.2v4.6
			c-1.1-0.1-1.8-0.1-4.3-0.1h-5c-0.3,2.6-0.9,4.3-1.9,5.9c-1,1.6-2.7,3.3-4.7,4.5c-0.8,0.5-1.4,0.8-2.7,1.4
			c-1.1-1.9-1.8-2.8-3.5-4.2c3.4-1.2,5.1-2.3,6.3-4c0.8-1,1.1-2,1.4-3.6h-5.5c-2.6,0-3.2,0-4.4,0.1v-4.6c1.2,0.2,1.9,0.2,4.5,0.2
			h5.9c0.1-0.8,0.1-1.4,0.1-2.4v-0.8c-2.7,0.3-2.9,0.3-7.4,0.5c-0.3-1.6-0.6-2.6-1.4-4.3c1,0.1,1.5,0.1,1.9,0.1
			c3.7,0,9.1-0.6,12.3-1.5c1.4-0.4,2.5-0.8,3.5-1.3L45.8,104.7z"/>
		<path d="M65.8,120.9h4.4c1.8,0,2.7,0,3.8-0.2v4.3c-1-0.1-1.8-0.1-3.8-0.1h-13c-2,0-2.5,0-3.8,0.1v-4.3c1,0.1,1.7,0.2,3.8,0.2h4.2
			v-8.4h-2.6c-1.9,0-2.4,0-3.6,0.1v-4.3c1.1,0.1,1.9,0.2,3.6,0.2h9.8c1.8,0,2.6-0.1,3.7-0.2v4.3c-0.8-0.1-1.9-0.1-3.7-0.1h-2.7
			V120.9z"/>
		<path d="M85.3,107.4c1.1,2.1,2,4.4,2.7,7.1l-4.4,1.3c-0.7-2.9-1.3-4.6-2.5-7.3L85.3,107.4z M101.6,107.8c-0.2,0.5-0.2,0.6-0.4,1.7
			c-0.8,4-1.9,6.8-3.5,9.1c-1.5,2.2-3.5,4.1-5.9,5.7c-1,0.6-1.7,1-3.4,1.9c-1-1.7-1.5-2.4-3.1-4c5.6-2.2,8.7-5,10.4-9.6
			c0.7-2,1.2-4.3,1.2-5.9L101.6,107.8z M91.4,106.2c1.5,2.9,2,4.1,2.7,6.8l-4.3,1.3c-0.5-2.3-1.3-4.4-2.5-7L91.4,106.2z"/>
		<path d="M121.2,101.4c-0.1,0.3-0.2,0.3-0.3,0.7c-0.1,0.1-0.1,0.3-0.2,0.4c-0.1,0.3-0.2,0.5-0.3,0.6c-0.4,0.8-0.4,0.8-0.6,1.2
			l7-0.1c1.1,0,1.4-0.1,2.1-0.3l2.3,2.3c-0.3,0.6-0.4,0.7-0.8,2c-1.4,4.7-3.3,8.3-5.8,11.1c-2.6,2.9-5.7,5.1-10.3,7.2
			c-0.9-1.8-1.8-2.9-3.4-4.3c4-1.5,6.9-3.3,9.4-5.7c2.1-2.1,3.6-4.7,4.7-8l-7.5,0.1c-1.8,2.9-3.7,4.9-6.4,7c-1.4-1.6-2.1-2.2-4-3.4
			c3.4-2.4,5.6-5,7.5-8.5c0.7-1.5,1.1-2.4,1.2-3.4L121.2,101.4z"/>
	</g>
</g>
</svg>
