<?xml version="1.0" encoding="utf-8"?>
<!-- Generator: Adobe Illustrator 24.0.1, SVG Export Plug-In . SVG Version: 6.00 Build 0)  -->
<svg version="1.1" id="レイヤー_1" xmlns="http://www.w3.org/2000/svg" xmlns:xlink="http://www.w3.org/1999/xlink" x="0px"
	 y="0px" viewBox="0 0 154.9 177.2" style="enable-background:new 0 0 154.9 177.2;" xml:space="preserve">
<style type="text/css">
	.st0{fill:#B5B5B6;stroke:#B5B5B6;stroke-width:3.2288;stroke-linejoin:round;stroke-miterlimit:10;}
	.st1{fill:#FFE800;stroke:#040000;stroke-width:3.2288;stroke-linejoin:round;stroke-miterlimit:10;}
	.st2{fill:#E60012;}
	.st3{stroke:#FFFFFF;stroke-width:2;stroke-miterlimit:10;}
	.st4{fill:none;stroke:#FFFFFF;stroke-width:2;stroke-miterlimit:10;}
</style>
<g>
	<path class="st0" d="M104.5,10.3H51.3c-23.6,0-42.8,19.2-42.8,42.8v53.2c0,23.6,19.2,42.8,42.8,42.8h14.4l12.2,21.2l12.2-21.2h14.4
		c23.6,0,42.8-19.2,42.8-42.8V53.2C147.4,29.5,128.2,10.3,104.5,10.3z"/>
	<path class="st1" d="M103.6,6.9H50.4C26.7,6.9,7.5,26.1,7.5,49.7v53.2c0,23.6,19.2,42.8,42.8,42.8h14.4L77,166.9l12.2-21.2h14.4
		c23.6,0,42.8-19.2,42.8-42.8V49.7C146.4,26.1,127.2,6.9,103.6,6.9z"/>
</g>
<path class="st2" d="M124.6,114.1c-9.1-9.1-18.2-18.2-27.3-27.3c9.7-14.7,8.1-34.6-4.8-47.6c-14.8-14.8-38.7-14.8-53.4,0
	s-14.8,38.7,0,53.4c12.9,12.9,32.9,14.5,47.6,4.8l27.3,27.3c2.9,2.9,7.8,2.9,10.7,0C127.6,121.9,127.6,117,124.6,114.1z M81.9,82
	c-8.8,8.8-23.2,8.8-32.1,0C41,73.2,41,58.8,49.8,50c8.8-8.8,23.2-8.8,32.1,0S90.7,73.2,81.9,82z"/>
<g>
	<path class="st4" d="M29.8,26.9C30.4,27,31,27,32.5,27c1.8,0,4.1-0.1,5.3-0.3c0.5-0.1,0.7-0.1,1.1-0.3l2.8,2.4
		c-0.3,0.4-0.3,0.5-0.6,1.2c-0.2,0.6-1.3,3.8-1.7,5.2c1.9,0.4,3,0.7,4.4,1.3c0.2-1.3,0.2-1.9,0.2-4.2c0-0.6,0-0.9-0.1-1.5l4.5,0.2
		c-0.1,0.6-0.2,0.9-0.2,1.9c-0.1,2.4-0.2,3.6-0.5,5.3c1.8,0.9,1.8,0.9,2.7,1.4c0.5,0.3,0.6,0.3,0.9,0.4l-1.5,4.8
		c-0.7-0.6-1.7-1.3-3.2-2.2c-1.3,3.1-3.4,5.3-6.7,7.1c-1.1-1.4-1.9-2.3-3.2-3.4c1.9-0.9,2.8-1.5,3.8-2.4c1-1,1.6-1.9,2.2-3.3
		c-1.7-0.7-2.7-1.1-4.5-1.5c-1.1,3.2-1.9,5.2-2.7,6.4c-1,1.6-2.4,2.5-4,2.5c-1.2,0-2.5-0.5-3.4-1.5c-1-1.1-1.6-2.5-1.6-4.2
		c0-2.5,1.2-4.7,3.3-6.1c1.4-0.9,2.8-1.3,5.1-1.4c0.5-1.5,0.9-2.8,1.2-4.3c-1.1,0.1-2.6,0.2-4.3,0.3c-0.9,0-1.2,0.1-2,0.2L29.8,26.9
		z M31.4,40.3c-0.5,0.6-0.7,1.2-0.7,2c0,0.8,0.4,1.4,0.9,1.4c0.6,0,1.3-1.3,2.4-4.8C32.7,39.1,32,39.5,31.4,40.3z"/>
	<path class="st4" d="M64.9,27c-0.5,1-0.9,1.9-3.9,9.6c1-0.7,2.1-1.1,3.2-1.1c1.7,0,3,1,3.4,2.5c0.3,0.9,0.3,1.1,0.3,4.3
		c0,1.8,0.3,2.4,1.2,2.4c1,0,1.8-0.7,2.4-2.1c0.6-1.4,1-3,1.1-4.8c1.5,1.3,2.2,1.8,4.1,2.6c-0.5,2.7-1.2,4.4-2.3,6
		c-1.3,1.8-3.4,2.8-5.8,2.8c-1.7,0-2.9-0.4-3.8-1.3c-0.9-0.9-1.2-2-1.2-3.8c0-0.2,0-0.7,0-1.8c0-0.2,0-0.3,0-0.4
		c0-1.3-0.3-1.7-1.1-1.7c-1.2,0-2.4,1.2-3.4,3.4c-0.8,1.6-1.7,4.2-2,5.9l-4.8-1.4c0.5-0.9,0.5-1,2.1-5.5c0.2-0.6,1.1-3.2,2.7-7.8
		c2.1-6,2.6-7.6,2.8-8.6L64.9,27z"/>
	<path class="st4" d="M89.3,26.3c-0.2,0.5-0.2,0.5-0.5,2.1c-0.1,0.6-0.2,0.9-0.3,1.4c1.7-0.2,2.8-0.4,3.6-0.6l0.1,4.2
		c-0.6,0.1-0.6,0.1-1.9,0.2c-0.7,0.1-2.1,0.2-2.8,0.3c-0.9,3-1.6,4.8-2.8,7.5c-0.5,1.2-0.8,1.7-1.8,3.7c-0.3,0.6-0.3,0.6-0.5,1
		l-4.2-2.3c1.8-2.5,3.6-6.1,4.8-9.8c-0.5,0-0.5,0-1.4,0c-0.6,0-0.6,0-1.2,0c-0.1,0-0.2,0-1,0v-4.1c1,0.2,2.2,0.3,3.8,0.3
		c0.3,0,0.4,0,0.9,0c0-0.2,0-0.2,0.2-1.1c0.2-0.9,0.4-2.1,0.4-3.1L89.3,26.3z M100.4,48c-1-1.1-1.9-1.9-3.3-2.8
		c-0.1,1.2-0.4,2-1.1,2.7c-1,1-2.8,1.6-4.9,1.6s-3.8-0.6-4.9-1.7c-0.9-0.9-1.3-2-1.3-3.2c0-3,2.5-5.1,6.1-5.1c0.5,0,1,0,1.8,0.2
		c-0.1-1-0.1-1.5-0.1-2.1c0-1.1,0.1-1.9,0.2-3l4.3,0.2c-0.2,0.9-0.3,1.7-0.3,2.9c0,0.9,0.1,1.7,0.2,3c1.6,0.7,2.8,1.4,4,2.3
		c0.1,0.1,0.5,0.4,1.3,1L100.4,48z M91.1,43.2c-1.2,0-2,0.5-2,1.3c0,0.7,0.7,1.2,1.8,1.2c1.3,0,2-0.6,2-1.7c0-0.2,0-0.5-0.1-0.6
		C92.2,43.3,91.7,43.2,91.1,43.2z M100.6,35.9c-2.4-1.5-5-2.7-8-3.7l2.1-3.6c3.3,1.2,5.4,2.1,7.8,3.5L100.6,35.9z"/>
	<path class="st4" d="M116,42.4c-1.5,3.3-3.2,4.8-5.6,4.8c-3.5,0-5.9-3.3-5.9-8c0-3,1-5.8,3-7.9c2.3-2.5,5.6-3.8,9.4-3.8
		c3.5,0,6.5,1.2,8.4,3.2c1.7,1.8,2.5,4.3,2.5,7.2c0,3.4-1.3,6.4-3.4,8.3c-1.8,1.6-3.8,2.4-7.4,3c-0.6-1.9-1.1-2.8-2.2-4.2
		c2.4-0.2,4-0.6,5.4-1.3c2-1.1,3.1-3.2,3.1-6c0-2.2-0.8-4-2.3-5.1c-0.7-0.5-1.2-0.7-2.2-0.9C118.3,36,117.4,39.4,116,42.4z
		 M111.6,33c-1.7,1.4-2.8,3.8-2.8,6.1c0,1.8,0.7,3.3,1.6,3.3c0.6,0,1.3-0.9,2.1-2.9c0.9-2.3,1.7-5.3,1.9-7.9
		C113.3,31.8,112.5,32.2,111.6,33z"/>
	<path class="st4" d="M59,87v-1.3H44.3V87h-4.1c0.1-0.8,0.2-2,0.2-3.6V66.7c0-1.2,0-2-0.1-3c0.9,0.1,1.8,0.1,3,0.1H60
		c1.3,0,2.1,0,3-0.1c-0.1,1-0.1,1.8-0.1,3v16.7c0,1.4,0.1,2.8,0.2,3.6H59z M44.3,82.2H59V67.4H44.3V82.2z M54.8,69.3
		c1,0,1.7,0,2.3-0.1c-0.1,0.6-0.1,1.3-0.1,2.1v6.7c0,0.8,0,1.4,0.1,2.1c-0.6-0.1-1.3-0.1-2.3-0.1h-6.5c-1.1,0-1.6,0-2.3,0.1
		c0.1-0.7,0.1-1.4,0.1-2.1v-6.7c0-0.7,0-1.3-0.1-2.1c0.6,0.1,1.3,0.1,2.3,0.1H54.8z M49.9,76.8h3.5v-4.1h-3.5V76.8z"/>
	<path class="st4" d="M70.4,68c-0.9,1.3-1.7,2.1-3,3.4c-0.7-1.3-1.3-2.1-2.4-3.1c2-1.7,3.5-3.8,4-5.8l3.9,0.6c0,0.1-0.2,0.6-0.6,1.4
		h2.5c1.2,0,1.7,0,2.4-0.1V67c1.1-1.6,1.8-3.2,2.1-4.4l3.9,0.5l-0.6,1.4h4.1c1.2,0,1.8,0,2.6-0.1v3.7c-0.7-0.1-1.6-0.1-2.6-0.1h-1.2
		c0.5,0.9,0.7,1.4,1.2,2.5l-3.8,0.8c-0.4-1.4-0.5-1.9-1.2-3.3h-0.7c-0.5,0.8-0.9,1.4-1.3,1.9c1,1.1,2.6,2,4.8,2.9
		c1.7,0.7,3,1,5.4,1.5c-0.9,1.8-1.1,2.2-1.5,3.9c-1.8-0.5-3.5-1.1-5.2-1.9v1.2c-0.9-0.1-1.4-0.1-2.1-0.1h-7.2c-1.2,0-1.3,0-2.2,0.1
		v-1.2c-1.9,1-3.3,1.5-5,2c-0.4-1.4-0.9-2.4-1.6-3.7c3.7-0.7,6.9-2.1,9.2-4l-2.5,0.5c-0.2-1-0.5-2.1-0.9-3H70.4z M72.5,87h-4
		c0.1-0.8,0.1-1.8,0.1-2.9v-3.2c0-1.2,0-1.8-0.1-2.5c0.6,0.1,1.2,0.1,2.4,0.1H84c1.3,0,1.8,0,2.4-0.1c-0.1,0.6-0.1,1.2-0.1,2.6v3.2
		c0,1.3,0,2.1,0.1,2.9h-4v-1.1h-9.9V87z M72.5,82.7h9.9v-1.2h-9.9V82.7z M74.5,68c0.3,0.5,0.5,1,0.7,1.6h2.5
		c-0.5-0.5-0.8-0.7-1.6-1.3l0.2-0.3c-0.5,0-0.7,0-1.1,0H74.5z M79.8,74.5c-1-0.6-1.5-1-2.5-1.9c-1,0.9-1.4,1.2-2.5,1.9H79.8z"/>
	<path class="st4" d="M92.8,65.4c1.1,0.3,2.7,0.4,5.3,0.4c0.2,0,0.4,0,0.7,0c0.5-1.2,0.7-1.9,0.8-2.9l4.7,0.4
		c-0.2,0.4-0.2,0.4-0.5,1.2c-0.3,0.7-0.5,1.2-0.5,1.2c0.3,0,0.3,0,1.6-0.1c2.5-0.1,5.2-0.5,6.5-0.8l0.2,4.1
		c-0.8,0.1-1.6,0.2-2.3,0.2c-1.8,0.2-5.1,0.4-7.7,0.4c-0.4,0.8-0.6,1.1-1.2,1.9c1.1-0.5,2.2-0.8,3.3-0.8c2.1,0,3.4,0.8,4,2.5
		c0.4-0.2,0.4-0.2,1.8-0.6c0.1,0,0.8-0.3,1.6-0.5c1.5-0.5,1.7-0.5,2.1-0.8l1.6,4.1c-1.3,0.2-4.1,0.9-6.6,1.8c0,0.7,0,0.7,0,1.9
		c0,1.2,0,1.5,0.1,2.2l-4.2,0.1c0.1-0.4,0.1-1.2,0.1-2.7l-0.2,0.1c-1.2,0.6-1.3,0.7-1.8,1.1c-0.4,0.4-0.7,0.9-0.7,1.3
		c0,1,1,1.4,3.5,1.4c3.1,0,6.1-0.5,8.3-1.3l0.3,4.6c-0.7,0-0.7,0-2.3,0.2c-2.1,0.3-4.2,0.4-6.2,0.4c-2.9,0-4.8-0.4-6.1-1.2
		c-1.3-0.7-2-2.1-2-3.7c0-1.2,0.4-2.2,1.3-3.3c1-1.1,2.1-2,3.7-2.8c0.6-0.3,0.9-0.4,1.9-0.9c-0.2-0.4-0.5-0.6-1-0.6
		c-1.3,0-3.1,0.9-4.9,2.5c-1.1,1-1.8,1.7-2.5,2.6l-3.3-3.3c0.8-0.6,1.9-1.7,2.7-2.7c0.6-0.7,1.6-2.2,2-2.8c0.4-0.6,0.4-0.6,0.5-0.8
		c-0.4,0-0.6,0-0.8,0c-1.1,0-1.1,0-2.2,0c-0.4,0-0.5,0-0.9,0c-0.1,0-0.2,0-0.4,0L92.8,65.4z"/>
	<path class="st4" d="M32.3,116c-1.3,0-2,0-2.7,0.1c0.1-0.8,0.1-1.6,0.1-2.8v-9.7c0-1.3-0.1-2.2-0.1-3c0.7,0.1,1.4,0.1,2.7,0.1h13
		c1.2,0,2,0,2.7-0.1c-0.1,0.7-0.1,1.6-0.1,3v9.7c0,1.3,0,2.1,0.1,2.8c-0.7-0.1-1.5-0.1-2.7-0.1h-2.2v3.7c0,0.6,0.2,0.7,1.7,0.7
		c1.6,0,2-0.1,2.2-0.4c0.2-0.3,0.3-1.6,0.3-3.2c1.4,0.7,2.1,1,3.7,1.4c-0.2,3.2-0.5,4.3-1.4,5c-0.7,0.6-1.8,0.8-5,0.8
		c-4.8,0-5.5-0.3-5.5-2.7V116h-1.5c-0.2,1.3-0.4,1.9-0.9,2.8c-1.4,2.7-4,4.5-8.1,5.6c-0.6-1.5-1.1-2.3-2.1-3.5
		c4.4-0.8,6.3-2.1,6.9-4.9H32.3z M33.5,105.1H44V104H33.5V105.1z M33.5,109H44v-1.1H33.5V109z M33.5,112.9H44v-1.1H33.5V112.9z"/>
	<path class="st4" d="M53.2,103c0.4,0,0.8,0,1,0c0.7,0,1.6-0.1,4.4-0.2c4-0.3,5.9-0.4,13.8-0.6c2.1-0.1,2.4-0.1,2.8-0.2l0.2,4.7
		c-0.4-0.1-0.5-0.1-0.7-0.1c-1.8,0-4.1,0.7-5.9,1.8c-2.6,1.6-4.1,3.8-4.1,5.9c0,1.5,0.7,2.5,2.2,3.2c1.1,0.5,3.3,0.9,4.9,0.9
		c0.3,0,0.4,0,0.8-0.1l-0.6,4.9c-0.4-0.1-0.5-0.1-1-0.1c-2.9-0.3-4.9-0.7-6.5-1.4c-3-1.4-4.6-3.8-4.6-7.1c0-2.1,0.7-4.1,2.2-5.8
		c0.7-0.8,1.3-1.3,2.5-2.2l-8.9,0.8c-1,0.1-1.3,0.1-2.2,0.3L53.2,103z"/>
	<path class="st4" d="M81.5,101.2c0.5,0.1,1.2,0.1,2.7,0.1c1.8,0,4.1-0.1,5.3-0.3c0.5-0.1,0.7-0.1,1.1-0.3l2.8,2.4
		c-0.3,0.4-0.3,0.5-0.6,1.2c-0.2,0.6-1.3,3.8-1.7,5.2c1.9,0.4,3,0.7,4.4,1.3c0.2-1.3,0.2-1.9,0.2-4.2c0-0.6,0-0.9-0.1-1.5l4.5,0.2
		c-0.1,0.6-0.2,0.9-0.2,1.9c-0.1,2.4-0.2,3.6-0.5,5.3c1.8,0.9,1.8,0.9,2.7,1.4c0.5,0.3,0.6,0.3,0.9,0.4l-1.5,4.8
		c-0.7-0.6-1.7-1.3-3.2-2.2c-1.3,3.1-3.4,5.3-6.7,7.1c-1.1-1.4-1.9-2.3-3.2-3.4c1.9-0.9,2.8-1.5,3.8-2.4c1-1,1.6-1.9,2.2-3.3
		c-1.7-0.7-2.7-1.1-4.5-1.5c-1.1,3.2-1.9,5.2-2.7,6.4c-1,1.6-2.4,2.5-4,2.5c-1.2,0-2.5-0.5-3.4-1.5c-1-1.1-1.6-2.5-1.6-4.2
		c0-2.5,1.2-4.7,3.3-6.1c1.4-0.9,2.8-1.3,5.1-1.4c0.5-1.5,0.9-2.8,1.2-4.3c-1.1,0.1-2.6,0.2-4.3,0.3c-0.9,0-1.2,0.1-2,0.2
		L81.5,101.2z M83,114.6c-0.5,0.6-0.7,1.2-0.7,2c0,0.8,0.4,1.4,0.9,1.4c0.6,0,1.3-1.3,2.4-4.8C84.4,113.4,83.7,113.8,83,114.6z"/>
	<path class="st4" d="M107.9,101.3c1.1,0.1,2,0.2,3.7,0.2c2.3,0,5.2-0.1,7.8-0.3c1.1-0.1,1.5-0.2,2-0.4l2.1,3.1
		c-0.7,0.4-0.7,0.4-4.2,3.4c-1.4,1.2-1.8,1.5-3.6,2.8c1.4-0.4,2.2-0.5,3.5-0.5c2.4,0,4.2,0.6,5.5,1.8c1.2,1.1,1.9,2.6,1.9,4.5
		c0,2.6-1.2,4.7-3.6,6.1c-1.8,1-4.3,1.6-6.8,1.6c-4.4,0-7-1.7-7-4.6c0-2.4,2.1-4.1,5.1-4.1c1.9,0,3.5,0.7,4.6,2
		c0.5,0.6,0.8,1.1,1.2,2c1.4-0.6,2-1.5,2-2.8c0-1.8-1.8-2.9-4.6-2.9c-2.7,0-5.6,0.9-8,2.4c-0.8,0.5-1.6,1.2-2.5,1.9l-2.4-3.9
		c2.4-1.1,7.8-5.3,11-8.5c-1.4,0.2-2.4,0.2-6,0.4c-0.7,0-1.2,0.1-1.7,0.1L107.9,101.3z M114.3,118.2c-0.6,0-1,0.3-1,0.9
		c0,0.7,0.8,1.1,2.2,1.1c0.3,0,0.4,0,0.9-0.1C116.1,118.9,115.3,118.2,114.3,118.2z"/>
</g>
<g>
	<path d="M29.8,26.9C30.4,27,31,27,32.5,27c1.8,0,4.1-0.1,5.3-0.3c0.5-0.1,0.7-0.1,1.1-0.3l2.8,2.4c-0.3,0.4-0.3,0.5-0.6,1.2
		c-0.2,0.6-1.3,3.8-1.7,5.2c1.9,0.4,3,0.7,4.4,1.3c0.2-1.3,0.2-1.9,0.2-4.2c0-0.6,0-0.9-0.1-1.5l4.5,0.2c-0.1,0.6-0.2,0.9-0.2,1.9
		c-0.1,2.4-0.2,3.6-0.5,5.3c1.8,0.9,1.8,0.9,2.7,1.4c0.5,0.3,0.6,0.3,0.9,0.4l-1.5,4.8c-0.7-0.6-1.7-1.3-3.2-2.2
		c-1.3,3.1-3.4,5.3-6.7,7.1c-1.1-1.4-1.9-2.3-3.2-3.4c1.9-0.9,2.8-1.5,3.8-2.4c1-1,1.6-1.9,2.2-3.3c-1.7-0.7-2.7-1.1-4.5-1.5
		c-1.1,3.2-1.9,5.2-2.7,6.4c-1,1.6-2.4,2.5-4,2.5c-1.2,0-2.5-0.5-3.4-1.5c-1-1.1-1.6-2.5-1.6-4.2c0-2.5,1.2-4.7,3.3-6.1
		c1.4-0.9,2.8-1.3,5.1-1.4c0.5-1.5,0.9-2.8,1.2-4.3c-1.1,0.1-2.6,0.2-4.3,0.3c-0.9,0-1.2,0.1-2,0.2L29.8,26.9z M31.4,40.3
		c-0.5,0.6-0.7,1.2-0.7,2c0,0.8,0.4,1.4,0.9,1.4c0.6,0,1.3-1.3,2.4-4.8C32.7,39.1,32,39.5,31.4,40.3z"/>
	<path d="M64.9,27c-0.5,1-0.9,1.9-3.9,9.6c1-0.7,2.1-1.1,3.2-1.1c1.7,0,3,1,3.4,2.5c0.3,0.9,0.3,1.1,0.3,4.3c0,1.8,0.3,2.4,1.2,2.4
		c1,0,1.8-0.7,2.4-2.1c0.6-1.4,1-3,1.1-4.8c1.5,1.3,2.2,1.8,4.1,2.6c-0.5,2.7-1.2,4.4-2.3,6c-1.3,1.8-3.4,2.8-5.8,2.8
		c-1.7,0-2.9-0.4-3.8-1.3c-0.9-0.9-1.2-2-1.2-3.8c0-0.2,0-0.7,0-1.8c0-0.2,0-0.3,0-0.4c0-1.3-0.3-1.7-1.1-1.7
		c-1.2,0-2.4,1.2-3.4,3.4c-0.8,1.6-1.7,4.2-2,5.9l-4.8-1.4c0.5-0.9,0.5-1,2.1-5.5c0.2-0.6,1.1-3.2,2.7-7.8c2.1-6,2.6-7.6,2.8-8.6
		L64.9,27z"/>
	<path d="M89.3,26.3c-0.2,0.5-0.2,0.5-0.5,2.1c-0.1,0.6-0.2,0.9-0.3,1.4c1.7-0.2,2.8-0.4,3.6-0.6l0.1,4.2c-0.6,0.1-0.6,0.1-1.9,0.2
		c-0.7,0.1-2.1,0.2-2.8,0.3c-0.9,3-1.6,4.8-2.8,7.5c-0.5,1.2-0.8,1.7-1.8,3.7c-0.3,0.6-0.3,0.6-0.5,1l-4.2-2.3
		c1.8-2.5,3.6-6.1,4.8-9.8c-0.5,0-0.5,0-1.4,0c-0.6,0-0.6,0-1.2,0c-0.1,0-0.2,0-1,0v-4.1c1,0.2,2.2,0.3,3.8,0.3c0.3,0,0.4,0,0.9,0
		c0-0.2,0-0.2,0.2-1.1c0.2-0.9,0.4-2.1,0.4-3.1L89.3,26.3z M100.4,48c-1-1.1-1.9-1.9-3.3-2.8c-0.1,1.2-0.4,2-1.1,2.7
		c-1,1-2.8,1.6-4.9,1.6s-3.8-0.6-4.9-1.7c-0.9-0.9-1.3-2-1.3-3.2c0-3,2.5-5.1,6.1-5.1c0.5,0,1,0,1.8,0.2c-0.1-1-0.1-1.5-0.1-2.1
		c0-1.1,0.1-1.9,0.2-3l4.3,0.2c-0.2,0.9-0.3,1.7-0.3,2.9c0,0.9,0.1,1.7,0.2,3c1.6,0.7,2.8,1.4,4,2.3c0.1,0.1,0.5,0.4,1.3,1L100.4,48
		z M91.1,43.2c-1.2,0-2,0.5-2,1.3c0,0.7,0.7,1.2,1.8,1.2c1.3,0,2-0.6,2-1.7c0-0.2,0-0.5-0.1-0.6C92.2,43.3,91.7,43.2,91.1,43.2z
		 M100.6,35.9c-2.4-1.5-5-2.7-8-3.7l2.1-3.6c3.3,1.2,5.4,2.1,7.8,3.5L100.6,35.9z"/>
	<path d="M116,42.4c-1.5,3.3-3.2,4.8-5.6,4.8c-3.5,0-5.9-3.3-5.9-8c0-3,1-5.8,3-7.9c2.3-2.5,5.6-3.8,9.4-3.8c3.5,0,6.5,1.2,8.4,3.2
		c1.7,1.8,2.5,4.3,2.5,7.2c0,3.4-1.3,6.4-3.4,8.3c-1.8,1.6-3.8,2.4-7.4,3c-0.6-1.9-1.1-2.8-2.2-4.2c2.4-0.2,4-0.6,5.4-1.3
		c2-1.1,3.1-3.2,3.1-6c0-2.2-0.8-4-2.3-5.1c-0.7-0.5-1.2-0.7-2.2-0.9C118.3,36,117.4,39.4,116,42.4z M111.6,33
		c-1.7,1.4-2.8,3.8-2.8,6.1c0,1.8,0.7,3.3,1.6,3.3c0.6,0,1.3-0.9,2.1-2.9c0.9-2.3,1.7-5.3,1.9-7.9C113.3,31.8,112.5,32.2,111.6,33z"
		/>
	<path d="M59,87v-1.3H44.3V87h-4.1c0.1-0.8,0.2-2,0.2-3.6V66.7c0-1.2,0-2-0.1-3c0.9,0.1,1.8,0.1,3,0.1H60c1.3,0,2.1,0,3-0.1
		c-0.1,1-0.1,1.8-0.1,3v16.7c0,1.4,0.1,2.8,0.2,3.6H59z M44.3,82.2H59V67.4H44.3V82.2z M54.8,69.3c1,0,1.7,0,2.3-0.1
		c-0.1,0.6-0.1,1.3-0.1,2.1v6.7c0,0.8,0,1.4,0.1,2.1c-0.6-0.1-1.3-0.1-2.3-0.1h-6.5c-1.1,0-1.6,0-2.3,0.1c0.1-0.7,0.1-1.4,0.1-2.1
		v-6.7c0-0.7,0-1.3-0.1-2.1c0.6,0.1,1.3,0.1,2.3,0.1H54.8z M49.9,76.8h3.5v-4.1h-3.5V76.8z"/>
	<path d="M70.4,68c-0.9,1.3-1.7,2.1-3,3.4c-0.7-1.3-1.3-2.1-2.4-3.1c2-1.7,3.5-3.8,4-5.8l3.9,0.6c0,0.1-0.2,0.6-0.6,1.4h2.5
		c1.2,0,1.7,0,2.4-0.1V67c1.1-1.6,1.8-3.2,2.1-4.4l3.9,0.5l-0.6,1.4h4.1c1.2,0,1.8,0,2.6-0.1v3.7c-0.7-0.1-1.6-0.1-2.6-0.1h-1.2
		c0.5,0.9,0.7,1.4,1.2,2.5l-3.8,0.8c-0.4-1.4-0.5-1.9-1.2-3.3h-0.7c-0.5,0.8-0.9,1.4-1.3,1.9c1,1.1,2.6,2,4.8,2.9
		c1.7,0.7,3,1,5.4,1.5c-0.9,1.8-1.1,2.2-1.5,3.9c-1.8-0.5-3.5-1.1-5.2-1.9v1.2c-0.9-0.1-1.4-0.1-2.1-0.1h-7.2c-1.2,0-1.3,0-2.2,0.1
		v-1.2c-1.9,1-3.3,1.5-5,2c-0.4-1.4-0.9-2.4-1.6-3.7c3.7-0.7,6.9-2.1,9.2-4l-2.5,0.5c-0.2-1-0.5-2.1-0.9-3H70.4z M72.5,87h-4
		c0.1-0.8,0.1-1.8,0.1-2.9v-3.2c0-1.2,0-1.8-0.1-2.5c0.6,0.1,1.2,0.1,2.4,0.1H84c1.3,0,1.8,0,2.4-0.1c-0.1,0.6-0.1,1.2-0.1,2.6v3.2
		c0,1.3,0,2.1,0.1,2.9h-4v-1.1h-9.9V87z M72.5,82.7h9.9v-1.2h-9.9V82.7z M74.5,68c0.3,0.5,0.5,1,0.7,1.6h2.5
		c-0.5-0.5-0.8-0.7-1.6-1.3l0.2-0.3c-0.5,0-0.7,0-1.1,0H74.5z M79.8,74.5c-1-0.6-1.5-1-2.5-1.9c-1,0.9-1.4,1.2-2.5,1.9H79.8z"/>
	<path d="M92.8,65.4c1.1,0.3,2.7,0.4,5.3,0.4c0.2,0,0.4,0,0.7,0c0.5-1.2,0.7-1.9,0.8-2.9l4.7,0.4c-0.2,0.4-0.2,0.4-0.5,1.2
		c-0.3,0.7-0.5,1.2-0.5,1.2c0.3,0,0.3,0,1.6-0.1c2.5-0.1,5.2-0.5,6.5-0.8l0.2,4.1c-0.8,0.1-1.6,0.2-2.3,0.2
		c-1.8,0.2-5.1,0.4-7.7,0.4c-0.4,0.8-0.6,1.1-1.2,1.9c1.1-0.5,2.2-0.8,3.3-0.8c2.1,0,3.4,0.8,4,2.5c0.4-0.2,0.4-0.2,1.8-0.6
		c0.1,0,0.8-0.3,1.6-0.5c1.5-0.5,1.7-0.5,2.1-0.8l1.6,4.1c-1.3,0.2-4.1,0.9-6.6,1.8c0,0.7,0,0.7,0,1.9c0,1.2,0,1.5,0.1,2.2l-4.2,0.1
		c0.1-0.4,0.1-1.2,0.1-2.7l-0.2,0.1c-1.2,0.6-1.3,0.7-1.8,1.1c-0.4,0.4-0.7,0.9-0.7,1.3c0,1,1,1.4,3.5,1.4c3.1,0,6.1-0.5,8.3-1.3
		l0.3,4.6c-0.7,0-0.7,0-2.3,0.2c-2.1,0.3-4.2,0.4-6.2,0.4c-2.9,0-4.8-0.4-6.1-1.2c-1.3-0.7-2-2.1-2-3.7c0-1.2,0.4-2.2,1.3-3.3
		c1-1.1,2.1-2,3.7-2.8c0.6-0.3,0.9-0.4,1.9-0.9c-0.2-0.4-0.5-0.6-1-0.6c-1.3,0-3.1,0.9-4.9,2.5c-1.1,1-1.8,1.7-2.5,2.6l-3.3-3.3
		c0.8-0.6,1.9-1.7,2.7-2.7c0.6-0.7,1.6-2.2,2-2.8c0.4-0.6,0.4-0.6,0.5-0.8c-0.4,0-0.6,0-0.8,0c-1.1,0-1.1,0-2.2,0
		c-0.4,0-0.5,0-0.9,0c-0.1,0-0.2,0-0.4,0L92.8,65.4z"/>
	<path d="M32.3,116c-1.3,0-2,0-2.7,0.1c0.1-0.8,0.1-1.6,0.1-2.8v-9.7c0-1.3-0.1-2.2-0.1-3c0.7,0.1,1.4,0.1,2.7,0.1h13
		c1.2,0,2,0,2.7-0.1c-0.1,0.7-0.1,1.6-0.1,3v9.7c0,1.3,0,2.1,0.1,2.8c-0.7-0.1-1.5-0.1-2.7-0.1h-2.2v3.7c0,0.6,0.2,0.7,1.7,0.7
		c1.6,0,2-0.1,2.2-0.4c0.2-0.3,0.3-1.6,0.3-3.2c1.4,0.7,2.1,1,3.7,1.4c-0.2,3.2-0.5,4.3-1.4,5c-0.7,0.6-1.8,0.8-5,0.8
		c-4.8,0-5.5-0.3-5.5-2.7V116h-1.5c-0.2,1.3-0.4,1.9-0.9,2.8c-1.4,2.7-4,4.5-8.1,5.6c-0.6-1.5-1.1-2.3-2.1-3.5
		c4.4-0.8,6.3-2.1,6.9-4.9H32.3z M33.5,105.1H44V104H33.5V105.1z M33.5,109H44v-1.1H33.5V109z M33.5,112.9H44v-1.1H33.5V112.9z"/>
	<path d="M53.2,103c0.4,0,0.8,0,1,0c0.7,0,1.6-0.1,4.4-0.2c4-0.3,5.9-0.4,13.8-0.6c2.1-0.1,2.4-0.1,2.8-0.2l0.2,4.7
		c-0.4-0.1-0.5-0.1-0.7-0.1c-1.8,0-4.1,0.7-5.9,1.8c-2.6,1.6-4.1,3.8-4.1,5.9c0,1.5,0.7,2.5,2.2,3.2c1.1,0.5,3.3,0.9,4.9,0.9
		c0.3,0,0.4,0,0.8-0.1l-0.6,4.9c-0.4-0.1-0.5-0.1-1-0.1c-2.9-0.3-4.9-0.7-6.5-1.4c-3-1.4-4.6-3.8-4.6-7.1c0-2.1,0.7-4.1,2.2-5.8
		c0.7-0.8,1.3-1.3,2.5-2.2l-8.9,0.8c-1,0.1-1.3,0.1-2.2,0.3L53.2,103z"/>
	<path d="M81.5,101.2c0.5,0.1,1.2,0.1,2.7,0.1c1.8,0,4.1-0.1,5.3-0.3c0.5-0.1,0.7-0.1,1.1-0.3l2.8,2.4c-0.3,0.4-0.3,0.5-0.6,1.2
		c-0.2,0.6-1.3,3.8-1.7,5.2c1.9,0.4,3,0.7,4.4,1.3c0.2-1.3,0.2-1.9,0.2-4.2c0-0.6,0-0.9-0.1-1.5l4.5,0.2c-0.1,0.6-0.2,0.9-0.2,1.9
		c-0.1,2.4-0.2,3.6-0.5,5.3c1.8,0.9,1.8,0.9,2.7,1.4c0.5,0.3,0.6,0.3,0.9,0.4l-1.5,4.8c-0.7-0.6-1.7-1.3-3.2-2.2
		c-1.3,3.1-3.4,5.3-6.7,7.1c-1.1-1.4-1.9-2.3-3.2-3.4c1.9-0.9,2.8-1.5,3.8-2.4c1-1,1.6-1.9,2.2-3.3c-1.7-0.7-2.7-1.1-4.5-1.5
		c-1.1,3.2-1.9,5.2-2.7,6.4c-1,1.6-2.4,2.5-4,2.5c-1.2,0-2.5-0.5-3.4-1.5c-1-1.1-1.6-2.5-1.6-4.2c0-2.5,1.2-4.7,3.3-6.1
		c1.4-0.9,2.8-1.3,5.1-1.4c0.5-1.5,0.9-2.8,1.2-4.3c-1.1,0.1-2.6,0.2-4.3,0.3c-0.9,0-1.2,0.1-2,0.2L81.5,101.2z M83,114.6
		c-0.5,0.6-0.7,1.2-0.7,2c0,0.8,0.4,1.4,0.9,1.4c0.6,0,1.3-1.3,2.4-4.8C84.4,113.4,83.7,113.8,83,114.6z"/>
	<path d="M107.9,101.3c1.1,0.1,2,0.2,3.7,0.2c2.3,0,5.2-0.1,7.8-0.3c1.1-0.1,1.5-0.2,2-0.4l2.1,3.1c-0.7,0.4-0.7,0.4-4.2,3.4
		c-1.4,1.2-1.8,1.5-3.6,2.8c1.4-0.4,2.2-0.5,3.5-0.5c2.4,0,4.2,0.6,5.5,1.8c1.2,1.1,1.9,2.6,1.9,4.5c0,2.6-1.2,4.7-3.6,6.1
		c-1.8,1-4.3,1.6-6.8,1.6c-4.4,0-7-1.7-7-4.6c0-2.4,2.1-4.1,5.1-4.1c1.9,0,3.5,0.7,4.6,2c0.5,0.6,0.8,1.1,1.2,2c1.4-0.6,2-1.5,2-2.8
		c0-1.8-1.8-2.9-4.6-2.9c-2.7,0-5.6,0.9-8,2.4c-0.8,0.5-1.6,1.2-2.5,1.9l-2.4-3.9c2.4-1.1,7.8-5.3,11-8.5c-1.4,0.2-2.4,0.2-6,0.4
		c-0.7,0-1.2,0.1-1.7,0.1L107.9,101.3z M114.3,118.2c-0.6,0-1,0.3-1,0.9c0,0.7,0.8,1.1,2.2,1.1c0.3,0,0.4,0,0.9-0.1
		C116.1,118.9,115.3,118.2,114.3,118.2z"/>
</g>
</svg>
