<?xml version="1.0" encoding="utf-8"?>
<!-- Generator: Adobe Illustrator 24.0.1, SVG Export Plug-In . SVG Version: 6.00 Build 0)  -->
<svg version="1.1" id="レイヤー_1" xmlns="http://www.w3.org/2000/svg" xmlns:xlink="http://www.w3.org/1999/xlink" x="0px"
	 y="0px" viewBox="0 0 572.3 86.8" style="enable-background:new 0 0 572.3 86.8;" xml:space="preserve">
<style type="text/css">
	.st0{fill:#E60012;}
	.st1{fill:#040000;}
	.st2{fill:#E60000;}
	.st3{fill:#FFFFFF;}
	.st4{enable-background:new    ;}
</style>
<path class="st0" d="M546.4,59h-195c-8.4,0-15.1-6.8-15.1-15.1v0c0-8.4,6.8-15.1,15.1-15.1h195c8.4,0,15.1,6.8,15.1,15.1v0
	C561.5,52.2,554.7,59,546.4,59z"/>
<polygon class="st1" points="12.7,74.3 0,86.8 6.5,86.8 19.2,74.3 "/>
<polygon class="st1" points="23.5,74.3 10.8,86.8 17.4,86.8 30,74.3 "/>
<polygon class="st1" points="34.3,74.3 21.7,86.8 28.2,86.8 40.9,74.3 "/>
<polygon class="st1" points="45.2,74.3 32.5,86.8 39,86.8 51.7,74.3 "/>
<polygon class="st1" points="56,74.3 43.4,86.8 49.9,86.8 62.5,74.3 "/>
<polygon class="st1" points="66.9,74.3 54.2,86.8 60.7,86.8 73.4,74.3 "/>
<polygon class="st1" points="77.7,74.3 65.1,86.8 71.6,86.8 84.2,74.3 "/>
<polygon class="st1" points="88.6,74.3 75.9,86.8 82.4,86.8 95.1,74.3 "/>
<polygon class="st1" points="99.4,74.3 86.8,86.8 93.3,86.8 105.9,74.3 "/>
<polygon class="st1" points="110.3,74.3 97.6,86.8 104.1,86.8 116.8,74.3 "/>
<polygon class="st1" points="121.1,74.3 108.5,86.8 115,86.8 127.6,74.3 "/>
<polygon class="st1" points="132,74.3 119.3,86.8 125.8,86.8 138.5,74.3 "/>
<polygon class="st1" points="142.8,74.3 130.2,86.8 136.7,86.8 149.3,74.3 "/>
<polygon class="st1" points="153.7,74.3 141,86.8 147.5,86.8 160.2,74.3 "/>
<polygon class="st1" points="164.5,74.3 151.9,86.8 158.4,86.8 171,74.3 "/>
<polygon class="st1" points="175.4,74.3 162.7,86.8 169.2,86.8 181.9,74.3 "/>
<polygon class="st1" points="186.2,74.3 173.5,86.8 180.1,86.8 192.7,74.3 "/>
<polygon class="st1" points="197,74.3 184.4,86.8 190.9,86.8 203.6,74.3 "/>
<polygon class="st1" points="207.9,74.3 195.2,86.8 201.7,86.8 214.4,74.3 "/>
<polygon class="st1" points="218.7,74.3 206.1,86.8 212.6,86.8 225.2,74.3 "/>
<polygon class="st1" points="229.6,74.3 216.9,86.8 223.4,86.8 236.1,74.3 "/>
<polygon class="st1" points="240.4,74.3 227.8,86.8 234.3,86.8 246.9,74.3 "/>
<polygon class="st1" points="251.3,74.3 238.6,86.8 245.1,86.8 257.8,74.3 "/>
<polygon class="st1" points="262.1,74.3 249.5,86.8 256,86.8 268.6,74.3 "/>
<polygon class="st1" points="273,74.3 260.3,86.8 266.8,86.8 279.5,74.3 "/>
<polygon class="st1" points="283.8,74.3 271.2,86.8 277.7,86.8 290.3,74.3 "/>
<polygon class="st1" points="294.7,74.3 282,86.8 288.5,86.8 301.2,74.3 "/>
<polygon class="st1" points="305.5,74.3 292.9,86.8 299.4,86.8 312,74.3 "/>
<polygon class="st1" points="316.4,74.3 303.7,86.8 310.2,86.8 322.9,74.3 "/>
<polygon class="st1" points="327.2,74.3 314.5,86.8 321.1,86.8 333.7,74.3 "/>
<polygon class="st1" points="338.1,74.3 325.4,86.8 331.9,86.8 344.6,74.3 "/>
<polygon class="st1" points="348.9,74.3 336.2,86.8 342.7,86.8 355.4,74.3 "/>
<polygon class="st1" points="359.7,74.3 347.1,86.8 353.6,86.8 366.3,74.3 "/>
<polygon class="st1" points="370.6,74.3 357.9,86.8 364.4,86.8 377.1,74.3 "/>
<polygon class="st1" points="381.4,74.3 368.8,86.8 375.3,86.8 387.9,74.3 "/>
<polygon class="st1" points="392.3,74.3 379.6,86.8 386.1,86.8 398.8,74.3 "/>
<polygon class="st1" points="403.1,74.3 390.5,86.8 397,86.8 409.6,74.3 "/>
<polygon class="st1" points="414,74.3 401.3,86.8 407.8,86.8 420.5,74.3 "/>
<polygon class="st1" points="424.8,74.3 412.2,86.8 418.7,86.8 431.3,74.3 "/>
<polygon class="st1" points="435.7,74.3 423,86.8 429.5,86.8 442.2,74.3 "/>
<polygon class="st1" points="446.5,74.3 433.9,86.8 440.4,86.8 453,74.3 "/>
<polygon class="st1" points="457.4,74.3 444.7,86.8 451.2,86.8 463.9,74.3 "/>
<polygon class="st1" points="468.2,74.3 455.6,86.8 462.1,86.8 474.7,74.3 "/>
<polygon class="st1" points="479.1,74.3 466.4,86.8 472.9,86.8 485.6,74.3 "/>
<polygon class="st1" points="489.9,74.3 477.2,86.8 483.8,86.8 496.4,74.3 "/>
<polygon class="st1" points="500.7,74.3 488.1,86.8 494.6,86.8 507.3,74.3 "/>
<polygon class="st1" points="511.6,74.3 498.9,86.8 505.4,86.8 518.1,74.3 "/>
<polygon class="st1" points="522.4,74.3 509.8,86.8 516.3,86.8 528.9,74.3 "/>
<polygon class="st1" points="533.3,74.3 520.6,86.8 527.1,86.8 539.8,74.3 "/>
<polygon class="st1" points="544.1,74.3 531.5,86.8 538,86.8 550.6,74.3 "/>
<polygon class="st1" points="555,74.3 542.3,86.8 548.8,86.8 561.5,74.3 "/>
<polygon class="st1" points="565.8,74.3 553.2,86.8 559.7,86.8 572.3,74.3 "/>
<g class="st4">
	<path d="M88.5,37.8c-0.4,0.3-0.5,0.4-1.5,1c1.5,1.7,1.9,2.4,2.4,3.9c0.8,2,1.2,4.4,1.2,6.5c0,2.1-0.5,3.4-1.5,4.1
		c-0.7,0.5-1.8,0.7-3.5,0.7c-0.4,0-1.7-0.1-2.3-0.1c-0.2-1.6-0.3-1.8-0.9-3.2c-2,1.2-3.6,1.9-5.8,2.9c-0.8-1.7-1.3-2.3-2.4-3.5
		c4.4-1.3,8.2-3.1,11.5-5.5c-0.1-0.3-0.1-0.4-0.3-0.9c-2.5,1.6-5.8,3.2-9,4.3c-0.6-1.3-1.2-2.1-2.1-3.2c3.9-1,7.2-2.2,9.7-3.6
		c-0.2-0.3-0.3-0.4-0.6-0.7c-2.1,1-4,1.7-6.8,2.5c-0.5-1.2-0.9-2-1.8-3.1c2.6-0.4,3.1-0.5,4.6-1c1.3-0.4,2.2-0.7,3.1-1.1h-2.2
		c-1,0-1.9,0.1-2.8,0.1v-1.6h-2.8c0.1-0.7,0.1-1.1,0.1-2v-2.5c0-0.9,0-1.4-0.1-2c0.9,0.1,1.8,0.1,3.3,0.1h6.7v-0.3
		c0-0.6,0-1.1-0.1-1.6h4.6c-0.1,0.5-0.1,0.9-0.1,1.6v0.3h7.1c1.5,0,2.4,0,3.3-0.1c-0.1,0.6-0.1,1.1-0.1,2v2.5c0,0.8,0,1.4,0.1,2
		h-2.8v1.6c-0.9-0.1-1.7-0.1-2.8-0.1h-1.2c0.3,1.5,0.4,1.8,0.6,2.7c1.4-1.3,1.7-1.5,2.5-2.5l3.4,2.9c-0.1,0.1-0.1,0.1-0.4,0.3
		c-0.1,0.1-0.1,0.1-1.3,1c-1.6,1.3-2,1.5-2.6,2c1.3,2.2,2.8,3.5,5.3,4.9c-1.4,1.5-1.8,2-2.9,3.8c-3-2.4-4.5-4.2-5.9-7.1
		c-1.2-2.4-1.9-4.7-2.6-8.1H88.5z M95.5,33.4H79v1c0.6,0,0.8,0,1.4,0l13.6,0h1.4V33.4z M83.2,50.3c0.9,0.1,1.4,0.1,1.9,0.1
		c1.2,0,1.5-0.3,1.5-2.2c0,0,0-0.1,0-0.2C84.7,49.3,84.2,49.7,83.2,50.3z"/>
	<path d="M119.3,42.9h-1.6c-0.7,0-1.2,0-1.9,0.1v-3.7c0.6,0.1,1.2,0.1,2,0.1h1.4v-1.5c-1.1,0.1-1.5,0.1-2.8,0.2
		c-0.3-1.4-0.5-2.1-1.2-3.5c0.5,0,0.9,0,1.1,0c3.4,0,7-0.6,8.7-1.3h-17.7c0,7-0.1,9.2-0.5,12.4l2.7-1.8c0.4,1,0.5,1.2,1.1,2.1
		c0.4-0.8,0.5-1.3,0.6-2.5h-1.7c-0.9,0-1.2,0-1.6,0.1v-3.2c1.1-0.9,1.7-1.6,2.5-2.7h-1c-0.7,0-0.9,0-1.4,0.1v-3.6
		c0.4,0.1,0.9,0.1,1.8,0.1h2c1,0,1.5,0,2-0.1l1.8,2.1c-0.3,0.4-0.3,0.4-0.9,1.3c-0.9,1.2-1.4,1.9-2.1,2.6h1.4c0.6,0,1,0,1.3-0.1
		c0,0.2,0,0.2-0.1,0.4c0,0.1,0,0.1-0.1,0.8c-0.3,3.4-0.7,5.2-1.7,7.2c1.7,0.9,3.6,1.1,7.8,1.1c2.1,0,3.8-0.1,6.5-0.3
		c-0.5,1.5-0.8,2.6-1.1,4.2c-1.7,0-2.7,0.1-3.4,0.1c-6.5,0-9.2-0.5-11.9-2.2c-1.2,1.2-2.2,1.9-3.9,2.7c-0.7-1.3-1.3-2.2-2-3
		c-0.4,1.1-0.6,1.6-1.3,2.9c-1.1-1.6-1.8-2.3-3.1-3.6c1-1.7,1.4-3.5,1.7-6.4c0.2-2.2,0.3-4.5,0.3-9.3c0-3.4,0-3.9-0.1-5.1
		c1.2,0.1,2.3,0.1,3.6,0.1h6.2v-0.3c0-0.6,0-1-0.1-1.4h4.5c-0.1,0.4-0.1,0.8-0.1,1.4v0.2h6.6c1.2,0,2.6-0.1,3.5-0.2v3.9
		c-0.7-0.1-1.2-0.1-2.2-0.1l1.9,3.4c-0.2,0.1-0.2,0.1-0.6,0.2c-0.8,0.2-1.9,0.5-3.2,0.7v1.9h1.9c0.7,0,1.3,0,2-0.1V43
		c-0.6-0.1-1.2-0.1-2-0.1h-1.9v1.8h1.5c0.9,0,1.3,0,1.8-0.1v3.7c-0.6-0.1-0.8-0.1-1.8-0.1H118c-0.7,0-1.2,0-1.8,0.1v-3.7
		c0.1,0,0.2,0,0.3,0c0.4,0.1,0.7,0.1,1.6,0.1h1.2V42.9z M106.8,46.2c-0.2,1.7-0.5,2.8-0.9,4.2c1.1-0.5,1.7-0.9,2.6-1.6
		C107.9,48,107.7,47.7,106.8,46.2z"/>
	<path d="M143.7,49.4v1.4c0,2,0,2.5,0.1,3.1h-3.9c0.1-0.8,0.1-1.7,0.1-3.1v-8.3c-0.4,3.7-0.4,3.7-0.7,5.4c-0.4,2.5-0.9,3.9-1.8,5.9
		c-0.8-1.2-1.3-1.9-2.2-2.9c0,1.2,0,1.8,0.2,3h-4.4c0.1-1.4,0.2-1.8,0.2-3.2v-6.9c0-0.6,0-1.2,0.1-3.1c-0.4,0.7-0.9,1.3-1.3,1.8
		c-0.4-2.2-0.7-3.1-1.4-5.1c1.3-1.4,2.4-3.1,3.3-5.3c0.7-1.7,1.2-3.2,1.3-4.5l4.2,1c-0.1,0.4-0.1,0.5-0.3,0.9
		c0.8,0.1,1.6,0.1,2.7,0.1h0.4v-0.4c0-0.7,0-1-0.1-1.4h4.2c-0.1,0.4-0.1,0.8-0.1,1.3v0.4h2.8v-0.4c0-0.7,0-1-0.1-1.4h4.2
		c-0.1,0.4-0.1,0.8-0.1,1.3v0.4h0.8c1.3,0,2.4-0.1,2.9-0.2v3.8c-1-0.1-1.3-0.1-2.9-0.1H151v1.3h1c1.6,0,2.2,0,3.1-0.1v3.8
		c-0.8-0.1-1.5-0.1-2.6-0.1h-12.2V39C141,39,141.7,39,143,39h8.8c1.2,0,1.8,0,2.6-0.1c-0.1,0.7-0.1,1.4-0.1,2.9v9.3
		c0,2.2-0.6,2.6-4.5,2.7c-0.2-1.3-0.3-1.9-0.7-3c0.4,0,0.7,0.1,1,0.1c0.4,0,0.5-0.1,0.5-0.6v-0.8h-1.7v1c0,1.7,0,2.4,0.1,3.1h-3.7
		c0.1-0.9,0.1-1.7,0.1-3.1v-1H143.7z M135.4,48.6c0.4-1,0.5-1.7,0.7-2.7c0.2-1.7,0.4-4.8,0.4-8c0-1.6,0-2.3-0.1-3.4
		c1.1,0.1,1.5,0.1,3,0.1h0.9v-1.3h-0.4c-1.6,0-2.1,0-2.9,0.1v-2.9c-0.5,1.7-0.8,2.4-1.6,4V48.6z M145.4,41.9h-1.7v1.1h1.7V41.9z
		 M145.4,45.6h-1.7v1.2h1.7V45.6z M147,34.6v-1.3h-2.8v1.3H147z M150.5,43.1v-1.1h-1.7v1.1H150.5z M150.5,46.7v-1.2h-1.7v1.2H150.5z
		"/>
	<path d="M163.1,29.2c0-0.6,0-0.8-0.1-1.3h4.2c-0.1,0.5-0.1,0.8-0.1,1.3h5.3c0-0.5,0-0.9-0.1-1.3h4.2c-0.1,0.5-0.1,0.8-0.1,1.3h2.7
		c1.4,0,2.4-0.1,3.3-0.2v3.4c-1-0.1-1.8-0.1-3.3-0.1h-2.7c0,0.4,0,0.4,0.1,0.9h-3.9c0-0.3,0.1-0.5,0.1-0.9h-5.9c0,0.5,0,0.5,0.1,0.9
		H163c0.1-0.3,0.1-0.4,0.1-0.9h-2.4c-1.6,0-2.4,0-3.3,0.1v-3.4c1,0.1,2,0.2,3.3,0.2H163.1z M176,38.1c-1.7,1.4-2.8,2.2-3.2,2.6
		c0.5,0,0.9-0.1,1.2-0.1c1,0,1,0,2-0.1c-0.4-0.3-0.6-0.5-1-0.9l3-2c2.1,1.7,3.5,3,5.1,4.9l-2.7,2.2c-0.1,0.6-0.1,1-0.1,2.2v4
		c0,1,0.1,1.8,0.1,2.8h-4.2V53h-12.5v0.9h-4.2c0.1-0.9,0.1-1.8,0.1-2.8v-4.2c0-1,0-1.8-0.1-2.6c1,0.1,1.2,0.1,2.9,0.1h15
		c1.1,0,1.5,0,2,0c-0.4-0.5-0.6-0.7-0.9-1.2c-7.8,0.5-7.8,0.5-18.8,0.9c-0.9,0.1-1.3,0.1-1.8,0.1l-0.4-3.6c1,0.1,2,0.2,6,0.2
		c-1.2-0.6-2-1-3.5-1.7l2.5-2.1H161c-1.5,0-2.5,0-3.4,0.1v-3.5c0.9,0.1,1.9,0.1,3.4,0.1h6.7c0-0.5,0-0.6-0.1-1h4.1
		c-0.1,0.3-0.1,0.5-0.1,1h7.1c1.3,0,2.5-0.1,3.4-0.1v3.5c-0.7-0.1-1.8-0.1-3.4-0.1h-5.1L176,38.1z M162.7,37c1,0.5,1.4,0.7,2.1,1
		c0.5-0.4,0.7-0.6,1.2-1H162.7z M163.7,47.7h4.3v-0.8h-4.3V47.7z M163.7,50.5h4.3v-0.8h-4.3V50.5z M170.5,37
		c-0.8,0.8-1.7,1.6-2.9,2.6c0.6,0.3,0.6,0.3,0.9,0.5c1.1-0.8,2.8-2.2,3.7-3.1H170.5z M171.8,47.7h4.3v-0.8h-4.3V47.7z M171.8,50.5
		h4.3v-0.8h-4.3V50.5z"/>
	<path d="M185.6,30.9c1.2,0.3,2.8,0.4,5.7,0.4c0.2,0,0.4,0,0.8,0c0.6-1.3,0.7-2.1,0.9-3.1l5,0.4c-0.2,0.4-0.2,0.4-0.6,1.3
		c-0.4,0.8-0.5,1.2-0.6,1.3c0.3,0,0.3,0,1.7-0.1c2.7-0.1,5.5-0.5,7-0.9l0.2,4.4c-0.9,0.1-1.7,0.2-2.5,0.2c-2,0.2-5.4,0.4-8.2,0.5
		c-0.5,0.8-0.7,1.2-1.3,2c1.2-0.6,2.3-0.8,3.5-0.8c2.3,0,3.7,0.9,4.2,2.7c0.5-0.2,0.5-0.2,1.9-0.7c0.1,0,0.8-0.3,1.7-0.6
		c1.6-0.5,1.8-0.6,2.2-0.8l1.7,4.3c-1.4,0.2-4.4,1-7,1.9c0,0.7,0,0.8,0,2c0,1.2,0,1.7,0.1,2.4l-4.5,0.1c0.1-0.4,0.1-1.3,0.1-2.9
		l-0.2,0.1c-1.3,0.6-1.4,0.7-1.9,1.2c-0.5,0.4-0.7,0.9-0.7,1.4c0,1,1,1.5,3.7,1.5c3.3,0,6.5-0.5,8.8-1.4l0.3,5c-0.8,0-0.8,0-2.5,0.2
		c-2.2,0.3-4.5,0.4-6.6,0.4c-3.1,0-5.1-0.4-6.6-1.3c-1.4-0.8-2.2-2.3-2.2-3.9c0-1.3,0.4-2.3,1.3-3.5c1-1.2,2.3-2.1,4-2.9
		c0.7-0.3,0.9-0.4,2-0.9c-0.2-0.5-0.6-0.7-1.1-0.7c-1.4,0-3.3,1-5.2,2.6c-1.2,1-1.9,1.8-2.6,2.8l-3.5-3.5c0.9-0.7,2-1.8,2.9-2.9
		c0.6-0.7,1.7-2.3,2.1-3c0.4-0.7,0.4-0.7,0.5-0.9c-0.4,0-0.7,0-0.9,0c-1.2,0-1.2,0-2.4,0c-0.4,0-0.6,0-1,0c-0.1,0-0.2,0-0.4,0
		L185.6,30.9z"/>
	<path d="M233.4,32.3c-0.7,0.2-0.7,0.2-1.5,0.5c-1.6,0.5-3.1,0.9-5.3,1.3c0,1.4-0.1,3.1-0.1,3.7h4.5c2.1,0,3.2-0.1,4.3-0.2v4.5
		c-1.1-0.1-1.8-0.1-4.3-0.1h-4.9c-0.3,2.5-0.9,4.2-1.8,5.8c-1,1.6-2.6,3.2-4.6,4.4c-0.8,0.5-1.3,0.8-2.7,1.4c-1-1.8-1.8-2.8-3.4-4.1
		c3.3-1.2,5-2.3,6.2-3.9c0.7-1,1.1-2,1.3-3.6h-5.4c-2.5,0-3.1,0-4.3,0.1v-4.5c1.2,0.2,1.8,0.2,4.4,0.2h5.8c0.1-0.8,0.1-1.3,0.1-2.3
		v-0.8c-2.6,0.3-2.8,0.3-7.3,0.5c-0.3-1.5-0.6-2.5-1.4-4.2c0.9,0.1,1.4,0.1,1.8,0.1c3.7,0,8.9-0.6,12.1-1.4c1.4-0.4,2.4-0.7,3.5-1.3
		L233.4,32.3z"/>
	<path d="M251.4,48.2h4.3c1.8,0,2.6,0,3.7-0.2v4.2c-1-0.1-1.8-0.1-3.7-0.1h-12.8c-2,0-2.4,0-3.7,0.1V48c1,0.1,1.7,0.2,3.7,0.2h4.1
		V40h-2.5c-1.8,0-2.4,0-3.6,0.1v-4.2c1.1,0.1,1.9,0.2,3.6,0.2h9.6c1.8,0,2.5-0.1,3.6-0.2v4.2c-0.8-0.1-1.9-0.1-3.6-0.1h-2.6V48.2z"
		/>
	<path d="M267.8,34.9c1.1,2,1.9,4.3,2.7,7l-4.3,1.3c-0.7-2.9-1.3-4.5-2.5-7.1L267.8,34.9z M283.8,35.3c-0.2,0.5-0.2,0.6-0.4,1.7
		c-0.8,3.9-1.9,6.7-3.4,9c-1.5,2.2-3.4,4.1-5.8,5.6c-1,0.6-1.7,1-3.3,1.8c-0.9-1.7-1.5-2.4-3-3.9c5.5-2.1,8.5-4.9,10.2-9.5
		c0.7-1.9,1.2-4.2,1.2-5.8L283.8,35.3z M273.9,33.7c1.5,2.8,2,4.1,2.7,6.7l-4.2,1.3c-0.5-2.3-1.3-4.3-2.5-6.9L273.9,33.7z"/>
	<path d="M300.4,29c-0.1,0.2-0.2,0.3-0.3,0.7c-0.1,0.1-0.1,0.2-0.2,0.4c-0.1,0.3-0.2,0.5-0.2,0.6c-0.4,0.8-0.4,0.8-0.6,1.2l6.9-0.1
		c1.1,0,1.4-0.1,2-0.3l2.3,2.3c-0.3,0.6-0.4,0.7-0.8,2c-1.4,4.6-3.3,8.1-5.7,10.9c-2.5,2.9-5.6,5-10.1,7.1c-0.9-1.8-1.8-2.8-3.3-4.2
		c3.9-1.4,6.8-3.2,9.2-5.6c2-2.1,3.6-4.7,4.6-7.8l-7.3,0.1c-1.8,2.8-3.6,4.8-6.2,6.9c-1.4-1.6-2.1-2.2-3.9-3.3
		c3.4-2.4,5.5-4.9,7.3-8.4c0.7-1.4,1-2.3,1.2-3.3L300.4,29z"/>
	<path d="M314.2,45.2c0.1-0.6,0.1-0.8,0.1-1.4c0-0.3,0-0.3-0.1-2l-0.6-8.7c-0.1-1.4-0.2-2.9-0.3-3.7h6.4c-0.1,1.1-0.2,2.2-0.3,3.7
		l-0.5,8.7c-0.1,1.1-0.1,1.7-0.1,2.2c0,0.3,0,0.6,0.1,1.2H314.2z M313.7,52.2V47h5.5v5.2H313.7z"/>
</g>
<g>
	<path class="st3" d="M355.8,33.7c0.8,0.1,1.3,0.1,2.5,0.1h2.7c1.5,0,1.8,0,2.6-0.1c-0.1,1.1-0.1,2-0.1,3.4v11c0,1.3,0,2.1,0.2,3.2
		h-4.6c0.1-1,0.2-2,0.2-3.2V37.5h-0.8c-0.8,0-1.6,0-2.6,0.1V33.7z"/>
	<path class="st3" d="M376.2,45.6c0.9-1.9,1-3.7,1-9.8c0-1.4,0-2-0.1-2.6c0.7,0.1,1,0.1,2.4,0.1h8c1.4,0,1.7,0,2.4-0.1
		c-0.1,0.6-0.1,1-0.1,2.4v10.9c0,0.8-0.2,1.4-0.7,1.7c-0.5,0.4-1.2,0.6-2.5,0.6c-0.3,0-0.4,0-1.4-0.1c0-0.5-0.1-0.7-0.1-1.1h-3.6
		c-0.4,0-0.7,0-1.3,0c0-0.5,0-0.7,0-1.6v-2.2c0-0.5,0-0.6,0-1.3c0.6,0,0.7,0,1.1,0h3.8c0.4,0,0.7,0,1.2,0c0,0.6,0,0.8,0,1.3v2.3
		c0.6,0,0.6,0,0.6-0.4v-3.8h-6.8c-0.2,2.9-0.7,4.8-1.8,6.9c-0.7-0.8-1.2-1.3-2-1.9v0.9c0.3,0.4,0.5,0.6,0.7,0.8
		c0.3,0.2,0.7,0.4,1,0.4c0.9,0.2,2,0.3,3.3,0.3c4.3,0,7-0.1,9.8-0.4c-0.4,1.2-0.6,1.8-0.8,3.3c-1.7,0.1-4.8,0.1-7.1,0.1
		c-5.7,0-6.9-0.3-8.5-2c-0.8,0.7-1.8,1.5-2.8,2.1l-1.4-3.4c0.6-0.2,1.7-0.9,2.5-1.6v-4h-0.9c-0.5,0-0.8,0-1.3,0.1v-3.2
		c0.6,0.1,1,0.1,1.7,0.1h2c0.6,0,1.1,0,1.6-0.1c0,0.5-0.1,0.9-0.1,2.4V45.6z M373.2,32.8c1.7,1.4,2.7,2.4,3.9,3.9l-2.4,2.5
		c-1.3-1.7-2.2-2.6-3.9-4.1L373.2,32.8z M382.1,39h-1.8c0,0.3,0,0.3,0,0.8h1.9V39z M382.1,36h-1.8v0.8h1.8V36z M382.6,45.5h1.3v-0.9
		h-1.3V45.5z M386.9,36.8V36h-2v0.8H386.9z M386.9,39.7V39h-2v0.8H386.9z"/>
	<path class="st3" d="M395.8,49.6c0,1.3,0,2.2,0.1,2.8h-3.4c0.1-0.7,0.1-1.4,0.1-2.8V35.7c0-1.2,0-1.7-0.1-2.4
		c0.6,0.1,1.1,0.1,2.1,0.1h4.4c1.1,0,1.6,0,2.1-0.1c0,0.6-0.1,1.1-0.1,1.9V39c0,1.1,0,1.3,0,1.8c-0.5,0-1.1,0-1.7,0h-3.7V49.6z
		 M395.8,36.3h2.5v-0.7h-2.5V36.3z M395.8,38.8h2.5V38h-2.5V38.8z M406.3,48.8c0,0.3,0,0.3,0,0.5c0.2,0,0.3,0,0.4,0
		c1.1,0,1.2,0,1.2-0.5v-8h-3.9c-0.6,0-1.3,0-1.7,0c0-0.6,0-0.8,0-1.8v-3.8c0-0.8,0-1.3-0.1-1.9c0.6,0.1,1,0.1,2.1,0.1h4.6
		c1,0,1.5,0,2.1-0.1c-0.1,0.7-0.1,1.3-0.1,2.4v13.7c0,2.5-0.6,3-3.8,3c-0.3,0-0.3,0-1.6,0c-0.1-0.9-0.2-1.2-0.3-1.8
		c-0.4,0-0.5,0-0.7,0h-4.4v0.9h-3c0.1-0.7,0.1-1.4,0.1-2.2v-5.6c0-0.7,0-1.3-0.1-1.8c0.6,0,1.1,0.1,1.8,0.1h5.5c0.8,0,1.3,0,1.8-0.1
		c0,0.5-0.1,1-0.1,1.8V48.8z M400.1,45.1h3.2v-0.8h-3.2V45.1z M400.1,48h3.2v-0.9h-3.2V48z M405.2,36.3h2.6v-0.7h-2.6V36.3z
		 M405.2,38.8h2.6V38h-2.6V38.8z"/>
	<path class="st3" d="M418.8,42.5c-0.6,0-0.9,0-1.4,0.1v-1.2c-1,1-1.5,1.5-2.6,2.3c-0.7-1.2-1.2-2-2.1-3c2.4-1.7,4.1-3.5,5.3-6
		c0.4-0.8,0.6-1.3,0.7-2l3.4,1.3c-0.2,0.4-0.3,0.5-0.5,1.1c-0.6,1.3-1.6,3-2.7,4.4h7.9c-1.1-1.4-2-2.9-2.7-4.6
		c-0.1-0.3-0.3-0.6-0.4-0.9l3.1-1.2c0.2,0.6,0.3,1,0.9,1.9c1.3,2.3,3,4.1,5.4,5.6c-1,1.3-1.3,1.6-2.1,3.2c-0.9-0.7-1.3-1-1.8-1.4
		c0,4.2-0.3,7.1-0.8,8.2c-0.6,1.2-1.6,1.6-4.2,1.6c-0.2,0-0.2,0-1.5,0c-0.1-1.2-0.3-1.9-0.9-3.4c0.9,0.1,1.7,0.2,2.2,0.2
		c1.1,0,1.3-0.1,1.6-1c0.2-0.8,0.4-2.9,0.4-5.3h-3.2c-0.2,2.3-0.7,3.7-1.7,5.4c-0.8,1.3-1.9,2.5-3.3,3.5c-0.7,0.4-1.1,0.7-2.1,1.2
		c-0.7-1.2-1.1-1.8-2.1-2.9c2.5-1,4-2.2,4.9-3.9c0.6-1,0.8-1.9,0.9-3.3H418.8z"/>
	<path class="st3" d="M443.9,51.1l-2.5-2.5l3.8-3.8l-3.8-3.8l2.5-2.5l3.8,3.8l3.8-3.8L454,41l-3.8,3.8l3.8,3.8l-2.5,2.5l-3.8-3.8
		L443.9,51.1z"/>
	<path class="st3" d="M465.2,35.8c0-1.1,0-1.9-0.1-2.8h3.4c-0.1,0.7-0.1,1.5-0.1,2.8v1.6h2.7v-2c0-1,0-1.7-0.1-2.4h3.4
		c-0.1,0.8-0.1,1.4-0.1,2.4v2h2.7v-2c0-1,0-1.6-0.1-2.4h3.4c-0.1,0.7-0.1,1.4-0.1,2.4v2h0.2c1.1,0,1.8,0,2.5-0.1v3.1
		c-0.7-0.1-1.4-0.1-2.5-0.1H480v4.3c0,0.6,0,1.3,0.1,2.1c-0.6,0-1.1-0.1-1.8-0.1h-5.3c-0.7,0-1.3,0-2,0.1c0-0.5,0.1-1.2,0.1-1.9
		v-4.6h-2.7v8.4h10.4c1.3,0,2,0,3-0.1v3.3c-1-0.1-1.9-0.1-3-0.1h-10.4v0.9H465c0.1-1.1,0.1-2.2,0.1-3.3v-9c-1.2,0-1.7,0-2.4,0.1
		v-3.1c0.7,0.1,1.2,0.1,2.4,0.1V35.8z M474.2,40.2v3.5h2.7v-3.5H474.2z"/>
	<path class="st3" d="M498,34c0-0.6,0-0.8-0.1-1.2h3.3c-0.1,0.4-0.1,0.6-0.1,1.2c1.3,0,1.9,0,2.6-0.1v3.1c-0.8-0.1-1.4-0.1-2.6-0.1
		v1.8c0,0.8,0,1.1,0.1,1.5c-0.6-0.1-0.9-0.1-2.3-0.1h-10.2c-0.4,0-1.2,0-2.3,0.1c0.1-0.5,0.1-0.9,0.1-1.6v-1.7c-1.2,0-1.7,0-2.5,0.1
		v-3.1c0.7,0.1,1.3,0.1,2.5,0.1c0-0.5,0-0.8-0.1-1.2h3.3c-0.1,0.4-0.1,0.6-0.1,1.2h2.5c0-0.7,0-0.9-0.1-1.3h3.3
		c-0.1,0.4-0.1,0.6-0.1,1.3H498z M495.3,50c0,1.2,0,1.9,0.1,2.6H492c0.1-0.7,0.1-1.4,0.1-2.6v-2.8h-2.4v1.9c0,1.3,0,1.8,0.1,2.5
		h-3.4c0.1-0.7,0.1-1.4,0.1-2.5v-3h-2.4c0.1-0.5,0.1-0.9,0.1-1.6v-2.1c0-0.7,0-1.2-0.1-1.7c0.9,0.1,1.4,0.1,2.4,0.1H501
		c1.1,0,1.8,0,2.5-0.1c0,0.5-0.1,0.9-0.1,1.6v2.1c0,0.6,0,1.1,0.1,1.6h-2.4v3c0,0.9-0.2,1.5-0.8,1.9c-0.5,0.4-1.2,0.5-2.7,0.5
		c-0.1,0-0.3,0-0.5,0c-0.1,0-0.3,0-0.5,0c-0.2-1-0.4-1.7-0.8-2.6c0.6,0.1,1.1,0.1,1.3,0.1c0.7,0,0.8-0.1,0.8-0.4v-1.2h-2.6V50z
		 M492.1,43.6h-4.8v0.8c0.6,0,0.8,0,1.3,0h3.4V43.6z M492.1,36.9h-2.5v0.9h2.5V36.9z M498,37.8v-0.9h-2.7v0.9H498z M499.2,44.5
		c0.4,0,0.6,0,1.1,0v-0.8h-5v0.8H499.2z"/>
	<path class="st3" d="M516.5,33.1c-0.1,0.4-0.1,0.9-0.1,1.7c0,2.3,0.3,4.7,0.9,6.2c0.7,2.2,2.1,4.2,3.9,5.9c1.2,1,2.1,1.6,3.7,2.4
		c-1,1.1-1.4,1.8-2.1,3.3c-2.3-1.4-3.8-2.7-5.1-4.3c-1.3-1.5-2.1-3-2.8-5.2c-0.9,2.8-1.8,4.3-3.4,6c-1.3,1.4-2.7,2.4-4.5,3.5
		c-0.7-1.4-1-1.9-2.1-3.1c3.1-1.6,4.9-3.1,6.1-5.4c1.3-2.3,2-5.5,2-9.3c0-0.7,0-1.1-0.1-1.6H516.5z"/>
	<path class="st3" d="M545.8,39c-0.4,0-0.5,0-1.1-0.1c-0.2,3.5-0.8,5.9-2,8.1c1,1.1,2.1,2,3.3,2.6c-0.7,1-1.2,1.9-1.7,3.1
		c-1.3-0.8-2.5-1.8-3.5-3.1c-1.2,1.3-2.5,2.2-4.1,3.1c-0.4-0.9-0.7-1.3-1.3-2l-0.8,1.3c-0.9-0.7-1.2-0.9-2.2-1.5
		c-1.4,1.1-2.8,1.7-5,2.2c-0.5-1.2-0.7-1.7-1.5-2.7c1.6-0.1,2.4-0.3,3.6-0.9c-1.1-0.5-1.6-0.7-3-1.2c0.7-1,0.9-1.3,1.3-2
		c-0.9,0-1.3,0-1.8,0.1v-2.9c0.5,0.1,1,0.1,1.8,0.1h1.4c0.2-0.4,0.2-0.5,0.4-1l3.1,0.4c-0.1,0.2-0.2,0.4-0.3,0.6h2.8
		c0.5,0,0.7,0,1.2,0c-0.4-0.7-0.6-1-1.1-1.5c-0.1,0.3-0.2,0.4-0.3,0.7c-1-0.8-1.4-1.1-1.9-1.9c0,0.3,0,0.6,0,0.7v0.4
		c0,0.2,0,0.4,0,0.7h-3.1c0-0.1,0-0.1,0-0.2c0,0,0,0,0-0.4v-0.3c0-0.1,0-0.4,0-0.8c-1.1,1.3-1.6,1.7-2.9,2.6c-0.5-1-0.9-1.6-1.7-2.4
		c1.2-0.5,2-1,2.9-1.9h-0.6c-0.8,0-1.3,0-1.8,0.1v-2.7c0.5,0.1,0.9,0.1,1.7,0.1c-0.5-1-0.9-1.6-1.6-2.4l2.4-1.1
		c0.7,0.8,1.1,1.4,1.6,2.2v-0.9c0-0.7,0-1-0.1-1.4h3.1c-0.1,0.4-0.1,0.7-0.1,1.4v1.2c0.6-0.9,1-1.7,1.4-2.6l2.6,1.1
		c-0.5,1.1-0.9,1.7-1.4,2.5c0.6,0,0.8,0,1.1,0v2.4c0.8-1.8,1.5-4.7,1.5-6.1l3.2,0.6c-0.1,0.2-0.1,0.2-0.1,0.5c0,0,0,0.2-0.1,0.4
		c0,0.1-0.1,0.3-0.1,0.5c-0.1,0.6-0.2,0.8-0.4,1.4h3c1,0,1.5,0,2-0.1V39z M530.2,35.5l-1.9,0.9h1.9V35.5z M531,46
		c-0.2,0.3-0.3,0.4-0.5,0.8c0.6,0.2,0.8,0.3,1.3,0.5c0.3-0.5,0.4-0.7,0.6-1.2H531z M535,36.4l-1.8-0.8v0.8H535z M536.9,46.1
		c-0.4,0-0.7-0.1-1.4-0.1c-0.3,1-0.5,1.5-1,2.3c0.7,0.3,0.9,0.4,1.9,1c1.1-0.7,2-1.4,2.7-2.3c-0.7-1.3-1-2.2-1.4-3.9
		c-0.3,0.4-0.4,0.4-0.8,1V46.1z M534.6,38.9c0.4,0.4,0.7,0.6,1.6,1.1c0.2-0.4,0.3-0.6,0.5-1c-0.3,0-0.6,0-1.2,0H534.6z M539.9,38.9
		c-0.1,0.3-0.1,0.4-0.3,0.6c0.3,1.9,0.5,2.9,1.2,4.4c0.5-1.5,0.8-2.9,0.8-5H539.9z"/>
</g>
<g>
	<g>
		<path class="st2" d="M36.2,16.5c-0.9-1.6-2.5-2.5-4.3-2.5s-3.4,0.9-4.3,2.5L6.8,52.8c-0.9,1.6-0.9,3.4,0,5s2.5,2.5,4.3,2.5
			l41.7-0.2c1.8,0,3.4-0.9,4.3-2.5c0.9-1.6,0.9-3.4,0-5L36.2,16.5z"/>
		<path class="st3" d="M11.1,61.5c-2.2,0-4.3-1.2-5.4-3.1c-1.1-1.9-1.1-4.3,0-6.2L26.4,16c1.1-2,3.1-3.1,5.4-3.1l0,0
			c2.2,0,4.3,1.2,5.4,3.1l21,36.1c1.1,1.9,1.1,4.3,0,6.2c-1.1,2-3.1,3.1-5.4,3.1L11.1,61.5C11.2,61.5,11.1,61.5,11.1,61.5z
			 M31.8,15.3L31.8,15.3c-1.4,0-2.6,0.7-3.3,1.9L7.9,53.4c-0.7,1.2-0.7,2.6,0,3.8c0.7,1.1,1.9,1.8,3.2,1.8l0,0l41.7-0.2
			c1.4,0,2.6-0.7,3.2-1.9c0.7-1.2,0.7-2.6,0-3.8l-20.9-36C34.4,16,33.2,15.3,31.8,15.3z"/>
	</g>
	<path class="st2" d="M60.4,50.7l-21-36.1c-1.6-2.7-4.4-4.4-7.6-4.3l0,0c-3.2,0-6,1.7-7.6,4.4L3.5,50.9c-1.6,2.7-1.6,6,0,8.7
		s4.4,4.4,7.6,4.3l41.7-0.2c3.2,0,6-1.7,7.6-4.4C62,56.7,62,53.4,60.4,50.7z M57.2,57.6c-0.9,1.6-2.5,2.5-4.3,2.5l-41.7,0.2
		c-1.8,0-3.4-0.9-4.3-2.5s-0.9-3.4,0-5l20.7-36.2c0.9-1.6,2.5-2.5,4.3-2.5s3.4,0.9,4.3,2.5l21,36.1C58.1,54.1,58.1,56,57.2,57.6z"/>
</g>
<g class="st4">
	<path class="st3" d="M27.7,48.3c-2,0-2.5,0-3.3,0.1c0.1-1.1,0.2-1.7,0.5-2.6c0.6-1.8,1.6-3.5,3.2-4.9c0.8-0.8,1.7-1.4,3.9-2.9
		c1.9-1.3,2.4-1.8,2.4-2.9c0-1.1-0.9-1.8-2.4-1.8c-1.1,0-1.8,0.4-2.3,1.1c-0.3,0.5-0.4,0.9-0.6,1.8l-4.6-0.5
		c0.3-1.9,0.7-2.9,1.6-3.9c1.3-1.5,3.3-2.3,5.8-2.3c3,0,5.2,1,6.3,2.8c0.5,0.8,0.7,1.6,0.7,2.6c0,1.6-0.7,3-2,4.1
		c-0.7,0.6-0.9,0.8-3.2,2.4c-1.9,1.3-2.7,2.1-3.2,3.1h5.1c1.7,0,2.7,0,3.5-0.2v4.2c-1.3-0.1-2.2-0.2-3.8-0.2H27.7z"/>
</g>
<g>
	<path class="st3" d="M29.9,54.9v-3.5h4v3.5H29.9z"/>
</g>
</svg>
