<?xml version="1.0" encoding="utf-8"?>
<!-- Generator: Adobe Illustrator 24.0.1, SVG Export Plug-In . SVG Version: 6.00 Build 0)  -->
<svg version="1.1" id="レイヤー_1" xmlns="http://www.w3.org/2000/svg" xmlns:xlink="http://www.w3.org/1999/xlink" x="0px"
	 y="0px" viewBox="0 0 572.3 86.8" style="enable-background:new 0 0 572.3 86.8;" xml:space="preserve">
<style type="text/css">
	.st0{fill:#E60012;}
	.st1{fill:#040000;}
	.st2{fill:#E60000;}
	.st3{fill:#FFFFFF;}
	.st4{enable-background:new    ;}
</style>
<polygon class="st1" points="12.7,74.3 0,86.8 6.5,86.8 19.2,74.3 "/>
<polygon class="st1" points="23.5,74.3 10.8,86.8 17.4,86.8 30,74.3 "/>
<polygon class="st1" points="34.3,74.3 21.7,86.8 28.2,86.8 40.9,74.3 "/>
<polygon class="st1" points="45.2,74.3 32.5,86.8 39,86.8 51.7,74.3 "/>
<polygon class="st1" points="56,74.3 43.4,86.8 49.9,86.8 62.5,74.3 "/>
<polygon class="st1" points="66.9,74.3 54.2,86.8 60.7,86.8 73.4,74.3 "/>
<polygon class="st1" points="77.7,74.3 65.1,86.8 71.6,86.8 84.2,74.3 "/>
<polygon class="st1" points="88.6,74.3 75.9,86.8 82.4,86.8 95.1,74.3 "/>
<polygon class="st1" points="99.4,74.3 86.8,86.8 93.3,86.8 105.9,74.3 "/>
<polygon class="st1" points="110.3,74.3 97.6,86.8 104.1,86.8 116.8,74.3 "/>
<polygon class="st1" points="121.1,74.3 108.5,86.8 115,86.8 127.6,74.3 "/>
<polygon class="st1" points="132,74.3 119.3,86.8 125.8,86.8 138.5,74.3 "/>
<polygon class="st1" points="142.8,74.3 130.2,86.8 136.7,86.8 149.3,74.3 "/>
<polygon class="st1" points="153.7,74.3 141,86.8 147.5,86.8 160.2,74.3 "/>
<polygon class="st1" points="164.5,74.3 151.9,86.8 158.4,86.8 171,74.3 "/>
<polygon class="st1" points="175.4,74.3 162.7,86.8 169.2,86.8 181.9,74.3 "/>
<polygon class="st1" points="186.2,74.3 173.5,86.8 180.1,86.8 192.7,74.3 "/>
<polygon class="st1" points="197,74.3 184.4,86.8 190.9,86.8 203.6,74.3 "/>
<polygon class="st1" points="207.9,74.3 195.2,86.8 201.7,86.8 214.4,74.3 "/>
<polygon class="st1" points="218.7,74.3 206.1,86.8 212.6,86.8 225.2,74.3 "/>
<polygon class="st1" points="229.6,74.3 216.9,86.8 223.4,86.8 236.1,74.3 "/>
<polygon class="st1" points="240.4,74.3 227.8,86.8 234.3,86.8 246.9,74.3 "/>
<polygon class="st1" points="251.3,74.3 238.6,86.8 245.1,86.8 257.8,74.3 "/>
<polygon class="st1" points="262.1,74.3 249.5,86.8 256,86.8 268.6,74.3 "/>
<polygon class="st1" points="273,74.3 260.3,86.8 266.8,86.8 279.5,74.3 "/>
<polygon class="st1" points="283.8,74.3 271.2,86.8 277.7,86.8 290.3,74.3 "/>
<polygon class="st1" points="294.7,74.3 282,86.8 288.5,86.8 301.2,74.3 "/>
<polygon class="st1" points="305.5,74.3 292.9,86.8 299.4,86.8 312,74.3 "/>
<polygon class="st1" points="316.4,74.3 303.7,86.8 310.2,86.8 322.9,74.3 "/>
<polygon class="st1" points="327.2,74.3 314.5,86.8 321.1,86.8 333.7,74.3 "/>
<polygon class="st1" points="338.1,74.3 325.4,86.8 331.9,86.8 344.6,74.3 "/>
<polygon class="st1" points="348.9,74.3 336.2,86.8 342.7,86.8 355.4,74.3 "/>
<polygon class="st1" points="359.7,74.3 347.1,86.8 353.6,86.8 366.3,74.3 "/>
<polygon class="st1" points="370.6,74.3 357.9,86.8 364.4,86.8 377.1,74.3 "/>
<polygon class="st1" points="381.4,74.3 368.8,86.8 375.3,86.8 387.9,74.3 "/>
<polygon class="st1" points="392.3,74.3 379.6,86.8 386.1,86.8 398.8,74.3 "/>
<polygon class="st1" points="403.1,74.3 390.5,86.8 397,86.8 409.6,74.3 "/>
<polygon class="st1" points="414,74.3 401.3,86.8 407.8,86.8 420.5,74.3 "/>
<polygon class="st1" points="424.8,74.3 412.2,86.8 418.7,86.8 431.3,74.3 "/>
<polygon class="st1" points="435.7,74.3 423,86.8 429.5,86.8 442.2,74.3 "/>
<polygon class="st1" points="446.5,74.3 433.9,86.8 440.4,86.8 453,74.3 "/>
<polygon class="st1" points="457.4,74.3 444.7,86.8 451.2,86.8 463.9,74.3 "/>
<polygon class="st1" points="468.2,74.3 455.6,86.8 462.1,86.8 474.7,74.3 "/>
<polygon class="st1" points="479.1,74.3 466.4,86.8 472.9,86.8 485.6,74.3 "/>
<polygon class="st1" points="489.9,74.3 477.2,86.8 483.8,86.8 496.4,74.3 "/>
<polygon class="st1" points="500.7,74.3 488.1,86.8 494.6,86.8 507.3,74.3 "/>
<polygon class="st1" points="511.6,74.3 498.9,86.8 505.4,86.8 518.1,74.3 "/>
<polygon class="st1" points="522.4,74.3 509.8,86.8 516.3,86.8 528.9,74.3 "/>
<polygon class="st1" points="533.3,74.3 520.6,86.8 527.1,86.8 539.8,74.3 "/>
<polygon class="st1" points="544.1,74.3 531.5,86.8 538,86.8 550.6,74.3 "/>
<polygon class="st1" points="555,74.3 542.3,86.8 548.8,86.8 561.5,74.3 "/>
<polygon class="st1" points="565.8,74.3 553.2,86.8 559.7,86.8 572.3,74.3 "/>
<g class="st4">
	<path d="M217.6,31.1c0-1.3-0.1-2.2-0.2-3h4.7c-0.1,0.9-0.2,1.6-0.2,3v5.1h4.6v-3.8c0-1,0-1.6-0.1-2.3h4.5c-0.1,0.9-0.1,1.5-0.1,2.6
		v5.5c0,0.9,0,1.6,0.1,2.1c-0.6-0.1-1.3-0.1-2.2-0.1h-6.8v8.2h5.5v-4c0-0.9,0-1.7-0.1-2.4h4.5c-0.1,0.8-0.1,1.7-0.1,2.8v5.6
		c0,1.6,0.1,2.4,0.2,3.2h-4.4v-1.2h-15v1.2H208c0.1-0.9,0.2-1.8,0.2-3.2V45c0-1.1-0.1-2.2-0.1-2.9h4.5c-0.1,0.6-0.1,1.2-0.1,2.4v3.9
		h5.1v-8.2h-6.3c-1,0-1.6,0-2.3,0.1c0.1-0.6,0.1-1.3,0.1-2.1v-5.4c0-0.5-0.1-2.1-0.1-2.7h4.5c-0.1,0.6-0.1,1.3-0.1,2.3v3.8h4.2V31.1
		z"/>
	<path d="M245.3,30.7c0-1.4,0-1.9-0.2-2.6h4.2c-0.1,0.7-0.1,1.1-0.1,2.4v0.4h2c0-1.8,0-2-0.1-2.7h4.2c-0.1,0.9-0.2,1.2-0.2,2.7h3.4
		c1.3,0,2,0,2.8-0.1c-0.1,0.7-0.1,1.4-0.1,2.5v9.9c0.7,0,1.1-0.1,1.7-0.2v4.2c-1-0.1-2.1-0.2-3.7-0.2h-4c2.2,1.6,4.4,2.4,8,3.1
		c-1,1.4-1.5,2.3-2.2,3.9c-2.3-0.6-3.6-1.1-5.2-1.9c-1.5-0.8-2.5-1.5-4.5-3.1l2.3-2.1h-7.7l2.5,2c-1.8,1.5-2.8,2.2-4.4,3.1
		c-1.5,0.8-2.5,1.2-4.7,1.9c-0.9-1.8-1.4-2.6-2.5-3.9c3.6-0.7,5.5-1.5,7.6-3.1h-3.5c-1.5,0-2.7,0.1-3.6,0.2v-4.2
		c0.6,0.1,0.9,0.1,1.7,0.2v-10c0-1,0-1.7-0.1-2.5c0.9,0.1,1.7,0.1,2.8,0.1h3.4V30.7z M245.3,34.7h-2v2.2h2V34.7z M245.3,40.7h-2v2.6
		h2V40.7z M251.2,36.9v-2.2h-2v2.2H251.2z M251.2,43.2v-2.6h-2v2.6H251.2z M257.1,36.9v-2.2h-2v2.2H257.1z M257.1,43.2v-2.6h-2v2.6
		H257.1z"/>
	<path d="M267.2,40.6c0.4-2.1,0.6-3.8,0.6-5.9c0-0.3,0-0.7,0-1.3l2.3,0.4c0,0.5,0,0.9,0,1.1c0,2.4-0.2,4.8-0.6,6.7L267.2,40.6z
		 M274.6,50.7c0,1.5,0,2.3,0.1,3.2h-4.3c0.1-1,0.2-2.3,0.2-3.8V31c0-1.4,0-2.1-0.2-3.1h4.3c-0.1,0.9-0.1,1.6-0.1,3.1v2.5l1.4-0.5
		c0.7,1.3,1,2.4,1.4,3.6c0.5,0,0.9,0,1.6,0h3.5v-0.8h-3c-1,0-1.4,0-2.1,0.1v-2.6c0.7,0.1,1.1,0.1,2.1,0.1h3v-0.7h-3
		c-1.7,0-2.1,0-2.9,0.1v-3.1c0.9,0.1,1.5,0.1,3.1,0.1h2.8c0-0.8,0-1.1-0.1-1.7h4.2c-0.1,0.6-0.1,0.9-0.1,1.7h3.4c1.6,0,2.1,0,3-0.1
		v3.1c-0.8-0.1-1.5-0.1-2.9-0.1h-3.4v0.7h3.5c1.1,0,1.4,0,2-0.1v2.6c-0.6-0.1-1-0.1-2.1-0.1h-3.4v0.8h4.1c1.4,0,1.9,0,2.7-0.1v3.2
		c-0.9-0.1-1.4-0.1-2.7-0.1h-11.5c-1.4,0-1.9,0-2.7,0.1v-2.2l-0.9,0.4c-0.2-1.1-0.4-1.8-0.7-2.6V50.7z M280.9,50.5
		c0,1.3,0.1,2.3,0.1,3.3h-4.3c0.1-0.9,0.2-1.6,0.2-3.3v-8.1c0-0.8,0-1.5-0.1-2.3c0.7,0.1,0.9,0.1,1.8,0.1h10.9c1.2,0,1.8,0,2.4-0.1
		c-0.1,0.7-0.1,1.5-0.1,2.7v7.7c0,2.5-1,3.2-4.5,3.2c-0.5,0-1,0-2.1-0.1c-0.1-1.3-0.3-2.1-0.8-3.4c0.9,0.1,1.8,0.2,2.4,0.2
		c0.9,0,1-0.1,1-0.6v-0.6h-6.9V50.5z M287.8,43.7v-0.8h-6.9v0.8H287.8z M287.8,46.9v-0.8h-6.9v0.8H287.8z"/>
	<path d="M307.5,35c1.2,0,1.8,0,2.6-0.1v3.9c-0.4-0.1-0.7-0.1-1.2-0.1c-0.3,1.3-0.4,1.5-0.6,2.2c0.8,0,1.3,0,1.9-0.1v3.9
		c-0.9-0.1-1.4-0.1-2.6-0.1h-1.3v1.5h1.2c1.1,0,1.8,0,2.5-0.1v3.9c-0.8-0.1-1.4-0.1-2.5-0.1h-1.2v1.3c0,1.4,0,2.2,0.2,3.1h-4.2
		c0.1-1,0.2-1.6,0.2-3.1v-1.3h-1.2c-1.2,0-1.7,0-2.5,0.1v-3.9c0.8,0.1,1.4,0.1,2.5,0.1h1.2v-1.5h-1.6c-1.1,0-1.8,0-2.6,0.1v-3.9
		c0.7,0.1,1.1,0.1,2.1,0.1c-0.2-0.9-0.3-1.5-0.6-2.3c-0.6,0-1,0.1-1.5,0.1v-3.9c0.8,0.1,1.4,0.1,2.6,0.1h1.6v-1.3h-1.1
		c-1,0-1.7,0-2.5,0.1v-3.9c0.8,0.1,1.3,0.1,2.5,0.1h1.1v-0.2c0-0.8-0.1-1.4-0.1-1.8h4.2c-0.1,0.5-0.2,1-0.2,1.8v0.2h1
		c1.2,0,1.7,0,2.5-0.1v3.9c-0.9-0.1-1.5-0.1-2.5-0.1h-1V35H307.5z M304.7,40.9c0.2-0.8,0.4-1.3,0.6-2.3h-2.2
		c0.2,0.9,0.4,1.4,0.5,2.3H304.7z M323.4,39.5c-0.1,0.4-0.2,0.6-0.3,1.3c-0.5,2.3-1.2,4.7-2,6.4c1,1,1.7,1.4,3.2,2.3
		c-1.1,1.7-1.6,2.6-2.2,4.2c-1.4-1.1-1.9-1.6-3.1-3c-0.9,1.2-1.5,1.9-2.8,3c-0.6-1.2-0.9-1.9-1.5-2.8c0,1.2,0.1,1.9,0.2,2.8h-4.3
		c0.1-1.2,0.2-2.1,0.2-3.8V31.7c0-0.9-0.1-2.3-0.1-3c0.8,0.1,1.5,0.1,2.5,0.1h7.2c1.3,0,2.3-0.1,2.8-0.1c-0.1,1-0.1,1-0.2,2.7
		c-0.2,3.3-0.4,4.1-0.9,4.8c-0.5,0.6-1.3,0.8-3.2,0.8c-0.6,0-1.2,0-2.4-0.1c-0.1-1.1-0.3-2.1-0.7-3.3c1.2,0.2,1.9,0.2,2.5,0.2
		s0.7-0.2,0.7-1.3h-4.3v5.1h4.2c1.6,0,2.3,0,3-0.1L323.4,39.5z M314.6,49.7c0.7-0.6,1.4-1.3,2-2.1c-0.9-1.6-1.5-3.1-2-4.9V49.7z
		 M317.5,41.1c0.3,1,0.6,1.9,1.2,2.9c0.4-1,0.5-1.5,0.8-2.9H317.5z"/>
	<path d="M336.1,29.5c-1.1,3.1-1.9,8.3-2.1,13.3l2.1,0.7c-0.7,2.5-1.1,5-1.1,7.7c0,0.5,0,0.8,0.1,1.3l-4.7,0.2c0-0.5,0-0.7-0.1-1.5
		c-0.5-3.7-0.7-6.1-0.7-8.7c0-3.2,0.3-6.6,1-10.6c0.3-1.9,0.4-2.1,0.4-2.9L336.1,29.5z M343.7,41.6c-1.3,1.6-1.8,2.8-1.8,3.8
		c0,1.3,1.2,2,3.6,2c2.5,0,4.8-0.4,6.9-1.1l0.3,4.9c-0.7,0.1-0.7,0.1-2.3,0.3c-1.5,0.2-3.2,0.4-4.8,0.4c-2.6,0-4.3-0.4-5.7-1.2
		c-1.5-0.9-2.5-2.6-2.5-4.4c0-1.3,0.5-2.9,1.3-4.3c0.4-0.6,0.6-0.9,1.3-2L343.7,41.6z M338.3,31.6c1.3,0.3,2.8,0.4,4.9,0.4
		c3.7,0,6.4-0.2,8.2-0.7l0.2,4.7c-0.2,0-0.5,0-2,0.2c-1.9,0.2-3.9,0.3-5.8,0.3c-1.7,0-3.1-0.1-4.7-0.2c-0.2,0-0.4,0-0.8-0.1
		L338.3,31.6z"/>
	<path d="M357.5,33.7c1.1-0.1,1.8-0.2,3.6-0.6c5.6-1.2,7.7-1.5,10.5-1.5c2.9,0,5.2,0.6,6.8,1.7c2.1,1.5,3.4,4,3.4,6.8
		c0,4-2.4,7.5-6.4,9.5c-2.8,1.3-5.5,2-10.3,2.4c-0.7-2.5-0.9-3-2-5c3.4,0,5.8-0.3,7.8-1c2.2-0.6,3.7-1.7,4.7-3.1
		c0.6-0.8,0.9-1.7,0.9-2.8c0-1.1-0.3-2-1-2.7c-0.9-0.9-2.1-1.3-4.1-1.3c-2.9,0-6.2,0.6-10.6,2c-1,0.3-1.7,0.6-2.4,0.9L357.5,33.7z"
		/>
	<path d="M393.3,30.5c-0.2,1.2-0.3,3-0.3,5c0,6.2,0.9,10.8,2,10.8c0.3,0,0.6-0.4,0.9-1.1c0.6-1.5,1.1-3.1,1.4-4.8
		c1.3,1.5,2,2.1,3.8,3.5c-0.6,2.1-1.2,3.8-2.1,5.3c-1,1.8-2.5,2.8-4.2,2.8c-1.5,0-2.9-0.8-3.9-2.4c-1.4-2-2.2-4.8-2.5-9.2
		c-0.1-1.9-0.2-4.2-0.3-8.1c0-0.9,0-1.2-0.1-2H393.3z M406,31.5c3.6,4.3,5.6,9.4,6.4,16l-4.9,1.8c-0.3-6.2-2.2-11.6-5.6-15.9
		L406,31.5z"/>
	<path d="M416,31.4c0.5,0,0.8,0,1,0c0.7,0,1.7-0.1,4.7-0.2c4.3-0.3,6.3-0.4,14.7-0.7c2.3-0.1,2.5-0.1,3-0.2l0.2,5
		c-0.4-0.1-0.5-0.1-0.8-0.1c-1.9,0-4.4,0.7-6.3,1.9c-2.8,1.7-4.4,4-4.4,6.3c0,1.6,0.7,2.6,2.3,3.4c1.1,0.6,3.5,1,5.3,1
		c0.3,0,0.4,0,0.8-0.1l-0.6,5.3c-0.4-0.1-0.5-0.1-1-0.1c-3.1-0.3-5.2-0.7-7-1.5c-3.2-1.5-4.9-4-4.9-7.5c0-2.3,0.8-4.3,2.3-6.2
		c0.7-0.9,1.4-1.4,2.7-2.3l-9.5,0.9c-1.1,0.1-1.3,0.1-2.4,0.4L416,31.4z"/>
</g>
<g>
	<g>
		<path class="st2" d="M36.2,16.5c-0.9-1.6-2.5-2.5-4.3-2.5s-3.4,0.9-4.3,2.5L6.8,52.8c-0.9,1.6-0.9,3.4,0,5s2.5,2.5,4.3,2.5
			l41.7-0.2c1.8,0,3.4-0.9,4.3-2.5c0.9-1.6,0.9-3.4,0-5L36.2,16.5z"/>
		<path class="st3" d="M11.1,61.5c-2.2,0-4.3-1.2-5.4-3.1c-1.1-1.9-1.1-4.3,0-6.2L26.4,16c1.1-2,3.1-3.1,5.4-3.1l0,0
			c2.2,0,4.3,1.2,5.4,3.1l21,36.1c1.1,1.9,1.1,4.3,0,6.2c-1.1,2-3.1,3.1-5.4,3.1L11.1,61.5C11.2,61.5,11.1,61.5,11.1,61.5z
			 M31.8,15.3L31.8,15.3c-1.4,0-2.6,0.7-3.3,1.9L7.9,53.4c-0.7,1.2-0.7,2.6,0,3.8c0.7,1.1,1.9,1.8,3.2,1.8l0,0l41.7-0.2
			c1.4,0,2.6-0.7,3.2-1.9c0.7-1.2,0.7-2.6,0-3.8l-20.9-36C34.4,16,33.2,15.3,31.8,15.3z"/>
	</g>
	<path class="st2" d="M60.4,50.7l-21-36.1c-1.6-2.7-4.4-4.4-7.6-4.3l0,0c-3.2,0-6,1.7-7.6,4.4L3.5,50.9c-1.6,2.7-1.6,6,0,8.7
		s4.4,4.4,7.6,4.3l41.7-0.2c3.2,0,6-1.7,7.6-4.4C62,56.7,62,53.4,60.4,50.7z M57.2,57.6c-0.9,1.6-2.5,2.5-4.3,2.5l-41.7,0.2
		c-1.8,0-3.4-0.9-4.3-2.5s-0.9-3.4,0-5l20.7-36.2c0.9-1.6,2.5-2.5,4.3-2.5s3.4,0.9,4.3,2.5l21,36.1C58.1,54.1,58.1,56,57.2,57.6z"/>
</g>
<g class="st4">
	<path class="st3" d="M28.8,42.7c0.1,0.7,0.3,1,0.6,1.4C30,44.7,30.9,45,32,45c1.7,0,2.8-0.9,2.8-2.2c0-0.9-0.4-1.6-1.2-1.9
		c-0.5-0.2-1.2-0.3-2-0.3c-0.9,0-1.8,0-2.7,0.1V37c0.7,0.1,1.5,0.1,2.3,0.1c2.1,0,3.1-0.7,3.1-2.1c0-1.2-0.8-1.9-2.3-1.9
		c-1.6,0-2.4,0.6-2.7,2l-4.8-0.7c0.4-1.4,0.8-2,1.5-2.8c1.3-1.5,3.4-2.2,6.1-2.2c2.4,0,4.4,0.7,5.6,1.9c0.8,0.8,1.2,1.9,1.2,3.1
		c0,2.3-1.3,3.8-3.8,4.4c1.3,0.2,2.1,0.5,2.8,1.2c0.9,0.8,1.5,2,1.5,3.3c0,1.1-0.3,2.2-0.9,2.9c-0.5,0.7-1.3,1.3-2.1,1.7
		c-1.1,0.5-2.9,0.9-4.6,0.9c-2,0-4-0.5-5.1-1.2c-1-0.7-1.8-1.6-2.3-2.8c-0.1-0.3-0.2-0.6-0.4-1.2L28.8,42.7z"/>
</g>
<g>
	<path class="st3" d="M29.9,54.9v-3.5h4v3.5H29.9z"/>
</g>
</svg>
