<?xml version="1.0" encoding="utf-8"?>
<!-- Generator: Adobe Illustrator 24.0.1, SVG Export Plug-In . SVG Version: 6.00 Build 0)  -->
<svg version="1.1" id="レイヤー_1" xmlns="http://www.w3.org/2000/svg" xmlns:xlink="http://www.w3.org/1999/xlink" x="0px"
	 y="0px" viewBox="0 0 572.3 86.8" style="enable-background:new 0 0 572.3 86.8;" xml:space="preserve">
<style type="text/css">
	.st0{fill:#040000;}
	.st1{fill:#E60000;}
	.st2{fill:#FFFFFF;}
	.st3{enable-background:new    ;}
</style>
<g>
	<polygon class="st0" points="12.7,74.3 0,86.8 6.5,86.8 19.2,74.3 	"/>
	<polygon class="st0" points="23.5,74.3 10.8,86.8 17.4,86.8 30,74.3 	"/>
	<polygon class="st0" points="34.3,74.3 21.7,86.8 28.2,86.8 40.9,74.3 	"/>
	<polygon class="st0" points="45.2,74.3 32.5,86.8 39,86.8 51.7,74.3 	"/>
	<polygon class="st0" points="56,74.3 43.4,86.8 49.9,86.8 62.5,74.3 	"/>
	<polygon class="st0" points="66.9,74.3 54.2,86.8 60.7,86.8 73.4,74.3 	"/>
	<polygon class="st0" points="77.7,74.3 65.1,86.8 71.6,86.8 84.2,74.3 	"/>
	<polygon class="st0" points="88.6,74.3 75.9,86.8 82.4,86.8 95.1,74.3 	"/>
	<polygon class="st0" points="99.4,74.3 86.8,86.8 93.3,86.8 105.9,74.3 	"/>
	<polygon class="st0" points="110.3,74.3 97.6,86.8 104.1,86.8 116.8,74.3 	"/>
	<polygon class="st0" points="121.1,74.3 108.5,86.8 115,86.8 127.6,74.3 	"/>
	<polygon class="st0" points="132,74.3 119.3,86.8 125.8,86.8 138.5,74.3 	"/>
	<polygon class="st0" points="142.8,74.3 130.2,86.8 136.7,86.8 149.3,74.3 	"/>
	<polygon class="st0" points="153.7,74.3 141,86.8 147.5,86.8 160.2,74.3 	"/>
	<polygon class="st0" points="164.5,74.3 151.9,86.8 158.4,86.8 171,74.3 	"/>
	<polygon class="st0" points="175.4,74.3 162.7,86.8 169.2,86.8 181.9,74.3 	"/>
	<polygon class="st0" points="186.2,74.3 173.5,86.8 180.1,86.8 192.7,74.3 	"/>
	<polygon class="st0" points="197,74.3 184.4,86.8 190.9,86.8 203.6,74.3 	"/>
	<polygon class="st0" points="207.9,74.3 195.2,86.8 201.7,86.8 214.4,74.3 	"/>
	<polygon class="st0" points="218.7,74.3 206.1,86.8 212.6,86.8 225.2,74.3 	"/>
	<polygon class="st0" points="229.6,74.3 216.9,86.8 223.4,86.8 236.1,74.3 	"/>
	<polygon class="st0" points="240.4,74.3 227.8,86.8 234.3,86.8 246.9,74.3 	"/>
	<polygon class="st0" points="251.3,74.3 238.6,86.8 245.1,86.8 257.8,74.3 	"/>
	<polygon class="st0" points="262.1,74.3 249.5,86.8 256,86.8 268.6,74.3 	"/>
	<polygon class="st0" points="273,74.3 260.3,86.8 266.8,86.8 279.5,74.3 	"/>
	<polygon class="st0" points="283.8,74.3 271.2,86.8 277.7,86.8 290.3,74.3 	"/>
	<polygon class="st0" points="294.7,74.3 282,86.8 288.5,86.8 301.2,74.3 	"/>
	<polygon class="st0" points="305.5,74.3 292.9,86.8 299.4,86.8 312,74.3 	"/>
	<polygon class="st0" points="316.4,74.3 303.7,86.8 310.2,86.8 322.9,74.3 	"/>
	<polygon class="st0" points="327.2,74.3 314.5,86.8 321.1,86.8 333.7,74.3 	"/>
	<polygon class="st0" points="338.1,74.3 325.4,86.8 331.9,86.8 344.6,74.3 	"/>
	<polygon class="st0" points="348.9,74.3 336.2,86.8 342.7,86.8 355.4,74.3 	"/>
	<polygon class="st0" points="359.7,74.3 347.1,86.8 353.6,86.8 366.3,74.3 	"/>
	<polygon class="st0" points="370.6,74.3 357.9,86.8 364.4,86.8 377.1,74.3 	"/>
	<polygon class="st0" points="381.4,74.3 368.8,86.8 375.3,86.8 387.9,74.3 	"/>
	<polygon class="st0" points="392.3,74.3 379.6,86.8 386.1,86.8 398.8,74.3 	"/>
	<polygon class="st0" points="403.1,74.3 390.5,86.8 397,86.8 409.6,74.3 	"/>
	<polygon class="st0" points="414,74.3 401.3,86.8 407.8,86.8 420.5,74.3 	"/>
	<polygon class="st0" points="424.8,74.3 412.2,86.8 418.7,86.8 431.3,74.3 	"/>
	<polygon class="st0" points="435.7,74.3 423,86.8 429.5,86.8 442.2,74.3 	"/>
	<polygon class="st0" points="446.5,74.3 433.9,86.8 440.4,86.8 453,74.3 	"/>
	<polygon class="st0" points="457.4,74.3 444.7,86.8 451.2,86.8 463.9,74.3 	"/>
	<polygon class="st0" points="468.2,74.3 455.6,86.8 462.1,86.8 474.7,74.3 	"/>
	<polygon class="st0" points="479.1,74.3 466.4,86.8 472.9,86.8 485.6,74.3 	"/>
	<polygon class="st0" points="489.9,74.3 477.2,86.8 483.8,86.8 496.4,74.3 	"/>
	<polygon class="st0" points="500.7,74.3 488.1,86.8 494.6,86.8 507.3,74.3 	"/>
	<polygon class="st0" points="511.6,74.3 498.9,86.8 505.4,86.8 518.1,74.3 	"/>
	<polygon class="st0" points="522.4,74.3 509.8,86.8 516.3,86.8 528.9,74.3 	"/>
	<polygon class="st0" points="533.3,74.3 520.6,86.8 527.1,86.8 539.8,74.3 	"/>
	<polygon class="st0" points="544.1,74.3 531.5,86.8 538,86.8 550.6,74.3 	"/>
	<polygon class="st0" points="555,74.3 542.3,86.8 548.8,86.8 561.5,74.3 	"/>
	<polygon class="st0" points="565.8,74.3 553.2,86.8 559.7,86.8 572.3,74.3 	"/>
</g>
<g>
	<g>
		<path class="st1" d="M36.2,16.5c-0.9-1.6-2.5-2.5-4.3-2.5s-3.4,0.9-4.3,2.5L6.8,52.8c-0.9,1.6-0.9,3.4,0,5s2.5,2.5,4.3,2.5
			l41.7-0.2c1.8,0,3.4-0.9,4.3-2.5c0.9-1.6,0.9-3.4,0-5L36.2,16.5z"/>
		<path class="st2" d="M11.1,61.5c-2.2,0-4.3-1.2-5.4-3.1c-1.1-1.9-1.1-4.3,0-6.2L26.4,16c1.1-2,3.1-3.1,5.4-3.1l0,0
			c2.2,0,4.3,1.2,5.4,3.1l21,36.1c1.1,1.9,1.1,4.3,0,6.2c-1.1,2-3.1,3.1-5.4,3.1L11.1,61.5C11.2,61.5,11.1,61.5,11.1,61.5z
			 M31.8,15.3L31.8,15.3c-1.4,0-2.6,0.7-3.3,1.9L7.9,53.4c-0.7,1.2-0.7,2.6,0,3.8c0.7,1.1,1.9,1.8,3.2,1.8l0,0l41.7-0.2
			c1.4,0,2.6-0.7,3.2-1.9c0.7-1.2,0.7-2.6,0-3.8l-20.9-36C34.4,16,33.2,15.3,31.8,15.3z"/>
	</g>
	<path class="st1" d="M60.4,50.7l-21-36.1c-1.6-2.7-4.4-4.4-7.6-4.3l0,0c-3.2,0-6,1.7-7.6,4.4L3.5,50.9c-1.6,2.7-1.6,6,0,8.7
		s4.4,4.4,7.6,4.3l41.7-0.2c3.2,0,6-1.7,7.6-4.4C62,56.7,62,53.4,60.4,50.7z M57.2,57.6c-0.9,1.6-2.5,2.5-4.3,2.5l-41.7,0.2
		c-1.8,0-3.4-0.9-4.3-2.5s-0.9-3.4,0-5l20.7-36.2c0.9-1.6,2.5-2.5,4.3-2.5s3.4,0.9,4.3,2.5l21,36.1C58.1,54.1,58.1,56,57.2,57.6z"/>
</g>
<g class="st3">
	<path class="st2" d="M26.6,29.8c0.8,0.1,1.4,0.2,2.6,0.2H32c1.6,0,1.8,0,2.7-0.1c-0.1,1.2-0.2,2.1-0.2,3.5V45c0,1.3,0,2.2,0.2,3.3
		h-4.8c0.1-1,0.2-2,0.2-3.3V33.7h-0.9c-0.9,0-1.7,0-2.7,0.2L26.6,29.8L26.6,29.8z"/>
</g>
<g>
	<path class="st2" d="M29.9,54.9v-3.5h4v3.5H29.9z"/>
</g>
<g class="st3">
	<path d="M81.8,46.9c0.3,1.4,1.1,2,2.9,2c1.6,0,2.4-0.4,2.4-1.2c0-0.4-0.2-0.7-0.6-0.9c-0.4-0.2-0.7-0.3-2.1-0.6
		c-2-0.4-3-0.7-3.8-0.9c-1.2-0.5-2.1-1.1-2.6-1.8c-0.4-0.7-0.6-1.6-0.6-2.5c0-3.1,2.6-5,7-5c2.5,0,4.3,0.5,5.5,1.7
		c0.9,0.8,1.3,1.5,1.7,3l-5,0.5c-0.1-1.1-0.8-1.5-2.2-1.5c-1.4,0-2.2,0.4-2.2,1.1c0,0.7,0.5,1,3.1,1.5c2.5,0.5,3.4,0.8,4.3,1.2
		c1.7,0.8,2.5,2.1,2.5,4c0,1.4-0.5,2.6-1.3,3.5c-1.2,1.2-3.4,1.9-6.2,1.9c-3.3,0-5.6-0.9-6.8-2.6c-0.5-0.7-0.8-1.4-1-2.6L81.8,46.9z
		"/>
	<path d="M106.6,41.3c0-1.2-0.8-1.8-2.5-1.8c-1.7,0-2.5,0.5-2.9,1.8l-5-0.8c0.5-1.5,1.1-2.4,2.2-3.1c1.4-1,3.3-1.5,5.9-1.5
		c1.9,0,3.8,0.4,4.8,0.9c1.7,0.9,2.4,2.3,2.4,4.7v7c0,1.6,0.1,2.5,0.2,3.7h-5V51c-1.5,1.1-2.9,1.6-5,1.6c-2,0-3.5-0.5-4.5-1.4
		c-0.9-0.9-1.4-2.1-1.4-3.5c0-1.6,0.6-2.9,1.9-3.8c1.3-0.9,3.1-1.5,5.4-1.7c1-0.1,1.8-0.1,3.7-0.2V41.3z M106.6,45.3
		c-2.3,0.1-3.4,0.2-4.5,0.5c-0.9,0.3-1.5,1-1.5,1.7c0,0.9,0.8,1.5,2.1,1.5c1.1,0,2.2-0.4,2.9-1c0.6-0.5,0.9-1.2,0.9-2V45.3z"/>
	<path d="M121.5,30.6c-0.2,1.1-0.2,2.2-0.2,3.9v7.3l2.9-2.8c1.2-1.2,1.8-1.9,2.3-2.6h6.9c-1,0.9-1.3,1.2-2.7,2.5l-3.8,3.6l4.3,6.3
		c1.6,2.3,1.7,2.4,2.4,3.3H127c-0.4-1.1-1-2.2-1.7-3.5l-2-3.2l-2,1.9v1c0,2.1,0,2.8,0.2,3.8h-5.3c0.2-1.2,0.2-2.2,0.2-3.9V34.5
		c0-1.8-0.1-3-0.2-3.9H121.5z"/>
	<path d="M153.5,36.3c-0.2,1.2-0.2,2.3-0.2,3.9v8c0,1.8,0.1,2.9,0.2,3.9h-5.2v-1.1c0-0.1,0-0.5,0-0.7c-1.7,1.6-3.2,2.2-5.4,2.2
		c-1.7,0-3.1-0.5-4.1-1.5c-1-1-1.5-2.3-1.5-4.4v-6.5c0-1.5-0.1-2.8-0.2-3.9h5.4c-0.2,1.2-0.2,2.3-0.2,3.9v5.3c0,1.1,0.1,1.5,0.4,2
		c0.4,0.5,0.9,0.7,1.7,0.7c1.4,0,2.9-1,3.9-2.7v-5.3c0-1.5-0.1-2.5-0.2-3.9H153.5z"/>
	<path d="M163.1,45.2c0.1,0.9,0.3,1.4,0.7,1.9c0.6,0.8,1.7,1.2,3,1.2c2,0,3.2-0.9,3.2-2.3c0-0.8-0.4-1.5-1.1-1.8
		c-0.5-0.3-1.2-0.4-3.9-1.1c-2.4-0.5-3.2-0.8-4.2-1.5c-1.6-1.1-2.5-2.9-2.5-5c0-4,3.2-6.5,8.3-6.5c3.3,0,5.8,1,7.2,3
		c0.6,0.9,1,1.6,1.3,3.1l-5.5,0.6c-0.3-1.7-1.2-2.4-3.2-2.4c-1.6,0-2.8,0.9-2.8,2.1c0,0.7,0.4,1.3,1.2,1.7c0.5,0.2,0.5,0.2,3.6,0.9
		c2,0.4,3.2,0.9,4.2,1.5c1.9,1.2,2.8,2.9,2.8,5.3c0,2-0.6,3.6-1.8,4.8c-1.5,1.5-3.8,2.2-6.8,2.2c-2.2,0-4.4-0.5-5.8-1.3
		c-1.3-0.7-2.3-1.8-2.8-3.3c-0.3-0.6-0.4-1.2-0.6-2.4L163.1,45.2z"/>
	<path d="M194.8,52.2c-0.2-1.2-0.4-1.9-0.6-2.8l-0.7-2.2h-7.4l-0.7,2.2c-0.3,1-0.5,1.8-0.7,2.8h-6.1c0.4-0.8,0.6-1.4,1.2-3.2
		l5.6-15.7c0.5-1.3,0.7-2.1,0.8-2.8h6.8c0.2,0.8,0.4,1.4,0.9,2.8l5.6,15.7c0.5,1.4,0.9,2.4,1.2,3.2H194.8z M189.8,35l-2.4,7.8h4.9
		L189.8,35z"/>
	<path d="M222.3,48.4c1.5,2.3,1.9,2.8,2.8,3.8h-6.8c-0.4-0.8-1.1-2.2-1.8-3.3l-4-6.4l-2.6,2.6v3.3c0,1.6,0.1,2.5,0.2,3.8h-5.5
		c0.2-1.3,0.2-2.3,0.2-3.8V34.4c0-1.6-0.1-2.6-0.2-3.8h5.5c-0.2,1.4-0.2,2.2-0.2,3.8V39l5.2-5.5c1-1.1,1.7-2,2.3-2.9h7
		c-0.5,0.5-0.6,0.7-1,1c-1.4,1.4-1.4,1.4-1.8,1.8l-5.4,5.7L222.3,48.4z"/>
	<path d="M248.7,30.6c-0.2,1.1-0.2,2.1-0.2,3.9v8.9c0,5.9-3.6,9.3-9.8,9.3c-3.2,0-5.9-0.9-7.4-2.5c-1.5-1.6-2.3-3.9-2.3-6.8v-8.9
		c0-1.8-0.1-2.9-0.2-3.9h5.6c-0.2,1-0.2,2-0.2,3.9v8.9c0,3.3,1.5,4.8,4.5,4.8c3.1,0,4.6-1.6,4.6-4.8v-8.9c0-2-0.1-2.8-0.2-3.9H248.7
		z"/>
	<path d="M264.3,36.3c-0.6,0-0.9,0-1.4,0.1v-2.2c-0.6,2-1.1,3.2-1.7,4.4c0.9,1.3,1.2,1.9,1.5,2.8c0.2,0.8,0.4,1.7,0.4,2.5
		c0,2.4-1.6,3.9-4.2,3.9c-0.1,0-0.2,0-0.4,0c-0.1-1.8-0.2-2.6-0.8-3.6c0.5,0.1,0.6,0.1,0.7,0.1c0.7,0,0.9-0.2,0.9-1.2
		c0-1.4-0.5-2.7-1.6-4.2v11.4c0,1.2,0.1,2.4,0.2,3.5h-4.1c0.1-1,0.2-2.2,0.2-3.6V32.9c0-1.1,0-2.1-0.1-3C254.4,30,255,30,256,30h4.1
		c0.9,0,1.3,0,1.8-0.1l1.6,2.4c-0.1,0.1-0.1,0.2-0.1,0.3c0.8,0.1,1,0.1,1.7,0.1h2.3v-1.2c0-0.9-0.1-1.5-0.1-2h4.2
		c-0.1,0.6-0.1,1.1-0.1,2v1.2h3.1c1.6,0,2.2,0,3-0.1v4c-0.8-0.1-1.5-0.1-2.9-0.1h-5.3c0,1.4,0,1.6-0.1,2.2h4.7c1,0,1.6,0,2.4-0.1
		c-0.1,0.7-0.1,0.9-0.1,2.3c-0.1,4.9-0.4,8.7-0.8,10.1c-0.4,1.1-1,1.9-1.8,2.2c-0.8,0.4-1.9,0.5-3.4,0.5c-0.6,0-0.7,0-2.5-0.1
		c-0.1-1.5-0.3-2.5-0.8-3.9c1.4,0.2,2.3,0.3,3.2,0.3c1.3,0,1.5-0.1,1.7-1.5c0.2-1.2,0.4-3.5,0.4-6.2h-3.4c-0.5,3-1.1,4.8-2.3,6.9
		c-1.1,1.9-2.2,3.2-4.3,4.9c-1-1.4-1.8-2.2-3.1-3.3c2.8-1.8,4.3-3.7,5.2-6.6c0.6-2,0.9-3.9,0.9-7.7H264.3z M257.6,38.7
		c0.9-1.8,1.3-3,1.7-5.1h-1.7V38.7z"/>
	<path d="M292.6,39.4c-1-1.6-2.4-3.4-3.9-5.1c1.7-1.8,2.7-3.1,3.7-5.1l4.1,1.4c-1.5,2.1-2,2.7-3,3.7c1.3,1.2,2,2.1,3.1,3.5l-3.2,1.6
		h1.8c-0.1,0.4-0.1,0.8-0.1,1.4c0,3.3,1.1,5.3,3.8,6.9c1.8,1.1,3.7,1.7,6.5,2.1c-0.9,1.3-1.4,2.3-2.1,4.2c-3.5-1-5.2-1.8-7-3.2
		c-1.5-1.1-2.5-2.3-3.3-3.8c-1,2.2-2,3.4-4.1,4.7c-1.7,1.1-3.4,1.8-6.3,2.4c-0.5-1.6-1-2.4-2-4c3.6-0.5,5.8-1.3,7.5-2.8
		c1.8-1.5,2.8-3.8,2.8-6.4c0-0.6,0-1-0.1-1.5H292.6z M289.2,30.5c-1.2,1.7-2,2.5-3.2,3.7c1.2,1.2,2.3,2.4,3.4,3.9l-3.7,1.9
		c-1.6-2.7-2.5-3.8-4.5-5.8c1.8-1.8,3-3.4,3.8-5.1L289.2,30.5z M288.8,41.3c-1,2.4-1.9,3.9-3.5,5.9l-3.7-1.9
		c1.7-1.8,2.4-2.9,3.3-5.3L288.8,41.3z M303.8,30.6c-1.6,2.2-1.9,2.5-3,3.7c1.6,1.5,2.2,2.2,3.4,3.7l-3.7,2
		c-1.5-2.4-2.6-3.8-4.4-5.6c1.9-2,3-3.4,3.9-5.3L303.8,30.6z M303.9,41.9c-1.2,2-2.2,3.1-4,5l-3.4-2.3c1.8-1.6,2.7-2.6,3.7-4.6
		L303.9,41.9z"/>
	<path d="M330,33.4c-0.6,0.2-0.6,0.2-1.5,0.4c-1.5,0.5-3,0.9-5,1.2c0,1.3-0.1,3-0.1,3.5h4.3c2,0,3-0.1,4.1-0.2v4.3
		c-1.1-0.1-1.7-0.1-4-0.1h-4.6c-0.3,2.4-0.8,4-1.7,5.5c-1,1.5-2.5,3-4.3,4.2c-0.8,0.5-1.3,0.8-2.5,1.3c-1-1.7-1.7-2.6-3.2-3.9
		c3.1-1.1,4.8-2.2,5.9-3.7c0.7-0.9,1-1.8,1.3-3.4h-5.1c-2.4,0-3,0-4.1,0.1v-4.3c1.1,0.2,1.7,0.2,4.1,0.2h5.5
		c0.1-0.8,0.1-1.3,0.1-2.2v-0.7c-2.5,0.3-2.7,0.3-6.9,0.4c-0.3-1.5-0.6-2.4-1.3-4c0.9,0.1,1.4,0.1,1.7,0.1c3.5,0,8.4-0.6,11.4-1.4
		c1.3-0.3,2.3-0.7,3.3-1.2L330,33.4z"/>
	<path d="M348.8,48.4h4.1c1.7,0,2.5,0,3.5-0.2v4c-0.9-0.1-1.7-0.1-3.5-0.1h-12.1c-1.9,0-2.3,0-3.5,0.1v-4c1,0.1,1.6,0.2,3.5,0.2h3.9
		v-7.7h-2.4c-1.7,0-2.3,0-3.4,0.1v-4c1,0.1,1.8,0.2,3.4,0.2h9.1c1.7,0,2.4-0.1,3.4-0.2v4c-0.7-0.1-1.8-0.1-3.4-0.1h-2.5V48.4z"/>
	<path d="M366.2,35.8c1,1.9,1.8,4.1,2.5,6.6l-4.1,1.2c-0.7-2.7-1.2-4.3-2.3-6.7L366.2,35.8z M381.3,36.2c-0.2,0.5-0.2,0.6-0.4,1.6
		c-0.8,3.7-1.8,6.3-3.2,8.5c-1.4,2.1-3.2,3.8-5.5,5.3c-0.9,0.6-1.6,1-3.1,1.7c-0.9-1.6-1.4-2.2-2.9-3.7c5.2-2,8.1-4.6,9.7-8.9
		c0.7-1.8,1.1-4,1.1-5.5L381.3,36.2z M371.9,34.7c1.4,2.7,1.8,3.8,2.5,6.3l-4,1.2c-0.5-2.2-1.2-4.1-2.3-6.5L371.9,34.7z"/>
	<path d="M398.8,30.3c-0.1,0.2-0.2,0.3-0.3,0.7c-0.1,0.1-0.1,0.2-0.2,0.4c-0.1,0.3-0.2,0.4-0.2,0.5c-0.3,0.8-0.3,0.8-0.5,1.1
		l6.5-0.1c1,0,1.3-0.1,1.9-0.3l2.2,2.1c-0.3,0.5-0.4,0.7-0.8,1.8c-1.3,4.3-3.1,7.7-5.4,10.3c-2.4,2.7-5.3,4.8-9.6,6.7
		c-0.9-1.7-1.7-2.7-3.1-4c3.7-1.4,6.4-3,8.7-5.3c1.9-2,3.4-4.4,4.3-7.4l-6.9,0.1c-1.7,2.7-3.4,4.6-5.9,6.5c-1.3-1.5-2-2.1-3.7-3.1
		c3.2-2.2,5.2-4.6,6.9-7.9c0.7-1.4,1-2.2,1.1-3.1L398.8,30.3z"/>
	<path d="M434.2,29c-1.6,2.3-2.3,3.4-2.9,5.3c-0.8,2.2-1.1,4.5-1.1,7.2c0,2.7,0.4,5,1.1,7.2c0.7,1.9,1.3,3,2.9,5.3h-9V29H434.2z"/>
	<path d="M457,53.7v-1.3h-14.8v1.3h-4.1c0.1-0.8,0.2-2,0.2-3.6V33.3c0-1.2,0-2-0.1-3c0.9,0.1,1.8,0.1,3,0.1H458c1.3,0,2.1,0,3-0.1
		c-0.1,1-0.1,1.8-0.1,3v16.8c0,1.5,0.1,2.8,0.2,3.6H457z M442.2,48.9H457V34h-14.8V48.9z M452.8,35.9c1,0,1.7,0,2.3-0.1
		c-0.1,0.6-0.1,1.4-0.1,2.1v6.8c0,0.8,0,1.4,0.1,2.1c-0.6-0.1-1.4-0.1-2.3-0.1h-6.5c-1.1,0-1.6,0-2.3,0.1c0.1-0.7,0.1-1.4,0.1-2.1
		V38c0-0.7,0-1.4-0.1-2.1c0.6,0.1,1.3,0.1,2.3,0.1H452.8z M447.8,43.4h3.5v-4.1h-3.5V43.4z"/>
	<path d="M470.4,34.6c-0.9,1.3-1.7,2.1-3,3.5c-0.8-1.3-1.4-2.1-2.4-3.1c2-1.7,3.5-3.8,4.1-5.9l3.9,0.6c0,0.1-0.2,0.6-0.6,1.5h2.5
		c1.2,0,1.7,0,2.4-0.1v2.6c1.1-1.6,1.8-3.2,2.1-4.5l3.9,0.5l-0.6,1.5h4.1c1.2,0,1.8,0,2.6-0.1v3.8c-0.7-0.1-1.6-0.1-2.6-0.1h-1.2
		c0.5,0.9,0.7,1.4,1.2,2.5l-3.8,0.8c-0.4-1.4-0.5-1.9-1.2-3.3h-0.7c-0.5,0.8-0.9,1.4-1.3,1.9c1,1.1,2.7,2,4.9,2.9
		c1.7,0.7,3,1,5.5,1.5c-0.9,1.8-1.1,2.3-1.6,3.9c-1.8-0.5-3.5-1.1-5.2-1.9v1.2c-0.9-0.1-1.4-0.1-2.2-0.1h-7.2c-1.2,0-1.3,0-2.2,0.1
		V43c-1.9,1-3.4,1.5-5.1,2c-0.4-1.4-0.9-2.4-1.6-3.8c3.7-0.7,7-2.1,9.2-4.1l-2.5,0.5c-0.2-1-0.5-2.1-0.9-3.1H470.4z M472.4,53.7h-4
		c0.1-0.8,0.1-1.8,0.1-2.9v-3.2c0-1.2,0-1.8-0.1-2.5c0.6,0.1,1.2,0.1,2.4,0.1H484c1.3,0,1.8,0,2.4-0.1c-0.1,0.6-0.1,1.2-0.1,2.6v3.2
		c0,1.3,0,2.1,0.1,2.9h-4v-1.1h-10V53.7z M472.4,49.4h10v-1.2h-10V49.4z M474.5,34.6c0.3,0.5,0.5,1,0.7,1.6h2.5
		c-0.5-0.5-0.8-0.7-1.6-1.3l0.2-0.3c-0.5,0-0.8,0-1.1,0H474.5z M479.8,41.1c-1-0.6-1.6-1-2.5-1.9c-1,0.9-1.4,1.2-2.5,1.9H479.8z"/>
	<path d="M517.2,43.3c-1.5-0.2-2.9-0.2-4.5-0.2H498c-1.6,0-2.9,0.1-4.5,0.2v-4.5c1.4,0.2,2.6,0.2,4.5,0.2h14.7c2,0,3.3-0.1,4.5-0.2
		V43.3z"/>
	<path d="M530.8,37.8h1c1.2,0,1.6,0,2-0.1v1.5h6c1.3,0,1.7,0,2.4-0.1c-0.1,0.3-0.1,0.6-0.1,1.2v5.9c0,0.8,0,1,0,1.6
		c1.1,0.5,1.8,0.7,3.4,1c-0.2,2.5-0.5,3.5-1.3,4.1c-0.7,0.5-1.9,0.7-5.2,0.7c-4.7,0-5.4-0.3-5.4-2.3V49h-1.4
		c-0.7,1.7-2.3,3.1-4.3,3.9c-1.4,0.5-2.8,0.8-5,1c-0.5-1.4-0.9-2.1-1.7-3.4c0.1,0,0.2,0,0.3,0c3.1,0,5.2-0.5,6.5-1.6h-1
		c-1.3,0-1.9,0-2.6,0.1c0.1-0.6,0.1-1.4,0.1-2.6v-6.1c0-0.2,0-0.4,0-0.8h-0.6c-0.8,0-1,0-1.7,0.1c0-0.7,0.1-1.3,0.1-2.8v-4.2
		c0-1.6,0-2.2-0.1-2.9c0.7,0.1,1.2,0.1,2.7,0.1h6.5c1.2,0,1.9,0,2.6-0.1v2.6c-0.4-0.1-1-0.1-1.9-0.1h-1.1v0.7h1.2c0.7,0,0.9,0,1.4,0
		c0,0.1,0,0.1,0,0.2c1.2-1.1,2.1-2.4,2.5-3.9l3.8,0.6c-0.2,0.5-0.2,0.5-0.5,1.1h3.4c0.9,0,1.7-0.1,2.4-0.1v3.4
		c-0.7-0.1-1.5-0.1-2.4-0.1h-5.4c-0.4,0.5-0.5,0.6-0.9,1.1c0.2,0,0.3,0,0.7,0h4.9c1.1,0,1.8,0,2.3-0.1v3.1c-0.6-0.1-1.2-0.1-2.3-0.1
		h-4.4c-0.9,0-1.7,0-2.2,0.1v-2.1c-0.3,0.3-0.4,0.4-0.8,0.7c-0.5-0.9-0.7-1.2-1.2-1.9v0.8c0,0.7,0,0.9,0.1,1.2c-0.6,0-0.7,0-1.4,0
		h-1.1V37.8z M527.5,32.9v-0.7h-1.9v0.7H527.5z M529.8,35.4v-0.8h-4.2v0.8H529.8z M525.6,37v0.8h1.9V37H525.6z M528.2,42h10.1v-0.7
		h-10.1V42z M528.2,44.3h10.1v-0.6h-10.1V44.3z M528.2,46.7h10.1V46h-10.1V46.7z M537.5,49.8c0,0.6,0.2,0.7,1.9,0.7
		c1.4,0,2-0.1,2.2-0.3c0.2-0.2,0.3-0.3,0.3-1.2c-0.7-0.1-1.1-0.1-2.3-0.1h-2.2V49.8z"/>
	<path d="M548.6,54.1c1.6-2.3,2.3-3.4,2.9-5.3c0.8-2.2,1.1-4.5,1.1-7.2c0-2.7-0.4-5-1.1-7.2c-0.7-1.9-1.3-3-2.9-5.3h9v25H548.6z"/>
</g>
</svg>
