<?xml version="1.0" encoding="utf-8"?>
<!-- Generator: Adobe Illustrator 24.0.1, SVG Export Plug-In . SVG Version: 6.00 Build 0)  -->
<svg version="1.1" id="レイヤー_1" xmlns="http://www.w3.org/2000/svg" xmlns:xlink="http://www.w3.org/1999/xlink" x="0px"
	 y="0px" viewBox="0 0 572.3 86.8" style="enable-background:new 0 0 572.3 86.8;" xml:space="preserve">
<style type="text/css">
	.st0{fill:#040000;}
	.st1{enable-background:new    ;}
	.st2{fill:#F3E100;}
	.st3{fill:#FFFFFF;}
	.st4{fill:#D40E26;}
	.st5{fill:#231815;}
</style>
<g>
	<polygon class="st0" points="12.7,74.3 0,86.8 6.5,86.8 19.2,74.3 	"/>
	<polygon class="st0" points="23.5,74.3 10.8,86.8 17.4,86.8 30,74.3 	"/>
	<polygon class="st0" points="34.3,74.3 21.7,86.8 28.2,86.8 40.9,74.3 	"/>
	<polygon class="st0" points="45.2,74.3 32.5,86.8 39,86.8 51.7,74.3 	"/>
	<polygon class="st0" points="56,74.3 43.4,86.8 49.9,86.8 62.5,74.3 	"/>
	<polygon class="st0" points="66.9,74.3 54.2,86.8 60.7,86.8 73.4,74.3 	"/>
	<polygon class="st0" points="77.7,74.3 65.1,86.8 71.6,86.8 84.2,74.3 	"/>
	<polygon class="st0" points="88.6,74.3 75.9,86.8 82.4,86.8 95.1,74.3 	"/>
	<polygon class="st0" points="99.4,74.3 86.8,86.8 93.3,86.8 105.9,74.3 	"/>
	<polygon class="st0" points="110.3,74.3 97.6,86.8 104.1,86.8 116.8,74.3 	"/>
	<polygon class="st0" points="121.1,74.3 108.5,86.8 115,86.8 127.6,74.3 	"/>
	<polygon class="st0" points="132,74.3 119.3,86.8 125.8,86.8 138.5,74.3 	"/>
	<polygon class="st0" points="142.8,74.3 130.2,86.8 136.7,86.8 149.3,74.3 	"/>
	<polygon class="st0" points="153.7,74.3 141,86.8 147.5,86.8 160.2,74.3 	"/>
	<polygon class="st0" points="164.5,74.3 151.9,86.8 158.4,86.8 171,74.3 	"/>
	<polygon class="st0" points="175.4,74.3 162.7,86.8 169.2,86.8 181.9,74.3 	"/>
	<polygon class="st0" points="186.2,74.3 173.5,86.8 180.1,86.8 192.7,74.3 	"/>
	<polygon class="st0" points="197,74.3 184.4,86.8 190.9,86.8 203.6,74.3 	"/>
	<polygon class="st0" points="207.9,74.3 195.2,86.8 201.7,86.8 214.4,74.3 	"/>
	<polygon class="st0" points="218.7,74.3 206.1,86.8 212.6,86.8 225.2,74.3 	"/>
	<polygon class="st0" points="229.6,74.3 216.9,86.8 223.4,86.8 236.1,74.3 	"/>
	<polygon class="st0" points="240.4,74.3 227.8,86.8 234.3,86.8 246.9,74.3 	"/>
	<polygon class="st0" points="251.3,74.3 238.6,86.8 245.1,86.8 257.8,74.3 	"/>
	<polygon class="st0" points="262.1,74.3 249.5,86.8 256,86.8 268.6,74.3 	"/>
	<polygon class="st0" points="273,74.3 260.3,86.8 266.8,86.8 279.5,74.3 	"/>
	<polygon class="st0" points="283.8,74.3 271.2,86.8 277.7,86.8 290.3,74.3 	"/>
	<polygon class="st0" points="294.7,74.3 282,86.8 288.5,86.8 301.2,74.3 	"/>
	<polygon class="st0" points="305.5,74.3 292.9,86.8 299.4,86.8 312,74.3 	"/>
	<polygon class="st0" points="316.4,74.3 303.7,86.8 310.2,86.8 322.9,74.3 	"/>
	<polygon class="st0" points="327.2,74.3 314.5,86.8 321.1,86.8 333.7,74.3 	"/>
	<polygon class="st0" points="338.1,74.3 325.4,86.8 331.9,86.8 344.6,74.3 	"/>
	<polygon class="st0" points="348.9,74.3 336.2,86.8 342.7,86.8 355.4,74.3 	"/>
	<polygon class="st0" points="359.7,74.3 347.1,86.8 353.6,86.8 366.3,74.3 	"/>
	<polygon class="st0" points="370.6,74.3 357.9,86.8 364.4,86.8 377.1,74.3 	"/>
	<polygon class="st0" points="381.4,74.3 368.8,86.8 375.3,86.8 387.9,74.3 	"/>
	<polygon class="st0" points="392.3,74.3 379.6,86.8 386.1,86.8 398.8,74.3 	"/>
	<polygon class="st0" points="403.1,74.3 390.5,86.8 397,86.8 409.6,74.3 	"/>
	<polygon class="st0" points="414,74.3 401.3,86.8 407.8,86.8 420.5,74.3 	"/>
	<polygon class="st0" points="424.8,74.3 412.2,86.8 418.7,86.8 431.3,74.3 	"/>
	<polygon class="st0" points="435.7,74.3 423,86.8 429.5,86.8 442.2,74.3 	"/>
	<polygon class="st0" points="446.5,74.3 433.9,86.8 440.4,86.8 453,74.3 	"/>
	<polygon class="st0" points="457.4,74.3 444.7,86.8 451.2,86.8 463.9,74.3 	"/>
	<polygon class="st0" points="468.2,74.3 455.6,86.8 462.1,86.8 474.7,74.3 	"/>
	<polygon class="st0" points="479.1,74.3 466.4,86.8 472.9,86.8 485.6,74.3 	"/>
	<polygon class="st0" points="489.9,74.3 477.2,86.8 483.8,86.8 496.4,74.3 	"/>
	<polygon class="st0" points="500.7,74.3 488.1,86.8 494.6,86.8 507.3,74.3 	"/>
	<polygon class="st0" points="511.6,74.3 498.9,86.8 505.4,86.8 518.1,74.3 	"/>
	<polygon class="st0" points="522.4,74.3 509.8,86.8 516.3,86.8 528.9,74.3 	"/>
	<polygon class="st0" points="533.3,74.3 520.6,86.8 527.1,86.8 539.8,74.3 	"/>
	<polygon class="st0" points="544.1,74.3 531.5,86.8 538,86.8 550.6,74.3 	"/>
	<polygon class="st0" points="555,74.3 542.3,86.8 548.8,86.8 561.5,74.3 	"/>
	<polygon class="st0" points="565.8,74.3 553.2,86.8 559.7,86.8 572.3,74.3 	"/>
</g>
<g>
	<g>
		<path class="st2" d="M36.2,16.5c-0.9-1.6-2.5-2.5-4.3-2.5s-3.4,0.9-4.3,2.5L6.8,52.8c-0.9,1.6-0.9,3.4,0,5s2.5,2.5,4.3,2.5
			l41.7-0.2c1.8,0,3.4-0.9,4.3-2.5c0.9-1.6,0.9-3.4,0-5L36.2,16.5z"/>
		<path class="st3" d="M11.1,61.5c-2.2,0-4.3-1.2-5.4-3.1c-1.1-1.9-1.1-4.3,0-6.2L26.4,16c1.1-2,3.1-3.1,5.4-3.1l0,0
			c2.2,0,4.3,1.2,5.4,3.1l21,36.1c1.1,1.9,1.1,4.3,0,6.2c-1.1,2-3.1,3.1-5.4,3.1L11.1,61.5C11.2,61.5,11.1,61.5,11.1,61.5z
			 M31.8,15.3L31.8,15.3c-1.4,0-2.6,0.7-3.3,1.9L7.9,53.4c-0.7,1.2-0.7,2.6,0,3.8c0.7,1.1,1.9,1.8,3.2,1.8l0,0l41.7-0.2
			c1.4,0,2.6-0.7,3.2-1.9c0.7-1.2,0.7-2.6,0-3.8l-20.9-36C34.4,16,33.2,15.3,31.8,15.3z"/>
	</g>
	<path class="st4" d="M60.4,50.7l-21-36.1c-1.6-2.7-4.4-4.4-7.6-4.3l0,0c-3.2,0-6,1.7-7.6,4.4L3.5,50.9c-1.6,2.7-1.6,6,0,8.7
		s4.4,4.4,7.6,4.3l41.7-0.2c3.2,0,6-1.7,7.6-4.4C62,56.7,62,53.4,60.4,50.7z M57.2,57.6c-0.9,1.6-2.5,2.5-4.3,2.5l-41.7,0.2
		c-1.8,0-3.4-0.9-4.3-2.5s-0.9-3.4,0-5l20.7-36.2c0.9-1.6,2.5-2.5,4.3-2.5s3.4,0.9,4.3,2.5l21,36.1C58.1,54.1,58.1,56,57.2,57.6z"/>
</g>
<g class="st1">
	<path class="st5" d="M26.6,29.8c0.8,0.1,1.4,0.2,2.6,0.2H32c1.6,0,1.8,0,2.7-0.1c-0.1,1.2-0.2,2.1-0.2,3.5V45c0,1.3,0,2.2,0.2,3.3
		h-4.8c0.1-1,0.2-2,0.2-3.3V33.7h-0.9c-0.9,0-1.7,0-2.7,0.2L26.6,29.8L26.6,29.8z"/>
</g>
<g>
	<path class="st5" d="M29.9,54.9v-3.5h4v3.5H29.9z"/>
</g>
<g>
	<path d="M153.9,47.5v1.4c0,2,0,2.4,0.1,3h-3.9c0.1-0.8,0.1-1.6,0.1-3v-8.2c-0.4,3.7-0.4,3.7-0.7,5.4c-0.4,2.5-0.9,3.9-1.8,5.8
		c-0.8-1.2-1.3-1.9-2.2-2.9c0,1.2,0,1.8,0.2,3h-4.3c0.1-1.4,0.2-1.8,0.2-3.1V42c0-0.6,0-1.2,0.1-3c-0.4,0.7-0.8,1.3-1.3,1.8
		c-0.4-2.2-0.7-3.1-1.4-5c1.3-1.4,2.3-3.1,3.2-5.3c0.7-1.7,1.1-3.2,1.3-4.5l4.1,1c-0.1,0.4-0.1,0.5-0.3,0.9c0.8,0.1,1.6,0.1,2.6,0.1
		h0.4v-0.4c0-0.7,0-1-0.1-1.4h4.2c-0.1,0.4-0.1,0.8-0.1,1.3V28h2.7v-0.4c0-0.7,0-1-0.1-1.4h4.1c-0.1,0.4-0.1,0.8-0.1,1.3V28h0.8
		c1.3,0,2.4-0.1,2.9-0.2v3.8c-1-0.1-1.3-0.1-2.9-0.1h-0.8v1.3h1c1.6,0,2.2,0,3.1-0.1v3.7c-0.8-0.1-1.5-0.1-2.5-0.1h-12.1v0.8
		c0.7,0.1,1.4,0.1,2.7,0.1h8.7c1.2,0,1.8,0,2.5-0.1c-0.1,0.7-0.1,1.4-0.1,2.9v9.2c0,2.2-0.6,2.6-4.5,2.6c-0.2-1.3-0.3-1.9-0.7-3
		c0.4,0,0.7,0.1,1,0.1c0.4,0,0.5-0.1,0.5-0.5v-0.8h-1.7v1c0,1.7,0,2.4,0.1,3.1h-3.6c0.1-0.9,0.1-1.6,0.1-3.1v-1H153.9z M145.6,46.7
		c0.4-1,0.5-1.7,0.7-2.7c0.2-1.6,0.4-4.7,0.4-7.9c0-1.6,0-2.3-0.1-3.4c1.1,0.1,1.5,0.1,3,0.1h0.9v-1.3H150c-1.6,0-2,0-2.9,0.1v-2.9
		c-0.5,1.7-0.8,2.4-1.6,4V46.7z M155.5,40.1h-1.7v1.1h1.7V40.1z M155.5,43.7h-1.7v1.1h1.7V43.7z M157.2,32.8v-1.3h-2.7v1.3H157.2z
		 M160.6,41.2v-1.1h-1.7v1.1H160.6z M160.6,44.9v-1.1h-1.7v1.1H160.6z"/>
	<path d="M173,27.5c0-0.5,0-0.8-0.1-1.3h4.2c-0.1,0.5-0.1,0.8-0.1,1.3h5.3c0-0.5,0-0.8-0.1-1.3h4.2c-0.1,0.5-0.1,0.8-0.1,1.3h2.7
		c1.4,0,2.4-0.1,3.3-0.2v3.4c-1-0.1-1.7-0.1-3.3-0.1h-2.7c0,0.4,0,0.4,0.1,0.8h-3.9c0-0.3,0.1-0.5,0.1-0.8h-5.8c0,0.5,0,0.5,0.1,0.8
		h-3.9c0.1-0.3,0.1-0.4,0.1-0.8h-2.4c-1.6,0-2.3,0-3.3,0.1v-3.4c1,0.1,1.9,0.2,3.3,0.2H173z M185.9,36.3c-1.7,1.4-2.8,2.2-3.2,2.5
		c0.5,0,0.9-0.1,1.2-0.1c1,0,1,0,1.9-0.1c-0.4-0.3-0.5-0.5-1-0.8l3-2c2,1.6,3.4,3,5.1,4.9l-2.7,2.2c-0.1,0.6-0.1,1-0.1,2.2v4
		c0,1,0.1,1.8,0.1,2.8H186V51h-12.4v0.9h-4.2c0.1-0.9,0.1-1.8,0.1-2.8V45c0-1,0-1.8-0.1-2.6c1,0.1,1.2,0.1,2.9,0.1h14.9
		c1.1,0,1.5,0,2,0c-0.4-0.5-0.5-0.7-0.9-1.1c-7.7,0.5-7.7,0.5-18.6,0.9c-0.9,0.1-1.3,0.1-1.8,0.1l-0.4-3.6c1,0.1,2,0.2,5.9,0.2
		c-1.2-0.6-1.9-1-3.4-1.7l2.5-2.1H171c-1.5,0-2.4,0-3.3,0.1v-3.4c0.9,0.1,1.9,0.1,3.3,0.1h6.7c0-0.5,0-0.6-0.1-1h4.1
		c-0.1,0.3-0.1,0.5-0.1,1h7c1.3,0,2.5-0.1,3.3-0.1v3.4c-0.7-0.1-1.8-0.1-3.3-0.1h-5.1L185.9,36.3z M172.7,35.2c1,0.5,1.4,0.7,2,1
		c0.5-0.4,0.7-0.6,1.2-1H172.7z M173.6,45.8h4.3V45h-4.3V45.8z M173.6,48.6h4.3v-0.8h-4.3V48.6z M180.4,35.2
		c-0.8,0.8-1.7,1.6-2.9,2.6c0.6,0.3,0.6,0.3,0.9,0.5c1.1-0.8,2.8-2.2,3.7-3.1H180.4z M181.7,45.8h4.3V45h-4.3V45.8z M181.7,48.6h4.3
		v-0.8h-4.3V48.6z"/>
	<path d="M218.7,30.9c-0.4,0.4-0.5,0.6-0.8,1.4c-1.7,4.1-4.1,6.8-7.6,9c-1-1.2-1.9-2.1-3.1-3c-0.2,2.8-0.6,4.8-1.6,6.6
		c-1,1.7-2.4,3.3-4.3,4.6c-1.1,0.8-2,1.3-3.8,2.1c-1.1-2.2-1.5-2.8-3.1-4.4c3-1,5-2.2,6.2-3.8c1.3-1.7,1.8-3.6,1.8-7.2
		c0-0.9,0-1.3-0.2-1.9h5.1c-0.1,0.5-0.1,0.8-0.1,2.3c0,0,0,0.7,0,1c0.2-0.1,0.2-0.1,0.6-0.3c2-1,3.6-2.6,4.6-4.6h-13
		c-2.1,0-3,0.1-4.3,0.2v-4.8c1.3,0.2,2.2,0.2,4.4,0.2h14.3c1.5,0,1.7,0,2.3-0.3L218.7,30.9z"/>
	<path d="M242.3,29.8c-0.6,0.5-0.6,0.5-1.1,1c-2.2,2.2-4.1,3.9-6.3,5.5v10.5c0,2.2,0,2.9,0.2,4.4h-5.3c0.1-1.4,0.2-2,0.2-4.4v-7.5
		c-2.8,1.7-5,2.6-8.9,4c-0.7-1.8-1.3-2.7-2.6-4.4c5.9-1.7,10.1-3.7,14.5-7.1c2.3-1.8,4.2-3.6,5-5L242.3,29.8z"/>
	<path d="M259,39.2c-0.2,3.2-0.7,5-2,7c-1.5,2.5-3.5,4-7.3,5.5c-1-2-1.6-2.8-3.2-4.3c5-1.5,7.1-3.9,7.4-8.3h-5.6c-2.3,0-3,0-4.1,0.1
		v-4.6c1.2,0.2,1.9,0.2,4.2,0.2h15.2c2.4,0,3.1,0,4.3-0.2v4.6c-1.6-0.1-1.8-0.1-4.3-0.1H259z M247,27.7c1.2,0.2,1.9,0.2,4.2,0.2h9.5
		c2.5,0,3.2,0,4.4-0.2v4.6c-1.1-0.1-1.5-0.1-4.3-0.1h-9.7c-2.4,0-3.1,0-4.1,0.1V27.7z"/>
	<path d="M282.5,28c-0.3,0.6-0.3,0.7-0.7,2c-2.1,7.1-3.3,10.5-5.1,15c3.5-0.2,6.8-0.6,9.3-1.1c-1-2.3-2.3-4.7-3.4-6.5l4.3-1.6
		c2.8,4.2,4.7,8.1,6.5,13l-4.7,2.4c-0.3-1.3-0.4-1.5-1-3.1c-3.9,0.7-6.7,1.1-10.9,1.5l-6.2,0.6c-0.7,0.1-0.8,0.1-1.5,0.2l-0.7-5.1
		c0.5,0,0.7,0,0.9,0c0.2,0,0.4,0,0.7,0l0.8,0c0.4,0,0.4,0,0.7,0c1.8-4.4,3.2-8.6,4.5-13.5c0.7-2.6,1-3.6,1.1-4.9L282.5,28z"/>
	<path d="M307.2,44c-1.6,3.5-3.4,5-5.9,5c-3.7,0-6.2-3.5-6.2-8.5c0-3.2,1.1-6.1,3.1-8.3c2.4-2.6,5.9-4,9.9-4c3.7,0,6.9,1.2,8.9,3.4
		c1.7,1.9,2.7,4.5,2.7,7.6c0,3.5-1.3,6.8-3.6,8.8c-1.9,1.7-4,2.5-7.8,3.1c-0.7-2-1.2-2.9-2.3-4.5c2.6-0.2,4.3-0.6,5.7-1.4
		c2.1-1.1,3.3-3.4,3.3-6.3c0-2.3-0.8-4.2-2.4-5.4c-0.7-0.5-1.3-0.8-2.3-1C309.6,37.3,308.7,40.8,307.2,44z M302.5,34
		c-1.8,1.5-3,4.1-3,6.5c0,1.9,0.7,3.5,1.7,3.5c0.7,0,1.4-1,2.2-3c1-2.5,1.7-5.6,2-8.3C304.3,32.8,303.5,33.2,302.5,34z"/>
	<path d="M336.6,43.3v0.9h7.1c1.7,0,2.4,0,3.4-0.1v4c-1-0.1-2.1-0.2-3.8-0.2h-6.7v0.7c0,1.6,0,2.4,0.2,3.5h-4.5c0.1-1,0.2-2,0.2-3.4
		v-0.7h-6.5c-1.8,0-2.8,0.1-3.8,0.2V44c0.5,0.1,0.9,0.1,1.7,0.1l-2-3.5c0.5-0.2,0.7-0.3,1.3-0.6c2-1.1,3.2-1.9,4.9-3.4l2,3.4
		c-1.7,1.5-2.5,2-5.8,4.1c0.4,0,0.6,0,1.1,0h7.1V43c-1,0-1.5,0-2.3,0.1c0.1-0.9,0.1-1.6,0.1-3v-2.5c0-0.7,0-1.3,0-1.7
		c-0.4,0.5-0.6,0.7-1.2,1.3c-0.4-0.8-0.7-1.3-1.2-2l-1.8,2.2c-1.5-1.2-2.7-1.9-4.5-2.8l2.6-3.1c1.5,0.7,2.1,1,3.2,1.7
		c2.5-2.1,4.1-4.4,5-7.1l4.2,0.7c-0.6,1.2-0.8,1.6-1.3,2.3h2.5c0.7-1.1,1.1-2,1.4-2.9l4,0.6c-0.2,0.4-0.2,0.4-0.8,1.4
		c-0.2,0.3-0.3,0.5-0.6,0.9h2c1,0,2.1-0.1,2.9-0.2v3.5c-0.7-0.1-1.4-0.1-2.3-0.1h-3.1v0.9h2.5c1.4,0,1.7,0,2.3-0.1v2.6
		c-0.7-0.1-1.1-0.1-2.3-0.1h-2.5v0.9h2.4c1.2,0,1.6,0,2.3-0.1V39c-0.8-0.1-1.1-0.1-2.3-0.1h-2.5v0.9h3.1c1.1,0,1.9,0,2.6-0.1v3.4
		c-0.7-0.1-1.4-0.1-2.8-0.1h-7.5V43.3z M325.4,26.2c1.9,0.9,2.9,1.5,4.6,2.8l-2.6,3.2c-1.8-1.5-2.8-2.2-4.7-3L325.4,26.2z
		 M337.4,33.2v-0.9h-3.3v0.9H337.4z M334.1,36.5h3.3v-0.9h-3.3V36.5z M334.1,39.8h3.3v-0.9h-3.3V39.8z"/>
	<path d="M363.2,47.5v1.4c0,2,0,2.4,0.1,3h-3.9c0.1-0.8,0.1-1.6,0.1-3v-8.2c-0.4,3.7-0.4,3.7-0.7,5.4c-0.4,2.5-0.9,3.9-1.8,5.8
		c-0.8-1.2-1.3-1.9-2.2-2.9c0,1.2,0,1.8,0.2,3h-4.3c0.1-1.4,0.2-1.8,0.2-3.1V42c0-0.6,0-1.2,0.1-3c-0.4,0.7-0.8,1.3-1.3,1.8
		c-0.4-2.2-0.7-3.1-1.4-5c1.3-1.4,2.3-3.1,3.2-5.3c0.7-1.7,1.1-3.2,1.3-4.5l4.1,1c-0.1,0.4-0.1,0.5-0.3,0.9c0.8,0.1,1.6,0.1,2.6,0.1
		h0.4v-0.4c0-0.7,0-1-0.1-1.4h4.2c-0.1,0.4-0.1,0.8-0.1,1.3V28h2.7v-0.4c0-0.7,0-1-0.1-1.4h4.1c-0.1,0.4-0.1,0.8-0.1,1.3V28h0.8
		c1.3,0,2.4-0.1,2.9-0.2v3.8c-1-0.1-1.3-0.1-2.9-0.1h-0.8v1.3h1c1.6,0,2.2,0,3.1-0.1v3.7c-0.8-0.1-1.5-0.1-2.5-0.1h-12.1v0.8
		c0.7,0.1,1.4,0.1,2.7,0.1h8.7c1.2,0,1.8,0,2.5-0.1c-0.1,0.7-0.1,1.4-0.1,2.9v9.2c0,2.2-0.6,2.6-4.5,2.6c-0.2-1.3-0.3-1.9-0.7-3
		c0.4,0,0.7,0.1,1,0.1c0.4,0,0.5-0.1,0.5-0.5v-0.8h-1.7v1c0,1.7,0,2.4,0.1,3.1h-3.6c0.1-0.9,0.1-1.6,0.1-3.1v-1H363.2z M354.9,46.7
		c0.4-1,0.5-1.7,0.7-2.7c0.2-1.6,0.4-4.7,0.4-7.9c0-1.6,0-2.3-0.1-3.4c1.1,0.1,1.5,0.1,3,0.1h0.9v-1.3h-0.4c-1.6,0-2,0-2.9,0.1v-2.9
		c-0.5,1.7-0.8,2.4-1.6,4V46.7z M364.8,40.1h-1.7v1.1h1.7V40.1z M364.8,43.7h-1.7v1.1h1.7V43.7z M366.5,32.8v-1.3h-2.7v1.3H366.5z
		 M369.9,41.2v-1.1h-1.7v1.1H369.9z M369.9,44.9v-1.1h-1.7v1.1H369.9z"/>
	<path d="M384.2,27.8c-1.1,3.1-1.9,8.2-2.1,13.2l2.1,0.7c-0.7,2.5-1.1,4.9-1.1,7.6c0,0.5,0,0.8,0.1,1.3l-4.7,0.2
		c0-0.5,0-0.7-0.1-1.4c-0.5-3.7-0.7-6-0.7-8.6c0-3.1,0.3-6.6,1-10.5c0.3-1.9,0.4-2.1,0.4-2.9L384.2,27.8z M391.7,39.7
		c-1.3,1.6-1.8,2.8-1.8,3.8c0,1.3,1.2,1.9,3.5,1.9c2.4,0,4.7-0.4,6.8-1.1l0.3,4.8c-0.7,0.1-0.7,0.1-2.3,0.3
		c-1.5,0.2-3.2,0.4-4.7,0.4c-2.5,0-4.2-0.4-5.6-1.1c-1.5-0.9-2.5-2.6-2.5-4.3c0-1.3,0.5-2.8,1.3-4.3c0.4-0.6,0.5-0.9,1.3-2
		L391.7,39.7z M386.4,29.9c1.3,0.3,2.7,0.4,4.9,0.4c3.6,0,6.3-0.2,8.1-0.7l0.2,4.7c-0.2,0-0.5,0-2,0.2c-1.9,0.2-3.9,0.3-5.8,0.3
		c-1.7,0-3-0.1-4.7-0.2c-0.2,0-0.4,0-0.8-0.1L386.4,29.9z"/>
	<path d="M402.6,31.9c1.1-0.1,1.8-0.2,3.6-0.6c5.6-1.1,7.7-1.4,10.4-1.4c2.9,0,5.1,0.6,6.8,1.7c2.1,1.5,3.4,3.9,3.4,6.8
		c0,4-2.3,7.5-6.4,9.4c-2.8,1.3-5.4,1.9-10.2,2.4c-0.7-2.5-0.9-3-1.9-4.9c3.4,0,5.7-0.3,7.8-1c2.2-0.6,3.7-1.6,4.7-3.1
		c0.6-0.8,0.9-1.7,0.9-2.7c0-1.1-0.3-2-1-2.6c-0.9-0.9-2.1-1.3-4-1.3c-2.9,0-6.2,0.6-10.5,1.9c-1,0.3-1.7,0.6-2.3,0.9L402.6,31.9z"
		/>
	<path d="M435.4,28.8c-0.2,1.2-0.3,2.9-0.3,4.9c0,6.1,0.9,10.7,2,10.7c0.3,0,0.6-0.4,0.9-1.1c0.6-1.5,1.1-3.1,1.4-4.7
		c1.3,1.5,2,2.1,3.8,3.4c-0.6,2.1-1.2,3.7-2.1,5.3c-1,1.8-2.5,2.8-4.1,2.8c-1.5,0-2.8-0.8-3.9-2.3c-1.4-2-2.2-4.7-2.5-9.1
		c-0.1-1.9-0.2-4.2-0.3-8c0-0.9,0-1.2-0.1-1.9H435.4z M448,29.8c3.5,4.3,5.5,9.3,6.3,15.9l-4.9,1.8c-0.3-6.1-2.2-11.5-5.6-15.8
		L448,29.8z"/>
	<path d="M455.1,29.6c0.5,0,0.8,0,1,0c0.7,0,1.7-0.1,4.7-0.2c4.3-0.3,6.2-0.4,14.6-0.7c2.3-0.1,2.5-0.1,3-0.2l0.2,4.9
		c-0.4-0.1-0.5-0.1-0.8-0.1c-1.9,0-4.4,0.7-6.2,1.9c-2.7,1.7-4.3,4-4.3,6.2c0,1.6,0.7,2.6,2.3,3.4c1.1,0.5,3.4,1,5.2,1
		c0.3,0,0.4,0,0.8-0.1l-0.6,5.2c-0.4-0.1-0.5-0.1-1-0.1c-3.1-0.3-5.2-0.7-6.9-1.5c-3.2-1.5-4.9-4-4.9-7.5c0-2.3,0.8-4.3,2.3-6.2
		c0.7-0.9,1.4-1.4,2.7-2.3l-9.4,0.8c-1.1,0.1-1.3,0.1-2.3,0.4L455.1,29.6z"/>
</g>
</svg>
