<?xml version="1.0" encoding="utf-8"?>
<!-- Generator: Adobe Illustrator 24.0.1, SVG Export Plug-In . SVG Version: 6.00 Build 0)  -->
<svg version="1.1" id="レイヤー_1" xmlns="http://www.w3.org/2000/svg" xmlns:xlink="http://www.w3.org/1999/xlink" x="0px"
	 y="0px" viewBox="0 0 572.3 86.8" style="enable-background:new 0 0 572.3 86.8;" xml:space="preserve">
<style type="text/css">
	.st0{fill:#040000;}
	.st1{enable-background:new    ;}
	.st2{fill:#E60000;}
	.st3{fill:#FFFFFF;}
</style>
<g>
	<polygon class="st0" points="12.7,74.3 0,86.8 6.5,86.8 19.2,74.3 	"/>
	<polygon class="st0" points="23.5,74.3 10.8,86.8 17.4,86.8 30,74.3 	"/>
	<polygon class="st0" points="34.3,74.3 21.7,86.8 28.2,86.8 40.9,74.3 	"/>
	<polygon class="st0" points="45.2,74.3 32.5,86.8 39,86.8 51.7,74.3 	"/>
	<polygon class="st0" points="56,74.3 43.4,86.8 49.9,86.8 62.5,74.3 	"/>
	<polygon class="st0" points="66.9,74.3 54.2,86.8 60.7,86.8 73.4,74.3 	"/>
	<polygon class="st0" points="77.7,74.3 65.1,86.8 71.6,86.8 84.2,74.3 	"/>
	<polygon class="st0" points="88.6,74.3 75.9,86.8 82.4,86.8 95.1,74.3 	"/>
	<polygon class="st0" points="99.4,74.3 86.8,86.8 93.3,86.8 105.9,74.3 	"/>
	<polygon class="st0" points="110.3,74.3 97.6,86.8 104.1,86.8 116.8,74.3 	"/>
	<polygon class="st0" points="121.1,74.3 108.5,86.8 115,86.8 127.6,74.3 	"/>
	<polygon class="st0" points="132,74.3 119.3,86.8 125.8,86.8 138.5,74.3 	"/>
	<polygon class="st0" points="142.8,74.3 130.2,86.8 136.7,86.8 149.3,74.3 	"/>
	<polygon class="st0" points="153.7,74.3 141,86.8 147.5,86.8 160.2,74.3 	"/>
	<polygon class="st0" points="164.5,74.3 151.9,86.8 158.4,86.8 171,74.3 	"/>
	<polygon class="st0" points="175.4,74.3 162.7,86.8 169.2,86.8 181.9,74.3 	"/>
	<polygon class="st0" points="186.2,74.3 173.5,86.8 180.1,86.8 192.7,74.3 	"/>
	<polygon class="st0" points="197,74.3 184.4,86.8 190.9,86.8 203.6,74.3 	"/>
	<polygon class="st0" points="207.9,74.3 195.2,86.8 201.7,86.8 214.4,74.3 	"/>
	<polygon class="st0" points="218.7,74.3 206.1,86.8 212.6,86.8 225.2,74.3 	"/>
	<polygon class="st0" points="229.6,74.3 216.9,86.8 223.4,86.8 236.1,74.3 	"/>
	<polygon class="st0" points="240.4,74.3 227.8,86.8 234.3,86.8 246.9,74.3 	"/>
	<polygon class="st0" points="251.3,74.3 238.6,86.8 245.1,86.8 257.8,74.3 	"/>
	<polygon class="st0" points="262.1,74.3 249.5,86.8 256,86.8 268.6,74.3 	"/>
	<polygon class="st0" points="273,74.3 260.3,86.8 266.8,86.8 279.5,74.3 	"/>
	<polygon class="st0" points="283.8,74.3 271.2,86.8 277.7,86.8 290.3,74.3 	"/>
	<polygon class="st0" points="294.7,74.3 282,86.8 288.5,86.8 301.2,74.3 	"/>
	<polygon class="st0" points="305.5,74.3 292.9,86.8 299.4,86.8 312,74.3 	"/>
	<polygon class="st0" points="316.4,74.3 303.7,86.8 310.2,86.8 322.9,74.3 	"/>
	<polygon class="st0" points="327.2,74.3 314.5,86.8 321.1,86.8 333.7,74.3 	"/>
	<polygon class="st0" points="338.1,74.3 325.4,86.8 331.9,86.8 344.6,74.3 	"/>
	<polygon class="st0" points="348.9,74.3 336.2,86.8 342.7,86.8 355.4,74.3 	"/>
	<polygon class="st0" points="359.7,74.3 347.1,86.8 353.6,86.8 366.3,74.3 	"/>
	<polygon class="st0" points="370.6,74.3 357.9,86.8 364.4,86.8 377.1,74.3 	"/>
	<polygon class="st0" points="381.4,74.3 368.8,86.8 375.3,86.8 387.9,74.3 	"/>
	<polygon class="st0" points="392.3,74.3 379.6,86.8 386.1,86.8 398.8,74.3 	"/>
	<polygon class="st0" points="403.1,74.3 390.5,86.8 397,86.8 409.6,74.3 	"/>
	<polygon class="st0" points="414,74.3 401.3,86.8 407.8,86.8 420.5,74.3 	"/>
	<polygon class="st0" points="424.8,74.3 412.2,86.8 418.7,86.8 431.3,74.3 	"/>
	<polygon class="st0" points="435.7,74.3 423,86.8 429.5,86.8 442.2,74.3 	"/>
	<polygon class="st0" points="446.5,74.3 433.9,86.8 440.4,86.8 453,74.3 	"/>
	<polygon class="st0" points="457.4,74.3 444.7,86.8 451.2,86.8 463.9,74.3 	"/>
	<polygon class="st0" points="468.2,74.3 455.6,86.8 462.1,86.8 474.7,74.3 	"/>
	<polygon class="st0" points="479.1,74.3 466.4,86.8 472.9,86.8 485.6,74.3 	"/>
	<polygon class="st0" points="489.9,74.3 477.2,86.8 483.8,86.8 496.4,74.3 	"/>
	<polygon class="st0" points="500.7,74.3 488.1,86.8 494.6,86.8 507.3,74.3 	"/>
	<polygon class="st0" points="511.6,74.3 498.9,86.8 505.4,86.8 518.1,74.3 	"/>
	<polygon class="st0" points="522.4,74.3 509.8,86.8 516.3,86.8 528.9,74.3 	"/>
	<polygon class="st0" points="533.3,74.3 520.6,86.8 527.1,86.8 539.8,74.3 	"/>
	<polygon class="st0" points="544.1,74.3 531.5,86.8 538,86.8 550.6,74.3 	"/>
	<polygon class="st0" points="555,74.3 542.3,86.8 548.8,86.8 561.5,74.3 	"/>
	<polygon class="st0" points="565.8,74.3 553.2,86.8 559.7,86.8 572.3,74.3 	"/>
</g>
<g class="st1">
	<path d="M92.8,28.5c-0.1,1.2-0.2,3.2-0.2,5.2c0,0.1,0,0.2,0,0.4c3.2,0,6.3-0.3,8-0.8l0.3,4.6c-0.6,0-0.8,0.1-1.9,0.2
		c-2.8,0.3-3.9,0.3-6.3,0.4c0.1,1.3,0.1,1.3,0.3,5c2.8,1,4.7,2,7.8,4.2c0.5,0.3,0.6,0.4,0.9,0.6l-3,4.3c-1.2-1.5-3.3-3.1-5.7-4.3
		c0,0.2,0,0.4,0,0.5c0,1.3-0.4,2.3-1.2,3.1c-1.2,1.2-3.2,1.8-5.8,1.8c-2.2,0-4.2-0.5-5.4-1.4c-1.2-0.9-1.9-2.4-1.9-4.1
		c0-1.7,0.7-3.1,2.1-4.1c1.4-1,3.1-1.5,5.4-1.5c0.7,0,1.1,0,1.9,0.1c-0.1-2.2-0.3-7.8-0.3-11.6c0-1.3,0-1.7-0.1-2.6L92.8,28.5z
		 M86.4,46.6c-1.7,0-2.7,0.6-2.7,1.4c0,0.9,0.9,1.5,2.2,1.5c1.1,0,2-0.4,2.3-1c0.1-0.3,0.1-0.4,0.1-1.2c0-0.1,0-0.4,0-0.4
		C87.6,46.7,87.1,46.6,86.4,46.6z"/>
	<path d="M105,37.2c0.9,0,0.9,0,3.6-0.5c3.9-0.6,6.4-0.9,9.2-0.9c3.6,0,5.9,1,7.2,3c0.7,1.1,1,2.3,1,3.7c0,3.4-2.2,6.6-5.8,8.5
		c-2.4,1.3-4.9,1.9-9.4,2.5c-0.5-2-0.9-3-1.9-4.7c3.2-0.1,5.6-0.6,7.7-1.3c1.8-0.7,3.1-1.6,3.7-2.8c0.3-0.6,0.5-1.3,0.5-1.9
		c0-1.7-1.2-2.5-3.5-2.5c-3.2,0-8.6,0.9-11.5,2L105,37.2z M109.5,28.2c3.3,1,7.1,1.5,11.4,1.5c0.5,0,1,0,1.9,0l-0.6,4.7
		c-5.6-0.2-9.7-0.7-14.1-1.7L109.5,28.2z"/>
	<path d="M137.9,42.3c-1.6,1.2-2.5,2.4-2.5,3.4c0,1.4,1.8,2.1,6,2.1c3.2,0,7.2-0.6,9-1.3l0.3,5.3c-0.7,0-0.7,0-2.7,0.3
		c-2.3,0.3-4.6,0.4-6.9,0.4c-3.1,0-5.3-0.3-7-1c-2.4-1-3.7-2.7-3.7-5c0-2.4,1.2-4.5,3.9-6.6L137.9,42.3z M132.3,29.8
		c1.8,0.5,5.1,0.7,9.1,0.7c3.6,0,6.2-0.2,7.7-0.5l0.1,4.2c-1.7,0.8-5.2,3-7.7,4.9l-3.4-2.3c0.8-0.6,0.9-0.6,2.2-1.4
		c0.4-0.2,0.4-0.2,0.7-0.4c0.2-0.1,0.2-0.1,0.4-0.2c-0.9,0.1-1.3,0.1-2.3,0.1c-2.1,0-3.5-0.1-6.2-0.3c-0.5-0.1-0.6-0.1-1-0.1
		L132.3,29.8z"/>
	<path d="M157,29.5c1,0.1,1.5,0.1,3.2,0.1c2.4,0,6.7-0.2,8.7-0.3c1.4-0.1,1.9-0.2,2.7-0.5l2.4,3.2c-0.6,0.4-0.6,0.4-2.9,2.4
		c-1.9,1.7-3.1,2.6-5.3,4.2c1.5-0.2,4.5-0.4,7-0.6c3.6-0.2,4.2-0.3,4.8-0.4l0.2,4.6c-0.6,0-0.6,0-1.1,0c-3.5,0-5.6,0.3-7.7,1.2
		c-1.9,0.9-3.1,2.1-3.1,3.4c0,1.4,1.5,2.1,4.4,2.1c1.3,0,2.3-0.1,3.4-0.3l0.2,4.9c-0.3,0-0.3,0-0.6,0c-0.3,0-0.3,0-1.6,0.1
		c-0.5,0-0.9,0-1.4,0c-2.8,0-4.7-0.4-6.4-1.1c-2-1-3.1-2.7-3.1-4.8c0-2,1-3.6,2.9-4.9c-0.8,0.2-1.8,0.3-4.5,0.6
		c-3.3,0.4-4.5,0.5-5.7,0.9l-0.4-4.7c0.3,0,0.5,0,0.7,0c0.9,0,2.7-0.1,5.1-0.4c2.2-1.4,3.8-2.7,6.9-5.6c-1.5,0.2-1.7,0.2-2.3,0.2
		c-0.3,0-0.3,0-2.1,0.1c-0.4,0-0.4,0-2.1,0.1c-1,0.1-1.1,0.1-1.9,0.2L157,29.5z"/>
	<path d="M186,45.3c0.1-0.6,0.1-0.8,0.1-1.2c0-0.5,0-0.5-0.1-2.1l-0.6-8.7c-0.1-1.1-0.2-2.4-0.3-3.7h6.4c-0.1,0.6-0.2,2.6-0.3,3.7
		l-0.6,8.7c-0.1,1.2-0.1,1.7-0.1,2.1c0,0.3,0,0.6,0,1.3H186z M185.5,52.4v-5.2h5.5v5.2H185.5z"/>
	<path d="M203.9,46.6c0.3,1.4,1.2,2.1,3.1,2.1c1.7,0,2.6-0.5,2.6-1.3c0-0.4-0.2-0.8-0.6-1c-0.4-0.2-0.7-0.3-2.3-0.6
		c-2.1-0.4-3.2-0.7-4.1-1c-1.3-0.5-2.2-1.1-2.8-2c-0.4-0.7-0.7-1.7-0.7-2.6c0-3.3,2.8-5.3,7.4-5.3c2.6,0,4.6,0.6,5.9,1.8
		c0.9,0.8,1.3,1.6,1.8,3.1l-5.3,0.6c-0.1-1.1-0.8-1.6-2.3-1.6c-1.4,0-2.3,0.5-2.3,1.2c0,0.7,0.6,1,3.3,1.6c2.7,0.6,3.6,0.8,4.5,1.3
		c1.8,0.9,2.6,2.2,2.6,4.2c0,1.5-0.5,2.8-1.4,3.7c-1.3,1.3-3.6,2-6.5,2c-3.5,0-5.9-0.9-7.2-2.8c-0.6-0.8-0.8-1.4-1.1-2.8L203.9,46.6
		z"/>
	<path d="M228.1,40.7c0-1.3-0.8-1.9-2.6-1.9c-1.8,0-2.7,0.6-3.1,1.9l-5.3-0.9c0.6-1.6,1.2-2.5,2.3-3.3c1.5-1,3.5-1.6,6.2-1.6
		c2,0,4,0.4,5.1,1c1.8,1,2.5,2.5,2.5,5v7.4c0,1.7,0.1,2.7,0.2,3.9h-5.3V51c-1.5,1.2-3.1,1.7-5.3,1.7c-2.1,0-3.7-0.5-4.8-1.5
		c-1-0.9-1.5-2.2-1.5-3.7c0-1.7,0.7-3.1,2-4c1.4-1,3.2-1.6,5.7-1.8c1.1-0.1,1.9-0.1,3.9-0.2V40.7z M228.1,44.9
		c-2.4,0.1-3.6,0.2-4.8,0.6c-1,0.3-1.6,1-1.6,1.8c0,1,0.8,1.6,2.3,1.6c1.1,0,2.4-0.4,3.1-1c0.6-0.5,1-1.3,1-2.1V44.9z"/>
	<path d="M241.9,29.3c-0.2,1.1-0.2,2.3-0.2,4.2v7.7l3-3c1.3-1.3,1.9-2,2.4-2.8h7.3c-1.1,0.9-1.4,1.2-2.9,2.7l-4,3.9l4.6,6.7
		c1.7,2.4,1.8,2.6,2.6,3.5h-7c-0.4-1.2-1-2.4-1.8-3.7l-2.1-3.4l-2.1,2v1.1c0,2.3,0,2.9,0.2,4h-5.6c0.2-1.2,0.2-2.3,0.2-4.2V33.5
		c0-1.9-0.1-3.1-0.2-4.2H241.9z"/>
	<path d="M273.8,35.5c-0.2,1.3-0.2,2.5-0.2,4.1v8.5c0,1.9,0.1,3,0.2,4.1h-5.5V51c0-0.1,0-0.6,0-0.7c-1.8,1.7-3.4,2.4-5.7,2.4
		c-1.8,0-3.3-0.5-4.4-1.5c-1.1-1.1-1.6-2.5-1.6-4.6v-6.9c0-1.6-0.1-3-0.2-4.1h5.7c-0.2,1.3-0.2,2.5-0.2,4.1v5.6
		c0,1.1,0.1,1.6,0.4,2.1c0.4,0.5,1,0.8,1.8,0.8c1.5,0,3.1-1.1,4.1-2.8v-5.6c0-1.5-0.1-2.7-0.2-4.1H273.8z"/>
	<path d="M282,44.8c0.1,1,0.3,1.5,0.7,2c0.7,0.8,1.8,1.3,3.2,1.3c2.1,0,3.4-0.9,3.4-2.5c0-0.9-0.4-1.6-1.2-1.9
		c-0.6-0.3-1.3-0.5-4.1-1.1c-2.5-0.6-3.4-0.9-4.4-1.6c-1.7-1.2-2.7-3.1-2.7-5.3c0-4.2,3.4-6.9,8.8-6.9c3.5,0,6.2,1.1,7.7,3.1
		c0.7,0.9,1,1.7,1.4,3.3l-5.8,0.6c-0.3-1.8-1.3-2.5-3.4-2.5c-1.7,0-2.9,0.9-2.9,2.2c0,0.8,0.4,1.3,1.3,1.8c0.6,0.2,0.6,0.2,3.8,0.9
		c2.1,0.4,3.4,0.9,4.5,1.6c2,1.2,3,3.1,3,5.6c0,2.1-0.7,3.8-1.9,5.1c-1.6,1.5-4,2.3-7.2,2.3c-2.3,0-4.7-0.5-6.1-1.3
		c-1.4-0.8-2.4-2-3-3.5c-0.3-0.7-0.4-1.3-0.6-2.6L282,44.8z"/>
	<path d="M308.8,40.7c0-1.3-0.8-1.9-2.6-1.9c-1.8,0-2.7,0.6-3.1,1.9l-5.3-0.9c0.5-1.6,1.2-2.5,2.3-3.3c1.5-1,3.5-1.6,6.2-1.6
		c2,0,4,0.4,5.1,1c1.8,1,2.5,2.5,2.5,5v7.4c0,1.7,0.1,2.7,0.2,3.9h-5.3V51c-1.5,1.2-3.1,1.7-5.3,1.7c-2.1,0-3.7-0.5-4.8-1.5
		c-1-0.9-1.5-2.2-1.5-3.7c0-1.7,0.7-3.1,2-4c1.4-1,3.2-1.6,5.7-1.8c1.1-0.1,1.9-0.1,3.9-0.2V40.7z M308.8,44.9
		c-2.4,0.1-3.6,0.2-4.8,0.6c-1,0.3-1.6,1-1.6,1.8c0,1,0.8,1.6,2.3,1.6c1.1,0,2.4-0.4,3.1-1c0.6-0.5,1-1.3,1-2.1V44.9z"/>
	<path d="M322.6,29.3c-0.2,1.1-0.2,2.3-0.2,4.2v7.7l3-3c1.3-1.3,1.9-2,2.4-2.8h7.3c-1.1,0.9-1.4,1.2-2.9,2.7l-4,3.9l4.6,6.7
		c1.7,2.4,1.8,2.6,2.6,3.5h-7c-0.4-1.2-1-2.4-1.8-3.7l-2.1-3.4l-2.1,2v1.1c0,2.3,0,2.9,0.2,4H317c0.2-1.2,0.2-2.3,0.2-4.2V33.5
		c0-1.9-0.1-3.1-0.2-4.2H322.6z"/>
	<path d="M354.5,35.5c-0.2,1.3-0.2,2.5-0.2,4.1v8.5c0,1.9,0.1,3,0.2,4.1H349V51c0-0.1,0-0.6,0-0.7c-1.8,1.7-3.4,2.4-5.7,2.4
		c-1.8,0-3.3-0.5-4.4-1.5c-1.1-1.1-1.6-2.5-1.6-4.6v-6.9c0-1.6-0.1-3-0.2-4.1h5.7c-0.2,1.3-0.2,2.5-0.2,4.1v5.6
		c0,1.1,0.1,1.6,0.4,2.1c0.4,0.5,1,0.8,1.8,0.8c1.5,0,3.1-1.1,4.1-2.8v-5.6c0-1.5-0.1-2.7-0.2-4.1H354.5z"/>
	<path d="M368.8,35.4c-0.6,0-1,0-1.5,0.1v-2.3c-0.7,2.1-1.2,3.4-1.8,4.7c0.9,1.4,1.3,2,1.6,3c0.2,0.8,0.4,1.8,0.4,2.6
		c0,2.6-1.7,4.1-4.4,4.1c-0.1,0-0.2,0-0.4,0c-0.1-2-0.2-2.7-0.8-3.9c0.5,0.1,0.6,0.1,0.8,0.1c0.8,0,0.9-0.2,0.9-1.3
		c0-1.5-0.5-2.8-1.7-4.4v12.1c0,1.2,0.1,2.5,0.2,3.7h-4.4c0.1-1.1,0.2-2.3,0.2-3.8V31.8c0-1.2,0-2.2-0.1-3.1
		c0.7,0.1,1.3,0.1,2.4,0.1h4.3c0.9,0,1.4,0,1.9-0.1l1.7,2.5c-0.1,0.1-0.1,0.2-0.1,0.3c0.8,0.1,1,0.1,1.8,0.1h2.4v-1.3
		c0-0.9-0.1-1.6-0.1-2.1h4.5c-0.1,0.6-0.1,1.2-0.1,2.1v1.3h3.3c1.7,0,2.3,0,3.1-0.1v4.2c-0.8-0.1-1.5-0.1-3.1-0.1H374
		c0,1.4,0,1.7-0.1,2.3h5c1,0,1.7,0,2.6-0.1c-0.1,0.8-0.1,1-0.1,2.4c-0.1,5.2-0.4,9.2-0.9,10.7c-0.4,1.2-1,2-1.9,2.4
		c-0.8,0.4-2,0.6-3.6,0.6c-0.7,0-0.8,0-2.7-0.1c-0.1-1.6-0.3-2.7-0.9-4.2c1.4,0.2,2.4,0.3,3.4,0.3c1.4,0,1.5-0.1,1.8-1.6
		c0.2-1.3,0.4-3.7,0.4-6.6h-3.6c-0.5,3.1-1.2,5.1-2.4,7.3c-1.1,2-2.4,3.4-4.5,5.2c-1-1.5-1.9-2.3-3.3-3.5c2.9-2,4.5-4,5.5-6.9
		c0.7-2.1,0.9-4.2,1-8.2H368.8z M361.7,37.9c1-2,1.4-3.2,1.8-5.4h-1.8V37.9z"/>
	<path d="M396.8,38.7c-1-1.7-2.5-3.6-4.2-5.4c1.8-1.9,2.9-3.3,3.9-5.4l4.3,1.5c-1.6,2.2-2.1,2.9-3.2,3.9c1.3,1.3,2.1,2.2,3.3,3.7
		l-3.4,1.7h1.9c-0.1,0.4-0.1,0.9-0.1,1.5c0,3.5,1.2,5.6,4,7.3c1.9,1.2,4,1.8,6.9,2.2c-0.9,1.4-1.5,2.5-2.2,4.5
		c-3.7-1.1-5.5-1.9-7.5-3.4c-1.6-1.2-2.6-2.4-3.5-4c-1,2.3-2.1,3.6-4.3,5c-1.8,1.2-3.6,1.9-6.6,2.5c-0.6-1.7-1-2.6-2.1-4.2
		c3.8-0.5,6.1-1.4,8-3c1.9-1.6,2.9-4,2.9-6.8c0-0.6,0-1-0.1-1.6H396.8z M393.2,29.3c-1.3,1.8-2.1,2.7-3.4,3.9
		c1.3,1.3,2.5,2.6,3.6,4.1l-4,2c-1.7-2.8-2.7-4.1-4.8-6.1c1.9-1.9,3.1-3.6,4.1-5.5L393.2,29.3z M392.7,40.7c-1.1,2.5-2,4.1-3.7,6.3
		l-3.9-2c1.8-2,2.5-3.1,3.5-5.6L392.7,40.7z M408.7,29.4c-1.7,2.3-2,2.7-3.2,3.9c1.7,1.6,2.3,2.3,3.6,3.9l-4,2.1
		c-1.6-2.5-2.8-4-4.7-5.9c2-2.1,3.1-3.6,4.1-5.6L408.7,29.4z M408.8,41.3c-1.3,2.1-2.3,3.3-4.3,5.3l-3.6-2.4c1.9-1.7,2.8-2.8,4-4.9
		L408.8,41.3z"/>
	<path d="M434.4,32.3c-0.7,0.2-0.7,0.2-1.5,0.5c-1.6,0.5-3.1,0.9-5.3,1.3c0,1.4-0.1,3.1-0.1,3.7h4.5c2.1,0,3.2-0.1,4.3-0.2v4.5
		c-1.1-0.1-1.8-0.1-4.3-0.1h-4.9c-0.3,2.5-0.9,4.2-1.8,5.8c-1,1.6-2.6,3.2-4.6,4.4c-0.8,0.5-1.3,0.8-2.7,1.4c-1-1.8-1.8-2.8-3.4-4.1
		c3.3-1.2,5-2.3,6.2-3.9c0.7-1,1.1-2,1.3-3.6h-5.4c-2.5,0-3.1,0-4.3,0.1v-4.5c1.2,0.2,1.8,0.2,4.4,0.2h5.8c0.1-0.8,0.1-1.3,0.1-2.3
		v-0.8c-2.6,0.3-2.8,0.3-7.3,0.5c-0.3-1.5-0.6-2.5-1.4-4.2c0.9,0.1,1.4,0.1,1.8,0.1c3.7,0,8.9-0.6,12.1-1.4c1.4-0.4,2.4-0.7,3.5-1.3
		L434.4,32.3z"/>
	<path d="M452.4,48.2h4.3c1.8,0,2.6,0,3.7-0.2v4.2c-1-0.1-1.8-0.1-3.7-0.1h-12.8c-2,0-2.4,0-3.7,0.1V48c1,0.1,1.7,0.2,3.7,0.2h4.1
		V40h-2.5c-1.8,0-2.4,0-3.6,0.1v-4.2c1.1,0.1,1.9,0.2,3.6,0.2h9.6c1.8,0,2.5-0.1,3.6-0.2v4.2c-0.8-0.1-1.9-0.1-3.6-0.1h-2.6V48.2z"
		/>
	<path d="M468.8,34.9c1.1,2,1.9,4.3,2.7,7l-4.3,1.3c-0.7-2.9-1.3-4.5-2.5-7.1L468.8,34.9z M484.8,35.3c-0.2,0.5-0.2,0.6-0.4,1.7
		c-0.8,3.9-1.9,6.7-3.4,9c-1.5,2.2-3.4,4.1-5.8,5.6c-1,0.6-1.7,1-3.3,1.8c-0.9-1.7-1.5-2.4-3-3.9c5.5-2.1,8.5-4.9,10.2-9.5
		c0.7-1.9,1.2-4.2,1.2-5.8L484.8,35.3z M474.8,33.7c1.5,2.8,2,4.1,2.7,6.7l-4.2,1.3c-0.5-2.3-1.3-4.3-2.5-6.9L474.8,33.7z"/>
	<path d="M501.3,29c-0.1,0.2-0.2,0.3-0.3,0.7c-0.1,0.1-0.1,0.2-0.2,0.4c-0.1,0.3-0.2,0.5-0.2,0.6c-0.4,0.8-0.4,0.8-0.6,1.2l6.9-0.1
		c1.1,0,1.4-0.1,2-0.3l2.3,2.3c-0.3,0.6-0.4,0.7-0.8,2c-1.4,4.6-3.3,8.1-5.7,10.9c-2.5,2.9-5.6,5-10.1,7.1c-0.9-1.8-1.8-2.8-3.3-4.2
		c3.9-1.4,6.8-3.2,9.2-5.6c2-2.1,3.6-4.7,4.6-7.8l-7.3,0.1c-1.8,2.8-3.6,4.8-6.2,6.9c-1.4-1.6-2.1-2.2-3.9-3.3
		c3.4-2.4,5.5-4.9,7.3-8.4c0.7-1.4,1-2.3,1.2-3.3L501.3,29z"/>
	<path d="M513,41.9c1.1-0.9,2.6-2.5,5.1-5.6c1.8-2.3,1.9-2.4,2.5-3c0.9-0.8,2-1.2,3.1-1.2c1.1,0,2.2,0.4,3.1,1.3
		c0.7,0.6,0.7,0.6,2.8,3.2c2,2.5,4.9,5.5,7.7,7.9c1.2,1,1.5,1.3,2.3,1.8l-2.4,5.4c-0.4-0.4-0.5-0.5-1-0.9
		c-3.7-3.4-5.9-5.7-10.9-11.8c-0.9-1.1-1.1-1.3-1.5-1.3c-0.4,0-0.5,0-2.3,2.6c-1.1,1.5-2.8,3.6-3.8,4.8c-0.6,0.7-0.6,0.7-1,1.1
		c-0.2,0.3-0.2,0.3-0.5,0.6L513,41.9z"/>
	<path d="M546.9,45.3c0.1-0.6,0.1-0.8,0.1-1.2c0-0.5,0-0.5-0.1-2.1l-0.6-8.7c-0.1-1.1-0.2-2.4-0.3-3.7h6.4c-0.1,0.6-0.2,2.6-0.3,3.7
		l-0.6,8.7c-0.1,1.2-0.1,1.7-0.1,2.1c0,0.3,0,0.6,0,1.3H546.9z M546.4,52.4v-5.2h5.5v5.2H546.4z"/>
</g>
<g>
	<g>
		<path class="st2" d="M36.2,16.5c-0.9-1.6-2.5-2.5-4.3-2.5s-3.4,0.9-4.3,2.5L6.8,52.8c-0.9,1.6-0.9,3.4,0,5s2.5,2.5,4.3,2.5
			l41.7-0.2c1.8,0,3.4-0.9,4.3-2.5c0.9-1.6,0.9-3.4,0-5L36.2,16.5z"/>
		<path class="st3" d="M11.1,61.5c-2.2,0-4.3-1.2-5.4-3.1c-1.1-1.9-1.1-4.3,0-6.2L26.4,16c1.1-2,3.1-3.1,5.4-3.1l0,0
			c2.2,0,4.3,1.2,5.4,3.1l21,36.1c1.1,1.9,1.1,4.3,0,6.2c-1.1,2-3.1,3.1-5.4,3.1L11.1,61.5C11.2,61.5,11.1,61.5,11.1,61.5z
			 M31.8,15.3L31.8,15.3c-1.4,0-2.6,0.7-3.3,1.9L7.9,53.4c-0.7,1.2-0.7,2.6,0,3.8c0.7,1.1,1.9,1.8,3.2,1.8l0,0l41.7-0.2
			c1.4,0,2.6-0.7,3.2-1.9c0.7-1.2,0.7-2.6,0-3.8l-20.9-36C34.4,16,33.2,15.3,31.8,15.3z"/>
	</g>
	<path class="st2" d="M60.4,50.7l-21-36.1c-1.6-2.7-4.4-4.4-7.6-4.3l0,0c-3.2,0-6,1.7-7.6,4.4L3.5,50.9c-1.6,2.7-1.6,6,0,8.7
		s4.4,4.4,7.6,4.3l41.7-0.2c3.2,0,6-1.7,7.6-4.4C62,56.7,62,53.4,60.4,50.7z M57.2,57.6c-0.9,1.6-2.5,2.5-4.3,2.5l-41.7,0.2
		c-1.8,0-3.4-0.9-4.3-2.5s-0.9-3.4,0-5l20.7-36.2c0.9-1.6,2.5-2.5,4.3-2.5s3.4,0.9,4.3,2.5l21,36.1C58.1,54.1,58.1,56,57.2,57.6z"/>
</g>
<g class="st1">
	<path class="st3" d="M26.6,29.8c0.8,0.1,1.4,0.2,2.6,0.2H32c1.6,0,1.8,0,2.7-0.1c-0.1,1.2-0.2,2.1-0.2,3.5V45c0,1.3,0,2.2,0.2,3.3
		h-4.8c0.1-1,0.2-2,0.2-3.3V33.7h-0.9c-0.9,0-1.7,0-2.7,0.2V29.8z"/>
</g>
<g>
	<path class="st3" d="M29.9,54.9v-3.5h4v3.5H29.9z"/>
</g>
</svg>
