<?xml version="1.0" encoding="utf-8"?>
<!-- Generator: Adobe Illustrator 24.0.1, SVG Export Plug-In . SVG Version: 6.00 Build 0)  -->
<svg version="1.1" id="レイヤー_1" xmlns="http://www.w3.org/2000/svg" xmlns:xlink="http://www.w3.org/1999/xlink" x="0px"
	 y="0px" viewBox="0 0 572.3 86.8" style="enable-background:new 0 0 572.3 86.8;" xml:space="preserve">
<style type="text/css">
	.st0{fill:#040000;}
	.st1{enable-background:new    ;}
	.st2{fill:#E60000;}
	.st3{fill:#FFFFFF;}
</style>
<polygon class="st0" points="12.7,74.3 0,86.8 6.5,86.8 19.2,74.3 "/>
<polygon class="st0" points="23.5,74.3 10.8,86.8 17.4,86.8 30,74.3 "/>
<polygon class="st0" points="34.3,74.3 21.7,86.8 28.2,86.8 40.9,74.3 "/>
<polygon class="st0" points="45.2,74.3 32.5,86.8 39,86.8 51.7,74.3 "/>
<polygon class="st0" points="56,74.3 43.4,86.8 49.9,86.8 62.5,74.3 "/>
<polygon class="st0" points="66.9,74.3 54.2,86.8 60.7,86.8 73.4,74.3 "/>
<polygon class="st0" points="77.7,74.3 65.1,86.8 71.6,86.8 84.2,74.3 "/>
<polygon class="st0" points="88.6,74.3 75.9,86.8 82.4,86.8 95.1,74.3 "/>
<polygon class="st0" points="99.4,74.3 86.8,86.8 93.3,86.8 105.9,74.3 "/>
<polygon class="st0" points="110.3,74.3 97.6,86.8 104.1,86.8 116.8,74.3 "/>
<polygon class="st0" points="121.1,74.3 108.5,86.8 115,86.8 127.6,74.3 "/>
<polygon class="st0" points="132,74.3 119.3,86.8 125.8,86.8 138.5,74.3 "/>
<polygon class="st0" points="142.8,74.3 130.2,86.8 136.7,86.8 149.3,74.3 "/>
<polygon class="st0" points="153.7,74.3 141,86.8 147.5,86.8 160.2,74.3 "/>
<polygon class="st0" points="164.5,74.3 151.9,86.8 158.4,86.8 171,74.3 "/>
<polygon class="st0" points="175.4,74.3 162.7,86.8 169.2,86.8 181.9,74.3 "/>
<polygon class="st0" points="186.2,74.3 173.5,86.8 180.1,86.8 192.7,74.3 "/>
<polygon class="st0" points="197,74.3 184.4,86.8 190.9,86.8 203.6,74.3 "/>
<polygon class="st0" points="207.9,74.3 195.2,86.8 201.7,86.8 214.4,74.3 "/>
<polygon class="st0" points="218.7,74.3 206.1,86.8 212.6,86.8 225.2,74.3 "/>
<polygon class="st0" points="229.6,74.3 216.9,86.8 223.4,86.8 236.1,74.3 "/>
<polygon class="st0" points="240.4,74.3 227.8,86.8 234.3,86.8 246.9,74.3 "/>
<polygon class="st0" points="251.3,74.3 238.6,86.8 245.1,86.8 257.8,74.3 "/>
<polygon class="st0" points="262.1,74.3 249.5,86.8 256,86.8 268.6,74.3 "/>
<polygon class="st0" points="273,74.3 260.3,86.8 266.8,86.8 279.5,74.3 "/>
<polygon class="st0" points="283.8,74.3 271.2,86.8 277.7,86.8 290.3,74.3 "/>
<polygon class="st0" points="294.7,74.3 282,86.8 288.5,86.8 301.2,74.3 "/>
<polygon class="st0" points="305.5,74.3 292.9,86.8 299.4,86.8 312,74.3 "/>
<polygon class="st0" points="316.4,74.3 303.7,86.8 310.2,86.8 322.9,74.3 "/>
<polygon class="st0" points="327.2,74.3 314.5,86.8 321.1,86.8 333.7,74.3 "/>
<polygon class="st0" points="338.1,74.3 325.4,86.8 331.9,86.8 344.6,74.3 "/>
<polygon class="st0" points="348.9,74.3 336.2,86.8 342.7,86.8 355.4,74.3 "/>
<polygon class="st0" points="359.7,74.3 347.1,86.8 353.6,86.8 366.3,74.3 "/>
<polygon class="st0" points="370.6,74.3 357.9,86.8 364.4,86.8 377.1,74.3 "/>
<polygon class="st0" points="381.4,74.3 368.8,86.8 375.3,86.8 387.9,74.3 "/>
<polygon class="st0" points="392.3,74.3 379.6,86.8 386.1,86.8 398.8,74.3 "/>
<polygon class="st0" points="403.1,74.3 390.5,86.8 397,86.8 409.6,74.3 "/>
<polygon class="st0" points="414,74.3 401.3,86.8 407.8,86.8 420.5,74.3 "/>
<polygon class="st0" points="424.8,74.3 412.2,86.8 418.7,86.8 431.3,74.3 "/>
<polygon class="st0" points="435.7,74.3 423,86.8 429.5,86.8 442.2,74.3 "/>
<polygon class="st0" points="446.5,74.3 433.9,86.8 440.4,86.8 453,74.3 "/>
<polygon class="st0" points="457.4,74.3 444.7,86.8 451.2,86.8 463.9,74.3 "/>
<polygon class="st0" points="468.2,74.3 455.6,86.8 462.1,86.8 474.7,74.3 "/>
<polygon class="st0" points="479.1,74.3 466.4,86.8 472.9,86.8 485.6,74.3 "/>
<polygon class="st0" points="489.9,74.3 477.2,86.8 483.8,86.8 496.4,74.3 "/>
<polygon class="st0" points="500.7,74.3 488.1,86.8 494.6,86.8 507.3,74.3 "/>
<polygon class="st0" points="511.6,74.3 498.9,86.8 505.4,86.8 518.1,74.3 "/>
<polygon class="st0" points="522.4,74.3 509.8,86.8 516.3,86.8 528.9,74.3 "/>
<polygon class="st0" points="533.3,74.3 520.6,86.8 527.1,86.8 539.8,74.3 "/>
<polygon class="st0" points="544.1,74.3 531.5,86.8 538,86.8 550.6,74.3 "/>
<polygon class="st0" points="555,74.3 542.3,86.8 548.8,86.8 561.5,74.3 "/>
<polygon class="st0" points="565.8,74.3 553.2,86.8 559.7,86.8 572.3,74.3 "/>
<g class="st1">
	<path d="M94.6,41.8c-1.5,0-2.4,0-3.4,0.1c0.1-0.9,0.2-1.7,0.2-3.2v-6.9c0-1.5-0.1-2.3-0.2-3.2c1,0.1,1.8,0.1,3.4,0.1h13.9
		c1.6,0,2.4,0,3.4-0.1c-0.1,0.8-0.2,1.7-0.2,3.2v7c0,1.5,0,2.2,0.2,3.1c-1-0.1-1.8-0.1-3.4-0.1h-5v2.1h6.8c1.8,0,2.8-0.1,3.9-0.2
		v4.1c-1-0.1-2.1-0.2-3.9-0.2h-6.8V50c0,1.7,0.1,2.8,0.2,3.9H99c0.1-1,0.2-2.3,0.2-3.9v-2.4h-6.4c-1.8,0-2.8,0.1-3.9,0.2v-4.1
		c1,0.1,2,0.2,3.9,0.2h6.4v-2.1H94.6z M95.5,33.7h12.1v-1.3H95.5V33.7z M95.5,38.3h12.1v-1.4H95.5V38.3z"/>
	<path d="M123.2,45.1c2.2-0.9,3.6-1.7,5.2-3.1h-1.5c-1.3,0-1.9,0-2.8,0.1c0.1-0.9,0.1-1.4,0.1-2.4v-3c0-1.1,0-1.6-0.1-2.5
		c0.8,0.1,1.5,0.1,2.8,0.1h3.4v-1h-4.1c-1,0-1.7,0-2.3,0.1l-2.8,2.9c-1.5-2-2.8-3.4-5-5.4l3.1-3c1.8,1.6,3.1,2.8,4.4,4.3v-2.7
		c1,0.1,1.8,0.2,3.4,0.2h3.3v-0.4c0-0.5-0.1-1.1-0.1-1.5h4.2c-0.1,0.4-0.1,0.8-0.1,1.2v0.6h3.9c1.7,0,2.4,0,3.4-0.2v3.9
		c-0.9-0.1-1.3-0.1-2.6-0.1h-4.7v1h3.9c1.2,0,1.9,0,2.7-0.1c-0.1,0.8-0.1,1.3-0.1,2.4v3c0,1.1,0,1.7,0.1,2.5
		c-0.7-0.1-1.3-0.1-2.7-0.1h-1.7c1.6,1.4,3.2,2.2,5.8,3c-0.9,1.4-1.3,2.2-1.8,3.9c-2.6-1.1-4.3-2.2-6.2-4.1c0.1,0.4,0.1,0.8,0.1,1.4
		v1.2c0,0.7,0,1.1,0.1,1.5h-4.2c0.1-0.5,0.1-0.9,0.1-1.6v-1.2c0-0.6,0-0.7,0-1.3c-1.3,1.6-2.6,2.6-5,3.9c-0.7-1.4-1.3-2.2-2.1-3.2
		v1.9c0.6,0.7,0.9,1,1.4,1.3c0.9,0.6,2.1,0.8,4.5,0.8c6.4,0,10.4-0.2,13.4-0.6c-0.6,1.8-0.8,2.6-1,4.5c-2.4,0.1-6.1,0.1-9.3,0.1
		c-7.4,0-8.8-0.3-10.9-2.6c-1,1-1.8,1.5-3.4,2.6c-0.1,0.1-0.2,0.2-0.5,0.3l-1.8-4.4c0.8-0.3,2.2-1.1,3.5-2.1v-5.2H118
		c-0.6,0-1,0-1.7,0.1v-4.2c0.8,0.1,1.2,0.1,2.3,0.1h2.6c0.8,0,1.4,0,2.1-0.1c-0.1,0.9-0.1,1.5-0.1,3.1V45.1z M128.2,37.5V39h2.1
		v-1.5H128.2z M134.4,39h2.4v-1.5h-2.4V39z"/>
	<path d="M146.8,44.2c2.6,1.9,4.4,3.6,6.7,6.2l-3.5,3.6c-2.1-2.6-3.7-4.3-6.5-6.6L146.8,44.2z"/>
	<path d="M177.5,36.5c-0.2,0.4-0.4,0.9-0.6,1.4c1.2,0.4,2,0.8,2.8,1.5c1.5,1.3,2.3,3.1,2.3,5.2c0,3.3-1.8,6-5.2,7.5
		c-1.5,0.7-3,1-5.6,1.3c-0.4-1.5-0.9-2.6-1.5-3.6c-1.9,1.8-4.3,2.9-6.4,2.9c-3.2,0-5.3-2.2-5.3-5.6c0-2.3,1-4.6,2.8-6.4
		c1.1-1.1,2.1-1.8,3.8-2.5c0-0.9,0-1.2,0-2.4c-1.2,0-1.2,0-3.2-0.1c-0.4,0-0.9,0-1.3,0c-0.4,0-0.5,0-0.9,0l-0.1-4.3
		c1.6,0.3,3,0.4,5.1,0.4h0.2l0.4,0c0-0.4,0-0.4,0.1-1.2c0-0.3,0-0.6,0-0.9c0-0.6,0-0.8-0.1-1.2l4.7,0.2c-0.2,0.8-0.3,1.3-0.4,2.9
		c4.5-0.2,8.1-0.7,10.3-1.4l0.2,4.5c-0.4,0-0.6,0-1.2,0.1c-2.6,0.4-6.8,0.7-9.6,0.8c0,0.3,0,0.3-0.1,0.7c0,0.2,0,0.2,0,0.8
		c1.2-0.2,1.7-0.2,2.7-0.2c0.5,0,0.7,0,1.3,0.1c0.2-0.6,0.3-1,0.4-1.6L177.5,36.5z M162.3,46.6c0,1,0.4,1.6,1.2,1.6
		c0.5,0,1-0.2,1.5-0.5c-0.2-1.4-0.4-3-0.4-5C163.1,43.7,162.3,45.1,162.3,46.6z M168.9,44.8c1-1.3,2.1-2.9,2.6-4.2
		c-0.2,0-0.3,0-0.6,0c-0.8,0-1.4,0.1-2.2,0.3C168.8,42.6,168.8,43.4,168.9,44.8z M174.7,48c1.6-0.7,2.6-2.2,2.6-3.7
		c0-1.2-0.5-2-1.8-2.6c-1.3,2.9-2.8,5.2-4.8,7.2C172.5,48.7,173.6,48.5,174.7,48z"/>
	<path d="M195.8,28.7c-0.2,0.5-0.2,0.5-0.5,2.2c-0.1,0.7-0.2,0.9-0.3,1.5c1.8-0.2,2.9-0.4,3.8-0.7l0.1,4.5c-0.7,0.1-0.7,0.1-2,0.2
		c-0.7,0.1-2.3,0.2-2.9,0.3c-1,3.2-1.7,5.1-3,8c-0.6,1.3-0.8,1.8-1.9,3.9c-0.4,0.7-0.4,0.7-0.5,1.1l-4.5-2.4c2-2.6,3.9-6.5,5.1-10.4
		c-0.5,0-0.5,0-1.5,0c-0.6,0-0.6,0-1.3,0c-0.1,0-0.2,0-1.1,0v-4.4c1,0.2,2.3,0.3,4,0.3c0.3,0,0.4,0,1,0c0-0.2,0-0.2,0.2-1.2
		c0.2-0.9,0.4-2.3,0.4-3.3L195.8,28.7z M207.7,51.9c-1-1.2-2.1-2.1-3.6-3c-0.1,1.3-0.4,2.1-1.2,2.9c-1.1,1.1-3,1.7-5.2,1.7
		s-4.1-0.7-5.2-1.8c-0.9-0.9-1.4-2.1-1.4-3.4c0-3.2,2.7-5.4,6.5-5.4c0.6,0,1,0,1.9,0.2c-0.1-1-0.1-1.6-0.1-2.2c0-1.1,0.1-2,0.2-3.2
		l4.5,0.2c-0.2,1-0.3,1.8-0.3,3.1c0,1,0.1,1.8,0.2,3.2c1.7,0.7,3,1.5,4.2,2.4c0.1,0.1,0.5,0.4,1.3,1.1L207.7,51.9z M197.8,46.7
		c-1.3,0-2.1,0.6-2.1,1.4c0,0.8,0.8,1.3,2,1.3c1.4,0,2.1-0.6,2.1-1.8c0-0.2,0-0.6-0.1-0.6C198.9,46.8,198.5,46.7,197.8,46.7z
		 M207.9,39c-2.6-1.6-5.3-2.9-8.6-4l2.3-3.8c3.5,1.2,5.7,2.2,8.3,3.7L207.9,39z"/>
	<path d="M226.6,35.9c2.6-0.3,3.8-0.4,7.3-0.4c0.2,0,0.8,0,1.3,0l0.1,4.7c-1.3-0.2-2.1-0.2-3.6-0.2c-3,0-5,0.2-7.7,0.7l-0.3-3.9
		c-1.3,0.1-1.7,0.2-2.5,0.2c-0.5,2.6-1,4.6-1.7,7.5c-0.7,2.4-0.9,3-2,6.6c-0.4,1.3-0.4,1.3-0.6,2l-5.1-1.8c1.8-3.5,3.6-9,4.6-14.1
		c-0.2,0-0.3,0-0.4,0c-0.9,0-1.5,0-2.6-0.1c0,0-0.1,0-0.3,0c-0.2,0-0.3,0-0.6,0l0.1-4.5c1.1,0.2,2.5,0.3,4.2,0.3c0.1,0,0.3,0,0.5,0
		c0.4-2.2,0.5-3.3,0.5-4.1c0-0.1,0-0.2,0-0.4l5.1,0.4c-0.2,0.6-0.2,0.8-0.4,1.6c0,0.2-0.2,1-0.4,2.4c1.9-0.2,3-0.4,4.5-0.7
		L226.6,35.9z M227.5,43.5c-1,1.2-1.5,2.1-1.5,3c0,1.3,1.1,1.9,3.4,1.9c2.1,0,4.8-0.4,6.5-1.1l0.3,4.8c-0.6,0.1-0.8,0.1-1.5,0.2
		c-2.6,0.4-3.7,0.4-5.4,0.4c-5.4,0-8.1-1.7-8.1-5.2c0-1.6,0.6-3.1,2.1-5.3L227.5,43.5z"/>
	<path d="M251,45.9c-1.6,3.5-3.4,5.1-5.9,5.1c-3.7,0-6.3-3.5-6.3-8.6c0-3.2,1.1-6.1,3.2-8.4c2.4-2.6,5.9-4,10-4c3.7,0,6.9,1.2,9,3.4
		c1.8,1.9,2.7,4.5,2.7,7.7c0,3.6-1.3,6.8-3.7,8.9c-1.9,1.7-4,2.6-7.9,3.2c-0.7-2-1.2-3-2.3-4.5c2.6-0.2,4.3-0.6,5.8-1.4
		c2.1-1.1,3.3-3.4,3.3-6.4c0-2.3-0.8-4.2-2.4-5.4c-0.7-0.5-1.3-0.8-2.3-1C253.4,39.1,252.4,42.6,251,45.9z M246.2,35.8
		c-1.8,1.5-3,4.1-3,6.6c0,2,0.7,3.5,1.7,3.5c0.7,0,1.4-1,2.2-3.1c1-2.5,1.8-5.7,2.1-8.4C248.1,34.6,247.2,35,246.2,35.8z"/>
	<path d="M282,36.2c-0.4,0.1-0.5,0.1-1,0.2c-1.1,0.2-2.8,0.4-4.2,0.5v2.4c1.6-0.4,2.6-0.5,4-0.5c3.4,0,5.9,0.9,7.5,2.5
		c1.2,1.2,1.9,3,1.9,4.9c0,3.9-2.9,6.8-6.9,6.8c-3.4,0-5.4-2.3-5.4-6.2c0-0.1,0-0.4,0-0.7c2-0.6,2.7-0.9,4.2-1.7
		c0,0.6-0.1,0.9-0.1,1.5c0,0.9,0.1,1.3,0.2,1.7c0.2,0.5,0.7,0.8,1.2,0.8c1.2,0,2-1,2-2.4c0-0.9-0.5-1.8-1.3-2.4
		c-0.7-0.5-1.8-0.7-3.3-0.7c-1.3,0-2.5,0.1-4,0.6l0,4.9v0.7c0,1.7-0.1,2.3-0.5,2.9c-0.5,0.8-1.6,1.2-2.8,1.2c-2,0-4.4-0.9-5.9-2.2
		c-1.1-1-1.8-2.3-1.8-3.6c0-1.5,0.9-3.1,2.6-4.6c1.1-1,2.3-1.7,4.1-2.5v-3.2l-2.1,0.1l-2.7-0.1c-0.1,0-0.3,0-0.6,0l-0.1-4.3
		c0.9,0.2,2,0.2,3.8,0.2c0.2,0,0.2,0,1,0c0.4,0,0.4,0,0.6,0v-0.9c0-2.1,0-2.7-0.2-3.7h4.8c-0.1,1-0.2,1.6-0.2,3.4v0.9
		c1.9-0.2,3.6-0.5,5-0.9L282,36.2z M272.4,44.9c-1.3,0.6-2.3,1.7-2.3,2.5c0,0.3,0.2,0.6,0.6,0.9c0.4,0.2,0.9,0.4,1.2,0.4
		c0.4,0,0.4-0.2,0.4-1.1V44.9z M287.8,38.9c-1.4-2.5-3-4.3-5.4-6.5L286,30c2.3,1.9,4,3.8,5.4,6.1L287.8,38.9z"/>
	<path d="M302,40c-3.7,0.5-3.7,0.5-5.6,0.7c-0.4-1.3-0.8-2.3-1.4-3.3h-1.7c0.1-0.7,0.1-1.3,0.1-2.3v-3c0-0.9,0-1.5-0.1-2.2
		c0.9,0.1,1.8,0.1,3.3,0.1h6.7v-0.5c0-0.6-0.1-1-0.1-1.5h4.6c-0.1,0.6-0.1,0.9-0.1,1.5V30h7.1c1.5,0,2.4,0,3.3-0.1
		c-0.1,0.6-0.1,1.2-0.1,2.2v3c0,0.8,0,1.5,0.1,2.3h-3.6c-3.2,0.9-5.5,1.5-8.3,2v2l8.9-0.9c1.2-0.1,2.4-0.3,3.2-0.5l0.4,4.3
		c-0.3,0-0.5,0-0.5,0c-0.6,0-1.8,0.1-2.7,0.2l-9.2,0.9v3.4c0,0.7,0.1,0.8,0.9,0.9c0.4,0.1,1.7,0.1,3.1,0.1c2.1,0,3.1-0.1,3.4-0.5
		c0.4-0.3,0.5-1.2,0.6-3.5c1.5,0.7,2.6,1,4.2,1.3c-0.2,3.3-0.6,4.6-1.7,5.5c-1.2,0.9-2.5,1.1-7.8,1.1c-5.7,0-6.9-0.6-6.9-3.5v-4.4
		l-5.5,0.5c-1.5,0.1-2.3,0.2-3.2,0.5l-0.4-4.3c0.4,0,0.5,0,0.7,0c0.7,0,1.7-0.1,2.6-0.1l5.9-0.6V40z M314,33.8h-16.4v2.9
		c5.9-0.5,10.5-1.3,14-2.7l2.5,2.6V33.8z"/>
	<path d="M332.9,45.9c-1.6,3.5-3.4,5.1-5.9,5.1c-3.7,0-6.3-3.5-6.3-8.6c0-3.2,1.1-6.1,3.2-8.4c2.4-2.6,5.9-4,10-4
		c3.7,0,6.9,1.2,9,3.4c1.8,1.9,2.7,4.5,2.7,7.7c0,3.6-1.3,6.8-3.7,8.9c-1.9,1.7-4,2.6-7.9,3.2c-0.7-2-1.2-3-2.3-4.5
		c2.6-0.2,4.3-0.6,5.8-1.4c2.1-1.1,3.3-3.4,3.3-6.4c0-2.3-0.8-4.2-2.4-5.4c-0.7-0.5-1.3-0.8-2.3-1C335.4,39.1,334.4,42.6,332.9,45.9
		z M328.2,35.8c-1.8,1.5-3,4.1-3,6.6c0,2,0.7,3.5,1.7,3.5c0.7,0,1.4-1,2.2-3.1c1-2.5,1.8-5.7,2.1-8.4C330,34.6,329.2,35,328.2,35.8z
		"/>
	<path d="M361.9,49.4v1.4c0,2,0,2.5,0.1,3.1h-3.9c0.1-0.8,0.1-1.7,0.1-3.1v-8.3c-0.4,3.7-0.4,3.7-0.7,5.4c-0.4,2.5-0.9,3.9-1.8,5.9
		c-0.8-1.2-1.3-1.9-2.2-2.9c0,1.2,0,1.8,0.2,3h-4.4c0.1-1.4,0.2-1.8,0.2-3.2v-6.9c0-0.6,0-1.2,0.1-3.1c-0.4,0.7-0.9,1.3-1.3,1.8
		c-0.4-2.2-0.7-3.1-1.4-5.1c1.3-1.4,2.4-3.1,3.3-5.3c0.7-1.7,1.2-3.2,1.3-4.5l4.2,1c-0.1,0.4-0.1,0.5-0.3,0.9
		c0.8,0.1,1.6,0.1,2.7,0.1h0.4v-0.4c0-0.7,0-1-0.1-1.4h4.2c-0.1,0.4-0.1,0.8-0.1,1.3v0.4h2.8v-0.4c0-0.7,0-1-0.1-1.4h4.2
		c-0.1,0.4-0.1,0.8-0.1,1.3v0.4h0.8c1.3,0,2.5-0.1,2.9-0.2v3.8c-1-0.1-1.3-0.1-2.9-0.1h-0.8v1.3h1c1.6,0,2.2,0,3.1-0.1v3.8
		c-0.8-0.1-1.5-0.1-2.6-0.1h-12.2V39c0.7,0.1,1.5,0.1,2.8,0.1h8.8c1.2,0,1.8,0,2.6-0.1c-0.1,0.7-0.1,1.4-0.1,2.9v9.3
		c0,2.2-0.6,2.6-4.5,2.7c-0.2-1.3-0.3-1.9-0.7-3c0.4,0,0.7,0.1,1,0.1c0.4,0,0.5-0.1,0.5-0.6v-0.8H367v1c0,1.7,0,2.4,0.1,3.1h-3.7
		c0.1-0.9,0.1-1.7,0.1-3.1v-1H361.9z M353.6,48.6c0.4-1,0.5-1.7,0.7-2.7c0.2-1.7,0.4-4.8,0.4-8c0-1.6,0-2.3-0.1-3.4
		c1.1,0.1,1.5,0.1,3,0.1h0.9v-1.3H358c-1.6,0-2.1,0-2.9,0.1v-2.9c-0.5,1.7-0.8,2.4-1.6,4V48.6z M363.6,41.9h-1.7v1.1h1.7V41.9z
		 M363.6,45.6h-1.7v1.2h1.7V45.6z M365.3,34.6v-1.3h-2.8v1.3H365.3z M368.8,43.1v-1.1H367v1.1H368.8z M368.8,46.7v-1.2H367v1.2
		H368.8z"/>
	<path d="M381.3,29.2c0-0.6,0-0.8-0.1-1.3h4.2c-0.1,0.5-0.1,0.8-0.1,1.3h5.3c0-0.5,0-0.9-0.1-1.3h4.2c-0.1,0.5-0.1,0.8-0.1,1.3h2.7
		c1.4,0,2.4-0.1,3.3-0.2v3.4c-1-0.1-1.8-0.1-3.3-0.1h-2.7c0,0.4,0,0.4,0.1,0.9h-3.9c0-0.3,0.1-0.5,0.1-0.9H385c0,0.5,0,0.5,0.1,0.9
		h-3.9c0.1-0.3,0.1-0.4,0.1-0.9h-2.4c-1.6,0-2.4,0-3.3,0.1v-3.4c1,0.1,2,0.2,3.3,0.2H381.3z M394.2,38.1c-1.7,1.4-2.8,2.2-3.2,2.6
		c0.5,0,0.9-0.1,1.2-0.1c1,0,1,0,2-0.1c-0.4-0.3-0.5-0.5-1-0.9l3-2c2.1,1.7,3.5,3,5.1,4.9l-2.7,2.2c-0.1,0.6-0.1,1-0.1,2.2v4
		c0,1,0.1,1.8,0.1,2.8h-4.2V53h-12.5v0.9h-4.2c0.1-0.9,0.1-1.8,0.1-2.8v-4.2c0-1,0-1.8-0.1-2.6c1,0.1,1.2,0.1,2.9,0.1h15
		c1.1,0,1.5,0,2,0c-0.4-0.5-0.6-0.7-0.9-1.2c-7.8,0.5-7.8,0.5-18.8,0.9c-0.9,0.1-1.3,0.1-1.8,0.1l-0.4-3.6c1,0.1,2,0.2,6,0.2
		c-1.2-0.6-2-1-3.5-1.7l2.5-2.1h-1.4c-1.5,0-2.5,0-3.4,0.1v-3.5c0.9,0.1,1.9,0.1,3.4,0.1h6.7c0-0.5,0-0.6-0.1-1h4.1
		c-0.1,0.3-0.1,0.5-0.1,1h7.1c1.3,0,2.5-0.1,3.4-0.1v3.5c-0.7-0.1-1.8-0.1-3.4-0.1h-5.1L394.2,38.1z M380.9,37c1,0.5,1.4,0.7,2.1,1
		c0.5-0.4,0.7-0.6,1.2-1H380.9z M381.9,47.7h4.3v-0.8h-4.3V47.7z M381.9,50.5h4.3v-0.8h-4.3V50.5z M388.7,37
		c-0.8,0.8-1.7,1.6-2.9,2.6c0.6,0.3,0.6,0.3,0.9,0.5c1.1-0.8,2.8-2.2,3.7-3.1H388.7z M390.1,47.7h4.3v-0.8h-4.3V47.7z M390.1,50.5
		h4.3v-0.8h-4.3V50.5z"/>
	<path d="M403.8,30.9c1.2,0.3,2.8,0.4,5.7,0.4c0.2,0,0.4,0,0.8,0c0.6-1.3,0.7-2.1,0.9-3.1l5,0.4c-0.2,0.4-0.2,0.4-0.6,1.3
		c-0.4,0.8-0.5,1.2-0.6,1.3c0.3,0,0.3,0,1.7-0.1c2.7-0.1,5.5-0.5,7-0.9l0.2,4.4c-0.9,0.1-1.7,0.2-2.5,0.2c-2,0.2-5.4,0.4-8.2,0.5
		c-0.5,0.8-0.7,1.2-1.3,2c1.2-0.6,2.3-0.8,3.5-0.8c2.3,0,3.7,0.9,4.2,2.7c0.5-0.2,0.5-0.2,1.9-0.7c0.1,0,0.8-0.3,1.7-0.6
		c1.6-0.5,1.8-0.6,2.2-0.8l1.7,4.3c-1.4,0.2-4.4,1-7,1.9c0,0.7,0,0.8,0,2c0,1.2,0,1.7,0.1,2.4l-4.5,0.1c0.1-0.4,0.1-1.3,0.1-2.9
		l-0.2,0.1c-1.3,0.6-1.4,0.7-1.9,1.2c-0.5,0.4-0.7,0.9-0.7,1.4c0,1,1,1.5,3.7,1.5c3.3,0,6.5-0.5,8.8-1.4l0.3,5c-0.8,0-0.8,0-2.5,0.2
		c-2.2,0.3-4.5,0.4-6.6,0.4c-3.1,0-5.1-0.4-6.6-1.3c-1.4-0.8-2.2-2.3-2.2-3.9c0-1.3,0.4-2.3,1.3-3.5c1-1.2,2.3-2.1,4-2.9
		c0.7-0.3,0.9-0.4,2-0.9c-0.2-0.5-0.6-0.7-1.1-0.7c-1.4,0-3.3,1-5.2,2.6c-1.2,1-1.9,1.8-2.6,2.8l-3.5-3.5c0.9-0.7,2-1.8,2.9-2.9
		c0.6-0.7,1.7-2.3,2.1-3c0.4-0.7,0.4-0.7,0.5-0.9c-0.4,0-0.7,0-0.9,0c-1.2,0-1.2,0-2.4,0c-0.4,0-0.6,0-1,0c-0.1,0-0.2,0-0.4,0
		L403.8,30.9z"/>
	<path d="M451.7,32.3c-0.7,0.2-0.7,0.2-1.5,0.5c-1.6,0.5-3.1,0.9-5.3,1.3c0,1.4-0.1,3.1-0.1,3.7h4.5c2.1,0,3.2-0.1,4.3-0.2v4.5
		c-1.1-0.1-1.8-0.1-4.3-0.1h-4.9c-0.3,2.5-0.9,4.2-1.8,5.8c-1,1.6-2.6,3.2-4.6,4.4c-0.8,0.5-1.3,0.8-2.7,1.4c-1-1.8-1.8-2.8-3.4-4.1
		c3.3-1.2,5-2.3,6.2-3.9c0.7-1,1.1-2,1.3-3.6h-5.4c-2.5,0-3.1,0-4.3,0.1v-4.5c1.2,0.2,1.8,0.2,4.4,0.2h5.8c0.1-0.8,0.1-1.3,0.1-2.3
		v-0.8c-2.6,0.3-2.8,0.3-7.3,0.5c-0.3-1.5-0.6-2.5-1.4-4.2c0.9,0.1,1.4,0.1,1.8,0.1c3.7,0,8.9-0.6,12.1-1.4c1.4-0.4,2.4-0.7,3.5-1.3
		L451.7,32.3z"/>
	<path d="M469.6,48.2h4.3c1.8,0,2.6,0,3.7-0.2v4.2c-1-0.1-1.8-0.1-3.7-0.1h-12.8c-2,0-2.4,0-3.7,0.1V48c1,0.1,1.7,0.2,3.7,0.2h4.1
		V40h-2.5c-1.8,0-2.4,0-3.6,0.1v-4.2c1.1,0.1,1.9,0.2,3.6,0.2h9.6c1.8,0,2.5-0.1,3.6-0.2v4.2c-0.8-0.1-1.9-0.1-3.6-0.1h-2.6V48.2z"
		/>
	<path d="M486,34.9c1.1,2,1.9,4.3,2.7,7l-4.3,1.3c-0.7-2.9-1.3-4.5-2.5-7.1L486,34.9z M502,35.3c-0.2,0.5-0.2,0.6-0.4,1.7
		c-0.8,3.9-1.9,6.7-3.4,9c-1.5,2.2-3.4,4.1-5.8,5.6c-1,0.6-1.7,1-3.3,1.8c-0.9-1.7-1.5-2.4-3-3.9c5.5-2.1,8.5-4.9,10.2-9.5
		c0.7-1.9,1.2-4.2,1.2-5.8L502,35.3z M492.1,33.7c1.5,2.8,2,4.1,2.7,6.7l-4.2,1.3c-0.5-2.3-1.3-4.3-2.5-6.9L492.1,33.7z"/>
	<path d="M518.6,29c-0.1,0.2-0.2,0.3-0.3,0.7c-0.1,0.1-0.1,0.2-0.2,0.4c-0.1,0.3-0.2,0.5-0.2,0.6c-0.4,0.8-0.4,0.8-0.5,1.2l6.9-0.1
		c1.1,0,1.4-0.1,2-0.3l2.3,2.3c-0.3,0.6-0.4,0.7-0.8,2c-1.4,4.6-3.3,8.1-5.7,10.9c-2.5,2.9-5.6,5-10.1,7.1c-0.9-1.8-1.8-2.8-3.3-4.2
		c3.9-1.4,6.8-3.2,9.2-5.6c2-2.1,3.6-4.7,4.6-7.8l-7.3,0.1c-1.8,2.8-3.6,4.8-6.2,6.9c-1.4-1.6-2.1-2.2-3.9-3.3
		c3.4-2.4,5.5-4.9,7.3-8.4c0.7-1.4,1-2.3,1.2-3.3L518.6,29z"/>
	<path d="M536.8,45.3c0.1-0.6,0.1-0.8,0.1-1.2c0-0.5,0-0.5-0.1-2.1l-0.6-8.7c-0.1-1.1-0.2-2.4-0.3-3.7h6.4c-0.1,0.6-0.2,2.6-0.3,3.7
		l-0.6,8.7c-0.1,1.2-0.1,1.7-0.1,2.1c0,0.3,0,0.6,0,1.3H536.8z M536.3,52.4v-5.2h5.5v5.2H536.3z"/>
</g>
<g>
	<g>
		<path class="st2" d="M36.2,16.5c-0.9-1.6-2.5-2.5-4.3-2.5s-3.4,0.9-4.3,2.5L6.8,52.8c-0.9,1.6-0.9,3.4,0,5s2.5,2.5,4.3,2.5
			l41.7-0.2c1.8,0,3.4-0.9,4.3-2.5c0.9-1.6,0.9-3.4,0-5L36.2,16.5z"/>
		<path class="st3" d="M11.1,61.5c-2.2,0-4.3-1.2-5.4-3.1c-1.1-1.9-1.1-4.3,0-6.2L26.4,16c1.1-2,3.1-3.1,5.4-3.1l0,0
			c2.2,0,4.3,1.2,5.4,3.1l21,36.1c1.1,1.9,1.1,4.3,0,6.2c-1.1,2-3.1,3.1-5.4,3.1L11.1,61.5C11.2,61.5,11.1,61.5,11.1,61.5z
			 M31.8,15.3L31.8,15.3c-1.4,0-2.6,0.7-3.3,1.9L7.9,53.4c-0.7,1.2-0.7,2.6,0,3.8c0.7,1.1,1.9,1.8,3.2,1.8l0,0l41.7-0.2
			c1.4,0,2.6-0.7,3.2-1.9c0.7-1.2,0.7-2.6,0-3.8l-20.9-36C34.4,16,33.2,15.3,31.8,15.3z"/>
	</g>
	<path class="st2" d="M60.4,50.7l-21-36.1c-1.6-2.7-4.4-4.4-7.6-4.3l0,0c-3.2,0-6,1.7-7.6,4.4L3.5,50.9c-1.6,2.7-1.6,6,0,8.7
		s4.4,4.4,7.6,4.3l41.7-0.2c3.2,0,6-1.7,7.6-4.4C62,56.7,62,53.4,60.4,50.7z M57.2,57.6c-0.9,1.6-2.5,2.5-4.3,2.5l-41.7,0.2
		c-1.8,0-3.4-0.9-4.3-2.5s-0.9-3.4,0-5l20.7-36.2c0.9-1.6,2.5-2.5,4.3-2.5s3.4,0.9,4.3,2.5l21,36.1C58.1,54.1,58.1,56,57.2,57.6z"/>
</g>
<g class="st1">
	<path class="st3" d="M28.8,42.7c0.1,0.7,0.3,1,0.6,1.4C30,44.7,30.9,45,32,45c1.7,0,2.8-0.9,2.8-2.2c0-0.9-0.4-1.6-1.2-1.9
		c-0.5-0.2-1.2-0.3-2-0.3c-0.9,0-1.8,0-2.7,0.1V37c0.7,0.1,1.5,0.1,2.3,0.1c2.1,0,3.1-0.7,3.1-2.1c0-1.2-0.8-1.9-2.3-1.9
		c-1.6,0-2.4,0.6-2.7,2l-4.8-0.7c0.4-1.4,0.8-2,1.5-2.8c1.3-1.5,3.4-2.2,6.1-2.2c2.4,0,4.4,0.7,5.6,1.9c0.8,0.8,1.2,1.9,1.2,3.1
		c0,2.3-1.3,3.8-3.8,4.4c1.3,0.2,2.1,0.5,2.8,1.2c0.9,0.8,1.5,2,1.5,3.3c0,1.1-0.3,2.2-0.9,2.9c-0.5,0.7-1.3,1.3-2.1,1.7
		c-1.1,0.5-2.9,0.9-4.6,0.9c-2,0-4-0.5-5.1-1.2c-1-0.7-1.8-1.6-2.3-2.8c-0.1-0.3-0.2-0.6-0.4-1.2L28.8,42.7z"/>
</g>
<g>
	<path class="st3" d="M29.9,54.9v-3.5h4v3.5H29.9z"/>
</g>
</svg>
