<?xml version="1.0" encoding="utf-8"?>
<!-- Generator: Adobe Illustrator 24.0.1, SVG Export Plug-In . SVG Version: 6.00 Build 0)  -->
<svg version="1.1" id="レイヤー_1" xmlns="http://www.w3.org/2000/svg" xmlns:xlink="http://www.w3.org/1999/xlink" x="0px"
	 y="0px" viewBox="0 0 572.3 86.8" style="enable-background:new 0 0 572.3 86.8;" xml:space="preserve">
<style type="text/css">
	.st0{fill:#040000;}
	.st1{fill:#E60000;}
	.st2{fill:#FFFFFF;}
	.st3{enable-background:new    ;}
</style>
<polygon class="st0" points="12.7,74.3 0,86.8 6.5,86.8 19.2,74.3 "/>
<polygon class="st0" points="23.5,74.3 10.8,86.8 17.4,86.8 30,74.3 "/>
<polygon class="st0" points="34.3,74.3 21.7,86.8 28.2,86.8 40.9,74.3 "/>
<polygon class="st0" points="45.2,74.3 32.5,86.8 39,86.8 51.7,74.3 "/>
<polygon class="st0" points="56,74.3 43.4,86.8 49.9,86.8 62.5,74.3 "/>
<polygon class="st0" points="66.9,74.3 54.2,86.8 60.7,86.8 73.4,74.3 "/>
<polygon class="st0" points="77.7,74.3 65.1,86.8 71.6,86.8 84.2,74.3 "/>
<polygon class="st0" points="88.6,74.3 75.9,86.8 82.4,86.8 95.1,74.3 "/>
<polygon class="st0" points="99.4,74.3 86.8,86.8 93.3,86.8 105.9,74.3 "/>
<polygon class="st0" points="110.3,74.3 97.6,86.8 104.1,86.8 116.8,74.3 "/>
<polygon class="st0" points="121.1,74.3 108.5,86.8 115,86.8 127.6,74.3 "/>
<polygon class="st0" points="132,74.3 119.3,86.8 125.8,86.8 138.5,74.3 "/>
<polygon class="st0" points="142.8,74.3 130.2,86.8 136.7,86.8 149.3,74.3 "/>
<polygon class="st0" points="153.7,74.3 141,86.8 147.5,86.8 160.2,74.3 "/>
<polygon class="st0" points="164.5,74.3 151.9,86.8 158.4,86.8 171,74.3 "/>
<polygon class="st0" points="175.4,74.3 162.7,86.8 169.2,86.8 181.9,74.3 "/>
<polygon class="st0" points="186.2,74.3 173.5,86.8 180.1,86.8 192.7,74.3 "/>
<polygon class="st0" points="197,74.3 184.4,86.8 190.9,86.8 203.6,74.3 "/>
<polygon class="st0" points="207.9,74.3 195.2,86.8 201.7,86.8 214.4,74.3 "/>
<polygon class="st0" points="218.7,74.3 206.1,86.8 212.6,86.8 225.2,74.3 "/>
<polygon class="st0" points="229.6,74.3 216.9,86.8 223.4,86.8 236.1,74.3 "/>
<polygon class="st0" points="240.4,74.3 227.8,86.8 234.3,86.8 246.9,74.3 "/>
<polygon class="st0" points="251.3,74.3 238.6,86.8 245.1,86.8 257.8,74.3 "/>
<polygon class="st0" points="262.1,74.3 249.5,86.8 256,86.8 268.6,74.3 "/>
<polygon class="st0" points="273,74.3 260.3,86.8 266.8,86.8 279.5,74.3 "/>
<polygon class="st0" points="283.8,74.3 271.2,86.8 277.7,86.8 290.3,74.3 "/>
<polygon class="st0" points="294.7,74.3 282,86.8 288.5,86.8 301.2,74.3 "/>
<polygon class="st0" points="305.5,74.3 292.9,86.8 299.4,86.8 312,74.3 "/>
<polygon class="st0" points="316.4,74.3 303.7,86.8 310.2,86.8 322.9,74.3 "/>
<polygon class="st0" points="327.2,74.3 314.5,86.8 321.1,86.8 333.7,74.3 "/>
<polygon class="st0" points="338.1,74.3 325.4,86.8 331.9,86.8 344.6,74.3 "/>
<polygon class="st0" points="348.9,74.3 336.2,86.8 342.7,86.8 355.4,74.3 "/>
<polygon class="st0" points="359.7,74.3 347.1,86.8 353.6,86.8 366.3,74.3 "/>
<polygon class="st0" points="370.6,74.3 357.9,86.8 364.4,86.8 377.1,74.3 "/>
<polygon class="st0" points="381.4,74.3 368.8,86.8 375.3,86.8 387.9,74.3 "/>
<polygon class="st0" points="392.3,74.3 379.6,86.8 386.1,86.8 398.8,74.3 "/>
<polygon class="st0" points="403.1,74.3 390.5,86.8 397,86.8 409.6,74.3 "/>
<polygon class="st0" points="414,74.3 401.3,86.8 407.8,86.8 420.5,74.3 "/>
<polygon class="st0" points="424.8,74.3 412.2,86.8 418.7,86.8 431.3,74.3 "/>
<polygon class="st0" points="435.7,74.3 423,86.8 429.5,86.8 442.2,74.3 "/>
<polygon class="st0" points="446.5,74.3 433.9,86.8 440.4,86.8 453,74.3 "/>
<polygon class="st0" points="457.4,74.3 444.7,86.8 451.2,86.8 463.9,74.3 "/>
<polygon class="st0" points="468.2,74.3 455.6,86.8 462.1,86.8 474.7,74.3 "/>
<polygon class="st0" points="479.1,74.3 466.4,86.8 472.9,86.8 485.6,74.3 "/>
<polygon class="st0" points="489.9,74.3 477.2,86.8 483.8,86.8 496.4,74.3 "/>
<polygon class="st0" points="500.7,74.3 488.1,86.8 494.6,86.8 507.3,74.3 "/>
<polygon class="st0" points="511.6,74.3 498.9,86.8 505.4,86.8 518.1,74.3 "/>
<polygon class="st0" points="522.4,74.3 509.8,86.8 516.3,86.8 528.9,74.3 "/>
<polygon class="st0" points="533.3,74.3 520.6,86.8 527.1,86.8 539.8,74.3 "/>
<polygon class="st0" points="544.1,74.3 531.5,86.8 538,86.8 550.6,74.3 "/>
<polygon class="st0" points="555,74.3 542.3,86.8 548.8,86.8 561.5,74.3 "/>
<polygon class="st0" points="565.8,74.3 553.2,86.8 559.7,86.8 572.3,74.3 "/>
<g>
	<g>
		<path class="st1" d="M36.2,16.5c-0.9-1.6-2.5-2.5-4.3-2.5s-3.4,0.9-4.3,2.5L6.8,52.8c-0.9,1.6-0.9,3.4,0,5s2.5,2.5,4.3,2.5
			l41.7-0.2c1.8,0,3.4-0.9,4.3-2.5c0.9-1.6,0.9-3.4,0-5L36.2,16.5z"/>
		<path class="st2" d="M11.1,61.5c-2.2,0-4.3-1.2-5.4-3.1c-1.1-1.9-1.1-4.3,0-6.2L26.4,16c1.1-2,3.1-3.1,5.4-3.1l0,0
			c2.2,0,4.3,1.2,5.4,3.1l21,36.1c1.1,1.9,1.1,4.3,0,6.2c-1.1,2-3.1,3.1-5.4,3.1L11.1,61.5C11.2,61.5,11.1,61.5,11.1,61.5z
			 M31.8,15.3L31.8,15.3c-1.4,0-2.6,0.7-3.3,1.9L7.9,53.4c-0.7,1.2-0.7,2.6,0,3.8c0.7,1.1,1.9,1.8,3.2,1.8l0,0l41.7-0.2
			c1.4,0,2.6-0.7,3.2-1.9c0.7-1.2,0.7-2.6,0-3.8l-20.9-36C34.4,16,33.2,15.3,31.8,15.3z"/>
	</g>
	<path class="st1" d="M60.4,50.7l-21-36.1c-1.6-2.7-4.4-4.4-7.6-4.3l0,0c-3.2,0-6,1.7-7.6,4.4L3.5,50.9c-1.6,2.7-1.6,6,0,8.7
		s4.4,4.4,7.6,4.3l41.7-0.2c3.2,0,6-1.7,7.6-4.4C62,56.7,62,53.4,60.4,50.7z M57.2,57.6c-0.9,1.6-2.5,2.5-4.3,2.5l-41.7,0.2
		c-1.8,0-3.4-0.9-4.3-2.5s-0.9-3.4,0-5l20.7-36.2c0.9-1.6,2.5-2.5,4.3-2.5s3.4,0.9,4.3,2.5l21,36.1C58.1,54.1,58.1,56,57.2,57.6z"/>
</g>
<g class="st3">
	<path class="st2" d="M27.7,48.3c-2,0-2.5,0-3.3,0.1c0.1-1.1,0.2-1.7,0.5-2.6c0.6-1.8,1.6-3.5,3.2-4.9c0.8-0.8,1.7-1.4,3.9-2.9
		c1.9-1.3,2.4-1.8,2.4-2.9c0-1.1-0.9-1.8-2.4-1.8c-1.1,0-1.8,0.4-2.3,1.1c-0.3,0.5-0.4,0.9-0.6,1.8l-4.6-0.5
		c0.3-1.9,0.7-2.9,1.6-3.9c1.3-1.5,3.3-2.3,5.8-2.3c3,0,5.2,1,6.3,2.8c0.5,0.8,0.7,1.6,0.7,2.6c0,1.6-0.7,3-2,4.1
		c-0.7,0.6-0.9,0.8-3.2,2.4c-1.9,1.3-2.7,2.1-3.2,3.1h5.1c1.7,0,2.7,0,3.5-0.2v4.2c-1.3-0.1-2.2-0.2-3.8-0.2
		C35.3,48.3,27.7,48.3,27.7,48.3z"/>
</g>
<g>
	<path class="st2" d="M29.9,54.9v-3.5h4v3.5H29.9z"/>
</g>
<g class="st3">
	<path d="M99.6,37.7c-1.4,0.8-2.3,1.2-3.9,1.9c-0.7-1.8-1.1-2.6-2.1-4c2.5-0.8,4.1-1.5,6.3-3c2.2-1.5,3.4-2.7,4.6-4.5h4.5
		c1.3,1.7,2.6,2.9,4.7,4.2c2.2,1.4,4.2,2.3,6.6,3.1c-0.9,1.6-1.4,2.7-1.9,4.3c-1.6-0.6-2.5-1.1-4.1-2v1.6c-0.8-0.1-1.5-0.1-2.6-0.1
		h-9.5c-0.9,0-1.8,0-2.6,0.1V37.7z M98.4,44.5c-1.4,0-2.4,0.1-3.4,0.2v-4.2c1,0.1,2.1,0.1,3.4,0.1h17.3c1.3,0,2.3-0.1,3.3-0.1v4.2
		c-1-0.1-1.9-0.2-3.3-0.2h-2.7c2.8,3,3.6,4.1,5.8,7.1L115,54c-0.6-1-0.6-1-1.3-2c-3.2,0.4-3.2,0.4-4.7,0.5
		c-1.8,0.2-9.2,0.8-10.4,0.9c-1,0.1-1.7,0.2-2.4,0.3L95.6,49c0.7,0.1,1.2,0.1,1.8,0.1c0.3,0,0.3,0,1.9-0.1c0.9-1.4,1.7-2.9,2.4-4.5
		H98.4z M110.8,35.4c-1.6-1.2-2.6-2.2-3.9-3.7c-1.2,1.5-2,2.3-3.9,3.7H110.8z M106.6,44.5c-0.7,1.5-1.6,3.1-2.4,4.3
		c4-0.2,4-0.2,6.9-0.4c-0.8-0.9-1.2-1.4-2.3-2.6l3.2-1.3H106.6z"/>
	<path d="M126.5,48.7c-1.4,0-2,0-3,0.1c0.1-0.7,0.1-1.5,0.1-2.9v-7.2c0-1.4,0-2-0.1-2.9c0.8,0.1,1.8,0.1,3,0.1H142c1.4,0,2,0,3-0.1
		c-0.1,0.7-0.1,1.3-0.1,2.9v7.2c0,1.5,0,2.3,0.1,2.9c-0.9-0.1-1.7-0.1-3-0.1h-1.8c2.4,0.9,4.5,1.3,7.5,1.6c-1,1.5-1.5,2.3-2.1,3.7
		c-4.4-0.8-6.7-1.6-9.9-3.6l1.8-1.7H131l2,1.8c-3.1,1.8-5.4,2.6-10,3.5c-0.6-1.5-1.1-2.4-2.1-3.7c3.1-0.3,5.3-0.7,7.4-1.6H126.5z
		 M143.9,33c0,0.8,0,1.5,0.1,2.1c-0.9,0-1.7-0.1-2.9-0.1h-13.7c-1.2,0-2.1,0-2.9,0.1c0.1-0.7,0.1-1.4,0.1-2.1v-2.6
		c0-0.9,0-1.4-0.1-2.2c1,0.1,1.7,0.1,3.1,0.1H141c1.4,0,2.1,0,3.1-0.1c-0.1,0.8-0.1,1.3-0.1,2.2V33z M127.6,39.6h13.2v-0.9h-13.2
		V39.6z M127.6,42.7h13.2v-0.9h-13.2V42.7z M127.6,45.8h13.2v-0.9h-13.2V45.8z M128.9,31.3v1.1h10.7v-1.1H128.9z"/>
	<path d="M174.2,32.7c-0.2,0.2-0.2,0.2-0.5,0.7c-0.4,0.6-1.2,1.4-2,2.2c1.1,0.6,1.9,0.9,3.3,1.3c-0.8,1.5-1.2,2.3-1.7,4
		c-1.2-0.5-1.6-0.7-2.3-1.1c0,0.4,0,0.6,0,1.2v4c0,1,0,1.5,0.1,2.1c-0.2,0-0.8-0.1-1.8-0.1h-3.7l3.1,0.7c-0.2,0.4-0.2,0.4-0.4,0.7
		c-0.1,0.2-0.2,0.4-0.3,0.6c0,0.1-0.1,0.1-0.1,0.2h3.8c1.4,0,1.9,0,2.7-0.1v4.1c-0.9-0.1-1.5-0.1-3-0.1h-19.2c-1.5,0-2.1,0-3,0.1
		v-4.1c0.8,0.1,1.3,0.1,2.7,0.1h3.6c-0.2-0.6-0.4-0.9-0.9-1.6l3.1-0.6h-3.5c-1.5,0-1.5,0-1.8,0.1c0.1-0.8,0.1-1.2,0.1-2.1v-3.9
		c0-0.5,0-0.7,0-1.1c-0.8,0.4-1.1,0.6-2.2,1c-0.5-1.4-1-2.5-1.8-3.8c1.3-0.4,2.5-0.9,4-1.7c-1.4-1.5-2.1-2.1-3.5-3.2l3-2.4
		c0.8,0.6,1.1,0.8,1.7,1.4v-3.3c0.8,0.1,1.2,0.1,2.6,0.1h5.2c1.3,0,1.7,0,2.3-0.1c0.4,1.2,0.6,1.4,1.4,2.5c0.9-1,1.4-1.7,1.8-2.4
		l3.3,1.9c-0.2,0.2-0.2,0.3-0.6,0.7c-0.6,0.8-1.2,1.5-2,2.3c0.4,0.3,0.6,0.4,1,0.7c1-0.9,1.8-1.9,2.3-2.8L174.2,32.7z M157.2,37.1
		c-1.4,1.1-2.3,1.6-3.4,2.3c0.3,0,0.4,0,0.7,0h14.5c0.4,0,0.6,0,1,0c-1.1-0.6-2-1.2-3.4-2.3v1.3c-0.4-0.1-0.7-0.1-1.5-0.1h-6.4
		c-0.5,0-0.9,0-1.3,0.1V37.1z M155.1,31.6c-0.4,0-0.7,0-1.2,0.1c0.8,0.7,1.1,1,1.7,1.7c0.8-0.6,1.1-1,1.8-1.7H155.1z M156.4,43.9
		h10.4v-1.3h-10.4V43.9z M163.6,49.4c0.2-0.5,0.8-1.8,0.9-2.3h-5.9c0.3,0.6,0.7,1.5,0.9,2.3H163.6z M164.1,35.2
		c-1-0.9-1.4-1.4-2.4-2.6c-1,1.2-1.3,1.7-2.4,2.6H164.1z"/>
	<path d="M197.7,28.5c1.1,0,1.9,0,2.5-0.1c-0.1,0.5-0.1,0.8-0.2,2.1c-0.1,1.8-0.2,4.5-0.2,5.9c1.2,0,1.7,0,2.4-0.1V40
		c-0.9-0.1-1.8-0.1-2.7-0.1h-2.9c0.4,1.5,0.5,1.8,0.8,2.7c1-0.9,1.6-1.5,2.3-2.6l2.7,2.3c-1,1.2-2.1,2.3-3.3,3.2
		c1,1.3,1.9,2.2,3.6,3.3c-0.9,1.3-1.3,2-2.2,3.9c-2.1-1.8-3.2-3.3-4.3-5.9c0,0.4,0.1,1.2,0.1,2.2v1.7c0,2.2-0.9,2.9-3.7,2.9
		c-0.5,0-1.1,0-2.3-0.1c-0.2-1.5-0.3-2.3-0.7-3.2c-0.8,0.6-0.9,0.7-1.8,1.3l-1.2-2.8l0,2.7c-2.1,0.6-4.8,1.2-8.8,1.8
		c-0.1,0-0.4,0.1-0.9,0.2l-0.5-4.2c1.2,0,1.9-0.1,4-0.3v-7h-1c-1.2,0-2.1,0.1-2.8,0.2v-3.9c0.6,0.1,1.6,0.2,2.8,0.2h1v-1.1h-0.2
		c-0.5,0-0.9,0-1.4,0.1v-1.3c-0.6,0.5-0.8,0.7-1.4,1.2c-0.5-1.8-0.8-2.5-1.5-3.9c2.2-1.4,3.7-3.1,4.6-5.3h4.1
		c0.7,1.4,1.5,2.3,3.3,3.7v-3.4c0.8,0.1,1.6,0.1,2.9,0.1H197.7z M177.5,48.6c-0.2-1.8-0.5-2.9-1.1-5.1l2.6-0.9
		c0.6,1.7,0.8,2.8,1.2,5.1L177.5,48.6z M184.5,34.1c-0.8-0.9-1.2-1.4-1.9-2.6c-0.6,1.1-1,1.6-1.8,2.6H184.5z M195.8,36.5
		c0-0.7,0-0.7,0.1-0.9H191c-1.3,0-2,0-2.6,0.1v-3.1c0.7,0.1,1.2,0.1,2.6,0.1h4.9l0-0.8h-5.6c-1,0-2,0-2.5,0.1l0.4,0.3
		c-1.2,1.7-1.5,2.2-2.1,3.3v1.9c-0.5-0.1-0.7-0.1-1.5-0.1h-0.6v1.1h1c0.7,0,1.2,0,1.7-0.1v-2.1c0.8,0.1,1.5,0.1,2.7,0.1H195.8z
		 M189.5,39.9c-1.2,0-1.8,0-2.6,0.1v2.1c-0.6-0.1-1-0.1-1.9-0.1h-1v6.4c1-0.2,1.3-0.2,2.4-0.5c1.7-0.8,3-1.6,4.7-2.9l1.2,2.8v-7.9
		H189.5z M184.2,46.8c0.5-1.6,0.7-2.5,1-4.2l2.4,0.9c-0.4,1.6-0.7,2.7-1.3,4.1L184.2,46.8z M189.9,40.1c1.2,1.3,1.8,2.2,2.5,3.6
		l-2.9,2c-1-2-1.5-2.8-2.5-3.9L189.9,40.1z M192.5,47.9c-0.9,0.9-1.1,1.1-2.2,2c0.7,0.1,0.9,0.1,1.3,0.1c0.8,0,1-0.1,1-0.7V47.9z"/>
	<path d="M208.5,32.9c-1.3,0-3.1,0.1-4.5,0.2v-4.4c1.3,0.1,2.8,0.2,4.3,0.2h16.7c1.8,0,3.3-0.1,4.3-0.2v4.4
		c-1.4-0.1-2.9-0.2-4.2-0.2h-4.4c-0.6,1.1-0.9,1.6-2,3.2v2.3l1.7-2.1c2.8,3.2,6.1,5.7,9.6,7.2c-1,1.3-1.7,2.5-2.5,4.2
		c-3.7-2.2-6.3-4.3-8.8-7v9c0,1.5,0.1,2.8,0.2,4h-4.8c0.1-1.2,0.2-2.5,0.2-4v-7.4c0-0.2,0-0.5,0-0.8c0-0.2,0-0.2,0-0.5
		c-0.9,1.1-2.1,2.3-3.9,3.6c-1.4,1.1-2.7,2-4.6,3.1c-0.6-1.4-1.3-2.6-2.5-3.9c2.4-1.2,3.7-2,5.6-3.5c3.1-2.4,4.9-4.4,6.6-7.3H208.5z
		"/>
	<path d="M239.9,41.8c0.2-0.4,0.3-0.6,0.6-1.1h-3.7c-1.4,0-2.3,0-3.2,0.1c0.1-0.9,0.1-1.6,0.1-2.9v-1.7c0-1.4,0-2.2-0.1-3.1
		c0.9,0.1,1.8,0.1,3.1,0.1h2.8v-1.1h-4.3c-1.3,0-2.3,0.1-3.3,0.1v-3.8c1,0.1,2.1,0.2,3.7,0.2h17.6c1.7,0,2.9-0.1,3.7-0.2v3.8
		c-1-0.1-2-0.1-3.3-0.1h-4.4v1.1h2.8c1.5,0,2.4,0,3.2-0.1c-0.1,0.8-0.1,1.5-0.1,3v1.6c0,1.5,0,2.3,0.1,3c-0.7-0.1-1.6-0.1-3.1-0.1
		h-7c-0.2,0.3-0.3,0.5-0.4,0.7c-0.1,0.2-0.1,0.2-0.2,0.4h9.1c1.7,0,2.5,0,3.3-0.1v3.7c-1-0.1-1.9-0.2-3.3-0.2h-1.8
		c-0.6,1.3-1.1,2-1.9,3c2.7,0.8,3.7,1.2,6.3,2.2l-2.5,3.4c-3.4-1.6-4.3-2-7.2-3c-3.2,1.7-6.9,2.5-12.7,2.7c-0.4-1.5-0.8-2.3-1.6-3.7
		c0.9,0,1.5,0,1.9,0c2.9,0,5.2-0.2,7.1-0.7c-2.9-0.7-3.6-0.9-6.2-1.5c1.2-1.2,1.7-1.7,2.4-2.5h-2.1c-1.4,0-2.3,0.1-3.3,0.2v-3.7
		c0.9,0.1,1.7,0.1,3.3,0.1H239.9z M237.8,36.1V38h1.8v-1.9H237.8z M242,45.3c-0.2,0.3-0.4,0.4-0.7,0.8c3.3,0.7,3.3,0.7,4.2,1
		c0.7-0.6,1.1-1.1,1.5-1.8H242z M243.5,33.3h1.8v-1.1h-1.8V33.3z M243.5,38h1.8v-1.9h-1.8V38z M249.2,38h1.9v-1.9h-1.9V38z"/>
	<path d="M278.2,40.7c0,2.3-1.9,4.2-4.2,4.2c-2.3,0-4.2-1.9-4.2-4.2c0-2.3,1.9-4.2,4.2-4.2C276.4,36.5,278.2,38.4,278.2,40.7z"/>
	<path d="M300,33.3c0.1-1.1,0.1-2.7,0.1-3.5c0-0.6,0-0.8-0.1-1.4l5.2,0.1c-0.1,0.6-0.1,0.7-0.3,3.3c0,0.7,0,0.7-0.1,1.4h6
		c0.9,0,1.2-0.1,1.8-0.3l2.1,1.9c-0.3,0.6-0.4,0.8-0.4,2c-0.2,5.9-0.6,10.5-1.2,12.3c-0.8,2.6-2.1,3.4-5.2,3.4c-1.1,0-1.5,0-3.6-0.2
		c-0.1-2.2-0.3-3.1-0.9-4.8c1.4,0.4,2.7,0.6,3.6,0.6c1.3,0,1.7-0.4,2-2.8c0.3-1.8,0.5-5.3,0.5-7.7h-5.3c-0.2,1.8-0.2,1.8-0.4,2.8
		c-1.2,5.6-3.8,9.1-9.4,12.8c-1.2-2-2.1-2.9-3.6-4.2c3.7-1.9,5.8-3.9,7.2-6.7c0.7-1.4,1-2.4,1.4-4.7h-3.4c-1.8,0-2.4,0-3.7,0.2
		l0-4.7c1.4,0.2,1.9,0.2,3.8,0.2H300z"/>
	<path d="M321.4,29.9c3.5,2,5.3,3.3,7.6,5.4l-3.2,4.3c-2.4-2.5-4.7-4.3-7.5-5.8L321.4,29.9z M318.5,47c2.8-0.2,5.7-0.9,8.3-2
		c3.5-1.4,5.9-3.5,8.1-6.8c1.2-1.8,1.9-3.3,2.7-5.4c1.3,1.6,2,2.2,4,3.7c-2.5,5.4-5.1,8.7-9,11.1c-3,1.9-5.6,2.9-10.7,4.1
		c-1.1,0.2-1.2,0.3-2,0.5L318.5,47z"/>
	<path d="M356.5,28.8c0,0.1-0.4,0.8-1.2,2.4l7.4-0.1c0.8,0,1.2-0.1,1.7-0.4l2.4,2.4c-0.3,0.4-0.4,0.5-0.6,1.2
		c-1.6,4.9-3.1,7.9-5.1,10.6c-1.8,2.4-4,4.5-6.7,6.2c-1.5,1-2.6,1.6-4.7,2.5c-1-1.8-1.7-2.6-3.2-4.1c4.2-1.5,6.9-3.1,9.3-5.6
		c-1.7-1.4-3.1-2.3-5.1-3.4l2.9-3.5c2.5,1.3,3.3,1.9,5.1,3.1c1.1-1.7,1.8-3.2,2.4-5l-7.6,0.1c-1.6,2.8-3.5,5-6.3,7.5
		c-1.3-1.4-2.2-2.1-4-3.1c3.2-2.6,5.2-4.8,6.9-7.9c0.8-1.4,1.2-2.6,1.6-3.9L356.5,28.8z"/>
	<path d="M372.8,29.9c3.5,2,5.3,3.3,7.6,5.4l-3.2,4.3c-2.4-2.5-4.7-4.3-7.5-5.8L372.8,29.9z M369.9,47c2.8-0.2,5.7-0.9,8.3-2
		c3.5-1.4,5.9-3.5,8.1-6.8c1.2-1.8,1.9-3.3,2.7-5.4c1.3,1.6,2,2.2,4,3.7c-2.5,5.4-5.1,8.7-9,11.1c-3,1.9-5.6,2.9-10.7,4.1
		c-1.1,0.2-1.2,0.3-2,0.5L369.9,47z"/>
	<path d="M400.7,45.1c0.2,0.9,0.3,1.3,0.8,1.8c0.7,0.8,1.8,1.2,3.2,1.2c2.1,0,3.5-1.1,3.5-2.8c0-1.1-0.6-2-1.5-2.4
		c-0.6-0.2-1.5-0.4-2.6-0.4c-1.1,0-2.3,0.1-3.4,0.2V38c0.9,0.1,1.8,0.2,2.9,0.2c2.6,0,3.9-0.9,3.9-2.6c0-1.5-1-2.3-2.9-2.3
		c-2,0-2.9,0.8-3.4,2.5l-5.9-0.9c0.5-1.7,1-2.5,1.8-3.5c1.7-1.8,4.2-2.8,7.6-2.8c3,0,5.5,0.8,7,2.3c1,1,1.5,2.3,1.5,3.9
		c0,2.9-1.6,4.7-4.7,5.5c1.7,0.2,2.6,0.6,3.6,1.5c1.2,1,1.8,2.5,1.8,4.1c0,1.4-0.4,2.7-1.1,3.7c-0.6,0.8-1.6,1.6-2.6,2.1
		c-1.4,0.7-3.7,1.1-5.7,1.1c-2.5,0-5-0.6-6.4-1.5c-1.3-0.8-2.2-2-2.8-3.6c-0.2-0.4-0.3-0.7-0.5-1.5L400.7,45.1z"/>
	<path d="M423.8,40.6c-0.7,0-1.2,0-1.9,0.1v-1.5c-1.3,1.4-2,2-3.4,3.1c-0.9-1.6-1.6-2.6-2.8-3.9c3.2-2.2,5.3-4.7,6.9-7.8
		c0.6-1.1,0.8-1.8,1-2.6l4.5,1.7c-0.3,0.5-0.4,0.7-0.7,1.4c-0.8,1.7-2.1,4-3.5,5.8h10.4c-1.5-1.9-2.6-3.8-3.6-6.1
		c-0.2-0.4-0.4-0.8-0.5-1.2l4.1-1.6c0.2,0.7,0.4,1.3,1.1,2.5c1.7,3,4,5.4,7.1,7.3c-1.3,1.7-1.7,2.1-2.8,4.2
		c-1.2-0.9-1.7-1.3-2.3-1.9c0,5.5-0.4,9.3-1.1,10.8c-0.7,1.6-2.1,2.1-5.5,2.1c-0.3,0-0.3,0-2,0c-0.2-1.6-0.4-2.5-1.2-4.4
		c1.2,0.2,2.3,0.2,2.9,0.2c1.4,0,1.8-0.2,2-1.3c0.3-1.1,0.5-3.8,0.5-6.9h-4.2c-0.3,3-0.9,4.9-2.2,7c-1.1,1.8-2.5,3.3-4.3,4.6
		c-0.9,0.6-1.4,0.9-2.8,1.5c-0.9-1.6-1.4-2.3-2.7-3.7c3.2-1.3,5.2-2.9,6.4-5.1c0.8-1.4,1.1-2.5,1.2-4.3H423.8z"/>
	<path d="M466.1,32.1c-0.7,0.2-0.7,0.2-1.5,0.5c-1.6,0.5-3.1,0.9-5.3,1.3c0,1.4-0.1,3.1-0.1,3.7h4.5c2.1,0,3.2-0.1,4.3-0.2V42
		c-1.1-0.1-1.8-0.1-4.3-0.1h-4.9c-0.3,2.5-0.9,4.2-1.8,5.8c-1,1.6-2.6,3.2-4.6,4.4c-0.8,0.5-1.3,0.8-2.7,1.4c-1-1.8-1.8-2.8-3.4-4.1
		c3.3-1.2,5-2.3,6.2-3.9c0.7-1,1.1-2,1.3-3.6h-5.4c-2.5,0-3.1,0-4.3,0.1v-4.5c1.2,0.2,1.8,0.2,4.4,0.2h5.8c0.1-0.8,0.1-1.3,0.1-2.3
		v-0.8c-2.6,0.3-2.8,0.3-7.3,0.5c-0.3-1.5-0.6-2.5-1.4-4.2c0.9,0.1,1.4,0.1,1.8,0.1c3.7,0,8.9-0.6,12.1-1.4c1.4-0.4,2.4-0.7,3.5-1.3
		L466.1,32.1z"/>
	<path d="M484.1,48h4.3c1.8,0,2.6,0,3.7-0.2V52c-1-0.1-1.8-0.1-3.7-0.1h-12.8c-2,0-2.4,0-3.7,0.1v-4.2c1,0.1,1.7,0.2,3.7,0.2h4.1
		v-8.2h-2.5c-1.8,0-2.4,0-3.6,0.1v-4.2c1.1,0.1,1.9,0.2,3.6,0.2h9.6c1.8,0,2.5-0.1,3.6-0.2v4.2c-0.8-0.1-1.9-0.1-3.6-0.1h-2.6V48z"
		/>
	<path d="M500.5,34.7c1.1,2,1.9,4.3,2.7,7l-4.3,1.3c-0.7-2.9-1.3-4.5-2.5-7.1L500.5,34.7z M516.5,35.1c-0.2,0.5-0.2,0.6-0.4,1.7
		c-0.8,3.9-1.9,6.7-3.4,9c-1.5,2.2-3.4,4.1-5.8,5.6c-1,0.6-1.7,1-3.3,1.8c-0.9-1.7-1.5-2.4-3-3.9c5.5-2.1,8.5-4.9,10.2-9.5
		c0.7-1.9,1.2-4.2,1.2-5.8L516.5,35.1z M506.5,33.5c1.5,2.8,2,4.1,2.7,6.7l-4.2,1.3c-0.5-2.3-1.3-4.3-2.5-6.9L506.5,33.5z"/>
	<path d="M533,28.8c-0.1,0.2-0.2,0.3-0.3,0.7c-0.1,0.1-0.1,0.2-0.2,0.4c-0.1,0.3-0.2,0.5-0.2,0.6c-0.4,0.8-0.4,0.8-0.6,1.2l6.9-0.1
		c1.1,0,1.4-0.1,2-0.3l2.3,2.3c-0.3,0.6-0.4,0.7-0.8,2c-1.4,4.6-3.3,8.1-5.7,10.9c-2.5,2.9-5.6,5-10.1,7.1c-0.9-1.8-1.8-2.8-3.3-4.2
		c3.9-1.4,6.8-3.2,9.2-5.6c2-2.1,3.6-4.7,4.6-7.8l-7.3,0.1c-1.8,2.8-3.6,4.8-6.2,6.9c-1.4-1.6-2.1-2.2-3.9-3.3
		c3.4-2.4,5.5-4.9,7.3-8.4c0.7-1.4,1-2.3,1.2-3.3L533,28.8z"/>
	<path d="M551.2,45.1c0.1-0.6,0.1-0.8,0.1-1.2c0-0.5,0-0.5-0.1-2.1l-0.6-8.7c-0.1-1.1-0.2-2.4-0.3-3.7h6.4c-0.1,0.6-0.2,2.6-0.3,3.7
		l-0.6,8.7c-0.1,1.2-0.1,1.7-0.1,2.1c0,0.3,0,0.6,0,1.3H551.2z M550.7,52.2V47h5.5v5.2H550.7z"/>
</g>
</svg>
